<?xml version="1.0" encoding="UTF-8" standalone="no"?>
<!DOCTYPE svg PUBLIC "-//W3C//DTD SVG 1.1//EN"
 "http://www.w3.org/Graphics/SVG/1.1/DTD/svg11.dtd">
<!-- Generated by graphviz version 14.0.2 (20251019.1705)
 -->
<!-- Title: ShaderProgramSource Pages: 1 -->
<svg width="142pt" height="172pt"
 viewBox="0.00 0.00 142.00 172.00" xmlns="http://www.w3.org/2000/svg" xmlns:xlink="http://www.w3.org/1999/xlink">
<g id="graph0" class="graph" transform="scale(1 1) rotate(0) translate(4 168)">
<title>ShaderProgramSource</title>
<!-- Node1 -->
<g id="Node000001" class="node">
<title>Node1</title>
<g id="a_Node000001"><a xlink:title=" ">
<polygon fill="#999999" stroke="none" points="106.25,-52 0,-52 0,0 106.25,0 106.25,-52"/>
<text xml:space="preserve" text-anchor="start" x="4" y="-38.5" font-family="Helvetica,sans-Serif" font-size="10.00">ShaderProgramSource</text>
<text xml:space="preserve" text-anchor="start" x="51.62" y="-22.5" font-family="Helvetica,sans-Serif" font-size="10.00"> </text>
<text xml:space="preserve" text-anchor="start" x="51.62" y="-6.5" font-family="Helvetica,sans-Serif" font-size="10.00"> </text>
<polygon fill="#666666" stroke="#666666" points="0,-34 0,-34 106.25,-34 106.25,-34 0,-34"/>
<polygon fill="#666666" stroke="#666666" points="0,-18 0,-18 106.25,-18 106.25,-18 0,-18"/>
<polygon fill="none" stroke="#666666" points="0,0 0,-52 106.25,-52 106.25,0 0,0"/>
</a>
</g>
</g>
<!-- Node2 -->
<g id="Node000002" class="node">
<title>Node2</title>
<g id="a_Node000002"><a xlink:title=" ">
<polygon fill="white" stroke="none" points="69.12,-164 37.12,-164 37.12,-112 69.12,-112 69.12,-164"/>
<text xml:space="preserve" text-anchor="start" x="41.12" y="-150.5" font-family="Helvetica,sans-Serif" font-size="10.00">string</text>
<text xml:space="preserve" text-anchor="start" x="51.62" y="-134.5" font-family="Helvetica,sans-Serif" font-size="10.00"> </text>
<text xml:space="preserve" text-anchor="start" x="51.62" y="-118.5" font-family="Helvetica,sans-Serif" font-size="10.00"> </text>
<polygon fill="#666666" stroke="#666666" points="37.12,-146 37.12,-146 69.12,-146 69.12,-146 37.12,-146"/>
<polygon fill="#666666" stroke="#666666" points="37.12,-130 37.12,-130 69.12,-130 69.12,-130 37.12,-130"/>
<polygon fill="none" stroke="#666666" points="37.12,-112 37.12,-164 69.12,-164 69.12,-112 37.12,-112"/>
</a>
</g>
</g>
<!-- Node2&#45;&gt;Node1 -->
<g id="edge1_Node000001_Node000002" class="edge">
<title>Node2&#45;&gt;Node1</title>
<g id="a_edge1_Node000001_Node000002"><a xlink:title=" ">
<path fill="none" stroke="#63b8ff" d="M53.12,-112.04C53.12,-98.12 53.12,-80.49 53.12,-64.9"/>
<polygon fill="none" stroke="#63b8ff" points="53.13,-64.76 49.13,-58.76 53.13,-52.76 57.13,-58.76 53.13,-64.76"/>
</a>
</g>
<text xml:space="preserve" text-anchor="middle" x="93.62" y="-84.5" font-family="Helvetica,sans-Serif" font-size="10.00" fill="grey"> +FragmentSource</text>
<text xml:space="preserve" text-anchor="middle" x="93.62" y="-72.5" font-family="Helvetica,sans-Serif" font-size="10.00" fill="grey">+VertexSource</text>
</g>
</g>
</svg>
