<?xml version="1.0" encoding="UTF-8" standalone="no"?>
<!DOCTYPE svg PUBLIC "-//W3C//DTD SVG 1.1//EN"
 "http://www.w3.org/Graphics/SVG/1.1/DTD/svg11.dtd">
<!-- Generated by graphviz version 14.0.2 (20251019.1705)
 -->
<!-- Title: NetworkUtilities::safeCloseWebSocket Pages: 1 -->
<svg width="268pt" height="84pt"
 viewBox="0.00 0.00 268.00 84.00" xmlns="http://www.w3.org/2000/svg" xmlns:xlink="http://www.w3.org/1999/xlink">
<g id="graph0" class="graph" transform="scale(1 1) rotate(0) translate(4 80)">
<title>NetworkUtilities::safeCloseWebSocket</title>
<!-- Node1 -->
<g id="Node000001" class="node">
<title>Node1</title>
<g id="a_Node000001"><a xlink:title=" ">
<polygon fill="#999999" stroke="#666666" points="136,-54 0,-54 0,-22 136,-22 136,-54"/>
<text xml:space="preserve" text-anchor="start" x="8" y="-40.5" font-family="Helvetica,sans-Serif" font-size="10.00">NetworkUtilities::safeClose</text>
<text xml:space="preserve" text-anchor="middle" x="68" y="-28.5" font-family="Helvetica,sans-Serif" font-size="10.00">WebSocket</text>
</a>
</g>
</g>
<!-- Node2 -->
<g id="Node000002" class="node">
<title>Node2</title>
<g id="a_Node000002"><a xlink:href="../../d3/d42/class_logger.html#aebb248e608f8e2724de20b482cb2a15f" target="_top" xlink:title=" ">
<polygon fill="white" stroke="#666666" points="260,-76 172,-76 172,-56 260,-56 260,-76"/>
<text xml:space="preserve" text-anchor="middle" x="216" y="-62.5" font-family="Helvetica,sans-Serif" font-size="10.00">Logger::instance</text>
</a>
</g>
</g>
<!-- Node1&#45;&gt;Node2 -->
<g id="edge1_Node000001_Node000002" class="edge">
<title>Node1&#45;&gt;Node2</title>
<g id="a_edge1_Node000001_Node000002"><a xlink:title=" ">
<path fill="none" stroke="#63b8ff" d="M136.44,-50.93C144.48,-52.47 152.6,-54.03 160.42,-55.53"/>
<polygon fill="#63b8ff" stroke="#63b8ff" points="159.65,-58.95 170.13,-57.39 160.97,-52.07 159.65,-58.95"/>
</a>
</g>
</g>
<!-- Node3 -->
<g id="Node000003" class="node">
<title>Node3</title>
<g id="a_Node000003"><a xlink:href="../../d3/d42/class_logger.html#ab77a9a6a08954192b47c39f359b5d370" target="_top" xlink:title=" ">
<polygon fill="white" stroke="#666666" points="248,-20 184,-20 184,0 248,0 248,-20"/>
<text xml:space="preserve" text-anchor="middle" x="216" y="-6.5" font-family="Helvetica,sans-Serif" font-size="10.00">Logger::log</text>
</a>
</g>
</g>
<!-- Node1&#45;&gt;Node3 -->
<g id="edge2_Node000001_Node000003" class="edge">
<title>Node1&#45;&gt;Node3</title>
<g id="a_edge2_Node000001_Node000003"><a xlink:title=" ">
<path fill="none" stroke="#63b8ff" d="M136.44,-25.07C148.64,-22.73 161.05,-20.35 172.29,-18.19"/>
<polygon fill="#63b8ff" stroke="#63b8ff" points="172.88,-21.64 182.04,-16.32 171.56,-14.77 172.88,-21.64"/>
</a>
</g>
</g>
<!-- Node3&#45;&gt;Node3 -->
<g id="edge3_Node000003_Node000003" class="edge">
<title>Node3&#45;&gt;Node3</title>
<g id="a_edge3_Node000003_Node000003"><a xlink:title=" ">
<path fill="none" stroke="#63b8ff" d="M192.48,-20.34C182.43,-28.98 190.27,-38 216,-38 230.07,-38 238.79,-35.3 242.16,-31.44"/>
<polygon fill="#63b8ff" stroke="#63b8ff" points="245.59,-30.73 239.87,-21.81 238.78,-32.35 245.59,-30.73"/>
</a>
</g>
</g>
</g>
</svg>
