<?xml version="1.0" encoding="UTF-8" standalone="no"?>
<!DOCTYPE svg PUBLIC "-//W3C//DTD SVG 1.1//EN"
 "http://www.w3.org/Graphics/SVG/1.1/DTD/svg11.dtd">
<!-- Generated by graphviz version 14.0.2 (20251019.1705)
 -->
<!-- Title: NetworkUtilities::closeHandleIf Pages: 1 -->
<svg width="874pt" height="122pt"
 viewBox="0.00 0.00 874.00 122.00" xmlns="http://www.w3.org/2000/svg" xmlns:xlink="http://www.w3.org/1999/xlink">
<g id="graph0" class="graph" transform="scale(1 1) rotate(0) translate(4 118)">
<title>NetworkUtilities::closeHandleIf</title>
<!-- Node1 -->
<g id="Node000001" class="node">
<title>Node1</title>
<g id="a_Node000001"><a xlink:title=" ">
<polygon fill="#999999" stroke="#666666" points="866,-86 714.25,-86 714.25,-66 866,-66 866,-86"/>
<text xml:space="preserve" text-anchor="middle" x="790.12" y="-72.5" font-family="Helvetica,sans-Serif" font-size="10.00">NetworkUtilities::closeHandleIf</text>
</a>
</g>
</g>
<!-- Node2 -->
<g id="Node000002" class="node">
<title>Node2</title>
<g id="a_Node000002"><a xlink:href="../../d5/d81/class_network_utilities.html#ac0655968aa7b9e06f7566343e0d2e567" target="_top" xlink:title=" ">
<polygon fill="white" stroke="#666666" points="501.75,-114 367.25,-114 367.25,-82 501.75,-82 501.75,-114"/>
<text xml:space="preserve" text-anchor="start" x="375.25" y="-100.5" font-family="Helvetica,sans-Serif" font-size="10.00">NetworkUtilities::startLocal</text>
<text xml:space="preserve" text-anchor="middle" x="434.5" y="-88.5" font-family="Helvetica,sans-Serif" font-size="10.00">Tunnel</text>
</a>
</g>
</g>
<!-- Node1&#45;&gt;Node2 -->
<g id="edge1_Node000001_Node000002" class="edge">
<title>Node1&#45;&gt;Node2</title>
<g id="a_edge1_Node000001_Node000002"><a xlink:title=" ">
<path fill="none" stroke="#63b8ff" d="M702.83,-81.37C640.96,-85.22 558.86,-90.33 502.04,-93.86"/>
<polygon fill="#63b8ff" stroke="#63b8ff" points="702.86,-84.87 712.62,-80.76 702.42,-77.89 702.86,-84.87"/>
</a>
</g>
</g>
<!-- Node6 -->
<g id="Node000006" class="node">
<title>Node6</title>
<g id="a_Node000006"><a xlink:href="../../d5/d81/class_network_utilities.html#a1aff5744053044b32a0b910f02abc05a" target="_top" xlink:title=" ">
<polygon fill="white" stroke="#666666" points="678.25,-70 544.5,-70 544.5,-38 678.25,-38 678.25,-70"/>
<text xml:space="preserve" text-anchor="start" x="552.5" y="-56.5" font-family="Helvetica,sans-Serif" font-size="10.00">NetworkUtilities::stopLocal</text>
<text xml:space="preserve" text-anchor="middle" x="611.38" y="-44.5" font-family="Helvetica,sans-Serif" font-size="10.00">Tunnel</text>
</a>
</g>
</g>
<!-- Node1&#45;&gt;Node6 -->
<g id="edge5_Node000001_Node000006" class="edge">
<title>Node1&#45;&gt;Node6</title>
<g id="a_edge5_Node000001_Node000006"><a xlink:title=" ">
<path fill="none" stroke="#63b8ff" d="M702.56,-65.22C694.49,-64.22 686.41,-63.22 678.58,-62.24"/>
<polygon fill="#63b8ff" stroke="#63b8ff" points="702.05,-68.69 712.41,-66.45 702.92,-61.74 702.05,-68.69"/>
</a>
</g>
</g>
<!-- Node3 -->
<g id="Node000003" class="node">
<title>Node3</title>
<g id="a_Node000003"><a xlink:href="../../da/d21/class_network_manager.html#a0f4f9de49973a81889e18034343a512e" target="_top" xlink:title=" ">
<polygon fill="white" stroke="#666666" points="312.5,-70 192.25,-70 192.25,-50 312.5,-50 312.5,-70"/>
<text xml:space="preserve" text-anchor="middle" x="252.38" y="-56.5" font-family="Helvetica,sans-Serif" font-size="10.00">NetworkManager::setup</text>
</a>
</g>
</g>
<!-- Node2&#45;&gt;Node3 -->
<g id="edge2_Node000002_Node000003" class="edge">
<title>Node2&#45;&gt;Node3</title>
<g id="a_edge2_Node000002_Node000003"><a xlink:title=" ">
<path fill="none" stroke="#63b8ff" d="M355.9,-81.63C337.98,-77.85 319.4,-73.93 303.05,-70.48"/>
<polygon fill="#63b8ff" stroke="#63b8ff" points="354.95,-85.01 365.46,-83.65 356.4,-78.16 354.95,-85.01"/>
</a>
</g>
</g>
<!-- Node4 -->
<g id="Node000004" class="node">
<title>Node4</title>
<g id="a_Node000004"><a xlink:href="../../da/d21/class_network_manager.html#a183ff98131c32d577308340999b4de18" target="_top" xlink:title=" ">
<polygon fill="white" stroke="#666666" points="324.5,-108 180.25,-108 180.25,-88 324.5,-88 324.5,-108"/>
<text xml:space="preserve" text-anchor="middle" x="252.38" y="-94.5" font-family="Helvetica,sans-Serif" font-size="10.00">NetworkManager::startServer</text>
</a>
</g>
</g>
<!-- Node2&#45;&gt;Node4 -->
<g id="edge3_Node000002_Node000004" class="edge">
<title>Node2&#45;&gt;Node4</title>
<g id="a_edge3_Node000002_Node000004"><a xlink:title=" ">
<path fill="none" stroke="#63b8ff" d="M355.53,-98C345.32,-98 334.9,-98 324.8,-98"/>
<polygon fill="#63b8ff" stroke="#63b8ff" points="355.43,-101.5 365.43,-98 355.43,-94.5 355.43,-101.5"/>
</a>
</g>
</g>
<!-- Node5 -->
<g id="Node000005" class="node">
<title>Node5</title>
<g id="a_Node000005"><a xlink:href="../../da/d21/class_network_manager.html#adef56253674bd7ebd40bf73c629feed2" target="_top" xlink:title=" ">
<polygon fill="white" stroke="#666666" points="144.25,-108 0,-108 0,-88 144.25,-88 144.25,-108"/>
<text xml:space="preserve" text-anchor="middle" x="72.12" y="-94.5" font-family="Helvetica,sans-Serif" font-size="10.00">NetworkManager::startServer</text>
</a>
</g>
</g>
<!-- Node4&#45;&gt;Node5 -->
<g id="edge4_Node000004_Node000005" class="edge">
<title>Node4&#45;&gt;Node5</title>
<g id="a_edge4_Node000004_Node000005"><a xlink:title=" ">
<path fill="none" stroke="#63b8ff" d="M168.63,-98C160.61,-98 152.52,-98 144.62,-98"/>
<polygon fill="#63b8ff" stroke="#63b8ff" points="168.39,-101.5 178.39,-98 168.39,-94.5 168.39,-101.5"/>
</a>
</g>
</g>
<!-- Node6&#45;&gt;Node2 -->
<g id="edge9_Node000006_Node000002" class="edge">
<title>Node6&#45;&gt;Node2</title>
<g id="a_edge9_Node000006_Node000002"><a xlink:title=" ">
<path fill="none" stroke="#63b8ff" d="M534.27,-73.15C523.17,-75.94 511.83,-78.8 500.96,-81.53"/>
<polygon fill="#63b8ff" stroke="#63b8ff" points="534.95,-76.59 543.79,-70.75 533.24,-69.8 534.95,-76.59"/>
</a>
</g>
</g>
<!-- Node6&#45;&gt;Node3 -->
<g id="edge8_Node000006_Node000003" class="edge">
<title>Node6&#45;&gt;Node3</title>
<g id="a_edge8_Node000006_Node000003"><a xlink:title=" ">
<path fill="none" stroke="#63b8ff" d="M532.88,-55.3C466.77,-56.41 373.12,-57.99 312.81,-59"/>
<polygon fill="#63b8ff" stroke="#63b8ff" points="532.61,-58.81 542.55,-55.14 532.49,-51.81 532.61,-58.81"/>
</a>
</g>
</g>
<!-- Node7 -->
<g id="Node000007" class="node">
<title>Node7</title>
<g id="a_Node000007"><a xlink:href="../../da/d21/class_network_manager.html#a798b9a15475708f233e2d82f4ba0ff12" target="_top" xlink:title=" ">
<polygon fill="white" stroke="#666666" points="508.5,-26 360.5,-26 360.5,-6 508.5,-6 508.5,-26"/>
<text xml:space="preserve" text-anchor="middle" x="434.5" y="-12.5" font-family="Helvetica,sans-Serif" font-size="10.00">NetworkManager::closeServer</text>
</a>
</g>
</g>
<!-- Node6&#45;&gt;Node7 -->
<g id="edge6_Node000006_Node000007" class="edge">
<title>Node6&#45;&gt;Node7</title>
<g id="a_edge6_Node000006_Node000007"><a xlink:title=" ">
<path fill="none" stroke="#63b8ff" d="M533.29,-37.25C516.44,-33.59 499.06,-29.81 483.72,-26.48"/>
<polygon fill="#63b8ff" stroke="#63b8ff" points="532.27,-40.61 542.78,-39.31 533.75,-33.77 532.27,-40.61"/>
</a>
</g>
</g>
<!-- Node8 -->
<g id="Node000008" class="node">
<title>Node8</title>
<g id="a_Node000008"><a xlink:href="../../da/d21/class_network_manager.html#a2cfe4223139cf58587a9f066b956cb23" target="_top" xlink:title=" ">
<polygon fill="white" stroke="#666666" points="321.88,-32 182.88,-32 182.88,0 321.88,0 321.88,-32"/>
<text xml:space="preserve" text-anchor="start" x="190.88" y="-18.5" font-family="Helvetica,sans-Serif" font-size="10.00">NetworkManager::~Network</text>
<text xml:space="preserve" text-anchor="middle" x="252.38" y="-6.5" font-family="Helvetica,sans-Serif" font-size="10.00">Manager</text>
</a>
</g>
</g>
<!-- Node7&#45;&gt;Node8 -->
<g id="edge7_Node000007_Node000008" class="edge">
<title>Node7&#45;&gt;Node8</title>
<g id="a_edge7_Node000007_Node000008"><a xlink:title=" ">
<path fill="none" stroke="#63b8ff" d="M348.95,-16C339.99,-16 330.96,-16 322.21,-16"/>
<polygon fill="#63b8ff" stroke="#63b8ff" points="348.72,-19.5 358.72,-16 348.72,-12.5 348.72,-19.5"/>
</a>
</g>
</g>
</g>
</svg>
