<?xml version="1.0" encoding="UTF-8" standalone="no"?>
<!DOCTYPE svg PUBLIC "-//W3C//DTD SVG 1.1//EN"
 "http://www.w3.org/Graphics/SVG/1.1/DTD/svg11.dtd">
<!-- Generated by graphviz version 2.43.0 (0)
 -->
<!-- Title: DebugToggle Pages: 1 -->
<svg width="395pt" height="153pt"
 viewBox="0.00 0.00 395.00 153.00" xmlns="http://www.w3.org/2000/svg" xmlns:xlink="http://www.w3.org/1999/xlink">

<svg id="main" version="1.1" xmlns="http://www.w3.org/2000/svg" xmlns:xlink="http://www.w3.org/1999/xlink" xml:space="preserve" onload="init(evt)">
<style type="text/css"><![CDATA[
.node, .edge {opacity: 0.7;}
.node.selected, .edge.selected {opacity: 1;}
.edge:hover path { stroke: red; }
.edge:hover polygon { stroke: red; fill: red; }
]]></style>
<script type="application/ecmascript" xlink:href="../../svg.min.js"/>
<svg id="graph" class="graph">
<g id="graph0" class="graph" transform="scale(1 1) rotate(0) translate(4 149)">
<title>DebugToggle</title>
<!-- Node1 -->
<g id="Node000001" class="node">
<title>Node1</title>
<g id="a_Node000001"><a xlink:title=" ">
<polygon fill="#999999" stroke="transparent" points="171,-49 97,-49 97,0 171,0 171,-49"/>
<text text-anchor="start" x="102" y="-36.5" font-family="Helvetica,sans-Serif" font-size="10.00">DebugToggle</text>
<text text-anchor="start" x="132" y="-21.5" font-family="Helvetica,sans-Serif" font-size="10.00"> </text>
<text text-anchor="start" x="132" y="-6.5" font-family="Helvetica,sans-Serif" font-size="10.00"> </text>
<polygon fill="#666666" stroke="#666666" points="97,-31.5 97,-31.5 171,-31.5 171,-31.5 97,-31.5"/>
<polygon fill="#666666" stroke="#666666" points="97,-16.5 97,-16.5 171,-16.5 171,-16.5 97,-16.5"/>
<polygon fill="none" stroke="#666666" points="97,0 97,-49 171,-49 171,0 97,0"/>
</a>
</g>
</g>
<!-- Node2 -->
<g id="Node000002" class="node">
<title>Node2</title>
<g id="a_Node000002"><a xlink:title=" ">
<polygon fill="white" stroke="transparent" points="38,-145 0,-145 0,-96 38,-96 38,-145"/>
<text text-anchor="start" x="5" y="-132.5" font-family="Helvetica,sans-Serif" font-size="10.00">string</text>
<text text-anchor="start" x="17" y="-117.5" font-family="Helvetica,sans-Serif" font-size="10.00"> </text>
<text text-anchor="start" x="17" y="-102.5" font-family="Helvetica,sans-Serif" font-size="10.00"> </text>
<polygon fill="#666666" stroke="#666666" points="0,-127.5 0,-127.5 38,-127.5 38,-127.5 0,-127.5"/>
<polygon fill="#666666" stroke="#666666" points="0,-112.5 0,-112.5 38,-112.5 38,-112.5 0,-112.5"/>
<polygon fill="none" stroke="#666666" points="0,-96 0,-145 38,-145 38,-96 0,-96"/>
</a>
</g>
</g>
<!-- Node2&#45;&gt;Node1 -->
<g id="edge1_Node000001_Node000002" class="edge">
<title>Node2&#45;&gt;Node1</title>
<g id="a_edge1_Node000001_Node000002"><a xlink:title=" ">
<path fill="none" stroke="#63b8ff" d="M35.86,-95.98C43.47,-86.32 53,-75.44 63,-67 70.05,-61.04 78.08,-55.45 86.12,-50.41"/>
<polygon fill="none" stroke="#63b8ff" points="86.34,-50.28 89.44,-43.77 96.64,-44.13 93.54,-50.64 86.34,-50.28"/>
</a>
</g>
<text text-anchor="middle" x="81" y="-70" font-family="Helvetica,sans-Serif" font-size="10.00" fill="grey"> +label</text>
</g>
<!-- Node3 -->
<g id="Node000003" class="node">
<title>Node3</title>
<g id="a_Node000003"><a xlink:title=" ">
<polygon fill="white" stroke="transparent" points="91,-145 59,-145 59,-96 91,-96 91,-145"/>
<text text-anchor="start" x="64" y="-132.5" font-family="Helvetica,sans-Serif" font-size="10.00">bool</text>
<text text-anchor="start" x="73" y="-117.5" font-family="Helvetica,sans-Serif" font-size="10.00"> </text>
<text text-anchor="start" x="73" y="-102.5" font-family="Helvetica,sans-Serif" font-size="10.00"> </text>
<polygon fill="#666666" stroke="#666666" points="59,-127.5 59,-127.5 91,-127.5 91,-127.5 59,-127.5"/>
<polygon fill="#666666" stroke="#666666" points="59,-112.5 59,-112.5 91,-112.5 91,-112.5 59,-112.5"/>
<polygon fill="none" stroke="#666666" points="59,-96 59,-145 91,-145 91,-96 59,-96"/>
</a>
</g>
</g>
<!-- Node3&#45;&gt;Node1 -->
<g id="edge2_Node000001_Node000003" class="edge">
<title>Node3&#45;&gt;Node1</title>
<g id="a_edge2_Node000001_Node000003"><a xlink:title=" ">
<path fill="none" stroke="#63b8ff" d="M89.89,-95.78C96.81,-84.76 105.16,-71.45 112.72,-59.4"/>
<polygon fill="none" stroke="#63b8ff" points="112.74,-59.38 112.54,-52.17 119.12,-49.21 119.31,-56.42 112.74,-59.38"/>
</a>
</g>
<text text-anchor="middle" x="128.5" y="-70" font-family="Helvetica,sans-Serif" font-size="10.00" fill="grey"> +flagPtr</text>
</g>
<!-- Node4 -->
<g id="Node000004" class="node">
<title>Node4</title>
<g id="a_Node000004"><a xlink:title=" ">
<polygon fill="white" stroke="transparent" points="270.5,-145 109.5,-145 109.5,-96 270.5,-96 270.5,-145"/>
<text text-anchor="start" x="115" y="-132.5" font-family="Helvetica,sans-Serif" font-size="10.00">function&lt; void(bool enabled)&gt;</text>
<text text-anchor="start" x="188.5" y="-117.5" font-family="Helvetica,sans-Serif" font-size="10.00"> </text>
<text text-anchor="start" x="188.5" y="-102.5" font-family="Helvetica,sans-Serif" font-size="10.00"> </text>
<polygon fill="#666666" stroke="#666666" points="110,-127.5 110,-127.5 271,-127.5 271,-127.5 110,-127.5"/>
<polygon fill="#666666" stroke="#666666" points="110,-112.5 110,-112.5 271,-112.5 271,-112.5 110,-112.5"/>
<polygon fill="none" stroke="#666666" points="109.5,-96 109.5,-145 270.5,-145 270.5,-96 109.5,-96"/>
</a>
</g>
</g>
<!-- Node4&#45;&gt;Node1 -->
<g id="edge3_Node000001_Node000004" class="edge">
<title>Node4&#45;&gt;Node1</title>
<g id="a_edge3_Node000001_Node000004"><a xlink:title=" ">
<path fill="none" stroke="#63b8ff" d="M175.87,-95.78C169.37,-84.87 161.54,-71.72 154.41,-59.76"/>
<polygon fill="none" stroke="#63b8ff" points="154.27,-59.52 147.76,-56.41 148.13,-49.21 154.63,-52.32 154.27,-59.52"/>
</a>
</g>
<text text-anchor="middle" x="196.5" y="-70" font-family="Helvetica,sans-Serif" font-size="10.00" fill="grey"> +onChanged</text>
</g>
<!-- Node5 -->
<g id="Node000005" class="node">
<title>Node5</title>
<g id="a_Node000005"><a xlink:title=" ">
<polygon fill="white" stroke="transparent" points="387,-145 289,-145 289,-96 387,-96 387,-145"/>
<text text-anchor="start" x="294" y="-132.5" font-family="Helvetica,sans-Serif" font-size="10.00">function&lt; void()&gt;</text>
<text text-anchor="start" x="336" y="-117.5" font-family="Helvetica,sans-Serif" font-size="10.00"> </text>
<text text-anchor="start" x="336" y="-102.5" font-family="Helvetica,sans-Serif" font-size="10.00"> </text>
<polygon fill="#666666" stroke="#666666" points="289,-127.5 289,-127.5 387,-127.5 387,-127.5 289,-127.5"/>
<polygon fill="#666666" stroke="#666666" points="289,-112.5 289,-112.5 387,-112.5 387,-112.5 289,-112.5"/>
<polygon fill="none" stroke="#666666" points="289,-96 289,-145 387,-145 387,-96 289,-96"/>
</a>
</g>
</g>
<!-- Node5&#45;&gt;Node1 -->
<g id="edge4_Node000001_Node000005" class="edge">
<title>Node5&#45;&gt;Node1</title>
<g id="a_edge4_Node000001_Node000005"><a xlink:title=" ">
<path fill="none" stroke="#63b8ff" d="M293.05,-95.89C274.86,-86.58 253.58,-75.99 234,-67 217.5,-59.43 199.23,-51.66 182.86,-44.93"/>
<polygon fill="none" stroke="#63b8ff" points="182.44,-44.76 175.37,-46.19 171.33,-40.22 178.39,-38.79 182.44,-44.76"/>
</a>
</g>
<text text-anchor="middle" x="279" y="-70" font-family="Helvetica,sans-Serif" font-size="10.00" fill="grey"> +onTick</text>
</g>
</g>
</svg>
</svg>

<style type='text/css'>
<![CDATA[
[data-mouse-over-selected='false'] { opacity: 0.7; }
[data-mouse-over-selected='true']  { opacity: 1.0; }
]]>
</style>
<script type="application/ecmascript"><![CDATA[
document.addEventListener('DOMContentLoaded', (event) => {
  highlightEdges();
  highlightAdjacentNodes();
});
]]></script>
</svg>
