<?xml version="1.0" encoding="UTF-8" standalone="no"?>
<!DOCTYPE svg PUBLIC "-//W3C//DTD SVG 1.1//EN"
 "http://www.w3.org/Graphics/SVG/1.1/DTD/svg11.dtd">
<!-- Generated by graphviz version 14.0.2 (20251019.1705)
 -->
<!-- Title: Serializer::serializeBoardEntity Pages: 1 -->
<!--zoomable 289 -->

<svg id="main" version="1.1" xmlns="http://www.w3.org/2000/svg" xmlns:xlink="http://www.w3.org/1999/xlink" xml:space="preserve" onload="init(evt)">
<style type="text/css"><![CDATA[
.node, .edge {opacity: 0.7;}
.node.selected, .edge.selected {opacity: 1;}
.edge:hover path { stroke: red; }
.edge:hover polygon { stroke: red; fill: red; }
]]></style>

<defs>
  <circle id="rim" cx="0" cy="0" r="7"/>
  <circle id="rim2" cx="0" cy="0" r="3.5"/>
  <g id="zoomPlus">
    <use xlink:href="#rim" fill="#404040"><set attributeName="fill" to="#808080" begin="zoomplus.mouseover" end="zoomplus.mouseout"/></use>
    <path d="M-4,0h8M0,-4v8" fill="none" stroke="white" stroke-width="1.5" pointer-events="none"/>
  </g>
  <g id="zoomMin">
    <use xlink:href="#rim" fill="#404040"><set attributeName="fill" to="#808080" begin="zoomminus.mouseover" end="zoomminus.mouseout"/></use>
    <path d="M-4,0h8" fill="none" stroke="white" stroke-width="1.5" pointer-events="none"/>
  </g>
  <g id="arrowUp" transform="translate(30 24)">
    <use xlink:href="#rim"/>
    <path pointer-events="none" fill="none" stroke="white" stroke-width="1.5" d="M0,-3.0v7 M-2.5,-0.5L0,-3.0L2.5,-0.5"/>
  </g>
  <g id="arrowRight" transform="rotate(90) translate(36 -43)">
    <use xlink:href="#rim"/>
    <path pointer-events="none" fill="none" stroke="white" stroke-width="1.5" d="M0,-3.0v7 M-2.5,-0.5L0,-3.0L2.5,-0.5"/>
  </g>
  <g id="arrowDown" transform="rotate(180) translate(-30 -48)">
    <use xlink:href="#rim"/>
    <path pointer-events="none" fill="none" stroke="white" stroke-width="1.5" d="M0,-3.0v7 M-2.5,-0.5L0,-3.0L2.5,-0.5"/>
  </g>
  <g id="arrowLeft" transform="rotate(270) translate(-36 17)">
    <use xlink:href="#rim"/>
    <path pointer-events="none" fill="none" stroke="white" stroke-width="1.5" d="M0,-3.0v7 M-2.5,-0.5L0,-3.0L2.5,-0.5"/>
  </g>
  <g id="resetDef">
    <use xlink:href="#rim2" fill="#404040"><set attributeName="fill" to="#808080" begin="reset.mouseover" end="reset.mouseout"/></use>
  </g>
</defs>
<script type="application/ecmascript">
var viewWidth = 618;
var viewHeight = 289;
var sectionId = 'dynsection-41';
</script>
<script type="application/ecmascript" xlink:href="../../svg.min.js"/>
<svg id="graph" class="graph">
<g id="viewport">
<title>Serializer::serializeBoardEntity</title>
<!-- Node1 -->
<g id="Node000001" class="node">
<title>Node1</title>
<g id="a_Node000001"><a xlink:title=" ">
<polygon fill="#999999" stroke="#666666" points="124,-140 0,-140 0,-108 124,-108 124,-140"/>
<text xml:space="preserve" text-anchor="start" x="8" y="-126.5" font-family="Helvetica,sans-Serif" font-size="10.00">Serializer::serializeBoard</text>
<text xml:space="preserve" text-anchor="middle" x="62" y="-114.5" font-family="Helvetica,sans-Serif" font-size="10.00">Entity</text>
</a>
</g>
</g>
<!-- Node2 -->
<g id="Node000002" class="node">
<title>Node2</title>
<g id="a_Node000002"><a xlink:href="../../d0/dc2/class_serializer.html#a9555132c02190d9a832a360fb236e954" target="_top" xlink:title=" ">
<polygon fill="white" stroke="#666666" points="288.88,-241 164.88,-241 164.88,-221 288.88,-221 288.88,-241"/>
<text xml:space="preserve" text-anchor="middle" x="226.88" y="-227.5" font-family="Helvetica,sans-Serif" font-size="10.00">Serializer::serializeBoard</text>
</a>
</g>
</g>
<!-- Node1&#45;&gt;Node2 -->
<g id="edge1_Node000001_Node000002" class="edge">
<title>Node1&#45;&gt;Node2</title>
<g id="a_edge1_Node000001_Node000002"><a xlink:title=" ">
<path fill="none" stroke="#63b8ff" d="M78.84,-140.39C97.04,-158.46 128.46,-187.42 160,-206 166.59,-209.88 173.88,-213.35 181.15,-216.39"/>
<polygon fill="#63b8ff" stroke="#63b8ff" points="179.69,-219.58 190.28,-219.97 182.25,-213.06 179.69,-219.58"/>
</a>
</g>
</g>
<!-- Node4 -->
<g id="Node000004" class="node">
<title>Node4</title>
<g id="a_Node000004"><a xlink:href="../../d0/dc2/class_serializer.html#ac812cf485e5804fd6f22d34ae076f79f" target="_top" xlink:title=" ">
<polygon fill="white" stroke="#666666" points="604.75,-244 495,-244 495,-224 604.75,-224 604.75,-244"/>
<text xml:space="preserve" text-anchor="middle" x="549.88" y="-230.5" font-family="Helvetica,sans-Serif" font-size="10.00">Serializer::serializeInt</text>
</a>
</g>
</g>
<!-- Node1&#45;&gt;Node4 -->
<g id="edge9_Node000001_Node000004" class="edge">
<title>Node1&#45;&gt;Node4</title>
<g id="a_edge9_Node000001_Node000004"><a xlink:title=" ">
<path fill="none" stroke="#63b8ff" d="M69.67,-140.11C82.41,-168.44 113.15,-226.42 160,-250 275.25,-307.99 434.93,-270.57 508.63,-247.81"/>
<polygon fill="#63b8ff" stroke="#63b8ff" points="509.37,-251.25 517.84,-244.89 507.25,-244.57 509.37,-251.25"/>
</a>
</g>
</g>
<!-- Node5 -->
<g id="Node000005" class="node">
<title>Node5</title>
<g id="a_Node000005"><a xlink:href="../../d0/dc2/class_serializer.html#ad0d31f7afee6b62ebc3c4f05bfef6bf2" target="_top" xlink:title=" ">
<polygon fill="white" stroke="#666666" points="285.12,-134 168.62,-134 168.62,-114 285.12,-114 285.12,-134"/>
<text xml:space="preserve" text-anchor="middle" x="226.88" y="-120.5" font-family="Helvetica,sans-Serif" font-size="10.00">Serializer::serializeGrid</text>
</a>
</g>
</g>
<!-- Node1&#45;&gt;Node5 -->
<g id="edge4_Node000001_Node000005" class="edge">
<title>Node1&#45;&gt;Node5</title>
<g id="a_edge4_Node000001_Node000005"><a xlink:title=" ">
<path fill="none" stroke="#63b8ff" d="M124.11,-124C134.83,-124 146.05,-124 156.97,-124"/>
<polygon fill="#63b8ff" stroke="#63b8ff" points="156.68,-127.5 166.68,-124 156.68,-120.5 156.68,-127.5"/>
</a>
</g>
</g>
<!-- Node9 -->
<g id="Node000009" class="node">
<title>Node9</title>
<g id="a_Node000009"><a xlink:href="../../d0/dc2/class_serializer.html#a05ba0aafb8b9ccd2050b1d61f9525ded" target="_top" xlink:title=" ">
<polygon fill="white" stroke="#666666" points="293.75,-96 160,-96 160,-76 293.75,-76 293.75,-96"/>
<text xml:space="preserve" text-anchor="middle" x="226.88" y="-82.5" font-family="Helvetica,sans-Serif" font-size="10.00">Serializer::serializePanning</text>
</a>
</g>
</g>
<!-- Node1&#45;&gt;Node9 -->
<g id="edge10_Node000001_Node000009" class="edge">
<title>Node1&#45;&gt;Node9</title>
<g id="a_edge10_Node000001_Node000009"><a xlink:title=" ">
<path fill="none" stroke="#63b8ff" d="M124.11,-109.74C139.15,-106.23 155.17,-102.5 169.94,-99.05"/>
<polygon fill="#63b8ff" stroke="#63b8ff" points="170.54,-102.5 179.49,-96.82 168.95,-95.69 170.54,-102.5"/>
</a>
</g>
</g>
<!-- Node10 -->
<g id="Node000010" class="node">
<title>Node10</title>
<g id="a_Node000010"><a xlink:href="../../d0/dc2/class_serializer.html#a6be006b0cf99a37c2146723395013b76" target="_top" xlink:title=" ">
<polygon fill="white" stroke="#666666" points="450.75,-54 332.75,-54 332.75,-34 450.75,-34 450.75,-54"/>
<text xml:space="preserve" text-anchor="middle" x="391.75" y="-40.5" font-family="Helvetica,sans-Serif" font-size="10.00">Serializer::serializeSize</text>
</a>
</g>
</g>
<!-- Node1&#45;&gt;Node10 -->
<g id="edge12_Node000001_Node000010" class="edge">
<title>Node1&#45;&gt;Node10</title>
<g id="a_edge12_Node000001_Node000010"><a xlink:title=" ">
<path fill="none" stroke="#63b8ff" d="M84.42,-107.72C103.25,-94.33 131.96,-76.15 160,-67 212.22,-49.97 274.32,-44.56 320.94,-43.22"/>
<polygon fill="#63b8ff" stroke="#63b8ff" points="321.01,-46.72 330.93,-42.99 320.85,-39.72 321.01,-46.72"/>
</a>
</g>
</g>
<!-- Node11 -->
<g id="Node000011" class="node">
<title>Node11</title>
<g id="a_Node000011"><a xlink:href="../../d0/dc2/class_serializer.html#a2e08effc9986b4b485dc4e40ffecb7fb" target="_top" xlink:title=" ">
<polygon fill="white" stroke="#666666" points="292.25,-197 161.5,-197 161.5,-165 292.25,-165 292.25,-197"/>
<text xml:space="preserve" text-anchor="start" x="169.5" y="-183.5" font-family="Helvetica,sans-Serif" font-size="10.00">Serializer::serializeTexture</text>
<text xml:space="preserve" text-anchor="middle" x="226.88" y="-171.5" font-family="Helvetica,sans-Serif" font-size="10.00">Component</text>
</a>
</g>
</g>
<!-- Node1&#45;&gt;Node11 -->
<g id="edge14_Node000001_Node000011" class="edge">
<title>Node1&#45;&gt;Node11</title>
<g id="a_edge14_Node000001_Node000011"><a xlink:title=" ">
<path fill="none" stroke="#63b8ff" d="M110.11,-140.49C128.26,-146.84 149.19,-154.16 168.22,-160.82"/>
<polygon fill="#63b8ff" stroke="#63b8ff" points="166.85,-164.05 177.44,-164.05 169.16,-157.44 166.85,-164.05"/>
</a>
</g>
</g>
<!-- Node12 -->
<g id="Node000012" class="node">
<title>Node12</title>
<g id="a_Node000012"><a xlink:href="../../d0/dc2/class_serializer.html#a60889622ee4e36ea28a284e99bbdf4e5" target="_top" xlink:title=" ">
<polygon fill="white" stroke="#666666" points="290.75,-20 163,-20 163,0 290.75,0 290.75,-20"/>
<text xml:space="preserve" text-anchor="middle" x="226.88" y="-6.5" font-family="Helvetica,sans-Serif" font-size="10.00">Serializer::serializeUInt64</text>
</a>
</g>
</g>
<!-- Node1&#45;&gt;Node12 -->
<g id="edge18_Node000001_Node000012" class="edge">
<title>Node1&#45;&gt;Node12</title>
<g id="a_edge18_Node000001_Node000012"><a xlink:title=" ">
<path fill="none" stroke="#63b8ff" d="M76.89,-107.6C94.46,-87.76 126.48,-54.49 160,-34 165.72,-30.5 172.03,-27.4 178.41,-24.68"/>
<polygon fill="#63b8ff" stroke="#63b8ff" points="179.69,-27.94 187.71,-21.03 177.13,-21.43 179.69,-27.94"/>
</a>
</g>
</g>
<!-- Node3 -->
<g id="Node000003" class="node">
<title>Node3</title>
<g id="a_Node000003"><a xlink:href="../../d0/dc2/class_serializer.html#a8a72c08ebb91348dc2a7ef6557c44f6c" target="_top" xlink:title=" ">
<polygon fill="white" stroke="#666666" points="453.75,-244 329.75,-244 329.75,-224 453.75,-224 453.75,-244"/>
<text xml:space="preserve" text-anchor="middle" x="391.75" y="-230.5" font-family="Helvetica,sans-Serif" font-size="10.00">Serializer::serializeString</text>
</a>
</g>
</g>
<!-- Node2&#45;&gt;Node3 -->
<g id="edge2_Node000002_Node000003" class="edge">
<title>Node2&#45;&gt;Node3</title>
<g id="a_edge2_Node000002_Node000003"><a xlink:title=" ">
<path fill="none" stroke="#63b8ff" d="M288.99,-232.13C298.46,-232.3 308.32,-232.48 318.02,-232.66"/>
<polygon fill="#63b8ff" stroke="#63b8ff" points="317.72,-236.16 327.78,-232.84 317.85,-229.16 317.72,-236.16"/>
</a>
</g>
</g>
<!-- Node3&#45;&gt;Node4 -->
<g id="edge3_Node000003_Node000004" class="edge">
<title>Node3&#45;&gt;Node4</title>
<g id="a_edge3_Node000003_Node000004"><a xlink:title=" ">
<path fill="none" stroke="#63b8ff" d="M454.01,-234C463.65,-234 473.65,-234 483.38,-234"/>
<polygon fill="#63b8ff" stroke="#63b8ff" points="483.13,-237.5 493.13,-234 483.13,-230.5 483.13,-237.5"/>
</a>
</g>
</g>
<!-- Node6 -->
<g id="Node000006" class="node">
<title>Node6</title>
<g id="a_Node000006"><a xlink:href="../../d0/dc2/class_serializer.html#a2a407c3a379b680296ee190ed625f05f" target="_top" xlink:title=" ">
<polygon fill="white" stroke="#666666" points="450.75,-92 332.75,-92 332.75,-72 450.75,-72 450.75,-92"/>
<text xml:space="preserve" text-anchor="middle" x="391.75" y="-78.5" font-family="Helvetica,sans-Serif" font-size="10.00">Serializer::serializeBool</text>
</a>
</g>
</g>
<!-- Node5&#45;&gt;Node6 -->
<g id="edge5_Node000005_Node000006" class="edge">
<title>Node5&#45;&gt;Node6</title>
<g id="a_edge5_Node000005_Node000006"><a xlink:title=" ">
<path fill="none" stroke="#63b8ff" d="M268.56,-113.51C290.01,-107.98 316.56,-101.13 339.42,-95.24"/>
<polygon fill="#63b8ff" stroke="#63b8ff" points="340.03,-98.69 348.84,-92.81 338.28,-91.91 340.03,-98.69"/>
</a>
</g>
</g>
<!-- Node7 -->
<g id="Node000007" class="node">
<title>Node7</title>
<g id="a_Node000007"><a xlink:href="../../d0/dc2/class_serializer.html#a92ffe65857abd6eea6a393056a9bb533" target="_top" xlink:title=" ">
<polygon fill="white" stroke="#666666" points="610,-130 489.75,-130 489.75,-110 610,-110 610,-130"/>
<text xml:space="preserve" text-anchor="middle" x="549.88" y="-116.5" font-family="Helvetica,sans-Serif" font-size="10.00">Serializer::serializeFloat</text>
</a>
</g>
</g>
<!-- Node5&#45;&gt;Node7 -->
<g id="edge6_Node000005_Node000007" class="edge">
<title>Node5&#45;&gt;Node7</title>
<g id="a_edge6_Node000005_Node000007"><a xlink:title=" ">
<path fill="none" stroke="#63b8ff" d="M285.26,-123.28C339.19,-122.61 420.06,-121.61 478,-120.88"/>
<polygon fill="#63b8ff" stroke="#63b8ff" points="477.8,-124.39 487.75,-120.76 477.71,-117.39 477.8,-124.39"/>
</a>
</g>
</g>
<!-- Node8 -->
<g id="Node000008" class="node">
<title>Node8</title>
<g id="a_Node000008"><a xlink:href="../../d0/dc2/class_serializer.html#a52943821c1686ae47c30586ec7f9bc7e" target="_top" xlink:title=" ">
<polygon fill="white" stroke="#666666" points="451.88,-168 331.62,-168 331.62,-148 451.88,-148 451.88,-168"/>
<text xml:space="preserve" text-anchor="middle" x="391.75" y="-154.5" font-family="Helvetica,sans-Serif" font-size="10.00">Serializer::serializeVec2</text>
</a>
</g>
</g>
<!-- Node5&#45;&gt;Node8 -->
<g id="edge7_Node000005_Node000008" class="edge">
<title>Node5&#45;&gt;Node8</title>
<g id="a_edge7_Node000005_Node000008"><a xlink:title=" ">
<path fill="none" stroke="#63b8ff" d="M278.07,-134.48C294.4,-137.89 312.71,-141.71 329.74,-145.26"/>
<polygon fill="#63b8ff" stroke="#63b8ff" points="328.73,-148.63 339.24,-147.25 330.16,-141.78 328.73,-148.63"/>
</a>
</g>
</g>
<!-- Node8&#45;&gt;Node7 -->
<g id="edge8_Node000008_Node000007" class="edge">
<title>Node8&#45;&gt;Node7</title>
<g id="a_edge8_Node000008_Node000007"><a xlink:title=" ">
<path fill="none" stroke="#63b8ff" d="M435.83,-147.52C454.08,-143.07 475.56,-137.84 494.87,-133.15"/>
<polygon fill="#63b8ff" stroke="#63b8ff" points="495.58,-136.57 504.47,-130.81 493.93,-129.77 495.58,-136.57"/>
</a>
</g>
</g>
<!-- Node9&#45;&gt;Node6 -->
<g id="edge11_Node000009_Node000006" class="edge">
<title>Node9&#45;&gt;Node6</title>
<g id="a_edge11_Node000009_Node000006"><a xlink:title=" ">
<path fill="none" stroke="#63b8ff" d="M294.12,-84.37C303.04,-84.15 312.21,-83.93 321.18,-83.71"/>
<polygon fill="#63b8ff" stroke="#63b8ff" points="320.98,-87.21 330.9,-83.47 320.81,-80.22 320.98,-87.21"/>
</a>
</g>
</g>
<!-- Node10&#45;&gt;Node7 -->
<g id="edge13_Node000010_Node000007" class="edge">
<title>Node10&#45;&gt;Node7</title>
<g id="a_edge13_Node000010_Node000007"><a xlink:title=" ">
<path fill="none" stroke="#63b8ff" d="M431.34,-54.49C438.89,-56.97 446.66,-59.83 453.75,-63 478.96,-74.28 505.78,-90.82 524.49,-103.18"/>
<polygon fill="#63b8ff" stroke="#63b8ff" points="522.49,-106.04 532.74,-108.71 526.39,-100.23 522.49,-106.04"/>
</a>
</g>
</g>
<!-- Node11&#45;&gt;Node3 -->
<g id="edge16_Node000011_Node000003" class="edge">
<title>Node11&#45;&gt;Node3</title>
<g id="a_edge16_Node000011_Node000003"><a xlink:title=" ">
<path fill="none" stroke="#63b8ff" d="M278.52,-197.48C300.78,-204.72 326.65,-213.14 347.94,-220.07"/>
<polygon fill="#63b8ff" stroke="#63b8ff" points="346.58,-223.31 357.17,-223.07 348.74,-216.65 346.58,-223.31"/>
</a>
</g>
</g>
<!-- Node11&#45;&gt;Node4 -->
<g id="edge15_Node000011_Node000004" class="edge">
<title>Node11&#45;&gt;Node4</title>
<g id="a_edge15_Node000011_Node000004"><a xlink:title=" ">
<path fill="none" stroke="#63b8ff" d="M292.27,-189.86C337.53,-196.29 399.45,-205.5 453.75,-215 464.82,-216.94 476.59,-219.16 487.93,-221.38"/>
<polygon fill="#63b8ff" stroke="#63b8ff" points="487.12,-224.79 497.61,-223.3 488.48,-217.92 487.12,-224.79"/>
</a>
</g>
</g>
<!-- Node11&#45;&gt;Node8 -->
<g id="edge17_Node000011_Node000008" class="edge">
<title>Node11&#45;&gt;Node8</title>
<g id="a_edge17_Node000011_Node000008"><a xlink:title=" ">
<path fill="none" stroke="#63b8ff" d="M292.72,-171.84C301.64,-170.58 310.83,-169.29 319.85,-168.01"/>
<polygon fill="#63b8ff" stroke="#63b8ff" points="320.24,-171.49 329.65,-166.63 319.26,-164.56 320.24,-171.49"/>
</a>
</g>
</g>
</g>
</svg>

<g id="navigator" transform="translate(0 0)" fill="#404254">
  <rect fill="#f2f5e9" fill-opacity="0.5" stroke="#606060" stroke-width=".5" x="0" y="0" width="60" height="60"/>
  <use id="zoomplus" xlink:href="#zoomPlus" x="17" y="9" onmousedown="handleZoom(evt,'in')"/>
  <use id="zoomminus" xlink:href="#zoomMin" x="42" y="9" onmousedown="handleZoom(evt,'out')"/>
  <use id="reset" xlink:href="#resetDef" x="30" y="36" onmousedown="handleReset()"/>
   <use id="arrowup" xlink:href="#arrowUp" x="0" y="0" onmousedown="handlePan(0,-1)"/>
  <use id="arrowright" xlink:href="#arrowRight" x="0" y="0" onmousedown="handlePan(1,0)"/>
  <use id="arrowdown" xlink:href="#arrowDown" x="0" y="0" onmousedown="handlePan(0,1)"/>
  <use id="arrowleft" xlink:href="#arrowLeft" x="0" y="0" onmousedown="handlePan(-1,0)"/>
</g>
<svg viewBox="0 0 15 15" width="100%" height="30px" preserveAspectRatio="xMaxYMin meet">
 <g id="arrow_out" transform="scale(0.3 0.3)">
  <a xlink:href="class_serializer_a33c1046417ab5077d907baac823e7194_cgraph_org.svg" target="_base">
   <rect id="button" ry="5" rx="5" y="6" x="6" height="38" width="38"
        fill="#f2f5e9" fill-opacity="0.5" stroke="#606060" stroke-width="1.0"/>
   <path id="arrow"
     d="M 11.500037,31.436501 C 11.940474,20.09759 22.043105,11.32322 32.158766,21.979434 L 37.068811,17.246167 C 37.068811,17.246167 37.088388,32 37.088388,32 L 22.160133,31.978069 C 22.160133,31.978069 26.997745,27.140456 26.997745,27.140456 C 18.528582,18.264221 13.291696,25.230495 11.500037,31.436501 z"
     style="fill:#404040;"/>
  </a>
 </g>
</svg>

<style type='text/css'>
<![CDATA[
[data-mouse-over-selected='false'] { opacity: 0.7; }
[data-mouse-over-selected='true']  { opacity: 1.0; }
]]>
</style>
<script type="application/ecmascript"><![CDATA[
document.addEventListener('DOMContentLoaded', (event) => {
  highlightEdges();
  highlightAdjacentNodes();
});
]]></script>
</svg>
