<?xml version="1.0" encoding="UTF-8" standalone="no"?>
<!DOCTYPE svg PUBLIC "-//W3C//DTD SVG 1.1//EN"
 "http://www.w3.org/Graphics/SVG/1.1/DTD/svg11.dtd">
<!-- Generated by graphviz version 14.0.2 (20251019.1705)
 -->
<!-- Title: Serializer::serializeMarkerComponent Pages: 1 -->
<svg width="677pt" height="90pt"
 viewBox="0.00 0.00 677.00 90.00" xmlns="http://www.w3.org/2000/svg" xmlns:xlink="http://www.w3.org/1999/xlink">
<g id="graph0" class="graph" transform="scale(1 1) rotate(0) translate(4 86)">
<title>Serializer::serializeMarkerComponent</title>
<!-- Node1 -->
<g id="Node000001" class="node">
<title>Node1</title>
<g id="a_Node000001"><a xlink:title=" ">
<polygon fill="#999999" stroke="#666666" points="669.25,-57 540.75,-57 540.75,-25 669.25,-25 669.25,-57"/>
<text xml:space="preserve" text-anchor="start" x="548.75" y="-43.5" font-family="Helvetica,sans-Serif" font-size="10.00">Serializer::serializeMarker</text>
<text xml:space="preserve" text-anchor="middle" x="605" y="-31.5" font-family="Helvetica,sans-Serif" font-size="10.00">Component</text>
</a>
</g>
</g>
<!-- Node2 -->
<g id="Node000002" class="node">
<title>Node2</title>
<g id="a_Node000002"><a xlink:href="../../da/d21/class_network_manager.html#acf942084ff349010655c47a232659527" target="_top" xlink:title=" ">
<polygon fill="white" stroke="#666666" points="504.75,-82 358.25,-82 358.25,-50 504.75,-50 504.75,-82"/>
<text xml:space="preserve" text-anchor="start" x="366.25" y="-68.5" font-family="Helvetica,sans-Serif" font-size="10.00">NetworkManager::buildMarker</text>
<text xml:space="preserve" text-anchor="middle" x="431.5" y="-56.5" font-family="Helvetica,sans-Serif" font-size="10.00">UpdateFrame</text>
</a>
</g>
</g>
<!-- Node1&#45;&gt;Node2 -->
<g id="edge1_Node000001_Node000002" class="edge">
<title>Node1&#45;&gt;Node2</title>
<g id="a_edge1_Node000001_Node000002"><a xlink:title=" ">
<path fill="none" stroke="#63b8ff" d="M529.38,-51.88C521.35,-53.05 513.18,-54.24 505.16,-55.41"/>
<polygon fill="#63b8ff" stroke="#63b8ff" points="529.74,-55.36 539.13,-50.46 528.73,-48.44 529.74,-55.36"/>
</a>
</g>
</g>
<!-- Node5 -->
<g id="Node000005" class="node">
<title>Node5</title>
<g id="a_Node000005"><a xlink:href="../../d0/dc2/class_serializer.html#a8799545c0b1ea86a5447cbcd1d0a733c" target="_top" xlink:title=" ">
<polygon fill="white" stroke="#666666" points="495.75,-32 367.25,-32 367.25,0 495.75,0 495.75,-32"/>
<text xml:space="preserve" text-anchor="start" x="375.25" y="-18.5" font-family="Helvetica,sans-Serif" font-size="10.00">Serializer::serializeMarker</text>
<text xml:space="preserve" text-anchor="middle" x="431.5" y="-6.5" font-family="Helvetica,sans-Serif" font-size="10.00">Entity</text>
</a>
</g>
</g>
<!-- Node1&#45;&gt;Node5 -->
<g id="edge4_Node000001_Node000005" class="edge">
<title>Node1&#45;&gt;Node5</title>
<g id="a_edge4_Node000001_Node000005"><a xlink:title=" ">
<path fill="none" stroke="#63b8ff" d="M529.26,-30.1C518.23,-28.5 506.96,-26.85 496.19,-25.28"/>
<polygon fill="#63b8ff" stroke="#63b8ff" points="528.73,-33.56 539.13,-31.54 529.74,-26.64 528.73,-33.56"/>
</a>
</g>
</g>
<!-- Node3 -->
<g id="Node000003" class="node">
<title>Node3</title>
<g id="a_Node000003"><a xlink:href="../../da/d21/class_network_manager.html#a3cd0860da30289b21f2f4bd467d279d3" target="_top" xlink:title=" ">
<polygon fill="white" stroke="#666666" points="322.25,-82 175,-82 175,-50 322.25,-50 322.25,-82"/>
<text xml:space="preserve" text-anchor="start" x="183" y="-68.5" font-family="Helvetica,sans-Serif" font-size="10.00">NetworkManager::sendMarker</text>
<text xml:space="preserve" text-anchor="middle" x="248.62" y="-56.5" font-family="Helvetica,sans-Serif" font-size="10.00">Update</text>
</a>
</g>
</g>
<!-- Node2&#45;&gt;Node3 -->
<g id="edge2_Node000002_Node000003" class="edge">
<title>Node2&#45;&gt;Node3</title>
<g id="a_edge2_Node000002_Node000003"><a xlink:title=" ">
<path fill="none" stroke="#63b8ff" d="M346.63,-66C338.56,-66 330.42,-66 322.46,-66"/>
<polygon fill="#63b8ff" stroke="#63b8ff" points="346.46,-69.5 356.46,-66 346.46,-62.5 346.46,-69.5"/>
</a>
</g>
</g>
<!-- Node4 -->
<g id="Node000004" class="node">
<title>Node4</title>
<g id="a_Node000004"><a xlink:href="../../da/d21/class_network_manager.html#a2f0bd7fd012f4f7c96fcc25b2ac90b0f" target="_top" xlink:title=" ">
<polygon fill="white" stroke="#666666" points="139,-82 0,-82 0,-50 139,-50 139,-82"/>
<text xml:space="preserve" text-anchor="start" x="8" y="-68.5" font-family="Helvetica,sans-Serif" font-size="10.00">NetworkManager::broadcast</text>
<text xml:space="preserve" text-anchor="middle" x="69.5" y="-56.5" font-family="Helvetica,sans-Serif" font-size="10.00">MarkerUpdate</text>
</a>
</g>
</g>
<!-- Node3&#45;&gt;Node4 -->
<g id="edge3_Node000003_Node000004" class="edge">
<title>Node3&#45;&gt;Node4</title>
<g id="a_edge3_Node000003_Node000004"><a xlink:title=" ">
<path fill="none" stroke="#63b8ff" d="M163.3,-66C155.3,-66 147.25,-66 139.41,-66"/>
<polygon fill="#63b8ff" stroke="#63b8ff" points="163.05,-69.5 173.05,-66 163.05,-62.5 163.05,-69.5"/>
</a>
</g>
</g>
</g>
</svg>
