<?xml version="1.0" encoding="UTF-8" standalone="no"?>
<!DOCTYPE svg PUBLIC "-//W3C//DTD SVG 1.1//EN"
 "http://www.w3.org/Graphics/SVG/1.1/DTD/svg11.dtd">
<!-- Generated by graphviz version 14.0.2 (20251019.1705)
 -->
<!-- Title: Serializer::serializeGameTable Pages: 1 -->
<svg width="658pt" height="90pt"
 viewBox="0.00 0.00 658.00 90.00" xmlns="http://www.w3.org/2000/svg" xmlns:xlink="http://www.w3.org/1999/xlink">
<g id="graph0" class="graph" transform="scale(1 1) rotate(0) translate(4 86)">
<title>Serializer::serializeGameTable</title>
<!-- Node1 -->
<g id="Node000001" class="node">
<title>Node1</title>
<g id="a_Node000001"><a xlink:title=" ">
<polygon fill="#999999" stroke="#666666" points="649.75,-57 525,-57 525,-25 649.75,-25 649.75,-57"/>
<text xml:space="preserve" text-anchor="start" x="533" y="-43.5" font-family="Helvetica,sans-Serif" font-size="10.00">Serializer::serializeGame</text>
<text xml:space="preserve" text-anchor="middle" x="587.38" y="-31.5" font-family="Helvetica,sans-Serif" font-size="10.00">Table</text>
</a>
</g>
</g>
<!-- Node2 -->
<g id="Node000002" class="node">
<title>Node2</title>
<g id="a_Node000002"><a xlink:href="../../d0/dc2/class_serializer.html#a88ec96a4390db20ecce812518dd2622c" target="_top" xlink:title=" ">
<polygon fill="white" stroke="#666666" points="489,-57 364.25,-57 364.25,-25 489,-25 489,-57"/>
<text xml:space="preserve" text-anchor="start" x="372.25" y="-43.5" font-family="Helvetica,sans-Serif" font-size="10.00">Serializer::serializeGame</text>
<text xml:space="preserve" text-anchor="middle" x="426.62" y="-31.5" font-family="Helvetica,sans-Serif" font-size="10.00">TableEntity</text>
</a>
</g>
</g>
<!-- Node1&#45;&gt;Node2 -->
<g id="edge1_Node000001_Node000002" class="edge">
<title>Node1&#45;&gt;Node2</title>
<g id="a_edge1_Node000001_Node000002"><a xlink:title=" ">
<path fill="none" stroke="#63b8ff" d="M513.29,-41C505.27,-41 497.15,-41 489.29,-41"/>
<polygon fill="#63b8ff" stroke="#63b8ff" points="513.03,-44.5 523.03,-41 513.03,-37.5 513.03,-44.5"/>
</a>
</g>
</g>
<!-- Node3 -->
<g id="Node000003" class="node">
<title>Node3</title>
<g id="a_Node000003"><a xlink:href="../../df/d93/class_game_table_manager.html#a172cce8920ef8672b5508fdbca0108fa" target="_top" xlink:title=" ">
<polygon fill="white" stroke="#666666" points="328.25,-57 192.25,-57 192.25,-25 328.25,-25 328.25,-57"/>
<text xml:space="preserve" text-anchor="start" x="200.25" y="-43.5" font-family="Helvetica,sans-Serif" font-size="10.00">GameTableManager::create</text>
<text xml:space="preserve" text-anchor="middle" x="260.25" y="-31.5" font-family="Helvetica,sans-Serif" font-size="10.00">GameTableFile</text>
</a>
</g>
</g>
<!-- Node2&#45;&gt;Node3 -->
<g id="edge2_Node000002_Node000003" class="edge">
<title>Node2&#45;&gt;Node3</title>
<g id="a_edge2_Node000002_Node000003"><a xlink:title=" ">
<path fill="none" stroke="#63b8ff" d="M352.69,-41C344.64,-41 336.48,-41 328.5,-41"/>
<polygon fill="#63b8ff" stroke="#63b8ff" points="352.44,-44.5 362.44,-41 352.44,-37.5 352.44,-44.5"/>
</a>
</g>
</g>
<!-- Node4 -->
<g id="Node000004" class="node">
<title>Node4</title>
<g id="a_Node000004"><a xlink:href="../../df/d93/class_game_table_manager.html#a42414a5596a4e90a3f321f90e166f9a0" target="_top" xlink:title=" ">
<polygon fill="white" stroke="#666666" points="155.12,-82 1.12,-82 1.12,-50 155.12,-50 155.12,-82"/>
<text xml:space="preserve" text-anchor="start" x="9.12" y="-68.5" font-family="Helvetica,sans-Serif" font-size="10.00">GameTableManager::hostGame</text>
<text xml:space="preserve" text-anchor="middle" x="78.12" y="-56.5" font-family="Helvetica,sans-Serif" font-size="10.00">TablePopUp</text>
</a>
</g>
</g>
<!-- Node3&#45;&gt;Node4 -->
<g id="edge3_Node000003_Node000004" class="edge">
<title>Node3&#45;&gt;Node4</title>
<g id="a_edge3_Node000003_Node000004"><a xlink:title=" ">
<path fill="none" stroke="#63b8ff" d="M180.64,-51.91C172.28,-53.07 163.79,-54.25 155.46,-55.41"/>
<polygon fill="#63b8ff" stroke="#63b8ff" points="181,-55.39 190.42,-50.55 180.04,-48.46 181,-55.39"/>
</a>
</g>
</g>
<!-- Node5 -->
<g id="Node000005" class="node">
<title>Node5</title>
<g id="a_Node000005"><a xlink:href="../../df/d93/class_game_table_manager.html#a9e6225573f97256dd5dfef871a1e32d6" target="_top" xlink:title=" ">
<polygon fill="white" stroke="#666666" points="156.25,-32 0,-32 0,0 156.25,0 156.25,-32"/>
<text xml:space="preserve" text-anchor="start" x="8" y="-18.5" font-family="Helvetica,sans-Serif" font-size="10.00">GameTableManager::saveGame</text>
<text xml:space="preserve" text-anchor="middle" x="78.12" y="-6.5" font-family="Helvetica,sans-Serif" font-size="10.00">Table</text>
</a>
</g>
</g>
<!-- Node3&#45;&gt;Node5 -->
<g id="edge4_Node000003_Node000005" class="edge">
<title>Node3&#45;&gt;Node5</title>
<g id="a_edge4_Node000003_Node000005"><a xlink:title=" ">
<path fill="none" stroke="#63b8ff" d="M180.74,-30.1C172.76,-29 164.65,-27.87 156.68,-26.76"/>
<polygon fill="#63b8ff" stroke="#63b8ff" points="180.04,-33.54 190.42,-31.45 181,-26.61 180.04,-33.54"/>
</a>
</g>
</g>
</g>
</svg>
