<?xml version="1.0" encoding="UTF-8" standalone="no"?>
<!DOCTYPE svg PUBLIC "-//W3C//DTD SVG 1.1//EN"
 "http://www.w3.org/Graphics/SVG/1.1/DTD/svg11.dtd">
<!-- Generated by graphviz version 14.0.2 (20251019.1705)
 -->
<!-- Title: Serializer::deserializeVisibility Pages: 1 -->
<svg width="1138pt" height="278pt"
 viewBox="0.00 0.00 1138.00 278.00" xmlns="http://www.w3.org/2000/svg" xmlns:xlink="http://www.w3.org/1999/xlink">
<g id="graph0" class="graph" transform="scale(1 1) rotate(0) translate(4 274)">
<title>Serializer::deserializeVisibility</title>
<!-- Node1 -->
<g id="Node000001" class="node">
<title>Node1</title>
<g id="a_Node000001"><a xlink:title=" ">
<polygon fill="#999999" stroke="#666666" points="1129.5,-139 983.75,-139 983.75,-119 1129.5,-119 1129.5,-139"/>
<text xml:space="preserve" text-anchor="middle" x="1056.62" y="-125.5" font-family="Helvetica,sans-Serif" font-size="10.00">Serializer::deserializeVisibility</text>
</a>
</g>
</g>
<!-- Node2 -->
<g id="Node000002" class="node">
<title>Node2</title>
<g id="a_Node000002"><a xlink:href="../../d0/dc2/class_serializer.html#aa69e53999b1df0a2588948fd249fe436" target="_top" xlink:title=" ">
<polygon fill="white" stroke="#666666" points="922.25,-270 796.75,-270 796.75,-238 922.25,-238 922.25,-270"/>
<text xml:space="preserve" text-anchor="start" x="804.75" y="-256.5" font-family="Helvetica,sans-Serif" font-size="10.00">Serializer::deserializeFog</text>
<text xml:space="preserve" text-anchor="middle" x="859.5" y="-244.5" font-family="Helvetica,sans-Serif" font-size="10.00">Entity</text>
</a>
</g>
</g>
<!-- Node1&#45;&gt;Node2 -->
<g id="edge1_Node000001_Node000002" class="edge">
<title>Node1&#45;&gt;Node2</title>
<g id="a_edge1_Node000001_Node000002"><a xlink:title=" ">
<path fill="none" stroke="#63b8ff" d="M1040,-148.16C1020.63,-170.69 985.51,-207.71 947.75,-229 939.93,-233.41 931.26,-237.1 922.52,-240.16"/>
<polygon fill="#63b8ff" stroke="#63b8ff" points="1042.57,-150.54 1046.33,-140.63 1037.21,-146.03 1042.57,-150.54"/>
</a>
</g>
</g>
<!-- Node8 -->
<g id="Node000008" class="node">
<title>Node8</title>
<g id="a_Node000008"><a xlink:href="../../d0/dc2/class_serializer.html#a575d56ef9fe8683ae7be3e60c3952335" target="_top" xlink:title=" ">
<polygon fill="white" stroke="#666666" points="929,-220 790,-220 790,-188 929,-188 929,-220"/>
<text xml:space="preserve" text-anchor="start" x="798" y="-206.5" font-family="Helvetica,sans-Serif" font-size="10.00">Serializer::deserializeMarker</text>
<text xml:space="preserve" text-anchor="middle" x="859.5" y="-194.5" font-family="Helvetica,sans-Serif" font-size="10.00">Entity</text>
</a>
</g>
</g>
<!-- Node1&#45;&gt;Node8 -->
<g id="edge7_Node000001_Node000008" class="edge">
<title>Node1&#45;&gt;Node8</title>
<g id="a_edge7_Node000001_Node000008"><a xlink:title=" ">
<path fill="none" stroke="#63b8ff" d="M1025.68,-144.41C1004.32,-155.02 974.72,-168.95 947.75,-179 939.63,-182.02 930.97,-184.9 922.38,-187.56"/>
<polygon fill="#63b8ff" stroke="#63b8ff" points="1027.03,-147.65 1034.39,-140.03 1023.88,-141.39 1027.03,-147.65"/>
</a>
</g>
</g>
<!-- Node9 -->
<g id="Node000009" class="node">
<title>Node9</title>
<g id="a_Node000009"><a xlink:href="../../da/d21/class_network_manager.html#a870fdbf3fcb748380d4bac60d0c619ae" target="_top" xlink:title=" ">
<polygon fill="white" stroke="#666666" points="930.12,-170 788.88,-170 788.88,-138 930.12,-138 930.12,-170"/>
<text xml:space="preserve" text-anchor="start" x="796.88" y="-156.5" font-family="Helvetica,sans-Serif" font-size="10.00">NetworkManager::handleFog</text>
<text xml:space="preserve" text-anchor="middle" x="859.5" y="-144.5" font-family="Helvetica,sans-Serif" font-size="10.00">Create</text>
</a>
</g>
</g>
<!-- Node1&#45;&gt;Node9 -->
<g id="edge9_Node000001_Node000009" class="edge">
<title>Node1&#45;&gt;Node9</title>
<g id="a_edge9_Node000001_Node000009"><a xlink:title=" ">
<path fill="none" stroke="#63b8ff" d="M972.4,-139.66C958.39,-141.46 943.98,-143.3 930.36,-145.05"/>
<polygon fill="#63b8ff" stroke="#63b8ff" points="972.55,-143.17 982.02,-138.43 971.66,-136.23 972.55,-143.17"/>
</a>
</g>
</g>
<!-- Node13 -->
<g id="Node000013" class="node">
<title>Node13</title>
<g id="a_Node000013"><a xlink:href="../../da/d21/class_network_manager.html#a0466594f0db8b90c31d5bce0c862d4a7" target="_top" xlink:title=" ">
<polygon fill="white" stroke="#666666" points="930.12,-120 788.88,-120 788.88,-88 930.12,-88 930.12,-120"/>
<text xml:space="preserve" text-anchor="start" x="796.88" y="-106.5" font-family="Helvetica,sans-Serif" font-size="10.00">NetworkManager::handleFog</text>
<text xml:space="preserve" text-anchor="middle" x="859.5" y="-94.5" font-family="Helvetica,sans-Serif" font-size="10.00">Update</text>
</a>
</g>
</g>
<!-- Node1&#45;&gt;Node13 -->
<g id="edge13_Node000001_Node000013" class="edge">
<title>Node1&#45;&gt;Node13</title>
<g id="a_edge13_Node000001_Node000013"><a xlink:title=" ">
<path fill="none" stroke="#63b8ff" d="M972.4,-118.34C958.39,-116.54 943.98,-114.7 930.36,-112.95"/>
<polygon fill="#63b8ff" stroke="#63b8ff" points="971.66,-121.77 982.02,-119.57 972.55,-114.83 971.66,-121.77"/>
</a>
</g>
</g>
<!-- Node14 -->
<g id="Node000014" class="node">
<title>Node14</title>
<g id="a_Node000014"><a xlink:href="../../da/d21/class_network_manager.html#ad64ac29f56dad04509518f9e2bdf8f76" target="_top" xlink:title=" ">
<polygon fill="white" stroke="#666666" points="947.75,-70 771.25,-70 771.25,-50 947.75,-50 947.75,-70"/>
<text xml:space="preserve" text-anchor="middle" x="859.5" y="-56.5" font-family="Helvetica,sans-Serif" font-size="10.00">NetworkManager::handleMarkerMeta</text>
</a>
</g>
</g>
<!-- Node1&#45;&gt;Node14 -->
<g id="edge15_Node000001_Node000014" class="edge">
<title>Node1&#45;&gt;Node14</title>
<g id="a_edge15_Node000001_Node000014"><a xlink:title=" ">
<path fill="none" stroke="#63b8ff" d="M1026.65,-113.44C1005.33,-102.53 975.37,-88.28 947.75,-79 938.05,-75.74 927.55,-72.9 917.32,-70.48"/>
<polygon fill="#63b8ff" stroke="#63b8ff" points="1024.83,-116.44 1035.32,-117.95 1028.06,-110.23 1024.83,-116.44"/>
</a>
</g>
</g>
<!-- Node15 -->
<g id="Node000015" class="node">
<title>Node15</title>
<g id="a_Node000015"><a xlink:href="../../da/d21/class_network_manager.html#ac5d3c0e4fbaccd780b59519e714541b0" target="_top" xlink:title=" ">
<polygon fill="white" stroke="#666666" points="936.88,-32 782.12,-32 782.12,0 936.88,0 936.88,-32"/>
<text xml:space="preserve" text-anchor="start" x="790.12" y="-18.5" font-family="Helvetica,sans-Serif" font-size="10.00">NetworkManager::handleMarker</text>
<text xml:space="preserve" text-anchor="middle" x="859.5" y="-6.5" font-family="Helvetica,sans-Serif" font-size="10.00">Update</text>
</a>
</g>
</g>
<!-- Node1&#45;&gt;Node15 -->
<g id="edge17_Node000001_Node000015" class="edge">
<title>Node1&#45;&gt;Node15</title>
<g id="a_edge17_Node000001_Node000015"><a xlink:title=" ">
<path fill="none" stroke="#63b8ff" d="M1038.01,-110.73C1017.9,-90.88 983.2,-59.53 947.75,-41 941.61,-37.79 935,-34.94 928.26,-32.43"/>
<polygon fill="#63b8ff" stroke="#63b8ff" points="1035.33,-113.01 1044.86,-117.64 1040.3,-108.07 1035.33,-113.01"/>
</a>
</g>
</g>
<!-- Node3 -->
<g id="Node000003" class="node">
<title>Node3</title>
<g id="a_Node000003"><a xlink:href="../../d0/dc2/class_serializer.html#aff25e5361ee486db1fb453b6ec1f8acf" target="_top" xlink:title=" ">
<polygon fill="white" stroke="#666666" points="728.5,-245 594,-245 594,-213 728.5,-213 728.5,-245"/>
<text xml:space="preserve" text-anchor="start" x="602" y="-231.5" font-family="Helvetica,sans-Serif" font-size="10.00">Serializer::deserializeBoard</text>
<text xml:space="preserve" text-anchor="middle" x="661.25" y="-219.5" font-family="Helvetica,sans-Serif" font-size="10.00">Entity</text>
</a>
</g>
</g>
<!-- Node2&#45;&gt;Node3 -->
<g id="edge2_Node000002_Node000003" class="edge">
<title>Node2&#45;&gt;Node3</title>
<g id="a_edge2_Node000002_Node000003"><a xlink:title=" ">
<path fill="none" stroke="#63b8ff" d="M785.07,-244.65C766.58,-242.29 746.83,-239.77 728.69,-237.46"/>
<polygon fill="#63b8ff" stroke="#63b8ff" points="784.54,-248.11 794.9,-245.9 785.43,-241.16 784.54,-248.11"/>
</a>
</g>
</g>
<!-- Node4 -->
<g id="Node000004" class="node">
<title>Node4</title>
<g id="a_Node000004"><a xlink:href="../../d0/dc2/class_serializer.html#a0fa2fd5d94c71074a2a2d4d08fb2ddfd" target="_top" xlink:title=" ">
<polygon fill="white" stroke="#666666" points="532.88,-270 397.62,-270 397.62,-238 532.88,-238 532.88,-270"/>
<text xml:space="preserve" text-anchor="start" x="405.62" y="-256.5" font-family="Helvetica,sans-Serif" font-size="10.00">Serializer::deserializeGame</text>
<text xml:space="preserve" text-anchor="middle" x="465.25" y="-244.5" font-family="Helvetica,sans-Serif" font-size="10.00">TableEntity</text>
</a>
</g>
</g>
<!-- Node3&#45;&gt;Node4 -->
<g id="edge3_Node000003_Node000004" class="edge">
<title>Node3&#45;&gt;Node4</title>
<g id="a_edge3_Node000003_Node000004"><a xlink:title=" ">
<path fill="none" stroke="#63b8ff" d="M582.61,-239.01C566.29,-241.11 549.21,-243.31 533.31,-245.36"/>
<polygon fill="#63b8ff" stroke="#63b8ff" points="582.79,-242.51 592.26,-237.76 581.89,-235.57 582.79,-242.51"/>
</a>
</g>
</g>
<!-- Node7 -->
<g id="Node000007" class="node">
<title>Node7</title>
<g id="a_Node000007"><a xlink:href="../../d2/dbf/class_board_manager.html#ae3c8d16dfa3b0e954475b6cf8e5e52f2" target="_top" xlink:title=" ">
<polygon fill="white" stroke="#666666" points="530.62,-220 399.88,-220 399.88,-188 530.62,-188 530.62,-220"/>
<text xml:space="preserve" text-anchor="start" x="407.88" y="-206.5" font-family="Helvetica,sans-Serif" font-size="10.00">BoardManager::loadActive</text>
<text xml:space="preserve" text-anchor="middle" x="465.25" y="-194.5" font-family="Helvetica,sans-Serif" font-size="10.00">Board</text>
</a>
</g>
</g>
<!-- Node3&#45;&gt;Node7 -->
<g id="edge6_Node000003_Node000007" class="edge">
<title>Node3&#45;&gt;Node7</title>
<g id="a_edge6_Node000003_Node000007"><a xlink:title=" ">
<path fill="none" stroke="#63b8ff" d="M582.65,-219C565.53,-216.79 547.57,-214.48 531.02,-212.35"/>
<polygon fill="#63b8ff" stroke="#63b8ff" points="581.89,-222.43 592.26,-220.24 582.79,-215.49 581.89,-222.43"/>
</a>
</g>
</g>
<!-- Node5 -->
<g id="Node000005" class="node">
<title>Node5</title>
<g id="a_Node000005"><a xlink:href="../../df/d93/class_game_table_manager.html#aedb2f2634710aeb401d6c7e1c2d6a96d" target="_top" xlink:title=" ">
<polygon fill="white" stroke="#666666" points="343.25,-270 190,-270 190,-238 343.25,-238 343.25,-270"/>
<text xml:space="preserve" text-anchor="start" x="198" y="-256.5" font-family="Helvetica,sans-Serif" font-size="10.00">GameTableManager::loadGame</text>
<text xml:space="preserve" text-anchor="middle" x="266.62" y="-244.5" font-family="Helvetica,sans-Serif" font-size="10.00">Table</text>
</a>
</g>
</g>
<!-- Node4&#45;&gt;Node5 -->
<g id="edge4_Node000004_Node000005" class="edge">
<title>Node4&#45;&gt;Node5</title>
<g id="a_edge4_Node000004_Node000005"><a xlink:title=" ">
<path fill="none" stroke="#63b8ff" d="M385.64,-254C371.77,-254 357.35,-254 343.56,-254"/>
<polygon fill="#63b8ff" stroke="#63b8ff" points="385.62,-257.5 395.62,-254 385.62,-250.5 385.62,-257.5"/>
</a>
</g>
</g>
<!-- Node6 -->
<g id="Node000006" class="node">
<title>Node6</title>
<g id="a_Node000006"><a xlink:href="../../df/d93/class_game_table_manager.html#a42414a5596a4e90a3f321f90e166f9a0" target="_top" xlink:title=" ">
<polygon fill="white" stroke="#666666" points="154,-270 0,-270 0,-238 154,-238 154,-270"/>
<text xml:space="preserve" text-anchor="start" x="8" y="-256.5" font-family="Helvetica,sans-Serif" font-size="10.00">GameTableManager::hostGame</text>
<text xml:space="preserve" text-anchor="middle" x="77" y="-244.5" font-family="Helvetica,sans-Serif" font-size="10.00">TablePopUp</text>
</a>
</g>
</g>
<!-- Node5&#45;&gt;Node6 -->
<g id="edge5_Node000005_Node000006" class="edge">
<title>Node5&#45;&gt;Node6</title>
<g id="a_edge5_Node000005_Node000006"><a xlink:title=" ">
<path fill="none" stroke="#63b8ff" d="M178.09,-254C170.19,-254 162.24,-254 154.46,-254"/>
<polygon fill="#63b8ff" stroke="#63b8ff" points="178.07,-257.5 188.07,-254 178.07,-250.5 178.07,-257.5"/>
</a>
</g>
</g>
<!-- Node8&#45;&gt;Node3 -->
<g id="edge8_Node000008_Node000003" class="edge">
<title>Node8&#45;&gt;Node3</title>
<g id="a_edge8_Node000008_Node000003"><a xlink:title=" ">
<path fill="none" stroke="#63b8ff" d="M778.31,-214.22C761.82,-216.32 744.63,-218.51 728.69,-220.54"/>
<polygon fill="#63b8ff" stroke="#63b8ff" points="778.61,-217.71 788.08,-212.97 777.72,-210.76 778.61,-217.71"/>
</a>
</g>
</g>
<!-- Node10 -->
<g id="Node000010" class="node">
<title>Node10</title>
<g id="a_Node000010"><a xlink:href="../../da/d21/class_network_manager.html#a53df93ad0cb0498c82f866a921e7b285" target="_top" xlink:title=" ">
<polygon fill="white" stroke="#666666" points="735.25,-98 587.25,-98 587.25,-66 735.25,-66 735.25,-98"/>
<text xml:space="preserve" text-anchor="start" x="595.25" y="-84.5" font-family="Helvetica,sans-Serif" font-size="10.00">NetworkManager::decodeRaw</text>
<text xml:space="preserve" text-anchor="middle" x="661.25" y="-72.5" font-family="Helvetica,sans-Serif" font-size="10.00">GameBuffer</text>
</a>
</g>
</g>
<!-- Node9&#45;&gt;Node10 -->
<g id="edge10_Node000009_Node000010" class="edge">
<title>Node9&#45;&gt;Node10</title>
<g id="a_edge10_Node000009_Node000010"><a xlink:title=" ">
<path fill="none" stroke="#63b8ff" d="M786.49,-134.16C781.31,-132.49 776.18,-130.76 771.25,-129 746.02,-119.99 718.31,-108.01 697.14,-98.4"/>
<polygon fill="#63b8ff" stroke="#63b8ff" points="785.13,-137.4 795.72,-137.05 787.22,-130.72 785.13,-137.4"/>
</a>
</g>
</g>
<!-- Node11 -->
<g id="Node000011" class="node">
<title>Node11</title>
<g id="a_Node000011"><a xlink:href="../../da/d21/class_network_manager.html#ad3605b8b33fa44492458d0aaffb4dec8" target="_top" xlink:title=" ">
<polygon fill="white" stroke="#666666" points="551.25,-114 379.25,-114 379.25,-94 551.25,-94 551.25,-114"/>
<text xml:space="preserve" text-anchor="middle" x="465.25" y="-100.5" font-family="Helvetica,sans-Serif" font-size="10.00">NetworkManager::drainInboundRaw</text>
</a>
</g>
</g>
<!-- Node10&#45;&gt;Node11 -->
<g id="edge11_Node000010_Node000011" class="edge">
<title>Node10&#45;&gt;Node11</title>
<g id="a_edge11_Node000010_Node000011"><a xlink:title=" ">
<path fill="none" stroke="#63b8ff" d="M575.48,-91.61C567.61,-92.51 559.63,-93.41 551.75,-94.3"/>
<polygon fill="#63b8ff" stroke="#63b8ff" points="575.86,-95.09 585.4,-90.49 575.07,-88.14 575.86,-95.09"/>
</a>
</g>
</g>
<!-- Node12 -->
<g id="Node000012" class="node">
<title>Node12</title>
<g id="a_Node000012"><a xlink:href="../../da/d21/class_network_manager.html#a3289708df965193b6ec0287eb069b276" target="_top" xlink:title=" ">
<polygon fill="white" stroke="#666666" points="533.25,-76 397.25,-76 397.25,-44 533.25,-44 533.25,-76"/>
<text xml:space="preserve" text-anchor="start" x="405.25" y="-62.5" font-family="Helvetica,sans-Serif" font-size="10.00">NetworkManager::startRaw</text>
<text xml:space="preserve" text-anchor="middle" x="465.25" y="-50.5" font-family="Helvetica,sans-Serif" font-size="10.00">DrainWorker</text>
</a>
</g>
</g>
<!-- Node10&#45;&gt;Node12 -->
<g id="edge12_Node000010_Node000012" class="edge">
<title>Node10&#45;&gt;Node12</title>
<g id="a_edge12_Node000010_Node000012"><a xlink:title=" ">
<path fill="none" stroke="#63b8ff" d="M575.72,-72.41C561.64,-70.82 547.2,-69.18 533.63,-67.64"/>
<polygon fill="#63b8ff" stroke="#63b8ff" points="575.07,-75.86 585.4,-73.51 575.86,-68.91 575.07,-75.86"/>
</a>
</g>
</g>
<!-- Node13&#45;&gt;Node10 -->
<g id="edge14_Node000013_Node000010" class="edge">
<title>Node13&#45;&gt;Node10</title>
<g id="a_edge14_Node000013_Node000010"><a xlink:title=" ">
<path fill="none" stroke="#63b8ff" d="M777.06,-94.87C763.3,-93.33 749.09,-91.74 735.56,-90.22"/>
<polygon fill="#63b8ff" stroke="#63b8ff" points="776.65,-98.35 786.98,-95.98 777.43,-91.39 776.65,-98.35"/>
</a>
</g>
</g>
<!-- Node14&#45;&gt;Node10 -->
<g id="edge16_Node000014_Node000010" class="edge">
<title>Node14&#45;&gt;Node10</title>
<g id="a_edge16_Node000014_Node000010"><a xlink:title=" ">
<path fill="none" stroke="#63b8ff" d="M759.56,-71.09C751.46,-72 743.36,-72.91 735.5,-73.79"/>
<polygon fill="#63b8ff" stroke="#63b8ff" points="759.94,-74.57 769.49,-69.98 759.16,-67.61 759.94,-74.57"/>
</a>
</g>
</g>
<!-- Node15&#45;&gt;Node10 -->
<g id="edge18_Node000015_Node000010" class="edge">
<title>Node15&#45;&gt;Node10</title>
<g id="a_edge18_Node000015_Node000010"><a xlink:title=" ">
<path fill="none" stroke="#63b8ff" d="M787.85,-35.72C782.22,-37.45 776.63,-39.22 771.25,-41 748.7,-48.46 723.88,-57.71 703.64,-65.53"/>
<polygon fill="#63b8ff" stroke="#63b8ff" points="788.69,-39.12 797.25,-32.88 786.66,-32.42 788.69,-39.12"/>
</a>
</g>
</g>
</g>
</svg>
