<?xml version="1.0" encoding="UTF-8" standalone="no"?>
<!DOCTYPE svg PUBLIC "-//W3C//DTD SVG 1.1//EN"
 "http://www.w3.org/Graphics/SVG/1.1/DTD/svg11.dtd">
<!-- Generated by graphviz version 14.0.2 (20251019.1705)
 -->
<!-- Title: Serializer::deserializeMoving Pages: 1 -->
<!--zoomable 214 -->

<svg id="main" version="1.1" xmlns="http://www.w3.org/2000/svg" xmlns:xlink="http://www.w3.org/1999/xlink" xml:space="preserve" onload="init(evt)">
<style type="text/css"><![CDATA[
.node, .edge {opacity: 0.7;}
.node.selected, .edge.selected {opacity: 1;}
.edge:hover path { stroke: red; }
.edge:hover polygon { stroke: red; fill: red; }
]]></style>

<defs>
  <circle id="rim" cx="0" cy="0" r="7"/>
  <circle id="rim2" cx="0" cy="0" r="3.5"/>
  <g id="zoomPlus">
    <use xlink:href="#rim" fill="#404040"><set attributeName="fill" to="#808080" begin="zoomplus.mouseover" end="zoomplus.mouseout"/></use>
    <path d="M-4,0h8M0,-4v8" fill="none" stroke="white" stroke-width="1.5" pointer-events="none"/>
  </g>
  <g id="zoomMin">
    <use xlink:href="#rim" fill="#404040"><set attributeName="fill" to="#808080" begin="zoomminus.mouseover" end="zoomminus.mouseout"/></use>
    <path d="M-4,0h8" fill="none" stroke="white" stroke-width="1.5" pointer-events="none"/>
  </g>
  <g id="arrowUp" transform="translate(30 24)">
    <use xlink:href="#rim"/>
    <path pointer-events="none" fill="none" stroke="white" stroke-width="1.5" d="M0,-3.0v7 M-2.5,-0.5L0,-3.0L2.5,-0.5"/>
  </g>
  <g id="arrowRight" transform="rotate(90) translate(36 -43)">
    <use xlink:href="#rim"/>
    <path pointer-events="none" fill="none" stroke="white" stroke-width="1.5" d="M0,-3.0v7 M-2.5,-0.5L0,-3.0L2.5,-0.5"/>
  </g>
  <g id="arrowDown" transform="rotate(180) translate(-30 -48)">
    <use xlink:href="#rim"/>
    <path pointer-events="none" fill="none" stroke="white" stroke-width="1.5" d="M0,-3.0v7 M-2.5,-0.5L0,-3.0L2.5,-0.5"/>
  </g>
  <g id="arrowLeft" transform="rotate(270) translate(-36 17)">
    <use xlink:href="#rim"/>
    <path pointer-events="none" fill="none" stroke="white" stroke-width="1.5" d="M0,-3.0v7 M-2.5,-0.5L0,-3.0L2.5,-0.5"/>
  </g>
  <g id="resetDef">
    <use xlink:href="#rim2" fill="#404040"><set attributeName="fill" to="#808080" begin="reset.mouseover" end="reset.mouseout"/></use>
  </g>
</defs>
<script type="application/ecmascript">
var viewWidth = 1132;
var viewHeight = 214;
var sectionId = 'dynsection-21';
</script>
<script type="application/ecmascript" xlink:href="../../svg.min.js"/>
<svg id="graph" class="graph">
<g id="viewport">
<title>Serializer::deserializeMoving</title>
<!-- Node1 -->
<g id="Node000001" class="node">
<title>Node1</title>
<g id="a_Node000001"><a xlink:title=" ">
<polygon fill="#999999" stroke="#666666" points="1124.25,-92 983.75,-92 983.75,-72 1124.25,-72 1124.25,-92"/>
<text xml:space="preserve" text-anchor="middle" x="1054" y="-78.5" font-family="Helvetica,sans-Serif" font-size="10.00">Serializer::deserializeMoving</text>
</a>
</g>
</g>
<!-- Node2 -->
<g id="Node000002" class="node">
<title>Node2</title>
<g id="a_Node000002"><a xlink:href="../../d0/dc2/class_serializer.html#a575d56ef9fe8683ae7be3e60c3952335" target="_top" xlink:title=" ">
<polygon fill="white" stroke="#666666" points="929,-170 790,-170 790,-138 929,-138 929,-170"/>
<text xml:space="preserve" text-anchor="start" x="798" y="-156.5" font-family="Helvetica,sans-Serif" font-size="10.00">Serializer::deserializeMarker</text>
<text xml:space="preserve" text-anchor="middle" x="859.5" y="-144.5" font-family="Helvetica,sans-Serif" font-size="10.00">Entity</text>
</a>
</g>
</g>
<!-- Node1&#45;&gt;Node2 -->
<g id="edge1_Node000001_Node000002" class="edge">
<title>Node1&#45;&gt;Node2</title>
<g id="a_edge1_Node000001_Node000002"><a xlink:title=" ">
<path fill="none" stroke="#63b8ff" d="M1021.88,-97.29C1001.18,-107.11 973.21,-119.72 947.75,-129 939.46,-132.02 930.62,-134.92 921.87,-137.6"/>
<polygon fill="#63b8ff" stroke="#63b8ff" points="1023.13,-100.57 1030.63,-93.09 1020.1,-94.26 1023.13,-100.57"/>
</a>
</g>
</g>
<!-- Node8 -->
<g id="Node000008" class="node">
<title>Node8</title>
<g id="a_Node000008"><a xlink:href="../../da/d21/class_network_manager.html#a0466594f0db8b90c31d5bce0c862d4a7" target="_top" xlink:title=" ">
<polygon fill="white" stroke="#666666" points="930.12,-120 788.88,-120 788.88,-88 930.12,-88 930.12,-120"/>
<text xml:space="preserve" text-anchor="start" x="796.88" y="-106.5" font-family="Helvetica,sans-Serif" font-size="10.00">NetworkManager::handleFog</text>
<text xml:space="preserve" text-anchor="middle" x="859.5" y="-94.5" font-family="Helvetica,sans-Serif" font-size="10.00">Update</text>
</a>
</g>
</g>
<!-- Node1&#45;&gt;Node8 -->
<g id="edge7_Node000001_Node000008" class="edge">
<title>Node1&#45;&gt;Node8</title>
<g id="a_edge7_Node000001_Node000008"><a xlink:title=" ">
<path fill="none" stroke="#63b8ff" d="M972.46,-91.2C958.53,-92.8 944.16,-94.44 930.54,-96"/>
<polygon fill="#63b8ff" stroke="#63b8ff" points="972.46,-94.73 982,-90.11 971.67,-87.77 972.46,-94.73"/>
</a>
</g>
</g>
<!-- Node12 -->
<g id="Node000012" class="node">
<title>Node12</title>
<g id="a_Node000012"><a xlink:href="../../da/d21/class_network_manager.html#ad64ac29f56dad04509518f9e2bdf8f76" target="_top" xlink:title=" ">
<polygon fill="white" stroke="#666666" points="947.75,-70 771.25,-70 771.25,-50 947.75,-50 947.75,-70"/>
<text xml:space="preserve" text-anchor="middle" x="859.5" y="-56.5" font-family="Helvetica,sans-Serif" font-size="10.00">NetworkManager::handleMarkerMeta</text>
</a>
</g>
</g>
<!-- Node1&#45;&gt;Node12 -->
<g id="edge11_Node000001_Node000012" class="edge">
<title>Node1&#45;&gt;Node12</title>
<g id="a_edge11_Node000001_Node000012"><a xlink:title=" ">
<path fill="none" stroke="#63b8ff" d="M972.28,-72.78C964.26,-71.86 956.09,-70.92 948,-70"/>
<polygon fill="#63b8ff" stroke="#63b8ff" points="971.67,-76.23 982,-73.89 972.46,-69.27 971.67,-76.23"/>
</a>
</g>
</g>
<!-- Node13 -->
<g id="Node000013" class="node">
<title>Node13</title>
<g id="a_Node000013"><a xlink:href="../../da/d21/class_network_manager.html#a4e57df88fc7446d22630aacb5a31dfc1" target="_top" xlink:title=" ">
<polygon fill="white" stroke="#666666" points="936.88,-32 782.12,-32 782.12,0 936.88,0 936.88,-32"/>
<text xml:space="preserve" text-anchor="start" x="790.12" y="-18.5" font-family="Helvetica,sans-Serif" font-size="10.00">NetworkManager::handleMarker</text>
<text xml:space="preserve" text-anchor="middle" x="859.5" y="-6.5" font-family="Helvetica,sans-Serif" font-size="10.00">MoveState</text>
</a>
</g>
</g>
<!-- Node1&#45;&gt;Node13 -->
<g id="edge13_Node000001_Node000013" class="edge">
<title>Node1&#45;&gt;Node13</title>
<g id="a_edge13_Node000001_Node000013"><a xlink:title=" ">
<path fill="none" stroke="#63b8ff" d="M1017.53,-67.24C997.26,-59.04 971.27,-48.93 947.75,-41 939.09,-38.08 929.88,-35.2 920.8,-32.49"/>
<polygon fill="#63b8ff" stroke="#63b8ff" points="1016.16,-70.46 1026.74,-71 1018.81,-63.98 1016.16,-70.46"/>
</a>
</g>
</g>
<!-- Node3 -->
<g id="Node000003" class="node">
<title>Node3</title>
<g id="a_Node000003"><a xlink:href="../../d0/dc2/class_serializer.html#aff25e5361ee486db1fb453b6ec1f8acf" target="_top" xlink:title=" ">
<polygon fill="white" stroke="#666666" points="728.5,-170 594,-170 594,-138 728.5,-138 728.5,-170"/>
<text xml:space="preserve" text-anchor="start" x="602" y="-156.5" font-family="Helvetica,sans-Serif" font-size="10.00">Serializer::deserializeBoard</text>
<text xml:space="preserve" text-anchor="middle" x="661.25" y="-144.5" font-family="Helvetica,sans-Serif" font-size="10.00">Entity</text>
</a>
</g>
</g>
<!-- Node2&#45;&gt;Node3 -->
<g id="edge2_Node000002_Node000003" class="edge">
<title>Node2&#45;&gt;Node3</title>
<g id="a_edge2_Node000002_Node000003"><a xlink:title=" ">
<path fill="none" stroke="#63b8ff" d="M778.31,-154C761.82,-154 744.63,-154 728.69,-154"/>
<polygon fill="#63b8ff" stroke="#63b8ff" points="778.07,-157.5 788.07,-154 778.07,-150.5 778.07,-157.5"/>
</a>
</g>
</g>
<!-- Node4 -->
<g id="Node000004" class="node">
<title>Node4</title>
<g id="a_Node000004"><a xlink:href="../../d0/dc2/class_serializer.html#a0fa2fd5d94c71074a2a2d4d08fb2ddfd" target="_top" xlink:title=" ">
<polygon fill="white" stroke="#666666" points="532.88,-206 397.62,-206 397.62,-174 532.88,-174 532.88,-206"/>
<text xml:space="preserve" text-anchor="start" x="405.62" y="-192.5" font-family="Helvetica,sans-Serif" font-size="10.00">Serializer::deserializeGame</text>
<text xml:space="preserve" text-anchor="middle" x="465.25" y="-180.5" font-family="Helvetica,sans-Serif" font-size="10.00">TableEntity</text>
</a>
</g>
</g>
<!-- Node3&#45;&gt;Node4 -->
<g id="edge3_Node000003_Node000004" class="edge">
<title>Node3&#45;&gt;Node4</title>
<g id="a_edge3_Node000003_Node000004"><a xlink:title=" ">
<path fill="none" stroke="#63b8ff" d="M582.61,-168.41C566.29,-171.44 549.21,-174.61 533.31,-177.56"/>
<polygon fill="#63b8ff" stroke="#63b8ff" points="583.08,-171.88 592.27,-166.61 581.8,-165 583.08,-171.88"/>
</a>
</g>
</g>
<!-- Node7 -->
<g id="Node000007" class="node">
<title>Node7</title>
<g id="a_Node000007"><a xlink:href="../../d2/dbf/class_board_manager.html#ae3c8d16dfa3b0e954475b6cf8e5e52f2" target="_top" xlink:title=" ">
<polygon fill="white" stroke="#666666" points="530.62,-156 399.88,-156 399.88,-124 530.62,-124 530.62,-156"/>
<text xml:space="preserve" text-anchor="start" x="407.88" y="-142.5" font-family="Helvetica,sans-Serif" font-size="10.00">BoardManager::loadActive</text>
<text xml:space="preserve" text-anchor="middle" x="465.25" y="-130.5" font-family="Helvetica,sans-Serif" font-size="10.00">Board</text>
</a>
</g>
</g>
<!-- Node3&#45;&gt;Node7 -->
<g id="edge6_Node000003_Node000007" class="edge">
<title>Node3&#45;&gt;Node7</title>
<g id="a_edge6_Node000003_Node000007"><a xlink:title=" ">
<path fill="none" stroke="#63b8ff" d="M582.65,-148.4C565.53,-147.16 547.57,-145.87 531.02,-144.67"/>
<polygon fill="#63b8ff" stroke="#63b8ff" points="582.02,-151.86 592.25,-149.09 582.53,-144.88 582.02,-151.86"/>
</a>
</g>
</g>
<!-- Node5 -->
<g id="Node000005" class="node">
<title>Node5</title>
<g id="a_Node000005"><a xlink:href="../../df/d93/class_game_table_manager.html#aedb2f2634710aeb401d6c7e1c2d6a96d" target="_top" xlink:title=" ">
<polygon fill="white" stroke="#666666" points="343.25,-206 190,-206 190,-174 343.25,-174 343.25,-206"/>
<text xml:space="preserve" text-anchor="start" x="198" y="-192.5" font-family="Helvetica,sans-Serif" font-size="10.00">GameTableManager::loadGame</text>
<text xml:space="preserve" text-anchor="middle" x="266.62" y="-180.5" font-family="Helvetica,sans-Serif" font-size="10.00">Table</text>
</a>
</g>
</g>
<!-- Node4&#45;&gt;Node5 -->
<g id="edge4_Node000004_Node000005" class="edge">
<title>Node4&#45;&gt;Node5</title>
<g id="a_edge4_Node000004_Node000005"><a xlink:title=" ">
<path fill="none" stroke="#63b8ff" d="M385.64,-190C371.77,-190 357.35,-190 343.56,-190"/>
<polygon fill="#63b8ff" stroke="#63b8ff" points="385.62,-193.5 395.62,-190 385.62,-186.5 385.62,-193.5"/>
</a>
</g>
</g>
<!-- Node6 -->
<g id="Node000006" class="node">
<title>Node6</title>
<g id="a_Node000006"><a xlink:href="../../df/d93/class_game_table_manager.html#a42414a5596a4e90a3f321f90e166f9a0" target="_top" xlink:title=" ">
<polygon fill="white" stroke="#666666" points="154,-206 0,-206 0,-174 154,-174 154,-206"/>
<text xml:space="preserve" text-anchor="start" x="8" y="-192.5" font-family="Helvetica,sans-Serif" font-size="10.00">GameTableManager::hostGame</text>
<text xml:space="preserve" text-anchor="middle" x="77" y="-180.5" font-family="Helvetica,sans-Serif" font-size="10.00">TablePopUp</text>
</a>
</g>
</g>
<!-- Node5&#45;&gt;Node6 -->
<g id="edge5_Node000005_Node000006" class="edge">
<title>Node5&#45;&gt;Node6</title>
<g id="a_edge5_Node000005_Node000006"><a xlink:title=" ">
<path fill="none" stroke="#63b8ff" d="M178.09,-190C170.19,-190 162.24,-190 154.46,-190"/>
<polygon fill="#63b8ff" stroke="#63b8ff" points="178.07,-193.5 188.07,-190 178.07,-186.5 178.07,-193.5"/>
</a>
</g>
</g>
<!-- Node9 -->
<g id="Node000009" class="node">
<title>Node9</title>
<g id="a_Node000009"><a xlink:href="../../da/d21/class_network_manager.html#a53df93ad0cb0498c82f866a921e7b285" target="_top" xlink:title=" ">
<polygon fill="white" stroke="#666666" points="735.25,-76 587.25,-76 587.25,-44 735.25,-44 735.25,-76"/>
<text xml:space="preserve" text-anchor="start" x="595.25" y="-62.5" font-family="Helvetica,sans-Serif" font-size="10.00">NetworkManager::decodeRaw</text>
<text xml:space="preserve" text-anchor="middle" x="661.25" y="-50.5" font-family="Helvetica,sans-Serif" font-size="10.00">GameBuffer</text>
</a>
</g>
</g>
<!-- Node8&#45;&gt;Node9 -->
<g id="edge8_Node000008_Node000009" class="edge">
<title>Node8&#45;&gt;Node9</title>
<g id="a_edge8_Node000008_Node000009"><a xlink:title=" ">
<path fill="none" stroke="#63b8ff" d="M777.47,-85.83C763.58,-82.72 749.23,-79.5 735.56,-76.44"/>
<polygon fill="#63b8ff" stroke="#63b8ff" points="776.48,-89.2 787,-87.97 778.01,-82.37 776.48,-89.2"/>
</a>
</g>
</g>
<!-- Node10 -->
<g id="Node000010" class="node">
<title>Node10</title>
<g id="a_Node000010"><a xlink:href="../../da/d21/class_network_manager.html#ad3605b8b33fa44492458d0aaffb4dec8" target="_top" xlink:title=" ">
<polygon fill="white" stroke="#666666" points="551.25,-92 379.25,-92 379.25,-72 551.25,-72 551.25,-92"/>
<text xml:space="preserve" text-anchor="middle" x="465.25" y="-78.5" font-family="Helvetica,sans-Serif" font-size="10.00">NetworkManager::drainInboundRaw</text>
</a>
</g>
</g>
<!-- Node9&#45;&gt;Node10 -->
<g id="edge9_Node000009_Node000010" class="edge">
<title>Node9&#45;&gt;Node10</title>
<g id="a_edge9_Node000009_Node000010"><a xlink:title=" ">
<path fill="none" stroke="#63b8ff" d="M575.48,-69.61C567.61,-70.51 559.63,-71.41 551.75,-72.3"/>
<polygon fill="#63b8ff" stroke="#63b8ff" points="575.86,-73.09 585.4,-68.49 575.07,-66.14 575.86,-73.09"/>
</a>
</g>
</g>
<!-- Node11 -->
<g id="Node000011" class="node">
<title>Node11</title>
<g id="a_Node000011"><a xlink:href="../../da/d21/class_network_manager.html#a3289708df965193b6ec0287eb069b276" target="_top" xlink:title=" ">
<polygon fill="white" stroke="#666666" points="533.25,-54 397.25,-54 397.25,-22 533.25,-22 533.25,-54"/>
<text xml:space="preserve" text-anchor="start" x="405.25" y="-40.5" font-family="Helvetica,sans-Serif" font-size="10.00">NetworkManager::startRaw</text>
<text xml:space="preserve" text-anchor="middle" x="465.25" y="-28.5" font-family="Helvetica,sans-Serif" font-size="10.00">DrainWorker</text>
</a>
</g>
</g>
<!-- Node9&#45;&gt;Node11 -->
<g id="edge10_Node000009_Node000011" class="edge">
<title>Node9&#45;&gt;Node11</title>
<g id="a_edge10_Node000009_Node000011"><a xlink:title=" ">
<path fill="none" stroke="#63b8ff" d="M575.72,-50.41C561.64,-48.82 547.2,-47.18 533.63,-45.64"/>
<polygon fill="#63b8ff" stroke="#63b8ff" points="575.07,-53.86 585.4,-51.51 575.86,-46.91 575.07,-53.86"/>
</a>
</g>
</g>
<!-- Node12&#45;&gt;Node9 -->
<g id="edge12_Node000012_Node000009" class="edge">
<title>Node12&#45;&gt;Node9</title>
<g id="a_edge12_Node000012_Node000009"><a xlink:title=" ">
<path fill="none" stroke="#63b8ff" d="M759.56,-60C751.46,-60 743.36,-60 735.5,-60"/>
<polygon fill="#63b8ff" stroke="#63b8ff" points="759.48,-63.5 769.48,-60 759.48,-56.5 759.48,-63.5"/>
</a>
</g>
</g>
<!-- Node13&#45;&gt;Node9 -->
<g id="edge14_Node000013_Node000009" class="edge">
<title>Node13&#45;&gt;Node9</title>
<g id="a_edge14_Node000013_Node000009"><a xlink:title=" ">
<path fill="none" stroke="#63b8ff" d="M773.99,-34.95C761.18,-37.82 748.06,-40.76 735.52,-43.57"/>
<polygon fill="#63b8ff" stroke="#63b8ff" points="774.68,-38.38 783.67,-32.78 773.14,-31.55 774.68,-38.38"/>
</a>
</g>
</g>
</g>
</svg>

<g id="navigator" transform="translate(0 0)" fill="#404254">
  <rect fill="#f2f5e9" fill-opacity="0.5" stroke="#606060" stroke-width=".5" x="0" y="0" width="60" height="60"/>
  <use id="zoomplus" xlink:href="#zoomPlus" x="17" y="9" onmousedown="handleZoom(evt,'in')"/>
  <use id="zoomminus" xlink:href="#zoomMin" x="42" y="9" onmousedown="handleZoom(evt,'out')"/>
  <use id="reset" xlink:href="#resetDef" x="30" y="36" onmousedown="handleReset()"/>
   <use id="arrowup" xlink:href="#arrowUp" x="0" y="0" onmousedown="handlePan(0,-1)"/>
  <use id="arrowright" xlink:href="#arrowRight" x="0" y="0" onmousedown="handlePan(1,0)"/>
  <use id="arrowdown" xlink:href="#arrowDown" x="0" y="0" onmousedown="handlePan(0,1)"/>
  <use id="arrowleft" xlink:href="#arrowLeft" x="0" y="0" onmousedown="handlePan(-1,0)"/>
</g>
<svg viewBox="0 0 15 15" width="100%" height="30px" preserveAspectRatio="xMaxYMin meet">
 <g id="arrow_out" transform="scale(0.3 0.3)">
  <a xlink:href="class_serializer_ac2820d6131b77a9c29c47547d0af8577_icgraph_org.svg" target="_base">
   <rect id="button" ry="5" rx="5" y="6" x="6" height="38" width="38"
        fill="#f2f5e9" fill-opacity="0.5" stroke="#606060" stroke-width="1.0"/>
   <path id="arrow"
     d="M 11.500037,31.436501 C 11.940474,20.09759 22.043105,11.32322 32.158766,21.979434 L 37.068811,17.246167 C 37.068811,17.246167 37.088388,32 37.088388,32 L 22.160133,31.978069 C 22.160133,31.978069 26.997745,27.140456 26.997745,27.140456 C 18.528582,18.264221 13.291696,25.230495 11.500037,31.436501 z"
     style="fill:#404040;"/>
  </a>
 </g>
</svg>

<style type='text/css'>
<![CDATA[
[data-mouse-over-selected='false'] { opacity: 0.7; }
[data-mouse-over-selected='true']  { opacity: 1.0; }
]]>
</style>
<script type="application/ecmascript"><![CDATA[
document.addEventListener('DOMContentLoaded', (event) => {
  highlightEdges();
  highlightAdjacentNodes();
});
]]></script>
</svg>
