<?xml version="1.0" encoding="UTF-8" standalone="no"?>
<!DOCTYPE svg PUBLIC "-//W3C//DTD SVG 1.1//EN"
 "http://www.w3.org/Graphics/SVG/1.1/DTD/svg11.dtd">
<!-- Generated by graphviz version 14.0.2 (20251019.1705)
 -->
<!-- Title: Serializer::serializeVisibility Pages: 1 -->
<!--zoomable 290 -->

<svg id="main" version="1.1" xmlns="http://www.w3.org/2000/svg" xmlns:xlink="http://www.w3.org/1999/xlink" xml:space="preserve" onload="init(evt)">
<style type="text/css"><![CDATA[
.node, .edge {opacity: 0.7;}
.node.selected, .edge.selected {opacity: 1;}
.edge:hover path { stroke: red; }
.edge:hover polygon { stroke: red; fill: red; }
]]></style>

<defs>
  <circle id="rim" cx="0" cy="0" r="7"/>
  <circle id="rim2" cx="0" cy="0" r="3.5"/>
  <g id="zoomPlus">
    <use xlink:href="#rim" fill="#404040"><set attributeName="fill" to="#808080" begin="zoomplus.mouseover" end="zoomplus.mouseout"/></use>
    <path d="M-4,0h8M0,-4v8" fill="none" stroke="white" stroke-width="1.5" pointer-events="none"/>
  </g>
  <g id="zoomMin">
    <use xlink:href="#rim" fill="#404040"><set attributeName="fill" to="#808080" begin="zoomminus.mouseover" end="zoomminus.mouseout"/></use>
    <path d="M-4,0h8" fill="none" stroke="white" stroke-width="1.5" pointer-events="none"/>
  </g>
  <g id="arrowUp" transform="translate(30 24)">
    <use xlink:href="#rim"/>
    <path pointer-events="none" fill="none" stroke="white" stroke-width="1.5" d="M0,-3.0v7 M-2.5,-0.5L0,-3.0L2.5,-0.5"/>
  </g>
  <g id="arrowRight" transform="rotate(90) translate(36 -43)">
    <use xlink:href="#rim"/>
    <path pointer-events="none" fill="none" stroke="white" stroke-width="1.5" d="M0,-3.0v7 M-2.5,-0.5L0,-3.0L2.5,-0.5"/>
  </g>
  <g id="arrowDown" transform="rotate(180) translate(-30 -48)">
    <use xlink:href="#rim"/>
    <path pointer-events="none" fill="none" stroke="white" stroke-width="1.5" d="M0,-3.0v7 M-2.5,-0.5L0,-3.0L2.5,-0.5"/>
  </g>
  <g id="arrowLeft" transform="rotate(270) translate(-36 17)">
    <use xlink:href="#rim"/>
    <path pointer-events="none" fill="none" stroke="white" stroke-width="1.5" d="M0,-3.0v7 M-2.5,-0.5L0,-3.0L2.5,-0.5"/>
  </g>
  <g id="resetDef">
    <use xlink:href="#rim2" fill="#404040"><set attributeName="fill" to="#808080" begin="reset.mouseover" end="reset.mouseout"/></use>
  </g>
</defs>
<script type="application/ecmascript">
var viewWidth = 719;
var viewHeight = 290;
var sectionId = 'dynsection-74';
</script>
<script type="application/ecmascript" xlink:href="../../svg.min.js"/>
<svg id="graph" class="graph">
<g id="viewport">
<title>Serializer::serializeVisibility</title>
<!-- Node1 -->
<g id="Node000001" class="node">
<title>Node1</title>
<g id="a_Node000001"><a xlink:title=" ">
<polygon fill="#999999" stroke="#666666" points="710.5,-151 575.25,-151 575.25,-131 710.5,-131 710.5,-151"/>
<text xml:space="preserve" text-anchor="middle" x="642.88" y="-137.5" font-family="Helvetica,sans-Serif" font-size="10.00">Serializer::serializeVisibility</text>
</a>
</g>
</g>
<!-- Node2 -->
<g id="Node000002" class="node">
<title>Node2</title>
<g id="a_Node000002"><a xlink:href="../../da/d21/class_network_manager.html#abb704d7511a6b3f8e125f8371ea3b97d" target="_top" xlink:title=" ">
<polygon fill="white" stroke="#666666" points="538.88,-282 393.12,-282 393.12,-250 538.88,-250 538.88,-282"/>
<text xml:space="preserve" text-anchor="start" x="401.12" y="-268.5" font-family="Helvetica,sans-Serif" font-size="10.00">NetworkManager::buildCreate</text>
<text xml:space="preserve" text-anchor="middle" x="466" y="-256.5" font-family="Helvetica,sans-Serif" font-size="10.00">MarkerFrame</text>
</a>
</g>
</g>
<!-- Node1&#45;&gt;Node2 -->
<g id="edge1_Node000001_Node000002" class="edge">
<title>Node1&#45;&gt;Node2</title>
<g id="a_edge1_Node000001_Node000002"><a xlink:title=" ">
<path fill="none" stroke="#63b8ff" d="M626.77,-160.15C608.29,-182.42 575.03,-218.93 539.25,-241 534.05,-244.21 528.39,-247.07 522.6,-249.6"/>
<polygon fill="#63b8ff" stroke="#63b8ff" points="629.42,-162.44 633.01,-152.47 623.98,-158.03 629.42,-162.44"/>
</a>
</g>
</g>
<!-- Node5 -->
<g id="Node000005" class="node">
<title>Node5</title>
<g id="a_Node000005"><a xlink:href="../../da/d21/class_network_manager.html#a0aadf47f716f74e1fa0cf810715bedc2" target="_top" xlink:title=" ">
<polygon fill="white" stroke="#666666" points="532.5,-232 399.5,-232 399.5,-200 532.5,-200 532.5,-232"/>
<text xml:space="preserve" text-anchor="start" x="407.5" y="-218.5" font-family="Helvetica,sans-Serif" font-size="10.00">NetworkManager::buildFog</text>
<text xml:space="preserve" text-anchor="middle" x="466" y="-206.5" font-family="Helvetica,sans-Serif" font-size="10.00">CreateFrame</text>
</a>
</g>
</g>
<!-- Node1&#45;&gt;Node5 -->
<g id="edge4_Node000001_Node000005" class="edge">
<title>Node1&#45;&gt;Node5</title>
<g id="a_edge4_Node000001_Node000005"><a xlink:title=" ">
<path fill="none" stroke="#63b8ff" d="M611.99,-156.74C591.74,-167.11 564.23,-180.64 539.25,-191 532.14,-193.95 524.54,-196.85 517.04,-199.56"/>
<polygon fill="#63b8ff" stroke="#63b8ff" points="613.52,-159.89 620.8,-152.19 610.31,-153.67 613.52,-159.89"/>
</a>
</g>
</g>
<!-- Node8 -->
<g id="Node000008" class="node">
<title>Node8</title>
<g id="a_Node000008"><a xlink:href="../../da/d21/class_network_manager.html#a22a74f98b0c9341e369396bd22685055" target="_top" xlink:title=" ">
<polygon fill="white" stroke="#666666" points="532.5,-182 399.5,-182 399.5,-150 532.5,-150 532.5,-182"/>
<text xml:space="preserve" text-anchor="start" x="407.5" y="-168.5" font-family="Helvetica,sans-Serif" font-size="10.00">NetworkManager::buildFog</text>
<text xml:space="preserve" text-anchor="middle" x="466" y="-156.5" font-family="Helvetica,sans-Serif" font-size="10.00">UpdateFrame</text>
</a>
</g>
</g>
<!-- Node1&#45;&gt;Node8 -->
<g id="edge7_Node000001_Node000008" class="edge">
<title>Node1&#45;&gt;Node8</title>
<g id="a_edge7_Node000001_Node000008"><a xlink:title=" ">
<path fill="none" stroke="#63b8ff" d="M563.66,-152.18C553.35,-153.66 542.86,-155.16 532.78,-156.6"/>
<polygon fill="#63b8ff" stroke="#63b8ff" points="563.86,-155.69 573.27,-150.81 562.87,-148.76 563.86,-155.69"/>
</a>
</g>
</g>
<!-- Node11 -->
<g id="Node000011" class="node">
<title>Node11</title>
<g id="a_Node000011"><a xlink:href="../../da/d21/class_network_manager.html#acf942084ff349010655c47a232659527" target="_top" xlink:title=" ">
<polygon fill="white" stroke="#666666" points="539.25,-132 392.75,-132 392.75,-100 539.25,-100 539.25,-132"/>
<text xml:space="preserve" text-anchor="start" x="400.75" y="-118.5" font-family="Helvetica,sans-Serif" font-size="10.00">NetworkManager::buildMarker</text>
<text xml:space="preserve" text-anchor="middle" x="466" y="-106.5" font-family="Helvetica,sans-Serif" font-size="10.00">UpdateFrame</text>
</a>
</g>
</g>
<!-- Node1&#45;&gt;Node11 -->
<g id="edge10_Node000001_Node000011" class="edge">
<title>Node1&#45;&gt;Node11</title>
<g id="a_edge10_Node000001_Node000011"><a xlink:title=" ">
<path fill="none" stroke="#63b8ff" d="M563.63,-129.81C555.68,-128.68 547.63,-127.53 539.75,-126.4"/>
<polygon fill="#63b8ff" stroke="#63b8ff" points="562.87,-133.24 573.27,-131.19 563.86,-126.31 562.87,-133.24"/>
</a>
</g>
</g>
<!-- Node14 -->
<g id="Node000014" class="node">
<title>Node14</title>
<g id="a_Node000014"><a xlink:href="../../d0/dc2/class_serializer.html#a1440a54bfe30bdaee9873faf051305cc" target="_top" xlink:title=" ">
<polygon fill="white" stroke="#666666" points="523.5,-82 408.5,-82 408.5,-50 523.5,-50 523.5,-82"/>
<text xml:space="preserve" text-anchor="start" x="416.5" y="-68.5" font-family="Helvetica,sans-Serif" font-size="10.00">Serializer::serializeFog</text>
<text xml:space="preserve" text-anchor="middle" x="466" y="-56.5" font-family="Helvetica,sans-Serif" font-size="10.00">Entity</text>
</a>
</g>
</g>
<!-- Node1&#45;&gt;Node14 -->
<g id="edge13_Node000001_Node000014" class="edge">
<title>Node1&#45;&gt;Node14</title>
<g id="a_edge13_Node000001_Node000014"><a xlink:title=" ">
<path fill="none" stroke="#63b8ff" d="M611.99,-125.26C591.74,-114.89 564.23,-101.36 539.25,-91 532.14,-88.05 524.54,-85.15 517.04,-82.44"/>
<polygon fill="#63b8ff" stroke="#63b8ff" points="610.31,-128.33 620.8,-129.81 613.52,-122.11 610.31,-128.33"/>
</a>
</g>
</g>
<!-- Node15 -->
<g id="Node000015" class="node">
<title>Node15</title>
<g id="a_Node000015"><a xlink:href="../../d0/dc2/class_serializer.html#a8799545c0b1ea86a5447cbcd1d0a733c" target="_top" xlink:title=" ">
<polygon fill="white" stroke="#666666" points="530.25,-32 401.75,-32 401.75,0 530.25,0 530.25,-32"/>
<text xml:space="preserve" text-anchor="start" x="409.75" y="-18.5" font-family="Helvetica,sans-Serif" font-size="10.00">Serializer::serializeMarker</text>
<text xml:space="preserve" text-anchor="middle" x="466" y="-6.5" font-family="Helvetica,sans-Serif" font-size="10.00">Entity</text>
</a>
</g>
</g>
<!-- Node1&#45;&gt;Node15 -->
<g id="edge14_Node000001_Node000015" class="edge">
<title>Node1&#45;&gt;Node15</title>
<g id="a_edge14_Node000001_Node000015"><a xlink:title=" ">
<path fill="none" stroke="#63b8ff" d="M626.77,-121.85C608.29,-99.58 575.03,-63.07 539.25,-41 534.05,-37.79 528.39,-34.93 522.6,-32.4"/>
<polygon fill="#63b8ff" stroke="#63b8ff" points="623.98,-123.97 633.01,-129.53 629.42,-119.56 623.98,-123.97"/>
</a>
</g>
</g>
<!-- Node3 -->
<g id="Node000003" class="node">
<title>Node3</title>
<g id="a_Node000003"><a xlink:href="../../da/d21/class_network_manager.html#a88303e860c818888a1cdd7d40bc19bf3" target="_top" xlink:title=" ">
<polygon fill="white" stroke="#666666" points="347.75,-276 200.5,-276 200.5,-256 347.75,-256 347.75,-276"/>
<text xml:space="preserve" text-anchor="middle" x="274.12" y="-262.5" font-family="Helvetica,sans-Serif" font-size="10.00">NetworkManager::sendMarker</text>
</a>
</g>
</g>
<!-- Node2&#45;&gt;Node3 -->
<g id="edge2_Node000002_Node000003" class="edge">
<title>Node2&#45;&gt;Node3</title>
<g id="a_edge2_Node000002_Node000003"><a xlink:title=" ">
<path fill="none" stroke="#63b8ff" d="M381.28,-266C370.26,-266 359.02,-266 348.19,-266"/>
<polygon fill="#63b8ff" stroke="#63b8ff" points="381.16,-269.5 391.16,-266 381.16,-262.5 381.16,-269.5"/>
</a>
</g>
</g>
<!-- Node4 -->
<g id="Node000004" class="node">
<title>Node4</title>
<g id="a_Node000004"><a xlink:href="../../da/d21/class_network_manager.html#a1548090a456937ffafda64318f21ba40" target="_top" xlink:title=" ">
<polygon fill="white" stroke="#666666" points="147.25,-282 8.25,-282 8.25,-250 147.25,-250 147.25,-282"/>
<text xml:space="preserve" text-anchor="start" x="16.25" y="-268.5" font-family="Helvetica,sans-Serif" font-size="10.00">NetworkManager::broadcast</text>
<text xml:space="preserve" text-anchor="middle" x="77.75" y="-256.5" font-family="Helvetica,sans-Serif" font-size="10.00">Marker</text>
</a>
</g>
</g>
<!-- Node3&#45;&gt;Node4 -->
<g id="edge3_Node000003_Node000004" class="edge">
<title>Node3&#45;&gt;Node4</title>
<g id="a_edge3_Node000003_Node000004"><a xlink:title=" ">
<path fill="none" stroke="#63b8ff" d="M188.75,-266C175,-266 160.91,-266 147.59,-266"/>
<polygon fill="#63b8ff" stroke="#63b8ff" points="188.68,-269.5 198.68,-266 188.68,-262.5 188.68,-269.5"/>
</a>
</g>
</g>
<!-- Node6 -->
<g id="Node000006" class="node">
<title>Node6</title>
<g id="a_Node000006"><a xlink:href="../../da/d21/class_network_manager.html#aca07ad2cb1e034fe5ac1f6c88df2d7a0" target="_top" xlink:title=" ">
<polygon fill="white" stroke="#666666" points="341,-226 207.25,-226 207.25,-206 341,-206 341,-226"/>
<text xml:space="preserve" text-anchor="middle" x="274.12" y="-212.5" font-family="Helvetica,sans-Serif" font-size="10.00">NetworkManager::sendFog</text>
</a>
</g>
</g>
<!-- Node5&#45;&gt;Node6 -->
<g id="edge5_Node000005_Node000006" class="edge">
<title>Node5&#45;&gt;Node6</title>
<g id="a_edge5_Node000005_Node000006"><a xlink:title=" ">
<path fill="none" stroke="#63b8ff" d="M387.97,-216C372.47,-216 356.3,-216 341.21,-216"/>
<polygon fill="#63b8ff" stroke="#63b8ff" points="387.61,-219.5 397.61,-216 387.61,-212.5 387.61,-219.5"/>
</a>
</g>
</g>
<!-- Node7 -->
<g id="Node000007" class="node">
<title>Node7</title>
<g id="a_Node000007"><a xlink:href="../../da/d21/class_network_manager.html#ac9b0019724cae52ed6be8fb853fa62e5" target="_top" xlink:title=" ">
<polygon fill="white" stroke="#666666" points="155.5,-226 0,-226 0,-206 155.5,-206 155.5,-226"/>
<text xml:space="preserve" text-anchor="middle" x="77.75" y="-212.5" font-family="Helvetica,sans-Serif" font-size="10.00">NetworkManager::broadcastFog</text>
</a>
</g>
</g>
<!-- Node6&#45;&gt;Node7 -->
<g id="edge6_Node000006_Node000007" class="edge">
<title>Node6&#45;&gt;Node7</title>
<g id="a_edge6_Node000006_Node000007"><a xlink:title=" ">
<path fill="none" stroke="#63b8ff" d="M195.46,-216C182.42,-216 168.88,-216 155.85,-216"/>
<polygon fill="#63b8ff" stroke="#63b8ff" points="195.26,-219.5 205.26,-216 195.26,-212.5 195.26,-219.5"/>
</a>
</g>
</g>
<!-- Node9 -->
<g id="Node000009" class="node">
<title>Node9</title>
<g id="a_Node000009"><a xlink:href="../../da/d21/class_network_manager.html#a3684a5a4e823449e8006c323faf54f8a" target="_top" xlink:title=" ">
<polygon fill="white" stroke="#666666" points="356.75,-176 191.5,-176 191.5,-156 356.75,-156 356.75,-176"/>
<text xml:space="preserve" text-anchor="middle" x="274.12" y="-162.5" font-family="Helvetica,sans-Serif" font-size="10.00">NetworkManager::sendFogUpdate</text>
</a>
</g>
</g>
<!-- Node8&#45;&gt;Node9 -->
<g id="edge8_Node000008_Node000009" class="edge">
<title>Node8&#45;&gt;Node9</title>
<g id="a_edge8_Node000008_Node000009"><a xlink:title=" ">
<path fill="none" stroke="#63b8ff" d="M387.79,-166C377.63,-166 367.18,-166 356.95,-166"/>
<polygon fill="#63b8ff" stroke="#63b8ff" points="387.61,-169.5 397.61,-166 387.61,-162.5 387.61,-169.5"/>
</a>
</g>
</g>
<!-- Node10 -->
<g id="Node000010" class="node">
<title>Node10</title>
<g id="a_Node000010"><a xlink:href="../../da/d21/class_network_manager.html#a952cf99cf04e63f0a0674f06ab8ec4bb" target="_top" xlink:title=" ">
<polygon fill="white" stroke="#666666" points="147.25,-182 8.25,-182 8.25,-150 147.25,-150 147.25,-182"/>
<text xml:space="preserve" text-anchor="start" x="16.25" y="-168.5" font-family="Helvetica,sans-Serif" font-size="10.00">NetworkManager::broadcast</text>
<text xml:space="preserve" text-anchor="middle" x="77.75" y="-156.5" font-family="Helvetica,sans-Serif" font-size="10.00">FogUpdate</text>
</a>
</g>
</g>
<!-- Node9&#45;&gt;Node10 -->
<g id="edge9_Node000009_Node000010" class="edge">
<title>Node9&#45;&gt;Node10</title>
<g id="a_edge9_Node000009_Node000010"><a xlink:title=" ">
<path fill="none" stroke="#63b8ff" d="M179.95,-166C169.06,-166 158.1,-166 147.62,-166"/>
<polygon fill="#63b8ff" stroke="#63b8ff" points="179.74,-169.5 189.74,-166 179.74,-162.5 179.74,-169.5"/>
</a>
</g>
</g>
<!-- Node12 -->
<g id="Node000012" class="node">
<title>Node12</title>
<g id="a_Node000012"><a xlink:href="../../da/d21/class_network_manager.html#a3cd0860da30289b21f2f4bd467d279d3" target="_top" xlink:title=" ">
<polygon fill="white" stroke="#666666" points="347.75,-132 200.5,-132 200.5,-100 347.75,-100 347.75,-132"/>
<text xml:space="preserve" text-anchor="start" x="208.5" y="-118.5" font-family="Helvetica,sans-Serif" font-size="10.00">NetworkManager::sendMarker</text>
<text xml:space="preserve" text-anchor="middle" x="274.12" y="-106.5" font-family="Helvetica,sans-Serif" font-size="10.00">Update</text>
</a>
</g>
</g>
<!-- Node11&#45;&gt;Node12 -->
<g id="edge11_Node000011_Node000012" class="edge">
<title>Node11&#45;&gt;Node12</title>
<g id="a_edge11_Node000011_Node000012"><a xlink:title=" ">
<path fill="none" stroke="#63b8ff" d="M381.03,-116C370.01,-116 358.8,-116 348,-116"/>
<polygon fill="#63b8ff" stroke="#63b8ff" points="380.89,-119.5 390.89,-116 380.89,-112.5 380.89,-119.5"/>
</a>
</g>
</g>
<!-- Node13 -->
<g id="Node000013" class="node">
<title>Node13</title>
<g id="a_Node000013"><a xlink:href="../../da/d21/class_network_manager.html#a2f0bd7fd012f4f7c96fcc25b2ac90b0f" target="_top" xlink:title=" ">
<polygon fill="white" stroke="#666666" points="147.25,-132 8.25,-132 8.25,-100 147.25,-100 147.25,-132"/>
<text xml:space="preserve" text-anchor="start" x="16.25" y="-118.5" font-family="Helvetica,sans-Serif" font-size="10.00">NetworkManager::broadcast</text>
<text xml:space="preserve" text-anchor="middle" x="77.75" y="-106.5" font-family="Helvetica,sans-Serif" font-size="10.00">MarkerUpdate</text>
</a>
</g>
</g>
<!-- Node12&#45;&gt;Node13 -->
<g id="edge12_Node000012_Node000013" class="edge">
<title>Node12&#45;&gt;Node13</title>
<g id="a_edge12_Node000012_Node000013"><a xlink:title=" ">
<path fill="none" stroke="#63b8ff" d="M188.75,-116C175,-116 160.91,-116 147.59,-116"/>
<polygon fill="#63b8ff" stroke="#63b8ff" points="188.68,-119.5 198.68,-116 188.68,-112.5 188.68,-119.5"/>
</a>
</g>
</g>
</g>
</svg>

<g id="navigator" transform="translate(0 0)" fill="#404254">
  <rect fill="#f2f5e9" fill-opacity="0.5" stroke="#606060" stroke-width=".5" x="0" y="0" width="60" height="60"/>
  <use id="zoomplus" xlink:href="#zoomPlus" x="17" y="9" onmousedown="handleZoom(evt,'in')"/>
  <use id="zoomminus" xlink:href="#zoomMin" x="42" y="9" onmousedown="handleZoom(evt,'out')"/>
  <use id="reset" xlink:href="#resetDef" x="30" y="36" onmousedown="handleReset()"/>
   <use id="arrowup" xlink:href="#arrowUp" x="0" y="0" onmousedown="handlePan(0,-1)"/>
  <use id="arrowright" xlink:href="#arrowRight" x="0" y="0" onmousedown="handlePan(1,0)"/>
  <use id="arrowdown" xlink:href="#arrowDown" x="0" y="0" onmousedown="handlePan(0,1)"/>
  <use id="arrowleft" xlink:href="#arrowLeft" x="0" y="0" onmousedown="handlePan(-1,0)"/>
</g>
<svg viewBox="0 0 15 15" width="100%" height="30px" preserveAspectRatio="xMaxYMin meet">
 <g id="arrow_out" transform="scale(0.3 0.3)">
  <a xlink:href="class_serializer_adf940baab7d143611e19fb957725a80a_icgraph_org.svg" target="_base">
   <rect id="button" ry="5" rx="5" y="6" x="6" height="38" width="38"
        fill="#f2f5e9" fill-opacity="0.5" stroke="#606060" stroke-width="1.0"/>
   <path id="arrow"
     d="M 11.500037,31.436501 C 11.940474,20.09759 22.043105,11.32322 32.158766,21.979434 L 37.068811,17.246167 C 37.068811,17.246167 37.088388,32 37.088388,32 L 22.160133,31.978069 C 22.160133,31.978069 26.997745,27.140456 26.997745,27.140456 C 18.528582,18.264221 13.291696,25.230495 11.500037,31.436501 z"
     style="fill:#404040;"/>
  </a>
 </g>
</svg>

<style type='text/css'>
<![CDATA[
[data-mouse-over-selected='false'] { opacity: 0.7; }
[data-mouse-over-selected='true']  { opacity: 1.0; }
]]>
</style>
<script type="application/ecmascript"><![CDATA[
document.addEventListener('DOMContentLoaded', (event) => {
  highlightEdges();
  highlightAdjacentNodes();
});
]]></script>
</svg>
