<?xml version="1.0" encoding="UTF-8" standalone="no"?>
<!DOCTYPE svg PUBLIC "-//W3C//DTD SVG 1.1//EN"
 "http://www.w3.org/Graphics/SVG/1.1/DTD/svg11.dtd">
<!-- Generated by graphviz version 14.0.2 (20251019.1705)
 -->
<!-- Title: Serializer::deserializeBoardEntity Pages: 1 -->
<svg width="693pt" height="90pt"
 viewBox="0.00 0.00 693.00 90.00" xmlns="http://www.w3.org/2000/svg" xmlns:xlink="http://www.w3.org/1999/xlink">
<g id="graph0" class="graph" transform="scale(1 1) rotate(0) translate(4 86)">
<title>Serializer::deserializeBoardEntity</title>
<!-- Node1 -->
<g id="Node000001" class="node">
<title>Node1</title>
<g id="a_Node000001"><a xlink:title=" ">
<polygon fill="#999999" stroke="#666666" points="685,-57 550.5,-57 550.5,-25 685,-25 685,-57"/>
<text xml:space="preserve" text-anchor="start" x="558.5" y="-43.5" font-family="Helvetica,sans-Serif" font-size="10.00">Serializer::deserializeBoard</text>
<text xml:space="preserve" text-anchor="middle" x="617.75" y="-31.5" font-family="Helvetica,sans-Serif" font-size="10.00">Entity</text>
</a>
</g>
</g>
<!-- Node2 -->
<g id="Node000002" class="node">
<title>Node2</title>
<g id="a_Node000002"><a xlink:href="../../d0/dc2/class_serializer.html#a0fa2fd5d94c71074a2a2d4d08fb2ddfd" target="_top" xlink:title=" ">
<polygon fill="white" stroke="#666666" points="514.5,-82 379.25,-82 379.25,-50 514.5,-50 514.5,-82"/>
<text xml:space="preserve" text-anchor="start" x="387.25" y="-68.5" font-family="Helvetica,sans-Serif" font-size="10.00">Serializer::deserializeGame</text>
<text xml:space="preserve" text-anchor="middle" x="446.88" y="-56.5" font-family="Helvetica,sans-Serif" font-size="10.00">TableEntity</text>
</a>
</g>
</g>
<!-- Node1&#45;&gt;Node2 -->
<g id="edge1_Node000001_Node000002" class="edge">
<title>Node1&#45;&gt;Node2</title>
<g id="a_edge1_Node000001_Node000002"><a xlink:title=" ">
<path fill="none" stroke="#63b8ff" d="M538.82,-52.54C530.85,-53.72 522.8,-54.91 514.96,-56.07"/>
<polygon fill="#63b8ff" stroke="#63b8ff" points="539.13,-56.03 548.51,-51.1 538.1,-49.1 539.13,-56.03"/>
</a>
</g>
</g>
<!-- Node5 -->
<g id="Node000005" class="node">
<title>Node5</title>
<g id="a_Node000005"><a xlink:href="../../d2/dbf/class_board_manager.html#ae3c8d16dfa3b0e954475b6cf8e5e52f2" target="_top" xlink:title=" ">
<polygon fill="white" stroke="#666666" points="512.25,-32 381.5,-32 381.5,0 512.25,0 512.25,-32"/>
<text xml:space="preserve" text-anchor="start" x="389.5" y="-18.5" font-family="Helvetica,sans-Serif" font-size="10.00">BoardManager::loadActive</text>
<text xml:space="preserve" text-anchor="middle" x="446.88" y="-6.5" font-family="Helvetica,sans-Serif" font-size="10.00">Board</text>
</a>
</g>
</g>
<!-- Node1&#45;&gt;Node5 -->
<g id="edge4_Node000001_Node000005" class="edge">
<title>Node1&#45;&gt;Node5</title>
<g id="a_edge4_Node000001_Node000005"><a xlink:title=" ">
<path fill="none" stroke="#63b8ff" d="M538.89,-29.47C530.06,-28.17 521.12,-26.84 512.48,-25.56"/>
<polygon fill="#63b8ff" stroke="#63b8ff" points="538.1,-32.9 548.51,-30.9 539.13,-25.97 538.1,-32.9"/>
</a>
</g>
</g>
<!-- Node3 -->
<g id="Node000003" class="node">
<title>Node3</title>
<g id="a_Node000003"><a xlink:href="../../df/d93/class_game_table_manager.html#aedb2f2634710aeb401d6c7e1c2d6a96d" target="_top" xlink:title=" ">
<polygon fill="white" stroke="#666666" points="343.25,-82 190,-82 190,-50 343.25,-50 343.25,-82"/>
<text xml:space="preserve" text-anchor="start" x="198" y="-68.5" font-family="Helvetica,sans-Serif" font-size="10.00">GameTableManager::loadGame</text>
<text xml:space="preserve" text-anchor="middle" x="266.62" y="-56.5" font-family="Helvetica,sans-Serif" font-size="10.00">Table</text>
</a>
</g>
</g>
<!-- Node2&#45;&gt;Node3 -->
<g id="edge2_Node000002_Node000003" class="edge">
<title>Node2&#45;&gt;Node3</title>
<g id="a_edge2_Node000002_Node000003"><a xlink:title=" ">
<path fill="none" stroke="#63b8ff" d="M367.75,-66C359.72,-66 351.57,-66 343.57,-66"/>
<polygon fill="#63b8ff" stroke="#63b8ff" points="367.48,-69.5 377.48,-66 367.48,-62.5 367.48,-69.5"/>
</a>
</g>
</g>
<!-- Node4 -->
<g id="Node000004" class="node">
<title>Node4</title>
<g id="a_Node000004"><a xlink:href="../../df/d93/class_game_table_manager.html#a42414a5596a4e90a3f321f90e166f9a0" target="_top" xlink:title=" ">
<polygon fill="white" stroke="#666666" points="154,-82 0,-82 0,-50 154,-50 154,-82"/>
<text xml:space="preserve" text-anchor="start" x="8" y="-68.5" font-family="Helvetica,sans-Serif" font-size="10.00">GameTableManager::hostGame</text>
<text xml:space="preserve" text-anchor="middle" x="77" y="-56.5" font-family="Helvetica,sans-Serif" font-size="10.00">TablePopUp</text>
</a>
</g>
</g>
<!-- Node3&#45;&gt;Node4 -->
<g id="edge3_Node000003_Node000004" class="edge">
<title>Node3&#45;&gt;Node4</title>
<g id="a_edge3_Node000003_Node000004"><a xlink:title=" ">
<path fill="none" stroke="#63b8ff" d="M178.09,-66C170.19,-66 162.24,-66 154.46,-66"/>
<polygon fill="#63b8ff" stroke="#63b8ff" points="178.07,-69.5 188.07,-66 178.07,-62.5 178.07,-69.5"/>
</a>
</g>
</g>
</g>
</svg>
