<?xml version="1.0" encoding="UTF-8" standalone="no"?>
<!DOCTYPE svg PUBLIC "-//W3C//DTD SVG 1.1//EN"
 "http://www.w3.org/Graphics/SVG/1.1/DTD/svg11.dtd">
<!-- Generated by graphviz version 14.0.2 (20251019.1705)
 -->
<!-- Title: Serializer::deserializeUInt32 Pages: 1 -->
<svg width="753pt" height="90pt"
 viewBox="0.00 0.00 753.00 90.00" xmlns="http://www.w3.org/2000/svg" xmlns:xlink="http://www.w3.org/1999/xlink">
<g id="graph0" class="graph" transform="scale(1 1) rotate(0) translate(4 86)">
<title>Serializer::deserializeUInt32</title>
<!-- Node1 -->
<g id="Node000001" class="node">
<title>Node1</title>
<g id="a_Node000001"><a xlink:title=" ">
<polygon fill="#999999" stroke="#666666" points="745,-51 606.75,-51 606.75,-31 745,-31 745,-51"/>
<text xml:space="preserve" text-anchor="middle" x="675.88" y="-37.5" font-family="Helvetica,sans-Serif" font-size="10.00">Serializer::deserializeUInt32</text>
</a>
</g>
</g>
<!-- Node2 -->
<g id="Node000002" class="node">
<title>Node2</title>
<g id="a_Node000002"><a xlink:href="../../da/d21/class_network_manager.html#afc9a1534cbb3b4b950796094d4e97775" target="_top" xlink:title=" ">
<polygon fill="white" stroke="#666666" points="570.75,-74 392,-74 392,-54 570.75,-54 570.75,-74"/>
<text xml:space="preserve" text-anchor="middle" x="481.38" y="-60.5" font-family="Helvetica,sans-Serif" font-size="10.00">NetworkManager::handleMarkerMove</text>
</a>
</g>
</g>
<!-- Node1&#45;&gt;Node2 -->
<g id="edge1_Node000001_Node000002" class="edge">
<title>Node1&#45;&gt;Node2</title>
<g id="a_edge1_Node000001_Node000002"><a xlink:title=" ">
<path fill="none" stroke="#63b8ff" d="M595.27,-50.51C586.96,-51.5 578.48,-52.52 570.09,-53.52"/>
<polygon fill="#63b8ff" stroke="#63b8ff" points="595.45,-54.02 604.96,-49.35 594.62,-47.06 595.45,-54.02"/>
</a>
</g>
</g>
<!-- Node6 -->
<g id="Node000006" class="node">
<title>Node6</title>
<g id="a_Node000006"><a xlink:href="../../da/d21/class_network_manager.html#a4e57df88fc7446d22630aacb5a31dfc1" target="_top" xlink:title=" ">
<polygon fill="white" stroke="#666666" points="558.75,-35 404,-35 404,-3 558.75,-3 558.75,-35"/>
<text xml:space="preserve" text-anchor="start" x="412" y="-21.5" font-family="Helvetica,sans-Serif" font-size="10.00">NetworkManager::handleMarker</text>
<text xml:space="preserve" text-anchor="middle" x="481.38" y="-9.5" font-family="Helvetica,sans-Serif" font-size="10.00">MoveState</text>
</a>
</g>
</g>
<!-- Node1&#45;&gt;Node6 -->
<g id="edge5_Node000001_Node000006" class="edge">
<title>Node1&#45;&gt;Node6</title>
<g id="a_edge5_Node000001_Node000006"><a xlink:title=" ">
<path fill="none" stroke="#63b8ff" d="M595.16,-31.89C583.23,-30.53 570.95,-29.12 559.08,-27.77"/>
<polygon fill="#63b8ff" stroke="#63b8ff" points="594.63,-35.35 604.96,-33.01 595.42,-28.4 594.63,-35.35"/>
</a>
</g>
</g>
<!-- Node3 -->
<g id="Node000003" class="node">
<title>Node3</title>
<g id="a_Node000003"><a xlink:href="../../da/d21/class_network_manager.html#adea6a8bf4c034a65775aa7a8f9d2e8a2" target="_top" xlink:title=" ">
<polygon fill="white" stroke="#666666" points="356,-82 208,-82 208,-50 356,-50 356,-82"/>
<text xml:space="preserve" text-anchor="start" x="216" y="-68.5" font-family="Helvetica,sans-Serif" font-size="10.00">NetworkManager::decodeRaw</text>
<text xml:space="preserve" text-anchor="middle" x="282" y="-56.5" font-family="Helvetica,sans-Serif" font-size="10.00">MarkerMoveBuffer</text>
</a>
</g>
</g>
<!-- Node2&#45;&gt;Node3 -->
<g id="edge2_Node000002_Node000003" class="edge">
<title>Node2&#45;&gt;Node3</title>
<g id="a_edge2_Node000002_Node000003"><a xlink:title=" ">
<path fill="none" stroke="#63b8ff" d="M380.16,-65.02C372.13,-65.1 364.11,-65.18 356.32,-65.26"/>
<polygon fill="#63b8ff" stroke="#63b8ff" points="380.03,-68.52 389.99,-64.92 379.95,-61.52 380.03,-68.52"/>
</a>
</g>
</g>
<!-- Node4 -->
<g id="Node000004" class="node">
<title>Node4</title>
<g id="a_Node000004"><a xlink:href="../../da/d21/class_network_manager.html#ad3605b8b33fa44492458d0aaffb4dec8" target="_top" xlink:title=" ">
<polygon fill="white" stroke="#666666" points="172,-74 0,-74 0,-54 172,-54 172,-74"/>
<text xml:space="preserve" text-anchor="middle" x="86" y="-60.5" font-family="Helvetica,sans-Serif" font-size="10.00">NetworkManager::drainInboundRaw</text>
</a>
</g>
</g>
<!-- Node3&#45;&gt;Node4 -->
<g id="edge3_Node000003_Node000004" class="edge">
<title>Node3&#45;&gt;Node4</title>
<g id="a_edge3_Node000003_Node000004"><a xlink:title=" ">
<path fill="none" stroke="#63b8ff" d="M196.23,-65.13C188.36,-65.04 180.38,-64.96 172.5,-64.88"/>
<polygon fill="#63b8ff" stroke="#63b8ff" points="196.11,-68.62 206.14,-65.23 196.18,-61.63 196.11,-68.62"/>
</a>
</g>
</g>
<!-- Node5 -->
<g id="Node000005" class="node">
<title>Node5</title>
<g id="a_Node000005"><a xlink:href="../../da/d21/class_network_manager.html#a3289708df965193b6ec0287eb069b276" target="_top" xlink:title=" ">
<polygon fill="white" stroke="#666666" points="154,-35 18,-35 18,-3 154,-3 154,-35"/>
<text xml:space="preserve" text-anchor="start" x="26" y="-21.5" font-family="Helvetica,sans-Serif" font-size="10.00">NetworkManager::startRaw</text>
<text xml:space="preserve" text-anchor="middle" x="86" y="-9.5" font-family="Helvetica,sans-Serif" font-size="10.00">DrainWorker</text>
</a>
</g>
</g>
<!-- Node3&#45;&gt;Node5 -->
<g id="edge4_Node000003_Node000005" class="edge">
<title>Node3&#45;&gt;Node5</title>
<g id="a_edge4_Node000003_Node000005"><a xlink:title=" ">
<path fill="none" stroke="#63b8ff" d="M202.3,-46.93C186.45,-43.09 169.92,-39.09 154.49,-35.35"/>
<polygon fill="#63b8ff" stroke="#63b8ff" points="201.13,-50.25 211.68,-49.21 202.78,-43.45 201.13,-50.25"/>
</a>
</g>
</g>
<!-- Node7 -->
<g id="Node000007" class="node">
<title>Node7</title>
<g id="a_Node000007"><a xlink:href="../../da/d21/class_network_manager.html#a53df93ad0cb0498c82f866a921e7b285" target="_top" xlink:title=" ">
<polygon fill="white" stroke="#666666" points="356,-32 208,-32 208,0 356,0 356,-32"/>
<text xml:space="preserve" text-anchor="start" x="216" y="-18.5" font-family="Helvetica,sans-Serif" font-size="10.00">NetworkManager::decodeRaw</text>
<text xml:space="preserve" text-anchor="middle" x="282" y="-6.5" font-family="Helvetica,sans-Serif" font-size="10.00">GameBuffer</text>
</a>
</g>
</g>
<!-- Node6&#45;&gt;Node7 -->
<g id="edge6_Node000006_Node000007" class="edge">
<title>Node6&#45;&gt;Node7</title>
<g id="a_edge6_Node000006_Node000007"><a xlink:title=" ">
<path fill="none" stroke="#63b8ff" d="M392.33,-17.66C380.3,-17.48 368.05,-17.29 356.31,-17.11"/>
<polygon fill="#63b8ff" stroke="#63b8ff" points="392.22,-21.16 402.27,-17.81 392.32,-14.16 392.22,-21.16"/>
</a>
</g>
</g>
<!-- Node7&#45;&gt;Node4 -->
<g id="edge7_Node000007_Node000004" class="edge">
<title>Node7&#45;&gt;Node4</title>
<g id="a_edge7_Node000007_Node000004"><a xlink:title=" ">
<path fill="none" stroke="#63b8ff" d="M206.87,-35.26C195.21,-38.22 183.29,-41.22 172,-44 159.05,-47.19 144.95,-50.55 132.04,-53.58"/>
<polygon fill="#63b8ff" stroke="#63b8ff" points="207.65,-38.67 216.47,-32.81 205.92,-31.89 207.65,-38.67"/>
</a>
</g>
</g>
<!-- Node7&#45;&gt;Node5 -->
<g id="edge8_Node000007_Node000005" class="edge">
<title>Node7&#45;&gt;Node5</title>
<g id="a_edge8_Node000007_Node000005"><a xlink:title=" ">
<path fill="none" stroke="#63b8ff" d="M196.47,-17.31C182.39,-17.52 167.95,-17.75 154.38,-17.96"/>
<polygon fill="#63b8ff" stroke="#63b8ff" points="196.2,-20.81 206.14,-17.16 196.09,-13.81 196.2,-20.81"/>
</a>
</g>
</g>
</g>
</svg>
