<?xml version="1.0" encoding="UTF-8" standalone="no"?>
<!DOCTYPE svg PUBLIC "-//W3C//DTD SVG 1.1//EN"
 "http://www.w3.org/Graphics/SVG/1.1/DTD/svg11.dtd">
<!-- Generated by graphviz version 14.0.2 (20251019.1705)
 -->
<!-- Title: Serializer::serializePanning Pages: 1 -->
<svg width="836pt" height="115pt"
 viewBox="0.00 0.00 836.00 115.00" xmlns="http://www.w3.org/2000/svg" xmlns:xlink="http://www.w3.org/1999/xlink">
<g id="graph0" class="graph" transform="scale(1 1) rotate(0) translate(4 111)">
<title>Serializer::serializePanning</title>
<!-- Node1 -->
<g id="Node000001" class="node">
<title>Node1</title>
<g id="a_Node000001"><a xlink:title=" ">
<polygon fill="#999999" stroke="#666666" points="827.75,-76 694,-76 694,-56 827.75,-56 827.75,-76"/>
<text xml:space="preserve" text-anchor="middle" x="760.88" y="-62.5" font-family="Helvetica,sans-Serif" font-size="10.00">Serializer::serializePanning</text>
</a>
</g>
</g>
<!-- Node2 -->
<g id="Node000002" class="node">
<title>Node2</title>
<g id="a_Node000002"><a xlink:href="../../d0/dc2/class_serializer.html#a33c1046417ab5077d907baac823e7194" target="_top" xlink:title=" ">
<polygon fill="white" stroke="#666666" points="658,-82 534,-82 534,-50 658,-50 658,-82"/>
<text xml:space="preserve" text-anchor="start" x="542" y="-68.5" font-family="Helvetica,sans-Serif" font-size="10.00">Serializer::serializeBoard</text>
<text xml:space="preserve" text-anchor="middle" x="596" y="-56.5" font-family="Helvetica,sans-Serif" font-size="10.00">Entity</text>
</a>
</g>
</g>
<!-- Node1&#45;&gt;Node2 -->
<g id="edge1_Node000001_Node000002" class="edge">
<title>Node1&#45;&gt;Node2</title>
<g id="a_edge1_Node000001_Node000002"><a xlink:title=" ">
<path fill="none" stroke="#63b8ff" d="M682.36,-66C674.34,-66 666.27,-66 658.46,-66"/>
<polygon fill="#63b8ff" stroke="#63b8ff" points="682.11,-69.5 692.11,-66 682.11,-62.5 682.11,-69.5"/>
</a>
</g>
</g>
<!-- Node3 -->
<g id="Node000003" class="node">
<title>Node3</title>
<g id="a_Node000003"><a xlink:href="../../d2/dbf/class_board_manager.html#a15c3689fe12cdc5f3d0589f9d92a678e" target="_top" xlink:title=" ">
<polygon fill="white" stroke="#666666" points="498,-107 364.25,-107 364.25,-75 498,-75 498,-107"/>
<text xml:space="preserve" text-anchor="start" x="372.25" y="-93.5" font-family="Helvetica,sans-Serif" font-size="10.00">BoardManager::saveActive</text>
<text xml:space="preserve" text-anchor="middle" x="431.12" y="-81.5" font-family="Helvetica,sans-Serif" font-size="10.00">Board</text>
</a>
</g>
</g>
<!-- Node2&#45;&gt;Node3 -->
<g id="edge2_Node000002_Node000003" class="edge">
<title>Node2&#45;&gt;Node3</title>
<g id="a_edge2_Node000002_Node000003"><a xlink:title=" ">
<path fill="none" stroke="#63b8ff" d="M522.64,-77.11C514.6,-78.34 506.45,-79.59 498.49,-80.81"/>
<polygon fill="#63b8ff" stroke="#63b8ff" points="523.04,-80.59 532.39,-75.61 521.98,-73.67 523.04,-80.59"/>
</a>
</g>
</g>
<!-- Node4 -->
<g id="Node000004" class="node">
<title>Node4</title>
<g id="a_Node000004"><a xlink:href="../../d0/dc2/class_serializer.html#a88ec96a4390db20ecce812518dd2622c" target="_top" xlink:title=" ">
<polygon fill="white" stroke="#666666" points="493.5,-57 368.75,-57 368.75,-25 493.5,-25 493.5,-57"/>
<text xml:space="preserve" text-anchor="start" x="376.75" y="-43.5" font-family="Helvetica,sans-Serif" font-size="10.00">Serializer::serializeGame</text>
<text xml:space="preserve" text-anchor="middle" x="431.12" y="-31.5" font-family="Helvetica,sans-Serif" font-size="10.00">TableEntity</text>
</a>
</g>
</g>
<!-- Node2&#45;&gt;Node4 -->
<g id="edge3_Node000002_Node000004" class="edge">
<title>Node2&#45;&gt;Node4</title>
<g id="a_edge3_Node000002_Node000004"><a xlink:title=" ">
<path fill="none" stroke="#63b8ff" d="M522.7,-54.9C513.07,-53.42 503.27,-51.92 493.85,-50.47"/>
<polygon fill="#63b8ff" stroke="#63b8ff" points="521.98,-58.33 532.39,-56.39 523.04,-51.41 521.98,-58.33"/>
</a>
</g>
</g>
<!-- Node5 -->
<g id="Node000005" class="node">
<title>Node5</title>
<g id="a_Node000005"><a xlink:href="../../df/d93/class_game_table_manager.html#a172cce8920ef8672b5508fdbca0108fa" target="_top" xlink:title=" ">
<polygon fill="white" stroke="#666666" points="328.25,-57 192.25,-57 192.25,-25 328.25,-25 328.25,-57"/>
<text xml:space="preserve" text-anchor="start" x="200.25" y="-43.5" font-family="Helvetica,sans-Serif" font-size="10.00">GameTableManager::create</text>
<text xml:space="preserve" text-anchor="middle" x="260.25" y="-31.5" font-family="Helvetica,sans-Serif" font-size="10.00">GameTableFile</text>
</a>
</g>
</g>
<!-- Node4&#45;&gt;Node5 -->
<g id="edge4_Node000004_Node000005" class="edge">
<title>Node4&#45;&gt;Node5</title>
<g id="a_edge4_Node000004_Node000005"><a xlink:title=" ">
<path fill="none" stroke="#63b8ff" d="M357.23,-41C347.73,-41 338.04,-41 328.64,-41"/>
<polygon fill="#63b8ff" stroke="#63b8ff" points="357.17,-44.5 367.17,-41 357.17,-37.5 357.17,-44.5"/>
</a>
</g>
</g>
<!-- Node6 -->
<g id="Node000006" class="node">
<title>Node6</title>
<g id="a_Node000006"><a xlink:href="../../df/d93/class_game_table_manager.html#a42414a5596a4e90a3f321f90e166f9a0" target="_top" xlink:title=" ">
<polygon fill="white" stroke="#666666" points="155.12,-82 1.12,-82 1.12,-50 155.12,-50 155.12,-82"/>
<text xml:space="preserve" text-anchor="start" x="9.12" y="-68.5" font-family="Helvetica,sans-Serif" font-size="10.00">GameTableManager::hostGame</text>
<text xml:space="preserve" text-anchor="middle" x="78.12" y="-56.5" font-family="Helvetica,sans-Serif" font-size="10.00">TablePopUp</text>
</a>
</g>
</g>
<!-- Node5&#45;&gt;Node6 -->
<g id="edge5_Node000005_Node000006" class="edge">
<title>Node5&#45;&gt;Node6</title>
<g id="a_edge5_Node000005_Node000006"><a xlink:title=" ">
<path fill="none" stroke="#63b8ff" d="M180.64,-51.91C172.28,-53.07 163.79,-54.25 155.46,-55.41"/>
<polygon fill="#63b8ff" stroke="#63b8ff" points="181,-55.39 190.42,-50.55 180.04,-48.46 181,-55.39"/>
</a>
</g>
</g>
<!-- Node7 -->
<g id="Node000007" class="node">
<title>Node7</title>
<g id="a_Node000007"><a xlink:href="../../df/d93/class_game_table_manager.html#a9e6225573f97256dd5dfef871a1e32d6" target="_top" xlink:title=" ">
<polygon fill="white" stroke="#666666" points="156.25,-32 0,-32 0,0 156.25,0 156.25,-32"/>
<text xml:space="preserve" text-anchor="start" x="8" y="-18.5" font-family="Helvetica,sans-Serif" font-size="10.00">GameTableManager::saveGame</text>
<text xml:space="preserve" text-anchor="middle" x="78.12" y="-6.5" font-family="Helvetica,sans-Serif" font-size="10.00">Table</text>
</a>
</g>
</g>
<!-- Node5&#45;&gt;Node7 -->
<g id="edge6_Node000005_Node000007" class="edge">
<title>Node5&#45;&gt;Node7</title>
<g id="a_edge6_Node000005_Node000007"><a xlink:title=" ">
<path fill="none" stroke="#63b8ff" d="M180.74,-30.1C172.76,-29 164.65,-27.87 156.68,-26.76"/>
<polygon fill="#63b8ff" stroke="#63b8ff" points="180.04,-33.54 190.42,-31.45 181,-26.61 180.04,-33.54"/>
</a>
</g>
</g>
</g>
</svg>
