<?xml version="1.0" encoding="UTF-8" standalone="no"?>
<!DOCTYPE svg PUBLIC "-//W3C//DTD SVG 1.1//EN"
 "http://www.w3.org/Graphics/SVG/1.1/DTD/svg11.dtd">
<!-- Generated by graphviz version 14.0.2 (20251019.1705)
 -->
<!-- Title: src/renderer/Shader.cpp Pages: 1 -->
<!--zoomable 196 -->

<svg id="main" version="1.1" xmlns="http://www.w3.org/2000/svg" xmlns:xlink="http://www.w3.org/1999/xlink" xml:space="preserve" onload="init(evt)">
<style type="text/css"><![CDATA[
.node, .edge {opacity: 0.7;}
.node.selected, .edge.selected {opacity: 1;}
.edge:hover path { stroke: red; }
.edge:hover polygon { stroke: red; fill: red; }
]]></style>

<defs>
  <circle id="rim" cx="0" cy="0" r="7"/>
  <circle id="rim2" cx="0" cy="0" r="3.5"/>
  <g id="zoomPlus">
    <use xlink:href="#rim" fill="#404040"><set attributeName="fill" to="#808080" begin="zoomplus.mouseover" end="zoomplus.mouseout"/></use>
    <path d="M-4,0h8M0,-4v8" fill="none" stroke="white" stroke-width="1.5" pointer-events="none"/>
  </g>
  <g id="zoomMin">
    <use xlink:href="#rim" fill="#404040"><set attributeName="fill" to="#808080" begin="zoomminus.mouseover" end="zoomminus.mouseout"/></use>
    <path d="M-4,0h8" fill="none" stroke="white" stroke-width="1.5" pointer-events="none"/>
  </g>
  <g id="arrowUp" transform="translate(30 24)">
    <use xlink:href="#rim"/>
    <path pointer-events="none" fill="none" stroke="white" stroke-width="1.5" d="M0,-3.0v7 M-2.5,-0.5L0,-3.0L2.5,-0.5"/>
  </g>
  <g id="arrowRight" transform="rotate(90) translate(36 -43)">
    <use xlink:href="#rim"/>
    <path pointer-events="none" fill="none" stroke="white" stroke-width="1.5" d="M0,-3.0v7 M-2.5,-0.5L0,-3.0L2.5,-0.5"/>
  </g>
  <g id="arrowDown" transform="rotate(180) translate(-30 -48)">
    <use xlink:href="#rim"/>
    <path pointer-events="none" fill="none" stroke="white" stroke-width="1.5" d="M0,-3.0v7 M-2.5,-0.5L0,-3.0L2.5,-0.5"/>
  </g>
  <g id="arrowLeft" transform="rotate(270) translate(-36 17)">
    <use xlink:href="#rim"/>
    <path pointer-events="none" fill="none" stroke="white" stroke-width="1.5" d="M0,-3.0v7 M-2.5,-0.5L0,-3.0L2.5,-0.5"/>
  </g>
  <g id="resetDef">
    <use xlink:href="#rim2" fill="#404040"><set attributeName="fill" to="#808080" begin="reset.mouseover" end="reset.mouseout"/></use>
  </g>
</defs>
<script type="application/ecmascript">
var viewWidth = 617;
var viewHeight = 196;
var sectionId = 'dynsection-0';
</script>
<script type="application/ecmascript" xlink:href="../../svg.min.js"/>
<svg id="graph" class="graph">
<g id="viewport">
<title>src/renderer/Shader.cpp</title>
<!-- Node1 -->
<g id="Node000001" class="node">
<title>Node1</title>
<g id="a_Node000001"><a xlink:title=" ">
<polygon fill="#999999" stroke="#666666" points="363.88,-188 243.62,-188 243.62,-168 363.88,-168 363.88,-188"/>
<text xml:space="preserve" text-anchor="middle" x="303.75" y="-174.5" font-family="Helvetica,sans-Serif" font-size="10.00">src/renderer/Shader.cpp</text>
</a>
</g>
</g>
<!-- Node2 -->
<g id="Node000002" class="node">
<title>Node2</title>
<g id="a_Node000002"><a xlink:href="../../d8/d34/_shader_8h.html" target="_top" xlink:title=" ">
<polygon fill="white" stroke="#666666" points="250.25,-76 195.25,-76 195.25,-56 250.25,-56 250.25,-76"/>
<text xml:space="preserve" text-anchor="middle" x="222.75" y="-62.5" font-family="Helvetica,sans-Serif" font-size="10.00">Shader.h</text>
</a>
</g>
</g>
<!-- Node1&#45;&gt;Node2 -->
<g id="edge1_Node000001_Node000002" class="edge">
<title>Node1&#45;&gt;Node2</title>
<g id="a_edge1_Node000001_Node000002"><a xlink:title=" ">
<path fill="none" stroke="#63b8ff" d="M296.84,-167.62C283.45,-149.44 253.75,-109.09 236.29,-85.38"/>
<polygon fill="#63b8ff" stroke="#63b8ff" points="239.28,-83.55 230.54,-77.57 233.65,-87.7 239.28,-83.55"/>
</a>
</g>
</g>
<!-- Node9 -->
<g id="Node000009" class="node">
<title>Node9</title>
<g id="a_Node000009"><a xlink:href="../../d3/da0/_renderer_8h.html" target="_top" xlink:title=" ">
<polygon fill="white" stroke="#666666" points="372.75,-132 308.75,-132 308.75,-112 372.75,-112 372.75,-132"/>
<text xml:space="preserve" text-anchor="middle" x="340.75" y="-118.5" font-family="Helvetica,sans-Serif" font-size="10.00">Renderer.h</text>
</a>
</g>
</g>
<!-- Node1&#45;&gt;Node9 -->
<g id="edge8_Node000001_Node000009" class="edge">
<title>Node1&#45;&gt;Node9</title>
<g id="a_edge8_Node000001_Node000009"><a xlink:title=" ">
<path fill="none" stroke="#63b8ff" d="M310.19,-167.59C315.08,-160.47 321.94,-150.45 327.93,-141.72"/>
<polygon fill="#63b8ff" stroke="#63b8ff" points="330.76,-143.77 333.52,-133.55 324.98,-139.82 330.76,-143.77"/>
</a>
</g>
</g>
<!-- Node3 -->
<g id="Node000003" class="node">
<title>Node3</title>
<g id="a_Node000003"><a xlink:title=" ">
<polygon fill="#e0e0e0" stroke="#999999" points="53.5,-20 0,-20 0,0 53.5,0 53.5,-20"/>
<text xml:space="preserve" text-anchor="middle" x="26.75" y="-6.5" font-family="Helvetica,sans-Serif" font-size="10.00">iostream</text>
</a>
</g>
</g>
<!-- Node2&#45;&gt;Node3 -->
<g id="edge2_Node000002_Node000003" class="edge">
<title>Node2&#45;&gt;Node3</title>
<g id="a_edge2_Node000002_Node000003"><a xlink:title=" ">
<path fill="none" stroke="#63b8ff" d="M195.08,-57.38C160.99,-47.98 102.89,-31.98 64.66,-21.44"/>
<polygon fill="#63b8ff" stroke="#63b8ff" points="65.99,-18.18 55.42,-18.9 64.13,-24.93 65.99,-18.18"/>
</a>
</g>
</g>
<!-- Node4 -->
<g id="Node000004" class="node">
<title>Node4</title>
<g id="a_Node000004"><a xlink:title=" ">
<polygon fill="#e0e0e0" stroke="#999999" points="120.25,-20 71.25,-20 71.25,0 120.25,0 120.25,-20"/>
<text xml:space="preserve" text-anchor="middle" x="95.75" y="-6.5" font-family="Helvetica,sans-Serif" font-size="10.00">fstream</text>
</a>
</g>
</g>
<!-- Node2&#45;&gt;Node4 -->
<g id="edge3_Node000002_Node000004" class="edge">
<title>Node2&#45;&gt;Node4</title>
<g id="a_edge3_Node000002_Node000004"><a xlink:title=" ">
<path fill="none" stroke="#63b8ff" d="M200.63,-55.59C180.72,-47.13 151.2,-34.58 128.54,-24.94"/>
<polygon fill="#63b8ff" stroke="#63b8ff" points="130.01,-21.76 119.44,-21.07 127.27,-28.21 130.01,-21.76"/>
</a>
</g>
</g>
<!-- Node5 -->
<g id="Node000005" class="node">
<title>Node5</title>
<g id="a_Node000005"><a xlink:title=" ">
<polygon fill="#e0e0e0" stroke="#999999" points="178.75,-20 138.75,-20 138.75,0 178.75,0 178.75,-20"/>
<text xml:space="preserve" text-anchor="middle" x="158.75" y="-6.5" font-family="Helvetica,sans-Serif" font-size="10.00">string</text>
</a>
</g>
</g>
<!-- Node2&#45;&gt;Node5 -->
<g id="edge4_Node000002_Node000005" class="edge">
<title>Node2&#45;&gt;Node5</title>
<g id="a_edge4_Node000002_Node000005"><a xlink:title=" ">
<path fill="none" stroke="#63b8ff" d="M211.6,-55.59C202.42,-47.85 189.2,-36.69 178.27,-27.47"/>
<polygon fill="#63b8ff" stroke="#63b8ff" points="180.83,-25.05 170.93,-21.27 176.31,-30.4 180.83,-25.05"/>
</a>
</g>
</g>
<!-- Node6 -->
<g id="Node000006" class="node">
<title>Node6</title>
<g id="a_Node000006"><a xlink:title=" ">
<polygon fill="#e0e0e0" stroke="#999999" points="248.38,-20 197.12,-20 197.12,0 248.38,0 248.38,-20"/>
<text xml:space="preserve" text-anchor="middle" x="222.75" y="-6.5" font-family="Helvetica,sans-Serif" font-size="10.00">sstream</text>
</a>
</g>
</g>
<!-- Node2&#45;&gt;Node6 -->
<g id="edge5_Node000002_Node000006" class="edge">
<title>Node2&#45;&gt;Node6</title>
<g id="a_edge5_Node000002_Node000006"><a xlink:title=" ">
<path fill="none" stroke="#63b8ff" d="M222.75,-55.59C222.75,-49.01 222.75,-39.96 222.75,-31.73"/>
<polygon fill="#63b8ff" stroke="#63b8ff" points="226.25,-31.81 222.75,-21.81 219.25,-31.81 226.25,-31.81"/>
</a>
</g>
</g>
<!-- Node7 -->
<g id="Node000007" class="node">
<title>Node7</title>
<g id="a_Node000007"><a xlink:title=" ">
<polygon fill="#e0e0e0" stroke="#999999" points="335.38,-20 266.12,-20 266.12,0 335.38,0 335.38,-20"/>
<text xml:space="preserve" text-anchor="middle" x="300.75" y="-6.5" font-family="Helvetica,sans-Serif" font-size="10.00">glm/glm.hpp</text>
</a>
</g>
</g>
<!-- Node2&#45;&gt;Node7 -->
<g id="edge6_Node000002_Node000007" class="edge">
<title>Node2&#45;&gt;Node7</title>
<g id="a_edge6_Node000002_Node000007"><a xlink:title=" ">
<path fill="none" stroke="#63b8ff" d="M236.34,-55.59C247.79,-47.67 264.41,-36.16 277.91,-26.82"/>
<polygon fill="#63b8ff" stroke="#63b8ff" points="279.58,-29.91 285.81,-21.34 275.6,-24.16 279.58,-29.91"/>
</a>
</g>
</g>
<!-- Node8 -->
<g id="Node000008" class="node">
<title>Node8</title>
<g id="a_Node000008"><a xlink:title=" ">
<polygon fill="#e0e0e0" stroke="#999999" points="436.12,-20 353.38,-20 353.38,0 436.12,0 436.12,-20"/>
<text xml:space="preserve" text-anchor="middle" x="394.75" y="-6.5" font-family="Helvetica,sans-Serif" font-size="10.00">unordered_map</text>
</a>
</g>
</g>
<!-- Node2&#45;&gt;Node8 -->
<g id="edge7_Node000002_Node000008" class="edge">
<title>Node2&#45;&gt;Node8</title>
<g id="a_edge7_Node000002_Node000008"><a xlink:title=" ">
<path fill="none" stroke="#63b8ff" d="M250.38,-56.32C278.33,-47.55 321.85,-33.89 353.8,-23.86"/>
<polygon fill="#63b8ff" stroke="#63b8ff" points="354.64,-27.26 363.14,-20.93 352.55,-20.58 354.64,-27.26"/>
</a>
</g>
</g>
<!-- Node9&#45;&gt;Node2 -->
<g id="edge14_Node000009_Node000002" class="edge">
<title>Node9&#45;&gt;Node2</title>
<g id="a_edge14_Node000009_Node000002"><a xlink:title=" ">
<path fill="none" stroke="#63b8ff" d="M320.2,-111.59C301.87,-103.21 274.76,-90.8 253.79,-81.21"/>
<polygon fill="#63b8ff" stroke="#63b8ff" points="255.39,-78.09 244.84,-77.11 252.48,-84.45 255.39,-78.09"/>
</a>
</g>
</g>
<!-- Node10 -->
<g id="Node000010" class="node">
<title>Node10</title>
<g id="a_Node000010"><a xlink:title=" ">
<polygon fill="#e0e0e0" stroke="#999999" points="327.5,-76 268,-76 268,-56 327.5,-56 327.5,-76"/>
<text xml:space="preserve" text-anchor="middle" x="297.75" y="-62.5" font-family="Helvetica,sans-Serif" font-size="10.00">GL/glew.h</text>
</a>
</g>
</g>
<!-- Node9&#45;&gt;Node10 -->
<g id="edge9_Node000009_Node000010" class="edge">
<title>Node9&#45;&gt;Node10</title>
<g id="a_edge9_Node000009_Node000010"><a xlink:title=" ">
<path fill="none" stroke="#63b8ff" d="M333.26,-111.59C327.46,-104.32 319.26,-94.02 312.2,-85.15"/>
<polygon fill="#63b8ff" stroke="#63b8ff" points="315.06,-83.12 306.1,-77.48 309.59,-87.49 315.06,-83.12"/>
</a>
</g>
</g>
<!-- Node11 -->
<g id="Node000011" class="node">
<title>Node11</title>
<g id="a_Node000011"><a xlink:title=" ">
<polygon fill="#e0e0e0" stroke="#999999" points="424.25,-76 345.25,-76 345.25,-56 424.25,-56 424.25,-76"/>
<text xml:space="preserve" text-anchor="middle" x="384.75" y="-62.5" font-family="Helvetica,sans-Serif" font-size="10.00">GLFW/glfw3.h</text>
</a>
</g>
</g>
<!-- Node9&#45;&gt;Node11 -->
<g id="edge10_Node000009_Node000011" class="edge">
<title>Node9&#45;&gt;Node11</title>
<g id="a_edge10_Node000009_Node000011"><a xlink:title=" ">
<path fill="none" stroke="#63b8ff" d="M348.41,-111.59C354.34,-104.32 362.74,-94.02 369.96,-85.15"/>
<polygon fill="#63b8ff" stroke="#63b8ff" points="372.61,-87.43 376.22,-77.47 367.19,-83.01 372.61,-87.43"/>
</a>
</g>
</g>
<!-- Node12 -->
<g id="Node000012" class="node">
<title>Node12</title>
<g id="a_Node000012"><a xlink:href="../../d0/df4/_vertex_array_8h.html" target="_top" xlink:title=" ">
<polygon fill="white" stroke="#666666" points="517,-76 442.5,-76 442.5,-56 517,-56 517,-76"/>
<text xml:space="preserve" text-anchor="middle" x="479.75" y="-62.5" font-family="Helvetica,sans-Serif" font-size="10.00">VertexArray.h</text>
</a>
</g>
</g>
<!-- Node9&#45;&gt;Node12 -->
<g id="edge11_Node000009_Node000012" class="edge">
<title>Node9&#45;&gt;Node12</title>
<g id="a_edge11_Node000009_Node000012"><a xlink:title=" ">
<path fill="none" stroke="#63b8ff" d="M364.96,-111.59C387.05,-103.01 419.95,-90.23 444.87,-80.55"/>
<polygon fill="#63b8ff" stroke="#63b8ff" points="445.88,-83.91 453.94,-77.03 443.35,-77.39 445.88,-83.91"/>
</a>
</g>
</g>
<!-- Node14 -->
<g id="Node000014" class="node">
<title>Node14</title>
<g id="a_Node000014"><a xlink:href="../../df/ddc/_index_buffer_8h.html" target="_top" xlink:title=" ">
<polygon fill="white" stroke="#666666" points="608.62,-76 534.88,-76 534.88,-56 608.62,-56 608.62,-76"/>
<text xml:space="preserve" text-anchor="middle" x="571.75" y="-62.5" font-family="Helvetica,sans-Serif" font-size="10.00">IndexBuffer.h</text>
</a>
</g>
</g>
<!-- Node9&#45;&gt;Node14 -->
<g id="edge13_Node000009_Node000014" class="edge">
<title>Node9&#45;&gt;Node14</title>
<g id="a_edge13_Node000009_Node000014"><a xlink:title=" ">
<path fill="none" stroke="#63b8ff" d="M372.87,-113.49C411.95,-104.35 478.32,-88.84 523.54,-78.27"/>
<polygon fill="#63b8ff" stroke="#63b8ff" points="524.14,-81.72 533.08,-76.04 522.55,-74.91 524.14,-81.72"/>
</a>
</g>
</g>
<!-- Node13 -->
<g id="Node000013" class="node">
<title>Node13</title>
<g id="a_Node000013"><a xlink:href="../../d4/d84/_vertex_buffer_8h.html" target="_top" xlink:title=" ">
<polygon fill="white" stroke="#666666" points="531.5,-20 454,-20 454,0 531.5,0 531.5,-20"/>
<text xml:space="preserve" text-anchor="middle" x="492.75" y="-6.5" font-family="Helvetica,sans-Serif" font-size="10.00">VertexBuffer.h</text>
</a>
</g>
</g>
<!-- Node12&#45;&gt;Node13 -->
<g id="edge12_Node000012_Node000013" class="edge">
<title>Node12&#45;&gt;Node13</title>
<g id="a_edge12_Node000012_Node000013"><a xlink:title=" ">
<path fill="none" stroke="#63b8ff" d="M482.01,-55.59C483.62,-48.93 485.83,-39.75 487.83,-31.44"/>
<polygon fill="#63b8ff" stroke="#63b8ff" points="491.22,-32.31 490.16,-21.77 484.41,-30.67 491.22,-32.31"/>
</a>
</g>
</g>
</g>
</svg>

<g id="navigator" transform="translate(0 0)" fill="#404254">
  <rect fill="#f2f5e9" fill-opacity="0.5" stroke="#606060" stroke-width=".5" x="0" y="0" width="60" height="60"/>
  <use id="zoomplus" xlink:href="#zoomPlus" x="17" y="9" onmousedown="handleZoom(evt,'in')"/>
  <use id="zoomminus" xlink:href="#zoomMin" x="42" y="9" onmousedown="handleZoom(evt,'out')"/>
  <use id="reset" xlink:href="#resetDef" x="30" y="36" onmousedown="handleReset()"/>
   <use id="arrowup" xlink:href="#arrowUp" x="0" y="0" onmousedown="handlePan(0,-1)"/>
  <use id="arrowright" xlink:href="#arrowRight" x="0" y="0" onmousedown="handlePan(1,0)"/>
  <use id="arrowdown" xlink:href="#arrowDown" x="0" y="0" onmousedown="handlePan(0,1)"/>
  <use id="arrowleft" xlink:href="#arrowLeft" x="0" y="0" onmousedown="handlePan(-1,0)"/>
</g>
<svg viewBox="0 0 15 15" width="100%" height="30px" preserveAspectRatio="xMaxYMin meet">
 <g id="arrow_out" transform="scale(0.3 0.3)">
  <a xlink:href="_shader_8cpp__incl_org.svg" target="_base">
   <rect id="button" ry="5" rx="5" y="6" x="6" height="38" width="38"
        fill="#f2f5e9" fill-opacity="0.5" stroke="#606060" stroke-width="1.0"/>
   <path id="arrow"
     d="M 11.500037,31.436501 C 11.940474,20.09759 22.043105,11.32322 32.158766,21.979434 L 37.068811,17.246167 C 37.068811,17.246167 37.088388,32 37.088388,32 L 22.160133,31.978069 C 22.160133,31.978069 26.997745,27.140456 26.997745,27.140456 C 18.528582,18.264221 13.291696,25.230495 11.500037,31.436501 z"
     style="fill:#404040;"/>
  </a>
 </g>
</svg>

<style type='text/css'>
<![CDATA[
[data-mouse-over-selected='false'] { opacity: 0.7; }
[data-mouse-over-selected='true']  { opacity: 1.0; }
]]>
</style>
<script type="application/ecmascript"><![CDATA[
document.addEventListener('DOMContentLoaded', (event) => {
  highlightEdges();
  highlightAdjacentNodes();
});
]]></script>
</svg>
