<?xml version="1.0" encoding="UTF-8" standalone="no"?>
<!DOCTYPE svg PUBLIC "-//W3C//DTD SVG 1.1//EN"
 "http://www.w3.org/Graphics/SVG/1.1/DTD/svg11.dtd">
<!-- Generated by graphviz version 2.43.0 (0)
 -->
<!-- Title: ApplicationHandler Pages: 1 -->
<!--zoomable 513 -->

<svg id="main" version="1.1" xmlns="http://www.w3.org/2000/svg" xmlns:xlink="http://www.w3.org/1999/xlink" xml:space="preserve" onload="init(evt)">
<style type="text/css"><![CDATA[
.node, .edge {opacity: 0.7;}
.node.selected, .edge.selected {opacity: 1;}
.edge:hover path { stroke: red; }
.edge:hover polygon { stroke: red; fill: red; }
]]></style>

<defs>
  <circle id="rim" cx="0" cy="0" r="7"/>
  <circle id="rim2" cx="0" cy="0" r="3.5"/>
  <g id="zoomPlus">
    <use xlink:href="#rim" fill="#404040"><set attributeName="fill" to="#808080" begin="zoomplus.mouseover" end="zoomplus.mouseout"/></use>
    <path d="M-4,0h8M0,-4v8" fill="none" stroke="white" stroke-width="1.5" pointer-events="none"/>
  </g>
  <g id="zoomMin">
    <use xlink:href="#rim" fill="#404040"><set attributeName="fill" to="#808080" begin="zoomminus.mouseover" end="zoomminus.mouseout"/></use>
    <path d="M-4,0h8" fill="none" stroke="white" stroke-width="1.5" pointer-events="none"/>
  </g>
  <g id="arrowUp" transform="translate(30 24)">
    <use xlink:href="#rim"/>
    <path pointer-events="none" fill="none" stroke="white" stroke-width="1.5" d="M0,-3.0v7 M-2.5,-0.5L0,-3.0L2.5,-0.5"/>
  </g>
  <g id="arrowRight" transform="rotate(90) translate(36 -43)">
    <use xlink:href="#rim"/>
    <path pointer-events="none" fill="none" stroke="white" stroke-width="1.5" d="M0,-3.0v7 M-2.5,-0.5L0,-3.0L2.5,-0.5"/>
  </g>
  <g id="arrowDown" transform="rotate(180) translate(-30 -48)">
    <use xlink:href="#rim"/>
    <path pointer-events="none" fill="none" stroke="white" stroke-width="1.5" d="M0,-3.0v7 M-2.5,-0.5L0,-3.0L2.5,-0.5"/>
  </g>
  <g id="arrowLeft" transform="rotate(270) translate(-36 17)">
    <use xlink:href="#rim"/>
    <path pointer-events="none" fill="none" stroke="white" stroke-width="1.5" d="M0,-3.0v7 M-2.5,-0.5L0,-3.0L2.5,-0.5"/>
  </g>
  <g id="resetDef">
    <use xlink:href="#rim2" fill="#404040"><set attributeName="fill" to="#808080" begin="reset.mouseover" end="reset.mouseout"/></use>
  </g>
</defs>
<script type="application/ecmascript">
var viewWidth = 1633;
var viewHeight = 513;
var sectionId = 'dynsection-0';
</script>
<script type="application/ecmascript" xlink:href="../../svg.min.js"/>
<svg id="graph" class="graph">
<g id="viewport">
<title>ApplicationHandler</title>
<!-- Node1 -->
<g id="Node000001" class="node">
<title>Node1</title>
<g id="a_Node000001"><a xlink:title=" ">
<polygon fill="#999999" stroke="transparent" points="896.5,-398 616.5,-398 616.5,0 896.5,0 896.5,-398"/>
<text text-anchor="start" x="709.5" y="-386" font-family="Helvetica,sans-Serif" font-size="10.00">ApplicationHandler</text>
<text text-anchor="start" x="754.5" y="-371" font-family="Helvetica,sans-Serif" font-size="10.00"> </text>
<text text-anchor="start" x="620.5" y="-356" font-family="Helvetica,sans-Serif" font-size="10.00">+</text>
<text text-anchor="start" x="633.5" y="-356" font-family="Helvetica,sans-Serif" font-size="10.00">ApplicationHandler(GLFWwindow</text>
<text text-anchor="start" x="633.5" y="-345" font-family="Helvetica,sans-Serif" font-size="10.00"> *window, std::shared_ptr&lt; DirectoryWindow</text>
<text text-anchor="start" x="633.5" y="-334" font-family="Helvetica,sans-Serif" font-size="10.00"> &gt; map_directory, std::shared_ptr&lt; DirectoryWindow</text>
<text text-anchor="start" x="633.5" y="-323" font-family="Helvetica,sans-Serif" font-size="10.00"> &gt; marker_directory)</text>
<text text-anchor="start" x="620.5" y="-308" font-family="Helvetica,sans-Serif" font-size="10.00">+</text>
<text text-anchor="start" x="633.5" y="-308" font-family="Helvetica,sans-Serif" font-size="10.00">~ApplicationHandler()</text>
<text text-anchor="start" x="620.5" y="-293" font-family="Helvetica,sans-Serif" font-size="10.00">+</text>
<text text-anchor="start" x="633.5" y="-293" font-family="Helvetica,sans-Serif" font-size="10.00">int run()</text>
<text text-anchor="start" x="620.5" y="-278" font-family="Helvetica,sans-Serif" font-size="10.00">+</text>
<text text-anchor="start" x="633.5" y="-278" font-family="Helvetica,sans-Serif" font-size="10.00">void pushStatusToast(const</text>
<text text-anchor="start" x="633.5" y="-267" font-family="Helvetica,sans-Serif" font-size="10.00"> std::string &amp;msg, ImGuiToaster</text>
<text text-anchor="start" x="633.5" y="-256" font-family="Helvetica,sans-Serif" font-size="10.00">::Level lvl, float durationSec=5.0f)</text>
<text text-anchor="start" x="623" y="-241" font-family="Helvetica,sans-Serif" font-size="10.00">&#45;</text>
<text text-anchor="start" x="633.5" y="-241" font-family="Helvetica,sans-Serif" font-size="10.00">void renderMainMenuBar()</text>
<text text-anchor="start" x="623" y="-226" font-family="Helvetica,sans-Serif" font-size="10.00">&#45;</text>
<text text-anchor="start" x="633.5" y="-226" font-family="Helvetica,sans-Serif" font-size="10.00">void renderDockSpace()</text>
<text text-anchor="start" x="623" y="-211" font-family="Helvetica,sans-Serif" font-size="10.00">&#45;</text>
<text text-anchor="start" x="633.5" y="-211" font-family="Helvetica,sans-Serif" font-size="10.00">void renderMapFBO(VertexArray</text>
<text text-anchor="start" x="633.5" y="-200" font-family="Helvetica,sans-Serif" font-size="10.00"> &amp;va, IndexBuffer &amp;ib, Shader</text>
<text text-anchor="start" x="633.5" y="-189" font-family="Helvetica,sans-Serif" font-size="10.00"> &amp;shader, Shader &amp;grid_shader,</text>
<text text-anchor="start" x="633.5" y="-178" font-family="Helvetica,sans-Serif" font-size="10.00"> Renderer &amp;renderer)</text>
<text text-anchor="start" x="623" y="-163" font-family="Helvetica,sans-Serif" font-size="10.00">&#45;</text>
<text text-anchor="start" x="633.5" y="-163" font-family="Helvetica,sans-Serif" font-size="10.00">void renderActiveGametable()</text>
<text text-anchor="start" x="623" y="-148" font-family="Helvetica,sans-Serif" font-size="10.00">&#45;</text>
<text text-anchor="start" x="633.5" y="-148" font-family="Helvetica,sans-Serif" font-size="10.00">void CreateMapFBO(int width,</text>
<text text-anchor="start" x="633.5" y="-137" font-family="Helvetica,sans-Serif" font-size="10.00"> int height)</text>
<text text-anchor="start" x="623" y="-122" font-family="Helvetica,sans-Serif" font-size="10.00">&#45;</text>
<text text-anchor="start" x="633.5" y="-122" font-family="Helvetica,sans-Serif" font-size="10.00">void ResizeMapFBO(int newWidth,</text>
<text text-anchor="start" x="633.5" y="-111" font-family="Helvetica,sans-Serif" font-size="10.00"> int newHeight)</text>
<text text-anchor="start" x="623" y="-96" font-family="Helvetica,sans-Serif" font-size="10.00">&#45;</text>
<text text-anchor="start" x="633.5" y="-96" font-family="Helvetica,sans-Serif" font-size="10.00">void DeleteMapFBO()</text>
<text text-anchor="start" x="623" y="-81" font-family="Helvetica,sans-Serif" font-size="10.00">&#45;</text>
<text text-anchor="start" x="633.5" y="-81" font-family="Helvetica,sans-Serif" font-size="10.00">void TickAutoSave()</text>
<text text-anchor="start" x="623" y="-66" font-family="Helvetica,sans-Serif" font-size="10.00">&#45;</text>
<text text-anchor="start" x="633.5" y="-66" font-family="Helvetica,sans-Serif" font-size="10.00">void GetMousePosInItem(ImVec2</text>
<text text-anchor="start" x="633.5" y="-55" font-family="Helvetica,sans-Serif" font-size="10.00"> &amp;out_item_size, ImVec2 &amp;item</text>
<text text-anchor="start" x="633.5" y="-44" font-family="Helvetica,sans-Serif" font-size="10.00">_screen_pos)</text>
<text text-anchor="start" x="623" y="-29" font-family="Helvetica,sans-Serif" font-size="10.00">&#45;</text>
<text text-anchor="start" x="633.5" y="-29" font-family="Helvetica,sans-Serif" font-size="10.00">void DrawDebugCircle(ImVec2</text>
<text text-anchor="start" x="633.5" y="-18" font-family="Helvetica,sans-Serif" font-size="10.00"> coords, bool is_relative_to</text>
<text text-anchor="start" x="633.5" y="-7" font-family="Helvetica,sans-Serif" font-size="10.00">_window, ImU32 color, float radius=10.0f)</text>
<polygon fill="#666666" stroke="#666666" points="616.5,-381 616.5,-381 896.5,-381 896.5,-381 616.5,-381"/>
<polygon fill="#666666" stroke="#666666" points="616.5,-366 616.5,-366 896.5,-366 896.5,-366 616.5,-366"/>
<polygon fill="none" stroke="#666666" points="616.5,0 616.5,-398 896.5,-398 896.5,0 616.5,0"/>
</a>
</g>
</g>
<!-- Node2 -->
<g id="Node000002" class="node">
<title>Node2</title>
<g id="a_Node000002"><a xlink:title=" ">
<polygon fill="white" stroke="transparent" points="149,-505 0,-505 0,-456 149,-456 149,-505"/>
<text text-anchor="start" x="5.5" y="-492.5" font-family="Helvetica,sans-Serif" font-size="10.00">shared_ptr&lt; ImGuiToaster &gt;</text>
<text text-anchor="start" x="73" y="-477.5" font-family="Helvetica,sans-Serif" font-size="10.00"> </text>
<text text-anchor="start" x="73" y="-462.5" font-family="Helvetica,sans-Serif" font-size="10.00"> </text>
<polygon fill="#666666" stroke="#666666" points="0.5,-487.5 0.5,-487.5 149.5,-487.5 149.5,-487.5 0.5,-487.5"/>
<polygon fill="#666666" stroke="#666666" points="0.5,-472.5 0.5,-472.5 149.5,-472.5 149.5,-472.5 0.5,-472.5"/>
<polygon fill="none" stroke="#666666" points="0,-456 0,-505 149,-505 149,-456 0,-456"/>
</a>
</g>
</g>
<!-- Node2&#45;&gt;Node1 -->
<g id="edge1_Node000001_Node000002" class="edge">
<title>Node2&#45;&gt;Node1</title>
<g id="a_edge1_Node000001_Node000002"><a xlink:title=" ">
<path fill="none" stroke="#63b8ff" d="M132.06,-455.91C235.42,-413.55 455.6,-323.32 604.88,-262.14"/>
<polygon fill="none" stroke="#63b8ff" points="605.29,-261.97 609.33,-255.99 616.4,-257.42 612.36,-263.39 605.29,-261.97"/>
</a>
</g>
<text text-anchor="middle" x="246" y="-424.5" font-family="Helvetica,sans-Serif" font-size="10.00" fill="grey"> &#45;toaster_</text>
</g>
<!-- Node3 -->
<g id="Node000003" class="node">
<title>Node3</title>
<g id="a_Node000003"><a xlink:title=" ">
<polygon fill="white" stroke="transparent" points="293.5,-505 167.5,-505 167.5,-456 293.5,-456 293.5,-505"/>
<text text-anchor="start" x="172.5" y="-492.5" font-family="Helvetica,sans-Serif" font-size="10.00">shared_ptr&lt; MapFBO &gt;</text>
<text text-anchor="start" x="228.5" y="-477.5" font-family="Helvetica,sans-Serif" font-size="10.00"> </text>
<text text-anchor="start" x="228.5" y="-462.5" font-family="Helvetica,sans-Serif" font-size="10.00"> </text>
<polygon fill="#666666" stroke="#666666" points="167.5,-487.5 167.5,-487.5 293.5,-487.5 293.5,-487.5 167.5,-487.5"/>
<polygon fill="#666666" stroke="#666666" points="167.5,-472.5 167.5,-472.5 293.5,-472.5 293.5,-472.5 167.5,-472.5"/>
<polygon fill="none" stroke="#666666" points="167.5,-456 167.5,-505 293.5,-505 293.5,-456 167.5,-456"/>
</a>
</g>
</g>
<!-- Node3&#45;&gt;Node1 -->
<g id="edge2_Node000001_Node000003" class="edge">
<title>Node3&#45;&gt;Node1</title>
<g id="a_edge2_Node000001_Node000003"><a xlink:title=" ">
<path fill="none" stroke="#63b8ff" d="M274.89,-455.91C347.05,-417.57 493.04,-339.99 605.46,-280.26"/>
<polygon fill="none" stroke="#63b8ff" points="605.64,-280.16 609.06,-273.81 616.24,-274.53 612.81,-280.88 605.64,-280.16"/>
</a>
</g>
<text text-anchor="middle" x="369.5" y="-424.5" font-family="Helvetica,sans-Serif" font-size="10.00" fill="grey"> &#45;map_fbo</text>
</g>
<!-- Node4 -->
<g id="Node000004" class="node">
<title>Node4</title>
<g id="a_Node000004"><a xlink:title=" ">
<polygon fill="white" stroke="transparent" points="397,-505 312,-505 312,-456 397,-456 397,-505"/>
<text text-anchor="start" x="317.5" y="-492.5" font-family="Helvetica,sans-Serif" font-size="10.00">GLFWwindow *</text>
<text text-anchor="start" x="353" y="-477.5" font-family="Helvetica,sans-Serif" font-size="10.00"> </text>
<text text-anchor="start" x="353" y="-462.5" font-family="Helvetica,sans-Serif" font-size="10.00"> </text>
<polygon fill="#666666" stroke="#666666" points="312.5,-487.5 312.5,-487.5 397.5,-487.5 397.5,-487.5 312.5,-487.5"/>
<polygon fill="#666666" stroke="#666666" points="312.5,-472.5 312.5,-472.5 397.5,-472.5 397.5,-472.5 312.5,-472.5"/>
<polygon fill="none" stroke="#666666" points="312,-456 312,-505 397,-505 397,-456 312,-456"/>
</a>
</g>
</g>
<!-- Node4&#45;&gt;Node1 -->
<g id="edge3_Node000001_Node000004" class="edge">
<title>Node4&#45;&gt;Node1</title>
<g id="a_edge3_Node000001_Node000004"><a xlink:title=" ">
<path fill="none" stroke="#63b8ff" d="M384.94,-455.9C400.77,-443.78 420.52,-428.89 438.5,-416 492.51,-377.28 552.62,-336 605.92,-300.01"/>
<polygon fill="none" stroke="#63b8ff" points="606.18,-299.83 608.92,-293.15 616.13,-293.12 613.39,-299.79 606.18,-299.83"/>
</a>
</g>
<text text-anchor="middle" x="461" y="-424.5" font-family="Helvetica,sans-Serif" font-size="10.00" fill="grey"> &#45;window</text>
</g>
<!-- Node5 -->
<g id="Node000005" class="node">
<title>Node5</title>
<g id="a_Node000005"><a xlink:title=" ">
<polygon fill="white" stroke="transparent" points="453.5,-505 415.5,-505 415.5,-456 453.5,-456 453.5,-505"/>
<text text-anchor="start" x="420.5" y="-492.5" font-family="Helvetica,sans-Serif" font-size="10.00">world</text>
<text text-anchor="start" x="432.5" y="-477.5" font-family="Helvetica,sans-Serif" font-size="10.00"> </text>
<text text-anchor="start" x="432.5" y="-462.5" font-family="Helvetica,sans-Serif" font-size="10.00"> </text>
<polygon fill="#666666" stroke="#666666" points="415.5,-487.5 415.5,-487.5 453.5,-487.5 453.5,-487.5 415.5,-487.5"/>
<polygon fill="#666666" stroke="#666666" points="415.5,-472.5 415.5,-472.5 453.5,-472.5 453.5,-472.5 415.5,-472.5"/>
<polygon fill="none" stroke="#666666" points="415.5,-456 415.5,-505 453.5,-505 453.5,-456 415.5,-456"/>
</a>
</g>
</g>
<!-- Node5&#45;&gt;Node1 -->
<g id="edge4_Node000001_Node000005" class="edge">
<title>Node5&#45;&gt;Node1</title>
<g id="a_edge4_Node000001_Node000005"><a xlink:title=" ">
<path fill="none" stroke="#63b8ff" d="M453.68,-462.85C484.26,-436.3 546.81,-382.01 607.16,-329.63"/>
<polygon fill="none" stroke="#63b8ff" points="607.37,-329.45 609.28,-322.49 616.43,-321.58 614.52,-328.53 607.37,-329.45"/>
</a>
</g>
<text text-anchor="middle" x="515.5" y="-424.5" font-family="Helvetica,sans-Serif" font-size="10.00" fill="grey"> &#45;ecs</text>
</g>
<!-- Node6 -->
<g id="Node000006" class="node">
<title>Node6</title>
<g id="a_Node000006"><a xlink:title=" ">
<polygon fill="white" stroke="transparent" points="653.5,-505 471.5,-505 471.5,-456 653.5,-456 653.5,-505"/>
<text text-anchor="start" x="476.5" y="-492.5" font-family="Helvetica,sans-Serif" font-size="10.00">shared_ptr&lt; GameTableManager &gt;</text>
<text text-anchor="start" x="560.5" y="-477.5" font-family="Helvetica,sans-Serif" font-size="10.00"> </text>
<text text-anchor="start" x="560.5" y="-462.5" font-family="Helvetica,sans-Serif" font-size="10.00"> </text>
<polygon fill="#666666" stroke="#666666" points="471.5,-487.5 471.5,-487.5 653.5,-487.5 653.5,-487.5 471.5,-487.5"/>
<polygon fill="#666666" stroke="#666666" points="471.5,-472.5 471.5,-472.5 653.5,-472.5 653.5,-472.5 471.5,-472.5"/>
<polygon fill="none" stroke="#666666" points="471.5,-456 471.5,-505 653.5,-505 653.5,-456 471.5,-456"/>
</a>
</g>
</g>
<!-- Node6&#45;&gt;Node1 -->
<g id="edge5_Node000001_Node000006" class="edge">
<title>Node6&#45;&gt;Node1</title>
<g id="a_edge5_Node000001_Node000006"><a xlink:title=" ">
<path fill="none" stroke="#63b8ff" d="M579.04,-455.67C587.66,-443.25 599.11,-426.76 612.05,-408.11"/>
<polygon fill="none" stroke="#63b8ff" points="612.11,-408.03 612.24,-400.82 618.95,-398.17 618.81,-405.38 612.11,-408.03"/>
</a>
</g>
<text text-anchor="middle" x="660.5" y="-424.5" font-family="Helvetica,sans-Serif" font-size="10.00" fill="grey"> &#45;game_table_manager</text>
</g>
<!-- Node7 -->
<g id="Node000007" class="node">
<title>Node7</title>
<g id="a_Node000007"><a xlink:title=" ">
<polygon fill="white" stroke="transparent" points="841,-505 672,-505 672,-456 841,-456 841,-505"/>
<text text-anchor="start" x="677.5" y="-492.5" font-family="Helvetica,sans-Serif" font-size="10.00">shared_ptr&lt; DirectoryWindow &gt;</text>
<text text-anchor="start" x="755" y="-477.5" font-family="Helvetica,sans-Serif" font-size="10.00"> </text>
<text text-anchor="start" x="755" y="-462.5" font-family="Helvetica,sans-Serif" font-size="10.00"> </text>
<polygon fill="#666666" stroke="#666666" points="672.5,-487.5 672.5,-487.5 841.5,-487.5 841.5,-487.5 672.5,-487.5"/>
<polygon fill="#666666" stroke="#666666" points="672.5,-472.5 672.5,-472.5 841.5,-472.5 841.5,-472.5 672.5,-472.5"/>
<polygon fill="none" stroke="#666666" points="672,-456 672,-505 841,-505 841,-456 672,-456"/>
</a>
</g>
</g>
<!-- Node7&#45;&gt;Node1 -->
<g id="edge6_Node000001_Node000007" class="edge">
<title>Node7&#45;&gt;Node1</title>
<g id="a_edge6_Node000001_Node000007"><a xlink:title=" ">
<path fill="none" stroke="#63b8ff" d="M756.5,-455.67C756.5,-443.76 756.5,-428.11 756.5,-410.41"/>
<polygon fill="none" stroke="#63b8ff" points="756.5,-410.17 752.5,-404.17 756.5,-398.17 760.5,-404.17 756.5,-410.17"/>
</a>
</g>
<text text-anchor="middle" x="800.5" y="-430" font-family="Helvetica,sans-Serif" font-size="10.00" fill="grey"> &#45;map_directory</text>
<text text-anchor="middle" x="800.5" y="-419" font-family="Helvetica,sans-Serif" font-size="10.00" fill="grey">&#45;marker_directory</text>
</g>
<!-- Node8 -->
<g id="Node000008" class="node">
<title>Node8</title>
<g id="a_Node000008"><a xlink:title=" ">
<polygon fill="white" stroke="transparent" points="1015.5,-505 859.5,-505 859.5,-456 1015.5,-456 1015.5,-505"/>
<text text-anchor="start" x="864.5" y="-492.5" font-family="Helvetica,sans-Serif" font-size="10.00">shared_ptr&lt; NotesManager &gt;</text>
<text text-anchor="start" x="935.5" y="-477.5" font-family="Helvetica,sans-Serif" font-size="10.00"> </text>
<text text-anchor="start" x="935.5" y="-462.5" font-family="Helvetica,sans-Serif" font-size="10.00"> </text>
<polygon fill="#666666" stroke="#666666" points="859.5,-487.5 859.5,-487.5 1015.5,-487.5 1015.5,-487.5 859.5,-487.5"/>
<polygon fill="#666666" stroke="#666666" points="859.5,-472.5 859.5,-472.5 1015.5,-472.5 1015.5,-472.5 859.5,-472.5"/>
<polygon fill="none" stroke="#666666" points="859.5,-456 859.5,-505 1015.5,-505 1015.5,-456 859.5,-456"/>
</a>
</g>
</g>
<!-- Node8&#45;&gt;Node1 -->
<g id="edge7_Node000001_Node000008" class="edge">
<title>Node8&#45;&gt;Node1</title>
<g id="a_edge7_Node000001_Node000008"><a xlink:title=" ">
<path fill="none" stroke="#63b8ff" d="M922.07,-455.67C914.06,-443.3 903.44,-426.91 891.43,-408.37"/>
<polygon fill="none" stroke="#63b8ff" points="891.36,-408.25 884.74,-405.38 884.83,-398.17 891.45,-401.03 891.36,-408.25"/>
</a>
</g>
<text text-anchor="middle" x="948" y="-424.5" font-family="Helvetica,sans-Serif" font-size="10.00" fill="grey"> &#45;notes_manager</text>
</g>
<!-- Node9 -->
<g id="Node000009" class="node">
<title>Node9</title>
<g id="a_Node000009"><a xlink:title=" ">
<polygon fill="white" stroke="transparent" points="1181,-505 1034,-505 1034,-456 1181,-456 1181,-505"/>
<text text-anchor="start" x="1039.5" y="-492.5" font-family="Helvetica,sans-Serif" font-size="10.00">shared_ptr&lt; NoteEditorUI &gt;</text>
<text text-anchor="start" x="1106" y="-477.5" font-family="Helvetica,sans-Serif" font-size="10.00"> </text>
<text text-anchor="start" x="1106" y="-462.5" font-family="Helvetica,sans-Serif" font-size="10.00"> </text>
<polygon fill="#666666" stroke="#666666" points="1034.5,-487.5 1034.5,-487.5 1181.5,-487.5 1181.5,-487.5 1034.5,-487.5"/>
<polygon fill="#666666" stroke="#666666" points="1034.5,-472.5 1034.5,-472.5 1181.5,-472.5 1181.5,-472.5 1034.5,-472.5"/>
<polygon fill="none" stroke="#666666" points="1034,-456 1034,-505 1181,-505 1181,-456 1034,-456"/>
</a>
</g>
</g>
<!-- Node9&#45;&gt;Node1 -->
<g id="edge8_Node000001_Node000009" class="edge">
<title>Node9&#45;&gt;Node1</title>
<g id="a_edge8_Node000001_Node000009"><a xlink:title=" ">
<path fill="none" stroke="#63b8ff" d="M1077.88,-455.91C1039.68,-425.49 970.47,-370.38 906.04,-319.08"/>
<polygon fill="none" stroke="#63b8ff" points="905.96,-319.02 898.78,-318.41 896.57,-311.54 903.76,-312.15 905.96,-319.02"/>
</a>
</g>
<text text-anchor="middle" x="1087" y="-424.5" font-family="Helvetica,sans-Serif" font-size="10.00" fill="grey"> &#45;note_editor_ui</text>
</g>
<!-- Node10 -->
<g id="Node000010" class="node">
<title>Node10</title>
<g id="a_Node000010"><a xlink:title=" ">
<polygon fill="white" stroke="transparent" points="1231.5,-505 1199.5,-505 1199.5,-456 1231.5,-456 1231.5,-505"/>
<text text-anchor="start" x="1204.5" y="-492.5" font-family="Helvetica,sans-Serif" font-size="10.00">bool</text>
<text text-anchor="start" x="1213.5" y="-477.5" font-family="Helvetica,sans-Serif" font-size="10.00"> </text>
<text text-anchor="start" x="1213.5" y="-462.5" font-family="Helvetica,sans-Serif" font-size="10.00"> </text>
<polygon fill="#666666" stroke="#666666" points="1199.5,-487.5 1199.5,-487.5 1231.5,-487.5 1231.5,-487.5 1199.5,-487.5"/>
<polygon fill="#666666" stroke="#666666" points="1199.5,-472.5 1199.5,-472.5 1231.5,-472.5 1231.5,-472.5 1199.5,-472.5"/>
<polygon fill="none" stroke="#666666" points="1199.5,-456 1199.5,-505 1231.5,-505 1231.5,-456 1199.5,-456"/>
</a>
</g>
</g>
<!-- Node10&#45;&gt;Node1 -->
<g id="edge9_Node000001_Node000010" class="edge">
<title>Node10&#45;&gt;Node1</title>
<g id="a_edge9_Node000001_Node000010"><a xlink:title=" ">
<path fill="none" stroke="#63b8ff" d="M1199.46,-463.65C1196.55,-461.01 1193.49,-458.36 1190.5,-456 1165.04,-435.93 1157.09,-433.02 1129.5,-416 1057.1,-371.35 975.46,-323.77 907.06,-284.66"/>
<polygon fill="none" stroke="#63b8ff" points="907.05,-284.65 899.86,-285.15 896.63,-278.7 903.83,-278.21 907.05,-284.65"/>
</a>
</g>
<text text-anchor="middle" x="1226.5" y="-430" font-family="Helvetica,sans-Serif" font-size="10.00" fill="grey"> &#45;g_dockspace_initialized</text>
<text text-anchor="middle" x="1226.5" y="-419" font-family="Helvetica,sans-Serif" font-size="10.00" fill="grey">&#45;g_draw_debug_circle</text>
</g>
<!-- Node11 -->
<g id="Node000011" class="node">
<title>Node11</title>
<g id="a_Node000011"><a xlink:title=" ">
<polygon fill="white" stroke="transparent" points="1339.5,-505 1305.5,-505 1305.5,-456 1339.5,-456 1339.5,-505"/>
<text text-anchor="start" x="1310.5" y="-492.5" font-family="Helvetica,sans-Serif" font-size="10.00">vec2</text>
<text text-anchor="start" x="1320.5" y="-477.5" font-family="Helvetica,sans-Serif" font-size="10.00"> </text>
<text text-anchor="start" x="1320.5" y="-462.5" font-family="Helvetica,sans-Serif" font-size="10.00"> </text>
<polygon fill="#666666" stroke="#666666" points="1305.5,-487.5 1305.5,-487.5 1339.5,-487.5 1339.5,-487.5 1305.5,-487.5"/>
<polygon fill="#666666" stroke="#666666" points="1305.5,-472.5 1305.5,-472.5 1339.5,-472.5 1339.5,-472.5 1305.5,-472.5"/>
<polygon fill="none" stroke="#666666" points="1305.5,-456 1305.5,-505 1339.5,-505 1339.5,-456 1305.5,-456"/>
</a>
</g>
</g>
<!-- Node11&#45;&gt;Node1 -->
<g id="edge10_Node000001_Node000011" class="edge">
<title>Node11&#45;&gt;Node1</title>
<g id="a_edge10_Node000001_Node000011"><a xlink:title=" ">
<path fill="none" stroke="#63b8ff" d="M1316.01,-455.78C1311.35,-442.58 1303.85,-426.71 1292.5,-416 1185.7,-315.25 1025.83,-259.1 908.48,-229.48"/>
<polygon fill="none" stroke="#63b8ff" points="908.2,-229.41 901.41,-231.85 896.55,-226.52 903.33,-224.09 908.2,-229.41"/>
</a>
</g>
<text text-anchor="middle" x="1369.5" y="-424.5" font-family="Helvetica,sans-Serif" font-size="10.00" fill="grey"> &#45;current_fbo_mouse_pos</text>
</g>
<!-- Node12 -->
<g id="Node000012" class="node">
<title>Node12</title>
<g id="a_Node000012"><a xlink:title=" ">
<polygon fill="white" stroke="transparent" points="1493,-505 1446,-505 1446,-456 1493,-456 1493,-505"/>
<text text-anchor="start" x="1451.5" y="-492.5" font-family="Helvetica,sans-Serif" font-size="10.00">ImVec2</text>
<text text-anchor="start" x="1468" y="-477.5" font-family="Helvetica,sans-Serif" font-size="10.00"> </text>
<text text-anchor="start" x="1468" y="-462.5" font-family="Helvetica,sans-Serif" font-size="10.00"> </text>
<polygon fill="#666666" stroke="#666666" points="1446.5,-487.5 1446.5,-487.5 1493.5,-487.5 1493.5,-487.5 1446.5,-487.5"/>
<polygon fill="#666666" stroke="#666666" points="1446.5,-472.5 1446.5,-472.5 1493.5,-472.5 1493.5,-472.5 1446.5,-472.5"/>
<polygon fill="none" stroke="#666666" points="1446,-456 1446,-505 1493,-505 1493,-456 1446,-456"/>
</a>
</g>
</g>
<!-- Node12&#45;&gt;Node1 -->
<g id="edge11_Node000001_Node000012" class="edge">
<title>Node12&#45;&gt;Node1</title>
<g id="a_edge11_Node000001_Node000012"><a xlink:title=" ">
<path fill="none" stroke="#63b8ff" d="M1461.86,-455.74C1456.44,-442.36 1447.9,-426.31 1435.5,-416 1283.85,-289.91 1057.73,-237.1 908.72,-215.19"/>
<polygon fill="none" stroke="#63b8ff" points="908.67,-215.19 902.16,-218.29 896.79,-213.48 903.3,-210.38 908.67,-215.19"/>
</a>
</g>
<text text-anchor="middle" x="1538.5" y="-424.5" font-family="Helvetica,sans-Serif" font-size="10.00" fill="grey"> &#45;current_map_relative_mouse_pos</text>
</g>
</g>
</svg>

<g id="navigator" transform="translate(0 0)" fill="#404254">
  <rect fill="#f2f5e9" fill-opacity="0.5" stroke="#606060" stroke-width=".5" x="0" y="0" width="60" height="60"/>
  <use id="zoomplus" xlink:href="#zoomPlus" x="17" y="9" onmousedown="handleZoom(evt,'in')"/>
  <use id="zoomminus" xlink:href="#zoomMin" x="42" y="9" onmousedown="handleZoom(evt,'out')"/>
  <use id="reset" xlink:href="#resetDef" x="30" y="36" onmousedown="handleReset()"/>
   <use id="arrowup" xlink:href="#arrowUp" x="0" y="0" onmousedown="handlePan(0,-1)"/>
  <use id="arrowright" xlink:href="#arrowRight" x="0" y="0" onmousedown="handlePan(1,0)"/>
  <use id="arrowdown" xlink:href="#arrowDown" x="0" y="0" onmousedown="handlePan(0,1)"/>
  <use id="arrowleft" xlink:href="#arrowLeft" x="0" y="0" onmousedown="handlePan(-1,0)"/>
</g>
<svg viewBox="0 0 15 15" width="100%" height="30px" preserveAspectRatio="xMaxYMin meet">
 <g id="arrow_out" transform="scale(0.3 0.3)">
  <a xlink:href="classApplicationHandler__coll__graph_org.svg" target="_base">
   <rect id="button" ry="5" rx="5" y="6" x="6" height="38" width="38"
        fill="#f2f5e9" fill-opacity="0.5" stroke="#606060" stroke-width="1.0"/>
   <path id="arrow"
     d="M 11.500037,31.436501 C 11.940474,20.09759 22.043105,11.32322 32.158766,21.979434 L 37.068811,17.246167 C 37.068811,17.246167 37.088388,32 37.088388,32 L 22.160133,31.978069 C 22.160133,31.978069 26.997745,27.140456 26.997745,27.140456 C 18.528582,18.264221 13.291696,25.230495 11.500037,31.436501 z"
     style="fill:#404040;"/>
  </a>
 </g>
</svg>

<style type='text/css'>
<![CDATA[
[data-mouse-over-selected='false'] { opacity: 0.7; }
[data-mouse-over-selected='true']  { opacity: 1.0; }
]]>
</style>
<script type="application/ecmascript"><![CDATA[
document.addEventListener('DOMContentLoaded', (event) => {
  highlightEdges();
  highlightAdjacentNodes();
});
]]></script>
</svg>
