<?xml version="1.0" encoding="UTF-8" standalone="no"?>
<!DOCTYPE svg PUBLIC "-//W3C//DTD SVG 1.1//EN"
 "http://www.w3.org/Graphics/SVG/1.1/DTD/svg11.dtd">
<!-- Generated by graphviz version 14.0.2 (20251019.1705)
 -->
<!-- Title: PeerIdentity Pages: 1 -->
<svg width="125pt" height="196pt"
 viewBox="0.00 0.00 125.00 196.00" xmlns="http://www.w3.org/2000/svg" xmlns:xlink="http://www.w3.org/1999/xlink">
<g id="graph0" class="graph" transform="scale(1 1) rotate(0) translate(4 192)">
<title>PeerIdentity</title>
<!-- Node1 -->
<g id="Node000001" class="node">
<title>Node1</title>
<g id="a_Node000001"><a xlink:title=" ">
<polygon fill="#999999" stroke="none" points="117,-64 0,-64 0,0 117,0 117,-64"/>
<text xml:space="preserve" text-anchor="start" x="32.25" y="-50.5" font-family="Helvetica,sans-Serif" font-size="10.00">PeerIdentity</text>
<text xml:space="preserve" text-anchor="start" x="4" y="-34.5" font-family="Helvetica,sans-Serif" font-size="10.00">+</text>
<text xml:space="preserve" text-anchor="start" x="14" y="-34.5" font-family="Helvetica,sans-Serif" font-size="10.00">std::vector&lt; std::string</text>
<text xml:space="preserve" text-anchor="start" x="14" y="-22.5" font-family="Helvetica,sans-Serif" font-size="10.00"> &gt; usernamesHistory</text>
<text xml:space="preserve" text-anchor="start" x="57" y="-6.5" font-family="Helvetica,sans-Serif" font-size="10.00"> </text>
<polygon fill="#666666" stroke="#666666" points="0,-46 0,-46 117,-46 117,-46 0,-46"/>
<polygon fill="#666666" stroke="#666666" points="0,-18 0,-18 12,-18 12,-18 0,-18"/>
<polygon fill="#666666" stroke="#666666" points="12,-18 12,-18 117,-18 117,-18 12,-18"/>
<polygon fill="none" stroke="#666666" points="0,0 0,-64 117,-64 117,0 0,0"/>
</a>
</g>
</g>
<!-- Node2 -->
<g id="Node000002" class="node">
<title>Node2</title>
<g id="a_Node000002"><a xlink:title=" ">
<polygon fill="white" stroke="none" points="74.5,-188 42.5,-188 42.5,-136 74.5,-136 74.5,-188"/>
<text xml:space="preserve" text-anchor="start" x="46.5" y="-174.5" font-family="Helvetica,sans-Serif" font-size="10.00">string</text>
<text xml:space="preserve" text-anchor="start" x="57" y="-158.5" font-family="Helvetica,sans-Serif" font-size="10.00"> </text>
<text xml:space="preserve" text-anchor="start" x="57" y="-142.5" font-family="Helvetica,sans-Serif" font-size="10.00"> </text>
<polygon fill="#666666" stroke="#666666" points="42.5,-170 42.5,-170 74.5,-170 74.5,-170 42.5,-170"/>
<polygon fill="#666666" stroke="#666666" points="42.5,-154 42.5,-154 74.5,-154 74.5,-154 42.5,-154"/>
<polygon fill="none" stroke="#666666" points="42.5,-136 42.5,-188 74.5,-188 74.5,-136 42.5,-136"/>
</a>
</g>
</g>
<!-- Node2&#45;&gt;Node1 -->
<g id="edge1_Node000001_Node000002" class="edge">
<title>Node2&#45;&gt;Node1</title>
<g id="a_edge1_Node000001_Node000002"><a xlink:title=" ">
<path fill="none" stroke="#63b8ff" d="M58.5,-136.02C58.5,-119.15 58.5,-96.43 58.5,-76.62"/>
<polygon fill="none" stroke="#63b8ff" points="58.5,-76.7 54.5,-70.7 58.5,-64.7 62.5,-70.7 58.5,-76.7"/>
</a>
</g>
<text xml:space="preserve" text-anchor="middle" x="82.88" y="-108.5" font-family="Helvetica,sans-Serif" font-size="10.00" fill="grey"> +peerId</text>
<text xml:space="preserve" text-anchor="middle" x="82.88" y="-96.5" font-family="Helvetica,sans-Serif" font-size="10.00" fill="grey">+uniqueId</text>
<text xml:space="preserve" text-anchor="middle" x="82.88" y="-84.5" font-family="Helvetica,sans-Serif" font-size="10.00" fill="grey">+username</text>
</g>
</g>
</svg>
