<?xml version="1.0" encoding="UTF-8" standalone="no"?>
<!DOCTYPE svg PUBLIC "-//W3C//DTD SVG 1.1//EN"
 "http://www.w3.org/Graphics/SVG/1.1/DTD/svg11.dtd">
<!-- Generated by graphviz version 2.43.0 (0)
 -->
<!-- Title: Shader Pages: 1 -->
<svg width="357pt" height="476pt"
 viewBox="0.00 0.00 356.50 476.00" xmlns="http://www.w3.org/2000/svg" xmlns:xlink="http://www.w3.org/1999/xlink">
<g id="graph0" class="graph" transform="scale(1 1) rotate(0) translate(4 472)">
<title>Shader</title>
<!-- Node1 -->
<g id="Node000001" class="node">
<title>Node1</title>
<g id="a_Node000001"><a xlink:title=" ">
<polygon fill="#999999" stroke="transparent" points="208,-372 15,-372 15,0 208,0 208,-372"/>
<text text-anchor="start" x="95" y="-360" font-family="Helvetica,sans-Serif" font-size="10.00">Shader</text>
<text text-anchor="start" x="110" y="-345" font-family="Helvetica,sans-Serif" font-size="10.00"> </text>
<text text-anchor="start" x="19.5" y="-330" font-family="Helvetica,sans-Serif" font-size="10.00">+</text>
<text text-anchor="start" x="32.5" y="-330" font-family="Helvetica,sans-Serif" font-size="10.00">Shader(const std::string &amp;filepath)</text>
<text text-anchor="start" x="19.5" y="-315" font-family="Helvetica,sans-Serif" font-size="10.00">+</text>
<text text-anchor="start" x="32.5" y="-315" font-family="Helvetica,sans-Serif" font-size="10.00">~Shader()</text>
<text text-anchor="start" x="19.5" y="-300" font-family="Helvetica,sans-Serif" font-size="10.00">+</text>
<text text-anchor="start" x="32.5" y="-300" font-family="Helvetica,sans-Serif" font-size="10.00">void Bind() const</text>
<text text-anchor="start" x="19.5" y="-285" font-family="Helvetica,sans-Serif" font-size="10.00">+</text>
<text text-anchor="start" x="32.5" y="-285" font-family="Helvetica,sans-Serif" font-size="10.00">void Unbind() const</text>
<text text-anchor="start" x="19.5" y="-270" font-family="Helvetica,sans-Serif" font-size="10.00">+</text>
<text text-anchor="start" x="32.5" y="-270" font-family="Helvetica,sans-Serif" font-size="10.00">void SetUniform1i(const std</text>
<text text-anchor="start" x="32.5" y="-259" font-family="Helvetica,sans-Serif" font-size="10.00">::string &amp;name, int value)</text>
<text text-anchor="start" x="19.5" y="-244" font-family="Helvetica,sans-Serif" font-size="10.00">+</text>
<text text-anchor="start" x="32.5" y="-244" font-family="Helvetica,sans-Serif" font-size="10.00">void SetUniform4f(const std</text>
<text text-anchor="start" x="32.5" y="-233" font-family="Helvetica,sans-Serif" font-size="10.00">::string &amp;name, float v0, float</text>
<text text-anchor="start" x="32.5" y="-222" font-family="Helvetica,sans-Serif" font-size="10.00"> v1, float f2, float f3)</text>
<text text-anchor="start" x="19.5" y="-207" font-family="Helvetica,sans-Serif" font-size="10.00">+</text>
<text text-anchor="start" x="32.5" y="-207" font-family="Helvetica,sans-Serif" font-size="10.00">void SetUniform1f(const std</text>
<text text-anchor="start" x="32.5" y="-196" font-family="Helvetica,sans-Serif" font-size="10.00">::string &amp;name, float value)</text>
<text text-anchor="start" x="19.5" y="-181" font-family="Helvetica,sans-Serif" font-size="10.00">+</text>
<text text-anchor="start" x="32.5" y="-181" font-family="Helvetica,sans-Serif" font-size="10.00">void SetUniformMat4f(const</text>
<text text-anchor="start" x="32.5" y="-170" font-family="Helvetica,sans-Serif" font-size="10.00"> std::string &amp;name, glm::mat4</text>
<text text-anchor="start" x="32.5" y="-159" font-family="Helvetica,sans-Serif" font-size="10.00"> &amp;matrix)</text>
<text text-anchor="start" x="19.5" y="-144" font-family="Helvetica,sans-Serif" font-size="10.00">+</text>
<text text-anchor="start" x="32.5" y="-144" font-family="Helvetica,sans-Serif" font-size="10.00">void SetUniform2f(const std</text>
<text text-anchor="start" x="32.5" y="-133" font-family="Helvetica,sans-Serif" font-size="10.00">::string &amp;name, float v0, float v1)</text>
<text text-anchor="start" x="22" y="-118" font-family="Helvetica,sans-Serif" font-size="10.00">&#45;</text>
<text text-anchor="start" x="32.5" y="-118" font-family="Helvetica,sans-Serif" font-size="10.00">ShaderProgramSource ParseShader</text>
<text text-anchor="start" x="32.5" y="-107" font-family="Helvetica,sans-Serif" font-size="10.00">(const std::string &amp;filepath)</text>
<text text-anchor="start" x="22" y="-92" font-family="Helvetica,sans-Serif" font-size="10.00">&#45;</text>
<text text-anchor="start" x="32.5" y="-92" font-family="Helvetica,sans-Serif" font-size="10.00">unsigned int CompileShader</text>
<text text-anchor="start" x="32.5" y="-81" font-family="Helvetica,sans-Serif" font-size="10.00">(unsigned int type, const std</text>
<text text-anchor="start" x="32.5" y="-70" font-family="Helvetica,sans-Serif" font-size="10.00">::string &amp;source)</text>
<text text-anchor="start" x="22" y="-55" font-family="Helvetica,sans-Serif" font-size="10.00">&#45;</text>
<text text-anchor="start" x="32.5" y="-55" font-family="Helvetica,sans-Serif" font-size="10.00">unsigned int CreateShader(const</text>
<text text-anchor="start" x="32.5" y="-44" font-family="Helvetica,sans-Serif" font-size="10.00"> std::string &amp;verxterShader, const</text>
<text text-anchor="start" x="32.5" y="-33" font-family="Helvetica,sans-Serif" font-size="10.00"> std::string &amp;fragmentShader)</text>
<text text-anchor="start" x="22" y="-18" font-family="Helvetica,sans-Serif" font-size="10.00">&#45;</text>
<text text-anchor="start" x="32.5" y="-18" font-family="Helvetica,sans-Serif" font-size="10.00">int GetUniformLocation(const</text>
<text text-anchor="start" x="32.5" y="-7" font-family="Helvetica,sans-Serif" font-size="10.00"> std::string &amp;name)</text>
<polygon fill="#666666" stroke="#666666" points="15.5,-355 15.5,-355 208.5,-355 208.5,-355 15.5,-355"/>
<polygon fill="#666666" stroke="#666666" points="15.5,-340 15.5,-340 208.5,-340 208.5,-340 15.5,-340"/>
<polygon fill="none" stroke="#666666" points="15,0 15,-372 208,-372 208,0 15,0"/>
</a>
</g>
</g>
<!-- Node2 -->
<g id="Node000002" class="node">
<title>Node2</title>
<g id="a_Node000002"><a xlink:title=" ">
<polygon fill="white" stroke="transparent" points="23,-468 0,-468 0,-419 23,-419 23,-468"/>
<text text-anchor="start" x="5.5" y="-455.5" font-family="Helvetica,sans-Serif" font-size="10.00">int</text>
<text text-anchor="start" x="10" y="-440.5" font-family="Helvetica,sans-Serif" font-size="10.00"> </text>
<text text-anchor="start" x="10" y="-425.5" font-family="Helvetica,sans-Serif" font-size="10.00"> </text>
<polygon fill="#666666" stroke="#666666" points="0.5,-450.5 0.5,-450.5 23.5,-450.5 23.5,-450.5 0.5,-450.5"/>
<polygon fill="#666666" stroke="#666666" points="0.5,-435.5 0.5,-435.5 23.5,-435.5 23.5,-435.5 0.5,-435.5"/>
<polygon fill="none" stroke="#666666" points="0,-419 0,-468 23,-468 23,-419 0,-419"/>
</a>
</g>
</g>
<!-- Node2&#45;&gt;Node1 -->
<g id="edge1_Node000001_Node000002" class="edge">
<title>Node2&#45;&gt;Node1</title>
<g id="a_edge1_Node000001_Node000002"><a xlink:title=" ">
<path fill="none" stroke="#63b8ff" d="M19.85,-418.92C23.11,-409.85 26.92,-399.42 30.5,-390 31.3,-387.9 32.11,-385.78 32.92,-383.66"/>
<polygon fill="none" stroke="#63b8ff" points="33.01,-383.42 31.43,-376.38 37.31,-372.21 38.9,-379.25 33.01,-383.42"/>
</a>
</g>
<text text-anchor="middle" x="69" y="-393" font-family="Helvetica,sans-Serif" font-size="10.00" fill="grey"> &#45;m_RendererID</text>
</g>
<!-- Node3 -->
<g id="Node000003" class="node">
<title>Node3</title>
<g id="a_Node000003"><a xlink:title=" ">
<polygon fill="white" stroke="transparent" points="130.5,-468 92.5,-468 92.5,-419 130.5,-419 130.5,-468"/>
<text text-anchor="start" x="97.5" y="-455.5" font-family="Helvetica,sans-Serif" font-size="10.00">string</text>
<text text-anchor="start" x="109.5" y="-440.5" font-family="Helvetica,sans-Serif" font-size="10.00"> </text>
<text text-anchor="start" x="109.5" y="-425.5" font-family="Helvetica,sans-Serif" font-size="10.00"> </text>
<polygon fill="#666666" stroke="#666666" points="92.5,-450.5 92.5,-450.5 130.5,-450.5 130.5,-450.5 92.5,-450.5"/>
<polygon fill="#666666" stroke="#666666" points="92.5,-435.5 92.5,-435.5 130.5,-435.5 130.5,-435.5 92.5,-435.5"/>
<polygon fill="none" stroke="#666666" points="92.5,-419 92.5,-468 130.5,-468 130.5,-419 92.5,-419"/>
</a>
</g>
</g>
<!-- Node3&#45;&gt;Node1 -->
<g id="edge2_Node000001_Node000003" class="edge">
<title>Node3&#45;&gt;Node1</title>
<g id="a_edge2_Node000001_Node000003"><a xlink:title=" ">
<path fill="none" stroke="#63b8ff" d="M111.5,-418.92C111.5,-409.41 111.5,-397.53 111.5,-384.19"/>
<polygon fill="none" stroke="#63b8ff" points="111.5,-384.11 107.5,-378.11 111.5,-372.11 115.5,-378.11 111.5,-384.11"/>
</a>
</g>
<text text-anchor="middle" x="142" y="-393" font-family="Helvetica,sans-Serif" font-size="10.00" fill="grey"> &#45;m_FilePath</text>
</g>
<!-- Node4 -->
<g id="Node000004" class="node">
<title>Node4</title>
<g id="a_Node000004"><a xlink:title=" ">
<polygon fill="white" stroke="transparent" points="325,-468 148,-468 148,-419 325,-419 325,-468"/>
<text text-anchor="start" x="153.5" y="-455.5" font-family="Helvetica,sans-Serif" font-size="10.00">unordered_map&lt; std::string, int &gt;</text>
<text text-anchor="start" x="235" y="-440.5" font-family="Helvetica,sans-Serif" font-size="10.00"> </text>
<text text-anchor="start" x="235" y="-425.5" font-family="Helvetica,sans-Serif" font-size="10.00"> </text>
<polygon fill="#666666" stroke="#666666" points="148.5,-450.5 148.5,-450.5 325.5,-450.5 325.5,-450.5 148.5,-450.5"/>
<polygon fill="#666666" stroke="#666666" points="148.5,-435.5 148.5,-435.5 325.5,-435.5 325.5,-435.5 148.5,-435.5"/>
<polygon fill="none" stroke="#666666" points="148,-419 148,-468 325,-468 325,-419 148,-419"/>
</a>
</g>
</g>
<!-- Node4&#45;&gt;Node1 -->
<g id="edge3_Node000001_Node000004" class="edge">
<title>Node4&#45;&gt;Node1</title>
<g id="a_edge3_Node000001_Node000004"><a xlink:title=" ">
<path fill="none" stroke="#63b8ff" d="M224.96,-418.92C220.17,-409.13 214.14,-396.8 207.38,-382.97"/>
<polygon fill="none" stroke="#63b8ff" points="207.34,-382.89 201.11,-379.26 202.06,-372.11 208.29,-375.74 207.34,-382.89"/>
</a>
</g>
<text text-anchor="middle" x="282" y="-393" font-family="Helvetica,sans-Serif" font-size="10.00" fill="grey"> &#45;m_UniformLocationCache</text>
</g>
</g>
</svg>
