<?xml version="1.0" encoding="UTF-8" standalone="no"?>
<!DOCTYPE svg PUBLIC "-//W3C//DTD SVG 1.1//EN"
 "http://www.w3.org/Graphics/SVG/1.1/DTD/svg11.dtd">
<!-- Generated by graphviz version 2.43.0 (0)
 -->
<!-- Title: IdentityManager Pages: 1 -->
<svg width="382pt" height="640pt"
 viewBox="0.00 0.00 382.00 640.00" xmlns="http://www.w3.org/2000/svg" xmlns:xlink="http://www.w3.org/1999/xlink">
<g id="graph0" class="graph" transform="scale(1 1) rotate(0) translate(4 636)">
<title>IdentityManager</title>
<!-- Node1 -->
<g id="Node000001" class="node">
<title>Node1</title>
<g id="a_Node000001"><a xlink:title=" ">
<polygon fill="#999999" stroke="transparent" points="239,-514 23,-514 23,0 239,0 239,-514"/>
<text text-anchor="start" x="90.5" y="-502" font-family="Helvetica,sans-Serif" font-size="10.00">IdentityManager</text>
<text text-anchor="start" x="129" y="-487" font-family="Helvetica,sans-Serif" font-size="10.00"> </text>
<text text-anchor="start" x="27" y="-472" font-family="Helvetica,sans-Serif" font-size="10.00">+</text>
<text text-anchor="start" x="40" y="-472" font-family="Helvetica,sans-Serif" font-size="10.00">bool loadMyIdentityFromFile()</text>
<text text-anchor="start" x="27" y="-457" font-family="Helvetica,sans-Serif" font-size="10.00">+</text>
<text text-anchor="start" x="40" y="-457" font-family="Helvetica,sans-Serif" font-size="10.00">bool saveMyIdentityToFile() const</text>
<text text-anchor="start" x="27" y="-442" font-family="Helvetica,sans-Serif" font-size="10.00">+</text>
<text text-anchor="start" x="40" y="-442" font-family="Helvetica,sans-Serif" font-size="10.00">void setMyIdentity(const std</text>
<text text-anchor="start" x="40" y="-431" font-family="Helvetica,sans-Serif" font-size="10.00">::string &amp;uniqueId, const std</text>
<text text-anchor="start" x="40" y="-420" font-family="Helvetica,sans-Serif" font-size="10.00">::string &amp;username)</text>
<text text-anchor="start" x="27" y="-405" font-family="Helvetica,sans-Serif" font-size="10.00">+</text>
<text text-anchor="start" x="40" y="-405" font-family="Helvetica,sans-Serif" font-size="10.00">const std::string &amp; myUniqueId() const</text>
<text text-anchor="start" x="27" y="-390" font-family="Helvetica,sans-Serif" font-size="10.00">+</text>
<text text-anchor="start" x="40" y="-390" font-family="Helvetica,sans-Serif" font-size="10.00">const std::string &amp; myUsername() const</text>
<text text-anchor="start" x="27" y="-375" font-family="Helvetica,sans-Serif" font-size="10.00">+</text>
<text text-anchor="start" x="40" y="-375" font-family="Helvetica,sans-Serif" font-size="10.00">bool loadAddressBookFromFile()</text>
<text text-anchor="start" x="27" y="-360" font-family="Helvetica,sans-Serif" font-size="10.00">+</text>
<text text-anchor="start" x="40" y="-360" font-family="Helvetica,sans-Serif" font-size="10.00">bool saveAddressBookToFile() const</text>
<text text-anchor="start" x="27" y="-345" font-family="Helvetica,sans-Serif" font-size="10.00">+</text>
<text text-anchor="start" x="40" y="-345" font-family="Helvetica,sans-Serif" font-size="10.00">void bindPeer(const std::string</text>
<text text-anchor="start" x="40" y="-334" font-family="Helvetica,sans-Serif" font-size="10.00"> &amp;peerId, const std::string &amp;uniqueId,</text>
<text text-anchor="start" x="40" y="-323" font-family="Helvetica,sans-Serif" font-size="10.00"> const std::string &amp;username)</text>
<text text-anchor="start" x="27" y="-308" font-family="Helvetica,sans-Serif" font-size="10.00">+</text>
<text text-anchor="start" x="40" y="-308" font-family="Helvetica,sans-Serif" font-size="10.00">std::string usernameForUnique</text>
<text text-anchor="start" x="40" y="-297" font-family="Helvetica,sans-Serif" font-size="10.00">(const std::string &amp;uniqueId) const</text>
<text text-anchor="start" x="27" y="-282" font-family="Helvetica,sans-Serif" font-size="10.00">+</text>
<text text-anchor="start" x="40" y="-282" font-family="Helvetica,sans-Serif" font-size="10.00">std::optional&lt; std::string</text>
<text text-anchor="start" x="40" y="-271" font-family="Helvetica,sans-Serif" font-size="10.00"> &gt; uniqueForPeer(const std::</text>
<text text-anchor="start" x="40" y="-260" font-family="Helvetica,sans-Serif" font-size="10.00">string &amp;peerId) const</text>
<text text-anchor="start" x="27" y="-245" font-family="Helvetica,sans-Serif" font-size="10.00">+</text>
<text text-anchor="start" x="40" y="-245" font-family="Helvetica,sans-Serif" font-size="10.00">std::optional&lt; std::string</text>
<text text-anchor="start" x="40" y="-234" font-family="Helvetica,sans-Serif" font-size="10.00"> &gt; peerForUnique(const std::</text>
<text text-anchor="start" x="40" y="-223" font-family="Helvetica,sans-Serif" font-size="10.00">string &amp;uniqueId) const</text>
<text text-anchor="start" x="27" y="-208" font-family="Helvetica,sans-Serif" font-size="10.00">+</text>
<text text-anchor="start" x="40" y="-208" font-family="Helvetica,sans-Serif" font-size="10.00">std::optional&lt; std::string</text>
<text text-anchor="start" x="40" y="-197" font-family="Helvetica,sans-Serif" font-size="10.00"> &gt; usernameForPeer(const std</text>
<text text-anchor="start" x="40" y="-186" font-family="Helvetica,sans-Serif" font-size="10.00">::string &amp;peerId) const</text>
<text text-anchor="start" x="27" y="-171" font-family="Helvetica,sans-Serif" font-size="10.00">+</text>
<text text-anchor="start" x="40" y="-171" font-family="Helvetica,sans-Serif" font-size="10.00">void setUsernameForUnique(const</text>
<text text-anchor="start" x="40" y="-160" font-family="Helvetica,sans-Serif" font-size="10.00"> std::string &amp;uniqueId, const</text>
<text text-anchor="start" x="40" y="-149" font-family="Helvetica,sans-Serif" font-size="10.00"> std::string &amp;username)</text>
<text text-anchor="start" x="27" y="-134" font-family="Helvetica,sans-Serif" font-size="10.00">+</text>
<text text-anchor="start" x="40" y="-134" font-family="Helvetica,sans-Serif" font-size="10.00">const std::unordered_map&lt; std</text>
<text text-anchor="start" x="40" y="-123" font-family="Helvetica,sans-Serif" font-size="10.00">::string, PeerIdentity &gt; &amp; all() const</text>
<text text-anchor="start" x="27" y="-108" font-family="Helvetica,sans-Serif" font-size="10.00">+</text>
<text text-anchor="start" x="40" y="-108" font-family="Helvetica,sans-Serif" font-size="10.00">void erasePeer(const std::string</text>
<text text-anchor="start" x="40" y="-97" font-family="Helvetica,sans-Serif" font-size="10.00"> &amp;peerId)</text>
<text text-anchor="start" x="29.5" y="-82" font-family="Helvetica,sans-Serif" font-size="10.00">&#45;</text>
<text text-anchor="start" x="40" y="-82" font-family="Helvetica,sans-Serif" font-size="10.00">bool writeMeFile() const</text>
<text text-anchor="start" x="29.5" y="-67" font-family="Helvetica,sans-Serif" font-size="10.00">&#45;</text>
<text text-anchor="start" x="40" y="-67" font-family="Helvetica,sans-Serif" font-size="10.00">bool readMeFile()</text>
<text text-anchor="start" x="29.5" y="-52" font-family="Helvetica,sans-Serif" font-size="10.00">&#45;</text>
<text text-anchor="start" x="40" y="-52" font-family="Helvetica,sans-Serif" font-size="10.00">bool writeBookFile() const</text>
<text text-anchor="start" x="29.5" y="-37" font-family="Helvetica,sans-Serif" font-size="10.00">&#45;</text>
<text text-anchor="start" x="40" y="-37" font-family="Helvetica,sans-Serif" font-size="10.00">bool readBookFile()</text>
<text text-anchor="start" x="29.5" y="-22" font-family="Helvetica,sans-Serif" font-size="10.00">&#45;</text>
<text text-anchor="start" x="40" y="-22" font-family="Helvetica,sans-Serif" font-size="10.00">static const char * kMeFile()</text>
<text text-anchor="start" x="29.5" y="-7" font-family="Helvetica,sans-Serif" font-size="10.00">&#45;</text>
<text text-anchor="start" x="40" y="-7" font-family="Helvetica,sans-Serif" font-size="10.00">static const char * kBookFile()</text>
<polygon fill="#666666" stroke="#666666" points="23,-497 23,-497 239,-497 239,-497 23,-497"/>
<polygon fill="#666666" stroke="#666666" points="23,-482 23,-482 239,-482 239,-482 23,-482"/>
<polygon fill="none" stroke="#666666" points="23,0 23,-514 239,-514 239,0 23,0"/>
</a>
</g>
</g>
<!-- Node2 -->
<g id="Node000002" class="node">
<title>Node2</title>
<g id="a_Node000002"><a xlink:title=" ">
<polygon fill="white" stroke="transparent" points="38,-626.5 0,-626.5 0,-577.5 38,-577.5 38,-626.5"/>
<text text-anchor="start" x="5" y="-614" font-family="Helvetica,sans-Serif" font-size="10.00">string</text>
<text text-anchor="start" x="17" y="-599" font-family="Helvetica,sans-Serif" font-size="10.00"> </text>
<text text-anchor="start" x="17" y="-584" font-family="Helvetica,sans-Serif" font-size="10.00"> </text>
<polygon fill="#666666" stroke="#666666" points="0,-609 0,-609 38,-609 38,-609 0,-609"/>
<polygon fill="#666666" stroke="#666666" points="0,-594 0,-594 38,-594 38,-594 0,-594"/>
<polygon fill="none" stroke="#666666" points="0,-577.5 0,-626.5 38,-626.5 38,-577.5 0,-577.5"/>
</a>
</g>
</g>
<!-- Node2&#45;&gt;Node1 -->
<g id="edge1_Node000001_Node000002" class="edge">
<title>Node2&#45;&gt;Node1</title>
<g id="a_edge1_Node000001_Node000002"><a xlink:title=" ">
<path fill="none" stroke="#63b8ff" d="M26.7,-577.42C30.97,-564.33 36.78,-546.55 43.48,-526.04"/>
<polygon fill="none" stroke="#63b8ff" points="43.56,-525.78 41.62,-518.83 47.29,-514.37 49.23,-521.32 43.56,-525.78"/>
</a>
</g>
<text text-anchor="middle" x="79" y="-546" font-family="Helvetica,sans-Serif" font-size="10.00" fill="grey"> &#45;myUniqueId_</text>
<text text-anchor="middle" x="79" y="-535" font-family="Helvetica,sans-Serif" font-size="10.00" fill="grey">&#45;myUsername_</text>
</g>
<!-- Node3 -->
<g id="Node000003" class="node">
<title>Node3</title>
<g id="a_Node000003"><a xlink:title=" ">
<polygon fill="white" stroke="transparent" points="206,-632 56,-632 56,-572 206,-572 206,-632"/>
<text text-anchor="start" x="61" y="-620" font-family="Helvetica,sans-Serif" font-size="10.00">unordered_map&lt; std::string,</text>
<text text-anchor="start" x="94" y="-609" font-family="Helvetica,sans-Serif" font-size="10.00"> PeerIdentity &gt;</text>
<text text-anchor="start" x="129" y="-594" font-family="Helvetica,sans-Serif" font-size="10.00"> </text>
<text text-anchor="start" x="129" y="-579" font-family="Helvetica,sans-Serif" font-size="10.00"> </text>
<polygon fill="#666666" stroke="#666666" points="56,-604 56,-604 206,-604 206,-604 56,-604"/>
<polygon fill="#666666" stroke="#666666" points="56,-589 56,-589 206,-589 206,-589 56,-589"/>
<polygon fill="none" stroke="#666666" points="56,-572 56,-632 206,-632 206,-572 56,-572"/>
</a>
</g>
</g>
<!-- Node3&#45;&gt;Node1 -->
<g id="edge2_Node000001_Node000003" class="edge">
<title>Node3&#45;&gt;Node1</title>
<g id="a_edge2_Node000001_Node000003"><a xlink:title=" ">
<path fill="none" stroke="#63b8ff" d="M131,-571.76C131,-559.46 131,-543.9 131,-526.33"/>
<polygon fill="none" stroke="#63b8ff" points="131,-526.19 127,-520.19 131,-514.19 135,-520.19 131,-526.19"/>
</a>
</g>
<text text-anchor="middle" x="160.5" y="-540.5" font-family="Helvetica,sans-Serif" font-size="10.00" fill="grey"> &#45;byUnique_</text>
</g>
<!-- Node4 -->
<g id="Node000004" class="node">
<title>Node4</title>
<g id="a_Node000004"><a xlink:title=" ">
<polygon fill="white" stroke="transparent" points="374,-632 224,-632 224,-572 374,-572 374,-632"/>
<text text-anchor="start" x="229" y="-620" font-family="Helvetica,sans-Serif" font-size="10.00">unordered_map&lt; std::string,</text>
<text text-anchor="start" x="267" y="-609" font-family="Helvetica,sans-Serif" font-size="10.00"> std::string &gt;</text>
<text text-anchor="start" x="297" y="-594" font-family="Helvetica,sans-Serif" font-size="10.00"> </text>
<text text-anchor="start" x="297" y="-579" font-family="Helvetica,sans-Serif" font-size="10.00"> </text>
<polygon fill="#666666" stroke="#666666" points="224,-604 224,-604 374,-604 374,-604 224,-604"/>
<polygon fill="#666666" stroke="#666666" points="224,-589 224,-589 374,-589 374,-589 224,-589"/>
<polygon fill="none" stroke="#666666" points="224,-572 224,-632 374,-632 374,-572 224,-572"/>
</a>
</g>
</g>
<!-- Node4&#45;&gt;Node1 -->
<g id="edge3_Node000001_Node000004" class="edge">
<title>Node4&#45;&gt;Node1</title>
<g id="a_edge3_Node000001_Node000004"><a xlink:title=" ">
<path fill="none" stroke="#63b8ff" d="M284.68,-571.76C274.73,-551.45 260.45,-522.29 244.54,-489.82"/>
<polygon fill="none" stroke="#63b8ff" points="244.37,-489.46 238.14,-485.83 239.09,-478.69 245.32,-482.31 244.37,-489.46"/>
</a>
</g>
<text text-anchor="middle" x="313.5" y="-540.5" font-family="Helvetica,sans-Serif" font-size="10.00" fill="grey"> &#45;peerToUnique_</text>
</g>
</g>
</svg>
