<?xml version="1.0" encoding="UTF-8" standalone="no"?>
<!DOCTYPE svg PUBLIC "-//W3C//DTD SVG 1.1//EN"
 "http://www.w3.org/Graphics/SVG/1.1/DTD/svg11.dtd">
<!-- Generated by graphviz version 2.43.0 (0)
 -->
<!-- Title: AssetIO::assetsDir Pages: 1 -->
<svg width="526pt" height="64pt"
 viewBox="0.00 0.00 526.00 64.00" xmlns="http://www.w3.org/2000/svg" xmlns:xlink="http://www.w3.org/1999/xlink">
<g id="graph0" class="graph" transform="scale(1 1) rotate(0) translate(4 60)">
<title>AssetIO::assetsDir</title>
<!-- Node1 -->
<g id="Node000001" class="node">
<title>Node1</title>
<g id="a_Node000001"><a xlink:title=" ">
<polygon fill="#999999" stroke="#666666" points="106,-37 0,-37 0,-18 106,-18 106,-37"/>
<text text-anchor="middle" x="53" y="-25" font-family="Helvetica,sans-Serif" font-size="10.00">AssetIO::assetsDir</text>
</a>
</g>
</g>
<!-- Node2 -->
<g id="Node000002" class="node">
<title>Node2</title>
<g id="a_Node000002"><a xlink:href="../../d8/dec/classPathManager.html#ae75b72eb67617d77136a829eb73c7e8f" target="_top" xlink:title=" ">
<polygon fill="white" stroke="#666666" points="297.5,-56 148.5,-56 148.5,-37 297.5,-37 297.5,-56"/>
<text text-anchor="middle" x="223" y="-44" font-family="Helvetica,sans-Serif" font-size="10.00">PathManager::getMapsPath</text>
</a>
</g>
</g>
<!-- Node1&#45;&gt;Node2 -->
<g id="edge1_Node000001_Node000002" class="edge">
<title>Node1&#45;&gt;Node2</title>
<g id="a_edge1_Node000001_Node000002"><a xlink:title=" ">
<path fill="none" stroke="#63b8ff" d="M106.24,-33.41C116.41,-34.56 127.32,-35.79 138.22,-37.02"/>
<polygon fill="#63b8ff" stroke="#63b8ff" points="137.88,-40.51 148.21,-38.15 138.67,-33.55 137.88,-40.51"/>
</a>
</g>
</g>
<!-- Node4 -->
<g id="Node000004" class="node">
<title>Node4</title>
<g id="a_Node000004"><a xlink:href="../../d8/dec/classPathManager.html#a220ff032714c927e1a2a8ea81d863331" target="_top" xlink:title=" ">
<polygon fill="white" stroke="#666666" points="304,-19 142,-19 142,0 304,0 304,-19"/>
<text text-anchor="middle" x="223" y="-7" font-family="Helvetica,sans-Serif" font-size="10.00">PathManager::getMarkersPath</text>
</a>
</g>
</g>
<!-- Node1&#45;&gt;Node4 -->
<g id="edge3_Node000001_Node000004" class="edge">
<title>Node1&#45;&gt;Node4</title>
<g id="a_edge3_Node000001_Node000004"><a xlink:title=" ">
<path fill="none" stroke="#63b8ff" d="M106.24,-21.9C114.34,-21.04 122.9,-20.12 131.55,-19.19"/>
<polygon fill="#63b8ff" stroke="#63b8ff" points="132.16,-22.65 141.73,-18.1 131.41,-15.69 132.16,-22.65"/>
</a>
</g>
</g>
<!-- Node3 -->
<g id="Node000003" class="node">
<title>Node3</title>
<g id="a_Node000003"><a xlink:href="../../d8/dec/classPathManager.html#a467b459b77c73cbc7544551b53911fcd" target="_top" xlink:title=" ">
<polygon fill="white" stroke="#666666" points="518,-37 340,-37 340,-18 518,-18 518,-37"/>
<text text-anchor="middle" x="429" y="-25" font-family="Helvetica,sans-Serif" font-size="10.00">PathManager::getExecutableRoot</text>
</a>
</g>
</g>
<!-- Node2&#45;&gt;Node3 -->
<g id="edge2_Node000002_Node000003" class="edge">
<title>Node2&#45;&gt;Node3</title>
<g id="a_edge2_Node000002_Node000003"><a xlink:title=" ">
<path fill="none" stroke="#63b8ff" d="M297.65,-39.64C308.03,-38.67 318.83,-37.67 329.58,-36.67"/>
<polygon fill="#63b8ff" stroke="#63b8ff" points="330.23,-40.12 339.86,-35.71 329.58,-33.15 330.23,-40.12"/>
</a>
</g>
</g>
<!-- Node4&#45;&gt;Node3 -->
<g id="edge4_Node000004_Node000003" class="edge">
<title>Node4&#45;&gt;Node3</title>
<g id="a_edge4_Node000004_Node000003"><a xlink:title=" ">
<path fill="none" stroke="#63b8ff" d="M304.04,-16.56C312.46,-17.31 321.1,-18.07 329.7,-18.83"/>
<polygon fill="#63b8ff" stroke="#63b8ff" points="329.49,-22.32 339.76,-19.71 330.11,-15.35 329.49,-22.32"/>
</a>
</g>
</g>
</g>
</svg>
