<?xml version="1.0" encoding="UTF-8" standalone="no"?>
<!DOCTYPE svg PUBLIC "-//W3C//DTD SVG 1.1//EN"
 "http://www.w3.org/Graphics/SVG/1.1/DTD/svg11.dtd">
<!-- Generated by graphviz version 2.43.0 (0)
 -->
<!-- Title: AssetIO::uniqueName Pages: 1 -->
<svg width="931pt" height="101pt"
 viewBox="0.00 0.00 931.00 101.00" xmlns="http://www.w3.org/2000/svg" xmlns:xlink="http://www.w3.org/1999/xlink">
<g id="graph0" class="graph" transform="scale(1 1) rotate(0) translate(4 97)">
<title>AssetIO::uniqueName</title>
<!-- Node1 -->
<g id="Node000001" class="node">
<title>Node1</title>
<g id="a_Node000001"><a xlink:title=" ">
<polygon fill="#999999" stroke="#666666" points="923,-37 801,-37 801,-18 923,-18 923,-37"/>
<text text-anchor="middle" x="862" y="-25" font-family="Helvetica,sans-Serif" font-size="10.00">AssetIO::uniqueName</text>
</a>
</g>
</g>
<!-- Node2 -->
<g id="Node000002" class="node">
<title>Node2</title>
<g id="a_Node000002"><a xlink:href="../../d0/d86/namespaceAssetIO.html#a2dde48f62f629e1a03ca0835f8a80908" target="_top" xlink:title=" ">
<polygon fill="white" stroke="#666666" points="765,-56 627,-56 627,-37 765,-37 765,-56"/>
<text text-anchor="middle" x="696" y="-44" font-family="Helvetica,sans-Serif" font-size="10.00">AssetIO::importFromPath</text>
</a>
</g>
</g>
<!-- Node1&#45;&gt;Node2 -->
<g id="edge1_Node000001_Node000002" class="edge">
<title>Node1&#45;&gt;Node2</title>
<g id="a_edge1_Node000001_Node000002"><a xlink:title=" ">
<path fill="none" stroke="#63b8ff" d="M790.66,-35.65C782.21,-36.63 773.59,-37.63 765.17,-38.6"/>
<polygon fill="#63b8ff" stroke="#63b8ff" points="791.33,-39.09 800.86,-34.47 790.53,-32.14 791.33,-39.09"/>
</a>
</g>
</g>
<!-- Node7 -->
<g id="Node000007" class="node">
<title>Node7</title>
<g id="a_Node000007"><a xlink:href="../../d0/d86/namespaceAssetIO.html#a59ef49474071594c07f8c4620b60ba92" target="_top" xlink:title=" ">
<polygon fill="white" stroke="#666666" points="761.5,-19 630.5,-19 630.5,0 761.5,0 761.5,-19"/>
<text text-anchor="middle" x="696" y="-7" font-family="Helvetica,sans-Serif" font-size="10.00">AssetIO::importFromUrl</text>
</a>
</g>
</g>
<!-- Node1&#45;&gt;Node7 -->
<g id="edge6_Node000001_Node000007" class="edge">
<title>Node1&#45;&gt;Node7</title>
<g id="a_edge6_Node000001_Node000007"><a xlink:title=" ">
<path fill="none" stroke="#63b8ff" d="M790.84,-19.8C781.11,-18.73 771.16,-17.64 761.54,-16.58"/>
<polygon fill="#63b8ff" stroke="#63b8ff" points="790.54,-23.29 800.86,-20.9 791.31,-16.33 790.54,-23.29"/>
</a>
</g>
</g>
<!-- Node3 -->
<g id="Node000003" class="node">
<title>Node3</title>
<g id="a_Node000003"><a xlink:href="../../d0/d86/namespaceAssetIO.html#a0fd129212ac4835f913af0761824df9a" target="_top" xlink:title=" ">
<polygon fill="white" stroke="#666666" points="577.5,-93 431.5,-93 431.5,-74 577.5,-74 577.5,-93"/>
<text text-anchor="middle" x="504.5" y="-81" font-family="Helvetica,sans-Serif" font-size="10.00">AssetIO::importFromPicker</text>
</a>
</g>
</g>
<!-- Node2&#45;&gt;Node3 -->
<g id="edge2_Node000002_Node000003" class="edge">
<title>Node2&#45;&gt;Node3</title>
<g id="a_edge2_Node000002_Node000003"><a xlink:title=" ">
<path fill="none" stroke="#63b8ff" d="M636.37,-57.95C610.1,-63.08 579.48,-69.06 554.46,-73.94"/>
<polygon fill="#63b8ff" stroke="#63b8ff" points="637.06,-61.38 646.2,-56.03 635.71,-54.51 637.06,-61.38"/>
</a>
</g>
</g>
<!-- Node4 -->
<g id="Node000004" class="node">
<title>Node4</title>
<g id="a_Node000004"><a xlink:href="../../d0/d86/namespaceAssetIO.html#ad87dd90acfa0487b69d4a53c32e1940d" target="_top" xlink:title=" ">
<polygon fill="white" stroke="#666666" points="591,-56 418,-56 418,-37 591,-37 591,-56"/>
<text text-anchor="middle" x="504.5" y="-44" font-family="Helvetica,sans-Serif" font-size="10.00">AssetIO::importManyFromPicker</text>
</a>
</g>
</g>
<!-- Node2&#45;&gt;Node4 -->
<g id="edge3_Node000002_Node000004" class="edge">
<title>Node2&#45;&gt;Node4</title>
<g id="a_edge3_Node000002_Node000004"><a xlink:title=" ">
<path fill="none" stroke="#63b8ff" d="M616.7,-46.5C608.28,-46.5 599.69,-46.5 591.2,-46.5"/>
<polygon fill="#63b8ff" stroke="#63b8ff" points="616.85,-50 626.85,-46.5 616.85,-43 616.85,-50"/>
</a>
</g>
</g>
<!-- Node5 -->
<g id="Node000005" class="node">
<title>Node5</title>
<g id="a_Node000005"><a xlink:href="../../d8/d43/classApplicationHandler.html#a98e49f0d6038bf4caeed77b4d03b003c" target="_top" xlink:title=" ">
<polygon fill="white" stroke="#666666" points="382,-56 167,-56 167,-37 382,-37 382,-56"/>
<text text-anchor="middle" x="274.5" y="-44" font-family="Helvetica,sans-Serif" font-size="10.00">ApplicationHandler::renderMainMenuBar</text>
</a>
</g>
</g>
<!-- Node4&#45;&gt;Node5 -->
<g id="edge4_Node000004_Node000005" class="edge">
<title>Node4&#45;&gt;Node5</title>
<g id="a_edge4_Node000004_Node000005"><a xlink:title=" ">
<path fill="none" stroke="#63b8ff" d="M407.78,-46.5C399.37,-46.5 390.83,-46.5 382.34,-46.5"/>
<polygon fill="#63b8ff" stroke="#63b8ff" points="407.95,-50 417.95,-46.5 407.95,-43 407.95,-50"/>
</a>
</g>
</g>
<!-- Node6 -->
<g id="Node000006" class="node">
<title>Node6</title>
<g id="a_Node000006"><a xlink:href="../../d8/d43/classApplicationHandler.html#afaf00f4f20eca3fec59f8f02f76ef2ce" target="_top" xlink:title=" ">
<polygon fill="white" stroke="#666666" points="131,-56 0,-56 0,-37 131,-37 131,-56"/>
<text text-anchor="middle" x="65.5" y="-44" font-family="Helvetica,sans-Serif" font-size="10.00">ApplicationHandler::run</text>
</a>
</g>
</g>
<!-- Node5&#45;&gt;Node6 -->
<g id="edge5_Node000005_Node000006" class="edge">
<title>Node5&#45;&gt;Node6</title>
<g id="a_edge5_Node000005_Node000006"><a xlink:title=" ">
<path fill="none" stroke="#63b8ff" d="M156.72,-46.5C148.02,-46.5 139.45,-46.5 131.26,-46.5"/>
<polygon fill="#63b8ff" stroke="#63b8ff" points="156.97,-50 166.97,-46.5 156.97,-43 156.97,-50"/>
</a>
</g>
</g>
<!-- Node8 -->
<g id="Node000008" class="node">
<title>Node8</title>
<g id="a_Node000008"><a xlink:href="../../d0/d86/namespaceAssetIO.html#a9745e8f40c71e624d1f3c2670108ff23" target="_top" xlink:title=" ">
<polygon fill="white" stroke="#666666" points="583,-19 426,-19 426,0 583,0 583,-19"/>
<text text-anchor="middle" x="504.5" y="-7" font-family="Helvetica,sans-Serif" font-size="10.00">AssetIO::openUrlAssetPopUp</text>
</a>
</g>
</g>
<!-- Node7&#45;&gt;Node8 -->
<g id="edge7_Node000007_Node000008" class="edge">
<title>Node7&#45;&gt;Node8</title>
<g id="a_edge7_Node000007_Node000008"><a xlink:title=" ">
<path fill="none" stroke="#63b8ff" d="M620.25,-9.5C608.11,-9.5 595.52,-9.5 583.32,-9.5"/>
<polygon fill="#63b8ff" stroke="#63b8ff" points="620.31,-13 630.31,-9.5 620.31,-6 620.31,-13"/>
</a>
</g>
</g>
</g>
</svg>
