<?xml version="1.0" encoding="UTF-8" standalone="no"?>
<!DOCTYPE svg PUBLIC "-//W3C//DTD SVG 1.1//EN"
 "http://www.w3.org/Graphics/SVG/1.1/DTD/svg11.dtd">
<!-- Generated by graphviz version 2.43.0 (0)
 -->
<!-- Title: AssetIO::deleteAsset Pages: 1 -->
<svg width="680pt" height="64pt"
 viewBox="0.00 0.00 680.00 64.00" xmlns="http://www.w3.org/2000/svg" xmlns:xlink="http://www.w3.org/1999/xlink">
<g id="graph0" class="graph" transform="scale(1 1) rotate(0) translate(4 60)">
<title>AssetIO::deleteAsset</title>
<!-- Node1 -->
<g id="Node000001" class="node">
<title>Node1</title>
<g id="a_Node000001"><a xlink:title=" ">
<polygon fill="#999999" stroke="#666666" points="118,-37 0,-37 0,-18 118,-18 118,-37"/>
<text text-anchor="middle" x="59" y="-25" font-family="Helvetica,sans-Serif" font-size="10.00">AssetIO::deleteAsset</text>
</a>
</g>
</g>
<!-- Node2 -->
<g id="Node000002" class="node">
<title>Node2</title>
<g id="a_Node000002"><a xlink:href="../../d0/d86/namespaceAssetIO.html#a8f3732300c549d06588e8fb8e0b08c4b" target="_top" xlink:title=" ">
<polygon fill="white" stroke="#666666" points="260,-37 154,-37 154,-18 260,-18 260,-37"/>
<text text-anchor="middle" x="207" y="-25" font-family="Helvetica,sans-Serif" font-size="10.00">AssetIO::assetsDir</text>
</a>
</g>
</g>
<!-- Node1&#45;&gt;Node2 -->
<g id="edge1_Node000001_Node000002" class="edge">
<title>Node1&#45;&gt;Node2</title>
<g id="a_edge1_Node000001_Node000002"><a xlink:title=" ">
<path fill="none" stroke="#63b8ff" d="M118.12,-27.5C126.49,-27.5 135.13,-27.5 143.58,-27.5"/>
<polygon fill="#63b8ff" stroke="#63b8ff" points="143.75,-31 153.75,-27.5 143.75,-24 143.75,-31"/>
</a>
</g>
</g>
<!-- Node3 -->
<g id="Node000003" class="node">
<title>Node3</title>
<g id="a_Node000003"><a xlink:href="../../d8/dec/classPathManager.html#ae75b72eb67617d77136a829eb73c7e8f" target="_top" xlink:title=" ">
<polygon fill="white" stroke="#666666" points="451.5,-56 302.5,-56 302.5,-37 451.5,-37 451.5,-56"/>
<text text-anchor="middle" x="377" y="-44" font-family="Helvetica,sans-Serif" font-size="10.00">PathManager::getMapsPath</text>
</a>
</g>
</g>
<!-- Node2&#45;&gt;Node3 -->
<g id="edge2_Node000002_Node000003" class="edge">
<title>Node2&#45;&gt;Node3</title>
<g id="a_edge2_Node000002_Node000003"><a xlink:title=" ">
<path fill="none" stroke="#63b8ff" d="M260.24,-33.41C270.41,-34.56 281.32,-35.79 292.22,-37.02"/>
<polygon fill="#63b8ff" stroke="#63b8ff" points="291.88,-40.51 302.21,-38.15 292.67,-33.55 291.88,-40.51"/>
</a>
</g>
</g>
<!-- Node5 -->
<g id="Node000005" class="node">
<title>Node5</title>
<g id="a_Node000005"><a xlink:href="../../d8/dec/classPathManager.html#a220ff032714c927e1a2a8ea81d863331" target="_top" xlink:title=" ">
<polygon fill="white" stroke="#666666" points="458,-19 296,-19 296,0 458,0 458,-19"/>
<text text-anchor="middle" x="377" y="-7" font-family="Helvetica,sans-Serif" font-size="10.00">PathManager::getMarkersPath</text>
</a>
</g>
</g>
<!-- Node2&#45;&gt;Node5 -->
<g id="edge4_Node000002_Node000005" class="edge">
<title>Node2&#45;&gt;Node5</title>
<g id="a_edge4_Node000002_Node000005"><a xlink:title=" ">
<path fill="none" stroke="#63b8ff" d="M260.24,-21.9C268.34,-21.04 276.9,-20.12 285.55,-19.19"/>
<polygon fill="#63b8ff" stroke="#63b8ff" points="286.16,-22.65 295.73,-18.1 285.41,-15.69 286.16,-22.65"/>
</a>
</g>
</g>
<!-- Node4 -->
<g id="Node000004" class="node">
<title>Node4</title>
<g id="a_Node000004"><a xlink:href="../../d8/dec/classPathManager.html#a467b459b77c73cbc7544551b53911fcd" target="_top" xlink:title=" ">
<polygon fill="white" stroke="#666666" points="672,-37 494,-37 494,-18 672,-18 672,-37"/>
<text text-anchor="middle" x="583" y="-25" font-family="Helvetica,sans-Serif" font-size="10.00">PathManager::getExecutableRoot</text>
</a>
</g>
</g>
<!-- Node3&#45;&gt;Node4 -->
<g id="edge3_Node000003_Node000004" class="edge">
<title>Node3&#45;&gt;Node4</title>
<g id="a_edge3_Node000003_Node000004"><a xlink:title=" ">
<path fill="none" stroke="#63b8ff" d="M451.65,-39.64C462.03,-38.67 472.83,-37.67 483.58,-36.67"/>
<polygon fill="#63b8ff" stroke="#63b8ff" points="484.23,-40.12 493.86,-35.71 483.58,-33.15 484.23,-40.12"/>
</a>
</g>
</g>
<!-- Node5&#45;&gt;Node4 -->
<g id="edge5_Node000005_Node000004" class="edge">
<title>Node5&#45;&gt;Node4</title>
<g id="a_edge5_Node000005_Node000004"><a xlink:title=" ">
<path fill="none" stroke="#63b8ff" d="M458.04,-16.56C466.46,-17.31 475.1,-18.07 483.7,-18.83"/>
<polygon fill="#63b8ff" stroke="#63b8ff" points="483.49,-22.32 493.76,-19.71 484.11,-15.35 483.49,-22.32"/>
</a>
</g>
</g>
</g>
</svg>
