<?xml version="1.0" encoding="UTF-8" standalone="no"?>
<!DOCTYPE svg PUBLIC "-//W3C//DTD SVG 1.1//EN"
 "http://www.w3.org/Graphics/SVG/1.1/DTD/svg11.dtd">
<!-- Generated by graphviz version 2.43.0 (0)
 -->
<!-- Title: AssetIO::assetsDir Pages: 1 -->
<svg width="917pt" height="162pt"
 viewBox="0.00 0.00 917.00 162.12" xmlns="http://www.w3.org/2000/svg" xmlns:xlink="http://www.w3.org/1999/xlink">
<g id="graph0" class="graph" transform="scale(1 1) rotate(0) translate(4 158.12)">
<title>AssetIO::assetsDir</title>
<!-- Node1 -->
<g id="Node000001" class="node">
<title>Node1</title>
<g id="a_Node000001"><a xlink:title=" ">
<polygon fill="#999999" stroke="#666666" points="909,-80.12 803,-80.12 803,-61.12 909,-61.12 909,-80.12"/>
<text text-anchor="middle" x="856" y="-68.12" font-family="Helvetica,sans-Serif" font-size="10.00">AssetIO::assetsDir</text>
</a>
</g>
</g>
<!-- Node2 -->
<g id="Node000002" class="node">
<title>Node2</title>
<g id="a_Node000002"><a xlink:href="../../d0/d86/namespaceAssetIO.html#a221136262c8cd709c901e55946f3eca9" target="_top" xlink:title=" ">
<polygon fill="white" stroke="#666666" points="757,-154.12 639,-154.12 639,-135.12 757,-135.12 757,-154.12"/>
<text text-anchor="middle" x="698" y="-142.12" font-family="Helvetica,sans-Serif" font-size="10.00">AssetIO::deleteAsset</text>
</a>
</g>
</g>
<!-- Node1&#45;&gt;Node2 -->
<g id="edge1_Node000001_Node000002" class="edge">
<title>Node1&#45;&gt;Node2</title>
<g id="a_edge1_Node000001_Node000002"><a xlink:title=" ">
<path fill="none" stroke="#63b8ff" d="M834.4,-86.33C817.19,-98.8 791.58,-115.86 767,-126.62 759.5,-129.9 751.28,-132.7 743.21,-135.04"/>
<polygon fill="#63b8ff" stroke="#63b8ff" points="836.61,-89.04 842.58,-80.29 832.46,-83.41 836.61,-89.04"/>
</a>
</g>
</g>
<!-- Node6 -->
<g id="Node000006" class="node">
<title>Node6</title>
<g id="a_Node000006"><a xlink:href="../../d0/d86/namespaceAssetIO.html#a2dde48f62f629e1a03ca0835f8a80908" target="_top" xlink:title=" ">
<polygon fill="white" stroke="#666666" points="767,-80.12 629,-80.12 629,-61.12 767,-61.12 767,-80.12"/>
<text text-anchor="middle" x="698" y="-68.12" font-family="Helvetica,sans-Serif" font-size="10.00">AssetIO::importFromPath</text>
</a>
</g>
</g>
<!-- Node1&#45;&gt;Node6 -->
<g id="edge5_Node000001_Node000006" class="edge">
<title>Node1&#45;&gt;Node6</title>
<g id="a_edge5_Node000001_Node000006"><a xlink:title=" ">
<path fill="none" stroke="#63b8ff" d="M792.54,-70.62C784.15,-70.62 775.51,-70.62 767.03,-70.62"/>
<polygon fill="#63b8ff" stroke="#63b8ff" points="792.62,-74.12 802.62,-70.62 792.62,-67.12 792.62,-74.12"/>
</a>
</g>
</g>
<!-- Node9 -->
<g id="Node000009" class="node">
<title>Node9</title>
<g id="a_Node000009"><a xlink:href="../../d0/d86/namespaceAssetIO.html#a59ef49474071594c07f8c4620b60ba92" target="_top" xlink:title=" ">
<polygon fill="white" stroke="#666666" points="763.5,-43.12 632.5,-43.12 632.5,-24.12 763.5,-24.12 763.5,-43.12"/>
<text text-anchor="middle" x="698" y="-31.12" font-family="Helvetica,sans-Serif" font-size="10.00">AssetIO::importFromUrl</text>
</a>
</g>
</g>
<!-- Node1&#45;&gt;Node9 -->
<g id="edge9_Node000001_Node000009" class="edge">
<title>Node1&#45;&gt;Node9</title>
<g id="a_edge9_Node000001_Node000009"><a xlink:title=" ">
<path fill="none" stroke="#63b8ff" d="M805.01,-58.77C783.78,-53.73 759.36,-47.94 739.31,-43.18"/>
<polygon fill="#63b8ff" stroke="#63b8ff" points="804.29,-62.19 814.83,-61.09 805.9,-55.38 804.29,-62.19"/>
</a>
</g>
</g>
<!-- Node10 -->
<g id="Node000010" class="node">
<title>Node10</title>
<g id="a_Node000010"><a xlink:href="../../d0/d86/namespaceAssetIO.html#a9745e8f40c71e624d1f3c2670108ff23" target="_top" xlink:title=" ">
<polygon fill="white" stroke="#666666" points="584,-24.12 427,-24.12 427,-5.12 584,-5.12 584,-24.12"/>
<text text-anchor="middle" x="505.5" y="-12.12" font-family="Helvetica,sans-Serif" font-size="10.00">AssetIO::openUrlAssetPopUp</text>
</a>
</g>
</g>
<!-- Node1&#45;&gt;Node10 -->
<g id="edge13_Node000001_Node000010" class="edge">
<title>Node1&#45;&gt;Node10</title>
<g id="a_edge13_Node000001_Node000010"><a xlink:title=" ">
<path fill="none" stroke="#63b8ff" d="M836.46,-54.33C819.64,-40.72 793.5,-22.34 767,-14.62 701,4.6 621.54,0.99 567.87,-5.11"/>
<polygon fill="#63b8ff" stroke="#63b8ff" points="834.44,-57.2 844.35,-60.93 838.92,-51.83 834.44,-57.2"/>
</a>
</g>
</g>
<!-- Node11 -->
<g id="Node000011" class="node">
<title>Node11</title>
<g id="a_Node000011"><a xlink:href="../../d0/d86/namespaceAssetIO.html#a6da5c9b209c7a914fe8080e1545fd616" target="_top" xlink:title=" ">
<polygon fill="white" stroke="#666666" points="751.5,-117.12 644.5,-117.12 644.5,-98.12 751.5,-98.12 751.5,-117.12"/>
<text text-anchor="middle" x="698" y="-105.12" font-family="Helvetica,sans-Serif" font-size="10.00">AssetIO::listAssets</text>
</a>
</g>
</g>
<!-- Node1&#45;&gt;Node11 -->
<g id="edge11_Node000001_Node000011" class="edge">
<title>Node1&#45;&gt;Node11</title>
<g id="a_edge11_Node000001_Node000011"><a xlink:title=" ">
<path fill="none" stroke="#63b8ff" d="M805.01,-82.48C783.78,-87.51 759.36,-93.31 739.31,-98.06"/>
<polygon fill="#63b8ff" stroke="#63b8ff" points="805.9,-85.86 814.83,-80.15 804.29,-79.05 805.9,-85.86"/>
</a>
</g>
</g>
<!-- Node3 -->
<g id="Node000003" class="node">
<title>Node3</title>
<g id="a_Node000003"><a xlink:href="../../d0/d86/namespaceAssetIO.html#ab942f6ec954acc3ffa2d6d46fd3f8a66" target="_top" xlink:title=" ">
<polygon fill="white" stroke="#666666" points="593,-135.12 418,-135.12 418,-116.12 593,-116.12 593,-135.12"/>
<text text-anchor="middle" x="505.5" y="-123.12" font-family="Helvetica,sans-Serif" font-size="10.00">AssetIO::openDeleteAssetPopUp</text>
</a>
</g>
</g>
<!-- Node2&#45;&gt;Node3 -->
<g id="edge2_Node000002_Node000003" class="edge">
<title>Node2&#45;&gt;Node3</title>
<g id="a_edge2_Node000002_Node000003"><a xlink:title=" ">
<path fill="none" stroke="#63b8ff" d="M628.8,-137.82C617.23,-136.67 605.07,-135.45 593.09,-134.26"/>
<polygon fill="#63b8ff" stroke="#63b8ff" points="628.51,-141.31 638.81,-138.82 629.21,-134.34 628.51,-141.31"/>
</a>
</g>
</g>
<!-- Node4 -->
<g id="Node000004" class="node">
<title>Node4</title>
<g id="a_Node000004"><a xlink:href="../../d8/d43/classApplicationHandler.html#a98e49f0d6038bf4caeed77b4d03b003c" target="_top" xlink:title=" ">
<polygon fill="white" stroke="#666666" points="382,-98.12 167,-98.12 167,-79.12 382,-79.12 382,-98.12"/>
<text text-anchor="middle" x="274.5" y="-86.12" font-family="Helvetica,sans-Serif" font-size="10.00">ApplicationHandler::renderMainMenuBar</text>
</a>
</g>
</g>
<!-- Node3&#45;&gt;Node4 -->
<g id="edge3_Node000003_Node000004" class="edge">
<title>Node3&#45;&gt;Node4</title>
<g id="a_edge3_Node000003_Node000004"><a xlink:title=" ">
<path fill="none" stroke="#63b8ff" d="M435.32,-114.44C403.21,-109.26 365.43,-103.15 334.67,-98.18"/>
<polygon fill="#63b8ff" stroke="#63b8ff" points="435.1,-117.95 445.53,-116.09 436.21,-111.04 435.1,-117.95"/>
</a>
</g>
</g>
<!-- Node5 -->
<g id="Node000005" class="node">
<title>Node5</title>
<g id="a_Node000005"><a xlink:href="../../d8/d43/classApplicationHandler.html#afaf00f4f20eca3fec59f8f02f76ef2ce" target="_top" xlink:title=" ">
<polygon fill="white" stroke="#666666" points="131,-98.12 0,-98.12 0,-79.12 131,-79.12 131,-98.12"/>
<text text-anchor="middle" x="65.5" y="-86.12" font-family="Helvetica,sans-Serif" font-size="10.00">ApplicationHandler::run</text>
</a>
</g>
</g>
<!-- Node4&#45;&gt;Node5 -->
<g id="edge4_Node000004_Node000005" class="edge">
<title>Node4&#45;&gt;Node5</title>
<g id="a_edge4_Node000004_Node000005"><a xlink:title=" ">
<path fill="none" stroke="#63b8ff" d="M156.72,-88.62C148.02,-88.62 139.45,-88.62 131.26,-88.62"/>
<polygon fill="#63b8ff" stroke="#63b8ff" points="156.97,-92.12 166.97,-88.62 156.97,-85.12 156.97,-92.12"/>
</a>
</g>
</g>
<!-- Node7 -->
<g id="Node000007" class="node">
<title>Node7</title>
<g id="a_Node000007"><a xlink:href="../../d0/d86/namespaceAssetIO.html#a0fd129212ac4835f913af0761824df9a" target="_top" xlink:title=" ">
<polygon fill="white" stroke="#666666" points="578.5,-98.12 432.5,-98.12 432.5,-79.12 578.5,-79.12 578.5,-98.12"/>
<text text-anchor="middle" x="505.5" y="-86.12" font-family="Helvetica,sans-Serif" font-size="10.00">AssetIO::importFromPicker</text>
</a>
</g>
</g>
<!-- Node6&#45;&gt;Node7 -->
<g id="edge6_Node000006_Node000007" class="edge">
<title>Node6&#45;&gt;Node7</title>
<g id="a_edge6_Node000006_Node000007"><a xlink:title=" ">
<path fill="none" stroke="#63b8ff" d="M618.75,-78.02C605.52,-79.27 591.84,-80.56 578.77,-81.79"/>
<polygon fill="#63b8ff" stroke="#63b8ff" points="619.14,-81.5 628.76,-77.07 618.48,-74.53 619.14,-81.5"/>
</a>
</g>
</g>
<!-- Node8 -->
<g id="Node000008" class="node">
<title>Node8</title>
<g id="a_Node000008"><a xlink:href="../../d0/d86/namespaceAssetIO.html#ad87dd90acfa0487b69d4a53c32e1940d" target="_top" xlink:title=" ">
<polygon fill="white" stroke="#666666" points="592,-61.12 419,-61.12 419,-42.12 592,-42.12 592,-61.12"/>
<text text-anchor="middle" x="505.5" y="-49.12" font-family="Helvetica,sans-Serif" font-size="10.00">AssetIO::importManyFromPicker</text>
</a>
</g>
</g>
<!-- Node6&#45;&gt;Node8 -->
<g id="edge7_Node000006_Node000008" class="edge">
<title>Node6&#45;&gt;Node8</title>
<g id="a_edge7_Node000006_Node000008"><a xlink:title=" ">
<path fill="none" stroke="#63b8ff" d="M618.64,-62.81C609.92,-61.94 601.01,-61.05 592.21,-60.17"/>
<polygon fill="#63b8ff" stroke="#63b8ff" points="618.47,-66.31 628.76,-63.82 619.16,-59.34 618.47,-66.31"/>
</a>
</g>
</g>
<!-- Node8&#45;&gt;Node4 -->
<g id="edge8_Node000008_Node000004" class="edge">
<title>Node8&#45;&gt;Node4</title>
<g id="a_edge8_Node000008_Node000004"><a xlink:title=" ">
<path fill="none" stroke="#63b8ff" d="M435.32,-62.8C403.21,-67.99 365.43,-74.09 334.67,-79.06"/>
<polygon fill="#63b8ff" stroke="#63b8ff" points="436.21,-66.2 445.53,-61.15 435.1,-59.29 436.21,-66.2"/>
</a>
</g>
</g>
<!-- Node9&#45;&gt;Node10 -->
<g id="edge10_Node000009_Node000010" class="edge">
<title>Node9&#45;&gt;Node10</title>
<g id="a_edge10_Node000009_Node000010"><a xlink:title=" ">
<path fill="none" stroke="#63b8ff" d="M621.97,-26.14C609.58,-24.9 596.71,-23.62 584.26,-22.38"/>
<polygon fill="#63b8ff" stroke="#63b8ff" points="621.94,-29.65 632.24,-27.16 622.64,-22.69 621.94,-29.65"/>
</a>
</g>
</g>
<!-- Node11&#45;&gt;Node3 -->
<g id="edge12_Node000011_Node000003" class="edge">
<title>Node11&#45;&gt;Node3</title>
<g id="a_edge12_Node000011_Node000003"><a xlink:title=" ">
<path fill="none" stroke="#63b8ff" d="M634.16,-113.56C621.07,-114.8 607.05,-116.12 593.27,-117.42"/>
<polygon fill="#63b8ff" stroke="#63b8ff" points="634.81,-117.01 644.44,-112.59 634.16,-110.04 634.81,-117.01"/>
</a>
</g>
</g>
</g>
</svg>
