<?xml version="1.0" encoding="UTF-8" standalone="no"?>
<!DOCTYPE svg PUBLIC "-//W3C//DTD SVG 1.1//EN"
 "http://www.w3.org/Graphics/SVG/1.1/DTD/svg11.dtd">
<!-- Generated by graphviz version 14.0.2 (20251019.1705)
 -->
<!-- Title: NetworkManager::bootstrapPeerIfReady Pages: 1 -->
<svg width="1074pt" height="557pt"
 viewBox="0.00 0.00 1074.00 557.00" xmlns="http://www.w3.org/2000/svg" xmlns:xlink="http://www.w3.org/1999/xlink">
<g id="graph0" class="graph" transform="scale(1 1) rotate(0) translate(4 553.32)">
<title>NetworkManager::bootstrapPeerIfReady</title>
<!-- Node1 -->
<g id="Node000001" class="node">
<title>Node1</title>
<g id="a_Node000001"><a xlink:title=" ">
<polygon fill="#999999" stroke="#666666" points="136.75,-198.32 0,-198.32 0,-166.32 136.75,-166.32 136.75,-198.32"/>
<text xml:space="preserve" text-anchor="start" x="8" y="-184.82" font-family="Helvetica,sans-Serif" font-size="10.00">NetworkManager::bootstrap</text>
<text xml:space="preserve" text-anchor="middle" x="68.38" y="-172.82" font-family="Helvetica,sans-Serif" font-size="10.00">PeerIfReady</text>
</a>
</g>
</g>
<!-- Node2 -->
<g id="Node000002" class="node">
<title>Node2</title>
<g id="a_Node000002"><a xlink:href="../../d3/d42/class_logger.html#aebb248e608f8e2724de20b482cb2a15f" target="_top" xlink:title=" ">
<polygon fill="white" stroke="#666666" points="661,-246.32 573,-246.32 573,-226.32 661,-226.32 661,-246.32"/>
<text xml:space="preserve" text-anchor="middle" x="617" y="-232.82" font-family="Helvetica,sans-Serif" font-size="10.00">Logger::instance</text>
</a>
</g>
</g>
<!-- Node1&#45;&gt;Node2 -->
<g id="edge1_Node000001_Node000002" class="edge">
<title>Node1&#45;&gt;Node2</title>
<g id="a_edge1_Node000001_Node000002"><a xlink:title=" ">
<path fill="none" stroke="#63b8ff" d="M137.22,-189.03C246.83,-199.85 460.68,-220.98 561.25,-230.91"/>
<polygon fill="#63b8ff" stroke="#63b8ff" points="560.84,-234.39 571.14,-231.89 561.53,-227.43 560.84,-234.39"/>
</a>
</g>
</g>
<!-- Node3 -->
<g id="Node000003" class="node">
<title>Node3</title>
<g id="a_Node000003"><a xlink:href="../../d3/d42/class_logger.html#ab77a9a6a08954192b47c39f359b5d370" target="_top" xlink:title=" ">
<polygon fill="white" stroke="#666666" points="649,-52.32 585,-52.32 585,-32.32 649,-32.32 649,-52.32"/>
<text xml:space="preserve" text-anchor="middle" x="617" y="-38.82" font-family="Helvetica,sans-Serif" font-size="10.00">Logger::log</text>
</a>
</g>
</g>
<!-- Node1&#45;&gt;Node3 -->
<g id="edge2_Node000001_Node000003" class="edge">
<title>Node1&#45;&gt;Node3</title>
<g id="a_edge2_Node000001_Node000003"><a xlink:title=" ">
<path fill="none" stroke="#63b8ff" d="M87.83,-165.87C130.56,-129.01 241.15,-40.6 352.25,-9.32 430.46,12.7 525.86,-11.19 577.8,-28.24"/>
<polygon fill="#63b8ff" stroke="#63b8ff" points="576.48,-31.49 587.08,-31.38 578.73,-24.86 576.48,-31.49"/>
</a>
</g>
</g>
<!-- Node4 -->
<g id="Node000004" class="node">
<title>Node4</title>
<g id="a_Node000004"><a xlink:href="../../da/d21/class_network_manager.html#a9faf2055aa0370adbffaa46b7f7181c1" target="_top" xlink:title=" ">
<polygon fill="white" stroke="#666666" points="315.88,-290.32 173.12,-290.32 173.12,-270.32 315.88,-270.32 315.88,-290.32"/>
<text xml:space="preserve" text-anchor="middle" x="244.5" y="-276.82" font-family="Helvetica,sans-Serif" font-size="10.00">NetworkManager::sendBoard</text>
</a>
</g>
</g>
<!-- Node1&#45;&gt;Node4 -->
<g id="edge4_Node000001_Node000004" class="edge">
<title>Node1&#45;&gt;Node4</title>
<g id="a_edge4_Node000001_Node000004"><a xlink:title=" ">
<path fill="none" stroke="#63b8ff" d="M98.52,-198.73C131.02,-217.02 183.22,-246.4 215.32,-264.46"/>
<polygon fill="#63b8ff" stroke="#63b8ff" points="213.24,-267.31 223.67,-269.16 216.67,-261.21 213.24,-267.31"/>
</a>
</g>
</g>
<!-- Node28 -->
<g id="Node000028" class="node">
<title>Node28</title>
<g id="a_Node000028"><a xlink:href="../../da/d21/class_network_manager.html#ae486f852701623bc15b9325f8bb64794" target="_top" xlink:title=" ">
<polygon fill="white" stroke="#666666" points="316.25,-176.32 172.75,-176.32 172.75,-144.32 316.25,-144.32 316.25,-176.32"/>
<text xml:space="preserve" text-anchor="start" x="180.75" y="-162.82" font-family="Helvetica,sans-Serif" font-size="10.00">NetworkManager::sendGame</text>
<text xml:space="preserve" text-anchor="middle" x="244.5" y="-150.82" font-family="Helvetica,sans-Serif" font-size="10.00">Table</text>
</a>
</g>
</g>
<!-- Node1&#45;&gt;Node28 -->
<g id="edge40_Node000001_Node000028" class="edge">
<title>Node1&#45;&gt;Node28</title>
<g id="a_edge40_Node000001_Node000028"><a xlink:title=" ">
<path fill="none" stroke="#63b8ff" d="M137.19,-173.76C145.05,-172.76 153.12,-171.74 161.14,-170.73"/>
<polygon fill="#63b8ff" stroke="#63b8ff" points="161.43,-174.22 170.91,-169.49 160.55,-167.28 161.43,-174.22"/>
</a>
</g>
</g>
<!-- Node3&#45;&gt;Node3 -->
<g id="edge3_Node000003_Node000003" class="edge">
<title>Node3&#45;&gt;Node3</title>
<g id="a_edge3_Node000003_Node000003"><a xlink:title=" ">
<path fill="none" stroke="#63b8ff" d="M586.69,-52.66C573.74,-61.3 583.84,-70.32 617,-70.32 635.65,-70.32 647.01,-67.47 651.07,-63.43"/>
<polygon fill="#63b8ff" stroke="#63b8ff" points="654.41,-62.38 647.81,-54.09 647.8,-64.69 654.41,-62.38"/>
</a>
</g>
</g>
<!-- Node4&#45;&gt;Node2 -->
<g id="edge21_Node000004_Node000002" class="edge">
<title>Node4&#45;&gt;Node2</title>
<g id="a_edge21_Node000004_Node000002"><a xlink:title=" ">
<path fill="none" stroke="#63b8ff" d="M299.4,-269.85C316.27,-266.81 335,-263.67 352.25,-261.32 424.43,-251.5 508.25,-244.26 561.68,-240.17"/>
<polygon fill="#63b8ff" stroke="#63b8ff" points="561.72,-243.68 571.42,-239.43 561.19,-236.7 561.72,-243.68"/>
</a>
</g>
</g>
<!-- Node4&#45;&gt;Node3 -->
<g id="edge30_Node000004_Node000003" class="edge">
<title>Node4&#45;&gt;Node3</title>
<g id="a_edge30_Node000004_Node000003"><a xlink:title=" ">
<path fill="none" stroke="#63b8ff" d="M254.72,-269.82C269.23,-252.93 297.64,-218.27 316.25,-185.32 337.03,-148.53 319.77,-124.35 352.25,-97.32 369.15,-83.26 503.52,-60.18 573.67,-48.92"/>
<polygon fill="#63b8ff" stroke="#63b8ff" points="573.94,-52.42 583.27,-47.39 572.84,-45.51 573.94,-52.42"/>
</a>
</g>
</g>
<!-- Node5 -->
<g id="Node000005" class="node">
<title>Node5</title>
<g id="a_Node000005"><a xlink:href="../../da/d21/class_network_manager.html#aeb0d7937d1d825d09dc8c7b13e35a962" target="_top" xlink:title=" ">
<polygon fill="white" stroke="#666666" points="495.38,-50.32 356.38,-50.32 356.38,-18.32 495.38,-18.32 495.38,-50.32"/>
<text xml:space="preserve" text-anchor="start" x="364.38" y="-36.82" font-family="Helvetica,sans-Serif" font-size="10.00">NetworkManager::broadcast</text>
<text xml:space="preserve" text-anchor="middle" x="425.88" y="-24.82" font-family="Helvetica,sans-Serif" font-size="10.00">GameFrame</text>
</a>
</g>
</g>
<!-- Node4&#45;&gt;Node5 -->
<g id="edge5_Node000004_Node000005" class="edge">
<title>Node4&#45;&gt;Node5</title>
<g id="a_edge5_Node000004_Node000005"><a xlink:title=" ">
<path fill="none" stroke="#63b8ff" d="M255.12,-270.03C270.16,-253.43 299.29,-219.15 316.25,-185.32 341.39,-135.16 314.66,-105.98 352.25,-64.32 354.72,-61.59 357.47,-59.1 360.43,-56.83"/>
<polygon fill="#63b8ff" stroke="#63b8ff" points="362.1,-59.92 368.53,-51.5 358.26,-54.07 362.1,-59.92"/>
</a>
</g>
</g>
<!-- Node7 -->
<g id="Node000007" class="node">
<title>Node7</title>
<g id="a_Node000007"><a xlink:href="../../da/d21/class_network_manager.html#a2312355e8a21dec223fcf13d383309ff" target="_top" xlink:title=" ">
<polygon fill="white" stroke="#666666" points="692.5,-334.32 541.5,-334.32 541.5,-302.32 692.5,-302.32 692.5,-334.32"/>
<text xml:space="preserve" text-anchor="start" x="549.5" y="-320.82" font-family="Helvetica,sans-Serif" font-size="10.00">NetworkManager::buildCommit</text>
<text xml:space="preserve" text-anchor="middle" x="617" y="-308.82" font-family="Helvetica,sans-Serif" font-size="10.00">BoardFrame</text>
</a>
</g>
</g>
<!-- Node4&#45;&gt;Node7 -->
<g id="edge7_Node000004_Node000007" class="edge">
<title>Node4&#45;&gt;Node7</title>
<g id="a_edge7_Node000004_Node000007"><a xlink:title=" ">
<path fill="none" stroke="#63b8ff" d="M298,-290.79C315.23,-293.92 334.5,-297.11 352.25,-299.32 411.23,-306.68 478,-311.45 529.61,-314.38"/>
<polygon fill="#63b8ff" stroke="#63b8ff" points="529.36,-317.87 539.54,-314.92 529.74,-310.88 529.36,-317.87"/>
</a>
</g>
</g>
<!-- Node10 -->
<g id="Node000010" class="node">
<title>Node10</title>
<g id="a_Node000010"><a xlink:href="../../da/d21/class_network_manager.html#af430cbaa8d0b5ae2424c97cec93e6c06" target="_top" xlink:title=" ">
<polygon fill="white" stroke="#666666" points="695.88,-384.32 538.12,-384.32 538.12,-352.32 695.88,-352.32 695.88,-384.32"/>
<text xml:space="preserve" text-anchor="start" x="546.12" y="-370.82" font-family="Helvetica,sans-Serif" font-size="10.00">NetworkManager::buildSnapshot</text>
<text xml:space="preserve" text-anchor="middle" x="617" y="-358.82" font-family="Helvetica,sans-Serif" font-size="10.00">BoardFrame</text>
</a>
</g>
</g>
<!-- Node4&#45;&gt;Node10 -->
<g id="edge10_Node000004_Node000010" class="edge">
<title>Node4&#45;&gt;Node10</title>
<g id="a_edge10_Node000004_Node000010"><a xlink:title=" ">
<path fill="none" stroke="#63b8ff" d="M251.63,-290.56C265.89,-313.22 303.78,-367.21 352.25,-387.32 417.71,-414.48 500.12,-401.98 555.25,-387.77"/>
<polygon fill="#63b8ff" stroke="#63b8ff" points="556.02,-391.19 564.77,-385.22 554.21,-384.43 556.02,-391.19"/>
</a>
</g>
</g>
<!-- Node16 -->
<g id="Node000016" class="node">
<title>Node16</title>
<g id="a_Node000016"><a xlink:href="../../de/d2f/class_path_manager.html#ae75b72eb67617d77136a829eb73c7e8f" target="_top" xlink:title=" ">
<polygon fill="white" stroke="#666666" points="494.62,-290.32 357.12,-290.32 357.12,-270.32 494.62,-270.32 494.62,-290.32"/>
<text xml:space="preserve" text-anchor="middle" x="425.88" y="-276.82" font-family="Helvetica,sans-Serif" font-size="10.00">PathManager::getMapsPath</text>
</a>
</g>
</g>
<!-- Node4&#45;&gt;Node16 -->
<g id="edge19_Node000004_Node000016" class="edge">
<title>Node4&#45;&gt;Node16</title>
<g id="a_edge19_Node000004_Node000016"><a xlink:title=" ">
<path fill="none" stroke="#63b8ff" d="M316.14,-280.32C325.72,-280.32 335.61,-280.32 345.33,-280.32"/>
<polygon fill="#63b8ff" stroke="#63b8ff" points="345.14,-283.82 355.14,-280.32 345.14,-276.82 345.14,-283.82"/>
</a>
</g>
</g>
<!-- Node18 -->
<g id="Node000018" class="node">
<title>Node18</title>
<g id="a_Node000018"><a xlink:href="../../de/d2f/class_path_manager.html#a42a0582ddea79c07f859b346b57657de" target="_top" xlink:title=" ">
<polygon fill="white" stroke="#666666" points="499.5,-454.32 352.25,-454.32 352.25,-434.32 499.5,-434.32 499.5,-454.32"/>
<text xml:space="preserve" text-anchor="middle" x="425.88" y="-440.82" font-family="Helvetica,sans-Serif" font-size="10.00">PathManager::isFilenameOnly</text>
</a>
</g>
</g>
<!-- Node4&#45;&gt;Node18 -->
<g id="edge22_Node000004_Node000018" class="edge">
<title>Node4&#45;&gt;Node18</title>
<g id="a_edge22_Node000004_Node000018"><a xlink:title=" ">
<path fill="none" stroke="#63b8ff" d="M250.45,-290.45C263.47,-316.06 301.23,-383.95 352.25,-420.32 357.25,-423.89 362.82,-426.95 368.58,-429.57"/>
<polygon fill="#63b8ff" stroke="#63b8ff" points="367.1,-432.75 377.68,-433.26 369.73,-426.26 367.1,-432.75"/>
</a>
</g>
</g>
<!-- Node19 -->
<g id="Node000019" class="node">
<title>Node19</title>
<g id="a_Node000019"><a xlink:href="../../de/d2f/class_path_manager.html#a7bd7a212d4af1ec7b67dfc3519375077" target="_top" xlink:title=" ">
<polygon fill="white" stroke="#666666" points="679.75,-492.32 554.25,-492.32 554.25,-472.32 679.75,-472.32 679.75,-492.32"/>
<text xml:space="preserve" text-anchor="middle" x="617" y="-478.82" font-family="Helvetica,sans-Serif" font-size="10.00">PathManager::isPathLike</text>
</a>
</g>
</g>
<!-- Node4&#45;&gt;Node19 -->
<g id="edge29_Node000004_Node000019" class="edge">
<title>Node4&#45;&gt;Node19</title>
<g id="a_edge29_Node000004_Node000019"><a xlink:title=" ">
<path fill="none" stroke="#63b8ff" d="M247.9,-290.57C256.01,-322.72 285.76,-421.89 352.25,-463.32 410.3,-499.5 490.11,-500 546.7,-494.1"/>
<polygon fill="#63b8ff" stroke="#63b8ff" points="547.01,-497.59 556.54,-492.98 546.21,-490.64 547.01,-497.59"/>
</a>
</g>
</g>
<!-- Node25 -->
<g id="Node000025" class="node">
<title>Node25</title>
<g id="a_Node000025"><a xlink:href="../../da/d21/class_network_manager.html#ac4526c46708af567437809ee9b561aba" target="_top" xlink:title=" ">
<polygon fill="white" stroke="#666666" points="491.25,-378.32 360.5,-378.32 360.5,-346.32 491.25,-346.32 491.25,-378.32"/>
<text xml:space="preserve" text-anchor="start" x="368.5" y="-364.82" font-family="Helvetica,sans-Serif" font-size="10.00">NetworkManager::readFile</text>
<text xml:space="preserve" text-anchor="middle" x="425.88" y="-352.82" font-family="Helvetica,sans-Serif" font-size="10.00">Bytes</text>
</a>
</g>
</g>
<!-- Node4&#45;&gt;Node25 -->
<g id="edge31_Node000004_Node000025" class="edge">
<title>Node4&#45;&gt;Node25</title>
<g id="a_edge31_Node000004_Node000025"><a xlink:title=" ">
<path fill="none" stroke="#63b8ff" d="M265.79,-290.67C287.13,-301.44 321.79,-318.63 352.25,-332.32 359.1,-335.41 366.37,-338.55 373.56,-341.59"/>
<polygon fill="#63b8ff" stroke="#63b8ff" points="372,-344.73 382.57,-345.36 374.7,-338.27 372,-344.73"/>
</a>
</g>
</g>
<!-- Node26 -->
<g id="Node000026" class="node">
<title>Node26</title>
<g id="a_Node000026"><a xlink:href="../../da/d21/class_network_manager.html#ab54b0f1b56efebcaeaf9a34a0af6194c" target="_top" xlink:title=" ">
<polygon fill="white" stroke="#666666" points="498,-138.32 353.75,-138.32 353.75,-106.32 498,-106.32 498,-138.32"/>
<text xml:space="preserve" text-anchor="start" x="361.75" y="-124.82" font-family="Helvetica,sans-Serif" font-size="10.00">NetworkManager::sendImage</text>
<text xml:space="preserve" text-anchor="middle" x="425.88" y="-112.82" font-family="Helvetica,sans-Serif" font-size="10.00">Chunks</text>
</a>
</g>
</g>
<!-- Node4&#45;&gt;Node26 -->
<g id="edge32_Node000004_Node000026" class="edge">
<title>Node4&#45;&gt;Node26</title>
<g id="a_edge32_Node000004_Node000026"><a xlink:title=" ">
<path fill="none" stroke="#63b8ff" d="M257.27,-269.96C285.6,-245 358.19,-181.06 397.91,-146.08"/>
<polygon fill="#63b8ff" stroke="#63b8ff" points="400,-148.9 405.19,-139.67 395.37,-143.65 400,-148.9"/>
</a>
</g>
</g>
<!-- Node6 -->
<g id="Node000006" class="node">
<title>Node6</title>
<g id="a_Node000006"><a xlink:href="../../da/d21/class_network_manager.html#a8f97d83ec35ea68c1e37d6837c1c8b4c" target="_top" xlink:title=" ">
<polygon fill="white" stroke="#666666" points="694,-108.32 540,-108.32 540,-88.32 694,-88.32 694,-108.32"/>
<text xml:space="preserve" text-anchor="middle" x="617" y="-94.82" font-family="Helvetica,sans-Serif" font-size="10.00">NetworkManager::sendGameTo</text>
</a>
</g>
</g>
<!-- Node5&#45;&gt;Node6 -->
<g id="edge6_Node000005_Node000006" class="edge">
<title>Node5&#45;&gt;Node6</title>
<g id="a_edge6_Node000005_Node000006"><a xlink:title=" ">
<path fill="none" stroke="#63b8ff" d="M462.54,-50.8C483.48,-60.05 510.64,-71.3 535.5,-79.32 541.96,-81.41 548.77,-83.37 555.59,-85.18"/>
<polygon fill="#63b8ff" stroke="#63b8ff" points="554.25,-88.45 564.8,-87.54 555.98,-81.67 554.25,-88.45"/>
</a>
</g>
</g>
<!-- Node8 -->
<g id="Node000008" class="node">
<title>Node8</title>
<g id="a_Node000008"><a xlink:href="../../d0/dc2/class_serializer.html#a60889622ee4e36ea28a284e99bbdf4e5" target="_top" xlink:title=" ">
<polygon fill="white" stroke="#666666" points="871.62,-202.32 743.88,-202.32 743.88,-182.32 871.62,-182.32 871.62,-202.32"/>
<text xml:space="preserve" text-anchor="middle" x="807.75" y="-188.82" font-family="Helvetica,sans-Serif" font-size="10.00">Serializer::serializeUInt64</text>
</a>
</g>
</g>
<!-- Node7&#45;&gt;Node8 -->
<g id="edge8_Node000007_Node000008" class="edge">
<title>Node7&#45;&gt;Node8</title>
<g id="a_edge8_Node000007_Node000008"><a xlink:title=" ">
<path fill="none" stroke="#63b8ff" d="M686.25,-302.01C690.64,-299.51 694.79,-296.64 698.5,-293.32 728.18,-266.81 704.24,-237.18 734.5,-211.32 735.76,-210.24 737.08,-209.23 738.44,-208.26"/>
<polygon fill="#63b8ff" stroke="#63b8ff" points="739.82,-211.51 746.71,-203.47 736.31,-205.46 739.82,-211.51"/>
</a>
</g>
</g>
<!-- Node9 -->
<g id="Node000009" class="node">
<title>Node9</title>
<g id="a_Node000009"><a xlink:href="../../d0/dc2/class_serializer.html#a3c3d58eaacc5f3c6f19cfde75424e9cc" target="_top" xlink:title=" ">
<polygon fill="white" stroke="#666666" points="869,-240.32 746.5,-240.32 746.5,-220.32 869,-220.32 869,-240.32"/>
<text xml:space="preserve" text-anchor="middle" x="807.75" y="-226.82" font-family="Helvetica,sans-Serif" font-size="10.00">Serializer::serializeUInt8</text>
</a>
</g>
</g>
<!-- Node7&#45;&gt;Node9 -->
<g id="edge9_Node000007_Node000009" class="edge">
<title>Node7&#45;&gt;Node9</title>
<g id="a_edge9_Node000007_Node000009"><a xlink:title=" ">
<path fill="none" stroke="#63b8ff" d="M682.85,-301.95C688.34,-299.46 693.65,-296.6 698.5,-293.32 719.45,-279.2 713.24,-262.98 734.5,-249.32 736.76,-247.87 739.12,-246.54 741.56,-245.3"/>
<polygon fill="#63b8ff" stroke="#63b8ff" points="742.77,-248.59 750.53,-241.37 739.96,-242.17 742.77,-248.59"/>
</a>
</g>
</g>
<!-- Node10&#45;&gt;Node8 -->
<g id="edge15_Node000010_Node000008" class="edge">
<title>Node10&#45;&gt;Node8</title>
<g id="a_edge15_Node000010_Node000008"><a xlink:title=" ">
<path fill="none" stroke="#63b8ff" d="M687.94,-351.9C691.78,-349.43 695.35,-346.59 698.5,-343.32 740.74,-299.58 691.31,-254.13 734.5,-211.32 735.38,-210.46 736.28,-209.63 737.23,-208.83"/>
<polygon fill="#63b8ff" stroke="#63b8ff" points="738.82,-211.98 745.16,-203.49 734.91,-206.17 738.82,-211.98"/>
</a>
</g>
</g>
<!-- Node10&#45;&gt;Node9 -->
<g id="edge16_Node000010_Node000009" class="edge">
<title>Node10&#45;&gt;Node9</title>
<g id="a_edge16_Node000010_Node000009"><a xlink:title=" ">
<path fill="none" stroke="#63b8ff" d="M686.81,-351.98C691.02,-349.49 694.98,-346.63 698.5,-343.32 731.14,-312.73 701.2,-279.19 734.5,-249.32 735.59,-248.35 736.72,-247.42 737.88,-246.55"/>
<polygon fill="#63b8ff" stroke="#63b8ff" points="739.49,-249.67 746.2,-241.47 735.84,-243.69 739.49,-249.67"/>
</a>
</g>
</g>
<!-- Node11 -->
<g id="Node000011" class="node">
<title>Node11</title>
<g id="a_Node000011"><a xlink:href="../../d0/dc2/class_serializer.html#a2a407c3a379b680296ee190ed625f05f" target="_top" xlink:title=" ">
<polygon fill="white" stroke="#666666" points="866.75,-416.32 748.75,-416.32 748.75,-396.32 866.75,-396.32 866.75,-416.32"/>
<text xml:space="preserve" text-anchor="middle" x="807.75" y="-402.82" font-family="Helvetica,sans-Serif" font-size="10.00">Serializer::serializeBool</text>
</a>
</g>
</g>
<!-- Node10&#45;&gt;Node11 -->
<g id="edge11_Node000010_Node000011" class="edge">
<title>Node10&#45;&gt;Node11</title>
<g id="a_edge11_Node000010_Node000011"><a xlink:title=" ">
<path fill="none" stroke="#63b8ff" d="M696.13,-384.05C712.05,-387.26 728.6,-390.59 743.9,-393.67"/>
<polygon fill="#63b8ff" stroke="#63b8ff" points="742.81,-397.02 753.31,-395.56 744.2,-390.16 742.81,-397.02"/>
</a>
</g>
</g>
<!-- Node12 -->
<g id="Node000012" class="node">
<title>Node12</title>
<g id="a_Node000012"><a xlink:href="../../d0/dc2/class_serializer.html#a92ffe65857abd6eea6a393056a9bb533" target="_top" xlink:title=" ">
<polygon fill="white" stroke="#666666" points="1051.5,-359.32 931.25,-359.32 931.25,-339.32 1051.5,-339.32 1051.5,-359.32"/>
<text xml:space="preserve" text-anchor="middle" x="991.38" y="-345.82" font-family="Helvetica,sans-Serif" font-size="10.00">Serializer::serializeFloat</text>
</a>
</g>
</g>
<!-- Node10&#45;&gt;Node12 -->
<g id="edge12_Node000010_Node000012" class="edge">
<title>Node10&#45;&gt;Node12</title>
<g id="a_edge12_Node000010_Node000012"><a xlink:title=" ">
<path fill="none" stroke="#63b8ff" d="M696.06,-364.34C762.05,-360.97 855.77,-356.19 919.6,-352.93"/>
<polygon fill="#63b8ff" stroke="#63b8ff" points="919.45,-356.45 929.25,-352.44 919.09,-349.46 919.45,-356.45"/>
</a>
</g>
</g>
<!-- Node13 -->
<g id="Node000013" class="node">
<title>Node13</title>
<g id="a_Node000013"><a xlink:href="../../d0/dc2/class_serializer.html#a8a72c08ebb91348dc2a7ef6557c44f6c" target="_top" xlink:title=" ">
<polygon fill="white" stroke="#666666" points="869.75,-278.32 745.75,-278.32 745.75,-258.32 869.75,-258.32 869.75,-278.32"/>
<text xml:space="preserve" text-anchor="middle" x="807.75" y="-264.82" font-family="Helvetica,sans-Serif" font-size="10.00">Serializer::serializeString</text>
</a>
</g>
</g>
<!-- Node10&#45;&gt;Node13 -->
<g id="edge13_Node000010_Node000013" class="edge">
<title>Node10&#45;&gt;Node13</title>
<g id="a_edge13_Node000010_Node000013"><a xlink:title=" ">
<path fill="none" stroke="#63b8ff" d="M680.22,-351.97C686.56,-349.43 692.77,-346.56 698.5,-343.32 717.14,-332.8 717.22,-323.97 734.5,-311.32 748.02,-301.43 763.93,-291.77 777.38,-284.12"/>
<polygon fill="#63b8ff" stroke="#63b8ff" points="778.76,-287.36 785.78,-279.42 775.34,-281.24 778.76,-287.36"/>
</a>
</g>
</g>
<!-- Node15 -->
<g id="Node000015" class="node">
<title>Node15</title>
<g id="a_Node000015"><a xlink:href="../../d0/dc2/class_serializer.html#a52943821c1686ae47c30586ec7f9bc7e" target="_top" xlink:title=" ">
<polygon fill="white" stroke="#666666" points="867.88,-340.32 747.62,-340.32 747.62,-320.32 867.88,-320.32 867.88,-340.32"/>
<text xml:space="preserve" text-anchor="middle" x="807.75" y="-326.82" font-family="Helvetica,sans-Serif" font-size="10.00">Serializer::serializeVec2</text>
</a>
</g>
</g>
<!-- Node10&#45;&gt;Node15 -->
<g id="edge17_Node000010_Node000015" class="edge">
<title>Node10&#45;&gt;Node15</title>
<g id="a_edge17_Node000010_Node000015"><a xlink:title=" ">
<path fill="none" stroke="#63b8ff" d="M696.13,-352.59C712.05,-349.39 728.6,-346.06 743.9,-342.98"/>
<polygon fill="#63b8ff" stroke="#63b8ff" points="744.2,-346.49 753.31,-341.08 742.81,-339.63 744.2,-346.49"/>
</a>
</g>
</g>
<!-- Node14 -->
<g id="Node000014" class="node">
<title>Node14</title>
<g id="a_Node000014"><a xlink:href="../../d0/dc2/class_serializer.html#ac812cf485e5804fd6f22d34ae076f79f" target="_top" xlink:title=" ">
<polygon fill="white" stroke="#666666" points="1046.25,-215.32 936.5,-215.32 936.5,-195.32 1046.25,-195.32 1046.25,-215.32"/>
<text xml:space="preserve" text-anchor="middle" x="991.38" y="-201.82" font-family="Helvetica,sans-Serif" font-size="10.00">Serializer::serializeInt</text>
</a>
</g>
</g>
<!-- Node13&#45;&gt;Node14 -->
<g id="edge14_Node000013_Node000014" class="edge">
<title>Node13&#45;&gt;Node14</title>
<g id="a_edge14_Node000013_Node000014"><a xlink:title=" ">
<path fill="none" stroke="#63b8ff" d="M852.18,-257.85C861.74,-255.28 871.77,-252.38 881,-249.32 906.65,-240.83 934.92,-229.4 956.3,-220.32"/>
<polygon fill="#63b8ff" stroke="#63b8ff" points="957.6,-223.57 965.41,-216.41 954.84,-217.13 957.6,-223.57"/>
</a>
</g>
</g>
<!-- Node15&#45;&gt;Node12 -->
<g id="edge18_Node000015_Node000012" class="edge">
<title>Node15&#45;&gt;Node12</title>
<g id="a_edge18_Node000015_Node000012"><a xlink:title=" ">
<path fill="none" stroke="#63b8ff" d="M868.22,-336.55C884.68,-338.27 902.72,-340.15 919.75,-341.94"/>
<polygon fill="#63b8ff" stroke="#63b8ff" points="918.96,-345.37 929.27,-342.93 919.68,-338.41 918.96,-345.37"/>
</a>
</g>
</g>
<!-- Node17 -->
<g id="Node000017" class="node">
<title>Node17</title>
<g id="a_Node000017"><a xlink:href="../../de/d2f/class_path_manager.html#a467b459b77c73cbc7544551b53911fcd" target="_top" xlink:title=" ">
<polygon fill="white" stroke="#666666" points="698.5,-284.32 535.5,-284.32 535.5,-264.32 698.5,-264.32 698.5,-284.32"/>
<text xml:space="preserve" text-anchor="middle" x="617" y="-270.82" font-family="Helvetica,sans-Serif" font-size="10.00">PathManager::getExecutableRoot</text>
</a>
</g>
</g>
<!-- Node16&#45;&gt;Node17 -->
<g id="edge20_Node000016_Node000017" class="edge">
<title>Node16&#45;&gt;Node17</title>
<g id="a_edge20_Node000016_Node000017"><a xlink:title=" ">
<path fill="none" stroke="#63b8ff" d="M494.89,-278.17C504.25,-277.87 513.99,-277.56 523.7,-277.25"/>
<polygon fill="#63b8ff" stroke="#63b8ff" points="523.66,-280.76 533.54,-276.94 523.44,-273.76 523.66,-280.76"/>
</a>
</g>
</g>
<!-- Node18&#45;&gt;Node19 -->
<g id="edge23_Node000018_Node000019" class="edge">
<title>Node18&#45;&gt;Node19</title>
<g id="a_edge23_Node000018_Node000019"><a xlink:title=" ">
<path fill="none" stroke="#63b8ff" d="M479.05,-454.81C501.9,-459.4 528.9,-464.82 552.86,-469.64"/>
<polygon fill="#63b8ff" stroke="#63b8ff" points="552.01,-473.04 562.51,-471.58 553.39,-466.17 552.01,-473.04"/>
</a>
</g>
</g>
<!-- Node20 -->
<g id="Node000020" class="node">
<title>Node20</title>
<g id="a_Node000020"><a xlink:href="../../de/d2f/class_path_manager.html#a8ef0fd5fd2b9999b0037c1db402d4c50" target="_top" xlink:title=" ">
<polygon fill="white" stroke="#666666" points="870.5,-454.32 745,-454.32 745,-434.32 870.5,-434.32 870.5,-454.32"/>
<text xml:space="preserve" text-anchor="middle" x="807.75" y="-440.82" font-family="Helvetica,sans-Serif" font-size="10.00">PathManager::hasDirSep</text>
</a>
</g>
</g>
<!-- Node19&#45;&gt;Node20 -->
<g id="edge24_Node000019_Node000020" class="edge">
<title>Node19&#45;&gt;Node20</title>
<g id="a_edge24_Node000019_Node000020"><a xlink:title=" ">
<path fill="none" stroke="#63b8ff" d="M670.08,-471.84C692.87,-467.25 719.82,-461.82 743.74,-457.01"/>
<polygon fill="#63b8ff" stroke="#63b8ff" points="744.25,-460.48 753.36,-455.07 742.87,-453.62 744.25,-460.48"/>
</a>
</g>
</g>
<!-- Node21 -->
<g id="Node000021" class="node">
<title>Node21</title>
<g id="a_Node000021"><a xlink:href="../../de/d2f/class_path_manager.html#abc27ded79e24f01da862f4e920ff57af" target="_top" xlink:title=" ">
<polygon fill="white" stroke="#666666" points="880.62,-530.32 734.88,-530.32 734.88,-510.32 880.62,-510.32 880.62,-530.32"/>
<text xml:space="preserve" text-anchor="middle" x="807.75" y="-516.82" font-family="Helvetica,sans-Serif" font-size="10.00">PathManager::isAbsolutePath</text>
</a>
</g>
</g>
<!-- Node19&#45;&gt;Node21 -->
<g id="edge25_Node000019_Node000021" class="edge">
<title>Node19&#45;&gt;Node21</title>
<g id="a_edge25_Node000019_Node000021"><a xlink:title=" ">
<path fill="none" stroke="#63b8ff" d="M670.08,-492.81C692.87,-497.4 719.82,-502.82 743.74,-507.64"/>
<polygon fill="#63b8ff" stroke="#63b8ff" points="742.87,-511.03 753.36,-509.58 744.25,-504.17 742.87,-511.03"/>
</a>
</g>
</g>
<!-- Node24 -->
<g id="Node000024" class="node">
<title>Node24</title>
<g id="a_Node000024"><a xlink:href="../../de/d2f/class_path_manager.html#ac7b463a435e68be97b75fbd0f1ee0c8f" target="_top" xlink:title=" ">
<polygon fill="white" stroke="#666666" points="881,-492.32 734.5,-492.32 734.5,-472.32 881,-472.32 881,-492.32"/>
<text xml:space="preserve" text-anchor="middle" x="807.75" y="-478.82" font-family="Helvetica,sans-Serif" font-size="10.00">PathManager::isDriveRelative</text>
</a>
</g>
</g>
<!-- Node19&#45;&gt;Node24 -->
<g id="edge28_Node000019_Node000024" class="edge">
<title>Node19&#45;&gt;Node24</title>
<g id="a_edge28_Node000019_Node000024"><a xlink:title=" ">
<path fill="none" stroke="#63b8ff" d="M680.07,-482.32C693.72,-482.32 708.39,-482.32 722.74,-482.32"/>
<polygon fill="#63b8ff" stroke="#63b8ff" points="722.64,-485.82 732.64,-482.32 722.64,-478.82 722.64,-485.82"/>
</a>
</g>
</g>
<!-- Node22 -->
<g id="Node000022" class="node">
<title>Node22</title>
<g id="a_Node000022"><a xlink:href="../../de/d2f/class_path_manager.html#acb7f23b0e5687c88e3e32146cfcf315d" target="_top" xlink:title=" ">
<polygon fill="white" stroke="#666666" points="1065.75,-549.32 917,-549.32 917,-529.32 1065.75,-529.32 1065.75,-549.32"/>
<text xml:space="preserve" text-anchor="middle" x="991.38" y="-535.82" font-family="Helvetica,sans-Serif" font-size="10.00">PathManager::isDriveAbsolute</text>
</a>
</g>
</g>
<!-- Node21&#45;&gt;Node22 -->
<g id="edge26_Node000021_Node000022" class="edge">
<title>Node21&#45;&gt;Node22</title>
<g id="a_edge26_Node000021_Node000022"><a xlink:title=" ">
<path fill="none" stroke="#63b8ff" d="M881.05,-527.89C888.99,-528.72 897.12,-529.57 905.19,-530.41"/>
<polygon fill="#63b8ff" stroke="#63b8ff" points="904.72,-533.88 915.03,-531.44 905.45,-526.92 904.72,-533.88"/>
</a>
</g>
</g>
<!-- Node23 -->
<g id="Node000023" class="node">
<title>Node23</title>
<g id="a_Node000023"><a xlink:href="../../de/d2f/class_path_manager.html#ab4625f00b403df325617c2af592e186f" target="_top" xlink:title=" ">
<polygon fill="white" stroke="#666666" points="1046.25,-511.32 936.5,-511.32 936.5,-491.32 1046.25,-491.32 1046.25,-511.32"/>
<text xml:space="preserve" text-anchor="middle" x="991.38" y="-497.82" font-family="Helvetica,sans-Serif" font-size="10.00">PathManager::isUNC</text>
</a>
</g>
</g>
<!-- Node21&#45;&gt;Node23 -->
<g id="edge27_Node000021_Node000023" class="edge">
<title>Node21&#45;&gt;Node23</title>
<g id="a_edge27_Node000021_Node000023"><a xlink:title=" ">
<path fill="none" stroke="#63b8ff" d="M881.05,-512.76C895.57,-511.24 910.75,-509.65 925.02,-508.16"/>
<polygon fill="#63b8ff" stroke="#63b8ff" points="925.15,-511.67 934.73,-507.15 924.42,-504.7 925.15,-511.67"/>
</a>
</g>
</g>
<!-- Node26&#45;&gt;Node2 -->
<g id="edge37_Node000026_Node000002" class="edge">
<title>Node26&#45;&gt;Node2</title>
<g id="a_edge37_Node000026_Node000002"><a xlink:title=" ">
<path fill="none" stroke="#63b8ff" d="M444.47,-138.55C472.49,-164.26 525.14,-211.99 535.5,-217.32 543.67,-221.53 552.78,-224.82 561.86,-227.39"/>
<polygon fill="#63b8ff" stroke="#63b8ff" points="560.83,-230.73 571.38,-229.8 562.55,-223.95 560.83,-230.73"/>
</a>
</g>
</g>
<!-- Node26&#45;&gt;Node3 -->
<g id="edge38_Node000026_Node000003" class="edge">
<title>Node26&#45;&gt;Node3</title>
<g id="a_edge38_Node000026_Node000003"><a xlink:title=" ">
<path fill="none" stroke="#63b8ff" d="M466.87,-105.92C477.49,-101.53 488.94,-96.77 499.5,-92.32 527.17,-80.67 558.42,-67.24 581.59,-57.24"/>
<polygon fill="#63b8ff" stroke="#63b8ff" points="582.76,-60.54 590.55,-53.36 579.99,-54.12 582.76,-60.54"/>
</a>
</g>
</g>
<!-- Node26&#45;&gt;Node6 -->
<g id="edge39_Node000026_Node000006" class="edge">
<title>Node26&#45;&gt;Node6</title>
<g id="a_edge39_Node000026_Node000006"><a xlink:title=" ">
<path fill="none" stroke="#63b8ff" d="M498.38,-113.25C508.18,-112.01 518.34,-110.72 528.39,-109.44"/>
<polygon fill="#63b8ff" stroke="#63b8ff" points="528.68,-112.93 538.16,-108.2 527.8,-105.99 528.68,-112.93"/>
</a>
</g>
</g>
<!-- Node27 -->
<g id="Node000027" class="node">
<title>Node27</title>
<g id="a_Node000027"><a xlink:href="../../da/d21/class_network_manager.html#ad6d9928959397e1cfa4f6c0f322a20fd" target="_top" xlink:title=" ">
<polygon fill="white" stroke="#666666" points="688.75,-158.32 545.25,-158.32 545.25,-126.32 688.75,-126.32 688.75,-158.32"/>
<text xml:space="preserve" text-anchor="start" x="553.25" y="-144.82" font-family="Helvetica,sans-Serif" font-size="10.00">NetworkManager::buildImage</text>
<text xml:space="preserve" text-anchor="middle" x="617" y="-132.82" font-family="Helvetica,sans-Serif" font-size="10.00">ChunkFrame</text>
</a>
</g>
</g>
<!-- Node26&#45;&gt;Node27 -->
<g id="edge33_Node000026_Node000027" class="edge">
<title>Node26&#45;&gt;Node27</title>
<g id="a_edge33_Node000026_Node000027"><a xlink:title=" ">
<path fill="none" stroke="#63b8ff" d="M498.38,-129.88C509.95,-131.11 522.01,-132.38 533.82,-133.63"/>
<polygon fill="#63b8ff" stroke="#63b8ff" points="533.21,-137.09 543.52,-134.66 533.94,-130.13 533.21,-137.09"/>
</a>
</g>
</g>
<!-- Node27&#45;&gt;Node8 -->
<g id="edge35_Node000027_Node000008" class="edge">
<title>Node27&#45;&gt;Node8</title>
<g id="a_edge35_Node000027_Node000008"><a xlink:title=" ">
<path fill="none" stroke="#63b8ff" d="M680.07,-158.76C704.72,-165.3 732.72,-172.71 756.11,-178.91"/>
<polygon fill="#63b8ff" stroke="#63b8ff" points="755.17,-182.28 765.73,-181.46 756.96,-175.51 755.17,-182.28"/>
</a>
</g>
</g>
<!-- Node27&#45;&gt;Node9 -->
<g id="edge36_Node000027_Node000009" class="edge">
<title>Node27&#45;&gt;Node9</title>
<g id="a_edge36_Node000027_Node000009"><a xlink:title=" ">
<path fill="none" stroke="#63b8ff" d="M682.85,-158.7C688.34,-161.19 693.65,-164.05 698.5,-167.32 719.45,-181.45 713.24,-197.67 734.5,-211.32 736.76,-212.77 739.12,-214.11 741.56,-215.35"/>
<polygon fill="#63b8ff" stroke="#63b8ff" points="739.96,-218.47 750.53,-219.28 742.77,-212.06 739.96,-218.47"/>
</a>
</g>
</g>
<!-- Node27&#45;&gt;Node14 -->
<g id="edge34_Node000027_Node000014" class="edge">
<title>Node27&#45;&gt;Node14</title>
<g id="a_edge34_Node000027_Node000014"><a xlink:title=" ">
<path fill="none" stroke="#63b8ff" d="M689.11,-147.46C742.32,-152.09 816.69,-160.22 881,-173.32 903.9,-177.99 928.95,-185.16 949.3,-191.54"/>
<polygon fill="#63b8ff" stroke="#63b8ff" points="948.04,-194.81 958.63,-194.51 950.17,-188.14 948.04,-194.81"/>
</a>
</g>
</g>
<!-- Node28&#45;&gt;Node5 -->
<g id="edge41_Node000028_Node000005" class="edge">
<title>Node28&#45;&gt;Node5</title>
<g id="a_edge41_Node000028_Node000005"><a xlink:title=" ">
<path fill="none" stroke="#63b8ff" d="M260.38,-143.84C279.84,-123.07 315.76,-87.3 352.25,-64.32 357.3,-61.14 362.75,-58.17 368.3,-55.44"/>
<polygon fill="#63b8ff" stroke="#63b8ff" points="369.4,-58.79 376.99,-51.4 366.45,-52.44 369.4,-58.79"/>
</a>
</g>
</g>
<!-- Node29 -->
<g id="Node000029" class="node">
<title>Node29</title>
<g id="a_Node000029"><a xlink:href="../../da/d21/class_network_manager.html#ad3a1202c87e5df7db27357a94194f9b3" target="_top" xlink:title=" ">
<polygon fill="white" stroke="#666666" points="695.88,-208.32 538.12,-208.32 538.12,-176.32 695.88,-176.32 695.88,-208.32"/>
<text xml:space="preserve" text-anchor="start" x="546.12" y="-194.82" font-family="Helvetica,sans-Serif" font-size="10.00">NetworkManager::buildSnapshot</text>
<text xml:space="preserve" text-anchor="middle" x="617" y="-182.82" font-family="Helvetica,sans-Serif" font-size="10.00">GameTableFrame</text>
</a>
</g>
</g>
<!-- Node28&#45;&gt;Node29 -->
<g id="edge42_Node000028_Node000029" class="edge">
<title>Node28&#45;&gt;Node29</title>
<g id="a_edge42_Node000028_Node000029"><a xlink:title=" ">
<path fill="none" stroke="#63b8ff" d="M316.5,-166.46C376.26,-171.62 462.05,-179.03 526.51,-184.59"/>
<polygon fill="#63b8ff" stroke="#63b8ff" points="526.1,-188.07 536.37,-185.45 526.71,-181.1 526.1,-188.07"/>
</a>
</g>
</g>
<!-- Node29&#45;&gt;Node8 -->
<g id="edge44_Node000029_Node000008" class="edge">
<title>Node29&#45;&gt;Node8</title>
<g id="a_edge44_Node000029_Node000008"><a xlink:title=" ">
<path fill="none" stroke="#63b8ff" d="M696.13,-192.32C708.12,-192.32 720.47,-192.32 732.38,-192.32"/>
<polygon fill="#63b8ff" stroke="#63b8ff" points="732.12,-195.82 742.12,-192.32 732.12,-188.82 732.12,-195.82"/>
</a>
</g>
</g>
<!-- Node29&#45;&gt;Node9 -->
<g id="edge45_Node000029_Node000009" class="edge">
<title>Node29&#45;&gt;Node9</title>
<g id="a_edge45_Node000029_Node000009"><a xlink:title=" ">
<path fill="none" stroke="#63b8ff" d="M696.13,-208.05C712.05,-211.26 728.6,-214.59 743.9,-217.67"/>
<polygon fill="#63b8ff" stroke="#63b8ff" points="742.81,-221.02 753.31,-219.56 744.2,-214.16 742.81,-221.02"/>
</a>
</g>
</g>
<!-- Node29&#45;&gt;Node13 -->
<g id="edge43_Node000029_Node000013" class="edge">
<title>Node29&#45;&gt;Node13</title>
<g id="a_edge43_Node000029_Node000013"><a xlink:title=" ">
<path fill="none" stroke="#63b8ff" d="M680.22,-208.68C686.56,-211.22 692.77,-214.09 698.5,-217.32 717.14,-227.85 715.63,-239.21 734.5,-249.32 737.7,-251.04 741.07,-252.61 744.52,-254.04"/>
<polygon fill="#63b8ff" stroke="#63b8ff" points="743.07,-257.23 753.66,-257.41 745.49,-250.66 743.07,-257.23"/>
</a>
</g>
</g>
</g>
</svg>
