<?xml version="1.0" encoding="UTF-8" standalone="no"?>
<!DOCTYPE svg PUBLIC "-//W3C//DTD SVG 1.1//EN"
 "http://www.w3.org/Graphics/SVG/1.1/DTD/svg11.dtd">
<!-- Generated by graphviz version 14.0.2 (20251019.1705)
 -->
<!-- Title: NetworkManager::startServer Pages: 1 -->
<!--zoomable 524 -->

<svg id="main" version="1.1" xmlns="http://www.w3.org/2000/svg" xmlns:xlink="http://www.w3.org/1999/xlink" xml:space="preserve" onload="init(evt)">
<style type="text/css"><![CDATA[
.node, .edge {opacity: 0.7;}
.node.selected, .edge.selected {opacity: 1;}
.edge:hover path { stroke: red; }
.edge:hover polygon { stroke: red; fill: red; }
]]></style>

<defs>
  <circle id="rim" cx="0" cy="0" r="7"/>
  <circle id="rim2" cx="0" cy="0" r="3.5"/>
  <g id="zoomPlus">
    <use xlink:href="#rim" fill="#404040"><set attributeName="fill" to="#808080" begin="zoomplus.mouseover" end="zoomplus.mouseout"/></use>
    <path d="M-4,0h8M0,-4v8" fill="none" stroke="white" stroke-width="1.5" pointer-events="none"/>
  </g>
  <g id="zoomMin">
    <use xlink:href="#rim" fill="#404040"><set attributeName="fill" to="#808080" begin="zoomminus.mouseover" end="zoomminus.mouseout"/></use>
    <path d="M-4,0h8" fill="none" stroke="white" stroke-width="1.5" pointer-events="none"/>
  </g>
  <g id="arrowUp" transform="translate(30 24)">
    <use xlink:href="#rim"/>
    <path pointer-events="none" fill="none" stroke="white" stroke-width="1.5" d="M0,-3.0v7 M-2.5,-0.5L0,-3.0L2.5,-0.5"/>
  </g>
  <g id="arrowRight" transform="rotate(90) translate(36 -43)">
    <use xlink:href="#rim"/>
    <path pointer-events="none" fill="none" stroke="white" stroke-width="1.5" d="M0,-3.0v7 M-2.5,-0.5L0,-3.0L2.5,-0.5"/>
  </g>
  <g id="arrowDown" transform="rotate(180) translate(-30 -48)">
    <use xlink:href="#rim"/>
    <path pointer-events="none" fill="none" stroke="white" stroke-width="1.5" d="M0,-3.0v7 M-2.5,-0.5L0,-3.0L2.5,-0.5"/>
  </g>
  <g id="arrowLeft" transform="rotate(270) translate(-36 17)">
    <use xlink:href="#rim"/>
    <path pointer-events="none" fill="none" stroke="white" stroke-width="1.5" d="M0,-3.0v7 M-2.5,-0.5L0,-3.0L2.5,-0.5"/>
  </g>
  <g id="resetDef">
    <use xlink:href="#rim2" fill="#404040"><set attributeName="fill" to="#808080" begin="reset.mouseover" end="reset.mouseout"/></use>
  </g>
</defs>
<script type="application/ecmascript">
var viewWidth = 1107;
var viewHeight = 524;
var sectionId = 'dynsection-164';
</script>
<script type="application/ecmascript" xlink:href="../../svg.min.js"/>
<svg id="graph" class="graph">
<g id="viewport">
<title>NetworkManager::startServer</title>
<!-- Node1 -->
<g id="Node000001" class="node">
<title>Node1</title>
<g id="a_Node000001"><a xlink:title=" ">
<polygon fill="#999999" stroke="#666666" points="144.25,-346 0,-346 0,-326 144.25,-326 144.25,-346"/>
<text xml:space="preserve" text-anchor="middle" x="72.12" y="-332.5" font-family="Helvetica,sans-Serif" font-size="10.00">NetworkManager::startServer</text>
</a>
</g>
</g>
<!-- Node2 -->
<g id="Node000002" class="node">
<title>Node2</title>
<g id="a_Node000002"><a xlink:href="../../da/d21/class_network_manager.html#a183ff98131c32d577308340999b4de18" target="_top" xlink:title=" ">
<polygon fill="white" stroke="#666666" points="324.5,-346 180.25,-346 180.25,-326 324.5,-326 324.5,-346"/>
<text xml:space="preserve" text-anchor="middle" x="252.38" y="-332.5" font-family="Helvetica,sans-Serif" font-size="10.00">NetworkManager::startServer</text>
</a>
</g>
</g>
<!-- Node1&#45;&gt;Node2 -->
<g id="edge1_Node000001_Node000002" class="edge">
<title>Node1&#45;&gt;Node2</title>
<g id="a_edge1_Node000001_Node000002"><a xlink:title=" ">
<path fill="none" stroke="#63b8ff" d="M144.6,-336C152.5,-336 160.59,-336 168.61,-336"/>
<polygon fill="#63b8ff" stroke="#63b8ff" points="168.37,-339.5 178.37,-336 168.37,-332.5 168.37,-339.5"/>
</a>
</g>
</g>
<!-- Node3 -->
<g id="Node000003" class="node">
<title>Node3</title>
<g id="a_Node000003"><a xlink:href="../../df/d03/class_u_pn_p_manager.html#a0363b702f70a8e05a3a5a6c9fddcde76" target="_top" xlink:title=" ">
<polygon fill="white" stroke="#666666" points="516.75,-459 360.5,-459 360.5,-439 516.75,-439 516.75,-459"/>
<text xml:space="preserve" text-anchor="middle" x="438.62" y="-445.5" font-family="Helvetica,sans-Serif" font-size="10.00">UPnPManager::addPortMapping</text>
</a>
</g>
</g>
<!-- Node2&#45;&gt;Node3 -->
<g id="edge2_Node000002_Node000003" class="edge">
<title>Node2&#45;&gt;Node3</title>
<g id="a_edge2_Node000002_Node000003"><a xlink:title=" ">
<path fill="none" stroke="#63b8ff" d="M266.79,-346.4C286.66,-361.56 325.33,-390.19 360.5,-411 374.42,-419.24 390.38,-427.31 404.15,-433.88"/>
<polygon fill="#63b8ff" stroke="#63b8ff" points="402.28,-436.87 412.82,-437.95 405.25,-430.53 402.28,-436.87"/>
</a>
</g>
</g>
<!-- Node7 -->
<g id="Node000007" class="node">
<title>Node7</title>
<g id="a_Node000007"><a xlink:href="../../da/d21/class_network_manager.html#ac6d071ea2f521c20e9c3340312bb3a44" target="_top" xlink:title=" ">
<polygon fill="white" stroke="#666666" points="505.12,-402 372.12,-402 372.12,-370 505.12,-370 505.12,-402"/>
<text xml:space="preserve" text-anchor="start" x="380.12" y="-388.5" font-family="Helvetica,sans-Serif" font-size="10.00">NetworkManager::getLocal</text>
<text xml:space="preserve" text-anchor="middle" x="438.62" y="-376.5" font-family="Helvetica,sans-Serif" font-size="10.00">IPAddress</text>
</a>
</g>
</g>
<!-- Node2&#45;&gt;Node7 -->
<g id="edge6_Node000002_Node000007" class="edge">
<title>Node2&#45;&gt;Node7</title>
<g id="a_edge6_Node000002_Node000007"><a xlink:title=" ">
<path fill="none" stroke="#63b8ff" d="M292,-346.48C313.42,-352.29 340.74,-359.71 365.92,-366.54"/>
<polygon fill="#63b8ff" stroke="#63b8ff" points="364.9,-369.89 375.47,-369.13 366.73,-363.14 364.9,-369.89"/>
</a>
</g>
</g>
<!-- Node9 -->
<g id="Node000009" class="node">
<title>Node9</title>
<g id="a_Node000009"><a xlink:href="../../da/d21/class_network_manager.html#a48532d5d0171243adab2fc3c7bba22e1" target="_top" xlink:title=" ">
<polygon fill="white" stroke="#666666" points="511.5,-352 365.75,-352 365.75,-320 511.5,-320 511.5,-352"/>
<text xml:space="preserve" text-anchor="start" x="373.75" y="-338.5" font-family="Helvetica,sans-Serif" font-size="10.00">NetworkManager::pushStatus</text>
<text xml:space="preserve" text-anchor="middle" x="438.62" y="-326.5" font-family="Helvetica,sans-Serif" font-size="10.00">Toast</text>
</a>
</g>
</g>
<!-- Node2&#45;&gt;Node9 -->
<g id="edge8_Node000002_Node000009" class="edge">
<title>Node2&#45;&gt;Node9</title>
<g id="a_edge8_Node000002_Node000009"><a xlink:title=" ">
<path fill="none" stroke="#63b8ff" d="M324.87,-336C334.4,-336 344.23,-336 353.94,-336"/>
<polygon fill="#63b8ff" stroke="#63b8ff" points="353.74,-339.5 363.74,-336 353.74,-332.5 353.74,-339.5"/>
</a>
</g>
</g>
<!-- Node10 -->
<g id="Node000010" class="node">
<title>Node10</title>
<g id="a_Node000010"><a xlink:href="../../da/d21/class_network_manager.html#a5dcd9639395ec5d99f4e4199698f995f" target="_top" xlink:title=" ">
<polygon fill="white" stroke="#666666" points="502.5,-302 374.75,-302 374.75,-282 502.5,-282 502.5,-302"/>
<text xml:space="preserve" text-anchor="middle" x="438.62" y="-288.5" font-family="Helvetica,sans-Serif" font-size="10.00">NetworkManager::setPort</text>
</a>
</g>
</g>
<!-- Node2&#45;&gt;Node10 -->
<g id="edge9_Node000002_Node000010" class="edge">
<title>Node2&#45;&gt;Node10</title>
<g id="a_edge9_Node000002_Node000010"><a xlink:title=" ">
<path fill="none" stroke="#63b8ff" d="M297.04,-325.57C322.76,-319.43 355.53,-311.61 382.95,-305.06"/>
<polygon fill="#63b8ff" stroke="#63b8ff" points="383.57,-308.51 392.48,-302.78 381.94,-301.7 383.57,-308.51"/>
</a>
</g>
</g>
<!-- Node11 -->
<g id="Node000011" class="node">
<title>Node11</title>
<g id="a_Node000011"><a xlink:href="../../d5/d81/class_network_utilities.html#ac0655968aa7b9e06f7566343e0d2e567" target="_top" xlink:title=" ">
<polygon fill="white" stroke="#666666" points="505.88,-208 371.38,-208 371.38,-176 505.88,-176 505.88,-208"/>
<text xml:space="preserve" text-anchor="start" x="379.38" y="-194.5" font-family="Helvetica,sans-Serif" font-size="10.00">NetworkUtilities::startLocal</text>
<text xml:space="preserve" text-anchor="middle" x="438.62" y="-182.5" font-family="Helvetica,sans-Serif" font-size="10.00">Tunnel</text>
</a>
</g>
</g>
<!-- Node2&#45;&gt;Node11 -->
<g id="edge10_Node000002_Node000011" class="edge">
<title>Node2&#45;&gt;Node11</title>
<g id="a_edge10_Node000002_Node000011"><a xlink:title=" ">
<path fill="none" stroke="#63b8ff" d="M266.63,-325.64C295.94,-302.73 366.93,-247.25 407.62,-215.45"/>
<polygon fill="#63b8ff" stroke="#63b8ff" points="409.63,-218.32 415.36,-209.4 405.32,-212.8 409.63,-218.32"/>
</a>
</g>
</g>
<!-- Node4 -->
<g id="Node000004" class="node">
<title>Node4</title>
<g id="a_Node000004"><a xlink:href="../../de/d2f/class_path_manager.html#ac448bd3c10a386c7f89ca39560f6337b" target="_top" xlink:title=" ">
<polygon fill="white" stroke="#666666" points="712,-516 552.75,-516 552.75,-496 712,-496 712,-516"/>
<text xml:space="preserve" text-anchor="middle" x="632.38" y="-502.5" font-family="Helvetica,sans-Serif" font-size="10.00">PathManager::getUpnpcExePath</text>
</a>
</g>
</g>
<!-- Node3&#45;&gt;Node4 -->
<g id="edge3_Node000003_Node000004" class="edge">
<title>Node3&#45;&gt;Node4</title>
<g id="a_edge3_Node000003_Node000004"><a xlink:title=" ">
<path fill="none" stroke="#63b8ff" d="M468.24,-459.38C490.98,-467.44 523.68,-478.62 552.75,-487 559.57,-488.97 566.76,-490.89 573.91,-492.73"/>
<polygon fill="#63b8ff" stroke="#63b8ff" points="573.03,-496.11 583.58,-495.15 574.73,-489.32 573.03,-496.11"/>
</a>
</g>
</g>
<!-- Node5 -->
<g id="Node000005" class="node">
<title>Node5</title>
<g id="a_Node000005"><a xlink:href="../../df/d03/class_u_pn_p_manager.html#abd58c0e1f52e2e50ed55df5430718ba3" target="_top" xlink:title=" ">
<polygon fill="white" stroke="#666666" points="710.12,-478 554.62,-478 554.62,-458 710.12,-458 710.12,-478"/>
<text xml:space="preserve" text-anchor="middle" x="632.38" y="-464.5" font-family="Helvetica,sans-Serif" font-size="10.00">UPnPManager::stringToWString</text>
</a>
</g>
</g>
<!-- Node3&#45;&gt;Node5 -->
<g id="edge4_Node000003_Node000005" class="edge">
<title>Node3&#45;&gt;Node5</title>
<g id="a_edge4_Node000003_Node000005"><a xlink:title=" ">
<path fill="none" stroke="#63b8ff" d="M517.06,-456.67C525.59,-457.52 534.32,-458.38 542.97,-459.24"/>
<polygon fill="#63b8ff" stroke="#63b8ff" points="542.47,-462.71 552.76,-460.21 543.16,-455.74 542.47,-462.71"/>
</a>
</g>
</g>
<!-- Node6 -->
<g id="Node000006" class="node">
<title>Node6</title>
<g id="a_Node000006"><a xlink:href="../../df/d03/class_u_pn_p_manager.html#afc817fc590e223d3e762497676665b34" target="_top" xlink:title=" ">
<polygon fill="white" stroke="#666666" points="692.5,-440 572.25,-440 572.25,-420 692.5,-420 692.5,-440"/>
<text xml:space="preserve" text-anchor="middle" x="632.38" y="-426.5" font-family="Helvetica,sans-Serif" font-size="10.00">UPnPManager::toUpper</text>
</a>
</g>
</g>
<!-- Node3&#45;&gt;Node6 -->
<g id="edge5_Node000003_Node000006" class="edge">
<title>Node3&#45;&gt;Node6</title>
<g id="a_edge5_Node000003_Node000006"><a xlink:title=" ">
<path fill="none" stroke="#63b8ff" d="M517.06,-441.33C531.5,-439.9 546.51,-438.41 560.73,-437"/>
<polygon fill="#63b8ff" stroke="#63b8ff" points="560.82,-440.51 570.43,-436.04 560.13,-433.54 560.82,-440.51"/>
</a>
</g>
</g>
<!-- Node8 -->
<g id="Node000008" class="node">
<title>Node8</title>
<g id="a_Node000008"><a xlink:href="../../d5/d81/class_network_utilities.html#aa1a4875844765ed6487082867f6a832f" target="_top" xlink:title=" ">
<polygon fill="white" stroke="#666666" points="696.62,-402 568.12,-402 568.12,-370 696.62,-370 696.62,-402"/>
<text xml:space="preserve" text-anchor="start" x="576.12" y="-388.5" font-family="Helvetica,sans-Serif" font-size="10.00">NetworkUtilities::getLocal</text>
<text xml:space="preserve" text-anchor="middle" x="632.38" y="-376.5" font-family="Helvetica,sans-Serif" font-size="10.00">IPv4Address</text>
</a>
</g>
</g>
<!-- Node7&#45;&gt;Node8 -->
<g id="edge7_Node000007_Node000008" class="edge">
<title>Node7&#45;&gt;Node8</title>
<g id="a_edge7_Node000007_Node000008"><a xlink:title=" ">
<path fill="none" stroke="#63b8ff" d="M505.61,-386C521.99,-386 539.65,-386 556.42,-386"/>
<polygon fill="#63b8ff" stroke="#63b8ff" points="556.34,-389.5 566.34,-386 556.34,-382.5 556.34,-389.5"/>
</a>
</g>
</g>
<!-- Node12 -->
<g id="Node000012" class="node">
<title>Node12</title>
<g id="a_Node000012"><a xlink:href="../../d5/d81/class_network_utilities.html#ace9b13371f4e6ffa2594682ada0f4e0c" target="_top" xlink:title=" ">
<polygon fill="white" stroke="#666666" points="692.5,-120 572.25,-120 572.25,-88 692.5,-88 692.5,-120"/>
<text xml:space="preserve" text-anchor="start" x="580.25" y="-106.5" font-family="Helvetica,sans-Serif" font-size="10.00">NetworkUtilities::assign</text>
<text xml:space="preserve" text-anchor="middle" x="632.38" y="-94.5" font-family="Helvetica,sans-Serif" font-size="10.00">ToJob</text>
</a>
</g>
</g>
<!-- Node11&#45;&gt;Node12 -->
<g id="edge11_Node000011_Node000012" class="edge">
<title>Node11&#45;&gt;Node12</title>
<g id="a_edge11_Node000011_Node000012"><a xlink:title=" ">
<path fill="none" stroke="#63b8ff" d="M469.44,-175.58C492,-163.44 523.92,-146.84 552.75,-134 559.92,-130.81 567.53,-127.63 575.1,-124.61"/>
<polygon fill="#63b8ff" stroke="#63b8ff" points="576.27,-127.91 584.3,-121.01 573.71,-121.4 576.27,-127.91"/>
</a>
</g>
</g>
<!-- Node14 -->
<g id="Node000014" class="node">
<title>Node14</title>
<g id="a_Node000014"><a xlink:href="../../d5/d81/class_network_utilities.html#a9bb500d7c81ea448babc07ac94e6bd65" target="_top" xlink:title=" ">
<polygon fill="white" stroke="#666666" points="899.75,-180 748,-180 748,-160 899.75,-160 899.75,-180"/>
<text xml:space="preserve" text-anchor="middle" x="823.88" y="-166.5" font-family="Helvetica,sans-Serif" font-size="10.00">NetworkUtilities::closeHandleIf</text>
</a>
</g>
</g>
<!-- Node11&#45;&gt;Node14 -->
<g id="edge13_Node000011_Node000014" class="edge">
<title>Node11&#45;&gt;Node14</title>
<g id="a_edge13_Node000011_Node000014"><a xlink:title=" ">
<path fill="none" stroke="#63b8ff" d="M502.64,-175.53C518.86,-172 536.35,-168.79 552.75,-167 613.78,-160.34 683.02,-161.27 736.12,-163.78"/>
<polygon fill="#63b8ff" stroke="#63b8ff" points="735.86,-167.27 746.02,-164.28 736.21,-160.28 735.86,-167.27"/>
</a>
</g>
</g>
<!-- Node15 -->
<g id="Node000015" class="node">
<title>Node15</title>
<g id="a_Node000015"><a xlink:href="../../de/d2f/class_path_manager.html#a84566186a965025393fe31a9cfb50299" target="_top" xlink:title=" ">
<polygon fill="white" stroke="#666666" points="705.25,-70 559.5,-70 559.5,-38 705.25,-38 705.25,-70"/>
<text xml:space="preserve" text-anchor="start" x="567.5" y="-56.5" font-family="Helvetica,sans-Serif" font-size="10.00">PathManager::getLocalTunnel</text>
<text xml:space="preserve" text-anchor="middle" x="632.38" y="-44.5" font-family="Helvetica,sans-Serif" font-size="10.00">ControllerPath</text>
</a>
</g>
</g>
<!-- Node11&#45;&gt;Node15 -->
<g id="edge14_Node000011_Node000015" class="edge">
<title>Node11&#45;&gt;Node15</title>
<g id="a_edge14_Node000011_Node000015"><a xlink:title=" ">
<path fill="none" stroke="#63b8ff" d="M451.7,-175.71C470.62,-151.29 509.58,-105.25 552.75,-79 554.89,-77.7 557.1,-76.46 559.37,-75.28"/>
<polygon fill="#63b8ff" stroke="#63b8ff" points="560.66,-78.54 568.22,-71.12 557.68,-72.21 560.66,-78.54"/>
</a>
</g>
</g>
<!-- Node18 -->
<g id="Node000018" class="node">
<title>Node18</title>
<g id="a_Node000018"><a xlink:href="../../de/d2f/class_path_manager.html#a8995cf2a53dfcf82d99d80695396031a" target="_top" xlink:title=" ">
<polygon fill="white" stroke="#666666" points="709.38,-20 555.38,-20 555.38,0 709.38,0 709.38,-20"/>
<text xml:space="preserve" text-anchor="middle" x="632.38" y="-6.5" font-family="Helvetica,sans-Serif" font-size="10.00">PathManager::getNodeExePath</text>
</a>
</g>
</g>
<!-- Node11&#45;&gt;Node18 -->
<g id="edge17_Node000011_Node000018" class="edge">
<title>Node11&#45;&gt;Node18</title>
<g id="a_edge17_Node000011_Node000018"><a xlink:title=" ">
<path fill="none" stroke="#63b8ff" d="M446.18,-175.62C460.33,-142.43 497.05,-67.15 552.75,-29 554.7,-27.67 556.73,-26.43 558.82,-25.27"/>
<polygon fill="#63b8ff" stroke="#63b8ff" points="560.08,-28.55 567.64,-21.13 557.1,-22.22 560.08,-28.55"/>
</a>
</g>
</g>
<!-- Node19 -->
<g id="Node000019" class="node">
<title>Node19</title>
<g id="a_Node000019"><a xlink:href="../../d3/d42/class_logger.html#aebb248e608f8e2724de20b482cb2a15f" target="_top" xlink:title=" ">
<polygon fill="white" stroke="#666666" points="676.38,-352 588.38,-352 588.38,-332 676.38,-332 676.38,-352"/>
<text xml:space="preserve" text-anchor="middle" x="632.38" y="-338.5" font-family="Helvetica,sans-Serif" font-size="10.00">Logger::instance</text>
</a>
</g>
</g>
<!-- Node11&#45;&gt;Node19 -->
<g id="edge19_Node000011_Node000019" class="edge">
<title>Node11&#45;&gt;Node19</title>
<g id="a_edge19_Node000011_Node000019"><a xlink:title=" ">
<path fill="none" stroke="#63b8ff" d="M456.57,-208.44C472.69,-224.39 497.29,-249.54 516.75,-273 534.23,-294.08 530.03,-307.72 552.75,-323 560.04,-327.9 568.47,-331.54 577.04,-334.25"/>
<polygon fill="#63b8ff" stroke="#63b8ff" points="575.86,-337.56 586.43,-336.8 577.7,-330.8 575.86,-337.56"/>
</a>
</g>
</g>
<!-- Node20 -->
<g id="Node000020" class="node">
<title>Node20</title>
<g id="a_Node000020"><a xlink:href="../../d5/d81/class_network_utilities.html#ad620dd61d9d41d13af77219ffd1d937e" target="_top" xlink:title=" ">
<polygon fill="white" stroke="#666666" points="696.62,-314 568.12,-314 568.12,-282 696.62,-282 696.62,-314"/>
<text xml:space="preserve" text-anchor="start" x="576.12" y="-300.5" font-family="Helvetica,sans-Serif" font-size="10.00">NetworkUtilities::lastError</text>
<text xml:space="preserve" text-anchor="middle" x="632.38" y="-288.5" font-family="Helvetica,sans-Serif" font-size="10.00">ToString</text>
</a>
</g>
</g>
<!-- Node11&#45;&gt;Node20 -->
<g id="edge20_Node000011_Node000020" class="edge">
<title>Node11&#45;&gt;Node20</title>
<g id="a_edge20_Node000011_Node000020"><a xlink:title=" ">
<path fill="none" stroke="#63b8ff" d="M458.45,-208.33C479.98,-226.31 516.9,-255.03 552.75,-273 555.79,-274.52 558.94,-275.98 562.16,-277.37"/>
<polygon fill="#63b8ff" stroke="#63b8ff" points="560.61,-280.52 571.19,-281 563.22,-274.02 560.61,-280.52"/>
</a>
</g>
</g>
<!-- Node21 -->
<g id="Node000021" class="node">
<title>Node21</title>
<g id="a_Node000021"><a xlink:href="../../d3/d42/class_logger.html#ab77a9a6a08954192b47c39f359b5d370" target="_top" xlink:title=" ">
<polygon fill="white" stroke="#666666" points="664.38,-246 600.38,-246 600.38,-226 664.38,-226 664.38,-246"/>
<text xml:space="preserve" text-anchor="middle" x="632.38" y="-232.5" font-family="Helvetica,sans-Serif" font-size="10.00">Logger::log</text>
</a>
</g>
</g>
<!-- Node11&#45;&gt;Node21 -->
<g id="edge21_Node000011_Node000021" class="edge">
<title>Node11&#45;&gt;Node21</title>
<g id="a_edge21_Node000011_Node000021"><a xlink:title=" ">
<path fill="none" stroke="#63b8ff" d="M506.15,-207.27C533.61,-213.57 564.61,-220.68 588.9,-226.25"/>
<polygon fill="#63b8ff" stroke="#63b8ff" points="587.89,-229.61 598.42,-228.44 589.46,-222.79 587.89,-229.61"/>
</a>
</g>
</g>
<!-- Node22 -->
<g id="Node000022" class="node">
<title>Node22</title>
<g id="a_Node000022"><a xlink:href="../../d5/d81/class_network_utilities.html#a1aff5744053044b32a0b910f02abc05a" target="_top" xlink:title=" ">
<polygon fill="white" stroke="#666666" points="699.25,-208 565.5,-208 565.5,-176 699.25,-176 699.25,-208"/>
<text xml:space="preserve" text-anchor="start" x="573.5" y="-194.5" font-family="Helvetica,sans-Serif" font-size="10.00">NetworkUtilities::stopLocal</text>
<text xml:space="preserve" text-anchor="middle" x="632.38" y="-182.5" font-family="Helvetica,sans-Serif" font-size="10.00">Tunnel</text>
</a>
</g>
</g>
<!-- Node11&#45;&gt;Node22 -->
<g id="edge23_Node000011_Node000022" class="edge">
<title>Node11&#45;&gt;Node22</title>
<g id="a_edge23_Node000011_Node000022"><a xlink:title=" ">
<path fill="none" stroke="#63b8ff" d="M506.15,-192C521.56,-192 538.08,-192 553.91,-192"/>
<polygon fill="#63b8ff" stroke="#63b8ff" points="553.78,-195.5 563.78,-192 553.78,-188.5 553.78,-195.5"/>
</a>
</g>
</g>
<!-- Node13 -->
<g id="Node000013" class="node">
<title>Node13</title>
<g id="a_Node000013"><a xlink:href="../../d5/d81/class_network_utilities.html#a829777d7022ecf7433b66afbae859800" target="_top" xlink:title=" ">
<polygon fill="white" stroke="#666666" points="883.25,-120 764.5,-120 764.5,-88 883.25,-88 883.25,-120"/>
<text xml:space="preserve" text-anchor="start" x="772.5" y="-106.5" font-family="Helvetica,sans-Serif" font-size="10.00">NetworkUtilities::create</text>
<text xml:space="preserve" text-anchor="middle" x="823.88" y="-94.5" font-family="Helvetica,sans-Serif" font-size="10.00">KillJobIfNeeded</text>
</a>
</g>
</g>
<!-- Node12&#45;&gt;Node13 -->
<g id="edge12_Node000012_Node000013" class="edge">
<title>Node12&#45;&gt;Node13</title>
<g id="a_edge12_Node000012_Node000013"><a xlink:title=" ">
<path fill="none" stroke="#63b8ff" d="M692.81,-104C711.87,-104 733.15,-104 752.88,-104"/>
<polygon fill="#63b8ff" stroke="#63b8ff" points="752.78,-107.5 762.78,-104 752.78,-100.5 752.78,-107.5"/>
</a>
</g>
</g>
<!-- Node16 -->
<g id="Node000016" class="node">
<title>Node16</title>
<g id="a_Node000016"><a xlink:href="../../de/d2f/class_path_manager.html#a8bc07ea0ad8692223d1743e442b48e26" target="_top" xlink:title=" ">
<polygon fill="white" stroke="#666666" points="898.62,-42 749.12,-42 749.12,-22 898.62,-22 898.62,-42"/>
<text xml:space="preserve" text-anchor="middle" x="823.88" y="-28.5" font-family="Helvetica,sans-Serif" font-size="10.00">PathManager::getExternalPath</text>
</a>
</g>
</g>
<!-- Node15&#45;&gt;Node16 -->
<g id="edge15_Node000015_Node000016" class="edge">
<title>Node15&#45;&gt;Node16</title>
<g id="a_edge15_Node000015_Node000016"><a xlink:title=" ">
<path fill="none" stroke="#63b8ff" d="M705.56,-45.62C715.93,-44.42 726.68,-43.17 737.28,-41.94"/>
<polygon fill="#63b8ff" stroke="#63b8ff" points="737.66,-45.42 747.19,-40.79 736.85,-38.46 737.66,-45.42"/>
</a>
</g>
</g>
<!-- Node17 -->
<g id="Node000017" class="node">
<title>Node17</title>
<g id="a_Node000017"><a xlink:href="../../de/d2f/class_path_manager.html#a467b459b77c73cbc7544551b53911fcd" target="_top" xlink:title=" ">
<polygon fill="white" stroke="#666666" points="1098.75,-42 935.75,-42 935.75,-22 1098.75,-22 1098.75,-42"/>
<text xml:space="preserve" text-anchor="middle" x="1017.25" y="-28.5" font-family="Helvetica,sans-Serif" font-size="10.00">PathManager::getExecutableRoot</text>
</a>
</g>
</g>
<!-- Node16&#45;&gt;Node17 -->
<g id="edge16_Node000016_Node000017" class="edge">
<title>Node16&#45;&gt;Node17</title>
<g id="a_edge16_Node000016_Node000017"><a xlink:title=" ">
<path fill="none" stroke="#63b8ff" d="M898.87,-32C907.11,-32 915.58,-32 924.01,-32"/>
<polygon fill="#63b8ff" stroke="#63b8ff" points="923.96,-35.5 933.96,-32 923.96,-28.5 923.96,-35.5"/>
</a>
</g>
</g>
<!-- Node18&#45;&gt;Node16 -->
<g id="edge18_Node000018_Node000016" class="edge">
<title>Node18&#45;&gt;Node16</title>
<g id="a_edge18_Node000018_Node000016"><a xlink:title=" ">
<path fill="none" stroke="#63b8ff" d="M709.63,-18.85C718.85,-19.92 728.3,-21.02 737.63,-22.1"/>
<polygon fill="#63b8ff" stroke="#63b8ff" points="737.09,-25.56 747.42,-23.24 737.89,-18.61 737.09,-25.56"/>
</a>
</g>
</g>
<!-- Node21&#45;&gt;Node21 -->
<g id="edge22_Node000021_Node000021" class="edge">
<title>Node21&#45;&gt;Node21</title>
<g id="a_edge22_Node000021_Node000021"><a xlink:title=" ">
<path fill="none" stroke="#63b8ff" d="M601.95,-246.34C588.94,-254.98 599.09,-264 632.38,-264 651.1,-264 662.5,-261.14 666.58,-257.11"/>
<polygon fill="#63b8ff" stroke="#63b8ff" points="669.91,-256.05 663.3,-247.77 663.31,-258.36 669.91,-256.05"/>
</a>
</g>
</g>
<!-- Node22&#45;&gt;Node14 -->
<g id="edge24_Node000022_Node000014" class="edge">
<title>Node22&#45;&gt;Node14</title>
<g id="a_edge24_Node000022_Node000014"><a xlink:title=" ">
<path fill="none" stroke="#63b8ff" d="M699.65,-184.31C711.5,-182.93 724.01,-181.48 736.32,-180.05"/>
<polygon fill="#63b8ff" stroke="#63b8ff" points="736.53,-183.55 746.06,-178.92 735.72,-176.6 736.53,-183.55"/>
</a>
</g>
</g>
</g>
</svg>

<g id="navigator" transform="translate(0 0)" fill="#404254">
  <rect fill="#f2f5e9" fill-opacity="0.5" stroke="#606060" stroke-width=".5" x="0" y="0" width="60" height="60"/>
  <use id="zoomplus" xlink:href="#zoomPlus" x="17" y="9" onmousedown="handleZoom(evt,'in')"/>
  <use id="zoomminus" xlink:href="#zoomMin" x="42" y="9" onmousedown="handleZoom(evt,'out')"/>
  <use id="reset" xlink:href="#resetDef" x="30" y="36" onmousedown="handleReset()"/>
   <use id="arrowup" xlink:href="#arrowUp" x="0" y="0" onmousedown="handlePan(0,-1)"/>
  <use id="arrowright" xlink:href="#arrowRight" x="0" y="0" onmousedown="handlePan(1,0)"/>
  <use id="arrowdown" xlink:href="#arrowDown" x="0" y="0" onmousedown="handlePan(0,1)"/>
  <use id="arrowleft" xlink:href="#arrowLeft" x="0" y="0" onmousedown="handlePan(-1,0)"/>
</g>
<svg viewBox="0 0 15 15" width="100%" height="30px" preserveAspectRatio="xMaxYMin meet">
 <g id="arrow_out" transform="scale(0.3 0.3)">
  <a xlink:href="class_network_manager_adef56253674bd7ebd40bf73c629feed2_cgraph_org.svg" target="_base">
   <rect id="button" ry="5" rx="5" y="6" x="6" height="38" width="38"
        fill="#f2f5e9" fill-opacity="0.5" stroke="#606060" stroke-width="1.0"/>
   <path id="arrow"
     d="M 11.500037,31.436501 C 11.940474,20.09759 22.043105,11.32322 32.158766,21.979434 L 37.068811,17.246167 C 37.068811,17.246167 37.088388,32 37.088388,32 L 22.160133,31.978069 C 22.160133,31.978069 26.997745,27.140456 26.997745,27.140456 C 18.528582,18.264221 13.291696,25.230495 11.500037,31.436501 z"
     style="fill:#404040;"/>
  </a>
 </g>
</svg>

<style type='text/css'>
<![CDATA[
[data-mouse-over-selected='false'] { opacity: 0.7; }
[data-mouse-over-selected='true']  { opacity: 1.0; }
]]>
</style>
<script type="application/ecmascript"><![CDATA[
document.addEventListener('DOMContentLoaded', (event) => {
  highlightEdges();
  highlightAdjacentNodes();
});
]]></script>
</svg>
