<?xml version="1.0" encoding="UTF-8" standalone="no"?>
<!DOCTYPE svg PUBLIC "-//W3C//DTD SVG 1.1//EN"
 "http://www.w3.org/Graphics/SVG/1.1/DTD/svg11.dtd">
<!-- Generated by graphviz version 14.0.2 (20251019.1705)
 -->
<!-- Title: NetworkManager::buildMarkerUpdateFrame Pages: 1 -->
<svg width="632pt" height="192pt"
 viewBox="0.00 0.00 632.00 192.00" xmlns="http://www.w3.org/2000/svg" xmlns:xlink="http://www.w3.org/1999/xlink">
<g id="graph0" class="graph" transform="scale(1 1) rotate(0) translate(4 188)">
<title>NetworkManager::buildMarkerUpdateFrame</title>
<!-- Node1 -->
<g id="Node000001" class="node">
<title>Node1</title>
<g id="a_Node000001"><a xlink:title=" ">
<polygon fill="#999999" stroke="#666666" points="146.5,-102 0,-102 0,-70 146.5,-70 146.5,-102"/>
<text xml:space="preserve" text-anchor="start" x="8" y="-88.5" font-family="Helvetica,sans-Serif" font-size="10.00">NetworkManager::buildMarker</text>
<text xml:space="preserve" text-anchor="middle" x="73.25" y="-76.5" font-family="Helvetica,sans-Serif" font-size="10.00">UpdateFrame</text>
</a>
</g>
</g>
<!-- Node2 -->
<g id="Node000002" class="node">
<title>Node2</title>
<g id="a_Node000002"><a xlink:href="../../d0/dc2/class_serializer.html#ab8e8e2bd7ed71e39b528e1bcdf528e0b" target="_top" xlink:title=" ">
<polygon fill="white" stroke="#666666" points="314.38,-146 185.88,-146 185.88,-114 314.38,-114 314.38,-146"/>
<text xml:space="preserve" text-anchor="start" x="193.88" y="-132.5" font-family="Helvetica,sans-Serif" font-size="10.00">Serializer::serializeMarker</text>
<text xml:space="preserve" text-anchor="middle" x="250.12" y="-120.5" font-family="Helvetica,sans-Serif" font-size="10.00">Component</text>
</a>
</g>
</g>
<!-- Node1&#45;&gt;Node2 -->
<g id="edge1_Node000001_Node000002" class="edge">
<title>Node1&#45;&gt;Node2</title>
<g id="a_edge1_Node000001_Node000002"><a xlink:title=" ">
<path fill="none" stroke="#63b8ff" d="M139.37,-102.38C150.77,-105.25 162.72,-108.26 174.37,-111.19"/>
<polygon fill="#63b8ff" stroke="#63b8ff" points="173.39,-114.55 183.94,-113.6 175.1,-107.76 173.39,-114.55"/>
</a>
</g>
</g>
<!-- Node6 -->
<g id="Node000006" class="node">
<title>Node6</title>
<g id="a_Node000006"><a xlink:href="../../d0/dc2/class_serializer.html#a6be006b0cf99a37c2146723395013b76" target="_top" xlink:title=" ">
<polygon fill="white" stroke="#666666" points="309.12,-184 191.12,-184 191.12,-164 309.12,-164 309.12,-184"/>
<text xml:space="preserve" text-anchor="middle" x="250.12" y="-170.5" font-family="Helvetica,sans-Serif" font-size="10.00">Serializer::serializeSize</text>
</a>
</g>
</g>
<!-- Node1&#45;&gt;Node6 -->
<g id="edge5_Node000001_Node000006" class="edge">
<title>Node1&#45;&gt;Node6</title>
<g id="a_edge5_Node000001_Node000006"><a xlink:title=" ">
<path fill="none" stroke="#63b8ff" d="M95.58,-102.24C116.68,-117.66 150.39,-140.56 182.5,-155 186.46,-156.78 190.63,-158.44 194.86,-159.97"/>
<polygon fill="#63b8ff" stroke="#63b8ff" points="193.44,-163.18 204.03,-163.04 195.66,-156.54 193.44,-163.18"/>
</a>
</g>
</g>
<!-- Node8 -->
<g id="Node000008" class="node">
<title>Node8</title>
<g id="a_Node000008"><a xlink:href="../../d0/dc2/class_serializer.html#a60889622ee4e36ea28a284e99bbdf4e5" target="_top" xlink:title=" ">
<polygon fill="white" stroke="#666666" points="314,-96 186.25,-96 186.25,-76 314,-76 314,-96"/>
<text xml:space="preserve" text-anchor="middle" x="250.12" y="-82.5" font-family="Helvetica,sans-Serif" font-size="10.00">Serializer::serializeUInt64</text>
</a>
</g>
</g>
<!-- Node1&#45;&gt;Node8 -->
<g id="edge7_Node000001_Node000008" class="edge">
<title>Node1&#45;&gt;Node8</title>
<g id="a_edge7_Node000001_Node000008"><a xlink:title=" ">
<path fill="none" stroke="#63b8ff" d="M146.89,-86C156,-86 165.33,-86 174.46,-86"/>
<polygon fill="#63b8ff" stroke="#63b8ff" points="174.39,-89.5 184.39,-86 174.39,-82.5 174.39,-89.5"/>
</a>
</g>
</g>
<!-- Node9 -->
<g id="Node000009" class="node">
<title>Node9</title>
<g id="a_Node000009"><a xlink:href="../../d0/dc2/class_serializer.html#a3c3d58eaacc5f3c6f19cfde75424e9cc" target="_top" xlink:title=" ">
<polygon fill="white" stroke="#666666" points="311.38,-58 188.88,-58 188.88,-38 311.38,-38 311.38,-58"/>
<text xml:space="preserve" text-anchor="middle" x="250.12" y="-44.5" font-family="Helvetica,sans-Serif" font-size="10.00">Serializer::serializeUInt8</text>
</a>
</g>
</g>
<!-- Node1&#45;&gt;Node9 -->
<g id="edge8_Node000001_Node000009" class="edge">
<title>Node1&#45;&gt;Node9</title>
<g id="a_edge8_Node000001_Node000009"><a xlink:title=" ">
<path fill="none" stroke="#63b8ff" d="M146.89,-70.21C161.26,-67.09 176.17,-63.85 190.02,-60.84"/>
<polygon fill="#63b8ff" stroke="#63b8ff" points="190.36,-64.35 199.39,-58.81 188.88,-57.51 190.36,-64.35"/>
</a>
</g>
</g>
<!-- Node10 -->
<g id="Node000010" class="node">
<title>Node10</title>
<g id="a_Node000010"><a xlink:href="../../d0/dc2/class_serializer.html#adf940baab7d143611e19fb957725a80a" target="_top" xlink:title=" ">
<polygon fill="white" stroke="#666666" points="317.75,-20 182.5,-20 182.5,0 317.75,0 317.75,-20"/>
<text xml:space="preserve" text-anchor="middle" x="250.12" y="-6.5" font-family="Helvetica,sans-Serif" font-size="10.00">Serializer::serializeVisibility</text>
</a>
</g>
</g>
<!-- Node1&#45;&gt;Node10 -->
<g id="edge9_Node000001_Node000010" class="edge">
<title>Node1&#45;&gt;Node10</title>
<g id="a_edge9_Node000001_Node000010"><a xlink:title=" ">
<path fill="none" stroke="#63b8ff" d="M101.53,-69.61C122.98,-57.22 153.91,-40.46 182.5,-29 187.08,-27.16 191.91,-25.43 196.78,-23.81"/>
<polygon fill="#63b8ff" stroke="#63b8ff" points="197.52,-27.24 206.01,-20.9 195.42,-20.57 197.52,-27.24"/>
</a>
</g>
</g>
<!-- Node3 -->
<g id="Node000003" class="node">
<title>Node3</title>
<g id="a_Node000003"><a xlink:href="../../d0/dc2/class_serializer.html#a2a407c3a379b680296ee190ed625f05f" target="_top" xlink:title=" ">
<polygon fill="white" stroke="#666666" points="474.75,-61 356.75,-61 356.75,-41 474.75,-41 474.75,-61"/>
<text xml:space="preserve" text-anchor="middle" x="415.75" y="-47.5" font-family="Helvetica,sans-Serif" font-size="10.00">Serializer::serializeBool</text>
</a>
</g>
</g>
<!-- Node2&#45;&gt;Node3 -->
<g id="edge2_Node000002_Node000003" class="edge">
<title>Node2&#45;&gt;Node3</title>
<g id="a_edge2_Node000002_Node000003"><a xlink:title=" ">
<path fill="none" stroke="#63b8ff" d="M297.73,-113.53C304.51,-110.84 311.36,-107.96 317.75,-105 342.25,-93.66 368.98,-78.57 388.16,-67.22"/>
<polygon fill="#63b8ff" stroke="#63b8ff" points="389.89,-70.26 396.68,-62.12 386.3,-64.25 389.89,-70.26"/>
</a>
</g>
</g>
<!-- Node4 -->
<g id="Node000004" class="node">
<title>Node4</title>
<g id="a_Node000004"><a xlink:href="../../d0/dc2/class_serializer.html#a8a72c08ebb91348dc2a7ef6557c44f6c" target="_top" xlink:title=" ">
<polygon fill="white" stroke="#666666" points="477.75,-140 353.75,-140 353.75,-120 477.75,-120 477.75,-140"/>
<text xml:space="preserve" text-anchor="middle" x="415.75" y="-126.5" font-family="Helvetica,sans-Serif" font-size="10.00">Serializer::serializeString</text>
</a>
</g>
</g>
<!-- Node2&#45;&gt;Node4 -->
<g id="edge3_Node000002_Node000004" class="edge">
<title>Node2&#45;&gt;Node4</title>
<g id="a_edge3_Node000002_Node000004"><a xlink:title=" ">
<path fill="none" stroke="#63b8ff" d="M314.86,-130C323.75,-130 332.95,-130 341.99,-130"/>
<polygon fill="#63b8ff" stroke="#63b8ff" points="341.83,-133.5 351.83,-130 341.83,-126.5 341.83,-133.5"/>
</a>
</g>
</g>
<!-- Node5 -->
<g id="Node000005" class="node">
<title>Node5</title>
<g id="a_Node000005"><a xlink:href="../../d0/dc2/class_serializer.html#ac812cf485e5804fd6f22d34ae076f79f" target="_top" xlink:title=" ">
<polygon fill="white" stroke="#666666" points="623.5,-140 513.75,-140 513.75,-120 623.5,-120 623.5,-140"/>
<text xml:space="preserve" text-anchor="middle" x="568.62" y="-126.5" font-family="Helvetica,sans-Serif" font-size="10.00">Serializer::serializeInt</text>
</a>
</g>
</g>
<!-- Node4&#45;&gt;Node5 -->
<g id="edge4_Node000004_Node000005" class="edge">
<title>Node4&#45;&gt;Node5</title>
<g id="a_edge4_Node000004_Node000005"><a xlink:title=" ">
<path fill="none" stroke="#63b8ff" d="M478.12,-130C486.01,-130 494.12,-130 502.07,-130"/>
<polygon fill="#63b8ff" stroke="#63b8ff" points="502.07,-133.5 512.07,-130 502.07,-126.5 502.07,-133.5"/>
</a>
</g>
</g>
<!-- Node7 -->
<g id="Node000007" class="node">
<title>Node7</title>
<g id="a_Node000007"><a xlink:href="../../d0/dc2/class_serializer.html#a92ffe65857abd6eea6a393056a9bb533" target="_top" xlink:title=" ">
<polygon fill="white" stroke="#666666" points="475.88,-184 355.62,-184 355.62,-164 475.88,-164 475.88,-184"/>
<text xml:space="preserve" text-anchor="middle" x="415.75" y="-170.5" font-family="Helvetica,sans-Serif" font-size="10.00">Serializer::serializeFloat</text>
</a>
</g>
</g>
<!-- Node6&#45;&gt;Node7 -->
<g id="edge6_Node000006_Node000007" class="edge">
<title>Node6&#45;&gt;Node7</title>
<g id="a_edge6_Node000006_Node000007"><a xlink:title=" ">
<path fill="none" stroke="#63b8ff" d="M309.27,-174C320.43,-174 332.24,-174 343.75,-174"/>
<polygon fill="#63b8ff" stroke="#63b8ff" points="343.62,-177.5 353.62,-174 343.62,-170.5 343.62,-177.5"/>
</a>
</g>
</g>
<!-- Node10&#45;&gt;Node3 -->
<g id="edge10_Node000010_Node000003" class="edge">
<title>Node10&#45;&gt;Node3</title>
<g id="a_edge10_Node000010_Node000003"><a xlink:title=" ">
<path fill="none" stroke="#63b8ff" d="M292.84,-20.45C313.9,-25.73 339.67,-32.19 362.08,-37.8"/>
<polygon fill="#63b8ff" stroke="#63b8ff" points="361.09,-41.16 371.65,-40.2 362.8,-34.37 361.09,-41.16"/>
</a>
</g>
</g>
</g>
</svg>
