<?xml version="1.0" encoding="UTF-8" standalone="no"?>
<!DOCTYPE svg PUBLIC "-//W3C//DTD SVG 1.1//EN"
 "http://www.w3.org/Graphics/SVG/1.1/DTD/svg11.dtd">
<!-- Generated by graphviz version 14.0.2 (20251019.1705)
 -->
<!-- Title: NetworkManager::broadcastGameTable Pages: 1 -->
<!--zoomable 160 -->

<svg id="main" version="1.1" xmlns="http://www.w3.org/2000/svg" xmlns:xlink="http://www.w3.org/1999/xlink" xml:space="preserve" onload="init(evt)">
<style type="text/css"><![CDATA[
.node, .edge {opacity: 0.7;}
.node.selected, .edge.selected {opacity: 1;}
.edge:hover path { stroke: red; }
.edge:hover polygon { stroke: red; fill: red; }
]]></style>

<defs>
  <circle id="rim" cx="0" cy="0" r="7"/>
  <circle id="rim2" cx="0" cy="0" r="3.5"/>
  <g id="zoomPlus">
    <use xlink:href="#rim" fill="#404040"><set attributeName="fill" to="#808080" begin="zoomplus.mouseover" end="zoomplus.mouseout"/></use>
    <path d="M-4,0h8M0,-4v8" fill="none" stroke="white" stroke-width="1.5" pointer-events="none"/>
  </g>
  <g id="zoomMin">
    <use xlink:href="#rim" fill="#404040"><set attributeName="fill" to="#808080" begin="zoomminus.mouseover" end="zoomminus.mouseout"/></use>
    <path d="M-4,0h8" fill="none" stroke="white" stroke-width="1.5" pointer-events="none"/>
  </g>
  <g id="arrowUp" transform="translate(30 24)">
    <use xlink:href="#rim"/>
    <path pointer-events="none" fill="none" stroke="white" stroke-width="1.5" d="M0,-3.0v7 M-2.5,-0.5L0,-3.0L2.5,-0.5"/>
  </g>
  <g id="arrowRight" transform="rotate(90) translate(36 -43)">
    <use xlink:href="#rim"/>
    <path pointer-events="none" fill="none" stroke="white" stroke-width="1.5" d="M0,-3.0v7 M-2.5,-0.5L0,-3.0L2.5,-0.5"/>
  </g>
  <g id="arrowDown" transform="rotate(180) translate(-30 -48)">
    <use xlink:href="#rim"/>
    <path pointer-events="none" fill="none" stroke="white" stroke-width="1.5" d="M0,-3.0v7 M-2.5,-0.5L0,-3.0L2.5,-0.5"/>
  </g>
  <g id="arrowLeft" transform="rotate(270) translate(-36 17)">
    <use xlink:href="#rim"/>
    <path pointer-events="none" fill="none" stroke="white" stroke-width="1.5" d="M0,-3.0v7 M-2.5,-0.5L0,-3.0L2.5,-0.5"/>
  </g>
  <g id="resetDef">
    <use xlink:href="#rim2" fill="#404040"><set attributeName="fill" to="#808080" begin="reset.mouseover" end="reset.mouseout"/></use>
  </g>
</defs>
<script type="application/ecmascript">
var viewWidth = 870;
var viewHeight = 160;
var sectionId = 'dynsection-13';
</script>
<script type="application/ecmascript" xlink:href="../../svg.min.js"/>
<svg id="graph" class="graph">
<g id="viewport">
<title>NetworkManager::broadcastGameTable</title>
<!-- Node1 -->
<g id="Node000001" class="node">
<title>Node1</title>
<g id="a_Node000001"><a xlink:title=" ">
<polygon fill="#999999" stroke="#666666" points="139,-127 0,-127 0,-95 139,-95 139,-127"/>
<text xml:space="preserve" text-anchor="start" x="8" y="-113.5" font-family="Helvetica,sans-Serif" font-size="10.00">NetworkManager::broadcast</text>
<text xml:space="preserve" text-anchor="middle" x="69.5" y="-101.5" font-family="Helvetica,sans-Serif" font-size="10.00">GameTable</text>
</a>
</g>
</g>
<!-- Node2 -->
<g id="Node000002" class="node">
<title>Node2</title>
<g id="a_Node000002"><a xlink:href="../../da/d21/class_network_manager.html#a2127afec206b45126dff36ca21ffde3d" target="_top" xlink:title=" ">
<polygon fill="white" stroke="#666666" points="332,-152 175,-152 175,-120 332,-120 332,-152"/>
<text xml:space="preserve" text-anchor="start" x="183" y="-138.5" font-family="Helvetica,sans-Serif" font-size="10.00">NetworkManager::getConnected</text>
<text xml:space="preserve" text-anchor="middle" x="253.5" y="-126.5" font-family="Helvetica,sans-Serif" font-size="10.00">PeerIds</text>
</a>
</g>
</g>
<!-- Node1&#45;&gt;Node2 -->
<g id="edge1_Node000001_Node000002" class="edge">
<title>Node1&#45;&gt;Node2</title>
<g id="a_edge1_Node000001_Node000002"><a xlink:title=" ">
<path fill="none" stroke="#63b8ff" d="M139.31,-120.45C147.17,-121.53 155.28,-122.65 163.36,-123.76"/>
<polygon fill="#63b8ff" stroke="#63b8ff" points="162.87,-127.22 173.25,-125.11 163.82,-120.29 162.87,-127.22"/>
</a>
</g>
</g>
<!-- Node3 -->
<g id="Node000003" class="node">
<title>Node3</title>
<g id="a_Node000003"><a xlink:href="../../da/d21/class_network_manager.html#ae486f852701623bc15b9325f8bb64794" target="_top" xlink:title=" ">
<polygon fill="white" stroke="#666666" points="325.25,-102 181.75,-102 181.75,-70 325.25,-70 325.25,-102"/>
<text xml:space="preserve" text-anchor="start" x="189.75" y="-88.5" font-family="Helvetica,sans-Serif" font-size="10.00">NetworkManager::sendGame</text>
<text xml:space="preserve" text-anchor="middle" x="253.5" y="-76.5" font-family="Helvetica,sans-Serif" font-size="10.00">Table</text>
</a>
</g>
</g>
<!-- Node1&#45;&gt;Node3 -->
<g id="edge2_Node000001_Node000003" class="edge">
<title>Node1&#45;&gt;Node3</title>
<g id="a_edge2_Node000001_Node000003"><a xlink:title=" ">
<path fill="none" stroke="#63b8ff" d="M139.31,-101.55C149.43,-100.16 159.95,-98.71 170.32,-97.29"/>
<polygon fill="#63b8ff" stroke="#63b8ff" points="170.55,-100.79 179.98,-95.96 169.59,-93.86 170.55,-100.79"/>
</a>
</g>
</g>
<!-- Node4 -->
<g id="Node000004" class="node">
<title>Node4</title>
<g id="a_Node000004"><a xlink:href="../../da/d21/class_network_manager.html#aeb0d7937d1d825d09dc8c7b13e35a962" target="_top" xlink:title=" ">
<polygon fill="white" stroke="#666666" points="516.38,-133 377.38,-133 377.38,-101 516.38,-101 516.38,-133"/>
<text xml:space="preserve" text-anchor="start" x="385.38" y="-119.5" font-family="Helvetica,sans-Serif" font-size="10.00">NetworkManager::broadcast</text>
<text xml:space="preserve" text-anchor="middle" x="446.88" y="-107.5" font-family="Helvetica,sans-Serif" font-size="10.00">GameFrame</text>
</a>
</g>
</g>
<!-- Node3&#45;&gt;Node4 -->
<g id="edge3_Node000003_Node000004" class="edge">
<title>Node3&#45;&gt;Node4</title>
<g id="a_edge3_Node000003_Node000004"><a xlink:title=" ">
<path fill="none" stroke="#63b8ff" d="M325.49,-97.5C338.62,-99.63 352.42,-101.86 365.79,-104.03"/>
<polygon fill="#63b8ff" stroke="#63b8ff" points="364.98,-107.44 375.42,-105.59 366.1,-100.53 364.98,-107.44"/>
</a>
</g>
</g>
<!-- Node6 -->
<g id="Node000006" class="node">
<title>Node6</title>
<g id="a_Node000006"><a xlink:href="../../da/d21/class_network_manager.html#ad3a1202c87e5df7db27357a94194f9b3" target="_top" xlink:title=" ">
<polygon fill="white" stroke="#666666" points="525.75,-77 368,-77 368,-45 525.75,-45 525.75,-77"/>
<text xml:space="preserve" text-anchor="start" x="376" y="-63.5" font-family="Helvetica,sans-Serif" font-size="10.00">NetworkManager::buildSnapshot</text>
<text xml:space="preserve" text-anchor="middle" x="446.88" y="-51.5" font-family="Helvetica,sans-Serif" font-size="10.00">GameTableFrame</text>
</a>
</g>
</g>
<!-- Node3&#45;&gt;Node6 -->
<g id="edge5_Node000003_Node000006" class="edge">
<title>Node3&#45;&gt;Node6</title>
<g id="a_edge5_Node000003_Node000006"><a xlink:title=" ">
<path fill="none" stroke="#63b8ff" d="M325.49,-76.73C335.57,-75.41 346.04,-74.04 356.41,-72.69"/>
<polygon fill="#63b8ff" stroke="#63b8ff" points="356.64,-76.19 366.1,-71.42 355.73,-69.25 356.64,-76.19"/>
</a>
</g>
</g>
<!-- Node5 -->
<g id="Node000005" class="node">
<title>Node5</title>
<g id="a_Node000005"><a xlink:href="../../da/d21/class_network_manager.html#a8f97d83ec35ea68c1e37d6837c1c8b4c" target="_top" xlink:title=" ">
<polygon fill="white" stroke="#666666" points="715.75,-134 561.75,-134 561.75,-114 715.75,-114 715.75,-134"/>
<text xml:space="preserve" text-anchor="middle" x="638.75" y="-120.5" font-family="Helvetica,sans-Serif" font-size="10.00">NetworkManager::sendGameTo</text>
</a>
</g>
</g>
<!-- Node4&#45;&gt;Node5 -->
<g id="edge4_Node000004_Node000005" class="edge">
<title>Node4&#45;&gt;Node5</title>
<g id="a_edge4_Node000004_Node000005"><a xlink:title=" ">
<path fill="none" stroke="#63b8ff" d="M516.69,-119.54C527.6,-119.94 539,-120.36 550.26,-120.77"/>
<polygon fill="#63b8ff" stroke="#63b8ff" points="549.82,-124.26 559.94,-121.13 550.08,-117.27 549.82,-124.26"/>
</a>
</g>
</g>
<!-- Node7 -->
<g id="Node000007" class="node">
<title>Node7</title>
<g id="a_Node000007"><a xlink:href="../../d0/dc2/class_serializer.html#a8a72c08ebb91348dc2a7ef6557c44f6c" target="_top" xlink:title=" ">
<polygon fill="white" stroke="#666666" points="700.75,-96 576.75,-96 576.75,-76 700.75,-76 700.75,-96"/>
<text xml:space="preserve" text-anchor="middle" x="638.75" y="-82.5" font-family="Helvetica,sans-Serif" font-size="10.00">Serializer::serializeString</text>
</a>
</g>
</g>
<!-- Node6&#45;&gt;Node7 -->
<g id="edge6_Node000006_Node000007" class="edge">
<title>Node6&#45;&gt;Node7</title>
<g id="a_edge6_Node000006_Node000007"><a xlink:title=" ">
<path fill="none" stroke="#63b8ff" d="M526.2,-71.31C539.16,-73.02 552.54,-74.78 565.35,-76.47"/>
<polygon fill="#63b8ff" stroke="#63b8ff" points="564.55,-79.89 574.92,-77.73 565.46,-72.95 564.55,-79.89"/>
</a>
</g>
</g>
<!-- Node9 -->
<g id="Node000009" class="node">
<title>Node9</title>
<g id="a_Node000009"><a xlink:href="../../d0/dc2/class_serializer.html#a60889622ee4e36ea28a284e99bbdf4e5" target="_top" xlink:title=" ">
<polygon fill="white" stroke="#666666" points="702.62,-58 574.88,-58 574.88,-38 702.62,-38 702.62,-58"/>
<text xml:space="preserve" text-anchor="middle" x="638.75" y="-44.5" font-family="Helvetica,sans-Serif" font-size="10.00">Serializer::serializeUInt64</text>
</a>
</g>
</g>
<!-- Node6&#45;&gt;Node9 -->
<g id="edge8_Node000006_Node000009" class="edge">
<title>Node6&#45;&gt;Node9</title>
<g id="a_edge8_Node000006_Node000009"><a xlink:title=" ">
<path fill="none" stroke="#63b8ff" d="M526.2,-55.64C538.43,-54.8 551.04,-53.94 563.19,-53.11"/>
<polygon fill="#63b8ff" stroke="#63b8ff" points="563.41,-56.6 573.15,-52.42 562.93,-49.61 563.41,-56.6"/>
</a>
</g>
</g>
<!-- Node10 -->
<g id="Node000010" class="node">
<title>Node10</title>
<g id="a_Node000010"><a xlink:href="../../d0/dc2/class_serializer.html#a3c3d58eaacc5f3c6f19cfde75424e9cc" target="_top" xlink:title=" ">
<polygon fill="white" stroke="#666666" points="700,-20 577.5,-20 577.5,0 700,0 700,-20"/>
<text xml:space="preserve" text-anchor="middle" x="638.75" y="-6.5" font-family="Helvetica,sans-Serif" font-size="10.00">Serializer::serializeUInt8</text>
</a>
</g>
</g>
<!-- Node6&#45;&gt;Node10 -->
<g id="edge9_Node000006_Node000010" class="edge">
<title>Node6&#45;&gt;Node10</title>
<g id="a_edge9_Node000006_Node000010"><a xlink:title=" ">
<path fill="none" stroke="#63b8ff" d="M505.13,-44.56C523.22,-39.46 543.29,-33.9 561.75,-29 568.99,-27.08 576.64,-25.1 584.18,-23.19"/>
<polygon fill="#63b8ff" stroke="#63b8ff" points="584.78,-26.64 593.62,-20.81 583.07,-19.86 584.78,-26.64"/>
</a>
</g>
</g>
<!-- Node8 -->
<g id="Node000008" class="node">
<title>Node8</title>
<g id="a_Node000008"><a xlink:href="../../d0/dc2/class_serializer.html#ac812cf485e5804fd6f22d34ae076f79f" target="_top" xlink:title=" ">
<polygon fill="white" stroke="#666666" points="861.5,-96 751.75,-96 751.75,-76 861.5,-76 861.5,-96"/>
<text xml:space="preserve" text-anchor="middle" x="806.62" y="-82.5" font-family="Helvetica,sans-Serif" font-size="10.00">Serializer::serializeInt</text>
</a>
</g>
</g>
<!-- Node7&#45;&gt;Node8 -->
<g id="edge7_Node000007_Node000008" class="edge">
<title>Node7&#45;&gt;Node8</title>
<g id="a_edge7_Node000007_Node000008"><a xlink:title=" ">
<path fill="none" stroke="#63b8ff" d="M701.04,-86C713.82,-86 727.34,-86 740.25,-86"/>
<polygon fill="#63b8ff" stroke="#63b8ff" points="739.9,-89.5 749.9,-86 739.9,-82.5 739.9,-89.5"/>
</a>
</g>
</g>
</g>
</svg>

<g id="navigator" transform="translate(0 0)" fill="#404254">
  <rect fill="#f2f5e9" fill-opacity="0.5" stroke="#606060" stroke-width=".5" x="0" y="0" width="60" height="60"/>
  <use id="zoomplus" xlink:href="#zoomPlus" x="17" y="9" onmousedown="handleZoom(evt,'in')"/>
  <use id="zoomminus" xlink:href="#zoomMin" x="42" y="9" onmousedown="handleZoom(evt,'out')"/>
  <use id="reset" xlink:href="#resetDef" x="30" y="36" onmousedown="handleReset()"/>
   <use id="arrowup" xlink:href="#arrowUp" x="0" y="0" onmousedown="handlePan(0,-1)"/>
  <use id="arrowright" xlink:href="#arrowRight" x="0" y="0" onmousedown="handlePan(1,0)"/>
  <use id="arrowdown" xlink:href="#arrowDown" x="0" y="0" onmousedown="handlePan(0,1)"/>
  <use id="arrowleft" xlink:href="#arrowLeft" x="0" y="0" onmousedown="handlePan(-1,0)"/>
</g>
<svg viewBox="0 0 15 15" width="100%" height="30px" preserveAspectRatio="xMaxYMin meet">
 <g id="arrow_out" transform="scale(0.3 0.3)">
  <a xlink:href="class_network_manager_a2a8b22c40456b5e116efcd9317fea0c6_cgraph_org.svg" target="_base">
   <rect id="button" ry="5" rx="5" y="6" x="6" height="38" width="38"
        fill="#f2f5e9" fill-opacity="0.5" stroke="#606060" stroke-width="1.0"/>
   <path id="arrow"
     d="M 11.500037,31.436501 C 11.940474,20.09759 22.043105,11.32322 32.158766,21.979434 L 37.068811,17.246167 C 37.068811,17.246167 37.088388,32 37.088388,32 L 22.160133,31.978069 C 22.160133,31.978069 26.997745,27.140456 26.997745,27.140456 C 18.528582,18.264221 13.291696,25.230495 11.500037,31.436501 z"
     style="fill:#404040;"/>
  </a>
 </g>
</svg>

<style type='text/css'>
<![CDATA[
[data-mouse-over-selected='false'] { opacity: 0.7; }
[data-mouse-over-selected='true']  { opacity: 1.0; }
]]>
</style>
<script type="application/ecmascript"><![CDATA[
document.addEventListener('DOMContentLoaded', (event) => {
  highlightEdges();
  highlightAdjacentNodes();
});
]]></script>
</svg>
