<?xml version="1.0" encoding="UTF-8" standalone="no"?>
<!DOCTYPE svg PUBLIC "-//W3C//DTD SVG 1.1//EN"
 "http://www.w3.org/Graphics/SVG/1.1/DTD/svg11.dtd">
<!-- Generated by graphviz version 14.0.2 (20251019.1705)
 -->
<!-- Title: NetworkManager::getConnectedPeerIds Pages: 1 -->
<!--zoomable 578 -->

<svg id="main" version="1.1" xmlns="http://www.w3.org/2000/svg" xmlns:xlink="http://www.w3.org/1999/xlink" xml:space="preserve" onload="init(evt)">
<style type="text/css"><![CDATA[
.node, .edge {opacity: 0.7;}
.node.selected, .edge.selected {opacity: 1;}
.edge:hover path { stroke: red; }
.edge:hover polygon { stroke: red; fill: red; }
]]></style>

<defs>
  <circle id="rim" cx="0" cy="0" r="7"/>
  <circle id="rim2" cx="0" cy="0" r="3.5"/>
  <g id="zoomPlus">
    <use xlink:href="#rim" fill="#404040"><set attributeName="fill" to="#808080" begin="zoomplus.mouseover" end="zoomplus.mouseout"/></use>
    <path d="M-4,0h8M0,-4v8" fill="none" stroke="white" stroke-width="1.5" pointer-events="none"/>
  </g>
  <g id="zoomMin">
    <use xlink:href="#rim" fill="#404040"><set attributeName="fill" to="#808080" begin="zoomminus.mouseover" end="zoomminus.mouseout"/></use>
    <path d="M-4,0h8" fill="none" stroke="white" stroke-width="1.5" pointer-events="none"/>
  </g>
  <g id="arrowUp" transform="translate(30 24)">
    <use xlink:href="#rim"/>
    <path pointer-events="none" fill="none" stroke="white" stroke-width="1.5" d="M0,-3.0v7 M-2.5,-0.5L0,-3.0L2.5,-0.5"/>
  </g>
  <g id="arrowRight" transform="rotate(90) translate(36 -43)">
    <use xlink:href="#rim"/>
    <path pointer-events="none" fill="none" stroke="white" stroke-width="1.5" d="M0,-3.0v7 M-2.5,-0.5L0,-3.0L2.5,-0.5"/>
  </g>
  <g id="arrowDown" transform="rotate(180) translate(-30 -48)">
    <use xlink:href="#rim"/>
    <path pointer-events="none" fill="none" stroke="white" stroke-width="1.5" d="M0,-3.0v7 M-2.5,-0.5L0,-3.0L2.5,-0.5"/>
  </g>
  <g id="arrowLeft" transform="rotate(270) translate(-36 17)">
    <use xlink:href="#rim"/>
    <path pointer-events="none" fill="none" stroke="white" stroke-width="1.5" d="M0,-3.0v7 M-2.5,-0.5L0,-3.0L2.5,-0.5"/>
  </g>
  <g id="resetDef">
    <use xlink:href="#rim2" fill="#404040"><set attributeName="fill" to="#808080" begin="reset.mouseover" end="reset.mouseout"/></use>
  </g>
</defs>
<script type="application/ecmascript">
var viewWidth = 513;
var viewHeight = 578;
var sectionId = 'dynsection-71';
</script>
<script type="application/ecmascript" xlink:href="../../svg.min.js"/>
<svg id="graph" class="graph">
<g id="viewport">
<title>NetworkManager::getConnectedPeerIds</title>
<!-- Node1 -->
<g id="Node000001" class="node">
<title>Node1</title>
<g id="a_Node000001"><a xlink:title=" ">
<polygon fill="#999999" stroke="#666666" points="504.75,-307 347.75,-307 347.75,-275 504.75,-275 504.75,-307"/>
<text xml:space="preserve" text-anchor="start" x="355.75" y="-293.5" font-family="Helvetica,sans-Serif" font-size="10.00">NetworkManager::getConnected</text>
<text xml:space="preserve" text-anchor="middle" x="426.25" y="-281.5" font-family="Helvetica,sans-Serif" font-size="10.00">PeerIds</text>
</a>
</g>
</g>
<!-- Node2 -->
<g id="Node000002" class="node">
<title>Node2</title>
<g id="a_Node000002"><a xlink:href="../../da/d21/class_network_manager.html#a8104f62e2e6c3197832dbfe7753853de" target="_top" xlink:title=" ">
<polygon fill="white" stroke="#666666" points="303.5,-570 164.5,-570 164.5,-538 303.5,-538 303.5,-570"/>
<text xml:space="preserve" text-anchor="start" x="172.5" y="-556.5" font-family="Helvetica,sans-Serif" font-size="10.00">NetworkManager::broadcast</text>
<text xml:space="preserve" text-anchor="middle" x="234" y="-544.5" font-family="Helvetica,sans-Serif" font-size="10.00">Board</text>
</a>
</g>
</g>
<!-- Node1&#45;&gt;Node2 -->
<g id="edge1_Node000001_Node000002" class="edge">
<title>Node1&#45;&gt;Node2</title>
<g id="a_edge1_Node000001_Node000002"><a xlink:title=" ">
<path fill="none" stroke="#63b8ff" d="M419.68,-318.26C408.23,-367.48 377.38,-471.39 311.75,-529 308.06,-532.24 303.95,-535.05 299.6,-537.51"/>
<polygon fill="#63b8ff" stroke="#63b8ff" points="423.05,-319.26 421.8,-308.74 416.21,-317.74 423.05,-319.26"/>
</a>
</g>
</g>
<!-- Node3 -->
<g id="Node000003" class="node">
<title>Node3</title>
<g id="a_Node000003"><a xlink:href="../../da/d21/class_network_manager.html#ac9b0019724cae52ed6be8fb853fa62e5" target="_top" xlink:title=" ">
<polygon fill="white" stroke="#666666" points="311.75,-520 156.25,-520 156.25,-500 311.75,-500 311.75,-520"/>
<text xml:space="preserve" text-anchor="middle" x="234" y="-506.5" font-family="Helvetica,sans-Serif" font-size="10.00">NetworkManager::broadcastFog</text>
</a>
</g>
</g>
<!-- Node1&#45;&gt;Node3 -->
<g id="edge2_Node000001_Node000003" class="edge">
<title>Node1&#45;&gt;Node3</title>
<g id="a_edge2_Node000001_Node000003"><a xlink:title=" ">
<path fill="none" stroke="#63b8ff" d="M417.49,-318.3C403.68,-361.77 370.62,-446.37 311.75,-491 307.27,-494.4 302.25,-497.2 296.98,-499.5"/>
<polygon fill="#63b8ff" stroke="#63b8ff" points="420.79,-319.47 420.37,-308.89 414.1,-317.43 420.79,-319.47"/>
</a>
</g>
</g>
<!-- Node4 -->
<g id="Node000004" class="node">
<title>Node4</title>
<g id="a_Node000004"><a xlink:href="../../da/d21/class_network_manager.html#a80077121e02a5bf6a05c519a87a795f3" target="_top" xlink:title=" ">
<polygon fill="white" stroke="#666666" points="303.5,-482 164.5,-482 164.5,-450 303.5,-450 303.5,-482"/>
<text xml:space="preserve" text-anchor="start" x="172.5" y="-468.5" font-family="Helvetica,sans-Serif" font-size="10.00">NetworkManager::broadcast</text>
<text xml:space="preserve" text-anchor="middle" x="234" y="-456.5" font-family="Helvetica,sans-Serif" font-size="10.00">FogDelete</text>
</a>
</g>
</g>
<!-- Node1&#45;&gt;Node4 -->
<g id="edge3_Node000001_Node000004" class="edge">
<title>Node1&#45;&gt;Node4</title>
<g id="a_edge3_Node000001_Node000004"><a xlink:title=" ">
<path fill="none" stroke="#63b8ff" d="M412.07,-317.08C393.9,-350.48 358.07,-408 311.75,-441 307.18,-444.25 302.17,-447.1 296.96,-449.59"/>
<polygon fill="#63b8ff" stroke="#63b8ff" points="415.04,-318.95 416.63,-308.47 408.85,-315.67 415.04,-318.95"/>
</a>
</g>
</g>
<!-- Node5 -->
<g id="Node000005" class="node">
<title>Node5</title>
<g id="a_Node000005"><a xlink:href="../../da/d21/class_network_manager.html#a952cf99cf04e63f0a0674f06ab8ec4bb" target="_top" xlink:title=" ">
<polygon fill="white" stroke="#666666" points="303.5,-432 164.5,-432 164.5,-400 303.5,-400 303.5,-432"/>
<text xml:space="preserve" text-anchor="start" x="172.5" y="-418.5" font-family="Helvetica,sans-Serif" font-size="10.00">NetworkManager::broadcast</text>
<text xml:space="preserve" text-anchor="middle" x="234" y="-406.5" font-family="Helvetica,sans-Serif" font-size="10.00">FogUpdate</text>
</a>
</g>
</g>
<!-- Node1&#45;&gt;Node5 -->
<g id="edge4_Node000001_Node000005" class="edge">
<title>Node1&#45;&gt;Node5</title>
<g id="a_edge4_Node000001_Node000005"><a xlink:title=" ">
<path fill="none" stroke="#63b8ff" d="M402.85,-315.83C381.42,-338.26 347.19,-370.78 311.75,-391 306.15,-394.2 300.09,-397.05 293.9,-399.58"/>
<polygon fill="#63b8ff" stroke="#63b8ff" points="405.36,-318.27 409.65,-308.59 400.26,-313.48 405.36,-318.27"/>
</a>
</g>
</g>
<!-- Node6 -->
<g id="Node000006" class="node">
<title>Node6</title>
<g id="a_Node000006"><a xlink:href="../../da/d21/class_network_manager.html#a2a8b22c40456b5e116efcd9317fea0c6" target="_top" xlink:title=" ">
<polygon fill="white" stroke="#666666" points="303.5,-382 164.5,-382 164.5,-350 303.5,-350 303.5,-382"/>
<text xml:space="preserve" text-anchor="start" x="172.5" y="-368.5" font-family="Helvetica,sans-Serif" font-size="10.00">NetworkManager::broadcast</text>
<text xml:space="preserve" text-anchor="middle" x="234" y="-356.5" font-family="Helvetica,sans-Serif" font-size="10.00">GameTable</text>
</a>
</g>
</g>
<!-- Node1&#45;&gt;Node6 -->
<g id="edge5_Node000001_Node000006" class="edge">
<title>Node1&#45;&gt;Node6</title>
<g id="a_edge5_Node000001_Node000006"><a xlink:title=" ">
<path fill="none" stroke="#63b8ff" d="M379.99,-312.18C359.37,-321.51 334.53,-332.3 311.75,-341 304.03,-343.95 295.79,-346.87 287.68,-349.61"/>
<polygon fill="#63b8ff" stroke="#63b8ff" points="381.33,-315.42 388.97,-308.09 378.42,-309.05 381.33,-315.42"/>
</a>
</g>
</g>
<!-- Node7 -->
<g id="Node000007" class="node">
<title>Node7</title>
<g id="a_Node000007"><a xlink:href="../../da/d21/class_network_manager.html#aea4ab5f779d28c2b8e5a69ec89c21ebf" target="_top" xlink:title=" ">
<polygon fill="white" stroke="#666666" points="303.5,-332 164.5,-332 164.5,-300 303.5,-300 303.5,-332"/>
<text xml:space="preserve" text-anchor="start" x="172.5" y="-318.5" font-family="Helvetica,sans-Serif" font-size="10.00">NetworkManager::broadcast</text>
<text xml:space="preserve" text-anchor="middle" x="234" y="-306.5" font-family="Helvetica,sans-Serif" font-size="10.00">GridUpdate</text>
</a>
</g>
</g>
<!-- Node1&#45;&gt;Node7 -->
<g id="edge6_Node000001_Node000007" class="edge">
<title>Node1&#45;&gt;Node7</title>
<g id="a_edge6_Node000001_Node000007"><a xlink:title=" ">
<path fill="none" stroke="#63b8ff" d="M336.12,-302.71C325.32,-304.13 314.42,-305.56 303.97,-306.94"/>
<polygon fill="#63b8ff" stroke="#63b8ff" points="336.36,-306.21 345.82,-301.44 335.45,-299.27 336.36,-306.21"/>
</a>
</g>
</g>
<!-- Node8 -->
<g id="Node000008" class="node">
<title>Node8</title>
<g id="a_Node000008"><a xlink:href="../../da/d21/class_network_manager.html#a1548090a456937ffafda64318f21ba40" target="_top" xlink:title=" ">
<polygon fill="white" stroke="#666666" points="303.5,-282 164.5,-282 164.5,-250 303.5,-250 303.5,-282"/>
<text xml:space="preserve" text-anchor="start" x="172.5" y="-268.5" font-family="Helvetica,sans-Serif" font-size="10.00">NetworkManager::broadcast</text>
<text xml:space="preserve" text-anchor="middle" x="234" y="-256.5" font-family="Helvetica,sans-Serif" font-size="10.00">Marker</text>
</a>
</g>
</g>
<!-- Node1&#45;&gt;Node8 -->
<g id="edge7_Node000001_Node000008" class="edge">
<title>Node1&#45;&gt;Node8</title>
<g id="a_edge7_Node000001_Node000008"><a xlink:title=" ">
<path fill="none" stroke="#63b8ff" d="M336.12,-279.29C325.32,-277.87 314.42,-276.44 303.97,-275.06"/>
<polygon fill="#63b8ff" stroke="#63b8ff" points="335.45,-282.73 345.82,-280.56 336.36,-275.79 335.45,-282.73"/>
</a>
</g>
</g>
<!-- Node9 -->
<g id="Node000009" class="node">
<title>Node9</title>
<g id="a_Node000009"><a xlink:href="../../da/d21/class_network_manager.html#a3d49abb7b737ca9e16995f8a55358ae6" target="_top" xlink:title=" ">
<polygon fill="white" stroke="#666666" points="303.5,-232 164.5,-232 164.5,-200 303.5,-200 303.5,-232"/>
<text xml:space="preserve" text-anchor="start" x="172.5" y="-218.5" font-family="Helvetica,sans-Serif" font-size="10.00">NetworkManager::broadcast</text>
<text xml:space="preserve" text-anchor="middle" x="234" y="-206.5" font-family="Helvetica,sans-Serif" font-size="10.00">MarkerDelete</text>
</a>
</g>
</g>
<!-- Node1&#45;&gt;Node9 -->
<g id="edge8_Node000001_Node000009" class="edge">
<title>Node1&#45;&gt;Node9</title>
<g id="a_edge8_Node000001_Node000009"><a xlink:title=" ">
<path fill="none" stroke="#63b8ff" d="M379.99,-269.82C359.37,-260.49 334.53,-249.7 311.75,-241 304.03,-238.05 295.79,-235.13 287.68,-232.39"/>
<polygon fill="#63b8ff" stroke="#63b8ff" points="378.42,-272.95 388.97,-273.91 381.33,-266.58 378.42,-272.95"/>
</a>
</g>
</g>
<!-- Node10 -->
<g id="Node000010" class="node">
<title>Node10</title>
<g id="a_Node000010"><a xlink:href="../../da/d21/class_network_manager.html#a2c3da3e8d0493153ac8dea2dcda3bfbd" target="_top" xlink:title=" ">
<polygon fill="white" stroke="#666666" points="303.5,-182 164.5,-182 164.5,-150 303.5,-150 303.5,-182"/>
<text xml:space="preserve" text-anchor="start" x="172.5" y="-168.5" font-family="Helvetica,sans-Serif" font-size="10.00">NetworkManager::broadcast</text>
<text xml:space="preserve" text-anchor="middle" x="234" y="-156.5" font-family="Helvetica,sans-Serif" font-size="10.00">MarkerMove</text>
</a>
</g>
</g>
<!-- Node1&#45;&gt;Node10 -->
<g id="edge9_Node000001_Node000010" class="edge">
<title>Node1&#45;&gt;Node10</title>
<g id="a_edge9_Node000001_Node000010"><a xlink:title=" ">
<path fill="none" stroke="#63b8ff" d="M402.85,-266.17C381.42,-243.74 347.19,-211.22 311.75,-191 306.15,-187.8 300.09,-184.95 293.9,-182.42"/>
<polygon fill="#63b8ff" stroke="#63b8ff" points="400.26,-268.52 409.65,-273.41 405.36,-263.73 400.26,-268.52"/>
</a>
</g>
</g>
<!-- Node11 -->
<g id="Node000011" class="node">
<title>Node11</title>
<g id="a_Node000011"><a xlink:href="../../da/d21/class_network_manager.html#a53b60b6286f20a92807205dd2f71c200" target="_top" xlink:title=" ">
<polygon fill="white" stroke="#666666" points="303.5,-132 164.5,-132 164.5,-100 303.5,-100 303.5,-132"/>
<text xml:space="preserve" text-anchor="start" x="172.5" y="-118.5" font-family="Helvetica,sans-Serif" font-size="10.00">NetworkManager::broadcast</text>
<text xml:space="preserve" text-anchor="middle" x="234" y="-106.5" font-family="Helvetica,sans-Serif" font-size="10.00">MarkerMoveState</text>
</a>
</g>
</g>
<!-- Node1&#45;&gt;Node11 -->
<g id="edge10_Node000001_Node000011" class="edge">
<title>Node1&#45;&gt;Node11</title>
<g id="a_edge10_Node000001_Node000011"><a xlink:title=" ">
<path fill="none" stroke="#63b8ff" d="M412.07,-264.92C393.9,-231.52 358.07,-174 311.75,-141 307.18,-137.75 302.17,-134.9 296.96,-132.41"/>
<polygon fill="#63b8ff" stroke="#63b8ff" points="408.85,-266.33 416.63,-273.53 415.04,-263.05 408.85,-266.33"/>
</a>
</g>
</g>
<!-- Node12 -->
<g id="Node000012" class="node">
<title>Node12</title>
<g id="a_Node000012"><a xlink:href="../../da/d21/class_network_manager.html#a2f0bd7fd012f4f7c96fcc25b2ac90b0f" target="_top" xlink:title=" ">
<polygon fill="white" stroke="#666666" points="303.5,-82 164.5,-82 164.5,-50 303.5,-50 303.5,-82"/>
<text xml:space="preserve" text-anchor="start" x="172.5" y="-68.5" font-family="Helvetica,sans-Serif" font-size="10.00">NetworkManager::broadcast</text>
<text xml:space="preserve" text-anchor="middle" x="234" y="-56.5" font-family="Helvetica,sans-Serif" font-size="10.00">MarkerUpdate</text>
</a>
</g>
</g>
<!-- Node1&#45;&gt;Node12 -->
<g id="edge11_Node000001_Node000012" class="edge">
<title>Node1&#45;&gt;Node12</title>
<g id="a_edge11_Node000001_Node000012"><a xlink:title=" ">
<path fill="none" stroke="#63b8ff" d="M417,-263.87C402.6,-220.98 368.83,-137.61 311.75,-91 307.73,-87.72 303.28,-84.87 298.59,-82.38"/>
<polygon fill="#63b8ff" stroke="#63b8ff" points="413.6,-264.71 420.01,-273.14 420.26,-262.55 413.6,-264.71"/>
</a>
</g>
</g>
<!-- Node13 -->
<g id="Node000013" class="node">
<title>Node13</title>
<g id="a_Node000013"><a xlink:href="../../da/d21/class_network_manager.html#a9b53362bce9f94b5d75f8b0ccae52cc7" target="_top" xlink:title=" ">
<polygon fill="white" stroke="#666666" points="311.38,-32 156.62,-32 156.62,0 311.38,0 311.38,-32"/>
<text xml:space="preserve" text-anchor="start" x="164.62" y="-18.5" font-family="Helvetica,sans-Serif" font-size="10.00">NetworkManager::debugIdentity</text>
<text xml:space="preserve" text-anchor="middle" x="234" y="-6.5" font-family="Helvetica,sans-Serif" font-size="10.00">Snapshot</text>
</a>
</g>
</g>
<!-- Node1&#45;&gt;Node13 -->
<g id="edge12_Node000001_Node000013" class="edge">
<title>Node1&#45;&gt;Node13</title>
<g id="a_edge12_Node000001_Node000013"><a xlink:title=" ">
<path fill="none" stroke="#63b8ff" d="M420.32,-263.46C409.73,-212.25 380,-102.05 311.75,-41 308.09,-37.73 304,-34.89 299.67,-32.41"/>
<polygon fill="#63b8ff" stroke="#63b8ff" points="416.85,-263.96 422.22,-273.1 423.72,-262.61 416.85,-263.96"/>
</a>
</g>
</g>
<!-- Node14 -->
<g id="Node000014" class="node">
<title>Node14</title>
<g id="a_Node000014"><a xlink:href="../../da/d21/class_network_manager.html#a0f4f9de49973a81889e18034343a512e" target="_top" xlink:title=" ">
<polygon fill="white" stroke="#666666" points="120.25,-26 0,-26 0,-6 120.25,-6 120.25,-26"/>
<text xml:space="preserve" text-anchor="middle" x="60.12" y="-12.5" font-family="Helvetica,sans-Serif" font-size="10.00">NetworkManager::setup</text>
</a>
</g>
</g>
<!-- Node13&#45;&gt;Node14 -->
<g id="edge13_Node000013_Node000014" class="edge">
<title>Node13&#45;&gt;Node14</title>
<g id="a_edge13_Node000013_Node000014"><a xlink:title=" ">
<path fill="none" stroke="#63b8ff" d="M145.07,-16C136.79,-16 128.52,-16 120.59,-16"/>
<polygon fill="#63b8ff" stroke="#63b8ff" points="144.85,-19.5 154.85,-16 144.85,-12.5 144.85,-19.5"/>
</a>
</g>
</g>
</g>
</svg>

<g id="navigator" transform="translate(0 0)" fill="#404254">
  <rect fill="#f2f5e9" fill-opacity="0.5" stroke="#606060" stroke-width=".5" x="0" y="0" width="60" height="60"/>
  <use id="zoomplus" xlink:href="#zoomPlus" x="17" y="9" onmousedown="handleZoom(evt,'in')"/>
  <use id="zoomminus" xlink:href="#zoomMin" x="42" y="9" onmousedown="handleZoom(evt,'out')"/>
  <use id="reset" xlink:href="#resetDef" x="30" y="36" onmousedown="handleReset()"/>
   <use id="arrowup" xlink:href="#arrowUp" x="0" y="0" onmousedown="handlePan(0,-1)"/>
  <use id="arrowright" xlink:href="#arrowRight" x="0" y="0" onmousedown="handlePan(1,0)"/>
  <use id="arrowdown" xlink:href="#arrowDown" x="0" y="0" onmousedown="handlePan(0,1)"/>
  <use id="arrowleft" xlink:href="#arrowLeft" x="0" y="0" onmousedown="handlePan(-1,0)"/>
</g>
<svg viewBox="0 0 15 15" width="100%" height="30px" preserveAspectRatio="xMaxYMin meet">
 <g id="arrow_out" transform="scale(0.3 0.3)">
  <a xlink:href="class_network_manager_a2127afec206b45126dff36ca21ffde3d_icgraph_org.svg" target="_base">
   <rect id="button" ry="5" rx="5" y="6" x="6" height="38" width="38"
        fill="#f2f5e9" fill-opacity="0.5" stroke="#606060" stroke-width="1.0"/>
   <path id="arrow"
     d="M 11.500037,31.436501 C 11.940474,20.09759 22.043105,11.32322 32.158766,21.979434 L 37.068811,17.246167 C 37.068811,17.246167 37.088388,32 37.088388,32 L 22.160133,31.978069 C 22.160133,31.978069 26.997745,27.140456 26.997745,27.140456 C 18.528582,18.264221 13.291696,25.230495 11.500037,31.436501 z"
     style="fill:#404040;"/>
  </a>
 </g>
</svg>

<style type='text/css'>
<![CDATA[
[data-mouse-over-selected='false'] { opacity: 0.7; }
[data-mouse-over-selected='true']  { opacity: 1.0; }
]]>
</style>
<script type="application/ecmascript"><![CDATA[
document.addEventListener('DOMContentLoaded', (event) => {
  highlightEdges();
  highlightAdjacentNodes();
});
]]></script>
</svg>
