<?xml version="1.0" encoding="UTF-8" standalone="no"?>
<!DOCTYPE svg PUBLIC "-//W3C//DTD SVG 1.1//EN"
 "http://www.w3.org/Graphics/SVG/1.1/DTD/svg11.dtd">
<!-- Generated by graphviz version 14.0.2 (20251019.1705)
 -->
<!-- Title: NetworkManager::buildMarkerMoveFrame Pages: 1 -->
<svg width="481pt" height="180pt"
 viewBox="0.00 0.00 481.00 180.00" xmlns="http://www.w3.org/2000/svg" xmlns:xlink="http://www.w3.org/1999/xlink">

<svg id="main" version="1.1" xmlns="http://www.w3.org/2000/svg" xmlns:xlink="http://www.w3.org/1999/xlink" xml:space="preserve" onload="init(evt)">
<style type="text/css"><![CDATA[
.node, .edge {opacity: 0.7;}
.node.selected, .edge.selected {opacity: 1;}
.edge:hover path { stroke: red; }
.edge:hover polygon { stroke: red; fill: red; }
]]></style>
<script type="application/ecmascript" xlink:href="../../svg.min.js"/>
<svg id="graph" class="graph">
<g id="graph0" class="graph" transform="scale(1 1) rotate(0) translate(4 176)">
<title>NetworkManager::buildMarkerMoveFrame</title>
<!-- Node1 -->
<g id="Node000001" class="node">
<title>Node1</title>
<g id="a_Node000001"><a xlink:title=" ">
<polygon fill="#999999" stroke="#666666" points="146.5,-102 0,-102 0,-70 146.5,-70 146.5,-102"/>
<text xml:space="preserve" text-anchor="start" x="8" y="-88.5" font-family="Helvetica,sans-Serif" font-size="10.00">NetworkManager::buildMarker</text>
<text xml:space="preserve" text-anchor="middle" x="73.25" y="-76.5" font-family="Helvetica,sans-Serif" font-size="10.00">MoveFrame</text>
</a>
</g>
</g>
<!-- Node2 -->
<g id="Node000002" class="node">
<title>Node2</title>
<g id="a_Node000002"><a xlink:href="../../da/d21/class_network_manager.html#a1ca85e76187f45d46596a1d04d713f0f" target="_top" xlink:title=" ">
<polygon fill="white" stroke="#666666" points="313.25,-172 185.5,-172 185.5,-152 313.25,-152 313.25,-172"/>
<text xml:space="preserve" text-anchor="middle" x="249.38" y="-158.5" font-family="Helvetica,sans-Serif" font-size="10.00">NetworkManager::nowMs</text>
</a>
</g>
</g>
<!-- Node1&#45;&gt;Node2 -->
<g id="edge1_Node000001_Node000002" class="edge">
<title>Node1&#45;&gt;Node2</title>
<g id="a_edge1_Node000001_Node000002"><a xlink:title=" ">
<path fill="none" stroke="#63b8ff" d="M101.54,-102.37C123,-114.74 153.93,-131.5 182.5,-143 186.91,-144.78 191.55,-146.46 196.23,-148.04"/>
<polygon fill="#63b8ff" stroke="#63b8ff" points="195.14,-151.36 205.73,-151.06 197.26,-144.69 195.14,-151.36"/>
</a>
</g>
</g>
<!-- Node3 -->
<g id="Node000003" class="node">
<title>Node3</title>
<g id="a_Node000003"><a xlink:href="../../d0/dc2/class_serializer.html#a9552a2e71fe480af903507fb148c8964" target="_top" xlink:title=" ">
<polygon fill="white" stroke="#666666" points="316.25,-134 182.5,-134 182.5,-114 316.25,-114 316.25,-134"/>
<text xml:space="preserve" text-anchor="middle" x="249.38" y="-120.5" font-family="Helvetica,sans-Serif" font-size="10.00">Serializer::serializePosition</text>
</a>
</g>
</g>
<!-- Node1&#45;&gt;Node3 -->
<g id="edge2_Node000001_Node000003" class="edge">
<title>Node1&#45;&gt;Node3</title>
<g id="a_edge2_Node000001_Node000003"><a xlink:title=" ">
<path fill="none" stroke="#63b8ff" d="M146.83,-101.84C160.98,-104.93 175.64,-108.13 189.29,-111.11"/>
<polygon fill="#63b8ff" stroke="#63b8ff" points="188.48,-114.51 198.99,-113.22 189.97,-107.67 188.48,-114.51"/>
</a>
</g>
</g>
<!-- Node5 -->
<g id="Node000005" class="node">
<title>Node5</title>
<g id="a_Node000005"><a xlink:href="../../d0/dc2/class_serializer.html#ac0cbc3ff6cc924221db1eebb6bb6b33b" target="_top" xlink:title=" ">
<polygon fill="white" stroke="#666666" points="313.25,-96 185.5,-96 185.5,-76 313.25,-76 313.25,-96"/>
<text xml:space="preserve" text-anchor="middle" x="249.38" y="-82.5" font-family="Helvetica,sans-Serif" font-size="10.00">Serializer::serializeUInt32</text>
</a>
</g>
</g>
<!-- Node1&#45;&gt;Node5 -->
<g id="edge4_Node000001_Node000005" class="edge">
<title>Node1&#45;&gt;Node5</title>
<g id="a_edge4_Node000001_Node000005"><a xlink:title=" ">
<path fill="none" stroke="#63b8ff" d="M146.83,-86C155.66,-86 164.69,-86 173.54,-86"/>
<polygon fill="#63b8ff" stroke="#63b8ff" points="173.54,-89.5 183.54,-86 173.54,-82.5 173.54,-89.5"/>
</a>
</g>
</g>
<!-- Node6 -->
<g id="Node000006" class="node">
<title>Node6</title>
<g id="a_Node000006"><a xlink:href="../../d0/dc2/class_serializer.html#a60889622ee4e36ea28a284e99bbdf4e5" target="_top" xlink:title=" ">
<polygon fill="white" stroke="#666666" points="313.25,-58 185.5,-58 185.5,-38 313.25,-38 313.25,-58"/>
<text xml:space="preserve" text-anchor="middle" x="249.38" y="-44.5" font-family="Helvetica,sans-Serif" font-size="10.00">Serializer::serializeUInt64</text>
</a>
</g>
</g>
<!-- Node1&#45;&gt;Node6 -->
<g id="edge5_Node000001_Node000006" class="edge">
<title>Node1&#45;&gt;Node6</title>
<g id="a_edge5_Node000001_Node000006"><a xlink:title=" ">
<path fill="none" stroke="#63b8ff" d="M146.83,-70.16C160.98,-67.07 175.64,-63.87 189.29,-60.89"/>
<polygon fill="#63b8ff" stroke="#63b8ff" points="189.97,-64.33 198.99,-58.78 188.48,-57.49 189.97,-64.33"/>
</a>
</g>
</g>
<!-- Node7 -->
<g id="Node000007" class="node">
<title>Node7</title>
<g id="a_Node000007"><a xlink:href="../../d0/dc2/class_serializer.html#a3c3d58eaacc5f3c6f19cfde75424e9cc" target="_top" xlink:title=" ">
<polygon fill="white" stroke="#666666" points="310.62,-20 188.12,-20 188.12,0 310.62,0 310.62,-20"/>
<text xml:space="preserve" text-anchor="middle" x="249.38" y="-6.5" font-family="Helvetica,sans-Serif" font-size="10.00">Serializer::serializeUInt8</text>
</a>
</g>
</g>
<!-- Node1&#45;&gt;Node7 -->
<g id="edge6_Node000001_Node000007" class="edge">
<title>Node1&#45;&gt;Node7</title>
<g id="a_edge6_Node000001_Node000007"><a xlink:title=" ">
<path fill="none" stroke="#63b8ff" d="M101.54,-69.63C123,-57.26 153.93,-40.5 182.5,-29 186.91,-27.22 191.55,-25.54 196.23,-23.96"/>
<polygon fill="#63b8ff" stroke="#63b8ff" points="197.26,-27.31 205.73,-20.94 195.14,-20.64 197.26,-27.31"/>
</a>
</g>
</g>
<!-- Node4 -->
<g id="Node000004" class="node">
<title>Node4</title>
<g id="a_Node000004"><a xlink:href="../../d0/dc2/class_serializer.html#a92ffe65857abd6eea6a393056a9bb533" target="_top" xlink:title=" ">
<polygon fill="white" stroke="#666666" points="472.5,-134 352.25,-134 352.25,-114 472.5,-114 472.5,-134"/>
<text xml:space="preserve" text-anchor="middle" x="412.38" y="-120.5" font-family="Helvetica,sans-Serif" font-size="10.00">Serializer::serializeFloat</text>
</a>
</g>
</g>
<!-- Node3&#45;&gt;Node4 -->
<g id="edge3_Node000003_Node000004" class="edge">
<title>Node3&#45;&gt;Node4</title>
<g id="a_edge3_Node000003_Node000004"><a xlink:title=" ">
<path fill="none" stroke="#63b8ff" d="M316.32,-124C324.35,-124 332.58,-124 340.67,-124"/>
<polygon fill="#63b8ff" stroke="#63b8ff" points="340.48,-127.5 350.48,-124 340.48,-120.5 340.48,-127.5"/>
</a>
</g>
</g>
</g>
</svg>
</svg>

<style type='text/css'>
<![CDATA[
[data-mouse-over-selected='false'] { opacity: 0.7; }
[data-mouse-over-selected='true']  { opacity: 1.0; }
]]>
</style>
<script type="application/ecmascript"><![CDATA[
document.addEventListener('DOMContentLoaded', (event) => {
  highlightEdges();
  highlightAdjacentNodes();
});
]]></script>
</svg>
