<?xml version="1.0" encoding="UTF-8" standalone="no"?>
<!DOCTYPE svg PUBLIC "-//W3C//DTD SVG 1.1//EN"
 "http://www.w3.org/Graphics/SVG/1.1/DTD/svg11.dtd">
<!-- Generated by graphviz version 14.0.2 (20251019.1705)
 -->
<!-- Title: NetworkManager::onPeerLocalDescription Pages: 1 -->
<svg width="363pt" height="142pt"
 viewBox="0.00 0.00 363.00 142.00" xmlns="http://www.w3.org/2000/svg" xmlns:xlink="http://www.w3.org/1999/xlink">

<svg id="main" version="1.1" xmlns="http://www.w3.org/2000/svg" xmlns:xlink="http://www.w3.org/1999/xlink" xml:space="preserve" onload="init(evt)">
<style type="text/css"><![CDATA[
.node, .edge {opacity: 0.7;}
.node.selected, .edge.selected {opacity: 1;}
.edge:hover path { stroke: red; }
.edge:hover polygon { stroke: red; fill: red; }
]]></style>
<script type="application/ecmascript" xlink:href="../../svg.min.js"/>
<svg id="graph" class="graph">
<g id="graph0" class="graph" transform="scale(1 1) rotate(0) translate(4 138)">
<title>NetworkManager::onPeerLocalDescription</title>
<!-- Node1 -->
<g id="Node000001" class="node">
<title>Node1</title>
<g id="a_Node000001"><a xlink:title=" ">
<polygon fill="#999999" stroke="#666666" points="150.25,-83 0,-83 0,-51 150.25,-51 150.25,-83"/>
<text xml:space="preserve" text-anchor="start" x="8" y="-69.5" font-family="Helvetica,sans-Serif" font-size="10.00">NetworkManager::onPeerLocal</text>
<text xml:space="preserve" text-anchor="middle" x="75.12" y="-57.5" font-family="Helvetica,sans-Serif" font-size="10.00">Description</text>
</a>
</g>
</g>
<!-- Node2 -->
<g id="Node000002" class="node">
<title>Node2</title>
<g id="a_Node000002"><a xlink:href="../../da/d21/class_network_manager.html#ad19feeaef299ef3c9d3003a43de610c7" target="_top" xlink:title=" ">
<polygon fill="white" stroke="#666666" points="351.5,-134 189.25,-134 189.25,-114 351.5,-114 351.5,-134"/>
<text xml:space="preserve" text-anchor="middle" x="270.38" y="-120.5" font-family="Helvetica,sans-Serif" font-size="10.00">NetworkManager::getMyUniqueId</text>
</a>
</g>
</g>
<!-- Node1&#45;&gt;Node2 -->
<g id="edge1_Node000001_Node000002" class="edge">
<title>Node1&#45;&gt;Node2</title>
<g id="a_edge1_Node000001_Node000002"><a xlink:title=" ">
<path fill="none" stroke="#63b8ff" d="M120.25,-83.44C140.24,-90.58 164.28,-98.72 186.25,-105 193.42,-107.05 200.99,-109.03 208.52,-110.89"/>
<polygon fill="#63b8ff" stroke="#63b8ff" points="207.47,-114.23 218.01,-113.16 209.1,-107.43 207.47,-114.23"/>
</a>
</g>
</g>
<!-- Node3 -->
<g id="Node000003" class="node">
<title>Node3</title>
<g id="a_Node000003"><a xlink:href="../../da/d21/class_network_manager.html#a5267aded07d4896adc1fb67d48cc132b" target="_top" xlink:title=" ">
<polygon fill="white" stroke="#666666" points="354.5,-96 186.25,-96 186.25,-76 354.5,-76 354.5,-96"/>
<text xml:space="preserve" text-anchor="middle" x="270.38" y="-82.5" font-family="Helvetica,sans-Serif" font-size="10.00">NetworkManager::getMyUsername</text>
</a>
</g>
</g>
<!-- Node1&#45;&gt;Node3 -->
<g id="edge2_Node000001_Node000003" class="edge">
<title>Node1&#45;&gt;Node3</title>
<g id="a_edge2_Node000001_Node000003"><a xlink:title=" ">
<path fill="none" stroke="#63b8ff" d="M150.56,-74.32C158.44,-75.09 166.53,-75.89 174.59,-76.68"/>
<polygon fill="#63b8ff" stroke="#63b8ff" points="174.17,-80.16 184.46,-77.65 174.85,-73.19 174.17,-80.16"/>
</a>
</g>
</g>
<!-- Node4 -->
<g id="Node000004" class="node">
<title>Node4</title>
<g id="a_Node000004"><a xlink:href="../../d5/d64/namespacemsg.html#ac4fc3b229e6af29b442109fdc24e373e" target="_top" xlink:title=" ">
<polygon fill="white" stroke="#666666" points="319.25,-58 221.5,-58 221.5,-38 319.25,-38 319.25,-58"/>
<text xml:space="preserve" text-anchor="middle" x="270.38" y="-44.5" font-family="Helvetica,sans-Serif" font-size="10.00">msg::makeAnswer</text>
</a>
</g>
</g>
<!-- Node1&#45;&gt;Node4 -->
<g id="edge3_Node000001_Node000004" class="edge">
<title>Node1&#45;&gt;Node4</title>
<g id="a_edge3_Node000001_Node000004"><a xlink:title=" ">
<path fill="none" stroke="#63b8ff" d="M150.56,-59.68C170.2,-57.75 191.13,-55.69 209.86,-53.85"/>
<polygon fill="#63b8ff" stroke="#63b8ff" points="210.09,-57.35 219.7,-52.88 209.41,-50.38 210.09,-57.35"/>
</a>
</g>
</g>
<!-- Node5 -->
<g id="Node000005" class="node">
<title>Node5</title>
<g id="a_Node000005"><a xlink:href="../../d5/d64/namespacemsg.html#a1cc587e60fa390fb1bbb4f36d0dea83b" target="_top" xlink:title=" ">
<polygon fill="white" stroke="#666666" points="313.25,-20 227.5,-20 227.5,0 313.25,0 313.25,-20"/>
<text xml:space="preserve" text-anchor="middle" x="270.38" y="-6.5" font-family="Helvetica,sans-Serif" font-size="10.00">msg::makeOffer</text>
</a>
</g>
</g>
<!-- Node1&#45;&gt;Node5 -->
<g id="edge4_Node000001_Node000005" class="edge">
<title>Node1&#45;&gt;Node5</title>
<g id="a_edge4_Node000001_Node000005"><a xlink:title=" ">
<path fill="none" stroke="#63b8ff" d="M120.25,-50.56C140.24,-43.42 164.28,-35.28 186.25,-29 195.87,-26.25 206.2,-23.63 216.2,-21.26"/>
<polygon fill="#63b8ff" stroke="#63b8ff" points="216.86,-24.7 225.81,-19.04 215.28,-17.88 216.86,-24.7"/>
</a>
</g>
</g>
</g>
</svg>
</svg>

<style type='text/css'>
<![CDATA[
[data-mouse-over-selected='false'] { opacity: 0.7; }
[data-mouse-over-selected='true']  { opacity: 1.0; }
]]>
</style>
<script type="application/ecmascript"><![CDATA[
document.addEventListener('DOMContentLoaded', (event) => {
  highlightEdges();
  highlightAdjacentNodes();
});
]]></script>
</svg>
