<?xml version="1.0" encoding="UTF-8" standalone="no"?>
<!DOCTYPE svg PUBLIC "-//W3C//DTD SVG 1.1//EN"
 "http://www.w3.org/Graphics/SVG/1.1/DTD/svg11.dtd">
<!-- Generated by graphviz version 14.0.2 (20251019.1705)
 -->
<!-- Title: NetworkManager::buildCreateMarkerFrame Pages: 1 -->
<svg width="481pt" height="256pt"
 viewBox="0.00 0.00 481.00 256.00" xmlns="http://www.w3.org/2000/svg" xmlns:xlink="http://www.w3.org/1999/xlink">
<g id="graph0" class="graph" transform="scale(1 1) rotate(0) translate(4 252)">
<title>NetworkManager::buildCreateMarkerFrame</title>
<!-- Node1 -->
<g id="Node000001" class="node">
<title>Node1</title>
<g id="a_Node000001"><a xlink:title=" ">
<polygon fill="#999999" stroke="#666666" points="145.75,-140 0,-140 0,-108 145.75,-108 145.75,-140"/>
<text xml:space="preserve" text-anchor="start" x="8" y="-126.5" font-family="Helvetica,sans-Serif" font-size="10.00">NetworkManager::buildCreate</text>
<text xml:space="preserve" text-anchor="middle" x="72.88" y="-114.5" font-family="Helvetica,sans-Serif" font-size="10.00">MarkerFrame</text>
</a>
</g>
</g>
<!-- Node2 -->
<g id="Node000002" class="node">
<title>Node2</title>
<g id="a_Node000002"><a xlink:href="../../d0/dc2/class_serializer.html#ac0767e8086f1a9879ba76d1576b7e558" target="_top" xlink:title=" ">
<polygon fill="white" stroke="#666666" points="314.38,-134 184.38,-134 184.38,-114 314.38,-114 314.38,-134"/>
<text xml:space="preserve" text-anchor="middle" x="249.38" y="-120.5" font-family="Helvetica,sans-Serif" font-size="10.00">Serializer::serializeMoving</text>
</a>
</g>
</g>
<!-- Node1&#45;&gt;Node2 -->
<g id="edge1_Node000001_Node000002" class="edge">
<title>Node1&#45;&gt;Node2</title>
<g id="a_edge1_Node000001_Node000002"><a xlink:title=" ">
<path fill="none" stroke="#63b8ff" d="M146.11,-124C154.85,-124 163.79,-124 172.57,-124"/>
<polygon fill="#63b8ff" stroke="#63b8ff" points="172.49,-127.5 182.49,-124 172.49,-120.5 172.49,-127.5"/>
</a>
</g>
</g>
<!-- Node4 -->
<g id="Node000004" class="node">
<title>Node4</title>
<g id="a_Node000004"><a xlink:href="../../d0/dc2/class_serializer.html#a9552a2e71fe480af903507fb148c8964" target="_top" xlink:title=" ">
<polygon fill="white" stroke="#666666" points="316.25,-210 182.5,-210 182.5,-190 316.25,-190 316.25,-210"/>
<text xml:space="preserve" text-anchor="middle" x="249.38" y="-196.5" font-family="Helvetica,sans-Serif" font-size="10.00">Serializer::serializePosition</text>
</a>
</g>
</g>
<!-- Node1&#45;&gt;Node4 -->
<g id="edge3_Node000001_Node000004" class="edge">
<title>Node1&#45;&gt;Node4</title>
<g id="a_edge3_Node000001_Node000004"><a xlink:title=" ">
<path fill="none" stroke="#63b8ff" d="M101.06,-140.4C122.43,-152.79 153.25,-169.55 181.75,-181 186.33,-182.84 191.16,-184.58 196.03,-186.2"/>
<polygon fill="#63b8ff" stroke="#63b8ff" points="194.66,-189.44 205.25,-189.11 196.77,-182.76 194.66,-189.44"/>
</a>
</g>
</g>
<!-- Node6 -->
<g id="Node000006" class="node">
<title>Node6</title>
<g id="a_Node000006"><a xlink:href="../../d0/dc2/class_serializer.html#a6be006b0cf99a37c2146723395013b76" target="_top" xlink:title=" ">
<polygon fill="white" stroke="#666666" points="308.38,-248 190.38,-248 190.38,-228 308.38,-228 308.38,-248"/>
<text xml:space="preserve" text-anchor="middle" x="249.38" y="-234.5" font-family="Helvetica,sans-Serif" font-size="10.00">Serializer::serializeSize</text>
</a>
</g>
</g>
<!-- Node1&#45;&gt;Node6 -->
<g id="edge5_Node000001_Node000006" class="edge">
<title>Node1&#45;&gt;Node6</title>
<g id="a_edge5_Node000001_Node000006"><a xlink:title=" ">
<path fill="none" stroke="#63b8ff" d="M87.93,-140.23C107.09,-161.36 143.42,-198.07 181.75,-219 184.77,-220.65 187.94,-222.16 191.2,-223.56"/>
<polygon fill="#63b8ff" stroke="#63b8ff" points="189.8,-226.77 200.39,-227.07 192.29,-220.23 189.8,-226.77"/>
</a>
</g>
</g>
<!-- Node7 -->
<g id="Node000007" class="node">
<title>Node7</title>
<g id="a_Node000007"><a xlink:href="../../d0/dc2/class_serializer.html#a8a72c08ebb91348dc2a7ef6557c44f6c" target="_top" xlink:title=" ">
<polygon fill="white" stroke="#666666" points="311.38,-20 187.38,-20 187.38,0 311.38,0 311.38,-20"/>
<text xml:space="preserve" text-anchor="middle" x="249.38" y="-6.5" font-family="Helvetica,sans-Serif" font-size="10.00">Serializer::serializeString</text>
</a>
</g>
</g>
<!-- Node1&#45;&gt;Node7 -->
<g id="edge7_Node000001_Node000007" class="edge">
<title>Node1&#45;&gt;Node7</title>
<g id="a_edge7_Node000001_Node000007"><a xlink:title=" ">
<path fill="none" stroke="#63b8ff" d="M87.93,-107.77C107.09,-86.64 143.42,-49.93 181.75,-29 184.77,-27.35 187.94,-25.84 191.2,-24.44"/>
<polygon fill="#63b8ff" stroke="#63b8ff" points="192.29,-27.77 200.39,-20.93 189.8,-21.23 192.29,-27.77"/>
</a>
</g>
</g>
<!-- Node9 -->
<g id="Node000009" class="node">
<title>Node9</title>
<g id="a_Node000009"><a xlink:href="../../d0/dc2/class_serializer.html#a60889622ee4e36ea28a284e99bbdf4e5" target="_top" xlink:title=" ">
<polygon fill="white" stroke="#666666" points="313.25,-96 185.5,-96 185.5,-76 313.25,-76 313.25,-96"/>
<text xml:space="preserve" text-anchor="middle" x="249.38" y="-82.5" font-family="Helvetica,sans-Serif" font-size="10.00">Serializer::serializeUInt64</text>
</a>
</g>
</g>
<!-- Node1&#45;&gt;Node9 -->
<g id="edge9_Node000001_Node000009" class="edge">
<title>Node1&#45;&gt;Node9</title>
<g id="a_edge9_Node000001_Node000009"><a xlink:title=" ">
<path fill="none" stroke="#63b8ff" d="M146.11,-108.27C160.54,-105.13 175.53,-101.86 189.44,-98.83"/>
<polygon fill="#63b8ff" stroke="#63b8ff" points="189.83,-102.33 198.86,-96.78 188.34,-95.49 189.83,-102.33"/>
</a>
</g>
</g>
<!-- Node10 -->
<g id="Node000010" class="node">
<title>Node10</title>
<g id="a_Node000010"><a xlink:href="../../d0/dc2/class_serializer.html#a3c3d58eaacc5f3c6f19cfde75424e9cc" target="_top" xlink:title=" ">
<polygon fill="white" stroke="#666666" points="310.62,-58 188.12,-58 188.12,-38 310.62,-38 310.62,-58"/>
<text xml:space="preserve" text-anchor="middle" x="249.38" y="-44.5" font-family="Helvetica,sans-Serif" font-size="10.00">Serializer::serializeUInt8</text>
</a>
</g>
</g>
<!-- Node1&#45;&gt;Node10 -->
<g id="edge10_Node000001_Node000010" class="edge">
<title>Node1&#45;&gt;Node10</title>
<g id="a_edge10_Node000001_Node000010"><a xlink:title=" ">
<path fill="none" stroke="#63b8ff" d="M101.06,-107.6C122.43,-95.21 153.25,-78.45 181.75,-67 186.33,-65.16 191.16,-63.42 196.03,-61.8"/>
<polygon fill="#63b8ff" stroke="#63b8ff" points="196.77,-65.24 205.25,-58.89 194.66,-58.56 196.77,-65.24"/>
</a>
</g>
</g>
<!-- Node11 -->
<g id="Node000011" class="node">
<title>Node11</title>
<g id="a_Node000011"><a xlink:href="../../d0/dc2/class_serializer.html#adf940baab7d143611e19fb957725a80a" target="_top" xlink:title=" ">
<polygon fill="white" stroke="#666666" points="317,-172 181.75,-172 181.75,-152 317,-152 317,-172"/>
<text xml:space="preserve" text-anchor="middle" x="249.38" y="-158.5" font-family="Helvetica,sans-Serif" font-size="10.00">Serializer::serializeVisibility</text>
</a>
</g>
</g>
<!-- Node1&#45;&gt;Node11 -->
<g id="edge11_Node000001_Node000011" class="edge">
<title>Node1&#45;&gt;Node11</title>
<g id="a_edge11_Node000001_Node000011"><a xlink:title=" ">
<path fill="none" stroke="#63b8ff" d="M146.11,-139.73C160.54,-142.87 175.53,-146.14 189.44,-149.17"/>
<polygon fill="#63b8ff" stroke="#63b8ff" points="188.34,-152.51 198.86,-151.22 189.83,-145.67 188.34,-152.51"/>
</a>
</g>
</g>
<!-- Node3 -->
<g id="Node000003" class="node">
<title>Node3</title>
<g id="a_Node000003"><a xlink:href="../../d0/dc2/class_serializer.html#a2a407c3a379b680296ee190ed625f05f" target="_top" xlink:title=" ">
<polygon fill="white" stroke="#666666" points="472.12,-153 354.12,-153 354.12,-133 472.12,-133 472.12,-153"/>
<text xml:space="preserve" text-anchor="middle" x="413.12" y="-139.5" font-family="Helvetica,sans-Serif" font-size="10.00">Serializer::serializeBool</text>
</a>
</g>
</g>
<!-- Node2&#45;&gt;Node3 -->
<g id="edge2_Node000002_Node000003" class="edge">
<title>Node2&#45;&gt;Node3</title>
<g id="a_edge2_Node000002_Node000003"><a xlink:title=" ">
<path fill="none" stroke="#63b8ff" d="M314.77,-131.56C323.91,-132.64 333.35,-133.75 342.59,-134.83"/>
<polygon fill="#63b8ff" stroke="#63b8ff" points="341.88,-138.27 352.22,-135.96 342.69,-131.32 341.88,-138.27"/>
</a>
</g>
</g>
<!-- Node5 -->
<g id="Node000005" class="node">
<title>Node5</title>
<g id="a_Node000005"><a xlink:href="../../d0/dc2/class_serializer.html#a92ffe65857abd6eea6a393056a9bb533" target="_top" xlink:title=" ">
<polygon fill="white" stroke="#666666" points="473.25,-229 353,-229 353,-209 473.25,-209 473.25,-229"/>
<text xml:space="preserve" text-anchor="middle" x="413.12" y="-215.5" font-family="Helvetica,sans-Serif" font-size="10.00">Serializer::serializeFloat</text>
</a>
</g>
</g>
<!-- Node4&#45;&gt;Node5 -->
<g id="edge4_Node000004_Node000005" class="edge">
<title>Node4&#45;&gt;Node5</title>
<g id="a_edge4_Node000004_Node000005"><a xlink:title=" ">
<path fill="none" stroke="#63b8ff" d="M316.63,-207.78C324.85,-208.75 333.27,-209.74 341.55,-210.71"/>
<polygon fill="#63b8ff" stroke="#63b8ff" points="340.88,-214.15 351.22,-211.85 341.69,-207.2 340.88,-214.15"/>
</a>
</g>
</g>
<!-- Node6&#45;&gt;Node5 -->
<g id="edge6_Node000006_Node000005" class="edge">
<title>Node6&#45;&gt;Node5</title>
<g id="a_edge6_Node000006_Node000005"><a xlink:title=" ">
<path fill="none" stroke="#63b8ff" d="M308.77,-231.14C319.38,-229.89 330.55,-228.58 341.47,-227.3"/>
<polygon fill="#63b8ff" stroke="#63b8ff" points="341.7,-230.8 351.22,-226.15 340.88,-223.84 341.7,-230.8"/>
</a>
</g>
</g>
<!-- Node8 -->
<g id="Node000008" class="node">
<title>Node8</title>
<g id="a_Node000008"><a xlink:href="../../d0/dc2/class_serializer.html#ac812cf485e5804fd6f22d34ae076f79f" target="_top" xlink:title=" ">
<polygon fill="white" stroke="#666666" points="468,-20 358.25,-20 358.25,0 468,0 468,-20"/>
<text xml:space="preserve" text-anchor="middle" x="413.12" y="-6.5" font-family="Helvetica,sans-Serif" font-size="10.00">Serializer::serializeInt</text>
</a>
</g>
</g>
<!-- Node7&#45;&gt;Node8 -->
<g id="edge8_Node000007_Node000008" class="edge">
<title>Node7&#45;&gt;Node8</title>
<g id="a_edge8_Node000007_Node000008"><a xlink:title=" ">
<path fill="none" stroke="#63b8ff" d="M311.53,-10C322.93,-10 334.9,-10 346.43,-10"/>
<polygon fill="#63b8ff" stroke="#63b8ff" points="346.28,-13.5 356.28,-10 346.28,-6.5 346.28,-13.5"/>
</a>
</g>
</g>
<!-- Node11&#45;&gt;Node3 -->
<g id="edge12_Node000011_Node000003" class="edge">
<title>Node11&#45;&gt;Node3</title>
<g id="a_edge12_Node000011_Node000003"><a xlink:title=" ">
<path fill="none" stroke="#63b8ff" d="M317.1,-154.16C325.47,-153.18 334.06,-152.17 342.48,-151.18"/>
<polygon fill="#63b8ff" stroke="#63b8ff" points="342.8,-154.67 352.32,-150.03 341.98,-147.72 342.8,-154.67"/>
</a>
</g>
</g>
</g>
</svg>
