<?xml version="1.0" encoding="UTF-8" standalone="no"?>
<!DOCTYPE svg PUBLIC "-//W3C//DTD SVG 1.1//EN"
 "http://www.w3.org/Graphics/SVG/1.1/DTD/svg11.dtd">
<!-- Generated by graphviz version 14.0.2 (20251019.1705)
 -->
<!-- Title: NetworkManager::buildSnapshotBoardFrame Pages: 1 -->
<svg width="486pt" height="218pt"
 viewBox="0.00 0.00 486.00 218.00" xmlns="http://www.w3.org/2000/svg" xmlns:xlink="http://www.w3.org/1999/xlink">

<svg id="main" version="1.1" xmlns="http://www.w3.org/2000/svg" xmlns:xlink="http://www.w3.org/1999/xlink" xml:space="preserve" onload="init(evt)">
<style type="text/css"><![CDATA[
.node, .edge {opacity: 0.7;}
.node.selected, .edge.selected {opacity: 1;}
.edge:hover path { stroke: red; }
.edge:hover polygon { stroke: red; fill: red; }
]]></style>
<script type="application/ecmascript" xlink:href="../../svg.min.js"/>
<svg id="graph" class="graph">
<g id="graph0" class="graph" transform="scale(1 1) rotate(0) translate(4 214)">
<title>NetworkManager::buildSnapshotBoardFrame</title>
<!-- Node1 -->
<g id="Node000001" class="node">
<title>Node1</title>
<g id="a_Node000001"><a xlink:title=" ">
<polygon fill="#999999" stroke="#666666" points="157.75,-121 0,-121 0,-89 157.75,-89 157.75,-121"/>
<text xml:space="preserve" text-anchor="start" x="8" y="-107.5" font-family="Helvetica,sans-Serif" font-size="10.00">NetworkManager::buildSnapshot</text>
<text xml:space="preserve" text-anchor="middle" x="78.88" y="-95.5" font-family="Helvetica,sans-Serif" font-size="10.00">BoardFrame</text>
</a>
</g>
</g>
<!-- Node2 -->
<g id="Node000002" class="node">
<title>Node2</title>
<g id="a_Node000002"><a xlink:href="../../d0/dc2/class_serializer.html#a2a407c3a379b680296ee190ed625f05f" target="_top" xlink:title=" ">
<polygon fill="white" stroke="#666666" points="316.62,-210 198.62,-210 198.62,-190 316.62,-190 316.62,-210"/>
<text xml:space="preserve" text-anchor="middle" x="257.62" y="-196.5" font-family="Helvetica,sans-Serif" font-size="10.00">Serializer::serializeBool</text>
</a>
</g>
</g>
<!-- Node1&#45;&gt;Node2 -->
<g id="edge1_Node000001_Node000002" class="edge">
<title>Node1&#45;&gt;Node2</title>
<g id="a_edge1_Node000001_Node000002"><a xlink:title=" ">
<path fill="none" stroke="#63b8ff" d="M100.17,-121.26C122.13,-138.17 158.71,-164.46 193.75,-181 197.31,-182.68 201.06,-184.26 204.87,-185.72"/>
<polygon fill="#63b8ff" stroke="#63b8ff" points="203.69,-189.01 214.29,-189.05 206.03,-182.41 203.69,-189.01"/>
</a>
</g>
</g>
<!-- Node3 -->
<g id="Node000003" class="node">
<title>Node3</title>
<g id="a_Node000003"><a xlink:href="../../d0/dc2/class_serializer.html#a92ffe65857abd6eea6a393056a9bb533" target="_top" xlink:title=" ">
<polygon fill="white" stroke="#666666" points="477.75,-77 357.5,-77 357.5,-57 477.75,-57 477.75,-77"/>
<text xml:space="preserve" text-anchor="middle" x="417.62" y="-63.5" font-family="Helvetica,sans-Serif" font-size="10.00">Serializer::serializeFloat</text>
</a>
</g>
</g>
<!-- Node1&#45;&gt;Node3 -->
<g id="edge2_Node000001_Node000003" class="edge">
<title>Node1&#45;&gt;Node3</title>
<g id="a_edge2_Node000001_Node000003"><a xlink:title=" ">
<path fill="none" stroke="#63b8ff" d="M158.12,-112.44C205.77,-115.14 267.64,-115.36 321.5,-105 344.17,-100.64 368.3,-90.93 386.59,-82.42"/>
<polygon fill="#63b8ff" stroke="#63b8ff" points="388.03,-85.61 395.53,-78.12 385,-79.3 388.03,-85.61"/>
</a>
</g>
</g>
<!-- Node4 -->
<g id="Node000004" class="node">
<title>Node4</title>
<g id="a_Node000004"><a xlink:href="../../d0/dc2/class_serializer.html#a8a72c08ebb91348dc2a7ef6557c44f6c" target="_top" xlink:title=" ">
<polygon fill="white" stroke="#666666" points="319.62,-172 195.62,-172 195.62,-152 319.62,-152 319.62,-172"/>
<text xml:space="preserve" text-anchor="middle" x="257.62" y="-158.5" font-family="Helvetica,sans-Serif" font-size="10.00">Serializer::serializeString</text>
</a>
</g>
</g>
<!-- Node1&#45;&gt;Node4 -->
<g id="edge3_Node000001_Node000004" class="edge">
<title>Node1&#45;&gt;Node4</title>
<g id="a_edge3_Node000001_Node000004"><a xlink:title=" ">
<path fill="none" stroke="#63b8ff" d="M131,-121.49C157.08,-129.9 188.46,-140.02 213.33,-148.04"/>
<polygon fill="#63b8ff" stroke="#63b8ff" points="212.23,-151.36 222.82,-151.1 214.38,-144.7 212.23,-151.36"/>
</a>
</g>
</g>
<!-- Node6 -->
<g id="Node000006" class="node">
<title>Node6</title>
<g id="a_Node000006"><a xlink:href="../../d0/dc2/class_serializer.html#a60889622ee4e36ea28a284e99bbdf4e5" target="_top" xlink:title=" ">
<polygon fill="white" stroke="#666666" points="321.5,-96 193.75,-96 193.75,-76 321.5,-76 321.5,-96"/>
<text xml:space="preserve" text-anchor="middle" x="257.62" y="-82.5" font-family="Helvetica,sans-Serif" font-size="10.00">Serializer::serializeUInt64</text>
</a>
</g>
</g>
<!-- Node1&#45;&gt;Node6 -->
<g id="edge5_Node000001_Node000006" class="edge">
<title>Node1&#45;&gt;Node6</title>
<g id="a_edge5_Node000001_Node000006"><a xlink:title=" ">
<path fill="none" stroke="#63b8ff" d="M158.17,-96.58C166.11,-95.73 174.16,-94.86 182.06,-94.02"/>
<polygon fill="#63b8ff" stroke="#63b8ff" points="182.43,-97.5 192,-92.95 181.68,-90.54 182.43,-97.5"/>
</a>
</g>
</g>
<!-- Node7 -->
<g id="Node000007" class="node">
<title>Node7</title>
<g id="a_Node000007"><a xlink:href="../../d0/dc2/class_serializer.html#a3c3d58eaacc5f3c6f19cfde75424e9cc" target="_top" xlink:title=" ">
<polygon fill="white" stroke="#666666" points="318.88,-58 196.38,-58 196.38,-38 318.88,-38 318.88,-58"/>
<text xml:space="preserve" text-anchor="middle" x="257.62" y="-44.5" font-family="Helvetica,sans-Serif" font-size="10.00">Serializer::serializeUInt8</text>
</a>
</g>
</g>
<!-- Node1&#45;&gt;Node7 -->
<g id="edge6_Node000001_Node000007" class="edge">
<title>Node1&#45;&gt;Node7</title>
<g id="a_edge6_Node000001_Node000007"><a xlink:title=" ">
<path fill="none" stroke="#63b8ff" d="M128.26,-88.51C148.46,-81.72 172.2,-73.85 193.75,-67 199.18,-65.27 204.89,-63.5 210.55,-61.76"/>
<polygon fill="#63b8ff" stroke="#63b8ff" points="211.33,-65.18 219.87,-58.92 209.29,-58.48 211.33,-65.18"/>
</a>
</g>
</g>
<!-- Node8 -->
<g id="Node000008" class="node">
<title>Node8</title>
<g id="a_Node000008"><a xlink:href="../../d0/dc2/class_serializer.html#a52943821c1686ae47c30586ec7f9bc7e" target="_top" xlink:title=" ">
<polygon fill="white" stroke="#666666" points="317.75,-20 197.5,-20 197.5,0 317.75,0 317.75,-20"/>
<text xml:space="preserve" text-anchor="middle" x="257.62" y="-6.5" font-family="Helvetica,sans-Serif" font-size="10.00">Serializer::serializeVec2</text>
</a>
</g>
</g>
<!-- Node1&#45;&gt;Node8 -->
<g id="edge7_Node000001_Node000008" class="edge">
<title>Node1&#45;&gt;Node8</title>
<g id="a_edge7_Node000001_Node000008"><a xlink:title=" ">
<path fill="none" stroke="#63b8ff" d="M100.17,-88.74C122.13,-71.83 158.71,-45.54 193.75,-29 197.31,-27.32 201.06,-25.74 204.87,-24.28"/>
<polygon fill="#63b8ff" stroke="#63b8ff" points="206.03,-27.59 214.29,-20.95 203.69,-20.99 206.03,-27.59"/>
</a>
</g>
</g>
<!-- Node5 -->
<g id="Node000005" class="node">
<title>Node5</title>
<g id="a_Node000005"><a xlink:href="../../d0/dc2/class_serializer.html#ac812cf485e5804fd6f22d34ae076f79f" target="_top" xlink:title=" ">
<polygon fill="white" stroke="#666666" points="472.5,-172 362.75,-172 362.75,-152 472.5,-152 472.5,-172"/>
<text xml:space="preserve" text-anchor="middle" x="417.62" y="-158.5" font-family="Helvetica,sans-Serif" font-size="10.00">Serializer::serializeInt</text>
</a>
</g>
</g>
<!-- Node4&#45;&gt;Node5 -->
<g id="edge4_Node000004_Node000005" class="edge">
<title>Node4&#45;&gt;Node5</title>
<g id="a_edge4_Node000004_Node000005"><a xlink:title=" ">
<path fill="none" stroke="#63b8ff" d="M319.71,-162C329.93,-162 340.58,-162 350.91,-162"/>
<polygon fill="#63b8ff" stroke="#63b8ff" points="350.89,-165.5 360.89,-162 350.89,-158.5 350.89,-165.5"/>
</a>
</g>
</g>
<!-- Node8&#45;&gt;Node3 -->
<g id="edge8_Node000008_Node000003" class="edge">
<title>Node8&#45;&gt;Node3</title>
<g id="a_edge8_Node000008_Node000003"><a xlink:title=" ">
<path fill="none" stroke="#63b8ff" d="M295.04,-20.42C303.75,-23.07 313,-26.02 321.5,-29 341.65,-36.06 363.83,-44.85 381.7,-52.21"/>
<polygon fill="#63b8ff" stroke="#63b8ff" points="380.23,-55.39 390.81,-55.99 382.92,-48.92 380.23,-55.39"/>
</a>
</g>
</g>
</g>
</svg>
</svg>

<style type='text/css'>
<![CDATA[
[data-mouse-over-selected='false'] { opacity: 0.7; }
[data-mouse-over-selected='true']  { opacity: 1.0; }
]]>
</style>
<script type="application/ecmascript"><![CDATA[
document.addEventListener('DOMContentLoaded', (event) => {
  highlightEdges();
  highlightAdjacentNodes();
});
]]></script>
</svg>
