<?xml version="1.0" encoding="UTF-8" standalone="no"?>
<!DOCTYPE svg PUBLIC "-//W3C//DTD SVG 1.1//EN"
 "http://www.w3.org/Graphics/SVG/1.1/DTD/svg11.dtd">
<!-- Generated by graphviz version 14.0.2 (20251019.1705)
 -->
<!-- Title: NetworkManager::sendFogDelete Pages: 1 -->
<svg width="535pt" height="116pt"
 viewBox="0.00 0.00 535.00 116.00" xmlns="http://www.w3.org/2000/svg" xmlns:xlink="http://www.w3.org/1999/xlink">
<g id="graph0" class="graph" transform="scale(1 1) rotate(0) translate(4 112)">
<title>NetworkManager::sendFogDelete</title>
<!-- Node1 -->
<g id="Node000001" class="node">
<title>Node1</title>
<g id="a_Node000001"><a xlink:title=" ">
<polygon fill="#999999" stroke="#666666" points="162.25,-77 0,-77 0,-57 162.25,-57 162.25,-77"/>
<text xml:space="preserve" text-anchor="middle" x="81.12" y="-63.5" font-family="Helvetica,sans-Serif" font-size="10.00">NetworkManager::sendFogDelete</text>
</a>
</g>
</g>
<!-- Node2 -->
<g id="Node000002" class="node">
<title>Node2</title>
<g id="a_Node000002"><a xlink:href="../../da/d21/class_network_manager.html#aeb0d7937d1d825d09dc8c7b13e35a962" target="_top" xlink:title=" ">
<polygon fill="white" stroke="#666666" points="337.25,-108 198.25,-108 198.25,-76 337.25,-76 337.25,-108"/>
<text xml:space="preserve" text-anchor="start" x="206.25" y="-94.5" font-family="Helvetica,sans-Serif" font-size="10.00">NetworkManager::broadcast</text>
<text xml:space="preserve" text-anchor="middle" x="267.75" y="-82.5" font-family="Helvetica,sans-Serif" font-size="10.00">GameFrame</text>
</a>
</g>
</g>
<!-- Node1&#45;&gt;Node2 -->
<g id="edge1_Node000001_Node000002" class="edge">
<title>Node1&#45;&gt;Node2</title>
<g id="a_edge1_Node000001_Node000002"><a xlink:title=" ">
<path fill="none" stroke="#63b8ff" d="M159.62,-77.49C168.57,-78.71 177.71,-79.94 186.7,-81.16"/>
<polygon fill="#63b8ff" stroke="#63b8ff" points="186.09,-84.61 196.47,-82.48 187.03,-77.67 186.09,-84.61"/>
</a>
</g>
</g>
<!-- Node4 -->
<g id="Node000004" class="node">
<title>Node4</title>
<g id="a_Node000004"><a xlink:href="../../da/d21/class_network_manager.html#ae092d67d435d2d9db776324c2c9f58b8" target="_top" xlink:title=" ">
<polygon fill="white" stroke="#666666" points="334.25,-58 201.25,-58 201.25,-26 334.25,-26 334.25,-58"/>
<text xml:space="preserve" text-anchor="start" x="209.25" y="-44.5" font-family="Helvetica,sans-Serif" font-size="10.00">NetworkManager::buildFog</text>
<text xml:space="preserve" text-anchor="middle" x="267.75" y="-32.5" font-family="Helvetica,sans-Serif" font-size="10.00">DeleteFrame</text>
</a>
</g>
</g>
<!-- Node1&#45;&gt;Node4 -->
<g id="edge3_Node000001_Node000004" class="edge">
<title>Node1&#45;&gt;Node4</title>
<g id="a_edge3_Node000001_Node000004"><a xlink:title=" ">
<path fill="none" stroke="#63b8ff" d="M159.62,-56.51C169.59,-55.16 179.79,-53.78 189.75,-52.43"/>
<polygon fill="#63b8ff" stroke="#63b8ff" points="189.92,-55.94 199.36,-51.13 188.98,-49 189.92,-55.94"/>
</a>
</g>
</g>
<!-- Node3 -->
<g id="Node000003" class="node">
<title>Node3</title>
<g id="a_Node000003"><a xlink:href="../../da/d21/class_network_manager.html#a8f97d83ec35ea68c1e37d6837c1c8b4c" target="_top" xlink:title=" ">
<polygon fill="white" stroke="#666666" points="527.25,-102 373.25,-102 373.25,-82 527.25,-82 527.25,-102"/>
<text xml:space="preserve" text-anchor="middle" x="450.25" y="-88.5" font-family="Helvetica,sans-Serif" font-size="10.00">NetworkManager::sendGameTo</text>
</a>
</g>
</g>
<!-- Node2&#45;&gt;Node3 -->
<g id="edge2_Node000002_Node000003" class="edge">
<title>Node2&#45;&gt;Node3</title>
<g id="a_edge2_Node000002_Node000003"><a xlink:title=" ">
<path fill="none" stroke="#63b8ff" d="M337.5,-92C345.36,-92 353.44,-92 361.5,-92"/>
<polygon fill="#63b8ff" stroke="#63b8ff" points="361.34,-95.5 371.34,-92 361.34,-88.5 361.34,-95.5"/>
</a>
</g>
</g>
<!-- Node5 -->
<g id="Node000005" class="node">
<title>Node5</title>
<g id="a_Node000005"><a xlink:href="../../d0/dc2/class_serializer.html#a60889622ee4e36ea28a284e99bbdf4e5" target="_top" xlink:title=" ">
<polygon fill="white" stroke="#666666" points="514.12,-58 386.38,-58 386.38,-38 514.12,-38 514.12,-58"/>
<text xml:space="preserve" text-anchor="middle" x="450.25" y="-44.5" font-family="Helvetica,sans-Serif" font-size="10.00">Serializer::serializeUInt64</text>
</a>
</g>
</g>
<!-- Node4&#45;&gt;Node5 -->
<g id="edge4_Node000004_Node000005" class="edge">
<title>Node4&#45;&gt;Node5</title>
<g id="a_edge4_Node000004_Node000005"><a xlink:title=" ">
<path fill="none" stroke="#63b8ff" d="M334.68,-44.19C347.61,-44.62 361.26,-45.08 374.46,-45.51"/>
<polygon fill="#63b8ff" stroke="#63b8ff" points="374.28,-49.01 384.39,-45.84 374.51,-42.01 374.28,-49.01"/>
</a>
</g>
</g>
<!-- Node6 -->
<g id="Node000006" class="node">
<title>Node6</title>
<g id="a_Node000006"><a xlink:href="../../d0/dc2/class_serializer.html#a3c3d58eaacc5f3c6f19cfde75424e9cc" target="_top" xlink:title=" ">
<polygon fill="white" stroke="#666666" points="511.5,-20 389,-20 389,0 511.5,0 511.5,-20"/>
<text xml:space="preserve" text-anchor="middle" x="450.25" y="-6.5" font-family="Helvetica,sans-Serif" font-size="10.00">Serializer::serializeUInt8</text>
</a>
</g>
</g>
<!-- Node4&#45;&gt;Node6 -->
<g id="edge5_Node000004_Node000006" class="edge">
<title>Node4&#45;&gt;Node6</title>
<g id="a_edge5_Node000004_Node000006"><a xlink:title=" ">
<path fill="none" stroke="#63b8ff" d="M334.68,-30.31C349.13,-27.75 364.47,-25.03 379.07,-22.44"/>
<polygon fill="#63b8ff" stroke="#63b8ff" points="379.35,-25.95 388.58,-20.76 378.12,-19.06 379.35,-25.95"/>
</a>
</g>
</g>
</g>
</svg>
