<?xml version="1.0" encoding="UTF-8" standalone="no"?>
<!DOCTYPE svg PUBLIC "-//W3C//DTD SVG 1.1//EN"
 "http://www.w3.org/Graphics/SVG/1.1/DTD/svg11.dtd">
<!-- Generated by graphviz version 14.0.2 (20251019.1705)
 -->
<!-- Title: NetworkManager::broadcastGameFrame Pages: 1 -->
<!--zoomable 528 -->

<svg id="main" version="1.1" xmlns="http://www.w3.org/2000/svg" xmlns:xlink="http://www.w3.org/1999/xlink" xml:space="preserve" onload="init(evt)">
<style type="text/css"><![CDATA[
.node, .edge {opacity: 0.7;}
.node.selected, .edge.selected {opacity: 1;}
.edge:hover path { stroke: red; }
.edge:hover polygon { stroke: red; fill: red; }
]]></style>

<defs>
  <circle id="rim" cx="0" cy="0" r="7"/>
  <circle id="rim2" cx="0" cy="0" r="3.5"/>
  <g id="zoomPlus">
    <use xlink:href="#rim" fill="#404040"><set attributeName="fill" to="#808080" begin="zoomplus.mouseover" end="zoomplus.mouseout"/></use>
    <path d="M-4,0h8M0,-4v8" fill="none" stroke="white" stroke-width="1.5" pointer-events="none"/>
  </g>
  <g id="zoomMin">
    <use xlink:href="#rim" fill="#404040"><set attributeName="fill" to="#808080" begin="zoomminus.mouseover" end="zoomminus.mouseout"/></use>
    <path d="M-4,0h8" fill="none" stroke="white" stroke-width="1.5" pointer-events="none"/>
  </g>
  <g id="arrowUp" transform="translate(30 24)">
    <use xlink:href="#rim"/>
    <path pointer-events="none" fill="none" stroke="white" stroke-width="1.5" d="M0,-3.0v7 M-2.5,-0.5L0,-3.0L2.5,-0.5"/>
  </g>
  <g id="arrowRight" transform="rotate(90) translate(36 -43)">
    <use xlink:href="#rim"/>
    <path pointer-events="none" fill="none" stroke="white" stroke-width="1.5" d="M0,-3.0v7 M-2.5,-0.5L0,-3.0L2.5,-0.5"/>
  </g>
  <g id="arrowDown" transform="rotate(180) translate(-30 -48)">
    <use xlink:href="#rim"/>
    <path pointer-events="none" fill="none" stroke="white" stroke-width="1.5" d="M0,-3.0v7 M-2.5,-0.5L0,-3.0L2.5,-0.5"/>
  </g>
  <g id="arrowLeft" transform="rotate(270) translate(-36 17)">
    <use xlink:href="#rim"/>
    <path pointer-events="none" fill="none" stroke="white" stroke-width="1.5" d="M0,-3.0v7 M-2.5,-0.5L0,-3.0L2.5,-0.5"/>
  </g>
  <g id="resetDef">
    <use xlink:href="#rim2" fill="#404040"><set attributeName="fill" to="#808080" begin="reset.mouseover" end="reset.mouseout"/></use>
  </g>
</defs>
<script type="application/ecmascript">
var viewWidth = 724;
var viewHeight = 528;
var sectionId = 'dynsection-12';
</script>
<script type="application/ecmascript" xlink:href="../../svg.min.js"/>
<svg id="graph" class="graph">
<g id="viewport">
<title>NetworkManager::broadcastGameFrame</title>
<!-- Node1 -->
<g id="Node000001" class="node">
<title>Node1</title>
<g id="a_Node000001"><a xlink:title=" ">
<polygon fill="#999999" stroke="#666666" points="715.75,-259 576.75,-259 576.75,-227 715.75,-227 715.75,-259"/>
<text xml:space="preserve" text-anchor="start" x="584.75" y="-245.5" font-family="Helvetica,sans-Serif" font-size="10.00">NetworkManager::broadcast</text>
<text xml:space="preserve" text-anchor="middle" x="646.25" y="-233.5" font-family="Helvetica,sans-Serif" font-size="10.00">GameFrame</text>
</a>
</g>
</g>
<!-- Node2 -->
<g id="Node000002" class="node">
<title>Node2</title>
<g id="a_Node000002"><a xlink:href="../../da/d21/class_network_manager.html#a9faf2055aa0370adbffaa46b7f7181c1" target="_top" xlink:title=" ">
<polygon fill="white" stroke="#666666" points="529.5,-426 386.75,-426 386.75,-406 529.5,-406 529.5,-426"/>
<text xml:space="preserve" text-anchor="middle" x="458.12" y="-412.5" font-family="Helvetica,sans-Serif" font-size="10.00">NetworkManager::sendBoard</text>
</a>
</g>
</g>
<!-- Node1&#45;&gt;Node2 -->
<g id="edge1_Node000001_Node000002" class="edge">
<title>Node1&#45;&gt;Node2</title>
<g id="a_edge1_Node000001_Node000002"><a xlink:title=" ">
<path fill="none" stroke="#63b8ff" d="M633.18,-269.81C616.87,-303.05 584.7,-359.18 540.75,-391 532.11,-397.26 521.87,-401.97 511.62,-405.52"/>
<polygon fill="#63b8ff" stroke="#63b8ff" points="636.3,-271.38 637.44,-260.85 629.98,-268.38 636.3,-271.38"/>
</a>
</g>
</g>
<!-- Node6 -->
<g id="Node000006" class="node">
<title>Node6</title>
<g id="a_Node000006"><a xlink:href="../../da/d21/class_network_manager.html#aca07ad2cb1e034fe5ac1f6c88df2d7a0" target="_top" xlink:title=" ">
<polygon fill="white" stroke="#666666" points="525,-492 391.25,-492 391.25,-472 525,-472 525,-492"/>
<text xml:space="preserve" text-anchor="middle" x="458.12" y="-478.5" font-family="Helvetica,sans-Serif" font-size="10.00">NetworkManager::sendFog</text>
</a>
</g>
</g>
<!-- Node1&#45;&gt;Node6 -->
<g id="edge5_Node000001_Node000006" class="edge">
<title>Node1&#45;&gt;Node6</title>
<g id="a_edge5_Node000001_Node000006"><a xlink:title=" ">
<path fill="none" stroke="#63b8ff" d="M635.98,-270.05C621.15,-310.12 588.77,-385.82 540.75,-435 524.99,-451.15 502.5,-463.54 485.12,-471.54"/>
<polygon fill="#63b8ff" stroke="#63b8ff" points="639.25,-271.3 639.35,-260.7 632.67,-268.93 639.25,-271.3"/>
</a>
</g>
</g>
<!-- Node8 -->
<g id="Node000008" class="node">
<title>Node8</title>
<g id="a_Node000008"><a xlink:href="../../da/d21/class_network_manager.html#aad1e7e0b1f9199df8863180b8e52f962" target="_top" xlink:title=" ">
<polygon fill="white" stroke="#666666" points="539.25,-320 377,-320 377,-300 539.25,-300 539.25,-320"/>
<text xml:space="preserve" text-anchor="middle" x="458.12" y="-306.5" font-family="Helvetica,sans-Serif" font-size="10.00">NetworkManager::sendFogDelete</text>
</a>
</g>
</g>
<!-- Node1&#45;&gt;Node8 -->
<g id="edge7_Node000001_Node000008" class="edge">
<title>Node1&#45;&gt;Node8</title>
<g id="a_edge7_Node000001_Node000008"><a xlink:title=" ">
<path fill="none" stroke="#63b8ff" d="M594.95,-263.51C577.84,-270.27 558.54,-277.68 540.75,-284 525.33,-289.47 508.09,-295.04 493.45,-299.62"/>
<polygon fill="#63b8ff" stroke="#63b8ff" points="595.88,-266.9 603.88,-259.95 593.29,-260.4 595.88,-266.9"/>
</a>
</g>
</g>
<!-- Node10 -->
<g id="Node000010" class="node">
<title>Node10</title>
<g id="a_Node000010"><a xlink:href="../../da/d21/class_network_manager.html#a3684a5a4e823449e8006c323faf54f8a" target="_top" xlink:title=" ">
<polygon fill="white" stroke="#666666" points="540.75,-275 375.5,-275 375.5,-255 540.75,-255 540.75,-275"/>
<text xml:space="preserve" text-anchor="middle" x="458.12" y="-261.5" font-family="Helvetica,sans-Serif" font-size="10.00">NetworkManager::sendFogUpdate</text>
</a>
</g>
</g>
<!-- Node1&#45;&gt;Node10 -->
<g id="edge9_Node000001_Node000010" class="edge">
<title>Node1&#45;&gt;Node10</title>
<g id="a_edge9_Node000001_Node000010"><a xlink:title=" ">
<path fill="none" stroke="#63b8ff" d="M565.29,-252.45C557.3,-253.4 549.18,-254.36 541.17,-255.3"/>
<polygon fill="#63b8ff" stroke="#63b8ff" points="565.45,-255.96 574.97,-251.31 564.63,-249.01 565.45,-255.96"/>
</a>
</g>
</g>
<!-- Node12 -->
<g id="Node000012" class="node">
<title>Node12</title>
<g id="a_Node000012"><a xlink:href="../../da/d21/class_network_manager.html#ae486f852701623bc15b9325f8bb64794" target="_top" xlink:title=" ">
<polygon fill="white" stroke="#666666" points="529.88,-382 386.38,-382 386.38,-350 529.88,-350 529.88,-382"/>
<text xml:space="preserve" text-anchor="start" x="394.38" y="-368.5" font-family="Helvetica,sans-Serif" font-size="10.00">NetworkManager::sendGame</text>
<text xml:space="preserve" text-anchor="middle" x="458.12" y="-356.5" font-family="Helvetica,sans-Serif" font-size="10.00">Table</text>
</a>
</g>
</g>
<!-- Node1&#45;&gt;Node12 -->
<g id="edge11_Node000001_Node000012" class="edge">
<title>Node1&#45;&gt;Node12</title>
<g id="a_edge11_Node000001_Node000012"><a xlink:title=" ">
<path fill="none" stroke="#63b8ff" d="M619.86,-267.14C599.55,-285.62 569.76,-310.93 540.75,-329 528.34,-336.73 514.03,-343.78 500.9,-349.59"/>
<polygon fill="#63b8ff" stroke="#63b8ff" points="622.13,-269.81 627.1,-260.46 617.38,-264.67 622.13,-269.81"/>
</a>
</g>
</g>
<!-- Node14 -->
<g id="Node000014" class="node">
<title>Node14</title>
<g id="a_Node000014"><a xlink:href="../../da/d21/class_network_manager.html#aa65d06dfc8028a6bda33056bee158918" target="_top" xlink:title=" ">
<polygon fill="white" stroke="#666666" points="525.75,-237 390.5,-237 390.5,-205 525.75,-205 525.75,-237"/>
<text xml:space="preserve" text-anchor="start" x="398.5" y="-223.5" font-family="Helvetica,sans-Serif" font-size="10.00">NetworkManager::sendGrid</text>
<text xml:space="preserve" text-anchor="middle" x="458.12" y="-211.5" font-family="Helvetica,sans-Serif" font-size="10.00">Update</text>
</a>
</g>
</g>
<!-- Node1&#45;&gt;Node14 -->
<g id="edge14_Node000001_Node000014" class="edge">
<title>Node1&#45;&gt;Node14</title>
<g id="a_edge14_Node000001_Node000014"><a xlink:title=" ">
<path fill="none" stroke="#63b8ff" d="M565.14,-233.53C552.11,-231.99 538.74,-230.41 526.07,-228.91"/>
<polygon fill="#63b8ff" stroke="#63b8ff" points="564.63,-236.99 574.97,-234.69 565.45,-230.04 564.63,-236.99"/>
</a>
</g>
</g>
<!-- Node16 -->
<g id="Node000016" class="node">
<title>Node16</title>
<g id="a_Node000016"><a xlink:href="../../da/d21/class_network_manager.html#a88303e860c818888a1cdd7d40bc19bf3" target="_top" xlink:title=" ">
<polygon fill="white" stroke="#666666" points="531.75,-186 384.5,-186 384.5,-166 531.75,-166 531.75,-186"/>
<text xml:space="preserve" text-anchor="middle" x="458.12" y="-172.5" font-family="Helvetica,sans-Serif" font-size="10.00">NetworkManager::sendMarker</text>
</a>
</g>
</g>
<!-- Node1&#45;&gt;Node16 -->
<g id="edge16_Node000001_Node000016" class="edge">
<title>Node1&#45;&gt;Node16</title>
<g id="a_edge16_Node000001_Node000016"><a xlink:title=" ">
<path fill="none" stroke="#63b8ff" d="M602.68,-221.73C583.99,-212.95 561.6,-203.18 540.75,-196 530.27,-192.39 518.81,-189.16 507.89,-186.41"/>
<polygon fill="#63b8ff" stroke="#63b8ff" points="601.03,-224.82 611.56,-225.96 604.04,-218.5 601.03,-224.82"/>
</a>
</g>
</g>
<!-- Node18 -->
<g id="Node000018" class="node">
<title>Node18</title>
<g id="a_Node000018"><a xlink:href="../../da/d21/class_network_manager.html#af46b58c27029b0eb91b851a51f6eff73" target="_top" xlink:title=" ">
<polygon fill="white" stroke="#666666" points="531.75,-146 384.5,-146 384.5,-114 531.75,-114 531.75,-146"/>
<text xml:space="preserve" text-anchor="start" x="392.5" y="-132.5" font-family="Helvetica,sans-Serif" font-size="10.00">NetworkManager::sendMarker</text>
<text xml:space="preserve" text-anchor="middle" x="458.12" y="-120.5" font-family="Helvetica,sans-Serif" font-size="10.00">Delete</text>
</a>
</g>
</g>
<!-- Node1&#45;&gt;Node18 -->
<g id="edge18_Node000001_Node000018" class="edge">
<title>Node1&#45;&gt;Node18</title>
<g id="a_edge18_Node000001_Node000018"><a xlink:title=" ">
<path fill="none" stroke="#63b8ff" d="M621.09,-218.66C601.05,-199.64 571.04,-173.71 540.75,-157 533.56,-153.04 525.69,-149.53 517.77,-146.46"/>
<polygon fill="#63b8ff" stroke="#63b8ff" points="618.58,-221.11 628.21,-225.55 623.45,-216.08 618.58,-221.11"/>
</a>
</g>
</g>
<!-- Node20 -->
<g id="Node000020" class="node">
<title>Node20</title>
<g id="a_Node000020"><a xlink:href="../../da/d21/class_network_manager.html#a50e4f0f235f999ccac9a2848c14433c6" target="_top" xlink:title=" ">
<polygon fill="white" stroke="#666666" points="531.75,-92 384.5,-92 384.5,-60 531.75,-60 531.75,-92"/>
<text xml:space="preserve" text-anchor="start" x="392.5" y="-78.5" font-family="Helvetica,sans-Serif" font-size="10.00">NetworkManager::sendMarker</text>
<text xml:space="preserve" text-anchor="middle" x="458.12" y="-66.5" font-family="Helvetica,sans-Serif" font-size="10.00">MoveState</text>
</a>
</g>
</g>
<!-- Node1&#45;&gt;Node20 -->
<g id="edge20_Node000001_Node000020" class="edge">
<title>Node1&#45;&gt;Node20</title>
<g id="a_edge20_Node000001_Node000020"><a xlink:title=" ">
<path fill="none" stroke="#63b8ff" d="M631.74,-216.94C614.51,-186.11 581.96,-135.18 540.75,-105 533.96,-100.02 526.23,-95.84 518.3,-92.33"/>
<polygon fill="#63b8ff" stroke="#63b8ff" points="628.6,-218.5 636.46,-225.61 634.75,-215.15 628.6,-218.5"/>
</a>
</g>
</g>
<!-- Node22 -->
<g id="Node000022" class="node">
<title>Node22</title>
<g id="a_Node000022"><a xlink:href="../../da/d21/class_network_manager.html#a3cd0860da30289b21f2f4bd467d279d3" target="_top" xlink:title=" ">
<polygon fill="white" stroke="#666666" points="531.75,-33 384.5,-33 384.5,-1 531.75,-1 531.75,-33"/>
<text xml:space="preserve" text-anchor="start" x="392.5" y="-19.5" font-family="Helvetica,sans-Serif" font-size="10.00">NetworkManager::sendMarker</text>
<text xml:space="preserve" text-anchor="middle" x="458.12" y="-7.5" font-family="Helvetica,sans-Serif" font-size="10.00">Update</text>
</a>
</g>
</g>
<!-- Node1&#45;&gt;Node22 -->
<g id="edge22_Node000001_Node000022" class="edge">
<title>Node1&#45;&gt;Node22</title>
<g id="a_edge22_Node000001_Node000022"><a xlink:title=" ">
<path fill="none" stroke="#63b8ff" d="M637.06,-216.02C623.37,-175.14 592.18,-97.35 540.75,-51 532.77,-43.81 523.05,-38 513.14,-33.37"/>
<polygon fill="#63b8ff" stroke="#63b8ff" points="633.66,-216.87 640.06,-225.31 640.32,-214.72 633.66,-216.87"/>
</a>
</g>
</g>
<!-- Node3 -->
<g id="Node000003" class="node">
<title>Node3</title>
<g id="a_Node000003"><a xlink:href="../../da/d21/class_network_manager.html#ac5104e38077637eeeab41e078fa51a5b" target="_top" xlink:title=" ">
<polygon fill="white" stroke="#666666" points="330.12,-432 193.38,-432 193.38,-400 330.12,-400 330.12,-432"/>
<text xml:space="preserve" text-anchor="start" x="201.38" y="-418.5" font-family="Helvetica,sans-Serif" font-size="10.00">NetworkManager::bootstrap</text>
<text xml:space="preserve" text-anchor="middle" x="261.75" y="-406.5" font-family="Helvetica,sans-Serif" font-size="10.00">PeerIfReady</text>
</a>
</g>
</g>
<!-- Node2&#45;&gt;Node3 -->
<g id="edge2_Node000002_Node000003" class="edge">
<title>Node2&#45;&gt;Node3</title>
<g id="a_edge2_Node000002_Node000003"><a xlink:title=" ">
<path fill="none" stroke="#63b8ff" d="M375.15,-416C360.27,-416 344.91,-416 330.5,-416"/>
<polygon fill="#63b8ff" stroke="#63b8ff" points="374.89,-419.5 384.89,-416 374.89,-412.5 374.89,-419.5"/>
</a>
</g>
</g>
<!-- Node5 -->
<g id="Node000005" class="node">
<title>Node5</title>
<g id="a_Node000005"><a xlink:href="../../da/d21/class_network_manager.html#a8104f62e2e6c3197832dbfe7753853de" target="_top" xlink:title=" ">
<polygon fill="white" stroke="#666666" points="331.25,-482 192.25,-482 192.25,-450 331.25,-450 331.25,-482"/>
<text xml:space="preserve" text-anchor="start" x="200.25" y="-468.5" font-family="Helvetica,sans-Serif" font-size="10.00">NetworkManager::broadcast</text>
<text xml:space="preserve" text-anchor="middle" x="261.75" y="-456.5" font-family="Helvetica,sans-Serif" font-size="10.00">Board</text>
</a>
</g>
</g>
<!-- Node2&#45;&gt;Node5 -->
<g id="edge4_Node000002_Node000005" class="edge">
<title>Node2&#45;&gt;Node5</title>
<g id="a_edge4_Node000002_Node000005"><a xlink:title=" ">
<path fill="none" stroke="#63b8ff" d="M405.31,-429.33C381.19,-435.53 352.26,-442.98 326.78,-449.53"/>
<polygon fill="#63b8ff" stroke="#63b8ff" points="406.1,-432.74 414.91,-426.86 404.36,-425.96 406.1,-432.74"/>
</a>
</g>
</g>
<!-- Node4 -->
<g id="Node000004" class="node">
<title>Node4</title>
<g id="a_Node000004"><a xlink:href="../../da/d21/class_network_manager.html#a9211bd133aed2e5ec776b4d4308b30c4" target="_top" xlink:title=" ">
<polygon fill="white" stroke="#666666" points="148,-426 0,-426 0,-406 148,-406 148,-426"/>
<text xml:space="preserve" text-anchor="middle" x="74" y="-412.5" font-family="Helvetica,sans-Serif" font-size="10.00">NetworkManager::drainEvents</text>
</a>
</g>
</g>
<!-- Node3&#45;&gt;Node4 -->
<g id="edge3_Node000003_Node000004" class="edge">
<title>Node3&#45;&gt;Node4</title>
<g id="a_edge3_Node000003_Node000004"><a xlink:title=" ">
<path fill="none" stroke="#63b8ff" d="M181.53,-416C170.5,-416 159.21,-416 148.3,-416"/>
<polygon fill="#63b8ff" stroke="#63b8ff" points="181.39,-419.5 191.39,-416 181.39,-412.5 181.39,-419.5"/>
</a>
</g>
</g>
<!-- Node7 -->
<g id="Node000007" class="node">
<title>Node7</title>
<g id="a_Node000007"><a xlink:href="../../da/d21/class_network_manager.html#ac9b0019724cae52ed6be8fb853fa62e5" target="_top" xlink:title=" ">
<polygon fill="white" stroke="#666666" points="339.5,-520 184,-520 184,-500 339.5,-500 339.5,-520"/>
<text xml:space="preserve" text-anchor="middle" x="261.75" y="-506.5" font-family="Helvetica,sans-Serif" font-size="10.00">NetworkManager::broadcastFog</text>
</a>
</g>
</g>
<!-- Node6&#45;&gt;Node7 -->
<g id="edge6_Node000006_Node000007" class="edge">
<title>Node6&#45;&gt;Node7</title>
<g id="a_edge6_Node000006_Node000007"><a xlink:title=" ">
<path fill="none" stroke="#63b8ff" d="M379.75,-493.15C365.14,-495.25 349.92,-497.44 335.46,-499.53"/>
<polygon fill="#63b8ff" stroke="#63b8ff" points="379.88,-496.66 389.28,-491.77 378.88,-489.74 379.88,-496.66"/>
</a>
</g>
</g>
<!-- Node9 -->
<g id="Node000009" class="node">
<title>Node9</title>
<g id="a_Node000009"><a xlink:href="../../da/d21/class_network_manager.html#a80077121e02a5bf6a05c519a87a795f3" target="_top" xlink:title=" ">
<polygon fill="white" stroke="#666666" points="331.25,-332 192.25,-332 192.25,-300 331.25,-300 331.25,-332"/>
<text xml:space="preserve" text-anchor="start" x="200.25" y="-318.5" font-family="Helvetica,sans-Serif" font-size="10.00">NetworkManager::broadcast</text>
<text xml:space="preserve" text-anchor="middle" x="261.75" y="-306.5" font-family="Helvetica,sans-Serif" font-size="10.00">FogDelete</text>
</a>
</g>
</g>
<!-- Node8&#45;&gt;Node9 -->
<g id="edge8_Node000008_Node000009" class="edge">
<title>Node8&#45;&gt;Node9</title>
<g id="a_edge8_Node000008_Node000009"><a xlink:title=" ">
<path fill="none" stroke="#63b8ff" d="M365.38,-312.83C354.05,-313.18 342.61,-313.53 331.7,-313.87"/>
<polygon fill="#63b8ff" stroke="#63b8ff" points="365.26,-316.34 375.15,-312.53 365.05,-309.34 365.26,-316.34"/>
</a>
</g>
</g>
<!-- Node11 -->
<g id="Node000011" class="node">
<title>Node11</title>
<g id="a_Node000011"><a xlink:href="../../da/d21/class_network_manager.html#a952cf99cf04e63f0a0674f06ab8ec4bb" target="_top" xlink:title=" ">
<polygon fill="white" stroke="#666666" points="331.25,-282 192.25,-282 192.25,-250 331.25,-250 331.25,-282"/>
<text xml:space="preserve" text-anchor="start" x="200.25" y="-268.5" font-family="Helvetica,sans-Serif" font-size="10.00">NetworkManager::broadcast</text>
<text xml:space="preserve" text-anchor="middle" x="261.75" y="-256.5" font-family="Helvetica,sans-Serif" font-size="10.00">FogUpdate</text>
</a>
</g>
</g>
<!-- Node10&#45;&gt;Node11 -->
<g id="edge10_Node000010_Node000011" class="edge">
<title>Node10&#45;&gt;Node11</title>
<g id="a_edge10_Node000010_Node000011"><a xlink:title=" ">
<path fill="none" stroke="#63b8ff" d="M363.95,-265.48C353.06,-265.54 342.1,-265.59 331.62,-265.65"/>
<polygon fill="#63b8ff" stroke="#63b8ff" points="363.76,-268.98 373.74,-265.43 363.72,-261.98 363.76,-268.98"/>
</a>
</g>
</g>
<!-- Node12&#45;&gt;Node3 -->
<g id="edge12_Node000012_Node000003" class="edge">
<title>Node12&#45;&gt;Node3</title>
<g id="a_edge12_Node000012_Node000003"><a xlink:title=" ">
<path fill="none" stroke="#63b8ff" d="M382.27,-385.26C363.93,-389.97 344.47,-394.98 326.7,-399.55"/>
<polygon fill="#63b8ff" stroke="#63b8ff" points="382.93,-388.7 391.74,-382.82 381.19,-381.92 382.93,-388.7"/>
</a>
</g>
</g>
<!-- Node13 -->
<g id="Node000013" class="node">
<title>Node13</title>
<g id="a_Node000013"><a xlink:href="../../da/d21/class_network_manager.html#a2a8b22c40456b5e116efcd9317fea0c6" target="_top" xlink:title=" ">
<polygon fill="white" stroke="#666666" points="331.25,-382 192.25,-382 192.25,-350 331.25,-350 331.25,-382"/>
<text xml:space="preserve" text-anchor="start" x="200.25" y="-368.5" font-family="Helvetica,sans-Serif" font-size="10.00">NetworkManager::broadcast</text>
<text xml:space="preserve" text-anchor="middle" x="261.75" y="-356.5" font-family="Helvetica,sans-Serif" font-size="10.00">GameTable</text>
</a>
</g>
</g>
<!-- Node12&#45;&gt;Node13 -->
<g id="edge13_Node000012_Node000013" class="edge">
<title>Node12&#45;&gt;Node13</title>
<g id="a_edge13_Node000012_Node000013"><a xlink:title=" ">
<path fill="none" stroke="#63b8ff" d="M374.73,-366C360.36,-366 345.56,-366 331.61,-366"/>
<polygon fill="#63b8ff" stroke="#63b8ff" points="374.61,-369.5 384.61,-366 374.61,-362.5 374.61,-369.5"/>
</a>
</g>
</g>
<!-- Node15 -->
<g id="Node000015" class="node">
<title>Node15</title>
<g id="a_Node000015"><a xlink:href="../../da/d21/class_network_manager.html#aea4ab5f779d28c2b8e5a69ec89c21ebf" target="_top" xlink:title=" ">
<polygon fill="white" stroke="#666666" points="331.25,-232 192.25,-232 192.25,-200 331.25,-200 331.25,-232"/>
<text xml:space="preserve" text-anchor="start" x="200.25" y="-218.5" font-family="Helvetica,sans-Serif" font-size="10.00">NetworkManager::broadcast</text>
<text xml:space="preserve" text-anchor="middle" x="261.75" y="-206.5" font-family="Helvetica,sans-Serif" font-size="10.00">GridUpdate</text>
</a>
</g>
</g>
<!-- Node14&#45;&gt;Node15 -->
<g id="edge15_Node000014_Node000015" class="edge">
<title>Node14&#45;&gt;Node15</title>
<g id="a_edge15_Node000014_Node000015"><a xlink:title=" ">
<path fill="none" stroke="#63b8ff" d="M379,-218.99C363.36,-218.59 347.05,-218.17 331.75,-217.77"/>
<polygon fill="#63b8ff" stroke="#63b8ff" points="378.63,-222.48 388.72,-219.24 378.81,-215.48 378.63,-222.48"/>
</a>
</g>
</g>
<!-- Node17 -->
<g id="Node000017" class="node">
<title>Node17</title>
<g id="a_Node000017"><a xlink:href="../../da/d21/class_network_manager.html#a1548090a456937ffafda64318f21ba40" target="_top" xlink:title=" ">
<polygon fill="white" stroke="#666666" points="331.25,-182 192.25,-182 192.25,-150 331.25,-150 331.25,-182"/>
<text xml:space="preserve" text-anchor="start" x="200.25" y="-168.5" font-family="Helvetica,sans-Serif" font-size="10.00">NetworkManager::broadcast</text>
<text xml:space="preserve" text-anchor="middle" x="261.75" y="-156.5" font-family="Helvetica,sans-Serif" font-size="10.00">Marker</text>
</a>
</g>
</g>
<!-- Node16&#45;&gt;Node17 -->
<g id="edge17_Node000016_Node000017" class="edge">
<title>Node16&#45;&gt;Node17</title>
<g id="a_edge17_Node000016_Node000017"><a xlink:title=" ">
<path fill="none" stroke="#63b8ff" d="M372.75,-171.66C359,-170.95 344.91,-170.23 331.59,-169.54"/>
<polygon fill="#63b8ff" stroke="#63b8ff" points="372.52,-175.15 382.68,-172.17 372.88,-168.16 372.52,-175.15"/>
</a>
</g>
</g>
<!-- Node19 -->
<g id="Node000019" class="node">
<title>Node19</title>
<g id="a_Node000019"><a xlink:href="../../da/d21/class_network_manager.html#a3d49abb7b737ca9e16995f8a55358ae6" target="_top" xlink:title=" ">
<polygon fill="white" stroke="#666666" points="331.25,-132 192.25,-132 192.25,-100 331.25,-100 331.25,-132"/>
<text xml:space="preserve" text-anchor="start" x="200.25" y="-118.5" font-family="Helvetica,sans-Serif" font-size="10.00">NetworkManager::broadcast</text>
<text xml:space="preserve" text-anchor="middle" x="261.75" y="-106.5" font-family="Helvetica,sans-Serif" font-size="10.00">MarkerDelete</text>
</a>
</g>
</g>
<!-- Node18&#45;&gt;Node19 -->
<g id="edge19_Node000018_Node000019" class="edge">
<title>Node18&#45;&gt;Node19</title>
<g id="a_edge19_Node000018_Node000019"><a xlink:title=" ">
<path fill="none" stroke="#63b8ff" d="M372.75,-123.92C359,-122.93 344.91,-121.92 331.59,-120.96"/>
<polygon fill="#63b8ff" stroke="#63b8ff" points="372.46,-127.41 382.68,-124.64 372.96,-120.43 372.46,-127.41"/>
</a>
</g>
</g>
<!-- Node21 -->
<g id="Node000021" class="node">
<title>Node21</title>
<g id="a_Node000021"><a xlink:href="../../da/d21/class_network_manager.html#a53b60b6286f20a92807205dd2f71c200" target="_top" xlink:title=" ">
<polygon fill="white" stroke="#666666" points="331.25,-82 192.25,-82 192.25,-50 331.25,-50 331.25,-82"/>
<text xml:space="preserve" text-anchor="start" x="200.25" y="-68.5" font-family="Helvetica,sans-Serif" font-size="10.00">NetworkManager::broadcast</text>
<text xml:space="preserve" text-anchor="middle" x="261.75" y="-56.5" font-family="Helvetica,sans-Serif" font-size="10.00">MarkerMoveState</text>
</a>
</g>
</g>
<!-- Node20&#45;&gt;Node21 -->
<g id="edge21_Node000020_Node000021" class="edge">
<title>Node20&#45;&gt;Node21</title>
<g id="a_edge21_Node000020_Node000021"><a xlink:title=" ">
<path fill="none" stroke="#63b8ff" d="M372.75,-71.66C359,-70.95 344.91,-70.23 331.59,-69.54"/>
<polygon fill="#63b8ff" stroke="#63b8ff" points="372.52,-75.15 382.68,-72.17 372.88,-68.16 372.52,-75.15"/>
</a>
</g>
</g>
<!-- Node23 -->
<g id="Node000023" class="node">
<title>Node23</title>
<g id="a_Node000023"><a xlink:href="../../da/d21/class_network_manager.html#a2f0bd7fd012f4f7c96fcc25b2ac90b0f" target="_top" xlink:title=" ">
<polygon fill="white" stroke="#666666" points="331.25,-32 192.25,-32 192.25,0 331.25,0 331.25,-32"/>
<text xml:space="preserve" text-anchor="start" x="200.25" y="-18.5" font-family="Helvetica,sans-Serif" font-size="10.00">NetworkManager::broadcast</text>
<text xml:space="preserve" text-anchor="middle" x="261.75" y="-6.5" font-family="Helvetica,sans-Serif" font-size="10.00">MarkerUpdate</text>
</a>
</g>
</g>
<!-- Node22&#45;&gt;Node23 -->
<g id="edge23_Node000022_Node000023" class="edge">
<title>Node22&#45;&gt;Node23</title>
<g id="a_edge23_Node000022_Node000023"><a xlink:title=" ">
<path fill="none" stroke="#63b8ff" d="M372.75,-16.57C359,-16.5 344.91,-16.42 331.59,-16.35"/>
<polygon fill="#63b8ff" stroke="#63b8ff" points="372.66,-20.07 382.68,-16.62 372.7,-13.07 372.66,-20.07"/>
</a>
</g>
</g>
</g>
</svg>

<g id="navigator" transform="translate(0 0)" fill="#404254">
  <rect fill="#f2f5e9" fill-opacity="0.5" stroke="#606060" stroke-width=".5" x="0" y="0" width="60" height="60"/>
  <use id="zoomplus" xlink:href="#zoomPlus" x="17" y="9" onmousedown="handleZoom(evt,'in')"/>
  <use id="zoomminus" xlink:href="#zoomMin" x="42" y="9" onmousedown="handleZoom(evt,'out')"/>
  <use id="reset" xlink:href="#resetDef" x="30" y="36" onmousedown="handleReset()"/>
   <use id="arrowup" xlink:href="#arrowUp" x="0" y="0" onmousedown="handlePan(0,-1)"/>
  <use id="arrowright" xlink:href="#arrowRight" x="0" y="0" onmousedown="handlePan(1,0)"/>
  <use id="arrowdown" xlink:href="#arrowDown" x="0" y="0" onmousedown="handlePan(0,1)"/>
  <use id="arrowleft" xlink:href="#arrowLeft" x="0" y="0" onmousedown="handlePan(-1,0)"/>
</g>
<svg viewBox="0 0 15 15" width="100%" height="30px" preserveAspectRatio="xMaxYMin meet">
 <g id="arrow_out" transform="scale(0.3 0.3)">
  <a xlink:href="class_network_manager_aeb0d7937d1d825d09dc8c7b13e35a962_icgraph_org.svg" target="_base">
   <rect id="button" ry="5" rx="5" y="6" x="6" height="38" width="38"
        fill="#f2f5e9" fill-opacity="0.5" stroke="#606060" stroke-width="1.0"/>
   <path id="arrow"
     d="M 11.500037,31.436501 C 11.940474,20.09759 22.043105,11.32322 32.158766,21.979434 L 37.068811,17.246167 C 37.068811,17.246167 37.088388,32 37.088388,32 L 22.160133,31.978069 C 22.160133,31.978069 26.997745,27.140456 26.997745,27.140456 C 18.528582,18.264221 13.291696,25.230495 11.500037,31.436501 z"
     style="fill:#404040;"/>
  </a>
 </g>
</svg>

<style type='text/css'>
<![CDATA[
[data-mouse-over-selected='false'] { opacity: 0.7; }
[data-mouse-over-selected='true']  { opacity: 1.0; }
]]>
</style>
<script type="application/ecmascript"><![CDATA[
document.addEventListener('DOMContentLoaded', (event) => {
  highlightEdges();
  highlightAdjacentNodes();
});
]]></script>
</svg>
