<?xml version="1.0" encoding="UTF-8" standalone="no"?>
<!DOCTYPE svg PUBLIC "-//W3C//DTD SVG 1.1//EN"
 "http://www.w3.org/Graphics/SVG/1.1/DTD/svg11.dtd">
<!-- Generated by graphviz version 14.0.2 (20251019.1705)
 -->
<!-- Title: NetworkManager::broadcastMarker Pages: 1 -->
<!--zoomable 606 -->

<svg id="main" version="1.1" xmlns="http://www.w3.org/2000/svg" xmlns:xlink="http://www.w3.org/1999/xlink" xml:space="preserve" onload="init(evt)">
<style type="text/css"><![CDATA[
.node, .edge {opacity: 0.7;}
.node.selected, .edge.selected {opacity: 1;}
.edge:hover path { stroke: red; }
.edge:hover polygon { stroke: red; fill: red; }
]]></style>

<defs>
  <circle id="rim" cx="0" cy="0" r="7"/>
  <circle id="rim2" cx="0" cy="0" r="3.5"/>
  <g id="zoomPlus">
    <use xlink:href="#rim" fill="#404040"><set attributeName="fill" to="#808080" begin="zoomplus.mouseover" end="zoomplus.mouseout"/></use>
    <path d="M-4,0h8M0,-4v8" fill="none" stroke="white" stroke-width="1.5" pointer-events="none"/>
  </g>
  <g id="zoomMin">
    <use xlink:href="#rim" fill="#404040"><set attributeName="fill" to="#808080" begin="zoomminus.mouseover" end="zoomminus.mouseout"/></use>
    <path d="M-4,0h8" fill="none" stroke="white" stroke-width="1.5" pointer-events="none"/>
  </g>
  <g id="arrowUp" transform="translate(30 24)">
    <use xlink:href="#rim"/>
    <path pointer-events="none" fill="none" stroke="white" stroke-width="1.5" d="M0,-3.0v7 M-2.5,-0.5L0,-3.0L2.5,-0.5"/>
  </g>
  <g id="arrowRight" transform="rotate(90) translate(36 -43)">
    <use xlink:href="#rim"/>
    <path pointer-events="none" fill="none" stroke="white" stroke-width="1.5" d="M0,-3.0v7 M-2.5,-0.5L0,-3.0L2.5,-0.5"/>
  </g>
  <g id="arrowDown" transform="rotate(180) translate(-30 -48)">
    <use xlink:href="#rim"/>
    <path pointer-events="none" fill="none" stroke="white" stroke-width="1.5" d="M0,-3.0v7 M-2.5,-0.5L0,-3.0L2.5,-0.5"/>
  </g>
  <g id="arrowLeft" transform="rotate(270) translate(-36 17)">
    <use xlink:href="#rim"/>
    <path pointer-events="none" fill="none" stroke="white" stroke-width="1.5" d="M0,-3.0v7 M-2.5,-0.5L0,-3.0L2.5,-0.5"/>
  </g>
  <g id="resetDef">
    <use xlink:href="#rim2" fill="#404040"><set attributeName="fill" to="#808080" begin="reset.mouseover" end="reset.mouseout"/></use>
  </g>
</defs>
<script type="application/ecmascript">
var viewWidth = 1091;
var viewHeight = 606;
var sectionId = 'dynsection-15';
</script>
<script type="application/ecmascript" xlink:href="../../svg.min.js"/>
<svg id="graph" class="graph">
<g id="viewport">
<title>NetworkManager::broadcastMarker</title>
<!-- Node1 -->
<g id="Node000001" class="node">
<title>Node1</title>
<g id="a_Node000001"><a xlink:title=" ">
<polygon fill="#999999" stroke="#666666" points="139,-380 0,-380 0,-348 139,-348 139,-380"/>
<text xml:space="preserve" text-anchor="start" x="8" y="-366.5" font-family="Helvetica,sans-Serif" font-size="10.00">NetworkManager::broadcast</text>
<text xml:space="preserve" text-anchor="middle" x="69.5" y="-354.5" font-family="Helvetica,sans-Serif" font-size="10.00">Marker</text>
</a>
</g>
</g>
<!-- Node2 -->
<g id="Node000002" class="node">
<title>Node2</title>
<g id="a_Node000002"><a xlink:href="../../da/d21/class_network_manager.html#a2127afec206b45126dff36ca21ffde3d" target="_top" xlink:title=" ">
<polygon fill="white" stroke="#666666" points="332,-402 175,-402 175,-370 332,-370 332,-402"/>
<text xml:space="preserve" text-anchor="start" x="183" y="-388.5" font-family="Helvetica,sans-Serif" font-size="10.00">NetworkManager::getConnected</text>
<text xml:space="preserve" text-anchor="middle" x="253.5" y="-376.5" font-family="Helvetica,sans-Serif" font-size="10.00">PeerIds</text>
</a>
</g>
</g>
<!-- Node1&#45;&gt;Node2 -->
<g id="edge1_Node000001_Node000002" class="edge">
<title>Node1&#45;&gt;Node2</title>
<g id="a_edge1_Node000001_Node000002"><a xlink:title=" ">
<path fill="none" stroke="#63b8ff" d="M139.31,-372.32C147.17,-373.27 155.28,-374.25 163.36,-375.23"/>
<polygon fill="#63b8ff" stroke="#63b8ff" points="162.9,-378.69 173.25,-376.42 163.74,-371.75 162.9,-378.69"/>
</a>
</g>
</g>
<!-- Node3 -->
<g id="Node000003" class="node">
<title>Node3</title>
<g id="a_Node000003"><a xlink:href="../../da/d21/class_network_manager.html#a88303e860c818888a1cdd7d40bc19bf3" target="_top" xlink:title=" ">
<polygon fill="white" stroke="#666666" points="327.12,-352 179.88,-352 179.88,-332 327.12,-332 327.12,-352"/>
<text xml:space="preserve" text-anchor="middle" x="253.5" y="-338.5" font-family="Helvetica,sans-Serif" font-size="10.00">NetworkManager::sendMarker</text>
</a>
</g>
</g>
<!-- Node1&#45;&gt;Node3 -->
<g id="edge2_Node000001_Node000003" class="edge">
<title>Node1&#45;&gt;Node3</title>
<g id="a_edge2_Node000001_Node000003"><a xlink:title=" ">
<path fill="none" stroke="#63b8ff" d="M139.31,-355.68C148.78,-354.54 158.6,-353.35 168.32,-352.18"/>
<polygon fill="#63b8ff" stroke="#63b8ff" points="168.64,-355.66 178.15,-350.99 167.8,-348.71 168.64,-355.66"/>
</a>
</g>
</g>
<!-- Node4 -->
<g id="Node000004" class="node">
<title>Node4</title>
<g id="a_Node000004"><a xlink:href="../../da/d21/class_network_manager.html#aeb0d7937d1d825d09dc8c7b13e35a962" target="_top" xlink:title=" ">
<polygon fill="white" stroke="#666666" points="511.88,-598 372.88,-598 372.88,-566 511.88,-566 511.88,-598"/>
<text xml:space="preserve" text-anchor="start" x="380.88" y="-584.5" font-family="Helvetica,sans-Serif" font-size="10.00">NetworkManager::broadcast</text>
<text xml:space="preserve" text-anchor="middle" x="442.38" y="-572.5" font-family="Helvetica,sans-Serif" font-size="10.00">GameFrame</text>
</a>
</g>
</g>
<!-- Node3&#45;&gt;Node4 -->
<g id="edge3_Node000003_Node000004" class="edge">
<title>Node3&#45;&gt;Node4</title>
<g id="a_edge3_Node000003_Node000004"><a xlink:title=" ">
<path fill="none" stroke="#63b8ff" d="M320.95,-352.37C325.01,-354.74 328.76,-357.58 332,-361 391.14,-423.37 314.01,-484.12 368,-551 370.46,-554.05 373.28,-556.81 376.35,-559.3"/>
<polygon fill="#63b8ff" stroke="#63b8ff" points="374.07,-561.98 384.29,-564.77 378.04,-556.21 374.07,-561.98"/>
</a>
</g>
</g>
<!-- Node6 -->
<g id="Node000006" class="node">
<title>Node6</title>
<g id="a_Node000006"><a xlink:href="../../da/d21/class_network_manager.html#a5a298bfe9adff14e356bd4dad5cbc5b3" target="_top" xlink:title=" ">
<polygon fill="white" stroke="#666666" points="709.75,-462 558.75,-462 558.75,-430 709.75,-430 709.75,-462"/>
<text xml:space="preserve" text-anchor="start" x="566.75" y="-448.5" font-family="Helvetica,sans-Serif" font-size="10.00">NetworkManager::buildCommit</text>
<text xml:space="preserve" text-anchor="middle" x="634.25" y="-436.5" font-family="Helvetica,sans-Serif" font-size="10.00">MarkerFrame</text>
</a>
</g>
</g>
<!-- Node3&#45;&gt;Node6 -->
<g id="edge5_Node000003_Node000006" class="edge">
<title>Node3&#45;&gt;Node6</title>
<g id="a_edge5_Node000003_Node000006"><a xlink:title=" ">
<path fill="none" stroke="#63b8ff" d="M298.42,-352.49C309.41,-355.19 321.15,-358.14 332,-361 412.76,-382.29 505.12,-408.65 566.05,-426.32"/>
<polygon fill="#63b8ff" stroke="#63b8ff" points="565.02,-429.67 575.6,-429.09 566.97,-422.94 565.02,-429.67"/>
</a>
</g>
</g>
<!-- Node9 -->
<g id="Node000009" class="node">
<title>Node9</title>
<g id="a_Node000009"><a xlink:href="../../da/d21/class_network_manager.html#abb704d7511a6b3f8e125f8371ea3b97d" target="_top" xlink:title=" ">
<polygon fill="white" stroke="#666666" points="515.25,-292 369.5,-292 369.5,-260 515.25,-260 515.25,-292"/>
<text xml:space="preserve" text-anchor="start" x="377.5" y="-278.5" font-family="Helvetica,sans-Serif" font-size="10.00">NetworkManager::buildCreate</text>
<text xml:space="preserve" text-anchor="middle" x="442.38" y="-266.5" font-family="Helvetica,sans-Serif" font-size="10.00">MarkerFrame</text>
</a>
</g>
</g>
<!-- Node3&#45;&gt;Node9 -->
<g id="edge8_Node000003_Node000009" class="edge">
<title>Node3&#45;&gt;Node9</title>
<g id="a_edge8_Node000003_Node000009"><a xlink:title=" ">
<path fill="none" stroke="#63b8ff" d="M284.11,-331.54C310.95,-322.06 351.25,-307.83 384.33,-296.15"/>
<polygon fill="#63b8ff" stroke="#63b8ff" points="385.1,-299.59 393.36,-292.96 382.77,-292.99 385.1,-299.59"/>
</a>
</g>
</g>
<!-- Node18 -->
<g id="Node000018" class="node">
<title>Node18</title>
<g id="a_Node000018"><a xlink:href="../../de/d2f/class_path_manager.html#a220ff032714c927e1a2a8ea81d863331" target="_top" xlink:title=" ">
<polygon fill="white" stroke="#666666" points="516.75,-242 368,-242 368,-222 516.75,-222 516.75,-242"/>
<text xml:space="preserve" text-anchor="middle" x="442.38" y="-228.5" font-family="Helvetica,sans-Serif" font-size="10.00">PathManager::getMarkersPath</text>
</a>
</g>
</g>
<!-- Node3&#45;&gt;Node18 -->
<g id="edge21_Node000003_Node000018" class="edge">
<title>Node3&#45;&gt;Node18</title>
<g id="a_edge21_Node000003_Node000018"><a xlink:title=" ">
<path fill="none" stroke="#63b8ff" d="M264.39,-331.56C282.92,-312.63 324.87,-272.61 368,-251 371.52,-249.24 375.22,-247.63 379,-246.16"/>
<polygon fill="#63b8ff" stroke="#63b8ff" points="380.12,-249.47 388.41,-242.88 377.81,-242.86 380.12,-249.47"/>
</a>
</g>
</g>
<!-- Node20 -->
<g id="Node000020" class="node">
<title>Node20</title>
<g id="a_Node000020"><a xlink:href="../../d3/d42/class_logger.html#aebb248e608f8e2724de20b482cb2a15f" target="_top" xlink:title=" ">
<polygon fill="white" stroke="#666666" points="678.25,-556 590.25,-556 590.25,-536 678.25,-536 678.25,-556"/>
<text xml:space="preserve" text-anchor="middle" x="634.25" y="-542.5" font-family="Helvetica,sans-Serif" font-size="10.00">Logger::instance</text>
</a>
</g>
</g>
<!-- Node3&#45;&gt;Node20 -->
<g id="edge23_Node000003_Node000020" class="edge">
<title>Node3&#45;&gt;Node20</title>
<g id="a_edge23_Node000003_Node000020"><a xlink:title=" ">
<path fill="none" stroke="#63b8ff" d="M320.43,-352.33C324.66,-354.69 328.59,-357.55 332,-361 381.43,-410.97 315.56,-468.19 368,-515 398.12,-541.89 510.04,-546.54 578.51,-546.76"/>
<polygon fill="#63b8ff" stroke="#63b8ff" points="578.42,-550.26 588.42,-546.76 578.42,-543.26 578.42,-550.26"/>
</a>
</g>
</g>
<!-- Node21 -->
<g id="Node000021" class="node">
<title>Node21</title>
<g id="a_Node000021"><a xlink:href="../../de/d2f/class_path_manager.html#a42a0582ddea79c07f859b346b57657de" target="_top" xlink:title=" ">
<polygon fill="white" stroke="#666666" points="516,-166 368.75,-166 368.75,-146 516,-146 516,-166"/>
<text xml:space="preserve" text-anchor="middle" x="442.38" y="-152.5" font-family="Helvetica,sans-Serif" font-size="10.00">PathManager::isFilenameOnly</text>
</a>
</g>
</g>
<!-- Node3&#45;&gt;Node21 -->
<g id="edge24_Node000003_Node000021" class="edge">
<title>Node3&#45;&gt;Node21</title>
<g id="a_edge24_Node000003_Node000021"><a xlink:title=" ">
<path fill="none" stroke="#63b8ff" d="M258.92,-331.54C271.55,-302.9 310.62,-222.54 368,-180 372.85,-176.41 378.25,-173.34 383.88,-170.72"/>
<polygon fill="#63b8ff" stroke="#63b8ff" points="384.86,-174.1 392.76,-167.04 382.18,-167.63 384.86,-174.1"/>
</a>
</g>
</g>
<!-- Node22 -->
<g id="Node000022" class="node">
<title>Node22</title>
<g id="a_Node000022"><a xlink:href="../../de/d2f/class_path_manager.html#a7bd7a212d4af1ec7b67dfc3519375077" target="_top" xlink:title=" ">
<polygon fill="white" stroke="#666666" points="697,-58 571.5,-58 571.5,-38 697,-38 697,-58"/>
<text xml:space="preserve" text-anchor="middle" x="634.25" y="-44.5" font-family="Helvetica,sans-Serif" font-size="10.00">PathManager::isPathLike</text>
</a>
</g>
</g>
<!-- Node3&#45;&gt;Node22 -->
<g id="edge31_Node000003_Node000022" class="edge">
<title>Node3&#45;&gt;Node22</title>
<g id="a_edge31_Node000003_Node000022"><a xlink:title=" ">
<path fill="none" stroke="#63b8ff" d="M260.44,-331.77C275.25,-307.21 316.36,-244.63 368,-213 426.18,-177.35 466.8,-221.49 516.75,-175 553.79,-140.53 515.4,-101.13 552.75,-67 555.32,-64.65 558.12,-62.58 561.09,-60.75"/>
<polygon fill="#63b8ff" stroke="#63b8ff" points="562.37,-64.03 569.71,-56.38 559.21,-57.78 562.37,-64.03"/>
</a>
</g>
</g>
<!-- Node28 -->
<g id="Node000028" class="node">
<title>Node28</title>
<g id="a_Node000028"><a xlink:href="../../d3/d42/class_logger.html#ab77a9a6a08954192b47c39f359b5d370" target="_top" xlink:title=" ">
<polygon fill="white" stroke="#666666" points="666.25,-500 602.25,-500 602.25,-480 666.25,-480 666.25,-500"/>
<text xml:space="preserve" text-anchor="middle" x="634.25" y="-486.5" font-family="Helvetica,sans-Serif" font-size="10.00">Logger::log</text>
</a>
</g>
</g>
<!-- Node3&#45;&gt;Node28 -->
<g id="edge32_Node000003_Node000028" class="edge">
<title>Node3&#45;&gt;Node28</title>
<g id="a_edge32_Node000003_Node000028"><a xlink:title=" ">
<path fill="none" stroke="#63b8ff" d="M314.11,-352.37C320.4,-354.69 326.49,-357.53 332,-361 353.37,-374.48 347.35,-390.44 368,-405 439.26,-455.24 469.13,-446.28 552.75,-471 565.09,-474.65 578.64,-478.07 591.06,-480.97"/>
<polygon fill="#63b8ff" stroke="#63b8ff" points="590.07,-484.34 600.6,-483.15 591.63,-477.51 590.07,-484.34"/>
</a>
</g>
</g>
<!-- Node29 -->
<g id="Node000029" class="node">
<title>Node29</title>
<g id="a_Node000029"><a xlink:href="../../da/d21/class_network_manager.html#ac4526c46708af567437809ee9b561aba" target="_top" xlink:title=" ">
<polygon fill="white" stroke="#666666" points="507.75,-128 377,-128 377,-96 507.75,-96 507.75,-128"/>
<text xml:space="preserve" text-anchor="start" x="385" y="-114.5" font-family="Helvetica,sans-Serif" font-size="10.00">NetworkManager::readFile</text>
<text xml:space="preserve" text-anchor="middle" x="442.38" y="-102.5" font-family="Helvetica,sans-Serif" font-size="10.00">Bytes</text>
</a>
</g>
</g>
<!-- Node3&#45;&gt;Node29 -->
<g id="edge34_Node000003_Node000029" class="edge">
<title>Node3&#45;&gt;Node29</title>
<g id="a_edge34_Node000003_Node000029"><a xlink:title=" ">
<path fill="none" stroke="#63b8ff" d="M257.27,-331.77C266.78,-298.58 301.23,-192.87 368,-137 369.1,-136.08 370.24,-135.19 371.41,-134.33"/>
<polygon fill="#63b8ff" stroke="#63b8ff" points="373.01,-137.46 379.62,-129.18 369.29,-131.53 373.01,-137.46"/>
</a>
</g>
</g>
<!-- Node30 -->
<g id="Node000030" class="node">
<title>Node30</title>
<g id="a_Node000030"><a xlink:href="../../da/d21/class_network_manager.html#ab54b0f1b56efebcaeaf9a34a0af6194c" target="_top" xlink:title=" ">
<polygon fill="white" stroke="#666666" points="514.5,-506 370.25,-506 370.25,-474 514.5,-474 514.5,-506"/>
<text xml:space="preserve" text-anchor="start" x="378.25" y="-492.5" font-family="Helvetica,sans-Serif" font-size="10.00">NetworkManager::sendImage</text>
<text xml:space="preserve" text-anchor="middle" x="442.38" y="-480.5" font-family="Helvetica,sans-Serif" font-size="10.00">Chunks</text>
</a>
</g>
</g>
<!-- Node3&#45;&gt;Node30 -->
<g id="edge35_Node000003_Node000030" class="edge">
<title>Node3&#45;&gt;Node30</title>
<g id="a_edge35_Node000003_Node000030"><a xlink:title=" ">
<path fill="none" stroke="#63b8ff" d="M318.63,-352.48C323.44,-354.8 327.98,-357.6 332,-361 362.73,-386.93 341.79,-413.51 368,-444 375.87,-453.16 386.03,-461.1 396.26,-467.68"/>
<polygon fill="#63b8ff" stroke="#63b8ff" points="394.36,-470.62 404.73,-472.79 397.97,-464.63 394.36,-470.62"/>
</a>
</g>
</g>
<!-- Node5 -->
<g id="Node000005" class="node">
<title>Node5</title>
<g id="a_Node000005"><a xlink:href="../../da/d21/class_network_manager.html#a8f97d83ec35ea68c1e37d6837c1c8b4c" target="_top" xlink:title=" ">
<polygon fill="white" stroke="#666666" points="711.25,-594 557.25,-594 557.25,-574 711.25,-574 711.25,-594"/>
<text xml:space="preserve" text-anchor="middle" x="634.25" y="-580.5" font-family="Helvetica,sans-Serif" font-size="10.00">NetworkManager::sendGameTo</text>
</a>
</g>
</g>
<!-- Node4&#45;&gt;Node5 -->
<g id="edge4_Node000004_Node000005" class="edge">
<title>Node4&#45;&gt;Node5</title>
<g id="a_edge4_Node000004_Node000005"><a xlink:title=" ">
<path fill="none" stroke="#63b8ff" d="M512.19,-582.72C523.1,-582.84 534.5,-582.96 545.76,-583.08"/>
<polygon fill="#63b8ff" stroke="#63b8ff" points="545.41,-586.57 555.44,-583.18 545.48,-579.58 545.41,-586.57"/>
</a>
</g>
</g>
<!-- Node7 -->
<g id="Node000007" class="node">
<title>Node7</title>
<g id="a_Node000007"><a xlink:href="../../d0/dc2/class_serializer.html#a60889622ee4e36ea28a284e99bbdf4e5" target="_top" xlink:title=" ">
<polygon fill="white" stroke="#666666" points="888.88,-368 761.12,-368 761.12,-348 888.88,-348 888.88,-368"/>
<text xml:space="preserve" text-anchor="middle" x="825" y="-354.5" font-family="Helvetica,sans-Serif" font-size="10.00">Serializer::serializeUInt64</text>
</a>
</g>
</g>
<!-- Node6&#45;&gt;Node7 -->
<g id="edge6_Node000006_Node000007" class="edge">
<title>Node6&#45;&gt;Node7</title>
<g id="a_edge6_Node000006_Node000007"><a xlink:title=" ">
<path fill="none" stroke="#63b8ff" d="M662.39,-429.68C685.61,-416.13 720.18,-396.89 751.75,-383 760.57,-379.12 770.2,-375.43 779.47,-372.13"/>
<polygon fill="#63b8ff" stroke="#63b8ff" points="780.37,-375.53 788.68,-368.95 778.08,-368.91 780.37,-375.53"/>
</a>
</g>
</g>
<!-- Node8 -->
<g id="Node000008" class="node">
<title>Node8</title>
<g id="a_Node000008"><a xlink:href="../../d0/dc2/class_serializer.html#a3c3d58eaacc5f3c6f19cfde75424e9cc" target="_top" xlink:title=" ">
<polygon fill="white" stroke="#666666" points="886.25,-412 763.75,-412 763.75,-392 886.25,-392 886.25,-412"/>
<text xml:space="preserve" text-anchor="middle" x="825" y="-398.5" font-family="Helvetica,sans-Serif" font-size="10.00">Serializer::serializeUInt8</text>
</a>
</g>
</g>
<!-- Node6&#45;&gt;Node8 -->
<g id="edge7_Node000006_Node000008" class="edge">
<title>Node6&#45;&gt;Node8</title>
<g id="a_edge7_Node000006_Node000008"><a xlink:title=" ">
<path fill="none" stroke="#63b8ff" d="M705.8,-429.55C726.28,-424.78 748.37,-419.63 767.84,-415.09"/>
<polygon fill="#63b8ff" stroke="#63b8ff" points="768.55,-418.52 777.5,-412.84 766.96,-411.7 768.55,-418.52"/>
</a>
</g>
</g>
<!-- Node9&#45;&gt;Node7 -->
<g id="edge17_Node000009_Node000007" class="edge">
<title>Node9&#45;&gt;Node7</title>
<g id="a_edge17_Node000009_Node000007"><a xlink:title=" ">
<path fill="none" stroke="#63b8ff" d="M515.72,-290.72C570.66,-301.99 648.04,-318.1 715.75,-333 732.98,-336.79 751.72,-341.07 768.68,-344.99"/>
<polygon fill="#63b8ff" stroke="#63b8ff" points="767.54,-348.32 778.07,-347.17 769.12,-341.5 767.54,-348.32"/>
</a>
</g>
</g>
<!-- Node9&#45;&gt;Node8 -->
<g id="edge18_Node000009_Node000008" class="edge">
<title>Node9&#45;&gt;Node8</title>
<g id="a_edge18_Node000009_Node000008"><a xlink:title=" ">
<path fill="none" stroke="#63b8ff" d="M454.17,-292.28C471.57,-316.96 508.41,-363.08 552.75,-383 615.8,-411.32 695.46,-413.46 752.1,-410.1"/>
<polygon fill="#63b8ff" stroke="#63b8ff" points="752.21,-413.61 761.96,-409.44 751.74,-406.62 752.21,-413.61"/>
</a>
</g>
</g>
<!-- Node10 -->
<g id="Node000010" class="node">
<title>Node10</title>
<g id="a_Node000010"><a xlink:href="../../d0/dc2/class_serializer.html#ac0767e8086f1a9879ba76d1576b7e558" target="_top" xlink:title=" ">
<polygon fill="white" stroke="#666666" points="699.25,-210 569.25,-210 569.25,-190 699.25,-190 699.25,-210"/>
<text xml:space="preserve" text-anchor="middle" x="634.25" y="-196.5" font-family="Helvetica,sans-Serif" font-size="10.00">Serializer::serializeMoving</text>
</a>
</g>
</g>
<!-- Node9&#45;&gt;Node10 -->
<g id="edge9_Node000009_Node000010" class="edge">
<title>Node9&#45;&gt;Node10</title>
<g id="a_edge9_Node000009_Node000010"><a xlink:title=" ">
<path fill="none" stroke="#63b8ff" d="M499.31,-259.59C505.35,-257.04 511.28,-254.18 516.75,-251 535.25,-240.22 533.75,-228.87 552.75,-219 556.17,-217.22 559.75,-215.61 563.43,-214.15"/>
<polygon fill="#63b8ff" stroke="#63b8ff" points="564.3,-217.55 572.56,-210.91 561.97,-210.96 564.3,-217.55"/>
</a>
</g>
</g>
<!-- Node12 -->
<g id="Node000012" class="node">
<title>Node12</title>
<g id="a_Node000012"><a xlink:href="../../d0/dc2/class_serializer.html#a9552a2e71fe480af903507fb148c8964" target="_top" xlink:title=" ">
<polygon fill="white" stroke="#666666" points="701.12,-134 567.38,-134 567.38,-114 701.12,-114 701.12,-134"/>
<text xml:space="preserve" text-anchor="middle" x="634.25" y="-120.5" font-family="Helvetica,sans-Serif" font-size="10.00">Serializer::serializePosition</text>
</a>
</g>
</g>
<!-- Node9&#45;&gt;Node12 -->
<g id="edge11_Node000009_Node000012" class="edge">
<title>Node9&#45;&gt;Node12</title>
<g id="a_edge11_Node000009_Node000012"><a xlink:title=" ">
<path fill="none" stroke="#63b8ff" d="M505.94,-259.53C509.86,-257.07 513.53,-254.25 516.75,-251 552.41,-215.1 515.4,-177.13 552.75,-143 554.21,-141.67 555.74,-140.42 557.34,-139.26"/>
<polygon fill="#63b8ff" stroke="#63b8ff" points="558.97,-142.36 565.79,-134.25 555.4,-136.34 558.97,-142.36"/>
</a>
</g>
</g>
<!-- Node14 -->
<g id="Node000014" class="node">
<title>Node14</title>
<g id="a_Node000014"><a xlink:href="../../d0/dc2/class_serializer.html#a6be006b0cf99a37c2146723395013b76" target="_top" xlink:title=" ">
<polygon fill="white" stroke="#666666" points="693.25,-172 575.25,-172 575.25,-152 693.25,-152 693.25,-172"/>
<text xml:space="preserve" text-anchor="middle" x="634.25" y="-158.5" font-family="Helvetica,sans-Serif" font-size="10.00">Serializer::serializeSize</text>
</a>
</g>
</g>
<!-- Node9&#45;&gt;Node14 -->
<g id="edge13_Node000009_Node000014" class="edge">
<title>Node9&#45;&gt;Node14</title>
<g id="a_edge13_Node000009_Node000014"><a xlink:title=" ">
<path fill="none" stroke="#63b8ff" d="M504.32,-259.56C508.77,-257.09 512.98,-254.25 516.75,-251 543.23,-228.14 525.19,-202.55 552.75,-181 556.44,-178.11 560.5,-175.65 564.77,-173.56"/>
<polygon fill="#63b8ff" stroke="#63b8ff" points="565.75,-176.94 573.65,-169.89 563.07,-170.47 565.75,-176.94"/>
</a>
</g>
</g>
<!-- Node15 -->
<g id="Node000015" class="node">
<title>Node15</title>
<g id="a_Node000015"><a xlink:href="../../d0/dc2/class_serializer.html#a8a72c08ebb91348dc2a7ef6557c44f6c" target="_top" xlink:title=" ">
<polygon fill="white" stroke="#666666" points="696.25,-286 572.25,-286 572.25,-266 696.25,-266 696.25,-286"/>
<text xml:space="preserve" text-anchor="middle" x="634.25" y="-272.5" font-family="Helvetica,sans-Serif" font-size="10.00">Serializer::serializeString</text>
</a>
</g>
</g>
<!-- Node9&#45;&gt;Node15 -->
<g id="edge15_Node000009_Node000015" class="edge">
<title>Node9&#45;&gt;Node15</title>
<g id="a_edge15_Node000009_Node000015"><a xlink:title=" ">
<path fill="none" stroke="#63b8ff" d="M515.7,-276C530.48,-276 546.04,-276 560.83,-276"/>
<polygon fill="#63b8ff" stroke="#63b8ff" points="560.44,-279.5 570.44,-276 560.44,-272.5 560.44,-279.5"/>
</a>
</g>
</g>
<!-- Node17 -->
<g id="Node000017" class="node">
<title>Node17</title>
<g id="a_Node000017"><a xlink:href="../../d0/dc2/class_serializer.html#adf940baab7d143611e19fb957725a80a" target="_top" xlink:title=" ">
<polygon fill="white" stroke="#666666" points="701.88,-248 566.62,-248 566.62,-228 701.88,-228 701.88,-248"/>
<text xml:space="preserve" text-anchor="middle" x="634.25" y="-234.5" font-family="Helvetica,sans-Serif" font-size="10.00">Serializer::serializeVisibility</text>
</a>
</g>
</g>
<!-- Node9&#45;&gt;Node17 -->
<g id="edge19_Node000009_Node000017" class="edge">
<title>Node9&#45;&gt;Node17</title>
<g id="a_edge19_Node000009_Node000017"><a xlink:title=" ">
<path fill="none" stroke="#63b8ff" d="M515.7,-261.53C533.5,-257.96 552.42,-254.18 569.76,-250.71"/>
<polygon fill="#63b8ff" stroke="#63b8ff" points="570.3,-254.17 579.42,-248.77 568.92,-247.3 570.3,-254.17"/>
</a>
</g>
</g>
<!-- Node11 -->
<g id="Node000011" class="node">
<title>Node11</title>
<g id="a_Node000011"><a xlink:href="../../d0/dc2/class_serializer.html#a2a407c3a379b680296ee190ed625f05f" target="_top" xlink:title=" ">
<polygon fill="white" stroke="#666666" points="884,-229 766,-229 766,-209 884,-209 884,-229"/>
<text xml:space="preserve" text-anchor="middle" x="825" y="-215.5" font-family="Helvetica,sans-Serif" font-size="10.00">Serializer::serializeBool</text>
</a>
</g>
</g>
<!-- Node10&#45;&gt;Node11 -->
<g id="edge10_Node000010_Node000011" class="edge">
<title>Node10&#45;&gt;Node11</title>
<g id="a_edge10_Node000010_Node000011"><a xlink:title=" ">
<path fill="none" stroke="#63b8ff" d="M699.68,-206.49C717.28,-208.26 736.44,-210.19 754.32,-211.99"/>
<polygon fill="#63b8ff" stroke="#63b8ff" points="753.76,-215.45 764.06,-212.97 754.46,-208.48 753.76,-215.45"/>
</a>
</g>
</g>
<!-- Node13 -->
<g id="Node000013" class="node">
<title>Node13</title>
<g id="a_Node000013"><a xlink:href="../../d0/dc2/class_serializer.html#a92ffe65857abd6eea6a393056a9bb533" target="_top" xlink:title=" ">
<polygon fill="white" stroke="#666666" points="885.12,-153 764.88,-153 764.88,-133 885.12,-133 885.12,-153"/>
<text xml:space="preserve" text-anchor="middle" x="825" y="-139.5" font-family="Helvetica,sans-Serif" font-size="10.00">Serializer::serializeFloat</text>
</a>
</g>
</g>
<!-- Node12&#45;&gt;Node13 -->
<g id="edge12_Node000012_Node000013" class="edge">
<title>Node12&#45;&gt;Node13</title>
<g id="a_edge12_Node000012_Node000013"><a xlink:title=" ">
<path fill="none" stroke="#63b8ff" d="M701.53,-130.67C718.35,-132.36 736.48,-134.19 753.49,-135.9"/>
<polygon fill="#63b8ff" stroke="#63b8ff" points="752.69,-139.34 762.99,-136.86 753.39,-132.37 752.69,-139.34"/>
</a>
</g>
</g>
<!-- Node14&#45;&gt;Node13 -->
<g id="edge14_Node000014_Node000013" class="edge">
<title>Node14&#45;&gt;Node13</title>
<g id="a_edge14_Node000014_Node000013"><a xlink:title=" ">
<path fill="none" stroke="#63b8ff" d="M693.68,-156.12C712.5,-154.22 733.57,-152.1 753.19,-150.13"/>
<polygon fill="#63b8ff" stroke="#63b8ff" points="753.44,-153.62 763.04,-149.14 752.74,-146.66 753.44,-153.62"/>
</a>
</g>
</g>
<!-- Node16 -->
<g id="Node000016" class="node">
<title>Node16</title>
<g id="a_Node000016"><a xlink:href="../../d0/dc2/class_serializer.html#ac812cf485e5804fd6f22d34ae076f79f" target="_top" xlink:title=" ">
<polygon fill="white" stroke="#666666" points="879.88,-308 770.12,-308 770.12,-288 879.88,-288 879.88,-308"/>
<text xml:space="preserve" text-anchor="middle" x="825" y="-294.5" font-family="Helvetica,sans-Serif" font-size="10.00">Serializer::serializeInt</text>
</a>
</g>
</g>
<!-- Node15&#45;&gt;Node16 -->
<g id="edge16_Node000015_Node000016" class="edge">
<title>Node15&#45;&gt;Node16</title>
<g id="a_edge16_Node000015_Node000016"><a xlink:title=" ">
<path fill="none" stroke="#63b8ff" d="M696.53,-283.14C716.33,-285.45 738.35,-288.02 758.45,-290.36"/>
<polygon fill="#63b8ff" stroke="#63b8ff" points="757.86,-293.82 768.2,-291.5 758.67,-286.86 757.86,-293.82"/>
</a>
</g>
</g>
<!-- Node17&#45;&gt;Node11 -->
<g id="edge20_Node000017_Node000011" class="edge">
<title>Node17&#45;&gt;Node11</title>
<g id="a_edge20_Node000017_Node000011"><a xlink:title=" ">
<path fill="none" stroke="#63b8ff" d="M702.33,-231.25C719.28,-229.54 737.51,-227.71 754.58,-225.99"/>
<polygon fill="#63b8ff" stroke="#63b8ff" points="754.49,-229.52 764.09,-225.03 753.79,-222.55 754.49,-229.52"/>
</a>
</g>
</g>
<!-- Node19 -->
<g id="Node000019" class="node">
<title>Node19</title>
<g id="a_Node000019"><a xlink:href="../../de/d2f/class_path_manager.html#a467b459b77c73cbc7544551b53911fcd" target="_top" xlink:title=" ">
<polygon fill="white" stroke="#666666" points="715.75,-96 552.75,-96 552.75,-76 715.75,-76 715.75,-96"/>
<text xml:space="preserve" text-anchor="middle" x="634.25" y="-82.5" font-family="Helvetica,sans-Serif" font-size="10.00">PathManager::getExecutableRoot</text>
</a>
</g>
</g>
<!-- Node18&#45;&gt;Node19 -->
<g id="edge22_Node000018_Node000019" class="edge">
<title>Node18&#45;&gt;Node19</title>
<g id="a_edge22_Node000018_Node000019"><a xlink:title=" ">
<path fill="none" stroke="#63b8ff" d="M495.7,-221.56C503.45,-218.22 510.82,-213.82 516.75,-208 551.38,-174.06 516.72,-137.45 552.75,-105 553.83,-104.03 554.95,-103.1 556.11,-102.22"/>
<polygon fill="#63b8ff" stroke="#63b8ff" points="557.67,-105.37 564.3,-97.11 553.97,-99.43 557.67,-105.37"/>
</a>
</g>
</g>
<!-- Node21&#45;&gt;Node22 -->
<g id="edge25_Node000021_Node000022" class="edge">
<title>Node21&#45;&gt;Node22</title>
<g id="a_edge25_Node000021_Node000022"><a xlink:title=" ">
<path fill="none" stroke="#63b8ff" d="M502.42,-145.6C507.56,-143.28 512.43,-140.45 516.75,-137 544.07,-115.15 525.19,-88.55 552.75,-67 555.35,-64.97 558.13,-63.15 561.04,-61.52"/>
<polygon fill="#63b8ff" stroke="#63b8ff" points="562.41,-64.74 569.97,-57.32 559.43,-58.4 562.41,-64.74"/>
</a>
</g>
</g>
<!-- Node23 -->
<g id="Node000023" class="node">
<title>Node23</title>
<g id="a_Node000023"><a xlink:href="../../de/d2f/class_path_manager.html#a8ef0fd5fd2b9999b0037c1db402d4c50" target="_top" xlink:title=" ">
<polygon fill="white" stroke="#666666" points="887.75,-96 762.25,-96 762.25,-76 887.75,-76 887.75,-96"/>
<text xml:space="preserve" text-anchor="middle" x="825" y="-82.5" font-family="Helvetica,sans-Serif" font-size="10.00">PathManager::hasDirSep</text>
</a>
</g>
</g>
<!-- Node22&#45;&gt;Node23 -->
<g id="edge26_Node000022_Node000023" class="edge">
<title>Node22&#45;&gt;Node23</title>
<g id="a_edge26_Node000022_Node000023"><a xlink:title=" ">
<path fill="none" stroke="#63b8ff" d="M687.33,-58.48C710.12,-63.07 737.07,-68.5 760.99,-73.31"/>
<polygon fill="#63b8ff" stroke="#63b8ff" points="760.12,-76.71 770.61,-75.25 761.5,-69.85 760.12,-76.71"/>
</a>
</g>
</g>
<!-- Node24 -->
<g id="Node000024" class="node">
<title>Node24</title>
<g id="a_Node000024"><a xlink:href="../../de/d2f/class_path_manager.html#abc27ded79e24f01da862f4e920ff57af" target="_top" xlink:title=" ">
<polygon fill="white" stroke="#666666" points="897.88,-58 752.12,-58 752.12,-38 897.88,-38 897.88,-58"/>
<text xml:space="preserve" text-anchor="middle" x="825" y="-44.5" font-family="Helvetica,sans-Serif" font-size="10.00">PathManager::isAbsolutePath</text>
</a>
</g>
</g>
<!-- Node22&#45;&gt;Node24 -->
<g id="edge27_Node000022_Node000024" class="edge">
<title>Node22&#45;&gt;Node24</title>
<g id="a_edge27_Node000022_Node000024"><a xlink:title=" ">
<path fill="none" stroke="#63b8ff" d="M697.32,-48C711.05,-48 725.82,-48 740.26,-48"/>
<polygon fill="#63b8ff" stroke="#63b8ff" points="740.23,-51.5 750.23,-48 740.23,-44.5 740.23,-51.5"/>
</a>
</g>
</g>
<!-- Node27 -->
<g id="Node000027" class="node">
<title>Node27</title>
<g id="a_Node000027"><a xlink:href="../../de/d2f/class_path_manager.html#ac7b463a435e68be97b75fbd0f1ee0c8f" target="_top" xlink:title=" ">
<polygon fill="white" stroke="#666666" points="898.25,-20 751.75,-20 751.75,0 898.25,0 898.25,-20"/>
<text xml:space="preserve" text-anchor="middle" x="825" y="-6.5" font-family="Helvetica,sans-Serif" font-size="10.00">PathManager::isDriveRelative</text>
</a>
</g>
</g>
<!-- Node22&#45;&gt;Node27 -->
<g id="edge30_Node000022_Node000027" class="edge">
<title>Node22&#45;&gt;Node27</title>
<g id="a_edge30_Node000022_Node000027"><a xlink:title=" ">
<path fill="none" stroke="#63b8ff" d="M687.33,-37.52C710.12,-32.93 737.07,-27.5 760.99,-22.69"/>
<polygon fill="#63b8ff" stroke="#63b8ff" points="761.5,-26.15 770.61,-20.75 760.12,-19.29 761.5,-26.15"/>
</a>
</g>
</g>
<!-- Node25 -->
<g id="Node000025" class="node">
<title>Node25</title>
<g id="a_Node000025"><a xlink:href="../../de/d2f/class_path_manager.html#acb7f23b0e5687c88e3e32146cfcf315d" target="_top" xlink:title=" ">
<polygon fill="white" stroke="#666666" points="1083,-77 934.25,-77 934.25,-57 1083,-57 1083,-77"/>
<text xml:space="preserve" text-anchor="middle" x="1008.62" y="-63.5" font-family="Helvetica,sans-Serif" font-size="10.00">PathManager::isDriveAbsolute</text>
</a>
</g>
</g>
<!-- Node24&#45;&gt;Node25 -->
<g id="edge28_Node000024_Node000025" class="edge">
<title>Node24&#45;&gt;Node25</title>
<g id="a_edge28_Node000024_Node000025"><a xlink:title=" ">
<path fill="none" stroke="#63b8ff" d="M898.3,-55.56C906.24,-56.39 914.37,-57.24 922.44,-58.09"/>
<polygon fill="#63b8ff" stroke="#63b8ff" points="921.97,-61.56 932.28,-59.12 922.7,-54.6 921.97,-61.56"/>
</a>
</g>
</g>
<!-- Node26 -->
<g id="Node000026" class="node">
<title>Node26</title>
<g id="a_Node000026"><a xlink:href="../../de/d2f/class_path_manager.html#ab4625f00b403df325617c2af592e186f" target="_top" xlink:title=" ">
<polygon fill="white" stroke="#666666" points="1063.5,-39 953.75,-39 953.75,-19 1063.5,-19 1063.5,-39"/>
<text xml:space="preserve" text-anchor="middle" x="1008.62" y="-25.5" font-family="Helvetica,sans-Serif" font-size="10.00">PathManager::isUNC</text>
</a>
</g>
</g>
<!-- Node24&#45;&gt;Node26 -->
<g id="edge29_Node000024_Node000026" class="edge">
<title>Node24&#45;&gt;Node26</title>
<g id="a_edge29_Node000024_Node000026"><a xlink:title=" ">
<path fill="none" stroke="#63b8ff" d="M898.3,-40.44C912.82,-38.92 928,-37.33 942.27,-35.84"/>
<polygon fill="#63b8ff" stroke="#63b8ff" points="942.4,-39.34 951.98,-34.82 941.67,-32.38 942.4,-39.34"/>
</a>
</g>
</g>
<!-- Node28&#45;&gt;Node28 -->
<g id="edge33_Node000028_Node000028" class="edge">
<title>Node28&#45;&gt;Node28</title>
<g id="a_edge33_Node000028_Node000028"><a xlink:title=" ">
<path fill="none" stroke="#63b8ff" d="M603.94,-500.34C590.99,-508.98 601.09,-518 634.25,-518 652.9,-518 664.26,-515.14 668.32,-511.11"/>
<polygon fill="#63b8ff" stroke="#63b8ff" points="671.66,-510.05 665.06,-501.77 665.05,-512.36 671.66,-510.05"/>
</a>
</g>
</g>
<!-- Node30&#45;&gt;Node5 -->
<g id="edge42_Node000030_Node000005" class="edge">
<title>Node30&#45;&gt;Node5</title>
<g id="a_edge42_Node000030_Node000005"><a xlink:title=" ">
<path fill="none" stroke="#63b8ff" d="M462.6,-506.49C483.47,-523.56 518.43,-549.82 552.75,-565 557.03,-566.9 561.53,-568.62 566.13,-570.18"/>
<polygon fill="#63b8ff" stroke="#63b8ff" points="564.91,-573.46 575.5,-573.08 566.98,-566.78 564.91,-573.46"/>
</a>
</g>
</g>
<!-- Node30&#45;&gt;Node20 -->
<g id="edge40_Node000030_Node000020" class="edge">
<title>Node30&#45;&gt;Node20</title>
<g id="a_edge40_Node000030_Node000020"><a xlink:title=" ">
<path fill="none" stroke="#63b8ff" d="M488.84,-506.45C508.38,-513.24 531.55,-520.93 552.75,-527 561.19,-529.42 570.2,-531.77 579.02,-533.94"/>
<polygon fill="#63b8ff" stroke="#63b8ff" points="578.01,-537.3 588.55,-536.24 579.65,-530.49 578.01,-537.3"/>
</a>
</g>
</g>
<!-- Node30&#45;&gt;Node28 -->
<g id="edge41_Node000030_Node000028" class="edge">
<title>Node30&#45;&gt;Node28</title>
<g id="a_edge41_Node000030_Node000028"><a xlink:title=" ">
<path fill="none" stroke="#63b8ff" d="M514.89,-490C540.37,-490 568.26,-490 590.56,-490"/>
<polygon fill="#63b8ff" stroke="#63b8ff" points="590.48,-493.5 600.48,-490 590.48,-486.5 590.48,-493.5"/>
</a>
</g>
</g>
<!-- Node31 -->
<g id="Node000031" class="node">
<title>Node31</title>
<g id="a_Node000031"><a xlink:href="../../da/d21/class_network_manager.html#ad6d9928959397e1cfa4f6c0f322a20fd" target="_top" xlink:title=" ">
<polygon fill="white" stroke="#666666" points="706,-374 562.5,-374 562.5,-342 706,-342 706,-374"/>
<text xml:space="preserve" text-anchor="start" x="570.5" y="-360.5" font-family="Helvetica,sans-Serif" font-size="10.00">NetworkManager::buildImage</text>
<text xml:space="preserve" text-anchor="middle" x="634.25" y="-348.5" font-family="Helvetica,sans-Serif" font-size="10.00">ChunkFrame</text>
</a>
</g>
</g>
<!-- Node30&#45;&gt;Node31 -->
<g id="edge36_Node000030_Node000031" class="edge">
<title>Node30&#45;&gt;Node31</title>
<g id="a_edge36_Node000030_Node000031"><a xlink:title=" ">
<path fill="none" stroke="#63b8ff" d="M467.04,-473.55C500.67,-450.17 562.43,-407.23 600.46,-380.79"/>
<polygon fill="#63b8ff" stroke="#63b8ff" points="602.13,-383.9 608.34,-375.31 598.14,-378.15 602.13,-383.9"/>
</a>
</g>
</g>
<!-- Node31&#45;&gt;Node7 -->
<g id="edge38_Node000031_Node000007" class="edge">
<title>Node31&#45;&gt;Node7</title>
<g id="a_edge38_Node000031_Node000007"><a xlink:title=" ">
<path fill="none" stroke="#63b8ff" d="M706.34,-358C720.44,-358 735.28,-358 749.49,-358"/>
<polygon fill="#63b8ff" stroke="#63b8ff" points="749.21,-361.5 759.21,-358 749.21,-354.5 749.21,-361.5"/>
</a>
</g>
</g>
<!-- Node31&#45;&gt;Node8 -->
<g id="edge39_Node000031_Node000008" class="edge">
<title>Node31&#45;&gt;Node8</title>
<g id="a_edge39_Node000031_Node000008"><a xlink:title=" ">
<path fill="none" stroke="#63b8ff" d="M705.8,-374.45C726.28,-379.22 748.37,-384.37 767.84,-388.91"/>
<polygon fill="#63b8ff" stroke="#63b8ff" points="766.96,-392.3 777.5,-391.16 768.55,-385.48 766.96,-392.3"/>
</a>
</g>
</g>
<!-- Node31&#45;&gt;Node16 -->
<g id="edge37_Node000031_Node000016" class="edge">
<title>Node31&#45;&gt;Node16</title>
<g id="a_edge37_Node000031_Node000016"><a xlink:title=" ">
<path fill="none" stroke="#63b8ff" d="M687.08,-341.53C716.24,-332.26 752.25,-320.81 780.02,-311.98"/>
<polygon fill="#63b8ff" stroke="#63b8ff" points="781.08,-315.32 789.55,-308.95 778.96,-308.64 781.08,-315.32"/>
</a>
</g>
</g>
</g>
</svg>

<g id="navigator" transform="translate(0 0)" fill="#404254">
  <rect fill="#f2f5e9" fill-opacity="0.5" stroke="#606060" stroke-width=".5" x="0" y="0" width="60" height="60"/>
  <use id="zoomplus" xlink:href="#zoomPlus" x="17" y="9" onmousedown="handleZoom(evt,'in')"/>
  <use id="zoomminus" xlink:href="#zoomMin" x="42" y="9" onmousedown="handleZoom(evt,'out')"/>
  <use id="reset" xlink:href="#resetDef" x="30" y="36" onmousedown="handleReset()"/>
   <use id="arrowup" xlink:href="#arrowUp" x="0" y="0" onmousedown="handlePan(0,-1)"/>
  <use id="arrowright" xlink:href="#arrowRight" x="0" y="0" onmousedown="handlePan(1,0)"/>
  <use id="arrowdown" xlink:href="#arrowDown" x="0" y="0" onmousedown="handlePan(0,1)"/>
  <use id="arrowleft" xlink:href="#arrowLeft" x="0" y="0" onmousedown="handlePan(-1,0)"/>
</g>
<svg viewBox="0 0 15 15" width="100%" height="30px" preserveAspectRatio="xMaxYMin meet">
 <g id="arrow_out" transform="scale(0.3 0.3)">
  <a xlink:href="class_network_manager_a1548090a456937ffafda64318f21ba40_cgraph_org.svg" target="_base">
   <rect id="button" ry="5" rx="5" y="6" x="6" height="38" width="38"
        fill="#f2f5e9" fill-opacity="0.5" stroke="#606060" stroke-width="1.0"/>
   <path id="arrow"
     d="M 11.500037,31.436501 C 11.940474,20.09759 22.043105,11.32322 32.158766,21.979434 L 37.068811,17.246167 C 37.068811,17.246167 37.088388,32 37.088388,32 L 22.160133,31.978069 C 22.160133,31.978069 26.997745,27.140456 26.997745,27.140456 C 18.528582,18.264221 13.291696,25.230495 11.500037,31.436501 z"
     style="fill:#404040;"/>
  </a>
 </g>
</svg>

<style type='text/css'>
<![CDATA[
[data-mouse-over-selected='false'] { opacity: 0.7; }
[data-mouse-over-selected='true']  { opacity: 1.0; }
]]>
</style>
<script type="application/ecmascript"><![CDATA[
document.addEventListener('DOMContentLoaded', (event) => {
  highlightEdges();
  highlightAdjacentNodes();
});
]]></script>
</svg>
