<?xml version="1.0" encoding="UTF-8" standalone="no"?>
<!DOCTYPE svg PUBLIC "-//W3C//DTD SVG 1.1//EN"
 "http://www.w3.org/Graphics/SVG/1.1/DTD/svg11.dtd">
<!-- Generated by graphviz version 14.0.2 (20251019.1705)
 -->
<!-- Title: NetworkManager::broadcastMarkerMove Pages: 1 -->
<svg width="863pt" height="192pt"
 viewBox="0.00 0.00 863.00 192.00" xmlns="http://www.w3.org/2000/svg" xmlns:xlink="http://www.w3.org/1999/xlink">
<g id="graph0" class="graph" transform="scale(1 1) rotate(0) translate(4 188)">
<title>NetworkManager::broadcastMarkerMove</title>
<!-- Node1 -->
<g id="Node000001" class="node">
<title>Node1</title>
<g id="a_Node000001"><a xlink:title=" ">
<polygon fill="#999999" stroke="#666666" points="139,-162 0,-162 0,-130 139,-130 139,-162"/>
<text xml:space="preserve" text-anchor="start" x="8" y="-148.5" font-family="Helvetica,sans-Serif" font-size="10.00">NetworkManager::broadcast</text>
<text xml:space="preserve" text-anchor="middle" x="69.5" y="-136.5" font-family="Helvetica,sans-Serif" font-size="10.00">MarkerMove</text>
</a>
</g>
</g>
<!-- Node2 -->
<g id="Node000002" class="node">
<title>Node2</title>
<g id="a_Node000002"><a xlink:href="../../da/d21/class_network_manager.html#a2127afec206b45126dff36ca21ffde3d" target="_top" xlink:title=" ">
<polygon fill="white" stroke="#666666" points="339.12,-184 182.12,-184 182.12,-152 339.12,-152 339.12,-184"/>
<text xml:space="preserve" text-anchor="start" x="190.12" y="-170.5" font-family="Helvetica,sans-Serif" font-size="10.00">NetworkManager::getConnected</text>
<text xml:space="preserve" text-anchor="middle" x="260.62" y="-158.5" font-family="Helvetica,sans-Serif" font-size="10.00">PeerIds</text>
</a>
</g>
</g>
<!-- Node1&#45;&gt;Node2 -->
<g id="edge1_Node000001_Node000002" class="edge">
<title>Node1&#45;&gt;Node2</title>
<g id="a_edge1_Node000001_Node000002"><a xlink:title=" ">
<path fill="none" stroke="#63b8ff" d="M139.31,-154C149.47,-155.19 160.06,-156.42 170.56,-157.64"/>
<polygon fill="#63b8ff" stroke="#63b8ff" points="170.05,-161.1 180.39,-158.78 170.86,-154.15 170.05,-161.1"/>
</a>
</g>
</g>
<!-- Node3 -->
<g id="Node000003" class="node">
<title>Node3</title>
<g id="a_Node000003"><a xlink:href="../../da/d21/class_network_manager.html#a30523648225cb5f4e628c5daa19f4719" target="_top" xlink:title=" ">
<polygon fill="white" stroke="#666666" points="346.25,-134 175,-134 175,-114 346.25,-114 346.25,-134"/>
<text xml:space="preserve" text-anchor="middle" x="260.62" y="-120.5" font-family="Helvetica,sans-Serif" font-size="10.00">NetworkManager::sendMarkerMove</text>
</a>
</g>
</g>
<!-- Node1&#45;&gt;Node3 -->
<g id="edge2_Node000001_Node000003" class="edge">
<title>Node1&#45;&gt;Node3</title>
<g id="a_edge2_Node000001_Node000003"><a xlink:title=" ">
<path fill="none" stroke="#63b8ff" d="M139.31,-138C147.14,-137.09 155.22,-136.15 163.31,-135.2"/>
<polygon fill="#63b8ff" stroke="#63b8ff" points="163.71,-138.68 173.24,-134.05 162.91,-131.73 163.71,-138.68"/>
</a>
</g>
</g>
<!-- Node4 -->
<g id="Node000004" class="node">
<title>Node4</title>
<g id="a_Node000004"><a xlink:href="../../da/d21/class_network_manager.html#ab8fd392b2bcef38aa4c9ab92a7d73fe3" target="_top" xlink:title=" ">
<polygon fill="white" stroke="#666666" points="528.75,-110 382.25,-110 382.25,-78 528.75,-78 528.75,-110"/>
<text xml:space="preserve" text-anchor="start" x="390.25" y="-96.5" font-family="Helvetica,sans-Serif" font-size="10.00">NetworkManager::buildMarker</text>
<text xml:space="preserve" text-anchor="middle" x="455.5" y="-84.5" font-family="Helvetica,sans-Serif" font-size="10.00">MoveFrame</text>
</a>
</g>
</g>
<!-- Node3&#45;&gt;Node4 -->
<g id="edge3_Node000003_Node000004" class="edge">
<title>Node3&#45;&gt;Node4</title>
<g id="a_edge3_Node000003_Node000004"><a xlink:title=" ">
<path fill="none" stroke="#63b8ff" d="M329.08,-113.51C342.54,-111.41 356.83,-109.19 370.76,-107.03"/>
<polygon fill="#63b8ff" stroke="#63b8ff" points="370.99,-110.53 380.33,-105.54 369.91,-103.61 370.99,-110.53"/>
</a>
</g>
</g>
<!-- Node5 -->
<g id="Node000005" class="node">
<title>Node5</title>
<g id="a_Node000005"><a xlink:href="../../da/d21/class_network_manager.html#a1ca85e76187f45d46596a1d04d713f0f" target="_top" xlink:title=" ">
<polygon fill="white" stroke="#666666" points="695.5,-172 567.75,-172 567.75,-152 695.5,-152 695.5,-172"/>
<text xml:space="preserve" text-anchor="middle" x="631.62" y="-158.5" font-family="Helvetica,sans-Serif" font-size="10.00">NetworkManager::nowMs</text>
</a>
</g>
</g>
<!-- Node3&#45;&gt;Node5 -->
<g id="edge10_Node000003_Node000005" class="edge">
<title>Node3&#45;&gt;Node5</title>
<g id="a_edge10_Node000003_Node000005"><a xlink:title=" ">
<path fill="none" stroke="#63b8ff" d="M346.74,-132.77C410.03,-139.28 495.55,-148.09 556.14,-154.33"/>
<polygon fill="#63b8ff" stroke="#63b8ff" points="555.72,-157.8 566.02,-155.35 556.44,-150.84 555.72,-157.8"/>
</a>
</g>
</g>
<!-- Node4&#45;&gt;Node5 -->
<g id="edge4_Node000004_Node000005" class="edge">
<title>Node4&#45;&gt;Node5</title>
<g id="a_edge4_Node000004_Node000005"><a xlink:title=" ">
<path fill="none" stroke="#63b8ff" d="M489.63,-110.5C510.79,-120.66 539,-133.52 564.75,-143 569.72,-144.83 574.96,-146.6 580.22,-148.28"/>
<polygon fill="#63b8ff" stroke="#63b8ff" points="578.93,-151.54 589.51,-151.12 580.98,-144.85 578.93,-151.54"/>
</a>
</g>
</g>
<!-- Node6 -->
<g id="Node000006" class="node">
<title>Node6</title>
<g id="a_Node000006"><a xlink:href="../../d0/dc2/class_serializer.html#a9552a2e71fe480af903507fb148c8964" target="_top" xlink:title=" ">
<polygon fill="white" stroke="#666666" points="698.5,-134 564.75,-134 564.75,-114 698.5,-114 698.5,-134"/>
<text xml:space="preserve" text-anchor="middle" x="631.62" y="-120.5" font-family="Helvetica,sans-Serif" font-size="10.00">Serializer::serializePosition</text>
</a>
</g>
</g>
<!-- Node4&#45;&gt;Node6 -->
<g id="edge5_Node000004_Node000006" class="edge">
<title>Node4&#45;&gt;Node6</title>
<g id="a_edge5_Node000004_Node000006"><a xlink:title=" ">
<path fill="none" stroke="#63b8ff" d="M529.08,-106.51C538.81,-108.18 548.78,-109.9 558.5,-111.57"/>
<polygon fill="#63b8ff" stroke="#63b8ff" points="557.82,-115.01 568.27,-113.26 559.01,-108.11 557.82,-115.01"/>
</a>
</g>
</g>
<!-- Node8 -->
<g id="Node000008" class="node">
<title>Node8</title>
<g id="a_Node000008"><a xlink:href="../../d0/dc2/class_serializer.html#ac0cbc3ff6cc924221db1eebb6bb6b33b" target="_top" xlink:title=" ">
<polygon fill="white" stroke="#666666" points="695.5,-96 567.75,-96 567.75,-76 695.5,-76 695.5,-96"/>
<text xml:space="preserve" text-anchor="middle" x="631.62" y="-82.5" font-family="Helvetica,sans-Serif" font-size="10.00">Serializer::serializeUInt32</text>
</a>
</g>
</g>
<!-- Node4&#45;&gt;Node8 -->
<g id="edge7_Node000004_Node000008" class="edge">
<title>Node4&#45;&gt;Node8</title>
<g id="a_edge7_Node000004_Node000008"><a xlink:title=" ">
<path fill="none" stroke="#63b8ff" d="M529.08,-90.67C538.01,-90.26 547.14,-89.84 556.09,-89.42"/>
<polygon fill="#63b8ff" stroke="#63b8ff" points="555.96,-92.93 565.79,-88.98 555.64,-85.94 555.96,-92.93"/>
</a>
</g>
</g>
<!-- Node9 -->
<g id="Node000009" class="node">
<title>Node9</title>
<g id="a_Node000009"><a xlink:href="../../d0/dc2/class_serializer.html#a60889622ee4e36ea28a284e99bbdf4e5" target="_top" xlink:title=" ">
<polygon fill="white" stroke="#666666" points="695.5,-58 567.75,-58 567.75,-38 695.5,-38 695.5,-58"/>
<text xml:space="preserve" text-anchor="middle" x="631.62" y="-44.5" font-family="Helvetica,sans-Serif" font-size="10.00">Serializer::serializeUInt64</text>
</a>
</g>
</g>
<!-- Node4&#45;&gt;Node9 -->
<g id="edge8_Node000004_Node000009" class="edge">
<title>Node4&#45;&gt;Node9</title>
<g id="a_edge8_Node000004_Node000009"><a xlink:title=" ">
<path fill="none" stroke="#63b8ff" d="M518.87,-77.52C538.94,-72.22 560.91,-66.42 580.03,-61.37"/>
<polygon fill="#63b8ff" stroke="#63b8ff" points="580.68,-64.82 589.45,-58.88 578.89,-58.05 580.68,-64.82"/>
</a>
</g>
</g>
<!-- Node10 -->
<g id="Node000010" class="node">
<title>Node10</title>
<g id="a_Node000010"><a xlink:href="../../d0/dc2/class_serializer.html#a3c3d58eaacc5f3c6f19cfde75424e9cc" target="_top" xlink:title=" ">
<polygon fill="white" stroke="#666666" points="692.88,-20 570.38,-20 570.38,0 692.88,0 692.88,-20"/>
<text xml:space="preserve" text-anchor="middle" x="631.62" y="-6.5" font-family="Helvetica,sans-Serif" font-size="10.00">Serializer::serializeUInt8</text>
</a>
</g>
</g>
<!-- Node4&#45;&gt;Node10 -->
<g id="edge9_Node000004_Node000010" class="edge">
<title>Node4&#45;&gt;Node10</title>
<g id="a_edge9_Node000004_Node000010"><a xlink:title=" ">
<path fill="none" stroke="#63b8ff" d="M479.62,-77.69C500.91,-63.26 533.8,-42.48 564.75,-29 568.81,-27.23 573.08,-25.58 577.41,-24.04"/>
<polygon fill="#63b8ff" stroke="#63b8ff" points="578.4,-27.4 586.79,-20.94 576.2,-20.75 578.4,-27.4"/>
</a>
</g>
</g>
<!-- Node7 -->
<g id="Node000007" class="node">
<title>Node7</title>
<g id="a_Node000007"><a xlink:href="../../d0/dc2/class_serializer.html#a92ffe65857abd6eea6a393056a9bb533" target="_top" xlink:title=" ">
<polygon fill="white" stroke="#666666" points="854.75,-134 734.5,-134 734.5,-114 854.75,-114 854.75,-134"/>
<text xml:space="preserve" text-anchor="middle" x="794.62" y="-120.5" font-family="Helvetica,sans-Serif" font-size="10.00">Serializer::serializeFloat</text>
</a>
</g>
</g>
<!-- Node6&#45;&gt;Node7 -->
<g id="edge6_Node000006_Node000007" class="edge">
<title>Node6&#45;&gt;Node7</title>
<g id="a_edge6_Node000006_Node000007"><a xlink:title=" ">
<path fill="none" stroke="#63b8ff" d="M698.57,-124C706.6,-124 714.83,-124 722.92,-124"/>
<polygon fill="#63b8ff" stroke="#63b8ff" points="722.73,-127.5 732.73,-124 722.73,-120.5 722.73,-127.5"/>
</a>
</g>
</g>
</g>
</svg>
