<?xml version="1.0" encoding="UTF-8" standalone="no"?>
<!DOCTYPE svg PUBLIC "-//W3C//DTD SVG 1.1//EN"
 "http://www.w3.org/Graphics/SVG/1.1/DTD/svg11.dtd">
<!-- Generated by graphviz version 14.0.2 (20251019.1705)
 -->
<!-- Title: NetworkManager::ensureRemaining Pages: 1 -->
<!--zoomable 218 -->

<svg id="main" version="1.1" xmlns="http://www.w3.org/2000/svg" xmlns:xlink="http://www.w3.org/1999/xlink" xml:space="preserve" onload="init(evt)">
<style type="text/css"><![CDATA[
.node, .edge {opacity: 0.7;}
.node.selected, .edge.selected {opacity: 1;}
.edge:hover path { stroke: red; }
.edge:hover polygon { stroke: red; fill: red; }
]]></style>

<defs>
  <circle id="rim" cx="0" cy="0" r="7"/>
  <circle id="rim2" cx="0" cy="0" r="3.5"/>
  <g id="zoomPlus">
    <use xlink:href="#rim" fill="#404040"><set attributeName="fill" to="#808080" begin="zoomplus.mouseover" end="zoomplus.mouseout"/></use>
    <path d="M-4,0h8M0,-4v8" fill="none" stroke="white" stroke-width="1.5" pointer-events="none"/>
  </g>
  <g id="zoomMin">
    <use xlink:href="#rim" fill="#404040"><set attributeName="fill" to="#808080" begin="zoomminus.mouseover" end="zoomminus.mouseout"/></use>
    <path d="M-4,0h8" fill="none" stroke="white" stroke-width="1.5" pointer-events="none"/>
  </g>
  <g id="arrowUp" transform="translate(30 24)">
    <use xlink:href="#rim"/>
    <path pointer-events="none" fill="none" stroke="white" stroke-width="1.5" d="M0,-3.0v7 M-2.5,-0.5L0,-3.0L2.5,-0.5"/>
  </g>
  <g id="arrowRight" transform="rotate(90) translate(36 -43)">
    <use xlink:href="#rim"/>
    <path pointer-events="none" fill="none" stroke="white" stroke-width="1.5" d="M0,-3.0v7 M-2.5,-0.5L0,-3.0L2.5,-0.5"/>
  </g>
  <g id="arrowDown" transform="rotate(180) translate(-30 -48)">
    <use xlink:href="#rim"/>
    <path pointer-events="none" fill="none" stroke="white" stroke-width="1.5" d="M0,-3.0v7 M-2.5,-0.5L0,-3.0L2.5,-0.5"/>
  </g>
  <g id="arrowLeft" transform="rotate(270) translate(-36 17)">
    <use xlink:href="#rim"/>
    <path pointer-events="none" fill="none" stroke="white" stroke-width="1.5" d="M0,-3.0v7 M-2.5,-0.5L0,-3.0L2.5,-0.5"/>
  </g>
  <g id="resetDef">
    <use xlink:href="#rim2" fill="#404040"><set attributeName="fill" to="#808080" begin="reset.mouseover" end="reset.mouseout"/></use>
  </g>
</defs>
<script type="application/ecmascript">
var viewWidth = 787;
var viewHeight = 218;
var sectionId = 'dynsection-70';
</script>
<script type="application/ecmascript" xlink:href="../../svg.min.js"/>
<svg id="graph" class="graph">
<g id="viewport">
<title>NetworkManager::ensureRemaining</title>
<!-- Node1 -->
<g id="Node000001" class="node">
<title>Node1</title>
<g id="a_Node000001"><a xlink:title=" ">
<polygon fill="#999999" stroke="#666666" points="778.75,-104.45 606.75,-104.45 606.75,-84.45 778.75,-84.45 778.75,-104.45"/>
<text xml:space="preserve" text-anchor="middle" x="692.75" y="-90.95" font-family="Helvetica,sans-Serif" font-size="10.00">NetworkManager::ensureRemaining</text>
</a>
</g>
</g>
<!-- Node2 -->
<g id="Node000002" class="node">
<title>Node2</title>
<g id="a_Node000002"><a xlink:href="../../da/d21/class_network_manager.html#a53df93ad0cb0498c82f866a921e7b285" target="_top" xlink:title=" ">
<polygon fill="white" stroke="#666666" points="356,-135.45 208,-135.45 208,-103.45 356,-103.45 356,-135.45"/>
<text xml:space="preserve" text-anchor="start" x="216" y="-121.95" font-family="Helvetica,sans-Serif" font-size="10.00">NetworkManager::decodeRaw</text>
<text xml:space="preserve" text-anchor="middle" x="282" y="-109.95" font-family="Helvetica,sans-Serif" font-size="10.00">GameBuffer</text>
</a>
</g>
</g>
<!-- Node1&#45;&gt;Node2 -->
<g id="edge1_Node000001_Node000002" class="edge">
<title>Node1&#45;&gt;Node2</title>
<g id="a_edge1_Node000001_Node000002"><a xlink:title=" ">
<path fill="none" stroke="#63b8ff" d="M676.03,-113.18C654.92,-136.73 614.93,-175.93 570.75,-191.45 495.8,-217.78 468.08,-214.31 392,-191.45 355.94,-180.61 320.82,-153.56 300.57,-135.87"/>
<polygon fill="#63b8ff" stroke="#63b8ff" points="678.48,-115.71 682.41,-105.87 673.2,-111.1 678.48,-115.71"/>
</a>
</g>
</g>
<!-- Node5 -->
<g id="Node000005" class="node">
<title>Node5</title>
<g id="a_Node000005"><a xlink:href="../../da/d21/class_network_manager.html#adea6a8bf4c034a65775aa7a8f9d2e8a2" target="_top" xlink:title=" ">
<polygon fill="white" stroke="#666666" points="356,-85.45 208,-85.45 208,-53.45 356,-53.45 356,-85.45"/>
<text xml:space="preserve" text-anchor="start" x="216" y="-71.95" font-family="Helvetica,sans-Serif" font-size="10.00">NetworkManager::decodeRaw</text>
<text xml:space="preserve" text-anchor="middle" x="282" y="-59.95" font-family="Helvetica,sans-Serif" font-size="10.00">MarkerMoveBuffer</text>
</a>
</g>
</g>
<!-- Node1&#45;&gt;Node5 -->
<g id="edge4_Node000001_Node000005" class="edge">
<title>Node1&#45;&gt;Node5</title>
<g id="a_edge4_Node000001_Node000005"><a xlink:title=" ">
<path fill="none" stroke="#63b8ff" d="M595.51,-88.56C522.37,-84.09 423.27,-78.03 356.44,-73.94"/>
<polygon fill="#63b8ff" stroke="#63b8ff" points="594.85,-92.03 605.05,-89.14 595.28,-85.04 594.85,-92.03"/>
</a>
</g>
</g>
<!-- Node6 -->
<g id="Node000006" class="node">
<title>Node6</title>
<g id="a_Node000006"><a xlink:href="../../da/d21/class_network_manager.html#a40a38591b24f2d04217a8df97c2fbe72" target="_top" xlink:title=" ">
<polygon fill="white" stroke="#666666" points="356,-35.45 208,-35.45 208,-3.45 356,-3.45 356,-35.45"/>
<text xml:space="preserve" text-anchor="start" x="216" y="-21.95" font-family="Helvetica,sans-Serif" font-size="10.00">NetworkManager::decodeRaw</text>
<text xml:space="preserve" text-anchor="middle" x="282" y="-9.95" font-family="Helvetica,sans-Serif" font-size="10.00">NotesBuffer</text>
</a>
</g>
</g>
<!-- Node1&#45;&gt;Node6 -->
<g id="edge7_Node000001_Node000006" class="edge">
<title>Node1&#45;&gt;Node6</title>
<g id="a_edge7_Node000001_Node000006"><a xlink:title=" ">
<path fill="none" stroke="#63b8ff" d="M672.3,-76.51C649.81,-57.1 610.73,-27.34 570.75,-15.45 500.24,5.53 415.64,1.06 356.49,-6.54"/>
<polygon fill="#63b8ff" stroke="#63b8ff" points="669.94,-79.1 679.75,-83.11 674.58,-73.86 669.94,-79.1"/>
</a>
</g>
</g>
<!-- Node7 -->
<g id="Node000007" class="node">
<title>Node7</title>
<g id="a_Node000007"><a xlink:href="../../da/d21/class_network_manager.html#a5974165ef6da3b0a8e954c3219310212" target="_top" xlink:title=" ">
<polygon fill="white" stroke="#666666" points="552.75,-182.45 410,-182.45 410,-150.45 552.75,-150.45 552.75,-182.45"/>
<text xml:space="preserve" text-anchor="start" x="418" y="-168.95" font-family="Helvetica,sans-Serif" font-size="10.00">NetworkManager::handleGrid</text>
<text xml:space="preserve" text-anchor="middle" x="481.38" y="-156.95" font-family="Helvetica,sans-Serif" font-size="10.00">Update</text>
</a>
</g>
</g>
<!-- Node1&#45;&gt;Node7 -->
<g id="edge10_Node000001_Node000007" class="edge">
<title>Node1&#45;&gt;Node7</title>
<g id="a_edge10_Node000001_Node000007"><a xlink:title=" ">
<path fill="none" stroke="#63b8ff" d="M656.61,-109.11C632.63,-118.87 600.03,-131.64 570.75,-141.45 561.98,-144.38 552.65,-147.27 543.46,-149.98"/>
<polygon fill="#63b8ff" stroke="#63b8ff" points="657.65,-112.47 665.57,-105.44 654.99,-105.99 657.65,-112.47"/>
</a>
</g>
</g>
<!-- Node8 -->
<g id="Node000008" class="node">
<title>Node8</title>
<g id="a_Node000008"><a xlink:href="../../da/d21/class_network_manager.html#afc9a1534cbb3b4b950796094d4e97775" target="_top" xlink:title=" ">
<polygon fill="white" stroke="#666666" points="570.75,-44.45 392,-44.45 392,-24.45 570.75,-24.45 570.75,-44.45"/>
<text xml:space="preserve" text-anchor="middle" x="481.38" y="-30.95" font-family="Helvetica,sans-Serif" font-size="10.00">NetworkManager::handleMarkerMove</text>
</a>
</g>
</g>
<!-- Node1&#45;&gt;Node8 -->
<g id="edge12_Node000001_Node000008" class="edge">
<title>Node1&#45;&gt;Node8</title>
<g id="a_edge12_Node000001_Node000008"><a xlink:title=" ">
<path fill="none" stroke="#63b8ff" d="M646.38,-80.67C623.7,-73.85 595.82,-65.58 570.75,-58.45 554.69,-53.88 536.94,-49.02 521.59,-44.88"/>
<polygon fill="#63b8ff" stroke="#63b8ff" points="645.36,-84.01 655.94,-83.55 647.38,-77.31 645.36,-84.01"/>
</a>
</g>
</g>
<!-- Node9 -->
<g id="Node000009" class="node">
<title>Node9</title>
<g id="a_Node000009"><a xlink:href="../../da/d21/class_network_manager.html#a4e57df88fc7446d22630aacb5a31dfc1" target="_top" xlink:title=" ">
<polygon fill="white" stroke="#666666" points="558.75,-132.45 404,-132.45 404,-100.45 558.75,-100.45 558.75,-132.45"/>
<text xml:space="preserve" text-anchor="start" x="412" y="-118.95" font-family="Helvetica,sans-Serif" font-size="10.00">NetworkManager::handleMarker</text>
<text xml:space="preserve" text-anchor="middle" x="481.38" y="-106.95" font-family="Helvetica,sans-Serif" font-size="10.00">MoveState</text>
</a>
</g>
</g>
<!-- Node1&#45;&gt;Node9 -->
<g id="edge14_Node000001_Node000009" class="edge">
<title>Node1&#45;&gt;Node9</title>
<g id="a_edge14_Node000001_Node000009"><a xlink:title=" ">
<path fill="none" stroke="#63b8ff" d="M594.87,-104.63C582.89,-105.89 570.77,-107.16 559.16,-108.38"/>
<polygon fill="#63b8ff" stroke="#63b8ff" points="595.2,-108.11 604.78,-103.59 594.47,-101.15 595.2,-108.11"/>
</a>
</g>
</g>
<!-- Node3 -->
<g id="Node000003" class="node">
<title>Node3</title>
<g id="a_Node000003"><a xlink:href="../../da/d21/class_network_manager.html#ad3605b8b33fa44492458d0aaffb4dec8" target="_top" xlink:title=" ">
<polygon fill="white" stroke="#666666" points="172,-101.45 0,-101.45 0,-81.45 172,-81.45 172,-101.45"/>
<text xml:space="preserve" text-anchor="middle" x="86" y="-87.95" font-family="Helvetica,sans-Serif" font-size="10.00">NetworkManager::drainInboundRaw</text>
</a>
</g>
</g>
<!-- Node2&#45;&gt;Node3 -->
<g id="edge2_Node000002_Node000003" class="edge">
<title>Node2&#45;&gt;Node3</title>
<g id="a_edge2_Node000002_Node000003"><a xlink:title=" ">
<path fill="none" stroke="#63b8ff" d="M196.44,-107.24C184.12,-105.46 171.53,-103.65 159.48,-101.91"/>
<polygon fill="#63b8ff" stroke="#63b8ff" points="195.76,-110.68 206.16,-108.65 196.76,-103.75 195.76,-110.68"/>
</a>
</g>
</g>
<!-- Node4 -->
<g id="Node000004" class="node">
<title>Node4</title>
<g id="a_Node000004"><a xlink:href="../../da/d21/class_network_manager.html#a3289708df965193b6ec0287eb069b276" target="_top" xlink:title=" ">
<polygon fill="white" stroke="#666666" points="154,-63.45 18,-63.45 18,-31.45 154,-31.45 154,-63.45"/>
<text xml:space="preserve" text-anchor="start" x="26" y="-49.95" font-family="Helvetica,sans-Serif" font-size="10.00">NetworkManager::startRaw</text>
<text xml:space="preserve" text-anchor="middle" x="86" y="-37.95" font-family="Helvetica,sans-Serif" font-size="10.00">DrainWorker</text>
</a>
</g>
</g>
<!-- Node2&#45;&gt;Node4 -->
<g id="edge3_Node000002_Node000004" class="edge">
<title>Node2&#45;&gt;Node4</title>
<g id="a_edge3_Node000002_Node000004"><a xlink:title=" ">
<path fill="none" stroke="#63b8ff" d="M218.12,-98.91C214.67,-97.48 211.27,-95.99 208,-94.45 191.03,-86.47 189.14,-80.05 172,-72.45 164.97,-69.33 157.44,-66.48 149.88,-63.9"/>
<polygon fill="#63b8ff" stroke="#63b8ff" points="216.61,-102.08 227.2,-102.5 219.18,-95.57 216.61,-102.08"/>
</a>
</g>
</g>
<!-- Node5&#45;&gt;Node3 -->
<g id="edge5_Node000005_Node000003" class="edge">
<title>Node5&#45;&gt;Node3</title>
<g id="a_edge5_Node000005_Node000003"><a xlink:title=" ">
<path fill="none" stroke="#63b8ff" d="M196.23,-79.06C188.36,-79.95 180.38,-80.86 172.5,-81.75"/>
<polygon fill="#63b8ff" stroke="#63b8ff" points="196.61,-82.54 206.15,-77.93 195.82,-75.58 196.61,-82.54"/>
</a>
</g>
</g>
<!-- Node5&#45;&gt;Node4 -->
<g id="edge6_Node000005_Node000004" class="edge">
<title>Node5&#45;&gt;Node4</title>
<g id="a_edge6_Node000005_Node000004"><a xlink:title=" ">
<path fill="none" stroke="#63b8ff" d="M196.47,-59.86C182.39,-58.26 167.95,-56.63 154.38,-55.09"/>
<polygon fill="#63b8ff" stroke="#63b8ff" points="195.82,-63.31 206.15,-60.96 196.61,-56.35 195.82,-63.31"/>
</a>
</g>
</g>
<!-- Node6&#45;&gt;Node3 -->
<g id="edge8_Node000006_Node000003" class="edge">
<title>Node6&#45;&gt;Node3</title>
<g id="a_edge8_Node000006_Node000003"><a xlink:title=" ">
<path fill="none" stroke="#63b8ff" d="M215.81,-40.51C213.14,-41.77 210.53,-43.08 208,-44.45 190.17,-54.08 190.33,-63.8 172,-72.45 164.75,-75.86 156.86,-78.68 148.9,-81"/>
<polygon fill="#63b8ff" stroke="#63b8ff" points="217.17,-43.74 224.94,-36.53 214.37,-37.32 217.17,-43.74"/>
</a>
</g>
</g>
<!-- Node6&#45;&gt;Node4 -->
<g id="edge9_Node000006_Node000004" class="edge">
<title>Node6&#45;&gt;Node4</title>
<g id="a_edge9_Node000006_Node000004"><a xlink:title=" ">
<path fill="none" stroke="#63b8ff" d="M196.47,-31.65C182.39,-33.68 167.95,-35.76 154.38,-37.72"/>
<polygon fill="#63b8ff" stroke="#63b8ff" points="196.76,-35.14 206.16,-30.25 195.76,-28.21 196.76,-35.14"/>
</a>
</g>
</g>
<!-- Node7&#45;&gt;Node2 -->
<g id="edge11_Node000007_Node000002" class="edge">
<title>Node7&#45;&gt;Node2</title>
<g id="a_edge11_Node000007_Node000002"><a xlink:title=" ">
<path fill="none" stroke="#63b8ff" d="M400.37,-147.4C384.34,-143.58 367.62,-139.6 351.99,-135.88"/>
<polygon fill="#63b8ff" stroke="#63b8ff" points="399.33,-150.75 409.87,-149.66 400.95,-143.94 399.33,-150.75"/>
</a>
</g>
</g>
<!-- Node8&#45;&gt;Node5 -->
<g id="edge13_Node000008_Node000005" class="edge">
<title>Node8&#45;&gt;Node5</title>
<g id="a_edge13_Node000008_Node000005"><a xlink:title=" ">
<path fill="none" stroke="#63b8ff" d="M410.16,-46.9C392.7,-49.99 373.94,-53.32 356.34,-56.44"/>
<polygon fill="#63b8ff" stroke="#63b8ff" points="410.7,-50.36 419.93,-45.16 409.48,-43.46 410.7,-50.36"/>
</a>
</g>
</g>
<!-- Node9&#45;&gt;Node2 -->
<g id="edge15_Node000009_Node000002" class="edge">
<title>Node9&#45;&gt;Node2</title>
<g id="a_edge15_Node000009_Node000002"><a xlink:title=" ">
<path fill="none" stroke="#63b8ff" d="M392.33,-117.79C380.3,-117.97 368.05,-118.15 356.31,-118.33"/>
<polygon fill="#63b8ff" stroke="#63b8ff" points="392.32,-121.29 402.27,-117.63 392.22,-114.29 392.32,-121.29"/>
</a>
</g>
</g>
</g>
</svg>

<g id="navigator" transform="translate(0 0)" fill="#404254">
  <rect fill="#f2f5e9" fill-opacity="0.5" stroke="#606060" stroke-width=".5" x="0" y="0" width="60" height="60"/>
  <use id="zoomplus" xlink:href="#zoomPlus" x="17" y="9" onmousedown="handleZoom(evt,'in')"/>
  <use id="zoomminus" xlink:href="#zoomMin" x="42" y="9" onmousedown="handleZoom(evt,'out')"/>
  <use id="reset" xlink:href="#resetDef" x="30" y="36" onmousedown="handleReset()"/>
   <use id="arrowup" xlink:href="#arrowUp" x="0" y="0" onmousedown="handlePan(0,-1)"/>
  <use id="arrowright" xlink:href="#arrowRight" x="0" y="0" onmousedown="handlePan(1,0)"/>
  <use id="arrowdown" xlink:href="#arrowDown" x="0" y="0" onmousedown="handlePan(0,1)"/>
  <use id="arrowleft" xlink:href="#arrowLeft" x="0" y="0" onmousedown="handlePan(-1,0)"/>
</g>
<svg viewBox="0 0 15 15" width="100%" height="30px" preserveAspectRatio="xMaxYMin meet">
 <g id="arrow_out" transform="scale(0.3 0.3)">
  <a xlink:href="class_network_manager_aed1ae9bdd229ea45245fc0b540187779_icgraph_org.svg" target="_base">
   <rect id="button" ry="5" rx="5" y="6" x="6" height="38" width="38"
        fill="#f2f5e9" fill-opacity="0.5" stroke="#606060" stroke-width="1.0"/>
   <path id="arrow"
     d="M 11.500037,31.436501 C 11.940474,20.09759 22.043105,11.32322 32.158766,21.979434 L 37.068811,17.246167 C 37.068811,17.246167 37.088388,32 37.088388,32 L 22.160133,31.978069 C 22.160133,31.978069 26.997745,27.140456 26.997745,27.140456 C 18.528582,18.264221 13.291696,25.230495 11.500037,31.436501 z"
     style="fill:#404040;"/>
  </a>
 </g>
</svg>

<style type='text/css'>
<![CDATA[
[data-mouse-over-selected='false'] { opacity: 0.7; }
[data-mouse-over-selected='true']  { opacity: 1.0; }
]]>
</style>
<script type="application/ecmascript"><![CDATA[
document.addEventListener('DOMContentLoaded', (event) => {
  highlightEdges();
  highlightAdjacentNodes();
});
]]></script>
</svg>
