<?xml version="1.0" encoding="UTF-8" standalone="no"?>
<!DOCTYPE svg PUBLIC "-//W3C//DTD SVG 1.1//EN"
 "http://www.w3.org/Graphics/SVG/1.1/DTD/svg11.dtd">
<!-- Generated by graphviz version 14.0.2 (20251019.1705)
 -->
<!-- Title: NetworkManager::startServer Pages: 1 -->
<svg width="927pt" height="524pt"
 viewBox="0.00 0.00 927.00 524.00" xmlns="http://www.w3.org/2000/svg" xmlns:xlink="http://www.w3.org/1999/xlink">
<g id="graph0" class="graph" transform="scale(1 1) rotate(0) translate(4 520)">
<title>NetworkManager::startServer</title>
<!-- Node1 -->
<g id="Node000001" class="node">
<title>Node1</title>
<g id="a_Node000001"><a xlink:title=" ">
<polygon fill="#999999" stroke="#666666" points="144.25,-346 0,-346 0,-326 144.25,-326 144.25,-346"/>
<text xml:space="preserve" text-anchor="middle" x="72.12" y="-332.5" font-family="Helvetica,sans-Serif" font-size="10.00">NetworkManager::startServer</text>
</a>
</g>
</g>
<!-- Node2 -->
<g id="Node000002" class="node">
<title>Node2</title>
<g id="a_Node000002"><a xlink:href="../../df/d03/class_u_pn_p_manager.html#a0363b702f70a8e05a3a5a6c9fddcde76" target="_top" xlink:title=" ">
<polygon fill="white" stroke="#666666" points="336.5,-459 180.25,-459 180.25,-439 336.5,-439 336.5,-459"/>
<text xml:space="preserve" text-anchor="middle" x="258.38" y="-445.5" font-family="Helvetica,sans-Serif" font-size="10.00">UPnPManager::addPortMapping</text>
</a>
</g>
</g>
<!-- Node1&#45;&gt;Node2 -->
<g id="edge1_Node000001_Node000002" class="edge">
<title>Node1&#45;&gt;Node2</title>
<g id="a_edge1_Node000001_Node000002"><a xlink:title=" ">
<path fill="none" stroke="#63b8ff" d="M86.54,-346.4C106.41,-361.56 145.08,-390.19 180.25,-411 194.17,-419.24 210.13,-427.31 223.9,-433.88"/>
<polygon fill="#63b8ff" stroke="#63b8ff" points="222.03,-436.87 232.57,-437.95 225,-430.53 222.03,-436.87"/>
</a>
</g>
</g>
<!-- Node6 -->
<g id="Node000006" class="node">
<title>Node6</title>
<g id="a_Node000006"><a xlink:href="../../da/d21/class_network_manager.html#ac6d071ea2f521c20e9c3340312bb3a44" target="_top" xlink:title=" ">
<polygon fill="white" stroke="#666666" points="324.88,-402 191.88,-402 191.88,-370 324.88,-370 324.88,-402"/>
<text xml:space="preserve" text-anchor="start" x="199.88" y="-388.5" font-family="Helvetica,sans-Serif" font-size="10.00">NetworkManager::getLocal</text>
<text xml:space="preserve" text-anchor="middle" x="258.38" y="-376.5" font-family="Helvetica,sans-Serif" font-size="10.00">IPAddress</text>
</a>
</g>
</g>
<!-- Node1&#45;&gt;Node6 -->
<g id="edge5_Node000001_Node000006" class="edge">
<title>Node1&#45;&gt;Node6</title>
<g id="a_edge5_Node000001_Node000006"><a xlink:title=" ">
<path fill="none" stroke="#63b8ff" d="M111.75,-346.48C133.17,-352.29 160.49,-359.71 185.67,-366.54"/>
<polygon fill="#63b8ff" stroke="#63b8ff" points="184.65,-369.89 195.22,-369.13 186.48,-363.14 184.65,-369.89"/>
</a>
</g>
</g>
<!-- Node8 -->
<g id="Node000008" class="node">
<title>Node8</title>
<g id="a_Node000008"><a xlink:href="../../da/d21/class_network_manager.html#a48532d5d0171243adab2fc3c7bba22e1" target="_top" xlink:title=" ">
<polygon fill="white" stroke="#666666" points="331.25,-352 185.5,-352 185.5,-320 331.25,-320 331.25,-352"/>
<text xml:space="preserve" text-anchor="start" x="193.5" y="-338.5" font-family="Helvetica,sans-Serif" font-size="10.00">NetworkManager::pushStatus</text>
<text xml:space="preserve" text-anchor="middle" x="258.38" y="-326.5" font-family="Helvetica,sans-Serif" font-size="10.00">Toast</text>
</a>
</g>
</g>
<!-- Node1&#45;&gt;Node8 -->
<g id="edge7_Node000001_Node000008" class="edge">
<title>Node1&#45;&gt;Node8</title>
<g id="a_edge7_Node000001_Node000008"><a xlink:title=" ">
<path fill="none" stroke="#63b8ff" d="M144.62,-336C154.15,-336 163.98,-336 173.69,-336"/>
<polygon fill="#63b8ff" stroke="#63b8ff" points="173.49,-339.5 183.49,-336 173.49,-332.5 173.49,-339.5"/>
</a>
</g>
</g>
<!-- Node9 -->
<g id="Node000009" class="node">
<title>Node9</title>
<g id="a_Node000009"><a xlink:href="../../da/d21/class_network_manager.html#a5dcd9639395ec5d99f4e4199698f995f" target="_top" xlink:title=" ">
<polygon fill="white" stroke="#666666" points="322.25,-302 194.5,-302 194.5,-282 322.25,-282 322.25,-302"/>
<text xml:space="preserve" text-anchor="middle" x="258.38" y="-288.5" font-family="Helvetica,sans-Serif" font-size="10.00">NetworkManager::setPort</text>
</a>
</g>
</g>
<!-- Node1&#45;&gt;Node9 -->
<g id="edge8_Node000001_Node000009" class="edge">
<title>Node1&#45;&gt;Node9</title>
<g id="a_edge8_Node000001_Node000009"><a xlink:title=" ">
<path fill="none" stroke="#63b8ff" d="M116.79,-325.57C142.51,-319.43 175.28,-311.61 202.7,-305.06"/>
<polygon fill="#63b8ff" stroke="#63b8ff" points="203.32,-308.51 212.23,-302.78 201.69,-301.7 203.32,-308.51"/>
</a>
</g>
</g>
<!-- Node10 -->
<g id="Node000010" class="node">
<title>Node10</title>
<g id="a_Node000010"><a xlink:href="../../d5/d81/class_network_utilities.html#ac0655968aa7b9e06f7566343e0d2e567" target="_top" xlink:title=" ">
<polygon fill="white" stroke="#666666" points="325.62,-208 191.12,-208 191.12,-176 325.62,-176 325.62,-208"/>
<text xml:space="preserve" text-anchor="start" x="199.12" y="-194.5" font-family="Helvetica,sans-Serif" font-size="10.00">NetworkUtilities::startLocal</text>
<text xml:space="preserve" text-anchor="middle" x="258.38" y="-182.5" font-family="Helvetica,sans-Serif" font-size="10.00">Tunnel</text>
</a>
</g>
</g>
<!-- Node1&#45;&gt;Node10 -->
<g id="edge9_Node000001_Node000010" class="edge">
<title>Node1&#45;&gt;Node10</title>
<g id="a_edge9_Node000001_Node000010"><a xlink:title=" ">
<path fill="none" stroke="#63b8ff" d="M86.38,-325.64C115.69,-302.73 186.68,-247.25 227.37,-215.45"/>
<polygon fill="#63b8ff" stroke="#63b8ff" points="229.38,-218.32 235.11,-209.4 225.07,-212.8 229.38,-218.32"/>
</a>
</g>
</g>
<!-- Node3 -->
<g id="Node000003" class="node">
<title>Node3</title>
<g id="a_Node000003"><a xlink:href="../../de/d2f/class_path_manager.html#ac448bd3c10a386c7f89ca39560f6337b" target="_top" xlink:title=" ">
<polygon fill="white" stroke="#666666" points="531.75,-516 372.5,-516 372.5,-496 531.75,-496 531.75,-516"/>
<text xml:space="preserve" text-anchor="middle" x="452.12" y="-502.5" font-family="Helvetica,sans-Serif" font-size="10.00">PathManager::getUpnpcExePath</text>
</a>
</g>
</g>
<!-- Node2&#45;&gt;Node3 -->
<g id="edge2_Node000002_Node000003" class="edge">
<title>Node2&#45;&gt;Node3</title>
<g id="a_edge2_Node000002_Node000003"><a xlink:title=" ">
<path fill="none" stroke="#63b8ff" d="M287.99,-459.38C310.73,-467.44 343.43,-478.62 372.5,-487 379.32,-488.97 386.51,-490.89 393.66,-492.73"/>
<polygon fill="#63b8ff" stroke="#63b8ff" points="392.78,-496.11 403.33,-495.15 394.48,-489.32 392.78,-496.11"/>
</a>
</g>
</g>
<!-- Node4 -->
<g id="Node000004" class="node">
<title>Node4</title>
<g id="a_Node000004"><a xlink:href="../../df/d03/class_u_pn_p_manager.html#abd58c0e1f52e2e50ed55df5430718ba3" target="_top" xlink:title=" ">
<polygon fill="white" stroke="#666666" points="529.88,-478 374.38,-478 374.38,-458 529.88,-458 529.88,-478"/>
<text xml:space="preserve" text-anchor="middle" x="452.12" y="-464.5" font-family="Helvetica,sans-Serif" font-size="10.00">UPnPManager::stringToWString</text>
</a>
</g>
</g>
<!-- Node2&#45;&gt;Node4 -->
<g id="edge3_Node000002_Node000004" class="edge">
<title>Node2&#45;&gt;Node4</title>
<g id="a_edge3_Node000002_Node000004"><a xlink:title=" ">
<path fill="none" stroke="#63b8ff" d="M336.81,-456.67C345.34,-457.52 354.07,-458.38 362.72,-459.24"/>
<polygon fill="#63b8ff" stroke="#63b8ff" points="362.22,-462.71 372.51,-460.21 362.91,-455.74 362.22,-462.71"/>
</a>
</g>
</g>
<!-- Node5 -->
<g id="Node000005" class="node">
<title>Node5</title>
<g id="a_Node000005"><a xlink:href="../../df/d03/class_u_pn_p_manager.html#afc817fc590e223d3e762497676665b34" target="_top" xlink:title=" ">
<polygon fill="white" stroke="#666666" points="512.25,-440 392,-440 392,-420 512.25,-420 512.25,-440"/>
<text xml:space="preserve" text-anchor="middle" x="452.12" y="-426.5" font-family="Helvetica,sans-Serif" font-size="10.00">UPnPManager::toUpper</text>
</a>
</g>
</g>
<!-- Node2&#45;&gt;Node5 -->
<g id="edge4_Node000002_Node000005" class="edge">
<title>Node2&#45;&gt;Node5</title>
<g id="a_edge4_Node000002_Node000005"><a xlink:title=" ">
<path fill="none" stroke="#63b8ff" d="M336.81,-441.33C351.25,-439.9 366.26,-438.41 380.48,-437"/>
<polygon fill="#63b8ff" stroke="#63b8ff" points="380.57,-440.51 390.18,-436.04 379.88,-433.54 380.57,-440.51"/>
</a>
</g>
</g>
<!-- Node7 -->
<g id="Node000007" class="node">
<title>Node7</title>
<g id="a_Node000007"><a xlink:href="../../d5/d81/class_network_utilities.html#aa1a4875844765ed6487082867f6a832f" target="_top" xlink:title=" ">
<polygon fill="white" stroke="#666666" points="516.38,-402 387.88,-402 387.88,-370 516.38,-370 516.38,-402"/>
<text xml:space="preserve" text-anchor="start" x="395.88" y="-388.5" font-family="Helvetica,sans-Serif" font-size="10.00">NetworkUtilities::getLocal</text>
<text xml:space="preserve" text-anchor="middle" x="452.12" y="-376.5" font-family="Helvetica,sans-Serif" font-size="10.00">IPv4Address</text>
</a>
</g>
</g>
<!-- Node6&#45;&gt;Node7 -->
<g id="edge6_Node000006_Node000007" class="edge">
<title>Node6&#45;&gt;Node7</title>
<g id="a_edge6_Node000006_Node000007"><a xlink:title=" ">
<path fill="none" stroke="#63b8ff" d="M325.36,-386C341.74,-386 359.4,-386 376.17,-386"/>
<polygon fill="#63b8ff" stroke="#63b8ff" points="376.09,-389.5 386.09,-386 376.09,-382.5 376.09,-389.5"/>
</a>
</g>
</g>
<!-- Node11 -->
<g id="Node000011" class="node">
<title>Node11</title>
<g id="a_Node000011"><a xlink:href="../../d5/d81/class_network_utilities.html#ace9b13371f4e6ffa2594682ada0f4e0c" target="_top" xlink:title=" ">
<polygon fill="white" stroke="#666666" points="512.25,-120 392,-120 392,-88 512.25,-88 512.25,-120"/>
<text xml:space="preserve" text-anchor="start" x="400" y="-106.5" font-family="Helvetica,sans-Serif" font-size="10.00">NetworkUtilities::assign</text>
<text xml:space="preserve" text-anchor="middle" x="452.12" y="-94.5" font-family="Helvetica,sans-Serif" font-size="10.00">ToJob</text>
</a>
</g>
</g>
<!-- Node10&#45;&gt;Node11 -->
<g id="edge10_Node000010_Node000011" class="edge">
<title>Node10&#45;&gt;Node11</title>
<g id="a_edge10_Node000010_Node000011"><a xlink:title=" ">
<path fill="none" stroke="#63b8ff" d="M289.19,-175.58C311.75,-163.44 343.67,-146.84 372.5,-134 379.67,-130.81 387.28,-127.63 394.85,-124.61"/>
<polygon fill="#63b8ff" stroke="#63b8ff" points="396.02,-127.91 404.05,-121.01 393.46,-121.4 396.02,-127.91"/>
</a>
</g>
</g>
<!-- Node13 -->
<g id="Node000013" class="node">
<title>Node13</title>
<g id="a_Node000013"><a xlink:href="../../d5/d81/class_network_utilities.html#a9bb500d7c81ea448babc07ac94e6bd65" target="_top" xlink:title=" ">
<polygon fill="white" stroke="#666666" points="719.5,-180 567.75,-180 567.75,-160 719.5,-160 719.5,-180"/>
<text xml:space="preserve" text-anchor="middle" x="643.62" y="-166.5" font-family="Helvetica,sans-Serif" font-size="10.00">NetworkUtilities::closeHandleIf</text>
</a>
</g>
</g>
<!-- Node10&#45;&gt;Node13 -->
<g id="edge12_Node000010_Node000013" class="edge">
<title>Node10&#45;&gt;Node13</title>
<g id="a_edge12_Node000010_Node000013"><a xlink:title=" ">
<path fill="none" stroke="#63b8ff" d="M322.39,-175.53C338.61,-172 356.1,-168.79 372.5,-167 433.53,-160.34 502.77,-161.27 555.87,-163.78"/>
<polygon fill="#63b8ff" stroke="#63b8ff" points="555.61,-167.27 565.77,-164.28 555.96,-160.28 555.61,-167.27"/>
</a>
</g>
</g>
<!-- Node14 -->
<g id="Node000014" class="node">
<title>Node14</title>
<g id="a_Node000014"><a xlink:href="../../de/d2f/class_path_manager.html#a84566186a965025393fe31a9cfb50299" target="_top" xlink:title=" ">
<polygon fill="white" stroke="#666666" points="525,-70 379.25,-70 379.25,-38 525,-38 525,-70"/>
<text xml:space="preserve" text-anchor="start" x="387.25" y="-56.5" font-family="Helvetica,sans-Serif" font-size="10.00">PathManager::getLocalTunnel</text>
<text xml:space="preserve" text-anchor="middle" x="452.12" y="-44.5" font-family="Helvetica,sans-Serif" font-size="10.00">ControllerPath</text>
</a>
</g>
</g>
<!-- Node10&#45;&gt;Node14 -->
<g id="edge13_Node000010_Node000014" class="edge">
<title>Node10&#45;&gt;Node14</title>
<g id="a_edge13_Node000010_Node000014"><a xlink:title=" ">
<path fill="none" stroke="#63b8ff" d="M271.45,-175.71C290.37,-151.29 329.33,-105.25 372.5,-79 374.64,-77.7 376.85,-76.46 379.12,-75.28"/>
<polygon fill="#63b8ff" stroke="#63b8ff" points="380.41,-78.54 387.97,-71.12 377.43,-72.21 380.41,-78.54"/>
</a>
</g>
</g>
<!-- Node17 -->
<g id="Node000017" class="node">
<title>Node17</title>
<g id="a_Node000017"><a xlink:href="../../de/d2f/class_path_manager.html#a8995cf2a53dfcf82d99d80695396031a" target="_top" xlink:title=" ">
<polygon fill="white" stroke="#666666" points="529.12,-20 375.12,-20 375.12,0 529.12,0 529.12,-20"/>
<text xml:space="preserve" text-anchor="middle" x="452.12" y="-6.5" font-family="Helvetica,sans-Serif" font-size="10.00">PathManager::getNodeExePath</text>
</a>
</g>
</g>
<!-- Node10&#45;&gt;Node17 -->
<g id="edge16_Node000010_Node000017" class="edge">
<title>Node10&#45;&gt;Node17</title>
<g id="a_edge16_Node000010_Node000017"><a xlink:title=" ">
<path fill="none" stroke="#63b8ff" d="M265.93,-175.62C280.08,-142.43 316.8,-67.15 372.5,-29 374.45,-27.67 376.48,-26.43 378.57,-25.27"/>
<polygon fill="#63b8ff" stroke="#63b8ff" points="379.83,-28.55 387.39,-21.13 376.85,-22.22 379.83,-28.55"/>
</a>
</g>
</g>
<!-- Node18 -->
<g id="Node000018" class="node">
<title>Node18</title>
<g id="a_Node000018"><a xlink:href="../../d3/d42/class_logger.html#aebb248e608f8e2724de20b482cb2a15f" target="_top" xlink:title=" ">
<polygon fill="white" stroke="#666666" points="496.12,-352 408.12,-352 408.12,-332 496.12,-332 496.12,-352"/>
<text xml:space="preserve" text-anchor="middle" x="452.12" y="-338.5" font-family="Helvetica,sans-Serif" font-size="10.00">Logger::instance</text>
</a>
</g>
</g>
<!-- Node10&#45;&gt;Node18 -->
<g id="edge18_Node000010_Node000018" class="edge">
<title>Node10&#45;&gt;Node18</title>
<g id="a_edge18_Node000010_Node000018"><a xlink:title=" ">
<path fill="none" stroke="#63b8ff" d="M276.32,-208.44C292.44,-224.39 317.04,-249.54 336.5,-273 353.98,-294.08 349.78,-307.72 372.5,-323 379.79,-327.9 388.22,-331.54 396.79,-334.25"/>
<polygon fill="#63b8ff" stroke="#63b8ff" points="395.61,-337.56 406.18,-336.8 397.45,-330.8 395.61,-337.56"/>
</a>
</g>
</g>
<!-- Node19 -->
<g id="Node000019" class="node">
<title>Node19</title>
<g id="a_Node000019"><a xlink:href="../../d5/d81/class_network_utilities.html#ad620dd61d9d41d13af77219ffd1d937e" target="_top" xlink:title=" ">
<polygon fill="white" stroke="#666666" points="516.38,-314 387.88,-314 387.88,-282 516.38,-282 516.38,-314"/>
<text xml:space="preserve" text-anchor="start" x="395.88" y="-300.5" font-family="Helvetica,sans-Serif" font-size="10.00">NetworkUtilities::lastError</text>
<text xml:space="preserve" text-anchor="middle" x="452.12" y="-288.5" font-family="Helvetica,sans-Serif" font-size="10.00">ToString</text>
</a>
</g>
</g>
<!-- Node10&#45;&gt;Node19 -->
<g id="edge19_Node000010_Node000019" class="edge">
<title>Node10&#45;&gt;Node19</title>
<g id="a_edge19_Node000010_Node000019"><a xlink:title=" ">
<path fill="none" stroke="#63b8ff" d="M278.2,-208.33C299.73,-226.31 336.65,-255.03 372.5,-273 375.54,-274.52 378.69,-275.98 381.91,-277.37"/>
<polygon fill="#63b8ff" stroke="#63b8ff" points="380.36,-280.52 390.94,-281 382.97,-274.02 380.36,-280.52"/>
</a>
</g>
</g>
<!-- Node20 -->
<g id="Node000020" class="node">
<title>Node20</title>
<g id="a_Node000020"><a xlink:href="../../d3/d42/class_logger.html#ab77a9a6a08954192b47c39f359b5d370" target="_top" xlink:title=" ">
<polygon fill="white" stroke="#666666" points="484.12,-246 420.12,-246 420.12,-226 484.12,-226 484.12,-246"/>
<text xml:space="preserve" text-anchor="middle" x="452.12" y="-232.5" font-family="Helvetica,sans-Serif" font-size="10.00">Logger::log</text>
</a>
</g>
</g>
<!-- Node10&#45;&gt;Node20 -->
<g id="edge20_Node000010_Node000020" class="edge">
<title>Node10&#45;&gt;Node20</title>
<g id="a_edge20_Node000010_Node000020"><a xlink:title=" ">
<path fill="none" stroke="#63b8ff" d="M325.9,-207.27C353.36,-213.57 384.36,-220.68 408.65,-226.25"/>
<polygon fill="#63b8ff" stroke="#63b8ff" points="407.64,-229.61 418.17,-228.44 409.21,-222.79 407.64,-229.61"/>
</a>
</g>
</g>
<!-- Node21 -->
<g id="Node000021" class="node">
<title>Node21</title>
<g id="a_Node000021"><a xlink:href="../../d5/d81/class_network_utilities.html#a1aff5744053044b32a0b910f02abc05a" target="_top" xlink:title=" ">
<polygon fill="white" stroke="#666666" points="519,-208 385.25,-208 385.25,-176 519,-176 519,-208"/>
<text xml:space="preserve" text-anchor="start" x="393.25" y="-194.5" font-family="Helvetica,sans-Serif" font-size="10.00">NetworkUtilities::stopLocal</text>
<text xml:space="preserve" text-anchor="middle" x="452.12" y="-182.5" font-family="Helvetica,sans-Serif" font-size="10.00">Tunnel</text>
</a>
</g>
</g>
<!-- Node10&#45;&gt;Node21 -->
<g id="edge22_Node000010_Node000021" class="edge">
<title>Node10&#45;&gt;Node21</title>
<g id="a_edge22_Node000010_Node000021"><a xlink:title=" ">
<path fill="none" stroke="#63b8ff" d="M325.9,-192C341.31,-192 357.83,-192 373.66,-192"/>
<polygon fill="#63b8ff" stroke="#63b8ff" points="373.53,-195.5 383.53,-192 373.53,-188.5 373.53,-195.5"/>
</a>
</g>
</g>
<!-- Node12 -->
<g id="Node000012" class="node">
<title>Node12</title>
<g id="a_Node000012"><a xlink:href="../../d5/d81/class_network_utilities.html#a829777d7022ecf7433b66afbae859800" target="_top" xlink:title=" ">
<polygon fill="white" stroke="#666666" points="703,-120 584.25,-120 584.25,-88 703,-88 703,-120"/>
<text xml:space="preserve" text-anchor="start" x="592.25" y="-106.5" font-family="Helvetica,sans-Serif" font-size="10.00">NetworkUtilities::create</text>
<text xml:space="preserve" text-anchor="middle" x="643.62" y="-94.5" font-family="Helvetica,sans-Serif" font-size="10.00">KillJobIfNeeded</text>
</a>
</g>
</g>
<!-- Node11&#45;&gt;Node12 -->
<g id="edge11_Node000011_Node000012" class="edge">
<title>Node11&#45;&gt;Node12</title>
<g id="a_edge11_Node000011_Node000012"><a xlink:title=" ">
<path fill="none" stroke="#63b8ff" d="M512.56,-104C531.62,-104 552.9,-104 572.63,-104"/>
<polygon fill="#63b8ff" stroke="#63b8ff" points="572.53,-107.5 582.53,-104 572.53,-100.5 572.53,-107.5"/>
</a>
</g>
</g>
<!-- Node15 -->
<g id="Node000015" class="node">
<title>Node15</title>
<g id="a_Node000015"><a xlink:href="../../de/d2f/class_path_manager.html#a8bc07ea0ad8692223d1743e442b48e26" target="_top" xlink:title=" ">
<polygon fill="white" stroke="#666666" points="718.38,-42 568.88,-42 568.88,-22 718.38,-22 718.38,-42"/>
<text xml:space="preserve" text-anchor="middle" x="643.62" y="-28.5" font-family="Helvetica,sans-Serif" font-size="10.00">PathManager::getExternalPath</text>
</a>
</g>
</g>
<!-- Node14&#45;&gt;Node15 -->
<g id="edge14_Node000014_Node000015" class="edge">
<title>Node14&#45;&gt;Node15</title>
<g id="a_edge14_Node000014_Node000015"><a xlink:title=" ">
<path fill="none" stroke="#63b8ff" d="M525.31,-45.62C535.68,-44.42 546.43,-43.17 557.03,-41.94"/>
<polygon fill="#63b8ff" stroke="#63b8ff" points="557.41,-45.42 566.94,-40.79 556.6,-38.46 557.41,-45.42"/>
</a>
</g>
</g>
<!-- Node16 -->
<g id="Node000016" class="node">
<title>Node16</title>
<g id="a_Node000016"><a xlink:href="../../de/d2f/class_path_manager.html#a467b459b77c73cbc7544551b53911fcd" target="_top" xlink:title=" ">
<polygon fill="white" stroke="#666666" points="918.5,-42 755.5,-42 755.5,-22 918.5,-22 918.5,-42"/>
<text xml:space="preserve" text-anchor="middle" x="837" y="-28.5" font-family="Helvetica,sans-Serif" font-size="10.00">PathManager::getExecutableRoot</text>
</a>
</g>
</g>
<!-- Node15&#45;&gt;Node16 -->
<g id="edge15_Node000015_Node000016" class="edge">
<title>Node15&#45;&gt;Node16</title>
<g id="a_edge15_Node000015_Node000016"><a xlink:title=" ">
<path fill="none" stroke="#63b8ff" d="M718.62,-32C726.86,-32 735.33,-32 743.76,-32"/>
<polygon fill="#63b8ff" stroke="#63b8ff" points="743.71,-35.5 753.71,-32 743.71,-28.5 743.71,-35.5"/>
</a>
</g>
</g>
<!-- Node17&#45;&gt;Node15 -->
<g id="edge17_Node000017_Node000015" class="edge">
<title>Node17&#45;&gt;Node15</title>
<g id="a_edge17_Node000017_Node000015"><a xlink:title=" ">
<path fill="none" stroke="#63b8ff" d="M529.38,-18.85C538.6,-19.92 548.05,-21.02 557.38,-22.1"/>
<polygon fill="#63b8ff" stroke="#63b8ff" points="556.84,-25.56 567.17,-23.24 557.64,-18.61 556.84,-25.56"/>
</a>
</g>
</g>
<!-- Node20&#45;&gt;Node20 -->
<g id="edge21_Node000020_Node000020" class="edge">
<title>Node20&#45;&gt;Node20</title>
<g id="a_edge21_Node000020_Node000020"><a xlink:title=" ">
<path fill="none" stroke="#63b8ff" d="M421.7,-246.34C408.69,-254.98 418.84,-264 452.12,-264 470.85,-264 482.25,-261.14 486.33,-257.11"/>
<polygon fill="#63b8ff" stroke="#63b8ff" points="489.66,-256.05 483.05,-247.77 483.06,-258.36 489.66,-256.05"/>
</a>
</g>
</g>
<!-- Node21&#45;&gt;Node13 -->
<g id="edge23_Node000021_Node000013" class="edge">
<title>Node21&#45;&gt;Node13</title>
<g id="a_edge23_Node000021_Node000013"><a xlink:title=" ">
<path fill="none" stroke="#63b8ff" d="M519.4,-184.31C531.25,-182.93 543.76,-181.48 556.07,-180.05"/>
<polygon fill="#63b8ff" stroke="#63b8ff" points="556.28,-183.55 565.81,-178.92 555.47,-176.6 556.28,-183.55"/>
</a>
</g>
</g>
</g>
</svg>
