<?xml version="1.0" encoding="UTF-8" standalone="no"?>
<!DOCTYPE svg PUBLIC "-//W3C//DTD SVG 1.1//EN"
 "http://www.w3.org/Graphics/SVG/1.1/DTD/svg11.dtd">
<!-- Generated by graphviz version 14.0.2 (20251019.1705)
 -->
<!-- Title: NetworkManager::sendMarkerMoveState Pages: 1 -->
<svg width="684pt" height="256pt"
 viewBox="0.00 0.00 684.00 256.00" xmlns="http://www.w3.org/2000/svg" xmlns:xlink="http://www.w3.org/1999/xlink">
<g id="graph0" class="graph" transform="scale(1 1) rotate(0) translate(4 252)">
<title>NetworkManager::sendMarkerMoveState</title>
<!-- Node1 -->
<g id="Node000001" class="node">
<title>Node1</title>
<g id="a_Node000001"><a xlink:title=" ">
<polygon fill="#999999" stroke="#666666" points="147.25,-165 0,-165 0,-133 147.25,-133 147.25,-165"/>
<text xml:space="preserve" text-anchor="start" x="8" y="-151.5" font-family="Helvetica,sans-Serif" font-size="10.00">NetworkManager::sendMarker</text>
<text xml:space="preserve" text-anchor="middle" x="73.62" y="-139.5" font-family="Helvetica,sans-Serif" font-size="10.00">MoveState</text>
</a>
</g>
</g>
<!-- Node2 -->
<g id="Node000002" class="node">
<title>Node2</title>
<g id="a_Node000002"><a xlink:href="../../da/d21/class_network_manager.html#aeb0d7937d1d825d09dc8c7b13e35a962" target="_top" xlink:title=" ">
<polygon fill="white" stroke="#666666" points="326,-222 187,-222 187,-190 326,-190 326,-222"/>
<text xml:space="preserve" text-anchor="start" x="195" y="-208.5" font-family="Helvetica,sans-Serif" font-size="10.00">NetworkManager::broadcast</text>
<text xml:space="preserve" text-anchor="middle" x="256.5" y="-196.5" font-family="Helvetica,sans-Serif" font-size="10.00">GameFrame</text>
</a>
</g>
</g>
<!-- Node1&#45;&gt;Node2 -->
<g id="edge1_Node000001_Node000002" class="edge">
<title>Node1&#45;&gt;Node2</title>
<g id="a_edge1_Node000001_Node000002"><a xlink:title=" ">
<path fill="none" stroke="#63b8ff" d="M126.94,-165.49C147.38,-171.93 170.99,-179.37 192.36,-186.1"/>
<polygon fill="#63b8ff" stroke="#63b8ff" points="191.27,-189.43 201.86,-189.1 193.37,-182.75 191.27,-189.43"/>
</a>
</g>
</g>
<!-- Node4 -->
<g id="Node000004" class="node">
<title>Node4</title>
<g id="a_Node000004"><a xlink:href="../../da/d21/class_network_manager.html#ae2eab0e91a7b37d26c273e4b0319a21c" target="_top" xlink:title=" ">
<polygon fill="white" stroke="#666666" points="329.75,-140 183.25,-140 183.25,-108 329.75,-108 329.75,-140"/>
<text xml:space="preserve" text-anchor="start" x="191.25" y="-126.5" font-family="Helvetica,sans-Serif" font-size="10.00">NetworkManager::buildMarker</text>
<text xml:space="preserve" text-anchor="middle" x="256.5" y="-114.5" font-family="Helvetica,sans-Serif" font-size="10.00">MoveStateFrame</text>
</a>
</g>
</g>
<!-- Node1&#45;&gt;Node4 -->
<g id="edge3_Node000001_Node000004" class="edge">
<title>Node1&#45;&gt;Node4</title>
<g id="a_edge3_Node000001_Node000004"><a xlink:title=" ">
<path fill="none" stroke="#63b8ff" d="M147.67,-138.9C155.54,-137.82 163.58,-136.7 171.56,-135.6"/>
<polygon fill="#63b8ff" stroke="#63b8ff" points="171.84,-139.1 181.27,-134.26 170.88,-132.16 171.84,-139.1"/>
</a>
</g>
</g>
<!-- Node3 -->
<g id="Node000003" class="node">
<title>Node3</title>
<g id="a_Node000003"><a xlink:href="../../da/d21/class_network_manager.html#a8f97d83ec35ea68c1e37d6837c1c8b4c" target="_top" xlink:title=" ">
<polygon fill="white" stroke="#666666" points="519.75,-248 365.75,-248 365.75,-228 519.75,-228 519.75,-248"/>
<text xml:space="preserve" text-anchor="middle" x="442.75" y="-234.5" font-family="Helvetica,sans-Serif" font-size="10.00">NetworkManager::sendGameTo</text>
</a>
</g>
</g>
<!-- Node2&#45;&gt;Node3 -->
<g id="edge2_Node000002_Node000003" class="edge">
<title>Node2&#45;&gt;Node3</title>
<g id="a_edge2_Node000002_Node000003"><a xlink:title=" ">
<path fill="none" stroke="#63b8ff" d="M326.37,-217.96C340.79,-220.47 356.02,-223.11 370.52,-225.63"/>
<polygon fill="#63b8ff" stroke="#63b8ff" points="369.5,-229 379.95,-227.27 370.69,-222.11 369.5,-229"/>
</a>
</g>
</g>
<!-- Node5 -->
<g id="Node000005" class="node">
<title>Node5</title>
<g id="a_Node000005"><a xlink:href="../../da/d21/class_network_manager.html#a1ca85e76187f45d46596a1d04d713f0f" target="_top" xlink:title=" ">
<polygon fill="white" stroke="#666666" points="506.62,-210 378.88,-210 378.88,-190 506.62,-190 506.62,-210"/>
<text xml:space="preserve" text-anchor="middle" x="442.75" y="-196.5" font-family="Helvetica,sans-Serif" font-size="10.00">NetworkManager::nowMs</text>
</a>
</g>
</g>
<!-- Node4&#45;&gt;Node5 -->
<g id="edge4_Node000004_Node000005" class="edge">
<title>Node4&#45;&gt;Node5</title>
<g id="a_edge4_Node000004_Node000005"><a xlink:title=" ">
<path fill="none" stroke="#63b8ff" d="M284.24,-140.4C305.65,-152.95 336.78,-169.94 365.75,-181 370.8,-182.93 376.12,-184.72 381.5,-186.36"/>
<polygon fill="#63b8ff" stroke="#63b8ff" points="380.53,-189.73 391.11,-189.12 382.46,-183 380.53,-189.73"/>
</a>
</g>
</g>
<!-- Node6 -->
<g id="Node000006" class="node">
<title>Node6</title>
<g id="a_Node000006"><a xlink:href="../../d0/dc2/class_serializer.html#ac0767e8086f1a9879ba76d1576b7e558" target="_top" xlink:title=" ">
<polygon fill="white" stroke="#666666" points="507.75,-172 377.75,-172 377.75,-152 507.75,-152 507.75,-172"/>
<text xml:space="preserve" text-anchor="middle" x="442.75" y="-158.5" font-family="Helvetica,sans-Serif" font-size="10.00">Serializer::serializeMoving</text>
</a>
</g>
</g>
<!-- Node4&#45;&gt;Node6 -->
<g id="edge5_Node000004_Node000006" class="edge">
<title>Node4&#45;&gt;Node6</title>
<g id="a_edge5_Node000004_Node000006"><a xlink:title=" ">
<path fill="none" stroke="#63b8ff" d="M330.06,-138.96C346.58,-142.37 363.99,-145.96 380.02,-149.27"/>
<polygon fill="#63b8ff" stroke="#63b8ff" points="378.88,-152.61 389.38,-151.2 380.3,-145.75 378.88,-152.61"/>
</a>
</g>
</g>
<!-- Node8 -->
<g id="Node000008" class="node">
<title>Node8</title>
<g id="a_Node000008"><a xlink:href="../../d0/dc2/class_serializer.html#a9552a2e71fe480af903507fb148c8964" target="_top" xlink:title=" ">
<polygon fill="white" stroke="#666666" points="509.62,-134 375.88,-134 375.88,-114 509.62,-114 509.62,-134"/>
<text xml:space="preserve" text-anchor="middle" x="442.75" y="-120.5" font-family="Helvetica,sans-Serif" font-size="10.00">Serializer::serializePosition</text>
</a>
</g>
</g>
<!-- Node4&#45;&gt;Node8 -->
<g id="edge7_Node000004_Node000008" class="edge">
<title>Node4&#45;&gt;Node8</title>
<g id="a_edge7_Node000004_Node000008"><a xlink:title=" ">
<path fill="none" stroke="#63b8ff" d="M330.06,-124C341.31,-124 352.97,-124 364.33,-124"/>
<polygon fill="#63b8ff" stroke="#63b8ff" points="364.04,-127.5 374.04,-124 364.04,-120.5 364.04,-127.5"/>
</a>
</g>
</g>
<!-- Node10 -->
<g id="Node000010" class="node">
<title>Node10</title>
<g id="a_Node000010"><a xlink:href="../../d0/dc2/class_serializer.html#ac0cbc3ff6cc924221db1eebb6bb6b33b" target="_top" xlink:title=" ">
<polygon fill="white" stroke="#666666" points="506.62,-96 378.88,-96 378.88,-76 506.62,-76 506.62,-96"/>
<text xml:space="preserve" text-anchor="middle" x="442.75" y="-82.5" font-family="Helvetica,sans-Serif" font-size="10.00">Serializer::serializeUInt32</text>
</a>
</g>
</g>
<!-- Node4&#45;&gt;Node10 -->
<g id="edge9_Node000004_Node000010" class="edge">
<title>Node4&#45;&gt;Node10</title>
<g id="a_edge9_Node000004_Node000010"><a xlink:title=" ">
<path fill="none" stroke="#63b8ff" d="M330.06,-109.04C346.58,-105.63 363.99,-102.04 380.02,-98.73"/>
<polygon fill="#63b8ff" stroke="#63b8ff" points="380.3,-102.25 389.38,-96.8 378.88,-95.39 380.3,-102.25"/>
</a>
</g>
</g>
<!-- Node11 -->
<g id="Node000011" class="node">
<title>Node11</title>
<g id="a_Node000011"><a xlink:href="../../d0/dc2/class_serializer.html#a60889622ee4e36ea28a284e99bbdf4e5" target="_top" xlink:title=" ">
<polygon fill="white" stroke="#666666" points="506.62,-58 378.88,-58 378.88,-38 506.62,-38 506.62,-58"/>
<text xml:space="preserve" text-anchor="middle" x="442.75" y="-44.5" font-family="Helvetica,sans-Serif" font-size="10.00">Serializer::serializeUInt64</text>
</a>
</g>
</g>
<!-- Node4&#45;&gt;Node11 -->
<g id="edge10_Node000004_Node000011" class="edge">
<title>Node4&#45;&gt;Node11</title>
<g id="a_edge10_Node000004_Node000011"><a xlink:title=" ">
<path fill="none" stroke="#63b8ff" d="M284.24,-107.6C305.65,-95.05 336.78,-78.06 365.75,-67 370.8,-65.07 376.12,-63.28 381.5,-61.64"/>
<polygon fill="#63b8ff" stroke="#63b8ff" points="382.46,-65 391.11,-58.88 380.53,-58.27 382.46,-65"/>
</a>
</g>
</g>
<!-- Node12 -->
<g id="Node000012" class="node">
<title>Node12</title>
<g id="a_Node000012"><a xlink:href="../../d0/dc2/class_serializer.html#a3c3d58eaacc5f3c6f19cfde75424e9cc" target="_top" xlink:title=" ">
<polygon fill="white" stroke="#666666" points="504,-20 381.5,-20 381.5,0 504,0 504,-20"/>
<text xml:space="preserve" text-anchor="middle" x="442.75" y="-6.5" font-family="Helvetica,sans-Serif" font-size="10.00">Serializer::serializeUInt8</text>
</a>
</g>
</g>
<!-- Node4&#45;&gt;Node12 -->
<g id="edge11_Node000004_Node000012" class="edge">
<title>Node4&#45;&gt;Node12</title>
<g id="a_edge11_Node000004_Node000012"><a xlink:title=" ">
<path fill="none" stroke="#63b8ff" d="M271.51,-107.59C290.64,-86.25 326.99,-49.31 365.75,-29 369,-27.3 372.41,-25.74 375.92,-24.32"/>
<polygon fill="#63b8ff" stroke="#63b8ff" points="376.98,-27.66 385.2,-20.97 374.6,-21.07 376.98,-27.66"/>
</a>
</g>
</g>
<!-- Node7 -->
<g id="Node000007" class="node">
<title>Node7</title>
<g id="a_Node000007"><a xlink:href="../../d0/dc2/class_serializer.html#a2a407c3a379b680296ee190ed625f05f" target="_top" xlink:title=" ">
<polygon fill="white" stroke="#666666" points="674.88,-172 556.88,-172 556.88,-152 674.88,-152 674.88,-172"/>
<text xml:space="preserve" text-anchor="middle" x="615.88" y="-158.5" font-family="Helvetica,sans-Serif" font-size="10.00">Serializer::serializeBool</text>
</a>
</g>
</g>
<!-- Node6&#45;&gt;Node7 -->
<g id="edge6_Node000006_Node000007" class="edge">
<title>Node6&#45;&gt;Node7</title>
<g id="a_edge6_Node000006_Node000007"><a xlink:title=" ">
<path fill="none" stroke="#63b8ff" d="M507.96,-162C520.16,-162 532.97,-162 545.33,-162"/>
<polygon fill="#63b8ff" stroke="#63b8ff" points="545,-165.5 555,-162 545,-158.5 545,-165.5"/>
</a>
</g>
</g>
<!-- Node9 -->
<g id="Node000009" class="node">
<title>Node9</title>
<g id="a_Node000009"><a xlink:href="../../d0/dc2/class_serializer.html#a92ffe65857abd6eea6a393056a9bb533" target="_top" xlink:title=" ">
<polygon fill="white" stroke="#666666" points="676,-134 555.75,-134 555.75,-114 676,-114 676,-134"/>
<text xml:space="preserve" text-anchor="middle" x="615.88" y="-120.5" font-family="Helvetica,sans-Serif" font-size="10.00">Serializer::serializeFloat</text>
</a>
</g>
</g>
<!-- Node8&#45;&gt;Node9 -->
<g id="edge8_Node000008_Node000009" class="edge">
<title>Node8&#45;&gt;Node9</title>
<g id="a_edge8_Node000008_Node000009"><a xlink:title=" ">
<path fill="none" stroke="#63b8ff" d="M509.91,-124C521.13,-124 532.81,-124 544.14,-124"/>
<polygon fill="#63b8ff" stroke="#63b8ff" points="543.8,-127.5 553.8,-124 543.8,-120.5 543.8,-127.5"/>
</a>
</g>
</g>
</g>
</svg>
