<?xml version="1.0" encoding="UTF-8" standalone="no"?>
<!DOCTYPE svg PUBLIC "-//W3C//DTD SVG 1.1//EN"
 "http://www.w3.org/Graphics/SVG/1.1/DTD/svg11.dtd">
<!-- Generated by graphviz version 14.0.2 (20251019.1705)
 -->
<!-- Title: NetworkManager::buildFogUpdateFrame Pages: 1 -->
<svg width="469pt" height="180pt"
 viewBox="0.00 0.00 469.00 180.00" xmlns="http://www.w3.org/2000/svg" xmlns:xlink="http://www.w3.org/1999/xlink">
<g id="graph0" class="graph" transform="scale(1 1) rotate(0) translate(4 176)">
<title>NetworkManager::buildFogUpdateFrame</title>
<!-- Node1 -->
<g id="Node000001" class="node">
<title>Node1</title>
<g id="a_Node000001"><a xlink:title=" ">
<polygon fill="#999999" stroke="#666666" points="133,-102 0,-102 0,-70 133,-70 133,-102"/>
<text xml:space="preserve" text-anchor="start" x="8" y="-88.5" font-family="Helvetica,sans-Serif" font-size="10.00">NetworkManager::buildFog</text>
<text xml:space="preserve" text-anchor="middle" x="66.5" y="-76.5" font-family="Helvetica,sans-Serif" font-size="10.00">UpdateFrame</text>
</a>
</g>
</g>
<!-- Node2 -->
<g id="Node000002" class="node">
<title>Node2</title>
<g id="a_Node000002"><a xlink:href="../../d0/dc2/class_serializer.html#a9552a2e71fe480af903507fb148c8964" target="_top" xlink:title=" ">
<polygon fill="white" stroke="#666666" points="303.5,-172 169.75,-172 169.75,-152 303.5,-152 303.5,-172"/>
<text xml:space="preserve" text-anchor="middle" x="236.62" y="-158.5" font-family="Helvetica,sans-Serif" font-size="10.00">Serializer::serializePosition</text>
</a>
</g>
</g>
<!-- Node1&#45;&gt;Node2 -->
<g id="edge1_Node000001_Node000002" class="edge">
<title>Node1&#45;&gt;Node2</title>
<g id="a_edge1_Node000001_Node000002"><a xlink:title=" ">
<path fill="none" stroke="#63b8ff" d="M92.94,-102.5C112.98,-114.94 141.95,-131.73 169,-143 173.31,-144.8 177.84,-146.48 182.44,-148.05"/>
<polygon fill="#63b8ff" stroke="#63b8ff" points="181.14,-151.32 191.73,-151.04 183.28,-144.65 181.14,-151.32"/>
</a>
</g>
</g>
<!-- Node4 -->
<g id="Node000004" class="node">
<title>Node4</title>
<g id="a_Node000004"><a xlink:href="../../d0/dc2/class_serializer.html#a6be006b0cf99a37c2146723395013b76" target="_top" xlink:title=" ">
<polygon fill="white" stroke="#666666" points="295.62,-134 177.62,-134 177.62,-114 295.62,-114 295.62,-134"/>
<text xml:space="preserve" text-anchor="middle" x="236.62" y="-120.5" font-family="Helvetica,sans-Serif" font-size="10.00">Serializer::serializeSize</text>
</a>
</g>
</g>
<!-- Node1&#45;&gt;Node4 -->
<g id="edge3_Node000001_Node000004" class="edge">
<title>Node1&#45;&gt;Node4</title>
<g id="a_edge3_Node000001_Node000004"><a xlink:title=" ">
<path fill="none" stroke="#63b8ff" d="M133.46,-100.91C148.35,-104.27 164.02,-107.82 178.51,-111.09"/>
<polygon fill="#63b8ff" stroke="#63b8ff" points="177.31,-114.41 187.84,-113.2 178.86,-107.58 177.31,-114.41"/>
</a>
</g>
</g>
<!-- Node5 -->
<g id="Node000005" class="node">
<title>Node5</title>
<g id="a_Node000005"><a xlink:href="../../d0/dc2/class_serializer.html#a60889622ee4e36ea28a284e99bbdf4e5" target="_top" xlink:title=" ">
<polygon fill="white" stroke="#666666" points="300.5,-96 172.75,-96 172.75,-76 300.5,-76 300.5,-96"/>
<text xml:space="preserve" text-anchor="middle" x="236.62" y="-82.5" font-family="Helvetica,sans-Serif" font-size="10.00">Serializer::serializeUInt64</text>
</a>
</g>
</g>
<!-- Node1&#45;&gt;Node5 -->
<g id="edge5_Node000001_Node000005" class="edge">
<title>Node1&#45;&gt;Node5</title>
<g id="a_edge5_Node000001_Node000005"><a xlink:title=" ">
<path fill="none" stroke="#63b8ff" d="M133.46,-86C142.46,-86 151.74,-86 160.87,-86"/>
<polygon fill="#63b8ff" stroke="#63b8ff" points="160.81,-89.5 170.81,-86 160.81,-82.5 160.81,-89.5"/>
</a>
</g>
</g>
<!-- Node6 -->
<g id="Node000006" class="node">
<title>Node6</title>
<g id="a_Node000006"><a xlink:href="../../d0/dc2/class_serializer.html#a3c3d58eaacc5f3c6f19cfde75424e9cc" target="_top" xlink:title=" ">
<polygon fill="white" stroke="#666666" points="297.88,-58 175.38,-58 175.38,-38 297.88,-38 297.88,-58"/>
<text xml:space="preserve" text-anchor="middle" x="236.62" y="-44.5" font-family="Helvetica,sans-Serif" font-size="10.00">Serializer::serializeUInt8</text>
</a>
</g>
</g>
<!-- Node1&#45;&gt;Node6 -->
<g id="edge6_Node000001_Node000006" class="edge">
<title>Node1&#45;&gt;Node6</title>
<g id="a_edge6_Node000001_Node000006"><a xlink:title=" ">
<path fill="none" stroke="#63b8ff" d="M133.46,-71.09C148.35,-67.73 164.02,-64.18 178.51,-60.91"/>
<polygon fill="#63b8ff" stroke="#63b8ff" points="178.86,-64.42 187.84,-58.8 177.31,-57.59 178.86,-64.42"/>
</a>
</g>
</g>
<!-- Node7 -->
<g id="Node000007" class="node">
<title>Node7</title>
<g id="a_Node000007"><a xlink:href="../../d0/dc2/class_serializer.html#adf940baab7d143611e19fb957725a80a" target="_top" xlink:title=" ">
<polygon fill="white" stroke="#666666" points="304.25,-20 169,-20 169,0 304.25,0 304.25,-20"/>
<text xml:space="preserve" text-anchor="middle" x="236.62" y="-6.5" font-family="Helvetica,sans-Serif" font-size="10.00">Serializer::serializeVisibility</text>
</a>
</g>
</g>
<!-- Node1&#45;&gt;Node7 -->
<g id="edge7_Node000001_Node000007" class="edge">
<title>Node1&#45;&gt;Node7</title>
<g id="a_edge7_Node000001_Node000007"><a xlink:title=" ">
<path fill="none" stroke="#63b8ff" d="M92.94,-69.5C112.98,-57.06 141.95,-40.27 169,-29 173.31,-27.2 177.84,-25.52 182.44,-23.95"/>
<polygon fill="#63b8ff" stroke="#63b8ff" points="183.28,-27.35 191.73,-20.96 181.14,-20.68 183.28,-27.35"/>
</a>
</g>
</g>
<!-- Node3 -->
<g id="Node000003" class="node">
<title>Node3</title>
<g id="a_Node000003"><a xlink:href="../../d0/dc2/class_serializer.html#a92ffe65857abd6eea6a393056a9bb533" target="_top" xlink:title=" ">
<polygon fill="white" stroke="#666666" points="460.5,-153 340.25,-153 340.25,-133 460.5,-133 460.5,-153"/>
<text xml:space="preserve" text-anchor="middle" x="400.38" y="-139.5" font-family="Helvetica,sans-Serif" font-size="10.00">Serializer::serializeFloat</text>
</a>
</g>
</g>
<!-- Node2&#45;&gt;Node3 -->
<g id="edge2_Node000002_Node000003" class="edge">
<title>Node2&#45;&gt;Node3</title>
<g id="a_edge2_Node000002_Node000003"><a xlink:title=" ">
<path fill="none" stroke="#63b8ff" d="M303.88,-154.22C312.1,-153.25 320.52,-152.26 328.8,-151.29"/>
<polygon fill="#63b8ff" stroke="#63b8ff" points="328.94,-154.8 338.47,-150.15 328.13,-147.85 328.94,-154.8"/>
</a>
</g>
</g>
<!-- Node4&#45;&gt;Node3 -->
<g id="edge4_Node000004_Node000003" class="edge">
<title>Node4&#45;&gt;Node3</title>
<g id="a_edge4_Node000004_Node000003"><a xlink:title=" ">
<path fill="none" stroke="#63b8ff" d="M296.02,-130.86C306.63,-132.11 317.8,-133.42 328.72,-134.7"/>
<polygon fill="#63b8ff" stroke="#63b8ff" points="328.13,-138.16 338.47,-135.85 328.95,-131.2 328.13,-138.16"/>
</a>
</g>
</g>
<!-- Node8 -->
<g id="Node000008" class="node">
<title>Node8</title>
<g id="a_Node000008"><a xlink:href="../../d0/dc2/class_serializer.html#a2a407c3a379b680296ee190ed625f05f" target="_top" xlink:title=" ">
<polygon fill="white" stroke="#666666" points="459.38,-20 341.38,-20 341.38,0 459.38,0 459.38,-20"/>
<text xml:space="preserve" text-anchor="middle" x="400.38" y="-6.5" font-family="Helvetica,sans-Serif" font-size="10.00">Serializer::serializeBool</text>
</a>
</g>
</g>
<!-- Node7&#45;&gt;Node8 -->
<g id="edge8_Node000007_Node000008" class="edge">
<title>Node7&#45;&gt;Node8</title>
<g id="a_edge8_Node000007_Node000008"><a xlink:title=" ">
<path fill="none" stroke="#63b8ff" d="M304.35,-10C312.72,-10 321.31,-10 329.73,-10"/>
<polygon fill="#63b8ff" stroke="#63b8ff" points="329.56,-13.5 339.56,-10 329.56,-6.5 329.56,-13.5"/>
</a>
</g>
</g>
</g>
</svg>
