<?xml version="1.0" encoding="UTF-8" standalone="no"?>
<!DOCTYPE svg PUBLIC "-//W3C//DTD SVG 1.1//EN"
 "http://www.w3.org/Graphics/SVG/1.1/DTD/svg11.dtd">
<!-- Generated by graphviz version 14.0.2 (20251019.1705)
 -->
<!-- Title: NetworkManager::pushStatusToast Pages: 1 -->
<svg width="518pt" height="166pt"
 viewBox="0.00 0.00 518.00 166.00" xmlns="http://www.w3.org/2000/svg" xmlns:xlink="http://www.w3.org/1999/xlink">
<g id="graph0" class="graph" transform="scale(1 1) rotate(0) translate(4 162)">
<title>NetworkManager::pushStatusToast</title>
<!-- Node1 -->
<g id="Node000001" class="node">
<title>Node1</title>
<g id="a_Node000001"><a xlink:title=" ">
<polygon fill="#999999" stroke="#666666" points="510,-86 364.25,-86 364.25,-54 510,-54 510,-86"/>
<text xml:space="preserve" text-anchor="start" x="372.25" y="-72.5" font-family="Helvetica,sans-Serif" font-size="10.00">NetworkManager::pushStatus</text>
<text xml:space="preserve" text-anchor="middle" x="437.12" y="-60.5" font-family="Helvetica,sans-Serif" font-size="10.00">Toast</text>
</a>
</g>
</g>
<!-- Node2 -->
<g id="Node000002" class="node">
<title>Node2</title>
<g id="a_Node000002"><a xlink:href="../../da/d21/class_network_manager.html#a1fbba41c0e7e761f7b03905b673b564e" target="_top" xlink:title=" ">
<polygon fill="white" stroke="#666666" points="323.38,-158 185.12,-158 185.12,-126 323.38,-126 323.38,-158"/>
<text xml:space="preserve" text-anchor="start" x="193.12" y="-144.5" font-family="Helvetica,sans-Serif" font-size="10.00">NetworkManager::disconect</text>
<text xml:space="preserve" text-anchor="middle" x="254.25" y="-132.5" font-family="Helvetica,sans-Serif" font-size="10.00">FromPeers</text>
</a>
</g>
</g>
<!-- Node1&#45;&gt;Node2 -->
<g id="edge1_Node000001_Node000002" class="edge">
<title>Node1&#45;&gt;Node2</title>
<g id="a_edge1_Node000001_Node000002"><a xlink:title=" ">
<path fill="none" stroke="#63b8ff" d="M390.01,-91.07C371.02,-99.49 348.72,-109.05 328.25,-117 320.76,-119.91 312.77,-122.83 304.92,-125.59"/>
<polygon fill="#63b8ff" stroke="#63b8ff" points="391.38,-94.29 399.09,-87.02 388.53,-87.9 391.38,-94.29"/>
</a>
</g>
</g>
<!-- Node3 -->
<g id="Node000003" class="node">
<title>Node3</title>
<g id="a_Node000003"><a xlink:href="../../da/d21/class_network_manager.html#a0f041b3910739653ed212ae04eda7729" target="_top" xlink:title=" ">
<polygon fill="white" stroke="#666666" points="326,-108 182.5,-108 182.5,-76 326,-76 326,-108"/>
<text xml:space="preserve" text-anchor="start" x="190.5" y="-94.5" font-family="Helvetica,sans-Serif" font-size="10.00">NetworkManager::disconnect</text>
<text xml:space="preserve" text-anchor="middle" x="254.25" y="-82.5" font-family="Helvetica,sans-Serif" font-size="10.00">AllPeers</text>
</a>
</g>
</g>
<!-- Node1&#45;&gt;Node3 -->
<g id="edge2_Node000001_Node000003" class="edge">
<title>Node1&#45;&gt;Node3</title>
<g id="a_edge2_Node000001_Node000003"><a xlink:title=" ">
<path fill="none" stroke="#63b8ff" d="M352.72,-80.15C343.86,-81.22 334.92,-82.31 326.22,-83.37"/>
<polygon fill="#63b8ff" stroke="#63b8ff" points="352.85,-83.65 362.36,-78.97 352.01,-76.71 352.85,-83.65"/>
</a>
</g>
</g>
<!-- Node5 -->
<g id="Node000005" class="node">
<title>Node5</title>
<g id="a_Node000005"><a xlink:href="../../da/d21/class_network_manager.html#a9211bd133aed2e5ec776b4d4308b30c4" target="_top" xlink:title=" ">
<polygon fill="white" stroke="#666666" points="328.25,-58 180.25,-58 180.25,-38 328.25,-38 328.25,-58"/>
<text xml:space="preserve" text-anchor="middle" x="254.25" y="-44.5" font-family="Helvetica,sans-Serif" font-size="10.00">NetworkManager::drainEvents</text>
</a>
</g>
</g>
<!-- Node1&#45;&gt;Node5 -->
<g id="edge4_Node000001_Node000005" class="edge">
<title>Node1&#45;&gt;Node5</title>
<g id="a_edge4_Node000001_Node000005"><a xlink:title=" ">
<path fill="none" stroke="#63b8ff" d="M352.6,-59.84C344.58,-58.87 336.49,-57.88 328.58,-56.92"/>
<polygon fill="#63b8ff" stroke="#63b8ff" points="352.01,-63.29 362.36,-61.03 352.85,-56.35 352.01,-63.29"/>
</a>
</g>
</g>
<!-- Node6 -->
<g id="Node000006" class="node">
<title>Node6</title>
<g id="a_Node000006"><a xlink:href="../../da/d21/class_network_manager.html#a183ff98131c32d577308340999b4de18" target="_top" xlink:title=" ">
<polygon fill="white" stroke="#666666" points="326.38,-20 182.12,-20 182.12,0 326.38,0 326.38,-20"/>
<text xml:space="preserve" text-anchor="middle" x="254.25" y="-6.5" font-family="Helvetica,sans-Serif" font-size="10.00">NetworkManager::startServer</text>
</a>
</g>
</g>
<!-- Node1&#45;&gt;Node6 -->
<g id="edge5_Node000001_Node000006" class="edge">
<title>Node1&#45;&gt;Node6</title>
<g id="a_edge5_Node000001_Node000006"><a xlink:title=" ">
<path fill="none" stroke="#63b8ff" d="M385.5,-49.46C367.56,-42.53 347.15,-35.03 328.25,-29 318.77,-25.97 308.48,-23.07 298.71,-20.48"/>
<polygon fill="#63b8ff" stroke="#63b8ff" points="384.03,-52.64 394.61,-53.02 386.57,-46.12 384.03,-52.64"/>
</a>
</g>
</g>
<!-- Node4 -->
<g id="Node000004" class="node">
<title>Node4</title>
<g id="a_Node000004"><a xlink:href="../../da/d21/class_network_manager.html#a2cfe4223139cf58587a9f066b956cb23" target="_top" xlink:title=" ">
<polygon fill="white" stroke="#666666" points="141.62,-108 2.62,-108 2.62,-76 141.62,-76 141.62,-108"/>
<text xml:space="preserve" text-anchor="start" x="10.62" y="-94.5" font-family="Helvetica,sans-Serif" font-size="10.00">NetworkManager::~Network</text>
<text xml:space="preserve" text-anchor="middle" x="72.12" y="-82.5" font-family="Helvetica,sans-Serif" font-size="10.00">Manager</text>
</a>
</g>
</g>
<!-- Node3&#45;&gt;Node4 -->
<g id="edge3_Node000003_Node000004" class="edge">
<title>Node3&#45;&gt;Node4</title>
<g id="a_edge3_Node000003_Node000004"><a xlink:title=" ">
<path fill="none" stroke="#63b8ff" d="M170.83,-92C161.2,-92 151.45,-92 142.03,-92"/>
<polygon fill="#63b8ff" stroke="#63b8ff" points="170.55,-95.5 180.55,-92 170.55,-88.5 170.55,-95.5"/>
</a>
</g>
</g>
<!-- Node7 -->
<g id="Node000007" class="node">
<title>Node7</title>
<g id="a_Node000007"><a xlink:href="../../da/d21/class_network_manager.html#adef56253674bd7ebd40bf73c629feed2" target="_top" xlink:title=" ">
<polygon fill="white" stroke="#666666" points="144.25,-20 0,-20 0,0 144.25,0 144.25,-20"/>
<text xml:space="preserve" text-anchor="middle" x="72.12" y="-6.5" font-family="Helvetica,sans-Serif" font-size="10.00">NetworkManager::startServer</text>
</a>
</g>
</g>
<!-- Node6&#45;&gt;Node7 -->
<g id="edge6_Node000006_Node000007" class="edge">
<title>Node6&#45;&gt;Node7</title>
<g id="a_edge6_Node000006_Node000007"><a xlink:title=" ">
<path fill="none" stroke="#63b8ff" d="M170.47,-10C161.79,-10 153.02,-10 144.49,-10"/>
<polygon fill="#63b8ff" stroke="#63b8ff" points="170.29,-13.5 180.29,-10 170.29,-6.5 170.29,-13.5"/>
</a>
</g>
</g>
</g>
</svg>
