<?xml version="1.0" encoding="UTF-8" standalone="no"?>
<!DOCTYPE svg PUBLIC "-//W3C//DTD SVG 1.1//EN"
 "http://www.w3.org/Graphics/SVG/1.1/DTD/svg11.dtd">
<!-- Generated by graphviz version 14.0.2 (20251019.1705)
 -->
<!-- Title: NetworkManager::broadcastFogDelete Pages: 1 -->
<svg width="710pt" height="135pt"
 viewBox="0.00 0.00 710.00 135.00" xmlns="http://www.w3.org/2000/svg" xmlns:xlink="http://www.w3.org/1999/xlink">
<g id="graph0" class="graph" transform="scale(1 1) rotate(0) translate(4 131)">
<title>NetworkManager::broadcastFogDelete</title>
<!-- Node1 -->
<g id="Node000001" class="node">
<title>Node1</title>
<g id="a_Node000001"><a xlink:title=" ">
<polygon fill="#999999" stroke="#666666" points="139,-105 0,-105 0,-73 139,-73 139,-105"/>
<text xml:space="preserve" text-anchor="start" x="8" y="-91.5" font-family="Helvetica,sans-Serif" font-size="10.00">NetworkManager::broadcast</text>
<text xml:space="preserve" text-anchor="middle" x="69.5" y="-79.5" font-family="Helvetica,sans-Serif" font-size="10.00">FogDelete</text>
</a>
</g>
</g>
<!-- Node2 -->
<g id="Node000002" class="node">
<title>Node2</title>
<g id="a_Node000002"><a xlink:href="../../da/d21/class_network_manager.html#a2127afec206b45126dff36ca21ffde3d" target="_top" xlink:title=" ">
<polygon fill="white" stroke="#666666" points="334.62,-127 177.62,-127 177.62,-95 334.62,-95 334.62,-127"/>
<text xml:space="preserve" text-anchor="start" x="185.62" y="-113.5" font-family="Helvetica,sans-Serif" font-size="10.00">NetworkManager::getConnected</text>
<text xml:space="preserve" text-anchor="middle" x="256.12" y="-101.5" font-family="Helvetica,sans-Serif" font-size="10.00">PeerIds</text>
</a>
</g>
</g>
<!-- Node1&#45;&gt;Node2 -->
<g id="edge1_Node000001_Node000002" class="edge">
<title>Node1&#45;&gt;Node2</title>
<g id="a_edge1_Node000001_Node000002"><a xlink:title=" ">
<path fill="none" stroke="#63b8ff" d="M139.25,-97.19C147.97,-98.23 156.99,-99.31 165.98,-100.38"/>
<polygon fill="#63b8ff" stroke="#63b8ff" points="165.46,-103.84 175.81,-101.55 166.29,-96.89 165.46,-103.84"/>
</a>
</g>
</g>
<!-- Node3 -->
<g id="Node000003" class="node">
<title>Node3</title>
<g id="a_Node000003"><a xlink:href="../../da/d21/class_network_manager.html#aad1e7e0b1f9199df8863180b8e52f962" target="_top" xlink:title=" ">
<polygon fill="white" stroke="#666666" points="337.25,-77 175,-77 175,-57 337.25,-57 337.25,-77"/>
<text xml:space="preserve" text-anchor="middle" x="256.12" y="-63.5" font-family="Helvetica,sans-Serif" font-size="10.00">NetworkManager::sendFogDelete</text>
</a>
</g>
</g>
<!-- Node1&#45;&gt;Node3 -->
<g id="edge2_Node000001_Node000003" class="edge">
<title>Node1&#45;&gt;Node3</title>
<g id="a_edge2_Node000001_Node000003"><a xlink:title=" ">
<path fill="none" stroke="#63b8ff" d="M139.25,-80.81C147.21,-79.86 155.43,-78.88 163.63,-77.9"/>
<polygon fill="#63b8ff" stroke="#63b8ff" points="163.78,-81.41 173.29,-76.75 162.95,-74.46 163.78,-81.41"/>
</a>
</g>
</g>
<!-- Node4 -->
<g id="Node000004" class="node">
<title>Node4</title>
<g id="a_Node000004"><a xlink:href="../../da/d21/class_network_manager.html#aeb0d7937d1d825d09dc8c7b13e35a962" target="_top" xlink:title=" ">
<polygon fill="white" stroke="#666666" points="512.25,-108 373.25,-108 373.25,-76 512.25,-76 512.25,-108"/>
<text xml:space="preserve" text-anchor="start" x="381.25" y="-94.5" font-family="Helvetica,sans-Serif" font-size="10.00">NetworkManager::broadcast</text>
<text xml:space="preserve" text-anchor="middle" x="442.75" y="-82.5" font-family="Helvetica,sans-Serif" font-size="10.00">GameFrame</text>
</a>
</g>
</g>
<!-- Node3&#45;&gt;Node4 -->
<g id="edge3_Node000003_Node000004" class="edge">
<title>Node3&#45;&gt;Node4</title>
<g id="a_edge3_Node000003_Node000004"><a xlink:title=" ">
<path fill="none" stroke="#63b8ff" d="M334.62,-77.49C343.57,-78.71 352.71,-79.94 361.7,-81.16"/>
<polygon fill="#63b8ff" stroke="#63b8ff" points="361.09,-84.61 371.47,-82.48 362.03,-77.67 361.09,-84.61"/>
</a>
</g>
</g>
<!-- Node6 -->
<g id="Node000006" class="node">
<title>Node6</title>
<g id="a_Node000006"><a xlink:href="../../da/d21/class_network_manager.html#ae092d67d435d2d9db776324c2c9f58b8" target="_top" xlink:title=" ">
<polygon fill="white" stroke="#666666" points="509.25,-58 376.25,-58 376.25,-26 509.25,-26 509.25,-58"/>
<text xml:space="preserve" text-anchor="start" x="384.25" y="-44.5" font-family="Helvetica,sans-Serif" font-size="10.00">NetworkManager::buildFog</text>
<text xml:space="preserve" text-anchor="middle" x="442.75" y="-32.5" font-family="Helvetica,sans-Serif" font-size="10.00">DeleteFrame</text>
</a>
</g>
</g>
<!-- Node3&#45;&gt;Node6 -->
<g id="edge5_Node000003_Node000006" class="edge">
<title>Node3&#45;&gt;Node6</title>
<g id="a_edge5_Node000003_Node000006"><a xlink:title=" ">
<path fill="none" stroke="#63b8ff" d="M334.62,-56.51C344.59,-55.16 354.79,-53.78 364.75,-52.43"/>
<polygon fill="#63b8ff" stroke="#63b8ff" points="364.92,-55.94 374.36,-51.13 363.98,-49 364.92,-55.94"/>
</a>
</g>
</g>
<!-- Node5 -->
<g id="Node000005" class="node">
<title>Node5</title>
<g id="a_Node000005"><a xlink:href="../../da/d21/class_network_manager.html#a8f97d83ec35ea68c1e37d6837c1c8b4c" target="_top" xlink:title=" ">
<polygon fill="white" stroke="#666666" points="702.25,-102 548.25,-102 548.25,-82 702.25,-82 702.25,-102"/>
<text xml:space="preserve" text-anchor="middle" x="625.25" y="-88.5" font-family="Helvetica,sans-Serif" font-size="10.00">NetworkManager::sendGameTo</text>
</a>
</g>
</g>
<!-- Node4&#45;&gt;Node5 -->
<g id="edge4_Node000004_Node000005" class="edge">
<title>Node4&#45;&gt;Node5</title>
<g id="a_edge4_Node000004_Node000005"><a xlink:title=" ">
<path fill="none" stroke="#63b8ff" d="M512.5,-92C520.36,-92 528.44,-92 536.5,-92"/>
<polygon fill="#63b8ff" stroke="#63b8ff" points="536.34,-95.5 546.34,-92 536.34,-88.5 536.34,-95.5"/>
</a>
</g>
</g>
<!-- Node7 -->
<g id="Node000007" class="node">
<title>Node7</title>
<g id="a_Node000007"><a xlink:href="../../d0/dc2/class_serializer.html#a60889622ee4e36ea28a284e99bbdf4e5" target="_top" xlink:title=" ">
<polygon fill="white" stroke="#666666" points="689.12,-58 561.38,-58 561.38,-38 689.12,-38 689.12,-58"/>
<text xml:space="preserve" text-anchor="middle" x="625.25" y="-44.5" font-family="Helvetica,sans-Serif" font-size="10.00">Serializer::serializeUInt64</text>
</a>
</g>
</g>
<!-- Node6&#45;&gt;Node7 -->
<g id="edge6_Node000006_Node000007" class="edge">
<title>Node6&#45;&gt;Node7</title>
<g id="a_edge6_Node000006_Node000007"><a xlink:title=" ">
<path fill="none" stroke="#63b8ff" d="M509.68,-44.19C522.61,-44.62 536.26,-45.08 549.46,-45.51"/>
<polygon fill="#63b8ff" stroke="#63b8ff" points="549.28,-49.01 559.39,-45.84 549.51,-42.01 549.28,-49.01"/>
</a>
</g>
</g>
<!-- Node8 -->
<g id="Node000008" class="node">
<title>Node8</title>
<g id="a_Node000008"><a xlink:href="../../d0/dc2/class_serializer.html#a3c3d58eaacc5f3c6f19cfde75424e9cc" target="_top" xlink:title=" ">
<polygon fill="white" stroke="#666666" points="686.5,-20 564,-20 564,0 686.5,0 686.5,-20"/>
<text xml:space="preserve" text-anchor="middle" x="625.25" y="-6.5" font-family="Helvetica,sans-Serif" font-size="10.00">Serializer::serializeUInt8</text>
</a>
</g>
</g>
<!-- Node6&#45;&gt;Node8 -->
<g id="edge7_Node000006_Node000008" class="edge">
<title>Node6&#45;&gt;Node8</title>
<g id="a_edge7_Node000006_Node000008"><a xlink:title=" ">
<path fill="none" stroke="#63b8ff" d="M509.68,-30.31C524.13,-27.75 539.47,-25.03 554.07,-22.44"/>
<polygon fill="#63b8ff" stroke="#63b8ff" points="554.35,-25.95 563.58,-20.76 553.12,-19.06 554.35,-25.95"/>
</a>
</g>
</g>
</g>
</svg>
