<?xml version="1.0" encoding="UTF-8" standalone="no"?>
<!DOCTYPE svg PUBLIC "-//W3C//DTD SVG 1.1//EN"
 "http://www.w3.org/Graphics/SVG/1.1/DTD/svg11.dtd">
<!-- Generated by graphviz version 14.0.2 (20251019.1705)
 -->
<!-- Title: NetworkManager::handleMarkerMeta Pages: 1 -->
<svg width="533pt" height="218pt"
 viewBox="0.00 0.00 533.00 218.00" xmlns="http://www.w3.org/2000/svg" xmlns:xlink="http://www.w3.org/1999/xlink">
<g id="graph0" class="graph" transform="scale(1 1) rotate(0) translate(4 214)">
<title>NetworkManager::handleMarkerMeta</title>
<!-- Node1 -->
<g id="Node000001" class="node">
<title>Node1</title>
<g id="a_Node000001"><a xlink:title=" ">
<polygon fill="#999999" stroke="#666666" points="176.5,-115 0,-115 0,-95 176.5,-95 176.5,-115"/>
<text xml:space="preserve" text-anchor="middle" x="88.25" y="-101.5" font-family="Helvetica,sans-Serif" font-size="10.00">NetworkManager::handleMarkerMeta</text>
</a>
</g>
</g>
<!-- Node2 -->
<g id="Node000002" class="node">
<title>Node2</title>
<g id="a_Node000002"><a xlink:href="../../d0/dc2/class_serializer.html#ac2820d6131b77a9c29c47547d0af8577" target="_top" xlink:title=" ">
<polygon fill="white" stroke="#666666" points="355.62,-134 215.12,-134 215.12,-114 355.62,-114 355.62,-134"/>
<text xml:space="preserve" text-anchor="middle" x="285.38" y="-120.5" font-family="Helvetica,sans-Serif" font-size="10.00">Serializer::deserializeMoving</text>
</a>
</g>
</g>
<!-- Node1&#45;&gt;Node2 -->
<g id="edge1_Node000001_Node000002" class="edge">
<title>Node1&#45;&gt;Node2</title>
<g id="a_edge1_Node000001_Node000002"><a xlink:title=" ">
<path fill="none" stroke="#63b8ff" d="M176.82,-113.53C185.63,-114.38 194.54,-115.25 203.28,-116.1"/>
<polygon fill="#63b8ff" stroke="#63b8ff" points="202.83,-119.58 213.13,-117.06 203.51,-112.61 202.83,-119.58"/>
</a>
</g>
</g>
<!-- Node4 -->
<g id="Node000004" class="node">
<title>Node4</title>
<g id="a_Node000004"><a xlink:href="../../d0/dc2/class_serializer.html#a5eb5ab1b9f7566eaf2486df0e536d82b" target="_top" xlink:title=" ">
<polygon fill="white" stroke="#666666" points="357.5,-210 213.25,-210 213.25,-190 357.5,-190 357.5,-210"/>
<text xml:space="preserve" text-anchor="middle" x="285.38" y="-196.5" font-family="Helvetica,sans-Serif" font-size="10.00">Serializer::deserializePosition</text>
</a>
</g>
</g>
<!-- Node1&#45;&gt;Node4 -->
<g id="edge3_Node000001_Node000004" class="edge">
<title>Node1&#45;&gt;Node4</title>
<g id="a_edge3_Node000001_Node000004"><a xlink:title=" ">
<path fill="none" stroke="#63b8ff" d="M102.93,-115.32C124.92,-131.47 170,-162.75 212.5,-181 216.84,-182.86 221.4,-184.58 226.04,-186.16"/>
<polygon fill="#63b8ff" stroke="#63b8ff" points="224.89,-189.46 235.48,-189.13 226.99,-182.79 224.89,-189.46"/>
</a>
</g>
</g>
<!-- Node6 -->
<g id="Node000006" class="node">
<title>Node6</title>
<g id="a_Node000006"><a xlink:href="../../d0/dc2/class_serializer.html#a24d123353bde4bfadc162b244ee4e9d5" target="_top" xlink:title=" ">
<polygon fill="white" stroke="#666666" points="349.62,-172 221.12,-172 221.12,-152 349.62,-152 349.62,-172"/>
<text xml:space="preserve" text-anchor="middle" x="285.38" y="-158.5" font-family="Helvetica,sans-Serif" font-size="10.00">Serializer::deserializeSize</text>
</a>
</g>
</g>
<!-- Node1&#45;&gt;Node6 -->
<g id="edge5_Node000001_Node000006" class="edge">
<title>Node1&#45;&gt;Node6</title>
<g id="a_edge5_Node000001_Node000006"><a xlink:title=" ">
<path fill="none" stroke="#63b8ff" d="M121.84,-115.44C146.62,-123.29 181.61,-134.16 212.5,-143 219.1,-144.89 226.05,-146.81 232.93,-148.67"/>
<polygon fill="#63b8ff" stroke="#63b8ff" points="231.6,-151.94 242.16,-151.14 233.41,-145.18 231.6,-151.94"/>
</a>
</g>
</g>
<!-- Node7 -->
<g id="Node000007" class="node">
<title>Node7</title>
<g id="a_Node000007"><a xlink:href="../../d0/dc2/class_serializer.html#a47d1b2e09aaa99426b40f965ef2bf284" target="_top" xlink:title=" ">
<polygon fill="white" stroke="#666666" points="352.62,-20 218.12,-20 218.12,0 352.62,0 352.62,-20"/>
<text xml:space="preserve" text-anchor="middle" x="285.38" y="-6.5" font-family="Helvetica,sans-Serif" font-size="10.00">Serializer::deserializeString</text>
</a>
</g>
</g>
<!-- Node1&#45;&gt;Node7 -->
<g id="edge7_Node000001_Node000007" class="edge">
<title>Node1&#45;&gt;Node7</title>
<g id="a_edge7_Node000001_Node000007"><a xlink:title=" ">
<path fill="none" stroke="#63b8ff" d="M102.93,-94.68C124.92,-78.53 170,-47.25 212.5,-29 216.84,-27.14 221.4,-25.42 226.04,-23.84"/>
<polygon fill="#63b8ff" stroke="#63b8ff" points="226.99,-27.21 235.48,-20.87 224.89,-20.54 226.99,-27.21"/>
</a>
</g>
</g>
<!-- Node9 -->
<g id="Node000009" class="node">
<title>Node9</title>
<g id="a_Node000009"><a xlink:href="../../d0/dc2/class_serializer.html#abc991f78f5490e60783620ab4c3444e6" target="_top" xlink:title=" ">
<polygon fill="white" stroke="#666666" points="354.5,-58 216.25,-58 216.25,-38 354.5,-38 354.5,-58"/>
<text xml:space="preserve" text-anchor="middle" x="285.38" y="-44.5" font-family="Helvetica,sans-Serif" font-size="10.00">Serializer::deserializeUInt64</text>
</a>
</g>
</g>
<!-- Node1&#45;&gt;Node9 -->
<g id="edge9_Node000001_Node000009" class="edge">
<title>Node1&#45;&gt;Node9</title>
<g id="a_edge9_Node000001_Node000009"><a xlink:title=" ">
<path fill="none" stroke="#63b8ff" d="M121.84,-94.56C146.62,-86.71 181.61,-75.84 212.5,-67 219.1,-65.11 226.05,-63.19 232.93,-61.33"/>
<polygon fill="#63b8ff" stroke="#63b8ff" points="233.41,-64.82 242.16,-58.86 231.6,-58.06 233.41,-64.82"/>
</a>
</g>
</g>
<!-- Node10 -->
<g id="Node000010" class="node">
<title>Node10</title>
<g id="a_Node000010"><a xlink:href="../../d0/dc2/class_serializer.html#a2defbb75a244dc241a5eb1b342ba50ac" target="_top" xlink:title=" ">
<polygon fill="white" stroke="#666666" points="358.25,-96 212.5,-96 212.5,-76 358.25,-76 358.25,-96"/>
<text xml:space="preserve" text-anchor="middle" x="285.38" y="-82.5" font-family="Helvetica,sans-Serif" font-size="10.00">Serializer::deserializeVisibility</text>
</a>
</g>
</g>
<!-- Node1&#45;&gt;Node10 -->
<g id="edge10_Node000001_Node000010" class="edge">
<title>Node1&#45;&gt;Node10</title>
<g id="a_edge10_Node000001_Node000010"><a xlink:title=" ">
<path fill="none" stroke="#63b8ff" d="M176.82,-96.47C184.88,-95.69 193.03,-94.89 201.05,-94.11"/>
<polygon fill="#63b8ff" stroke="#63b8ff" points="201.15,-97.62 210.77,-93.17 200.47,-90.65 201.15,-97.62"/>
</a>
</g>
</g>
<!-- Node3 -->
<g id="Node000003" class="node">
<title>Node3</title>
<g id="a_Node000003"><a xlink:href="../../d0/dc2/class_serializer.html#a6fded0442115eb736f46d377cf37c563" target="_top" xlink:title=" ">
<polygon fill="white" stroke="#666666" points="523.88,-115 395.38,-115 395.38,-95 523.88,-95 523.88,-115"/>
<text xml:space="preserve" text-anchor="middle" x="459.62" y="-101.5" font-family="Helvetica,sans-Serif" font-size="10.00">Serializer::deserializeBool</text>
</a>
</g>
</g>
<!-- Node2&#45;&gt;Node3 -->
<g id="edge2_Node000002_Node000003" class="edge">
<title>Node2&#45;&gt;Node3</title>
<g id="a_edge2_Node000002_Node000003"><a xlink:title=" ">
<path fill="none" stroke="#63b8ff" d="M355.94,-116.33C365.1,-115.32 374.52,-114.28 383.76,-113.26"/>
<polygon fill="#63b8ff" stroke="#63b8ff" points="383.86,-116.77 393.42,-112.19 383.1,-109.81 383.86,-116.77"/>
</a>
</g>
</g>
<!-- Node5 -->
<g id="Node000005" class="node">
<title>Node5</title>
<g id="a_Node000005"><a xlink:href="../../d0/dc2/class_serializer.html#a4281872677d0169f97044b8708014adb" target="_top" xlink:title=" ">
<polygon fill="white" stroke="#666666" points="525,-191 394.25,-191 394.25,-171 525,-171 525,-191"/>
<text xml:space="preserve" text-anchor="middle" x="459.62" y="-177.5" font-family="Helvetica,sans-Serif" font-size="10.00">Serializer::deserializeFloat</text>
</a>
</g>
</g>
<!-- Node4&#45;&gt;Node5 -->
<g id="edge4_Node000004_Node000005" class="edge">
<title>Node4&#45;&gt;Node5</title>
<g id="a_edge4_Node000004_Node000005"><a xlink:title=" ">
<path fill="none" stroke="#63b8ff" d="M357.93,-192.11C366.03,-191.21 374.31,-190.3 382.47,-189.4"/>
<polygon fill="#63b8ff" stroke="#63b8ff" points="382.84,-192.88 392.4,-188.31 382.07,-185.92 382.84,-192.88"/>
</a>
</g>
</g>
<!-- Node6&#45;&gt;Node5 -->
<g id="edge6_Node000006_Node000005" class="edge">
<title>Node6&#45;&gt;Node5</title>
<g id="a_edge6_Node000006_Node000005"><a xlink:title=" ">
<path fill="none" stroke="#63b8ff" d="M350.03,-169.02C360.62,-170.19 371.71,-171.41 382.58,-172.61"/>
<polygon fill="#63b8ff" stroke="#63b8ff" points="381.97,-176.07 392.29,-173.68 382.74,-169.11 381.97,-176.07"/>
</a>
</g>
</g>
<!-- Node8 -->
<g id="Node000008" class="node">
<title>Node8</title>
<g id="a_Node000008"><a xlink:href="../../d0/dc2/class_serializer.html#a45c8b78e8467c6f7dba85fd7a21c8781" target="_top" xlink:title=" ">
<polygon fill="white" stroke="#666666" points="519.75,-20 399.5,-20 399.5,0 519.75,0 519.75,-20"/>
<text xml:space="preserve" text-anchor="middle" x="459.62" y="-6.5" font-family="Helvetica,sans-Serif" font-size="10.00">Serializer::deserializeInt</text>
</a>
</g>
</g>
<!-- Node7&#45;&gt;Node8 -->
<g id="edge8_Node000007_Node000008" class="edge">
<title>Node7&#45;&gt;Node8</title>
<g id="a_edge8_Node000007_Node000008"><a xlink:title=" ">
<path fill="none" stroke="#63b8ff" d="M352.97,-10C364.4,-10 376.32,-10 387.85,-10"/>
<polygon fill="#63b8ff" stroke="#63b8ff" points="387.72,-13.5 397.72,-10 387.72,-6.5 387.72,-13.5"/>
</a>
</g>
</g>
<!-- Node10&#45;&gt;Node3 -->
<g id="edge11_Node000010_Node000003" class="edge">
<title>Node10&#45;&gt;Node3</title>
<g id="a_edge11_Node000010_Node000003"><a xlink:title=" ">
<path fill="none" stroke="#63b8ff" d="M358.43,-93.95C366.79,-94.87 375.34,-95.81 383.74,-96.74"/>
<polygon fill="#63b8ff" stroke="#63b8ff" points="383.25,-100.21 393.58,-97.82 384.02,-93.25 383.25,-100.21"/>
</a>
</g>
</g>
</g>
</svg>
