<?xml version="1.0" encoding="UTF-8" standalone="no"?>
<!DOCTYPE svg PUBLIC "-//W3C//DTD SVG 1.1//EN"
 "http://www.w3.org/Graphics/SVG/1.1/DTD/svg11.dtd">
<!-- Generated by graphviz version 14.0.2 (20251019.1705)
 -->
<!-- Title: NetworkManager::handleMarkerMoveState Pages: 1 -->
<!--zoomable 218 -->

<svg id="main" version="1.1" xmlns="http://www.w3.org/2000/svg" xmlns:xlink="http://www.w3.org/1999/xlink" xml:space="preserve" onload="init(evt)">
<style type="text/css"><![CDATA[
.node, .edge {opacity: 0.7;}
.node.selected, .edge.selected {opacity: 1;}
.edge:hover path { stroke: red; }
.edge:hover polygon { stroke: red; fill: red; }
]]></style>

<defs>
  <circle id="rim" cx="0" cy="0" r="7"/>
  <circle id="rim2" cx="0" cy="0" r="3.5"/>
  <g id="zoomPlus">
    <use xlink:href="#rim" fill="#404040"><set attributeName="fill" to="#808080" begin="zoomplus.mouseover" end="zoomplus.mouseout"/></use>
    <path d="M-4,0h8M0,-4v8" fill="none" stroke="white" stroke-width="1.5" pointer-events="none"/>
  </g>
  <g id="zoomMin">
    <use xlink:href="#rim" fill="#404040"><set attributeName="fill" to="#808080" begin="zoomminus.mouseover" end="zoomminus.mouseout"/></use>
    <path d="M-4,0h8" fill="none" stroke="white" stroke-width="1.5" pointer-events="none"/>
  </g>
  <g id="arrowUp" transform="translate(30 24)">
    <use xlink:href="#rim"/>
    <path pointer-events="none" fill="none" stroke="white" stroke-width="1.5" d="M0,-3.0v7 M-2.5,-0.5L0,-3.0L2.5,-0.5"/>
  </g>
  <g id="arrowRight" transform="rotate(90) translate(36 -43)">
    <use xlink:href="#rim"/>
    <path pointer-events="none" fill="none" stroke="white" stroke-width="1.5" d="M0,-3.0v7 M-2.5,-0.5L0,-3.0L2.5,-0.5"/>
  </g>
  <g id="arrowDown" transform="rotate(180) translate(-30 -48)">
    <use xlink:href="#rim"/>
    <path pointer-events="none" fill="none" stroke="white" stroke-width="1.5" d="M0,-3.0v7 M-2.5,-0.5L0,-3.0L2.5,-0.5"/>
  </g>
  <g id="arrowLeft" transform="rotate(270) translate(-36 17)">
    <use xlink:href="#rim"/>
    <path pointer-events="none" fill="none" stroke="white" stroke-width="1.5" d="M0,-3.0v7 M-2.5,-0.5L0,-3.0L2.5,-0.5"/>
  </g>
  <g id="resetDef">
    <use xlink:href="#rim2" fill="#404040"><set attributeName="fill" to="#808080" begin="reset.mouseover" end="reset.mouseout"/></use>
  </g>
</defs>
<script type="application/ecmascript">
var viewWidth = 538;
var viewHeight = 218;
var sectionId = 'dynsection-111';
</script>
<script type="application/ecmascript" xlink:href="../../svg.min.js"/>
<svg id="graph" class="graph">
<g id="viewport">
<title>NetworkManager::handleMarkerMoveState</title>
<!-- Node1 -->
<g id="Node000001" class="node">
<title>Node1</title>
<g id="a_Node000001"><a xlink:title=" ">
<polygon fill="#999999" stroke="#666666" points="154.75,-121 0,-121 0,-89 154.75,-89 154.75,-121"/>
<text xml:space="preserve" text-anchor="start" x="8" y="-107.5" font-family="Helvetica,sans-Serif" font-size="10.00">NetworkManager::handleMarker</text>
<text xml:space="preserve" text-anchor="middle" x="77.38" y="-95.5" font-family="Helvetica,sans-Serif" font-size="10.00">MoveState</text>
</a>
</g>
</g>
<!-- Node2 -->
<g id="Node000002" class="node">
<title>Node2</title>
<g id="a_Node000002"><a xlink:href="../../d0/dc2/class_serializer.html#ac2820d6131b77a9c29c47547d0af8577" target="_top" xlink:title=" ">
<polygon fill="white" stroke="#666666" points="347,-210 206.5,-210 206.5,-190 347,-190 347,-210"/>
<text xml:space="preserve" text-anchor="middle" x="276.75" y="-196.5" font-family="Helvetica,sans-Serif" font-size="10.00">Serializer::deserializeMoving</text>
</a>
</g>
</g>
<!-- Node1&#45;&gt;Node2 -->
<g id="edge1_Node000001_Node000002" class="edge">
<title>Node1&#45;&gt;Node2</title>
<g id="a_edge1_Node000001_Node000002"><a xlink:title=" ">
<path fill="none" stroke="#63b8ff" d="M97.74,-121.46C119.14,-138.81 155.28,-165.7 190.75,-181 195.33,-182.97 200.13,-184.75 205.03,-186.36"/>
<polygon fill="#63b8ff" stroke="#63b8ff" points="203.83,-189.65 214.41,-189.16 205.83,-182.94 203.83,-189.65"/>
</a>
</g>
</g>
<!-- Node4 -->
<g id="Node000004" class="node">
<title>Node4</title>
<g id="a_Node000004"><a xlink:href="../../d0/dc2/class_serializer.html#a5eb5ab1b9f7566eaf2486df0e536d82b" target="_top" xlink:title=" ">
<polygon fill="white" stroke="#666666" points="348.88,-172 204.62,-172 204.62,-152 348.88,-152 348.88,-172"/>
<text xml:space="preserve" text-anchor="middle" x="276.75" y="-158.5" font-family="Helvetica,sans-Serif" font-size="10.00">Serializer::deserializePosition</text>
</a>
</g>
</g>
<!-- Node1&#45;&gt;Node4 -->
<g id="edge3_Node000001_Node000004" class="edge">
<title>Node1&#45;&gt;Node4</title>
<g id="a_edge3_Node000001_Node000004"><a xlink:title=" ">
<path fill="none" stroke="#63b8ff" d="M123.42,-121.45C143.82,-128.59 168.34,-136.73 190.75,-143 198.09,-145.05 205.83,-147.04 213.53,-148.89"/>
<polygon fill="#63b8ff" stroke="#63b8ff" points="212.73,-152.3 223.27,-151.18 214.33,-145.49 212.73,-152.3"/>
</a>
</g>
</g>
<!-- Node6 -->
<g id="Node000006" class="node">
<title>Node6</title>
<g id="a_Node000006"><a xlink:href="../../d0/dc2/class_serializer.html#a25d6d53e78611af416fc652bd61e97d6" target="_top" xlink:title=" ">
<polygon fill="white" stroke="#666666" points="345.88,-134 207.62,-134 207.62,-114 345.88,-114 345.88,-134"/>
<text xml:space="preserve" text-anchor="middle" x="276.75" y="-120.5" font-family="Helvetica,sans-Serif" font-size="10.00">Serializer::deserializeUInt32</text>
</a>
</g>
</g>
<!-- Node1&#45;&gt;Node6 -->
<g id="edge5_Node000001_Node000006" class="edge">
<title>Node1&#45;&gt;Node6</title>
<g id="a_edge5_Node000001_Node000006"><a xlink:title=" ">
<path fill="none" stroke="#63b8ff" d="M154.97,-112.37C168.43,-113.67 182.47,-115.02 196.01,-116.32"/>
<polygon fill="#63b8ff" stroke="#63b8ff" points="195.45,-119.79 205.74,-117.26 196.12,-112.82 195.45,-119.79"/>
</a>
</g>
</g>
<!-- Node7 -->
<g id="Node000007" class="node">
<title>Node7</title>
<g id="a_Node000007"><a xlink:href="../../d0/dc2/class_serializer.html#abc991f78f5490e60783620ab4c3444e6" target="_top" xlink:title=" ">
<polygon fill="white" stroke="#666666" points="345.88,-96 207.62,-96 207.62,-76 345.88,-76 345.88,-96"/>
<text xml:space="preserve" text-anchor="middle" x="276.75" y="-82.5" font-family="Helvetica,sans-Serif" font-size="10.00">Serializer::deserializeUInt64</text>
</a>
</g>
</g>
<!-- Node1&#45;&gt;Node7 -->
<g id="edge6_Node000001_Node000007" class="edge">
<title>Node1&#45;&gt;Node7</title>
<g id="a_edge6_Node000001_Node000007"><a xlink:title=" ">
<path fill="none" stroke="#63b8ff" d="M154.97,-97.63C168.43,-96.33 182.47,-94.98 196.01,-93.68"/>
<polygon fill="#63b8ff" stroke="#63b8ff" points="196.12,-97.18 205.74,-92.74 195.45,-90.21 196.12,-97.18"/>
</a>
</g>
</g>
<!-- Node8 -->
<g id="Node000008" class="node">
<title>Node8</title>
<g id="a_Node000008"><a xlink:href="../../da/d21/class_network_manager.html#aed1ae9bdd229ea45245fc0b540187779" target="_top" xlink:title=" ">
<polygon fill="white" stroke="#666666" points="362.75,-58 190.75,-58 190.75,-38 362.75,-38 362.75,-58"/>
<text xml:space="preserve" text-anchor="middle" x="276.75" y="-44.5" font-family="Helvetica,sans-Serif" font-size="10.00">NetworkManager::ensureRemaining</text>
</a>
</g>
</g>
<!-- Node1&#45;&gt;Node8 -->
<g id="edge7_Node000001_Node000008" class="edge">
<title>Node1&#45;&gt;Node8</title>
<g id="a_edge7_Node000001_Node000008"><a xlink:title=" ">
<path fill="none" stroke="#63b8ff" d="M123.42,-88.55C143.82,-81.41 168.34,-73.27 190.75,-67 198.09,-64.95 205.83,-62.96 213.53,-61.11"/>
<polygon fill="#63b8ff" stroke="#63b8ff" points="214.33,-64.51 223.27,-58.82 212.73,-57.7 214.33,-64.51"/>
</a>
</g>
</g>
<!-- Node9 -->
<g id="Node000009" class="node">
<title>Node9</title>
<g id="a_Node000009"><a xlink:href="../../d2/d0a/class_message_queue.html#ae18e8febb6e78fadd1fc56332a4b7ba2" target="_top" xlink:title=" ">
<polygon fill="white" stroke="#666666" points="332.38,-20 221.12,-20 221.12,0 332.38,0 332.38,-20"/>
<text xml:space="preserve" text-anchor="middle" x="276.75" y="-6.5" font-family="Helvetica,sans-Serif" font-size="10.00">MessageQueue::push</text>
</a>
</g>
</g>
<!-- Node1&#45;&gt;Node9 -->
<g id="edge8_Node000001_Node000009" class="edge">
<title>Node1&#45;&gt;Node9</title>
<g id="a_edge8_Node000001_Node000009"><a xlink:title=" ">
<path fill="none" stroke="#63b8ff" d="M97.74,-88.54C119.14,-71.19 155.28,-44.3 190.75,-29 196.8,-26.39 203.25,-24.12 209.79,-22.15"/>
<polygon fill="#63b8ff" stroke="#63b8ff" points="210.66,-25.54 219.37,-19.5 208.8,-18.79 210.66,-25.54"/>
</a>
</g>
</g>
<!-- Node3 -->
<g id="Node000003" class="node">
<title>Node3</title>
<g id="a_Node000003"><a xlink:href="../../d0/dc2/class_serializer.html#a6fded0442115eb736f46d377cf37c563" target="_top" xlink:title=" ">
<polygon fill="white" stroke="#666666" points="528.38,-210 399.88,-210 399.88,-190 528.38,-190 528.38,-210"/>
<text xml:space="preserve" text-anchor="middle" x="464.12" y="-196.5" font-family="Helvetica,sans-Serif" font-size="10.00">Serializer::deserializeBool</text>
</a>
</g>
</g>
<!-- Node2&#45;&gt;Node3 -->
<g id="edge2_Node000002_Node000003" class="edge">
<title>Node2&#45;&gt;Node3</title>
<g id="a_edge2_Node000002_Node000003"><a xlink:title=" ">
<path fill="none" stroke="#63b8ff" d="M347.3,-200C360.71,-200 374.8,-200 388.36,-200"/>
<polygon fill="#63b8ff" stroke="#63b8ff" points="388.09,-203.5 398.09,-200 388.09,-196.5 388.09,-203.5"/>
</a>
</g>
</g>
<!-- Node5 -->
<g id="Node000005" class="node">
<title>Node5</title>
<g id="a_Node000005"><a xlink:href="../../d0/dc2/class_serializer.html#a4281872677d0169f97044b8708014adb" target="_top" xlink:title=" ">
<polygon fill="white" stroke="#666666" points="529.5,-172 398.75,-172 398.75,-152 529.5,-152 529.5,-172"/>
<text xml:space="preserve" text-anchor="middle" x="464.12" y="-158.5" font-family="Helvetica,sans-Serif" font-size="10.00">Serializer::deserializeFloat</text>
</a>
</g>
</g>
<!-- Node4&#45;&gt;Node5 -->
<g id="edge4_Node000004_Node000005" class="edge">
<title>Node4&#45;&gt;Node5</title>
<g id="a_edge4_Node000004_Node000005"><a xlink:title=" ">
<path fill="none" stroke="#63b8ff" d="M349.16,-162C361.57,-162 374.53,-162 387.06,-162"/>
<polygon fill="#63b8ff" stroke="#63b8ff" points="386.92,-165.5 396.92,-162 386.92,-158.5 386.92,-165.5"/>
</a>
</g>
</g>
</g>
</svg>

<g id="navigator" transform="translate(0 0)" fill="#404254">
  <rect fill="#f2f5e9" fill-opacity="0.5" stroke="#606060" stroke-width=".5" x="0" y="0" width="60" height="60"/>
  <use id="zoomplus" xlink:href="#zoomPlus" x="17" y="9" onmousedown="handleZoom(evt,'in')"/>
  <use id="zoomminus" xlink:href="#zoomMin" x="42" y="9" onmousedown="handleZoom(evt,'out')"/>
  <use id="reset" xlink:href="#resetDef" x="30" y="36" onmousedown="handleReset()"/>
   <use id="arrowup" xlink:href="#arrowUp" x="0" y="0" onmousedown="handlePan(0,-1)"/>
  <use id="arrowright" xlink:href="#arrowRight" x="0" y="0" onmousedown="handlePan(1,0)"/>
  <use id="arrowdown" xlink:href="#arrowDown" x="0" y="0" onmousedown="handlePan(0,1)"/>
  <use id="arrowleft" xlink:href="#arrowLeft" x="0" y="0" onmousedown="handlePan(-1,0)"/>
</g>
<svg viewBox="0 0 15 15" width="100%" height="30px" preserveAspectRatio="xMaxYMin meet">
 <g id="arrow_out" transform="scale(0.3 0.3)">
  <a xlink:href="class_network_manager_a4e57df88fc7446d22630aacb5a31dfc1_cgraph_org.svg" target="_base">
   <rect id="button" ry="5" rx="5" y="6" x="6" height="38" width="38"
        fill="#f2f5e9" fill-opacity="0.5" stroke="#606060" stroke-width="1.0"/>
   <path id="arrow"
     d="M 11.500037,31.436501 C 11.940474,20.09759 22.043105,11.32322 32.158766,21.979434 L 37.068811,17.246167 C 37.068811,17.246167 37.088388,32 37.088388,32 L 22.160133,31.978069 C 22.160133,31.978069 26.997745,27.140456 26.997745,27.140456 C 18.528582,18.264221 13.291696,25.230495 11.500037,31.436501 z"
     style="fill:#404040;"/>
  </a>
 </g>
</svg>

<style type='text/css'>
<![CDATA[
[data-mouse-over-selected='false'] { opacity: 0.7; }
[data-mouse-over-selected='true']  { opacity: 1.0; }
]]>
</style>
<script type="application/ecmascript"><![CDATA[
document.addEventListener('DOMContentLoaded', (event) => {
  highlightEdges();
  highlightAdjacentNodes();
});
]]></script>
</svg>
