<?xml version="1.0" encoding="UTF-8" standalone="no"?>
<!DOCTYPE svg PUBLIC "-//W3C//DTD SVG 1.1//EN"
 "http://www.w3.org/Graphics/SVG/1.1/DTD/svg11.dtd">
<!-- Generated by graphviz version 14.0.2 (20251019.1705)
 -->
<!-- Title: NetworkManager::tryFinalizeImage Pages: 1 -->
<svg width="737pt" height="90pt"
 viewBox="0.00 0.00 737.00 90.00" xmlns="http://www.w3.org/2000/svg" xmlns:xlink="http://www.w3.org/1999/xlink">
<g id="graph0" class="graph" transform="scale(1 1) rotate(0) translate(4 86)">
<title>NetworkManager::tryFinalizeImage</title>
<!-- Node1 -->
<g id="Node000001" class="node">
<title>Node1</title>
<g id="a_Node000001"><a xlink:title=" ">
<polygon fill="#999999" stroke="#666666" points="728.5,-57 587.25,-57 587.25,-25 728.5,-25 728.5,-57"/>
<text xml:space="preserve" text-anchor="start" x="595.25" y="-43.5" font-family="Helvetica,sans-Serif" font-size="10.00">NetworkManager::tryFinalize</text>
<text xml:space="preserve" text-anchor="middle" x="657.88" y="-31.5" font-family="Helvetica,sans-Serif" font-size="10.00">Image</text>
</a>
</g>
</g>
<!-- Node2 -->
<g id="Node000002" class="node">
<title>Node2</title>
<g id="a_Node000002"><a xlink:href="../../da/d21/class_network_manager.html#a4cb4b93a437c7da00771f5cc9488384e" target="_top" xlink:title=" ">
<polygon fill="white" stroke="#666666" points="551.25,-82 392,-82 392,-50 551.25,-50 551.25,-82"/>
<text xml:space="preserve" text-anchor="start" x="400" y="-68.5" font-family="Helvetica,sans-Serif" font-size="10.00">NetworkManager::handleCommit</text>
<text xml:space="preserve" text-anchor="middle" x="471.62" y="-56.5" font-family="Helvetica,sans-Serif" font-size="10.00">Board</text>
</a>
</g>
</g>
<!-- Node1&#45;&gt;Node2 -->
<g id="edge1_Node000001_Node000002" class="edge">
<title>Node1&#45;&gt;Node2</title>
<g id="a_edge1_Node000001_Node000002"><a xlink:title=" ">
<path fill="none" stroke="#63b8ff" d="M575.78,-52C567.8,-53.09 559.71,-54.18 551.75,-55.26"/>
<polygon fill="#63b8ff" stroke="#63b8ff" points="576.02,-55.5 585.46,-50.69 575.08,-48.57 576.02,-55.5"/>
</a>
</g>
</g>
<!-- Node6 -->
<g id="Node000006" class="node">
<title>Node6</title>
<g id="a_Node000006"><a xlink:href="../../da/d21/class_network_manager.html#a4b09485e1d33303ed11454b605fd740c" target="_top" xlink:title=" ">
<polygon fill="white" stroke="#666666" points="551.25,-32 392,-32 392,0 551.25,0 551.25,-32"/>
<text xml:space="preserve" text-anchor="start" x="400" y="-18.5" font-family="Helvetica,sans-Serif" font-size="10.00">NetworkManager::handleCommit</text>
<text xml:space="preserve" text-anchor="middle" x="471.62" y="-6.5" font-family="Helvetica,sans-Serif" font-size="10.00">Marker</text>
</a>
</g>
</g>
<!-- Node1&#45;&gt;Node6 -->
<g id="edge5_Node000001_Node000006" class="edge">
<title>Node1&#45;&gt;Node6</title>
<g id="a_edge5_Node000001_Node000006"><a xlink:title=" ">
<path fill="none" stroke="#63b8ff" d="M575.78,-30C567.8,-28.91 559.71,-27.82 551.75,-26.74"/>
<polygon fill="#63b8ff" stroke="#63b8ff" points="575.08,-33.43 585.46,-31.31 576.02,-26.5 575.08,-33.43"/>
</a>
</g>
</g>
<!-- Node3 -->
<g id="Node000003" class="node">
<title>Node3</title>
<g id="a_Node000003"><a xlink:href="../../da/d21/class_network_manager.html#a53df93ad0cb0498c82f866a921e7b285" target="_top" xlink:title=" ">
<polygon fill="white" stroke="#666666" points="356,-57 208,-57 208,-25 356,-25 356,-57"/>
<text xml:space="preserve" text-anchor="start" x="216" y="-43.5" font-family="Helvetica,sans-Serif" font-size="10.00">NetworkManager::decodeRaw</text>
<text xml:space="preserve" text-anchor="middle" x="282" y="-31.5" font-family="Helvetica,sans-Serif" font-size="10.00">GameBuffer</text>
</a>
</g>
</g>
<!-- Node2&#45;&gt;Node3 -->
<g id="edge2_Node000002_Node000003" class="edge">
<title>Node2&#45;&gt;Node3</title>
<g id="a_edge2_Node000002_Node000003"><a xlink:title=" ">
<path fill="none" stroke="#63b8ff" d="M380.27,-53.96C372.22,-52.89 364.13,-51.81 356.26,-50.76"/>
<polygon fill="#63b8ff" stroke="#63b8ff" points="379.72,-57.42 390.1,-55.27 380.65,-50.48 379.72,-57.42"/>
</a>
</g>
</g>
<!-- Node4 -->
<g id="Node000004" class="node">
<title>Node4</title>
<g id="a_Node000004"><a xlink:href="../../da/d21/class_network_manager.html#ad3605b8b33fa44492458d0aaffb4dec8" target="_top" xlink:title=" ">
<polygon fill="white" stroke="#666666" points="172,-73 0,-73 0,-53 172,-53 172,-73"/>
<text xml:space="preserve" text-anchor="middle" x="86" y="-59.5" font-family="Helvetica,sans-Serif" font-size="10.00">NetworkManager::drainInboundRaw</text>
</a>
</g>
</g>
<!-- Node3&#45;&gt;Node4 -->
<g id="edge3_Node000003_Node000004" class="edge">
<title>Node3&#45;&gt;Node4</title>
<g id="a_edge3_Node000003_Node000004"><a xlink:title=" ">
<path fill="none" stroke="#63b8ff" d="M196.23,-50.61C188.36,-51.51 180.38,-52.41 172.5,-53.3"/>
<polygon fill="#63b8ff" stroke="#63b8ff" points="196.61,-54.09 206.15,-49.49 195.82,-47.14 196.61,-54.09"/>
</a>
</g>
</g>
<!-- Node5 -->
<g id="Node000005" class="node">
<title>Node5</title>
<g id="a_Node000005"><a xlink:href="../../da/d21/class_network_manager.html#a3289708df965193b6ec0287eb069b276" target="_top" xlink:title=" ">
<polygon fill="white" stroke="#666666" points="154,-35 18,-35 18,-3 154,-3 154,-35"/>
<text xml:space="preserve" text-anchor="start" x="26" y="-21.5" font-family="Helvetica,sans-Serif" font-size="10.00">NetworkManager::startRaw</text>
<text xml:space="preserve" text-anchor="middle" x="86" y="-9.5" font-family="Helvetica,sans-Serif" font-size="10.00">DrainWorker</text>
</a>
</g>
</g>
<!-- Node3&#45;&gt;Node5 -->
<g id="edge4_Node000003_Node000005" class="edge">
<title>Node3&#45;&gt;Node5</title>
<g id="a_edge4_Node000003_Node000005"><a xlink:title=" ">
<path fill="none" stroke="#63b8ff" d="M196.47,-31.41C182.39,-29.82 167.95,-28.18 154.38,-26.64"/>
<polygon fill="#63b8ff" stroke="#63b8ff" points="195.82,-34.86 206.15,-32.51 196.61,-27.91 195.82,-34.86"/>
</a>
</g>
</g>
<!-- Node6&#45;&gt;Node3 -->
<g id="edge6_Node000006_Node000003" class="edge">
<title>Node6&#45;&gt;Node3</title>
<g id="a_edge6_Node000006_Node000003"><a xlink:title=" ">
<path fill="none" stroke="#63b8ff" d="M380.27,-28.04C372.22,-29.11 364.13,-30.19 356.26,-31.24"/>
<polygon fill="#63b8ff" stroke="#63b8ff" points="380.65,-31.52 390.1,-26.73 379.72,-24.58 380.65,-31.52"/>
</a>
</g>
</g>
</g>
</svg>
