<?xml version="1.0" encoding="UTF-8" standalone="no"?>
<!DOCTYPE svg PUBLIC "-//W3C//DTD SVG 1.1//EN"
 "http://www.w3.org/Graphics/SVG/1.1/DTD/svg11.dtd">
<!-- Generated by graphviz version 14.0.2 (20251019.1705)
 -->
<!-- Title: NetworkManager::handleBoardMeta Pages: 1 -->
<svg width="694pt" height="213pt"
 viewBox="0.00 0.00 694.00 213.00" xmlns="http://www.w3.org/2000/svg" xmlns:xlink="http://www.w3.org/1999/xlink">
<g id="graph0" class="graph" transform="scale(1 1) rotate(0) translate(4 209)">
<title>NetworkManager::handleBoardMeta</title>
<!-- Node1 -->
<g id="Node000001" class="node">
<title>Node1</title>
<g id="a_Node000001"><a xlink:title=" ">
<polygon fill="#999999" stroke="#666666" points="172,-96 0,-96 0,-76 172,-76 172,-96"/>
<text xml:space="preserve" text-anchor="middle" x="86" y="-82.5" font-family="Helvetica,sans-Serif" font-size="10.00">NetworkManager::handleBoardMeta</text>
</a>
</g>
</g>
<!-- Node2 -->
<g id="Node000002" class="node">
<title>Node2</title>
<g id="a_Node000002"><a xlink:href="../../d0/dc2/class_serializer.html#a49904ddf8105f688d32b366b5090a36a" target="_top" xlink:title=" ">
<polygon fill="white" stroke="#666666" points="343.62,-153 216.62,-153 216.62,-133 343.62,-133 343.62,-153"/>
<text xml:space="preserve" text-anchor="middle" x="280.12" y="-139.5" font-family="Helvetica,sans-Serif" font-size="10.00">Serializer::deserializeGrid</text>
</a>
</g>
</g>
<!-- Node1&#45;&gt;Node2 -->
<g id="edge1_Node000001_Node000002" class="edge">
<title>Node1&#45;&gt;Node2</title>
<g id="a_edge1_Node000001_Node000002"><a xlink:title=" ">
<path fill="none" stroke="#63b8ff" d="M122.24,-96.45C153.42,-105.71 199.13,-119.27 233.17,-129.37"/>
<polygon fill="#63b8ff" stroke="#63b8ff" points="231.75,-132.6 242.33,-132.08 233.74,-125.88 231.75,-132.6"/>
</a>
</g>
</g>
<!-- Node6 -->
<g id="Node000006" class="node">
<title>Node6</title>
<g id="a_Node000006"><a xlink:href="../../d0/dc2/class_serializer.html#a613c3e48f160ff10dda1e184b365a259" target="_top" xlink:title=" ">
<polygon fill="white" stroke="#666666" points="352.25,-200 208,-200 208,-180 352.25,-180 352.25,-200"/>
<text xml:space="preserve" text-anchor="middle" x="280.12" y="-186.5" font-family="Helvetica,sans-Serif" font-size="10.00">Serializer::deserializePanning</text>
</a>
</g>
</g>
<!-- Node1&#45;&gt;Node6 -->
<g id="edge6_Node000001_Node000006" class="edge">
<title>Node1&#45;&gt;Node6</title>
<g id="a_edge6_Node000001_Node000006"><a xlink:title=" ">
<path fill="none" stroke="#63b8ff" d="M101.39,-96.28C123.55,-111.81 167.7,-141.64 208,-162 217.65,-166.88 228.37,-171.49 238.5,-175.51"/>
<polygon fill="#63b8ff" stroke="#63b8ff" points="237.17,-178.75 247.76,-179.08 239.69,-172.22 237.17,-178.75"/>
</a>
</g>
</g>
<!-- Node7 -->
<g id="Node000007" class="node">
<title>Node7</title>
<g id="a_Node000007"><a xlink:href="../../d0/dc2/class_serializer.html#a24d123353bde4bfadc162b244ee4e9d5" target="_top" xlink:title=" ">
<polygon fill="white" stroke="#666666" points="517.88,-91 389.38,-91 389.38,-71 517.88,-71 517.88,-91"/>
<text xml:space="preserve" text-anchor="middle" x="453.62" y="-77.5" font-family="Helvetica,sans-Serif" font-size="10.00">Serializer::deserializeSize</text>
</a>
</g>
</g>
<!-- Node1&#45;&gt;Node7 -->
<g id="edge8_Node000001_Node000007" class="edge">
<title>Node1&#45;&gt;Node7</title>
<g id="a_edge8_Node000001_Node000007"><a xlink:title=" ">
<path fill="none" stroke="#63b8ff" d="M172.26,-84.83C234.51,-83.98 318.09,-82.84 377.77,-82.02"/>
<polygon fill="#63b8ff" stroke="#63b8ff" points="377.53,-85.53 387.48,-81.89 377.43,-78.53 377.53,-85.53"/>
</a>
</g>
</g>
<!-- Node8 -->
<g id="Node000008" class="node">
<title>Node8</title>
<g id="a_Node000008"><a xlink:href="../../d0/dc2/class_serializer.html#a47d1b2e09aaa99426b40f965ef2bf284" target="_top" xlink:title=" ">
<polygon fill="white" stroke="#666666" points="347.38,-58 212.88,-58 212.88,-38 347.38,-38 347.38,-58"/>
<text xml:space="preserve" text-anchor="middle" x="280.12" y="-44.5" font-family="Helvetica,sans-Serif" font-size="10.00">Serializer::deserializeString</text>
</a>
</g>
</g>
<!-- Node1&#45;&gt;Node8 -->
<g id="edge10_Node000001_Node000008" class="edge">
<title>Node1&#45;&gt;Node8</title>
<g id="a_edge10_Node000001_Node000008"><a xlink:title=" ">
<path fill="none" stroke="#63b8ff" d="M140.01,-75.52C163.32,-70.91 190.89,-65.45 215.32,-60.62"/>
<polygon fill="#63b8ff" stroke="#63b8ff" points="215.67,-64.12 224.81,-58.74 214.32,-57.25 215.67,-64.12"/>
</a>
</g>
</g>
<!-- Node10 -->
<g id="Node000010" class="node">
<title>Node10</title>
<g id="a_Node000010"><a xlink:href="../../d0/dc2/class_serializer.html#abc991f78f5490e60783620ab4c3444e6" target="_top" xlink:title=" ">
<polygon fill="white" stroke="#666666" points="349.25,-20 211,-20 211,0 349.25,0 349.25,-20"/>
<text xml:space="preserve" text-anchor="middle" x="280.12" y="-6.5" font-family="Helvetica,sans-Serif" font-size="10.00">Serializer::deserializeUInt64</text>
</a>
</g>
</g>
<!-- Node1&#45;&gt;Node10 -->
<g id="edge12_Node000001_Node000010" class="edge">
<title>Node1&#45;&gt;Node10</title>
<g id="a_edge12_Node000001_Node000010"><a xlink:title=" ">
<path fill="none" stroke="#63b8ff" d="M106.24,-75.61C129.73,-63.25 170.93,-42.56 208,-29 213.27,-27.07 218.82,-25.25 224.4,-23.55"/>
<polygon fill="#63b8ff" stroke="#63b8ff" points="225.03,-27.01 233.65,-20.86 223.07,-20.29 225.03,-27.01"/>
</a>
</g>
</g>
<!-- Node3 -->
<g id="Node000003" class="node">
<title>Node3</title>
<g id="a_Node000003"><a xlink:href="../../d0/dc2/class_serializer.html#a6fded0442115eb736f46d377cf37c563" target="_top" xlink:title=" ">
<polygon fill="white" stroke="#666666" points="517.88,-205 389.38,-205 389.38,-185 517.88,-185 517.88,-205"/>
<text xml:space="preserve" text-anchor="middle" x="453.62" y="-191.5" font-family="Helvetica,sans-Serif" font-size="10.00">Serializer::deserializeBool</text>
</a>
</g>
</g>
<!-- Node2&#45;&gt;Node3 -->
<g id="edge2_Node000002_Node000003" class="edge">
<title>Node2&#45;&gt;Node3</title>
<g id="a_edge2_Node000002_Node000003"><a xlink:title=" ">
<path fill="none" stroke="#63b8ff" d="M315.42,-153.4C341.74,-161.38 378.32,-172.47 407.09,-181.19"/>
<polygon fill="#63b8ff" stroke="#63b8ff" points="406.06,-184.54 416.65,-184.09 408.09,-177.84 406.06,-184.54"/>
</a>
</g>
</g>
<!-- Node4 -->
<g id="Node000004" class="node">
<title>Node4</title>
<g id="a_Node000004"><a xlink:href="../../d0/dc2/class_serializer.html#a4281872677d0169f97044b8708014adb" target="_top" xlink:title=" ">
<polygon fill="white" stroke="#666666" points="685.75,-129 555,-129 555,-109 685.75,-109 685.75,-129"/>
<text xml:space="preserve" text-anchor="middle" x="620.38" y="-115.5" font-family="Helvetica,sans-Serif" font-size="10.00">Serializer::deserializeFloat</text>
</a>
</g>
</g>
<!-- Node2&#45;&gt;Node4 -->
<g id="edge3_Node000002_Node000004" class="edge">
<title>Node2&#45;&gt;Node4</title>
<g id="a_edge3_Node000002_Node000004"><a xlink:title=" ">
<path fill="none" stroke="#63b8ff" d="M343.91,-144.51C391.97,-144.99 459.84,-144.18 519,-138 532.99,-136.54 547.94,-134.16 561.92,-131.57"/>
<polygon fill="#63b8ff" stroke="#63b8ff" points="562.24,-135.08 571.4,-129.75 560.92,-128.2 562.24,-135.08"/>
</a>
</g>
</g>
<!-- Node5 -->
<g id="Node000005" class="node">
<title>Node5</title>
<g id="a_Node000005"><a xlink:href="../../d0/dc2/class_serializer.html#ab8d82b453f8566db58a5f2e335924ff8" target="_top" xlink:title=" ">
<polygon fill="white" stroke="#666666" points="519,-129 388.25,-129 388.25,-109 519,-109 519,-129"/>
<text xml:space="preserve" text-anchor="middle" x="453.62" y="-115.5" font-family="Helvetica,sans-Serif" font-size="10.00">Serializer::deserializeVec2</text>
</a>
</g>
</g>
<!-- Node2&#45;&gt;Node5 -->
<g id="edge4_Node000002_Node000005" class="edge">
<title>Node2&#45;&gt;Node5</title>
<g id="a_edge4_Node000002_Node000005"><a xlink:title=" ">
<path fill="none" stroke="#63b8ff" d="M344.01,-134.2C354.65,-132.71 365.8,-131.15 376.74,-129.62"/>
<polygon fill="#63b8ff" stroke="#63b8ff" points="377.1,-133.1 386.52,-128.25 376.13,-126.17 377.1,-133.1"/>
</a>
</g>
</g>
<!-- Node5&#45;&gt;Node4 -->
<g id="edge5_Node000005_Node000004" class="edge">
<title>Node5&#45;&gt;Node4</title>
<g id="a_edge5_Node000005_Node000004"><a xlink:title=" ">
<path fill="none" stroke="#63b8ff" d="M519.27,-119C527.17,-119 535.3,-119 543.35,-119"/>
<polygon fill="#63b8ff" stroke="#63b8ff" points="543.14,-122.5 553.14,-119 543.14,-115.5 543.14,-122.5"/>
</a>
</g>
</g>
<!-- Node6&#45;&gt;Node3 -->
<g id="edge7_Node000006_Node000003" class="edge">
<title>Node6&#45;&gt;Node3</title>
<g id="a_edge7_Node000006_Node000003"><a xlink:title=" ">
<path fill="none" stroke="#63b8ff" d="M352.37,-192.08C360.72,-192.32 369.26,-192.57 377.66,-192.81"/>
<polygon fill="#63b8ff" stroke="#63b8ff" points="377.39,-196.31 387.48,-193.1 377.59,-189.31 377.39,-196.31"/>
</a>
</g>
</g>
<!-- Node7&#45;&gt;Node4 -->
<g id="edge9_Node000007_Node000004" class="edge">
<title>Node7&#45;&gt;Node4</title>
<g id="a_edge9_Node000007_Node000004"><a xlink:title=" ">
<path fill="none" stroke="#63b8ff" d="M500.08,-91.48C519.53,-95.97 542.44,-101.25 562.95,-105.99"/>
<polygon fill="#63b8ff" stroke="#63b8ff" points="562.06,-109.37 572.59,-108.21 563.64,-102.55 562.06,-109.37"/>
</a>
</g>
</g>
<!-- Node9 -->
<g id="Node000009" class="node">
<title>Node9</title>
<g id="a_Node000009"><a xlink:href="../../d0/dc2/class_serializer.html#a45c8b78e8467c6f7dba85fd7a21c8781" target="_top" xlink:title=" ">
<polygon fill="white" stroke="#666666" points="513.75,-53 393.5,-53 393.5,-33 513.75,-33 513.75,-53"/>
<text xml:space="preserve" text-anchor="middle" x="453.62" y="-39.5" font-family="Helvetica,sans-Serif" font-size="10.00">Serializer::deserializeInt</text>
</a>
</g>
</g>
<!-- Node8&#45;&gt;Node9 -->
<g id="edge11_Node000008_Node000009" class="edge">
<title>Node8&#45;&gt;Node9</title>
<g id="a_edge11_Node000008_Node000009"><a xlink:title=" ">
<path fill="none" stroke="#63b8ff" d="M347.43,-46.07C358.74,-45.74 370.53,-45.39 381.95,-45.06"/>
<polygon fill="#63b8ff" stroke="#63b8ff" points="381.81,-48.57 391.7,-44.78 381.6,-41.57 381.81,-48.57"/>
</a>
</g>
</g>
</g>
</svg>
