<?xml version="1.0" encoding="UTF-8" standalone="no"?>
<!DOCTYPE svg PUBLIC "-//W3C//DTD SVG 1.1//EN"
 "http://www.w3.org/Graphics/SVG/1.1/DTD/svg11.dtd">
<!-- Generated by graphviz version 14.0.2 (20251019.1705)
 -->
<!-- Title: NetworkManager::sendMarker Pages: 1 -->
<!--zoomable 606 -->

<svg id="main" version="1.1" xmlns="http://www.w3.org/2000/svg" xmlns:xlink="http://www.w3.org/1999/xlink" xml:space="preserve" onload="init(evt)">
<style type="text/css"><![CDATA[
.node, .edge {opacity: 0.7;}
.node.selected, .edge.selected {opacity: 1;}
.edge:hover path { stroke: red; }
.edge:hover polygon { stroke: red; fill: red; }
]]></style>

<defs>
  <circle id="rim" cx="0" cy="0" r="7"/>
  <circle id="rim2" cx="0" cy="0" r="3.5"/>
  <g id="zoomPlus">
    <use xlink:href="#rim" fill="#404040"><set attributeName="fill" to="#808080" begin="zoomplus.mouseover" end="zoomplus.mouseout"/></use>
    <path d="M-4,0h8M0,-4v8" fill="none" stroke="white" stroke-width="1.5" pointer-events="none"/>
  </g>
  <g id="zoomMin">
    <use xlink:href="#rim" fill="#404040"><set attributeName="fill" to="#808080" begin="zoomminus.mouseover" end="zoomminus.mouseout"/></use>
    <path d="M-4,0h8" fill="none" stroke="white" stroke-width="1.5" pointer-events="none"/>
  </g>
  <g id="arrowUp" transform="translate(30 24)">
    <use xlink:href="#rim"/>
    <path pointer-events="none" fill="none" stroke="white" stroke-width="1.5" d="M0,-3.0v7 M-2.5,-0.5L0,-3.0L2.5,-0.5"/>
  </g>
  <g id="arrowRight" transform="rotate(90) translate(36 -43)">
    <use xlink:href="#rim"/>
    <path pointer-events="none" fill="none" stroke="white" stroke-width="1.5" d="M0,-3.0v7 M-2.5,-0.5L0,-3.0L2.5,-0.5"/>
  </g>
  <g id="arrowDown" transform="rotate(180) translate(-30 -48)">
    <use xlink:href="#rim"/>
    <path pointer-events="none" fill="none" stroke="white" stroke-width="1.5" d="M0,-3.0v7 M-2.5,-0.5L0,-3.0L2.5,-0.5"/>
  </g>
  <g id="arrowLeft" transform="rotate(270) translate(-36 17)">
    <use xlink:href="#rim"/>
    <path pointer-events="none" fill="none" stroke="white" stroke-width="1.5" d="M0,-3.0v7 M-2.5,-0.5L0,-3.0L2.5,-0.5"/>
  </g>
  <g id="resetDef">
    <use xlink:href="#rim2" fill="#404040"><set attributeName="fill" to="#808080" begin="reset.mouseover" end="reset.mouseout"/></use>
  </g>
</defs>
<script type="application/ecmascript">
var viewWidth = 906;
var viewHeight = 606;
var sectionId = 'dynsection-144';
</script>
<script type="application/ecmascript" xlink:href="../../svg.min.js"/>
<svg id="graph" class="graph">
<g id="viewport">
<title>NetworkManager::sendMarker</title>
<!-- Node1 -->
<g id="Node000001" class="node">
<title>Node1</title>
<g id="a_Node000001"><a xlink:title=" ">
<polygon fill="#999999" stroke="#666666" points="147.25,-352 0,-352 0,-332 147.25,-332 147.25,-352"/>
<text xml:space="preserve" text-anchor="middle" x="73.62" y="-338.5" font-family="Helvetica,sans-Serif" font-size="10.00">NetworkManager::sendMarker</text>
</a>
</g>
</g>
<!-- Node2 -->
<g id="Node000002" class="node">
<title>Node2</title>
<g id="a_Node000002"><a xlink:href="../../da/d21/class_network_manager.html#aeb0d7937d1d825d09dc8c7b13e35a962" target="_top" xlink:title=" ">
<polygon fill="white" stroke="#666666" points="327.12,-598 188.12,-598 188.12,-566 327.12,-566 327.12,-598"/>
<text xml:space="preserve" text-anchor="start" x="196.12" y="-584.5" font-family="Helvetica,sans-Serif" font-size="10.00">NetworkManager::broadcast</text>
<text xml:space="preserve" text-anchor="middle" x="257.62" y="-572.5" font-family="Helvetica,sans-Serif" font-size="10.00">GameFrame</text>
</a>
</g>
</g>
<!-- Node1&#45;&gt;Node2 -->
<g id="edge1_Node000001_Node000002" class="edge">
<title>Node1&#45;&gt;Node2</title>
<g id="a_edge1_Node000001_Node000002"><a xlink:title=" ">
<path fill="none" stroke="#63b8ff" d="M77.25,-352.24C86.25,-385.47 118.96,-491.63 183.25,-551 186.89,-554.36 190.95,-557.39 195.24,-560.11"/>
<polygon fill="#63b8ff" stroke="#63b8ff" points="193.18,-562.97 203.61,-564.85 196.63,-556.88 193.18,-562.97"/>
</a>
</g>
</g>
<!-- Node4 -->
<g id="Node000004" class="node">
<title>Node4</title>
<g id="a_Node000004"><a xlink:href="../../da/d21/class_network_manager.html#a5a298bfe9adff14e356bd4dad5cbc5b3" target="_top" xlink:title=" ">
<polygon fill="white" stroke="#666666" points="525,-462 374,-462 374,-430 525,-430 525,-462"/>
<text xml:space="preserve" text-anchor="start" x="382" y="-448.5" font-family="Helvetica,sans-Serif" font-size="10.00">NetworkManager::buildCommit</text>
<text xml:space="preserve" text-anchor="middle" x="449.5" y="-436.5" font-family="Helvetica,sans-Serif" font-size="10.00">MarkerFrame</text>
</a>
</g>
</g>
<!-- Node1&#45;&gt;Node4 -->
<g id="edge3_Node000001_Node000004" class="edge">
<title>Node1&#45;&gt;Node4</title>
<g id="a_edge3_Node000001_Node000004"><a xlink:title=" ">
<path fill="none" stroke="#63b8ff" d="M112.19,-352.45C174.35,-369.74 299.58,-404.58 378.45,-426.51"/>
<polygon fill="#63b8ff" stroke="#63b8ff" points="377.23,-429.81 387.8,-429.12 379.11,-423.06 377.23,-429.81"/>
</a>
</g>
</g>
<!-- Node7 -->
<g id="Node000007" class="node">
<title>Node7</title>
<g id="a_Node000007"><a xlink:href="../../da/d21/class_network_manager.html#abb704d7511a6b3f8e125f8371ea3b97d" target="_top" xlink:title=" ">
<polygon fill="white" stroke="#666666" points="330.5,-292 184.75,-292 184.75,-260 330.5,-260 330.5,-292"/>
<text xml:space="preserve" text-anchor="start" x="192.75" y="-278.5" font-family="Helvetica,sans-Serif" font-size="10.00">NetworkManager::buildCreate</text>
<text xml:space="preserve" text-anchor="middle" x="257.62" y="-266.5" font-family="Helvetica,sans-Serif" font-size="10.00">MarkerFrame</text>
</a>
</g>
</g>
<!-- Node1&#45;&gt;Node7 -->
<g id="edge6_Node000001_Node000007" class="edge">
<title>Node1&#45;&gt;Node7</title>
<g id="a_edge6_Node000001_Node000007"><a xlink:title=" ">
<path fill="none" stroke="#63b8ff" d="M103.46,-331.54C129.49,-322.1 168.51,-307.95 200.65,-296.3"/>
<polygon fill="#63b8ff" stroke="#63b8ff" points="201.62,-299.67 209.83,-292.97 199.24,-293.09 201.62,-299.67"/>
</a>
</g>
</g>
<!-- Node16 -->
<g id="Node000016" class="node">
<title>Node16</title>
<g id="a_Node000016"><a xlink:href="../../de/d2f/class_path_manager.html#a220ff032714c927e1a2a8ea81d863331" target="_top" xlink:title=" ">
<polygon fill="white" stroke="#666666" points="332,-242 183.25,-242 183.25,-222 332,-222 332,-242"/>
<text xml:space="preserve" text-anchor="middle" x="257.62" y="-228.5" font-family="Helvetica,sans-Serif" font-size="10.00">PathManager::getMarkersPath</text>
</a>
</g>
</g>
<!-- Node1&#45;&gt;Node16 -->
<g id="edge19_Node000001_Node000016" class="edge">
<title>Node1&#45;&gt;Node16</title>
<g id="a_edge19_Node000001_Node000016"><a xlink:title=" ">
<path fill="none" stroke="#63b8ff" d="M84,-331.54C101.57,-312.58 141.47,-272.5 183.25,-251 186.53,-249.31 189.96,-247.77 193.49,-246.36"/>
<polygon fill="#63b8ff" stroke="#63b8ff" points="194.59,-249.68 202.82,-243.01 192.23,-243.09 194.59,-249.68"/>
</a>
</g>
</g>
<!-- Node18 -->
<g id="Node000018" class="node">
<title>Node18</title>
<g id="a_Node000018"><a xlink:href="../../d3/d42/class_logger.html#aebb248e608f8e2724de20b482cb2a15f" target="_top" xlink:title=" ">
<polygon fill="white" stroke="#666666" points="493.5,-556 405.5,-556 405.5,-536 493.5,-536 493.5,-556"/>
<text xml:space="preserve" text-anchor="middle" x="449.5" y="-542.5" font-family="Helvetica,sans-Serif" font-size="10.00">Logger::instance</text>
</a>
</g>
</g>
<!-- Node1&#45;&gt;Node18 -->
<g id="edge21_Node000001_Node000018" class="edge">
<title>Node1&#45;&gt;Node18</title>
<g id="a_edge21_Node000001_Node000018"><a xlink:title=" ">
<path fill="none" stroke="#63b8ff" d="M77.65,-352.45C87.21,-383.43 119.98,-475.05 183.25,-515 247.07,-555.3 336.97,-556.88 393.99,-552.69"/>
<polygon fill="#63b8ff" stroke="#63b8ff" points="394.1,-556.19 403.78,-551.88 393.52,-549.22 394.1,-556.19"/>
</a>
</g>
</g>
<!-- Node19 -->
<g id="Node000019" class="node">
<title>Node19</title>
<g id="a_Node000019"><a xlink:href="../../de/d2f/class_path_manager.html#a42a0582ddea79c07f859b346b57657de" target="_top" xlink:title=" ">
<polygon fill="white" stroke="#666666" points="331.25,-166 184,-166 184,-146 331.25,-146 331.25,-166"/>
<text xml:space="preserve" text-anchor="middle" x="257.62" y="-152.5" font-family="Helvetica,sans-Serif" font-size="10.00">PathManager::isFilenameOnly</text>
</a>
</g>
</g>
<!-- Node1&#45;&gt;Node19 -->
<g id="edge22_Node000001_Node000019" class="edge">
<title>Node1&#45;&gt;Node19</title>
<g id="a_edge22_Node000001_Node000019"><a xlink:title=" ">
<path fill="none" stroke="#63b8ff" d="M78.73,-331.53C90.48,-302.89 127.1,-222.52 183.25,-180 187.87,-176.5 193.03,-173.5 198.41,-170.92"/>
<polygon fill="#63b8ff" stroke="#63b8ff" points="199.69,-174.18 207.54,-167.07 196.97,-167.73 199.69,-174.18"/>
</a>
</g>
</g>
<!-- Node20 -->
<g id="Node000020" class="node">
<title>Node20</title>
<g id="a_Node000020"><a xlink:href="../../de/d2f/class_path_manager.html#a7bd7a212d4af1ec7b67dfc3519375077" target="_top" xlink:title=" ">
<polygon fill="white" stroke="#666666" points="512.25,-58 386.75,-58 386.75,-38 512.25,-38 512.25,-58"/>
<text xml:space="preserve" text-anchor="middle" x="449.5" y="-44.5" font-family="Helvetica,sans-Serif" font-size="10.00">PathManager::isPathLike</text>
</a>
</g>
</g>
<!-- Node1&#45;&gt;Node20 -->
<g id="edge29_Node000001_Node000020" class="edge">
<title>Node1&#45;&gt;Node20</title>
<g id="a_edge29_Node000001_Node000020"><a xlink:title=" ">
<path fill="none" stroke="#63b8ff" d="M80.19,-331.76C94.1,-307.2 132.91,-244.6 183.25,-213 241.04,-176.72 282.05,-221.49 332,-175 369.04,-140.53 330.65,-101.13 368,-67 370.57,-64.65 373.37,-62.58 376.34,-60.75"/>
<polygon fill="#63b8ff" stroke="#63b8ff" points="377.62,-64.03 384.96,-56.38 374.46,-57.78 377.62,-64.03"/>
</a>
</g>
</g>
<!-- Node26 -->
<g id="Node000026" class="node">
<title>Node26</title>
<g id="a_Node000026"><a xlink:href="../../d3/d42/class_logger.html#ab77a9a6a08954192b47c39f359b5d370" target="_top" xlink:title=" ">
<polygon fill="white" stroke="#666666" points="481.5,-500 417.5,-500 417.5,-480 481.5,-480 481.5,-500"/>
<text xml:space="preserve" text-anchor="middle" x="449.5" y="-486.5" font-family="Helvetica,sans-Serif" font-size="10.00">Logger::log</text>
</a>
</g>
</g>
<!-- Node1&#45;&gt;Node26 -->
<g id="edge30_Node000001_Node000026" class="edge">
<title>Node1&#45;&gt;Node26</title>
<g id="a_edge30_Node000001_Node000026"><a xlink:title=" ">
<path fill="none" stroke="#63b8ff" d="M89.55,-352.29C110,-366.06 148.19,-390.65 183.25,-407 262.01,-443.73 284.55,-446.77 368,-471 380.35,-474.59 393.92,-477.99 406.33,-480.9"/>
<polygon fill="#63b8ff" stroke="#63b8ff" points="405.34,-484.26 415.87,-483.08 406.9,-477.44 405.34,-484.26"/>
</a>
</g>
</g>
<!-- Node27 -->
<g id="Node000027" class="node">
<title>Node27</title>
<g id="a_Node000027"><a xlink:href="../../da/d21/class_network_manager.html#ac4526c46708af567437809ee9b561aba" target="_top" xlink:title=" ">
<polygon fill="white" stroke="#666666" points="323,-128 192.25,-128 192.25,-96 323,-96 323,-128"/>
<text xml:space="preserve" text-anchor="start" x="200.25" y="-114.5" font-family="Helvetica,sans-Serif" font-size="10.00">NetworkManager::readFile</text>
<text xml:space="preserve" text-anchor="middle" x="257.62" y="-102.5" font-family="Helvetica,sans-Serif" font-size="10.00">Bytes</text>
</a>
</g>
</g>
<!-- Node1&#45;&gt;Node27 -->
<g id="edge32_Node000001_Node000027" class="edge">
<title>Node1&#45;&gt;Node27</title>
<g id="a_edge32_Node000001_Node000027"><a xlink:title=" ">
<path fill="none" stroke="#63b8ff" d="M77.14,-331.77C85.82,-298.6 117.66,-192.92 183.25,-137 184.2,-136.19 185.17,-135.41 186.17,-134.65"/>
<polygon fill="#63b8ff" stroke="#63b8ff" points="187.95,-137.67 194.45,-129.31 184.15,-131.79 187.95,-137.67"/>
</a>
</g>
</g>
<!-- Node28 -->
<g id="Node000028" class="node">
<title>Node28</title>
<g id="a_Node000028"><a xlink:href="../../da/d21/class_network_manager.html#ab54b0f1b56efebcaeaf9a34a0af6194c" target="_top" xlink:title=" ">
<polygon fill="white" stroke="#666666" points="329.75,-506 185.5,-506 185.5,-474 329.75,-474 329.75,-506"/>
<text xml:space="preserve" text-anchor="start" x="193.5" y="-492.5" font-family="Helvetica,sans-Serif" font-size="10.00">NetworkManager::sendImage</text>
<text xml:space="preserve" text-anchor="middle" x="257.62" y="-480.5" font-family="Helvetica,sans-Serif" font-size="10.00">Chunks</text>
</a>
</g>
</g>
<!-- Node1&#45;&gt;Node28 -->
<g id="edge33_Node000001_Node000028" class="edge">
<title>Node1&#45;&gt;Node28</title>
<g id="a_edge33_Node000001_Node000028"><a xlink:title=" ">
<path fill="none" stroke="#63b8ff" d="M84.22,-352.25C102.48,-371.46 143.92,-413.67 183.25,-444 194.02,-452.31 206.35,-460.49 217.78,-467.6"/>
<polygon fill="#63b8ff" stroke="#63b8ff" points="215.89,-470.54 226.25,-472.76 219.53,-464.56 215.89,-470.54"/>
</a>
</g>
</g>
<!-- Node3 -->
<g id="Node000003" class="node">
<title>Node3</title>
<g id="a_Node000003"><a xlink:href="../../da/d21/class_network_manager.html#a8f97d83ec35ea68c1e37d6837c1c8b4c" target="_top" xlink:title=" ">
<polygon fill="white" stroke="#666666" points="526.5,-594 372.5,-594 372.5,-574 526.5,-574 526.5,-594"/>
<text xml:space="preserve" text-anchor="middle" x="449.5" y="-580.5" font-family="Helvetica,sans-Serif" font-size="10.00">NetworkManager::sendGameTo</text>
</a>
</g>
</g>
<!-- Node2&#45;&gt;Node3 -->
<g id="edge2_Node000002_Node000003" class="edge">
<title>Node2&#45;&gt;Node3</title>
<g id="a_edge2_Node000002_Node000003"><a xlink:title=" ">
<path fill="none" stroke="#63b8ff" d="M327.44,-582.72C338.35,-582.84 349.75,-582.96 361.01,-583.08"/>
<polygon fill="#63b8ff" stroke="#63b8ff" points="360.66,-586.57 370.69,-583.18 360.73,-579.58 360.66,-586.57"/>
</a>
</g>
</g>
<!-- Node5 -->
<g id="Node000005" class="node">
<title>Node5</title>
<g id="a_Node000005"><a xlink:href="../../d0/dc2/class_serializer.html#a60889622ee4e36ea28a284e99bbdf4e5" target="_top" xlink:title=" ">
<polygon fill="white" stroke="#666666" points="704.12,-368 576.38,-368 576.38,-348 704.12,-348 704.12,-368"/>
<text xml:space="preserve" text-anchor="middle" x="640.25" y="-354.5" font-family="Helvetica,sans-Serif" font-size="10.00">Serializer::serializeUInt64</text>
</a>
</g>
</g>
<!-- Node4&#45;&gt;Node5 -->
<g id="edge4_Node000004_Node000005" class="edge">
<title>Node4&#45;&gt;Node5</title>
<g id="a_edge4_Node000004_Node000005"><a xlink:title=" ">
<path fill="none" stroke="#63b8ff" d="M477.64,-429.68C500.86,-416.13 535.43,-396.89 567,-383 575.82,-379.12 585.45,-375.43 594.72,-372.13"/>
<polygon fill="#63b8ff" stroke="#63b8ff" points="595.62,-375.53 603.93,-368.95 593.33,-368.91 595.62,-375.53"/>
</a>
</g>
</g>
<!-- Node6 -->
<g id="Node000006" class="node">
<title>Node6</title>
<g id="a_Node000006"><a xlink:href="../../d0/dc2/class_serializer.html#a3c3d58eaacc5f3c6f19cfde75424e9cc" target="_top" xlink:title=" ">
<polygon fill="white" stroke="#666666" points="701.5,-412 579,-412 579,-392 701.5,-392 701.5,-412"/>
<text xml:space="preserve" text-anchor="middle" x="640.25" y="-398.5" font-family="Helvetica,sans-Serif" font-size="10.00">Serializer::serializeUInt8</text>
</a>
</g>
</g>
<!-- Node4&#45;&gt;Node6 -->
<g id="edge5_Node000004_Node000006" class="edge">
<title>Node4&#45;&gt;Node6</title>
<g id="a_edge5_Node000004_Node000006"><a xlink:title=" ">
<path fill="none" stroke="#63b8ff" d="M521.05,-429.55C541.53,-424.78 563.62,-419.63 583.09,-415.09"/>
<polygon fill="#63b8ff" stroke="#63b8ff" points="583.8,-418.52 592.75,-412.84 582.21,-411.7 583.8,-418.52"/>
</a>
</g>
</g>
<!-- Node7&#45;&gt;Node5 -->
<g id="edge15_Node000007_Node000005" class="edge">
<title>Node7&#45;&gt;Node5</title>
<g id="a_edge15_Node000007_Node000005"><a xlink:title=" ">
<path fill="none" stroke="#63b8ff" d="M330.97,-290.72C385.91,-301.99 463.29,-318.1 531,-333 548.23,-336.79 566.97,-341.07 583.93,-344.99"/>
<polygon fill="#63b8ff" stroke="#63b8ff" points="582.79,-348.32 593.32,-347.17 584.37,-341.5 582.79,-348.32"/>
</a>
</g>
</g>
<!-- Node7&#45;&gt;Node6 -->
<g id="edge16_Node000007_Node000006" class="edge">
<title>Node7&#45;&gt;Node6</title>
<g id="a_edge16_Node000007_Node000006"><a xlink:title=" ">
<path fill="none" stroke="#63b8ff" d="M269.42,-292.28C286.82,-316.96 323.66,-363.08 368,-383 431.05,-411.32 510.71,-413.46 567.35,-410.1"/>
<polygon fill="#63b8ff" stroke="#63b8ff" points="567.46,-413.61 577.21,-409.44 566.99,-406.62 567.46,-413.61"/>
</a>
</g>
</g>
<!-- Node8 -->
<g id="Node000008" class="node">
<title>Node8</title>
<g id="a_Node000008"><a xlink:href="../../d0/dc2/class_serializer.html#ac0767e8086f1a9879ba76d1576b7e558" target="_top" xlink:title=" ">
<polygon fill="white" stroke="#666666" points="514.5,-210 384.5,-210 384.5,-190 514.5,-190 514.5,-210"/>
<text xml:space="preserve" text-anchor="middle" x="449.5" y="-196.5" font-family="Helvetica,sans-Serif" font-size="10.00">Serializer::serializeMoving</text>
</a>
</g>
</g>
<!-- Node7&#45;&gt;Node8 -->
<g id="edge7_Node000007_Node000008" class="edge">
<title>Node7&#45;&gt;Node8</title>
<g id="a_edge7_Node000007_Node000008"><a xlink:title=" ">
<path fill="none" stroke="#63b8ff" d="M314.56,-259.59C320.6,-257.04 326.53,-254.18 332,-251 350.5,-240.22 349,-228.87 368,-219 371.42,-217.22 375,-215.61 378.68,-214.15"/>
<polygon fill="#63b8ff" stroke="#63b8ff" points="379.55,-217.55 387.81,-210.91 377.22,-210.96 379.55,-217.55"/>
</a>
</g>
</g>
<!-- Node10 -->
<g id="Node000010" class="node">
<title>Node10</title>
<g id="a_Node000010"><a xlink:href="../../d0/dc2/class_serializer.html#a9552a2e71fe480af903507fb148c8964" target="_top" xlink:title=" ">
<polygon fill="white" stroke="#666666" points="516.38,-134 382.62,-134 382.62,-114 516.38,-114 516.38,-134"/>
<text xml:space="preserve" text-anchor="middle" x="449.5" y="-120.5" font-family="Helvetica,sans-Serif" font-size="10.00">Serializer::serializePosition</text>
</a>
</g>
</g>
<!-- Node7&#45;&gt;Node10 -->
<g id="edge9_Node000007_Node000010" class="edge">
<title>Node7&#45;&gt;Node10</title>
<g id="a_edge9_Node000007_Node000010"><a xlink:title=" ">
<path fill="none" stroke="#63b8ff" d="M321.19,-259.53C325.11,-257.07 328.78,-254.25 332,-251 367.66,-215.1 330.65,-177.13 368,-143 369.46,-141.67 370.99,-140.42 372.59,-139.26"/>
<polygon fill="#63b8ff" stroke="#63b8ff" points="374.22,-142.36 381.04,-134.25 370.65,-136.34 374.22,-142.36"/>
</a>
</g>
</g>
<!-- Node12 -->
<g id="Node000012" class="node">
<title>Node12</title>
<g id="a_Node000012"><a xlink:href="../../d0/dc2/class_serializer.html#a6be006b0cf99a37c2146723395013b76" target="_top" xlink:title=" ">
<polygon fill="white" stroke="#666666" points="508.5,-172 390.5,-172 390.5,-152 508.5,-152 508.5,-172"/>
<text xml:space="preserve" text-anchor="middle" x="449.5" y="-158.5" font-family="Helvetica,sans-Serif" font-size="10.00">Serializer::serializeSize</text>
</a>
</g>
</g>
<!-- Node7&#45;&gt;Node12 -->
<g id="edge11_Node000007_Node000012" class="edge">
<title>Node7&#45;&gt;Node12</title>
<g id="a_edge11_Node000007_Node000012"><a xlink:title=" ">
<path fill="none" stroke="#63b8ff" d="M319.57,-259.56C324.02,-257.09 328.23,-254.25 332,-251 358.48,-228.14 340.44,-202.55 368,-181 371.69,-178.11 375.75,-175.65 380.02,-173.56"/>
<polygon fill="#63b8ff" stroke="#63b8ff" points="381,-176.94 388.9,-169.89 378.32,-170.47 381,-176.94"/>
</a>
</g>
</g>
<!-- Node13 -->
<g id="Node000013" class="node">
<title>Node13</title>
<g id="a_Node000013"><a xlink:href="../../d0/dc2/class_serializer.html#a8a72c08ebb91348dc2a7ef6557c44f6c" target="_top" xlink:title=" ">
<polygon fill="white" stroke="#666666" points="511.5,-286 387.5,-286 387.5,-266 511.5,-266 511.5,-286"/>
<text xml:space="preserve" text-anchor="middle" x="449.5" y="-272.5" font-family="Helvetica,sans-Serif" font-size="10.00">Serializer::serializeString</text>
</a>
</g>
</g>
<!-- Node7&#45;&gt;Node13 -->
<g id="edge13_Node000007_Node000013" class="edge">
<title>Node7&#45;&gt;Node13</title>
<g id="a_edge13_Node000007_Node000013"><a xlink:title=" ">
<path fill="none" stroke="#63b8ff" d="M330.95,-276C345.73,-276 361.29,-276 376.08,-276"/>
<polygon fill="#63b8ff" stroke="#63b8ff" points="375.69,-279.5 385.69,-276 375.69,-272.5 375.69,-279.5"/>
</a>
</g>
</g>
<!-- Node15 -->
<g id="Node000015" class="node">
<title>Node15</title>
<g id="a_Node000015"><a xlink:href="../../d0/dc2/class_serializer.html#adf940baab7d143611e19fb957725a80a" target="_top" xlink:title=" ">
<polygon fill="white" stroke="#666666" points="517.12,-248 381.88,-248 381.88,-228 517.12,-228 517.12,-248"/>
<text xml:space="preserve" text-anchor="middle" x="449.5" y="-234.5" font-family="Helvetica,sans-Serif" font-size="10.00">Serializer::serializeVisibility</text>
</a>
</g>
</g>
<!-- Node7&#45;&gt;Node15 -->
<g id="edge17_Node000007_Node000015" class="edge">
<title>Node7&#45;&gt;Node15</title>
<g id="a_edge17_Node000007_Node000015"><a xlink:title=" ">
<path fill="none" stroke="#63b8ff" d="M330.95,-261.53C348.75,-257.96 367.67,-254.18 385.01,-250.71"/>
<polygon fill="#63b8ff" stroke="#63b8ff" points="385.55,-254.17 394.67,-248.77 384.17,-247.3 385.55,-254.17"/>
</a>
</g>
</g>
<!-- Node9 -->
<g id="Node000009" class="node">
<title>Node9</title>
<g id="a_Node000009"><a xlink:href="../../d0/dc2/class_serializer.html#a2a407c3a379b680296ee190ed625f05f" target="_top" xlink:title=" ">
<polygon fill="white" stroke="#666666" points="699.25,-229 581.25,-229 581.25,-209 699.25,-209 699.25,-229"/>
<text xml:space="preserve" text-anchor="middle" x="640.25" y="-215.5" font-family="Helvetica,sans-Serif" font-size="10.00">Serializer::serializeBool</text>
</a>
</g>
</g>
<!-- Node8&#45;&gt;Node9 -->
<g id="edge8_Node000008_Node000009" class="edge">
<title>Node8&#45;&gt;Node9</title>
<g id="a_edge8_Node000008_Node000009"><a xlink:title=" ">
<path fill="none" stroke="#63b8ff" d="M514.93,-206.49C532.53,-208.26 551.69,-210.19 569.57,-211.99"/>
<polygon fill="#63b8ff" stroke="#63b8ff" points="569.01,-215.45 579.31,-212.97 569.71,-208.48 569.01,-215.45"/>
</a>
</g>
</g>
<!-- Node11 -->
<g id="Node000011" class="node">
<title>Node11</title>
<g id="a_Node000011"><a xlink:href="../../d0/dc2/class_serializer.html#a92ffe65857abd6eea6a393056a9bb533" target="_top" xlink:title=" ">
<polygon fill="white" stroke="#666666" points="700.38,-153 580.12,-153 580.12,-133 700.38,-133 700.38,-153"/>
<text xml:space="preserve" text-anchor="middle" x="640.25" y="-139.5" font-family="Helvetica,sans-Serif" font-size="10.00">Serializer::serializeFloat</text>
</a>
</g>
</g>
<!-- Node10&#45;&gt;Node11 -->
<g id="edge10_Node000010_Node000011" class="edge">
<title>Node10&#45;&gt;Node11</title>
<g id="a_edge10_Node000010_Node000011"><a xlink:title=" ">
<path fill="none" stroke="#63b8ff" d="M516.78,-130.67C533.6,-132.36 551.73,-134.19 568.74,-135.9"/>
<polygon fill="#63b8ff" stroke="#63b8ff" points="567.94,-139.34 578.24,-136.86 568.64,-132.37 567.94,-139.34"/>
</a>
</g>
</g>
<!-- Node12&#45;&gt;Node11 -->
<g id="edge12_Node000012_Node000011" class="edge">
<title>Node12&#45;&gt;Node11</title>
<g id="a_edge12_Node000012_Node000011"><a xlink:title=" ">
<path fill="none" stroke="#63b8ff" d="M508.93,-156.12C527.75,-154.22 548.82,-152.1 568.44,-150.13"/>
<polygon fill="#63b8ff" stroke="#63b8ff" points="568.69,-153.62 578.29,-149.14 567.99,-146.66 568.69,-153.62"/>
</a>
</g>
</g>
<!-- Node14 -->
<g id="Node000014" class="node">
<title>Node14</title>
<g id="a_Node000014"><a xlink:href="../../d0/dc2/class_serializer.html#ac812cf485e5804fd6f22d34ae076f79f" target="_top" xlink:title=" ">
<polygon fill="white" stroke="#666666" points="695.12,-308 585.38,-308 585.38,-288 695.12,-288 695.12,-308"/>
<text xml:space="preserve" text-anchor="middle" x="640.25" y="-294.5" font-family="Helvetica,sans-Serif" font-size="10.00">Serializer::serializeInt</text>
</a>
</g>
</g>
<!-- Node13&#45;&gt;Node14 -->
<g id="edge14_Node000013_Node000014" class="edge">
<title>Node13&#45;&gt;Node14</title>
<g id="a_edge14_Node000013_Node000014"><a xlink:title=" ">
<path fill="none" stroke="#63b8ff" d="M511.78,-283.14C531.58,-285.45 553.6,-288.02 573.7,-290.36"/>
<polygon fill="#63b8ff" stroke="#63b8ff" points="573.11,-293.82 583.45,-291.5 573.92,-286.86 573.11,-293.82"/>
</a>
</g>
</g>
<!-- Node15&#45;&gt;Node9 -->
<g id="edge18_Node000015_Node000009" class="edge">
<title>Node15&#45;&gt;Node9</title>
<g id="a_edge18_Node000015_Node000009"><a xlink:title=" ">
<path fill="none" stroke="#63b8ff" d="M517.58,-231.25C534.53,-229.54 552.76,-227.71 569.83,-225.99"/>
<polygon fill="#63b8ff" stroke="#63b8ff" points="569.74,-229.52 579.34,-225.03 569.04,-222.55 569.74,-229.52"/>
</a>
</g>
</g>
<!-- Node17 -->
<g id="Node000017" class="node">
<title>Node17</title>
<g id="a_Node000017"><a xlink:href="../../de/d2f/class_path_manager.html#a467b459b77c73cbc7544551b53911fcd" target="_top" xlink:title=" ">
<polygon fill="white" stroke="#666666" points="531,-96 368,-96 368,-76 531,-76 531,-96"/>
<text xml:space="preserve" text-anchor="middle" x="449.5" y="-82.5" font-family="Helvetica,sans-Serif" font-size="10.00">PathManager::getExecutableRoot</text>
</a>
</g>
</g>
<!-- Node16&#45;&gt;Node17 -->
<g id="edge20_Node000016_Node000017" class="edge">
<title>Node16&#45;&gt;Node17</title>
<g id="a_edge20_Node000016_Node000017"><a xlink:title=" ">
<path fill="none" stroke="#63b8ff" d="M310.95,-221.56C318.7,-218.22 326.07,-213.82 332,-208 366.63,-174.06 331.97,-137.45 368,-105 369.08,-104.03 370.2,-103.1 371.36,-102.22"/>
<polygon fill="#63b8ff" stroke="#63b8ff" points="372.92,-105.37 379.55,-97.11 369.22,-99.43 372.92,-105.37"/>
</a>
</g>
</g>
<!-- Node19&#45;&gt;Node20 -->
<g id="edge23_Node000019_Node000020" class="edge">
<title>Node19&#45;&gt;Node20</title>
<g id="a_edge23_Node000019_Node000020"><a xlink:title=" ">
<path fill="none" stroke="#63b8ff" d="M317.67,-145.6C322.81,-143.28 327.68,-140.45 332,-137 359.32,-115.15 340.44,-88.55 368,-67 370.6,-64.97 373.38,-63.15 376.29,-61.52"/>
<polygon fill="#63b8ff" stroke="#63b8ff" points="377.66,-64.74 385.22,-57.32 374.68,-58.4 377.66,-64.74"/>
</a>
</g>
</g>
<!-- Node21 -->
<g id="Node000021" class="node">
<title>Node21</title>
<g id="a_Node000021"><a xlink:href="../../de/d2f/class_path_manager.html#a8ef0fd5fd2b9999b0037c1db402d4c50" target="_top" xlink:title=" ">
<polygon fill="white" stroke="#666666" points="703,-96 577.5,-96 577.5,-76 703,-76 703,-96"/>
<text xml:space="preserve" text-anchor="middle" x="640.25" y="-82.5" font-family="Helvetica,sans-Serif" font-size="10.00">PathManager::hasDirSep</text>
</a>
</g>
</g>
<!-- Node20&#45;&gt;Node21 -->
<g id="edge24_Node000020_Node000021" class="edge">
<title>Node20&#45;&gt;Node21</title>
<g id="a_edge24_Node000020_Node000021"><a xlink:title=" ">
<path fill="none" stroke="#63b8ff" d="M502.58,-58.48C525.37,-63.07 552.32,-68.5 576.24,-73.31"/>
<polygon fill="#63b8ff" stroke="#63b8ff" points="575.37,-76.71 585.86,-75.25 576.75,-69.85 575.37,-76.71"/>
</a>
</g>
</g>
<!-- Node22 -->
<g id="Node000022" class="node">
<title>Node22</title>
<g id="a_Node000022"><a xlink:href="../../de/d2f/class_path_manager.html#abc27ded79e24f01da862f4e920ff57af" target="_top" xlink:title=" ">
<polygon fill="white" stroke="#666666" points="713.12,-58 567.38,-58 567.38,-38 713.12,-38 713.12,-58"/>
<text xml:space="preserve" text-anchor="middle" x="640.25" y="-44.5" font-family="Helvetica,sans-Serif" font-size="10.00">PathManager::isAbsolutePath</text>
</a>
</g>
</g>
<!-- Node20&#45;&gt;Node22 -->
<g id="edge25_Node000020_Node000022" class="edge">
<title>Node20&#45;&gt;Node22</title>
<g id="a_edge25_Node000020_Node000022"><a xlink:title=" ">
<path fill="none" stroke="#63b8ff" d="M512.57,-48C526.3,-48 541.07,-48 555.51,-48"/>
<polygon fill="#63b8ff" stroke="#63b8ff" points="555.48,-51.5 565.48,-48 555.48,-44.5 555.48,-51.5"/>
</a>
</g>
</g>
<!-- Node25 -->
<g id="Node000025" class="node">
<title>Node25</title>
<g id="a_Node000025"><a xlink:href="../../de/d2f/class_path_manager.html#ac7b463a435e68be97b75fbd0f1ee0c8f" target="_top" xlink:title=" ">
<polygon fill="white" stroke="#666666" points="713.5,-20 567,-20 567,0 713.5,0 713.5,-20"/>
<text xml:space="preserve" text-anchor="middle" x="640.25" y="-6.5" font-family="Helvetica,sans-Serif" font-size="10.00">PathManager::isDriveRelative</text>
</a>
</g>
</g>
<!-- Node20&#45;&gt;Node25 -->
<g id="edge28_Node000020_Node000025" class="edge">
<title>Node20&#45;&gt;Node25</title>
<g id="a_edge28_Node000020_Node000025"><a xlink:title=" ">
<path fill="none" stroke="#63b8ff" d="M502.58,-37.52C525.37,-32.93 552.32,-27.5 576.24,-22.69"/>
<polygon fill="#63b8ff" stroke="#63b8ff" points="576.75,-26.15 585.86,-20.75 575.37,-19.29 576.75,-26.15"/>
</a>
</g>
</g>
<!-- Node23 -->
<g id="Node000023" class="node">
<title>Node23</title>
<g id="a_Node000023"><a xlink:href="../../de/d2f/class_path_manager.html#acb7f23b0e5687c88e3e32146cfcf315d" target="_top" xlink:title=" ">
<polygon fill="white" stroke="#666666" points="898.25,-77 749.5,-77 749.5,-57 898.25,-57 898.25,-77"/>
<text xml:space="preserve" text-anchor="middle" x="823.88" y="-63.5" font-family="Helvetica,sans-Serif" font-size="10.00">PathManager::isDriveAbsolute</text>
</a>
</g>
</g>
<!-- Node22&#45;&gt;Node23 -->
<g id="edge26_Node000022_Node000023" class="edge">
<title>Node22&#45;&gt;Node23</title>
<g id="a_edge26_Node000022_Node000023"><a xlink:title=" ">
<path fill="none" stroke="#63b8ff" d="M713.55,-55.56C721.49,-56.39 729.62,-57.24 737.69,-58.09"/>
<polygon fill="#63b8ff" stroke="#63b8ff" points="737.22,-61.56 747.53,-59.12 737.95,-54.6 737.22,-61.56"/>
</a>
</g>
</g>
<!-- Node24 -->
<g id="Node000024" class="node">
<title>Node24</title>
<g id="a_Node000024"><a xlink:href="../../de/d2f/class_path_manager.html#ab4625f00b403df325617c2af592e186f" target="_top" xlink:title=" ">
<polygon fill="white" stroke="#666666" points="878.75,-39 769,-39 769,-19 878.75,-19 878.75,-39"/>
<text xml:space="preserve" text-anchor="middle" x="823.88" y="-25.5" font-family="Helvetica,sans-Serif" font-size="10.00">PathManager::isUNC</text>
</a>
</g>
</g>
<!-- Node22&#45;&gt;Node24 -->
<g id="edge27_Node000022_Node000024" class="edge">
<title>Node22&#45;&gt;Node24</title>
<g id="a_edge27_Node000022_Node000024"><a xlink:title=" ">
<path fill="none" stroke="#63b8ff" d="M713.55,-40.44C728.07,-38.92 743.25,-37.33 757.52,-35.84"/>
<polygon fill="#63b8ff" stroke="#63b8ff" points="757.65,-39.34 767.23,-34.82 756.92,-32.38 757.65,-39.34"/>
</a>
</g>
</g>
<!-- Node26&#45;&gt;Node26 -->
<g id="edge31_Node000026_Node000026" class="edge">
<title>Node26&#45;&gt;Node26</title>
<g id="a_edge31_Node000026_Node000026"><a xlink:title=" ">
<path fill="none" stroke="#63b8ff" d="M419.19,-500.34C406.24,-508.98 416.34,-518 449.5,-518 468.15,-518 479.51,-515.14 483.57,-511.11"/>
<polygon fill="#63b8ff" stroke="#63b8ff" points="486.91,-510.05 480.31,-501.77 480.3,-512.36 486.91,-510.05"/>
</a>
</g>
</g>
<!-- Node28&#45;&gt;Node3 -->
<g id="edge40_Node000028_Node000003" class="edge">
<title>Node28&#45;&gt;Node3</title>
<g id="a_edge40_Node000028_Node000003"><a xlink:title=" ">
<path fill="none" stroke="#63b8ff" d="M277.85,-506.49C298.72,-523.56 333.68,-549.82 368,-565 372.28,-566.9 376.78,-568.62 381.38,-570.18"/>
<polygon fill="#63b8ff" stroke="#63b8ff" points="380.16,-573.46 390.75,-573.08 382.23,-566.78 380.16,-573.46"/>
</a>
</g>
</g>
<!-- Node28&#45;&gt;Node18 -->
<g id="edge38_Node000028_Node000018" class="edge">
<title>Node28&#45;&gt;Node18</title>
<g id="a_edge38_Node000028_Node000018"><a xlink:title=" ">
<path fill="none" stroke="#63b8ff" d="M304.09,-506.45C323.63,-513.24 346.8,-520.93 368,-527 376.44,-529.42 385.45,-531.77 394.27,-533.94"/>
<polygon fill="#63b8ff" stroke="#63b8ff" points="393.26,-537.3 403.8,-536.24 394.9,-530.49 393.26,-537.3"/>
</a>
</g>
</g>
<!-- Node28&#45;&gt;Node26 -->
<g id="edge39_Node000028_Node000026" class="edge">
<title>Node28&#45;&gt;Node26</title>
<g id="a_edge39_Node000028_Node000026"><a xlink:title=" ">
<path fill="none" stroke="#63b8ff" d="M330.14,-490C355.62,-490 383.51,-490 405.81,-490"/>
<polygon fill="#63b8ff" stroke="#63b8ff" points="405.73,-493.5 415.73,-490 405.73,-486.5 405.73,-493.5"/>
</a>
</g>
</g>
<!-- Node29 -->
<g id="Node000029" class="node">
<title>Node29</title>
<g id="a_Node000029"><a xlink:href="../../da/d21/class_network_manager.html#ad6d9928959397e1cfa4f6c0f322a20fd" target="_top" xlink:title=" ">
<polygon fill="white" stroke="#666666" points="521.25,-374 377.75,-374 377.75,-342 521.25,-342 521.25,-374"/>
<text xml:space="preserve" text-anchor="start" x="385.75" y="-360.5" font-family="Helvetica,sans-Serif" font-size="10.00">NetworkManager::buildImage</text>
<text xml:space="preserve" text-anchor="middle" x="449.5" y="-348.5" font-family="Helvetica,sans-Serif" font-size="10.00">ChunkFrame</text>
</a>
</g>
</g>
<!-- Node28&#45;&gt;Node29 -->
<g id="edge34_Node000028_Node000029" class="edge">
<title>Node28&#45;&gt;Node29</title>
<g id="a_edge34_Node000028_Node000029"><a xlink:title=" ">
<path fill="none" stroke="#63b8ff" d="M282.29,-473.55C315.92,-450.17 377.68,-407.23 415.71,-380.79"/>
<polygon fill="#63b8ff" stroke="#63b8ff" points="417.38,-383.9 423.59,-375.31 413.39,-378.15 417.38,-383.9"/>
</a>
</g>
</g>
<!-- Node29&#45;&gt;Node5 -->
<g id="edge36_Node000029_Node000005" class="edge">
<title>Node29&#45;&gt;Node5</title>
<g id="a_edge36_Node000029_Node000005"><a xlink:title=" ">
<path fill="none" stroke="#63b8ff" d="M521.59,-358C535.69,-358 550.53,-358 564.74,-358"/>
<polygon fill="#63b8ff" stroke="#63b8ff" points="564.46,-361.5 574.46,-358 564.46,-354.5 564.46,-361.5"/>
</a>
</g>
</g>
<!-- Node29&#45;&gt;Node6 -->
<g id="edge37_Node000029_Node000006" class="edge">
<title>Node29&#45;&gt;Node6</title>
<g id="a_edge37_Node000029_Node000006"><a xlink:title=" ">
<path fill="none" stroke="#63b8ff" d="M521.05,-374.45C541.53,-379.22 563.62,-384.37 583.09,-388.91"/>
<polygon fill="#63b8ff" stroke="#63b8ff" points="582.21,-392.3 592.75,-391.16 583.8,-385.48 582.21,-392.3"/>
</a>
</g>
</g>
<!-- Node29&#45;&gt;Node14 -->
<g id="edge35_Node000029_Node000014" class="edge">
<title>Node29&#45;&gt;Node14</title>
<g id="a_edge35_Node000029_Node000014"><a xlink:title=" ">
<path fill="none" stroke="#63b8ff" d="M502.33,-341.53C531.49,-332.26 567.5,-320.81 595.27,-311.98"/>
<polygon fill="#63b8ff" stroke="#63b8ff" points="596.33,-315.32 604.8,-308.95 594.21,-308.64 596.33,-315.32"/>
</a>
</g>
</g>
</g>
</svg>

<g id="navigator" transform="translate(0 0)" fill="#404254">
  <rect fill="#f2f5e9" fill-opacity="0.5" stroke="#606060" stroke-width=".5" x="0" y="0" width="60" height="60"/>
  <use id="zoomplus" xlink:href="#zoomPlus" x="17" y="9" onmousedown="handleZoom(evt,'in')"/>
  <use id="zoomminus" xlink:href="#zoomMin" x="42" y="9" onmousedown="handleZoom(evt,'out')"/>
  <use id="reset" xlink:href="#resetDef" x="30" y="36" onmousedown="handleReset()"/>
   <use id="arrowup" xlink:href="#arrowUp" x="0" y="0" onmousedown="handlePan(0,-1)"/>
  <use id="arrowright" xlink:href="#arrowRight" x="0" y="0" onmousedown="handlePan(1,0)"/>
  <use id="arrowdown" xlink:href="#arrowDown" x="0" y="0" onmousedown="handlePan(0,1)"/>
  <use id="arrowleft" xlink:href="#arrowLeft" x="0" y="0" onmousedown="handlePan(-1,0)"/>
</g>
<svg viewBox="0 0 15 15" width="100%" height="30px" preserveAspectRatio="xMaxYMin meet">
 <g id="arrow_out" transform="scale(0.3 0.3)">
  <a xlink:href="class_network_manager_a88303e860c818888a1cdd7d40bc19bf3_cgraph_org.svg" target="_base">
   <rect id="button" ry="5" rx="5" y="6" x="6" height="38" width="38"
        fill="#f2f5e9" fill-opacity="0.5" stroke="#606060" stroke-width="1.0"/>
   <path id="arrow"
     d="M 11.500037,31.436501 C 11.940474,20.09759 22.043105,11.32322 32.158766,21.979434 L 37.068811,17.246167 C 37.068811,17.246167 37.088388,32 37.088388,32 L 22.160133,31.978069 C 22.160133,31.978069 26.997745,27.140456 26.997745,27.140456 C 18.528582,18.264221 13.291696,25.230495 11.500037,31.436501 z"
     style="fill:#404040;"/>
  </a>
 </g>
</svg>

<style type='text/css'>
<![CDATA[
[data-mouse-over-selected='false'] { opacity: 0.7; }
[data-mouse-over-selected='true']  { opacity: 1.0; }
]]>
</style>
<script type="application/ecmascript"><![CDATA[
document.addEventListener('DOMContentLoaded', (event) => {
  highlightEdges();
  highlightAdjacentNodes();
});
]]></script>
</svg>
