<?xml version="1.0" encoding="UTF-8" standalone="no"?>
<!DOCTYPE svg PUBLIC "-//W3C//DTD SVG 1.1//EN"
 "http://www.w3.org/Graphics/SVG/1.1/DTD/svg11.dtd">
<!-- Generated by graphviz version 14.0.2 (20251019.1705)
 -->
<!-- Title: include/debug/Logger.h Pages: 1 -->
<svg width="747pt" height="84pt"
 viewBox="0.00 0.00 747.00 84.00" xmlns="http://www.w3.org/2000/svg" xmlns:xlink="http://www.w3.org/1999/xlink">
<g id="graph0" class="graph" transform="scale(1 1) rotate(0) translate(4 80)">
<title>include/debug/Logger.h</title>
<!-- Node1 -->
<g id="Node000001" class="node">
<title>Node1</title>
<g id="a_Node000001"><a xlink:title=" ">
<polygon fill="#999999" stroke="#666666" points="429.75,-76 313.25,-76 313.25,-56 429.75,-56 429.75,-76"/>
<text xml:space="preserve" text-anchor="middle" x="371.5" y="-62.5" font-family="Helvetica,sans-Serif" font-size="10.00">include/debug/Logger.h</text>
</a>
</g>
</g>
<!-- Node2 -->
<g id="Node000002" class="node">
<title>Node2</title>
<g id="a_Node000002"><a xlink:title=" ">
<polygon fill="#e0e0e0" stroke="#999999" points="43,-20 0,-20 0,0 43,0 43,-20"/>
<text xml:space="preserve" text-anchor="middle" x="21.5" y="-6.5" font-family="Helvetica,sans-Serif" font-size="10.00">mutex</text>
</a>
</g>
</g>
<!-- Node1&#45;&gt;Node2 -->
<g id="edge1_Node000001_Node000002" class="edge">
<title>Node1&#45;&gt;Node2</title>
<g id="a_edge1_Node000001_Node000002"><a xlink:title=" ">
<path fill="none" stroke="#63b8ff" d="M312.85,-59.26C250.91,-52.63 150.27,-40.26 54.47,-20.14"/>
<polygon fill="#63b8ff" stroke="#63b8ff" points="55.41,-16.76 44.9,-18.1 53.95,-23.61 55.41,-16.76"/>
</a>
</g>
</g>
<!-- Node3 -->
<g id="Node000003" class="node">
<title>Node3</title>
<g id="a_Node000003"><a xlink:title=" ">
<polygon fill="#e0e0e0" stroke="#999999" points="143.88,-20 61.12,-20 61.12,0 143.88,0 143.88,-20"/>
<text xml:space="preserve" text-anchor="middle" x="102.5" y="-6.5" font-family="Helvetica,sans-Serif" font-size="10.00">unordered_map</text>
</a>
</g>
</g>
<!-- Node1&#45;&gt;Node3 -->
<g id="edge2_Node000001_Node000003" class="edge">
<title>Node1&#45;&gt;Node3</title>
<g id="a_edge2_Node000001_Node000003"><a xlink:title=" ">
<path fill="none" stroke="#63b8ff" d="M324.34,-55.53C277.09,-46.05 204.5,-31.48 155.34,-21.61"/>
<polygon fill="#63b8ff" stroke="#63b8ff" points="156.28,-18.23 145.79,-19.69 154.9,-25.09 156.28,-18.23"/>
</a>
</g>
</g>
<!-- Node4 -->
<g id="Node000004" class="node">
<title>Node4</title>
<g id="a_Node000004"><a xlink:title=" ">
<polygon fill="#e0e0e0" stroke="#999999" points="204.62,-20 162.38,-20 162.38,0 204.62,0 204.62,-20"/>
<text xml:space="preserve" text-anchor="middle" x="183.5" y="-6.5" font-family="Helvetica,sans-Serif" font-size="10.00">deque</text>
</a>
</g>
</g>
<!-- Node1&#45;&gt;Node4 -->
<g id="edge3_Node000001_Node000004" class="edge">
<title>Node1&#45;&gt;Node4</title>
<g id="a_edge3_Node000001_Node000004"><a xlink:title=" ">
<path fill="none" stroke="#63b8ff" d="M337.86,-55.57C308.1,-47.19 263.22,-34.47 215.89,-20.67"/>
<polygon fill="#63b8ff" stroke="#63b8ff" points="217.15,-17.4 206.57,-17.95 215.19,-24.11 217.15,-17.4"/>
</a>
</g>
</g>
<!-- Node5 -->
<g id="Node000005" class="node">
<title>Node5</title>
<g id="a_Node000005"><a xlink:title=" ">
<polygon fill="#e0e0e0" stroke="#999999" points="266,-20 223,-20 223,0 266,0 266,-20"/>
<text xml:space="preserve" text-anchor="middle" x="244.5" y="-6.5" font-family="Helvetica,sans-Serif" font-size="10.00">vector</text>
</a>
</g>
</g>
<!-- Node1&#45;&gt;Node5 -->
<g id="edge4_Node000001_Node000005" class="edge">
<title>Node1&#45;&gt;Node5</title>
<g id="a_edge4_Node000001_Node000005"><a xlink:title=" ">
<path fill="none" stroke="#63b8ff" d="M349.38,-55.59C329.35,-47.08 299.58,-34.42 276.88,-24.77"/>
<polygon fill="#63b8ff" stroke="#63b8ff" points="278.33,-21.58 267.76,-20.89 275.59,-28.02 278.33,-21.58"/>
</a>
</g>
</g>
<!-- Node6 -->
<g id="Node000006" class="node">
<title>Node6</title>
<g id="a_Node000006"><a xlink:title=" ">
<polygon fill="#e0e0e0" stroke="#999999" points="324.5,-20 284.5,-20 284.5,0 324.5,0 324.5,-20"/>
<text xml:space="preserve" text-anchor="middle" x="304.5" y="-6.5" font-family="Helvetica,sans-Serif" font-size="10.00">string</text>
</a>
</g>
</g>
<!-- Node1&#45;&gt;Node6 -->
<g id="edge5_Node000001_Node000006" class="edge">
<title>Node1&#45;&gt;Node6</title>
<g id="a_edge5_Node000001_Node000006"><a xlink:title=" ">
<path fill="none" stroke="#63b8ff" d="M359.83,-55.59C350.22,-47.85 336.37,-36.69 324.93,-27.47"/>
<polygon fill="#63b8ff" stroke="#63b8ff" points="327.2,-24.8 317.22,-21.25 322.8,-30.25 327.2,-24.8"/>
</a>
</g>
</g>
<!-- Node7 -->
<g id="Node000007" class="node">
<title>Node7</title>
<g id="a_Node000007"><a xlink:title=" ">
<polygon fill="#e0e0e0" stroke="#999999" points="400.5,-20 342.5,-20 342.5,0 400.5,0 400.5,-20"/>
<text xml:space="preserve" text-anchor="middle" x="371.5" y="-6.5" font-family="Helvetica,sans-Serif" font-size="10.00">functional</text>
</a>
</g>
</g>
<!-- Node1&#45;&gt;Node7 -->
<g id="edge6_Node000001_Node000007" class="edge">
<title>Node1&#45;&gt;Node7</title>
<g id="a_edge6_Node000001_Node000007"><a xlink:title=" ">
<path fill="none" stroke="#63b8ff" d="M371.5,-55.59C371.5,-49.01 371.5,-39.96 371.5,-31.73"/>
<polygon fill="#63b8ff" stroke="#63b8ff" points="375,-31.81 371.5,-21.81 368,-31.81 375,-31.81"/>
</a>
</g>
</g>
<!-- Node8 -->
<g id="Node000008" class="node">
<title>Node8</title>
<g id="a_Node000008"><a xlink:title=" ">
<polygon fill="#e0e0e0" stroke="#999999" points="474.38,-20 418.62,-20 418.62,0 474.38,0 474.38,-20"/>
<text xml:space="preserve" text-anchor="middle" x="446.5" y="-6.5" font-family="Helvetica,sans-Serif" font-size="10.00">algorithm</text>
</a>
</g>
</g>
<!-- Node1&#45;&gt;Node8 -->
<g id="edge7_Node000001_Node000008" class="edge">
<title>Node1&#45;&gt;Node8</title>
<g id="a_edge7_Node000001_Node000008"><a xlink:title=" ">
<path fill="none" stroke="#63b8ff" d="M384.56,-55.59C395.47,-47.74 411.25,-36.38 424.16,-27.09"/>
<polygon fill="#63b8ff" stroke="#63b8ff" points="426.04,-30.05 432.11,-21.36 421.95,-24.37 426.04,-30.05"/>
</a>
</g>
</g>
<!-- Node9 -->
<g id="Node000009" class="node">
<title>Node9</title>
<g id="a_Node000009"><a xlink:title=" ">
<polygon fill="#e0e0e0" stroke="#999999" points="544.12,-20 492.88,-20 492.88,0 544.12,0 544.12,-20"/>
<text xml:space="preserve" text-anchor="middle" x="518.5" y="-6.5" font-family="Helvetica,sans-Serif" font-size="10.00">memory</text>
</a>
</g>
</g>
<!-- Node1&#45;&gt;Node9 -->
<g id="edge8_Node000001_Node000009" class="edge">
<title>Node1&#45;&gt;Node9</title>
<g id="a_edge8_Node000001_Node000009"><a xlink:title=" ">
<path fill="none" stroke="#63b8ff" d="M397.11,-55.59C420.57,-46.97 455.57,-34.12 481.97,-24.42"/>
<polygon fill="#63b8ff" stroke="#63b8ff" points="483.09,-27.73 491.27,-21 480.68,-21.16 483.09,-27.73"/>
</a>
</g>
</g>
<!-- Node10 -->
<g id="Node000010" class="node">
<title>Node10</title>
<g id="a_Node000010"><a xlink:title=" ">
<polygon fill="#e0e0e0" stroke="#999999" points="613.12,-20 561.88,-20 561.88,0 613.12,0 613.12,-20"/>
<text xml:space="preserve" text-anchor="middle" x="587.5" y="-6.5" font-family="Helvetica,sans-Serif" font-size="10.00">ostream</text>
</a>
</g>
</g>
<!-- Node1&#45;&gt;Node10 -->
<g id="edge9_Node000001_Node000010" class="edge">
<title>Node1&#45;&gt;Node10</title>
<g id="a_edge9_Node000001_Node000010"><a xlink:title=" ">
<path fill="none" stroke="#63b8ff" d="M410.6,-55.53C445.11,-47.13 497.07,-34.37 550.47,-20.75"/>
<polygon fill="#63b8ff" stroke="#63b8ff" points="551.24,-24.17 560.06,-18.3 549.5,-17.38 551.24,-24.17"/>
</a>
</g>
</g>
<!-- Node11 -->
<g id="Node000011" class="node">
<title>Node11</title>
<g id="a_Node000011"><a xlink:title=" ">
<polygon fill="#e0e0e0" stroke="#999999" points="676.12,-20 630.88,-20 630.88,0 676.12,0 676.12,-20"/>
<text xml:space="preserve" text-anchor="middle" x="653.5" y="-6.5" font-family="Helvetica,sans-Serif" font-size="10.00">chrono</text>
</a>
</g>
</g>
<!-- Node1&#45;&gt;Node11 -->
<g id="edge10_Node000001_Node000011" class="edge">
<title>Node1&#45;&gt;Node11</title>
<g id="a_edge10_Node000001_Node000011"><a xlink:title=" ">
<path fill="none" stroke="#63b8ff" d="M430.18,-56.27C478.68,-48.65 549.55,-36.59 619.36,-20.56"/>
<polygon fill="#63b8ff" stroke="#63b8ff" points="620.13,-23.98 629.07,-18.3 618.54,-17.16 620.13,-23.98"/>
</a>
</g>
</g>
<!-- Node12 -->
<g id="Node000012" class="node">
<title>Node12</title>
<g id="a_Node000012"><a xlink:title=" ">
<polygon fill="#e0e0e0" stroke="#999999" points="739.12,-20 693.88,-20 693.88,0 739.12,0 739.12,-20"/>
<text xml:space="preserve" text-anchor="middle" x="716.5" y="-6.5" font-family="Helvetica,sans-Serif" font-size="10.00">cctype</text>
</a>
</g>
</g>
<!-- Node1&#45;&gt;Node12 -->
<g id="edge11_Node000001_Node000012" class="edge">
<title>Node1&#45;&gt;Node12</title>
<g id="a_edge11_Node000001_Node000012"><a xlink:title=" ">
<path fill="none" stroke="#63b8ff" d="M430.1,-59.09C491.08,-52.38 589.5,-40 682.54,-20.41"/>
<polygon fill="#63b8ff" stroke="#63b8ff" points="683.04,-23.88 692.09,-18.36 681.58,-17.04 683.04,-23.88"/>
</a>
</g>
</g>
</g>
</svg>
