<?xml version="1.0" encoding="UTF-8" standalone="no"?>
<!DOCTYPE svg PUBLIC "-//W3C//DTD SVG 1.1//EN"
 "http://www.w3.org/Graphics/SVG/1.1/DTD/svg11.dtd">
<!-- Generated by graphviz version 14.0.2 (20251019.1705)
 -->
<!-- Title: DirectoryWindow::renderDirectory Pages: 1 -->
<svg width="358pt" height="90pt"
 viewBox="0.00 0.00 358.00 90.00" xmlns="http://www.w3.org/2000/svg" xmlns:xlink="http://www.w3.org/1999/xlink">
<g id="graph0" class="graph" transform="scale(1 1) rotate(0) translate(4 86)">
<title>DirectoryWindow::renderDirectory</title>
<!-- Node1 -->
<g id="Node000001" class="node">
<title>Node1</title>
<g id="a_Node000001"><a xlink:title=" ">
<polygon fill="#999999" stroke="#666666" points="163.75,-51 0,-51 0,-31 163.75,-31 163.75,-51"/>
<text xml:space="preserve" text-anchor="middle" x="81.88" y="-37.5" font-family="Helvetica,sans-Serif" font-size="10.00">DirectoryWindow::renderDirectory</text>
</a>
</g>
</g>
<!-- Node2 -->
<g id="Node000002" class="node">
<title>Node2</title>
<g id="a_Node000002"><a xlink:href="../../d4/db8/class_directory_window.html#a79841f306a66b8294dd5214704f3eac7" target="_top" xlink:title=" ">
<polygon fill="white" stroke="#666666" points="350,-82 199.75,-82 199.75,-50 350,-50 350,-82"/>
<text xml:space="preserve" text-anchor="start" x="207.75" y="-68.5" font-family="Helvetica,sans-Serif" font-size="10.00">DirectoryWindow::LoadTexture</text>
<text xml:space="preserve" text-anchor="middle" x="274.88" y="-56.5" font-family="Helvetica,sans-Serif" font-size="10.00">FromFile</text>
</a>
</g>
</g>
<!-- Node1&#45;&gt;Node2 -->
<g id="edge1_Node000001_Node000002" class="edge">
<title>Node1&#45;&gt;Node2</title>
<g id="a_edge1_Node000001_Node000002"><a xlink:title=" ">
<path fill="none" stroke="#63b8ff" d="M163.05,-51.49C171.33,-52.58 179.77,-53.68 188.11,-54.77"/>
<polygon fill="#63b8ff" stroke="#63b8ff" points="187.52,-58.23 197.89,-56.05 188.43,-51.29 187.52,-58.23"/>
</a>
</g>
</g>
<!-- Node3 -->
<g id="Node000003" class="node">
<title>Node3</title>
<g id="a_Node000003"><a xlink:href="../../d4/db8/class_directory_window.html#a2cf68068c1d14ad4435d84074a2239cc" target="_top" xlink:title=" ">
<polygon fill="white" stroke="#666666" points="342.5,-32 207.25,-32 207.25,0 342.5,0 342.5,-32"/>
<text xml:space="preserve" text-anchor="start" x="215.25" y="-18.5" font-family="Helvetica,sans-Serif" font-size="10.00">DirectoryWindow::Truncate</text>
<text xml:space="preserve" text-anchor="middle" x="274.88" y="-6.5" font-family="Helvetica,sans-Serif" font-size="10.00">String</text>
</a>
</g>
</g>
<!-- Node1&#45;&gt;Node3 -->
<g id="edge2_Node000001_Node000003" class="edge">
<title>Node1&#45;&gt;Node3</title>
<g id="a_edge2_Node000001_Node000003"><a xlink:title=" ">
<path fill="none" stroke="#63b8ff" d="M163.05,-30.51C173.88,-29.09 184.99,-27.63 195.78,-26.22"/>
<polygon fill="#63b8ff" stroke="#63b8ff" points="195.94,-29.73 205.4,-24.96 195.03,-22.79 195.94,-29.73"/>
</a>
</g>
</g>
</g>
</svg>
