<?xml version="1.0" encoding="UTF-8" standalone="no"?>
<!DOCTYPE svg PUBLIC "-//W3C//DTD SVG 1.1//EN"
 "http://www.w3.org/Graphics/SVG/1.1/DTD/svg11.dtd">
<!-- Generated by graphviz version 14.0.2 (20251019.1705)
 -->
<!-- Title: DebugActions::ToasterChanged Pages: 1 -->
<svg width="491pt" height="40pt"
 viewBox="0.00 0.00 491.00 40.00" xmlns="http://www.w3.org/2000/svg" xmlns:xlink="http://www.w3.org/1999/xlink">
<g id="graph0" class="graph" transform="scale(1 1) rotate(0) translate(4 36)">
<title>DebugActions::ToasterChanged</title>
<!-- Node1 -->
<g id="Node000001" class="node">
<title>Node1</title>
<g id="a_Node000001"><a xlink:title=" ">
<polygon fill="#999999" stroke="#666666" points="483,-26 328.25,-26 328.25,-6 483,-6 483,-26"/>
<text xml:space="preserve" text-anchor="middle" x="405.62" y="-12.5" font-family="Helvetica,sans-Serif" font-size="10.00">DebugActions::ToasterChanged</text>
</a>
</g>
</g>
<!-- Node2 -->
<g id="Node000002" class="node">
<title>Node2</title>
<g id="a_Node000002"><a xlink:href="../../d9/d94/namespace_debug_actions.html#ab01b32376c3f2c27c176777985893ccd" target="_top" xlink:title=" ">
<polygon fill="white" stroke="#666666" points="292.25,-32 139.75,-32 139.75,0 292.25,0 292.25,-32"/>
<text xml:space="preserve" text-anchor="start" x="147.75" y="-18.5" font-family="Helvetica,sans-Serif" font-size="10.00">DebugActions::RegisterToaster</text>
<text xml:space="preserve" text-anchor="middle" x="216" y="-6.5" font-family="Helvetica,sans-Serif" font-size="10.00">Toggles</text>
</a>
</g>
</g>
<!-- Node1&#45;&gt;Node2 -->
<g id="edge1_Node000001_Node000002" class="edge">
<title>Node1&#45;&gt;Node2</title>
<g id="a_edge1_Node000001_Node000002"><a xlink:title=" ">
<path fill="none" stroke="#63b8ff" d="M316.5,-16C308.48,-16 300.41,-16 292.52,-16"/>
<polygon fill="#63b8ff" stroke="#63b8ff" points="316.26,-19.5 326.26,-16 316.26,-12.5 316.26,-19.5"/>
</a>
</g>
</g>
<!-- Node3 -->
<g id="Node000003" class="node">
<title>Node3</title>
<g id="a_Node000003"><a xlink:href="../../d4/d97/class_application_handler.html#a5488b63e5eb5617c18e2a85c0e2d8703" target="_top" xlink:title=" ">
<polygon fill="white" stroke="#666666" points="103.75,-32 0,-32 0,0 103.75,0 103.75,-32"/>
<text xml:space="preserve" text-anchor="start" x="8" y="-18.5" font-family="Helvetica,sans-Serif" font-size="10.00">ApplicationHandler</text>
<text xml:space="preserve" text-anchor="middle" x="51.88" y="-6.5" font-family="Helvetica,sans-Serif" font-size="10.00">::ApplicationHandler</text>
</a>
</g>
</g>
<!-- Node2&#45;&gt;Node3 -->
<g id="edge2_Node000002_Node000003" class="edge">
<title>Node2&#45;&gt;Node3</title>
<g id="a_edge2_Node000002_Node000003"><a xlink:title=" ">
<path fill="none" stroke="#63b8ff" d="M128.3,-16C120,-16 111.78,-16 103.98,-16"/>
<polygon fill="#63b8ff" stroke="#63b8ff" points="128.12,-19.5 138.12,-16 128.12,-12.5 128.12,-19.5"/>
</a>
</g>
</g>
</g>
</svg>
