<?xml version="1.0" encoding="UTF-8" standalone="no"?>
<!DOCTYPE svg PUBLIC "-//W3C//DTD SVG 1.1//EN"
 "http://www.w3.org/Graphics/SVG/1.1/DTD/svg11.dtd">
<!-- Generated by graphviz version 14.0.2 (20251019.1705)
 -->
<!-- Title: DebugActions::PingLogTick Pages: 1 -->
<svg width="333pt" height="122pt"
 viewBox="0.00 0.00 333.00 122.00" xmlns="http://www.w3.org/2000/svg" xmlns:xlink="http://www.w3.org/1999/xlink">
<g id="graph0" class="graph" transform="scale(1 1) rotate(0) translate(4 118)">
<title>DebugActions::PingLogTick</title>
<!-- Node1 -->
<g id="Node000001" class="node">
<title>Node1</title>
<g id="a_Node000001"><a xlink:title=" ">
<polygon fill="#999999" stroke="#666666" points="137.5,-58 0,-58 0,-38 137.5,-38 137.5,-58"/>
<text xml:space="preserve" text-anchor="middle" x="68.75" y="-44.5" font-family="Helvetica,sans-Serif" font-size="10.00">DebugActions::PingLogTick</text>
</a>
</g>
</g>
<!-- Node2 -->
<g id="Node000002" class="node">
<title>Node2</title>
<g id="a_Node000002"><a xlink:href="../../d3/d42/class_logger.html#aebb248e608f8e2724de20b482cb2a15f" target="_top" xlink:title=" ">
<polygon fill="white" stroke="#666666" points="293,-114 205,-114 205,-94 293,-94 293,-114"/>
<text xml:space="preserve" text-anchor="middle" x="249" y="-100.5" font-family="Helvetica,sans-Serif" font-size="10.00">Logger::instance</text>
</a>
</g>
</g>
<!-- Node1&#45;&gt;Node2 -->
<g id="edge1_Node000001_Node000002" class="edge">
<title>Node1&#45;&gt;Node2</title>
<g id="a_edge1_Node000001_Node000002"><a xlink:title=" ">
<path fill="none" stroke="#63b8ff" d="M96.82,-58.43C117.63,-66.26 147.16,-76.96 173.5,-85 180.12,-87.02 187.11,-89 194.06,-90.88"/>
<polygon fill="#63b8ff" stroke="#63b8ff" points="192.84,-94.17 203.41,-93.34 194.63,-87.41 192.84,-94.17"/>
</a>
</g>
</g>
<!-- Node3 -->
<g id="Node000003" class="node">
<title>Node3</title>
<g id="a_Node000003"><a xlink:href="../../d3/d42/class_logger.html#ab77a9a6a08954192b47c39f359b5d370" target="_top" xlink:title=" ">
<polygon fill="white" stroke="#666666" points="281,-58 217,-58 217,-38 281,-38 281,-58"/>
<text xml:space="preserve" text-anchor="middle" x="249" y="-44.5" font-family="Helvetica,sans-Serif" font-size="10.00">Logger::log</text>
</a>
</g>
</g>
<!-- Node1&#45;&gt;Node3 -->
<g id="edge2_Node000001_Node000003" class="edge">
<title>Node1&#45;&gt;Node3</title>
<g id="a_edge2_Node000001_Node000003"><a xlink:title=" ">
<path fill="none" stroke="#63b8ff" d="M137.9,-48C160.58,-48 185.17,-48 205.35,-48"/>
<polygon fill="#63b8ff" stroke="#63b8ff" points="205.17,-51.5 215.17,-48 205.17,-44.5 205.17,-51.5"/>
</a>
</g>
</g>
<!-- Node4 -->
<g id="Node000004" class="node">
<title>Node4</title>
<g id="a_Node000004"><a xlink:href="../../d9/d94/namespace_debug_actions.html#a627884124505b8c816228d512673be7e" target="_top" xlink:title=" ">
<polygon fill="white" stroke="#666666" points="324.5,-20 173.5,-20 173.5,0 324.5,0 324.5,-20"/>
<text xml:space="preserve" text-anchor="middle" x="249" y="-6.5" font-family="Helvetica,sans-Serif" font-size="10.00">DebugActions::timeElapsedMs</text>
</a>
</g>
</g>
<!-- Node1&#45;&gt;Node4 -->
<g id="edge4_Node000001_Node000004" class="edge">
<title>Node1&#45;&gt;Node4</title>
<g id="a_edge4_Node000001_Node000004"><a xlink:title=" ">
<path fill="none" stroke="#63b8ff" d="M118.93,-37.52C140.26,-32.97 165.45,-27.6 187.88,-22.82"/>
<polygon fill="#63b8ff" stroke="#63b8ff" points="188.45,-26.27 197.5,-20.77 186.99,-19.43 188.45,-26.27"/>
</a>
</g>
</g>
<!-- Node3&#45;&gt;Node3 -->
<g id="edge3_Node000003_Node000003" class="edge">
<title>Node3&#45;&gt;Node3</title>
<g id="a_edge3_Node000003_Node000003"><a xlink:title=" ">
<path fill="none" stroke="#63b8ff" d="M220.36,-58.34C208.12,-66.98 217.67,-76 249,-76 266.62,-76 277.36,-73.14 281.19,-69.11"/>
<polygon fill="#63b8ff" stroke="#63b8ff" points="284.57,-68.18 278.11,-59.78 277.92,-70.37 284.57,-68.18"/>
</a>
</g>
</g>
</g>
</svg>
