<?xml version="1.0" encoding="UTF-8" standalone="no"?>
<!DOCTYPE svg PUBLIC "-//W3C//DTD SVG 1.1//EN"
 "http://www.w3.org/Graphics/SVG/1.1/DTD/svg11.dtd">
<!-- Generated by graphviz version 2.43.0 (0)
 -->
<!-- Title: PeerLink::sendOn Pages: 1 -->
<svg width="294pt" height="175pt"
 viewBox="0.00 0.00 294.00 175.00" xmlns="http://www.w3.org/2000/svg" xmlns:xlink="http://www.w3.org/1999/xlink">
<g id="graph0" class="graph" transform="scale(1 1) rotate(0) translate(4 171)">
<title>PeerLink::sendOn</title>
<!-- Node1 -->
<g id="Node000001" class="node">
<title>Node1</title>
<g id="a_Node000001"><a xlink:title=" ">
<polygon fill="#999999" stroke="#666666" points="286,-93 185,-93 185,-74 286,-74 286,-93"/>
<text text-anchor="middle" x="235.5" y="-81" font-family="Helvetica,sans-Serif" font-size="10.00">PeerLink::sendOn</text>
</a>
</g>
</g>
<!-- Node2 -->
<g id="Node000002" class="node">
<title>Node2</title>
<g id="a_Node000002"><a xlink:href="../../db/d08/classPeerLink.html#ae695d62c9d0c40de4095b788d16ffa14" target="_top" xlink:title=" ">
<polygon fill="white" stroke="#666666" points="129.5,-167 19.5,-167 19.5,-148 129.5,-148 129.5,-167"/>
<text text-anchor="middle" x="74.5" y="-155" font-family="Helvetica,sans-Serif" font-size="10.00">PeerLink::sendChat</text>
</a>
</g>
</g>
<!-- Node1&#45;&gt;Node2 -->
<g id="edge1_Node000001_Node000002" class="edge">
<title>Node1&#45;&gt;Node2</title>
<g id="a_edge1_Node000001_Node000002"><a xlink:title=" ">
<path fill="none" stroke="#63b8ff" d="M214.43,-99.49C197.78,-112.03 173.03,-129.06 149,-139.5 141.29,-142.85 132.84,-145.65 124.5,-147.97"/>
<polygon fill="#63b8ff" stroke="#63b8ff" points="217,-101.93 222.79,-93.05 212.73,-96.38 217,-101.93"/>
</a>
</g>
</g>
<!-- Node3 -->
<g id="Node000003" class="node">
<title>Node3</title>
<g id="a_Node000003"><a xlink:href="../../db/d08/classPeerLink.html#a42cec64b3bb231e08dbf2e1a1255cb0b" target="_top" xlink:title=" ">
<polygon fill="white" stroke="#666666" points="140,-130 9,-130 9,-111 140,-111 140,-130"/>
<text text-anchor="middle" x="74.5" y="-118" font-family="Helvetica,sans-Serif" font-size="10.00">PeerLink::sendChatJson</text>
</a>
</g>
</g>
<!-- Node1&#45;&gt;Node3 -->
<g id="edge2_Node000001_Node000003" class="edge">
<title>Node1&#45;&gt;Node3</title>
<g id="a_edge2_Node000001_Node000003"><a xlink:title=" ">
<path fill="none" stroke="#63b8ff" d="M183.55,-95.36C161.91,-100.39 137.02,-106.18 116.58,-110.94"/>
<polygon fill="#63b8ff" stroke="#63b8ff" points="184.61,-98.7 193.55,-93.03 183.02,-91.89 184.61,-98.7"/>
</a>
</g>
</g>
<!-- Node4 -->
<g id="Node000004" class="node">
<title>Node4</title>
<g id="a_Node000004"><a xlink:href="../../db/d08/classPeerLink.html#a99198972a845babd476bbbf2b76d62fd" target="_top" xlink:title=" ">
<polygon fill="white" stroke="#666666" points="133,-93 16,-93 16,-74 133,-74 133,-93"/>
<text text-anchor="middle" x="74.5" y="-81" font-family="Helvetica,sans-Serif" font-size="10.00">PeerLink::sendGame</text>
</a>
</g>
</g>
<!-- Node1&#45;&gt;Node4 -->
<g id="edge3_Node000001_Node000004" class="edge">
<title>Node1&#45;&gt;Node4</title>
<g id="a_edge3_Node000001_Node000004"><a xlink:title=" ">
<path fill="none" stroke="#63b8ff" d="M174.48,-83.5C160.97,-83.5 146.66,-83.5 133.25,-83.5"/>
<polygon fill="#63b8ff" stroke="#63b8ff" points="174.63,-87 184.63,-83.5 174.63,-80 174.63,-87"/>
</a>
</g>
</g>
<!-- Node5 -->
<g id="Node000005" class="node">
<title>Node5</title>
<g id="a_Node000005"><a xlink:href="../../db/d08/classPeerLink.html#aac284ff5355b02f9ab5859f6aca8861c" target="_top" xlink:title=" ">
<polygon fill="white" stroke="#666666" points="149,-56 0,-56 0,-37 149,-37 149,-56"/>
<text text-anchor="middle" x="74.5" y="-44" font-family="Helvetica,sans-Serif" font-size="10.00">PeerLink::sendMarkerMove</text>
</a>
</g>
</g>
<!-- Node1&#45;&gt;Node5 -->
<g id="edge4_Node000001_Node000005" class="edge">
<title>Node1&#45;&gt;Node5</title>
<g id="a_edge4_Node000001_Node000005"><a xlink:title=" ">
<path fill="none" stroke="#63b8ff" d="M183.55,-71.64C161.91,-66.61 137.02,-60.82 116.58,-56.06"/>
<polygon fill="#63b8ff" stroke="#63b8ff" points="183.02,-75.11 193.55,-73.97 184.61,-68.3 183.02,-75.11"/>
</a>
</g>
</g>
<!-- Node6 -->
<g id="Node000006" class="node">
<title>Node6</title>
<g id="a_Node000006"><a xlink:href="../../db/d08/classPeerLink.html#a9c7ab8d37311f1f46b7b617e6396b82b" target="_top" xlink:title=" ">
<polygon fill="white" stroke="#666666" points="130,-19 19,-19 19,0 130,0 130,-19"/>
<text text-anchor="middle" x="74.5" y="-7" font-family="Helvetica,sans-Serif" font-size="10.00">PeerLink::sendNote</text>
</a>
</g>
</g>
<!-- Node1&#45;&gt;Node6 -->
<g id="edge5_Node000001_Node000006" class="edge">
<title>Node1&#45;&gt;Node6</title>
<g id="a_edge5_Node000001_Node000006"><a xlink:title=" ">
<path fill="none" stroke="#63b8ff" d="M214.06,-67.69C197.37,-55.45 172.74,-38.88 149,-28.5 140.43,-24.75 130.95,-21.62 121.74,-19.05"/>
<polygon fill="#63b8ff" stroke="#63b8ff" points="212.36,-70.78 222.46,-73.97 216.56,-65.18 212.36,-70.78"/>
</a>
</g>
</g>
</g>
</svg>
