<?xml version="1.0" encoding="UTF-8" standalone="no"?>
<!DOCTYPE svg PUBLIC "-//W3C//DTD SVG 1.1//EN"
 "http://www.w3.org/Graphics/SVG/1.1/DTD/svg11.dtd">
<!-- Generated by graphviz version 2.43.0 (0)
 -->
<!-- Title: BoardManager Pages: 1 -->
<svg width="1520pt" height="887pt"
 viewBox="0.00 0.00 1519.50 887.00" xmlns="http://www.w3.org/2000/svg" xmlns:xlink="http://www.w3.org/1999/xlink">
<g id="graph0" class="graph" transform="scale(1 1) rotate(0) translate(4 883)">
<title>BoardManager</title>
<!-- Node1 -->
<g id="Node000001" class="node">
<title>Node1</title>
<g id="a_Node000001"><a xlink:title=" ">
<polygon fill="#999999" stroke="transparent" points="976,-386 729,-386 729,0 976,0 976,-386"/>
<text text-anchor="start" x="817" y="-374" font-family="Helvetica,sans-Serif" font-size="10.00">BoardManager</text>
<text text-anchor="start" x="851" y="-359" font-family="Helvetica,sans-Serif" font-size="10.00"> </text>
<text text-anchor="start" x="733.5" y="-344" font-family="Helvetica,sans-Serif" font-size="10.00">+</text>
<text text-anchor="start" x="746.5" y="-344" font-family="Helvetica,sans-Serif" font-size="10.00">BoardManager(flecs::world</text>
<text text-anchor="start" x="746.5" y="-333" font-family="Helvetica,sans-Serif" font-size="10.00"> ecs, std::weak_ptr&lt; NetworkManager</text>
<text text-anchor="start" x="746.5" y="-322" font-family="Helvetica,sans-Serif" font-size="10.00"> &gt; network_manager, std::shared_ptr</text>
<text text-anchor="start" x="746.5" y="-311" font-family="Helvetica,sans-Serif" font-size="10.00">&lt; IdentityManager &gt; identity_manager,</text>
<text text-anchor="start" x="746.5" y="-300" font-family="Helvetica,sans-Serif" font-size="10.00"> std::shared_ptr&lt; DirectoryWindow &gt; map</text>
<text text-anchor="start" x="746.5" y="-289" font-family="Helvetica,sans-Serif" font-size="10.00">_directory, std::shared_ptr&lt; DirectoryWindow</text>
<text text-anchor="start" x="746.5" y="-278" font-family="Helvetica,sans-Serif" font-size="10.00"> &gt; marker_directory)</text>
<text text-anchor="start" x="733.5" y="-263" font-family="Helvetica,sans-Serif" font-size="10.00">+</text>
<text text-anchor="start" x="746.5" y="-263" font-family="Helvetica,sans-Serif" font-size="10.00">~BoardManager()</text>
<text text-anchor="start" x="733.5" y="-248" font-family="Helvetica,sans-Serif" font-size="10.00">+</text>
<text text-anchor="start" x="746.5" y="-248" font-family="Helvetica,sans-Serif" font-size="10.00">void renderBoard(VertexArray</text>
<text text-anchor="start" x="746.5" y="-237" font-family="Helvetica,sans-Serif" font-size="10.00"> &amp;va, IndexBuffer &amp;ib, Shader</text>
<text text-anchor="start" x="746.5" y="-226" font-family="Helvetica,sans-Serif" font-size="10.00"> &amp;shader, Shader &amp;grid_shader,</text>
<text text-anchor="start" x="746.5" y="-215" font-family="Helvetica,sans-Serif" font-size="10.00"> Renderer &amp;renderer)</text>
<text text-anchor="start" x="733.5" y="-200" font-family="Helvetica,sans-Serif" font-size="10.00">+</text>
<text text-anchor="start" x="746.5" y="-200" font-family="Helvetica,sans-Serif" font-size="10.00">void renderToolbar(const ImVec2</text>
<text text-anchor="start" x="746.5" y="-189" font-family="Helvetica,sans-Serif" font-size="10.00"> &amp;window_position)</text>
<text text-anchor="start" x="733.5" y="-174" font-family="Helvetica,sans-Serif" font-size="10.00">+</text>
<text text-anchor="start" x="746.5" y="-174" font-family="Helvetica,sans-Serif" font-size="10.00">void resetCamera()</text>
<text text-anchor="start" x="733.5" y="-159" font-family="Helvetica,sans-Serif" font-size="10.00">+</text>
<text text-anchor="start" x="746.5" y="-159" font-family="Helvetica,sans-Serif" font-size="10.00">flecs::entity createMarker</text>
<text text-anchor="start" x="746.5" y="-148" font-family="Helvetica,sans-Serif" font-size="10.00">(const std::string &amp;imageFilePath,</text>
<text text-anchor="start" x="746.5" y="-137" font-family="Helvetica,sans-Serif" font-size="10.00"> GLuint textureId, glm::vec2 position,</text>
<text text-anchor="start" x="746.5" y="-126" font-family="Helvetica,sans-Serif" font-size="10.00"> glm::vec2 size)</text>
<text text-anchor="start" x="733.5" y="-111" font-family="Helvetica,sans-Serif" font-size="10.00">+</text>
<text text-anchor="start" x="746.5" y="-111" font-family="Helvetica,sans-Serif" font-size="10.00">void deleteMarker(flecs::entity</text>
<text text-anchor="start" x="746.5" y="-100" font-family="Helvetica,sans-Serif" font-size="10.00"> markerEntity)</text>
<text text-anchor="start" x="733.5" y="-85" font-family="Helvetica,sans-Serif" font-size="10.00">+</text>
<text text-anchor="start" x="746.5" y="-85" font-family="Helvetica,sans-Serif" font-size="10.00">void handleMarkerDragging(glm</text>
<text text-anchor="start" x="746.5" y="-74" font-family="Helvetica,sans-Serif" font-size="10.00">::vec2 mousePos)</text>
<text text-anchor="start" x="733.5" y="-59" font-family="Helvetica,sans-Serif" font-size="10.00">+</text>
<text text-anchor="start" x="746.5" y="-59" font-family="Helvetica,sans-Serif" font-size="10.00">bool isMouseOverMarker(glm</text>
<text text-anchor="start" x="746.5" y="-48" font-family="Helvetica,sans-Serif" font-size="10.00">::vec2 mousePos)</text>
<text text-anchor="start" x="733.5" y="-33" font-family="Helvetica,sans-Serif" font-size="10.00">+</text>
<text text-anchor="start" x="746.5" y="-33" font-family="Helvetica,sans-Serif" font-size="10.00">bool canMoveMarker(const MarkerComponent</text>
<text text-anchor="start" x="746.5" y="-22" font-family="Helvetica,sans-Serif" font-size="10.00"> *mc, flecs::entity markerEnt) const</text>
<text text-anchor="start" x="746.5" y="-7" font-family="Helvetica,sans-Serif" font-size="10.00">and 39 more...</text>
<polygon fill="#666666" stroke="#666666" points="729.5,-369 729.5,-369 976.5,-369 976.5,-369 729.5,-369"/>
<polygon fill="#666666" stroke="#666666" points="729.5,-354 729.5,-354 976.5,-354 976.5,-354 729.5,-354"/>
<polygon fill="none" stroke="#666666" points="729,0 729,-386 976,-386 976,0 729,0"/>
</a>
</g>
</g>
<!-- Node2 -->
<g id="Node000002" class="node">
<title>Node2</title>
<g id="a_Node000002"><a xlink:title=" ">
<polygon fill="white" stroke="transparent" points="155,-649 0,-649 0,-589 155,-589 155,-649"/>
<text text-anchor="start" x="5.5" y="-637" font-family="Helvetica,sans-Serif" font-size="10.00">std::enable_shared_from_this</text>
<text text-anchor="start" x="31" y="-626" font-family="Helvetica,sans-Serif" font-size="10.00">&lt; BoardManager &gt;</text>
<text text-anchor="start" x="76" y="-611" font-family="Helvetica,sans-Serif" font-size="10.00"> </text>
<text text-anchor="start" x="76" y="-596" font-family="Helvetica,sans-Serif" font-size="10.00"> </text>
<polygon fill="#666666" stroke="#666666" points="0.5,-621 0.5,-621 155.5,-621 155.5,-621 0.5,-621"/>
<polygon fill="#666666" stroke="#666666" points="0.5,-606 0.5,-606 155.5,-606 155.5,-606 0.5,-606"/>
<polygon fill="none" stroke="#666666" points="0,-589 0,-649 155,-649 155,-589 0,-589"/>
</a>
</g>
</g>
<!-- Node2&#45;&gt;Node1 -->
<g id="edge1_Node000001_Node000002" class="edge">
<title>Node2&#45;&gt;Node1</title>
<g id="a_edge1_Node000001_Node000002"><a xlink:title=" ">
<path fill="none" stroke="#8b1a1a" d="M90.2,-579.22C107.95,-531.06 144.76,-449.69 203.5,-404 359.83,-282.39 588.91,-230.04 728.95,-208.37"/>
<polygon fill="none" stroke="#8b1a1a" points="86.89,-578.08 86.8,-588.67 93.48,-580.45 86.89,-578.08"/>
</a>
</g>
</g>
<!-- Node3 -->
<g id="Node000003" class="node">
<title>Node3</title>
<g id="a_Node000003"><a xlink:title=" ">
<polygon fill="white" stroke="transparent" points="211.5,-643.5 173.5,-643.5 173.5,-594.5 211.5,-594.5 211.5,-643.5"/>
<text text-anchor="start" x="178.5" y="-631" font-family="Helvetica,sans-Serif" font-size="10.00">string</text>
<text text-anchor="start" x="190.5" y="-616" font-family="Helvetica,sans-Serif" font-size="10.00"> </text>
<text text-anchor="start" x="190.5" y="-601" font-family="Helvetica,sans-Serif" font-size="10.00"> </text>
<polygon fill="#666666" stroke="#666666" points="173.5,-626 173.5,-626 211.5,-626 211.5,-626 173.5,-626"/>
<polygon fill="#666666" stroke="#666666" points="173.5,-611 173.5,-611 211.5,-611 211.5,-611 173.5,-611"/>
<polygon fill="none" stroke="#666666" points="173.5,-594.5 173.5,-643.5 211.5,-643.5 211.5,-594.5 173.5,-594.5"/>
</a>
</g>
</g>
<!-- Node3&#45;&gt;Node1 -->
<g id="edge2_Node000001_Node000003" class="edge">
<title>Node3&#45;&gt;Node1</title>
<g id="a_edge2_Node000001_Node000003"><a xlink:title=" ">
<path fill="none" stroke="#63b8ff" d="M189.62,-594.46C185.7,-551.2 183.93,-458.47 231.5,-404 354.17,-263.55 574.21,-216.86 716.72,-201.45"/>
<polygon fill="none" stroke="#63b8ff" points="717.04,-201.41 722.6,-196.82 728.98,-200.18 723.42,-204.77 717.04,-201.41"/>
</a>
</g>
<text text-anchor="middle" x="268" y="-423.5" font-family="Helvetica,sans-Serif" font-size="10.00" fill="grey"> +board_name</text>
</g>
<!-- Node4 -->
<g id="Node000004" class="node">
<title>Node4</title>
<g id="a_Node000004"><a xlink:title=" ">
<polygon fill="white" stroke="transparent" points="398,-643.5 229,-643.5 229,-594.5 398,-594.5 398,-643.5"/>
<text text-anchor="start" x="234.5" y="-631" font-family="Helvetica,sans-Serif" font-size="10.00">shared_ptr&lt; DirectoryWindow &gt;</text>
<text text-anchor="start" x="312" y="-616" font-family="Helvetica,sans-Serif" font-size="10.00"> </text>
<text text-anchor="start" x="312" y="-601" font-family="Helvetica,sans-Serif" font-size="10.00"> </text>
<polygon fill="#666666" stroke="#666666" points="229.5,-626 229.5,-626 398.5,-626 398.5,-626 229.5,-626"/>
<polygon fill="#666666" stroke="#666666" points="229.5,-611 229.5,-611 398.5,-611 398.5,-611 229.5,-611"/>
<polygon fill="none" stroke="#666666" points="229,-594.5 229,-643.5 398,-643.5 398,-594.5 229,-594.5"/>
</a>
</g>
</g>
<!-- Node4&#45;&gt;Node1 -->
<g id="edge3_Node000001_Node000004" class="edge">
<title>Node4&#45;&gt;Node1</title>
<g id="a_edge3_Node000001_Node000004"><a xlink:title=" ">
<path fill="none" stroke="#63b8ff" d="M307.6,-594.41C298.43,-551.88 285.84,-461.4 327.5,-404 417.62,-279.83 593.39,-229 716.63,-208.24"/>
<polygon fill="none" stroke="#63b8ff" points="716.92,-208.2 722.2,-203.28 728.77,-206.27 723.49,-211.18 716.92,-208.2"/>
</a>
</g>
<text text-anchor="middle" x="373.5" y="-429" font-family="Helvetica,sans-Serif" font-size="10.00" fill="grey"> +map_directory</text>
<text text-anchor="middle" x="373.5" y="-418" font-family="Helvetica,sans-Serif" font-size="10.00" fill="grey">+marker_directory</text>
</g>
<!-- Node5 -->
<g id="Node000005" class="node">
<title>Node5</title>
<g id="a_Node000005"><a xlink:href="../../d1/df0/classCamera.html" target="_top" xlink:title=" ">
<polygon fill="white" stroke="transparent" points="800.5,-772 586.5,-772 586.5,-466 800.5,-466 800.5,-772"/>
<text text-anchor="start" x="674" y="-760" font-family="Helvetica,sans-Serif" font-size="10.00">Camera</text>
<text text-anchor="start" x="691.5" y="-745" font-family="Helvetica,sans-Serif" font-size="10.00"> </text>
<text text-anchor="start" x="590.5" y="-730" font-family="Helvetica,sans-Serif" font-size="10.00">+</text>
<text text-anchor="start" x="603.5" y="-730" font-family="Helvetica,sans-Serif" font-size="10.00">Camera()</text>
<text text-anchor="start" x="590.5" y="-715" font-family="Helvetica,sans-Serif" font-size="10.00">+</text>
<text text-anchor="start" x="603.5" y="-715" font-family="Helvetica,sans-Serif" font-size="10.00">void pan(glm::vec2 delta)</text>
<text text-anchor="start" x="590.5" y="-700" font-family="Helvetica,sans-Serif" font-size="10.00">+</text>
<text text-anchor="start" x="603.5" y="-700" font-family="Helvetica,sans-Serif" font-size="10.00">void zoom(float factor, glm</text>
<text text-anchor="start" x="603.5" y="-689" font-family="Helvetica,sans-Serif" font-size="10.00">::vec2 mouse_world_pos_before_zoom)</text>
<text text-anchor="start" x="590.5" y="-674" font-family="Helvetica,sans-Serif" font-size="10.00">+</text>
<text text-anchor="start" x="603.5" y="-674" font-family="Helvetica,sans-Serif" font-size="10.00">void setPosition(glm::vec2</text>
<text text-anchor="start" x="603.5" y="-663" font-family="Helvetica,sans-Serif" font-size="10.00"> newPosition)</text>
<text text-anchor="start" x="590.5" y="-648" font-family="Helvetica,sans-Serif" font-size="10.00">+</text>
<text text-anchor="start" x="603.5" y="-648" font-family="Helvetica,sans-Serif" font-size="10.00">glm::vec2 getPosition() const</text>
<text text-anchor="start" x="590.5" y="-633" font-family="Helvetica,sans-Serif" font-size="10.00">+</text>
<text text-anchor="start" x="603.5" y="-633" font-family="Helvetica,sans-Serif" font-size="10.00">void setZoom(float newZoomLevel)</text>
<text text-anchor="start" x="590.5" y="-618" font-family="Helvetica,sans-Serif" font-size="10.00">+</text>
<text text-anchor="start" x="603.5" y="-618" font-family="Helvetica,sans-Serif" font-size="10.00">float getZoom() const</text>
<text text-anchor="start" x="590.5" y="-603" font-family="Helvetica,sans-Serif" font-size="10.00">+</text>
<text text-anchor="start" x="603.5" y="-603" font-family="Helvetica,sans-Serif" font-size="10.00">glm::mat4 getViewMatrix() const</text>
<text text-anchor="start" x="590.5" y="-588" font-family="Helvetica,sans-Serif" font-size="10.00">+</text>
<text text-anchor="start" x="603.5" y="-588" font-family="Helvetica,sans-Serif" font-size="10.00">glm::mat4 getProjectionMatrix() const</text>
<text text-anchor="start" x="590.5" y="-573" font-family="Helvetica,sans-Serif" font-size="10.00">+</text>
<text text-anchor="start" x="603.5" y="-573" font-family="Helvetica,sans-Serif" font-size="10.00">glm::vec2 worldToScreenPosition</text>
<text text-anchor="start" x="603.5" y="-562" font-family="Helvetica,sans-Serif" font-size="10.00">(glm::vec2 world_position) const</text>
<text text-anchor="start" x="590.5" y="-547" font-family="Helvetica,sans-Serif" font-size="10.00">+</text>
<text text-anchor="start" x="603.5" y="-547" font-family="Helvetica,sans-Serif" font-size="10.00">glm::vec2 fboToNdcPos(glm::</text>
<text text-anchor="start" x="603.5" y="-536" font-family="Helvetica,sans-Serif" font-size="10.00">vec2 fbo_pixel_top_left_origin) const</text>
<text text-anchor="start" x="590.5" y="-521" font-family="Helvetica,sans-Serif" font-size="10.00">+</text>
<text text-anchor="start" x="603.5" y="-521" font-family="Helvetica,sans-Serif" font-size="10.00">glm::vec2 screenToWorldPosition</text>
<text text-anchor="start" x="603.5" y="-510" font-family="Helvetica,sans-Serif" font-size="10.00">(glm::vec2 fbo_pixel_top_left</text>
<text text-anchor="start" x="603.5" y="-499" font-family="Helvetica,sans-Serif" font-size="10.00">_origin) const</text>
<text text-anchor="start" x="590.5" y="-484" font-family="Helvetica,sans-Serif" font-size="10.00">+</text>
<text text-anchor="start" x="603.5" y="-484" font-family="Helvetica,sans-Serif" font-size="10.00">void setFboDimensions(glm::</text>
<text text-anchor="start" x="603.5" y="-473" font-family="Helvetica,sans-Serif" font-size="10.00">vec2 dims)</text>
<polygon fill="#666666" stroke="#666666" points="586.5,-755 586.5,-755 800.5,-755 800.5,-755 586.5,-755"/>
<polygon fill="#666666" stroke="#666666" points="586.5,-740 586.5,-740 800.5,-740 800.5,-740 586.5,-740"/>
<polygon fill="none" stroke="#666666" points="586.5,-466 586.5,-772 800.5,-772 800.5,-466 586.5,-466"/>
</a>
</g>
</g>
<!-- Node5&#45;&gt;Node1 -->
<g id="edge4_Node000001_Node000005" class="edge">
<title>Node5&#45;&gt;Node1</title>
<g id="a_edge4_Node000001_Node000005"><a xlink:title=" ">
<path fill="none" stroke="#63b8ff" d="M750.38,-465.72C758.14,-444.98 766.01,-423.96 773.5,-404 774.29,-401.9 775.08,-399.79 775.87,-397.67"/>
<polygon fill="none" stroke="#63b8ff" points="775.94,-397.49 774.3,-390.47 780.16,-386.25 781.79,-393.28 775.94,-397.49"/>
</a>
</g>
<text text-anchor="middle" x="798" y="-423.5" font-family="Helvetica,sans-Serif" font-size="10.00" fill="grey"> +camera</text>
</g>
<!-- Node6 -->
<g id="Node000006" class="node">
<title>Node6</title>
<g id="a_Node000006"><a xlink:title=" ">
<polygon fill="white" stroke="transparent" points="520.5,-879 486.5,-879 486.5,-830 520.5,-830 520.5,-879"/>
<text text-anchor="start" x="491.5" y="-866.5" font-family="Helvetica,sans-Serif" font-size="10.00">vec2</text>
<text text-anchor="start" x="501.5" y="-851.5" font-family="Helvetica,sans-Serif" font-size="10.00"> </text>
<text text-anchor="start" x="501.5" y="-836.5" font-family="Helvetica,sans-Serif" font-size="10.00"> </text>
<polygon fill="#666666" stroke="#666666" points="486.5,-861.5 486.5,-861.5 520.5,-861.5 520.5,-861.5 486.5,-861.5"/>
<polygon fill="#666666" stroke="#666666" points="486.5,-846.5 486.5,-846.5 520.5,-846.5 520.5,-846.5 486.5,-846.5"/>
<polygon fill="none" stroke="#666666" points="486.5,-830 486.5,-879 520.5,-879 520.5,-830 486.5,-830"/>
</a>
</g>
</g>
<!-- Node6&#45;&gt;Node1 -->
<g id="edge12_Node000001_Node000006" class="edge">
<title>Node6&#45;&gt;Node1</title>
<g id="a_edge12_Node000001_Node000006"><a xlink:title=" ">
<path fill="none" stroke="#63b8ff" d="M486.26,-837.29C471.42,-822.07 451.09,-797.82 442.5,-772 421.03,-707.48 410.35,-525.92 442.5,-466 500.29,-358.3 621.57,-286.02 717.3,-243.21"/>
<polygon fill="none" stroke="#63b8ff" points="717.56,-243.1 721.45,-237.02 728.55,-238.27 724.67,-244.34 717.56,-243.1"/>
</a>
</g>
<text text-anchor="middle" x="510" y="-627.5" font-family="Helvetica,sans-Serif" font-size="10.00" fill="grey"> &#45;mouse_current_world_pos</text>
<text text-anchor="middle" x="510" y="-616.5" font-family="Helvetica,sans-Serif" font-size="10.00" fill="grey">&#45;mouse_start_screen_pos</text>
<text text-anchor="middle" x="510" y="-605.5" font-family="Helvetica,sans-Serif" font-size="10.00" fill="grey">&#45;mouse_start_world_pos</text>
</g>
<!-- Node6&#45;&gt;Node5 -->
<g id="edge5_Node000005_Node000006" class="edge">
<title>Node6&#45;&gt;Node5</title>
<g id="a_edge5_Node000005_Node000006"><a xlink:title=" ">
<path fill="none" stroke="#63b8ff" d="M520.68,-833.55C534.75,-817.13 555.09,-793.21 572.5,-772 574.47,-769.6 576.45,-767.19 578.44,-764.75"/>
<polygon fill="none" stroke="#63b8ff" points="578.59,-764.56 579.28,-757.38 586.17,-755.26 585.48,-762.44 578.59,-764.56"/>
</a>
</g>
<text text-anchor="middle" x="601" y="-804" font-family="Helvetica,sans-Serif" font-size="10.00" fill="grey"> &#45;fbo_dimensions</text>
<text text-anchor="middle" x="601" y="-793" font-family="Helvetica,sans-Serif" font-size="10.00" fill="grey">&#45;position</text>
</g>
<!-- Node7 -->
<g id="Node000007" class="node">
<title>Node7</title>
<g id="a_Node000007"><a xlink:title=" ">
<polygon fill="white" stroke="transparent" points="796.5,-879 764.5,-879 764.5,-830 796.5,-830 796.5,-879"/>
<text text-anchor="start" x="769.5" y="-866.5" font-family="Helvetica,sans-Serif" font-size="10.00">float</text>
<text text-anchor="start" x="778.5" y="-851.5" font-family="Helvetica,sans-Serif" font-size="10.00"> </text>
<text text-anchor="start" x="778.5" y="-836.5" font-family="Helvetica,sans-Serif" font-size="10.00"> </text>
<polygon fill="#666666" stroke="#666666" points="764.5,-861.5 764.5,-861.5 796.5,-861.5 796.5,-861.5 764.5,-861.5"/>
<polygon fill="#666666" stroke="#666666" points="764.5,-846.5 764.5,-846.5 796.5,-846.5 796.5,-846.5 764.5,-846.5"/>
<polygon fill="none" stroke="#666666" points="764.5,-830 764.5,-879 796.5,-879 796.5,-830 764.5,-830"/>
</a>
</g>
</g>
<!-- Node7&#45;&gt;Node1 -->
<g id="edge8_Node000001_Node000007" class="edge">
<title>Node7&#45;&gt;Node1</title>
<g id="a_edge8_Node000001_Node000007"><a xlink:title=" ">
<path fill="none" stroke="#63b8ff" d="M796.63,-842.42C805.99,-835 816.98,-824.36 822.5,-812 830.98,-793.01 840.18,-570.85 846.12,-398.27"/>
<polygon fill="none" stroke="#63b8ff" points="846.12,-398.18 842.33,-392.05 846.54,-386.19 850.33,-392.32 846.12,-398.18"/>
</a>
</g>
<text text-anchor="middle" x="882.5" y="-616.5" font-family="Helvetica,sans-Serif" font-size="10.00" fill="grey"> &#45;markerBasePx</text>
</g>
<!-- Node7&#45;&gt;Node5 -->
<g id="edge6_Node000005_Node000007" class="edge">
<title>Node7&#45;&gt;Node5</title>
<g id="a_edge6_Node000005_Node000007"><a xlink:title=" ">
<path fill="none" stroke="#63b8ff" d="M767.03,-829.68C764.04,-823.98 761.02,-817.84 758.5,-812 754.52,-802.77 750.62,-793.2 746.83,-783.5"/>
<polygon fill="none" stroke="#63b8ff" points="746.74,-783.25 740.85,-779.09 742.43,-772.05 748.32,-776.22 746.74,-783.25"/>
</a>
</g>
<text text-anchor="middle" x="790.5" y="-798.5" font-family="Helvetica,sans-Serif" font-size="10.00" fill="grey"> &#45;zoom_level</text>
</g>
<!-- Node8 -->
<g id="Node000008" class="node">
<title>Node8</title>
<g id="a_Node000008"><a xlink:title=" ">
<polygon fill="white" stroke="transparent" points="964.5,-643.5 932.5,-643.5 932.5,-594.5 964.5,-594.5 964.5,-643.5"/>
<text text-anchor="start" x="937.5" y="-631" font-family="Helvetica,sans-Serif" font-size="10.00">bool</text>
<text text-anchor="start" x="946.5" y="-616" font-family="Helvetica,sans-Serif" font-size="10.00"> </text>
<text text-anchor="start" x="946.5" y="-601" font-family="Helvetica,sans-Serif" font-size="10.00"> </text>
<polygon fill="#666666" stroke="#666666" points="932.5,-626 932.5,-626 964.5,-626 964.5,-626 932.5,-626"/>
<polygon fill="#666666" stroke="#666666" points="932.5,-611 932.5,-611 964.5,-611 964.5,-611 932.5,-611"/>
<polygon fill="none" stroke="#666666" points="932.5,-594.5 932.5,-643.5 964.5,-643.5 964.5,-594.5 932.5,-594.5"/>
</a>
</g>
</g>
<!-- Node8&#45;&gt;Node1 -->
<g id="edge7_Node000001_Node000008" class="edge">
<title>Node8&#45;&gt;Node1</title>
<g id="a_edge7_Node000001_Node000008"><a xlink:title=" ">
<path fill="none" stroke="#63b8ff" d="M950.47,-594.44C951.88,-561.74 949.47,-502.51 918.5,-466 903.76,-448.62 884.13,-466.26 870.5,-448 859.22,-432.89 851.2,-415.77 845.66,-397.72"/>
<polygon fill="none" stroke="#63b8ff" points="845.63,-397.62 840.19,-392.9 842.45,-386.05 847.9,-390.77 845.63,-397.62"/>
</a>
</g>
<text text-anchor="middle" x="924.5" y="-440" font-family="Helvetica,sans-Serif" font-size="10.00" fill="grey"> &#45;is_creating_fog</text>
<text text-anchor="middle" x="924.5" y="-429" font-family="Helvetica,sans-Serif" font-size="10.00" fill="grey">&#45;showCameraSettings</text>
<text text-anchor="middle" x="924.5" y="-418" font-family="Helvetica,sans-Serif" font-size="10.00" fill="grey">&#45;showEditWindow</text>
<text text-anchor="middle" x="924.5" y="-407" font-family="Helvetica,sans-Serif" font-size="10.00" fill="grey">&#45;showGridSettings</text>
</g>
<!-- Node9 -->
<g id="Node000009" class="node">
<title>Node9</title>
<g id="a_Node000009"><a xlink:title=" ">
<polygon fill="white" stroke="transparent" points="1022,-643.5 983,-643.5 983,-594.5 1022,-594.5 1022,-643.5"/>
<text text-anchor="start" x="988.5" y="-631" font-family="Helvetica,sans-Serif" font-size="10.00">entity</text>
<text text-anchor="start" x="1001" y="-616" font-family="Helvetica,sans-Serif" font-size="10.00"> </text>
<text text-anchor="start" x="1001" y="-601" font-family="Helvetica,sans-Serif" font-size="10.00"> </text>
<polygon fill="#666666" stroke="#666666" points="983.5,-626 983.5,-626 1022.5,-626 1022.5,-626 983.5,-626"/>
<polygon fill="#666666" stroke="#666666" points="983.5,-611 983.5,-611 1022.5,-611 1022.5,-611 983.5,-611"/>
<polygon fill="none" stroke="#666666" points="983,-594.5 983,-643.5 1022,-643.5 1022,-594.5 983,-594.5"/>
</a>
</g>
</g>
<!-- Node9&#45;&gt;Node1 -->
<g id="edge9_Node000001_Node000009" class="edge">
<title>Node9&#45;&gt;Node1</title>
<g id="a_edge9_Node000001_Node000009"><a xlink:title=" ">
<path fill="none" stroke="#63b8ff" d="M1003.09,-594.5C1003.39,-554.34 1000.95,-470.41 978.5,-404 977.78,-401.86 977.03,-399.73 976.26,-397.59"/>
<polygon fill="none" stroke="#63b8ff" points="976.19,-397.39 970.32,-393.19 971.94,-386.16 977.81,-390.36 976.19,-397.39"/>
</a>
</g>
<text text-anchor="middle" x="1038.5" y="-434.5" font-family="Helvetica,sans-Serif" font-size="10.00" fill="grey"> &#45;active_board</text>
<text text-anchor="middle" x="1038.5" y="-423.5" font-family="Helvetica,sans-Serif" font-size="10.00" fill="grey">&#45;edit_window_entity</text>
<text text-anchor="middle" x="1038.5" y="-412.5" font-family="Helvetica,sans-Serif" font-size="10.00" fill="grey">&#45;grid_entity</text>
</g>
<!-- Node10 -->
<g id="Node000010" class="node">
<title>Node10</title>
<g id="a_Node000010"><a xlink:title=" ">
<polygon fill="white" stroke="transparent" points="1202.5,-643.5 1040.5,-643.5 1040.5,-594.5 1202.5,-594.5 1202.5,-643.5"/>
<text text-anchor="start" x="1045.5" y="-631" font-family="Helvetica,sans-Serif" font-size="10.00">weak_ptr&lt; NetworkManager &gt;</text>
<text text-anchor="start" x="1119.5" y="-616" font-family="Helvetica,sans-Serif" font-size="10.00"> </text>
<text text-anchor="start" x="1119.5" y="-601" font-family="Helvetica,sans-Serif" font-size="10.00"> </text>
<polygon fill="#666666" stroke="#666666" points="1040.5,-626 1040.5,-626 1202.5,-626 1202.5,-626 1040.5,-626"/>
<polygon fill="#666666" stroke="#666666" points="1040.5,-611 1040.5,-611 1202.5,-611 1202.5,-611 1040.5,-611"/>
<polygon fill="none" stroke="#666666" points="1040.5,-594.5 1040.5,-643.5 1202.5,-643.5 1202.5,-594.5 1040.5,-594.5"/>
</a>
</g>
</g>
<!-- Node10&#45;&gt;Node1 -->
<g id="edge10_Node000001_Node000010" class="edge">
<title>Node10&#45;&gt;Node1</title>
<g id="a_edge10_Node000001_Node000010"><a xlink:title=" ">
<path fill="none" stroke="#63b8ff" d="M1123.5,-594.19C1125.87,-552.85 1125.97,-466.25 1092.5,-404 1067.02,-356.61 1026.3,-314.94 985.58,-281.47"/>
<polygon fill="none" stroke="#63b8ff" points="985.41,-281.34 978.23,-280.68 976.07,-273.8 983.26,-274.46 985.41,-281.34"/>
</a>
</g>
<text text-anchor="middle" x="1157.5" y="-423.5" font-family="Helvetica,sans-Serif" font-size="10.00" fill="grey"> &#45;network_manager</text>
</g>
<!-- Node11 -->
<g id="Node000011" class="node">
<title>Node11</title>
<g id="a_Node000011"><a xlink:title=" ">
<polygon fill="white" stroke="transparent" points="1386,-643.5 1221,-643.5 1221,-594.5 1386,-594.5 1386,-643.5"/>
<text text-anchor="start" x="1226.5" y="-631" font-family="Helvetica,sans-Serif" font-size="10.00">shared_ptr&lt; IdentityManager &gt;</text>
<text text-anchor="start" x="1302" y="-616" font-family="Helvetica,sans-Serif" font-size="10.00"> </text>
<text text-anchor="start" x="1302" y="-601" font-family="Helvetica,sans-Serif" font-size="10.00"> </text>
<polygon fill="#666666" stroke="#666666" points="1221.5,-626 1221.5,-626 1386.5,-626 1386.5,-626 1221.5,-626"/>
<polygon fill="#666666" stroke="#666666" points="1221.5,-611 1221.5,-611 1386.5,-611 1386.5,-611 1221.5,-611"/>
<polygon fill="none" stroke="#666666" points="1221,-594.5 1221,-643.5 1386,-643.5 1386,-594.5 1221,-594.5"/>
</a>
</g>
</g>
<!-- Node11&#45;&gt;Node1 -->
<g id="edge11_Node000001_Node000011" class="edge">
<title>Node11&#45;&gt;Node1</title>
<g id="a_edge11_Node000001_Node000011"><a xlink:title=" ">
<path fill="none" stroke="#63b8ff" d="M1298.27,-594.49C1287.83,-552.07 1260.85,-461.79 1209.5,-404 1148.96,-335.87 1060.86,-283.73 987.33,-248.44"/>
<polygon fill="none" stroke="#63b8ff" points="986.97,-248.27 979.84,-249.32 976.13,-243.14 983.26,-242.09 986.97,-248.27"/>
</a>
</g>
<text text-anchor="middle" x="1285.5" y="-423.5" font-family="Helvetica,sans-Serif" font-size="10.00" fill="grey"> &#45;identity_manager</text>
</g>
<!-- Node12 -->
<g id="Node000012" class="node">
<title>Node12</title>
<g id="a_Node000012"><a xlink:title=" ">
<polygon fill="white" stroke="transparent" points="1442.5,-643.5 1404.5,-643.5 1404.5,-594.5 1442.5,-594.5 1442.5,-643.5"/>
<text text-anchor="start" x="1409.5" y="-631" font-family="Helvetica,sans-Serif" font-size="10.00">world</text>
<text text-anchor="start" x="1421.5" y="-616" font-family="Helvetica,sans-Serif" font-size="10.00"> </text>
<text text-anchor="start" x="1421.5" y="-601" font-family="Helvetica,sans-Serif" font-size="10.00"> </text>
<polygon fill="#666666" stroke="#666666" points="1404.5,-626 1404.5,-626 1442.5,-626 1442.5,-626 1404.5,-626"/>
<polygon fill="#666666" stroke="#666666" points="1404.5,-611 1404.5,-611 1442.5,-611 1442.5,-611 1404.5,-611"/>
<polygon fill="none" stroke="#666666" points="1404.5,-594.5 1404.5,-643.5 1442.5,-643.5 1442.5,-594.5 1404.5,-594.5"/>
</a>
</g>
</g>
<!-- Node12&#45;&gt;Node1 -->
<g id="edge13_Node000001_Node000012" class="edge">
<title>Node12&#45;&gt;Node1</title>
<g id="a_edge13_Node000001_Node000012"><a xlink:title=" ">
<path fill="none" stroke="#63b8ff" d="M1423.26,-594.28C1422.05,-563.19 1416.76,-507.72 1395.5,-466 1378.23,-432.11 1367.68,-425.78 1336.5,-404 1228.5,-328.55 1089.07,-271.59 987.63,-236.16"/>
<polygon fill="none" stroke="#63b8ff" points="987.41,-236.09 980.43,-237.91 976.07,-232.16 983.05,-230.35 987.41,-236.09"/>
</a>
</g>
<text text-anchor="middle" x="1396.5" y="-423.5" font-family="Helvetica,sans-Serif" font-size="10.00" fill="grey"> &#45;ecs</text>
</g>
<!-- Node13 -->
<g id="Node000013" class="node">
<title>Node13</title>
<g id="a_Node000013"><a xlink:title=" ">
<polygon fill="white" stroke="transparent" points="1490.5,-643.5 1460.5,-643.5 1460.5,-594.5 1490.5,-594.5 1490.5,-643.5"/>
<text text-anchor="start" x="1465.5" y="-631" font-family="Helvetica,sans-Serif" font-size="10.00">Tool</text>
<text text-anchor="start" x="1473.5" y="-616" font-family="Helvetica,sans-Serif" font-size="10.00"> </text>
<text text-anchor="start" x="1473.5" y="-601" font-family="Helvetica,sans-Serif" font-size="10.00"> </text>
<polygon fill="#666666" stroke="#666666" points="1460.5,-626 1460.5,-626 1490.5,-626 1490.5,-626 1460.5,-626"/>
<polygon fill="#666666" stroke="#666666" points="1460.5,-611 1460.5,-611 1490.5,-611 1490.5,-611 1460.5,-611"/>
<polygon fill="none" stroke="#666666" points="1460.5,-594.5 1460.5,-643.5 1490.5,-643.5 1490.5,-594.5 1460.5,-594.5"/>
</a>
</g>
</g>
<!-- Node13&#45;&gt;Node1 -->
<g id="edge14_Node000001_Node000013" class="edge">
<title>Node13&#45;&gt;Node1</title>
<g id="a_edge14_Node000001_Node000013"><a xlink:title=" ">
<path fill="none" stroke="#63b8ff" d="M1476.45,-594.43C1476.85,-549.39 1470.58,-451.36 1412.5,-404 1288.18,-302.64 1109.98,-247.14 988.2,-219.06"/>
<polygon fill="none" stroke="#63b8ff" points="987.93,-219 981.19,-221.57 976.23,-216.35 982.96,-213.77 987.93,-219"/>
</a>
</g>
<text text-anchor="middle" x="1478.5" y="-429" font-family="Helvetica,sans-Serif" font-size="10.00" fill="grey"> &#45;currentTool</text>
<text text-anchor="middle" x="1478.5" y="-418" font-family="Helvetica,sans-Serif" font-size="10.00" fill="grey">&#45;previousTool</text>
</g>
</g>
</svg>
