<?xml version="1.0" encoding="UTF-8" standalone="no"?>
<!DOCTYPE svg PUBLIC "-//W3C//DTD SVG 1.1//EN"
 "http://www.w3.org/Graphics/SVG/1.1/DTD/svg11.dtd">
<!-- Generated by graphviz version 14.0.2 (20251019.1705)
 -->
<!-- Title: include/network/PeerLink.h Pages: 1 -->
<svg width="202pt" height="84pt"
 viewBox="0.00 0.00 202.00 84.00" xmlns="http://www.w3.org/2000/svg" xmlns:xlink="http://www.w3.org/1999/xlink">
<g id="graph0" class="graph" transform="scale(1 1) rotate(0) translate(4 80)">
<title>include/network/PeerLink.h</title>
<!-- Node1 -->
<g id="Node000001" class="node">
<title>Node1</title>
<g id="a_Node000001"><a xlink:title=" ">
<polygon fill="#999999" stroke="#666666" points="174,-76 40.25,-76 40.25,-56 174,-56 174,-76"/>
<text xml:space="preserve" text-anchor="middle" x="107.12" y="-62.5" font-family="Helvetica,sans-Serif" font-size="10.00">include/network/PeerLink.h</text>
</a>
</g>
</g>
<!-- Node2 -->
<g id="Node000002" class="node">
<title>Node2</title>
<g id="a_Node000002"><a xlink:title=" ">
<polygon fill="#e0e0e0" stroke="#999999" points="60.25,-20 0,-20 0,0 60.25,0 60.25,-20"/>
<text xml:space="preserve" text-anchor="middle" x="30.12" y="-6.5" font-family="Helvetica,sans-Serif" font-size="10.00">rtc/rtc.hpp</text>
</a>
</g>
</g>
<!-- Node1&#45;&gt;Node2 -->
<g id="edge1_Node000001_Node000002" class="edge">
<title>Node1&#45;&gt;Node2</title>
<g id="a_edge1_Node000001_Node000002"><a xlink:title=" ">
<path fill="none" stroke="#63b8ff" d="M93.71,-55.59C82.52,-47.74 66.31,-36.38 53.07,-27.09"/>
<polygon fill="#63b8ff" stroke="#63b8ff" points="55.08,-24.22 44.88,-21.35 51.06,-29.96 55.08,-24.22"/>
</a>
</g>
</g>
<!-- Node3 -->
<g id="Node000003" class="node">
<title>Node3</title>
<g id="a_Node000003"><a xlink:title=" ">
<polygon fill="#e0e0e0" stroke="#999999" points="136.12,-20 78.12,-20 78.12,0 136.12,0 136.12,-20"/>
<text xml:space="preserve" text-anchor="middle" x="107.12" y="-6.5" font-family="Helvetica,sans-Serif" font-size="10.00">functional</text>
</a>
</g>
</g>
<!-- Node1&#45;&gt;Node3 -->
<g id="edge2_Node000001_Node000003" class="edge">
<title>Node1&#45;&gt;Node3</title>
<g id="a_edge2_Node000001_Node000003"><a xlink:title=" ">
<path fill="none" stroke="#63b8ff" d="M107.12,-55.59C107.12,-49.01 107.12,-39.96 107.12,-31.73"/>
<polygon fill="#63b8ff" stroke="#63b8ff" points="110.63,-31.81 107.13,-21.81 103.63,-31.81 110.63,-31.81"/>
</a>
</g>
</g>
<!-- Node4 -->
<g id="Node000004" class="node">
<title>Node4</title>
<g id="a_Node000004"><a xlink:title=" ">
<polygon fill="#e0e0e0" stroke="#999999" points="194.12,-20 154.12,-20 154.12,0 194.12,0 194.12,-20"/>
<text xml:space="preserve" text-anchor="middle" x="174.12" y="-6.5" font-family="Helvetica,sans-Serif" font-size="10.00">string</text>
</a>
</g>
</g>
<!-- Node1&#45;&gt;Node4 -->
<g id="edge3_Node000001_Node000004" class="edge">
<title>Node1&#45;&gt;Node4</title>
<g id="a_edge3_Node000001_Node000004"><a xlink:title=" ">
<path fill="none" stroke="#63b8ff" d="M118.8,-55.59C128.4,-47.85 142.25,-36.69 153.69,-27.47"/>
<polygon fill="#63b8ff" stroke="#63b8ff" points="155.82,-30.25 161.41,-21.25 151.43,-24.8 155.82,-30.25"/>
</a>
</g>
</g>
</g>
</svg>
