<?xml version="1.0" encoding="UTF-8" standalone="no"?>
<!DOCTYPE svg PUBLIC "-//W3C//DTD SVG 1.1//EN"
 "http://www.w3.org/Graphics/SVG/1.1/DTD/svg11.dtd">
<!-- Generated by graphviz version 14.0.2 (20251019.1705)
 -->
<!-- Title: Renderer::Draw Pages: 1 -->
<svg width="243pt" height="142pt"
 viewBox="0.00 0.00 243.00 142.00" xmlns="http://www.w3.org/2000/svg" xmlns:xlink="http://www.w3.org/1999/xlink">

<svg id="main" version="1.1" xmlns="http://www.w3.org/2000/svg" xmlns:xlink="http://www.w3.org/1999/xlink" xml:space="preserve" onload="init(evt)">
<style type="text/css"><![CDATA[
.node, .edge {opacity: 0.7;}
.node.selected, .edge.selected {opacity: 1;}
.edge:hover path { stroke: red; }
.edge:hover polygon { stroke: red; fill: red; }
]]></style>
<script type="application/ecmascript" xlink:href="../../svg.min.js"/>
<svg id="graph" class="graph">
<g id="graph0" class="graph" transform="scale(1 1) rotate(0) translate(4 138)">
<title>Renderer::Draw</title>
<!-- Node1 -->
<g id="Node000001" class="node">
<title>Node1</title>
<g id="a_Node000001"><a xlink:title=" ">
<polygon fill="#999999" stroke="#666666" points="85,-77 0,-77 0,-57 85,-57 85,-77"/>
<text xml:space="preserve" text-anchor="middle" x="42.5" y="-63.5" font-family="Helvetica,sans-Serif" font-size="10.00">Renderer::Draw</text>
</a>
</g>
</g>
<!-- Node2 -->
<g id="Node000002" class="node">
<title>Node2</title>
<g id="a_Node000002"><a xlink:href="../../d5/dc6/class_index_buffer.html#ac8bdd0495f718173fb46691ad1b7e4af" target="_top" xlink:title=" ">
<polygon fill="white" stroke="#666666" points="223.25,-134 132.25,-134 132.25,-114 223.25,-114 223.25,-134"/>
<text xml:space="preserve" text-anchor="middle" x="177.75" y="-120.5" font-family="Helvetica,sans-Serif" font-size="10.00">IndexBuffer::Bind</text>
</a>
</g>
</g>
<!-- Node1&#45;&gt;Node2 -->
<g id="edge1_Node000001_Node000002" class="edge">
<title>Node1&#45;&gt;Node2</title>
<g id="a_edge1_Node000001_Node000002"><a xlink:title=" ">
<path fill="none" stroke="#63b8ff" d="M62.93,-77.39C78.42,-85.45 100.78,-96.64 121,-105 124.87,-106.6 128.92,-108.17 133,-109.69"/>
<polygon fill="#63b8ff" stroke="#63b8ff" points="131.75,-112.96 142.34,-113.03 134.11,-106.36 131.75,-112.96"/>
</a>
</g>
</g>
<!-- Node3 -->
<g id="Node000003" class="node">
<title>Node3</title>
<g id="a_Node000003"><a xlink:href="../../d1/d51/class_shader.html#a5a5a24f72050f46f03cb839b41490527" target="_top" xlink:title=" ">
<polygon fill="white" stroke="#666666" points="213.88,-96 141.62,-96 141.62,-76 213.88,-76 213.88,-96"/>
<text xml:space="preserve" text-anchor="middle" x="177.75" y="-82.5" font-family="Helvetica,sans-Serif" font-size="10.00">Shader::Bind</text>
</a>
</g>
</g>
<!-- Node1&#45;&gt;Node3 -->
<g id="edge2_Node000001_Node000003" class="edge">
<title>Node1&#45;&gt;Node3</title>
<g id="a_edge2_Node000001_Node000003"><a xlink:title=" ">
<path fill="none" stroke="#63b8ff" d="M85.3,-72.96C99.51,-74.99 115.48,-77.26 130.05,-79.34"/>
<polygon fill="#63b8ff" stroke="#63b8ff" points="129.49,-82.8 139.88,-80.74 130.47,-75.87 129.49,-82.8"/>
</a>
</g>
</g>
<!-- Node4 -->
<g id="Node000004" class="node">
<title>Node4</title>
<g id="a_Node000004"><a xlink:href="../../d9/d51/class_vertex_array.html#ad5059455f0864327028636c628d5a661" target="_top" xlink:title=" ">
<polygon fill="white" stroke="#666666" points="224,-58 131.5,-58 131.5,-38 224,-38 224,-58"/>
<text xml:space="preserve" text-anchor="middle" x="177.75" y="-44.5" font-family="Helvetica,sans-Serif" font-size="10.00">VertexArray::Bind</text>
</a>
</g>
</g>
<!-- Node1&#45;&gt;Node4 -->
<g id="edge3_Node000001_Node000004" class="edge">
<title>Node1&#45;&gt;Node4</title>
<g id="a_edge3_Node000001_Node000004"><a xlink:title=" ">
<path fill="none" stroke="#63b8ff" d="M85.3,-61.04C96.4,-59.46 108.58,-57.72 120.33,-56.05"/>
<polygon fill="#63b8ff" stroke="#63b8ff" points="120.5,-59.56 129.91,-54.68 119.51,-52.63 120.5,-59.56"/>
</a>
</g>
</g>
<!-- Node5 -->
<g id="Node000005" class="node">
<title>Node5</title>
<g id="a_Node000005"><a xlink:href="../../d5/dc6/class_index_buffer.html#a3ec4dba9cc97dfedac07d6375d25b3b6" target="_top" xlink:title=" ">
<polygon fill="white" stroke="#666666" points="234.5,-20 121,-20 121,0 234.5,0 234.5,-20"/>
<text xml:space="preserve" text-anchor="middle" x="177.75" y="-6.5" font-family="Helvetica,sans-Serif" font-size="10.00">IndexBuffer::GetCount</text>
</a>
</g>
</g>
<!-- Node1&#45;&gt;Node5 -->
<g id="edge4_Node000001_Node000005" class="edge">
<title>Node1&#45;&gt;Node5</title>
<g id="a_edge4_Node000001_Node000005"><a xlink:title=" ">
<path fill="none" stroke="#63b8ff" d="M62.93,-56.61C78.42,-48.55 100.78,-37.36 121,-29 124.87,-27.4 128.92,-25.83 133,-24.31"/>
<polygon fill="#63b8ff" stroke="#63b8ff" points="134.11,-27.64 142.34,-20.97 131.75,-21.04 134.11,-27.64"/>
</a>
</g>
</g>
</g>
</svg>
</svg>

<style type='text/css'>
<![CDATA[
[data-mouse-over-selected='false'] { opacity: 0.7; }
[data-mouse-over-selected='true']  { opacity: 1.0; }
]]>
</style>
<script type="application/ecmascript"><![CDATA[
document.addEventListener('DOMContentLoaded', (event) => {
  highlightEdges();
  highlightAdjacentNodes();
});
]]></script>
</svg>
