<?xml version="1.0" encoding="UTF-8" standalone="no"?>
<!DOCTYPE svg PUBLIC "-//W3C//DTD SVG 1.1//EN"
 "http://www.w3.org/Graphics/SVG/1.1/DTD/svg11.dtd">
<!-- Generated by graphviz version 14.0.2 (20251019.1705)
 -->
<!-- Title: include/network/FirewallUtils.h Pages: 1 -->
<svg width="276pt" height="96pt"
 viewBox="0.00 0.00 276.00 96.00" xmlns="http://www.w3.org/2000/svg" xmlns:xlink="http://www.w3.org/1999/xlink">

<svg id="main" version="1.1" xmlns="http://www.w3.org/2000/svg" xmlns:xlink="http://www.w3.org/1999/xlink" xml:space="preserve" onload="init(evt)">
<style type="text/css"><![CDATA[
.node, .edge {opacity: 0.7;}
.node.selected, .edge.selected {opacity: 1;}
.edge:hover path { stroke: red; }
.edge:hover polygon { stroke: red; fill: red; }
]]></style>
<script type="application/ecmascript" xlink:href="../../svg.min.js"/>
<svg id="graph" class="graph">
<g id="graph0" class="graph" transform="scale(1 1) rotate(0) translate(4 92)">
<title>include/network/FirewallUtils.h</title>
<!-- Node1 -->
<g id="Node000001" class="node">
<title>Node1</title>
<g id="a_Node000001"><a xlink:title=" ">
<polygon fill="#999999" stroke="#666666" points="204.88,-88 83.88,-88 83.88,-56 204.88,-56 204.88,-88"/>
<text xml:space="preserve" text-anchor="start" x="91.88" y="-74.5" font-family="Helvetica,sans-Serif" font-size="10.00">include/network/Firewall</text>
<text xml:space="preserve" text-anchor="middle" x="144.38" y="-62.5" font-family="Helvetica,sans-Serif" font-size="10.00">Utils.h</text>
</a>
</g>
</g>
<!-- Node2 -->
<g id="Node000002" class="node">
<title>Node2</title>
<g id="a_Node000002"><a xlink:title=" ">
<polygon fill="#e0e0e0" stroke="#999999" points="64.75,-20 0,-20 0,0 64.75,0 64.75,-20"/>
<text xml:space="preserve" text-anchor="middle" x="32.38" y="-6.5" font-family="Helvetica,sans-Serif" font-size="10.00">Windows.h</text>
</a>
</g>
</g>
<!-- Node1&#45;&gt;Node2 -->
<g id="edge1_Node000001_Node000002" class="edge">
<title>Node1&#45;&gt;Node2</title>
<g id="a_edge1_Node000001_Node000002"><a xlink:title=" ">
<path fill="none" stroke="#63b8ff" d="M115.53,-55.55C98.36,-46.35 76.68,-34.74 59.77,-25.68"/>
<polygon fill="#63b8ff" stroke="#63b8ff" points="61.74,-22.76 51.27,-21.12 58.43,-28.93 61.74,-22.76"/>
</a>
</g>
</g>
<!-- Node3 -->
<g id="Node000003" class="node">
<title>Node3</title>
<g id="a_Node000003"><a xlink:title=" ">
<polygon fill="#e0e0e0" stroke="#999999" points="140,-20 82.75,-20 82.75,0 140,0 140,-20"/>
<text xml:space="preserve" text-anchor="middle" x="111.38" y="-6.5" font-family="Helvetica,sans-Serif" font-size="10.00">shellapi.h</text>
</a>
</g>
</g>
<!-- Node1&#45;&gt;Node3 -->
<g id="edge2_Node000001_Node000003" class="edge">
<title>Node1&#45;&gt;Node3</title>
<g id="a_edge2_Node000001_Node000003"><a xlink:title=" ">
<path fill="none" stroke="#63b8ff" d="M135.88,-55.55C131.68,-47.91 126.56,-38.61 122.09,-30.49"/>
<polygon fill="#63b8ff" stroke="#63b8ff" points="125.16,-28.81 117.28,-21.73 119.03,-32.18 125.16,-28.81"/>
</a>
</g>
</g>
<!-- Node4 -->
<g id="Node000004" class="node">
<title>Node4</title>
<g id="a_Node000004"><a xlink:title=" ">
<polygon fill="#e0e0e0" stroke="#999999" points="198.38,-20 158.38,-20 158.38,0 198.38,0 198.38,-20"/>
<text xml:space="preserve" text-anchor="middle" x="178.38" y="-6.5" font-family="Helvetica,sans-Serif" font-size="10.00">string</text>
</a>
</g>
</g>
<!-- Node1&#45;&gt;Node4 -->
<g id="edge3_Node000001_Node000004" class="edge">
<title>Node1&#45;&gt;Node4</title>
<g id="a_edge3_Node000001_Node000004"><a xlink:title=" ">
<path fill="none" stroke="#63b8ff" d="M153.13,-55.55C157.51,-47.82 162.85,-38.4 167.49,-30.21"/>
<polygon fill="#63b8ff" stroke="#63b8ff" points="170.41,-32.15 172.3,-21.72 164.32,-28.7 170.41,-32.15"/>
</a>
</g>
</g>
<!-- Node5 -->
<g id="Node000005" class="node">
<title>Node5</title>
<g id="a_Node000005"><a xlink:title=" ">
<polygon fill="#e0e0e0" stroke="#999999" points="268,-20 216.75,-20 216.75,0 268,0 268,-20"/>
<text xml:space="preserve" text-anchor="middle" x="242.38" y="-6.5" font-family="Helvetica,sans-Serif" font-size="10.00">sstream</text>
</a>
</g>
</g>
<!-- Node1&#45;&gt;Node5 -->
<g id="edge4_Node000001_Node000005" class="edge">
<title>Node1&#45;&gt;Node5</title>
<g id="a_edge4_Node000001_Node000005"><a xlink:title=" ">
<path fill="none" stroke="#63b8ff" d="M169.61,-55.55C184.36,-46.52 202.89,-35.17 217.56,-26.19"/>
<polygon fill="#63b8ff" stroke="#63b8ff" points="219.02,-29.4 225.72,-21.2 215.36,-23.43 219.02,-29.4"/>
</a>
</g>
</g>
</g>
</svg>
</svg>

<style type='text/css'>
<![CDATA[
[data-mouse-over-selected='false'] { opacity: 0.7; }
[data-mouse-over-selected='true']  { opacity: 1.0; }
]]>
</style>
<script type="application/ecmascript"><![CDATA[
document.addEventListener('DOMContentLoaded', (event) => {
  highlightEdges();
  highlightAdjacentNodes();
});
]]></script>
</svg>
