<?xml version="1.0" encoding="UTF-8" standalone="no"?>
<!DOCTYPE svg PUBLIC "-//W3C//DTD SVG 1.1//EN"
 "http://www.w3.org/Graphics/SVG/1.1/DTD/svg11.dtd">
<!-- Generated by graphviz version 2.43.0 (0)
 -->
<!-- Title: NotesManager::generateUUID Pages: 1 -->
<svg width="838pt" height="101pt"
 viewBox="0.00 0.00 838.00 101.00" xmlns="http://www.w3.org/2000/svg" xmlns:xlink="http://www.w3.org/1999/xlink">
<g id="graph0" class="graph" transform="scale(1 1) rotate(0) translate(4 97)">
<title>NotesManager::generateUUID</title>
<!-- Node1 -->
<g id="Node000001" class="node">
<title>Node1</title>
<g id="a_Node000001"><a xlink:title=" ">
<polygon fill="#999999" stroke="#666666" points="830,-56 667,-56 667,-37 830,-37 830,-56"/>
<text text-anchor="middle" x="748.5" y="-44" font-family="Helvetica,sans-Serif" font-size="10.00">NotesManager::generateUUID</text>
</a>
</g>
</g>
<!-- Node2 -->
<g id="Node000002" class="node">
<title>Node2</title>
<g id="a_Node000002"><a xlink:href="../../d6/d22/classNotesManager.html#a25028064b2467e9eea064a1c4ef91ba8" target="_top" xlink:title=" ">
<polygon fill="white" stroke="#666666" points="603.5,-93 455.5,-93 455.5,-74 603.5,-74 603.5,-93"/>
<text text-anchor="middle" x="529.5" y="-81" font-family="Helvetica,sans-Serif" font-size="10.00">NotesManager::createNote</text>
</a>
</g>
</g>
<!-- Node1&#45;&gt;Node2 -->
<g id="edge1_Node000001_Node000002" class="edge">
<title>Node1&#45;&gt;Node2</title>
<g id="a_edge1_Node000001_Node000002"><a xlink:title=" ">
<path fill="none" stroke="#63b8ff" d="M681.55,-57.75C651.21,-62.92 615.59,-68.99 586.57,-73.94"/>
<polygon fill="#63b8ff" stroke="#63b8ff" points="682.35,-61.16 691.62,-56.03 681.17,-54.26 682.35,-61.16"/>
</a>
</g>
</g>
<!-- Node3 -->
<g id="Node000003" class="node">
<title>Node3</title>
<g id="a_Node000003"><a xlink:href="../../d6/d22/classNotesManager.html#a037463bcba85b07e00958d45ba6dbd60" target="_top" xlink:title=" ">
<polygon fill="white" stroke="#666666" points="624,-56 435,-56 435,-37 624,-37 624,-56"/>
<text text-anchor="middle" x="529.5" y="-44" font-family="Helvetica,sans-Serif" font-size="10.00">NotesManager::parseMarkdownFile</text>
</a>
</g>
</g>
<!-- Node1&#45;&gt;Node3 -->
<g id="edge2_Node000001_Node000003" class="edge">
<title>Node1&#45;&gt;Node3</title>
<g id="a_edge2_Node000001_Node000003"><a xlink:title=" ">
<path fill="none" stroke="#63b8ff" d="M656.53,-46.5C645.83,-46.5 634.91,-46.5 624.18,-46.5"/>
<polygon fill="#63b8ff" stroke="#63b8ff" points="656.7,-50 666.7,-46.5 656.7,-43 656.7,-50"/>
</a>
</g>
</g>
<!-- Node8 -->
<g id="Node000008" class="node">
<title>Node8</title>
<g id="a_Node000008"><a xlink:href="../../d6/d22/classNotesManager.html#ab0a278cd688dcd64ae25cb91d1a2fe34" target="_top" xlink:title=" ">
<polygon fill="white" stroke="#666666" points="631,-19 428,-19 428,0 631,0 631,-19"/>
<text text-anchor="middle" x="529.5" y="-7" font-family="Helvetica,sans-Serif" font-size="10.00">NotesManager::upsertSharedIncoming</text>
</a>
</g>
</g>
<!-- Node1&#45;&gt;Node8 -->
<g id="edge7_Node000001_Node000008" class="edge">
<title>Node1&#45;&gt;Node8</title>
<g id="a_edge7_Node000001_Node000008"><a xlink:title=" ">
<path fill="none" stroke="#63b8ff" d="M681.55,-35.25C651.21,-30.08 615.59,-24.01 586.57,-19.06"/>
<polygon fill="#63b8ff" stroke="#63b8ff" points="681.17,-38.74 691.62,-36.97 682.35,-31.84 681.17,-38.74"/>
</a>
</g>
</g>
<!-- Node4 -->
<g id="Node000004" class="node">
<title>Node4</title>
<g id="a_Node000004"><a xlink:href="../../d6/d22/classNotesManager.html#ab3b787865dc553f59e3e5d8c6cd44402" target="_top" xlink:title=" ">
<polygon fill="white" stroke="#666666" points="392,-56 210,-56 210,-37 392,-37 392,-56"/>
<text text-anchor="middle" x="301" y="-44" font-family="Helvetica,sans-Serif" font-size="10.00">NotesManager::scanFolderForMd_</text>
</a>
</g>
</g>
<!-- Node3&#45;&gt;Node4 -->
<g id="edge3_Node000003_Node000004" class="edge">
<title>Node3&#45;&gt;Node4</title>
<g id="a_edge3_Node000003_Node000004"><a xlink:title=" ">
<path fill="none" stroke="#63b8ff" d="M424.42,-46.5C413.61,-46.5 402.69,-46.5 392.05,-46.5"/>
<polygon fill="#63b8ff" stroke="#63b8ff" points="424.74,-50 434.74,-46.5 424.74,-43 424.74,-50"/>
</a>
</g>
</g>
<!-- Node5 -->
<g id="Node000005" class="node">
<title>Node5</title>
<g id="a_Node000005"><a xlink:href="../../d6/d22/classNotesManager.html#ad27f8593eb58d8f778818bf4921574f3" target="_top" xlink:title=" ">
<polygon fill="white" stroke="#666666" points="174,-93 0,-93 0,-74 174,-74 174,-93"/>
<text text-anchor="middle" x="87" y="-81" font-family="Helvetica,sans-Serif" font-size="10.00">NotesManager::loadAllFromDisk</text>
</a>
</g>
</g>
<!-- Node4&#45;&gt;Node5 -->
<g id="edge4_Node000004_Node000005" class="edge">
<title>Node4&#45;&gt;Node5</title>
<g id="a_edge4_Node000004_Node000005"><a xlink:title=" ">
<path fill="none" stroke="#63b8ff" d="M235.18,-57.81C205.62,-62.97 171.01,-69.01 142.78,-73.94"/>
<polygon fill="#63b8ff" stroke="#63b8ff" points="236.16,-61.2 245.4,-56.03 234.95,-54.3 236.16,-61.2"/>
</a>
</g>
</g>
<!-- Node6 -->
<g id="Node000006" class="node">
<title>Node6</title>
<g id="a_Node000006"><a xlink:href="../../d6/d22/classNotesManager.html#aa1f004250dedc1e84ec8926c0283a450" target="_top" xlink:title=" ">
<polygon fill="white" stroke="#666666" points="172.5,-56 1.5,-56 1.5,-37 172.5,-37 172.5,-56"/>
<text text-anchor="middle" x="87" y="-44" font-family="Helvetica,sans-Serif" font-size="10.00">NotesManager::loadFromGlobal</text>
</a>
</g>
</g>
<!-- Node4&#45;&gt;Node6 -->
<g id="edge5_Node000004_Node000006" class="edge">
<title>Node4&#45;&gt;Node6</title>
<g id="a_edge5_Node000004_Node000006"><a xlink:title=" ">
<path fill="none" stroke="#63b8ff" d="M199.66,-46.5C190.65,-46.5 181.6,-46.5 172.75,-46.5"/>
<polygon fill="#63b8ff" stroke="#63b8ff" points="199.79,-50 209.79,-46.5 199.79,-43 199.79,-50"/>
</a>
</g>
</g>
<!-- Node7 -->
<g id="Node000007" class="node">
<title>Node7</title>
<g id="a_Node000007"><a xlink:href="../../d6/d22/classNotesManager.html#af4a6dd97ecee332425ca422fb84bfc1f" target="_top" xlink:title=" ">
<polygon fill="white" stroke="#666666" points="169.5,-19 4.5,-19 4.5,0 169.5,0 169.5,-19"/>
<text text-anchor="middle" x="87" y="-7" font-family="Helvetica,sans-Serif" font-size="10.00">NotesManager::loadFromTable</text>
</a>
</g>
</g>
<!-- Node4&#45;&gt;Node7 -->
<g id="edge6_Node000004_Node000007" class="edge">
<title>Node4&#45;&gt;Node7</title>
<g id="a_edge6_Node000004_Node000007"><a xlink:title=" ">
<path fill="none" stroke="#63b8ff" d="M235.18,-35.19C205.62,-30.03 171.01,-23.99 142.78,-19.06"/>
<polygon fill="#63b8ff" stroke="#63b8ff" points="234.95,-38.7 245.4,-36.97 236.16,-31.8 234.95,-38.7"/>
</a>
</g>
</g>
</g>
</svg>
