<?xml version="1.0" encoding="UTF-8" standalone="no"?>
<!DOCTYPE svg PUBLIC "-//W3C//DTD SVG 1.1//EN"
 "http://www.w3.org/Graphics/SVG/1.1/DTD/svg11.dtd">
<!-- Generated by graphviz version 2.43.0 (0)
 -->
<!-- Title: NotesManager::loadAllFromDisk Pages: 1 -->
<svg width="834pt" height="82pt"
 viewBox="0.00 0.00 834.00 82.00" xmlns="http://www.w3.org/2000/svg" xmlns:xlink="http://www.w3.org/1999/xlink">
<g id="graph0" class="graph" transform="scale(1 1) rotate(0) translate(4 78)">
<title>NotesManager::loadAllFromDisk</title>
<!-- Node1 -->
<g id="Node000001" class="node">
<title>Node1</title>
<g id="a_Node000001"><a xlink:title=" ">
<polygon fill="#999999" stroke="#666666" points="174,-37 0,-37 0,-18 174,-18 174,-37"/>
<text text-anchor="middle" x="87" y="-25" font-family="Helvetica,sans-Serif" font-size="10.00">NotesManager::loadAllFromDisk</text>
</a>
</g>
</g>
<!-- Node2 -->
<g id="Node000002" class="node">
<title>Node2</title>
<g id="a_Node000002"><a xlink:href="../../d6/d22/classNotesManager.html#ab3b787865dc553f59e3e5d8c6cd44402" target="_top" xlink:title=" ">
<polygon fill="white" stroke="#666666" points="392,-56 210,-56 210,-37 392,-37 392,-56"/>
<text text-anchor="middle" x="301" y="-44" font-family="Helvetica,sans-Serif" font-size="10.00">NotesManager::scanFolderForMd_</text>
</a>
</g>
</g>
<!-- Node1&#45;&gt;Node2 -->
<g id="edge1_Node000001_Node000002" class="edge">
<title>Node1&#45;&gt;Node2</title>
<g id="a_edge1_Node000001_Node000002"><a xlink:title=" ">
<path fill="none" stroke="#63b8ff" d="M174.23,-35.23C182.63,-35.98 191.21,-36.75 199.74,-37.51"/>
<polygon fill="#63b8ff" stroke="#63b8ff" points="199.44,-41 209.71,-38.41 200.06,-34.03 199.44,-41"/>
</a>
</g>
</g>
<!-- Node7 -->
<g id="Node000007" class="node">
<title>Node7</title>
<g id="a_Node000007"><a xlink:href="../../d6/d22/classNotesManager.html#ac80d118ff9b4d60588936093c67766bf" target="_top" xlink:title=" ">
<polygon fill="white" stroke="#666666" points="369.5,-19 232.5,-19 232.5,0 369.5,0 369.5,-19"/>
<text text-anchor="middle" x="301" y="-7" font-family="Helvetica,sans-Serif" font-size="10.00">NotesManager::toastInfo</text>
</a>
</g>
</g>
<!-- Node1&#45;&gt;Node7 -->
<g id="edge6_Node000001_Node000007" class="edge">
<title>Node1&#45;&gt;Node7</title>
<g id="a_edge6_Node000001_Node000007"><a xlink:title=" ">
<path fill="none" stroke="#63b8ff" d="M174.23,-20.18C190.12,-18.83 206.63,-17.43 222.25,-16.1"/>
<polygon fill="#63b8ff" stroke="#63b8ff" points="222.71,-19.58 232.38,-15.24 222.12,-12.6 222.71,-19.58"/>
</a>
</g>
</g>
<!-- Node3 -->
<g id="Node000003" class="node">
<title>Node3</title>
<g id="a_Node000003"><a xlink:href="../../d0/d2a/NotesManager_8cpp.html#a96ca1040c499819ef9fc0891872c1dc8" target="_top" xlink:title=" ">
<polygon fill="white" stroke="#666666" points="568.5,-74 476.5,-74 476.5,-55 568.5,-55 568.5,-74"/>
<text text-anchor="middle" x="522.5" y="-62" font-family="Helvetica,sans-Serif" font-size="10.00">isMarkdownExt</text>
</a>
</g>
</g>
<!-- Node2&#45;&gt;Node3 -->
<g id="edge2_Node000002_Node000003" class="edge">
<title>Node2&#45;&gt;Node3</title>
<g id="a_edge2_Node000002_Node000003"><a xlink:title=" ">
<path fill="none" stroke="#63b8ff" d="M392.23,-53.9C417.35,-55.96 443.88,-58.14 466.33,-59.98"/>
<polygon fill="#63b8ff" stroke="#63b8ff" points="466.08,-63.47 476.34,-60.8 466.66,-56.49 466.08,-63.47"/>
</a>
</g>
</g>
<!-- Node4 -->
<g id="Node000004" class="node">
<title>Node4</title>
<g id="a_Node000004"><a xlink:href="../../d6/d22/classNotesManager.html#a037463bcba85b07e00958d45ba6dbd60" target="_top" xlink:title=" ">
<polygon fill="white" stroke="#666666" points="617,-37 428,-37 428,-18 617,-18 617,-37"/>
<text text-anchor="middle" x="522.5" y="-25" font-family="Helvetica,sans-Serif" font-size="10.00">NotesManager::parseMarkdownFile</text>
</a>
</g>
</g>
<!-- Node2&#45;&gt;Node4 -->
<g id="edge3_Node000002_Node000004" class="edge">
<title>Node2&#45;&gt;Node4</title>
<g id="a_edge3_Node000002_Node000004"><a xlink:title=" ">
<path fill="none" stroke="#63b8ff" d="M392.23,-38.69C400.64,-37.96 409.22,-37.22 417.74,-36.48"/>
<polygon fill="#63b8ff" stroke="#63b8ff" points="418.05,-39.97 427.71,-35.62 417.45,-32.99 418.05,-39.97"/>
</a>
</g>
</g>
<!-- Node5 -->
<g id="Node000005" class="node">
<title>Node5</title>
<g id="a_Node000005"><a xlink:href="../../d6/d22/classNotesManager.html#ad0d8672d88e2eef61fb90dfce9bc18d9" target="_top" xlink:title=" ">
<polygon fill="white" stroke="#666666" points="826,-56 653,-56 653,-37 826,-37 826,-56"/>
<text text-anchor="middle" x="739.5" y="-44" font-family="Helvetica,sans-Serif" font-size="10.00">NotesManager::fromEpochMillis</text>
</a>
</g>
</g>
<!-- Node4&#45;&gt;Node5 -->
<g id="edge4_Node000004_Node000005" class="edge">
<title>Node4&#45;&gt;Node5</title>
<g id="a_edge4_Node000004_Node000005"><a xlink:title=" ">
<path fill="none" stroke="#63b8ff" d="M617.18,-35.78C625.72,-36.53 634.38,-37.3 642.93,-38.05"/>
<polygon fill="#63b8ff" stroke="#63b8ff" points="642.65,-41.54 652.92,-38.94 643.26,-34.57 642.65,-41.54"/>
</a>
</g>
</g>
<!-- Node6 -->
<g id="Node000006" class="node">
<title>Node6</title>
<g id="a_Node000006"><a xlink:href="../../d6/d22/classNotesManager.html#aafac8c0a547a63f95440d0ab7bdbe4ef" target="_top" xlink:title=" ">
<polygon fill="white" stroke="#666666" points="821,-19 658,-19 658,0 821,0 821,-19"/>
<text text-anchor="middle" x="739.5" y="-7" font-family="Helvetica,sans-Serif" font-size="10.00">NotesManager::generateUUID</text>
</a>
</g>
</g>
<!-- Node4&#45;&gt;Node6 -->
<g id="edge5_Node000004_Node000006" class="edge">
<title>Node4&#45;&gt;Node6</title>
<g id="a_edge5_Node000004_Node000006"><a xlink:title=" ">
<path fill="none" stroke="#63b8ff" d="M617.18,-19.66C627.36,-18.8 637.71,-17.94 647.86,-17.09"/>
<polygon fill="#63b8ff" stroke="#63b8ff" points="648.25,-20.57 657.93,-16.25 647.67,-13.59 648.25,-20.57"/>
</a>
</g>
</g>
</g>
</svg>
