<?xml version="1.0" encoding="UTF-8" standalone="no"?>
<!DOCTYPE svg PUBLIC "-//W3C//DTD SVG 1.1//EN"
 "http://www.w3.org/Graphics/SVG/1.1/DTD/svg11.dtd">
<!-- Generated by graphviz version 2.43.0 (0)
 -->
<!-- Title: NotesManager::toEpochMillis Pages: 1 -->
<svg width="758pt" height="138pt"
 viewBox="0.00 0.00 758.00 138.00" xmlns="http://www.w3.org/2000/svg" xmlns:xlink="http://www.w3.org/1999/xlink">
<g id="graph0" class="graph" transform="scale(1 1) rotate(0) translate(4 134)">
<title>NotesManager::toEpochMillis</title>
<!-- Node1 -->
<g id="Node000001" class="node">
<title>Node1</title>
<g id="a_Node000001"><a xlink:title=" ">
<polygon fill="#999999" stroke="#666666" points="750,-92 591,-92 591,-73 750,-73 750,-92"/>
<text text-anchor="middle" x="670.5" y="-80" font-family="Helvetica,sans-Serif" font-size="10.00">NotesManager::toEpochMillis</text>
</a>
</g>
</g>
<!-- Node2 -->
<g id="Node000002" class="node">
<title>Node2</title>
<g id="a_Node000002"><a xlink:href="../../dc/de9/classNoteEditorUI.html#a41e928a368befa223a486e3417e26382" target="_top" xlink:title=" ">
<polygon fill="white" stroke="#666666" points="540.5,-120 382.5,-120 382.5,-101 540.5,-101 540.5,-120"/>
<text text-anchor="middle" x="461.5" y="-108" font-family="Helvetica,sans-Serif" font-size="10.00">NoteEditorUI::renderOneTab_</text>
</a>
</g>
</g>
<!-- Node1&#45;&gt;Node2 -->
<g id="edge1_Node000001_Node000002" class="edge">
<title>Node1&#45;&gt;Node2</title>
<g id="a_edge1_Node000001_Node000002"><a xlink:title=" ">
<path fill="none" stroke="#63b8ff" d="M588.99,-93.39C570.53,-95.89 551.03,-98.52 533.03,-100.96"/>
<polygon fill="#63b8ff" stroke="#63b8ff" points="589.69,-96.83 599.13,-92.02 588.75,-89.89 589.69,-96.83"/>
</a>
</g>
</g>
<!-- Node5 -->
<g id="Node000005" class="node">
<title>Node5</title>
<g id="a_Node000005"><a xlink:href="../../d6/d22/classNotesManager.html#af75002653d61b6835f1eebc29fd328e1" target="_top" xlink:title=" ">
<polygon fill="white" stroke="#666666" points="555,-74 368,-74 368,-55 555,-55 555,-74"/>
<text text-anchor="middle" x="461.5" y="-62" font-family="Helvetica,sans-Serif" font-size="10.00">NotesManager::writeMarkdownFile</text>
</a>
</g>
</g>
<!-- Node1&#45;&gt;Node5 -->
<g id="edge4_Node000001_Node000005" class="edge">
<title>Node1&#45;&gt;Node5</title>
<g id="a_edge4_Node000001_Node000005"><a xlink:title=" ">
<path fill="none" stroke="#63b8ff" d="M580.73,-74.78C572.29,-74.05 563.72,-73.3 555.24,-72.56"/>
<polygon fill="#63b8ff" stroke="#63b8ff" points="580.68,-78.29 590.95,-75.67 581.29,-71.32 580.68,-78.29"/>
</a>
</g>
</g>
<!-- Node3 -->
<g id="Node000003" class="node">
<title>Node3</title>
<g id="a_Node000003"><a xlink:href="../../dc/de9/classNoteEditorUI.html#a3ea6ba49489a982beddb2ed1c4e46cf3" target="_top" xlink:title=" ">
<polygon fill="white" stroke="#666666" points="325,-130 159,-130 159,-111 325,-111 325,-130"/>
<text text-anchor="middle" x="242" y="-118" font-family="Helvetica,sans-Serif" font-size="10.00">NoteEditorUI::renderTabsArea_</text>
</a>
</g>
</g>
<!-- Node2&#45;&gt;Node3 -->
<g id="edge2_Node000002_Node000003" class="edge">
<title>Node2&#45;&gt;Node3</title>
<g id="a_edge2_Node000002_Node000003"><a xlink:title=" ">
<path fill="none" stroke="#63b8ff" d="M372.2,-114.56C356.69,-115.27 340.62,-116.01 325.29,-116.72"/>
<polygon fill="#63b8ff" stroke="#63b8ff" points="372.46,-118.05 382.28,-114.1 372.13,-111.06 372.46,-118.05"/>
</a>
</g>
</g>
<!-- Node4 -->
<g id="Node000004" class="node">
<title>Node4</title>
<g id="a_Node000004"><a xlink:href="../../dc/de9/classNoteEditorUI.html#a3a9be72ef4837839ff716f6afd456611" target="_top" xlink:title=" ">
<polygon fill="white" stroke="#666666" points="116,-130 0,-130 0,-111 116,-111 116,-130"/>
<text text-anchor="middle" x="58" y="-118" font-family="Helvetica,sans-Serif" font-size="10.00">NoteEditorUI::render</text>
</a>
</g>
</g>
<!-- Node3&#45;&gt;Node4 -->
<g id="edge3_Node000003_Node000004" class="edge">
<title>Node3&#45;&gt;Node4</title>
<g id="a_edge3_Node000003_Node000004"><a xlink:title=" ">
<path fill="none" stroke="#63b8ff" d="M148.62,-120.5C137.54,-120.5 126.49,-120.5 116.12,-120.5"/>
<polygon fill="#63b8ff" stroke="#63b8ff" points="148.79,-124 158.79,-120.5 148.79,-117 148.79,-124"/>
</a>
</g>
</g>
<!-- Node6 -->
<g id="Node000006" class="node">
<title>Node6</title>
<g id="a_Node000006"><a xlink:href="../../d6/d22/classNotesManager.html#a03806d2e472d4d7a4aa16159fddfbb94" target="_top" xlink:title=" ">
<polygon fill="white" stroke="#666666" points="332,-93 152,-93 152,-74 332,-74 332,-93"/>
<text text-anchor="middle" x="242" y="-81" font-family="Helvetica,sans-Serif" font-size="10.00">NotesManager::saveInboxToLocal</text>
</a>
</g>
</g>
<!-- Node5&#45;&gt;Node6 -->
<g id="edge5_Node000005_Node000006" class="edge">
<title>Node5&#45;&gt;Node6</title>
<g id="a_edge5_Node000005_Node000006"><a xlink:title=" ">
<path fill="none" stroke="#63b8ff" d="M357.85,-73.47C349.21,-74.22 340.53,-74.98 332.01,-75.72"/>
<polygon fill="#63b8ff" stroke="#63b8ff" points="358.29,-76.94 367.95,-72.59 357.68,-69.97 358.29,-76.94"/>
</a>
</g>
</g>
<!-- Node7 -->
<g id="Node000007" class="node">
<title>Node7</title>
<g id="a_Node000007"><a xlink:href="../../d6/d22/classNotesManager.html#a89f1c0c8537a6d0224a81f3989f01064" target="_top" xlink:title=" ">
<polygon fill="white" stroke="#666666" points="312,-56 172,-56 172,-37 312,-37 312,-56"/>
<text text-anchor="middle" x="242" y="-44" font-family="Helvetica,sans-Serif" font-size="10.00">NotesManager::saveNote</text>
</a>
</g>
</g>
<!-- Node5&#45;&gt;Node7 -->
<g id="edge6_Node000005_Node000007" class="edge">
<title>Node5&#45;&gt;Node7</title>
<g id="a_edge6_Node000005_Node000007"><a xlink:title=" ">
<path fill="none" stroke="#63b8ff" d="M357.8,-56C342.3,-54.72 326.64,-53.42 312.08,-52.22"/>
<polygon fill="#63b8ff" stroke="#63b8ff" points="357.69,-59.5 367.95,-56.84 358.27,-52.53 357.69,-59.5"/>
</a>
</g>
</g>
<!-- Node8 -->
<g id="Node000008" class="node">
<title>Node8</title>
<g id="a_Node000008"><a xlink:href="../../d6/d22/classNotesManager.html#a91b824469d0c7b59abc82b536265049b" target="_top" xlink:title=" ">
<polygon fill="white" stroke="#666666" points="318,-19 166,-19 166,0 318,0 318,-19"/>
<text text-anchor="middle" x="242" y="-7" font-family="Helvetica,sans-Serif" font-size="10.00">NotesManager::saveNoteAs</text>
</a>
</g>
</g>
<!-- Node5&#45;&gt;Node8 -->
<g id="edge7_Node000005_Node000008" class="edge">
<title>Node5&#45;&gt;Node8</title>
<g id="a_edge7_Node000005_Node000008"><a xlink:title=" ">
<path fill="none" stroke="#63b8ff" d="M420.45,-52.07C395.21,-44.45 361.86,-34.81 332,-27.5 319.75,-24.5 306.46,-21.62 293.99,-19.08"/>
<polygon fill="#63b8ff" stroke="#63b8ff" points="419.46,-55.42 430.05,-54.98 421.5,-48.72 419.46,-55.42"/>
</a>
</g>
</g>
</g>
</svg>
