<?xml version="1.0" encoding="UTF-8" standalone="no"?>
<!DOCTYPE svg PUBLIC "-//W3C//DTD SVG 1.1//EN"
 "http://www.w3.org/Graphics/SVG/1.1/DTD/svg11.dtd">
<!-- Generated by graphviz version 2.43.0 (0)
 -->
<!-- Title: NotesManager::loadFromGlobal Pages: 1 -->
<svg width="831pt" height="82pt"
 viewBox="0.00 0.00 831.00 82.00" xmlns="http://www.w3.org/2000/svg" xmlns:xlink="http://www.w3.org/1999/xlink">
<g id="graph0" class="graph" transform="scale(1 1) rotate(0) translate(4 78)">
<title>NotesManager::loadFromGlobal</title>
<!-- Node1 -->
<g id="Node000001" class="node">
<title>Node1</title>
<g id="a_Node000001"><a xlink:title=" ">
<polygon fill="#999999" stroke="#666666" points="171,-37 0,-37 0,-18 171,-18 171,-37"/>
<text text-anchor="middle" x="85.5" y="-25" font-family="Helvetica,sans-Serif" font-size="10.00">NotesManager::loadFromGlobal</text>
</a>
</g>
</g>
<!-- Node2 -->
<g id="Node000002" class="node">
<title>Node2</title>
<g id="a_Node000002"><a xlink:href="../../d6/d22/classNotesManager.html#ab3b787865dc553f59e3e5d8c6cd44402" target="_top" xlink:title=" ">
<polygon fill="white" stroke="#666666" points="389,-56 207,-56 207,-37 389,-37 389,-56"/>
<text text-anchor="middle" x="298" y="-44" font-family="Helvetica,sans-Serif" font-size="10.00">NotesManager::scanFolderForMd_</text>
</a>
</g>
</g>
<!-- Node1&#45;&gt;Node2 -->
<g id="edge1_Node000001_Node000002" class="edge">
<title>Node1&#45;&gt;Node2</title>
<g id="a_edge1_Node000001_Node000002"><a xlink:title=" ">
<path fill="none" stroke="#63b8ff" d="M171.21,-35.15C179.67,-35.91 188.31,-36.69 196.9,-37.47"/>
<polygon fill="#63b8ff" stroke="#63b8ff" points="196.69,-40.96 206.96,-38.37 197.31,-33.99 196.69,-40.96"/>
</a>
</g>
</g>
<!-- Node7 -->
<g id="Node000007" class="node">
<title>Node7</title>
<g id="a_Node000007"><a xlink:href="../../d6/d22/classNotesManager.html#ac80d118ff9b4d60588936093c67766bf" target="_top" xlink:title=" ">
<polygon fill="white" stroke="#666666" points="366.5,-19 229.5,-19 229.5,0 366.5,0 366.5,-19"/>
<text text-anchor="middle" x="298" y="-7" font-family="Helvetica,sans-Serif" font-size="10.00">NotesManager::toastInfo</text>
</a>
</g>
</g>
<!-- Node1&#45;&gt;Node7 -->
<g id="edge6_Node000001_Node000007" class="edge">
<title>Node1&#45;&gt;Node7</title>
<g id="a_edge6_Node000001_Node000007"><a xlink:title=" ">
<path fill="none" stroke="#63b8ff" d="M171.21,-20.26C187.05,-18.9 203.53,-17.49 219.15,-16.16"/>
<polygon fill="#63b8ff" stroke="#63b8ff" points="219.61,-19.63 229.27,-15.29 219.01,-12.66 219.61,-19.63"/>
</a>
</g>
</g>
<!-- Node3 -->
<g id="Node000003" class="node">
<title>Node3</title>
<g id="a_Node000003"><a xlink:href="../../d0/d2a/NotesManager_8cpp.html#a96ca1040c499819ef9fc0891872c1dc8" target="_top" xlink:title=" ">
<polygon fill="white" stroke="#666666" points="565.5,-74 473.5,-74 473.5,-55 565.5,-55 565.5,-74"/>
<text text-anchor="middle" x="519.5" y="-62" font-family="Helvetica,sans-Serif" font-size="10.00">isMarkdownExt</text>
</a>
</g>
</g>
<!-- Node2&#45;&gt;Node3 -->
<g id="edge2_Node000002_Node000003" class="edge">
<title>Node2&#45;&gt;Node3</title>
<g id="a_edge2_Node000002_Node000003"><a xlink:title=" ">
<path fill="none" stroke="#63b8ff" d="M389.23,-53.9C414.35,-55.96 440.88,-58.14 463.33,-59.98"/>
<polygon fill="#63b8ff" stroke="#63b8ff" points="463.08,-63.47 473.34,-60.8 463.66,-56.49 463.08,-63.47"/>
</a>
</g>
</g>
<!-- Node4 -->
<g id="Node000004" class="node">
<title>Node4</title>
<g id="a_Node000004"><a xlink:href="../../d6/d22/classNotesManager.html#a037463bcba85b07e00958d45ba6dbd60" target="_top" xlink:title=" ">
<polygon fill="white" stroke="#666666" points="614,-37 425,-37 425,-18 614,-18 614,-37"/>
<text text-anchor="middle" x="519.5" y="-25" font-family="Helvetica,sans-Serif" font-size="10.00">NotesManager::parseMarkdownFile</text>
</a>
</g>
</g>
<!-- Node2&#45;&gt;Node4 -->
<g id="edge3_Node000002_Node000004" class="edge">
<title>Node2&#45;&gt;Node4</title>
<g id="a_edge3_Node000002_Node000004"><a xlink:title=" ">
<path fill="none" stroke="#63b8ff" d="M389.23,-38.69C397.64,-37.96 406.22,-37.22 414.74,-36.48"/>
<polygon fill="#63b8ff" stroke="#63b8ff" points="415.05,-39.97 424.71,-35.62 414.45,-32.99 415.05,-39.97"/>
</a>
</g>
</g>
<!-- Node5 -->
<g id="Node000005" class="node">
<title>Node5</title>
<g id="a_Node000005"><a xlink:href="../../d6/d22/classNotesManager.html#ad0d8672d88e2eef61fb90dfce9bc18d9" target="_top" xlink:title=" ">
<polygon fill="white" stroke="#666666" points="823,-56 650,-56 650,-37 823,-37 823,-56"/>
<text text-anchor="middle" x="736.5" y="-44" font-family="Helvetica,sans-Serif" font-size="10.00">NotesManager::fromEpochMillis</text>
</a>
</g>
</g>
<!-- Node4&#45;&gt;Node5 -->
<g id="edge4_Node000004_Node000005" class="edge">
<title>Node4&#45;&gt;Node5</title>
<g id="a_edge4_Node000004_Node000005"><a xlink:title=" ">
<path fill="none" stroke="#63b8ff" d="M614.18,-35.78C622.72,-36.53 631.38,-37.3 639.93,-38.05"/>
<polygon fill="#63b8ff" stroke="#63b8ff" points="639.65,-41.54 649.92,-38.94 640.26,-34.57 639.65,-41.54"/>
</a>
</g>
</g>
<!-- Node6 -->
<g id="Node000006" class="node">
<title>Node6</title>
<g id="a_Node000006"><a xlink:href="../../d6/d22/classNotesManager.html#aafac8c0a547a63f95440d0ab7bdbe4ef" target="_top" xlink:title=" ">
<polygon fill="white" stroke="#666666" points="818,-19 655,-19 655,0 818,0 818,-19"/>
<text text-anchor="middle" x="736.5" y="-7" font-family="Helvetica,sans-Serif" font-size="10.00">NotesManager::generateUUID</text>
</a>
</g>
</g>
<!-- Node4&#45;&gt;Node6 -->
<g id="edge5_Node000004_Node000006" class="edge">
<title>Node4&#45;&gt;Node6</title>
<g id="a_edge5_Node000004_Node000006"><a xlink:title=" ">
<path fill="none" stroke="#63b8ff" d="M614.18,-19.66C624.36,-18.8 634.71,-17.94 644.86,-17.09"/>
<polygon fill="#63b8ff" stroke="#63b8ff" points="645.25,-20.57 654.93,-16.25 644.67,-13.59 645.25,-20.57"/>
</a>
</g>
</g>
</g>
</svg>
