<?xml version="1.0" encoding="UTF-8" standalone="no"?>
<!DOCTYPE svg PUBLIC "-//W3C//DTD SVG 1.1//EN"
 "http://www.w3.org/Graphics/SVG/1.1/DTD/svg11.dtd">
<!-- Generated by graphviz version 2.43.0 (0)
 -->
<!-- Title: NotesManager::toastGood Pages: 1 -->
<svg width="368pt" height="138pt"
 viewBox="0.00 0.00 368.00 138.00" xmlns="http://www.w3.org/2000/svg" xmlns:xlink="http://www.w3.org/1999/xlink">
<g id="graph0" class="graph" transform="scale(1 1) rotate(0) translate(4 134)">
<title>NotesManager::toastGood</title>
<!-- Node1 -->
<g id="Node000001" class="node">
<title>Node1</title>
<g id="a_Node000001"><a xlink:title=" ">
<polygon fill="#999999" stroke="#666666" points="360,-74 216,-74 216,-55 360,-55 360,-74"/>
<text text-anchor="middle" x="288" y="-62" font-family="Helvetica,sans-Serif" font-size="10.00">NotesManager::toastGood</text>
</a>
</g>
</g>
<!-- Node2 -->
<g id="Node000002" class="node">
<title>Node2</title>
<g id="a_Node000002"><a xlink:href="../../d6/d22/classNotesManager.html#a25028064b2467e9eea064a1c4ef91ba8" target="_top" xlink:title=" ">
<polygon fill="white" stroke="#666666" points="164,-130 16,-130 16,-111 164,-111 164,-130"/>
<text text-anchor="middle" x="90" y="-118" font-family="Helvetica,sans-Serif" font-size="10.00">NotesManager::createNote</text>
</a>
</g>
</g>
<!-- Node1&#45;&gt;Node2 -->
<g id="edge1_Node000001_Node000002" class="edge">
<title>Node1&#45;&gt;Node2</title>
<g id="a_edge1_Node000001_Node000002"><a xlink:title=" ">
<path fill="none" stroke="#63b8ff" d="M253.7,-77.7C232.77,-85.65 205.09,-95.54 180,-102.5 168.61,-105.66 156.25,-108.51 144.47,-110.97"/>
<polygon fill="#63b8ff" stroke="#63b8ff" points="255.01,-80.95 263.09,-74.09 252.5,-74.41 255.01,-80.95"/>
</a>
</g>
</g>
<!-- Node3 -->
<g id="Node000003" class="node">
<title>Node3</title>
<g id="a_Node000003"><a xlink:href="../../d6/d22/classNotesManager.html#a03806d2e472d4d7a4aa16159fddfbb94" target="_top" xlink:title=" ">
<polygon fill="white" stroke="#666666" points="180,-93 0,-93 0,-74 180,-74 180,-93"/>
<text text-anchor="middle" x="90" y="-81" font-family="Helvetica,sans-Serif" font-size="10.00">NotesManager::saveInboxToLocal</text>
</a>
</g>
</g>
<!-- Node1&#45;&gt;Node3 -->
<g id="edge2_Node000001_Node000003" class="edge">
<title>Node1&#45;&gt;Node3</title>
<g id="a_edge2_Node000001_Node000003"><a xlink:title=" ">
<path fill="none" stroke="#63b8ff" d="M205.77,-72.37C197.33,-73.19 188.73,-74.03 180.21,-74.85"/>
<polygon fill="#63b8ff" stroke="#63b8ff" points="206.35,-75.83 215.96,-71.39 205.67,-68.87 206.35,-75.83"/>
</a>
</g>
</g>
<!-- Node4 -->
<g id="Node000004" class="node">
<title>Node4</title>
<g id="a_Node000004"><a xlink:href="../../d6/d22/classNotesManager.html#a89f1c0c8537a6d0224a81f3989f01064" target="_top" xlink:title=" ">
<polygon fill="white" stroke="#666666" points="160,-56 20,-56 20,-37 160,-37 160,-56"/>
<text text-anchor="middle" x="90" y="-44" font-family="Helvetica,sans-Serif" font-size="10.00">NotesManager::saveNote</text>
</a>
</g>
</g>
<!-- Node1&#45;&gt;Node4 -->
<g id="edge3_Node000001_Node000004" class="edge">
<title>Node1&#45;&gt;Node4</title>
<g id="a_edge3_Node000001_Node000004"><a xlink:title=" ">
<path fill="none" stroke="#63b8ff" d="M205.61,-57.03C190.5,-55.64 174.86,-54.2 160.16,-52.85"/>
<polygon fill="#63b8ff" stroke="#63b8ff" points="205.68,-60.55 215.96,-57.98 206.32,-53.58 205.68,-60.55"/>
</a>
</g>
</g>
<!-- Node5 -->
<g id="Node000005" class="node">
<title>Node5</title>
<g id="a_Node000005"><a xlink:href="../../d6/d22/classNotesManager.html#a91b824469d0c7b59abc82b536265049b" target="_top" xlink:title=" ">
<polygon fill="white" stroke="#666666" points="166,-19 14,-19 14,0 166,0 166,-19"/>
<text text-anchor="middle" x="90" y="-7" font-family="Helvetica,sans-Serif" font-size="10.00">NotesManager::saveNoteAs</text>
</a>
</g>
</g>
<!-- Node1&#45;&gt;Node5 -->
<g id="edge4_Node000001_Node000005" class="edge">
<title>Node1&#45;&gt;Node5</title>
<g id="a_edge4_Node000001_Node000005"><a xlink:title=" ">
<path fill="none" stroke="#63b8ff" d="M251.67,-51.48C230.97,-44.14 204.2,-35.13 180,-28.5 167.35,-25.03 153.55,-21.82 140.67,-19.06"/>
<polygon fill="#63b8ff" stroke="#63b8ff" points="250.71,-54.86 261.31,-54.93 253.08,-48.27 250.71,-54.86"/>
</a>
</g>
</g>
</g>
</svg>
