<?xml version="1.0" encoding="UTF-8" standalone="no"?>
<!DOCTYPE svg PUBLIC "-//W3C//DTD SVG 1.1//EN"
 "http://www.w3.org/Graphics/SVG/1.1/DTD/svg11.dtd">
<!-- Generated by graphviz version 2.43.0 (0)
 -->
<!-- Title: NotesManager::saveNote Pages: 1 -->
<svg width="566pt" height="138pt"
 viewBox="0.00 0.00 566.00 138.00" xmlns="http://www.w3.org/2000/svg" xmlns:xlink="http://www.w3.org/1999/xlink">
<g id="graph0" class="graph" transform="scale(1 1) rotate(0) translate(4 134)">
<title>NotesManager::saveNote</title>
<!-- Node1 -->
<g id="Node000001" class="node">
<title>Node1</title>
<g id="a_Node000001"><a xlink:title=" ">
<polygon fill="#999999" stroke="#666666" points="140,-74 0,-74 0,-55 140,-55 140,-74"/>
<text text-anchor="middle" x="70" y="-62" font-family="Helvetica,sans-Serif" font-size="10.00">NotesManager::saveNote</text>
</a>
</g>
</g>
<!-- Node2 -->
<g id="Node000002" class="node">
<title>Node2</title>
<g id="a_Node000002"><a xlink:href="../../d6/d22/classNotesManager.html#af6399f8298df19714e8d528e42afe429" target="_top" xlink:title=" ">
<polygon fill="white" stroke="#666666" points="356,-130 183,-130 183,-111 356,-111 356,-130"/>
<text text-anchor="middle" x="269.5" y="-118" font-family="Helvetica,sans-Serif" font-size="10.00">NotesManager::defaultSavePath</text>
</a>
</g>
</g>
<!-- Node1&#45;&gt;Node2 -->
<g id="edge1_Node000001_Node000002" class="edge">
<title>Node1&#45;&gt;Node2</title>
<g id="a_edge1_Node000001_Node000002"><a xlink:title=" ">
<path fill="none" stroke="#63b8ff" d="M94.02,-74C115.07,-82.41 147.22,-94.54 176,-102.5 184.36,-104.81 193.23,-106.94 202.04,-108.86"/>
<polygon fill="#63b8ff" stroke="#63b8ff" points="201.42,-112.3 211.92,-110.93 202.86,-105.45 201.42,-112.3"/>
</a>
</g>
</g>
<!-- Node4 -->
<g id="Node000004" class="node">
<title>Node4</title>
<g id="a_Node000004"><a xlink:href="../../d6/d22/classNotesManager.html#aa8325acde2b7361287a1f77510bb537b" target="_top" xlink:title=" ">
<polygon fill="white" stroke="#666666" points="340.5,-93 198.5,-93 198.5,-74 340.5,-74 340.5,-93"/>
<text text-anchor="middle" x="269.5" y="-81" font-family="Helvetica,sans-Serif" font-size="10.00">NotesManager::toastError</text>
</a>
</g>
</g>
<!-- Node1&#45;&gt;Node4 -->
<g id="edge3_Node000001_Node000004" class="edge">
<title>Node1&#45;&gt;Node4</title>
<g id="a_edge3_Node000001_Node000004"><a xlink:title=" ">
<path fill="none" stroke="#63b8ff" d="M140.08,-71.15C155.59,-72.64 172.18,-74.23 188.11,-75.77"/>
<polygon fill="#63b8ff" stroke="#63b8ff" points="188.17,-79.29 198.46,-76.76 188.84,-72.32 188.17,-79.29"/>
</a>
</g>
</g>
<!-- Node5 -->
<g id="Node000005" class="node">
<title>Node5</title>
<g id="a_Node000005"><a xlink:href="../../d6/d22/classNotesManager.html#a16aa5064191ddce447cb059609f2501e" target="_top" xlink:title=" ">
<polygon fill="white" stroke="#666666" points="341.5,-56 197.5,-56 197.5,-37 341.5,-37 341.5,-56"/>
<text text-anchor="middle" x="269.5" y="-44" font-family="Helvetica,sans-Serif" font-size="10.00">NotesManager::toastGood</text>
</a>
</g>
</g>
<!-- Node1&#45;&gt;Node5 -->
<g id="edge4_Node000001_Node000005" class="edge">
<title>Node1&#45;&gt;Node5</title>
<g id="a_edge4_Node000001_Node000005"><a xlink:title=" ">
<path fill="none" stroke="#63b8ff" d="M140.08,-58.2C155.31,-56.82 171.59,-55.33 187.26,-53.9"/>
<polygon fill="#63b8ff" stroke="#63b8ff" points="187.81,-57.37 197.46,-52.97 187.18,-50.4 187.81,-57.37"/>
</a>
</g>
</g>
<!-- Node6 -->
<g id="Node000006" class="node">
<title>Node6</title>
<g id="a_Node000006"><a xlink:href="../../d6/d22/classNotesManager.html#af75002653d61b6835f1eebc29fd328e1" target="_top" xlink:title=" ">
<polygon fill="white" stroke="#666666" points="363,-19 176,-19 176,0 363,0 363,-19"/>
<text text-anchor="middle" x="269.5" y="-7" font-family="Helvetica,sans-Serif" font-size="10.00">NotesManager::writeMarkdownFile</text>
</a>
</g>
</g>
<!-- Node1&#45;&gt;Node6 -->
<g id="edge5_Node000001_Node000006" class="edge">
<title>Node1&#45;&gt;Node6</title>
<g id="a_edge5_Node000001_Node000006"><a xlink:title=" ">
<path fill="none" stroke="#63b8ff" d="M96.18,-54.85C117.27,-47.02 148.3,-36.06 176,-28.5 185.61,-25.88 195.87,-23.43 205.92,-21.22"/>
<polygon fill="#63b8ff" stroke="#63b8ff" points="206.83,-24.61 215.88,-19.1 205.37,-17.76 206.83,-24.61"/>
</a>
</g>
</g>
<!-- Node3 -->
<g id="Node000003" class="node">
<title>Node3</title>
<g id="a_Node000003"><a xlink:href="../../d6/d22/classNotesManager.html#a49ecc92a75aadfdc3ff3d3e763363ca9" target="_top" xlink:title=" ">
<polygon fill="white" stroke="#666666" points="541.5,-130 415.5,-130 415.5,-111 541.5,-111 541.5,-130"/>
<text text-anchor="middle" x="478.5" y="-118" font-family="Helvetica,sans-Serif" font-size="10.00">NotesManager::slugify</text>
</a>
</g>
</g>
<!-- Node2&#45;&gt;Node3 -->
<g id="edge2_Node000002_Node000003" class="edge">
<title>Node2&#45;&gt;Node3</title>
<g id="a_edge2_Node000002_Node000003"><a xlink:title=" ">
<path fill="none" stroke="#63b8ff" d="M356.19,-120.5C372.43,-120.5 389.27,-120.5 405.06,-120.5"/>
<polygon fill="#63b8ff" stroke="#63b8ff" points="405.26,-124 415.26,-120.5 405.26,-117 405.26,-124"/>
</a>
</g>
</g>
<!-- Node7 -->
<g id="Node000007" class="node">
<title>Node7</title>
<g id="a_Node000007"><a xlink:href="../../d6/d22/classNotesManager.html#adc59a0ee5716f09b1ed47e0c0fe5f4ec" target="_top" xlink:title=" ">
<polygon fill="white" stroke="#666666" points="558,-19 399,-19 399,0 558,0 558,-19"/>
<text text-anchor="middle" x="478.5" y="-7" font-family="Helvetica,sans-Serif" font-size="10.00">NotesManager::toEpochMillis</text>
</a>
</g>
</g>
<!-- Node6&#45;&gt;Node7 -->
<g id="edge6_Node000006_Node000007" class="edge">
<title>Node6&#45;&gt;Node7</title>
<g id="a_edge6_Node000006_Node000007"><a xlink:title=" ">
<path fill="none" stroke="#63b8ff" d="M363.1,-9.5C371.6,-9.5 380.19,-9.5 388.65,-9.5"/>
<polygon fill="#63b8ff" stroke="#63b8ff" points="388.89,-13 398.89,-9.5 388.89,-6 388.89,-13"/>
</a>
</g>
</g>
</g>
</svg>
