<?xml version="1.0" encoding="UTF-8" standalone="no"?>
<!DOCTYPE svg PUBLIC "-//W3C//DTD SVG 1.1//EN"
 "http://www.w3.org/Graphics/SVG/1.1/DTD/svg11.dtd">
<!-- Generated by graphviz version 2.43.0 (0)
 -->
<!-- Title: PathManager::getGameTablesPath Pages: 1 -->
<!--zoomable 326 -->

<svg id="main" version="1.1" xmlns="http://www.w3.org/2000/svg" xmlns:xlink="http://www.w3.org/1999/xlink" xml:space="preserve" onload="init(evt)">
<style type="text/css"><![CDATA[
.node, .edge {opacity: 0.7;}
.node.selected, .edge.selected {opacity: 1;}
.edge:hover path { stroke: red; }
.edge:hover polygon { stroke: red; fill: red; }
]]></style>

<defs>
  <circle id="rim" cx="0" cy="0" r="7"/>
  <circle id="rim2" cx="0" cy="0" r="3.5"/>
  <g id="zoomPlus">
    <use xlink:href="#rim" fill="#404040"><set attributeName="fill" to="#808080" begin="zoomplus.mouseover" end="zoomplus.mouseout"/></use>
    <path d="M-4,0h8M0,-4v8" fill="none" stroke="white" stroke-width="1.5" pointer-events="none"/>
  </g>
  <g id="zoomMin">
    <use xlink:href="#rim" fill="#404040"><set attributeName="fill" to="#808080" begin="zoomminus.mouseover" end="zoomminus.mouseout"/></use>
    <path d="M-4,0h8" fill="none" stroke="white" stroke-width="1.5" pointer-events="none"/>
  </g>
  <g id="arrowUp" transform="translate(30 24)">
    <use xlink:href="#rim"/>
    <path pointer-events="none" fill="none" stroke="white" stroke-width="1.5" d="M0,-3.0v7 M-2.5,-0.5L0,-3.0L2.5,-0.5"/>
  </g>
  <g id="arrowRight" transform="rotate(90) translate(36 -43)">
    <use xlink:href="#rim"/>
    <path pointer-events="none" fill="none" stroke="white" stroke-width="1.5" d="M0,-3.0v7 M-2.5,-0.5L0,-3.0L2.5,-0.5"/>
  </g>
  <g id="arrowDown" transform="rotate(180) translate(-30 -48)">
    <use xlink:href="#rim"/>
    <path pointer-events="none" fill="none" stroke="white" stroke-width="1.5" d="M0,-3.0v7 M-2.5,-0.5L0,-3.0L2.5,-0.5"/>
  </g>
  <g id="arrowLeft" transform="rotate(270) translate(-36 17)">
    <use xlink:href="#rim"/>
    <path pointer-events="none" fill="none" stroke="white" stroke-width="1.5" d="M0,-3.0v7 M-2.5,-0.5L0,-3.0L2.5,-0.5"/>
  </g>
  <g id="resetDef">
    <use xlink:href="#rim2" fill="#404040"><set attributeName="fill" to="#808080" begin="reset.mouseover" end="reset.mouseout"/></use>
  </g>
</defs>
<script type="application/ecmascript">
var viewWidth = 965;
var viewHeight = 326;
var sectionId = 'dynsection-14';
</script>
<script type="application/ecmascript" xlink:href="../../svg.min.js"/>
<svg id="graph" class="graph">
<g id="viewport">
<title>PathManager::getGameTablesPath</title>
<!-- Node1 -->
<g id="Node000001" class="node">
<title>Node1</title>
<g id="a_Node000001"><a xlink:title=" ">
<polygon fill="#999999" stroke="#666666" points="957,-170.35 774,-170.35 774,-151.35 957,-151.35 957,-170.35"/>
<text text-anchor="middle" x="865.5" y="-158.35" font-family="Helvetica,sans-Serif" font-size="10.00">PathManager::getGameTablesPath</text>
</a>
</g>
</g>
<!-- Node2 -->
<g id="Node000002" class="node">
<title>Node2</title>
<g id="a_Node000002"><a xlink:href="../../d8/d43/classApplicationHandler.html#a5488b63e5eb5617c18e2a85c0e2d8703" target="_top" xlink:title=" ">
<polygon fill="white" stroke="#666666" points="717,-318.35 508,-318.35 508,-299.35 717,-299.35 717,-318.35"/>
<text text-anchor="middle" x="612.5" y="-306.35" font-family="Helvetica,sans-Serif" font-size="10.00">ApplicationHandler::ApplicationHandler</text>
</a>
</g>
</g>
<!-- Node1&#45;&gt;Node2 -->
<g id="edge1_Node000001_Node000002" class="edge">
<title>Node1&#45;&gt;Node2</title>
<g id="a_edge1_Node000001_Node000002"><a xlink:title=" ">
<path fill="none" stroke="#63b8ff" d="M852.97,-178.78C833.26,-207.75 790.15,-264.27 738,-290.85 731.38,-294.22 724.33,-297.02 717.07,-299.33"/>
<polygon fill="#63b8ff" stroke="#63b8ff" points="855.9,-180.69 858.52,-170.42 850.07,-176.81 855.9,-180.69"/>
</a>
</g>
</g>
<!-- Node3 -->
<g id="Node000003" class="node">
<title>Node3</title>
<g id="a_Node000003"><a xlink:href="../../d7/dc6/classChatManager.html#a7c4c2a8fe907802aaff347a997e4f230" target="_top" xlink:title=" ">
<polygon fill="white" stroke="#666666" points="693.5,-281.35 531.5,-281.35 531.5,-262.35 693.5,-262.35 693.5,-281.35"/>
<text text-anchor="middle" x="612.5" y="-269.35" font-family="Helvetica,sans-Serif" font-size="10.00">ChatManager::chatFilePathFor</text>
</a>
</g>
</g>
<!-- Node1&#45;&gt;Node3 -->
<g id="edge2_Node000001_Node000003" class="edge">
<title>Node1&#45;&gt;Node3</title>
<g id="a_edge2_Node000001_Node000003"><a xlink:title=" ">
<path fill="none" stroke="#63b8ff" d="M847.61,-177.62C824.83,-199.13 782.03,-235.82 738,-253.85 724.16,-259.52 708.81,-263.45 693.75,-266.15"/>
<polygon fill="#63b8ff" stroke="#63b8ff" points="850.28,-179.9 855.06,-170.45 845.43,-174.86 850.28,-179.9"/>
</a>
</g>
</g>
<!-- Node7 -->
<g id="Node000007" class="node">
<title>Node7</title>
<g id="a_Node000007"><a xlink:href="../../da/d28/classGameTableManager.html#a172cce8920ef8672b5508fdbca0108fa" target="_top" xlink:title=" ">
<polygon fill="white" stroke="#666666" points="724,-207.35 501,-207.35 501,-188.35 724,-188.35 724,-207.35"/>
<text text-anchor="middle" x="612.5" y="-195.35" font-family="Helvetica,sans-Serif" font-size="10.00">GameTableManager::createGameTableFile</text>
</a>
</g>
</g>
<!-- Node1&#45;&gt;Node7 -->
<g id="edge7_Node000001_Node000007" class="edge">
<title>Node1&#45;&gt;Node7</title>
<g id="a_edge7_Node000001_Node000007"><a xlink:title=" ">
<path fill="none" stroke="#63b8ff" d="M791.32,-171.91C773.85,-174.53 755.26,-177.31 738,-179.85 719.09,-182.64 698.57,-185.62 679.74,-188.34"/>
<polygon fill="#63b8ff" stroke="#63b8ff" points="792.08,-175.34 801.45,-170.39 791.04,-168.41 792.08,-175.34"/>
</a>
</g>
</g>
<!-- Node10 -->
<g id="Node000010" class="node">
<title>Node10</title>
<g id="a_Node000010"><a xlink:href="../../d8/dec/classPathManager.html#a8ab36dc1c3f37bc603cb61f4ba6a90b7" target="_top" xlink:title=" ">
<polygon fill="white" stroke="#666666" points="699,-170.35 526,-170.35 526,-151.35 699,-151.35 699,-170.35"/>
<text text-anchor="middle" x="612.5" y="-158.35" font-family="Helvetica,sans-Serif" font-size="10.00">PathManager::ensureDirectories</text>
</a>
</g>
</g>
<!-- Node1&#45;&gt;Node10 -->
<g id="edge10_Node000001_Node000010" class="edge">
<title>Node1&#45;&gt;Node10</title>
<g id="a_edge10_Node000001_Node000010"><a xlink:title=" ">
<path fill="none" stroke="#63b8ff" d="M763.82,-160.85C742.47,-160.85 720.12,-160.85 699.38,-160.85"/>
<polygon fill="#63b8ff" stroke="#63b8ff" points="763.88,-164.35 773.88,-160.85 763.88,-157.35 763.88,-164.35"/>
</a>
</g>
</g>
<!-- Node12 -->
<g id="Node000012" class="node">
<title>Node12</title>
<g id="a_Node000012"><a xlink:href="../../d8/dec/classPathManager.html#af392331298aaf7b201860286d49d1dd1" target="_top" xlink:title=" ">
<polygon fill="white" stroke="#666666" points="691,-133.35 534,-133.35 534,-114.35 691,-114.35 691,-133.35"/>
<text text-anchor="middle" x="612.5" y="-121.35" font-family="Helvetica,sans-Serif" font-size="10.00">PathManager::getBoardsPath</text>
</a>
</g>
</g>
<!-- Node1&#45;&gt;Node12 -->
<g id="edge12_Node000001_Node000012" class="edge">
<title>Node1&#45;&gt;Node12</title>
<g id="a_edge12_Node000001_Node000012"><a xlink:title=" ">
<path fill="none" stroke="#63b8ff" d="M789.58,-149.81C754.2,-144.59 712.36,-138.42 678.36,-133.41"/>
<polygon fill="#63b8ff" stroke="#63b8ff" points="789.46,-153.33 799.86,-151.32 790.48,-146.4 789.46,-153.33"/>
</a>
</g>
</g>
<!-- Node15 -->
<g id="Node000015" class="node">
<title>Node15</title>
<g id="a_Node000015"><a xlink:href="../../da/d28/classGameTableManager.html#a0d0b5aaffbd1abcc9311015183990396" target="_top" xlink:title=" ">
<polygon fill="white" stroke="#666666" points="705.5,-96.35 519.5,-96.35 519.5,-77.35 705.5,-77.35 705.5,-96.35"/>
<text text-anchor="middle" x="612.5" y="-84.35" font-family="Helvetica,sans-Serif" font-size="10.00">GameTableManager::listBoardFiles</text>
</a>
</g>
</g>
<!-- Node1&#45;&gt;Node15 -->
<g id="edge15_Node000001_Node000015" class="edge">
<title>Node1&#45;&gt;Node15</title>
<g id="a_edge15_Node000001_Node000015"><a xlink:title=" ">
<path fill="none" stroke="#63b8ff" d="M837.37,-146.6C812.26,-134.01 773.55,-116.1 738,-105.85 724.66,-102 710.28,-98.9 696.19,-96.4"/>
<polygon fill="#63b8ff" stroke="#63b8ff" points="836.12,-149.89 846.62,-151.3 839.29,-143.65 836.12,-149.89"/>
</a>
</g>
</g>
<!-- Node17 -->
<g id="Node000017" class="node">
<title>Node17</title>
<g id="a_Node000017"><a xlink:href="../../da/d28/classGameTableManager.html#aadde24209947ffe2dfe3d0d469e2c552" target="_top" xlink:title=" ">
<polygon fill="white" stroke="#666666" points="718.5,-244.35 506.5,-244.35 506.5,-225.35 718.5,-225.35 718.5,-244.35"/>
<text text-anchor="middle" x="612.5" y="-232.35" font-family="Helvetica,sans-Serif" font-size="10.00">GameTableManager::listGameTableFiles</text>
</a>
</g>
</g>
<!-- Node1&#45;&gt;Node17 -->
<g id="edge17_Node000001_Node000017" class="edge">
<title>Node1&#45;&gt;Node17</title>
<g id="a_edge17_Node000001_Node000017"><a xlink:title=" ">
<path fill="none" stroke="#63b8ff" d="M838.19,-175.05C813.14,-187.95 774.02,-206.49 738,-216.85 726.14,-220.26 713.45,-223.05 700.88,-225.31"/>
<polygon fill="#63b8ff" stroke="#63b8ff" points="839.82,-178.15 847.06,-170.42 836.58,-171.94 839.82,-178.15"/>
</a>
</g>
</g>
<!-- Node18 -->
<g id="Node000018" class="node">
<title>Node18</title>
<g id="a_Node000018"><a xlink:href="../../da/d28/classGameTableManager.html#a1a3fbedca6d81c5cb0a0aadf8a60f75a" target="_top" xlink:title=" ">
<polygon fill="white" stroke="#666666" points="738,-59.35 487,-59.35 487,-40.35 738,-40.35 738,-59.35"/>
<text text-anchor="middle" x="612.5" y="-47.35" font-family="Helvetica,sans-Serif" font-size="10.00">GameTableManager::manageGameTablesPopUp</text>
</a>
</g>
</g>
<!-- Node1&#45;&gt;Node18 -->
<g id="edge19_Node000001_Node000018" class="edge">
<title>Node1&#45;&gt;Node18</title>
<g id="a_edge19_Node000001_Node000018"><a xlink:title=" ">
<path fill="none" stroke="#63b8ff" d="M847.2,-143.99C824.27,-122.73 781.62,-86.79 738,-68.85 728.6,-64.98 718.5,-61.9 708.28,-59.43"/>
<polygon fill="#63b8ff" stroke="#63b8ff" points="845.05,-146.77 854.72,-151.1 849.86,-141.69 845.05,-146.77"/>
</a>
</g>
</g>
<!-- Node19 -->
<g id="Node000019" class="node">
<title>Node19</title>
<g id="a_Node000019"><a xlink:href="../../d8/d43/classApplicationHandler.html#a98e49f0d6038bf4caeed77b4d03b003c" target="_top" xlink:title=" ">
<polygon fill="white" stroke="#666666" points="445,-40.35 230,-40.35 230,-21.35 445,-21.35 445,-40.35"/>
<text text-anchor="middle" x="337.5" y="-28.35" font-family="Helvetica,sans-Serif" font-size="10.00">ApplicationHandler::renderMainMenuBar</text>
</a>
</g>
</g>
<!-- Node1&#45;&gt;Node19 -->
<g id="edge20_Node000001_Node000019" class="edge">
<title>Node1&#45;&gt;Node19</title>
<g id="a_edge20_Node000001_Node000019"><a xlink:title=" ">
<path fill="none" stroke="#63b8ff" d="M853.64,-142.5C834.65,-112.43 792.19,-53.73 738,-30.85 614.84,21.15 450.66,-5.16 377.06,-21.33"/>
<polygon fill="#63b8ff" stroke="#63b8ff" points="850.75,-144.48 858.97,-151.17 856.72,-140.82 850.75,-144.48"/>
</a>
</g>
</g>
<!-- Node4 -->
<g id="Node000004" class="node">
<title>Node4</title>
<g id="a_Node000004"><a xlink:href="../../d7/dc6/classChatManager.html#a2bd172979a809d742db08764a60b3378" target="_top" xlink:title=" ">
<polygon fill="white" stroke="#666666" points="410,-318.35 265,-318.35 265,-299.35 410,-299.35 410,-318.35"/>
<text text-anchor="middle" x="337.5" y="-306.35" font-family="Helvetica,sans-Serif" font-size="10.00">ChatManager::loadCurrent</text>
</a>
</g>
</g>
<!-- Node3&#45;&gt;Node4 -->
<g id="edge3_Node000003_Node000004" class="edge">
<title>Node3&#45;&gt;Node4</title>
<g id="a_edge3_Node000003_Node000004"><a xlink:title=" ">
<path fill="none" stroke="#63b8ff" d="M531.01,-282.76C492.31,-288.01 446.35,-294.23 409.04,-299.29"/>
<polygon fill="#63b8ff" stroke="#63b8ff" points="531.76,-286.19 541.2,-281.38 530.82,-279.25 531.76,-286.19"/>
</a>
</g>
</g>
<!-- Node6 -->
<g id="Node000006" class="node">
<title>Node6</title>
<g id="a_Node000006"><a xlink:href="../../d7/dc6/classChatManager.html#a17157721204dfd36ab180a404a2294a0" target="_top" xlink:title=" ">
<polygon fill="white" stroke="#666666" points="411,-281.35 264,-281.35 264,-262.35 411,-262.35 411,-281.35"/>
<text text-anchor="middle" x="337.5" y="-269.35" font-family="Helvetica,sans-Serif" font-size="10.00">ChatManager::saveCurrent</text>
</a>
</g>
</g>
<!-- Node3&#45;&gt;Node6 -->
<g id="edge5_Node000003_Node000006" class="edge">
<title>Node3&#45;&gt;Node6</title>
<g id="a_edge5_Node000003_Node000006"><a xlink:title=" ">
<path fill="none" stroke="#63b8ff" d="M521.01,-271.85C485.31,-271.85 444.85,-271.85 411.11,-271.85"/>
<polygon fill="#63b8ff" stroke="#63b8ff" points="521.44,-275.35 531.44,-271.85 521.44,-268.35 521.44,-275.35"/>
</a>
</g>
</g>
<!-- Node5 -->
<g id="Node000005" class="node">
<title>Node5</title>
<g id="a_Node000005"><a xlink:href="../../d7/dc6/classChatManager.html#a6bf284d1ba8a95c8963efa930ac2c571" target="_top" xlink:title=" ">
<polygon fill="white" stroke="#666666" points="188,-299.35 0,-299.35 0,-280.35 188,-280.35 188,-299.35"/>
<text text-anchor="middle" x="94" y="-287.35" font-family="Helvetica,sans-Serif" font-size="10.00">ChatManager::setActiveGameTable</text>
</a>
</g>
</g>
<!-- Node4&#45;&gt;Node5 -->
<g id="edge4_Node000004_Node000005" class="edge">
<title>Node4&#45;&gt;Node5</title>
<g id="a_edge4_Node000004_Node000005"><a xlink:title=" ">
<path fill="none" stroke="#63b8ff" d="M254.67,-302.41C233.24,-300.73 209.99,-298.9 188.03,-297.17"/>
<polygon fill="#63b8ff" stroke="#63b8ff" points="254.45,-305.91 264.7,-303.2 255,-298.93 254.45,-305.91"/>
</a>
</g>
</g>
<!-- Node6&#45;&gt;Node5 -->
<g id="edge6_Node000006_Node000005" class="edge">
<title>Node6&#45;&gt;Node5</title>
<g id="a_edge6_Node000006_Node000005"><a xlink:title=" ">
<path fill="none" stroke="#63b8ff" d="M253.53,-278.04C232.49,-279.6 209.74,-281.3 188.22,-282.9"/>
<polygon fill="#63b8ff" stroke="#63b8ff" points="254,-281.51 263.71,-277.28 253.48,-274.53 254,-281.51"/>
</a>
</g>
</g>
<!-- Node8 -->
<g id="Node000008" class="node">
<title>Node8</title>
<g id="a_Node000008"><a xlink:href="../../da/d28/classGameTableManager.html#a42414a5596a4e90a3f321f90e166f9a0" target="_top" xlink:title=" ">
<polygon fill="white" stroke="#666666" points="451,-244.35 224,-244.35 224,-225.35 451,-225.35 451,-244.35"/>
<text text-anchor="middle" x="337.5" y="-232.35" font-family="Helvetica,sans-Serif" font-size="10.00">GameTableManager::hostGameTablePopUp</text>
</a>
</g>
</g>
<!-- Node7&#45;&gt;Node8 -->
<g id="edge8_Node000007_Node000008" class="edge">
<title>Node7&#45;&gt;Node8</title>
<g id="a_edge8_Node000007_Node000008"><a xlink:title=" ">
<path fill="none" stroke="#63b8ff" d="M531.01,-208.76C492.31,-214.01 446.35,-220.23 409.04,-225.29"/>
<polygon fill="#63b8ff" stroke="#63b8ff" points="531.76,-212.19 541.2,-207.38 530.82,-205.25 531.76,-212.19"/>
</a>
</g>
</g>
<!-- Node9 -->
<g id="Node000009" class="node">
<title>Node9</title>
<g id="a_Node000009"><a xlink:href="../../da/d28/classGameTableManager.html#a9e6225573f97256dd5dfef871a1e32d6" target="_top" xlink:title=" ">
<polygon fill="white" stroke="#666666" points="436.5,-207.35 238.5,-207.35 238.5,-188.35 436.5,-188.35 436.5,-207.35"/>
<text text-anchor="middle" x="337.5" y="-195.35" font-family="Helvetica,sans-Serif" font-size="10.00">GameTableManager::saveGameTable</text>
</a>
</g>
</g>
<!-- Node7&#45;&gt;Node9 -->
<g id="edge9_Node000007_Node000009" class="edge">
<title>Node7&#45;&gt;Node9</title>
<g id="a_edge9_Node000007_Node000009"><a xlink:title=" ">
<path fill="none" stroke="#63b8ff" d="M490.82,-197.85C472.68,-197.85 454.16,-197.85 436.57,-197.85"/>
<polygon fill="#63b8ff" stroke="#63b8ff" points="490.85,-201.35 500.85,-197.85 490.85,-194.35 490.85,-201.35"/>
</a>
</g>
</g>
<!-- Node11 -->
<g id="Node000011" class="node">
<title>Node11</title>
<g id="a_Node000011"><a xlink:href="../../df/d0a/main_8cpp.html#ae66f6b31b5ad750f1fe042a706a4e3d4" target="_top" xlink:title=" ">
<polygon fill="white" stroke="#666666" points="358,-170.35 317,-170.35 317,-151.35 358,-151.35 358,-170.35"/>
<text text-anchor="middle" x="337.5" y="-158.35" font-family="Helvetica,sans-Serif" font-size="10.00">main</text>
</a>
</g>
</g>
<!-- Node10&#45;&gt;Node11 -->
<g id="edge11_Node000010_Node000011" class="edge">
<title>Node10&#45;&gt;Node11</title>
<g id="a_edge11_Node000010_Node000011"><a xlink:title=" ">
<path fill="none" stroke="#63b8ff" d="M515.69,-160.85C458.51,-160.85 390.84,-160.85 358.14,-160.85"/>
<polygon fill="#63b8ff" stroke="#63b8ff" points="515.87,-164.35 525.87,-160.85 515.87,-157.35 515.87,-164.35"/>
</a>
</g>
</g>
<!-- Node13 -->
<g id="Node000013" class="node">
<title>Node13</title>
<g id="a_Node000013"><a xlink:href="../../d8/d43/classApplicationHandler.html#a945c1ff5219680b55ec3d6ffeb9d7f7e" target="_top" xlink:title=" ">
<polygon fill="white" stroke="#666666" points="428.5,-133.35 246.5,-133.35 246.5,-114.35 428.5,-114.35 428.5,-133.35"/>
<text text-anchor="middle" x="337.5" y="-121.35" font-family="Helvetica,sans-Serif" font-size="10.00">ApplicationHandler::TickAutoSave</text>
</a>
</g>
</g>
<!-- Node12&#45;&gt;Node13 -->
<g id="edge13_Node000012_Node000013" class="edge">
<title>Node12&#45;&gt;Node13</title>
<g id="a_edge13_Node000012_Node000013"><a xlink:title=" ">
<path fill="none" stroke="#63b8ff" d="M523.85,-123.85C493.45,-123.85 459.34,-123.85 428.74,-123.85"/>
<polygon fill="#63b8ff" stroke="#63b8ff" points="524,-127.35 534,-123.85 524,-120.35 524,-127.35"/>
</a>
</g>
</g>
<!-- Node14 -->
<g id="Node000014" class="node">
<title>Node14</title>
<g id="a_Node000014"><a xlink:href="../../d8/d43/classApplicationHandler.html#afaf00f4f20eca3fec59f8f02f76ef2ce" target="_top" xlink:title=" ">
<polygon fill="white" stroke="#666666" points="159.5,-96.35 28.5,-96.35 28.5,-77.35 159.5,-77.35 159.5,-96.35"/>
<text text-anchor="middle" x="94" y="-84.35" font-family="Helvetica,sans-Serif" font-size="10.00">ApplicationHandler::run</text>
</a>
</g>
</g>
<!-- Node13&#45;&gt;Node14 -->
<g id="edge14_Node000013_Node000014" class="edge">
<title>Node13&#45;&gt;Node14</title>
<g id="a_edge14_Node000013_Node000014"><a xlink:title=" ">
<path fill="none" stroke="#63b8ff" d="M264.42,-112.81C230.37,-107.59 190.12,-101.42 157.4,-96.41"/>
<polygon fill="#63b8ff" stroke="#63b8ff" points="263.89,-116.27 274.31,-114.32 264.95,-109.35 263.89,-116.27"/>
</a>
</g>
</g>
<!-- Node16 -->
<g id="Node000016" class="node">
<title>Node16</title>
<g id="a_Node000016"><a xlink:href="../../da/d28/classGameTableManager.html#adb584efae4cf9382a59c46ba9fad6f5b" target="_top" xlink:title=" ">
<polygon fill="white" stroke="#666666" points="438,-96.35 237,-96.35 237,-77.35 438,-77.35 438,-96.35"/>
<text text-anchor="middle" x="337.5" y="-84.35" font-family="Helvetica,sans-Serif" font-size="10.00">GameTableManager::loadBoardPopUp</text>
</a>
</g>
</g>
<!-- Node15&#45;&gt;Node16 -->
<g id="edge16_Node000015_Node000016" class="edge">
<title>Node15&#45;&gt;Node16</title>
<g id="a_edge16_Node000015_Node000016"><a xlink:title=" ">
<path fill="none" stroke="#63b8ff" d="M509.23,-86.85C485.95,-86.85 461.26,-86.85 438.1,-86.85"/>
<polygon fill="#63b8ff" stroke="#63b8ff" points="509.46,-90.35 519.46,-86.85 509.46,-83.35 509.46,-90.35"/>
</a>
</g>
</g>
<!-- Node17&#45;&gt;Node8 -->
<g id="edge18_Node000017_Node000008" class="edge">
<title>Node17&#45;&gt;Node8</title>
<g id="a_edge18_Node000017_Node000008"><a xlink:title=" ">
<path fill="none" stroke="#63b8ff" d="M496.13,-234.85C481.29,-234.85 466.11,-234.85 451.31,-234.85"/>
<polygon fill="#63b8ff" stroke="#63b8ff" points="496.34,-238.35 506.34,-234.85 496.34,-231.35 496.34,-238.35"/>
</a>
</g>
</g>
<!-- Node19&#45;&gt;Node14 -->
<g id="edge21_Node000019_Node000014" class="edge">
<title>Node19&#45;&gt;Node14</title>
<g id="a_edge21_Node000019_Node000014"><a xlink:title=" ">
<path fill="none" stroke="#63b8ff" d="M285.52,-42.67C241.04,-52.99 177.34,-67.76 136.07,-77.33"/>
<polygon fill="#63b8ff" stroke="#63b8ff" points="286.31,-46.08 295.26,-40.41 284.73,-39.26 286.31,-46.08"/>
</a>
</g>
</g>
</g>
</svg>

<g id="navigator" transform="translate(0 0)" fill="#404254">
  <rect fill="#f2f5e9" fill-opacity="0.5" stroke="#606060" stroke-width=".5" x="0" y="0" width="60" height="60"/>
  <use id="zoomplus" xlink:href="#zoomPlus" x="17" y="9" onmousedown="handleZoom(evt,'in')"/>
  <use id="zoomminus" xlink:href="#zoomMin" x="42" y="9" onmousedown="handleZoom(evt,'out')"/>
  <use id="reset" xlink:href="#resetDef" x="30" y="36" onmousedown="handleReset()"/>
   <use id="arrowup" xlink:href="#arrowUp" x="0" y="0" onmousedown="handlePan(0,-1)"/>
  <use id="arrowright" xlink:href="#arrowRight" x="0" y="0" onmousedown="handlePan(1,0)"/>
  <use id="arrowdown" xlink:href="#arrowDown" x="0" y="0" onmousedown="handlePan(0,1)"/>
  <use id="arrowleft" xlink:href="#arrowLeft" x="0" y="0" onmousedown="handlePan(-1,0)"/>
</g>
<svg viewBox="0 0 15 15" width="100%" height="30px" preserveAspectRatio="xMaxYMin meet">
 <g id="arrow_out" transform="scale(0.3 0.3)">
  <a xlink:href="classPathManager_a6be0a95403caf375f4d7b642f0f90061_icgraph_org.svg" target="_base">
   <rect id="button" ry="5" rx="5" y="6" x="6" height="38" width="38"
        fill="#f2f5e9" fill-opacity="0.5" stroke="#606060" stroke-width="1.0"/>
   <path id="arrow"
     d="M 11.500037,31.436501 C 11.940474,20.09759 22.043105,11.32322 32.158766,21.979434 L 37.068811,17.246167 C 37.068811,17.246167 37.088388,32 37.088388,32 L 22.160133,31.978069 C 22.160133,31.978069 26.997745,27.140456 26.997745,27.140456 C 18.528582,18.264221 13.291696,25.230495 11.500037,31.436501 z"
     style="fill:#404040;"/>
  </a>
 </g>
</svg>

<style type='text/css'>
<![CDATA[
[data-mouse-over-selected='false'] { opacity: 0.7; }
[data-mouse-over-selected='true']  { opacity: 1.0; }
]]>
</style>
<script type="application/ecmascript"><![CDATA[
document.addEventListener('DOMContentLoaded', (event) => {
  highlightEdges();
  highlightAdjacentNodes();
});
]]></script>
</svg>
