<?xml version="1.0" encoding="UTF-8" standalone="no"?>
<!DOCTYPE svg PUBLIC "-//W3C//DTD SVG 1.1//EN"
 "http://www.w3.org/Graphics/SVG/1.1/DTD/svg11.dtd">
<!-- Generated by graphviz version 2.43.0 (0)
 -->
<!-- Title: PathManager::isFilenameOnly Pages: 1 -->
<!--zoomable 101 -->

<svg id="main" version="1.1" xmlns="http://www.w3.org/2000/svg" xmlns:xlink="http://www.w3.org/1999/xlink" xml:space="preserve" onload="init(evt)">
<style type="text/css"><![CDATA[
.node, .edge {opacity: 0.7;}
.node.selected, .edge.selected {opacity: 1;}
.edge:hover path { stroke: red; }
.edge:hover polygon { stroke: red; fill: red; }
]]></style>

<defs>
  <circle id="rim" cx="0" cy="0" r="7"/>
  <circle id="rim2" cx="0" cy="0" r="3.5"/>
  <g id="zoomPlus">
    <use xlink:href="#rim" fill="#404040"><set attributeName="fill" to="#808080" begin="zoomplus.mouseover" end="zoomplus.mouseout"/></use>
    <path d="M-4,0h8M0,-4v8" fill="none" stroke="white" stroke-width="1.5" pointer-events="none"/>
  </g>
  <g id="zoomMin">
    <use xlink:href="#rim" fill="#404040"><set attributeName="fill" to="#808080" begin="zoomminus.mouseover" end="zoomminus.mouseout"/></use>
    <path d="M-4,0h8" fill="none" stroke="white" stroke-width="1.5" pointer-events="none"/>
  </g>
  <g id="arrowUp" transform="translate(30 24)">
    <use xlink:href="#rim"/>
    <path pointer-events="none" fill="none" stroke="white" stroke-width="1.5" d="M0,-3.0v7 M-2.5,-0.5L0,-3.0L2.5,-0.5"/>
  </g>
  <g id="arrowRight" transform="rotate(90) translate(36 -43)">
    <use xlink:href="#rim"/>
    <path pointer-events="none" fill="none" stroke="white" stroke-width="1.5" d="M0,-3.0v7 M-2.5,-0.5L0,-3.0L2.5,-0.5"/>
  </g>
  <g id="arrowDown" transform="rotate(180) translate(-30 -48)">
    <use xlink:href="#rim"/>
    <path pointer-events="none" fill="none" stroke="white" stroke-width="1.5" d="M0,-3.0v7 M-2.5,-0.5L0,-3.0L2.5,-0.5"/>
  </g>
  <g id="arrowLeft" transform="rotate(270) translate(-36 17)">
    <use xlink:href="#rim"/>
    <path pointer-events="none" fill="none" stroke="white" stroke-width="1.5" d="M0,-3.0v7 M-2.5,-0.5L0,-3.0L2.5,-0.5"/>
  </g>
  <g id="resetDef">
    <use xlink:href="#rim2" fill="#404040"><set attributeName="fill" to="#808080" begin="reset.mouseover" end="reset.mouseout"/></use>
  </g>
</defs>
<script type="application/ecmascript">
var viewWidth = 818;
var viewHeight = 101;
var sectionId = 'dynsection-39';
</script>
<script type="application/ecmascript" xlink:href="../../svg.min.js"/>
<svg id="graph" class="graph">
<g id="viewport">
<title>PathManager::isFilenameOnly</title>
<!-- Node1 -->
<g id="Node000001" class="node">
<title>Node1</title>
<g id="a_Node000001"><a xlink:title=" ">
<polygon fill="#999999" stroke="#666666" points="810,-37 648,-37 648,-18 810,-18 810,-37"/>
<text text-anchor="middle" x="729" y="-25" font-family="Helvetica,sans-Serif" font-size="10.00">PathManager::isFilenameOnly</text>
</a>
</g>
</g>
<!-- Node2 -->
<g id="Node000002" class="node">
<title>Node2</title>
<g id="a_Node000002"><a xlink:href="../../d6/d6f/classNetworkManager.html#a9faf2055aa0370adbffaa46b7f7181c1" target="_top" xlink:title=" ">
<polygon fill="white" stroke="#666666" points="609,-56 451,-56 451,-37 609,-37 609,-56"/>
<text text-anchor="middle" x="530" y="-44" font-family="Helvetica,sans-Serif" font-size="10.00">NetworkManager::sendBoard</text>
</a>
</g>
</g>
<!-- Node1&#45;&gt;Node2 -->
<g id="edge1_Node000001_Node000002" class="edge">
<title>Node1&#45;&gt;Node2</title>
<g id="a_edge1_Node000001_Node000002"><a xlink:title=" ">
<path fill="none" stroke="#63b8ff" d="M637.92,-36.19C628.31,-37.11 618.6,-38.05 609.14,-38.96"/>
<polygon fill="#63b8ff" stroke="#63b8ff" points="638.25,-39.67 647.87,-35.23 637.58,-32.7 638.25,-39.67"/>
</a>
</g>
</g>
<!-- Node6 -->
<g id="Node000006" class="node">
<title>Node6</title>
<g id="a_Node000006"><a xlink:href="../../d6/d6f/classNetworkManager.html#a88303e860c818888a1cdd7d40bc19bf3" target="_top" xlink:title=" ">
<polygon fill="white" stroke="#666666" points="612,-19 448,-19 448,0 612,0 612,-19"/>
<text text-anchor="middle" x="530" y="-7" font-family="Helvetica,sans-Serif" font-size="10.00">NetworkManager::sendMarker</text>
</a>
</g>
</g>
<!-- Node1&#45;&gt;Node6 -->
<g id="edge5_Node000001_Node000006" class="edge">
<title>Node1&#45;&gt;Node6</title>
<g id="a_edge5_Node000001_Node000006"><a xlink:title=" ">
<path fill="none" stroke="#63b8ff" d="M637.82,-19.26C629.22,-18.47 620.53,-17.68 612.02,-16.9"/>
<polygon fill="#63b8ff" stroke="#63b8ff" points="637.6,-22.75 647.87,-20.18 638.23,-15.78 637.6,-22.75"/>
</a>
</g>
</g>
<!-- Node3 -->
<g id="Node000003" class="node">
<title>Node3</title>
<g id="a_Node000003"><a xlink:href="../../d6/d6f/classNetworkManager.html#ac5104e38077637eeeab41e078fa51a5b" target="_top" xlink:title=" ">
<polygon fill="white" stroke="#666666" points="412,-93 200,-93 200,-74 412,-74 412,-93"/>
<text text-anchor="middle" x="306" y="-81" font-family="Helvetica,sans-Serif" font-size="10.00">NetworkManager::bootstrapPeerIfReady</text>
</a>
</g>
</g>
<!-- Node2&#45;&gt;Node3 -->
<g id="edge2_Node000002_Node000003" class="edge">
<title>Node2&#45;&gt;Node3</title>
<g id="a_edge2_Node000002_Node000003"><a xlink:title=" ">
<path fill="none" stroke="#63b8ff" d="M461.93,-57.68C430.81,-62.87 394.18,-68.97 364.36,-73.94"/>
<polygon fill="#63b8ff" stroke="#63b8ff" points="462.54,-61.12 471.83,-56.03 461.39,-54.22 462.54,-61.12"/>
</a>
</g>
</g>
<!-- Node5 -->
<g id="Node000005" class="node">
<title>Node5</title>
<g id="a_Node000005"><a xlink:href="../../d6/d6f/classNetworkManager.html#a8104f62e2e6c3197832dbfe7753853de" target="_top" xlink:title=" ">
<polygon fill="white" stroke="#666666" points="397.5,-56 214.5,-56 214.5,-37 397.5,-37 397.5,-56"/>
<text text-anchor="middle" x="306" y="-44" font-family="Helvetica,sans-Serif" font-size="10.00">NetworkManager::broadcastBoard</text>
</a>
</g>
</g>
<!-- Node2&#45;&gt;Node5 -->
<g id="edge4_Node000002_Node000005" class="edge">
<title>Node2&#45;&gt;Node5</title>
<g id="a_edge4_Node000002_Node000005"><a xlink:title=" ">
<path fill="none" stroke="#63b8ff" d="M440.59,-46.5C426.53,-46.5 411.96,-46.5 397.84,-46.5"/>
<polygon fill="#63b8ff" stroke="#63b8ff" points="440.73,-50 450.73,-46.5 440.73,-43 440.73,-50"/>
</a>
</g>
</g>
<!-- Node4 -->
<g id="Node000004" class="node">
<title>Node4</title>
<g id="a_Node000004"><a xlink:href="../../d6/d6f/classNetworkManager.html#a9211bd133aed2e5ec776b4d4308b30c4" target="_top" xlink:title=" ">
<polygon fill="white" stroke="#666666" points="164,-93 0,-93 0,-74 164,-74 164,-93"/>
<text text-anchor="middle" x="82" y="-81" font-family="Helvetica,sans-Serif" font-size="10.00">NetworkManager::drainEvents</text>
</a>
</g>
</g>
<!-- Node3&#45;&gt;Node4 -->
<g id="edge3_Node000003_Node000004" class="edge">
<title>Node3&#45;&gt;Node4</title>
<g id="a_edge3_Node000003_Node000004"><a xlink:title=" ">
<path fill="none" stroke="#63b8ff" d="M189.72,-83.5C181.1,-83.5 172.51,-83.5 164.16,-83.5"/>
<polygon fill="#63b8ff" stroke="#63b8ff" points="189.85,-87 199.85,-83.5 189.85,-80 189.85,-87"/>
</a>
</g>
</g>
<!-- Node7 -->
<g id="Node000007" class="node">
<title>Node7</title>
<g id="a_Node000007"><a xlink:href="../../d6/d6f/classNetworkManager.html#a1548090a456937ffafda64318f21ba40" target="_top" xlink:title=" ">
<polygon fill="white" stroke="#666666" points="400,-19 212,-19 212,0 400,0 400,-19"/>
<text text-anchor="middle" x="306" y="-7" font-family="Helvetica,sans-Serif" font-size="10.00">NetworkManager::broadcastMarker</text>
</a>
</g>
</g>
<!-- Node6&#45;&gt;Node7 -->
<g id="edge6_Node000006_Node000007" class="edge">
<title>Node6&#45;&gt;Node7</title>
<g id="a_edge6_Node000006_Node000007"><a xlink:title=" ">
<path fill="none" stroke="#63b8ff" d="M437.64,-9.5C425.31,-9.5 412.64,-9.5 400.28,-9.5"/>
<polygon fill="#63b8ff" stroke="#63b8ff" points="437.91,-13 447.91,-9.5 437.91,-6 437.91,-13"/>
</a>
</g>
</g>
</g>
</svg>

<g id="navigator" transform="translate(0 0)" fill="#404254">
  <rect fill="#f2f5e9" fill-opacity="0.5" stroke="#606060" stroke-width=".5" x="0" y="0" width="60" height="60"/>
  <use id="zoomplus" xlink:href="#zoomPlus" x="17" y="9" onmousedown="handleZoom(evt,'in')"/>
  <use id="zoomminus" xlink:href="#zoomMin" x="42" y="9" onmousedown="handleZoom(evt,'out')"/>
  <use id="reset" xlink:href="#resetDef" x="30" y="36" onmousedown="handleReset()"/>
   <use id="arrowup" xlink:href="#arrowUp" x="0" y="0" onmousedown="handlePan(0,-1)"/>
  <use id="arrowright" xlink:href="#arrowRight" x="0" y="0" onmousedown="handlePan(1,0)"/>
  <use id="arrowdown" xlink:href="#arrowDown" x="0" y="0" onmousedown="handlePan(0,1)"/>
  <use id="arrowleft" xlink:href="#arrowLeft" x="0" y="0" onmousedown="handlePan(-1,0)"/>
</g>
<svg viewBox="0 0 15 15" width="100%" height="30px" preserveAspectRatio="xMaxYMin meet">
 <g id="arrow_out" transform="scale(0.3 0.3)">
  <a xlink:href="classPathManager_a42a0582ddea79c07f859b346b57657de_icgraph_org.svg" target="_base">
   <rect id="button" ry="5" rx="5" y="6" x="6" height="38" width="38"
        fill="#f2f5e9" fill-opacity="0.5" stroke="#606060" stroke-width="1.0"/>
   <path id="arrow"
     d="M 11.500037,31.436501 C 11.940474,20.09759 22.043105,11.32322 32.158766,21.979434 L 37.068811,17.246167 C 37.068811,17.246167 37.088388,32 37.088388,32 L 22.160133,31.978069 C 22.160133,31.978069 26.997745,27.140456 26.997745,27.140456 C 18.528582,18.264221 13.291696,25.230495 11.500037,31.436501 z"
     style="fill:#404040;"/>
  </a>
 </g>
</svg>

<style type='text/css'>
<![CDATA[
[data-mouse-over-selected='false'] { opacity: 0.7; }
[data-mouse-over-selected='true']  { opacity: 1.0; }
]]>
</style>
<script type="application/ecmascript"><![CDATA[
document.addEventListener('DOMContentLoaded', (event) => {
  highlightEdges();
  highlightAdjacentNodes();
});
]]></script>
</svg>
