<?xml version="1.0" encoding="UTF-8" standalone="no"?>
<!DOCTYPE svg PUBLIC "-//W3C//DTD SVG 1.1//EN"
 "http://www.w3.org/Graphics/SVG/1.1/DTD/svg11.dtd">
<!-- Generated by graphviz version 2.43.0 (0)
 -->
<!-- Title: PathManager::getExternalPath Pages: 1 -->
<!--zoomable 121 -->

<svg id="main" version="1.1" xmlns="http://www.w3.org/2000/svg" xmlns:xlink="http://www.w3.org/1999/xlink" xml:space="preserve" onload="init(evt)">
<style type="text/css"><![CDATA[
.node, .edge {opacity: 0.7;}
.node.selected, .edge.selected {opacity: 1;}
.edge:hover path { stroke: red; }
.edge:hover polygon { stroke: red; fill: red; }
]]></style>

<defs>
  <circle id="rim" cx="0" cy="0" r="7"/>
  <circle id="rim2" cx="0" cy="0" r="3.5"/>
  <g id="zoomPlus">
    <use xlink:href="#rim" fill="#404040"><set attributeName="fill" to="#808080" begin="zoomplus.mouseover" end="zoomplus.mouseout"/></use>
    <path d="M-4,0h8M0,-4v8" fill="none" stroke="white" stroke-width="1.5" pointer-events="none"/>
  </g>
  <g id="zoomMin">
    <use xlink:href="#rim" fill="#404040"><set attributeName="fill" to="#808080" begin="zoomminus.mouseover" end="zoomminus.mouseout"/></use>
    <path d="M-4,0h8" fill="none" stroke="white" stroke-width="1.5" pointer-events="none"/>
  </g>
  <g id="arrowUp" transform="translate(30 24)">
    <use xlink:href="#rim"/>
    <path pointer-events="none" fill="none" stroke="white" stroke-width="1.5" d="M0,-3.0v7 M-2.5,-0.5L0,-3.0L2.5,-0.5"/>
  </g>
  <g id="arrowRight" transform="rotate(90) translate(36 -43)">
    <use xlink:href="#rim"/>
    <path pointer-events="none" fill="none" stroke="white" stroke-width="1.5" d="M0,-3.0v7 M-2.5,-0.5L0,-3.0L2.5,-0.5"/>
  </g>
  <g id="arrowDown" transform="rotate(180) translate(-30 -48)">
    <use xlink:href="#rim"/>
    <path pointer-events="none" fill="none" stroke="white" stroke-width="1.5" d="M0,-3.0v7 M-2.5,-0.5L0,-3.0L2.5,-0.5"/>
  </g>
  <g id="arrowLeft" transform="rotate(270) translate(-36 17)">
    <use xlink:href="#rim"/>
    <path pointer-events="none" fill="none" stroke="white" stroke-width="1.5" d="M0,-3.0v7 M-2.5,-0.5L0,-3.0L2.5,-0.5"/>
  </g>
  <g id="resetDef">
    <use xlink:href="#rim2" fill="#404040"><set attributeName="fill" to="#808080" begin="reset.mouseover" end="reset.mouseout"/></use>
  </g>
</defs>
<script type="application/ecmascript">
var viewWidth = 1048;
var viewHeight = 121;
var sectionId = 'dynsection-12';
</script>
<script type="application/ecmascript" xlink:href="../../svg.min.js"/>
<svg id="graph" class="graph">
<g id="viewport">
<title>PathManager::getExternalPath</title>
<!-- Node1 -->
<g id="Node000001" class="node">
<title>Node1</title>
<g id="a_Node000001"><a xlink:title=" ">
<polygon fill="#999999" stroke="#666666" points="1040,-57.45 876,-57.45 876,-38.45 1040,-38.45 1040,-57.45"/>
<text text-anchor="middle" x="958" y="-45.45" font-family="Helvetica,sans-Serif" font-size="10.00">PathManager::getExternalPath</text>
</a>
</g>
</g>
<!-- Node2 -->
<g id="Node000002" class="node">
<title>Node2</title>
<g id="a_Node000002"><a xlink:href="../../d8/dec/classPathManager.html#a96a013e3353b4e4c80ad9232e18f8472" target="_top" xlink:title=" ">
<polygon fill="white" stroke="#666666" points="830.5,-113.45 621.5,-113.45 621.5,-94.45 830.5,-94.45 830.5,-113.45"/>
<text text-anchor="middle" x="726" y="-101.45" font-family="Helvetica,sans-Serif" font-size="10.00">PathManager::getLocalTunnelClientPath</text>
</a>
</g>
</g>
<!-- Node1&#45;&gt;Node2 -->
<g id="edge1_Node000001_Node000002" class="edge">
<title>Node1&#45;&gt;Node2</title>
<g id="a_edge1_Node000001_Node000002"><a xlink:title=" ">
<path fill="none" stroke="#63b8ff" d="M921.64,-61.02C898.65,-69.13 867.86,-79.25 840,-85.95 826.48,-89.2 811.9,-92.02 797.86,-94.4"/>
<polygon fill="#63b8ff" stroke="#63b8ff" points="923.07,-64.23 931.31,-57.57 920.71,-57.64 923.07,-64.23"/>
</a>
</g>
</g>
<!-- Node3 -->
<g id="Node000003" class="node">
<title>Node3</title>
<g id="a_Node000003"><a xlink:href="../../d8/dec/classPathManager.html#a84566186a965025393fe31a9cfb50299" target="_top" xlink:title=" ">
<polygon fill="white" stroke="#666666" points="840,-76.45 612,-76.45 612,-57.45 840,-57.45 840,-76.45"/>
<text text-anchor="middle" x="726" y="-64.45" font-family="Helvetica,sans-Serif" font-size="10.00">PathManager::getLocalTunnelControllerPath</text>
</a>
</g>
</g>
<!-- Node1&#45;&gt;Node3 -->
<g id="edge2_Node000001_Node000003" class="edge">
<title>Node1&#45;&gt;Node3</title>
<g id="a_edge2_Node000001_Node000003"><a xlink:title=" ">
<path fill="none" stroke="#63b8ff" d="M865.7,-55.49C857.25,-56.19 848.62,-56.9 840,-57.61"/>
<polygon fill="#63b8ff" stroke="#63b8ff" points="866.23,-58.96 875.91,-54.64 865.66,-51.98 866.23,-58.96"/>
</a>
</g>
</g>
<!-- Node8 -->
<g id="Node000008" class="node">
<title>Node8</title>
<g id="a_Node000008"><a xlink:href="../../d8/dec/classPathManager.html#a8995cf2a53dfcf82d99d80695396031a" target="_top" xlink:title=" ">
<polygon fill="white" stroke="#666666" points="809,-39.45 643,-39.45 643,-20.45 809,-20.45 809,-39.45"/>
<text text-anchor="middle" x="726" y="-27.45" font-family="Helvetica,sans-Serif" font-size="10.00">PathManager::getNodeExePath</text>
</a>
</g>
</g>
<!-- Node1&#45;&gt;Node8 -->
<g id="edge7_Node000001_Node000008" class="edge">
<title>Node1&#45;&gt;Node8</title>
<g id="a_edge7_Node000001_Node000008"><a xlink:title=" ">
<path fill="none" stroke="#63b8ff" d="M865.93,-40.82C847.24,-39.36 827.66,-37.82 809.3,-36.39"/>
<polygon fill="#63b8ff" stroke="#63b8ff" points="865.67,-44.31 875.91,-41.6 866.21,-37.33 865.67,-44.31"/>
</a>
</g>
</g>
<!-- Node9 -->
<g id="Node000009" class="node">
<title>Node9</title>
<g id="a_Node000009"><a xlink:href="../../df/d0a/main_8cpp.html#ae66f6b31b5ad750f1fe042a706a4e3d4" target="_top" xlink:title=" ">
<polygon fill="white" stroke="#666666" points="505.5,-20.45 464.5,-20.45 464.5,-1.45 505.5,-1.45 505.5,-20.45"/>
<text text-anchor="middle" x="485" y="-8.45" font-family="Helvetica,sans-Serif" font-size="10.00">main</text>
</a>
</g>
</g>
<!-- Node1&#45;&gt;Node9 -->
<g id="edge10_Node000001_Node000009" class="edge">
<title>Node1&#45;&gt;Node9</title>
<g id="a_edge10_Node000001_Node000009"><a xlink:title=" ">
<path fill="none" stroke="#63b8ff" d="M924.86,-34.84C901.7,-26.13 869.48,-15.5 840,-10.95 713.97,8.51 559.67,-3.57 505.73,-8.85"/>
<polygon fill="#63b8ff" stroke="#63b8ff" points="923.6,-38.11 934.19,-38.43 926.12,-31.58 923.6,-38.11"/>
</a>
</g>
</g>
<!-- Node4 -->
<g id="Node000004" class="node">
<title>Node4</title>
<g id="a_Node000004"><a xlink:href="../../dd/d71/classNetworkUtilities.html#ac0655968aa7b9e06f7566343e0d2e567" target="_top" xlink:title=" ">
<polygon fill="white" stroke="#666666" points="576,-57.45 394,-57.45 394,-38.45 576,-38.45 576,-57.45"/>
<text text-anchor="middle" x="485" y="-45.45" font-family="Helvetica,sans-Serif" font-size="10.00">NetworkUtilities::startLocalTunnel</text>
</a>
</g>
</g>
<!-- Node3&#45;&gt;Node4 -->
<g id="edge3_Node000003_Node000004" class="edge">
<title>Node3&#45;&gt;Node4</title>
<g id="a_edge3_Node000003_Node000004"><a xlink:title=" ">
<path fill="none" stroke="#63b8ff" d="M601.71,-57.14C593.12,-56.46 584.55,-55.78 576.19,-55.12"/>
<polygon fill="#63b8ff" stroke="#63b8ff" points="601.55,-60.64 611.8,-57.95 602.11,-53.66 601.55,-60.64"/>
</a>
</g>
</g>
<!-- Node5 -->
<g id="Node000005" class="node">
<title>Node5</title>
<g id="a_Node000005"><a xlink:href="../../d6/d6f/classNetworkManager.html#a0f4f9de49973a81889e18034343a512e" target="_top" xlink:title=" ">
<polygon fill="white" stroke="#666666" points="344.5,-76.45 210.5,-76.45 210.5,-57.45 344.5,-57.45 344.5,-76.45"/>
<text text-anchor="middle" x="277.5" y="-64.45" font-family="Helvetica,sans-Serif" font-size="10.00">NetworkManager::setup</text>
</a>
</g>
</g>
<!-- Node4&#45;&gt;Node5 -->
<g id="edge4_Node000004_Node000005" class="edge">
<title>Node4&#45;&gt;Node5</title>
<g id="a_edge4_Node000004_Node000005"><a xlink:title=" ">
<path fill="none" stroke="#63b8ff" d="M383.77,-57.21C370.54,-58.44 357.25,-59.66 344.78,-60.82"/>
<polygon fill="#63b8ff" stroke="#63b8ff" points="384.23,-60.68 393.86,-56.28 383.58,-53.71 384.23,-60.68"/>
</a>
</g>
</g>
<!-- Node6 -->
<g id="Node000006" class="node">
<title>Node6</title>
<g id="a_Node000006"><a xlink:href="../../d6/d6f/classNetworkManager.html#a183ff98131c32d577308340999b4de18" target="_top" xlink:title=" ">
<polygon fill="white" stroke="#666666" points="358,-39.45 197,-39.45 197,-20.45 358,-20.45 358,-39.45"/>
<text text-anchor="middle" x="277.5" y="-27.45" font-family="Helvetica,sans-Serif" font-size="10.00">NetworkManager::startServer</text>
</a>
</g>
</g>
<!-- Node4&#45;&gt;Node6 -->
<g id="edge5_Node000004_Node000006" class="edge">
<title>Node4&#45;&gt;Node6</title>
<g id="a_edge5_Node000004_Node000006"><a xlink:title=" ">
<path fill="none" stroke="#63b8ff" d="M383.82,-39.17C375.23,-38.42 366.63,-37.66 358.24,-36.93"/>
<polygon fill="#63b8ff" stroke="#63b8ff" points="383.6,-42.66 393.86,-40.05 384.21,-35.69 383.6,-42.66"/>
</a>
</g>
</g>
<!-- Node7 -->
<g id="Node000007" class="node">
<title>Node7</title>
<g id="a_Node000007"><a xlink:href="../../d6/d6f/classNetworkManager.html#adef56253674bd7ebd40bf73c629feed2" target="_top" xlink:title=" ">
<polygon fill="white" stroke="#666666" points="161,-39.45 0,-39.45 0,-20.45 161,-20.45 161,-39.45"/>
<text text-anchor="middle" x="80.5" y="-27.45" font-family="Helvetica,sans-Serif" font-size="10.00">NetworkManager::startServer</text>
</a>
</g>
</g>
<!-- Node6&#45;&gt;Node7 -->
<g id="edge6_Node000006_Node000007" class="edge">
<title>Node6&#45;&gt;Node7</title>
<g id="a_edge6_Node000006_Node000007"><a xlink:title=" ">
<path fill="none" stroke="#63b8ff" d="M186.88,-29.95C178.3,-29.95 169.64,-29.95 161.16,-29.95"/>
<polygon fill="#63b8ff" stroke="#63b8ff" points="186.9,-33.45 196.9,-29.95 186.9,-26.45 186.9,-33.45"/>
</a>
</g>
</g>
<!-- Node8&#45;&gt;Node4 -->
<g id="edge9_Node000008_Node000004" class="edge">
<title>Node8&#45;&gt;Node4</title>
<g id="a_edge9_Node000008_Node000004"><a xlink:title=" ">
<path fill="none" stroke="#63b8ff" d="M632.57,-36.91C614.05,-38.3 594.61,-39.77 576.17,-41.15"/>
<polygon fill="#63b8ff" stroke="#63b8ff" points="633.04,-40.38 642.75,-36.14 632.52,-33.4 633.04,-40.38"/>
</a>
</g>
</g>
<!-- Node8&#45;&gt;Node9 -->
<g id="edge8_Node000008_Node000009" class="edge">
<title>Node8&#45;&gt;Node9</title>
<g id="a_edge8_Node000008_Node000009"><a xlink:title=" ">
<path fill="none" stroke="#63b8ff" d="M632.61,-22.6C586.06,-18.9 533.71,-14.74 505.89,-12.53"/>
<polygon fill="#63b8ff" stroke="#63b8ff" points="632.5,-26.1 642.75,-23.41 633.06,-19.13 632.5,-26.1"/>
</a>
</g>
</g>
</g>
</svg>

<g id="navigator" transform="translate(0 0)" fill="#404254">
  <rect fill="#f2f5e9" fill-opacity="0.5" stroke="#606060" stroke-width=".5" x="0" y="0" width="60" height="60"/>
  <use id="zoomplus" xlink:href="#zoomPlus" x="17" y="9" onmousedown="handleZoom(evt,'in')"/>
  <use id="zoomminus" xlink:href="#zoomMin" x="42" y="9" onmousedown="handleZoom(evt,'out')"/>
  <use id="reset" xlink:href="#resetDef" x="30" y="36" onmousedown="handleReset()"/>
   <use id="arrowup" xlink:href="#arrowUp" x="0" y="0" onmousedown="handlePan(0,-1)"/>
  <use id="arrowright" xlink:href="#arrowRight" x="0" y="0" onmousedown="handlePan(1,0)"/>
  <use id="arrowdown" xlink:href="#arrowDown" x="0" y="0" onmousedown="handlePan(0,1)"/>
  <use id="arrowleft" xlink:href="#arrowLeft" x="0" y="0" onmousedown="handlePan(-1,0)"/>
</g>
<svg viewBox="0 0 15 15" width="100%" height="30px" preserveAspectRatio="xMaxYMin meet">
 <g id="arrow_out" transform="scale(0.3 0.3)">
  <a xlink:href="classPathManager_a8bc07ea0ad8692223d1743e442b48e26_icgraph_org.svg" target="_base">
   <rect id="button" ry="5" rx="5" y="6" x="6" height="38" width="38"
        fill="#f2f5e9" fill-opacity="0.5" stroke="#606060" stroke-width="1.0"/>
   <path id="arrow"
     d="M 11.500037,31.436501 C 11.940474,20.09759 22.043105,11.32322 32.158766,21.979434 L 37.068811,17.246167 C 37.068811,17.246167 37.088388,32 37.088388,32 L 22.160133,31.978069 C 22.160133,31.978069 26.997745,27.140456 26.997745,27.140456 C 18.528582,18.264221 13.291696,25.230495 11.500037,31.436501 z"
     style="fill:#404040;"/>
  </a>
 </g>
</svg>

<style type='text/css'>
<![CDATA[
[data-mouse-over-selected='false'] { opacity: 0.7; }
[data-mouse-over-selected='true']  { opacity: 1.0; }
]]>
</style>
<script type="application/ecmascript"><![CDATA[
document.addEventListener('DOMContentLoaded', (event) => {
  highlightEdges();
  highlightAdjacentNodes();
});
]]></script>
</svg>
