<?xml version="1.0" encoding="UTF-8" standalone="no"?>
<!DOCTYPE svg PUBLIC "-//W3C//DTD SVG 1.1//EN"
 "http://www.w3.org/Graphics/SVG/1.1/DTD/svg11.dtd">
<!-- Generated by graphviz version 2.43.0 (0)
 -->
<!-- Title: PathManager::getConfigPath Pages: 1 -->
<!--zoomable 175 -->

<svg id="main" version="1.1" xmlns="http://www.w3.org/2000/svg" xmlns:xlink="http://www.w3.org/1999/xlink" xml:space="preserve" onload="init(evt)">
<style type="text/css"><![CDATA[
.node, .edge {opacity: 0.7;}
.node.selected, .edge.selected {opacity: 1;}
.edge:hover path { stroke: red; }
.edge:hover polygon { stroke: red; fill: red; }
]]></style>

<defs>
  <circle id="rim" cx="0" cy="0" r="7"/>
  <circle id="rim2" cx="0" cy="0" r="3.5"/>
  <g id="zoomPlus">
    <use xlink:href="#rim" fill="#404040"><set attributeName="fill" to="#808080" begin="zoomplus.mouseover" end="zoomplus.mouseout"/></use>
    <path d="M-4,0h8M0,-4v8" fill="none" stroke="white" stroke-width="1.5" pointer-events="none"/>
  </g>
  <g id="zoomMin">
    <use xlink:href="#rim" fill="#404040"><set attributeName="fill" to="#808080" begin="zoomminus.mouseover" end="zoomminus.mouseout"/></use>
    <path d="M-4,0h8" fill="none" stroke="white" stroke-width="1.5" pointer-events="none"/>
  </g>
  <g id="arrowUp" transform="translate(30 24)">
    <use xlink:href="#rim"/>
    <path pointer-events="none" fill="none" stroke="white" stroke-width="1.5" d="M0,-3.0v7 M-2.5,-0.5L0,-3.0L2.5,-0.5"/>
  </g>
  <g id="arrowRight" transform="rotate(90) translate(36 -43)">
    <use xlink:href="#rim"/>
    <path pointer-events="none" fill="none" stroke="white" stroke-width="1.5" d="M0,-3.0v7 M-2.5,-0.5L0,-3.0L2.5,-0.5"/>
  </g>
  <g id="arrowDown" transform="rotate(180) translate(-30 -48)">
    <use xlink:href="#rim"/>
    <path pointer-events="none" fill="none" stroke="white" stroke-width="1.5" d="M0,-3.0v7 M-2.5,-0.5L0,-3.0L2.5,-0.5"/>
  </g>
  <g id="arrowLeft" transform="rotate(270) translate(-36 17)">
    <use xlink:href="#rim"/>
    <path pointer-events="none" fill="none" stroke="white" stroke-width="1.5" d="M0,-3.0v7 M-2.5,-0.5L0,-3.0L2.5,-0.5"/>
  </g>
  <g id="resetDef">
    <use xlink:href="#rim2" fill="#404040"><set attributeName="fill" to="#808080" begin="reset.mouseover" end="reset.mouseout"/></use>
  </g>
</defs>
<script type="application/ecmascript">
var viewWidth = 1097;
var viewHeight = 175;
var sectionId = 'dynsection-9';
</script>
<script type="application/ecmascript" xlink:href="../../svg.min.js"/>
<svg id="graph" class="graph">
<g id="viewport">
<title>PathManager::getConfigPath</title>
<!-- Node1 -->
<g id="Node000001" class="node">
<title>Node1</title>
<g id="a_Node000001"><a xlink:title=" ">
<polygon fill="#999999" stroke="#666666" points="1089,-111 935,-111 935,-92 1089,-92 1089,-111"/>
<text text-anchor="middle" x="1012" y="-99" font-family="Helvetica,sans-Serif" font-size="10.00">PathManager::getConfigPath</text>
</a>
</g>
</g>
<!-- Node2 -->
<g id="Node000002" class="node">
<title>Node2</title>
<g id="a_Node000002"><a xlink:href="../../d8/dec/classPathManager.html#a8ab36dc1c3f37bc603cb61f4ba6a90b7" target="_top" xlink:title=" ">
<polygon fill="white" stroke="#666666" points="899,-157 726,-157 726,-138 899,-138 899,-157"/>
<text text-anchor="middle" x="812.5" y="-145" font-family="Helvetica,sans-Serif" font-size="10.00">PathManager::ensureDirectories</text>
</a>
</g>
</g>
<!-- Node1&#45;&gt;Node2 -->
<g id="edge1_Node000001_Node000002" class="edge">
<title>Node1&#45;&gt;Node2</title>
<g id="a_edge1_Node000001_Node000002"><a xlink:title=" ">
<path fill="none" stroke="#63b8ff" d="M960.2,-113.33C927.32,-120.99 885.07,-130.83 854.37,-137.98"/>
<polygon fill="#63b8ff" stroke="#63b8ff" points="961.13,-116.71 970.08,-111.03 959.54,-109.89 961.13,-116.71"/>
</a>
</g>
</g>
<!-- Node4 -->
<g id="Node000004" class="node">
<title>Node4</title>
<g id="a_Node000004"><a xlink:href="../../d8/d43/classIdentityManager.html#ad6a5adbbaa98c88ed1447e8783b0a6b8" target="_top" xlink:title=" ">
<polygon fill="white" stroke="#666666" points="888,-111 737,-111 737,-92 888,-92 888,-111"/>
<text text-anchor="middle" x="812.5" y="-99" font-family="Helvetica,sans-Serif" font-size="10.00">IdentityManager::kBookFile</text>
</a>
</g>
</g>
<!-- Node1&#45;&gt;Node4 -->
<g id="edge3_Node000001_Node000004" class="edge">
<title>Node1&#45;&gt;Node4</title>
<g id="a_edge3_Node000001_Node000004"><a xlink:title=" ">
<path fill="none" stroke="#63b8ff" d="M924.78,-101.5C912.6,-101.5 900.17,-101.5 888.24,-101.5"/>
<polygon fill="#63b8ff" stroke="#63b8ff" points="924.92,-105 934.92,-101.5 924.92,-98 924.92,-105"/>
</a>
</g>
</g>
<!-- Node12 -->
<g id="Node000012" class="node">
<title>Node12</title>
<g id="a_Node000012"><a xlink:href="../../d8/d43/classIdentityManager.html#a611e5cdca43b5f0e960cd0a486e14d00" target="_top" xlink:title=" ">
<polygon fill="white" stroke="#666666" points="883,-56 742,-56 742,-37 883,-37 883,-56"/>
<text text-anchor="middle" x="812.5" y="-44" font-family="Helvetica,sans-Serif" font-size="10.00">IdentityManager::kMeFile</text>
</a>
</g>
</g>
<!-- Node1&#45;&gt;Node12 -->
<g id="edge11_Node000001_Node000012" class="edge">
<title>Node1&#45;&gt;Node12</title>
<g id="a_edge11_Node000001_Node000012"><a xlink:title=" ">
<path fill="none" stroke="#63b8ff" d="M966.86,-89.21C930.9,-79.19 880.85,-65.26 847.84,-56.06"/>
<polygon fill="#63b8ff" stroke="#63b8ff" points="966.03,-92.61 976.6,-91.92 967.9,-85.87 966.03,-92.61"/>
</a>
</g>
</g>
<!-- Node3 -->
<g id="Node000003" class="node">
<title>Node3</title>
<g id="a_Node000003"><a xlink:href="../../df/d0a/main_8cpp.html#ae66f6b31b5ad750f1fe042a706a4e3d4" target="_top" xlink:title=" ">
<polygon fill="white" stroke="#666666" points="625.5,-167 584.5,-167 584.5,-148 625.5,-148 625.5,-167"/>
<text text-anchor="middle" x="605" y="-155" font-family="Helvetica,sans-Serif" font-size="10.00">main</text>
</a>
</g>
</g>
<!-- Node2&#45;&gt;Node3 -->
<g id="edge2_Node000002_Node000003" class="edge">
<title>Node2&#45;&gt;Node3</title>
<g id="a_edge2_Node000002_Node000003"><a xlink:title=" ">
<path fill="none" stroke="#63b8ff" d="M715.8,-152.16C681.77,-153.81 646.71,-155.52 625.63,-156.54"/>
<polygon fill="#63b8ff" stroke="#63b8ff" points="716.02,-155.65 725.84,-151.67 715.68,-148.66 716.02,-155.65"/>
</a>
</g>
</g>
<!-- Node5 -->
<g id="Node000005" class="node">
<title>Node5</title>
<g id="a_Node000005"><a xlink:href="../../d8/d43/classIdentityManager.html#a11610f8f56c0df45a6fe25b0a2299e58" target="_top" xlink:title=" ">
<polygon fill="white" stroke="#666666" points="688.5,-93 521.5,-93 521.5,-74 688.5,-74 688.5,-93"/>
<text text-anchor="middle" x="605" y="-81" font-family="Helvetica,sans-Serif" font-size="10.00">IdentityManager::readBookFile</text>
</a>
</g>
</g>
<!-- Node4&#45;&gt;Node5 -->
<g id="edge4_Node000004_Node000005" class="edge">
<title>Node4&#45;&gt;Node5</title>
<g id="a_edge4_Node000004_Node000005"><a xlink:title=" ">
<path fill="none" stroke="#63b8ff" d="M726.74,-94.08C714.17,-92.97 701.23,-91.84 688.71,-90.74"/>
<polygon fill="#63b8ff" stroke="#63b8ff" points="726.46,-97.56 736.73,-94.95 727.07,-90.59 726.46,-97.56"/>
</a>
</g>
</g>
<!-- Node7 -->
<g id="Node000007" class="node">
<title>Node7</title>
<g id="a_Node000007"><a xlink:href="../../d8/d43/classIdentityManager.html#a6423b50955b5c9937b4e3c928ce86dff" target="_top" xlink:title=" ">
<polygon fill="white" stroke="#666666" points="690,-130 520,-130 520,-111 690,-111 690,-130"/>
<text text-anchor="middle" x="605" y="-118" font-family="Helvetica,sans-Serif" font-size="10.00">IdentityManager::writeBookFile</text>
</a>
</g>
</g>
<!-- Node4&#45;&gt;Node7 -->
<g id="edge6_Node000004_Node000007" class="edge">
<title>Node4&#45;&gt;Node7</title>
<g id="a_edge6_Node000004_Node000007"><a xlink:title=" ">
<path fill="none" stroke="#63b8ff" d="M726.68,-109.34C714.6,-110.46 702.17,-111.61 690.11,-112.72"/>
<polygon fill="#63b8ff" stroke="#63b8ff" points="727.09,-112.82 736.73,-108.41 726.45,-105.85 727.09,-112.82"/>
</a>
</g>
</g>
<!-- Node6 -->
<g id="Node000006" class="node">
<title>Node6</title>
<g id="a_Node000006"><a xlink:href="../../d8/d43/classIdentityManager.html#a8ab84e3c1abaf38a289c276666ca52ad" target="_top" xlink:title=" ">
<polygon fill="white" stroke="#666666" points="484,-93 254,-93 254,-74 484,-74 484,-93"/>
<text text-anchor="middle" x="369" y="-81" font-family="Helvetica,sans-Serif" font-size="10.00">IdentityManager::loadAddressBookFromFile</text>
</a>
</g>
</g>
<!-- Node5&#45;&gt;Node6 -->
<g id="edge5_Node000005_Node000006" class="edge">
<title>Node5&#45;&gt;Node6</title>
<g id="a_edge5_Node000005_Node000006"><a xlink:title=" ">
<path fill="none" stroke="#63b8ff" d="M510.96,-83.5C502.19,-83.5 493.22,-83.5 484.27,-83.5"/>
<polygon fill="#63b8ff" stroke="#63b8ff" points="511.17,-87 521.17,-83.5 511.17,-80 511.17,-87"/>
</a>
</g>
</g>
<!-- Node8 -->
<g id="Node000008" class="node">
<title>Node8</title>
<g id="a_Node000008"><a xlink:href="../../d8/d43/classIdentityManager.html#a18c85a39c82ac2918657286498bbe8da" target="_top" xlink:title=" ">
<polygon fill="white" stroke="#666666" points="478,-130 260,-130 260,-111 478,-111 478,-130"/>
<text text-anchor="middle" x="369" y="-118" font-family="Helvetica,sans-Serif" font-size="10.00">IdentityManager::saveAddressBookToFile</text>
</a>
</g>
</g>
<!-- Node7&#45;&gt;Node8 -->
<g id="edge7_Node000007_Node000008" class="edge">
<title>Node7&#45;&gt;Node8</title>
<g id="a_edge7_Node000007_Node000008"><a xlink:title=" ">
<path fill="none" stroke="#63b8ff" d="M509.62,-120.5C499.3,-120.5 488.73,-120.5 478.26,-120.5"/>
<polygon fill="#63b8ff" stroke="#63b8ff" points="509.85,-124 519.85,-120.5 509.85,-117 509.85,-124"/>
</a>
</g>
</g>
<!-- Node9 -->
<g id="Node000009" class="node">
<title>Node9</title>
<g id="a_Node000009"><a xlink:href="../../d8/d43/classIdentityManager.html#a22e3ee5efe1fc4e1df1363b9490390fb" target="_top" xlink:title=" ">
<polygon fill="white" stroke="#666666" points="182,-130 36,-130 36,-111 182,-111 182,-130"/>
<text text-anchor="middle" x="109" y="-118" font-family="Helvetica,sans-Serif" font-size="10.00">IdentityManager::bindPeer</text>
</a>
</g>
</g>
<!-- Node8&#45;&gt;Node9 -->
<g id="edge8_Node000008_Node000009" class="edge">
<title>Node8&#45;&gt;Node9</title>
<g id="a_edge8_Node000008_Node000009"><a xlink:title=" ">
<path fill="none" stroke="#63b8ff" d="M249.53,-120.5C226.5,-120.5 203.03,-120.5 182.07,-120.5"/>
<polygon fill="#63b8ff" stroke="#63b8ff" points="249.71,-124 259.71,-120.5 249.71,-117 249.71,-124"/>
</a>
</g>
</g>
<!-- Node10 -->
<g id="Node000010" class="node">
<title>Node10</title>
<g id="a_Node000010"><a xlink:href="../../d8/d43/classIdentityManager.html#a06c9f1224957dbb9d2680a5c0d595ebd" target="_top" xlink:title=" ">
<polygon fill="white" stroke="#666666" points="194,-29 24,-29 24,-10 194,-10 194,-29"/>
<text text-anchor="middle" x="109" y="-17" font-family="Helvetica,sans-Serif" font-size="10.00">IdentityManager::setMyIdentity</text>
</a>
</g>
</g>
<!-- Node8&#45;&gt;Node10 -->
<g id="edge9_Node000008_Node000010" class="edge">
<title>Node8&#45;&gt;Node10</title>
<g id="a_edge9_Node000008_Node000010"><a xlink:title=" ">
<path fill="none" stroke="#63b8ff" d="M262.84,-107.12C259.81,-105.71 256.85,-104.18 254,-102.5 231.62,-89.34 239.15,-71.55 218,-56.5 199.67,-43.46 176.36,-34.71 156.1,-29.01"/>
<polygon fill="#63b8ff" stroke="#63b8ff" points="261.59,-110.38 272.17,-110.95 264.25,-103.91 261.59,-110.38"/>
</a>
</g>
</g>
<!-- Node11 -->
<g id="Node000011" class="node">
<title>Node11</title>
<g id="a_Node000011"><a xlink:href="../../d8/d43/classIdentityManager.html#a2545919ba7d19962e6b4f147940cd3d9" target="_top" xlink:title=" ">
<polygon fill="white" stroke="#666666" points="218,-84 0,-84 0,-65 218,-65 218,-84"/>
<text text-anchor="middle" x="109" y="-72" font-family="Helvetica,sans-Serif" font-size="10.00">IdentityManager::setUsernameForUnique</text>
</a>
</g>
</g>
<!-- Node8&#45;&gt;Node11 -->
<g id="edge10_Node000008_Node000011" class="edge">
<title>Node8&#45;&gt;Node11</title>
<g id="a_edge10_Node000008_Node000011"><a xlink:title=" ">
<path fill="none" stroke="#63b8ff" d="M295.32,-109.42C281.58,-107.21 267.34,-104.85 254,-102.5 221.52,-96.78 185.05,-89.68 156.94,-84.06"/>
<polygon fill="#63b8ff" stroke="#63b8ff" points="294.79,-112.88 305.21,-111 295.89,-105.97 294.79,-112.88"/>
</a>
</g>
</g>
<!-- Node13 -->
<g id="Node000013" class="node">
<title>Node13</title>
<g id="a_Node000013"><a xlink:href="../../d8/d43/classIdentityManager.html#a03e0bcd4a09304e6f8e4d9b7b3fa7736" target="_top" xlink:title=" ">
<polygon fill="white" stroke="#666666" points="683.5,-56 526.5,-56 526.5,-37 683.5,-37 683.5,-56"/>
<text text-anchor="middle" x="605" y="-44" font-family="Helvetica,sans-Serif" font-size="10.00">IdentityManager::readMeFile</text>
</a>
</g>
</g>
<!-- Node12&#45;&gt;Node13 -->
<g id="edge12_Node000012_Node000013" class="edge">
<title>Node12&#45;&gt;Node13</title>
<g id="a_edge12_Node000012_Node000013"><a xlink:title=" ">
<path fill="none" stroke="#63b8ff" d="M731.68,-46.5C715.89,-46.5 699.34,-46.5 683.63,-46.5"/>
<polygon fill="#63b8ff" stroke="#63b8ff" points="731.93,-50 741.93,-46.5 731.93,-43 731.93,-50"/>
</a>
</g>
</g>
<!-- Node15 -->
<g id="Node000015" class="node">
<title>Node15</title>
<g id="a_Node000015"><a xlink:href="../../d8/d43/classIdentityManager.html#a39c326ae35bbfd58d73cae32d8793174" target="_top" xlink:title=" ">
<polygon fill="white" stroke="#666666" points="685,-19 525,-19 525,0 685,0 685,-19"/>
<text text-anchor="middle" x="605" y="-7" font-family="Helvetica,sans-Serif" font-size="10.00">IdentityManager::writeMeFile</text>
</a>
</g>
</g>
<!-- Node12&#45;&gt;Node15 -->
<g id="edge14_Node000012_Node000015" class="edge">
<title>Node12&#45;&gt;Node15</title>
<g id="a_edge14_Node000012_Node000015"><a xlink:title=" ">
<path fill="none" stroke="#63b8ff" d="M748.67,-35.19C720.02,-30.03 686.47,-23.99 659.1,-19.06"/>
<polygon fill="#63b8ff" stroke="#63b8ff" points="748.12,-38.64 758.58,-36.97 749.36,-31.75 748.12,-38.64"/>
</a>
</g>
</g>
<!-- Node14 -->
<g id="Node000014" class="node">
<title>Node14</title>
<g id="a_Node000014"><a xlink:href="../../d8/d43/classIdentityManager.html#af2952d782e6078643da4c28d90c87504" target="_top" xlink:title=" ">
<polygon fill="white" stroke="#666666" points="478,-56 260,-56 260,-37 478,-37 478,-56"/>
<text text-anchor="middle" x="369" y="-44" font-family="Helvetica,sans-Serif" font-size="10.00">IdentityManager::loadMyIdentityFromFile</text>
</a>
</g>
</g>
<!-- Node13&#45;&gt;Node14 -->
<g id="edge13_Node000013_Node000014" class="edge">
<title>Node13&#45;&gt;Node14</title>
<g id="a_edge13_Node000013_Node000014"><a xlink:title=" ">
<path fill="none" stroke="#63b8ff" d="M516.14,-46.5C503.78,-46.5 490.95,-46.5 478.26,-46.5"/>
<polygon fill="#63b8ff" stroke="#63b8ff" points="516.41,-50 526.41,-46.5 516.41,-43 516.41,-50"/>
</a>
</g>
</g>
<!-- Node16 -->
<g id="Node000016" class="node">
<title>Node16</title>
<g id="a_Node000016"><a xlink:href="../../d8/d43/classIdentityManager.html#a1869a9c4eeaabc2a70e422ae5c685a9b" target="_top" xlink:title=" ">
<polygon fill="white" stroke="#666666" points="472,-19 266,-19 266,0 472,0 472,-19"/>
<text text-anchor="middle" x="369" y="-7" font-family="Helvetica,sans-Serif" font-size="10.00">IdentityManager::saveMyIdentityToFile</text>
</a>
</g>
</g>
<!-- Node15&#45;&gt;Node16 -->
<g id="edge15_Node000015_Node000016" class="edge">
<title>Node15&#45;&gt;Node16</title>
<g id="a_edge15_Node000015_Node000016"><a xlink:title=" ">
<path fill="none" stroke="#63b8ff" d="M514.39,-9.5C500.64,-9.5 486.36,-9.5 472.37,-9.5"/>
<polygon fill="#63b8ff" stroke="#63b8ff" points="514.78,-13 524.78,-9.5 514.78,-6 514.78,-13"/>
</a>
</g>
</g>
<!-- Node16&#45;&gt;Node10 -->
<g id="edge16_Node000016_Node000010" class="edge">
<title>Node16&#45;&gt;Node10</title>
<g id="a_edge16_Node000016_Node000010"><a xlink:title=" ">
<path fill="none" stroke="#63b8ff" d="M255.63,-13.86C235.07,-14.65 213.94,-15.47 194.37,-16.23"/>
<polygon fill="#63b8ff" stroke="#63b8ff" points="255.8,-17.35 265.66,-13.47 255.53,-10.36 255.8,-17.35"/>
</a>
</g>
</g>
<!-- Node16&#45;&gt;Node11 -->
<g id="edge17_Node000016_Node000011" class="edge">
<title>Node16&#45;&gt;Node11</title>
<g id="a_edge17_Node000016_Node000011"><a xlink:title=" ">
<path fill="none" stroke="#63b8ff" d="M291.13,-20.76C278.66,-23.03 265.93,-25.62 254,-28.5 231.87,-33.85 173.59,-53.08 138.33,-64.91"/>
<polygon fill="#63b8ff" stroke="#63b8ff" points="291.82,-24.19 301.06,-19 290.61,-17.29 291.82,-24.19"/>
</a>
</g>
</g>
</g>
</svg>

<g id="navigator" transform="translate(0 0)" fill="#404254">
  <rect fill="#f2f5e9" fill-opacity="0.5" stroke="#606060" stroke-width=".5" x="0" y="0" width="60" height="60"/>
  <use id="zoomplus" xlink:href="#zoomPlus" x="17" y="9" onmousedown="handleZoom(evt,'in')"/>
  <use id="zoomminus" xlink:href="#zoomMin" x="42" y="9" onmousedown="handleZoom(evt,'out')"/>
  <use id="reset" xlink:href="#resetDef" x="30" y="36" onmousedown="handleReset()"/>
   <use id="arrowup" xlink:href="#arrowUp" x="0" y="0" onmousedown="handlePan(0,-1)"/>
  <use id="arrowright" xlink:href="#arrowRight" x="0" y="0" onmousedown="handlePan(1,0)"/>
  <use id="arrowdown" xlink:href="#arrowDown" x="0" y="0" onmousedown="handlePan(0,1)"/>
  <use id="arrowleft" xlink:href="#arrowLeft" x="0" y="0" onmousedown="handlePan(-1,0)"/>
</g>
<svg viewBox="0 0 15 15" width="100%" height="30px" preserveAspectRatio="xMaxYMin meet">
 <g id="arrow_out" transform="scale(0.3 0.3)">
  <a xlink:href="classPathManager_a516850d4f1f941e8c93900eb01f6e38b_icgraph_org.svg" target="_base">
   <rect id="button" ry="5" rx="5" y="6" x="6" height="38" width="38"
        fill="#f2f5e9" fill-opacity="0.5" stroke="#606060" stroke-width="1.0"/>
   <path id="arrow"
     d="M 11.500037,31.436501 C 11.940474,20.09759 22.043105,11.32322 32.158766,21.979434 L 37.068811,17.246167 C 37.068811,17.246167 37.088388,32 37.088388,32 L 22.160133,31.978069 C 22.160133,31.978069 26.997745,27.140456 26.997745,27.140456 C 18.528582,18.264221 13.291696,25.230495 11.500037,31.436501 z"
     style="fill:#404040;"/>
  </a>
 </g>
</svg>

<style type='text/css'>
<![CDATA[
[data-mouse-over-selected='false'] { opacity: 0.7; }
[data-mouse-over-selected='true']  { opacity: 1.0; }
]]>
</style>
<script type="application/ecmascript"><![CDATA[
document.addEventListener('DOMContentLoaded', (event) => {
  highlightEdges();
  highlightAdjacentNodes();
});
]]></script>
</svg>
