<?xml version="1.0" encoding="UTF-8" standalone="no"?>
<!DOCTYPE svg PUBLIC "-//W3C//DTD SVG 1.1//EN"
 "http://www.w3.org/Graphics/SVG/1.1/DTD/svg11.dtd">
<!-- Generated by graphviz version 2.43.0 (0)
 -->
<!-- Title: PathManager::ensureDirectories Pages: 1 -->
<svg width="614pt" height="249pt"
 viewBox="0.00 0.00 614.00 249.00" xmlns="http://www.w3.org/2000/svg" xmlns:xlink="http://www.w3.org/1999/xlink">
<g id="graph0" class="graph" transform="scale(1 1) rotate(0) translate(4 245)">
<title>PathManager::ensureDirectories</title>
<!-- Node1 -->
<g id="Node000001" class="node">
<title>Node1</title>
<g id="a_Node000001"><a xlink:title=" ">
<polygon fill="#999999" stroke="#666666" points="173,-130 0,-130 0,-111 173,-111 173,-130"/>
<text text-anchor="middle" x="86.5" y="-118" font-family="Helvetica,sans-Serif" font-size="10.00">PathManager::ensureDirectories</text>
</a>
</g>
</g>
<!-- Node2 -->
<g id="Node000002" class="node">
<title>Node2</title>
<g id="a_Node000002"><a xlink:href="../../d8/dec/classPathManager.html#acead0801ac03e6f4de6fa9bf3b6d0636" target="_top" xlink:title=" ">
<polygon fill="white" stroke="#666666" points="385.5,-241 215.5,-241 215.5,-222 385.5,-222 385.5,-241"/>
<text text-anchor="middle" x="300.5" y="-229" font-family="Helvetica,sans-Serif" font-size="10.00">PathManager::createIfNotExists</text>
</a>
</g>
</g>
<!-- Node1&#45;&gt;Node2 -->
<g id="edge1_Node000001_Node000002" class="edge">
<title>Node1&#45;&gt;Node2</title>
<g id="a_edge1_Node000001_Node000002"><a xlink:title=" ">
<path fill="none" stroke="#63b8ff" d="M96.87,-130.19C116.01,-149.37 161.8,-192.15 209,-213.5 213.62,-215.59 218.49,-217.44 223.47,-219.08"/>
<polygon fill="#63b8ff" stroke="#63b8ff" points="222.56,-222.46 233.14,-221.97 224.56,-215.75 222.56,-222.46"/>
</a>
</g>
</g>
<!-- Node3 -->
<g id="Node000003" class="node">
<title>Node3</title>
<g id="a_Node000003"><a xlink:href="../../d8/dec/classPathManager.html#a516850d4f1f941e8c93900eb01f6e38b" target="_top" xlink:title=" ">
<polygon fill="white" stroke="#666666" points="377.5,-204 223.5,-204 223.5,-185 377.5,-185 377.5,-204"/>
<text text-anchor="middle" x="300.5" y="-192" font-family="Helvetica,sans-Serif" font-size="10.00">PathManager::getConfigPath</text>
</a>
</g>
</g>
<!-- Node1&#45;&gt;Node3 -->
<g id="edge2_Node000001_Node000003" class="edge">
<title>Node1&#45;&gt;Node3</title>
<g id="a_edge2_Node000001_Node000003"><a xlink:title=" ">
<path fill="none" stroke="#63b8ff" d="M105.08,-130.21C128.25,-142.63 170.56,-164.01 209,-176.5 216.1,-178.81 223.61,-180.87 231.15,-182.7"/>
<polygon fill="#63b8ff" stroke="#63b8ff" points="230.51,-186.15 241.04,-184.98 232.08,-179.32 230.51,-186.15"/>
</a>
</g>
</g>
<!-- Node5 -->
<g id="Node000005" class="node">
<title>Node5</title>
<g id="a_Node000005"><a xlink:href="../../d8/dec/classPathManager.html#a6be0a95403caf375f4d7b642f0f90061" target="_top" xlink:title=" ">
<polygon fill="white" stroke="#666666" points="392,-167 209,-167 209,-148 392,-148 392,-167"/>
<text text-anchor="middle" x="300.5" y="-155" font-family="Helvetica,sans-Serif" font-size="10.00">PathManager::getGameTablesPath</text>
</a>
</g>
</g>
<!-- Node1&#45;&gt;Node5 -->
<g id="edge4_Node000001_Node000005" class="edge">
<title>Node1&#45;&gt;Node5</title>
<g id="a_edge4_Node000001_Node000005"><a xlink:title=" ">
<path fill="none" stroke="#63b8ff" d="M142.1,-130.03C170.3,-134.95 204.91,-140.99 234.49,-146.15"/>
<polygon fill="#63b8ff" stroke="#63b8ff" points="234.27,-149.67 244.72,-147.94 235.47,-142.77 234.27,-149.67"/>
</a>
</g>
</g>
<!-- Node6 -->
<g id="Node000006" class="node">
<title>Node6</title>
<g id="a_Node000006"><a xlink:href="../../d8/dec/classPathManager.html#ae75b72eb67617d77136a829eb73c7e8f" target="_top" xlink:title=" ">
<polygon fill="white" stroke="#666666" points="375,-130 226,-130 226,-111 375,-111 375,-130"/>
<text text-anchor="middle" x="300.5" y="-118" font-family="Helvetica,sans-Serif" font-size="10.00">PathManager::getMapsPath</text>
</a>
</g>
</g>
<!-- Node1&#45;&gt;Node6 -->
<g id="edge6_Node000001_Node000006" class="edge">
<title>Node1&#45;&gt;Node6</title>
<g id="a_edge6_Node000001_Node000006"><a xlink:title=" ">
<path fill="none" stroke="#63b8ff" d="M173.12,-120.5C187.17,-120.5 201.73,-120.5 215.74,-120.5"/>
<polygon fill="#63b8ff" stroke="#63b8ff" points="215.83,-124 225.83,-120.5 215.83,-117 215.83,-124"/>
</a>
</g>
</g>
<!-- Node7 -->
<g id="Node000007" class="node">
<title>Node7</title>
<g id="a_Node000007"><a xlink:href="../../d8/dec/classPathManager.html#a220ff032714c927e1a2a8ea81d863331" target="_top" xlink:title=" ">
<polygon fill="white" stroke="#666666" points="381.5,-93 219.5,-93 219.5,-74 381.5,-74 381.5,-93"/>
<text text-anchor="middle" x="300.5" y="-81" font-family="Helvetica,sans-Serif" font-size="10.00">PathManager::getMarkersPath</text>
</a>
</g>
</g>
<!-- Node1&#45;&gt;Node7 -->
<g id="edge8_Node000001_Node000007" class="edge">
<title>Node1&#45;&gt;Node7</title>
<g id="a_edge8_Node000001_Node000007"><a xlink:title=" ">
<path fill="none" stroke="#63b8ff" d="M142.1,-110.97C170.3,-106.05 204.91,-100.01 234.49,-94.85"/>
<polygon fill="#63b8ff" stroke="#63b8ff" points="235.47,-98.23 244.72,-93.06 234.27,-91.33 235.47,-98.23"/>
</a>
</g>
</g>
<!-- Node8 -->
<g id="Node000008" class="node">
<title>Node8</title>
<g id="a_Node000008"><a xlink:href="../../d8/dec/classPathManager.html#af679863b43cab353b30094f54650bc99" target="_top" xlink:title=" ">
<polygon fill="white" stroke="#666666" points="376.5,-56 224.5,-56 224.5,-37 376.5,-37 376.5,-56"/>
<text text-anchor="middle" x="300.5" y="-44" font-family="Helvetica,sans-Serif" font-size="10.00">PathManager::getNotesPath</text>
</a>
</g>
</g>
<!-- Node1&#45;&gt;Node8 -->
<g id="edge10_Node000001_Node000008" class="edge">
<title>Node1&#45;&gt;Node8</title>
<g id="a_edge10_Node000001_Node000008"><a xlink:title=" ">
<path fill="none" stroke="#63b8ff" d="M105.53,-110.83C128.83,-98.69 170.93,-77.95 209,-65.5 217.2,-62.82 225.95,-60.42 234.66,-58.32"/>
<polygon fill="#63b8ff" stroke="#63b8ff" points="235.48,-61.72 244.44,-56.06 233.9,-54.9 235.48,-61.72"/>
</a>
</g>
</g>
<!-- Node9 -->
<g id="Node000009" class="node">
<title>Node9</title>
<g id="a_Node000009"><a xlink:href="../../d8/dec/classPathManager.html#a38ea96d0a74f2dbf21e811dbdbe43fb4" target="_top" xlink:title=" ">
<polygon fill="white" stroke="#666666" points="385.5,-19 215.5,-19 215.5,0 385.5,0 385.5,-19"/>
<text text-anchor="middle" x="300.5" y="-7" font-family="Helvetica,sans-Serif" font-size="10.00">PathManager::getRootDirectory</text>
</a>
</g>
</g>
<!-- Node1&#45;&gt;Node9 -->
<g id="edge12_Node000001_Node000009" class="edge">
<title>Node1&#45;&gt;Node9</title>
<g id="a_edge12_Node000001_Node000009"><a xlink:title=" ">
<path fill="none" stroke="#63b8ff" d="M96.91,-110.96C116.13,-92.07 162.05,-49.89 209,-28.5 214.43,-26.03 220.19,-23.87 226.07,-21.99"/>
<polygon fill="#63b8ff" stroke="#63b8ff" points="227.42,-25.25 236.04,-19.09 225.46,-18.53 227.42,-25.25"/>
</a>
</g>
</g>
<!-- Node4 -->
<g id="Node000004" class="node">
<title>Node4</title>
<g id="a_Node000004"><a xlink:href="../../d8/dec/classPathManager.html#a467b459b77c73cbc7544551b53911fcd" target="_top" xlink:title=" ">
<polygon fill="white" stroke="#666666" points="606,-111 428,-111 428,-92 606,-92 606,-111"/>
<text text-anchor="middle" x="517" y="-99" font-family="Helvetica,sans-Serif" font-size="10.00">PathManager::getExecutableRoot</text>
</a>
</g>
</g>
<!-- Node3&#45;&gt;Node4 -->
<g id="edge3_Node000003_Node000004" class="edge">
<title>Node3&#45;&gt;Node4</title>
<g id="a_edge3_Node000003_Node000004"><a xlink:title=" ">
<path fill="none" stroke="#63b8ff" d="M364.62,-184.89C373.96,-182.62 383.34,-179.86 392,-176.5 430.89,-161.41 471.43,-134.4 495.16,-117.25"/>
<polygon fill="#63b8ff" stroke="#63b8ff" points="497.4,-119.94 503.39,-111.2 493.26,-114.3 497.4,-119.94"/>
</a>
</g>
</g>
<!-- Node5&#45;&gt;Node4 -->
<g id="edge5_Node000005_Node000004" class="edge">
<title>Node5&#45;&gt;Node4</title>
<g id="a_edge5_Node000005_Node000004"><a xlink:title=" ">
<path fill="none" stroke="#63b8ff" d="M354.34,-147.92C366.75,-145.42 379.88,-142.55 392,-139.5 421.17,-132.15 453.66,-122.12 478.07,-114.21"/>
<polygon fill="#63b8ff" stroke="#63b8ff" points="479.25,-117.51 487.66,-111.08 477.07,-110.86 479.25,-117.51"/>
</a>
</g>
</g>
<!-- Node6&#45;&gt;Node4 -->
<g id="edge7_Node000006_Node000004" class="edge">
<title>Node6&#45;&gt;Node4</title>
<g id="a_edge7_Node000006_Node000004"><a xlink:title=" ">
<path fill="none" stroke="#63b8ff" d="M375.02,-113.99C388.68,-112.78 403.16,-111.5 417.43,-110.23"/>
<polygon fill="#63b8ff" stroke="#63b8ff" points="418.11,-113.68 427.77,-109.32 417.5,-106.71 418.11,-113.68"/>
</a>
</g>
</g>
<!-- Node7&#45;&gt;Node4 -->
<g id="edge9_Node000007_Node000004" class="edge">
<title>Node7&#45;&gt;Node4</title>
<g id="a_edge9_Node000007_Node000004"><a xlink:title=" ">
<path fill="none" stroke="#63b8ff" d="M381.68,-90.23C393.39,-91.21 405.57,-92.23 417.59,-93.24"/>
<polygon fill="#63b8ff" stroke="#63b8ff" points="417.39,-96.74 427.64,-94.09 417.97,-89.76 417.39,-96.74"/>
</a>
</g>
</g>
<!-- Node8&#45;&gt;Node4 -->
<g id="edge11_Node000008_Node000004" class="edge">
<title>Node8&#45;&gt;Node4</title>
<g id="a_edge11_Node000008_Node000004"><a xlink:title=" ">
<path fill="none" stroke="#63b8ff" d="M350.5,-56.08C364,-58.91 378.6,-62.15 392,-65.5 420.16,-72.53 451.57,-81.66 475.72,-88.97"/>
<polygon fill="#63b8ff" stroke="#63b8ff" points="475.01,-92.41 485.6,-91.98 477.05,-85.72 475.01,-92.41"/>
</a>
</g>
</g>
<!-- Node9&#45;&gt;Node4 -->
<g id="edge13_Node000009_Node000004" class="edge">
<title>Node9&#45;&gt;Node4</title>
<g id="a_edge13_Node000009_Node000004"><a xlink:title=" ">
<path fill="none" stroke="#63b8ff" d="M360.73,-19.04C371.32,-21.56 382.12,-24.67 392,-28.5 430.42,-43.38 470.8,-69.39 494.67,-86.01"/>
<polygon fill="#63b8ff" stroke="#63b8ff" points="492.79,-88.96 502.98,-91.87 496.83,-83.24 492.79,-88.96"/>
</a>
</g>
</g>
</g>
</svg>
