<?xml version="1.0" encoding="UTF-8" standalone="no"?>
<!DOCTYPE svg PUBLIC "-//W3C//DTD SVG 1.1//EN"
 "http://www.w3.org/Graphics/SVG/1.1/DTD/svg11.dtd">
<!-- Generated by graphviz version 2.43.0 (0)
 -->
<!-- Title: PathManager::getCertsPath Pages: 1 -->
<svg width="566pt" height="27pt"
 viewBox="0.00 0.00 566.00 27.00" xmlns="http://www.w3.org/2000/svg" xmlns:xlink="http://www.w3.org/1999/xlink">
<g id="graph0" class="graph" transform="scale(1 1) rotate(0) translate(4 23)">
<title>PathManager::getCertsPath</title>
<!-- Node1 -->
<g id="Node000001" class="node">
<title>Node1</title>
<g id="a_Node000001"><a xlink:title=" ">
<polygon fill="#999999" stroke="#666666" points="558,-19 409,-19 409,0 558,0 558,-19"/>
<text text-anchor="middle" x="483.5" y="-7" font-family="Helvetica,sans-Serif" font-size="10.00">PathManager::getCertsPath</text>
</a>
</g>
</g>
<!-- Node2 -->
<g id="Node000002" class="node">
<title>Node2</title>
<g id="a_Node000002"><a xlink:href="../../dd/d71/classNetworkUtilities.html#a3bfeb3ca3a5dd90d37a219b8948c8416" target="_top" xlink:title=" ">
<polygon fill="white" stroke="#666666" points="373,-19 227,-19 227,0 373,0 373,-19"/>
<text text-anchor="middle" x="300" y="-7" font-family="Helvetica,sans-Serif" font-size="10.00">NetworkUtilities::setupTLS</text>
</a>
</g>
</g>
<!-- Node1&#45;&gt;Node2 -->
<g id="edge1_Node000001_Node000002" class="edge">
<title>Node1&#45;&gt;Node2</title>
<g id="a_edge1_Node000001_Node000002"><a xlink:title=" ">
<path fill="none" stroke="#63b8ff" d="M398.91,-9.5C390.32,-9.5 381.65,-9.5 373.19,-9.5"/>
<polygon fill="#63b8ff" stroke="#63b8ff" points="398.94,-13 408.94,-9.5 398.94,-6 398.94,-13"/>
</a>
</g>
</g>
<!-- Node3 -->
<g id="Node000003" class="node">
<title>Node3</title>
<g id="a_Node000003"><a xlink:href="../../d6/d6f/classNetworkManager.html#a7d2349d09390e513119bdbceb61675b2" target="_top" xlink:title=" ">
<polygon fill="white" stroke="#666666" points="191,-19 0,-19 0,0 191,0 191,-19"/>
<text text-anchor="middle" x="95.5" y="-7" font-family="Helvetica,sans-Serif" font-size="10.00">NetworkManager::NetworkManager</text>
</a>
</g>
</g>
<!-- Node2&#45;&gt;Node3 -->
<g id="edge2_Node000002_Node000003" class="edge">
<title>Node2&#45;&gt;Node3</title>
<g id="a_edge2_Node000002_Node000003"><a xlink:title=" ">
<path fill="none" stroke="#63b8ff" d="M216.58,-9.5C208.16,-9.5 199.55,-9.5 191.01,-9.5"/>
<polygon fill="#63b8ff" stroke="#63b8ff" points="216.75,-13 226.75,-9.5 216.75,-6 216.75,-13"/>
</a>
</g>
</g>
</g>
</svg>
