<?xml version="1.0" encoding="UTF-8" standalone="no"?>
<!DOCTYPE svg PUBLIC "-//W3C//DTD SVG 1.1//EN"
 "http://www.w3.org/Graphics/SVG/1.1/DTD/svg11.dtd">
<!-- Generated by graphviz version 2.43.0 (0)
 -->
<!-- Title: PathManager::getNodeExePath Pages: 1 -->
<svg width="786pt" height="82pt"
 viewBox="0.00 0.00 786.00 82.00" xmlns="http://www.w3.org/2000/svg" xmlns:xlink="http://www.w3.org/1999/xlink">
<g id="graph0" class="graph" transform="scale(1 1) rotate(0) translate(4 78)">
<title>PathManager::getNodeExePath</title>
<!-- Node1 -->
<g id="Node000001" class="node">
<title>Node1</title>
<g id="a_Node000001"><a xlink:title=" ">
<polygon fill="#999999" stroke="#666666" points="778,-55 612,-55 612,-36 778,-36 778,-55"/>
<text text-anchor="middle" x="695" y="-43" font-family="Helvetica,sans-Serif" font-size="10.00">PathManager::getNodeExePath</text>
</a>
</g>
</g>
<!-- Node2 -->
<g id="Node000002" class="node">
<title>Node2</title>
<g id="a_Node000002"><a xlink:href="../../df/d0a/main_8cpp.html#ae66f6b31b5ad750f1fe042a706a4e3d4" target="_top" xlink:title=" ">
<polygon fill="white" stroke="#666666" points="505.5,-74 464.5,-74 464.5,-55 505.5,-55 505.5,-74"/>
<text text-anchor="middle" x="485" y="-62" font-family="Helvetica,sans-Serif" font-size="10.00">main</text>
</a>
</g>
</g>
<!-- Node1&#45;&gt;Node2 -->
<g id="edge1_Node000001_Node000002" class="edge">
<title>Node1&#45;&gt;Node2</title>
<g id="a_edge1_Node000001_Node000002"><a xlink:title=" ">
<path fill="none" stroke="#63b8ff" d="M601.7,-53.93C565.69,-57.22 527.79,-60.68 505.55,-62.71"/>
<polygon fill="#63b8ff" stroke="#63b8ff" points="602.15,-57.4 611.79,-53.01 601.52,-50.43 602.15,-57.4"/>
</a>
</g>
</g>
<!-- Node3 -->
<g id="Node000003" class="node">
<title>Node3</title>
<g id="a_Node000003"><a xlink:href="../../dd/d71/classNetworkUtilities.html#ac0655968aa7b9e06f7566343e0d2e567" target="_top" xlink:title=" ">
<polygon fill="white" stroke="#666666" points="576,-37 394,-37 394,-18 576,-18 576,-37"/>
<text text-anchor="middle" x="485" y="-25" font-family="Helvetica,sans-Serif" font-size="10.00">NetworkUtilities::startLocalTunnel</text>
</a>
</g>
</g>
<!-- Node1&#45;&gt;Node3 -->
<g id="edge2_Node000001_Node000003" class="edge">
<title>Node1&#45;&gt;Node3</title>
<g id="a_edge2_Node000001_Node000003"><a xlink:title=" ">
<path fill="none" stroke="#63b8ff" d="M601.57,-37.5C593.13,-36.77 584.59,-36.03 576.18,-35.3"/>
<polygon fill="#63b8ff" stroke="#63b8ff" points="601.53,-41.01 611.79,-38.39 602.13,-34.04 601.53,-41.01"/>
</a>
</g>
</g>
<!-- Node4 -->
<g id="Node000004" class="node">
<title>Node4</title>
<g id="a_Node000004"><a xlink:href="../../d6/d6f/classNetworkManager.html#a0f4f9de49973a81889e18034343a512e" target="_top" xlink:title=" ">
<polygon fill="white" stroke="#666666" points="344.5,-56 210.5,-56 210.5,-37 344.5,-37 344.5,-56"/>
<text text-anchor="middle" x="277.5" y="-44" font-family="Helvetica,sans-Serif" font-size="10.00">NetworkManager::setup</text>
</a>
</g>
</g>
<!-- Node3&#45;&gt;Node4 -->
<g id="edge3_Node000003_Node000004" class="edge">
<title>Node3&#45;&gt;Node4</title>
<g id="a_edge3_Node000003_Node000004"><a xlink:title=" ">
<path fill="none" stroke="#63b8ff" d="M383.77,-36.77C370.54,-37.99 357.25,-39.22 344.78,-40.37"/>
<polygon fill="#63b8ff" stroke="#63b8ff" points="384.23,-40.24 393.86,-35.83 383.58,-33.27 384.23,-40.24"/>
</a>
</g>
</g>
<!-- Node5 -->
<g id="Node000005" class="node">
<title>Node5</title>
<g id="a_Node000005"><a xlink:href="../../d6/d6f/classNetworkManager.html#a183ff98131c32d577308340999b4de18" target="_top" xlink:title=" ">
<polygon fill="white" stroke="#666666" points="358,-19 197,-19 197,0 358,0 358,-19"/>
<text text-anchor="middle" x="277.5" y="-7" font-family="Helvetica,sans-Serif" font-size="10.00">NetworkManager::startServer</text>
</a>
</g>
</g>
<!-- Node3&#45;&gt;Node5 -->
<g id="edge4_Node000003_Node000005" class="edge">
<title>Node3&#45;&gt;Node5</title>
<g id="a_edge4_Node000003_Node000005"><a xlink:title=" ">
<path fill="none" stroke="#63b8ff" d="M383.82,-18.72C375.23,-17.97 366.63,-17.22 358.24,-16.48"/>
<polygon fill="#63b8ff" stroke="#63b8ff" points="383.6,-22.22 393.86,-19.6 384.21,-15.25 383.6,-22.22"/>
</a>
</g>
</g>
<!-- Node6 -->
<g id="Node000006" class="node">
<title>Node6</title>
<g id="a_Node000006"><a xlink:href="../../d6/d6f/classNetworkManager.html#adef56253674bd7ebd40bf73c629feed2" target="_top" xlink:title=" ">
<polygon fill="white" stroke="#666666" points="161,-19 0,-19 0,0 161,0 161,-19"/>
<text text-anchor="middle" x="80.5" y="-7" font-family="Helvetica,sans-Serif" font-size="10.00">NetworkManager::startServer</text>
</a>
</g>
</g>
<!-- Node5&#45;&gt;Node6 -->
<g id="edge5_Node000005_Node000006" class="edge">
<title>Node5&#45;&gt;Node6</title>
<g id="a_edge5_Node000005_Node000006"><a xlink:title=" ">
<path fill="none" stroke="#63b8ff" d="M186.88,-9.5C178.3,-9.5 169.64,-9.5 161.16,-9.5"/>
<polygon fill="#63b8ff" stroke="#63b8ff" points="186.9,-13 196.9,-9.5 186.9,-6 186.9,-13"/>
</a>
</g>
</g>
</g>
</svg>
