<?xml version="1.0" encoding="UTF-8" standalone="no"?>
<!DOCTYPE svg PUBLIC "-//W3C//DTD SVG 1.1//EN"
 "http://www.w3.org/Graphics/SVG/1.1/DTD/svg11.dtd">
<!-- Generated by graphviz version 14.0.2 (20251019.1705)
 -->
<!-- Title: MarkerComponent Pages: 1 -->
<svg width="173pt" height="188pt"
 viewBox="0.00 0.00 173.00 188.00" xmlns="http://www.w3.org/2000/svg" xmlns:xlink="http://www.w3.org/1999/xlink">
<g id="graph0" class="graph" transform="scale(1 1) rotate(0) translate(4 184)">
<title>MarkerComponent</title>
<!-- Node1 -->
<g id="Node000001" class="node">
<title>Node1</title>
<g id="a_Node000001"><a xlink:title=" ">
<polygon fill="#999999" stroke="none" points="129.75,-68 0,-68 0,0 129.75,0 129.75,-68"/>
<text xml:space="preserve" text-anchor="start" x="24.75" y="-54.5" font-family="Helvetica,sans-Serif" font-size="10.00">MarkerComponent</text>
<text xml:space="preserve" text-anchor="start" x="4" y="-38.5" font-family="Helvetica,sans-Serif" font-size="10.00">+</text>
<text xml:space="preserve" text-anchor="start" x="14" y="-38.5" font-family="Helvetica,sans-Serif" font-size="10.00">bool allowAllPlayersMove</text>
<text xml:space="preserve" text-anchor="start" x="4" y="-22.5" font-family="Helvetica,sans-Serif" font-size="10.00">+</text>
<text xml:space="preserve" text-anchor="start" x="14" y="-22.5" font-family="Helvetica,sans-Serif" font-size="10.00">bool locked</text>
<text xml:space="preserve" text-anchor="start" x="63.38" y="-6.5" font-family="Helvetica,sans-Serif" font-size="10.00"> </text>
<polygon fill="#666666" stroke="#666666" points="0,-50 0,-50 129.75,-50 129.75,-50 0,-50"/>
<polygon fill="#666666" stroke="#666666" points="0,-18 0,-18 12,-18 12,-18 0,-18"/>
<polygon fill="#666666" stroke="#666666" points="12,-18 12,-18 129.75,-18 129.75,-18 12,-18"/>
<polygon fill="none" stroke="#666666" points="0,0 0,-68 129.75,-68 129.75,0 0,0"/>
</a>
</g>
</g>
<!-- Node2 -->
<g id="Node000002" class="node">
<title>Node2</title>
<g id="a_Node000002"><a xlink:title=" ">
<polygon fill="white" stroke="none" points="80.88,-180 48.88,-180 48.88,-128 80.88,-128 80.88,-180"/>
<text xml:space="preserve" text-anchor="start" x="52.88" y="-166.5" font-family="Helvetica,sans-Serif" font-size="10.00">string</text>
<text xml:space="preserve" text-anchor="start" x="63.38" y="-150.5" font-family="Helvetica,sans-Serif" font-size="10.00"> </text>
<text xml:space="preserve" text-anchor="start" x="63.38" y="-134.5" font-family="Helvetica,sans-Serif" font-size="10.00"> </text>
<polygon fill="#666666" stroke="#666666" points="48.88,-162 48.88,-162 80.88,-162 80.88,-162 48.88,-162"/>
<polygon fill="#666666" stroke="#666666" points="48.88,-146 48.88,-146 80.88,-146 80.88,-146 48.88,-146"/>
<polygon fill="none" stroke="#666666" points="48.88,-128 48.88,-180 80.88,-180 80.88,-128 48.88,-128"/>
</a>
</g>
</g>
<!-- Node2&#45;&gt;Node1 -->
<g id="edge1_Node000001_Node000002" class="edge">
<title>Node2&#45;&gt;Node1</title>
<g id="a_edge1_Node000001_Node000002"><a xlink:title=" ">
<path fill="none" stroke="#63b8ff" d="M64.88,-128.26C64.88,-114.4 64.88,-96.67 64.88,-80.4"/>
<polygon fill="none" stroke="#63b8ff" points="64.88,-80.67 60.88,-74.67 64.88,-68.67 68.88,-74.67 64.88,-80.67"/>
</a>
</g>
<text xml:space="preserve" text-anchor="middle" x="115.12" y="-100.5" font-family="Helvetica,sans-Serif" font-size="10.00" fill="grey"> +ownerPeerUsername</text>
<text xml:space="preserve" text-anchor="middle" x="115.12" y="-88.5" font-family="Helvetica,sans-Serif" font-size="10.00" fill="grey">+ownerUniqueId</text>
</g>
</g>
</svg>
