<?xml version="1.0" encoding="UTF-8" standalone="no"?>
<!DOCTYPE svg PUBLIC "-//W3C//DTD SVG 1.1//EN"
 "http://www.w3.org/Graphics/SVG/1.1/DTD/svg11.dtd">
<!-- Generated by graphviz version 14.0.2 (20251019.1705)
 -->
<!-- Title: include/network/MessageQueue.h Pages: 1 -->
<svg width="1206pt" height="252pt"
 viewBox="0.00 0.00 1206.00 252.00" xmlns="http://www.w3.org/2000/svg" xmlns:xlink="http://www.w3.org/1999/xlink">
<g id="graph0" class="graph" transform="scale(1 1) rotate(0) translate(4 248)">
<title>include/network/MessageQueue.h</title>
<!-- Node1 -->
<g id="Node000001" class="node">
<title>Node1</title>
<g id="a_Node000001"><a xlink:title=" ">
<polygon fill="#999999" stroke="#666666" points="732.38,-244 568.62,-244 568.62,-224 732.38,-224 732.38,-244"/>
<text xml:space="preserve" text-anchor="middle" x="650.5" y="-230.5" font-family="Helvetica,sans-Serif" font-size="10.00">include/network/MessageQueue.h</text>
</a>
</g>
</g>
<!-- Node2 -->
<g id="Node000002" class="node">
<title>Node2</title>
<g id="a_Node000002"><a xlink:href="../../d8/ddc/_network_manager_8h.html" target="_top" xlink:title=" ">
<polygon fill="white" stroke="#666666" points="735.38,-188 565.62,-188 565.62,-168 735.38,-168 735.38,-188"/>
<text xml:space="preserve" text-anchor="middle" x="650.5" y="-174.5" font-family="Helvetica,sans-Serif" font-size="10.00">include/network/NetworkManager.h</text>
</a>
</g>
</g>
<!-- Node1&#45;&gt;Node2 -->
<g id="edge1_Node000001_Node000002" class="edge">
<title>Node1&#45;&gt;Node2</title>
<g id="a_edge1_Node000001_Node000002"><a xlink:title=" ">
<path fill="none" stroke="#63b8ff" d="M650.5,-212.13C650.5,-203.9 650.5,-194.85 650.5,-188.3"/>
<polygon fill="#63b8ff" stroke="#63b8ff" points="647,-212.08 650.5,-222.08 654,-212.08 647,-212.08"/>
</a>
</g>
</g>
<!-- Node3 -->
<g id="Node000003" class="node">
<title>Node3</title>
<g id="a_Node000003"><a xlink:href="../../d9/d4e/_game_table_manager_8h.html" target="_top" xlink:title=" ">
<polygon fill="white" stroke="#666666" points="390,-132 245,-132 245,-112 390,-112 390,-132"/>
<text xml:space="preserve" text-anchor="middle" x="317.5" y="-118.5" font-family="Helvetica,sans-Serif" font-size="10.00">include/GameTableManager.h</text>
</a>
</g>
</g>
<!-- Node2&#45;&gt;Node3 -->
<g id="edge2_Node000002_Node000003" class="edge">
<title>Node2&#45;&gt;Node3</title>
<g id="a_edge2_Node000002_Node000003"><a xlink:title=" ">
<path fill="none" stroke="#63b8ff" d="M581.09,-165.74C520.32,-155.89 433.04,-141.74 375.82,-132.46"/>
<polygon fill="#63b8ff" stroke="#63b8ff" points="580.19,-169.14 590.62,-167.29 581.31,-162.23 580.19,-169.14"/>
</a>
</g>
</g>
<!-- Node8 -->
<g id="Node000008" class="node">
<title>Node8</title>
<g id="a_Node000008"><a xlink:href="../../da/d82/_network_manager_8cpp.html" target="_top" xlink:title=" ">
<polygon fill="white" stroke="#666666" points="534,-76 371,-76 371,-56 534,-56 534,-76"/>
<text xml:space="preserve" text-anchor="middle" x="452.5" y="-62.5" font-family="Helvetica,sans-Serif" font-size="10.00">src/network/NetworkManager.cpp</text>
</a>
</g>
</g>
<!-- Node2&#45;&gt;Node8 -->
<g id="edge10_Node000002_Node000008" class="edge">
<title>Node2&#45;&gt;Node8</title>
<g id="a_edge10_Node000002_Node000008"><a xlink:title=" ">
<path fill="none" stroke="#63b8ff" d="M554.15,-166.02C511.4,-159.01 467.76,-148.13 454.5,-132 441.45,-116.13 445.95,-89.97 449.63,-76.17"/>
<polygon fill="#63b8ff" stroke="#63b8ff" points="553.35,-169.44 563.77,-167.53 554.44,-162.53 553.35,-169.44"/>
</a>
</g>
</g>
<!-- Node9 -->
<g id="Node000009" class="node">
<title>Node9</title>
<g id="a_Node000009"><a xlink:href="../../de/d99/_board_manager_8cpp.html" target="_top" xlink:title=" ">
<polygon fill="white" stroke="#666666" points="577.62,-132 463.38,-132 463.38,-112 577.62,-112 577.62,-132"/>
<text xml:space="preserve" text-anchor="middle" x="520.5" y="-118.5" font-family="Helvetica,sans-Serif" font-size="10.00">src/BoardManager.cpp</text>
</a>
</g>
</g>
<!-- Node2&#45;&gt;Node9 -->
<g id="edge8_Node000002_Node000009" class="edge">
<title>Node2&#45;&gt;Node9</title>
<g id="a_edge8_Node000002_Node000009"><a xlink:title=" ">
<path fill="none" stroke="#63b8ff" d="M617.45,-163.27C594.26,-153.64 563.85,-141.01 543.32,-132.48"/>
<polygon fill="#63b8ff" stroke="#63b8ff" points="615.88,-166.41 626.46,-167.01 618.57,-159.94 615.88,-166.41"/>
</a>
</g>
</g>
<!-- Node10 -->
<g id="Node000010" class="node">
<title>Node10</title>
<g id="a_Node000010"><a xlink:href="../../d1/d1e/_chat_manager_8cpp.html" target="_top" xlink:title=" ">
<polygon fill="white" stroke="#666666" points="705.38,-132 595.62,-132 595.62,-112 705.38,-112 705.38,-132"/>
<text xml:space="preserve" text-anchor="middle" x="650.5" y="-118.5" font-family="Helvetica,sans-Serif" font-size="10.00">src/ChatManager.cpp</text>
</a>
</g>
</g>
<!-- Node2&#45;&gt;Node10 -->
<g id="edge9_Node000002_Node000010" class="edge">
<title>Node2&#45;&gt;Node10</title>
<g id="a_edge9_Node000002_Node000010"><a xlink:title=" ">
<path fill="none" stroke="#63b8ff" d="M650.5,-156.13C650.5,-147.9 650.5,-138.85 650.5,-132.3"/>
<polygon fill="#63b8ff" stroke="#63b8ff" points="647,-156.08 650.5,-166.08 654,-156.08 647,-156.08"/>
</a>
</g>
</g>
<!-- Node11 -->
<g id="Node000011" class="node">
<title>Node11</title>
<g id="a_Node000011"><a xlink:href="../../d8/d6b/_peer_link_8cpp.html" target="_top" xlink:title=" ">
<polygon fill="white" stroke="#666666" points="850,-132 723,-132 723,-112 850,-112 850,-132"/>
<text xml:space="preserve" text-anchor="middle" x="786.5" y="-118.5" font-family="Helvetica,sans-Serif" font-size="10.00">src/network/PeerLink.cpp</text>
</a>
</g>
</g>
<!-- Node2&#45;&gt;Node11 -->
<g id="edge11_Node000002_Node000011" class="edge">
<title>Node2&#45;&gt;Node11</title>
<g id="a_edge11_Node000002_Node000011"><a xlink:title=" ">
<path fill="none" stroke="#63b8ff" d="M684.75,-163.4C709.05,-153.75 741.05,-141.05 762.63,-132.48"/>
<polygon fill="#63b8ff" stroke="#63b8ff" points="683.6,-160.09 675.6,-167.04 686.18,-166.6 683.6,-160.09"/>
</a>
</g>
</g>
<!-- Node12 -->
<g id="Node000012" class="node">
<title>Node12</title>
<g id="a_Node000012"><a xlink:href="../../d3/d55/_signaling_client_8cpp.html" target="_top" xlink:title=" ">
<polygon fill="white" stroke="#666666" points="1022.5,-132 868.5,-132 868.5,-112 1022.5,-112 1022.5,-132"/>
<text xml:space="preserve" text-anchor="middle" x="945.5" y="-118.5" font-family="Helvetica,sans-Serif" font-size="10.00">src/network/SignalingClient.cpp</text>
</a>
</g>
</g>
<!-- Node2&#45;&gt;Node12 -->
<g id="edge12_Node000002_Node000012" class="edge">
<title>Node2&#45;&gt;Node12</title>
<g id="a_edge12_Node000002_Node000012"><a xlink:title=" ">
<path fill="none" stroke="#63b8ff" d="M713.33,-165.5C767.1,-155.66 843.57,-141.66 893.84,-132.46"/>
<polygon fill="#63b8ff" stroke="#63b8ff" points="712.92,-162.02 703.71,-167.26 714.18,-168.9 712.92,-162.02"/>
</a>
</g>
</g>
<!-- Node13 -->
<g id="Node000013" class="node">
<title>Node13</title>
<g id="a_Node000013"><a xlink:href="../../d1/ddf/_signaling_server_8cpp.html" target="_top" xlink:title=" ">
<polygon fill="white" stroke="#666666" points="1198,-132 1041,-132 1041,-112 1198,-112 1198,-132"/>
<text xml:space="preserve" text-anchor="middle" x="1119.5" y="-118.5" font-family="Helvetica,sans-Serif" font-size="10.00">src/network/SignalingServer.cpp</text>
</a>
</g>
</g>
<!-- Node2&#45;&gt;Node13 -->
<g id="edge13_Node000002_Node000013" class="edge">
<title>Node2&#45;&gt;Node13</title>
<g id="a_edge13_Node000002_Node000013"><a xlink:title=" ">
<path fill="none" stroke="#63b8ff" d="M744.18,-166.21C831.03,-156.21 958.81,-141.5 1040.59,-132.09"/>
<polygon fill="#63b8ff" stroke="#63b8ff" points="744.04,-162.71 734.5,-167.33 744.84,-169.66 744.04,-162.71"/>
</a>
</g>
</g>
<!-- Node4 -->
<g id="Node000004" class="node">
<title>Node4</title>
<g id="a_Node000004"><a xlink:href="../../d0/da4/_application_handler_8h.html" target="_top" xlink:title=" ">
<polygon fill="white" stroke="#666666" points="196.38,-76 56.62,-76 56.62,-56 196.38,-56 196.38,-76"/>
<text xml:space="preserve" text-anchor="middle" x="126.5" y="-62.5" font-family="Helvetica,sans-Serif" font-size="10.00">include/ApplicationHandler.h</text>
</a>
</g>
</g>
<!-- Node3&#45;&gt;Node4 -->
<g id="edge3_Node000003_Node000004" class="edge">
<title>Node3&#45;&gt;Node4</title>
<g id="a_edge3_Node000003_Node000004"><a xlink:title=" ">
<path fill="none" stroke="#63b8ff" d="M273.5,-108.56C238.94,-98.79 191.56,-85.39 160.03,-76.48"/>
<polygon fill="#63b8ff" stroke="#63b8ff" points="272.2,-111.83 282.77,-111.18 274.1,-105.09 272.2,-111.83"/>
</a>
</g>
</g>
<!-- Node7 -->
<g id="Node000007" class="node">
<title>Node7</title>
<g id="a_Node000007"><a xlink:href="../../d1/d06/_game_table_manager_8cpp.html" target="_top" xlink:title=" ">
<polygon fill="white" stroke="#666666" points="352.62,-76 214.38,-76 214.38,-56 352.62,-56 352.62,-76"/>
<text xml:space="preserve" text-anchor="middle" x="283.5" y="-62.5" font-family="Helvetica,sans-Serif" font-size="10.00">src/GameTableManager.cpp</text>
</a>
</g>
</g>
<!-- Node3&#45;&gt;Node7 -->
<g id="edge6_Node000003_Node000007" class="edge">
<title>Node3&#45;&gt;Node7</title>
<g id="a_edge6_Node000003_Node000007"><a xlink:title=" ">
<path fill="none" stroke="#63b8ff" d="M305.45,-101.87C299.99,-93.19 293.77,-83.32 289.35,-76.3"/>
<polygon fill="#63b8ff" stroke="#63b8ff" points="302.48,-103.72 310.77,-110.31 308.4,-99.99 302.48,-103.72"/>
</a>
</g>
</g>
<!-- Node3&#45;&gt;Node8 -->
<g id="edge7_Node000003_Node000008" class="edge">
<title>Node3&#45;&gt;Node8</title>
<g id="a_edge7_Node000003_Node000008"><a xlink:title=" ">
<path fill="none" stroke="#63b8ff" d="M351.5,-107.4C375.62,-97.75 407.39,-85.05 428.8,-76.48"/>
<polygon fill="#63b8ff" stroke="#63b8ff" points="350.41,-104.07 342.42,-111.03 353.01,-110.57 350.41,-104.07"/>
</a>
</g>
</g>
<!-- Node5 -->
<g id="Node000005" class="node">
<title>Node5</title>
<g id="a_Node000005"><a xlink:href="../../df/d43/_application_handler_8cpp.html" target="_top" xlink:title=" ">
<polygon fill="white" stroke="#666666" points="133,-20 0,-20 0,0 133,0 133,-20"/>
<text xml:space="preserve" text-anchor="middle" x="66.5" y="-6.5" font-family="Helvetica,sans-Serif" font-size="10.00">src/ApplicationHandler.cpp</text>
</a>
</g>
</g>
<!-- Node4&#45;&gt;Node5 -->
<g id="edge4_Node000004_Node000005" class="edge">
<title>Node4&#45;&gt;Node5</title>
<g id="a_edge4_Node000004_Node000005"><a xlink:title=" ">
<path fill="none" stroke="#63b8ff" d="M107.75,-48.13C97.55,-38.94 85.31,-27.93 76.83,-20.3"/>
<polygon fill="#63b8ff" stroke="#63b8ff" points="105.15,-50.49 114.92,-54.58 109.83,-45.29 105.15,-50.49"/>
</a>
</g>
</g>
<!-- Node6 -->
<g id="Node000006" class="node">
<title>Node6</title>
<g id="a_Node000006"><a xlink:href="../../df/d0a/main_8cpp.html" target="_top" xlink:title=" ">
<polygon fill="white" stroke="#666666" points="223.62,-20 151.38,-20 151.38,0 223.62,0 223.62,-20"/>
<text xml:space="preserve" text-anchor="middle" x="187.5" y="-6.5" font-family="Helvetica,sans-Serif" font-size="10.00">src/main.cpp</text>
</a>
</g>
</g>
<!-- Node4&#45;&gt;Node6 -->
<g id="edge5_Node000004_Node000006" class="edge">
<title>Node4&#45;&gt;Node6</title>
<g id="a_edge5_Node000004_Node000006"><a xlink:title=" ">
<path fill="none" stroke="#63b8ff" d="M145.56,-48.13C155.94,-38.94 168.37,-27.93 177,-20.3"/>
<polygon fill="#63b8ff" stroke="#63b8ff" points="143.43,-45.34 138.26,-54.59 148.07,-50.58 143.43,-45.34"/>
</a>
</g>
</g>
</g>
</svg>
