<?xml version="1.0" encoding="UTF-8" standalone="no"?>
<!DOCTYPE svg PUBLIC "-//W3C//DTD SVG 1.1//EN"
 "http://www.w3.org/Graphics/SVG/1.1/DTD/svg11.dtd">
<!-- Generated by graphviz version 14.0.2 (20251019.1705)
 -->
<!-- Title: include/DirectoryWindow.h Pages: 1 -->
<svg width="542pt" height="252pt"
 viewBox="0.00 0.00 542.00 252.00" xmlns="http://www.w3.org/2000/svg" xmlns:xlink="http://www.w3.org/1999/xlink">
<g id="graph0" class="graph" transform="scale(1 1) rotate(0) translate(4 248)">
<title>include/DirectoryWindow.h</title>
<!-- Node1 -->
<g id="Node000001" class="node">
<title>Node1</title>
<g id="a_Node000001"><a xlink:title=" ">
<polygon fill="#999999" stroke="#666666" points="270.62,-244 138.38,-244 138.38,-224 270.62,-224 270.62,-244"/>
<text xml:space="preserve" text-anchor="middle" x="204.5" y="-230.5" font-family="Helvetica,sans-Serif" font-size="10.00">include/DirectoryWindow.h</text>
</a>
</g>
</g>
<!-- Node2 -->
<g id="Node000002" class="node">
<title>Node2</title>
<g id="a_Node000002"><a xlink:href="../../d0/da4/_application_handler_8h.html" target="_top" xlink:title=" ">
<polygon fill="white" stroke="#666666" points="196.38,-76 56.62,-76 56.62,-56 196.38,-56 196.38,-76"/>
<text xml:space="preserve" text-anchor="middle" x="126.5" y="-62.5" font-family="Helvetica,sans-Serif" font-size="10.00">include/ApplicationHandler.h</text>
</a>
</g>
</g>
<!-- Node1&#45;&gt;Node2 -->
<g id="edge1_Node000001_Node000002" class="edge">
<title>Node1&#45;&gt;Node2</title>
<g id="a_edge1_Node000001_Node000002"><a xlink:title=" ">
<path fill="none" stroke="#63b8ff" d="M195.31,-213.44C178.45,-177.57 143.2,-102.53 130.87,-76.3"/>
<polygon fill="#63b8ff" stroke="#63b8ff" points="192.02,-214.67 199.44,-222.23 198.35,-211.69 192.02,-214.67"/>
</a>
</g>
</g>
<!-- Node5 -->
<g id="Node000005" class="node">
<title>Node5</title>
<g id="a_Node000005"><a xlink:href="../../df/d3c/_board_manager_8h.html" target="_top" xlink:title=" ">
<polygon fill="white" stroke="#666666" points="394,-188 273,-188 273,-168 394,-168 394,-188"/>
<text xml:space="preserve" text-anchor="middle" x="333.5" y="-174.5" font-family="Helvetica,sans-Serif" font-size="10.00">include/BoardManager.h</text>
</a>
</g>
</g>
<!-- Node1&#45;&gt;Node5 -->
<g id="edge4_Node000001_Node000005" class="edge">
<title>Node1&#45;&gt;Node5</title>
<g id="a_edge4_Node000001_Node000005"><a xlink:title=" ">
<path fill="none" stroke="#63b8ff" d="M237.3,-219.27C260.31,-209.64 290.48,-197.01 310.85,-188.48"/>
<polygon fill="#63b8ff" stroke="#63b8ff" points="236.24,-215.92 228.37,-223.01 238.94,-222.38 236.24,-215.92"/>
</a>
</g>
</g>
<!-- Node3 -->
<g id="Node000003" class="node">
<title>Node3</title>
<g id="a_Node000003"><a xlink:href="../../df/d43/_application_handler_8cpp.html" target="_top" xlink:title=" ">
<polygon fill="white" stroke="#666666" points="133,-20 0,-20 0,0 133,0 133,-20"/>
<text xml:space="preserve" text-anchor="middle" x="66.5" y="-6.5" font-family="Helvetica,sans-Serif" font-size="10.00">src/ApplicationHandler.cpp</text>
</a>
</g>
</g>
<!-- Node2&#45;&gt;Node3 -->
<g id="edge2_Node000002_Node000003" class="edge">
<title>Node2&#45;&gt;Node3</title>
<g id="a_edge2_Node000002_Node000003"><a xlink:title=" ">
<path fill="none" stroke="#63b8ff" d="M107.75,-48.13C97.55,-38.94 85.31,-27.93 76.83,-20.3"/>
<polygon fill="#63b8ff" stroke="#63b8ff" points="105.15,-50.49 114.92,-54.58 109.83,-45.29 105.15,-50.49"/>
</a>
</g>
</g>
<!-- Node4 -->
<g id="Node000004" class="node">
<title>Node4</title>
<g id="a_Node000004"><a xlink:href="../../df/d0a/main_8cpp.html" target="_top" xlink:title=" ">
<polygon fill="white" stroke="#666666" points="223.62,-20 151.38,-20 151.38,0 223.62,0 223.62,-20"/>
<text xml:space="preserve" text-anchor="middle" x="187.5" y="-6.5" font-family="Helvetica,sans-Serif" font-size="10.00">src/main.cpp</text>
</a>
</g>
</g>
<!-- Node2&#45;&gt;Node4 -->
<g id="edge3_Node000002_Node000004" class="edge">
<title>Node2&#45;&gt;Node4</title>
<g id="a_edge3_Node000002_Node000004"><a xlink:title=" ">
<path fill="none" stroke="#63b8ff" d="M145.56,-48.13C155.94,-38.94 168.37,-27.93 177,-20.3"/>
<polygon fill="#63b8ff" stroke="#63b8ff" points="143.43,-45.34 138.26,-54.59 148.07,-50.58 143.43,-45.34"/>
</a>
</g>
</g>
<!-- Node6 -->
<g id="Node000006" class="node">
<title>Node6</title>
<g id="a_Node000006"><a xlink:href="../../d9/d4e/_game_table_manager_8h.html" target="_top" xlink:title=" ">
<polygon fill="white" stroke="#666666" points="356,-132 211,-132 211,-112 356,-112 356,-132"/>
<text xml:space="preserve" text-anchor="middle" x="283.5" y="-118.5" font-family="Helvetica,sans-Serif" font-size="10.00">include/GameTableManager.h</text>
</a>
</g>
</g>
<!-- Node5&#45;&gt;Node6 -->
<g id="edge5_Node000005_Node000006" class="edge">
<title>Node5&#45;&gt;Node6</title>
<g id="a_edge5_Node000005_Node000006"><a xlink:title=" ">
<path fill="none" stroke="#63b8ff" d="M317.1,-159.29C308.76,-150.28 298.96,-139.7 292.11,-132.3"/>
<polygon fill="#63b8ff" stroke="#63b8ff" points="314.4,-161.52 323.76,-166.48 319.54,-156.77 314.4,-161.52"/>
</a>
</g>
</g>
<!-- Node8 -->
<g id="Node000008" class="node">
<title>Node8</title>
<g id="a_Node000008"><a xlink:href="../../da/d82/_network_manager_8cpp.html" target="_top" xlink:title=" ">
<polygon fill="white" stroke="#666666" points="534,-76 371,-76 371,-56 534,-56 534,-76"/>
<text xml:space="preserve" text-anchor="middle" x="452.5" y="-62.5" font-family="Helvetica,sans-Serif" font-size="10.00">src/network/NetworkManager.cpp</text>
</a>
</g>
</g>
<!-- Node5&#45;&gt;Node8 -->
<g id="edge10_Node000005_Node000008" class="edge">
<title>Node5&#45;&gt;Node8</title>
<g id="a_edge10_Node000005_Node000008"><a xlink:title=" ">
<path fill="none" stroke="#63b8ff" d="M351.79,-159.97C365.9,-146.84 385.91,-128.24 403.5,-112 416.91,-99.62 432.43,-85.38 442.35,-76.29"/>
<polygon fill="#63b8ff" stroke="#63b8ff" points="349.5,-157.32 344.56,-166.69 354.27,-162.44 349.5,-157.32"/>
</a>
</g>
</g>
<!-- Node9 -->
<g id="Node000009" class="node">
<title>Node9</title>
<g id="a_Node000009"><a xlink:href="../../de/d99/_board_manager_8cpp.html" target="_top" xlink:title=" ">
<polygon fill="white" stroke="#666666" points="526.62,-132 412.38,-132 412.38,-112 526.62,-112 526.62,-132"/>
<text xml:space="preserve" text-anchor="middle" x="469.5" y="-118.5" font-family="Helvetica,sans-Serif" font-size="10.00">src/BoardManager.cpp</text>
</a>
</g>
</g>
<!-- Node5&#45;&gt;Node9 -->
<g id="edge9_Node000005_Node000009" class="edge">
<title>Node5&#45;&gt;Node9</title>
<g id="a_edge9_Node000005_Node000009"><a xlink:title=" ">
<path fill="none" stroke="#63b8ff" d="M367.75,-163.4C392.05,-153.75 424.05,-141.05 445.63,-132.48"/>
<polygon fill="#63b8ff" stroke="#63b8ff" points="366.6,-160.09 358.6,-167.04 369.18,-166.6 366.6,-160.09"/>
</a>
</g>
</g>
<!-- Node6&#45;&gt;Node2 -->
<g id="edge6_Node000006_Node000002" class="edge">
<title>Node6&#45;&gt;Node2</title>
<g id="a_edge6_Node000006_Node000002"><a xlink:title=" ">
<path fill="none" stroke="#63b8ff" d="M245.47,-107.92C217.25,-98.21 179.42,-85.2 154.06,-76.48"/>
<polygon fill="#63b8ff" stroke="#63b8ff" points="244.13,-111.16 254.72,-111.1 246.4,-104.54 244.13,-111.16"/>
</a>
</g>
</g>
<!-- Node7 -->
<g id="Node000007" class="node">
<title>Node7</title>
<g id="a_Node000007"><a xlink:href="../../d1/d06/_game_table_manager_8cpp.html" target="_top" xlink:title=" ">
<polygon fill="white" stroke="#666666" points="352.62,-76 214.38,-76 214.38,-56 352.62,-56 352.62,-76"/>
<text xml:space="preserve" text-anchor="middle" x="283.5" y="-62.5" font-family="Helvetica,sans-Serif" font-size="10.00">src/GameTableManager.cpp</text>
</a>
</g>
</g>
<!-- Node6&#45;&gt;Node7 -->
<g id="edge7_Node000006_Node000007" class="edge">
<title>Node6&#45;&gt;Node7</title>
<g id="a_edge7_Node000006_Node000007"><a xlink:title=" ">
<path fill="none" stroke="#63b8ff" d="M283.5,-100.13C283.5,-91.9 283.5,-82.85 283.5,-76.3"/>
<polygon fill="#63b8ff" stroke="#63b8ff" points="280,-100.08 283.5,-110.08 287,-100.08 280,-100.08"/>
</a>
</g>
</g>
<!-- Node6&#45;&gt;Node8 -->
<g id="edge8_Node000006_Node000008" class="edge">
<title>Node6&#45;&gt;Node8</title>
<g id="a_edge8_Node000006_Node000008"><a xlink:title=" ">
<path fill="none" stroke="#63b8ff" d="M323.63,-108.18C354.09,-98.44 395.3,-85.28 422.83,-76.48"/>
<polygon fill="#63b8ff" stroke="#63b8ff" points="322.84,-104.76 314.38,-111.13 324.97,-111.42 322.84,-104.76"/>
</a>
</g>
</g>
</g>
</svg>
