<?xml version="1.0" encoding="UTF-8" standalone="no"?>
<!DOCTYPE svg PUBLIC "-//W3C//DTD SVG 1.1//EN"
 "http://www.w3.org/Graphics/SVG/1.1/DTD/svg11.dtd">
<!-- Generated by graphviz version 14.0.2 (20251019.1705)
 -->
<!-- Title: include/network/PeerLink.h Pages: 1 -->
<!--zoomable 252 -->

<svg id="main" version="1.1" xmlns="http://www.w3.org/2000/svg" xmlns:xlink="http://www.w3.org/1999/xlink" xml:space="preserve" onload="init(evt)">
<style type="text/css"><![CDATA[
.node, .edge {opacity: 0.7;}
.node.selected, .edge.selected {opacity: 1;}
.edge:hover path { stroke: red; }
.edge:hover polygon { stroke: red; fill: red; }
]]></style>

<defs>
  <circle id="rim" cx="0" cy="0" r="7"/>
  <circle id="rim2" cx="0" cy="0" r="3.5"/>
  <g id="zoomPlus">
    <use xlink:href="#rim" fill="#404040"><set attributeName="fill" to="#808080" begin="zoomplus.mouseover" end="zoomplus.mouseout"/></use>
    <path d="M-4,0h8M0,-4v8" fill="none" stroke="white" stroke-width="1.5" pointer-events="none"/>
  </g>
  <g id="zoomMin">
    <use xlink:href="#rim" fill="#404040"><set attributeName="fill" to="#808080" begin="zoomminus.mouseover" end="zoomminus.mouseout"/></use>
    <path d="M-4,0h8" fill="none" stroke="white" stroke-width="1.5" pointer-events="none"/>
  </g>
  <g id="arrowUp" transform="translate(30 24)">
    <use xlink:href="#rim"/>
    <path pointer-events="none" fill="none" stroke="white" stroke-width="1.5" d="M0,-3.0v7 M-2.5,-0.5L0,-3.0L2.5,-0.5"/>
  </g>
  <g id="arrowRight" transform="rotate(90) translate(36 -43)">
    <use xlink:href="#rim"/>
    <path pointer-events="none" fill="none" stroke="white" stroke-width="1.5" d="M0,-3.0v7 M-2.5,-0.5L0,-3.0L2.5,-0.5"/>
  </g>
  <g id="arrowDown" transform="rotate(180) translate(-30 -48)">
    <use xlink:href="#rim"/>
    <path pointer-events="none" fill="none" stroke="white" stroke-width="1.5" d="M0,-3.0v7 M-2.5,-0.5L0,-3.0L2.5,-0.5"/>
  </g>
  <g id="arrowLeft" transform="rotate(270) translate(-36 17)">
    <use xlink:href="#rim"/>
    <path pointer-events="none" fill="none" stroke="white" stroke-width="1.5" d="M0,-3.0v7 M-2.5,-0.5L0,-3.0L2.5,-0.5"/>
  </g>
  <g id="resetDef">
    <use xlink:href="#rim2" fill="#404040"><set attributeName="fill" to="#808080" begin="reset.mouseover" end="reset.mouseout"/></use>
  </g>
</defs>
<script type="application/ecmascript">
var viewWidth = 923;
var viewHeight = 252;
var sectionId = 'dynsection-1';
</script>
<script type="application/ecmascript" xlink:href="../../svg.min.js"/>
<svg id="graph" class="graph">
<g id="viewport">
<title>include/network/PeerLink.h</title>
<!-- Node1 -->
<g id="Node000001" class="node">
<title>Node1</title>
<g id="a_Node000001"><a xlink:title=" ">
<polygon fill="#999999" stroke="#666666" points="782.48,-244 648.73,-244 648.73,-224 782.48,-224 782.48,-244"/>
<text xml:space="preserve" text-anchor="middle" x="715.6" y="-230.5" font-family="Helvetica,sans-Serif" font-size="10.00">include/network/PeerLink.h</text>
</a>
</g>
</g>
<!-- Node2 -->
<g id="Node000002" class="node">
<title>Node2</title>
<g id="a_Node000002"><a xlink:href="../../d8/ddc/_network_manager_8h.html" target="_top" xlink:title=" ">
<polygon fill="white" stroke="#666666" points="571.48,-188 401.73,-188 401.73,-168 571.48,-168 571.48,-188"/>
<text xml:space="preserve" text-anchor="middle" x="486.6" y="-174.5" font-family="Helvetica,sans-Serif" font-size="10.00">include/network/NetworkManager.h</text>
</a>
</g>
</g>
<!-- Node1&#45;&gt;Node2 -->
<g id="edge1_Node000001_Node000002" class="edge">
<title>Node1&#45;&gt;Node2</title>
<g id="a_edge1_Node000001_Node000002"><a xlink:title=" ">
<path fill="none" stroke="#63b8ff" d="M664.45,-220.94C622.86,-211.13 565,-197.49 526.71,-188.46"/>
<polygon fill="#63b8ff" stroke="#63b8ff" points="663.44,-224.3 673.98,-223.18 665.05,-217.48 663.44,-224.3"/>
</a>
</g>
</g>
<!-- Node10 -->
<g id="Node000010" class="node">
<title>Node10</title>
<g id="a_Node000010"><a xlink:href="../../d1/d1e/_chat_manager_8cpp.html" target="_top" xlink:title=" ">
<polygon fill="white" stroke="#666666" points="770.48,-132 660.73,-132 660.73,-112 770.48,-112 770.48,-132"/>
<text xml:space="preserve" text-anchor="middle" x="715.6" y="-118.5" font-family="Helvetica,sans-Serif" font-size="10.00">src/ChatManager.cpp</text>
</a>
</g>
</g>
<!-- Node1&#45;&gt;Node10 -->
<g id="edge14_Node000001_Node000010" class="edge">
<title>Node1&#45;&gt;Node10</title>
<g id="a_edge14_Node000001_Node000010"><a xlink:title=" ">
<path fill="none" stroke="#63b8ff" d="M715.6,-212.31C715.6,-188.36 715.6,-149.95 715.6,-132.35"/>
<polygon fill="#63b8ff" stroke="#63b8ff" points="712.1,-212.11 715.6,-222.11 719.1,-212.11 712.1,-212.11"/>
</a>
</g>
</g>
<!-- Node11 -->
<g id="Node000011" class="node">
<title>Node11</title>
<g id="a_Node000011"><a xlink:href="../../d8/d6b/_peer_link_8cpp.html" target="_top" xlink:title=" ">
<polygon fill="white" stroke="#666666" points="915.1,-132 788.1,-132 788.1,-112 915.1,-112 915.1,-132"/>
<text xml:space="preserve" text-anchor="middle" x="851.6" y="-118.5" font-family="Helvetica,sans-Serif" font-size="10.00">src/network/PeerLink.cpp</text>
</a>
</g>
</g>
<!-- Node1&#45;&gt;Node11 -->
<g id="edge15_Node000001_Node000011" class="edge">
<title>Node1&#45;&gt;Node11</title>
<g id="a_edge15_Node000001_Node000011"><a xlink:title=" ">
<path fill="none" stroke="#63b8ff" d="M736.06,-216.45C765.01,-193.04 816.98,-151.01 840.04,-132.35"/>
<polygon fill="#63b8ff" stroke="#63b8ff" points="733.95,-213.66 728.38,-222.67 738.35,-219.1 733.95,-213.66"/>
</a>
</g>
</g>
<!-- Node3 -->
<g id="Node000003" class="node">
<title>Node3</title>
<g id="a_Node000003"><a xlink:href="../../d9/d4e/_game_table_manager_8h.html" target="_top" xlink:title=" ">
<polygon fill="white" stroke="#666666" points="643.1,-132 498.1,-132 498.1,-112 643.1,-112 643.1,-132"/>
<text xml:space="preserve" text-anchor="middle" x="570.6" y="-118.5" font-family="Helvetica,sans-Serif" font-size="10.00">include/GameTableManager.h</text>
</a>
</g>
</g>
<!-- Node2&#45;&gt;Node3 -->
<g id="edge2_Node000002_Node000003" class="edge">
<title>Node2&#45;&gt;Node3</title>
<g id="a_edge2_Node000002_Node000003"><a xlink:title=" ">
<path fill="none" stroke="#63b8ff" d="M510.65,-161.54C525.23,-152.17 543.37,-140.51 555.86,-132.48"/>
<polygon fill="#63b8ff" stroke="#63b8ff" points="509.03,-158.42 502.51,-166.78 512.81,-164.31 509.03,-158.42"/>
</a>
</g>
</g>
<!-- Node8 -->
<g id="Node000008" class="node">
<title>Node8</title>
<g id="a_Node000008"><a xlink:href="../../da/d82/_network_manager_8cpp.html" target="_top" xlink:title=" ">
<polygon fill="white" stroke="#666666" points="277.1,-76 114.1,-76 114.1,-56 277.1,-56 277.1,-76"/>
<text xml:space="preserve" text-anchor="middle" x="195.6" y="-62.5" font-family="Helvetica,sans-Serif" font-size="10.00">src/network/NetworkManager.cpp</text>
</a>
</g>
</g>
<!-- Node2&#45;&gt;Node8 -->
<g id="edge10_Node000002_Node000008" class="edge">
<title>Node2&#45;&gt;Node8</title>
<g id="a_edge10_Node000002_Node000008"><a xlink:title=" ">
<path fill="none" stroke="#63b8ff" d="M389.97,-174.71C257.96,-170.57 34.66,-159.53 9.6,-132 -25.85,-93.04 48.66,-77.43 113.66,-71.18"/>
<polygon fill="#63b8ff" stroke="#63b8ff" points="389.66,-178.2 399.76,-175.01 389.87,-171.2 389.66,-178.2"/>
</a>
</g>
</g>
<!-- Node9 -->
<g id="Node000009" class="node">
<title>Node9</title>
<g id="a_Node000009"><a xlink:href="../../de/d99/_board_manager_8cpp.html" target="_top" xlink:title=" ">
<polygon fill="white" stroke="#666666" points="132.73,-132 18.48,-132 18.48,-112 132.73,-112 132.73,-132"/>
<text xml:space="preserve" text-anchor="middle" x="75.6" y="-118.5" font-family="Helvetica,sans-Serif" font-size="10.00">src/BoardManager.cpp</text>
</a>
</g>
</g>
<!-- Node2&#45;&gt;Node9 -->
<g id="edge8_Node000002_Node000009" class="edge">
<title>Node2&#45;&gt;Node9</title>
<g id="a_edge8_Node000002_Node000009"><a xlink:title=" ">
<path fill="none" stroke="#63b8ff" d="M401.53,-166.04C331.69,-157.02 230.22,-143.82 141.6,-132 138.85,-131.63 136.04,-131.26 133.19,-130.87"/>
<polygon fill="#63b8ff" stroke="#63b8ff" points="401.03,-169.51 411.39,-167.32 401.92,-162.57 401.03,-169.51"/>
</a>
</g>
</g>
<!-- Node2&#45;&gt;Node10 -->
<g id="edge9_Node000002_Node000010" class="edge">
<title>Node2&#45;&gt;Node10</title>
<g id="a_edge9_Node000002_Node000010"><a xlink:title=" ">
<path fill="none" stroke="#63b8ff" d="M537.76,-164.94C579.35,-155.13 637.21,-141.49 675.5,-132.46"/>
<polygon fill="#63b8ff" stroke="#63b8ff" points="537.16,-161.48 528.23,-167.18 538.76,-168.3 537.16,-161.48"/>
</a>
</g>
</g>
<!-- Node2&#45;&gt;Node11 -->
<g id="edge11_Node000002_Node000011" class="edge">
<title>Node2&#45;&gt;Node11</title>
<g id="a_edge11_Node000002_Node000011"><a xlink:title=" ">
<path fill="none" stroke="#63b8ff" d="M561.86,-165.87C628.49,-156.01 724.7,-141.77 787.68,-132.46"/>
<polygon fill="#63b8ff" stroke="#63b8ff" points="561.48,-162.38 552.1,-167.31 562.5,-169.31 561.48,-162.38"/>
</a>
</g>
</g>
<!-- Node12 -->
<g id="Node000012" class="node">
<title>Node12</title>
<g id="a_Node000012"><a xlink:href="../../d3/d55/_signaling_client_8cpp.html" target="_top" xlink:title=" ">
<polygon fill="white" stroke="#666666" points="304.6,-132 150.6,-132 150.6,-112 304.6,-112 304.6,-132"/>
<text xml:space="preserve" text-anchor="middle" x="227.6" y="-118.5" font-family="Helvetica,sans-Serif" font-size="10.00">src/network/SignalingClient.cpp</text>
</a>
</g>
</g>
<!-- Node2&#45;&gt;Node12 -->
<g id="edge12_Node000002_Node000012" class="edge">
<title>Node2&#45;&gt;Node12</title>
<g id="a_edge12_Node000002_Node000012"><a xlink:title=" ">
<path fill="none" stroke="#63b8ff" d="M429.95,-165.19C382.83,-155.36 316.64,-141.56 272.96,-132.46"/>
<polygon fill="#63b8ff" stroke="#63b8ff" points="429.21,-168.61 439.71,-167.22 430.64,-161.76 429.21,-168.61"/>
</a>
</g>
</g>
<!-- Node13 -->
<g id="Node000013" class="node">
<title>Node13</title>
<g id="a_Node000013"><a xlink:href="../../d1/ddf/_signaling_server_8cpp.html" target="_top" xlink:title=" ">
<polygon fill="white" stroke="#666666" points="480.1,-132 323.1,-132 323.1,-112 480.1,-112 480.1,-132"/>
<text xml:space="preserve" text-anchor="middle" x="401.6" y="-118.5" font-family="Helvetica,sans-Serif" font-size="10.00">src/network/SignalingServer.cpp</text>
</a>
</g>
</g>
<!-- Node2&#45;&gt;Node13 -->
<g id="edge13_Node000002_Node000013" class="edge">
<title>Node2&#45;&gt;Node13</title>
<g id="a_edge13_Node000002_Node000013"><a xlink:title=" ">
<path fill="none" stroke="#63b8ff" d="M462.27,-161.54C447.52,-152.17 429.16,-140.51 416.53,-132.48"/>
<polygon fill="#63b8ff" stroke="#63b8ff" points="460.2,-164.37 470.52,-166.78 463.96,-158.47 460.2,-164.37"/>
</a>
</g>
</g>
<!-- Node4 -->
<g id="Node000004" class="node">
<title>Node4</title>
<g id="a_Node000004"><a xlink:href="../../d0/da4/_application_handler_8h.html" target="_top" xlink:title=" ">
<polygon fill="white" stroke="#666666" points="718.48,-76 578.73,-76 578.73,-56 718.48,-56 718.48,-76"/>
<text xml:space="preserve" text-anchor="middle" x="648.6" y="-62.5" font-family="Helvetica,sans-Serif" font-size="10.00">include/ApplicationHandler.h</text>
</a>
</g>
</g>
<!-- Node3&#45;&gt;Node4 -->
<g id="edge3_Node000003_Node000004" class="edge">
<title>Node3&#45;&gt;Node4</title>
<g id="a_edge3_Node000003_Node000004"><a xlink:title=" ">
<path fill="none" stroke="#63b8ff" d="M593.32,-105.27C606.8,-95.94 623.43,-84.43 634.91,-76.48"/>
<polygon fill="#63b8ff" stroke="#63b8ff" points="591.66,-102.16 585.43,-110.73 595.65,-107.92 591.66,-102.16"/>
</a>
</g>
</g>
<!-- Node7 -->
<g id="Node000007" class="node">
<title>Node7</title>
<g id="a_Node000007"><a xlink:href="../../d1/d06/_game_table_manager_8cpp.html" target="_top" xlink:title=" ">
<polygon fill="white" stroke="#666666" points="560.73,-76 422.48,-76 422.48,-56 560.73,-56 560.73,-76"/>
<text xml:space="preserve" text-anchor="middle" x="491.6" y="-62.5" font-family="Helvetica,sans-Serif" font-size="10.00">src/GameTableManager.cpp</text>
</a>
</g>
</g>
<!-- Node3&#45;&gt;Node7 -->
<g id="edge6_Node000003_Node000007" class="edge">
<title>Node3&#45;&gt;Node7</title>
<g id="a_edge6_Node000003_Node000007"><a xlink:title=" ">
<path fill="none" stroke="#63b8ff" d="M547.59,-105.27C533.95,-95.94 517.1,-84.43 505.47,-76.48"/>
<polygon fill="#63b8ff" stroke="#63b8ff" points="545.36,-107.99 555.59,-110.74 549.31,-102.21 545.36,-107.99"/>
</a>
</g>
</g>
<!-- Node3&#45;&gt;Node8 -->
<g id="edge7_Node000003_Node000008" class="edge">
<title>Node3&#45;&gt;Node8</title>
<g id="a_edge7_Node000003_Node000008"><a xlink:title=" ">
<path fill="none" stroke="#63b8ff" d="M493.71,-109.93C425.23,-100.07 326.12,-85.79 261.28,-76.46"/>
<polygon fill="#63b8ff" stroke="#63b8ff" points="492.96,-113.36 503.36,-111.32 493.96,-106.43 492.96,-113.36"/>
</a>
</g>
</g>
<!-- Node5 -->
<g id="Node000005" class="node">
<title>Node5</title>
<g id="a_Node000005"><a xlink:href="../../df/d43/_application_handler_8cpp.html" target="_top" xlink:title=" ">
<polygon fill="white" stroke="#666666" points="654.1,-20 521.1,-20 521.1,0 654.1,0 654.1,-20"/>
<text xml:space="preserve" text-anchor="middle" x="587.6" y="-6.5" font-family="Helvetica,sans-Serif" font-size="10.00">src/ApplicationHandler.cpp</text>
</a>
</g>
</g>
<!-- Node4&#45;&gt;Node5 -->
<g id="edge4_Node000004_Node000005" class="edge">
<title>Node4&#45;&gt;Node5</title>
<g id="a_edge4_Node000004_Node000005"><a xlink:title=" ">
<path fill="none" stroke="#63b8ff" d="M629.54,-48.13C619.17,-38.94 606.73,-27.93 598.11,-20.3"/>
<polygon fill="#63b8ff" stroke="#63b8ff" points="627.04,-50.58 636.85,-54.59 631.68,-45.34 627.04,-50.58"/>
</a>
</g>
</g>
<!-- Node6 -->
<g id="Node000006" class="node">
<title>Node6</title>
<g id="a_Node000006"><a xlink:href="../../df/d0a/main_8cpp.html" target="_top" xlink:title=" ">
<polygon fill="white" stroke="#666666" points="744.73,-20 672.48,-20 672.48,0 744.73,0 744.73,-20"/>
<text xml:space="preserve" text-anchor="middle" x="708.6" y="-6.5" font-family="Helvetica,sans-Serif" font-size="10.00">src/main.cpp</text>
</a>
</g>
</g>
<!-- Node4&#45;&gt;Node6 -->
<g id="edge5_Node000004_Node000006" class="edge">
<title>Node4&#45;&gt;Node6</title>
<g id="a_edge5_Node000004_Node000006"><a xlink:title=" ">
<path fill="none" stroke="#63b8ff" d="M667.35,-48.13C677.56,-38.94 689.79,-27.93 698.27,-20.3"/>
<polygon fill="#63b8ff" stroke="#63b8ff" points="665.27,-45.29 660.18,-54.58 669.95,-50.49 665.27,-45.29"/>
</a>
</g>
</g>
</g>
</svg>

<g id="navigator" transform="translate(0 0)" fill="#404254">
  <rect fill="#f2f5e9" fill-opacity="0.5" stroke="#606060" stroke-width=".5" x="0" y="0" width="60" height="60"/>
  <use id="zoomplus" xlink:href="#zoomPlus" x="17" y="9" onmousedown="handleZoom(evt,'in')"/>
  <use id="zoomminus" xlink:href="#zoomMin" x="42" y="9" onmousedown="handleZoom(evt,'out')"/>
  <use id="reset" xlink:href="#resetDef" x="30" y="36" onmousedown="handleReset()"/>
   <use id="arrowup" xlink:href="#arrowUp" x="0" y="0" onmousedown="handlePan(0,-1)"/>
  <use id="arrowright" xlink:href="#arrowRight" x="0" y="0" onmousedown="handlePan(1,0)"/>
  <use id="arrowdown" xlink:href="#arrowDown" x="0" y="0" onmousedown="handlePan(0,1)"/>
  <use id="arrowleft" xlink:href="#arrowLeft" x="0" y="0" onmousedown="handlePan(-1,0)"/>
</g>
<svg viewBox="0 0 15 15" width="100%" height="30px" preserveAspectRatio="xMaxYMin meet">
 <g id="arrow_out" transform="scale(0.3 0.3)">
  <a xlink:href="_peer_link_8h__dep__incl_org.svg" target="_base">
   <rect id="button" ry="5" rx="5" y="6" x="6" height="38" width="38"
        fill="#f2f5e9" fill-opacity="0.5" stroke="#606060" stroke-width="1.0"/>
   <path id="arrow"
     d="M 11.500037,31.436501 C 11.940474,20.09759 22.043105,11.32322 32.158766,21.979434 L 37.068811,17.246167 C 37.068811,17.246167 37.088388,32 37.088388,32 L 22.160133,31.978069 C 22.160133,31.978069 26.997745,27.140456 26.997745,27.140456 C 18.528582,18.264221 13.291696,25.230495 11.500037,31.436501 z"
     style="fill:#404040;"/>
  </a>
 </g>
</svg>

<style type='text/css'>
<![CDATA[
[data-mouse-over-selected='false'] { opacity: 0.7; }
[data-mouse-over-selected='true']  { opacity: 1.0; }
]]>
</style>
<script type="application/ecmascript"><![CDATA[
document.addEventListener('DOMContentLoaded', (event) => {
  highlightEdges();
  highlightAdjacentNodes();
});
]]></script>
</svg>
