<?xml version="1.0" encoding="UTF-8" standalone="no"?>
<!DOCTYPE svg PUBLIC "-//W3C//DTD SVG 1.1//EN"
 "http://www.w3.org/Graphics/SVG/1.1/DTD/svg11.dtd">
<!-- Generated by graphviz version 14.0.2 (20251019.1705)
 -->
<!-- Title: MarkdownRenderer::open_url Pages: 1 -->
<!--zoomable 132 -->

<svg id="main" version="1.1" xmlns="http://www.w3.org/2000/svg" xmlns:xlink="http://www.w3.org/1999/xlink" xml:space="preserve" onload="init(evt)">
<style type="text/css"><![CDATA[
.node, .edge {opacity: 0.7;}
.node.selected, .edge.selected {opacity: 1;}
.edge:hover path { stroke: red; }
.edge:hover polygon { stroke: red; fill: red; }
]]></style>

<defs>
  <circle id="rim" cx="0" cy="0" r="7"/>
  <circle id="rim2" cx="0" cy="0" r="3.5"/>
  <g id="zoomPlus">
    <use xlink:href="#rim" fill="#404040"><set attributeName="fill" to="#808080" begin="zoomplus.mouseover" end="zoomplus.mouseout"/></use>
    <path d="M-4,0h8M0,-4v8" fill="none" stroke="white" stroke-width="1.5" pointer-events="none"/>
  </g>
  <g id="zoomMin">
    <use xlink:href="#rim" fill="#404040"><set attributeName="fill" to="#808080" begin="zoomminus.mouseover" end="zoomminus.mouseout"/></use>
    <path d="M-4,0h8" fill="none" stroke="white" stroke-width="1.5" pointer-events="none"/>
  </g>
  <g id="arrowUp" transform="translate(30 24)">
    <use xlink:href="#rim"/>
    <path pointer-events="none" fill="none" stroke="white" stroke-width="1.5" d="M0,-3.0v7 M-2.5,-0.5L0,-3.0L2.5,-0.5"/>
  </g>
  <g id="arrowRight" transform="rotate(90) translate(36 -43)">
    <use xlink:href="#rim"/>
    <path pointer-events="none" fill="none" stroke="white" stroke-width="1.5" d="M0,-3.0v7 M-2.5,-0.5L0,-3.0L2.5,-0.5"/>
  </g>
  <g id="arrowDown" transform="rotate(180) translate(-30 -48)">
    <use xlink:href="#rim"/>
    <path pointer-events="none" fill="none" stroke="white" stroke-width="1.5" d="M0,-3.0v7 M-2.5,-0.5L0,-3.0L2.5,-0.5"/>
  </g>
  <g id="arrowLeft" transform="rotate(270) translate(-36 17)">
    <use xlink:href="#rim"/>
    <path pointer-events="none" fill="none" stroke="white" stroke-width="1.5" d="M0,-3.0v7 M-2.5,-0.5L0,-3.0L2.5,-0.5"/>
  </g>
  <g id="resetDef">
    <use xlink:href="#rim2" fill="#404040"><set attributeName="fill" to="#808080" begin="reset.mouseover" end="reset.mouseout"/></use>
  </g>
</defs>
<script type="application/ecmascript">
var viewWidth = 704;
var viewHeight = 132;
var sectionId = 'dynsection-6';
</script>
<script type="application/ecmascript" xlink:href="../../svg.min.js"/>
<svg id="graph" class="graph">
<g id="viewport">
<title>MarkdownRenderer::open_url</title>
<!-- Node1 -->
<g id="Node000001" class="node">
<title>Node1</title>
<g id="a_Node000001"><a xlink:title=" ">
<polygon fill="#999999" stroke="#666666" points="143.5,-74 0,-74 0,-54 143.5,-54 143.5,-74"/>
<text xml:space="preserve" text-anchor="middle" x="71.75" y="-60.5" font-family="Helvetica,sans-Serif" font-size="10.00">MarkdownRenderer::open_url</text>
</a>
</g>
</g>
<!-- Node2 -->
<g id="Node000002" class="node">
<title>Node2</title>
<g id="a_Node000002"><a xlink:href="../../d5/d4a/class_markdown_renderer.html#a059491f4427f03c90d1d17c4fd14c0d0" target="_top" xlink:title=" ">
<polygon fill="white" stroke="#666666" points="338.75,-124 179.5,-124 179.5,-92 338.75,-92 338.75,-124"/>
<text xml:space="preserve" text-anchor="start" x="187.5" y="-110.5" font-family="Helvetica,sans-Serif" font-size="10.00">MarkdownRenderer::openDefault</text>
<text xml:space="preserve" text-anchor="middle" x="259.12" y="-98.5" font-family="Helvetica,sans-Serif" font-size="10.00">Browser_</text>
</a>
</g>
</g>
<!-- Node1&#45;&gt;Node2 -->
<g id="edge1_Node000001_Node000002" class="edge">
<title>Node1&#45;&gt;Node2</title>
<g id="a_edge1_Node000001_Node000002"><a xlink:title=" ">
<path fill="none" stroke="#63b8ff" d="M116.68,-74.43C134.92,-78.76 156.69,-83.92 177.61,-88.89"/>
<polygon fill="#63b8ff" stroke="#63b8ff" points="176.77,-92.29 187.31,-91.19 178.39,-85.48 176.77,-92.29"/>
</a>
</g>
</g>
<!-- Node3 -->
<g id="Node000003" class="node">
<title>Node3</title>
<g id="a_Node000003"><a xlink:href="../../d5/d4a/class_markdown_renderer.html#ae095c02db567dbe7a6050d69efe60a0d" target="_top" xlink:title=" ">
<polygon fill="white" stroke="#666666" points="336.5,-74 181.75,-74 181.75,-54 336.5,-54 336.5,-74"/>
<text xml:space="preserve" text-anchor="middle" x="259.12" y="-60.5" font-family="Helvetica,sans-Serif" font-size="10.00">MarkdownRenderer::parseHref_</text>
</a>
</g>
</g>
<!-- Node1&#45;&gt;Node3 -->
<g id="edge2_Node000001_Node000003" class="edge">
<title>Node1&#45;&gt;Node3</title>
<g id="a_edge2_Node000001_Node000003"><a xlink:title=" ">
<path fill="none" stroke="#63b8ff" d="M143.89,-64C152.41,-64 161.19,-64 169.91,-64"/>
<polygon fill="#63b8ff" stroke="#63b8ff" points="169.81,-67.5 179.81,-64 169.81,-60.5 169.81,-67.5"/>
</a>
</g>
</g>
<!-- Node5 -->
<g id="Node000005" class="node">
<title>Node5</title>
<g id="a_Node000005"><a xlink:href="../../d5/d4a/class_markdown_renderer.html#a51a347a6a77e068ca99755262fd88e29" target="_top" xlink:title=" ">
<polygon fill="white" stroke="#666666" points="328.25,-35 190,-35 190,-3 328.25,-3 328.25,-35"/>
<text xml:space="preserve" text-anchor="start" x="198" y="-21.5" font-family="Helvetica,sans-Serif" font-size="10.00">MarkdownRenderer::resolve</text>
<text xml:space="preserve" text-anchor="middle" x="259.12" y="-9.5" font-family="Helvetica,sans-Serif" font-size="10.00">Note_</text>
</a>
</g>
</g>
<!-- Node1&#45;&gt;Node5 -->
<g id="edge4_Node000001_Node000005" class="edge">
<title>Node1&#45;&gt;Node5</title>
<g id="a_edge4_Node000001_Node000005"><a xlink:title=" ">
<path fill="none" stroke="#63b8ff" d="M115.74,-53.56C134.68,-48.97 157.56,-43.41 179.37,-38.12"/>
<polygon fill="#63b8ff" stroke="#63b8ff" points="179.95,-41.58 188.84,-35.82 178.3,-34.78 179.95,-41.58"/>
</a>
</g>
</g>
<!-- Node4 -->
<g id="Node000004" class="node">
<title>Node4</title>
<g id="a_Node000004"><a xlink:href="../../d5/d4a/class_markdown_renderer.html#a00e06634e163cb67e0880dfbc535dc52" target="_top" xlink:title=" ">
<polygon fill="white" stroke="#666666" points="514.5,-82 383,-82 383,-50 514.5,-50 514.5,-82"/>
<text xml:space="preserve" text-anchor="start" x="391" y="-68.5" font-family="Helvetica,sans-Serif" font-size="10.00">MarkdownRenderer::starts</text>
<text xml:space="preserve" text-anchor="middle" x="448.75" y="-56.5" font-family="Helvetica,sans-Serif" font-size="10.00">With_</text>
</a>
</g>
</g>
<!-- Node3&#45;&gt;Node4 -->
<g id="edge3_Node000003_Node000004" class="edge">
<title>Node3&#45;&gt;Node4</title>
<g id="a_edge3_Node000003_Node000004"><a xlink:title=" ">
<path fill="none" stroke="#63b8ff" d="M336.98,-64.82C348.37,-64.94 360.1,-65.07 371.47,-65.19"/>
<polygon fill="#63b8ff" stroke="#63b8ff" points="371.15,-68.68 381.18,-65.29 371.22,-61.68 371.15,-68.68"/>
</a>
</g>
</g>
<!-- Node6 -->
<g id="Node000006" class="node">
<title>Node6</title>
<g id="a_Node000006"><a xlink:href="../../d5/d4a/class_markdown_renderer.html#ae3b68ecd0ff19af580bda2cc0e21ff20" target="_top" xlink:title=" ">
<polygon fill="white" stroke="#666666" points="522.75,-32 374.75,-32 374.75,0 522.75,0 522.75,-32"/>
<text xml:space="preserve" text-anchor="start" x="382.75" y="-18.5" font-family="Helvetica,sans-Serif" font-size="10.00">MarkdownRenderer::looksLike</text>
<text xml:space="preserve" text-anchor="middle" x="448.75" y="-6.5" font-family="Helvetica,sans-Serif" font-size="10.00">Uuid_</text>
</a>
</g>
</g>
<!-- Node5&#45;&gt;Node6 -->
<g id="edge5_Node000005_Node000006" class="edge">
<title>Node5&#45;&gt;Node6</title>
<g id="a_edge5_Node000005_Node000006"><a xlink:title=" ">
<path fill="none" stroke="#63b8ff" d="M328.66,-17.9C339.81,-17.73 351.47,-17.54 362.95,-17.36"/>
<polygon fill="#63b8ff" stroke="#63b8ff" points="362.89,-20.86 372.83,-17.2 362.78,-13.86 362.89,-20.86"/>
</a>
</g>
</g>
<!-- Node7 -->
<g id="Node000007" class="node">
<title>Node7</title>
<g id="a_Node000007"><a xlink:href="../../d5/d4a/class_markdown_renderer.html#a8b7cf77d80919811153c4a285a16350e" target="_top" xlink:title=" ">
<polygon fill="white" stroke="#666666" points="696.25,-26 558.75,-26 558.75,-6 696.25,-6 696.25,-26"/>
<text xml:space="preserve" text-anchor="middle" x="627.5" y="-12.5" font-family="Helvetica,sans-Serif" font-size="10.00">MarkdownRenderer::isHex_</text>
</a>
</g>
</g>
<!-- Node6&#45;&gt;Node7 -->
<g id="edge6_Node000006_Node000007" class="edge">
<title>Node6&#45;&gt;Node7</title>
<g id="a_edge6_Node000006_Node000007"><a xlink:title=" ">
<path fill="none" stroke="#63b8ff" d="M523.17,-16C531.01,-16 539.01,-16 546.92,-16"/>
<polygon fill="#63b8ff" stroke="#63b8ff" points="546.89,-19.5 556.89,-16 546.89,-12.5 546.89,-19.5"/>
</a>
</g>
</g>
</g>
</svg>

<g id="navigator" transform="translate(0 0)" fill="#404254">
  <rect fill="#f2f5e9" fill-opacity="0.5" stroke="#606060" stroke-width=".5" x="0" y="0" width="60" height="60"/>
  <use id="zoomplus" xlink:href="#zoomPlus" x="17" y="9" onmousedown="handleZoom(evt,'in')"/>
  <use id="zoomminus" xlink:href="#zoomMin" x="42" y="9" onmousedown="handleZoom(evt,'out')"/>
  <use id="reset" xlink:href="#resetDef" x="30" y="36" onmousedown="handleReset()"/>
   <use id="arrowup" xlink:href="#arrowUp" x="0" y="0" onmousedown="handlePan(0,-1)"/>
  <use id="arrowright" xlink:href="#arrowRight" x="0" y="0" onmousedown="handlePan(1,0)"/>
  <use id="arrowdown" xlink:href="#arrowDown" x="0" y="0" onmousedown="handlePan(0,1)"/>
  <use id="arrowleft" xlink:href="#arrowLeft" x="0" y="0" onmousedown="handlePan(-1,0)"/>
</g>
<svg viewBox="0 0 15 15" width="100%" height="30px" preserveAspectRatio="xMaxYMin meet">
 <g id="arrow_out" transform="scale(0.3 0.3)">
  <a xlink:href="class_markdown_renderer_a4bd39f5d7124376cde81f15bed826f41_cgraph_org.svg" target="_base">
   <rect id="button" ry="5" rx="5" y="6" x="6" height="38" width="38"
        fill="#f2f5e9" fill-opacity="0.5" stroke="#606060" stroke-width="1.0"/>
   <path id="arrow"
     d="M 11.500037,31.436501 C 11.940474,20.09759 22.043105,11.32322 32.158766,21.979434 L 37.068811,17.246167 C 37.068811,17.246167 37.088388,32 37.088388,32 L 22.160133,31.978069 C 22.160133,31.978069 26.997745,27.140456 26.997745,27.140456 C 18.528582,18.264221 13.291696,25.230495 11.500037,31.436501 z"
     style="fill:#404040;"/>
  </a>
 </g>
</svg>

<style type='text/css'>
<![CDATA[
[data-mouse-over-selected='false'] { opacity: 0.7; }
[data-mouse-over-selected='true']  { opacity: 1.0; }
]]>
</style>
<script type="application/ecmascript"><![CDATA[
document.addEventListener('DOMContentLoaded', (event) => {
  highlightEdges();
  highlightAdjacentNodes();
});
]]></script>
</svg>
