<?xml version="1.0" encoding="UTF-8" standalone="no"?>
<!DOCTYPE svg PUBLIC "-//W3C//DTD SVG 1.1//EN"
 "http://www.w3.org/Graphics/SVG/1.1/DTD/svg11.dtd">
<!-- Generated by graphviz version 14.0.2 (20251019.1705)
 -->
<!-- Title: MarkdownRenderer::looksLikeUuid_ Pages: 1 -->
<svg width="510pt" height="40pt"
 viewBox="0.00 0.00 510.00 40.00" xmlns="http://www.w3.org/2000/svg" xmlns:xlink="http://www.w3.org/1999/xlink">
<g id="graph0" class="graph" transform="scale(1 1) rotate(0) translate(4 36)">
<title>MarkdownRenderer::looksLikeUuid_</title>
<!-- Node1 -->
<g id="Node000001" class="node">
<title>Node1</title>
<g id="a_Node000001"><a xlink:title=" ">
<polygon fill="#999999" stroke="#666666" points="501.75,-32 353.75,-32 353.75,0 501.75,0 501.75,-32"/>
<text xml:space="preserve" text-anchor="start" x="361.75" y="-18.5" font-family="Helvetica,sans-Serif" font-size="10.00">MarkdownRenderer::looksLike</text>
<text xml:space="preserve" text-anchor="middle" x="427.75" y="-6.5" font-family="Helvetica,sans-Serif" font-size="10.00">Uuid_</text>
</a>
</g>
</g>
<!-- Node2 -->
<g id="Node000002" class="node">
<title>Node2</title>
<g id="a_Node000002"><a xlink:href="../../d5/d4a/class_markdown_renderer.html#a51a347a6a77e068ca99755262fd88e29" target="_top" xlink:title=" ">
<polygon fill="white" stroke="#666666" points="317.75,-32 179.5,-32 179.5,0 317.75,0 317.75,-32"/>
<text xml:space="preserve" text-anchor="start" x="187.5" y="-18.5" font-family="Helvetica,sans-Serif" font-size="10.00">MarkdownRenderer::resolve</text>
<text xml:space="preserve" text-anchor="middle" x="248.62" y="-6.5" font-family="Helvetica,sans-Serif" font-size="10.00">Note_</text>
</a>
</g>
</g>
<!-- Node1&#45;&gt;Node2 -->
<g id="edge1_Node000001_Node000002" class="edge">
<title>Node1&#45;&gt;Node2</title>
<g id="a_edge1_Node000001_Node000002"><a xlink:title=" ">
<path fill="none" stroke="#63b8ff" d="M342.09,-16C334.04,-16 325.94,-16 318.06,-16"/>
<polygon fill="#63b8ff" stroke="#63b8ff" points="341.91,-19.5 351.91,-16 341.91,-12.5 341.91,-19.5"/>
</a>
</g>
</g>
<!-- Node3 -->
<g id="Node000003" class="node">
<title>Node3</title>
<g id="a_Node000003"><a xlink:href="../../d5/d4a/class_markdown_renderer.html#a4bd39f5d7124376cde81f15bed826f41" target="_top" xlink:title=" ">
<polygon fill="white" stroke="#666666" points="143.5,-26 0,-26 0,-6 143.5,-6 143.5,-26"/>
<text xml:space="preserve" text-anchor="middle" x="71.75" y="-12.5" font-family="Helvetica,sans-Serif" font-size="10.00">MarkdownRenderer::open_url</text>
</a>
</g>
</g>
<!-- Node2&#45;&gt;Node3 -->
<g id="edge2_Node000002_Node000003" class="edge">
<title>Node2&#45;&gt;Node3</title>
<g id="a_edge2_Node000002_Node000003"><a xlink:title=" ">
<path fill="none" stroke="#63b8ff" d="M167.77,-16C159.76,-16 151.67,-16 143.76,-16"/>
<polygon fill="#63b8ff" stroke="#63b8ff" points="167.5,-19.5 177.5,-16 167.5,-12.5 167.5,-19.5"/>
</a>
</g>
</g>
</g>
</svg>
