<?xml version="1.0" encoding="UTF-8" standalone="no"?>
<!DOCTYPE svg PUBLIC "-//W3C//DTD SVG 1.1//EN"
 "http://www.w3.org/Graphics/SVG/1.1/DTD/svg11.dtd">
<!-- Generated by graphviz version 14.0.2 (20251019.1705)
 -->
<!-- Title: NoteEditorUI::render Pages: 1 -->
<svg width="1029pt" height="290pt"
 viewBox="0.00 0.00 1029.00 290.00" xmlns="http://www.w3.org/2000/svg" xmlns:xlink="http://www.w3.org/1999/xlink">
<g id="graph0" class="graph" transform="scale(1 1) rotate(0) translate(4 286.28)">
<title>NoteEditorUI::render</title>
<!-- Node1 -->
<g id="Node000001" class="node">
<title>Node1</title>
<g id="a_Node000001"><a xlink:title=" ">
<polygon fill="#999999" stroke="#666666" points="106,-176.27 0,-176.27 0,-156.27 106,-156.27 106,-176.27"/>
<text xml:space="preserve" text-anchor="middle" x="53" y="-162.77" font-family="Helvetica,sans-Serif" font-size="10.00">NoteEditorUI::render</text>
</a>
</g>
</g>
<!-- Node2 -->
<g id="Node000002" class="node">
<title>Node2</title>
<g id="a_Node000002"><a xlink:href="../../d3/dfd/class_note_editor_u_i.html#a4b6d90e40bab36d5a965d577e9761142" target="_top" xlink:title=" ">
<polygon fill="white" stroke="#666666" points="442.12,-173.27 318.88,-173.27 318.88,-153.27 442.12,-153.27 442.12,-173.27"/>
<text xml:space="preserve" text-anchor="middle" x="380.5" y="-159.77" font-family="Helvetica,sans-Serif" font-size="10.00">NoteEditorUI::closeTab_</text>
</a>
</g>
</g>
<!-- Node1&#45;&gt;Node2 -->
<g id="edge1_Node000001_Node000002" class="edge">
<title>Node1&#45;&gt;Node2</title>
<g id="a_edge1_Node000001_Node000002"><a xlink:title=" ">
<path fill="none" stroke="#63b8ff" d="M106.3,-165.79C160.66,-165.28 246.15,-164.5 307.02,-163.94"/>
<polygon fill="#63b8ff" stroke="#63b8ff" points="306.98,-167.44 316.95,-163.84 306.92,-160.44 306.98,-167.44"/>
</a>
</g>
</g>
<!-- Node3 -->
<g id="Node000003" class="node">
<title>Node3</title>
<g id="a_Node000003"><a xlink:href="../../d3/dfd/class_note_editor_u_i.html#ae6cdb065e2d7f4eb4633cf81c21d8cad" target="_top" xlink:title=" ">
<polygon fill="white" stroke="#666666" points="829.25,-170.27 676,-170.27 676,-150.27 829.25,-150.27 829.25,-170.27"/>
<text xml:space="preserve" text-anchor="middle" x="752.62" y="-156.77" font-family="Helvetica,sans-Serif" font-size="10.00">NoteEditorUI::openOrFocusTab</text>
</a>
</g>
</g>
<!-- Node1&#45;&gt;Node3 -->
<g id="edge2_Node000001_Node000003" class="edge">
<title>Node1&#45;&gt;Node3</title>
<g id="a_edge2_Node000001_Node000003"><a xlink:title=" ">
<path fill="none" stroke="#63b8ff" d="M64.08,-155.89C79.45,-140.67 110.32,-112.47 142,-97.27 286.03,-28.13 333.29,-33.61 492,-15.27 557.34,-7.72 580.98,13.78 640,-15.27 693.03,-41.37 727.94,-106.13 743.06,-139.56"/>
<polygon fill="#63b8ff" stroke="#63b8ff" points="739.78,-140.8 746.97,-148.58 746.2,-138.01 739.78,-140.8"/>
</a>
</g>
</g>
<!-- Node5 -->
<g id="Node000005" class="node">
<title>Node5</title>
<g id="a_Node000005"><a xlink:href="../../d3/dfd/class_note_editor_u_i.html#a51f8b15563300d06e71d3c40f6f9446b" target="_top" xlink:title=" ">
<polygon fill="white" stroke="#666666" points="456,-256.27 305,-256.27 305,-236.27 456,-236.27 456,-256.27"/>
<text xml:space="preserve" text-anchor="middle" x="380.5" y="-242.77" font-family="Helvetica,sans-Serif" font-size="10.00">NoteEditorUI::renderDirectory_</text>
</a>
</g>
</g>
<!-- Node1&#45;&gt;Node5 -->
<g id="edge4_Node000001_Node000005" class="edge">
<title>Node1&#45;&gt;Node5</title>
<g id="a_edge4_Node000001_Node000005"><a xlink:title=" ">
<path fill="none" stroke="#63b8ff" d="M67.44,-176.66C83.99,-188.85 113.42,-208.62 142,-218.27 190.5,-234.64 247.38,-241.74 293.31,-244.69"/>
<polygon fill="#63b8ff" stroke="#63b8ff" points="293.04,-248.18 303.23,-245.27 293.45,-241.2 293.04,-248.18"/>
</a>
</g>
</g>
<!-- Node7 -->
<g id="Node000007" class="node">
<title>Node7</title>
<g id="a_Node000007"><a xlink:href="../../db/d4e/namespace_ui_typing_guard.html#a63a23afb57376e34f2fac5999eb9f1d9" target="_top" xlink:title=" ">
<polygon fill="white" stroke="#666666" points="631,-220.27 501,-220.27 501,-188.27 631,-188.27 631,-220.27"/>
<text xml:space="preserve" text-anchor="start" x="509" y="-206.77" font-family="Helvetica,sans-Serif" font-size="10.00">UiTypingGuard::TrackThis</text>
<text xml:space="preserve" text-anchor="middle" x="566" y="-194.77" font-family="Helvetica,sans-Serif" font-size="10.00">Input</text>
</a>
</g>
</g>
<!-- Node1&#45;&gt;Node7 -->
<g id="edge17_Node000001_Node000007" class="edge">
<title>Node1&#45;&gt;Node7</title>
<g id="a_edge17_Node000001_Node000007"><a xlink:title=" ">
<path fill="none" stroke="#63b8ff" d="M106.49,-174.79C118.15,-176.47 130.48,-178.08 142,-179.27 263.21,-191.78 404.65,-198.57 489.4,-201.8"/>
<polygon fill="#63b8ff" stroke="#63b8ff" points="489.08,-205.29 499.21,-202.16 489.35,-198.29 489.08,-205.29"/>
</a>
</g>
</g>
<!-- Node8 -->
<g id="Node000008" class="node">
<title>Node8</title>
<g id="a_Node000008"><a xlink:href="../../d3/dfd/class_note_editor_u_i.html#a3ea6ba49489a982beddb2ed1c4e46cf3" target="_top" xlink:title=" ">
<polygon fill="white" stroke="#666666" points="269,-138.27 142,-138.27 142,-106.27 269,-106.27 269,-138.27"/>
<text xml:space="preserve" text-anchor="start" x="150" y="-124.77" font-family="Helvetica,sans-Serif" font-size="10.00">NoteEditorUI::renderTabs</text>
<text xml:space="preserve" text-anchor="middle" x="205.5" y="-112.77" font-family="Helvetica,sans-Serif" font-size="10.00">Area_</text>
</a>
</g>
</g>
<!-- Node1&#45;&gt;Node8 -->
<g id="edge8_Node000001_Node000008" class="edge">
<title>Node1&#45;&gt;Node8</title>
<g id="a_edge8_Node000001_Node000008"><a xlink:title=" ">
<path fill="none" stroke="#63b8ff" d="M89.67,-155.84C104,-151.65 121.01,-146.68 137.49,-141.86"/>
<polygon fill="#63b8ff" stroke="#63b8ff" points="138.13,-145.32 146.75,-139.15 136.17,-138.6 138.13,-145.32"/>
</a>
</g>
</g>
<!-- Node4 -->
<g id="Node000004" class="node">
<title>Node4</title>
<g id="a_Node000004"><a xlink:href="../../d3/dfd/class_note_editor_u_i.html#a818ddcd070082f3d89964a77ec669601" target="_top" xlink:title=" ">
<polygon fill="white" stroke="#666666" points="1020.75,-170.27 865.25,-170.27 865.25,-150.27 1020.75,-150.27 1020.75,-170.27"/>
<text xml:space="preserve" text-anchor="middle" x="943" y="-156.77" font-family="Helvetica,sans-Serif" font-size="10.00">NoteEditorUI::addTabIfMissing_</text>
</a>
</g>
</g>
<!-- Node3&#45;&gt;Node4 -->
<g id="edge3_Node000003_Node000004" class="edge">
<title>Node3&#45;&gt;Node4</title>
<g id="a_edge3_Node000003_Node000004"><a xlink:title=" ">
<path fill="none" stroke="#63b8ff" d="M829.7,-160.27C837.61,-160.27 845.7,-160.27 853.73,-160.27"/>
<polygon fill="#63b8ff" stroke="#63b8ff" points="853.51,-163.77 863.51,-160.27 853.51,-156.77 853.51,-163.77"/>
</a>
</g>
</g>
<!-- Node5&#45;&gt;Node3 -->
<g id="edge6_Node000005_Node000003" class="edge">
<title>Node5&#45;&gt;Node3</title>
<g id="a_edge6_Node000005_Node000003"><a xlink:title=" ">
<path fill="none" stroke="#63b8ff" d="M410.29,-256.74C459.41,-272.85 561.66,-298.75 640,-267.27 683.98,-249.59 720.39,-205.4 738.75,-179.68"/>
<polygon fill="#63b8ff" stroke="#63b8ff" points="741.42,-181.97 744.23,-171.76 735.66,-177.99 741.42,-181.97"/>
</a>
</g>
</g>
<!-- Node6 -->
<g id="Node000006" class="node">
<title>Node6</title>
<g id="a_Node000006"><a xlink:href="../../d3/dfd/class_note_editor_u_i.html#a82b355724ddd9de4f031fdb5fde4b22f" target="_top" xlink:title=" ">
<polygon fill="white" stroke="#666666" points="631,-258.27 501,-258.27 501,-238.27 631,-238.27 631,-258.27"/>
<text xml:space="preserve" text-anchor="middle" x="566" y="-244.77" font-family="Helvetica,sans-Serif" font-size="10.00">NoteEditorUI::filterMatch_</text>
</a>
</g>
</g>
<!-- Node5&#45;&gt;Node6 -->
<g id="edge5_Node000005_Node000006" class="edge">
<title>Node5&#45;&gt;Node6</title>
<g id="a_edge5_Node000005_Node000006"><a xlink:title=" ">
<path fill="none" stroke="#63b8ff" d="M456.4,-247.08C467.29,-247.2 478.5,-247.32 489.4,-247.44"/>
<polygon fill="#63b8ff" stroke="#63b8ff" points="489.07,-250.94 499.1,-247.55 489.14,-243.94 489.07,-250.94"/>
</a>
</g>
</g>
<!-- Node5&#45;&gt;Node7 -->
<g id="edge7_Node000005_Node000007" class="edge">
<title>Node5&#45;&gt;Node7</title>
<g id="a_edge7_Node000005_Node000007"><a xlink:title=" ">
<path fill="none" stroke="#63b8ff" d="M427.33,-235.78C446.22,-231.45 468.62,-226.33 489.79,-221.48"/>
<polygon fill="#63b8ff" stroke="#63b8ff" points="490.29,-224.96 499.26,-219.31 488.73,-218.13 490.29,-224.96"/>
</a>
</g>
</g>
<!-- Node8&#45;&gt;Node2 -->
<g id="edge9_Node000008_Node000002" class="edge">
<title>Node8&#45;&gt;Node2</title>
<g id="a_edge9_Node000008_Node000002"><a xlink:title=" ">
<path fill="none" stroke="#63b8ff" d="M269.45,-137.19C287.36,-141.43 306.73,-146.02 324.15,-150.15"/>
<polygon fill="#63b8ff" stroke="#63b8ff" points="323.27,-153.54 333.81,-152.44 324.89,-146.73 323.27,-153.54"/>
</a>
</g>
</g>
<!-- Node9 -->
<g id="Node000009" class="node">
<title>Node9</title>
<g id="a_Node000009"><a xlink:href="../../d3/dfd/class_note_editor_u_i.html#a41e928a368befa223a486e3417e26382" target="_top" xlink:title=" ">
<polygon fill="white" stroke="#666666" points="453,-132.27 308,-132.27 308,-112.27 453,-112.27 453,-132.27"/>
<text xml:space="preserve" text-anchor="middle" x="380.5" y="-118.77" font-family="Helvetica,sans-Serif" font-size="10.00">NoteEditorUI::renderOneTab_</text>
</a>
</g>
</g>
<!-- Node8&#45;&gt;Node9 -->
<g id="edge10_Node000008_Node000009" class="edge">
<title>Node8&#45;&gt;Node9</title>
<g id="a_edge10_Node000008_Node000009"><a xlink:title=" ">
<path fill="none" stroke="#63b8ff" d="M269.45,-122.27C278.14,-122.27 287.18,-122.27 296.17,-122.27"/>
<polygon fill="#63b8ff" stroke="#63b8ff" points="296,-125.77 306,-122.27 296,-118.77 296,-125.77"/>
</a>
</g>
</g>
<!-- Node9&#45;&gt;Node7 -->
<g id="edge16_Node000009_Node000007" class="edge">
<title>Node9&#45;&gt;Node7</title>
<g id="a_edge16_Node000009_Node000007"><a xlink:title=" ">
<path fill="none" stroke="#63b8ff" d="M429.43,-132.68C438.59,-135.7 447.85,-139.5 456,-144.27 475.26,-155.53 472.98,-167.59 492,-179.27 494.13,-180.58 496.34,-181.83 498.61,-183.02"/>
<polygon fill="#63b8ff" stroke="#63b8ff" points="496.93,-186.1 507.46,-187.26 499.95,-179.78 496.93,-186.1"/>
</a>
</g>
</g>
<!-- Node10 -->
<g id="Node000010" class="node">
<title>Node10</title>
<g id="a_Node000010"><a xlink:href="../../d3/dfd/class_note_editor_u_i.html#a1bf409f46d4db716685a06b0474edf72" target="_top" xlink:title=" ">
<polygon fill="white" stroke="#666666" points="636.62,-132.27 495.38,-132.27 495.38,-112.27 636.62,-112.27 636.62,-132.27"/>
<text xml:space="preserve" text-anchor="middle" x="566" y="-118.77" font-family="Helvetica,sans-Serif" font-size="10.00">NoteEditorUI::actSaveNote_</text>
</a>
</g>
</g>
<!-- Node9&#45;&gt;Node10 -->
<g id="edge11_Node000009_Node000010" class="edge">
<title>Node9&#45;&gt;Node10</title>
<g id="a_edge11_Node000009_Node000010"><a xlink:title=" ">
<path fill="none" stroke="#63b8ff" d="M453.5,-122.27C463.42,-122.27 473.66,-122.27 483.74,-122.27"/>
<polygon fill="#63b8ff" stroke="#63b8ff" points="483.5,-125.77 493.5,-122.27 483.5,-118.77 483.5,-125.77"/>
</a>
</g>
</g>
<!-- Node11 -->
<g id="Node000011" class="node">
<title>Node11</title>
<g id="a_Node000011"><a xlink:href="../../d3/dfd/class_note_editor_u_i.html#aecb8f4275999ce387668ca2db3acd2e5" target="_top" xlink:title=" ">
<polygon fill="white" stroke="#666666" points="640,-170.27 492,-170.27 492,-150.27 640,-150.27 640,-170.27"/>
<text xml:space="preserve" text-anchor="middle" x="566" y="-156.77" font-family="Helvetica,sans-Serif" font-size="10.00">NoteEditorUI::openTabByUuid</text>
</a>
</g>
</g>
<!-- Node9&#45;&gt;Node11 -->
<g id="edge12_Node000009_Node000011" class="edge">
<title>Node9&#45;&gt;Node11</title>
<g id="a_edge12_Node000009_Node000011"><a xlink:title=" ">
<path fill="none" stroke="#63b8ff" d="M432.13,-132.75C454.19,-137.32 480.25,-142.72 503.42,-147.52"/>
<polygon fill="#63b8ff" stroke="#63b8ff" points="502.55,-150.91 513.06,-149.51 503.97,-144.06 502.55,-150.91"/>
</a>
</g>
</g>
<!-- Node12 -->
<g id="Node000012" class="node">
<title>Node12</title>
<g id="a_Node000012"><a xlink:href="../../de/d23/class_notes_manager.html#adc59a0ee5716f09b1ed47e0c0fe5f4ec" target="_top" xlink:title=" ">
<polygon fill="white" stroke="#666666" points="638.12,-94.27 493.88,-94.27 493.88,-74.27 638.12,-74.27 638.12,-94.27"/>
<text xml:space="preserve" text-anchor="middle" x="566" y="-80.77" font-family="Helvetica,sans-Serif" font-size="10.00">NotesManager::toEpochMillis</text>
</a>
</g>
</g>
<!-- Node9&#45;&gt;Node12 -->
<g id="edge14_Node000009_Node000012" class="edge">
<title>Node9&#45;&gt;Node12</title>
<g id="a_edge14_Node000009_Node000012"><a xlink:title=" ">
<path fill="none" stroke="#63b8ff" d="M432.13,-111.78C454.19,-107.21 480.25,-101.82 503.42,-97.02"/>
<polygon fill="#63b8ff" stroke="#63b8ff" points="503.97,-100.48 513.06,-95.02 502.55,-93.63 503.97,-100.48"/>
</a>
</g>
</g>
<!-- Node13 -->
<g id="Node000013" class="node">
<title>Node13</title>
<g id="a_Node000013"><a xlink:href="../../d3/dfd/class_note_editor_u_i.html#a443c48e18d7f3f4ad45f36263805b700" target="_top" xlink:title=" ">
<polygon fill="white" stroke="#666666" points="630.25,-56.27 501.75,-56.27 501.75,-24.27 630.25,-24.27 630.25,-56.27"/>
<text xml:space="preserve" text-anchor="start" x="509.75" y="-42.77" font-family="Helvetica,sans-Serif" font-size="10.00">NoteEditorUI::toggleOpen</text>
<text xml:space="preserve" text-anchor="middle" x="566" y="-30.77" font-family="Helvetica,sans-Serif" font-size="10.00">Editor_</text>
</a>
</g>
</g>
<!-- Node9&#45;&gt;Node13 -->
<g id="edge15_Node000009_Node000013" class="edge">
<title>Node9&#45;&gt;Node13</title>
<g id="a_edge15_Node000009_Node000013"><a xlink:title=" ">
<path fill="none" stroke="#63b8ff" d="M399.49,-111.95C421.04,-99.83 458.44,-79.58 492,-65.27 495.73,-63.68 499.6,-62.11 503.53,-60.59"/>
<polygon fill="#63b8ff" stroke="#63b8ff" points="504.43,-63.99 512.56,-57.2 501.97,-57.44 504.43,-63.99"/>
</a>
</g>
</g>
<!-- Node11&#45;&gt;Node3 -->
<g id="edge13_Node000011_Node000003" class="edge">
<title>Node11&#45;&gt;Node3</title>
<g id="a_edge13_Node000011_Node000003"><a xlink:title=" ">
<path fill="none" stroke="#63b8ff" d="M640.5,-160.27C648.36,-160.27 656.41,-160.27 664.41,-160.27"/>
<polygon fill="#63b8ff" stroke="#63b8ff" points="664.14,-163.77 674.14,-160.27 664.14,-156.77 664.14,-163.77"/>
</a>
</g>
</g>
</g>
</svg>
