<?xml version="1.0" encoding="UTF-8" standalone="no"?>
<!DOCTYPE svg PUBLIC "-//W3C//DTD SVG 1.1//EN"
 "http://www.w3.org/Graphics/SVG/1.1/DTD/svg11.dtd">
<!-- Generated by graphviz version 14.0.2 (20251019.1705)
 -->
<!-- Title: NoteEditorUI::renderTabsArea_ Pages: 1 -->
<svg width="881pt" height="204pt"
 viewBox="0.00 0.00 881.00 204.00" xmlns="http://www.w3.org/2000/svg" xmlns:xlink="http://www.w3.org/1999/xlink">
<g id="graph0" class="graph" transform="scale(1 1) rotate(0) translate(4 200)">
<title>NoteEditorUI::renderTabsArea_</title>
<!-- Node1 -->
<g id="Node000001" class="node">
<title>Node1</title>
<g id="a_Node000001"><a xlink:title=" ">
<polygon fill="#999999" stroke="#666666" points="127,-145 0,-145 0,-113 127,-113 127,-145"/>
<text xml:space="preserve" text-anchor="start" x="8" y="-131.5" font-family="Helvetica,sans-Serif" font-size="10.00">NoteEditorUI::renderTabs</text>
<text xml:space="preserve" text-anchor="middle" x="63.5" y="-119.5" font-family="Helvetica,sans-Serif" font-size="10.00">Area_</text>
</a>
</g>
</g>
<!-- Node2 -->
<g id="Node000002" class="node">
<title>Node2</title>
<g id="a_Node000002"><a xlink:href="../../d3/dfd/class_note_editor_u_i.html#a4b6d90e40bab36d5a965d577e9761142" target="_top" xlink:title=" ">
<polygon fill="white" stroke="#666666" points="297.12,-158 173.88,-158 173.88,-138 297.12,-138 297.12,-158"/>
<text xml:space="preserve" text-anchor="middle" x="235.5" y="-144.5" font-family="Helvetica,sans-Serif" font-size="10.00">NoteEditorUI::closeTab_</text>
</a>
</g>
</g>
<!-- Node1&#45;&gt;Node2 -->
<g id="edge1_Node000001_Node000002" class="edge">
<title>Node1&#45;&gt;Node2</title>
<g id="a_edge1_Node000001_Node000002"><a xlink:title=" ">
<path fill="none" stroke="#63b8ff" d="M127.32,-136.02C138.79,-137.3 150.83,-138.65 162.54,-139.96"/>
<polygon fill="#63b8ff" stroke="#63b8ff" points="161.81,-143.4 172.13,-141.03 162.58,-136.44 161.81,-143.4"/>
</a>
</g>
</g>
<!-- Node3 -->
<g id="Node000003" class="node">
<title>Node3</title>
<g id="a_Node000003"><a xlink:href="../../d3/dfd/class_note_editor_u_i.html#a41e928a368befa223a486e3417e26382" target="_top" xlink:title=" ">
<polygon fill="white" stroke="#666666" points="308,-120 163,-120 163,-100 308,-100 308,-120"/>
<text xml:space="preserve" text-anchor="middle" x="235.5" y="-106.5" font-family="Helvetica,sans-Serif" font-size="10.00">NoteEditorUI::renderOneTab_</text>
</a>
</g>
</g>
<!-- Node1&#45;&gt;Node3 -->
<g id="edge2_Node000001_Node000003" class="edge">
<title>Node1&#45;&gt;Node3</title>
<g id="a_edge2_Node000001_Node000003"><a xlink:title=" ">
<path fill="none" stroke="#63b8ff" d="M127.32,-121.98C135.16,-121.1 143.28,-120.2 151.37,-119.29"/>
<polygon fill="#63b8ff" stroke="#63b8ff" points="151.71,-122.78 161.26,-118.19 150.93,-115.82 151.71,-122.78"/>
</a>
</g>
</g>
<!-- Node4 -->
<g id="Node000004" class="node">
<title>Node4</title>
<g id="a_Node000004"><a xlink:href="../../d3/dfd/class_note_editor_u_i.html#a1bf409f46d4db716685a06b0474edf72" target="_top" xlink:title=" ">
<polygon fill="white" stroke="#666666" points="488.62,-196 347.38,-196 347.38,-176 488.62,-176 488.62,-196"/>
<text xml:space="preserve" text-anchor="middle" x="418" y="-182.5" font-family="Helvetica,sans-Serif" font-size="10.00">NoteEditorUI::actSaveNote_</text>
</a>
</g>
</g>
<!-- Node3&#45;&gt;Node4 -->
<g id="edge3_Node000003_Node000004" class="edge">
<title>Node3&#45;&gt;Node4</title>
<g id="a_edge3_Node000003_Node000004"><a xlink:title=" ">
<path fill="none" stroke="#63b8ff" d="M289.41,-120.47C295.9,-122.78 302.26,-125.59 308,-129 328,-140.88 323.97,-155.17 344,-167 346.66,-168.57 349.44,-170.01 352.31,-171.33"/>
<polygon fill="#63b8ff" stroke="#63b8ff" points="350.99,-174.58 361.58,-175.07 353.61,-168.08 350.99,-174.58"/>
</a>
</g>
</g>
<!-- Node5 -->
<g id="Node000005" class="node">
<title>Node5</title>
<g id="a_Node000005"><a xlink:href="../../d3/dfd/class_note_editor_u_i.html#aecb8f4275999ce387668ca2db3acd2e5" target="_top" xlink:title=" ">
<polygon fill="white" stroke="#666666" points="492,-158 344,-158 344,-138 492,-138 492,-158"/>
<text xml:space="preserve" text-anchor="middle" x="418" y="-144.5" font-family="Helvetica,sans-Serif" font-size="10.00">NoteEditorUI::openTabByUuid</text>
</a>
</g>
</g>
<!-- Node3&#45;&gt;Node5 -->
<g id="edge4_Node000003_Node000005" class="edge">
<title>Node3&#45;&gt;Node5</title>
<g id="a_edge4_Node000003_Node000005"><a xlink:title=" ">
<path fill="none" stroke="#63b8ff" d="M286.3,-120.48C307.9,-125.03 333.4,-130.4 356.12,-135.18"/>
<polygon fill="#63b8ff" stroke="#63b8ff" points="355.37,-138.6 365.88,-137.24 356.82,-131.75 355.37,-138.6"/>
</a>
</g>
</g>
<!-- Node8 -->
<g id="Node000008" class="node">
<title>Node8</title>
<g id="a_Node000008"><a xlink:href="../../de/d23/class_notes_manager.html#adc59a0ee5716f09b1ed47e0c0fe5f4ec" target="_top" xlink:title=" ">
<polygon fill="white" stroke="#666666" points="490.12,-120 345.88,-120 345.88,-100 490.12,-100 490.12,-120"/>
<text xml:space="preserve" text-anchor="middle" x="418" y="-106.5" font-family="Helvetica,sans-Serif" font-size="10.00">NotesManager::toEpochMillis</text>
</a>
</g>
</g>
<!-- Node3&#45;&gt;Node8 -->
<g id="edge7_Node000003_Node000008" class="edge">
<title>Node3&#45;&gt;Node8</title>
<g id="a_edge7_Node000003_Node000008"><a xlink:title=" ">
<path fill="none" stroke="#63b8ff" d="M308.36,-110C316.83,-110 325.54,-110 334.15,-110"/>
<polygon fill="#63b8ff" stroke="#63b8ff" points="333.88,-113.5 343.88,-110 333.88,-106.5 333.88,-113.5"/>
</a>
</g>
</g>
<!-- Node9 -->
<g id="Node000009" class="node">
<title>Node9</title>
<g id="a_Node000009"><a xlink:href="../../d3/dfd/class_note_editor_u_i.html#a443c48e18d7f3f4ad45f36263805b700" target="_top" xlink:title=" ">
<polygon fill="white" stroke="#666666" points="482.25,-82 353.75,-82 353.75,-50 482.25,-50 482.25,-82"/>
<text xml:space="preserve" text-anchor="start" x="361.75" y="-68.5" font-family="Helvetica,sans-Serif" font-size="10.00">NoteEditorUI::toggleOpen</text>
<text xml:space="preserve" text-anchor="middle" x="418" y="-56.5" font-family="Helvetica,sans-Serif" font-size="10.00">Editor_</text>
</a>
</g>
</g>
<!-- Node3&#45;&gt;Node9 -->
<g id="edge8_Node000003_Node000009" class="edge">
<title>Node3&#45;&gt;Node9</title>
<g id="a_edge8_Node000003_Node000009"><a xlink:title=" ">
<path fill="none" stroke="#63b8ff" d="M279.28,-99.57C298.1,-94.98 320.77,-89.46 342.23,-84.23"/>
<polygon fill="#63b8ff" stroke="#63b8ff" points="342.97,-87.65 351.85,-81.88 341.31,-80.85 342.97,-87.65"/>
</a>
</g>
</g>
<!-- Node10 -->
<g id="Node000010" class="node">
<title>Node10</title>
<g id="a_Node000010"><a xlink:href="../../db/d4e/namespace_ui_typing_guard.html#a63a23afb57376e34f2fac5999eb9f1d9" target="_top" xlink:title=" ">
<polygon fill="white" stroke="#666666" points="483,-32 353,-32 353,0 483,0 483,-32"/>
<text xml:space="preserve" text-anchor="start" x="361" y="-18.5" font-family="Helvetica,sans-Serif" font-size="10.00">UiTypingGuard::TrackThis</text>
<text xml:space="preserve" text-anchor="middle" x="418" y="-6.5" font-family="Helvetica,sans-Serif" font-size="10.00">Input</text>
</a>
</g>
</g>
<!-- Node3&#45;&gt;Node10 -->
<g id="edge9_Node000003_Node000010" class="edge">
<title>Node3&#45;&gt;Node10</title>
<g id="a_edge9_Node000003_Node000010"><a xlink:title=" ">
<path fill="none" stroke="#63b8ff" d="M250.13,-99.72C269.94,-85.13 308.26,-58.28 344,-41 347.1,-39.5 350.31,-38.06 353.57,-36.66"/>
<polygon fill="#63b8ff" stroke="#63b8ff" points="354.78,-39.95 362.75,-32.97 352.16,-33.46 354.78,-39.95"/>
</a>
</g>
</g>
<!-- Node6 -->
<g id="Node000006" class="node">
<title>Node6</title>
<g id="a_Node000006"><a xlink:href="../../d3/dfd/class_note_editor_u_i.html#ae6cdb065e2d7f4eb4633cf81c21d8cad" target="_top" xlink:title=" ">
<polygon fill="white" stroke="#666666" points="681.25,-158 528,-158 528,-138 681.25,-138 681.25,-158"/>
<text xml:space="preserve" text-anchor="middle" x="604.62" y="-144.5" font-family="Helvetica,sans-Serif" font-size="10.00">NoteEditorUI::openOrFocusTab</text>
</a>
</g>
</g>
<!-- Node5&#45;&gt;Node6 -->
<g id="edge5_Node000005_Node000006" class="edge">
<title>Node5&#45;&gt;Node6</title>
<g id="a_edge5_Node000005_Node000006"><a xlink:title=" ">
<path fill="none" stroke="#63b8ff" d="M492.5,-148C500.36,-148 508.41,-148 516.41,-148"/>
<polygon fill="#63b8ff" stroke="#63b8ff" points="516.14,-151.5 526.14,-148 516.14,-144.5 516.14,-151.5"/>
</a>
</g>
</g>
<!-- Node7 -->
<g id="Node000007" class="node">
<title>Node7</title>
<g id="a_Node000007"><a xlink:href="../../d3/dfd/class_note_editor_u_i.html#a818ddcd070082f3d89964a77ec669601" target="_top" xlink:title=" ">
<polygon fill="white" stroke="#666666" points="872.75,-158 717.25,-158 717.25,-138 872.75,-138 872.75,-158"/>
<text xml:space="preserve" text-anchor="middle" x="795" y="-144.5" font-family="Helvetica,sans-Serif" font-size="10.00">NoteEditorUI::addTabIfMissing_</text>
</a>
</g>
</g>
<!-- Node6&#45;&gt;Node7 -->
<g id="edge6_Node000006_Node000007" class="edge">
<title>Node6&#45;&gt;Node7</title>
<g id="a_edge6_Node000006_Node000007"><a xlink:title=" ">
<path fill="none" stroke="#63b8ff" d="M681.7,-148C689.61,-148 697.7,-148 705.73,-148"/>
<polygon fill="#63b8ff" stroke="#63b8ff" points="705.51,-151.5 715.51,-148 705.51,-144.5 705.51,-151.5"/>
</a>
</g>
</g>
</g>
</svg>
