<?xml version="1.0" encoding="UTF-8" standalone="no"?>
<!DOCTYPE svg PUBLIC "-//W3C//DTD SVG 1.1//EN"
 "http://www.w3.org/Graphics/SVG/1.1/DTD/svg11.dtd">
<!-- Generated by graphviz version 14.0.2 (20251019.1705)
 -->
<!-- Title: NoteEditorUI::addTabIfMissing_ Pages: 1 -->
<svg width="1029pt" height="180pt"
 viewBox="0.00 0.00 1029.00 180.00" xmlns="http://www.w3.org/2000/svg" xmlns:xlink="http://www.w3.org/1999/xlink">
<g id="graph0" class="graph" transform="scale(1 1) rotate(0) translate(4 176)">
<title>NoteEditorUI::addTabIfMissing_</title>
<!-- Node1 -->
<g id="Node000001" class="node">
<title>Node1</title>
<g id="a_Node000001"><a xlink:title=" ">
<polygon fill="#999999" stroke="#666666" points="1020.75,-96 865.25,-96 865.25,-76 1020.75,-76 1020.75,-96"/>
<text xml:space="preserve" text-anchor="middle" x="943" y="-82.5" font-family="Helvetica,sans-Serif" font-size="10.00">NoteEditorUI::addTabIfMissing_</text>
</a>
</g>
</g>
<!-- Node2 -->
<g id="Node000002" class="node">
<title>Node2</title>
<g id="a_Node000002"><a xlink:href="../../d3/dfd/class_note_editor_u_i.html#ae6cdb065e2d7f4eb4633cf81c21d8cad" target="_top" xlink:title=" ">
<polygon fill="white" stroke="#666666" points="829.25,-96 676,-96 676,-76 829.25,-76 829.25,-96"/>
<text xml:space="preserve" text-anchor="middle" x="752.62" y="-82.5" font-family="Helvetica,sans-Serif" font-size="10.00">NoteEditorUI::openOrFocusTab</text>
</a>
</g>
</g>
<!-- Node1&#45;&gt;Node2 -->
<g id="edge1_Node000001_Node000002" class="edge">
<title>Node1&#45;&gt;Node2</title>
<g id="a_edge1_Node000001_Node000002"><a xlink:title=" ">
<path fill="none" stroke="#63b8ff" d="M853.52,-86C845.48,-86 837.37,-86 829.45,-86"/>
<polygon fill="#63b8ff" stroke="#63b8ff" points="853.32,-89.5 863.32,-86 853.32,-82.5 853.32,-89.5"/>
</a>
</g>
</g>
<!-- Node3 -->
<g id="Node000003" class="node">
<title>Node3</title>
<g id="a_Node000003"><a xlink:href="../../d3/dfd/class_note_editor_u_i.html#a10ecfb29a9a81d6a332cba389555f17c" target="_top" xlink:title=" ">
<polygon fill="white" stroke="#666666" points="640,-172 492,-172 492,-152 640,-152 640,-172"/>
<text xml:space="preserve" text-anchor="middle" x="566" y="-158.5" font-family="Helvetica,sans-Serif" font-size="10.00">NoteEditorUI::actCreateNote_</text>
</a>
</g>
</g>
<!-- Node2&#45;&gt;Node3 -->
<g id="edge2_Node000002_Node000003" class="edge">
<title>Node2&#45;&gt;Node3</title>
<g id="a_edge2_Node000002_Node000003"><a xlink:title=" ">
<path fill="none" stroke="#63b8ff" d="M724.69,-101.86C702.54,-114.38 670.02,-131.58 640,-143 631.55,-146.21 622.36,-149.07 613.43,-151.54"/>
<polygon fill="#63b8ff" stroke="#63b8ff" points="726.13,-105.07 733.07,-97.06 722.65,-98.99 726.13,-105.07"/>
</a>
</g>
</g>
<!-- Node4 -->
<g id="Node000004" class="node">
<title>Node4</title>
<g id="a_Node000004"><a xlink:href="../../d3/dfd/class_note_editor_u_i.html#a9aaccdae208709a621553f1367b535e2" target="_top" xlink:title=" ">
<polygon fill="white" stroke="#666666" points="634.38,-134 497.62,-134 497.62,-114 634.38,-114 634.38,-134"/>
<text xml:space="preserve" text-anchor="middle" x="566" y="-120.5" font-family="Helvetica,sans-Serif" font-size="10.00">NoteEditorUI::openNoteTab</text>
</a>
</g>
</g>
<!-- Node2&#45;&gt;Node4 -->
<g id="edge3_Node000002_Node000004" class="edge">
<title>Node2&#45;&gt;Node4</title>
<g id="a_edge3_Node000002_Node000004"><a xlink:title=" ">
<path fill="none" stroke="#63b8ff" d="M689.5,-98.79C666.17,-103.59 639.95,-108.99 617.77,-113.55"/>
<polygon fill="#63b8ff" stroke="#63b8ff" points="690.12,-102.23 699.2,-96.79 688.7,-95.38 690.12,-102.23"/>
</a>
</g>
</g>
<!-- Node5 -->
<g id="Node000005" class="node">
<title>Node5</title>
<g id="a_Node000005"><a xlink:href="../../d3/dfd/class_note_editor_u_i.html#aecb8f4275999ce387668ca2db3acd2e5" target="_top" xlink:title=" ">
<polygon fill="white" stroke="#666666" points="640,-96 492,-96 492,-76 640,-76 640,-96"/>
<text xml:space="preserve" text-anchor="middle" x="566" y="-82.5" font-family="Helvetica,sans-Serif" font-size="10.00">NoteEditorUI::openTabByUuid</text>
</a>
</g>
</g>
<!-- Node2&#45;&gt;Node5 -->
<g id="edge4_Node000002_Node000005" class="edge">
<title>Node2&#45;&gt;Node5</title>
<g id="a_edge4_Node000002_Node000005"><a xlink:title=" ">
<path fill="none" stroke="#63b8ff" d="M664.37,-86C656.29,-86 648.15,-86 640.22,-86"/>
<polygon fill="#63b8ff" stroke="#63b8ff" points="664.22,-89.5 674.22,-86 664.22,-82.5 664.22,-89.5"/>
</a>
</g>
</g>
<!-- Node8 -->
<g id="Node000008" class="node">
<title>Node8</title>
<g id="a_Node000008"><a xlink:href="../../d3/dfd/class_note_editor_u_i.html#a3a9be72ef4837839ff716f6afd456611" target="_top" xlink:title=" ">
<polygon fill="white" stroke="#666666" points="106,-58 0,-58 0,-38 106,-38 106,-58"/>
<text xml:space="preserve" text-anchor="middle" x="53" y="-44.5" font-family="Helvetica,sans-Serif" font-size="10.00">NoteEditorUI::render</text>
</a>
</g>
</g>
<!-- Node2&#45;&gt;Node8 -->
<g id="edge8_Node000002_Node000008" class="edge">
<title>Node2&#45;&gt;Node8</title>
<g id="a_edge8_Node000002_Node000008"><a xlink:title=" ">
<path fill="none" stroke="#63b8ff" d="M687.88,-73.61C672.27,-71 655.58,-68.57 640,-67 443.78,-47.21 208.91,-46.49 106.29,-47.31"/>
<polygon fill="#63b8ff" stroke="#63b8ff" points="687.08,-77.02 697.53,-75.27 688.27,-70.13 687.08,-77.02"/>
</a>
</g>
</g>
<!-- Node9 -->
<g id="Node000009" class="node">
<title>Node9</title>
<g id="a_Node000009"><a xlink:href="../../d3/dfd/class_note_editor_u_i.html#a51f8b15563300d06e71d3c40f6f9446b" target="_top" xlink:title=" ">
<polygon fill="white" stroke="#666666" points="456,-20 305,-20 305,0 456,0 456,-20"/>
<text xml:space="preserve" text-anchor="middle" x="380.5" y="-6.5" font-family="Helvetica,sans-Serif" font-size="10.00">NoteEditorUI::renderDirectory_</text>
</a>
</g>
</g>
<!-- Node2&#45;&gt;Node9 -->
<g id="edge9_Node000002_Node000009" class="edge">
<title>Node2&#45;&gt;Node9</title>
<g id="a_edge9_Node000002_Node000009"><a xlink:title=" ">
<path fill="none" stroke="#63b8ff" d="M724.24,-69.99C702.24,-57.94 670.15,-42.16 640,-34 579.53,-17.64 508.51,-11.97 456.23,-10.2"/>
<polygon fill="#63b8ff" stroke="#63b8ff" points="722.42,-72.98 732.85,-74.81 725.84,-66.87 722.42,-72.98"/>
</a>
</g>
</g>
<!-- Node6 -->
<g id="Node000006" class="node">
<title>Node6</title>
<g id="a_Node000006"><a xlink:href="../../d3/dfd/class_note_editor_u_i.html#a41e928a368befa223a486e3417e26382" target="_top" xlink:title=" ">
<polygon fill="white" stroke="#666666" points="453,-99 308,-99 308,-79 453,-79 453,-99"/>
<text xml:space="preserve" text-anchor="middle" x="380.5" y="-85.5" font-family="Helvetica,sans-Serif" font-size="10.00">NoteEditorUI::renderOneTab_</text>
</a>
</g>
</g>
<!-- Node5&#45;&gt;Node6 -->
<g id="edge5_Node000005_Node000006" class="edge">
<title>Node5&#45;&gt;Node6</title>
<g id="a_edge5_Node000005_Node000006"><a xlink:title=" ">
<path fill="none" stroke="#63b8ff" d="M480.29,-87.38C471.24,-87.53 462.09,-87.68 453.2,-87.83"/>
<polygon fill="#63b8ff" stroke="#63b8ff" points="480.23,-90.89 490.17,-87.22 480.12,-83.89 480.23,-90.89"/>
</a>
</g>
</g>
<!-- Node7 -->
<g id="Node000007" class="node">
<title>Node7</title>
<g id="a_Node000007"><a xlink:href="../../d3/dfd/class_note_editor_u_i.html#a3ea6ba49489a982beddb2ed1c4e46cf3" target="_top" xlink:title=" ">
<polygon fill="white" stroke="#666666" points="269,-108 142,-108 142,-76 269,-76 269,-108"/>
<text xml:space="preserve" text-anchor="start" x="150" y="-94.5" font-family="Helvetica,sans-Serif" font-size="10.00">NoteEditorUI::renderTabs</text>
<text xml:space="preserve" text-anchor="middle" x="205.5" y="-82.5" font-family="Helvetica,sans-Serif" font-size="10.00">Area_</text>
</a>
</g>
</g>
<!-- Node6&#45;&gt;Node7 -->
<g id="edge6_Node000006_Node000007" class="edge">
<title>Node6&#45;&gt;Node7</title>
<g id="a_edge6_Node000006_Node000007"><a xlink:title=" ">
<path fill="none" stroke="#63b8ff" d="M296.22,-90.44C287.17,-90.6 278.07,-90.76 269.32,-90.91"/>
<polygon fill="#63b8ff" stroke="#63b8ff" points="296.18,-93.95 306.12,-90.27 296.06,-86.95 296.18,-93.95"/>
</a>
</g>
</g>
<!-- Node7&#45;&gt;Node8 -->
<g id="edge7_Node000007_Node000008" class="edge">
<title>Node7&#45;&gt;Node8</title>
<g id="a_edge7_Node000007_Node000008"><a xlink:title=" ">
<path fill="none" stroke="#63b8ff" d="M137.68,-72.46C121.1,-67.62 103.97,-62.61 89.56,-58.4"/>
<polygon fill="#63b8ff" stroke="#63b8ff" points="136.43,-75.74 147.01,-75.19 138.39,-69.03 136.43,-75.74"/>
</a>
</g>
</g>
<!-- Node9&#45;&gt;Node8 -->
<g id="edge10_Node000009_Node000008" class="edge">
<title>Node9&#45;&gt;Node8</title>
<g id="a_edge10_Node000009_Node000008"><a xlink:title=" ">
<path fill="none" stroke="#63b8ff" d="M293.53,-17.5C248.35,-21.74 192.1,-27.49 142,-34 130.34,-35.52 117.85,-37.36 106.05,-39.22"/>
<polygon fill="#63b8ff" stroke="#63b8ff" points="293.62,-21 303.26,-16.59 292.98,-14.03 293.62,-21"/>
</a>
</g>
</g>
</g>
</svg>
