<?xml version="1.0" encoding="UTF-8" standalone="no"?>
<!DOCTYPE svg PUBLIC "-//W3C//DTD SVG 1.1//EN"
 "http://www.w3.org/Graphics/SVG/1.1/DTD/svg11.dtd">
<!-- Generated by graphviz version 14.0.2 (20251019.1705)
 -->
<!-- Title: SignalingServer::~SignalingServer Pages: 1 -->
<svg width="585pt" height="84pt"
 viewBox="0.00 0.00 585.00 84.00" xmlns="http://www.w3.org/2000/svg" xmlns:xlink="http://www.w3.org/1999/xlink">
<g id="graph0" class="graph" transform="scale(1 1) rotate(0) translate(4 80)">
<title>SignalingServer::~SignalingServer</title>
<!-- Node1 -->
<g id="Node000001" class="node">
<title>Node1</title>
<g id="a_Node000001"><a xlink:title=" ">
<polygon fill="#999999" stroke="#666666" points="136,-54 0,-54 0,-22 136,-22 136,-54"/>
<text xml:space="preserve" text-anchor="start" x="8" y="-40.5" font-family="Helvetica,sans-Serif" font-size="10.00">SignalingServer::~Signaling</text>
<text xml:space="preserve" text-anchor="middle" x="68" y="-28.5" font-family="Helvetica,sans-Serif" font-size="10.00">Server</text>
</a>
</g>
</g>
<!-- Node2 -->
<g id="Node000002" class="node">
<title>Node2</title>
<g id="a_Node000002"><a xlink:href="../../d7/d85/class_signaling_server.html#ad1eb7f34bf1ee45ab24d16020ffcb889" target="_top" xlink:title=" ">
<polygon fill="white" stroke="#666666" points="281,-48 172,-48 172,-28 281,-28 281,-48"/>
<text xml:space="preserve" text-anchor="middle" x="226.5" y="-34.5" font-family="Helvetica,sans-Serif" font-size="10.00">SignalingServer::stop</text>
</a>
</g>
</g>
<!-- Node1&#45;&gt;Node2 -->
<g id="edge1_Node000001_Node000002" class="edge">
<title>Node1&#45;&gt;Node2</title>
<g id="a_edge1_Node000001_Node000002"><a xlink:title=" ">
<path fill="none" stroke="#63b8ff" d="M136.28,-38C144.39,-38 152.66,-38 160.73,-38"/>
<polygon fill="#63b8ff" stroke="#63b8ff" points="160.46,-41.5 170.46,-38 160.46,-34.5 160.46,-41.5"/>
</a>
</g>
</g>
<!-- Node3 -->
<g id="Node000003" class="node">
<title>Node3</title>
<g id="a_Node000003"><a xlink:href="../../d5/d81/class_network_utilities.html#ac24b451c3d4b386916a1062480656c00" target="_top" xlink:title=" ">
<polygon fill="white" stroke="#666666" points="453,-54 317,-54 317,-22 453,-22 453,-54"/>
<text xml:space="preserve" text-anchor="start" x="325" y="-40.5" font-family="Helvetica,sans-Serif" font-size="10.00">NetworkUtilities::safeClose</text>
<text xml:space="preserve" text-anchor="middle" x="385" y="-28.5" font-family="Helvetica,sans-Serif" font-size="10.00">WebSocket</text>
</a>
</g>
</g>
<!-- Node2&#45;&gt;Node3 -->
<g id="edge2_Node000002_Node000003" class="edge">
<title>Node2&#45;&gt;Node3</title>
<g id="a_edge2_Node000002_Node000003"><a xlink:title=" ">
<path fill="none" stroke="#63b8ff" d="M281.36,-38C289.11,-38 297.22,-38 305.33,-38"/>
<polygon fill="#63b8ff" stroke="#63b8ff" points="305.26,-41.5 315.26,-38 305.26,-34.5 305.26,-41.5"/>
</a>
</g>
</g>
<!-- Node4 -->
<g id="Node000004" class="node">
<title>Node4</title>
<g id="a_Node000004"><a xlink:href="../../d3/d42/class_logger.html#aebb248e608f8e2724de20b482cb2a15f" target="_top" xlink:title=" ">
<polygon fill="white" stroke="#666666" points="577,-76 489,-76 489,-56 577,-56 577,-76"/>
<text xml:space="preserve" text-anchor="middle" x="533" y="-62.5" font-family="Helvetica,sans-Serif" font-size="10.00">Logger::instance</text>
</a>
</g>
</g>
<!-- Node3&#45;&gt;Node4 -->
<g id="edge3_Node000003_Node000004" class="edge">
<title>Node3&#45;&gt;Node4</title>
<g id="a_edge3_Node000003_Node000004"><a xlink:title=" ">
<path fill="none" stroke="#63b8ff" d="M453.44,-50.93C461.48,-52.47 469.6,-54.03 477.42,-55.53"/>
<polygon fill="#63b8ff" stroke="#63b8ff" points="476.65,-58.95 487.13,-57.39 477.97,-52.07 476.65,-58.95"/>
</a>
</g>
</g>
<!-- Node5 -->
<g id="Node000005" class="node">
<title>Node5</title>
<g id="a_Node000005"><a xlink:href="../../d3/d42/class_logger.html#ab77a9a6a08954192b47c39f359b5d370" target="_top" xlink:title=" ">
<polygon fill="white" stroke="#666666" points="565,-20 501,-20 501,0 565,0 565,-20"/>
<text xml:space="preserve" text-anchor="middle" x="533" y="-6.5" font-family="Helvetica,sans-Serif" font-size="10.00">Logger::log</text>
</a>
</g>
</g>
<!-- Node3&#45;&gt;Node5 -->
<g id="edge4_Node000003_Node000005" class="edge">
<title>Node3&#45;&gt;Node5</title>
<g id="a_edge4_Node000003_Node000005"><a xlink:title=" ">
<path fill="none" stroke="#63b8ff" d="M453.44,-25.07C465.64,-22.73 478.05,-20.35 489.29,-18.19"/>
<polygon fill="#63b8ff" stroke="#63b8ff" points="489.88,-21.64 499.04,-16.32 488.56,-14.77 489.88,-21.64"/>
</a>
</g>
</g>
<!-- Node5&#45;&gt;Node5 -->
<g id="edge5_Node000005_Node000005" class="edge">
<title>Node5&#45;&gt;Node5</title>
<g id="a_edge5_Node000005_Node000005"><a xlink:title=" ">
<path fill="none" stroke="#63b8ff" d="M509.48,-20.34C499.43,-28.98 507.27,-38 533,-38 547.07,-38 555.79,-35.3 559.16,-31.44"/>
<polygon fill="#63b8ff" stroke="#63b8ff" points="562.59,-30.73 556.87,-21.81 555.78,-32.35 562.59,-30.73"/>
</a>
</g>
</g>
</g>
</svg>
