<?xml version="1.0" encoding="UTF-8" standalone="no"?>
<!DOCTYPE svg PUBLIC "-//W3C//DTD SVG 1.1//EN"
 "http://www.w3.org/Graphics/SVG/1.1/DTD/svg11.dtd">
<!-- Generated by graphviz version 14.0.2 (20251019.1705)
 -->
<!-- Title: SignalingServer::start Pages: 1 -->
<!--zoomable 142 -->

<svg id="main" version="1.1" xmlns="http://www.w3.org/2000/svg" xmlns:xlink="http://www.w3.org/1999/xlink" xml:space="preserve" onload="init(evt)">
<style type="text/css"><![CDATA[
.node, .edge {opacity: 0.7;}
.node.selected, .edge.selected {opacity: 1;}
.edge:hover path { stroke: red; }
.edge:hover polygon { stroke: red; fill: red; }
]]></style>

<defs>
  <circle id="rim" cx="0" cy="0" r="7"/>
  <circle id="rim2" cx="0" cy="0" r="3.5"/>
  <g id="zoomPlus">
    <use xlink:href="#rim" fill="#404040"><set attributeName="fill" to="#808080" begin="zoomplus.mouseover" end="zoomplus.mouseout"/></use>
    <path d="M-4,0h8M0,-4v8" fill="none" stroke="white" stroke-width="1.5" pointer-events="none"/>
  </g>
  <g id="zoomMin">
    <use xlink:href="#rim" fill="#404040"><set attributeName="fill" to="#808080" begin="zoomminus.mouseover" end="zoomminus.mouseout"/></use>
    <path d="M-4,0h8" fill="none" stroke="white" stroke-width="1.5" pointer-events="none"/>
  </g>
  <g id="arrowUp" transform="translate(30 24)">
    <use xlink:href="#rim"/>
    <path pointer-events="none" fill="none" stroke="white" stroke-width="1.5" d="M0,-3.0v7 M-2.5,-0.5L0,-3.0L2.5,-0.5"/>
  </g>
  <g id="arrowRight" transform="rotate(90) translate(36 -43)">
    <use xlink:href="#rim"/>
    <path pointer-events="none" fill="none" stroke="white" stroke-width="1.5" d="M0,-3.0v7 M-2.5,-0.5L0,-3.0L2.5,-0.5"/>
  </g>
  <g id="arrowDown" transform="rotate(180) translate(-30 -48)">
    <use xlink:href="#rim"/>
    <path pointer-events="none" fill="none" stroke="white" stroke-width="1.5" d="M0,-3.0v7 M-2.5,-0.5L0,-3.0L2.5,-0.5"/>
  </g>
  <g id="arrowLeft" transform="rotate(270) translate(-36 17)">
    <use xlink:href="#rim"/>
    <path pointer-events="none" fill="none" stroke="white" stroke-width="1.5" d="M0,-3.0v7 M-2.5,-0.5L0,-3.0L2.5,-0.5"/>
  </g>
  <g id="resetDef">
    <use xlink:href="#rim2" fill="#404040"><set attributeName="fill" to="#808080" begin="reset.mouseover" end="reset.mouseout"/></use>
  </g>
</defs>
<script type="application/ecmascript">
var viewWidth = 515;
var viewHeight = 142;
var sectionId = 'dynsection-11';
</script>
<script type="application/ecmascript" xlink:href="../../svg.min.js"/>
<svg id="graph" class="graph">
<g id="viewport">
<title>SignalingServer::start</title>
<!-- Node1 -->
<g id="Node000001" class="node">
<title>Node1</title>
<g id="a_Node000001"><a xlink:title=" ">
<polygon fill="#999999" stroke="#666666" points="109.75,-96 0,-96 0,-76 109.75,-76 109.75,-96"/>
<text xml:space="preserve" text-anchor="middle" x="54.88" y="-82.5" font-family="Helvetica,sans-Serif" font-size="10.00">SignalingServer::start</text>
</a>
</g>
</g>
<!-- Node2 -->
<g id="Node000002" class="node">
<title>Node2</title>
<g id="a_Node000002"><a xlink:href="../../d7/d85/class_signaling_server.html#a64ed3edfe61396c7d723022cddf9db61" target="_top" xlink:title=" ">
<polygon fill="white" stroke="#666666" points="284.75,-115 147.25,-115 147.25,-95 284.75,-95 284.75,-115"/>
<text xml:space="preserve" text-anchor="middle" x="216" y="-101.5" font-family="Helvetica,sans-Serif" font-size="10.00">SignalingServer::onConnect</text>
</a>
</g>
</g>
<!-- Node1&#45;&gt;Node2 -->
<g id="edge1_Node000001_Node000002" class="edge">
<title>Node1&#45;&gt;Node2</title>
<g id="a_edge1_Node000001_Node000002"><a xlink:title=" ">
<path fill="none" stroke="#63b8ff" d="M110.19,-92.49C118.39,-93.46 126.99,-94.49 135.59,-95.52"/>
<polygon fill="#63b8ff" stroke="#63b8ff" points="135.01,-98.97 145.35,-96.68 135.84,-92.02 135.01,-98.97"/>
</a>
</g>
</g>
<!-- Node3 -->
<g id="Node000003" class="node">
<title>Node3</title>
<g id="a_Node000003"><a xlink:href="../../d7/d85/class_signaling_server.html#a1bff9775c26724fe03a5bac447e0dd3b" target="_top" xlink:title=" ">
<polygon fill="white" stroke="#666666" points="286.25,-77 145.75,-77 145.75,-57 286.25,-57 286.25,-77"/>
<text xml:space="preserve" text-anchor="middle" x="216" y="-63.5" font-family="Helvetica,sans-Serif" font-size="10.00">SignalingServer::onMessage</text>
</a>
</g>
</g>
<!-- Node1&#45;&gt;Node3 -->
<g id="edge2_Node000001_Node000003" class="edge">
<title>Node1&#45;&gt;Node3</title>
<g id="a_edge2_Node000001_Node000003"><a xlink:title=" ">
<path fill="none" stroke="#63b8ff" d="M110.19,-79.51C117.9,-78.59 125.97,-77.63 134.05,-76.67"/>
<polygon fill="#63b8ff" stroke="#63b8ff" points="134.44,-80.14 143.95,-75.48 133.61,-73.19 134.44,-80.14"/>
</a>
</g>
</g>
<!-- Node4 -->
<g id="Node000004" class="node">
<title>Node4</title>
<g id="a_Node000004"><a xlink:href="../../d7/d85/class_signaling_server.html#a2c6fdfc468ee96cdb28722a11664845a" target="_top" xlink:title=" ">
<polygon fill="white" stroke="#666666" points="493.5,-134 335.75,-134 335.75,-114 493.5,-114 493.5,-134"/>
<text xml:space="preserve" text-anchor="middle" x="414.62" y="-120.5" font-family="Helvetica,sans-Serif" font-size="10.00">SignalingServer::isAuthenticated</text>
</a>
</g>
</g>
<!-- Node3&#45;&gt;Node4 -->
<g id="edge3_Node000003_Node000004" class="edge">
<title>Node3&#45;&gt;Node4</title>
<g id="a_edge3_Node000003_Node000004"><a xlink:title=" ">
<path fill="none" stroke="#63b8ff" d="M260.7,-77.43C269.28,-79.91 278.14,-82.79 286.25,-86 303.07,-92.66 305.23,-98.88 322.25,-105 328.21,-107.14 334.48,-109.07 340.82,-110.81"/>
<polygon fill="#63b8ff" stroke="#63b8ff" points="339.51,-114.09 350.06,-113.17 341.24,-107.3 339.51,-114.09"/>
</a>
</g>
</g>
<!-- Node5 -->
<g id="Node000005" class="node">
<title>Node5</title>
<g id="a_Node000005"><a xlink:href="../../d5/d64/namespacemsg.html#a86e3987841ce342ed4a4257a3ba2ff28" target="_top" xlink:title=" ">
<polygon fill="white" stroke="#666666" points="479.25,-96 350,-96 350,-76 479.25,-76 479.25,-96"/>
<text xml:space="preserve" text-anchor="middle" x="414.62" y="-82.5" font-family="Helvetica,sans-Serif" font-size="10.00">msg::makeAuthResponse</text>
</a>
</g>
</g>
<!-- Node3&#45;&gt;Node5 -->
<g id="edge4_Node000003_Node000005" class="edge">
<title>Node3&#45;&gt;Node5</title>
<g id="a_edge4_Node000003_Node000005"><a xlink:title=" ">
<path fill="none" stroke="#63b8ff" d="M286.6,-73.73C303.46,-75.35 321.55,-77.1 338.64,-78.75"/>
<polygon fill="#63b8ff" stroke="#63b8ff" points="337.91,-82.2 348.2,-79.68 338.58,-75.23 337.91,-82.2"/>
</a>
</g>
</g>
<!-- Node6 -->
<g id="Node000006" class="node">
<title>Node6</title>
<g id="a_Node000006"><a xlink:href="../../d7/d85/class_signaling_server.html#a8d9fc20c0e4d459bb2c4058c2de70a74" target="_top" xlink:title=" ">
<polygon fill="white" stroke="#666666" points="507,-58 322.25,-58 322.25,-38 507,-38 507,-58"/>
<text xml:space="preserve" text-anchor="middle" x="414.62" y="-44.5" font-family="Helvetica,sans-Serif" font-size="10.00">SignalingServer::moveToAuthenticated</text>
</a>
</g>
</g>
<!-- Node3&#45;&gt;Node6 -->
<g id="edge5_Node000003_Node000006" class="edge">
<title>Node3&#45;&gt;Node6</title>
<g id="a_edge5_Node000003_Node000006"><a xlink:title=" ">
<path fill="none" stroke="#63b8ff" d="M286.6,-60.27C294.5,-59.51 302.67,-58.72 310.88,-57.93"/>
<polygon fill="#63b8ff" stroke="#63b8ff" points="310.96,-61.44 320.57,-56.99 310.28,-54.47 310.96,-61.44"/>
</a>
</g>
</g>
<!-- Node7 -->
<g id="Node000007" class="node">
<title>Node7</title>
<g id="a_Node000007"><a xlink:href="../../d7/d85/class_signaling_server.html#adf87cd0f47619053b3b8d14d3793028a" target="_top" xlink:title=" ">
<polygon fill="white" stroke="#666666" points="475.5,-20 353.75,-20 353.75,0 475.5,0 475.5,-20"/>
<text xml:space="preserve" text-anchor="middle" x="414.62" y="-6.5" font-family="Helvetica,sans-Serif" font-size="10.00">SignalingServer::sendTo</text>
</a>
</g>
</g>
<!-- Node3&#45;&gt;Node7 -->
<g id="edge6_Node000003_Node000007" class="edge">
<title>Node3&#45;&gt;Node7</title>
<g id="a_edge6_Node000003_Node000007"><a xlink:title=" ">
<path fill="none" stroke="#63b8ff" d="M242.62,-56.6C263.73,-48.31 294.58,-36.83 322.25,-29 329.97,-26.82 338.12,-24.77 346.24,-22.88"/>
<polygon fill="#63b8ff" stroke="#63b8ff" points="346.79,-26.34 355.79,-20.74 345.27,-19.51 346.79,-26.34"/>
</a>
</g>
</g>
</g>
</svg>

<g id="navigator" transform="translate(0 0)" fill="#404254">
  <rect fill="#f2f5e9" fill-opacity="0.5" stroke="#606060" stroke-width=".5" x="0" y="0" width="60" height="60"/>
  <use id="zoomplus" xlink:href="#zoomPlus" x="17" y="9" onmousedown="handleZoom(evt,'in')"/>
  <use id="zoomminus" xlink:href="#zoomMin" x="42" y="9" onmousedown="handleZoom(evt,'out')"/>
  <use id="reset" xlink:href="#resetDef" x="30" y="36" onmousedown="handleReset()"/>
   <use id="arrowup" xlink:href="#arrowUp" x="0" y="0" onmousedown="handlePan(0,-1)"/>
  <use id="arrowright" xlink:href="#arrowRight" x="0" y="0" onmousedown="handlePan(1,0)"/>
  <use id="arrowdown" xlink:href="#arrowDown" x="0" y="0" onmousedown="handlePan(0,1)"/>
  <use id="arrowleft" xlink:href="#arrowLeft" x="0" y="0" onmousedown="handlePan(-1,0)"/>
</g>
<svg viewBox="0 0 15 15" width="100%" height="30px" preserveAspectRatio="xMaxYMin meet">
 <g id="arrow_out" transform="scale(0.3 0.3)">
  <a xlink:href="class_signaling_server_abafab7138b02b0587351d777f3ece30e_cgraph_org.svg" target="_base">
   <rect id="button" ry="5" rx="5" y="6" x="6" height="38" width="38"
        fill="#f2f5e9" fill-opacity="0.5" stroke="#606060" stroke-width="1.0"/>
   <path id="arrow"
     d="M 11.500037,31.436501 C 11.940474,20.09759 22.043105,11.32322 32.158766,21.979434 L 37.068811,17.246167 C 37.068811,17.246167 37.088388,32 37.088388,32 L 22.160133,31.978069 C 22.160133,31.978069 26.997745,27.140456 26.997745,27.140456 C 18.528582,18.264221 13.291696,25.230495 11.500037,31.436501 z"
     style="fill:#404040;"/>
  </a>
 </g>
</svg>

<style type='text/css'>
<![CDATA[
[data-mouse-over-selected='false'] { opacity: 0.7; }
[data-mouse-over-selected='true']  { opacity: 1.0; }
]]>
</style>
<script type="application/ecmascript"><![CDATA[
document.addEventListener('DOMContentLoaded', (event) => {
  highlightEdges();
  highlightAdjacentNodes();
});
]]></script>
</svg>
