<?xml version="1.0" encoding="UTF-8" standalone="no"?>
<!DOCTYPE svg PUBLIC "-//W3C//DTD SVG 1.1//EN"
 "http://www.w3.org/Graphics/SVG/1.1/DTD/svg11.dtd">
<!-- Generated by graphviz version 2.43.0 (0)
 -->
<!-- Title: DebugConsole Pages: 1 -->
<!--zoomable 536 -->

<svg id="main" version="1.1" xmlns="http://www.w3.org/2000/svg" xmlns:xlink="http://www.w3.org/1999/xlink" xml:space="preserve" onload="init(evt)">
<style type="text/css"><![CDATA[
.node, .edge {opacity: 0.7;}
.node.selected, .edge.selected {opacity: 1;}
.edge:hover path { stroke: red; }
.edge:hover polygon { stroke: red; fill: red; }
]]></style>

<defs>
  <circle id="rim" cx="0" cy="0" r="7"/>
  <circle id="rim2" cx="0" cy="0" r="3.5"/>
  <g id="zoomPlus">
    <use xlink:href="#rim" fill="#404040"><set attributeName="fill" to="#808080" begin="zoomplus.mouseover" end="zoomplus.mouseout"/></use>
    <path d="M-4,0h8M0,-4v8" fill="none" stroke="white" stroke-width="1.5" pointer-events="none"/>
  </g>
  <g id="zoomMin">
    <use xlink:href="#rim" fill="#404040"><set attributeName="fill" to="#808080" begin="zoomminus.mouseover" end="zoomminus.mouseout"/></use>
    <path d="M-4,0h8" fill="none" stroke="white" stroke-width="1.5" pointer-events="none"/>
  </g>
  <g id="arrowUp" transform="translate(30 24)">
    <use xlink:href="#rim"/>
    <path pointer-events="none" fill="none" stroke="white" stroke-width="1.5" d="M0,-3.0v7 M-2.5,-0.5L0,-3.0L2.5,-0.5"/>
  </g>
  <g id="arrowRight" transform="rotate(90) translate(36 -43)">
    <use xlink:href="#rim"/>
    <path pointer-events="none" fill="none" stroke="white" stroke-width="1.5" d="M0,-3.0v7 M-2.5,-0.5L0,-3.0L2.5,-0.5"/>
  </g>
  <g id="arrowDown" transform="rotate(180) translate(-30 -48)">
    <use xlink:href="#rim"/>
    <path pointer-events="none" fill="none" stroke="white" stroke-width="1.5" d="M0,-3.0v7 M-2.5,-0.5L0,-3.0L2.5,-0.5"/>
  </g>
  <g id="arrowLeft" transform="rotate(270) translate(-36 17)">
    <use xlink:href="#rim"/>
    <path pointer-events="none" fill="none" stroke="white" stroke-width="1.5" d="M0,-3.0v7 M-2.5,-0.5L0,-3.0L2.5,-0.5"/>
  </g>
  <g id="resetDef">
    <use xlink:href="#rim2" fill="#404040"><set attributeName="fill" to="#808080" begin="reset.mouseover" end="reset.mouseout"/></use>
  </g>
</defs>
<script type="application/ecmascript">
var viewWidth = 704;
var viewHeight = 536;
var sectionId = 'dynsection-0';
</script>
<script type="application/ecmascript" xlink:href="../../svg.min.js"/>
<svg id="graph" class="graph">
<g id="viewport">
<title>DebugConsole</title>
<!-- Node1 -->
<g id="Node000001" class="node">
<title>Node1</title>
<g id="a_Node000001"><a xlink:title=" ">
<polygon fill="#999999" stroke="transparent" points="421.5,-410 192.5,-410 192.5,0 421.5,0 421.5,-410"/>
<text text-anchor="start" x="272" y="-398" font-family="Helvetica,sans-Serif" font-size="10.00">DebugConsole</text>
<text text-anchor="start" x="305.5" y="-383" font-family="Helvetica,sans-Serif" font-size="10.00"> </text>
<text text-anchor="start" x="197" y="-368" font-family="Helvetica,sans-Serif" font-size="10.00">+</text>
<text text-anchor="start" x="210" y="-368" font-family="Helvetica,sans-Serif" font-size="10.00">static void setLocalTunnelHandlers</text>
<text text-anchor="start" x="210" y="-357" font-family="Helvetica,sans-Serif" font-size="10.00">(std::function&lt; std::string()&gt; startHandler,</text>
<text text-anchor="start" x="210" y="-346" font-family="Helvetica,sans-Serif" font-size="10.00"> std::function&lt; void()&gt; stopHandler)</text>
<text text-anchor="start" x="197" y="-331" font-family="Helvetica,sans-Serif" font-size="10.00">+</text>
<text text-anchor="start" x="210" y="-331" font-family="Helvetica,sans-Serif" font-size="10.00">static void setIdentityLogger</text>
<text text-anchor="start" x="210" y="-320" font-family="Helvetica,sans-Serif" font-size="10.00">(std::function&lt; std::string()</text>
<text text-anchor="start" x="210" y="-309" font-family="Helvetica,sans-Serif" font-size="10.00">&gt; identityLogger)</text>
<text text-anchor="start" x="197" y="-294" font-family="Helvetica,sans-Serif" font-size="10.00">+</text>
<text text-anchor="start" x="210" y="-294" font-family="Helvetica,sans-Serif" font-size="10.00">static void addToggle(const</text>
<text text-anchor="start" x="210" y="-283" font-family="Helvetica,sans-Serif" font-size="10.00"> DebugToggle &amp;t)</text>
<text text-anchor="start" x="197" y="-268" font-family="Helvetica,sans-Serif" font-size="10.00">+</text>
<text text-anchor="start" x="210" y="-268" font-family="Helvetica,sans-Serif" font-size="10.00">static void clearToggles()</text>
<text text-anchor="start" x="197" y="-253" font-family="Helvetica,sans-Serif" font-size="10.00">+</text>
<text text-anchor="start" x="210" y="-253" font-family="Helvetica,sans-Serif" font-size="10.00">static void RunActiveDebugToggles()</text>
<text text-anchor="start" x="197" y="-238" font-family="Helvetica,sans-Serif" font-size="10.00">+</text>
<text text-anchor="start" x="210" y="-238" font-family="Helvetica,sans-Serif" font-size="10.00">static void setDebugExecEnabled(bool v)</text>
<text text-anchor="start" x="197" y="-223" font-family="Helvetica,sans-Serif" font-size="10.00">+</text>
<text text-anchor="start" x="210" y="-223" font-family="Helvetica,sans-Serif" font-size="10.00">static bool isDebugExecEnabled()</text>
<text text-anchor="start" x="197" y="-208" font-family="Helvetica,sans-Serif" font-size="10.00">+</text>
<text text-anchor="start" x="210" y="-208" font-family="Helvetica,sans-Serif" font-size="10.00">static void setVisible(bool v)</text>
<text text-anchor="start" x="197" y="-193" font-family="Helvetica,sans-Serif" font-size="10.00">+</text>
<text text-anchor="start" x="210" y="-193" font-family="Helvetica,sans-Serif" font-size="10.00">static bool isVisible()</text>
<text text-anchor="start" x="197" y="-178" font-family="Helvetica,sans-Serif" font-size="10.00">+</text>
<text text-anchor="start" x="210" y="-178" font-family="Helvetica,sans-Serif" font-size="10.00">static void setActiveChannel</text>
<text text-anchor="start" x="210" y="-167" font-family="Helvetica,sans-Serif" font-size="10.00">(const std::string &amp;ch)</text>
<text text-anchor="start" x="197" y="-152" font-family="Helvetica,sans-Serif" font-size="10.00">+</text>
<text text-anchor="start" x="210" y="-152" font-family="Helvetica,sans-Serif" font-size="10.00">static const std::string &amp;</text>
<text text-anchor="start" x="210" y="-141" font-family="Helvetica,sans-Serif" font-size="10.00"> activeChannel()</text>
<text text-anchor="start" x="197" y="-126" font-family="Helvetica,sans-Serif" font-size="10.00">+</text>
<text text-anchor="start" x="210" y="-126" font-family="Helvetica,sans-Serif" font-size="10.00">static void bootstrapStdCapture()</text>
<text text-anchor="start" x="197" y="-111" font-family="Helvetica,sans-Serif" font-size="10.00">+</text>
<text text-anchor="start" x="210" y="-111" font-family="Helvetica,sans-Serif" font-size="10.00">static void Render()</text>
<text text-anchor="start" x="199.5" y="-96" font-family="Helvetica,sans-Serif" font-size="10.00">&#45;</text>
<text text-anchor="start" x="210" y="-96" font-family="Helvetica,sans-Serif" font-size="10.00">static void buildChannelLists</text>
<text text-anchor="start" x="210" y="-85" font-family="Helvetica,sans-Serif" font-size="10.00">_(std::vector&lt; std::string &gt;</text>
<text text-anchor="start" x="210" y="-74" font-family="Helvetica,sans-Serif" font-size="10.00"> &amp;display, std::vector&lt; std::string</text>
<text text-anchor="start" x="210" y="-63" font-family="Helvetica,sans-Serif" font-size="10.00"> &gt; &amp;order)</text>
<text text-anchor="start" x="199.5" y="-48" font-family="Helvetica,sans-Serif" font-size="10.00">&#45;</text>
<text text-anchor="start" x="210" y="-48" font-family="Helvetica,sans-Serif" font-size="10.00">static void renderLeftPanel_()</text>
<text text-anchor="start" x="199.5" y="-33" font-family="Helvetica,sans-Serif" font-size="10.00">&#45;</text>
<text text-anchor="start" x="210" y="-33" font-family="Helvetica,sans-Serif" font-size="10.00">static void renderRightPanel_()</text>
<text text-anchor="start" x="199.5" y="-18" font-family="Helvetica,sans-Serif" font-size="10.00">&#45;</text>
<text text-anchor="start" x="210" y="-18" font-family="Helvetica,sans-Serif" font-size="10.00">static ImVec4 colorForLevel</text>
<text text-anchor="start" x="210" y="-7" font-family="Helvetica,sans-Serif" font-size="10.00">_(Logger::Level lvl)</text>
<polygon fill="#666666" stroke="#666666" points="193,-393 193,-393 422,-393 422,-393 193,-393"/>
<polygon fill="#666666" stroke="#666666" points="193,-378 193,-378 422,-378 422,-378 193,-378"/>
<polygon fill="none" stroke="#666666" points="192.5,0 192.5,-410 421.5,-410 421.5,0 192.5,0"/>
</a>
</g>
</g>
<!-- Node2 -->
<g id="Node000002" class="node">
<title>Node2</title>
<g id="a_Node000002"><a xlink:title=" ">
<polygon fill="white" stroke="transparent" points="32,-528 0,-528 0,-479 32,-479 32,-528"/>
<text text-anchor="start" x="5" y="-515.5" font-family="Helvetica,sans-Serif" font-size="10.00">bool</text>
<text text-anchor="start" x="14" y="-500.5" font-family="Helvetica,sans-Serif" font-size="10.00"> </text>
<text text-anchor="start" x="14" y="-485.5" font-family="Helvetica,sans-Serif" font-size="10.00"> </text>
<polygon fill="#666666" stroke="#666666" points="0,-510.5 0,-510.5 32,-510.5 32,-510.5 0,-510.5"/>
<polygon fill="#666666" stroke="#666666" points="0,-495.5 0,-495.5 32,-495.5 32,-495.5 0,-495.5"/>
<polygon fill="none" stroke="#666666" points="0,-479 0,-528 32,-528 32,-479 0,-479"/>
</a>
</g>
</g>
<!-- Node2&#45;&gt;Node1 -->
<g id="edge1_Node000001_Node000002" class="edge">
<title>Node2&#45;&gt;Node1</title>
<g id="a_edge1_Node000001_Node000002"><a xlink:title=" ">
<path fill="none" stroke="#63b8ff" d="M22.29,-478.88C27.14,-463.45 34.91,-443.38 46,-428 83.33,-376.19 135.24,-328.8 182.95,-291.23"/>
<polygon fill="none" stroke="#63b8ff" points="182.96,-291.22 185.24,-284.38 192.43,-283.85 190.15,-290.69 182.96,-291.22"/>
</a>
</g>
<text text-anchor="middle" x="96.5" y="-453" font-family="Helvetica,sans-Serif" font-size="10.00" fill="grey"> &#45;autoScroll_</text>
<text text-anchor="middle" x="96.5" y="-442" font-family="Helvetica,sans-Serif" font-size="10.00" fill="grey">&#45;debugExecEnabled_</text>
<text text-anchor="middle" x="96.5" y="-431" font-family="Helvetica,sans-Serif" font-size="10.00" fill="grey">&#45;visible_</text>
</g>
<!-- Node3 -->
<g id="Node000003" class="node">
<title>Node3</title>
<g id="a_Node000003"><a xlink:title=" ">
<polygon fill="white" stroke="transparent" points="159,-528 121,-528 121,-479 159,-479 159,-528"/>
<text text-anchor="start" x="126" y="-515.5" font-family="Helvetica,sans-Serif" font-size="10.00">string</text>
<text text-anchor="start" x="138" y="-500.5" font-family="Helvetica,sans-Serif" font-size="10.00"> </text>
<text text-anchor="start" x="138" y="-485.5" font-family="Helvetica,sans-Serif" font-size="10.00"> </text>
<polygon fill="#666666" stroke="#666666" points="121,-510.5 121,-510.5 159,-510.5 159,-510.5 121,-510.5"/>
<polygon fill="#666666" stroke="#666666" points="121,-495.5 121,-495.5 159,-495.5 159,-495.5 121,-495.5"/>
<polygon fill="none" stroke="#666666" points="121,-479 121,-528 159,-528 159,-479 121,-479"/>
</a>
</g>
</g>
<!-- Node3&#45;&gt;Node1 -->
<g id="edge2_Node000001_Node000003" class="edge">
<title>Node3&#45;&gt;Node1</title>
<g id="a_edge2_Node000001_Node000003"><a xlink:title=" ">
<path fill="none" stroke="#63b8ff" d="M145.54,-478.73C149.46,-463.78 155.37,-444.31 163,-428 170.08,-412.87 178.05,-397.56 186.52,-382.42"/>
<polygon fill="none" stroke="#63b8ff" points="186.52,-382.41 186.01,-375.22 192.45,-371.98 192.97,-379.17 186.52,-382.41"/>
</a>
</g>
<text text-anchor="middle" x="204" y="-442" font-family="Helvetica,sans-Serif" font-size="10.00" fill="grey"> &#45;activeChannel_</text>
</g>
<!-- Node4 -->
<g id="Node000004" class="node">
<title>Node4</title>
<g id="a_Node000004"><a xlink:title=" ">
<polygon fill="white" stroke="transparent" points="303,-528 177,-528 177,-479 303,-479 303,-528"/>
<text text-anchor="start" x="182" y="-515.5" font-family="Helvetica,sans-Serif" font-size="10.00">function&lt; std::string()&gt;</text>
<text text-anchor="start" x="238" y="-500.5" font-family="Helvetica,sans-Serif" font-size="10.00"> </text>
<text text-anchor="start" x="238" y="-485.5" font-family="Helvetica,sans-Serif" font-size="10.00"> </text>
<polygon fill="#666666" stroke="#666666" points="177,-510.5 177,-510.5 303,-510.5 303,-510.5 177,-510.5"/>
<polygon fill="#666666" stroke="#666666" points="177,-495.5 177,-495.5 303,-495.5 303,-495.5 177,-495.5"/>
<polygon fill="none" stroke="#666666" points="177,-479 177,-528 303,-528 303,-479 177,-479"/>
</a>
</g>
</g>
<!-- Node4&#45;&gt;Node1 -->
<g id="edge3_Node000001_Node000004" class="edge">
<title>Node4&#45;&gt;Node1</title>
<g id="a_edge3_Node000001_Node000004"><a xlink:title=" ">
<path fill="none" stroke="#63b8ff" d="M245.31,-478.99C248.57,-464.57 253.09,-444.56 258.23,-421.84"/>
<polygon fill="none" stroke="#63b8ff" points="258.23,-421.82 255.65,-415.09 260.88,-410.12 263.45,-416.85 258.23,-421.82"/>
</a>
</g>
<text text-anchor="middle" x="297.5" y="-447.5" font-family="Helvetica,sans-Serif" font-size="10.00" fill="grey"> &#45;identityLogger_</text>
<text text-anchor="middle" x="297.5" y="-436.5" font-family="Helvetica,sans-Serif" font-size="10.00" fill="grey">&#45;ltStart_</text>
</g>
<!-- Node5 -->
<g id="Node000005" class="node">
<title>Node5</title>
<g id="a_Node000005"><a xlink:title=" ">
<polygon fill="white" stroke="transparent" points="419,-528 321,-528 321,-479 419,-479 419,-528"/>
<text text-anchor="start" x="326" y="-515.5" font-family="Helvetica,sans-Serif" font-size="10.00">function&lt; void()&gt;</text>
<text text-anchor="start" x="368" y="-500.5" font-family="Helvetica,sans-Serif" font-size="10.00"> </text>
<text text-anchor="start" x="368" y="-485.5" font-family="Helvetica,sans-Serif" font-size="10.00"> </text>
<polygon fill="#666666" stroke="#666666" points="321,-510.5 321,-510.5 419,-510.5 419,-510.5 321,-510.5"/>
<polygon fill="#666666" stroke="#666666" points="321,-495.5 321,-495.5 419,-495.5 419,-495.5 321,-495.5"/>
<polygon fill="none" stroke="#666666" points="321,-479 321,-528 419,-528 419,-479 321,-479"/>
</a>
</g>
</g>
<!-- Node5&#45;&gt;Node1 -->
<g id="edge4_Node000001_Node000005" class="edge">
<title>Node5&#45;&gt;Node1</title>
<g id="a_edge4_Node000001_Node000005"><a xlink:title=" ">
<path fill="none" stroke="#63b8ff" d="M365,-478.99C361.96,-464.64 357.73,-444.74 352.93,-422.16"/>
<polygon fill="none" stroke="#63b8ff" points="352.86,-421.85 347.7,-416.82 350.37,-410.12 355.53,-415.15 352.86,-421.85"/>
</a>
</g>
<text text-anchor="middle" x="380.5" y="-442" font-family="Helvetica,sans-Serif" font-size="10.00" fill="grey"> &#45;ltStop_</text>
</g>
<!-- Node6 -->
<g id="Node000006" class="node">
<title>Node6</title>
<g id="a_Node000006"><a xlink:title=" ">
<polygon fill="white" stroke="transparent" points="564.5,-528 437.5,-528 437.5,-479 564.5,-479 564.5,-528"/>
<text text-anchor="start" x="443" y="-515.5" font-family="Helvetica,sans-Serif" font-size="10.00">vector&lt; DebugToggle &gt;</text>
<text text-anchor="start" x="499.5" y="-500.5" font-family="Helvetica,sans-Serif" font-size="10.00"> </text>
<text text-anchor="start" x="499.5" y="-485.5" font-family="Helvetica,sans-Serif" font-size="10.00"> </text>
<polygon fill="#666666" stroke="#666666" points="438,-510.5 438,-510.5 565,-510.5 565,-510.5 438,-510.5"/>
<polygon fill="#666666" stroke="#666666" points="438,-495.5 438,-495.5 565,-495.5 565,-495.5 438,-495.5"/>
<polygon fill="none" stroke="#666666" points="437.5,-479 437.5,-528 564.5,-528 564.5,-479 437.5,-479"/>
</a>
</g>
</g>
<!-- Node6&#45;&gt;Node1 -->
<g id="edge5_Node000001_Node000006" class="edge">
<title>Node6&#45;&gt;Node1</title>
<g id="a_edge5_Node000001_Node000006"><a xlink:title=" ">
<path fill="none" stroke="#63b8ff" d="M485.61,-478.99C472.16,-458.42 451.23,-426.43 428.37,-391.49"/>
<polygon fill="none" stroke="#63b8ff" points="428.11,-391.11 421.48,-388.28 421.54,-381.06 428.18,-383.89 428.11,-391.11"/>
</a>
</g>
<text text-anchor="middle" x="496.5" y="-442" font-family="Helvetica,sans-Serif" font-size="10.00" fill="grey"> &#45;toggles_</text>
</g>
<!-- Node7 -->
<g id="Node000007" class="node">
<title>Node7</title>
<g id="a_Node000007"><a xlink:title=" ">
<polygon fill="white" stroke="transparent" points="695.5,-528 582.5,-528 582.5,-479 695.5,-479 695.5,-528"/>
<text text-anchor="start" x="588" y="-515.5" font-family="Helvetica,sans-Serif" font-size="10.00">vector&lt; std::string &gt;</text>
<text text-anchor="start" x="637.5" y="-500.5" font-family="Helvetica,sans-Serif" font-size="10.00"> </text>
<text text-anchor="start" x="637.5" y="-485.5" font-family="Helvetica,sans-Serif" font-size="10.00"> </text>
<polygon fill="#666666" stroke="#666666" points="583,-510.5 583,-510.5 696,-510.5 696,-510.5 583,-510.5"/>
<polygon fill="#666666" stroke="#666666" points="583,-495.5 583,-495.5 696,-495.5 696,-495.5 583,-495.5"/>
<polygon fill="none" stroke="#666666" points="582.5,-479 582.5,-528 695.5,-528 695.5,-479 582.5,-479"/>
</a>
</g>
</g>
<!-- Node7&#45;&gt;Node1 -->
<g id="edge6_Node000001_Node000007" class="edge">
<title>Node7&#45;&gt;Node1</title>
<g id="a_edge6_Node000001_Node000007"><a xlink:title=" ">
<path fill="none" stroke="#63b8ff" d="M612.67,-478.99C573.56,-444.06 497.58,-376.21 431.16,-316.89"/>
<polygon fill="none" stroke="#63b8ff" points="430.81,-316.57 423.67,-315.56 421.86,-308.58 429,-309.59 430.81,-316.57"/>
</a>
</g>
<text text-anchor="middle" x="629.5" y="-447.5" font-family="Helvetica,sans-Serif" font-size="10.00" fill="grey"> &#45;channelOrder_</text>
<text text-anchor="middle" x="629.5" y="-436.5" font-family="Helvetica,sans-Serif" font-size="10.00" fill="grey">&#45;displayNames_</text>
</g>
</g>
</svg>

<g id="navigator" transform="translate(0 0)" fill="#404254">
  <rect fill="#f2f5e9" fill-opacity="0.5" stroke="#606060" stroke-width=".5" x="0" y="0" width="60" height="60"/>
  <use id="zoomplus" xlink:href="#zoomPlus" x="17" y="9" onmousedown="handleZoom(evt,'in')"/>
  <use id="zoomminus" xlink:href="#zoomMin" x="42" y="9" onmousedown="handleZoom(evt,'out')"/>
  <use id="reset" xlink:href="#resetDef" x="30" y="36" onmousedown="handleReset()"/>
   <use id="arrowup" xlink:href="#arrowUp" x="0" y="0" onmousedown="handlePan(0,-1)"/>
  <use id="arrowright" xlink:href="#arrowRight" x="0" y="0" onmousedown="handlePan(1,0)"/>
  <use id="arrowdown" xlink:href="#arrowDown" x="0" y="0" onmousedown="handlePan(0,1)"/>
  <use id="arrowleft" xlink:href="#arrowLeft" x="0" y="0" onmousedown="handlePan(-1,0)"/>
</g>
<svg viewBox="0 0 15 15" width="100%" height="30px" preserveAspectRatio="xMaxYMin meet">
 <g id="arrow_out" transform="scale(0.3 0.3)">
  <a xlink:href="classDebugConsole__coll__graph_org.svg" target="_base">
   <rect id="button" ry="5" rx="5" y="6" x="6" height="38" width="38"
        fill="#f2f5e9" fill-opacity="0.5" stroke="#606060" stroke-width="1.0"/>
   <path id="arrow"
     d="M 11.500037,31.436501 C 11.940474,20.09759 22.043105,11.32322 32.158766,21.979434 L 37.068811,17.246167 C 37.068811,17.246167 37.088388,32 37.088388,32 L 22.160133,31.978069 C 22.160133,31.978069 26.997745,27.140456 26.997745,27.140456 C 18.528582,18.264221 13.291696,25.230495 11.500037,31.436501 z"
     style="fill:#404040;"/>
  </a>
 </g>
</svg>

<style type='text/css'>
<![CDATA[
[data-mouse-over-selected='false'] { opacity: 0.7; }
[data-mouse-over-selected='true']  { opacity: 1.0; }
]]>
</style>
<script type="application/ecmascript"><![CDATA[
document.addEventListener('DOMContentLoaded', (event) => {
  highlightEdges();
  highlightAdjacentNodes();
});
]]></script>
</svg>
