<?xml version="1.0" encoding="UTF-8" standalone="no"?>
<!DOCTYPE svg PUBLIC "-//W3C//DTD SVG 1.1//EN"
 "http://www.w3.org/Graphics/SVG/1.1/DTD/svg11.dtd">
<!-- Generated by graphviz version 2.43.0 (0)
 -->
<!-- Title: ChatMessageModel Pages: 1 -->
<svg width="210pt" height="175pt"
 viewBox="0.00 0.00 210.00 175.00" xmlns="http://www.w3.org/2000/svg" xmlns:xlink="http://www.w3.org/1999/xlink">

<svg id="main" version="1.1" xmlns="http://www.w3.org/2000/svg" xmlns:xlink="http://www.w3.org/1999/xlink" xml:space="preserve" onload="init(evt)">
<style type="text/css"><![CDATA[
.node, .edge {opacity: 0.7;}
.node.selected, .edge.selected {opacity: 1;}
.edge:hover path { stroke: red; }
.edge:hover polygon { stroke: red; fill: red; }
]]></style>
<script type="application/ecmascript" xlink:href="../../svg.min.js"/>
<svg id="graph" class="graph">
<g id="graph0" class="graph" transform="scale(1 1) rotate(0) translate(4 171)">
<title>ChatMessageModel</title>
<!-- Node1 -->
<g id="Node000001" class="node">
<title>Node1</title>
<g id="a_Node000001"><a xlink:title=" ">
<polygon fill="#999999" stroke="transparent" points="125.5,-49 18.5,-49 18.5,0 125.5,0 125.5,-49"/>
<text text-anchor="start" x="24" y="-36.5" font-family="Helvetica,sans-Serif" font-size="10.00">ChatMessageModel</text>
<text text-anchor="start" x="70.5" y="-21.5" font-family="Helvetica,sans-Serif" font-size="10.00"> </text>
<text text-anchor="start" x="70.5" y="-6.5" font-family="Helvetica,sans-Serif" font-size="10.00"> </text>
<polygon fill="#666666" stroke="#666666" points="19,-31.5 19,-31.5 126,-31.5 126,-31.5 19,-31.5"/>
<polygon fill="#666666" stroke="#666666" points="19,-16.5 19,-16.5 126,-16.5 126,-16.5 19,-16.5"/>
<polygon fill="none" stroke="#666666" points="18.5,0 18.5,-49 125.5,-49 125.5,0 18.5,0"/>
</a>
</g>
</g>
<!-- Node2 -->
<g id="Node000002" class="node">
<title>Node2</title>
<g id="a_Node000002"><a xlink:title=" ">
<polygon fill="white" stroke="transparent" points="32,-167 0,-167 0,-118 32,-118 32,-167"/>
<text text-anchor="start" x="5" y="-154.5" font-family="Helvetica,sans-Serif" font-size="10.00">Kind</text>
<text text-anchor="start" x="14" y="-139.5" font-family="Helvetica,sans-Serif" font-size="10.00"> </text>
<text text-anchor="start" x="14" y="-124.5" font-family="Helvetica,sans-Serif" font-size="10.00"> </text>
<polygon fill="#666666" stroke="#666666" points="0,-149.5 0,-149.5 32,-149.5 32,-149.5 0,-149.5"/>
<polygon fill="#666666" stroke="#666666" points="0,-134.5 0,-134.5 32,-134.5 32,-134.5 0,-134.5"/>
<polygon fill="none" stroke="#666666" points="0,-118 0,-167 32,-167 32,-118 0,-118"/>
</a>
</g>
</g>
<!-- Node2&#45;&gt;Node1 -->
<g id="edge1_Node000001_Node000002" class="edge">
<title>Node2&#45;&gt;Node1</title>
<g id="a_edge1_Node000001_Node000002"><a xlink:title=" ">
<path fill="none" stroke="#63b8ff" d="M19.05,-117.96C21.72,-102.76 26.54,-82.91 35,-67 36.52,-64.14 38.28,-61.32 40.18,-58.58"/>
<polygon fill="none" stroke="#63b8ff" points="40.22,-58.52 40.74,-51.33 47.57,-49.04 47.06,-56.23 40.22,-58.52"/>
</a>
</g>
<text text-anchor="middle" x="51.5" y="-81" font-family="Helvetica,sans-Serif" font-size="10.00" fill="grey"> +kind</text>
</g>
<!-- Node3 -->
<g id="Node000003" class="node">
<title>Node3</title>
<g id="a_Node000003"><a xlink:title=" ">
<polygon fill="white" stroke="transparent" points="91,-167 53,-167 53,-118 91,-118 91,-167"/>
<text text-anchor="start" x="58" y="-154.5" font-family="Helvetica,sans-Serif" font-size="10.00">string</text>
<text text-anchor="start" x="70" y="-139.5" font-family="Helvetica,sans-Serif" font-size="10.00"> </text>
<text text-anchor="start" x="70" y="-124.5" font-family="Helvetica,sans-Serif" font-size="10.00"> </text>
<polygon fill="#666666" stroke="#666666" points="53,-149.5 53,-149.5 91,-149.5 91,-149.5 53,-149.5"/>
<polygon fill="#666666" stroke="#666666" points="53,-134.5 53,-134.5 91,-134.5 91,-134.5 53,-134.5"/>
<polygon fill="none" stroke="#666666" points="53,-118 53,-167 91,-167 91,-118 53,-118"/>
</a>
</g>
</g>
<!-- Node3&#45;&gt;Node1 -->
<g id="edge2_Node000001_Node000003" class="edge">
<title>Node3&#45;&gt;Node1</title>
<g id="a_edge2_Node000001_Node000003"><a xlink:title=" ">
<path fill="none" stroke="#63b8ff" d="M72,-117.75C72,-101.48 72,-79.62 72,-61.26"/>
<polygon fill="none" stroke="#63b8ff" points="72,-61.22 68,-55.22 72,-49.22 76,-55.22 72,-61.22"/>
</a>
</g>
<text text-anchor="middle" x="114.5" y="-92" font-family="Helvetica,sans-Serif" font-size="10.00" fill="grey"> +content</text>
<text text-anchor="middle" x="114.5" y="-81" font-family="Helvetica,sans-Serif" font-size="10.00" fill="grey">+senderUniqueId</text>
<text text-anchor="middle" x="114.5" y="-70" font-family="Helvetica,sans-Serif" font-size="10.00" fill="grey">+username</text>
</g>
<!-- Node4 -->
<g id="Node000004" class="node">
<title>Node4</title>
<g id="a_Node000004"><a xlink:title=" ">
<polygon fill="white" stroke="transparent" points="202,-167 158,-167 158,-118 202,-118 202,-167"/>
<text text-anchor="start" x="163" y="-154.5" font-family="Helvetica,sans-Serif" font-size="10.00">double</text>
<text text-anchor="start" x="178" y="-139.5" font-family="Helvetica,sans-Serif" font-size="10.00"> </text>
<text text-anchor="start" x="178" y="-124.5" font-family="Helvetica,sans-Serif" font-size="10.00"> </text>
<polygon fill="#666666" stroke="#666666" points="158,-149.5 158,-149.5 202,-149.5 202,-149.5 158,-149.5"/>
<polygon fill="#666666" stroke="#666666" points="158,-134.5 158,-134.5 202,-134.5 202,-134.5 158,-134.5"/>
<polygon fill="none" stroke="#666666" points="158,-118 158,-167 202,-167 202,-118 158,-118"/>
</a>
</g>
</g>
<!-- Node4&#45;&gt;Node1 -->
<g id="edge3_Node000001_Node000004" class="edge">
<title>Node4&#45;&gt;Node1</title>
<g id="a_edge3_Node000001_Node000004"><a xlink:title=" ">
<path fill="none" stroke="#63b8ff" d="M178.02,-117.99C175.58,-102.02 170.14,-81.29 158,-67 152.03,-59.97 144.59,-54.04 136.61,-49.06"/>
<polygon fill="none" stroke="#63b8ff" points="136.35,-48.91 129.16,-49.46 125.88,-43.04 133.07,-42.49 136.35,-48.91"/>
</a>
</g>
<text text-anchor="middle" x="183.5" y="-81" font-family="Helvetica,sans-Serif" font-size="10.00" fill="grey"> +ts</text>
</g>
</g>
</svg>
</svg>

<style type='text/css'>
<![CDATA[
[data-mouse-over-selected='false'] { opacity: 0.7; }
[data-mouse-over-selected='true']  { opacity: 1.0; }
]]>
</style>
<script type="application/ecmascript"><![CDATA[
document.addEventListener('DOMContentLoaded', (event) => {
  highlightEdges();
  highlightAdjacentNodes();
});
]]></script>
</svg>
