<?xml version="1.0" encoding="UTF-8" standalone="no"?>
<!DOCTYPE svg PUBLIC "-//W3C//DTD SVG 1.1//EN"
 "http://www.w3.org/Graphics/SVG/1.1/DTD/svg11.dtd">
<!-- Generated by graphviz version 14.0.2 (20251019.1705)
 -->
<!-- Title: ends_with_icase Pages: 1 -->
<svg width="1149pt" height="126pt"
 viewBox="0.00 0.00 1149.00 126.00" xmlns="http://www.w3.org/2000/svg" xmlns:xlink="http://www.w3.org/1999/xlink">
<g id="graph0" class="graph" transform="scale(1 1) rotate(0) translate(4 122)">
<title>ends_with_icase</title>
<!-- Node1 -->
<g id="Node000001" class="node">
<title>Node1</title>
<g id="a_Node000001"><a xlink:title=" ">
<polygon fill="#999999" stroke="#666666" points="1141,-96 1052.25,-96 1052.25,-76 1141,-76 1141,-96"/>
<text xml:space="preserve" text-anchor="middle" x="1096.62" y="-82.5" font-family="Helvetica,sans-Serif" font-size="10.00">ends_with_icase</text>
</a>
</g>
</g>
<!-- Node2 -->
<g id="Node000002" class="node">
<title>Node2</title>
<g id="a_Node000002"><a xlink:href="../../d8/d37/class_chat_manager.html#aab66b4f8e1ca105e3670836cffdeb2fa" target="_top" xlink:title=" ">
<polygon fill="white" stroke="#666666" points="1016.25,-96 862.25,-96 862.25,-76 1016.25,-76 1016.25,-96"/>
<text xml:space="preserve" text-anchor="middle" x="939.25" y="-82.5" font-family="Helvetica,sans-Serif" font-size="10.00">ChatManager::classifyMessage</text>
</a>
</g>
</g>
<!-- Node1&#45;&gt;Node2 -->
<g id="edge1_Node000001_Node000002" class="edge">
<title>Node1&#45;&gt;Node2</title>
<g id="a_edge1_Node000001_Node000002"><a xlink:title=" ">
<path fill="none" stroke="#63b8ff" d="M1040.46,-86C1032.71,-86 1024.63,-86 1016.57,-86"/>
<polygon fill="#63b8ff" stroke="#63b8ff" points="1040.42,-89.5 1050.42,-86 1040.42,-82.5 1040.42,-89.5"/>
</a>
</g>
</g>
<!-- Node3 -->
<g id="Node000003" class="node">
<title>Node3</title>
<g id="a_Node000003"><a xlink:href="../../d8/d37/class_chat_manager.html#afbcd9a98952f12f4e7517491088e417f" target="_top" xlink:title=" ">
<polygon fill="white" stroke="#666666" points="821.75,-118 689.5,-118 689.5,-98 821.75,-98 821.75,-118"/>
<text xml:space="preserve" text-anchor="middle" x="755.62" y="-104.5" font-family="Helvetica,sans-Serif" font-size="10.00">ChatManager::applyReady</text>
</a>
</g>
</g>
<!-- Node2&#45;&gt;Node3 -->
<g id="edge2_Node000002_Node000003" class="edge">
<title>Node2&#45;&gt;Node3</title>
<g id="a_edge2_Node000002_Node000003"><a xlink:title=" ">
<path fill="none" stroke="#63b8ff" d="M850.55,-96.62C840.98,-97.78 831.35,-98.95 822.11,-100.07"/>
<polygon fill="#63b8ff" stroke="#63b8ff" points="850.74,-100.13 860.25,-95.45 849.9,-93.18 850.74,-100.13"/>
</a>
</g>
</g>
<!-- Node4 -->
<g id="Node000004" class="node">
<title>Node4</title>
<g id="a_Node000004"><a xlink:href="../../d8/d37/class_chat_manager.html#a12a185f305c7886960e02f78c61ccd18" target="_top" xlink:title=" ">
<polygon fill="white" stroke="#666666" points="826.25,-80 685,-80 685,-48 826.25,-48 826.25,-80"/>
<text xml:space="preserve" text-anchor="start" x="693" y="-66.5" font-family="Helvetica,sans-Serif" font-size="10.00">ChatManager::pushMessage</text>
<text xml:space="preserve" text-anchor="middle" x="755.62" y="-54.5" font-family="Helvetica,sans-Serif" font-size="10.00">Local</text>
</a>
</g>
</g>
<!-- Node2&#45;&gt;Node4 -->
<g id="edge3_Node000002_Node000004" class="edge">
<title>Node2&#45;&gt;Node4</title>
<g id="a_edge3_Node000002_Node000004"><a xlink:title=" ">
<path fill="none" stroke="#63b8ff" d="M850.5,-75.37C842.51,-74.4 834.48,-73.43 826.68,-72.49"/>
<polygon fill="#63b8ff" stroke="#63b8ff" points="849.9,-78.82 860.25,-76.55 850.74,-71.87 849.9,-78.82"/>
</a>
</g>
</g>
<!-- Node5 -->
<g id="Node000005" class="node">
<title>Node5</title>
<g id="a_Node000005"><a xlink:href="../../d8/d37/class_chat_manager.html#a02d518f4157ae45e4bf43f7501994ecd" target="_top" xlink:title=" ">
<polygon fill="white" stroke="#666666" points="274.25,-64 143.5,-64 143.5,-32 274.25,-32 274.25,-64"/>
<text xml:space="preserve" text-anchor="start" x="151.5" y="-50.5" font-family="Helvetica,sans-Serif" font-size="10.00">ChatManager::renderRight</text>
<text xml:space="preserve" text-anchor="middle" x="208.88" y="-38.5" font-family="Helvetica,sans-Serif" font-size="10.00">Panel</text>
</a>
</g>
</g>
<!-- Node4&#45;&gt;Node5 -->
<g id="edge4_Node000004_Node000005" class="edge">
<title>Node4&#45;&gt;Node5</title>
<g id="a_edge4_Node000004_Node000005"><a xlink:title=" ">
<path fill="none" stroke="#63b8ff" d="M673.5,-66.54C665.22,-66.73 656.94,-66.89 649,-67 498.42,-69.14 460.42,-70.35 310.25,-59 298.71,-58.13 286.45,-56.97 274.61,-55.74"/>
<polygon fill="#63b8ff" stroke="#63b8ff" points="673.32,-70.04 683.23,-66.3 673.15,-63.05 673.32,-70.04"/>
</a>
</g>
</g>
<!-- Node7 -->
<g id="Node000007" class="node">
<title>Node7</title>
<g id="a_Node000007"><a xlink:href="../../d8/d37/class_chat_manager.html#a5596a59f560f4f30aca7ac68a8b58451" target="_top" xlink:title=" ">
<polygon fill="white" stroke="#666666" points="649,-58 501.75,-58 501.75,-26 649,-26 649,-58"/>
<text xml:space="preserve" text-anchor="start" x="509.75" y="-44.5" font-family="Helvetica,sans-Serif" font-size="10.00">ChatManager::tryHandleSlash</text>
<text xml:space="preserve" text-anchor="middle" x="575.38" y="-32.5" font-family="Helvetica,sans-Serif" font-size="10.00">Command</text>
</a>
</g>
</g>
<!-- Node4&#45;&gt;Node7 -->
<g id="edge6_Node000004_Node000007" class="edge">
<title>Node4&#45;&gt;Node7</title>
<g id="a_edge6_Node000004_Node000007"><a xlink:title=" ">
<path fill="none" stroke="#63b8ff" d="M673.42,-53.98C665.39,-52.99 657.28,-51.99 649.34,-51.01"/>
<polygon fill="#63b8ff" stroke="#63b8ff" points="672.83,-57.43 683.19,-55.18 673.69,-50.48 672.83,-57.43"/>
</a>
</g>
</g>
<!-- Node6 -->
<g id="Node000006" class="node">
<title>Node6</title>
<g id="a_Node000006"><a xlink:href="../../d8/d37/class_chat_manager.html#ae22b90f106a6b559be6533fda6c54fa5" target="_top" xlink:title=" ">
<polygon fill="white" stroke="#666666" points="107.5,-58 0,-58 0,-38 107.5,-38 107.5,-58"/>
<text xml:space="preserve" text-anchor="middle" x="53.75" y="-44.5" font-family="Helvetica,sans-Serif" font-size="10.00">ChatManager::render</text>
</a>
</g>
</g>
<!-- Node5&#45;&gt;Node6 -->
<g id="edge5_Node000005_Node000006" class="edge">
<title>Node5&#45;&gt;Node6</title>
<g id="a_edge5_Node000005_Node000006"><a xlink:title=" ">
<path fill="none" stroke="#63b8ff" d="M132.11,-48C123.82,-48 115.51,-48 107.58,-48"/>
<polygon fill="#63b8ff" stroke="#63b8ff" points="131.87,-51.5 141.87,-48 131.87,-44.5 131.87,-51.5"/>
</a>
</g>
</g>
<!-- Node7&#45;&gt;Node5 -->
<g id="edge9_Node000007_Node000005" class="edge">
<title>Node7&#45;&gt;Node5</title>
<g id="a_edge9_Node000007_Node000005"><a xlink:title=" ">
<path fill="none" stroke="#63b8ff" d="M490.35,-43.38C424.72,-44.46 334.84,-45.94 274.69,-46.93"/>
<polygon fill="#63b8ff" stroke="#63b8ff" points="490.03,-46.89 499.98,-43.22 489.92,-39.89 490.03,-46.89"/>
</a>
</g>
</g>
<!-- Node8 -->
<g id="Node000008" class="node">
<title>Node8</title>
<g id="a_Node000008"><a xlink:href="../../d8/d37/class_chat_manager.html#a5b19f0632a911a519401b1b40e70db7c" target="_top" xlink:title=" ">
<polygon fill="white" stroke="#666666" points="465.75,-20 310.25,-20 310.25,0 465.75,0 465.75,-20"/>
<text xml:space="preserve" text-anchor="middle" x="388" y="-6.5" font-family="Helvetica,sans-Serif" font-size="10.00">ChatManager::renderDicePopup</text>
</a>
</g>
</g>
<!-- Node7&#45;&gt;Node8 -->
<g id="edge7_Node000007_Node000008" class="edge">
<title>Node7&#45;&gt;Node8</title>
<g id="a_edge7_Node000007_Node000008"><a xlink:title=" ">
<path fill="none" stroke="#63b8ff" d="M490.03,-27.44C476.42,-25.09 462.58,-22.7 449.67,-20.47"/>
<polygon fill="#63b8ff" stroke="#63b8ff" points="489.43,-30.89 499.88,-29.14 490.63,-23.99 489.43,-30.89"/>
</a>
</g>
</g>
<!-- Node8&#45;&gt;Node5 -->
<g id="edge8_Node000008_Node000005" class="edge">
<title>Node8&#45;&gt;Node5</title>
<g id="a_edge8_Node000008_Node000005"><a xlink:title=" ">
<path fill="none" stroke="#63b8ff" d="M327.24,-22.82C310.29,-26.46 291.74,-30.44 274.51,-34.13"/>
<polygon fill="#63b8ff" stroke="#63b8ff" points="327.61,-26.32 336.65,-20.8 326.14,-19.48 327.61,-26.32"/>
</a>
</g>
</g>
</g>
</svg>
