<?xml version="1.0" encoding="UTF-8" standalone="no"?>
<!DOCTYPE svg PUBLIC "-//W3C//DTD SVG 1.1//EN"
 "http://www.w3.org/Graphics/SVG/1.1/DTD/svg11.dtd">
<!-- Generated by graphviz version 14.0.2 (20251019.1705)
 -->
<!-- Title: Camera::getViewMatrix Pages: 1 -->
<svg width="510pt" height="104pt"
 viewBox="0.00 0.00 510.00 104.00" xmlns="http://www.w3.org/2000/svg" xmlns:xlink="http://www.w3.org/1999/xlink">
<g id="graph0" class="graph" transform="scale(1 1) rotate(0) translate(4 100)">
<title>Camera::getViewMatrix</title>
<!-- Node1 -->
<g id="Node000001" class="node">
<title>Node1</title>
<g id="a_Node000001"><a xlink:title=" ">
<polygon fill="#999999" stroke="#666666" points="501.75,-58 383,-58 383,-38 501.75,-38 501.75,-58"/>
<text xml:space="preserve" text-anchor="middle" x="442.38" y="-44.5" font-family="Helvetica,sans-Serif" font-size="10.00">Camera::getViewMatrix</text>
</a>
</g>
</g>
<!-- Node2 -->
<g id="Node000002" class="node">
<title>Node2</title>
<g id="a_Node000002"><a xlink:href="../../d2/dbf/class_board_manager.html#a211d671937d1b0b2494b1d2810f0ad23" target="_top" xlink:title=" ">
<polygon fill="white" stroke="#666666" points="337.62,-96 200.12,-96 200.12,-76 337.62,-76 337.62,-96"/>
<text xml:space="preserve" text-anchor="middle" x="268.88" y="-82.5" font-family="Helvetica,sans-Serif" font-size="10.00">BoardManager::renderBoard</text>
</a>
</g>
</g>
<!-- Node1&#45;&gt;Node2 -->
<g id="edge1_Node000001_Node000002" class="edge">
<title>Node1&#45;&gt;Node2</title>
<g id="a_edge1_Node000001_Node000002"><a xlink:title=" ">
<path fill="none" stroke="#63b8ff" d="M383.07,-60.92C361.55,-65.69 337.45,-71.03 317.04,-75.55"/>
<polygon fill="#63b8ff" stroke="#63b8ff" points="383.57,-64.39 392.58,-58.81 382.06,-57.56 383.57,-64.39"/>
</a>
</g>
</g>
<!-- Node3 -->
<g id="Node000003" class="node">
<title>Node3</title>
<g id="a_Node000003"><a xlink:href="../../da/dbb/class_camera.html#a86b2cb8f56895695f38f952521091d89" target="_top" xlink:title=" ">
<polygon fill="white" stroke="#666666" points="347,-58 190.75,-58 190.75,-38 347,-38 347,-58"/>
<text xml:space="preserve" text-anchor="middle" x="268.88" y="-44.5" font-family="Helvetica,sans-Serif" font-size="10.00">Camera::screenToWorldPosition</text>
</a>
</g>
</g>
<!-- Node1&#45;&gt;Node3 -->
<g id="edge2_Node000001_Node000003" class="edge">
<title>Node1&#45;&gt;Node3</title>
<g id="a_edge2_Node000001_Node000003"><a xlink:title=" ">
<path fill="none" stroke="#63b8ff" d="M371.36,-48C363.42,-48 355.29,-48 347.26,-48"/>
<polygon fill="#63b8ff" stroke="#63b8ff" points="371.32,-51.5 381.32,-48 371.32,-44.5 371.32,-51.5"/>
</a>
</g>
</g>
<!-- Node4 -->
<g id="Node000004" class="node">
<title>Node4</title>
<g id="a_Node000004"><a xlink:href="../../da/dbb/class_camera.html#aae36d44ca5d8fa2712278d2a1d1d9fd9" target="_top" xlink:title=" ">
<polygon fill="white" stroke="#666666" points="347,-20 190.75,-20 190.75,0 347,0 347,-20"/>
<text xml:space="preserve" text-anchor="middle" x="268.88" y="-6.5" font-family="Helvetica,sans-Serif" font-size="10.00">Camera::worldToScreenPosition</text>
</a>
</g>
</g>
<!-- Node1&#45;&gt;Node4 -->
<g id="edge3_Node000001_Node000004" class="edge">
<title>Node1&#45;&gt;Node4</title>
<g id="a_edge3_Node000001_Node000004"><a xlink:title=" ">
<path fill="none" stroke="#63b8ff" d="M383.07,-35.08C361.55,-30.31 337.45,-24.97 317.04,-20.45"/>
<polygon fill="#63b8ff" stroke="#63b8ff" points="382.06,-38.44 392.58,-37.19 383.57,-31.61 382.06,-38.44"/>
</a>
</g>
</g>
<!-- Node5 -->
<g id="Node000005" class="node">
<title>Node5</title>
<g id="a_Node000005"><a xlink:href="../../d2/dbf/class_board_manager.html#a764873bdfd49e6b2a150a33f0eacff99" target="_top" xlink:title=" ">
<polygon fill="white" stroke="#666666" points="154.75,-20 0,-20 0,0 154.75,0 154.75,-20"/>
<text xml:space="preserve" text-anchor="middle" x="77.38" y="-6.5" font-family="Helvetica,sans-Serif" font-size="10.00">BoardManager::startMouseDrag</text>
</a>
</g>
</g>
<!-- Node4&#45;&gt;Node5 -->
<g id="edge4_Node000004_Node000005" class="edge">
<title>Node4&#45;&gt;Node5</title>
<g id="a_edge4_Node000004_Node000005"><a xlink:title=" ">
<path fill="none" stroke="#63b8ff" d="M178.97,-10C170.94,-10 162.86,-10 154.96,-10"/>
<polygon fill="#63b8ff" stroke="#63b8ff" points="178.74,-13.5 188.74,-10 178.74,-6.5 178.74,-13.5"/>
</a>
</g>
</g>
</g>
</svg>
