<?xml version="1.0" encoding="UTF-8" standalone="no"?>
<!DOCTYPE svg PUBLIC "-//W3C//DTD SVG 1.1//EN"
 "http://www.w3.org/Graphics/SVG/1.1/DTD/svg11.dtd">
<!-- Generated by graphviz version 2.43.0 (0)
 -->
<!-- Title: Logger::LineToLoggerBuf Pages: 1 -->
<svg width="204pt" height="276pt"
 viewBox="0.00 0.00 204.00 276.00" xmlns="http://www.w3.org/2000/svg" xmlns:xlink="http://www.w3.org/1999/xlink">
<g id="graph0" class="graph" transform="scale(1 1) rotate(0) translate(4 272)">
<title>Logger::LineToLoggerBuf</title>
<!-- Node1 -->
<g id="Node000001" class="node">
<title>Node1</title>
<g id="a_Node000001"><a xlink:title=" ">
<polygon fill="#999999" stroke="transparent" points="196,-183 0,-183 0,0 196,0 196,-183"/>
<text text-anchor="start" x="38" y="-170.5" font-family="Helvetica,sans-Serif" font-size="10.00">Logger::LineToLoggerBuf</text>
<text text-anchor="start" x="6.5" y="-155.5" font-family="Helvetica,sans-Serif" font-size="10.00">&#45;</text>
<text text-anchor="start" x="17" y="-155.5" font-family="Helvetica,sans-Serif" font-size="10.00">std::string channel_</text>
<text text-anchor="start" x="6.5" y="-140.5" font-family="Helvetica,sans-Serif" font-size="10.00">&#45;</text>
<text text-anchor="start" x="17" y="-140.5" font-family="Helvetica,sans-Serif" font-size="10.00">std::string buf_</text>
<text text-anchor="start" x="6.5" y="-125.5" font-family="Helvetica,sans-Serif" font-size="10.00">&#45;</text>
<text text-anchor="start" x="17" y="-125.5" font-family="Helvetica,sans-Serif" font-size="10.00">std::optional&lt; Level &gt; forcedLevel_</text>
<text text-anchor="start" x="4" y="-110.5" font-family="Helvetica,sans-Serif" font-size="10.00">+</text>
<text text-anchor="start" x="17" y="-110.5" font-family="Helvetica,sans-Serif" font-size="10.00">LineToLoggerBuf(std::string</text>
<text text-anchor="start" x="17" y="-99.5" font-family="Helvetica,sans-Serif" font-size="10.00"> channel, std::optional&lt; Level</text>
<text text-anchor="start" x="17" y="-88.5" font-family="Helvetica,sans-Serif" font-size="10.00"> &gt; forced=std::nullopt)</text>
<text text-anchor="start" x="4" y="-73.5" font-family="Helvetica,sans-Serif" font-size="10.00">#</text>
<text text-anchor="start" x="17" y="-73.5" font-family="Helvetica,sans-Serif" font-size="10.00">int overflow(int ch) override</text>
<text text-anchor="start" x="4" y="-58.5" font-family="Helvetica,sans-Serif" font-size="10.00">#</text>
<text text-anchor="start" x="17" y="-58.5" font-family="Helvetica,sans-Serif" font-size="10.00">std::streamsize xsputn(const</text>
<text text-anchor="start" x="17" y="-47.5" font-family="Helvetica,sans-Serif" font-size="10.00"> char *s, std::streamsize count)</text>
<text text-anchor="start" x="17" y="-36.5" font-family="Helvetica,sans-Serif" font-size="10.00"> override</text>
<text text-anchor="start" x="4" y="-21.5" font-family="Helvetica,sans-Serif" font-size="10.00">#</text>
<text text-anchor="start" x="17" y="-21.5" font-family="Helvetica,sans-Serif" font-size="10.00">int sync() override</text>
<text text-anchor="start" x="6.5" y="-6.5" font-family="Helvetica,sans-Serif" font-size="10.00">&#45;</text>
<text text-anchor="start" x="17" y="-6.5" font-family="Helvetica,sans-Serif" font-size="10.00">void flushLine_()</text>
<polygon fill="#666666" stroke="#666666" points="0,-165.5 0,-165.5 196,-165.5 196,-165.5 0,-165.5"/>
<polygon fill="#666666" stroke="#666666" points="0,-120.5 0,-120.5 15,-120.5 15,-120.5 0,-120.5"/>
<polygon fill="#666666" stroke="#666666" points="15,-120.5 15,-120.5 196,-120.5 196,-120.5 15,-120.5"/>
<polygon fill="none" stroke="#666666" points="0,0 0,-183 196,-183 196,0 0,0"/>
</a>
</g>
</g>
<!-- Node2 -->
<g id="Node000002" class="node">
<title>Node2</title>
<g id="a_Node000002"><a xlink:title=" ">
<polygon fill="white" stroke="transparent" points="139,-268 57,-268 57,-219 139,-219 139,-268"/>
<text text-anchor="start" x="62" y="-255.5" font-family="Helvetica,sans-Serif" font-size="10.00">std::streambuf</text>
<text text-anchor="start" x="96" y="-240.5" font-family="Helvetica,sans-Serif" font-size="10.00"> </text>
<text text-anchor="start" x="96" y="-225.5" font-family="Helvetica,sans-Serif" font-size="10.00"> </text>
<polygon fill="#666666" stroke="#666666" points="57,-250.5 57,-250.5 139,-250.5 139,-250.5 57,-250.5"/>
<polygon fill="#666666" stroke="#666666" points="57,-235.5 57,-235.5 139,-235.5 139,-235.5 57,-235.5"/>
<polygon fill="none" stroke="#666666" points="57,-219 57,-268 139,-268 139,-219 57,-219"/>
</a>
</g>
</g>
<!-- Node2&#45;&gt;Node1 -->
<g id="edge1_Node000001_Node000002" class="edge">
<title>Node2&#45;&gt;Node1</title>
<g id="a_edge1_Node000001_Node000002"><a xlink:title=" ">
<path fill="none" stroke="#63b8ff" d="M98,-208.64C98,-200.81 98,-192.11 98,-183.1"/>
<polygon fill="none" stroke="#63b8ff" points="94.5,-208.73 98,-218.73 101.5,-208.73 94.5,-208.73"/>
</a>
</g>
</g>
</g>
</svg>
