<?xml version="1.0" encoding="UTF-8" standalone="no"?>
<!DOCTYPE svg PUBLIC "-//W3C//DTD SVG 1.1//EN"
 "http://www.w3.org/Graphics/SVG/1.1/DTD/svg11.dtd">
<!-- Generated by graphviz version 2.43.0 (0)
 -->
<!-- Title: MarkdownRenderer::startsWith_ Pages: 1 -->
<svg width="584pt" height="27pt"
 viewBox="0.00 0.00 584.00 27.00" xmlns="http://www.w3.org/2000/svg" xmlns:xlink="http://www.w3.org/1999/xlink">
<g id="graph0" class="graph" transform="scale(1 1) rotate(0) translate(4 23)">
<title>MarkdownRenderer::startsWith_</title>
<!-- Node1 -->
<g id="Node000001" class="node">
<title>Node1</title>
<g id="a_Node000001"><a xlink:title=" ">
<polygon fill="#999999" stroke="#666666" points="576,-19 403,-19 403,0 576,0 576,-19"/>
<text text-anchor="middle" x="489.5" y="-7" font-family="Helvetica,sans-Serif" font-size="10.00">MarkdownRenderer::startsWith_</text>
</a>
</g>
</g>
<!-- Node2 -->
<g id="Node000002" class="node">
<title>Node2</title>
<g id="a_Node000002"><a xlink:href="../../de/d26/classMarkdownRenderer.html#ae095c02db567dbe7a6050d69efe60a0d" target="_top" xlink:title=" ">
<polygon fill="white" stroke="#666666" points="367,-19 196,-19 196,0 367,0 367,-19"/>
<text text-anchor="middle" x="281.5" y="-7" font-family="Helvetica,sans-Serif" font-size="10.00">MarkdownRenderer::parseHref_</text>
</a>
</g>
</g>
<!-- Node1&#45;&gt;Node2 -->
<g id="edge1_Node000001_Node000002" class="edge">
<title>Node1&#45;&gt;Node2</title>
<g id="a_edge1_Node000001_Node000002"><a xlink:title=" ">
<path fill="none" stroke="#63b8ff" d="M392.89,-9.5C384.29,-9.5 375.63,-9.5 367.14,-9.5"/>
<polygon fill="#63b8ff" stroke="#63b8ff" points="392.93,-13 402.93,-9.5 392.93,-6 392.93,-13"/>
</a>
</g>
</g>
<!-- Node3 -->
<g id="Node000003" class="node">
<title>Node3</title>
<g id="a_Node000003"><a xlink:href="../../de/d26/classMarkdownRenderer.html#a4bd39f5d7124376cde81f15bed826f41" target="_top" xlink:title=" ">
<polygon fill="white" stroke="#666666" points="160,-19 0,-19 0,0 160,0 160,-19"/>
<text text-anchor="middle" x="80" y="-7" font-family="Helvetica,sans-Serif" font-size="10.00">MarkdownRenderer::open_url</text>
</a>
</g>
</g>
<!-- Node2&#45;&gt;Node3 -->
<g id="edge2_Node000002_Node000003" class="edge">
<title>Node2&#45;&gt;Node3</title>
<g id="a_edge2_Node000002_Node000003"><a xlink:title=" ">
<path fill="none" stroke="#63b8ff" d="M185.8,-9.5C177.18,-9.5 168.5,-9.5 160.03,-9.5"/>
<polygon fill="#63b8ff" stroke="#63b8ff" points="185.89,-13 195.89,-9.5 185.89,-6 185.89,-13"/>
</a>
</g>
</g>
</g>
</svg>
