<?xml version="1.0" encoding="UTF-8" standalone="no"?>
<!DOCTYPE svg PUBLIC "-//W3C//DTD SVG 1.1//EN"
 "http://www.w3.org/Graphics/SVG/1.1/DTD/svg11.dtd">
<!-- Generated by graphviz version 2.43.0 (0)
 -->
<!-- Title: FirewallUtils::psEscape Pages: 1 -->
<svg width="461pt" height="101pt"
 viewBox="0.00 0.00 461.00 101.00" xmlns="http://www.w3.org/2000/svg" xmlns:xlink="http://www.w3.org/1999/xlink">

<svg id="main" version="1.1" xmlns="http://www.w3.org/2000/svg" xmlns:xlink="http://www.w3.org/1999/xlink" xml:space="preserve" onload="init(evt)">
<style type="text/css"><![CDATA[
.node, .edge {opacity: 0.7;}
.node.selected, .edge.selected {opacity: 1;}
.edge:hover path { stroke: red; }
.edge:hover polygon { stroke: red; fill: red; }
]]></style>
<script type="application/ecmascript" xlink:href="../../svg.min.js"/>
<svg id="graph" class="graph">
<g id="graph0" class="graph" transform="scale(1 1) rotate(0) translate(4 97)">
<title>FirewallUtils::psEscape</title>
<!-- Node1 -->
<g id="Node000001" class="node">
<title>Node1</title>
<g id="a_Node000001"><a xlink:title=" ">
<polygon fill="#999999" stroke="#666666" points="453,-56 324,-56 324,-37 453,-37 453,-56"/>
<text text-anchor="middle" x="388.5" y="-44" font-family="Helvetica,sans-Serif" font-size="10.00">FirewallUtils::psEscape</text>
</a>
</g>
</g>
<!-- Node2 -->
<g id="Node000002" class="node">
<title>Node2</title>
<g id="a_Node000002"><a xlink:href="../../d4/d66/namespaceFirewallUtils.html#a0c4cf4c2262c6defdc879f06ca39a1b6" target="_top" xlink:title=" ">
<polygon fill="white" stroke="#666666" points="286,-93 79,-93 79,-74 286,-74 286,-93"/>
<text text-anchor="middle" x="182.5" y="-81" font-family="Helvetica,sans-Serif" font-size="10.00">FirewallUtils::addInboundAnyTcpForExe</text>
</a>
</g>
</g>
<!-- Node1&#45;&gt;Node2 -->
<g id="edge1_Node000001_Node000002" class="edge">
<title>Node1&#45;&gt;Node2</title>
<g id="a_edge1_Node000001_Node000002"><a xlink:title=" ">
<path fill="none" stroke="#63b8ff" d="M328.66,-57.92C315.3,-60.46 301.17,-63.11 288,-65.5 272.42,-68.33 255.52,-71.29 239.94,-73.97"/>
<polygon fill="#63b8ff" stroke="#63b8ff" points="329.53,-61.32 338.7,-56 328.22,-54.44 329.53,-61.32"/>
</a>
</g>
</g>
<!-- Node4 -->
<g id="Node000004" class="node">
<title>Node4</title>
<g id="a_Node000004"><a xlink:href="../../d4/d66/namespaceFirewallUtils.html#a8545a7caa1154ca1d2e4f33ab2b1c313" target="_top" xlink:title=" ">
<polygon fill="white" stroke="#666666" points="288,-56 77,-56 77,-37 288,-37 288,-56"/>
<text text-anchor="middle" x="182.5" y="-44" font-family="Helvetica,sans-Serif" font-size="10.00">FirewallUtils::addInboundAnyUdpForExe</text>
</a>
</g>
</g>
<!-- Node1&#45;&gt;Node4 -->
<g id="edge3_Node000001_Node000004" class="edge">
<title>Node1&#45;&gt;Node4</title>
<g id="a_edge3_Node000001_Node000004"><a xlink:title=" ">
<path fill="none" stroke="#63b8ff" d="M313.79,-46.5C305.47,-46.5 296.87,-46.5 288.24,-46.5"/>
<polygon fill="#63b8ff" stroke="#63b8ff" points="313.79,-50 323.79,-46.5 313.79,-43 313.79,-50"/>
</a>
</g>
</g>
<!-- Node5 -->
<g id="Node000005" class="node">
<title>Node5</title>
<g id="a_Node000005"><a xlink:href="../../d4/d66/namespaceFirewallUtils.html#aeb693e7086b7890dc330afc739537795" target="_top" xlink:title=" ">
<polygon fill="white" stroke="#666666" points="275,-19 90,-19 90,0 275,0 275,-19"/>
<text text-anchor="middle" x="182.5" y="-7" font-family="Helvetica,sans-Serif" font-size="10.00">FirewallUtils::removeRuleElevated</text>
</a>
</g>
</g>
<!-- Node1&#45;&gt;Node5 -->
<g id="edge4_Node000001_Node000005" class="edge">
<title>Node1&#45;&gt;Node5</title>
<g id="a_edge4_Node000001_Node000005"><a xlink:title=" ">
<path fill="none" stroke="#63b8ff" d="M324.75,-35.12C296.39,-29.98 263.26,-23.97 236.21,-19.06"/>
<polygon fill="#63b8ff" stroke="#63b8ff" points="324.5,-38.63 334.96,-36.97 325.75,-31.74 324.5,-38.63"/>
</a>
</g>
</g>
<!-- Node3 -->
<g id="Node000003" class="node">
<title>Node3</title>
<g id="a_Node000003"><a xlink:href="../../df/d0a/main_8cpp.html#ae66f6b31b5ad750f1fe042a706a4e3d4" target="_top" xlink:title=" ">
<polygon fill="white" stroke="#666666" points="41,-56 0,-56 0,-37 41,-37 41,-56"/>
<text text-anchor="middle" x="20.5" y="-44" font-family="Helvetica,sans-Serif" font-size="10.00">main</text>
</a>
</g>
</g>
<!-- Node2&#45;&gt;Node3 -->
<g id="edge2_Node000002_Node000003" class="edge">
<title>Node2&#45;&gt;Node3</title>
<g id="a_edge2_Node000002_Node000003"><a xlink:title=" ">
<path fill="none" stroke="#63b8ff" d="M106.56,-72.08C96.57,-70.12 86.5,-67.93 77,-65.5 64.86,-62.4 51.58,-57.89 41.05,-54.04"/>
<polygon fill="#63b8ff" stroke="#63b8ff" points="106.02,-75.54 116.5,-73.96 107.32,-68.66 106.02,-75.54"/>
</a>
</g>
</g>
<!-- Node5&#45;&gt;Node3 -->
<g id="edge5_Node000005_Node000003" class="edge">
<title>Node5&#45;&gt;Node3</title>
<g id="a_edge5_Node000005_Node000003"><a xlink:title=" ">
<path fill="none" stroke="#63b8ff" d="M111.23,-20.94C99.74,-23.2 87.99,-25.73 77,-28.5 64.92,-31.54 51.63,-35.82 41.09,-39.44"/>
<polygon fill="#63b8ff" stroke="#63b8ff" points="112.08,-24.34 121.25,-19.04 110.77,-17.47 112.08,-24.34"/>
</a>
</g>
</g>
</g>
</svg>
</svg>

<style type='text/css'>
<![CDATA[
[data-mouse-over-selected='false'] { opacity: 0.7; }
[data-mouse-over-selected='true']  { opacity: 1.0; }
]]>
</style>
<script type="application/ecmascript"><![CDATA[
document.addEventListener('DOMContentLoaded', (event) => {
  highlightEdges();
  highlightAdjacentNodes();
});
]]></script>
</svg>
