<?xml version="1.0" encoding="UTF-8" standalone="no"?>
<!DOCTYPE svg PUBLIC "-//W3C//DTD SVG 1.1//EN"
 "http://www.w3.org/Graphics/SVG/1.1/DTD/svg11.dtd">
<!-- Generated by graphviz version 14.0.2 (20251019.1705)
 -->
<!-- Title: InputTextMultilineWrapCallback Pages: 1 -->
<svg width="801pt" height="40pt"
 viewBox="0.00 0.00 801.00 40.00" xmlns="http://www.w3.org/2000/svg" xmlns:xlink="http://www.w3.org/1999/xlink">
<g id="graph0" class="graph" transform="scale(1 1) rotate(0) translate(4 36)">
<title>InputTextMultilineWrapCallback</title>
<!-- Node1 -->
<g id="Node000001" class="node">
<title>Node1</title>
<g id="a_Node000001"><a xlink:title=" ">
<polygon fill="#999999" stroke="#666666" points="793.25,-26 640,-26 640,-6 793.25,-6 793.25,-26"/>
<text xml:space="preserve" text-anchor="middle" x="716.62" y="-12.5" font-family="Helvetica,sans-Serif" font-size="10.00">InputTextMultilineWrapCallback</text>
</a>
</g>
</g>
<!-- Node2 -->
<g id="Node000002" class="node">
<title>Node2</title>
<g id="a_Node000002"><a xlink:href="../../d9/d67/_note_editor_u_i_8cpp.html#a45d4ae7298891b5e82f640db9de87f35" target="_top" xlink:title=" ">
<polygon fill="white" stroke="#666666" points="604,-32 486,-32 486,0 604,0 604,-32"/>
<text xml:space="preserve" text-anchor="start" x="494" y="-18.5" font-family="Helvetica,sans-Serif" font-size="10.00">InputTextMultilineString</text>
<text xml:space="preserve" text-anchor="middle" x="545" y="-6.5" font-family="Helvetica,sans-Serif" font-size="10.00">_HardWrap</text>
</a>
</g>
</g>
<!-- Node1&#45;&gt;Node2 -->
<g id="edge1_Node000001_Node000002" class="edge">
<title>Node1&#45;&gt;Node2</title>
<g id="a_edge1_Node000001_Node000002"><a xlink:title=" ">
<path fill="none" stroke="#63b8ff" d="M628.26,-16C620.13,-16 612.03,-16 604.26,-16"/>
<polygon fill="#63b8ff" stroke="#63b8ff" points="628.23,-19.5 638.23,-16 628.23,-12.5 628.23,-19.5"/>
</a>
</g>
</g>
<!-- Node3 -->
<g id="Node000003" class="node">
<title>Node3</title>
<g id="a_Node000003"><a xlink:href="../../d3/dfd/class_note_editor_u_i.html#a41e928a368befa223a486e3417e26382" target="_top" xlink:title=" ">
<polygon fill="white" stroke="#666666" points="450,-26 305,-26 305,-6 450,-6 450,-26"/>
<text xml:space="preserve" text-anchor="middle" x="377.5" y="-12.5" font-family="Helvetica,sans-Serif" font-size="10.00">NoteEditorUI::renderOneTab_</text>
</a>
</g>
</g>
<!-- Node2&#45;&gt;Node3 -->
<g id="edge2_Node000002_Node000003" class="edge">
<title>Node2&#45;&gt;Node3</title>
<g id="a_edge2_Node000002_Node000003"><a xlink:title=" ">
<path fill="none" stroke="#63b8ff" d="M474.2,-16C466.28,-16 458.19,-16 450.25,-16"/>
<polygon fill="#63b8ff" stroke="#63b8ff" points="474.14,-19.5 484.14,-16 474.14,-12.5 474.14,-19.5"/>
</a>
</g>
</g>
<!-- Node4 -->
<g id="Node000004" class="node">
<title>Node4</title>
<g id="a_Node000004"><a xlink:href="../../d3/dfd/class_note_editor_u_i.html#a3ea6ba49489a982beddb2ed1c4e46cf3" target="_top" xlink:title=" ">
<polygon fill="white" stroke="#666666" points="269,-32 142,-32 142,0 269,0 269,-32"/>
<text xml:space="preserve" text-anchor="start" x="150" y="-18.5" font-family="Helvetica,sans-Serif" font-size="10.00">NoteEditorUI::renderTabs</text>
<text xml:space="preserve" text-anchor="middle" x="205.5" y="-6.5" font-family="Helvetica,sans-Serif" font-size="10.00">Area_</text>
</a>
</g>
</g>
<!-- Node3&#45;&gt;Node4 -->
<g id="edge3_Node000003_Node000004" class="edge">
<title>Node3&#45;&gt;Node4</title>
<g id="a_edge3_Node000003_Node000004"><a xlink:title=" ">
<path fill="none" stroke="#63b8ff" d="M293.48,-16C285.38,-16 277.25,-16 269.39,-16"/>
<polygon fill="#63b8ff" stroke="#63b8ff" points="293.38,-19.5 303.38,-16 293.38,-12.5 293.38,-19.5"/>
</a>
</g>
</g>
<!-- Node5 -->
<g id="Node000005" class="node">
<title>Node5</title>
<g id="a_Node000005"><a xlink:href="../../d3/dfd/class_note_editor_u_i.html#a3a9be72ef4837839ff716f6afd456611" target="_top" xlink:title=" ">
<polygon fill="white" stroke="#666666" points="106,-26 0,-26 0,-6 106,-6 106,-26"/>
<text xml:space="preserve" text-anchor="middle" x="53" y="-12.5" font-family="Helvetica,sans-Serif" font-size="10.00">NoteEditorUI::render</text>
</a>
</g>
</g>
<!-- Node4&#45;&gt;Node5 -->
<g id="edge4_Node000004_Node000005" class="edge">
<title>Node4&#45;&gt;Node5</title>
<g id="a_edge4_Node000004_Node000005"><a xlink:title=" ">
<path fill="none" stroke="#63b8ff" d="M130.16,-16C122.07,-16 113.97,-16 106.22,-16"/>
<polygon fill="#63b8ff" stroke="#63b8ff" points="130.03,-19.5 140.03,-16 130.03,-12.5 130.03,-19.5"/>
</a>
</g>
</g>
</g>
</svg>
