<?xml version="1.0" encoding="UTF-8" standalone="no"?>
<!DOCTYPE svg PUBLIC "-//W3C//DTD SVG 1.1//EN"
 "http://www.w3.org/Graphics/SVG/1.1/DTD/svg11.dtd">
<!-- Generated by graphviz version 2.43.0 (0)
 -->
<!-- Title: include/network/NetworkManager.h Pages: 1 -->
<svg width="2678pt" height="192pt"
 viewBox="0.00 0.00 2677.50 192.00" xmlns="http://www.w3.org/2000/svg" xmlns:xlink="http://www.w3.org/1999/xlink">
<g id="graph0" class="graph" transform="scale(1 1) rotate(0) translate(4 188)">
<title>include/network/NetworkManager.h</title>
<!-- Node1 -->
<g id="Node000001" class="node">
<title>Node1</title>
<g id="a_Node000001"><a xlink:title=" ">
<polygon fill="#999999" stroke="#666666" points="1653,-184 1463,-184 1463,-165 1653,-165 1653,-184"/>
<text text-anchor="middle" x="1558" y="-172" font-family="Helvetica,sans-Serif" font-size="10.00">include/network/NetworkManager.h</text>
</a>
</g>
</g>
<!-- Node2 -->
<g id="Node000002" class="node">
<title>Node2</title>
<g id="a_Node000002"><a xlink:title=" ">
<polygon fill="#e0e0e0" stroke="#999999" points="1013,-19 969,-19 969,0 1013,0 1013,-19"/>
<text text-anchor="middle" x="991" y="-7" font-family="Helvetica,sans-Serif" font-size="10.00">string</text>
</a>
</g>
</g>
<!-- Node1&#45;&gt;Node2 -->
<g id="edge1_Node000001_Node000002" class="edge">
<title>Node1&#45;&gt;Node2</title>
<g id="a_edge1_Node000001_Node000002"><a xlink:title=" ">
<path fill="none" stroke="#63b8ff" d="M1462.81,-169.01C1340.66,-162.54 1135.82,-149.12 1063,-129 1008.78,-114.02 978.91,-121.64 949,-74 938.44,-57.19 954.73,-38.25 970,-25.46"/>
<polygon fill="#63b8ff" stroke="#63b8ff" points="972.48,-27.96 978.19,-19.04 968.16,-22.45 972.48,-27.96"/>
</a>
</g>
</g>
<!-- Node3 -->
<g id="Node000003" class="node">
<title>Node3</title>
<g id="a_Node000003"><a xlink:title=" ">
<polygon fill="#e0e0e0" stroke="#999999" points="901.5,-74 808.5,-74 808.5,-55 901.5,-55 901.5,-74"/>
<text text-anchor="middle" x="855" y="-62" font-family="Helvetica,sans-Serif" font-size="10.00">unordered_map</text>
</a>
</g>
</g>
<!-- Node1&#45;&gt;Node3 -->
<g id="edge2_Node000001_Node000003" class="edge">
<title>Node1&#45;&gt;Node3</title>
<g id="a_edge2_Node000001_Node000003"><a xlink:title=" ">
<path fill="none" stroke="#63b8ff" d="M1462.89,-170.68C1296.17,-165.17 964.2,-151.54 916,-129 894.67,-119.03 876.92,-98.07 866.17,-82.95"/>
<polygon fill="#63b8ff" stroke="#63b8ff" points="868.92,-80.76 860.41,-74.45 863.12,-84.69 868.92,-80.76"/>
</a>
</g>
</g>
<!-- Node4 -->
<g id="Node000004" class="node">
<title>Node4</title>
<g id="a_Node000004"><a xlink:title=" ">
<polygon fill="#e0e0e0" stroke="#999999" points="1587,-74 1529,-74 1529,-55 1587,-55 1587,-74"/>
<text text-anchor="middle" x="1558" y="-62" font-family="Helvetica,sans-Serif" font-size="10.00">memory</text>
</a>
</g>
</g>
<!-- Node1&#45;&gt;Node4 -->
<g id="edge3_Node000001_Node000004" class="edge">
<title>Node1&#45;&gt;Node4</title>
<g id="a_edge3_Node000001_Node000004"><a xlink:title=" ">
<path fill="none" stroke="#63b8ff" d="M1558,-164.66C1558,-147.17 1558,-107.8 1558,-84.27"/>
<polygon fill="#63b8ff" stroke="#63b8ff" points="1561.5,-84.16 1558,-74.16 1554.5,-84.16 1561.5,-84.16"/>
</a>
</g>
</g>
<!-- Node5 -->
<g id="Node000005" class="node">
<title>Node5</title>
<g id="a_Node000005"><a xlink:href="../../dc/d5f/PeerLink_8h.html" target="_top" xlink:title=" ">
<polygon fill="white" stroke="#666666" points="1140,-129 1072,-129 1072,-110 1140,-110 1140,-129"/>
<text text-anchor="middle" x="1106" y="-117" font-family="Helvetica,sans-Serif" font-size="10.00">PeerLink.h</text>
</a>
</g>
</g>
<!-- Node1&#45;&gt;Node5 -->
<g id="edge4_Node000001_Node000005" class="edge">
<title>Node1&#45;&gt;Node5</title>
<g id="a_edge4_Node000001_Node000005"><a xlink:title=" ">
<path fill="none" stroke="#63b8ff" d="M1485.38,-164.98C1390.68,-153.88 1227.97,-134.8 1150.07,-125.67"/>
<polygon fill="#63b8ff" stroke="#63b8ff" points="1150.44,-122.19 1140.1,-124.5 1149.63,-129.14 1150.44,-122.19"/>
</a>
</g>
</g>
<!-- Node8 -->
<g id="Node000008" class="node">
<title>Node8</title>
<g id="a_Node000008"><a xlink:title=" ">
<polygon fill="#e0e0e0" stroke="#999999" points="330,-19 282,-19 282,0 330,0 330,-19"/>
<text text-anchor="middle" x="306" y="-7" font-family="Helvetica,sans-Serif" font-size="10.00">flecs.h</text>
</a>
</g>
</g>
<!-- Node1&#45;&gt;Node8 -->
<g id="edge8_Node000001_Node000008" class="edge">
<title>Node1&#45;&gt;Node8</title>
<g id="a_edge8_Node000001_Node000008"><a xlink:title=" ">
<path fill="none" stroke="#63b8ff" d="M1462.88,-173.01C1203.78,-171.22 498.16,-163.23 399,-129 359.59,-115.39 346.64,-108.34 323,-74 313.8,-60.63 309.57,-42.53 307.64,-29.07"/>
<polygon fill="#63b8ff" stroke="#63b8ff" points="311.11,-28.6 306.49,-19.06 304.15,-29.4 311.11,-28.6"/>
</a>
</g>
</g>
<!-- Node9 -->
<g id="Node000009" class="node">
<title>Node9</title>
<g id="a_Node000009"><a xlink:title=" ">
<polygon fill="#e0e0e0" stroke="#999999" points="2323.5,-129 2206.5,-129 2206.5,-110 2323.5,-110 2323.5,-129"/>
<text text-anchor="middle" x="2265" y="-117" font-family="Helvetica,sans-Serif" font-size="10.00">rtc/configuration.hpp</text>
</a>
</g>
</g>
<!-- Node1&#45;&gt;Node9 -->
<g id="edge9_Node000001_Node000009" class="edge">
<title>Node1&#45;&gt;Node9</title>
<g id="a_edge9_Node000001_Node000009"><a xlink:title=" ">
<path fill="none" stroke="#63b8ff" d="M1653.17,-168.18C1777.29,-160.94 2001.11,-146.8 2192,-129 2193.47,-128.86 2194.95,-128.72 2196.45,-128.57"/>
<polygon fill="#63b8ff" stroke="#63b8ff" points="2196.86,-132.05 2206.45,-127.56 2196.15,-125.09 2196.86,-132.05"/>
</a>
</g>
</g>
<!-- Node10 -->
<g id="Node000010" class="node">
<title>Node10</title>
<g id="a_Node000010"><a xlink:title=" ">
<polygon fill="#e0e0e0" stroke="#999999" points="1133.5,-74 1080.5,-74 1080.5,-55 1133.5,-55 1133.5,-74"/>
<text text-anchor="middle" x="1107" y="-62" font-family="Helvetica,sans-Serif" font-size="10.00">imgui.h</text>
</a>
</g>
</g>
<!-- Node1&#45;&gt;Node10 -->
<g id="edge10_Node000001_Node000010" class="edge">
<title>Node1&#45;&gt;Node10</title>
<g id="a_edge10_Node000001_Node000010"><a xlink:title=" ">
<path fill="none" stroke="#63b8ff" d="M1522.1,-164.96C1451.65,-148.18 1290.07,-109.67 1143.81,-74.43"/>
<polygon fill="#63b8ff" stroke="#63b8ff" points="1144.29,-70.95 1133.75,-72.01 1142.65,-77.75 1144.29,-70.95"/>
</a>
</g>
</g>
<!-- Node11 -->
<g id="Node000011" class="node">
<title>Node11</title>
<g id="a_Node000011"><a xlink:title=" ">
<polygon fill="#e0e0e0" stroke="#999999" points="2386,-129 2342,-129 2342,-110 2386,-110 2386,-129"/>
<text text-anchor="middle" x="2364" y="-117" font-family="Helvetica,sans-Serif" font-size="10.00">regex</text>
</a>
</g>
</g>
<!-- Node1&#45;&gt;Node11 -->
<g id="edge11_Node000001_Node000011" class="edge">
<title>Node1&#45;&gt;Node11</title>
<g id="a_edge11_Node000001_Node000011"><a xlink:title=" ">
<path fill="none" stroke="#63b8ff" d="M1653.25,-174.44C1798.22,-174.45 2082.82,-168.91 2331.81,-128.82"/>
<polygon fill="#63b8ff" stroke="#63b8ff" points="2332.47,-132.26 2341.77,-127.2 2331.34,-125.35 2332.47,-132.26"/>
</a>
</g>
</g>
<!-- Node12 -->
<g id="Node000012" class="node">
<title>Node12</title>
<g id="a_Node000012"><a xlink:title=" ">
<polygon fill="#e0e0e0" stroke="#999999" points="1374.5,-19 1327.5,-19 1327.5,0 1374.5,0 1374.5,-19"/>
<text text-anchor="middle" x="1351" y="-7" font-family="Helvetica,sans-Serif" font-size="10.00">vector</text>
</a>
</g>
</g>
<!-- Node1&#45;&gt;Node12 -->
<g id="edge12_Node000001_Node000012" class="edge">
<title>Node1&#45;&gt;Node12</title>
<g id="a_edge12_Node000001_Node000012"><a xlink:title=" ">
<path fill="none" stroke="#63b8ff" d="M1653.04,-170.47C1797.05,-165.19 2063.57,-152.56 2156,-129 2175.85,-123.94 2178.41,-116.01 2198,-110 2289.83,-81.83 2473.47,-124.33 2407,-55 2370.81,-17.25 1561.61,-11.45 1384.89,-10.63"/>
<polygon fill="#63b8ff" stroke="#63b8ff" points="1384.65,-7.13 1374.63,-10.58 1384.62,-14.13 1384.65,-7.13"/>
</a>
</g>
</g>
<!-- Node13 -->
<g id="Node000013" class="node">
<title>Node13</title>
<g id="a_Node000013"><a xlink:title=" ">
<polygon fill="#e0e0e0" stroke="#999999" points="2532,-129 2404,-129 2404,-110 2532,-110 2532,-129"/>
<text text-anchor="middle" x="2468" y="-117" font-family="Helvetica,sans-Serif" font-size="10.00">rtc/peerconnection.hpp</text>
</a>
</g>
</g>
<!-- Node1&#45;&gt;Node13 -->
<g id="edge13_Node000001_Node000013" class="edge">
<title>Node1&#45;&gt;Node13</title>
<g id="a_edge13_Node000001_Node000013"><a xlink:title=" ">
<path fill="none" stroke="#63b8ff" d="M1653.22,-170.39C1806.77,-164.93 2118.83,-152.06 2393.75,-129.05"/>
<polygon fill="#63b8ff" stroke="#63b8ff" points="2394.26,-132.52 2403.93,-128.19 2393.67,-125.54 2394.26,-132.52"/>
</a>
</g>
</g>
<!-- Node14 -->
<g id="Node000014" class="node">
<title>Node14</title>
<g id="a_Node000014"><a xlink:title=" ">
<polygon fill="#e0e0e0" stroke="#999999" points="640,-74 530,-74 530,-55 640,-55 640,-74"/>
<text text-anchor="middle" x="585" y="-62" font-family="Helvetica,sans-Serif" font-size="10.00">nlohmann/json.hpp</text>
</a>
</g>
</g>
<!-- Node1&#45;&gt;Node14 -->
<g id="edge14_Node000001_Node000014" class="edge">
<title>Node1&#45;&gt;Node14</title>
<g id="a_edge14_Node000001_Node000014"><a xlink:title=" ">
<path fill="none" stroke="#63b8ff" d="M1462.97,-173.12C1273.81,-171.6 856.43,-164.23 718,-129 676.66,-118.48 632.76,-94.73 607.17,-79.45"/>
<polygon fill="#63b8ff" stroke="#63b8ff" points="608.66,-76.26 598.3,-74.05 605.02,-82.24 608.66,-76.26"/>
</a>
</g>
</g>
<!-- Node15 -->
<g id="Node000015" class="node">
<title>Node15</title>
<g id="a_Node000015"><a xlink:title=" ">
<polygon fill="#e0e0e0" stroke="#999999" points="2596,-129 2550,-129 2550,-110 2596,-110 2596,-129"/>
<text text-anchor="middle" x="2573" y="-117" font-family="Helvetica,sans-Serif" font-size="10.00">future</text>
</a>
</g>
</g>
<!-- Node1&#45;&gt;Node15 -->
<g id="edge15_Node000001_Node000015" class="edge">
<title>Node1&#45;&gt;Node15</title>
<g id="a_edge15_Node000001_Node000015"><a xlink:title=" ">
<path fill="none" stroke="#63b8ff" d="M1653.1,-171.79C1861.42,-167.63 2353.62,-155.44 2539.74,-128.79"/>
<polygon fill="#63b8ff" stroke="#63b8ff" points="2540.33,-132.24 2549.7,-127.31 2539.3,-125.32 2540.33,-132.24"/>
</a>
</g>
</g>
<!-- Node16 -->
<g id="Node000016" class="node">
<title>Node16</title>
<g id="a_Node000016"><a xlink:title=" ">
<polygon fill="#e0e0e0" stroke="#999999" points="2398,-74 2338,-74 2338,-55 2398,-55 2398,-74"/>
<text text-anchor="middle" x="2368" y="-62" font-family="Helvetica,sans-Serif" font-size="10.00">iostream</text>
</a>
</g>
</g>
<!-- Node1&#45;&gt;Node16 -->
<g id="edge16_Node000001_Node000016" class="edge">
<title>Node1&#45;&gt;Node16</title>
<g id="a_edge16_Node000001_Node000016"><a xlink:title=" ">
<path fill="none" stroke="#63b8ff" d="M1653.07,-169.85C1789.83,-163.94 2035.09,-150.71 2121,-129 2141.26,-123.88 2144.14,-116.48 2164,-110 2164.49,-109.84 2268.97,-87.07 2328.2,-74.17"/>
<polygon fill="#63b8ff" stroke="#63b8ff" points="2328.97,-77.58 2337.99,-72.04 2327.48,-70.74 2328.97,-77.58"/>
</a>
</g>
</g>
<!-- Node17 -->
<g id="Node000017" class="node">
<title>Node17</title>
<g id="a_Node000017"><a xlink:href="../../de/dd6/MessageQueue_8h.html" target="_top" xlink:title=" ">
<polygon fill="white" stroke="#666666" points="1849.5,-129 1748.5,-129 1748.5,-110 1849.5,-110 1849.5,-129"/>
<text text-anchor="middle" x="1799" y="-117" font-family="Helvetica,sans-Serif" font-size="10.00">MessageQueue.h</text>
</a>
</g>
</g>
<!-- Node1&#45;&gt;Node17 -->
<g id="edge17_Node000001_Node000017" class="edge">
<title>Node1&#45;&gt;Node17</title>
<g id="a_edge17_Node000001_Node000017"><a xlink:title=" ">
<path fill="none" stroke="#63b8ff" d="M1596.72,-164.98C1638.41,-155.82 1704.82,-141.21 1750.09,-131.26"/>
<polygon fill="#63b8ff" stroke="#63b8ff" points="1750.96,-134.65 1759.98,-129.08 1749.46,-127.81 1750.96,-134.65"/>
</a>
</g>
</g>
<!-- Node21 -->
<g id="Node000021" class="node">
<title>Node21</title>
<g id="a_Node000021"><a xlink:href="../../d0/dc5/Components_8h.html" target="_top" xlink:title=" ">
<polygon fill="white" stroke="#666666" points="275.5,-74 188.5,-74 188.5,-55 275.5,-55 275.5,-74"/>
<text text-anchor="middle" x="232" y="-62" font-family="Helvetica,sans-Serif" font-size="10.00">Components.h</text>
</a>
</g>
</g>
<!-- Node1&#45;&gt;Node21 -->
<g id="edge21_Node000001_Node000021" class="edge">
<title>Node1&#45;&gt;Node21</title>
<g id="a_edge21_Node000001_Node000021"><a xlink:title=" ">
<path fill="none" stroke="#63b8ff" d="M1462.95,-172.17C1177.31,-167.93 342.97,-153.48 290,-129 268.9,-119.25 252.01,-97.87 242.02,-82.62"/>
<polygon fill="#63b8ff" stroke="#63b8ff" points="244.96,-80.72 236.71,-74.07 239.01,-84.41 244.96,-80.72"/>
</a>
</g>
</g>
<!-- Node25 -->
<g id="Node000025" class="node">
<title>Node25</title>
<g id="a_Node000025"><a xlink:href="../../d5/dca/Message_8h.html" target="_top" xlink:title=" ">
<polygon fill="white" stroke="#666666" points="477.5,-129 408.5,-129 408.5,-110 477.5,-110 477.5,-129"/>
<text text-anchor="middle" x="443" y="-117" font-family="Helvetica,sans-Serif" font-size="10.00">Message.h</text>
</a>
</g>
</g>
<!-- Node1&#45;&gt;Node25 -->
<g id="edge28_Node000001_Node000025" class="edge">
<title>Node1&#45;&gt;Node25</title>
<g id="a_edge28_Node000001_Node000025"><a xlink:title=" ">
<path fill="none" stroke="#63b8ff" d="M1462.94,-168.98C1232.97,-158.05 653.4,-130.5 487.81,-122.63"/>
<polygon fill="#63b8ff" stroke="#63b8ff" points="487.67,-119.12 477.51,-122.14 487.34,-126.11 487.67,-119.12"/>
</a>
</g>
</g>
<!-- Node28 -->
<g id="Node000028" class="node">
<title>Node28</title>
<g id="a_Node000028"><a xlink:title=" ">
<polygon fill="#e0e0e0" stroke="#999999" points="2669.5,-129 2614.5,-129 2614.5,-110 2669.5,-110 2669.5,-129"/>
<text text-anchor="middle" x="2642" y="-117" font-family="Helvetica,sans-Serif" font-size="10.00">fstream</text>
</a>
</g>
</g>
<!-- Node1&#45;&gt;Node28 -->
<g id="edge34_Node000001_Node000028" class="edge">
<title>Node1&#45;&gt;Node28</title>
<g id="a_edge34_Node000001_Node000028"><a xlink:title=" ">
<path fill="none" stroke="#63b8ff" d="M1653.38,-171.68C1871.82,-167.17 2404.18,-154.05 2604.1,-128.79"/>
<polygon fill="#63b8ff" stroke="#63b8ff" points="2604.76,-132.23 2614.22,-127.46 2603.85,-125.29 2604.76,-132.23"/>
</a>
</g>
</g>
<!-- Node29 -->
<g id="Node000029" class="node">
<title>Node29</title>
<g id="a_Node000029"><a xlink:href="../../d7/df9/ImGuiToaster_8h.html" target="_top" xlink:title=" ">
<polygon fill="white" stroke="#666666" points="1485.5,-129 1396.5,-129 1396.5,-110 1485.5,-110 1485.5,-129"/>
<text text-anchor="middle" x="1441" y="-117" font-family="Helvetica,sans-Serif" font-size="10.00">ImGuiToaster.h</text>
</a>
</g>
</g>
<!-- Node1&#45;&gt;Node29 -->
<g id="edge35_Node000001_Node000029" class="edge">
<title>Node1&#45;&gt;Node29</title>
<g id="a_edge35_Node000001_Node000029"><a xlink:title=" ">
<path fill="none" stroke="#63b8ff" d="M1539.2,-164.98C1520.38,-156.46 1491.18,-143.23 1469.5,-133.41"/>
<polygon fill="#63b8ff" stroke="#63b8ff" points="1470.69,-130.11 1460.14,-129.17 1467.8,-136.48 1470.69,-130.11"/>
</a>
</g>
</g>
<!-- Node34 -->
<g id="Node000034" class="node">
<title>Node34</title>
<g id="a_Node000034"><a xlink:href="../../d2/d09/PathManager_8h.html" target="_top" xlink:title=" ">
<polygon fill="white" stroke="#666666" points="2111.5,-129 2022.5,-129 2022.5,-110 2111.5,-110 2111.5,-129"/>
<text text-anchor="middle" x="2067" y="-117" font-family="Helvetica,sans-Serif" font-size="10.00">PathManager.h</text>
</a>
</g>
</g>
<!-- Node1&#45;&gt;Node34 -->
<g id="edge45_Node000001_Node000034" class="edge">
<title>Node1&#45;&gt;Node34</title>
<g id="a_edge45_Node000001_Node000034"><a xlink:title=" ">
<path fill="none" stroke="#63b8ff" d="M1639.78,-164.98C1744.39,-154.09 1922.73,-135.52 2012.28,-126.2"/>
<polygon fill="#63b8ff" stroke="#63b8ff" points="2012.9,-129.65 2022.49,-125.13 2012.18,-122.69 2012.9,-129.65"/>
</a>
</g>
</g>
<!-- Node38 -->
<g id="Node000038" class="node">
<title>Node38</title>
<g id="a_Node000038"><a xlink:href="../../dd/da4/Logger_8h.html" target="_top" xlink:title=" ">
<polygon fill="white" stroke="#666666" points="1651,-129 1593,-129 1593,-110 1651,-110 1651,-129"/>
<text text-anchor="middle" x="1622" y="-117" font-family="Helvetica,sans-Serif" font-size="10.00">Logger.h</text>
</a>
</g>
</g>
<!-- Node1&#45;&gt;Node38 -->
<g id="edge51_Node000001_Node000038" class="edge">
<title>Node1&#45;&gt;Node38</title>
<g id="a_edge51_Node000001_Node000038"><a xlink:title=" ">
<path fill="none" stroke="#63b8ff" d="M1568.28,-164.98C1577.84,-157.07 1592.28,-145.11 1603.78,-135.58"/>
<polygon fill="#63b8ff" stroke="#63b8ff" points="1606.06,-138.24 1611.53,-129.17 1601.6,-132.85 1606.06,-138.24"/>
</a>
</g>
</g>
<!-- Node40 -->
<g id="Node000040" class="node">
<title>Node40</title>
<g id="a_Node000040"><a xlink:href="../../d6/d11/IdentityManager_8h.html" target="_top" xlink:title=" ">
<polygon fill="white" stroke="#666666" points="832.5,-129 727.5,-129 727.5,-110 832.5,-110 832.5,-129"/>
<text text-anchor="middle" x="780" y="-117" font-family="Helvetica,sans-Serif" font-size="10.00">IdentityManager.h</text>
</a>
</g>
</g>
<!-- Node1&#45;&gt;Node40 -->
<g id="edge63_Node000001_Node000040" class="edge">
<title>Node1&#45;&gt;Node40</title>
<g id="a_edge63_Node000001_Node000040"><a xlink:title=" ">
<path fill="none" stroke="#63b8ff" d="M1462.92,-168.56C1328.99,-161.35 1077.17,-146.82 863,-129 856.4,-128.45 849.52,-127.83 842.66,-127.17"/>
<polygon fill="#63b8ff" stroke="#63b8ff" points="842.95,-123.69 832.66,-126.2 842.27,-130.65 842.95,-123.69"/>
</a>
</g>
</g>
<!-- Node5&#45;&gt;Node2 -->
<g id="edge7_Node000005_Node000002" class="edge">
<title>Node5&#45;&gt;Node2</title>
<g id="a_edge7_Node000005_Node000002"><a xlink:title=" ">
<path fill="none" stroke="#63b8ff" d="M1096.59,-109.66C1077.12,-91.38 1032.19,-49.18 1007.68,-26.17"/>
<polygon fill="#63b8ff" stroke="#63b8ff" points="1009.91,-23.45 1000.22,-19.16 1005.11,-28.56 1009.91,-23.45"/>
</a>
</g>
</g>
<!-- Node6 -->
<g id="Node000006" class="node">
<title>Node6</title>
<g id="a_Node000006"><a xlink:title=" ">
<polygon fill="#e0e0e0" stroke="#999999" points="1024,-74 958,-74 958,-55 1024,-55 1024,-74"/>
<text text-anchor="middle" x="991" y="-62" font-family="Helvetica,sans-Serif" font-size="10.00">rtc/rtc.hpp</text>
</a>
</g>
</g>
<!-- Node5&#45;&gt;Node6 -->
<g id="edge5_Node000005_Node000006" class="edge">
<title>Node5&#45;&gt;Node6</title>
<g id="a_edge5_Node000005_Node000006"><a xlink:title=" ">
<path fill="none" stroke="#63b8ff" d="M1087.52,-109.98C1069.02,-101.46 1040.32,-88.23 1019.02,-78.41"/>
<polygon fill="#63b8ff" stroke="#63b8ff" points="1020.36,-75.18 1009.81,-74.17 1017.43,-81.53 1020.36,-75.18"/>
</a>
</g>
</g>
<!-- Node7 -->
<g id="Node000007" class="node">
<title>Node7</title>
<g id="a_Node000007"><a xlink:title=" ">
<polygon fill="#e0e0e0" stroke="#999999" points="1216.5,-74 1151.5,-74 1151.5,-55 1216.5,-55 1216.5,-74"/>
<text text-anchor="middle" x="1184" y="-62" font-family="Helvetica,sans-Serif" font-size="10.00">functional</text>
</a>
</g>
</g>
<!-- Node5&#45;&gt;Node7 -->
<g id="edge6_Node000005_Node000007" class="edge">
<title>Node5&#45;&gt;Node7</title>
<g id="a_edge6_Node000005_Node000007"><a xlink:title=" ">
<path fill="none" stroke="#63b8ff" d="M1118.53,-109.98C1130.4,-101.92 1148.46,-89.65 1162.61,-80.03"/>
<polygon fill="#63b8ff" stroke="#63b8ff" points="1164.94,-82.69 1171.24,-74.17 1161,-76.9 1164.94,-82.69"/>
</a>
</g>
</g>
<!-- Node18 -->
<g id="Node000018" class="node">
<title>Node18</title>
<g id="a_Node000018"><a xlink:title=" ">
<polygon fill="#e0e0e0" stroke="#999999" points="1935.5,-74 1888.5,-74 1888.5,-55 1935.5,-55 1935.5,-74"/>
<text text-anchor="middle" x="1912" y="-62" font-family="Helvetica,sans-Serif" font-size="10.00">queue</text>
</a>
</g>
</g>
<!-- Node17&#45;&gt;Node18 -->
<g id="edge18_Node000017_Node000018" class="edge">
<title>Node17&#45;&gt;Node18</title>
<g id="a_edge18_Node000017_Node000018"><a xlink:title=" ">
<path fill="none" stroke="#63b8ff" d="M1817.16,-109.98C1835.25,-101.5 1863.28,-88.35 1884.19,-78.54"/>
<polygon fill="#63b8ff" stroke="#63b8ff" points="1885.95,-81.59 1893.51,-74.17 1882.97,-75.25 1885.95,-81.59"/>
</a>
</g>
</g>
<!-- Node19 -->
<g id="Node000019" class="node">
<title>Node19</title>
<g id="a_Node000019"><a xlink:title=" ">
<polygon fill="#e0e0e0" stroke="#999999" points="1757,-74 1709,-74 1709,-55 1757,-55 1757,-74"/>
<text text-anchor="middle" x="1733" y="-62" font-family="Helvetica,sans-Serif" font-size="10.00">mutex</text>
</a>
</g>
</g>
<!-- Node17&#45;&gt;Node19 -->
<g id="edge19_Node000017_Node000019" class="edge">
<title>Node17&#45;&gt;Node19</title>
<g id="a_edge19_Node000017_Node000019"><a xlink:title=" ">
<path fill="none" stroke="#63b8ff" d="M1788.4,-109.98C1778.54,-102.07 1763.65,-90.11 1751.78,-80.58"/>
<polygon fill="#63b8ff" stroke="#63b8ff" points="1753.79,-77.7 1743.8,-74.17 1749.4,-83.16 1753.79,-77.7"/>
</a>
</g>
</g>
<!-- Node20 -->
<g id="Node000020" class="node">
<title>Node20</title>
<g id="a_Node000020"><a xlink:title=" ">
<polygon fill="#e0e0e0" stroke="#999999" points="2127.5,-74 2020.5,-74 2020.5,-55 2127.5,-55 2127.5,-74"/>
<text text-anchor="middle" x="2074" y="-62" font-family="Helvetica,sans-Serif" font-size="10.00">condition_variable</text>
</a>
</g>
</g>
<!-- Node17&#45;&gt;Node20 -->
<g id="edge20_Node000017_Node000020" class="edge">
<title>Node17&#45;&gt;Node20</title>
<g id="a_edge20_Node000017_Node000020"><a xlink:title=" ">
<path fill="none" stroke="#63b8ff" d="M1843.18,-109.98C1891.15,-100.74 1967.81,-85.97 2019.48,-76.01"/>
<polygon fill="#63b8ff" stroke="#63b8ff" points="2020.31,-79.41 2029.47,-74.08 2018.99,-72.54 2020.31,-79.41"/>
</a>
</g>
</g>
<!-- Node21&#45;&gt;Node2 -->
<g id="edge23_Node000021_Node000002" class="edge">
<title>Node21&#45;&gt;Node2</title>
<g id="a_edge23_Node000021_Node000002"><a xlink:title=" ">
<path fill="none" stroke="#63b8ff" d="M275.95,-59.16C290.88,-57.74 307.66,-56.23 323,-55 567.28,-35.46 862.31,-17.92 958.78,-12.34"/>
<polygon fill="#63b8ff" stroke="#63b8ff" points="959,-15.83 968.78,-11.76 958.6,-8.85 959,-15.83"/>
</a>
</g>
</g>
<!-- Node21&#45;&gt;Node8 -->
<g id="edge26_Node000021_Node000008" class="edge">
<title>Node21&#45;&gt;Node8</title>
<g id="a_edge26_Node000021_Node000008"><a xlink:title=" ">
<path fill="none" stroke="#63b8ff" d="M243.89,-54.98C255.15,-46.92 272.29,-34.65 285.71,-25.03"/>
<polygon fill="#63b8ff" stroke="#63b8ff" points="287.8,-27.84 293.89,-19.17 283.73,-22.15 287.8,-27.84"/>
</a>
</g>
</g>
<!-- Node21&#45;&gt;Node12 -->
<g id="edge22_Node000021_Node000012" class="edge">
<title>Node21&#45;&gt;Node12</title>
<g id="a_edge22_Node000021_Node000012"><a xlink:title=" ">
<path fill="none" stroke="#63b8ff" d="M275.94,-58.95C290.86,-57.52 307.64,-56.05 323,-55 713.47,-28.33 1188.54,-14.72 1317.41,-11.35"/>
<polygon fill="#63b8ff" stroke="#63b8ff" points="1317.54,-14.84 1327.44,-11.09 1317.36,-7.85 1317.54,-14.84"/>
</a>
</g>
</g>
<!-- Node22 -->
<g id="Node000022" class="node">
<title>Node22</title>
<g id="a_Node000022"><a xlink:title=" ">
<polygon fill="#e0e0e0" stroke="#999999" points="182,-19 104,-19 104,0 182,0 182,-19"/>
<text text-anchor="middle" x="143" y="-7" font-family="Helvetica,sans-Serif" font-size="10.00">glm/glm.hpp</text>
</a>
</g>
</g>
<!-- Node21&#45;&gt;Node22 -->
<g id="edge24_Node000021_Node000022" class="edge">
<title>Node21&#45;&gt;Node22</title>
<g id="a_edge24_Node000021_Node000022"><a xlink:title=" ">
<path fill="none" stroke="#63b8ff" d="M217.7,-54.98C203.9,-46.77 182.76,-34.18 166.49,-24.49"/>
<polygon fill="#63b8ff" stroke="#63b8ff" points="167.94,-21.28 157.56,-19.17 164.36,-27.29 167.94,-21.28"/>
</a>
</g>
</g>
<!-- Node23 -->
<g id="Node000023" class="node">
<title>Node23</title>
<g id="a_Node000023"><a xlink:title=" ">
<polygon fill="#e0e0e0" stroke="#999999" points="264,-19 200,-19 200,0 264,0 264,-19"/>
<text text-anchor="middle" x="232" y="-7" font-family="Helvetica,sans-Serif" font-size="10.00">GL/glew.h</text>
</a>
</g>
</g>
<!-- Node21&#45;&gt;Node23 -->
<g id="edge25_Node000021_Node000023" class="edge">
<title>Node21&#45;&gt;Node23</title>
<g id="a_edge25_Node000021_Node000023"><a xlink:title=" ">
<path fill="none" stroke="#63b8ff" d="M232,-54.75C232,-47.8 232,-37.85 232,-29.13"/>
<polygon fill="#63b8ff" stroke="#63b8ff" points="235.5,-29.09 232,-19.09 228.5,-29.09 235.5,-29.09"/>
</a>
</g>
</g>
<!-- Node24 -->
<g id="Node000024" class="node">
<title>Node24</title>
<g id="a_Node000024"><a xlink:title=" ">
<polygon fill="#e0e0e0" stroke="#999999" points="86,-19 0,-19 0,0 86,0 86,-19"/>
<text text-anchor="middle" x="43" y="-7" font-family="Helvetica,sans-Serif" font-size="10.00">shared_mutex</text>
</a>
</g>
</g>
<!-- Node21&#45;&gt;Node24 -->
<g id="edge27_Node000021_Node000024" class="edge">
<title>Node21&#45;&gt;Node24</title>
<g id="a_edge27_Node000021_Node000024"><a xlink:title=" ">
<path fill="none" stroke="#63b8ff" d="M201.63,-54.98C169.63,-46.01 119.04,-31.82 83.62,-21.89"/>
<polygon fill="#63b8ff" stroke="#63b8ff" points="84.18,-18.41 73.6,-19.08 82.29,-25.15 84.18,-18.41"/>
</a>
</g>
</g>
<!-- Node25&#45;&gt;Node2 -->
<g id="edge29_Node000025_Node000002" class="edge">
<title>Node25&#45;&gt;Node2</title>
<g id="a_edge29_Node000025_Node000002"><a xlink:title=" ">
<path fill="none" stroke="#63b8ff" d="M436.96,-109.88C428.3,-96.39 414.9,-70.26 429,-55 465.07,-15.96 844.63,-11.13 958.74,-10.57"/>
<polygon fill="#63b8ff" stroke="#63b8ff" points="958.94,-14.07 968.93,-10.52 958.91,-7.07 958.94,-14.07"/>
</a>
</g>
</g>
<!-- Node25&#45;&gt;Node14 -->
<g id="edge32_Node000025_Node000014" class="edge">
<title>Node25&#45;&gt;Node14</title>
<g id="a_edge32_Node000025_Node000014"><a xlink:title=" ">
<path fill="none" stroke="#63b8ff" d="M465.81,-109.98C489.17,-101.27 525.7,-87.63 552.17,-77.75"/>
<polygon fill="#63b8ff" stroke="#63b8ff" points="553.63,-80.95 561.77,-74.17 551.18,-74.39 553.63,-80.95"/>
</a>
</g>
</g>
<!-- Node25&#45;&gt;Node21 -->
<g id="edge33_Node000025_Node000021" class="edge">
<title>Node25&#45;&gt;Node21</title>
<g id="a_edge33_Node000025_Node000021"><a xlink:title=" ">
<path fill="none" stroke="#63b8ff" d="M409.1,-109.98C372.98,-100.91 315.68,-86.52 276.08,-76.57"/>
<polygon fill="#63b8ff" stroke="#63b8ff" points="276.72,-73.12 266.17,-74.08 275.01,-79.91 276.72,-73.12"/>
</a>
</g>
</g>
<!-- Node26 -->
<g id="Node000026" class="node">
<title>Node26</title>
<g id="a_Node000026"><a xlink:title=" ">
<polygon fill="#e0e0e0" stroke="#999999" points="511.5,-74 438.5,-74 438.5,-55 511.5,-55 511.5,-74"/>
<text text-anchor="middle" x="475" y="-62" font-family="Helvetica,sans-Serif" font-size="10.00">string_view</text>
</a>
</g>
</g>
<!-- Node25&#45;&gt;Node26 -->
<g id="edge30_Node000025_Node000026" class="edge">
<title>Node25&#45;&gt;Node26</title>
<g id="a_edge30_Node000025_Node000026"><a xlink:title=" ">
<path fill="none" stroke="#63b8ff" d="M448.28,-109.75C452.71,-102.42 459.16,-91.73 464.62,-82.7"/>
<polygon fill="#63b8ff" stroke="#63b8ff" points="467.64,-84.46 469.81,-74.09 461.65,-80.84 467.64,-84.46"/>
</a>
</g>
</g>
<!-- Node27 -->
<g id="Node000027" class="node">
<title>Node27</title>
<g id="a_Node000027"><a xlink:title=" ">
<polygon fill="#e0e0e0" stroke="#999999" points="382,-74 332,-74 332,-55 382,-55 382,-74"/>
<text text-anchor="middle" x="357" y="-62" font-family="Helvetica,sans-Serif" font-size="10.00">cstdint</text>
</a>
</g>
</g>
<!-- Node25&#45;&gt;Node27 -->
<g id="edge31_Node000025_Node000027" class="edge">
<title>Node25&#45;&gt;Node27</title>
<g id="a_edge31_Node000025_Node000027"><a xlink:title=" ">
<path fill="none" stroke="#63b8ff" d="M429.18,-109.98C415.85,-101.77 395.42,-89.18 379.69,-79.49"/>
<polygon fill="#63b8ff" stroke="#63b8ff" points="381.42,-76.44 371.07,-74.17 377.75,-82.4 381.42,-76.44"/>
</a>
</g>
</g>
<!-- Node29&#45;&gt;Node2 -->
<g id="edge39_Node000029_Node000002" class="edge">
<title>Node29&#45;&gt;Node2</title>
<g id="a_edge39_Node000029_Node000002"><a xlink:title=" ">
<path fill="none" stroke="#63b8ff" d="M1396.23,-109.93C1359.98,-102.35 1307.91,-90.02 1264,-74 1245.89,-67.39 1243.3,-61.08 1225,-55 1155.06,-31.77 1069.1,-19.32 1023.31,-13.9"/>
<polygon fill="#63b8ff" stroke="#63b8ff" points="1023.44,-10.39 1013.1,-12.72 1022.64,-17.34 1023.44,-10.39"/>
</a>
</g>
</g>
<!-- Node29&#45;&gt;Node4 -->
<g id="edge43_Node000029_Node000004" class="edge">
<title>Node29&#45;&gt;Node4</title>
<g id="a_edge43_Node000029_Node000004"><a xlink:title=" ">
<path fill="none" stroke="#63b8ff" d="M1459.8,-109.98C1478.62,-101.46 1507.82,-88.23 1529.5,-78.41"/>
<polygon fill="#63b8ff" stroke="#63b8ff" points="1531.2,-81.48 1538.86,-74.17 1528.31,-75.11 1531.2,-81.48"/>
</a>
</g>
</g>
<!-- Node29&#45;&gt;Node10 -->
<g id="edge36_Node000029_Node000010" class="edge">
<title>Node29&#45;&gt;Node10</title>
<g id="a_edge36_Node000029_Node000010"><a xlink:title=" ">
<path fill="none" stroke="#63b8ff" d="M1396.46,-113.15C1339.85,-106.07 1238.95,-92.51 1143.78,-74.21"/>
<polygon fill="#63b8ff" stroke="#63b8ff" points="1144.18,-70.72 1133.7,-72.25 1142.85,-77.59 1144.18,-70.72"/>
</a>
</g>
</g>
<!-- Node29&#45;&gt;Node12 -->
<g id="edge40_Node000029_Node000012" class="edge">
<title>Node29&#45;&gt;Node12</title>
<g id="a_edge40_Node000029_Node000012"><a xlink:title=" ">
<path fill="none" stroke="#63b8ff" d="M1419.41,-109.97C1403.57,-102.66 1382.69,-90.67 1370,-74 1360.09,-60.98 1355.32,-42.84 1353.05,-29.27"/>
<polygon fill="#63b8ff" stroke="#63b8ff" points="1356.49,-28.61 1351.66,-19.17 1349.56,-29.56 1356.49,-28.61"/>
</a>
</g>
</g>
<!-- Node29&#45;&gt;Node19 -->
<g id="edge38_Node000029_Node000019" class="edge">
<title>Node29&#45;&gt;Node19</title>
<g id="a_edge38_Node000029_Node000019"><a xlink:title=" ">
<path fill="none" stroke="#63b8ff" d="M1485.67,-110.39C1544.38,-99.74 1646.23,-81.25 1699.05,-71.66"/>
<polygon fill="#63b8ff" stroke="#63b8ff" points="1699.72,-75.1 1708.93,-69.87 1698.47,-68.21 1699.72,-75.1"/>
</a>
</g>
</g>
<!-- Node30 -->
<g id="Node000030" class="node">
<title>Node30</title>
<g id="a_Node000030"><a xlink:title=" ">
<polygon fill="#e0e0e0" stroke="#999999" points="1652.5,-74 1605.5,-74 1605.5,-55 1652.5,-55 1652.5,-74"/>
<text text-anchor="middle" x="1629" y="-62" font-family="Helvetica,sans-Serif" font-size="10.00">deque</text>
</a>
</g>
</g>
<!-- Node29&#45;&gt;Node30 -->
<g id="edge37_Node000029_Node000030" class="edge">
<title>Node29&#45;&gt;Node30</title>
<g id="a_edge37_Node000029_Node000030"><a xlink:title=" ">
<path fill="none" stroke="#63b8ff" d="M1471.21,-109.98C1505.21,-100.4 1560.32,-84.86 1595.59,-74.92"/>
<polygon fill="#63b8ff" stroke="#63b8ff" points="1596.74,-78.23 1605.42,-72.15 1594.84,-71.49 1596.74,-78.23"/>
</a>
</g>
</g>
<!-- Node31 -->
<g id="Node000031" class="node">
<title>Node31</title>
<g id="a_Node000031"><a xlink:title=" ">
<polygon fill="#e0e0e0" stroke="#999999" points="1429,-74 1379,-74 1379,-55 1429,-55 1429,-74"/>
<text text-anchor="middle" x="1404" y="-62" font-family="Helvetica,sans-Serif" font-size="10.00">chrono</text>
</a>
</g>
</g>
<!-- Node29&#45;&gt;Node31 -->
<g id="edge41_Node000029_Node000031" class="edge">
<title>Node29&#45;&gt;Node31</title>
<g id="a_edge41_Node000029_Node000031"><a xlink:title=" ">
<path fill="none" stroke="#63b8ff" d="M1434.89,-109.75C1429.72,-102.34 1422.15,-91.5 1415.81,-82.41"/>
<polygon fill="#63b8ff" stroke="#63b8ff" points="1418.59,-80.29 1410,-74.09 1412.85,-84.29 1418.59,-80.29"/>
</a>
</g>
</g>
<!-- Node32 -->
<g id="Node000032" class="node">
<title>Node32</title>
<g id="a_Node000032"><a xlink:title=" ">
<polygon fill="#e0e0e0" stroke="#999999" points="1511,-74 1447,-74 1447,-55 1511,-55 1511,-74"/>
<text text-anchor="middle" x="1479" y="-62" font-family="Helvetica,sans-Serif" font-size="10.00">algorithm</text>
</a>
</g>
</g>
<!-- Node29&#45;&gt;Node32 -->
<g id="edge42_Node000029_Node000032" class="edge">
<title>Node29&#45;&gt;Node32</title>
<g id="a_edge42_Node000029_Node000032"><a xlink:title=" ">
<path fill="none" stroke="#63b8ff" d="M1447.27,-109.75C1452.59,-102.34 1460.36,-91.5 1466.88,-82.41"/>
<polygon fill="#63b8ff" stroke="#63b8ff" points="1469.86,-84.26 1472.84,-74.09 1464.17,-80.18 1469.86,-84.26"/>
</a>
</g>
</g>
<!-- Node33 -->
<g id="Node000033" class="node">
<title>Node33</title>
<g id="a_Node000033"><a xlink:title=" ">
<polygon fill="#e0e0e0" stroke="#999999" points="1323,-74 1273,-74 1273,-55 1323,-55 1323,-74"/>
<text text-anchor="middle" x="1298" y="-62" font-family="Helvetica,sans-Serif" font-size="10.00">atomic</text>
</a>
</g>
</g>
<!-- Node29&#45;&gt;Node33 -->
<g id="edge44_Node000029_Node000033" class="edge">
<title>Node29&#45;&gt;Node33</title>
<g id="a_edge44_Node000029_Node000033"><a xlink:title=" ">
<path fill="none" stroke="#63b8ff" d="M1418.02,-109.98C1394.5,-101.27 1357.71,-87.63 1331.06,-77.75"/>
<polygon fill="#63b8ff" stroke="#63b8ff" points="1331.99,-74.36 1321.39,-74.17 1329.55,-80.93 1331.99,-74.36"/>
</a>
</g>
</g>
<!-- Node34&#45;&gt;Node2 -->
<g id="edge47_Node000034_Node000002" class="edge">
<title>Node34&#45;&gt;Node2</title>
<g id="a_edge47_Node000034_Node000002"><a xlink:title=" ">
<path fill="none" stroke="#63b8ff" d="M2089.1,-109.87C2116.43,-98.02 2157.02,-75.81 2137,-55 2127.07,-44.68 1208.63,-16.95 1023.35,-11.45"/>
<polygon fill="#63b8ff" stroke="#63b8ff" points="1023.27,-7.95 1013.17,-11.15 1023.06,-14.95 1023.27,-7.95"/>
</a>
</g>
</g>
<!-- Node34&#45;&gt;Node16 -->
<g id="edge48_Node000034_Node000016" class="edge">
<title>Node34&#45;&gt;Node16</title>
<g id="a_edge48_Node000034_Node000016"><a xlink:title=" ">
<path fill="none" stroke="#63b8ff" d="M2111.62,-111.57C2161.81,-103.63 2246,-89.87 2327.83,-74.15"/>
<polygon fill="#63b8ff" stroke="#63b8ff" points="2328.64,-77.56 2337.79,-72.23 2327.31,-70.69 2328.64,-77.56"/>
</a>
</g>
</g>
<!-- Node35 -->
<g id="Node000035" class="node">
<title>Node35</title>
<g id="a_Node000035"><a xlink:title=" ">
<polygon fill="#e0e0e0" stroke="#999999" points="2252,-74 2184,-74 2184,-55 2252,-55 2252,-74"/>
<text text-anchor="middle" x="2218" y="-62" font-family="Helvetica,sans-Serif" font-size="10.00">filesystem</text>
</a>
</g>
</g>
<!-- Node34&#45;&gt;Node35 -->
<g id="edge46_Node000034_Node000035" class="edge">
<title>Node34&#45;&gt;Node35</title>
<g id="a_edge46_Node000034_Node000035"><a xlink:title=" ">
<path fill="none" stroke="#63b8ff" d="M2091.26,-109.98C2116.32,-101.19 2155.63,-87.39 2183.83,-77.49"/>
<polygon fill="#63b8ff" stroke="#63b8ff" points="2185.02,-80.78 2193.3,-74.17 2182.7,-74.18 2185.02,-80.78"/>
</a>
</g>
</g>
<!-- Node36 -->
<g id="Node000036" class="node">
<title>Node36</title>
<g id="a_Node000036"><a xlink:title=" ">
<polygon fill="#e0e0e0" stroke="#999999" points="2319.5,-74 2270.5,-74 2270.5,-55 2319.5,-55 2319.5,-74"/>
<text text-anchor="middle" x="2295" y="-62" font-family="Helvetica,sans-Serif" font-size="10.00">cstdlib</text>
</a>
</g>
</g>
<!-- Node34&#45;&gt;Node36 -->
<g id="edge49_Node000034_Node000036" class="edge">
<title>Node34&#45;&gt;Node36</title>
<g id="a_edge49_Node000034_Node000036"><a xlink:title=" ">
<path fill="none" stroke="#63b8ff" d="M2105.33,-109.94C2142.44,-101.6 2200.53,-88.41 2260.48,-74.09"/>
<polygon fill="#63b8ff" stroke="#63b8ff" points="2261.59,-77.42 2270.5,-71.69 2259.96,-70.61 2261.59,-77.42"/>
</a>
</g>
</g>
<!-- Node37 -->
<g id="Node000037" class="node">
<title>Node37</title>
<g id="a_Node000037"><a xlink:title=" ">
<polygon fill="#e0e0e0" stroke="#999999" points="2002.5,-74 1953.5,-74 1953.5,-55 2002.5,-55 2002.5,-74"/>
<text text-anchor="middle" x="1978" y="-62" font-family="Helvetica,sans-Serif" font-size="10.00">cctype</text>
</a>
</g>
</g>
<!-- Node34&#45;&gt;Node37 -->
<g id="edge50_Node000034_Node000037" class="edge">
<title>Node34&#45;&gt;Node37</title>
<g id="a_edge50_Node000034_Node000037"><a xlink:title=" ">
<path fill="none" stroke="#63b8ff" d="M2052.7,-109.98C2038.9,-101.77 2017.76,-89.18 2001.49,-79.49"/>
<polygon fill="#63b8ff" stroke="#63b8ff" points="2002.94,-76.28 1992.56,-74.17 1999.36,-82.29 2002.94,-76.28"/>
</a>
</g>
</g>
<!-- Node38&#45;&gt;Node2 -->
<g id="edge56_Node000038_Node000002" class="edge">
<title>Node38&#45;&gt;Node2</title>
<g id="a_edge56_Node000038_Node000002"><a xlink:title=" ">
<path fill="none" stroke="#63b8ff" d="M1634.16,-109.99C1651.15,-97.1 1678.2,-72.31 1662,-55 1639.93,-31.42 1154.68,-15.36 1023.46,-11.43"/>
<polygon fill="#63b8ff" stroke="#63b8ff" points="1023.35,-7.93 1013.25,-11.13 1023.15,-14.92 1023.35,-7.93"/>
</a>
</g>
</g>
<!-- Node38&#45;&gt;Node3 -->
<g id="edge53_Node000038_Node000003" class="edge">
<title>Node38&#45;&gt;Node3</title>
<g id="a_edge53_Node000038_Node000003"><a xlink:title=" ">
<path fill="none" stroke="#63b8ff" d="M1592.77,-116.56C1566.83,-114.83 1527.89,-112.24 1494,-110 1251.78,-93.96 1191.01,-92.93 949,-74 937,-73.06 924.15,-71.96 911.93,-70.87"/>
<polygon fill="#63b8ff" stroke="#63b8ff" points="912.11,-67.37 901.84,-69.96 911.48,-74.35 912.11,-67.37"/>
</a>
</g>
</g>
<!-- Node38&#45;&gt;Node4 -->
<g id="edge59_Node000038_Node000004" class="edge">
<title>Node38&#45;&gt;Node4</title>
<g id="a_edge59_Node000038_Node000004"><a xlink:title=" ">
<path fill="none" stroke="#63b8ff" d="M1611.72,-109.98C1602.16,-102.07 1587.72,-90.11 1576.22,-80.58"/>
<polygon fill="#63b8ff" stroke="#63b8ff" points="1578.4,-77.85 1568.47,-74.17 1573.94,-83.24 1578.4,-77.85"/>
</a>
</g>
</g>
<!-- Node38&#45;&gt;Node7 -->
<g id="edge57_Node000038_Node000007" class="edge">
<title>Node38&#45;&gt;Node7</title>
<g id="a_edge57_Node000038_Node000007"><a xlink:title=" ">
<path fill="none" stroke="#63b8ff" d="M1592.92,-114.98C1517.48,-105.85 1315.18,-81.37 1226.57,-70.65"/>
<polygon fill="#63b8ff" stroke="#63b8ff" points="1226.94,-67.17 1216.59,-69.44 1226.1,-74.12 1226.94,-67.17"/>
</a>
</g>
</g>
<!-- Node38&#45;&gt;Node12 -->
<g id="edge55_Node000038_Node000012" class="edge">
<title>Node38&#45;&gt;Node12</title>
<g id="a_edge55_Node000038_Node000012"><a xlink:title=" ">
<path fill="none" stroke="#63b8ff" d="M1651.07,-115.89C1702.53,-110.23 1801.06,-94.02 1766,-55 1740.64,-26.78 1479.03,-14.95 1384.69,-11.58"/>
<polygon fill="#63b8ff" stroke="#63b8ff" points="1384.66,-8.08 1374.55,-11.23 1384.42,-15.07 1384.66,-8.08"/>
</a>
</g>
</g>
<!-- Node38&#45;&gt;Node19 -->
<g id="edge52_Node000038_Node000019" class="edge">
<title>Node38&#45;&gt;Node19</title>
<g id="a_edge52_Node000038_Node000019"><a xlink:title=" ">
<path fill="none" stroke="#63b8ff" d="M1639.83,-109.98C1657.61,-101.5 1685.15,-88.35 1705.68,-78.54"/>
<polygon fill="#63b8ff" stroke="#63b8ff" points="1707.33,-81.64 1714.84,-74.17 1704.31,-75.32 1707.33,-81.64"/>
</a>
</g>
</g>
<!-- Node38&#45;&gt;Node30 -->
<g id="edge54_Node000038_Node000030" class="edge">
<title>Node38&#45;&gt;Node30</title>
<g id="a_edge54_Node000038_Node000030"><a xlink:title=" ">
<path fill="none" stroke="#63b8ff" d="M1623.16,-109.75C1624.07,-102.8 1625.39,-92.85 1626.54,-84.13"/>
<polygon fill="#63b8ff" stroke="#63b8ff" points="1630.03,-84.46 1627.87,-74.09 1623.09,-83.54 1630.03,-84.46"/>
</a>
</g>
</g>
<!-- Node38&#45;&gt;Node31 -->
<g id="edge61_Node000038_Node000031" class="edge">
<title>Node38&#45;&gt;Node31</title>
<g id="a_edge61_Node000038_Node000031"><a xlink:title=" ">
<path fill="none" stroke="#63b8ff" d="M1592.98,-111.56C1558.62,-103.32 1499.4,-89.07 1439.29,-74.3"/>
<polygon fill="#63b8ff" stroke="#63b8ff" points="1439.79,-70.82 1429.25,-71.83 1438.12,-77.62 1439.79,-70.82"/>
</a>
</g>
</g>
<!-- Node38&#45;&gt;Node32 -->
<g id="edge58_Node000038_Node000032" class="edge">
<title>Node38&#45;&gt;Node32</title>
<g id="a_edge58_Node000038_Node000032"><a xlink:title=" ">
<path fill="none" stroke="#63b8ff" d="M1599.02,-109.98C1575.5,-101.27 1538.71,-87.63 1512.06,-77.75"/>
<polygon fill="#63b8ff" stroke="#63b8ff" points="1512.99,-74.36 1502.39,-74.17 1510.55,-80.93 1512.99,-74.36"/>
</a>
</g>
</g>
<!-- Node38&#45;&gt;Node37 -->
<g id="edge62_Node000038_Node000037" class="edge">
<title>Node38&#45;&gt;Node37</title>
<g id="a_edge62_Node000038_Node000037"><a xlink:title=" ">
<path fill="none" stroke="#63b8ff" d="M1651.14,-115.62C1706.38,-109.93 1830.25,-95.99 1943.34,-74.14"/>
<polygon fill="#63b8ff" stroke="#63b8ff" points="1944.06,-77.57 1953.2,-72.21 1942.72,-70.7 1944.06,-77.57"/>
</a>
</g>
</g>
<!-- Node39 -->
<g id="Node000039" class="node">
<title>Node39</title>
<g id="a_Node000039"><a xlink:title=" ">
<polygon fill="#e0e0e0" stroke="#999999" points="1870.5,-74 1813.5,-74 1813.5,-55 1870.5,-55 1870.5,-74"/>
<text text-anchor="middle" x="1842" y="-62" font-family="Helvetica,sans-Serif" font-size="10.00">ostream</text>
</a>
</g>
</g>
<!-- Node38&#45;&gt;Node39 -->
<g id="edge60_Node000038_Node000039" class="edge">
<title>Node38&#45;&gt;Node39</title>
<g id="a_edge60_Node000038_Node000039"><a xlink:title=" ">
<path fill="none" stroke="#63b8ff" d="M1651.21,-111.46C1690.39,-102.03 1760.02,-85.25 1803.45,-74.79"/>
<polygon fill="#63b8ff" stroke="#63b8ff" points="1804.46,-78.14 1813.36,-72.4 1802.82,-71.34 1804.46,-78.14"/>
</a>
</g>
</g>
<!-- Node40&#45;&gt;Node2 -->
<g id="edge64_Node000040_Node000002" class="edge">
<title>Node40&#45;&gt;Node2</title>
<g id="a_edge64_Node000040_Node000002"><a xlink:title=" ">
<path fill="none" stroke="#63b8ff" d="M746.97,-109.96C712.29,-99.43 665.52,-79.85 687,-55 721.83,-14.69 887.39,-10.19 958.46,-10.16"/>
<polygon fill="#63b8ff" stroke="#63b8ff" points="958.62,-13.66 968.63,-10.19 958.64,-6.66 958.62,-13.66"/>
</a>
</g>
</g>
<!-- Node40&#45;&gt;Node3 -->
<g id="edge65_Node000040_Node000003" class="edge">
<title>Node40&#45;&gt;Node3</title>
<g id="a_edge65_Node000040_Node000003"><a xlink:title=" ">
<path fill="none" stroke="#63b8ff" d="M792.05,-109.98C803.46,-101.92 820.83,-89.65 834.43,-80.03"/>
<polygon fill="#63b8ff" stroke="#63b8ff" points="836.58,-82.8 842.73,-74.17 832.54,-77.08 836.58,-82.8"/>
</a>
</g>
</g>
<!-- Node40&#45;&gt;Node12 -->
<g id="edge66_Node000040_Node000012" class="edge">
<title>Node40&#45;&gt;Node12</title>
<g id="a_edge66_Node000040_Node000012"><a xlink:title=" ">
<path fill="none" stroke="#63b8ff" d="M779.75,-109.87C779.87,-95.88 782.36,-68.46 799,-55 839.28,-22.41 1203.06,-13.15 1317.02,-11.04"/>
<polygon fill="#63b8ff" stroke="#63b8ff" points="1317.32,-14.54 1327.25,-10.86 1317.19,-7.54 1317.32,-14.54"/>
</a>
</g>
</g>
<!-- Node41 -->
<g id="Node000041" class="node">
<title>Node41</title>
<g id="a_Node000041"><a xlink:title=" ">
<polygon fill="#e0e0e0" stroke="#999999" points="752,-74 696,-74 696,-55 752,-55 752,-74"/>
<text text-anchor="middle" x="724" y="-62" font-family="Helvetica,sans-Serif" font-size="10.00">optional</text>
</a>
</g>
</g>
<!-- Node40&#45;&gt;Node41 -->
<g id="edge67_Node000040_Node000041" class="edge">
<title>Node40&#45;&gt;Node41</title>
<g id="a_edge67_Node000040_Node000041"><a xlink:title=" ">
<path fill="none" stroke="#63b8ff" d="M771,-109.98C762.81,-102.23 750.49,-90.58 740.53,-81.14"/>
<polygon fill="#63b8ff" stroke="#63b8ff" points="742.83,-78.5 733.16,-74.17 738.02,-83.59 742.83,-78.5"/>
</a>
</g>
</g>
</g>
</svg>
