<?xml version="1.0" encoding="UTF-8" standalone="no"?>
<!DOCTYPE svg PUBLIC "-//W3C//DTD SVG 1.1//EN"
 "http://www.w3.org/Graphics/SVG/1.1/DTD/svg11.dtd">
<!-- Generated by graphviz version 14.0.2 (20251019.1705)
 -->
<!-- Title: VertexArray::Bind Pages: 1 -->
<svg width="499pt" height="66pt"
 viewBox="0.00 0.00 499.00 66.00" xmlns="http://www.w3.org/2000/svg" xmlns:xlink="http://www.w3.org/1999/xlink">
<g id="graph0" class="graph" transform="scale(1 1) rotate(0) translate(4 62)">
<title>VertexArray::Bind</title>
<!-- Node1 -->
<g id="Node000001" class="node">
<title>Node1</title>
<g id="a_Node000001"><a xlink:title=" ">
<polygon fill="#999999" stroke="#666666" points="490.75,-39 398.25,-39 398.25,-19 490.75,-19 490.75,-39"/>
<text xml:space="preserve" text-anchor="middle" x="444.5" y="-25.5" font-family="Helvetica,sans-Serif" font-size="10.00">VertexArray::Bind</text>
</a>
</g>
</g>
<!-- Node2 -->
<g id="Node000002" class="node">
<title>Node2</title>
<g id="a_Node000002"><a xlink:href="../../d9/d51/class_vertex_array.html#a994a9dc780ecc0c725b0814a9e7ab532" target="_top" xlink:title=" ">
<polygon fill="white" stroke="#666666" points="362.25,-58 246.5,-58 246.5,-38 362.25,-38 362.25,-58"/>
<text xml:space="preserve" text-anchor="middle" x="304.38" y="-44.5" font-family="Helvetica,sans-Serif" font-size="10.00">VertexArray::AddBuffer</text>
</a>
</g>
</g>
<!-- Node1&#45;&gt;Node2 -->
<g id="edge1_Node000001_Node000002" class="edge">
<title>Node1&#45;&gt;Node2</title>
<g id="a_edge1_Node000001_Node000002"><a xlink:title=" ">
<path fill="none" stroke="#63b8ff" d="M386.49,-36.84C378.57,-37.93 370.44,-39.05 362.52,-40.14"/>
<polygon fill="#63b8ff" stroke="#63b8ff" points="386.96,-40.31 396.39,-35.48 386.01,-33.38 386.96,-40.31"/>
</a>
</g>
</g>
<!-- Node5 -->
<g id="Node000005" class="node">
<title>Node5</title>
<g id="a_Node000005"><a xlink:href="../../d4/d44/class_renderer.html#aed7ac4a042cf7c73ef53a0488531fc3e" target="_top" xlink:title=" ">
<polygon fill="white" stroke="#666666" points="346.88,-20 261.88,-20 261.88,0 346.88,0 346.88,-20"/>
<text xml:space="preserve" text-anchor="middle" x="304.38" y="-6.5" font-family="Helvetica,sans-Serif" font-size="10.00">Renderer::Draw</text>
</a>
</g>
</g>
<!-- Node1&#45;&gt;Node5 -->
<g id="edge4_Node000001_Node000005" class="edge">
<title>Node1&#45;&gt;Node5</title>
<g id="a_edge4_Node000001_Node000005"><a xlink:title=" ">
<path fill="none" stroke="#63b8ff" d="M386.52,-21.16C373.36,-19.35 359.59,-17.46 347.2,-15.75"/>
<polygon fill="#63b8ff" stroke="#63b8ff" points="386.01,-24.62 396.39,-22.52 386.96,-17.69 386.01,-24.62"/>
</a>
</g>
</g>
<!-- Node3 -->
<g id="Node000003" class="node">
<title>Node3</title>
<g id="a_Node000003"><a xlink:href="../../d4/d97/class_application_handler.html#afaf00f4f20eca3fec59f8f02f76ef2ce" target="_top" xlink:title=" ">
<polygon fill="white" stroke="#666666" points="200.38,-58 83.12,-58 83.12,-38 200.38,-38 200.38,-58"/>
<text xml:space="preserve" text-anchor="middle" x="141.75" y="-44.5" font-family="Helvetica,sans-Serif" font-size="10.00">ApplicationHandler::run</text>
</a>
</g>
</g>
<!-- Node2&#45;&gt;Node3 -->
<g id="edge2_Node000002_Node000003" class="edge">
<title>Node2&#45;&gt;Node3</title>
<g id="a_edge2_Node000002_Node000003"><a xlink:title=" ">
<path fill="none" stroke="#63b8ff" d="M235.02,-48C223.6,-48 211.86,-48 200.73,-48"/>
<polygon fill="#63b8ff" stroke="#63b8ff" points="234.78,-51.5 244.78,-48 234.78,-44.5 234.78,-51.5"/>
</a>
</g>
</g>
<!-- Node4 -->
<g id="Node000004" class="node">
<title>Node4</title>
<g id="a_Node000004"><a xlink:href="../../df/d0a/main_8cpp.html#ae66f6b31b5ad750f1fe042a706a4e3d4" target="_top" xlink:title=" ">
<polygon fill="white" stroke="#666666" points="37,-58 0,-58 0,-38 37,-38 37,-58"/>
<text xml:space="preserve" text-anchor="middle" x="18.5" y="-44.5" font-family="Helvetica,sans-Serif" font-size="10.00">main</text>
</a>
</g>
</g>
<!-- Node3&#45;&gt;Node4 -->
<g id="edge3_Node000003_Node000004" class="edge">
<title>Node3&#45;&gt;Node4</title>
<g id="a_edge3_Node000003_Node000004"><a xlink:title=" ">
<path fill="none" stroke="#63b8ff" d="M71.7,-48C58.97,-48 46.74,-48 37.33,-48"/>
<polygon fill="#63b8ff" stroke="#63b8ff" points="71.45,-51.5 81.45,-48 71.45,-44.5 71.45,-51.5"/>
</a>
</g>
</g>
<!-- Node6 -->
<g id="Node000006" class="node">
<title>Node6</title>
<g id="a_Node000006"><a xlink:href="../../d2/dbf/class_board_manager.html#a211d671937d1b0b2494b1d2810f0ad23" target="_top" xlink:title=" ">
<polygon fill="white" stroke="#666666" points="210.5,-20 73,-20 73,0 210.5,0 210.5,-20"/>
<text xml:space="preserve" text-anchor="middle" x="141.75" y="-6.5" font-family="Helvetica,sans-Serif" font-size="10.00">BoardManager::renderBoard</text>
</a>
</g>
</g>
<!-- Node5&#45;&gt;Node6 -->
<g id="edge5_Node000005_Node000006" class="edge">
<title>Node5&#45;&gt;Node6</title>
<g id="a_edge5_Node000005_Node000006"><a xlink:title=" ">
<path fill="none" stroke="#63b8ff" d="M250.3,-10C237.65,-10 223.98,-10 210.76,-10"/>
<polygon fill="#63b8ff" stroke="#63b8ff" points="250.08,-13.5 260.08,-10 250.08,-6.5 250.08,-13.5"/>
</a>
</g>
</g>
</g>
</svg>
