<?xml version="1.0" encoding="UTF-8" standalone="no"?>
<!DOCTYPE svg PUBLIC "-//W3C//DTD SVG 1.1//EN"
 "http://www.w3.org/Graphics/SVG/1.1/DTD/svg11.dtd">
<!-- Generated by graphviz version 14.0.2 (20251019.1705)
 -->
<!-- Title: VertexArray::AddBuffer Pages: 1 -->
<svg width="265pt" height="216pt"
 viewBox="0.00 0.00 265.00 216.00" xmlns="http://www.w3.org/2000/svg" xmlns:xlink="http://www.w3.org/1999/xlink">

<svg id="main" version="1.1" xmlns="http://www.w3.org/2000/svg" xmlns:xlink="http://www.w3.org/1999/xlink" xml:space="preserve" onload="init(evt)">
<style type="text/css"><![CDATA[
.node, .edge {opacity: 0.7;}
.node.selected, .edge.selected {opacity: 1;}
.edge:hover path { stroke: red; }
.edge:hover polygon { stroke: red; fill: red; }
]]></style>
<script type="application/ecmascript" xlink:href="../../svg.min.js"/>
<svg id="graph" class="graph">
<g id="graph0" class="graph" transform="scale(1 1) rotate(0) translate(4 212)">
<title>VertexArray::AddBuffer</title>
<!-- Node1 -->
<g id="Node000001" class="node">
<title>Node1</title>
<g id="a_Node000001"><a xlink:title=" ">
<polygon fill="#999999" stroke="#666666" points="115.75,-126 0,-126 0,-106 115.75,-106 115.75,-126"/>
<text xml:space="preserve" text-anchor="middle" x="57.88" y="-112.5" font-family="Helvetica,sans-Serif" font-size="10.00">VertexArray::AddBuffer</text>
</a>
</g>
</g>
<!-- Node2 -->
<g id="Node000002" class="node">
<title>Node2</title>
<g id="a_Node000002"><a xlink:href="../../d9/d51/class_vertex_array.html#ad5059455f0864327028636c628d5a661" target="_top" xlink:title=" ">
<polygon fill="white" stroke="#666666" points="250.62,-208 158.12,-208 158.12,-188 250.62,-188 250.62,-208"/>
<text xml:space="preserve" text-anchor="middle" x="204.38" y="-194.5" font-family="Helvetica,sans-Serif" font-size="10.00">VertexArray::Bind</text>
</a>
</g>
</g>
<!-- Node1&#45;&gt;Node2 -->
<g id="edge1_Node000001_Node000002" class="edge">
<title>Node1&#45;&gt;Node2</title>
<g id="a_edge1_Node000001_Node000002"><a xlink:title=" ">
<path fill="none" stroke="#63b8ff" d="M72.07,-126.48C89.52,-139.98 121.59,-163.52 151.75,-179 154.62,-180.47 157.63,-181.89 160.69,-183.23"/>
<polygon fill="#63b8ff" stroke="#63b8ff" points="159.2,-186.41 169.78,-186.96 161.86,-179.93 159.2,-186.41"/>
</a>
</g>
</g>
<!-- Node3 -->
<g id="Node000003" class="node">
<title>Node3</title>
<g id="a_Node000003"><a xlink:href="../../d0/d2e/class_vertex_buffer.html#a13019e8580ca3e369fad4166500ad2b9" target="_top" xlink:title=" ">
<polygon fill="white" stroke="#666666" points="251.75,-170 157,-170 157,-150 251.75,-150 251.75,-170"/>
<text xml:space="preserve" text-anchor="middle" x="204.38" y="-156.5" font-family="Helvetica,sans-Serif" font-size="10.00">VertexBuffer::Bind</text>
</a>
</g>
</g>
<!-- Node1&#45;&gt;Node3 -->
<g id="edge2_Node000001_Node000003" class="edge">
<title>Node1&#45;&gt;Node3</title>
<g id="a_edge2_Node000001_Node000003"><a xlink:title=" ">
<path fill="none" stroke="#63b8ff" d="M93.12,-126.43C112.57,-132.35 137.17,-139.84 158.19,-146.24"/>
<polygon fill="#63b8ff" stroke="#63b8ff" points="157.09,-149.57 167.68,-149.13 159.13,-142.87 157.09,-149.57"/>
</a>
</g>
</g>
<!-- Node4 -->
<g id="Node000004" class="node">
<title>Node4</title>
<g id="a_Node000004"><a xlink:href="../../de/d17/class_vertex_buffer_layout.html#afd51206e649bd55f8dbb6a1a46df4517" target="_top" xlink:title=" ">
<polygon fill="white" stroke="#666666" points="253.62,-132 155.12,-132 155.12,-100 253.62,-100 253.62,-132"/>
<text xml:space="preserve" text-anchor="start" x="163.12" y="-118.5" font-family="Helvetica,sans-Serif" font-size="10.00">VertexBufferLayout</text>
<text xml:space="preserve" text-anchor="middle" x="204.38" y="-106.5" font-family="Helvetica,sans-Serif" font-size="10.00">::GetElements</text>
</a>
</g>
</g>
<!-- Node1&#45;&gt;Node4 -->
<g id="edge3_Node000001_Node000004" class="edge">
<title>Node1&#45;&gt;Node4</title>
<g id="a_edge3_Node000001_Node000004"><a xlink:title=" ">
<path fill="none" stroke="#63b8ff" d="M115.99,-116C125.08,-116 134.51,-116 143.67,-116"/>
<polygon fill="#63b8ff" stroke="#63b8ff" points="143.56,-119.5 153.56,-116 143.56,-112.5 143.56,-119.5"/>
</a>
</g>
</g>
<!-- Node5 -->
<g id="Node000005" class="node">
<title>Node5</title>
<g id="a_Node000005"><a xlink:href="../../de/df5/struct_vertex_buffer_element.html#a8465417a435f8bcd68a71bc414f1d0ee" target="_top" xlink:title=" ">
<polygon fill="white" stroke="#666666" points="257,-82 151.75,-82 151.75,-50 257,-50 257,-82"/>
<text xml:space="preserve" text-anchor="start" x="159.75" y="-68.5" font-family="Helvetica,sans-Serif" font-size="10.00">VertexBufferElement</text>
<text xml:space="preserve" text-anchor="middle" x="204.38" y="-56.5" font-family="Helvetica,sans-Serif" font-size="10.00">::GetSizeOfType</text>
</a>
</g>
</g>
<!-- Node1&#45;&gt;Node5 -->
<g id="edge4_Node000001_Node000005" class="edge">
<title>Node1&#45;&gt;Node5</title>
<g id="a_edge4_Node000001_Node000005"><a xlink:title=" ">
<path fill="none" stroke="#63b8ff" d="M89.17,-105.52C105.36,-99.91 125.86,-92.82 145.01,-86.2"/>
<polygon fill="#63b8ff" stroke="#63b8ff" points="146.04,-89.54 154.34,-82.97 143.75,-82.93 146.04,-89.54"/>
</a>
</g>
</g>
<!-- Node6 -->
<g id="Node000006" class="node">
<title>Node6</title>
<g id="a_Node000006"><a xlink:href="../../de/d17/class_vertex_buffer_layout.html#aca33593016f0360720489d25b933ac4a" target="_top" xlink:title=" ">
<polygon fill="white" stroke="#666666" points="253.62,-32 155.12,-32 155.12,0 253.62,0 253.62,-32"/>
<text xml:space="preserve" text-anchor="start" x="163.12" y="-18.5" font-family="Helvetica,sans-Serif" font-size="10.00">VertexBufferLayout</text>
<text xml:space="preserve" text-anchor="middle" x="204.38" y="-6.5" font-family="Helvetica,sans-Serif" font-size="10.00">::GetStride</text>
</a>
</g>
</g>
<!-- Node1&#45;&gt;Node6 -->
<g id="edge5_Node000001_Node000006" class="edge">
<title>Node1&#45;&gt;Node6</title>
<g id="a_edge5_Node000001_Node000006"><a xlink:title=" ">
<path fill="none" stroke="#63b8ff" d="M69.96,-105.63C86.76,-90.26 120.07,-61.09 151.75,-41 153.37,-39.97 155.04,-38.96 156.74,-37.96"/>
<polygon fill="#63b8ff" stroke="#63b8ff" points="158.31,-41.09 165.38,-33.2 154.93,-34.96 158.31,-41.09"/>
</a>
</g>
</g>
</g>
</svg>
</svg>

<style type='text/css'>
<![CDATA[
[data-mouse-over-selected='false'] { opacity: 0.7; }
[data-mouse-over-selected='true']  { opacity: 1.0; }
]]>
</style>
<script type="application/ecmascript"><![CDATA[
document.addEventListener('DOMContentLoaded', (event) => {
  highlightEdges();
  highlightAdjacentNodes();
});
]]></script>
</svg>
