<?xml version="1.0" encoding="UTF-8" standalone="no"?>
<!DOCTYPE svg PUBLIC "-//W3C//DTD SVG 1.1//EN"
 "http://www.w3.org/Graphics/SVG/1.1/DTD/svg11.dtd">
<!-- Generated by graphviz version 14.0.2 (20251019.1705)
 -->
<!-- Title: include/AssetIO.h Pages: 1 -->
<!--zoomable 140 -->

<svg id="main" version="1.1" xmlns="http://www.w3.org/2000/svg" xmlns:xlink="http://www.w3.org/1999/xlink" xml:space="preserve" onload="init(evt)">
<style type="text/css"><![CDATA[
.node, .edge {opacity: 0.7;}
.node.selected, .edge.selected {opacity: 1;}
.edge:hover path { stroke: red; }
.edge:hover polygon { stroke: red; fill: red; }
]]></style>

<defs>
  <circle id="rim" cx="0" cy="0" r="7"/>
  <circle id="rim2" cx="0" cy="0" r="3.5"/>
  <g id="zoomPlus">
    <use xlink:href="#rim" fill="#404040"><set attributeName="fill" to="#808080" begin="zoomplus.mouseover" end="zoomplus.mouseout"/></use>
    <path d="M-4,0h8M0,-4v8" fill="none" stroke="white" stroke-width="1.5" pointer-events="none"/>
  </g>
  <g id="zoomMin">
    <use xlink:href="#rim" fill="#404040"><set attributeName="fill" to="#808080" begin="zoomminus.mouseover" end="zoomminus.mouseout"/></use>
    <path d="M-4,0h8" fill="none" stroke="white" stroke-width="1.5" pointer-events="none"/>
  </g>
  <g id="arrowUp" transform="translate(30 24)">
    <use xlink:href="#rim"/>
    <path pointer-events="none" fill="none" stroke="white" stroke-width="1.5" d="M0,-3.0v7 M-2.5,-0.5L0,-3.0L2.5,-0.5"/>
  </g>
  <g id="arrowRight" transform="rotate(90) translate(36 -43)">
    <use xlink:href="#rim"/>
    <path pointer-events="none" fill="none" stroke="white" stroke-width="1.5" d="M0,-3.0v7 M-2.5,-0.5L0,-3.0L2.5,-0.5"/>
  </g>
  <g id="arrowDown" transform="rotate(180) translate(-30 -48)">
    <use xlink:href="#rim"/>
    <path pointer-events="none" fill="none" stroke="white" stroke-width="1.5" d="M0,-3.0v7 M-2.5,-0.5L0,-3.0L2.5,-0.5"/>
  </g>
  <g id="arrowLeft" transform="rotate(270) translate(-36 17)">
    <use xlink:href="#rim"/>
    <path pointer-events="none" fill="none" stroke="white" stroke-width="1.5" d="M0,-3.0v7 M-2.5,-0.5L0,-3.0L2.5,-0.5"/>
  </g>
  <g id="resetDef">
    <use xlink:href="#rim2" fill="#404040"><set attributeName="fill" to="#808080" begin="reset.mouseover" end="reset.mouseout"/></use>
  </g>
</defs>
<script type="application/ecmascript">
var viewWidth = 925;
var viewHeight = 140;
var sectionId = 'dynsection-0';
</script>
<script type="application/ecmascript" xlink:href="../../svg.min.js"/>
<svg id="graph" class="graph">
<g id="viewport">
<title>include/AssetIO.h</title>
<!-- Node1 -->
<g id="Node000001" class="node">
<title>Node1</title>
<g id="a_Node000001"><a xlink:title=" ">
<polygon fill="#999999" stroke="#666666" points="533.5,-132 439.5,-132 439.5,-112 533.5,-112 533.5,-132"/>
<text xml:space="preserve" text-anchor="middle" x="486.5" y="-118.5" font-family="Helvetica,sans-Serif" font-size="10.00">include/AssetIO.h</text>
</a>
</g>
</g>
<!-- Node2 -->
<g id="Node000002" class="node">
<title>Node2</title>
<g id="a_Node000002"><a xlink:title=" ">
<polygon fill="#e0e0e0" stroke="#999999" points="109.88,-76 45.12,-76 45.12,-56 109.88,-56 109.88,-76"/>
<text xml:space="preserve" text-anchor="middle" x="77.5" y="-62.5" font-family="Helvetica,sans-Serif" font-size="10.00">Windows.h</text>
</a>
</g>
</g>
<!-- Node1&#45;&gt;Node2 -->
<g id="edge1_Node000001_Node000002" class="edge">
<title>Node1&#45;&gt;Node2</title>
<g id="a_edge1_Node000001_Node000002"><a xlink:title=" ">
<path fill="none" stroke="#63b8ff" d="M439.24,-116.66C371.12,-110.09 241.2,-96.39 121.32,-76.35"/>
<polygon fill="#63b8ff" stroke="#63b8ff" points="122.06,-72.92 111.61,-74.7 120.89,-79.82 122.06,-72.92"/>
</a>
</g>
</g>
<!-- Node3 -->
<g id="Node000003" class="node">
<title>Node3</title>
<g id="a_Node000003"><a xlink:title=" ">
<polygon fill="#e0e0e0" stroke="#999999" points="189.38,-76 127.62,-76 127.62,-56 189.38,-56 189.38,-76"/>
<text xml:space="preserve" text-anchor="middle" x="158.5" y="-62.5" font-family="Helvetica,sans-Serif" font-size="10.00">ShObjIdl.h</text>
</a>
</g>
</g>
<!-- Node1&#45;&gt;Node3 -->
<g id="edge2_Node000001_Node000003" class="edge">
<title>Node1&#45;&gt;Node3</title>
<g id="a_edge2_Node000001_Node000003"><a xlink:title=" ">
<path fill="none" stroke="#63b8ff" d="M439.19,-114.59C384.28,-106.93 290.76,-93.22 200.71,-76.31"/>
<polygon fill="#63b8ff" stroke="#63b8ff" points="201.43,-72.89 190.95,-74.46 200.13,-79.76 201.43,-72.89"/>
</a>
</g>
</g>
<!-- Node4 -->
<g id="Node000004" class="node">
<title>Node4</title>
<g id="a_Node000004"><a xlink:title=" ">
<polygon fill="#e0e0e0" stroke="#999999" points="263.38,-76 207.62,-76 207.62,-56 263.38,-56 263.38,-76"/>
<text xml:space="preserve" text-anchor="middle" x="235.5" y="-62.5" font-family="Helvetica,sans-Serif" font-size="10.00">Urlmon.h</text>
</a>
</g>
</g>
<!-- Node1&#45;&gt;Node4 -->
<g id="edge3_Node000001_Node000004" class="edge">
<title>Node1&#45;&gt;Node4</title>
<g id="a_edge3_Node000001_Node000004"><a xlink:title=" ">
<path fill="none" stroke="#63b8ff" d="M442.49,-111.53C395.15,-101.35 320.56,-85.3 275.03,-75.51"/>
<polygon fill="#63b8ff" stroke="#63b8ff" points="275.83,-72.1 265.32,-73.42 274.36,-78.94 275.83,-72.1"/>
</a>
</g>
</g>
<!-- Node5 -->
<g id="Node000005" class="node">
<title>Node5</title>
<g id="a_Node000005"><a xlink:title=" ">
<polygon fill="#e0e0e0" stroke="#999999" points="636,-20 575,-20 575,0 636,0 636,-20"/>
<text xml:space="preserve" text-anchor="middle" x="605.5" y="-6.5" font-family="Helvetica,sans-Serif" font-size="10.00">filesystem</text>
</a>
</g>
</g>
<!-- Node1&#45;&gt;Node5 -->
<g id="edge4_Node000001_Node000005" class="edge">
<title>Node1&#45;&gt;Node5</title>
<g id="a_edge4_Node000001_Node000005"><a xlink:title=" ">
<path fill="none" stroke="#63b8ff" d="M496.65,-111.62C516.67,-93.11 561.53,-51.65 586.97,-28.13"/>
<polygon fill="#63b8ff" stroke="#63b8ff" points="589.3,-30.74 594.27,-21.38 584.55,-25.6 589.3,-30.74"/>
</a>
</g>
</g>
<!-- Node6 -->
<g id="Node000006" class="node">
<title>Node6</title>
<g id="a_Node000006"><a xlink:title=" ">
<polygon fill="#e0e0e0" stroke="#999999" points="556.5,-20 516.5,-20 516.5,0 556.5,0 556.5,-20"/>
<text xml:space="preserve" text-anchor="middle" x="536.5" y="-6.5" font-family="Helvetica,sans-Serif" font-size="10.00">string</text>
</a>
</g>
</g>
<!-- Node1&#45;&gt;Node6 -->
<g id="edge5_Node000001_Node000006" class="edge">
<title>Node1&#45;&gt;Node6</title>
<g id="a_edge5_Node000001_Node000006"><a xlink:title=" ">
<path fill="none" stroke="#63b8ff" d="M490.76,-111.62C498.88,-93.76 516.71,-54.53 527.56,-30.67"/>
<polygon fill="#63b8ff" stroke="#63b8ff" points="530.67,-32.28 531.62,-21.73 524.3,-29.39 530.67,-32.28"/>
</a>
</g>
</g>
<!-- Node7 -->
<g id="Node000007" class="node">
<title>Node7</title>
<g id="a_Node000007"><a xlink:title=" ">
<polygon fill="#e0e0e0" stroke="#999999" points="759.38,-76 709.62,-76 709.62,-56 759.38,-56 759.38,-76"/>
<text xml:space="preserve" text-anchor="middle" x="734.5" y="-62.5" font-family="Helvetica,sans-Serif" font-size="10.00">optional</text>
</a>
</g>
</g>
<!-- Node1&#45;&gt;Node7 -->
<g id="edge6_Node000001_Node000007" class="edge">
<title>Node1&#45;&gt;Node7</title>
<g id="a_edge6_Node000001_Node000007"><a xlink:title=" ">
<path fill="none" stroke="#63b8ff" d="M531.39,-111.53C573.74,-102.56 638.99,-88.6 695.5,-76 696.48,-75.78 697.47,-75.56 698.47,-75.33"/>
<polygon fill="#63b8ff" stroke="#63b8ff" points="698.89,-78.83 707.86,-73.2 697.33,-72 698.89,-78.83"/>
</a>
</g>
</g>
<!-- Node8 -->
<g id="Node000008" class="node">
<title>Node8</title>
<g id="a_Node000008"><a xlink:title=" ">
<polygon fill="#e0e0e0" stroke="#999999" points="43,-20 0,-20 0,0 43,0 43,-20"/>
<text xml:space="preserve" text-anchor="middle" x="21.5" y="-6.5" font-family="Helvetica,sans-Serif" font-size="10.00">vector</text>
</a>
</g>
</g>
<!-- Node1&#45;&gt;Node8 -->
<g id="edge7_Node000001_Node000008" class="edge">
<title>Node1&#45;&gt;Node8</title>
<g id="a_edge7_Node000001_Node000008"><a xlink:title=" ">
<path fill="none" stroke="#63b8ff" d="M439.14,-113.27C401.88,-106.24 349.15,-94.16 305.5,-76 289.67,-69.41 288.59,-61.93 272.5,-56 182.5,-22.82 150.77,-40.92 54.48,-20.39"/>
<polygon fill="#63b8ff" stroke="#63b8ff" points="55.37,-17.01 44.84,-18.25 53.84,-23.84 55.37,-17.01"/>
</a>
</g>
</g>
<!-- Node9 -->
<g id="Node000009" class="node">
<title>Node9</title>
<g id="a_Node000009"><a xlink:title=" ">
<polygon fill="#e0e0e0" stroke="#999999" points="826,-76 777,-76 777,-56 826,-56 826,-76"/>
<text xml:space="preserve" text-anchor="middle" x="801.5" y="-62.5" font-family="Helvetica,sans-Serif" font-size="10.00">fstream</text>
</a>
</g>
</g>
<!-- Node1&#45;&gt;Node9 -->
<g id="edge8_Node000001_Node000009" class="edge">
<title>Node1&#45;&gt;Node9</title>
<g id="a_edge8_Node000001_Node000009"><a xlink:title=" ">
<path fill="none" stroke="#63b8ff" d="M533.94,-115.02C587.91,-107.87 678.87,-94.76 765.6,-76.45"/>
<polygon fill="#63b8ff" stroke="#63b8ff" points="766.18,-79.9 775.22,-74.39 764.71,-73.06 766.18,-79.9"/>
</a>
</g>
</g>
<!-- Node10 -->
<g id="Node000010" class="node">
<title>Node10</title>
<g id="a_Node000010"><a xlink:title=" ">
<polygon fill="#e0e0e0" stroke="#999999" points="833.12,-20 787.88,-20 787.88,0 833.12,0 833.12,-20"/>
<text xml:space="preserve" text-anchor="middle" x="810.5" y="-6.5" font-family="Helvetica,sans-Serif" font-size="10.00">cctype</text>
</a>
</g>
</g>
<!-- Node1&#45;&gt;Node10 -->
<g id="edge9_Node000001_Node000010" class="edge">
<title>Node1&#45;&gt;Node10</title>
<g id="a_edge9_Node000001_Node000010"><a xlink:title=" ">
<path fill="none" stroke="#63b8ff" d="M533.75,-112.06C569.73,-104.51 620.12,-92.31 662.5,-76 680.31,-69.14 683.2,-64.07 700.5,-56 725.78,-44.21 755.03,-32.33 777.01,-23.73"/>
<polygon fill="#63b8ff" stroke="#63b8ff" points="778,-27.1 786.06,-20.22 775.47,-20.58 778,-27.1"/>
</a>
</g>
</g>
<!-- Node11 -->
<g id="Node000011" class="node">
<title>Node11</title>
<g id="a_Node000011"><a xlink:title=" ">
<polygon fill="#e0e0e0" stroke="#999999" points="116.38,-20 60.62,-20 60.62,0 116.38,0 116.38,-20"/>
<text xml:space="preserve" text-anchor="middle" x="88.5" y="-6.5" font-family="Helvetica,sans-Serif" font-size="10.00">algorithm</text>
</a>
</g>
</g>
<!-- Node1&#45;&gt;Node11 -->
<g id="edge10_Node000001_Node000011" class="edge">
<title>Node1&#45;&gt;Node11</title>
<g id="a_edge10_Node000001_Node000011"><a xlink:title=" ">
<path fill="none" stroke="#63b8ff" d="M453.77,-111.54C425.55,-103.1 383.9,-89.95 348.5,-76 328.89,-68.27 325.53,-62.56 305.5,-56 231.3,-31.71 207.21,-37.1 127.8,-20.39"/>
<polygon fill="#63b8ff" stroke="#63b8ff" points="128.75,-17.01 118.23,-18.32 127.27,-23.86 128.75,-17.01"/>
</a>
</g>
</g>
<!-- Node12 -->
<g id="Node000012" class="node">
<title>Node12</title>
<g id="a_Node000012"><a xlink:title=" ">
<polygon fill="#e0e0e0" stroke="#999999" points="917,-76 844,-76 844,-56 917,-56 917,-76"/>
<text xml:space="preserve" text-anchor="middle" x="880.5" y="-62.5" font-family="Helvetica,sans-Serif" font-size="10.00">system_error</text>
</a>
</g>
</g>
<!-- Node1&#45;&gt;Node12 -->
<g id="edge11_Node000001_Node000012" class="edge">
<title>Node1&#45;&gt;Node12</title>
<g id="a_edge11_Node000001_Node000012"><a xlink:title=" ">
<path fill="none" stroke="#63b8ff" d="M533.79,-115.95C598.86,-108.78 719.92,-94.6 832.49,-76.41"/>
<polygon fill="#63b8ff" stroke="#63b8ff" points="832.9,-79.88 842.21,-74.82 831.77,-72.98 832.9,-79.88"/>
</a>
</g>
</g>
<!-- Node13 -->
<g id="Node000013" class="node">
<title>Node13</title>
<g id="a_Node000013"><a xlink:href="../../d0/d0d/_path_manager_8h.html" target="_top" xlink:title=" ">
<polygon fill="white" stroke="#666666" points="653.5,-76 571.5,-76 571.5,-56 653.5,-56 653.5,-76"/>
<text xml:space="preserve" text-anchor="middle" x="612.5" y="-62.5" font-family="Helvetica,sans-Serif" font-size="10.00">PathManager.h</text>
</a>
</g>
</g>
<!-- Node1&#45;&gt;Node13 -->
<g id="edge12_Node000001_Node000013" class="edge">
<title>Node1&#45;&gt;Node13</title>
<g id="a_edge12_Node000001_Node000013"><a xlink:title=" ">
<path fill="none" stroke="#63b8ff" d="M508.45,-111.59C528.2,-103.13 557.49,-90.58 579.97,-80.94"/>
<polygon fill="#63b8ff" stroke="#63b8ff" points="581.18,-84.23 588.99,-77.08 578.42,-77.8 581.18,-84.23"/>
</a>
</g>
</g>
<!-- Node16 -->
<g id="Node000016" class="node">
<title>Node16</title>
<g id="a_Node000016"><a xlink:title=" ">
<polygon fill="#e0e0e0" stroke="#999999" points="498.25,-20 450.75,-20 450.75,0 498.25,0 498.25,-20"/>
<text xml:space="preserve" text-anchor="middle" x="474.5" y="-6.5" font-family="Helvetica,sans-Serif" font-size="10.00">imgui.h</text>
</a>
</g>
</g>
<!-- Node1&#45;&gt;Node16 -->
<g id="edge18_Node000001_Node000016" class="edge">
<title>Node1&#45;&gt;Node16</title>
<g id="a_edge18_Node000001_Node000016"><a xlink:title=" ">
<path fill="none" stroke="#63b8ff" d="M485.48,-111.62C483.56,-94.01 479.36,-55.59 476.75,-31.65"/>
<polygon fill="#63b8ff" stroke="#63b8ff" points="480.25,-31.42 475.68,-21.86 473.29,-32.18 480.25,-31.42"/>
</a>
</g>
</g>
<!-- Node17 -->
<g id="Node000017" class="node">
<title>Node17</title>
<g id="a_Node000017"><a xlink:href="../../db/dd0/_im_gui_toaster_8h.html" target="_top" xlink:title=" ">
<polygon fill="white" stroke="#666666" points="439.88,-76 357.12,-76 357.12,-56 439.88,-56 439.88,-76"/>
<text xml:space="preserve" text-anchor="middle" x="398.5" y="-62.5" font-family="Helvetica,sans-Serif" font-size="10.00">ImGuiToaster.h</text>
</a>
</g>
</g>
<!-- Node1&#45;&gt;Node17 -->
<g id="edge19_Node000001_Node000017" class="edge">
<title>Node1&#45;&gt;Node17</title>
<g id="a_edge19_Node000001_Node000017"><a xlink:title=" ">
<path fill="none" stroke="#63b8ff" d="M471.17,-111.59C458,-103.51 438.77,-91.71 423.39,-82.27"/>
<polygon fill="#63b8ff" stroke="#63b8ff" points="425.59,-79.52 415.24,-77.27 421.93,-85.48 425.59,-79.52"/>
</a>
</g>
</g>
<!-- Node13&#45;&gt;Node5 -->
<g id="edge13_Node000013_Node000005" class="edge">
<title>Node13&#45;&gt;Node5</title>
<g id="a_edge13_Node000013_Node000005"><a xlink:title=" ">
<path fill="none" stroke="#63b8ff" d="M611.28,-55.59C610.42,-48.93 609.23,-39.75 608.15,-31.44"/>
<polygon fill="#63b8ff" stroke="#63b8ff" points="611.66,-31.27 606.9,-21.8 604.71,-32.17 611.66,-31.27"/>
</a>
</g>
</g>
<!-- Node13&#45;&gt;Node6 -->
<g id="edge14_Node000013_Node000006" class="edge">
<title>Node13&#45;&gt;Node6</title>
<g id="a_edge14_Node000013_Node000006"><a xlink:title=" ">
<path fill="none" stroke="#63b8ff" d="M599.26,-55.59C588.21,-47.74 572.22,-36.38 559.14,-27.09"/>
<polygon fill="#63b8ff" stroke="#63b8ff" points="561.25,-24.3 551.08,-21.36 557.2,-30 561.25,-24.3"/>
</a>
</g>
</g>
<!-- Node13&#45;&gt;Node10 -->
<g id="edge17_Node000013_Node000010" class="edge">
<title>Node13&#45;&gt;Node10</title>
<g id="a_edge17_Node000013_Node000010"><a xlink:title=" ">
<path fill="none" stroke="#63b8ff" d="M648.39,-55.54C679.93,-47.19 727.35,-34.51 776.62,-20.77"/>
<polygon fill="#63b8ff" stroke="#63b8ff" points="777.35,-24.2 786.03,-18.14 775.46,-17.46 777.35,-24.2"/>
</a>
</g>
</g>
<!-- Node14 -->
<g id="Node000014" class="node">
<title>Node14</title>
<g id="a_Node000014"><a xlink:title=" ">
<polygon fill="#e0e0e0" stroke="#999999" points="770.25,-20 716.75,-20 716.75,0 770.25,0 770.25,-20"/>
<text xml:space="preserve" text-anchor="middle" x="743.5" y="-6.5" font-family="Helvetica,sans-Serif" font-size="10.00">iostream</text>
</a>
</g>
</g>
<!-- Node13&#45;&gt;Node14 -->
<g id="edge15_Node000013_Node000014" class="edge">
<title>Node13&#45;&gt;Node14</title>
<g id="a_edge15_Node000013_Node000014"><a xlink:title=" ">
<path fill="none" stroke="#63b8ff" d="M635.32,-55.59C655.95,-47.09 686.58,-34.46 709.99,-24.81"/>
<polygon fill="#63b8ff" stroke="#63b8ff" points="711.19,-28.1 719.1,-21.06 708.52,-21.63 711.19,-28.1"/>
</a>
</g>
</g>
<!-- Node15 -->
<g id="Node000015" class="node">
<title>Node15</title>
<g id="a_Node000015"><a xlink:title=" ">
<polygon fill="#e0e0e0" stroke="#999999" points="698.75,-20 654.25,-20 654.25,0 698.75,0 698.75,-20"/>
<text xml:space="preserve" text-anchor="middle" x="676.5" y="-6.5" font-family="Helvetica,sans-Serif" font-size="10.00">cstdlib</text>
</a>
</g>
</g>
<!-- Node13&#45;&gt;Node15 -->
<g id="edge16_Node000013_Node000015" class="edge">
<title>Node13&#45;&gt;Node15</title>
<g id="a_edge16_Node000013_Node000015"><a xlink:title=" ">
<path fill="none" stroke="#63b8ff" d="M623.65,-55.59C632.83,-47.85 646.05,-36.69 656.98,-27.47"/>
<polygon fill="#63b8ff" stroke="#63b8ff" points="658.94,-30.4 664.32,-21.27 654.42,-25.05 658.94,-30.4"/>
</a>
</g>
</g>
<!-- Node17&#45;&gt;Node6 -->
<g id="edge23_Node000017_Node000006" class="edge">
<title>Node17&#45;&gt;Node6</title>
<g id="a_edge23_Node000017_Node000006"><a xlink:title=" ">
<path fill="none" stroke="#63b8ff" d="M422.54,-55.59C445.68,-46.54 480.77,-32.81 505.89,-22.98"/>
<polygon fill="#63b8ff" stroke="#63b8ff" points="506.88,-26.35 514.91,-19.45 504.33,-19.83 506.88,-26.35"/>
</a>
</g>
</g>
<!-- Node17&#45;&gt;Node8 -->
<g id="edge24_Node000017_Node000008" class="edge">
<title>Node17&#45;&gt;Node8</title>
<g id="a_edge24_Node000017_Node000008"><a xlink:title=" ">
<path fill="none" stroke="#63b8ff" d="M356.83,-60.46C281.98,-52.16 126.54,-34.28 54.56,-20.3"/>
<polygon fill="#63b8ff" stroke="#63b8ff" points="55.33,-16.88 44.83,-18.31 53.93,-23.74 55.33,-16.88"/>
</a>
</g>
</g>
<!-- Node17&#45;&gt;Node11 -->
<g id="edge26_Node000017_Node000011" class="edge">
<title>Node17&#45;&gt;Node11</title>
<g id="a_edge26_Node000017_Node000011"><a xlink:title=" ">
<path fill="none" stroke="#63b8ff" d="M356.9,-58.18C291.12,-47.4 167.1,-27.05 127.85,-20.15"/>
<polygon fill="#63b8ff" stroke="#63b8ff" points="128.69,-16.74 118.22,-18.37 127.42,-23.63 128.69,-16.74"/>
</a>
</g>
</g>
<!-- Node17&#45;&gt;Node16 -->
<g id="edge20_Node000017_Node000016" class="edge">
<title>Node17&#45;&gt;Node16</title>
<g id="a_edge20_Node000017_Node000016"><a xlink:title=" ">
<path fill="none" stroke="#63b8ff" d="M411.74,-55.59C422.79,-47.74 438.78,-36.38 451.86,-27.09"/>
<polygon fill="#63b8ff" stroke="#63b8ff" points="453.8,-30 459.92,-21.36 449.75,-24.3 453.8,-30"/>
</a>
</g>
</g>
<!-- Node18 -->
<g id="Node000018" class="node">
<title>Node18</title>
<g id="a_Node000018"><a xlink:title=" ">
<polygon fill="#e0e0e0" stroke="#999999" points="432.62,-20 390.38,-20 390.38,0 432.62,0 432.62,-20"/>
<text xml:space="preserve" text-anchor="middle" x="411.5" y="-6.5" font-family="Helvetica,sans-Serif" font-size="10.00">deque</text>
</a>
</g>
</g>
<!-- Node17&#45;&gt;Node18 -->
<g id="edge21_Node000017_Node000018" class="edge">
<title>Node17&#45;&gt;Node18</title>
<g id="a_edge21_Node000017_Node000018"><a xlink:title=" ">
<path fill="none" stroke="#63b8ff" d="M400.76,-55.59C402.37,-48.93 404.58,-39.75 406.58,-31.44"/>
<polygon fill="#63b8ff" stroke="#63b8ff" points="409.97,-32.31 408.91,-21.77 403.16,-30.67 409.97,-32.31"/>
</a>
</g>
</g>
<!-- Node19 -->
<g id="Node000019" class="node">
<title>Node19</title>
<g id="a_Node000019"><a xlink:title=" ">
<polygon fill="#e0e0e0" stroke="#999999" points="177,-20 134,-20 134,0 177,0 177,-20"/>
<text xml:space="preserve" text-anchor="middle" x="155.5" y="-6.5" font-family="Helvetica,sans-Serif" font-size="10.00">mutex</text>
</a>
</g>
</g>
<!-- Node17&#45;&gt;Node19 -->
<g id="edge22_Node000017_Node000019" class="edge">
<title>Node17&#45;&gt;Node19</title>
<g id="a_edge22_Node000017_Node000019"><a xlink:title=" ">
<path fill="none" stroke="#63b8ff" d="M356.63,-57.22C315.87,-49.42 251.94,-36.55 188.41,-20.6"/>
<polygon fill="#63b8ff" stroke="#63b8ff" points="189.42,-17.24 178.86,-18.17 187.69,-24.03 189.42,-17.24"/>
</a>
</g>
</g>
<!-- Node20 -->
<g id="Node000020" class="node">
<title>Node20</title>
<g id="a_Node000020"><a xlink:title=" ">
<polygon fill="#e0e0e0" stroke="#999999" points="240.12,-20 194.88,-20 194.88,0 240.12,0 240.12,-20"/>
<text xml:space="preserve" text-anchor="middle" x="217.5" y="-6.5" font-family="Helvetica,sans-Serif" font-size="10.00">chrono</text>
</a>
</g>
</g>
<!-- Node17&#45;&gt;Node20 -->
<g id="edge25_Node000017_Node000020" class="edge">
<title>Node17&#45;&gt;Node20</title>
<g id="a_edge25_Node000017_Node000020"><a xlink:title=" ">
<path fill="none" stroke="#63b8ff" d="M366.97,-55.59C334.63,-45.94 284.48,-30.98 251.32,-21.09"/>
<polygon fill="#63b8ff" stroke="#63b8ff" points="252.39,-17.76 241.81,-18.25 250.39,-24.47 252.39,-17.76"/>
</a>
</g>
</g>
<!-- Node21 -->
<g id="Node000021" class="node">
<title>Node21</title>
<g id="a_Node000021"><a xlink:title=" ">
<polygon fill="#e0e0e0" stroke="#999999" points="309.12,-20 257.88,-20 257.88,0 309.12,0 309.12,-20"/>
<text xml:space="preserve" text-anchor="middle" x="283.5" y="-6.5" font-family="Helvetica,sans-Serif" font-size="10.00">memory</text>
</a>
</g>
</g>
<!-- Node17&#45;&gt;Node21 -->
<g id="edge27_Node000017_Node000021" class="edge">
<title>Node17&#45;&gt;Node21</title>
<g id="a_edge27_Node000017_Node000021"><a xlink:title=" ">
<path fill="none" stroke="#63b8ff" d="M378.47,-55.59C360.69,-47.24 334.43,-34.92 314.04,-25.34"/>
<polygon fill="#63b8ff" stroke="#63b8ff" points="315.6,-22.21 305.06,-21.12 312.62,-28.54 315.6,-22.21"/>
</a>
</g>
</g>
<!-- Node22 -->
<g id="Node000022" class="node">
<title>Node22</title>
<g id="a_Node000022"><a xlink:title=" ">
<polygon fill="#e0e0e0" stroke="#999999" points="372.12,-20 326.88,-20 326.88,0 372.12,0 372.12,-20"/>
<text xml:space="preserve" text-anchor="middle" x="349.5" y="-6.5" font-family="Helvetica,sans-Serif" font-size="10.00">atomic</text>
</a>
</g>
</g>
<!-- Node17&#45;&gt;Node22 -->
<g id="edge28_Node000017_Node000022" class="edge">
<title>Node17&#45;&gt;Node22</title>
<g id="a_edge28_Node000017_Node000022"><a xlink:title=" ">
<path fill="none" stroke="#63b8ff" d="M389.96,-55.59C383.22,-48.16 373.61,-37.58 365.46,-28.58"/>
<polygon fill="#63b8ff" stroke="#63b8ff" points="368.27,-26.47 358.95,-21.42 363.08,-31.18 368.27,-26.47"/>
</a>
</g>
</g>
</g>
</svg>

<g id="navigator" transform="translate(0 0)" fill="#404254">
  <rect fill="#f2f5e9" fill-opacity="0.5" stroke="#606060" stroke-width=".5" x="0" y="0" width="60" height="60"/>
  <use id="zoomplus" xlink:href="#zoomPlus" x="17" y="9" onmousedown="handleZoom(evt,'in')"/>
  <use id="zoomminus" xlink:href="#zoomMin" x="42" y="9" onmousedown="handleZoom(evt,'out')"/>
  <use id="reset" xlink:href="#resetDef" x="30" y="36" onmousedown="handleReset()"/>
   <use id="arrowup" xlink:href="#arrowUp" x="0" y="0" onmousedown="handlePan(0,-1)"/>
  <use id="arrowright" xlink:href="#arrowRight" x="0" y="0" onmousedown="handlePan(1,0)"/>
  <use id="arrowdown" xlink:href="#arrowDown" x="0" y="0" onmousedown="handlePan(0,1)"/>
  <use id="arrowleft" xlink:href="#arrowLeft" x="0" y="0" onmousedown="handlePan(-1,0)"/>
</g>
<svg viewBox="0 0 15 15" width="100%" height="30px" preserveAspectRatio="xMaxYMin meet">
 <g id="arrow_out" transform="scale(0.3 0.3)">
  <a xlink:href="_asset_i_o_8h__incl_org.svg" target="_base">
   <rect id="button" ry="5" rx="5" y="6" x="6" height="38" width="38"
        fill="#f2f5e9" fill-opacity="0.5" stroke="#606060" stroke-width="1.0"/>
   <path id="arrow"
     d="M 11.500037,31.436501 C 11.940474,20.09759 22.043105,11.32322 32.158766,21.979434 L 37.068811,17.246167 C 37.068811,17.246167 37.088388,32 37.088388,32 L 22.160133,31.978069 C 22.160133,31.978069 26.997745,27.140456 26.997745,27.140456 C 18.528582,18.264221 13.291696,25.230495 11.500037,31.436501 z"
     style="fill:#404040;"/>
  </a>
 </g>
</svg>

<style type='text/css'>
<![CDATA[
[data-mouse-over-selected='false'] { opacity: 0.7; }
[data-mouse-over-selected='true']  { opacity: 1.0; }
]]>
</style>
<script type="application/ecmascript"><![CDATA[
document.addEventListener('DOMContentLoaded', (event) => {
  highlightEdges();
  highlightAdjacentNodes();
});
]]></script>
</svg>
