<?xml version="1.0" encoding="UTF-8" standalone="no"?>
<!DOCTYPE svg PUBLIC "-//W3C//DTD SVG 1.1//EN"
 "http://www.w3.org/Graphics/SVG/1.1/DTD/svg11.dtd">
<!-- Generated by graphviz version 2.43.0 (0)
 -->
<!-- Title: msg::makeChatMessage Pages: 1 -->
<svg width="1205pt" height="84pt"
 viewBox="0.00 0.00 1205.00 84.00" xmlns="http://www.w3.org/2000/svg" xmlns:xlink="http://www.w3.org/1999/xlink">
<g id="graph0" class="graph" transform="scale(1 1) rotate(0) translate(4 80)">
<title>msg::makeChatMessage</title>
<!-- Node1 -->
<g id="Node000001" class="node">
<title>Node1</title>
<g id="a_Node000001"><a xlink:title=" ">
<polygon fill="#999999" stroke="#666666" points="1197,-76 1060,-76 1060,-57 1197,-57 1197,-76"/>
<text text-anchor="middle" x="1128.5" y="-64" font-family="Helvetica,sans-Serif" font-size="10.00">msg::makeChatMessage</text>
</a>
</g>
</g>
<!-- Node2 -->
<g id="Node000002" class="node">
<title>Node2</title>
<g id="a_Node000002"><a xlink:href="../../d7/dc6/classChatManager.html#a5d3271287b7cf86e09500f25f93052dc" target="_top" xlink:title=" ">
<polygon fill="white" stroke="#666666" points="1024,-76 817,-76 817,-57 1024,-57 1024,-76"/>
<text text-anchor="middle" x="920.5" y="-64" font-family="Helvetica,sans-Serif" font-size="10.00">ChatManager::emitChatMessageFrame</text>
</a>
</g>
</g>
<!-- Node1&#45;&gt;Node2 -->
<g id="edge1_Node000001_Node000002" class="edge">
<title>Node1&#45;&gt;Node2</title>
<g id="a_edge1_Node000001_Node000002"><a xlink:title=" ">
<path fill="none" stroke="#63b8ff" d="M1049.75,-66.5C1041.43,-66.5 1032.88,-66.5 1024.34,-66.5"/>
<polygon fill="#63b8ff" stroke="#63b8ff" points="1049.76,-70 1059.76,-66.5 1049.76,-63 1049.76,-70"/>
</a>
</g>
</g>
<!-- Node3 -->
<g id="Node000003" class="node">
<title>Node3</title>
<g id="a_Node000003"><a xlink:href="../../d7/dc6/classChatManager.html#a02d518f4157ae45e4bf43f7501994ecd" target="_top" xlink:title=" ">
<polygon fill="white" stroke="#666666" points="326,-57 155,-57 155,-38 326,-38 326,-57"/>
<text text-anchor="middle" x="240.5" y="-45" font-family="Helvetica,sans-Serif" font-size="10.00">ChatManager::renderRightPanel</text>
</a>
</g>
</g>
<!-- Node2&#45;&gt;Node3 -->
<g id="edge2_Node000002_Node000003" class="edge">
<title>Node2&#45;&gt;Node3</title>
<g id="a_edge2_Node000002_Node000003"><a xlink:title=" ">
<path fill="none" stroke="#63b8ff" d="M806.83,-69.51C694.11,-71.57 515.83,-72.27 362,-61.5 346.45,-60.41 329.83,-58.78 314.04,-57.02"/>
<polygon fill="#63b8ff" stroke="#63b8ff" points="806.92,-73.01 816.86,-69.32 806.79,-66.01 806.92,-73.01"/>
</a>
</g>
</g>
<!-- Node5 -->
<g id="Node000005" class="node">
<title>Node5</title>
<g id="a_Node000005"><a xlink:href="../../d7/dc6/classChatManager.html#a5596a59f560f4f30aca7ac68a8b58451" target="_top" xlink:title=" ">
<polygon fill="white" stroke="#666666" points="781,-57 569,-57 569,-38 781,-38 781,-57"/>
<text text-anchor="middle" x="675" y="-45" font-family="Helvetica,sans-Serif" font-size="10.00">ChatManager::tryHandleSlashCommand</text>
</a>
</g>
</g>
<!-- Node2&#45;&gt;Node5 -->
<g id="edge4_Node000002_Node000005" class="edge">
<title>Node2&#45;&gt;Node5</title>
<g id="a_edge4_Node000002_Node000005"><a xlink:title=" ">
<path fill="none" stroke="#63b8ff" d="M806.91,-57.71C798.34,-57.05 789.7,-56.37 781.17,-55.71"/>
<polygon fill="#63b8ff" stroke="#63b8ff" points="806.7,-61.21 816.94,-58.5 807.24,-54.23 806.7,-61.21"/>
</a>
</g>
</g>
<!-- Node4 -->
<g id="Node000004" class="node">
<title>Node4</title>
<g id="a_Node000004"><a xlink:href="../../d7/dc6/classChatManager.html#ae22b90f106a6b559be6533fda6c54fa5" target="_top" xlink:title=" ">
<polygon fill="white" stroke="#666666" points="119,-57 0,-57 0,-38 119,-38 119,-57"/>
<text text-anchor="middle" x="59.5" y="-45" font-family="Helvetica,sans-Serif" font-size="10.00">ChatManager::render</text>
</a>
</g>
</g>
<!-- Node3&#45;&gt;Node4 -->
<g id="edge3_Node000003_Node000004" class="edge">
<title>Node3&#45;&gt;Node4</title>
<g id="a_edge3_Node000003_Node000004"><a xlink:title=" ">
<path fill="none" stroke="#63b8ff" d="M144.74,-47.5C136.02,-47.5 127.37,-47.5 119.12,-47.5"/>
<polygon fill="#63b8ff" stroke="#63b8ff" points="144.98,-51 154.98,-47.5 144.98,-44 144.98,-51"/>
</a>
</g>
</g>
<!-- Node5&#45;&gt;Node3 -->
<g id="edge7_Node000005_Node000003" class="edge">
<title>Node5&#45;&gt;Node3</title>
<g id="a_edge7_Node000005_Node000003"><a xlink:title=" ">
<path fill="none" stroke="#63b8ff" d="M558.57,-47.5C485.44,-47.5 392.48,-47.5 326.17,-47.5"/>
<polygon fill="#63b8ff" stroke="#63b8ff" points="558.75,-51 568.75,-47.5 558.75,-44 558.75,-51"/>
</a>
</g>
</g>
<!-- Node6 -->
<g id="Node000006" class="node">
<title>Node6</title>
<g id="a_Node000006"><a xlink:href="../../d7/dc6/classChatManager.html#a5b19f0632a911a519401b1b40e70db7c" target="_top" xlink:title=" ">
<polygon fill="white" stroke="#666666" points="533,-19 362,-19 362,0 533,0 533,-19"/>
<text text-anchor="middle" x="447.5" y="-7" font-family="Helvetica,sans-Serif" font-size="10.00">ChatManager::renderDicePopup</text>
</a>
</g>
</g>
<!-- Node5&#45;&gt;Node6 -->
<g id="edge5_Node000005_Node000006" class="edge">
<title>Node5&#45;&gt;Node6</title>
<g id="a_edge5_Node000005_Node000006"><a xlink:title=" ">
<path fill="none" stroke="#63b8ff" d="M607.51,-36.3C574.98,-30.81 536.23,-24.28 505.14,-19.04"/>
<polygon fill="#63b8ff" stroke="#63b8ff" points="606.95,-39.75 617.39,-37.96 608.11,-32.85 606.95,-39.75"/>
</a>
</g>
</g>
<!-- Node6&#45;&gt;Node3 -->
<g id="edge6_Node000006_Node000003" class="edge">
<title>Node6&#45;&gt;Node3</title>
<g id="a_edge6_Node000006_Node000003"><a xlink:title=" ">
<path fill="none" stroke="#63b8ff" d="M384.9,-20.92C355.57,-26.36 320.89,-32.78 292.99,-37.96"/>
<polygon fill="#63b8ff" stroke="#63b8ff" points="385.84,-24.3 395.03,-19.04 384.56,-17.42 385.84,-24.3"/>
</a>
</g>
</g>
</g>
</svg>
