<?xml version="1.0" encoding="UTF-8" standalone="no"?>
<!DOCTYPE svg PUBLIC "-//W3C//DTD SVG 1.1//EN"
 "http://www.w3.org/Graphics/SVG/1.1/DTD/svg11.dtd">
<!-- Generated by graphviz version 2.43.0 (0)
 -->
<!-- Title: msg::makeChatGroupUpdate Pages: 1 -->
<svg width="979pt" height="64pt"
 viewBox="0.00 0.00 979.00 64.00" xmlns="http://www.w3.org/2000/svg" xmlns:xlink="http://www.w3.org/1999/xlink">
<g id="graph0" class="graph" transform="scale(1 1) rotate(0) translate(4 60)">
<title>msg::makeChatGroupUpdate</title>
<!-- Node1 -->
<g id="Node000001" class="node">
<title>Node1</title>
<g id="a_Node000001"><a xlink:title=" ">
<polygon fill="#999999" stroke="#666666" points="971,-37 813,-37 813,-18 971,-18 971,-37"/>
<text text-anchor="middle" x="892" y="-25" font-family="Helvetica,sans-Serif" font-size="10.00">msg::makeChatGroupUpdate</text>
</a>
</g>
</g>
<!-- Node2 -->
<g id="Node000002" class="node">
<title>Node2</title>
<g id="a_Node000002"><a xlink:href="../../d7/dc6/classChatManager.html#a545045ad462d96e87d64a52e37b4e6df" target="_top" xlink:title=" ">
<polygon fill="white" stroke="#666666" points="774,-56 605,-56 605,-37 774,-37 774,-56"/>
<text text-anchor="middle" x="689.5" y="-44" font-family="Helvetica,sans-Serif" font-size="10.00">ChatManager::emitGroupLeave</text>
</a>
</g>
</g>
<!-- Node1&#45;&gt;Node2 -->
<g id="edge1_Node000001_Node000002" class="edge">
<title>Node1&#45;&gt;Node2</title>
<g id="a_edge1_Node000001_Node000002"><a xlink:title=" ">
<path fill="none" stroke="#63b8ff" d="M802.65,-35.87C793.14,-36.77 783.47,-37.69 774.01,-38.59"/>
<polygon fill="#63b8ff" stroke="#63b8ff" points="803.28,-39.33 812.91,-34.9 802.62,-32.36 803.28,-39.33"/>
</a>
</g>
</g>
<!-- Node6 -->
<g id="Node000006" class="node">
<title>Node6</title>
<g id="a_Node000006"><a xlink:href="../../d7/dc6/classChatManager.html#a727bf7136a525639a887a400f45f28d7" target="_top" xlink:title=" ">
<polygon fill="white" stroke="#666666" points="777,-19 602,-19 602,0 777,0 777,-19"/>
<text text-anchor="middle" x="689.5" y="-7" font-family="Helvetica,sans-Serif" font-size="10.00">ChatManager::emitGroupUpdate</text>
</a>
</g>
</g>
<!-- Node1&#45;&gt;Node6 -->
<g id="edge5_Node000001_Node000006" class="edge">
<title>Node1&#45;&gt;Node6</title>
<g id="a_edge5_Node000001_Node000006"><a xlink:title=" ">
<path fill="none" stroke="#63b8ff" d="M802.89,-19.59C794.3,-18.82 785.59,-18.04 777.02,-17.27"/>
<polygon fill="#63b8ff" stroke="#63b8ff" points="802.63,-23.08 812.91,-20.49 803.26,-16.11 802.63,-23.08"/>
</a>
</g>
</g>
<!-- Node3 -->
<g id="Node000003" class="node">
<title>Node3</title>
<g id="a_Node000003"><a xlink:href="../../d7/dc6/classChatManager.html#a9526a187231f0c74492dfc0c575f3afa" target="_top" xlink:title=" ">
<polygon fill="white" stroke="#666666" points="566,-56 355,-56 355,-37 566,-37 566,-56"/>
<text text-anchor="middle" x="460.5" y="-44" font-family="Helvetica,sans-Serif" font-size="10.00">ChatManager::renderDeleteGroupPopup</text>
</a>
</g>
</g>
<!-- Node2&#45;&gt;Node3 -->
<g id="edge2_Node000002_Node000003" class="edge">
<title>Node2&#45;&gt;Node3</title>
<g id="a_edge2_Node000002_Node000003"><a xlink:title=" ">
<path fill="none" stroke="#63b8ff" d="M594.77,-46.5C585.31,-46.5 575.67,-46.5 566.11,-46.5"/>
<polygon fill="#63b8ff" stroke="#63b8ff" points="594.94,-50 604.94,-46.5 594.94,-43 594.94,-50"/>
</a>
</g>
</g>
<!-- Node4 -->
<g id="Node000004" class="node">
<title>Node4</title>
<g id="a_Node000004"><a xlink:href="../../d7/dc6/classChatManager.html#afb35f5cfd70af565c23555f8652cacf3" target="_top" xlink:title=" ">
<polygon fill="white" stroke="#666666" points="319,-37 155,-37 155,-18 319,-18 319,-37"/>
<text text-anchor="middle" x="237" y="-25" font-family="Helvetica,sans-Serif" font-size="10.00">ChatManager::renderLeftPanel</text>
</a>
</g>
</g>
<!-- Node3&#45;&gt;Node4 -->
<g id="edge3_Node000003_Node000004" class="edge">
<title>Node3&#45;&gt;Node4</title>
<g id="a_edge3_Node000003_Node000004"><a xlink:title=" ">
<path fill="none" stroke="#63b8ff" d="M344.79,-36.66C336.17,-35.92 327.58,-35.18 319.23,-34.47"/>
<polygon fill="#63b8ff" stroke="#63b8ff" points="344.65,-40.16 354.91,-37.53 345.25,-33.19 344.65,-40.16"/>
</a>
</g>
</g>
<!-- Node5 -->
<g id="Node000005" class="node">
<title>Node5</title>
<g id="a_Node000005"><a xlink:href="../../d7/dc6/classChatManager.html#ae22b90f106a6b559be6533fda6c54fa5" target="_top" xlink:title=" ">
<polygon fill="white" stroke="#666666" points="119,-37 0,-37 0,-18 119,-18 119,-37"/>
<text text-anchor="middle" x="59.5" y="-25" font-family="Helvetica,sans-Serif" font-size="10.00">ChatManager::render</text>
</a>
</g>
</g>
<!-- Node4&#45;&gt;Node5 -->
<g id="edge4_Node000004_Node000005" class="edge">
<title>Node4&#45;&gt;Node5</title>
<g id="a_edge4_Node000004_Node000005"><a xlink:title=" ">
<path fill="none" stroke="#63b8ff" d="M144.75,-27.5C136.09,-27.5 127.47,-27.5 119.23,-27.5"/>
<polygon fill="#63b8ff" stroke="#63b8ff" points="144.93,-31 154.93,-27.5 144.93,-24 144.93,-31"/>
</a>
</g>
</g>
<!-- Node7 -->
<g id="Node000007" class="node">
<title>Node7</title>
<g id="a_Node000007"><a xlink:href="../../d7/dc6/classChatManager.html#a2a7f8794c7ba31096eba399192bba538" target="_top" xlink:title=" ">
<polygon fill="white" stroke="#666666" points="559,-19 362,-19 362,0 559,0 559,-19"/>
<text text-anchor="middle" x="460.5" y="-7" font-family="Helvetica,sans-Serif" font-size="10.00">ChatManager::renderEditGroupPopup</text>
</a>
</g>
</g>
<!-- Node6&#45;&gt;Node7 -->
<g id="edge6_Node000006_Node000007" class="edge">
<title>Node6&#45;&gt;Node7</title>
<g id="a_edge6_Node000006_Node000007"><a xlink:title=" ">
<path fill="none" stroke="#63b8ff" d="M591.53,-9.5C580.83,-9.5 569.94,-9.5 559.23,-9.5"/>
<polygon fill="#63b8ff" stroke="#63b8ff" points="591.71,-13 601.71,-9.5 591.71,-6 591.71,-13"/>
</a>
</g>
</g>
<!-- Node7&#45;&gt;Node4 -->
<g id="edge7_Node000007_Node000004" class="edge">
<title>Node7&#45;&gt;Node4</title>
<g id="a_edge7_Node000007_Node000004"><a xlink:title=" ">
<path fill="none" stroke="#63b8ff" d="M351.64,-18.26C340.67,-19.16 329.65,-20.05 319.03,-20.92"/>
<polygon fill="#63b8ff" stroke="#63b8ff" points="352.02,-21.75 361.7,-17.45 351.45,-14.77 352.02,-21.75"/>
</a>
</g>
</g>
</g>
</svg>
