<?xml version="1.0" encoding="UTF-8" standalone="no"?>
<!DOCTYPE svg PUBLIC "-//W3C//DTD SVG 1.1//EN"
 "http://www.w3.org/Graphics/SVG/1.1/DTD/svg11.dtd">
<!-- Generated by graphviz version 2.43.0 (0)
 -->
<!-- Title: msg::getString Pages: 1 -->
<svg width="593pt" height="64pt"
 viewBox="0.00 0.00 593.00 64.00" xmlns="http://www.w3.org/2000/svg" xmlns:xlink="http://www.w3.org/1999/xlink">
<g id="graph0" class="graph" transform="scale(1 1) rotate(0) translate(4 60)">
<title>msg::getString</title>
<!-- Node1 -->
<g id="Node000001" class="node">
<title>Node1</title>
<g id="a_Node000001"><a xlink:title=" ">
<polygon fill="#999999" stroke="#666666" points="585,-37 497,-37 497,-18 585,-18 585,-37"/>
<text text-anchor="middle" x="541" y="-25" font-family="Helvetica,sans-Serif" font-size="10.00">msg::getString</text>
</a>
</g>
</g>
<!-- Node2 -->
<g id="Node000002" class="node">
<title>Node2</title>
<g id="a_Node000002"><a xlink:href="../../d6/d6f/classNetworkManager.html#a91ae6eaae32ae463c033547f74080e36" target="_top" xlink:title=" ">
<polygon fill="white" stroke="#666666" points="461,-37 246,-37 246,-18 461,-18 461,-37"/>
<text text-anchor="middle" x="353.5" y="-25" font-family="Helvetica,sans-Serif" font-size="10.00">NetworkManager::decodeRawChatBuffer</text>
</a>
</g>
</g>
<!-- Node1&#45;&gt;Node2 -->
<g id="edge1_Node000001_Node000002" class="edge">
<title>Node1&#45;&gt;Node2</title>
<g id="a_edge1_Node000001_Node000002"><a xlink:title=" ">
<path fill="none" stroke="#63b8ff" d="M486.93,-27.5C478.77,-27.5 470.1,-27.5 461.26,-27.5"/>
<polygon fill="#63b8ff" stroke="#63b8ff" points="486.98,-31 496.98,-27.5 486.98,-24 486.98,-31"/>
</a>
</g>
</g>
<!-- Node3 -->
<g id="Node000003" class="node">
<title>Node3</title>
<g id="a_Node000003"><a xlink:href="../../d6/d6f/classNetworkManager.html#ad3605b8b33fa44492458d0aaffb4dec8" target="_top" xlink:title=" ">
<polygon fill="white" stroke="#666666" points="200.5,-56 9.5,-56 9.5,-37 200.5,-37 200.5,-56"/>
<text text-anchor="middle" x="105" y="-44" font-family="Helvetica,sans-Serif" font-size="10.00">NetworkManager::drainInboundRaw</text>
</a>
</g>
</g>
<!-- Node2&#45;&gt;Node3 -->
<g id="edge2_Node000002_Node000003" class="edge">
<title>Node2&#45;&gt;Node3</title>
<g id="a_edge2_Node000002_Node000003"><a xlink:title=" ">
<path fill="none" stroke="#63b8ff" d="M235.6,-36.51C223.95,-37.41 212.22,-38.31 200.83,-39.19"/>
<polygon fill="#63b8ff" stroke="#63b8ff" points="236.11,-39.98 245.82,-35.72 235.58,-33 236.11,-39.98"/>
</a>
</g>
</g>
<!-- Node4 -->
<g id="Node000004" class="node">
<title>Node4</title>
<g id="a_Node000004"><a xlink:href="../../d6/d6f/classNetworkManager.html#a3289708df965193b6ec0287eb069b276" target="_top" xlink:title=" ">
<polygon fill="white" stroke="#666666" points="210,-19 0,-19 0,0 210,0 210,-19"/>
<text text-anchor="middle" x="105" y="-7" font-family="Helvetica,sans-Serif" font-size="10.00">NetworkManager::startRawDrainWorker</text>
</a>
</g>
</g>
<!-- Node2&#45;&gt;Node4 -->
<g id="edge3_Node000002_Node000004" class="edge">
<title>Node2&#45;&gt;Node4</title>
<g id="a_edge3_Node000002_Node000004"><a xlink:title=" ">
<path fill="none" stroke="#63b8ff" d="M235.79,-18.98C227.22,-18.35 218.61,-17.72 210.12,-17.1"/>
<polygon fill="#63b8ff" stroke="#63b8ff" points="235.59,-22.47 245.82,-19.71 236.1,-15.49 235.59,-22.47"/>
</a>
</g>
</g>
</g>
</svg>
