<?xml version="1.0" encoding="UTF-8" standalone="no"?>
<!DOCTYPE svg PUBLIC "-//W3C//DTD SVG 1.1//EN"
 "http://www.w3.org/Graphics/SVG/1.1/DTD/svg11.dtd">
<!-- Generated by graphviz version 2.43.0 (0)
 -->
<!-- Title: VertexBufferLayout Pages: 1 -->
<svg width="254pt" height="254pt"
 viewBox="0.00 0.00 254.00 254.00" xmlns="http://www.w3.org/2000/svg" xmlns:xlink="http://www.w3.org/1999/xlink">
<g id="graph0" class="graph" transform="scale(1 1) rotate(0) translate(4 250)">
<title>VertexBufferLayout</title>
<!-- Node1 -->
<g id="Node000001" class="node">
<title>Node1</title>
<g id="a_Node000001"><a xlink:title=" ">
<polygon fill="#999999" stroke="transparent" points="246,-150 31,-150 31,0 246,0 246,-150"/>
<text text-anchor="start" x="92" y="-138" font-family="Helvetica,sans-Serif" font-size="10.00">VertexBufferLayout</text>
<text text-anchor="start" x="137" y="-123" font-family="Helvetica,sans-Serif" font-size="10.00"> </text>
<text text-anchor="start" x="35.5" y="-108" font-family="Helvetica,sans-Serif" font-size="10.00">+</text>
<text text-anchor="start" x="48.5" y="-108" font-family="Helvetica,sans-Serif" font-size="10.00">VertexBufferLayout()</text>
<text text-anchor="start" x="35.5" y="-93" font-family="Helvetica,sans-Serif" font-size="10.00">+</text>
<text text-anchor="start" x="48.5" y="-93" font-family="Helvetica,sans-Serif" font-size="10.00">void Push(unsigned int count)</text>
<text text-anchor="start" x="35.5" y="-78" font-family="Helvetica,sans-Serif" font-size="10.00">+</text>
<text text-anchor="start" x="48.5" y="-78" font-family="Helvetica,sans-Serif" font-size="10.00">void Push(unsigned int count)</text>
<text text-anchor="start" x="35.5" y="-63" font-family="Helvetica,sans-Serif" font-size="10.00">+</text>
<text text-anchor="start" x="48.5" y="-63" font-family="Helvetica,sans-Serif" font-size="10.00">void Push(unsigned int count)</text>
<text text-anchor="start" x="35.5" y="-48" font-family="Helvetica,sans-Serif" font-size="10.00">+</text>
<text text-anchor="start" x="48.5" y="-48" font-family="Helvetica,sans-Serif" font-size="10.00">void Push(unsigned int count)</text>
<text text-anchor="start" x="35.5" y="-33" font-family="Helvetica,sans-Serif" font-size="10.00">+</text>
<text text-anchor="start" x="48.5" y="-33" font-family="Helvetica,sans-Serif" font-size="10.00">const std::vector&lt; VertexBufferElement</text>
<text text-anchor="start" x="48.5" y="-22" font-family="Helvetica,sans-Serif" font-size="10.00"> &gt; GetElements() const</text>
<text text-anchor="start" x="35.5" y="-7" font-family="Helvetica,sans-Serif" font-size="10.00">+</text>
<text text-anchor="start" x="48.5" y="-7" font-family="Helvetica,sans-Serif" font-size="10.00">unsigned int GetStride() const</text>
<polygon fill="#666666" stroke="#666666" points="31.5,-133 31.5,-133 246.5,-133 246.5,-133 31.5,-133"/>
<polygon fill="#666666" stroke="#666666" points="31.5,-118 31.5,-118 246.5,-118 246.5,-118 31.5,-118"/>
<polygon fill="none" stroke="#666666" points="31,0 31,-150 246,-150 246,0 31,0"/>
</a>
</g>
</g>
<!-- Node2 -->
<g id="Node000002" class="node">
<title>Node2</title>
<g id="a_Node000002"><a xlink:title=" ">
<polygon fill="white" stroke="transparent" points="165,-246 0,-246 0,-197 165,-197 165,-246"/>
<text text-anchor="start" x="5.5" y="-233.5" font-family="Helvetica,sans-Serif" font-size="10.00">vector&lt; VertexBufferElement &gt;</text>
<text text-anchor="start" x="81" y="-218.5" font-family="Helvetica,sans-Serif" font-size="10.00"> </text>
<text text-anchor="start" x="81" y="-203.5" font-family="Helvetica,sans-Serif" font-size="10.00"> </text>
<polygon fill="#666666" stroke="#666666" points="0.5,-228.5 0.5,-228.5 165.5,-228.5 165.5,-228.5 0.5,-228.5"/>
<polygon fill="#666666" stroke="#666666" points="0.5,-213.5 0.5,-213.5 165.5,-213.5 165.5,-213.5 0.5,-213.5"/>
<polygon fill="none" stroke="#666666" points="0,-197 0,-246 165,-246 165,-197 0,-197"/>
</a>
</g>
</g>
<!-- Node2&#45;&gt;Node1 -->
<g id="edge1_Node000001_Node000002" class="edge">
<title>Node2&#45;&gt;Node1</title>
<g id="a_edge1_Node000001_Node000002"><a xlink:title=" ">
<path fill="none" stroke="#63b8ff" d="M91.62,-196.96C95.51,-186.94 100.3,-174.58 105.32,-161.63"/>
<polygon fill="none" stroke="#63b8ff" points="105.43,-161.32 103.87,-154.28 109.77,-150.13 111.33,-157.17 105.43,-161.32"/>
</a>
</g>
<text text-anchor="middle" x="136.5" y="-171" font-family="Helvetica,sans-Serif" font-size="10.00" fill="grey"> &#45;m_Elements</text>
</g>
<!-- Node3 -->
<g id="Node000003" class="node">
<title>Node3</title>
<g id="a_Node000003"><a xlink:title=" ">
<polygon fill="white" stroke="transparent" points="206,-246 183,-246 183,-197 206,-197 206,-246"/>
<text text-anchor="start" x="188.5" y="-233.5" font-family="Helvetica,sans-Serif" font-size="10.00">int</text>
<text text-anchor="start" x="193" y="-218.5" font-family="Helvetica,sans-Serif" font-size="10.00"> </text>
<text text-anchor="start" x="193" y="-203.5" font-family="Helvetica,sans-Serif" font-size="10.00"> </text>
<polygon fill="#666666" stroke="#666666" points="183.5,-228.5 183.5,-228.5 206.5,-228.5 206.5,-228.5 183.5,-228.5"/>
<polygon fill="#666666" stroke="#666666" points="183.5,-213.5 183.5,-213.5 206.5,-213.5 206.5,-213.5 183.5,-213.5"/>
<polygon fill="none" stroke="#666666" points="183,-197 183,-246 206,-246 206,-197 183,-197"/>
</a>
</g>
</g>
<!-- Node3&#45;&gt;Node1 -->
<g id="edge2_Node000001_Node000003" class="edge">
<title>Node3&#45;&gt;Node1</title>
<g id="a_edge2_Node000001_Node000003"><a xlink:title=" ">
<path fill="none" stroke="#63b8ff" d="M185.38,-196.96C181.49,-186.94 176.7,-174.58 171.68,-161.63"/>
<polygon fill="none" stroke="#63b8ff" points="171.57,-161.32 165.67,-157.17 167.23,-150.13 173.13,-154.28 171.57,-161.32"/>
</a>
</g>
<text text-anchor="middle" x="203" y="-171" font-family="Helvetica,sans-Serif" font-size="10.00" fill="grey"> &#45;m_Stride</text>
</g>
</g>
</svg>
