<?xml version="1.0" encoding="UTF-8" standalone="no"?>
<!DOCTYPE svg PUBLIC "-//W3C//DTD SVG 1.1//EN"
 "http://www.w3.org/Graphics/SVG/1.1/DTD/svg11.dtd">
<!-- Generated by graphviz version 14.0.2 (20251019.1705)
 -->
<!-- Title: ChatManager::chatFilePathFor Pages: 1 -->
<svg width="511pt" height="66pt"
 viewBox="0.00 0.00 511.00 66.00" xmlns="http://www.w3.org/2000/svg" xmlns:xlink="http://www.w3.org/1999/xlink">
<g id="graph0" class="graph" transform="scale(1 1) rotate(0) translate(4 62)">
<title>ChatManager::chatFilePathFor</title>
<!-- Node1 -->
<g id="Node000001" class="node">
<title>Node1</title>
<g id="a_Node000001"><a xlink:title=" ">
<polygon fill="#999999" stroke="#666666" points="503.25,-39 353.75,-39 353.75,-19 503.25,-19 503.25,-39"/>
<text xml:space="preserve" text-anchor="middle" x="428.5" y="-25.5" font-family="Helvetica,sans-Serif" font-size="10.00">ChatManager::chatFilePathFor</text>
</a>
</g>
</g>
<!-- Node2 -->
<g id="Node000002" class="node">
<title>Node2</title>
<g id="a_Node000002"><a xlink:href="../../d8/d37/class_chat_manager.html#a2bd172979a809d742db08764a60b3378" target="_top" xlink:title=" ">
<polygon fill="white" stroke="#666666" points="316.25,-58 185.5,-58 185.5,-38 316.25,-38 316.25,-58"/>
<text xml:space="preserve" text-anchor="middle" x="250.88" y="-44.5" font-family="Helvetica,sans-Serif" font-size="10.00">ChatManager::loadCurrent</text>
</a>
</g>
</g>
<!-- Node1&#45;&gt;Node2 -->
<g id="edge1_Node000001_Node000002" class="edge">
<title>Node1&#45;&gt;Node2</title>
<g id="a_edge1_Node000001_Node000002"><a xlink:title=" ">
<path fill="none" stroke="#63b8ff" d="M342.08,-38.24C333.53,-39.17 324.95,-40.09 316.66,-40.99"/>
<polygon fill="#63b8ff" stroke="#63b8ff" points="342.2,-41.75 351.77,-37.19 341.45,-34.79 342.2,-41.75"/>
</a>
</g>
</g>
<!-- Node4 -->
<g id="Node000004" class="node">
<title>Node4</title>
<g id="a_Node000004"><a xlink:href="../../d8/d37/class_chat_manager.html#a17157721204dfd36ab180a404a2294a0" target="_top" xlink:title=" ">
<polygon fill="white" stroke="#666666" points="317.75,-20 184,-20 184,0 317.75,0 317.75,-20"/>
<text xml:space="preserve" text-anchor="middle" x="250.88" y="-6.5" font-family="Helvetica,sans-Serif" font-size="10.00">ChatManager::saveCurrent</text>
</a>
</g>
</g>
<!-- Node1&#45;&gt;Node4 -->
<g id="edge3_Node000001_Node000004" class="edge">
<title>Node1&#45;&gt;Node4</title>
<g id="a_edge3_Node000001_Node000004"><a xlink:title=" ">
<path fill="none" stroke="#63b8ff" d="M341.96,-19.75C333.92,-18.88 325.85,-18 318.04,-17.16"/>
<polygon fill="#63b8ff" stroke="#63b8ff" points="341.45,-23.21 351.77,-20.81 342.2,-16.25 341.45,-23.21"/>
</a>
</g>
</g>
<!-- Node3 -->
<g id="Node000003" class="node">
<title>Node3</title>
<g id="a_Node000003"><a xlink:href="../../d8/d37/class_chat_manager.html#a6bf284d1ba8a95c8963efa930ac2c571" target="_top" xlink:title=" ">
<polygon fill="white" stroke="#666666" points="148,-45 0,-45 0,-13 148,-13 148,-45"/>
<text xml:space="preserve" text-anchor="start" x="8" y="-31.5" font-family="Helvetica,sans-Serif" font-size="10.00">ChatManager::setActiveGame</text>
<text xml:space="preserve" text-anchor="middle" x="74" y="-19.5" font-family="Helvetica,sans-Serif" font-size="10.00">Table</text>
</a>
</g>
</g>
<!-- Node2&#45;&gt;Node3 -->
<g id="edge2_Node000002_Node000003" class="edge">
<title>Node2&#45;&gt;Node3</title>
<g id="a_edge2_Node000002_Node000003"><a xlink:title=" ">
<path fill="none" stroke="#63b8ff" d="M173.89,-39.74C165.46,-38.83 156.89,-37.9 148.5,-36.99"/>
<polygon fill="#63b8ff" stroke="#63b8ff" points="173.43,-43.21 183.75,-40.82 174.19,-36.26 173.43,-43.21"/>
</a>
</g>
</g>
<!-- Node4&#45;&gt;Node3 -->
<g id="edge4_Node000004_Node000003" class="edge">
<title>Node4&#45;&gt;Node3</title>
<g id="a_edge4_Node000004_Node000003"><a xlink:title=" ">
<path fill="none" stroke="#63b8ff" d="M172.47,-18.41C164.41,-19.29 156.24,-20.17 148.23,-21.04"/>
<polygon fill="#63b8ff" stroke="#63b8ff" points="172.69,-21.91 182.26,-17.35 171.94,-14.95 172.69,-21.91"/>
</a>
</g>
</g>
</g>
</svg>
