<?xml version="1.0" encoding="UTF-8" standalone="no"?>
<!DOCTYPE svg PUBLIC "-//W3C//DTD SVG 1.1//EN"
 "http://www.w3.org/Graphics/SVG/1.1/DTD/svg11.dtd">
<!-- Generated by graphviz version 14.0.2 (20251019.1705)
 -->
<!-- Title: ChatManager::emitGroupCreate Pages: 1 -->
<svg width="664pt" height="40pt"
 viewBox="0.00 0.00 664.00 40.00" xmlns="http://www.w3.org/2000/svg" xmlns:xlink="http://www.w3.org/1999/xlink">
<g id="graph0" class="graph" transform="scale(1 1) rotate(0) translate(4 36)">
<title>ChatManager::emitGroupCreate</title>
<!-- Node1 -->
<g id="Node000001" class="node">
<title>Node1</title>
<g id="a_Node000001"><a xlink:title=" ">
<polygon fill="#999999" stroke="#666666" points="655.75,-26 501,-26 501,-6 655.75,-6 655.75,-26"/>
<text xml:space="preserve" text-anchor="middle" x="578.38" y="-12.5" font-family="Helvetica,sans-Serif" font-size="10.00">ChatManager::emitGroupCreate</text>
</a>
</g>
</g>
<!-- Node2 -->
<g id="Node000002" class="node">
<title>Node2</title>
<g id="a_Node000002"><a xlink:href="../../d8/d37/class_chat_manager.html#a39192cb28eae0d798fa923a30302afa0" target="_top" xlink:title=" ">
<polygon fill="white" stroke="#666666" points="465,-32 328.25,-32 328.25,0 465,0 465,-32"/>
<text xml:space="preserve" text-anchor="start" x="336.25" y="-18.5" font-family="Helvetica,sans-Serif" font-size="10.00">ChatManager::renderCreate</text>
<text xml:space="preserve" text-anchor="middle" x="396.62" y="-6.5" font-family="Helvetica,sans-Serif" font-size="10.00">GroupPopup</text>
</a>
</g>
</g>
<!-- Node1&#45;&gt;Node2 -->
<g id="edge1_Node000001_Node000002" class="edge">
<title>Node1&#45;&gt;Node2</title>
<g id="a_edge1_Node000001_Node000002"><a xlink:title=" ">
<path fill="none" stroke="#63b8ff" d="M489.28,-16C481.23,-16 473.15,-16 465.32,-16"/>
<polygon fill="#63b8ff" stroke="#63b8ff" points="489.11,-19.5 499.11,-16 489.11,-12.5 489.11,-19.5"/>
</a>
</g>
</g>
<!-- Node3 -->
<g id="Node000003" class="node">
<title>Node3</title>
<g id="a_Node000003"><a xlink:href="../../d8/d37/class_chat_manager.html#afb35f5cfd70af565c23555f8652cacf3" target="_top" xlink:title=" ">
<polygon fill="white" stroke="#666666" points="292.25,-26 143.5,-26 143.5,-6 292.25,-6 292.25,-26"/>
<text xml:space="preserve" text-anchor="middle" x="217.88" y="-12.5" font-family="Helvetica,sans-Serif" font-size="10.00">ChatManager::renderLeftPanel</text>
</a>
</g>
</g>
<!-- Node2&#45;&gt;Node3 -->
<g id="edge2_Node000002_Node000003" class="edge">
<title>Node2&#45;&gt;Node3</title>
<g id="a_edge2_Node000002_Node000003"><a xlink:title=" ">
<path fill="none" stroke="#63b8ff" d="M316.36,-16C308.48,-16 300.51,-16 292.7,-16"/>
<polygon fill="#63b8ff" stroke="#63b8ff" points="316.28,-19.5 326.28,-16 316.28,-12.5 316.28,-19.5"/>
</a>
</g>
</g>
<!-- Node4 -->
<g id="Node000004" class="node">
<title>Node4</title>
<g id="a_Node000004"><a xlink:href="../../d8/d37/class_chat_manager.html#ae22b90f106a6b559be6533fda6c54fa5" target="_top" xlink:title=" ">
<polygon fill="white" stroke="#666666" points="107.5,-26 0,-26 0,-6 107.5,-6 107.5,-26"/>
<text xml:space="preserve" text-anchor="middle" x="53.75" y="-12.5" font-family="Helvetica,sans-Serif" font-size="10.00">ChatManager::render</text>
</a>
</g>
</g>
<!-- Node3&#45;&gt;Node4 -->
<g id="edge3_Node000003_Node000004" class="edge">
<title>Node3&#45;&gt;Node4</title>
<g id="a_edge3_Node000003_Node000004"><a xlink:title=" ">
<path fill="none" stroke="#63b8ff" d="M132.06,-16C123.74,-16 115.47,-16 107.61,-16"/>
<polygon fill="#63b8ff" stroke="#63b8ff" points="131.89,-19.5 141.89,-16 131.89,-12.5 131.89,-19.5"/>
</a>
</g>
</g>
</g>
</svg>
