<?xml version="1.0" encoding="UTF-8" standalone="no"?>
<!DOCTYPE svg PUBLIC "-//W3C//DTD SVG 1.1//EN"
 "http://www.w3.org/Graphics/SVG/1.1/DTD/svg11.dtd">
<!-- Generated by graphviz version 14.0.2 (20251019.1705)
 -->
<!-- Title: ChatManager::tryHandleSlashCommand Pages: 1 -->
<svg width="686pt" height="286pt"
 viewBox="0.00 0.00 686.00 286.00" xmlns="http://www.w3.org/2000/svg" xmlns:xlink="http://www.w3.org/1999/xlink">
<g id="graph0" class="graph" transform="scale(1 1) rotate(0) translate(4 282)">
<title>ChatManager::tryHandleSlashCommand</title>
<!-- Node1 -->
<g id="Node000001" class="node">
<title>Node1</title>
<g id="a_Node000001"><a xlink:title=" ">
<polygon fill="#999999" stroke="#666666" points="147.25,-183 0,-183 0,-151 147.25,-151 147.25,-183"/>
<text xml:space="preserve" text-anchor="start" x="8" y="-169.5" font-family="Helvetica,sans-Serif" font-size="10.00">ChatManager::tryHandleSlash</text>
<text xml:space="preserve" text-anchor="middle" x="73.62" y="-157.5" font-family="Helvetica,sans-Serif" font-size="10.00">Command</text>
</a>
</g>
</g>
<!-- Node2 -->
<g id="Node000002" class="node">
<title>Node2</title>
<g id="a_Node000002"><a xlink:href="../../d8/d37/class_chat_manager.html#a5d3271287b7cf86e09500f25f93052dc" target="_top" xlink:title=" ">
<polygon fill="white" stroke="#666666" points="343.25,-236 183.25,-236 183.25,-204 343.25,-204 343.25,-236"/>
<text xml:space="preserve" text-anchor="start" x="191.25" y="-222.5" font-family="Helvetica,sans-Serif" font-size="10.00">ChatManager::emitChatMessage</text>
<text xml:space="preserve" text-anchor="middle" x="263.25" y="-210.5" font-family="Helvetica,sans-Serif" font-size="10.00">Frame</text>
</a>
</g>
</g>
<!-- Node1&#45;&gt;Node2 -->
<g id="edge1_Node000001_Node000002" class="edge">
<title>Node1&#45;&gt;Node2</title>
<g id="a_edge1_Node000001_Node000002"><a xlink:title=" ">
<path fill="none" stroke="#63b8ff" d="M132.96,-183.48C151.93,-188.84 173.18,-194.84 192.87,-200.4"/>
<polygon fill="#63b8ff" stroke="#63b8ff" points="191.92,-203.77 202.49,-203.12 193.82,-197.03 191.92,-203.77"/>
</a>
</g>
</g>
<!-- Node7 -->
<g id="Node000007" class="node">
<title>Node7</title>
<g id="a_Node000007"><a xlink:href="../../d8/d37/class_chat_manager.html#a32d2186b680379541c02b5212cebcabc" target="_top" xlink:title=" ">
<polygon fill="white" stroke="#666666" points="321.12,-177 205.38,-177 205.38,-157 321.12,-157 321.12,-177"/>
<text xml:space="preserve" text-anchor="middle" x="263.25" y="-163.5" font-family="Helvetica,sans-Serif" font-size="10.00">ChatManager::nowSec</text>
</a>
</g>
</g>
<!-- Node1&#45;&gt;Node7 -->
<g id="edge6_Node000001_Node000007" class="edge">
<title>Node1&#45;&gt;Node7</title>
<g id="a_edge6_Node000001_Node000007"><a xlink:title=" ">
<path fill="none" stroke="#63b8ff" d="M147.7,-167C162.87,-167 178.8,-167 193.8,-167"/>
<polygon fill="#63b8ff" stroke="#63b8ff" points="193.54,-170.5 203.54,-167 193.54,-163.5 193.54,-170.5"/>
</a>
</g>
</g>
<!-- Node8 -->
<g id="Node000008" class="node">
<title>Node8</title>
<g id="a_Node000008"><a xlink:href="../../d8/d37/class_chat_manager.html#a12a185f305c7886960e02f78c61ccd18" target="_top" xlink:title=" ">
<polygon fill="white" stroke="#666666" points="333.88,-120 192.62,-120 192.62,-88 333.88,-88 333.88,-120"/>
<text xml:space="preserve" text-anchor="start" x="200.62" y="-106.5" font-family="Helvetica,sans-Serif" font-size="10.00">ChatManager::pushMessage</text>
<text xml:space="preserve" text-anchor="middle" x="263.25" y="-94.5" font-family="Helvetica,sans-Serif" font-size="10.00">Local</text>
</a>
</g>
</g>
<!-- Node1&#45;&gt;Node8 -->
<g id="edge7_Node000001_Node000008" class="edge">
<title>Node1&#45;&gt;Node8</title>
<g id="a_edge7_Node000001_Node000008"><a xlink:title=" ">
<path fill="none" stroke="#63b8ff" d="M123.43,-150.61C147.66,-142.48 177.13,-132.58 202.68,-124"/>
<polygon fill="#63b8ff" stroke="#63b8ff" points="203.56,-127.4 211.93,-120.9 201.33,-120.76 203.56,-127.4"/>
</a>
</g>
</g>
<!-- Node3 -->
<g id="Node000003" class="node">
<title>Node3</title>
<g id="a_Node000003"><a xlink:href="../../d8/d37/class_chat_manager.html#aecdeceb9be9b9b14c31f11526dbfd5a7" target="_top" xlink:title=" ">
<polygon fill="white" stroke="#666666" points="520.5,-278 392,-278 392,-258 520.5,-258 520.5,-278"/>
<text xml:space="preserve" text-anchor="middle" x="456.25" y="-264.5" font-family="Helvetica,sans-Serif" font-size="10.00">ChatManager::hasCurrent</text>
</a>
</g>
</g>
<!-- Node2&#45;&gt;Node3 -->
<g id="edge2_Node000002_Node000003" class="edge">
<title>Node2&#45;&gt;Node3</title>
<g id="a_edge2_Node000002_Node000003"><a xlink:title=" ">
<path fill="none" stroke="#63b8ff" d="M329.32,-236.43C345.62,-240.54 363.07,-244.94 379.25,-249 386.69,-250.87 394.55,-252.84 402.27,-254.77"/>
<polygon fill="#63b8ff" stroke="#63b8ff" points="401.41,-258.16 411.97,-257.19 403.11,-251.37 401.41,-258.16"/>
</a>
</g>
</g>
<!-- Node4 -->
<g id="Node000004" class="node">
<title>Node4</title>
<g id="a_Node000004"><a xlink:href="../../d5/d64/namespacemsg.html#a0969cd8a8185332490b7ecde9021086a" target="_top" xlink:title=" ">
<polygon fill="white" stroke="#666666" points="519,-240 393.5,-240 393.5,-220 519,-220 519,-240"/>
<text xml:space="preserve" text-anchor="middle" x="456.25" y="-226.5" font-family="Helvetica,sans-Serif" font-size="10.00">msg::makeChatMessage</text>
</a>
</g>
</g>
<!-- Node2&#45;&gt;Node4 -->
<g id="edge3_Node000002_Node000004" class="edge">
<title>Node2&#45;&gt;Node4</title>
<g id="a_edge3_Node000002_Node000004"><a xlink:title=" ">
<path fill="none" stroke="#63b8ff" d="M343.59,-224.15C356.23,-224.82 369.25,-225.5 381.74,-226.15"/>
<polygon fill="#63b8ff" stroke="#63b8ff" points="381.36,-229.64 391.53,-226.66 381.72,-222.65 381.36,-229.64"/>
</a>
</g>
</g>
<!-- Node6 -->
<g id="Node000006" class="node">
<title>Node6</title>
<g id="a_Node000006"><a xlink:href="../../d8/d37/class_chat_manager.html#a355992faeefc4f8695bfe76f2c7f295e" target="_top" xlink:title=" ">
<polygon fill="white" stroke="#666666" points="522.38,-202 390.12,-202 390.12,-170 522.38,-170 522.38,-202"/>
<text xml:space="preserve" text-anchor="start" x="398.12" y="-188.5" font-family="Helvetica,sans-Serif" font-size="10.00">ChatManager::resolvePeer</text>
<text xml:space="preserve" text-anchor="middle" x="456.25" y="-176.5" font-family="Helvetica,sans-Serif" font-size="10.00">IdsForParticipants</text>
</a>
</g>
</g>
<!-- Node2&#45;&gt;Node6 -->
<g id="edge5_Node000002_Node000006" class="edge">
<title>Node2&#45;&gt;Node6</title>
<g id="a_edge5_Node000002_Node000006"><a xlink:title=" ">
<path fill="none" stroke="#63b8ff" d="M343.59,-205.88C355.12,-203.82 366.98,-201.71 378.46,-199.67"/>
<polygon fill="#63b8ff" stroke="#63b8ff" points="379.06,-203.12 388.29,-197.92 377.84,-196.23 379.06,-203.12"/>
</a>
</g>
</g>
<!-- Node5 -->
<g id="Node000005" class="node">
<title>Node5</title>
<g id="a_Node000005"><a xlink:href="../../d5/d64/namespacemsg.html#ad8139941ca11d8369f89b262890dad33" target="_top" xlink:title=" ">
<polygon fill="white" stroke="#666666" points="677.5,-240 569.25,-240 569.25,-220 677.5,-220 677.5,-240"/>
<text xml:space="preserve" text-anchor="middle" x="623.38" y="-226.5" font-family="Helvetica,sans-Serif" font-size="10.00">msg::DCTypeToJson</text>
</a>
</g>
</g>
<!-- Node4&#45;&gt;Node5 -->
<g id="edge4_Node000004_Node000005" class="edge">
<title>Node4&#45;&gt;Node5</title>
<g id="a_edge4_Node000004_Node000005"><a xlink:title=" ">
<path fill="none" stroke="#63b8ff" d="M519.21,-230C531.75,-230 544.97,-230 557.6,-230"/>
<polygon fill="#63b8ff" stroke="#63b8ff" points="557.49,-233.5 567.49,-230 557.49,-226.5 557.49,-233.5"/>
</a>
</g>
</g>
<!-- Node9 -->
<g id="Node000009" class="node">
<title>Node9</title>
<g id="a_Node000009"><a xlink:href="../../d8/d37/class_chat_manager.html#aab66b4f8e1ca105e3670836cffdeb2fa" target="_top" xlink:title=" ">
<polygon fill="white" stroke="#666666" points="533.25,-152 379.25,-152 379.25,-132 533.25,-132 533.25,-152"/>
<text xml:space="preserve" text-anchor="middle" x="456.25" y="-138.5" font-family="Helvetica,sans-Serif" font-size="10.00">ChatManager::classifyMessage</text>
</a>
</g>
</g>
<!-- Node8&#45;&gt;Node9 -->
<g id="edge8_Node000008_Node000009" class="edge">
<title>Node8&#45;&gt;Node9</title>
<g id="a_edge8_Node000008_Node000009"><a xlink:title=" ">
<path fill="none" stroke="#63b8ff" d="M334.29,-117.93C352.98,-121.65 373.07,-125.65 391.41,-129.3"/>
<polygon fill="#63b8ff" stroke="#63b8ff" points="390.6,-132.71 401.09,-131.23 391.97,-125.84 390.6,-132.71"/>
</a>
</g>
</g>
<!-- Node10 -->
<g id="Node000010" class="node">
<title>Node10</title>
<g id="a_Node000010"><a xlink:href="../../d8/d37/class_chat_manager.html#a19ecba5f58757b7ce91ad2f3b57f87a3" target="_top" xlink:title=" ">
<polygon fill="white" stroke="#666666" points="516.38,-114 396.12,-114 396.12,-94 516.38,-94 516.38,-114"/>
<text xml:space="preserve" text-anchor="middle" x="456.25" y="-100.5" font-family="Helvetica,sans-Serif" font-size="10.00">ChatManager::getGroup</text>
</a>
</g>
</g>
<!-- Node8&#45;&gt;Node10 -->
<g id="edge9_Node000008_Node000010" class="edge">
<title>Node8&#45;&gt;Node10</title>
<g id="a_edge9_Node000008_Node000010"><a xlink:title=" ">
<path fill="none" stroke="#63b8ff" d="M334.29,-104C350.72,-104 368.24,-104 384.7,-104"/>
<polygon fill="#63b8ff" stroke="#63b8ff" points="384.39,-107.5 394.39,-104 384.39,-100.5 384.39,-107.5"/>
</a>
</g>
</g>
<!-- Node11 -->
<g id="Node000011" class="node">
<title>Node11</title>
<g id="a_Node000011"><a xlink:href="../../d3/d42/class_logger.html#aebb248e608f8e2724de20b482cb2a15f" target="_top" xlink:title=" ">
<polygon fill="white" stroke="#666666" points="500.25,-76 412.25,-76 412.25,-56 500.25,-56 500.25,-76"/>
<text xml:space="preserve" text-anchor="middle" x="456.25" y="-62.5" font-family="Helvetica,sans-Serif" font-size="10.00">Logger::instance</text>
</a>
</g>
</g>
<!-- Node8&#45;&gt;Node11 -->
<g id="edge10_Node000008_Node000011" class="edge">
<title>Node8&#45;&gt;Node11</title>
<g id="a_edge10_Node000008_Node000011"><a xlink:title=" ">
<path fill="none" stroke="#63b8ff" d="M334.29,-90.07C356.21,-85.71 380.06,-80.96 400.74,-76.85"/>
<polygon fill="#63b8ff" stroke="#63b8ff" points="401.26,-80.31 410.39,-74.93 399.9,-73.44 401.26,-80.31"/>
</a>
</g>
</g>
<!-- Node12 -->
<g id="Node000012" class="node">
<title>Node12</title>
<g id="a_Node000012"><a xlink:href="../../d3/d42/class_logger.html#ab77a9a6a08954192b47c39f359b5d370" target="_top" xlink:title=" ">
<polygon fill="white" stroke="#666666" points="488.25,-20 424.25,-20 424.25,0 488.25,0 488.25,-20"/>
<text xml:space="preserve" text-anchor="middle" x="456.25" y="-6.5" font-family="Helvetica,sans-Serif" font-size="10.00">Logger::log</text>
</a>
</g>
</g>
<!-- Node8&#45;&gt;Node12 -->
<g id="edge11_Node000008_Node000012" class="edge">
<title>Node8&#45;&gt;Node12</title>
<g id="a_edge11_Node000008_Node000012"><a xlink:title=" ">
<path fill="none" stroke="#63b8ff" d="M296.94,-87.72C319.93,-76.29 351.45,-60.66 379.25,-47 393.7,-39.9 409.71,-32.1 423.31,-25.49"/>
<polygon fill="#63b8ff" stroke="#63b8ff" points="424.78,-28.66 432.25,-21.15 421.72,-22.37 424.78,-28.66"/>
</a>
</g>
</g>
<!-- Node12&#45;&gt;Node12 -->
<g id="edge12_Node000012_Node000012" class="edge">
<title>Node12&#45;&gt;Node12</title>
<g id="a_edge12_Node000012_Node000012"><a xlink:title=" ">
<path fill="none" stroke="#63b8ff" d="M429.7,-20.34C418.35,-28.98 427.2,-38 456.25,-38 472.14,-38 481.98,-35.3 485.79,-31.44"/>
<polygon fill="#63b8ff" stroke="#63b8ff" points="489.17,-30.55 483.2,-21.8 482.41,-32.37 489.17,-30.55"/>
</a>
</g>
</g>
</g>
</svg>
