<?xml version="1.0" encoding="UTF-8" standalone="no"?>
<!DOCTYPE svg PUBLIC "-//W3C//DTD SVG 1.1//EN"
 "http://www.w3.org/Graphics/SVG/1.1/DTD/svg11.dtd">
<!-- Generated by graphviz version 14.0.2 (20251019.1705)
 -->
<!-- Title: ChatManager::markGroupRead Pages: 1 -->
<svg width="675pt" height="150pt"
 viewBox="0.00 0.00 675.00 150.00" xmlns="http://www.w3.org/2000/svg" xmlns:xlink="http://www.w3.org/1999/xlink">
<g id="graph0" class="graph" transform="scale(1 1) rotate(0) translate(4 146)">
<title>ChatManager::markGroupRead</title>
<!-- Node1 -->
<g id="Node000001" class="node">
<title>Node1</title>
<g id="a_Node000001"><a xlink:title=" ">
<polygon fill="#999999" stroke="#666666" points="667,-70 515.25,-70 515.25,-50 667,-50 667,-70"/>
<text xml:space="preserve" text-anchor="middle" x="591.12" y="-56.5" font-family="Helvetica,sans-Serif" font-size="10.00">ChatManager::markGroupRead</text>
</a>
</g>
</g>
<!-- Node2 -->
<g id="Node000002" class="node">
<title>Node2</title>
<g id="a_Node000002"><a xlink:href="../../d8/d37/class_chat_manager.html#a39192cb28eae0d798fa923a30302afa0" target="_top" xlink:title=" ">
<polygon fill="white" stroke="#666666" points="472.12,-142 335.38,-142 335.38,-110 472.12,-110 472.12,-142"/>
<text xml:space="preserve" text-anchor="start" x="343.38" y="-128.5" font-family="Helvetica,sans-Serif" font-size="10.00">ChatManager::renderCreate</text>
<text xml:space="preserve" text-anchor="middle" x="403.75" y="-116.5" font-family="Helvetica,sans-Serif" font-size="10.00">GroupPopup</text>
</a>
</g>
</g>
<!-- Node1&#45;&gt;Node2 -->
<g id="edge1_Node000001_Node000002" class="edge">
<title>Node1&#45;&gt;Node2</title>
<g id="a_edge1_Node000001_Node000002"><a xlink:title=" ">
<path fill="none" stroke="#63b8ff" d="M550.13,-74.24C521,-84.61 481.45,-98.69 450.96,-109.55"/>
<polygon fill="#63b8ff" stroke="#63b8ff" points="551.08,-77.62 559.33,-70.97 548.73,-71.02 551.08,-77.62"/>
</a>
</g>
</g>
<!-- Node3 -->
<g id="Node000003" class="node">
<title>Node3</title>
<g id="a_Node000003"><a xlink:href="../../d8/d37/class_chat_manager.html#afb35f5cfd70af565c23555f8652cacf3" target="_top" xlink:title=" ">
<polygon fill="white" stroke="#666666" points="292.25,-81 143.5,-81 143.5,-61 292.25,-61 292.25,-81"/>
<text xml:space="preserve" text-anchor="middle" x="217.88" y="-67.5" font-family="Helvetica,sans-Serif" font-size="10.00">ChatManager::renderLeftPanel</text>
</a>
</g>
</g>
<!-- Node1&#45;&gt;Node3 -->
<g id="edge6_Node000001_Node000003" class="edge">
<title>Node1&#45;&gt;Node3</title>
<g id="a_edge6_Node000001_Node000003"><a xlink:title=" ">
<path fill="none" stroke="#63b8ff" d="M503.72,-62.56C439.71,-64.46 353.4,-67.01 292.62,-68.81"/>
<polygon fill="#63b8ff" stroke="#63b8ff" points="503.59,-66.07 513.48,-62.27 503.38,-59.07 503.59,-66.07"/>
</a>
</g>
</g>
<!-- Node5 -->
<g id="Node000005" class="node">
<title>Node5</title>
<g id="a_Node000005"><a xlink:href="../../d8/d37/class_chat_manager.html#a2a7f8794c7ba31096eba399192bba538" target="_top" xlink:title=" ">
<polygon fill="white" stroke="#666666" points="479.25,-54 328.25,-54 328.25,-22 479.25,-22 479.25,-54"/>
<text xml:space="preserve" text-anchor="start" x="336.25" y="-40.5" font-family="Helvetica,sans-Serif" font-size="10.00">ChatManager::renderEditGroup</text>
<text xml:space="preserve" text-anchor="middle" x="403.75" y="-28.5" font-family="Helvetica,sans-Serif" font-size="10.00">Popup</text>
</a>
</g>
</g>
<!-- Node1&#45;&gt;Node5 -->
<g id="edge4_Node000001_Node000005" class="edge">
<title>Node1&#45;&gt;Node5</title>
<g id="a_edge4_Node000001_Node000005"><a xlink:title=" ">
<path fill="none" stroke="#63b8ff" d="M503.71,-49.74C495.69,-48.79 487.6,-47.83 479.69,-46.89"/>
<polygon fill="#63b8ff" stroke="#63b8ff" points="503.15,-53.2 513.49,-50.91 503.97,-46.25 503.15,-53.2"/>
</a>
</g>
</g>
<!-- Node6 -->
<g id="Node000006" class="node">
<title>Node6</title>
<g id="a_Node000006"><a xlink:href="../../d8/d37/class_chat_manager.html#a02d518f4157ae45e4bf43f7501994ecd" target="_top" xlink:title=" ">
<polygon fill="white" stroke="#666666" points="283.25,-32 152.5,-32 152.5,0 283.25,0 283.25,-32"/>
<text xml:space="preserve" text-anchor="start" x="160.5" y="-18.5" font-family="Helvetica,sans-Serif" font-size="10.00">ChatManager::renderRight</text>
<text xml:space="preserve" text-anchor="middle" x="217.88" y="-6.5" font-family="Helvetica,sans-Serif" font-size="10.00">Panel</text>
</a>
</g>
</g>
<!-- Node1&#45;&gt;Node6 -->
<g id="edge7_Node000001_Node000006" class="edge">
<title>Node1&#45;&gt;Node6</title>
<g id="a_edge7_Node000001_Node000006"><a xlink:title=" ">
<path fill="none" stroke="#63b8ff" d="M562.14,-44.41C540.31,-33.19 508.83,-19.01 479.25,-13 413.57,0.35 336.64,-2.77 283.52,-7.76"/>
<polygon fill="#63b8ff" stroke="#63b8ff" points="560.21,-47.35 570.69,-48.93 563.48,-41.16 560.21,-47.35"/>
</a>
</g>
</g>
<!-- Node2&#45;&gt;Node3 -->
<g id="edge2_Node000002_Node000003" class="edge">
<title>Node2&#45;&gt;Node3</title>
<g id="a_edge2_Node000002_Node000003"><a xlink:title=" ">
<path fill="none" stroke="#63b8ff" d="M337.12,-106.37C309.05,-97.97 277.4,-88.51 253.92,-81.48"/>
<polygon fill="#63b8ff" stroke="#63b8ff" points="336.05,-109.7 346.63,-109.21 338.05,-102.99 336.05,-109.7"/>
</a>
</g>
</g>
<!-- Node4 -->
<g id="Node000004" class="node">
<title>Node4</title>
<g id="a_Node000004"><a xlink:href="../../d8/d37/class_chat_manager.html#ae22b90f106a6b559be6533fda6c54fa5" target="_top" xlink:title=" ">
<polygon fill="white" stroke="#666666" points="107.5,-48 0,-48 0,-28 107.5,-28 107.5,-48"/>
<text xml:space="preserve" text-anchor="middle" x="53.75" y="-34.5" font-family="Helvetica,sans-Serif" font-size="10.00">ChatManager::render</text>
</a>
</g>
</g>
<!-- Node3&#45;&gt;Node4 -->
<g id="edge3_Node000003_Node000004" class="edge">
<title>Node3&#45;&gt;Node4</title>
<g id="a_edge3_Node000003_Node000004"><a xlink:title=" ">
<path fill="none" stroke="#63b8ff" d="M154.7,-58.34C138.7,-55.09 121.66,-51.62 106.27,-48.49"/>
<polygon fill="#63b8ff" stroke="#63b8ff" points="153.6,-61.69 164.09,-60.26 154.99,-54.83 153.6,-61.69"/>
</a>
</g>
</g>
<!-- Node5&#45;&gt;Node3 -->
<g id="edge5_Node000005_Node000003" class="edge">
<title>Node5&#45;&gt;Node3</title>
<g id="a_edge5_Node000005_Node000003"><a xlink:title=" ">
<path fill="none" stroke="#63b8ff" d="M316.78,-53.43C303.39,-55.83 289.83,-58.27 277.24,-60.52"/>
<polygon fill="#63b8ff" stroke="#63b8ff" points="317.25,-56.9 326.47,-51.69 316.01,-50.01 317.25,-56.9"/>
</a>
</g>
</g>
<!-- Node6&#45;&gt;Node4 -->
<g id="edge8_Node000006_Node000004" class="edge">
<title>Node6&#45;&gt;Node4</title>
<g id="a_edge8_Node000006_Node000004"><a xlink:title=" ">
<path fill="none" stroke="#63b8ff" d="M141.16,-26.27C129.91,-27.8 118.53,-29.35 107.87,-30.79"/>
<polygon fill="#63b8ff" stroke="#63b8ff" points="141.39,-29.77 150.83,-24.96 140.45,-22.84 141.39,-29.77"/>
</a>
</g>
</g>
</g>
</svg>
