<?xml version="1.0" encoding="UTF-8" standalone="no"?>
<!DOCTYPE svg PUBLIC "-//W3C//DTD SVG 1.1//EN"
 "http://www.w3.org/Graphics/SVG/1.1/DTD/svg11.dtd">
<!-- Generated by graphviz version 14.0.2 (20251019.1705)
 -->
<!-- Title: ChatManager::pushMessageLocal Pages: 1 -->
<svg width="339pt" height="160pt"
 viewBox="0.00 0.00 339.00 160.00" xmlns="http://www.w3.org/2000/svg" xmlns:xlink="http://www.w3.org/1999/xlink">

<svg id="main" version="1.1" xmlns="http://www.w3.org/2000/svg" xmlns:xlink="http://www.w3.org/1999/xlink" xml:space="preserve" onload="init(evt)">
<style type="text/css"><![CDATA[
.node, .edge {opacity: 0.7;}
.node.selected, .edge.selected {opacity: 1;}
.edge:hover path { stroke: red; }
.edge:hover polygon { stroke: red; fill: red; }
]]></style>
<script type="application/ecmascript" xlink:href="../../svg.min.js"/>
<svg id="graph" class="graph">
<g id="graph0" class="graph" transform="scale(1 1) rotate(0) translate(4 156)">
<title>ChatManager::pushMessageLocal</title>
<!-- Node1 -->
<g id="Node000001" class="node">
<title>Node1</title>
<g id="a_Node000001"><a xlink:title=" ">
<polygon fill="#999999" stroke="#666666" points="141.25,-101 0,-101 0,-69 141.25,-69 141.25,-101"/>
<text xml:space="preserve" text-anchor="start" x="8" y="-87.5" font-family="Helvetica,sans-Serif" font-size="10.00">ChatManager::pushMessage</text>
<text xml:space="preserve" text-anchor="middle" x="70.62" y="-75.5" font-family="Helvetica,sans-Serif" font-size="10.00">Local</text>
</a>
</g>
</g>
<!-- Node2 -->
<g id="Node000002" class="node">
<title>Node2</title>
<g id="a_Node000002"><a xlink:href="../../d8/d37/class_chat_manager.html#aab66b4f8e1ca105e3670836cffdeb2fa" target="_top" xlink:title=" ">
<polygon fill="white" stroke="#666666" points="331.25,-152 177.25,-152 177.25,-132 331.25,-132 331.25,-152"/>
<text xml:space="preserve" text-anchor="middle" x="254.25" y="-138.5" font-family="Helvetica,sans-Serif" font-size="10.00">ChatManager::classifyMessage</text>
</a>
</g>
</g>
<!-- Node1&#45;&gt;Node2 -->
<g id="edge1_Node000001_Node000002" class="edge">
<title>Node1&#45;&gt;Node2</title>
<g id="a_edge1_Node000001_Node000002"><a xlink:title=" ">
<path fill="none" stroke="#63b8ff" d="M114.21,-101.42C133.34,-108.51 156.27,-116.62 177.25,-123 183.83,-125 190.77,-126.95 197.67,-128.79"/>
<polygon fill="#63b8ff" stroke="#63b8ff" points="196.41,-132.08 206.97,-131.21 198.17,-125.31 196.41,-132.08"/>
</a>
</g>
</g>
<!-- Node3 -->
<g id="Node000003" class="node">
<title>Node3</title>
<g id="a_Node000003"><a xlink:href="../../d8/d37/class_chat_manager.html#a19ecba5f58757b7ce91ad2f3b57f87a3" target="_top" xlink:title=" ">
<polygon fill="white" stroke="#666666" points="314.38,-114 194.12,-114 194.12,-94 314.38,-94 314.38,-114"/>
<text xml:space="preserve" text-anchor="middle" x="254.25" y="-100.5" font-family="Helvetica,sans-Serif" font-size="10.00">ChatManager::getGroup</text>
</a>
</g>
</g>
<!-- Node1&#45;&gt;Node3 -->
<g id="edge2_Node000001_Node000003" class="edge">
<title>Node1&#45;&gt;Node3</title>
<g id="a_edge2_Node000001_Node000003"><a xlink:title=" ">
<path fill="none" stroke="#63b8ff" d="M141.59,-92.32C155.01,-93.72 169.09,-95.2 182.54,-96.6"/>
<polygon fill="#63b8ff" stroke="#63b8ff" points="181.85,-100.05 192.16,-97.61 182.58,-93.09 181.85,-100.05"/>
</a>
</g>
</g>
<!-- Node4 -->
<g id="Node000004" class="node">
<title>Node4</title>
<g id="a_Node000004"><a xlink:href="../../d3/d42/class_logger.html#aebb248e608f8e2724de20b482cb2a15f" target="_top" xlink:title=" ">
<polygon fill="white" stroke="#666666" points="298.25,-76 210.25,-76 210.25,-56 298.25,-56 298.25,-76"/>
<text xml:space="preserve" text-anchor="middle" x="254.25" y="-62.5" font-family="Helvetica,sans-Serif" font-size="10.00">Logger::instance</text>
</a>
</g>
</g>
<!-- Node1&#45;&gt;Node4 -->
<g id="edge3_Node000001_Node000004" class="edge">
<title>Node1&#45;&gt;Node4</title>
<g id="a_edge3_Node000001_Node000004"><a xlink:title=" ">
<path fill="none" stroke="#63b8ff" d="M141.59,-77.68C160.44,-75.71 180.56,-73.6 198.46,-71.73"/>
<polygon fill="#63b8ff" stroke="#63b8ff" points="198.77,-75.22 208.35,-70.7 198.04,-68.26 198.77,-75.22"/>
</a>
</g>
</g>
<!-- Node5 -->
<g id="Node000005" class="node">
<title>Node5</title>
<g id="a_Node000005"><a xlink:href="../../d3/d42/class_logger.html#ab77a9a6a08954192b47c39f359b5d370" target="_top" xlink:title=" ">
<polygon fill="white" stroke="#666666" points="286.25,-20 222.25,-20 222.25,0 286.25,0 286.25,-20"/>
<text xml:space="preserve" text-anchor="middle" x="254.25" y="-6.5" font-family="Helvetica,sans-Serif" font-size="10.00">Logger::log</text>
</a>
</g>
</g>
<!-- Node1&#45;&gt;Node5 -->
<g id="edge4_Node000001_Node000005" class="edge">
<title>Node1&#45;&gt;Node5</title>
<g id="a_edge4_Node000001_Node000005"><a xlink:title=" ">
<path fill="none" stroke="#63b8ff" d="M111.48,-68.54C143.1,-55.48 186.91,-37.39 217.43,-24.79"/>
<polygon fill="#63b8ff" stroke="#63b8ff" points="218.72,-28.05 226.62,-21 216.04,-21.58 218.72,-28.05"/>
</a>
</g>
</g>
<!-- Node5&#45;&gt;Node5 -->
<g id="edge5_Node000005_Node000005" class="edge">
<title>Node5&#45;&gt;Node5</title>
<g id="a_edge5_Node000005_Node000005"><a xlink:title=" ">
<path fill="none" stroke="#63b8ff" d="M225.07,-20.34C212.61,-28.98 222.33,-38 254.25,-38 272.2,-38 283.14,-35.14 287.05,-31.11"/>
<polygon fill="#63b8ff" stroke="#63b8ff" points="290.41,-30.14 283.91,-21.77 283.78,-32.37 290.41,-30.14"/>
</a>
</g>
</g>
</g>
</svg>
</svg>

<style type='text/css'>
<![CDATA[
[data-mouse-over-selected='false'] { opacity: 0.7; }
[data-mouse-over-selected='true']  { opacity: 1.0; }
]]>
</style>
<script type="application/ecmascript"><![CDATA[
document.addEventListener('DOMContentLoaded', (event) => {
  highlightEdges();
  highlightAdjacentNodes();
});
]]></script>
</svg>
