<?xml version="1.0" encoding="UTF-8" standalone="no"?>
<!DOCTYPE svg PUBLIC "-//W3C//DTD SVG 1.1//EN"
 "http://www.w3.org/Graphics/SVG/1.1/DTD/svg11.dtd">
<!-- Generated by graphviz version 14.0.2 (20251019.1705)
 -->
<!-- Title: ChatManager::getGroup Pages: 1 -->
<svg width="1005pt" height="379pt"
 viewBox="0.00 0.00 1005.00 379.00" xmlns="http://www.w3.org/2000/svg" xmlns:xlink="http://www.w3.org/1999/xlink">
<g id="graph0" class="graph" transform="scale(1 1) rotate(0) translate(4 374.94)">
<title>ChatManager::getGroup</title>
<!-- Node1 -->
<g id="Node000001" class="node">
<title>Node1</title>
<g id="a_Node000001"><a xlink:title=" ">
<polygon fill="#999999" stroke="#666666" points="996.75,-185.94 876.5,-185.94 876.5,-165.94 996.75,-165.94 996.75,-185.94"/>
<text xml:space="preserve" text-anchor="middle" x="936.62" y="-172.44" font-family="Helvetica,sans-Serif" font-size="10.00">ChatManager::getGroup</text>
</a>
</g>
</g>
<!-- Node2 -->
<g id="Node000002" class="node">
<title>Node2</title>
<g id="a_Node000002"><a xlink:href="../../d8/d37/class_chat_manager.html#afbcd9a98952f12f4e7517491088e417f" target="_top" xlink:title=" ">
<polygon fill="white" stroke="#666666" points="830.75,-370.94 698.5,-370.94 698.5,-350.94 830.75,-350.94 830.75,-370.94"/>
<text xml:space="preserve" text-anchor="middle" x="764.62" y="-357.44" font-family="Helvetica,sans-Serif" font-size="10.00">ChatManager::applyReady</text>
</a>
</g>
</g>
<!-- Node1&#45;&gt;Node2 -->
<g id="edge1_Node000001_Node000002" class="edge">
<title>Node1&#45;&gt;Node2</title>
<g id="a_edge1_Node000001_Node000002"><a xlink:title=" ">
<path fill="none" stroke="#63b8ff" d="M928.78,-196.98C916.54,-231.3 887.71,-299.25 840.5,-336.94 833.25,-342.73 824.56,-347.14 815.72,-350.49"/>
<polygon fill="#63b8ff" stroke="#63b8ff" points="932,-198.38 931.92,-187.79 925.37,-196.11 932,-198.38"/>
</a>
</g>
</g>
<!-- Node3 -->
<g id="Node000003" class="node">
<title>Node3</title>
<g id="a_Node000003"><a xlink:href="../../d8/d37/class_chat_manager.html#aeff98e92f11b66ee90059fcdbf28b44b" target="_top" xlink:title=" ">
<polygon fill="white" stroke="#666666" points="840.5,-206.94 688.75,-206.94 688.75,-186.94 840.5,-186.94 840.5,-206.94"/>
<text xml:space="preserve" text-anchor="middle" x="764.62" y="-193.44" font-family="Helvetica,sans-Serif" font-size="10.00">ChatManager::markGroupRead</text>
</a>
</g>
</g>
<!-- Node1&#45;&gt;Node3 -->
<g id="edge2_Node000001_Node000003" class="edge">
<title>Node1&#45;&gt;Node3</title>
<g id="a_edge2_Node000001_Node000003"><a xlink:title=" ">
<path fill="none" stroke="#63b8ff" d="M864.77,-184.69C856.88,-185.67 848.83,-186.66 840.89,-187.64"/>
<polygon fill="#63b8ff" stroke="#63b8ff" points="865.17,-188.17 874.67,-183.47 864.31,-181.22 865.17,-188.17"/>
</a>
</g>
</g>
<!-- Node5 -->
<g id="Node000005" class="node">
<title>Node5</title>
<g id="a_Node000005"><a xlink:href="../../d8/d37/class_chat_manager.html#afb35f5cfd70af565c23555f8652cacf3" target="_top" xlink:title=" ">
<polygon fill="white" stroke="#666666" points="462.38,-244.94 313.62,-244.94 313.62,-224.94 462.38,-224.94 462.38,-244.94"/>
<text xml:space="preserve" text-anchor="middle" x="388" y="-231.44" font-family="Helvetica,sans-Serif" font-size="10.00">ChatManager::renderLeftPanel</text>
</a>
</g>
</g>
<!-- Node1&#45;&gt;Node5 -->
<g id="edge18_Node000001_Node000005" class="edge">
<title>Node1&#45;&gt;Node5</title>
<g id="a_edge18_Node000001_Node000005"><a xlink:title=" ">
<path fill="none" stroke="#63b8ff" d="M909.63,-192.31C861.31,-221.67 753.38,-282.23 652.75,-303.94 587.15,-318.09 566.35,-322.14 501.75,-303.94 460.88,-292.43 420.2,-261.52 400.78,-245.26"/>
<polygon fill="#63b8ff" stroke="#63b8ff" points="911.3,-195.39 917.99,-187.17 907.64,-189.43 911.3,-195.39"/>
</a>
</g>
</g>
<!-- Node7 -->
<g id="Node000007" class="node">
<title>Node7</title>
<g id="a_Node000007"><a xlink:href="../../d8/d37/class_chat_manager.html#a2a7f8794c7ba31096eba399192bba538" target="_top" xlink:title=" ">
<polygon fill="white" stroke="#666666" points="652.75,-168.94 501.75,-168.94 501.75,-136.94 652.75,-136.94 652.75,-168.94"/>
<text xml:space="preserve" text-anchor="start" x="509.75" y="-155.44" font-family="Helvetica,sans-Serif" font-size="10.00">ChatManager::renderEditGroup</text>
<text xml:space="preserve" text-anchor="middle" x="577.25" y="-143.44" font-family="Helvetica,sans-Serif" font-size="10.00">Popup</text>
</a>
</g>
</g>
<!-- Node1&#45;&gt;Node7 -->
<g id="edge17_Node000001_Node000007" class="edge">
<title>Node1&#45;&gt;Node7</title>
<g id="a_edge17_Node000001_Node000007"><a xlink:title=" ">
<path fill="none" stroke="#63b8ff" d="M864.72,-171.38C803.51,-167.44 715.34,-161.76 653.03,-157.75"/>
<polygon fill="#63b8ff" stroke="#63b8ff" points="864.5,-174.87 874.7,-172.02 864.95,-167.88 864.5,-174.87"/>
</a>
</g>
</g>
<!-- Node8 -->
<g id="Node000008" class="node">
<title>Node8</title>
<g id="a_Node000008"><a xlink:href="../../d8/d37/class_chat_manager.html#a02d518f4157ae45e4bf43f7501994ecd" target="_top" xlink:title=" ">
<polygon fill="white" stroke="#666666" points="274.25,-105.94 143.5,-105.94 143.5,-73.94 274.25,-73.94 274.25,-105.94"/>
<text xml:space="preserve" text-anchor="start" x="151.5" y="-92.44" font-family="Helvetica,sans-Serif" font-size="10.00">ChatManager::renderRight</text>
<text xml:space="preserve" text-anchor="middle" x="208.88" y="-80.44" font-family="Helvetica,sans-Serif" font-size="10.00">Panel</text>
</a>
</g>
</g>
<!-- Node1&#45;&gt;Node8 -->
<g id="edge19_Node000001_Node000008" class="edge">
<title>Node1&#45;&gt;Node8</title>
<g id="a_edge19_Node000001_Node000008"><a xlink:title=" ">
<path fill="none" stroke="#63b8ff" d="M877.75,-163.2C865.48,-160.66 852.58,-158.11 840.5,-155.94 757.46,-141.03 736.54,-137.77 652.75,-127.94 518.62,-112.2 360.92,-100.22 274.55,-94.22"/>
<polygon fill="#63b8ff" stroke="#63b8ff" points="876.81,-166.58 887.32,-165.21 878.25,-159.73 876.81,-166.58"/>
</a>
</g>
</g>
<!-- Node9 -->
<g id="Node000009" class="node">
<title>Node9</title>
<g id="a_Node000009"><a xlink:href="../../d8/d37/class_chat_manager.html#a12a185f305c7886960e02f78c61ccd18" target="_top" xlink:title=" ">
<polygon fill="white" stroke="#666666" points="835.25,-80.94 694,-80.94 694,-48.94 835.25,-48.94 835.25,-80.94"/>
<text xml:space="preserve" text-anchor="start" x="702" y="-67.44" font-family="Helvetica,sans-Serif" font-size="10.00">ChatManager::pushMessage</text>
<text xml:space="preserve" text-anchor="middle" x="764.62" y="-55.44" font-family="Helvetica,sans-Serif" font-size="10.00">Local</text>
</a>
</g>
</g>
<!-- Node1&#45;&gt;Node9 -->
<g id="edge11_Node000001_Node000009" class="edge">
<title>Node1&#45;&gt;Node9</title>
<g id="a_edge11_Node000001_Node000009"><a xlink:title=" ">
<path fill="none" stroke="#63b8ff" d="M917.71,-157.54C899.56,-139.69 870.02,-112.76 840.5,-94.94 832.11,-89.87 822.71,-85.33 813.48,-81.41"/>
<polygon fill="#63b8ff" stroke="#63b8ff" points="915.05,-159.82 924.59,-164.42 920,-154.87 915.05,-159.82"/>
</a>
</g>
</g>
<!-- Node4 -->
<g id="Node000004" class="node">
<title>Node4</title>
<g id="a_Node000004"><a xlink:href="../../d8/d37/class_chat_manager.html#a39192cb28eae0d798fa923a30302afa0" target="_top" xlink:title=" ">
<polygon fill="white" stroke="#666666" points="645.62,-294.94 508.88,-294.94 508.88,-262.94 645.62,-262.94 645.62,-294.94"/>
<text xml:space="preserve" text-anchor="start" x="516.88" y="-281.44" font-family="Helvetica,sans-Serif" font-size="10.00">ChatManager::renderCreate</text>
<text xml:space="preserve" text-anchor="middle" x="577.25" y="-269.44" font-family="Helvetica,sans-Serif" font-size="10.00">GroupPopup</text>
</a>
</g>
</g>
<!-- Node3&#45;&gt;Node4 -->
<g id="edge3_Node000003_Node000004" class="edge">
<title>Node3&#45;&gt;Node4</title>
<g id="a_edge3_Node000003_Node000004"><a xlink:title=" ">
<path fill="none" stroke="#63b8ff" d="M732.4,-212.15C710.3,-222.78 679.89,-237.12 652.75,-248.94 642.27,-253.5 630.86,-258.22 620.19,-262.53"/>
<polygon fill="#63b8ff" stroke="#63b8ff" points="733.68,-215.42 741.17,-207.92 730.64,-209.12 733.68,-215.42"/>
</a>
</g>
</g>
<!-- Node3&#45;&gt;Node5 -->
<g id="edge8_Node000003_Node000005" class="edge">
<title>Node3&#45;&gt;Node5</title>
<g id="a_edge8_Node000003_Node000005"><a xlink:title=" ">
<path fill="none" stroke="#63b8ff" d="M677.26,-208.14C668.98,-209.13 660.71,-210.07 652.75,-210.94 588.64,-217.9 515.61,-224.44 462.68,-228.93"/>
<polygon fill="#63b8ff" stroke="#63b8ff" points="677.51,-211.64 687.02,-206.96 676.67,-204.69 677.51,-211.64"/>
</a>
</g>
</g>
<!-- Node3&#45;&gt;Node7 -->
<g id="edge6_Node000003_Node000007" class="edge">
<title>Node3&#45;&gt;Node7</title>
<g id="a_edge6_Node000003_Node000007"><a xlink:title=" ">
<path fill="none" stroke="#63b8ff" d="M708.74,-183.91C689.56,-179.36 667.79,-174.19 647.59,-169.4"/>
<polygon fill="#63b8ff" stroke="#63b8ff" points="707.68,-187.26 718.22,-186.16 709.3,-180.45 707.68,-187.26"/>
</a>
</g>
</g>
<!-- Node3&#45;&gt;Node8 -->
<g id="edge9_Node000003_Node000008" class="edge">
<title>Node3&#45;&gt;Node8</title>
<g id="a_edge9_Node000003_Node000008"><a xlink:title=" ">
<path fill="none" stroke="#63b8ff" d="M676.96,-195.15C625.68,-192.98 559.64,-188.24 501.75,-177.94 414.57,-162.43 394.88,-148.99 310.25,-122.94 293.42,-117.76 275.1,-111.82 258.77,-106.43"/>
<polygon fill="#63b8ff" stroke="#63b8ff" points="676.69,-198.65 686.82,-195.54 676.97,-191.65 676.69,-198.65"/>
</a>
</g>
</g>
<!-- Node4&#45;&gt;Node5 -->
<g id="edge4_Node000004_Node000005" class="edge">
<title>Node4&#45;&gt;Node5</title>
<g id="a_edge4_Node000004_Node000005"><a xlink:title=" ">
<path fill="none" stroke="#63b8ff" d="M497.44,-260.42C475.62,-255.29 452.7,-249.91 433.58,-245.41"/>
<polygon fill="#63b8ff" stroke="#63b8ff" points="496.37,-263.77 506.91,-262.65 497.98,-256.95 496.37,-263.77"/>
</a>
</g>
</g>
<!-- Node6 -->
<g id="Node000006" class="node">
<title>Node6</title>
<g id="a_Node000006"><a xlink:href="../../d8/d37/class_chat_manager.html#ae22b90f106a6b559be6533fda6c54fa5" target="_top" xlink:title=" ">
<polygon fill="white" stroke="#666666" points="107.5,-121.94 0,-121.94 0,-101.94 107.5,-101.94 107.5,-121.94"/>
<text xml:space="preserve" text-anchor="middle" x="53.75" y="-108.44" font-family="Helvetica,sans-Serif" font-size="10.00">ChatManager::render</text>
</a>
</g>
</g>
<!-- Node5&#45;&gt;Node6 -->
<g id="edge5_Node000005_Node000006" class="edge">
<title>Node5&#45;&gt;Node6</title>
<g id="a_edge5_Node000005_Node000006"><a xlink:title=" ">
<path fill="none" stroke="#63b8ff" d="M341.24,-221.18C331,-217.95 320.22,-214.42 310.25,-210.94 224.93,-181.11 125.52,-141.02 79.93,-122.34"/>
<polygon fill="#63b8ff" stroke="#63b8ff" points="340.04,-224.47 350.63,-224.1 342.12,-217.79 340.04,-224.47"/>
</a>
</g>
</g>
<!-- Node7&#45;&gt;Node5 -->
<g id="edge7_Node000007_Node000005" class="edge">
<title>Node7&#45;&gt;Node5</title>
<g id="a_edge7_Node000007_Node000005"><a xlink:title=" ">
<path fill="none" stroke="#63b8ff" d="M528.73,-173.75C491.67,-189.98 441.79,-211.82 412.74,-224.54"/>
<polygon fill="#63b8ff" stroke="#63b8ff" points="529.66,-177.16 537.42,-169.94 526.86,-170.75 529.66,-177.16"/>
</a>
</g>
</g>
<!-- Node8&#45;&gt;Node6 -->
<g id="edge10_Node000008_Node000006" class="edge">
<title>Node8&#45;&gt;Node6</title>
<g id="a_edge10_Node000008_Node000006"><a xlink:title=" ">
<path fill="none" stroke="#63b8ff" d="M132.11,-100.82C123.82,-102.02 115.51,-103.21 107.58,-104.35"/>
<polygon fill="#63b8ff" stroke="#63b8ff" points="132.48,-104.31 141.88,-99.42 131.49,-97.38 132.48,-104.31"/>
</a>
</g>
</g>
<!-- Node9&#45;&gt;Node8 -->
<g id="edge12_Node000009_Node000008" class="edge">
<title>Node9&#45;&gt;Node8</title>
<g id="a_edge12_Node000009_Node000008"><a xlink:title=" ">
<path fill="none" stroke="#63b8ff" d="M682.35,-68.61C571.62,-73.61 375.59,-82.46 274.37,-87.03"/>
<polygon fill="#63b8ff" stroke="#63b8ff" points="682.43,-72.11 692.26,-68.16 682.11,-65.12 682.43,-72.11"/>
</a>
</g>
</g>
<!-- Node10 -->
<g id="Node000010" class="node">
<title>Node10</title>
<g id="a_Node000010"><a xlink:href="../../d8/d37/class_chat_manager.html#a5596a59f560f4f30aca7ac68a8b58451" target="_top" xlink:title=" ">
<polygon fill="white" stroke="#666666" points="650.88,-42.94 503.62,-42.94 503.62,-10.94 650.88,-10.94 650.88,-42.94"/>
<text xml:space="preserve" text-anchor="start" x="511.62" y="-29.44" font-family="Helvetica,sans-Serif" font-size="10.00">ChatManager::tryHandleSlash</text>
<text xml:space="preserve" text-anchor="middle" x="577.25" y="-17.44" font-family="Helvetica,sans-Serif" font-size="10.00">Command</text>
</a>
</g>
</g>
<!-- Node9&#45;&gt;Node10 -->
<g id="edge13_Node000009_Node000010" class="edge">
<title>Node9&#45;&gt;Node10</title>
<g id="a_edge13_Node000009_Node000010"><a xlink:title=" ">
<path fill="none" stroke="#63b8ff" d="M682.39,-48.29C672.01,-46.16 661.44,-43.99 651.21,-41.9"/>
<polygon fill="#63b8ff" stroke="#63b8ff" points="681.56,-51.69 692.06,-50.27 682.97,-44.83 681.56,-51.69"/>
</a>
</g>
</g>
<!-- Node10&#45;&gt;Node8 -->
<g id="edge16_Node000010_Node000008" class="edge">
<title>Node10&#45;&gt;Node8</title>
<g id="a_edge16_Node000010_Node000008"><a xlink:title=" ">
<path fill="none" stroke="#63b8ff" d="M498.38,-8.43C444.22,0.94 371.12,6.5 310.25,-13.94 275.23,-25.7 242.71,-55.05 224.64,-73.65"/>
<polygon fill="#63b8ff" stroke="#63b8ff" points="497.68,-11.86 508.15,-10.2 498.94,-4.97 497.68,-11.86"/>
</a>
</g>
</g>
<!-- Node11 -->
<g id="Node000011" class="node">
<title>Node11</title>
<g id="a_Node000011"><a xlink:href="../../d8/d37/class_chat_manager.html#a5b19f0632a911a519401b1b40e70db7c" target="_top" xlink:title=" ">
<polygon fill="white" stroke="#666666" points="465.75,-42.94 310.25,-42.94 310.25,-22.94 465.75,-22.94 465.75,-42.94"/>
<text xml:space="preserve" text-anchor="middle" x="388" y="-29.44" font-family="Helvetica,sans-Serif" font-size="10.00">ChatManager::renderDicePopup</text>
</a>
</g>
</g>
<!-- Node10&#45;&gt;Node11 -->
<g id="edge14_Node000010_Node000011" class="edge">
<title>Node10&#45;&gt;Node11</title>
<g id="a_edge14_Node000010_Node000011"><a xlink:title=" ">
<path fill="none" stroke="#63b8ff" d="M492.04,-29.64C483.39,-29.91 474.63,-30.2 466.06,-30.47"/>
<polygon fill="#63b8ff" stroke="#63b8ff" points="491.92,-33.14 501.81,-29.32 491.7,-26.15 491.92,-33.14"/>
</a>
</g>
</g>
<!-- Node11&#45;&gt;Node8 -->
<g id="edge15_Node000011_Node000008" class="edge">
<title>Node11&#45;&gt;Node8</title>
<g id="a_edge15_Node000011_Node000008"><a xlink:title=" ">
<path fill="none" stroke="#63b8ff" d="M342.59,-46.7C331.99,-50.03 320.71,-53.58 310.25,-56.94 293.66,-62.26 275.56,-68.18 259.35,-73.51"/>
<polygon fill="#63b8ff" stroke="#63b8ff" points="343.4,-50.12 351.9,-43.8 341.31,-43.44 343.4,-50.12"/>
</a>
</g>
</g>
</g>
</svg>
