<?xml version="1.0" encoding="UTF-8" standalone="no"?>
<!DOCTYPE svg PUBLIC "-//W3C//DTD SVG 1.1//EN"
 "http://www.w3.org/Graphics/SVG/1.1/DTD/svg11.dtd">
<!-- Generated by graphviz version 14.0.2 (20251019.1705)
 -->
<!-- Title: ChatManager::emitGroupCreate Pages: 1 -->
<svg width="484pt" height="116pt"
 viewBox="0.00 0.00 484.00 116.00" xmlns="http://www.w3.org/2000/svg" xmlns:xlink="http://www.w3.org/1999/xlink">
<g id="graph0" class="graph" transform="scale(1 1) rotate(0) translate(4 112)">
<title>ChatManager::emitGroupCreate</title>
<!-- Node1 -->
<g id="Node000001" class="node">
<title>Node1</title>
<g id="a_Node000001"><a xlink:title=" ">
<polygon fill="#999999" stroke="#666666" points="154.75,-70 0,-70 0,-50 154.75,-50 154.75,-70"/>
<text xml:space="preserve" text-anchor="middle" x="77.38" y="-56.5" font-family="Helvetica,sans-Serif" font-size="10.00">ChatManager::emitGroupCreate</text>
</a>
</g>
</g>
<!-- Node2 -->
<g id="Node000002" class="node">
<title>Node2</title>
<g id="a_Node000002"><a xlink:href="../../d8/d37/class_chat_manager.html#aecdeceb9be9b9b14c31f11526dbfd5a7" target="_top" xlink:title=" ">
<polygon fill="white" stroke="#666666" points="325.62,-108 197.12,-108 197.12,-88 325.62,-88 325.62,-108"/>
<text xml:space="preserve" text-anchor="middle" x="261.38" y="-94.5" font-family="Helvetica,sans-Serif" font-size="10.00">ChatManager::hasCurrent</text>
</a>
</g>
</g>
<!-- Node1&#45;&gt;Node2 -->
<g id="edge1_Node000001_Node000002" class="edge">
<title>Node1&#45;&gt;Node2</title>
<g id="a_edge1_Node000001_Node000002"><a xlink:title=" ">
<path fill="none" stroke="#63b8ff" d="M128.59,-70.48C150.47,-75.05 176.32,-80.45 199.3,-85.25"/>
<polygon fill="#63b8ff" stroke="#63b8ff" points="198.34,-88.62 208.84,-87.24 199.77,-81.77 198.34,-88.62"/>
</a>
</g>
</g>
<!-- Node3 -->
<g id="Node000003" class="node">
<title>Node3</title>
<g id="a_Node000003"><a xlink:href="../../d5/d64/namespacemsg.html#a986d7467e1d491d12ceeb5861dedbeab" target="_top" xlink:title=" ">
<polygon fill="white" stroke="#666666" points="332,-70 190.75,-70 190.75,-50 332,-50 332,-70"/>
<text xml:space="preserve" text-anchor="middle" x="261.38" y="-56.5" font-family="Helvetica,sans-Serif" font-size="10.00">msg::makeChatGroupCreate</text>
</a>
</g>
</g>
<!-- Node1&#45;&gt;Node3 -->
<g id="edge2_Node000001_Node000003" class="edge">
<title>Node1&#45;&gt;Node3</title>
<g id="a_edge2_Node000001_Node000003"><a xlink:title=" ">
<path fill="none" stroke="#63b8ff" d="M155.03,-60C163.02,-60 171.16,-60 179.2,-60"/>
<polygon fill="#63b8ff" stroke="#63b8ff" points="178.95,-63.5 188.95,-60 178.95,-56.5 178.95,-63.5"/>
</a>
</g>
</g>
<!-- Node5 -->
<g id="Node000005" class="node">
<title>Node5</title>
<g id="a_Node000005"><a xlink:href="../../d8/d37/class_chat_manager.html#a355992faeefc4f8695bfe76f2c7f295e" target="_top" xlink:title=" ">
<polygon fill="white" stroke="#666666" points="327.5,-32 195.25,-32 195.25,0 327.5,0 327.5,-32"/>
<text xml:space="preserve" text-anchor="start" x="203.25" y="-18.5" font-family="Helvetica,sans-Serif" font-size="10.00">ChatManager::resolvePeer</text>
<text xml:space="preserve" text-anchor="middle" x="261.38" y="-6.5" font-family="Helvetica,sans-Serif" font-size="10.00">IdsForParticipants</text>
</a>
</g>
</g>
<!-- Node1&#45;&gt;Node5 -->
<g id="edge4_Node000001_Node000005" class="edge">
<title>Node1&#45;&gt;Node5</title>
<g id="a_edge4_Node000001_Node000005"><a xlink:title=" ">
<path fill="none" stroke="#63b8ff" d="M121.51,-49.57C140.13,-45.07 162.48,-39.67 183.76,-34.52"/>
<polygon fill="#63b8ff" stroke="#63b8ff" points="184.4,-37.97 193.29,-32.22 182.75,-31.17 184.4,-37.97"/>
</a>
</g>
</g>
<!-- Node4 -->
<g id="Node000004" class="node">
<title>Node4</title>
<g id="a_Node000004"><a xlink:href="../../d5/d64/namespacemsg.html#ad8139941ca11d8369f89b262890dad33" target="_top" xlink:title=" ">
<polygon fill="white" stroke="#666666" points="476.25,-70 368,-70 368,-50 476.25,-50 476.25,-70"/>
<text xml:space="preserve" text-anchor="middle" x="422.12" y="-56.5" font-family="Helvetica,sans-Serif" font-size="10.00">msg::DCTypeToJson</text>
</a>
</g>
</g>
<!-- Node3&#45;&gt;Node4 -->
<g id="edge3_Node000003_Node000004" class="edge">
<title>Node3&#45;&gt;Node4</title>
<g id="a_edge3_Node000003_Node000004"><a xlink:title=" ">
<path fill="none" stroke="#63b8ff" d="M332.47,-60C340.39,-60 348.44,-60 356.29,-60"/>
<polygon fill="#63b8ff" stroke="#63b8ff" points="356.11,-63.5 366.11,-60 356.11,-56.5 356.11,-63.5"/>
</a>
</g>
</g>
</g>
</svg>
