<?xml version="1.0" encoding="UTF-8" standalone="no"?>
<!DOCTYPE svg PUBLIC "-//W3C//DTD SVG 1.1//EN"
 "http://www.w3.org/Graphics/SVG/1.1/DTD/svg11.dtd">
<!-- Generated by graphviz version 14.0.2 (20251019.1705)
 -->
<!-- Title: ChatManager::loadLog Pages: 1 -->
<svg width="458pt" height="123pt"
 viewBox="0.00 0.00 458.00 123.00" xmlns="http://www.w3.org/2000/svg" xmlns:xlink="http://www.w3.org/1999/xlink">

<svg id="main" version="1.1" xmlns="http://www.w3.org/2000/svg" xmlns:xlink="http://www.w3.org/1999/xlink" xml:space="preserve" onload="init(evt)">
<style type="text/css"><![CDATA[
.node, .edge {opacity: 0.7;}
.node.selected, .edge.selected {opacity: 1;}
.edge:hover path { stroke: red; }
.edge:hover polygon { stroke: red; fill: red; }
]]></style>
<script type="application/ecmascript" xlink:href="../../svg.min.js"/>
<svg id="graph" class="graph">
<g id="graph0" class="graph" transform="scale(1 1) rotate(0) translate(4 119)">
<title>ChatManager::loadLog</title>
<!-- Node1 -->
<g id="Node000001" class="node">
<title>Node1</title>
<g id="a_Node000001"><a xlink:title=" ">
<polygon fill="#999999" stroke="#666666" points="114.25,-77 0,-77 0,-57 114.25,-57 114.25,-77"/>
<text xml:space="preserve" text-anchor="middle" x="57.12" y="-63.5" font-family="Helvetica,sans-Serif" font-size="10.00">ChatManager::loadLog</text>
</a>
</g>
</g>
<!-- Node2 -->
<g id="Node000002" class="node">
<title>Node2</title>
<g id="a_Node000002"><a xlink:href="../../d0/dc2/class_serializer.html#a45c8b78e8467c6f7dba85fd7a21c8781" target="_top" xlink:title=" ">
<polygon fill="white" stroke="#666666" points="450,-115 329.75,-115 329.75,-95 450,-95 450,-115"/>
<text xml:space="preserve" text-anchor="middle" x="389.88" y="-101.5" font-family="Helvetica,sans-Serif" font-size="10.00">Serializer::deserializeInt</text>
</a>
</g>
</g>
<!-- Node1&#45;&gt;Node2 -->
<g id="edge1_Node000001_Node000002" class="edge">
<title>Node1&#45;&gt;Node2</title>
<g id="a_edge1_Node000001_Node000002"><a xlink:title=" ">
<path fill="none" stroke="#63b8ff" d="M77.2,-77.46C95.36,-86.79 123.77,-99.75 150.25,-105 205.81,-116.01 270.09,-115.26 317.93,-112.17"/>
<polygon fill="#63b8ff" stroke="#63b8ff" points="318.17,-115.66 327.9,-111.47 317.68,-108.68 318.17,-115.66"/>
</a>
</g>
</g>
<!-- Node3 -->
<g id="Node000003" class="node">
<title>Node3</title>
<g id="a_Node000003"><a xlink:href="../../d0/dc2/class_serializer.html#a47d1b2e09aaa99426b40f965ef2bf284" target="_top" xlink:title=" ">
<polygon fill="white" stroke="#666666" points="289.25,-96 154.75,-96 154.75,-76 289.25,-76 289.25,-96"/>
<text xml:space="preserve" text-anchor="middle" x="222" y="-82.5" font-family="Helvetica,sans-Serif" font-size="10.00">Serializer::deserializeString</text>
</a>
</g>
</g>
<!-- Node1&#45;&gt;Node3 -->
<g id="edge2_Node000001_Node000003" class="edge">
<title>Node1&#45;&gt;Node3</title>
<g id="a_edge2_Node000001_Node000003"><a xlink:title=" ">
<path fill="none" stroke="#63b8ff" d="M114.63,-73.59C123.88,-74.67 133.6,-75.8 143.25,-76.93"/>
<polygon fill="#63b8ff" stroke="#63b8ff" points="142.67,-80.39 153.01,-78.07 143.48,-73.43 142.67,-80.39"/>
</a>
</g>
</g>
<!-- Node4 -->
<g id="Node000004" class="node">
<title>Node4</title>
<g id="a_Node000004"><a xlink:href="../../d0/dc2/class_serializer.html#abc991f78f5490e60783620ab4c3444e6" target="_top" xlink:title=" ">
<polygon fill="white" stroke="#666666" points="291.12,-58 152.88,-58 152.88,-38 291.12,-38 291.12,-58"/>
<text xml:space="preserve" text-anchor="middle" x="222" y="-44.5" font-family="Helvetica,sans-Serif" font-size="10.00">Serializer::deserializeUInt64</text>
</a>
</g>
</g>
<!-- Node1&#45;&gt;Node4 -->
<g id="edge4_Node000001_Node000004" class="edge">
<title>Node1&#45;&gt;Node4</title>
<g id="a_edge4_Node000001_Node000004"><a xlink:title=" ">
<path fill="none" stroke="#63b8ff" d="M114.63,-60.41C123.23,-59.41 132.23,-58.36 141.2,-57.31"/>
<polygon fill="#63b8ff" stroke="#63b8ff" points="141.49,-60.8 151.02,-56.16 140.68,-53.85 141.49,-60.8"/>
</a>
</g>
</g>
<!-- Node5 -->
<g id="Node000005" class="node">
<title>Node5</title>
<g id="a_Node000005"><a xlink:href="../../d8/d37/class_chat_manager.html#abcfd0eeee4aff13b5230a991670ffb5d" target="_top" xlink:title=" ">
<polygon fill="white" stroke="#666666" points="293.75,-20 150.25,-20 150.25,0 293.75,0 293.75,-20"/>
<text xml:space="preserve" text-anchor="middle" x="222" y="-6.5" font-family="Helvetica,sans-Serif" font-size="10.00">ChatManager::ensureGeneral</text>
</a>
</g>
</g>
<!-- Node1&#45;&gt;Node5 -->
<g id="edge5_Node000001_Node000005" class="edge">
<title>Node1&#45;&gt;Node5</title>
<g id="a_edge5_Node000001_Node000005"><a xlink:title=" ">
<path fill="none" stroke="#63b8ff" d="M80.91,-56.64C99.36,-48.48 126.16,-37.16 150.25,-29 155.9,-27.09 161.85,-25.24 167.8,-23.49"/>
<polygon fill="#63b8ff" stroke="#63b8ff" points="168.33,-26.98 177,-20.88 166.43,-20.24 168.33,-26.98"/>
</a>
</g>
</g>
<!-- Node3&#45;&gt;Node2 -->
<g id="edge3_Node000003_Node000002" class="edge">
<title>Node3&#45;&gt;Node2</title>
<g id="a_edge3_Node000003_Node000002"><a xlink:title=" ">
<path fill="none" stroke="#63b8ff" d="M289.51,-93.62C298.87,-94.69 308.51,-95.8 317.95,-96.88"/>
<polygon fill="#63b8ff" stroke="#63b8ff" points="317.48,-100.34 327.81,-98.01 318.28,-93.39 317.48,-100.34"/>
</a>
</g>
</g>
</g>
</svg>
</svg>

<style type='text/css'>
<![CDATA[
[data-mouse-over-selected='false'] { opacity: 0.7; }
[data-mouse-over-selected='true']  { opacity: 1.0; }
]]>
</style>
<script type="application/ecmascript"><![CDATA[
document.addEventListener('DOMContentLoaded', (event) => {
  highlightEdges();
  highlightAdjacentNodes();
});
]]></script>
</svg>
