<?xml version="1.0" encoding="UTF-8" standalone="no"?>
<!DOCTYPE svg PUBLIC "-//W3C//DTD SVG 1.1//EN"
 "http://www.w3.org/Graphics/SVG/1.1/DTD/svg11.dtd">
<!-- Generated by graphviz version 14.0.2 (20251019.1705)
 -->
<!-- Title: ChatManager::emitGroupLeave Pages: 1 -->
<svg width="484pt" height="116pt"
 viewBox="0.00 0.00 484.00 116.00" xmlns="http://www.w3.org/2000/svg" xmlns:xlink="http://www.w3.org/1999/xlink">

<svg id="main" version="1.1" xmlns="http://www.w3.org/2000/svg" xmlns:xlink="http://www.w3.org/1999/xlink" xml:space="preserve" onload="init(evt)">
<style type="text/css"><![CDATA[
.node, .edge {opacity: 0.7;}
.node.selected, .edge.selected {opacity: 1;}
.edge:hover path { stroke: red; }
.edge:hover polygon { stroke: red; fill: red; }
]]></style>
<script type="application/ecmascript" xlink:href="../../svg.min.js"/>
<svg id="graph" class="graph">
<g id="graph0" class="graph" transform="scale(1 1) rotate(0) translate(4 112)">
<title>ChatManager::emitGroupLeave</title>
<!-- Node1 -->
<g id="Node000001" class="node">
<title>Node1</title>
<g id="a_Node000001"><a xlink:title=" ">
<polygon fill="#999999" stroke="#666666" points="151.75,-70 0,-70 0,-50 151.75,-50 151.75,-70"/>
<text xml:space="preserve" text-anchor="middle" x="75.88" y="-56.5" font-family="Helvetica,sans-Serif" font-size="10.00">ChatManager::emitGroupLeave</text>
</a>
</g>
</g>
<!-- Node2 -->
<g id="Node000002" class="node">
<title>Node2</title>
<g id="a_Node000002"><a xlink:href="../../d8/d37/class_chat_manager.html#aecdeceb9be9b9b14c31f11526dbfd5a7" target="_top" xlink:title=" ">
<polygon fill="white" stroke="#666666" points="323.75,-108 195.25,-108 195.25,-88 323.75,-88 323.75,-108"/>
<text xml:space="preserve" text-anchor="middle" x="259.5" y="-94.5" font-family="Helvetica,sans-Serif" font-size="10.00">ChatManager::hasCurrent</text>
</a>
</g>
</g>
<!-- Node1&#45;&gt;Node2 -->
<g id="edge1_Node000001_Node000002" class="edge">
<title>Node1&#45;&gt;Node2</title>
<g id="a_edge1_Node000001_Node000002"><a xlink:title=" ">
<path fill="none" stroke="#63b8ff" d="M126.99,-70.48C148.82,-75.05 174.62,-80.45 197.55,-85.25"/>
<polygon fill="#63b8ff" stroke="#63b8ff" points="196.57,-88.62 207.07,-87.24 198,-81.77 196.57,-88.62"/>
</a>
</g>
</g>
<!-- Node3 -->
<g id="Node000003" class="node">
<title>Node3</title>
<g id="a_Node000003"><a xlink:href="../../d5/d64/namespacemsg.html#a24e8339bdeb6b6a9847b7134e8e016ad" target="_top" xlink:title=" ">
<polygon fill="white" stroke="#666666" points="331.25,-70 187.75,-70 187.75,-50 331.25,-50 331.25,-70"/>
<text xml:space="preserve" text-anchor="middle" x="259.5" y="-56.5" font-family="Helvetica,sans-Serif" font-size="10.00">msg::makeChatGroupUpdate</text>
</a>
</g>
</g>
<!-- Node1&#45;&gt;Node3 -->
<g id="edge2_Node000001_Node000003" class="edge">
<title>Node1&#45;&gt;Node3</title>
<g id="a_edge2_Node000001_Node000003"><a xlink:title=" ">
<path fill="none" stroke="#63b8ff" d="M152.06,-60C160.02,-60 168.14,-60 176.18,-60"/>
<polygon fill="#63b8ff" stroke="#63b8ff" points="175.94,-63.5 185.94,-60 175.94,-56.5 175.94,-63.5"/>
</a>
</g>
</g>
<!-- Node5 -->
<g id="Node000005" class="node">
<title>Node5</title>
<g id="a_Node000005"><a xlink:href="../../d8/d37/class_chat_manager.html#a355992faeefc4f8695bfe76f2c7f295e" target="_top" xlink:title=" ">
<polygon fill="white" stroke="#666666" points="325.62,-32 193.38,-32 193.38,0 325.62,0 325.62,-32"/>
<text xml:space="preserve" text-anchor="start" x="201.38" y="-18.5" font-family="Helvetica,sans-Serif" font-size="10.00">ChatManager::resolvePeer</text>
<text xml:space="preserve" text-anchor="middle" x="259.5" y="-6.5" font-family="Helvetica,sans-Serif" font-size="10.00">IdsForParticipants</text>
</a>
</g>
</g>
<!-- Node1&#45;&gt;Node5 -->
<g id="edge4_Node000001_Node000005" class="edge">
<title>Node1&#45;&gt;Node5</title>
<g id="a_edge4_Node000001_Node000005"><a xlink:title=" ">
<path fill="none" stroke="#63b8ff" d="M119.92,-49.57C138.5,-45.07 160.81,-39.67 182.04,-34.52"/>
<polygon fill="#63b8ff" stroke="#63b8ff" points="182.66,-37.97 191.55,-32.22 181.01,-31.17 182.66,-37.97"/>
</a>
</g>
</g>
<!-- Node4 -->
<g id="Node000004" class="node">
<title>Node4</title>
<g id="a_Node000004"><a xlink:href="../../d5/d64/namespacemsg.html#ad8139941ca11d8369f89b262890dad33" target="_top" xlink:title=" ">
<polygon fill="white" stroke="#666666" points="475.5,-70 367.25,-70 367.25,-50 475.5,-50 475.5,-70"/>
<text xml:space="preserve" text-anchor="middle" x="421.38" y="-56.5" font-family="Helvetica,sans-Serif" font-size="10.00">msg::DCTypeToJson</text>
</a>
</g>
</g>
<!-- Node3&#45;&gt;Node4 -->
<g id="edge3_Node000003_Node000004" class="edge">
<title>Node3&#45;&gt;Node4</title>
<g id="a_edge3_Node000003_Node000004"><a xlink:title=" ">
<path fill="none" stroke="#63b8ff" d="M331.55,-60C339.51,-60 347.59,-60 355.46,-60"/>
<polygon fill="#63b8ff" stroke="#63b8ff" points="355.3,-63.5 365.3,-60 355.3,-56.5 355.3,-63.5"/>
</a>
</g>
</g>
</g>
</svg>
</svg>

<style type='text/css'>
<![CDATA[
[data-mouse-over-selected='false'] { opacity: 0.7; }
[data-mouse-over-selected='true']  { opacity: 1.0; }
]]>
</style>
<script type="application/ecmascript"><![CDATA[
document.addEventListener('DOMContentLoaded', (event) => {
  highlightEdges();
  highlightAdjacentNodes();
});
]]></script>
</svg>
