<?xml version="1.0" encoding="UTF-8" standalone="no"?>
<!DOCTYPE svg PUBLIC "-//W3C//DTD SVG 1.1//EN"
 "http://www.w3.org/Graphics/SVG/1.1/DTD/svg11.dtd">
<!-- Generated by graphviz version 14.0.2 (20251019.1705)
 -->
<!-- Title: ChatManager::emitChatMessageFrame Pages: 1 -->
<svg width="481pt" height="116pt"
 viewBox="0.00 0.00 481.00 116.00" xmlns="http://www.w3.org/2000/svg" xmlns:xlink="http://www.w3.org/1999/xlink">
<g id="graph0" class="graph" transform="scale(1 1) rotate(0) translate(4 112)">
<title>ChatManager::emitChatMessageFrame</title>
<!-- Node1 -->
<g id="Node000001" class="node">
<title>Node1</title>
<g id="a_Node000001"><a xlink:title=" ">
<polygon fill="#999999" stroke="#666666" points="160,-76 0,-76 0,-44 160,-44 160,-76"/>
<text xml:space="preserve" text-anchor="start" x="8" y="-62.5" font-family="Helvetica,sans-Serif" font-size="10.00">ChatManager::emitChatMessage</text>
<text xml:space="preserve" text-anchor="middle" x="80" y="-50.5" font-family="Helvetica,sans-Serif" font-size="10.00">Frame</text>
</a>
</g>
</g>
<!-- Node2 -->
<g id="Node000002" class="node">
<title>Node2</title>
<g id="a_Node000002"><a xlink:href="../../d8/d37/class_chat_manager.html#aecdeceb9be9b9b14c31f11526dbfd5a7" target="_top" xlink:title=" ">
<polygon fill="white" stroke="#666666" points="326.38,-108 197.88,-108 197.88,-88 326.38,-88 326.38,-108"/>
<text xml:space="preserve" text-anchor="middle" x="262.12" y="-94.5" font-family="Helvetica,sans-Serif" font-size="10.00">ChatManager::hasCurrent</text>
</a>
</g>
</g>
<!-- Node1&#45;&gt;Node2 -->
<g id="edge1_Node000001_Node000002" class="edge">
<title>Node1&#45;&gt;Node2</title>
<g id="a_edge1_Node000001_Node000002"><a xlink:title=" ">
<path fill="none" stroke="#63b8ff" d="M158.96,-76.45C172.85,-79.38 187.13,-82.39 200.45,-85.2"/>
<polygon fill="#63b8ff" stroke="#63b8ff" points="199.39,-88.55 209.9,-87.19 200.84,-81.7 199.39,-88.55"/>
</a>
</g>
</g>
<!-- Node3 -->
<g id="Node000003" class="node">
<title>Node3</title>
<g id="a_Node000003"><a xlink:href="../../d5/d64/namespacemsg.html#a0969cd8a8185332490b7ecde9021086a" target="_top" xlink:title=" ">
<polygon fill="white" stroke="#666666" points="324.88,-70 199.38,-70 199.38,-50 324.88,-50 324.88,-70"/>
<text xml:space="preserve" text-anchor="middle" x="262.12" y="-56.5" font-family="Helvetica,sans-Serif" font-size="10.00">msg::makeChatMessage</text>
</a>
</g>
</g>
<!-- Node1&#45;&gt;Node3 -->
<g id="edge2_Node000001_Node000003" class="edge">
<title>Node1&#45;&gt;Node3</title>
<g id="a_edge2_Node000001_Node000003"><a xlink:title=" ">
<path fill="none" stroke="#63b8ff" d="M160.27,-60C169.36,-60 178.6,-60 187.61,-60"/>
<polygon fill="#63b8ff" stroke="#63b8ff" points="187.36,-63.5 197.36,-60 187.36,-56.5 187.36,-63.5"/>
</a>
</g>
</g>
<!-- Node5 -->
<g id="Node000005" class="node">
<title>Node5</title>
<g id="a_Node000005"><a xlink:href="../../d8/d37/class_chat_manager.html#a355992faeefc4f8695bfe76f2c7f295e" target="_top" xlink:title=" ">
<polygon fill="white" stroke="#666666" points="328.25,-32 196,-32 196,0 328.25,0 328.25,-32"/>
<text xml:space="preserve" text-anchor="start" x="204" y="-18.5" font-family="Helvetica,sans-Serif" font-size="10.00">ChatManager::resolvePeer</text>
<text xml:space="preserve" text-anchor="middle" x="262.12" y="-6.5" font-family="Helvetica,sans-Serif" font-size="10.00">IdsForParticipants</text>
</a>
</g>
</g>
<!-- Node1&#45;&gt;Node5 -->
<g id="edge4_Node000001_Node000005" class="edge">
<title>Node1&#45;&gt;Node5</title>
<g id="a_edge4_Node000001_Node000005"><a xlink:title=" ">
<path fill="none" stroke="#63b8ff" d="M148.33,-43.55C160.19,-40.66 172.61,-37.62 184.69,-34.67"/>
<polygon fill="#63b8ff" stroke="#63b8ff" points="185.32,-38.12 194.2,-32.35 183.66,-31.32 185.32,-38.12"/>
</a>
</g>
</g>
<!-- Node4 -->
<g id="Node000004" class="node">
<title>Node4</title>
<g id="a_Node000004"><a xlink:href="../../d5/d64/namespacemsg.html#ad8139941ca11d8369f89b262890dad33" target="_top" xlink:title=" ">
<polygon fill="white" stroke="#666666" points="472.5,-70 364.25,-70 364.25,-50 472.5,-50 472.5,-70"/>
<text xml:space="preserve" text-anchor="middle" x="418.38" y="-56.5" font-family="Helvetica,sans-Serif" font-size="10.00">msg::DCTypeToJson</text>
</a>
</g>
</g>
<!-- Node3&#45;&gt;Node4 -->
<g id="edge3_Node000003_Node000004" class="edge">
<title>Node3&#45;&gt;Node4</title>
<g id="a_edge3_Node000003_Node000004"><a xlink:title=" ">
<path fill="none" stroke="#63b8ff" d="M324.98,-60C334.05,-60 343.42,-60 352.55,-60"/>
<polygon fill="#63b8ff" stroke="#63b8ff" points="352.44,-63.5 362.44,-60 352.44,-56.5 352.44,-63.5"/>
</a>
</g>
</g>
</g>
</svg>
