<?xml version="1.0" encoding="UTF-8" standalone="no"?>
<!DOCTYPE svg PUBLIC "-//W3C//DTD SVG 1.1//EN"
 "http://www.w3.org/Graphics/SVG/1.1/DTD/svg11.dtd">
<!-- Generated by graphviz version 2.43.0 (0)
 -->
<!-- Title: include/PathManager.h Pages: 1 -->
<!--zoomable 247 -->

<svg id="main" version="1.1" xmlns="http://www.w3.org/2000/svg" xmlns:xlink="http://www.w3.org/1999/xlink" xml:space="preserve" onload="init(evt)">
<style type="text/css"><![CDATA[
.node, .edge {opacity: 0.7;}
.node.selected, .edge.selected {opacity: 1;}
.edge:hover path { stroke: red; }
.edge:hover polygon { stroke: red; fill: red; }
]]></style>

<defs>
  <circle id="rim" cx="0" cy="0" r="7"/>
  <circle id="rim2" cx="0" cy="0" r="3.5"/>
  <g id="zoomPlus">
    <use xlink:href="#rim" fill="#404040"><set attributeName="fill" to="#808080" begin="zoomplus.mouseover" end="zoomplus.mouseout"/></use>
    <path d="M-4,0h8M0,-4v8" fill="none" stroke="white" stroke-width="1.5" pointer-events="none"/>
  </g>
  <g id="zoomMin">
    <use xlink:href="#rim" fill="#404040"><set attributeName="fill" to="#808080" begin="zoomminus.mouseover" end="zoomminus.mouseout"/></use>
    <path d="M-4,0h8" fill="none" stroke="white" stroke-width="1.5" pointer-events="none"/>
  </g>
  <g id="arrowUp" transform="translate(30 24)">
    <use xlink:href="#rim"/>
    <path pointer-events="none" fill="none" stroke="white" stroke-width="1.5" d="M0,-3.0v7 M-2.5,-0.5L0,-3.0L2.5,-0.5"/>
  </g>
  <g id="arrowRight" transform="rotate(90) translate(36 -43)">
    <use xlink:href="#rim"/>
    <path pointer-events="none" fill="none" stroke="white" stroke-width="1.5" d="M0,-3.0v7 M-2.5,-0.5L0,-3.0L2.5,-0.5"/>
  </g>
  <g id="arrowDown" transform="rotate(180) translate(-30 -48)">
    <use xlink:href="#rim"/>
    <path pointer-events="none" fill="none" stroke="white" stroke-width="1.5" d="M0,-3.0v7 M-2.5,-0.5L0,-3.0L2.5,-0.5"/>
  </g>
  <g id="arrowLeft" transform="rotate(270) translate(-36 17)">
    <use xlink:href="#rim"/>
    <path pointer-events="none" fill="none" stroke="white" stroke-width="1.5" d="M0,-3.0v7 M-2.5,-0.5L0,-3.0L2.5,-0.5"/>
  </g>
  <g id="resetDef">
    <use xlink:href="#rim2" fill="#404040"><set attributeName="fill" to="#808080" begin="reset.mouseover" end="reset.mouseout"/></use>
  </g>
</defs>
<script type="application/ecmascript">
var viewWidth = 1528;
var viewHeight = 247;
var sectionId = 'dynsection-1';
</script>
<script type="application/ecmascript" xlink:href="../../svg.min.js"/>
<svg id="graph" class="graph">
<g id="viewport">
<title>include/PathManager.h</title>
<!-- Node1 -->
<g id="Node000001" class="node">
<title>Node1</title>
<g id="a_Node000001"><a xlink:title=" ">
<polygon fill="#999999" stroke="#666666" points="539,-239 412,-239 412,-220 539,-220 539,-239"/>
<text text-anchor="middle" x="475.5" y="-227" font-family="Helvetica,sans-Serif" font-size="10.00">include/PathManager.h</text>
</a>
</g>
</g>
<!-- Node2 -->
<g id="Node000002" class="node">
<title>Node2</title>
<g id="a_Node000002"><a xlink:href="../../df/d64/ApplicationHandler_8h.html" target="_top" xlink:title=" ">
<polygon fill="white" stroke="#666666" points="223.5,-74 67.5,-74 67.5,-55 223.5,-55 223.5,-74"/>
<text text-anchor="middle" x="145.5" y="-62" font-family="Helvetica,sans-Serif" font-size="10.00">include/ApplicationHandler.h</text>
</a>
</g>
</g>
<!-- Node1&#45;&gt;Node2 -->
<g id="edge1_Node000001_Node000002" class="edge">
<title>Node1&#45;&gt;Node2</title>
<g id="a_edge1_Node000001_Node000002"><a xlink:title=" ">
<path fill="none" stroke="#63b8ff" d="M401.69,-222.71C288.54,-212.12 80.53,-185.35 35.5,-129 13.54,-101.52 61.65,-83.64 101.03,-74.05"/>
<polygon fill="#63b8ff" stroke="#63b8ff" points="401.39,-226.19 411.67,-223.62 402.03,-219.22 401.39,-226.19"/>
</a>
</g>
</g>
<!-- Node4 -->
<g id="Node000004" class="node">
<title>Node4</title>
<g id="a_Node000004"><a xlink:href="../../df/d0a/main_8cpp.html" target="_top" xlink:title=" ">
<polygon fill="white" stroke="#666666" points="79,-19 0,-19 0,0 79,0 79,-19"/>
<text text-anchor="middle" x="39.5" y="-7" font-family="Helvetica,sans-Serif" font-size="10.00">src/main.cpp</text>
</a>
</g>
</g>
<!-- Node1&#45;&gt;Node4 -->
<g id="edge30_Node000001_Node000004" class="edge">
<title>Node1&#45;&gt;Node4</title>
<g id="a_edge30_Node000001_Node000004"><a xlink:title=" ">
<path fill="none" stroke="#63b8ff" d="M401.75,-224.68C307.24,-218.96 149.19,-206.37 95.5,-184 59.3,-168.92 43.52,-164.33 26.5,-129 8.36,-91.34 26.94,-39.33 35.59,-19.07"/>
<polygon fill="#63b8ff" stroke="#63b8ff" points="401.63,-228.18 411.82,-225.28 402.05,-221.19 401.63,-228.18"/>
</a>
</g>
</g>
<!-- Node5 -->
<g id="Node000005" class="node">
<title>Node5</title>
<g id="a_Node000005"><a xlink:href="../../d1/dc7/AssetIO_8h.html" target="_top" xlink:title=" ">
<polygon fill="white" stroke="#666666" points="1449,-74 1348,-74 1348,-55 1449,-55 1449,-74"/>
<text text-anchor="middle" x="1398.5" y="-62" font-family="Helvetica,sans-Serif" font-size="10.00">include/AssetIO.h</text>
</a>
</g>
</g>
<!-- Node1&#45;&gt;Node5 -->
<g id="edge4_Node000001_Node000005" class="edge">
<title>Node1&#45;&gt;Node5</title>
<g id="a_edge4_Node000001_Node000005"><a xlink:title=" ">
<path fill="none" stroke="#63b8ff" d="M549.69,-227.32C706.16,-224.27 1065.3,-214.11 1183.5,-184 1269.41,-162.11 1357.65,-97.56 1387.72,-74.13"/>
<polygon fill="#63b8ff" stroke="#63b8ff" points="549.16,-223.83 539.23,-227.52 549.29,-230.83 549.16,-223.83"/>
</a>
</g>
</g>
<!-- Node6 -->
<g id="Node000006" class="node">
<title>Node6</title>
<g id="a_Node000006"><a xlink:href="../../da/d5b/GameTableManager_8h.html" target="_top" xlink:title=" ">
<polygon fill="white" stroke="#666666" points="398,-129 237,-129 237,-110 398,-110 398,-129"/>
<text text-anchor="middle" x="317.5" y="-117" font-family="Helvetica,sans-Serif" font-size="10.00">include/GameTableManager.h</text>
</a>
</g>
</g>
<!-- Node1&#45;&gt;Node6 -->
<g id="edge6_Node000001_Node000006" class="edge">
<title>Node1&#45;&gt;Node6</title>
<g id="a_edge6_Node000001_Node000006"><a xlink:title=" ">
<path fill="none" stroke="#63b8ff" d="M454.3,-214.01C420.96,-191.22 357.32,-147.72 330.22,-129.2"/>
<polygon fill="#63b8ff" stroke="#63b8ff" points="452.61,-217.09 462.84,-219.84 456.56,-211.31 452.61,-217.09"/>
</a>
</g>
</g>
<!-- Node9 -->
<g id="Node000009" class="node">
<title>Node9</title>
<g id="a_Node000009"><a xlink:href="../../dd/d6c/NetworkManager_8h.html" target="_top" xlink:title=" ">
<polygon fill="white" stroke="#666666" points="755.5,-184 565.5,-184 565.5,-165 755.5,-165 755.5,-184"/>
<text text-anchor="middle" x="660.5" y="-172" font-family="Helvetica,sans-Serif" font-size="10.00">include/network/NetworkManager.h</text>
</a>
</g>
</g>
<!-- Node1&#45;&gt;Node9 -->
<g id="edge10_Node000001_Node000009" class="edge">
<title>Node1&#45;&gt;Node9</title>
<g id="a_edge10_Node000001_Node000009"><a xlink:title=" ">
<path fill="none" stroke="#63b8ff" d="M515,-217.18C549.6,-207.27 599.13,-193.08 630.54,-184.08"/>
<polygon fill="#63b8ff" stroke="#63b8ff" points="513.87,-213.87 505.22,-219.98 515.8,-220.6 513.87,-213.87"/>
</a>
</g>
</g>
<!-- Node11 -->
<g id="Node000011" class="node">
<title>Node11</title>
<g id="a_Node000011"><a xlink:href="../../d2/dae/ChatManager_8cpp.html" target="_top" xlink:title=" ">
<polygon fill="white" stroke="#666666" points="535,-129 416,-129 416,-110 535,-110 535,-129"/>
<text text-anchor="middle" x="475.5" y="-117" font-family="Helvetica,sans-Serif" font-size="10.00">src/ChatManager.cpp</text>
</a>
</g>
</g>
<!-- Node1&#45;&gt;Node11 -->
<g id="edge28_Node000001_Node000011" class="edge">
<title>Node1&#45;&gt;Node11</title>
<g id="a_edge28_Node000001_Node000011"><a xlink:title=" ">
<path fill="none" stroke="#63b8ff" d="M475.5,-209.48C475.5,-185.84 475.5,-146.5 475.5,-129.16"/>
<polygon fill="#63b8ff" stroke="#63b8ff" points="472,-209.66 475.5,-219.66 479,-209.66 472,-209.66"/>
</a>
</g>
</g>
<!-- Node15 -->
<g id="Node000015" class="node">
<title>Node15</title>
<g id="a_Node000015"><a xlink:href="../../d5/d8e/NetworkUtilities_8h.html" target="_top" xlink:title=" ">
<polygon fill="white" stroke="#666666" points="1174.5,-184 988.5,-184 988.5,-165 1174.5,-165 1174.5,-184"/>
<text text-anchor="middle" x="1081.5" y="-172" font-family="Helvetica,sans-Serif" font-size="10.00">include/network/NetworkUtilities.h</text>
</a>
</g>
</g>
<!-- Node1&#45;&gt;Node15 -->
<g id="edge18_Node000001_Node000015" class="edge">
<title>Node1&#45;&gt;Node15</title>
<g id="a_edge18_Node000001_Node000015"><a xlink:title=" ">
<path fill="none" stroke="#63b8ff" d="M549.25,-222.05C659.63,-212.4 867.68,-194.2 988.39,-183.64"/>
<polygon fill="#63b8ff" stroke="#63b8ff" points="548.86,-218.57 539.21,-222.93 549.47,-225.54 548.86,-218.57"/>
</a>
</g>
</g>
<!-- Node16 -->
<g id="Node000016" class="node">
<title>Node16</title>
<g id="a_Node000016"><a xlink:href="../../dc/db6/UPnPManager_8h.html" target="_top" xlink:title=" ">
<polygon fill="white" stroke="#666666" points="218.5,-129 44.5,-129 44.5,-110 218.5,-110 218.5,-129"/>
<text text-anchor="middle" x="131.5" y="-117" font-family="Helvetica,sans-Serif" font-size="10.00">include/network/UPnPManager.h</text>
</a>
</g>
</g>
<!-- Node1&#45;&gt;Node16 -->
<g id="edge24_Node000001_Node000016" class="edge">
<title>Node1&#45;&gt;Node16</title>
<g id="a_edge24_Node000001_Node000016"><a xlink:title=" ">
<path fill="none" stroke="#63b8ff" d="M438.55,-216.9C369,-195.07 220.13,-148.33 158.78,-129.07"/>
<polygon fill="#63b8ff" stroke="#63b8ff" points="437.63,-220.28 448.22,-219.94 439.73,-213.6 437.63,-220.28"/>
</a>
</g>
</g>
<!-- Node17 -->
<g id="Node000017" class="node">
<title>Node17</title>
<g id="a_Node000017"><a xlink:href="../../d3/dbb/IdentityManager_8cpp.html" target="_top" xlink:title=" ">
<polygon fill="white" stroke="#666666" points="1519.5,-184 1385.5,-184 1385.5,-165 1519.5,-165 1519.5,-184"/>
<text text-anchor="middle" x="1452.5" y="-172" font-family="Helvetica,sans-Serif" font-size="10.00">src/IdentityManager.cpp</text>
</a>
</g>
</g>
<!-- Node1&#45;&gt;Node17 -->
<g id="edge29_Node000001_Node000017" class="edge">
<title>Node1&#45;&gt;Node17</title>
<g id="a_edge29_Node000001_Node000017"><a xlink:title=" ">
<path fill="none" stroke="#63b8ff" d="M549.36,-226.21C702.72,-221.14 1066.77,-207.54 1371.5,-184 1376.01,-183.65 1380.66,-183.26 1385.34,-182.83"/>
<polygon fill="#63b8ff" stroke="#63b8ff" points="549.01,-222.72 539.13,-226.54 549.24,-229.71 549.01,-222.72"/>
</a>
</g>
</g>
<!-- Node3 -->
<g id="Node000003" class="node">
<title>Node3</title>
<g id="a_Node000003"><a xlink:href="../../d1/d2a/ApplicationHandler_8cpp.html" target="_top" xlink:title=" ">
<polygon fill="white" stroke="#666666" points="1392.5,-19 1246.5,-19 1246.5,0 1392.5,0 1392.5,-19"/>
<text text-anchor="middle" x="1319.5" y="-7" font-family="Helvetica,sans-Serif" font-size="10.00">src/ApplicationHandler.cpp</text>
</a>
</g>
</g>
<!-- Node2&#45;&gt;Node3 -->
<g id="edge2_Node000002_Node000003" class="edge">
<title>Node2&#45;&gt;Node3</title>
<g id="a_edge2_Node000002_Node000003"><a xlink:title=" ">
<path fill="none" stroke="#63b8ff" d="M233.75,-54.96C621.38,-28.39 1072.49,-16.11 1246.26,-12.07"/>
<polygon fill="#63b8ff" stroke="#63b8ff" points="233.47,-51.47 223.74,-55.65 233.95,-58.45 233.47,-51.47"/>
</a>
</g>
</g>
<!-- Node2&#45;&gt;Node4 -->
<g id="edge3_Node000002_Node000004" class="edge">
<title>Node2&#45;&gt;Node4</title>
<g id="a_edge3_Node000002_Node000004"><a xlink:title=" ">
<path fill="none" stroke="#63b8ff" d="M119.5,-50.5C100,-40.75 73.85,-27.68 56.84,-19.17"/>
<polygon fill="#63b8ff" stroke="#63b8ff" points="117.96,-53.64 128.47,-54.98 121.09,-47.38 117.96,-53.64"/>
</a>
</g>
</g>
<!-- Node5&#45;&gt;Node3 -->
<g id="edge5_Node000005_Node000003" class="edge">
<title>Node5&#45;&gt;Node3</title>
<g id="a_edge5_Node000005_Node000003"><a xlink:title=" ">
<path fill="none" stroke="#63b8ff" d="M1377.11,-49.15C1362.83,-39.57 1344.53,-27.29 1332.42,-19.17"/>
<polygon fill="#63b8ff" stroke="#63b8ff" points="1375.55,-52.32 1385.81,-54.98 1379.45,-46.51 1375.55,-52.32"/>
</a>
</g>
</g>
<!-- Node6&#45;&gt;Node2 -->
<g id="edge7_Node000006_Node000002" class="edge">
<title>Node6&#45;&gt;Node2</title>
<g id="a_edge7_Node000006_Node000002"><a xlink:title=" ">
<path fill="none" stroke="#63b8ff" d="M279.94,-106.93C247.82,-97.03 202.31,-83.01 173.35,-74.08"/>
<polygon fill="#63b8ff" stroke="#63b8ff" points="279.28,-110.38 289.87,-109.98 281.34,-103.69 279.28,-110.38"/>
</a>
</g>
</g>
<!-- Node7 -->
<g id="Node000007" class="node">
<title>Node7</title>
<g id="a_Node000007"><a xlink:href="../../d6/ddb/GameTableManager_8cpp.html" target="_top" xlink:title=" ">
<polygon fill="white" stroke="#666666" points="393,-74 242,-74 242,-55 393,-55 393,-74"/>
<text text-anchor="middle" x="317.5" y="-62" font-family="Helvetica,sans-Serif" font-size="10.00">src/GameTableManager.cpp</text>
</a>
</g>
</g>
<!-- Node6&#45;&gt;Node7 -->
<g id="edge8_Node000006_Node000007" class="edge">
<title>Node6&#45;&gt;Node7</title>
<g id="a_edge8_Node000006_Node000007"><a xlink:title=" ">
<path fill="none" stroke="#63b8ff" d="M317.5,-99.66C317.5,-90.93 317.5,-80.99 317.5,-74.09"/>
<polygon fill="#63b8ff" stroke="#63b8ff" points="314,-99.75 317.5,-109.75 321,-99.75 314,-99.75"/>
</a>
</g>
</g>
<!-- Node8 -->
<g id="Node000008" class="node">
<title>Node8</title>
<g id="a_Node000008"><a xlink:href="../../d2/ddd/NetworkManager_8cpp.html" target="_top" xlink:title=" ">
<polygon fill="white" stroke="#666666" points="694.5,-74 514.5,-74 514.5,-55 694.5,-55 694.5,-74"/>
<text text-anchor="middle" x="604.5" y="-62" font-family="Helvetica,sans-Serif" font-size="10.00">src/network/NetworkManager.cpp</text>
</a>
</g>
</g>
<!-- Node6&#45;&gt;Node8 -->
<g id="edge9_Node000006_Node000008" class="edge">
<title>Node6&#45;&gt;Node8</title>
<g id="a_edge9_Node000006_Node000008"><a xlink:title=" ">
<path fill="none" stroke="#63b8ff" d="M373.67,-108.13C427.48,-98.19 507.72,-83.37 558.03,-74.08"/>
<polygon fill="#63b8ff" stroke="#63b8ff" points="372.81,-104.73 363.61,-109.98 374.08,-111.61 372.81,-104.73"/>
</a>
</g>
</g>
<!-- Node9&#45;&gt;Node6 -->
<g id="edge11_Node000009_Node000006" class="edge">
<title>Node9&#45;&gt;Node6</title>
<g id="a_edge11_Node000009_Node000006"><a xlink:title=" ">
<path fill="none" stroke="#63b8ff" d="M595.35,-163.43C530.95,-153.48 433.48,-138.42 372.76,-129.04"/>
<polygon fill="#63b8ff" stroke="#63b8ff" points="594.97,-166.92 605.39,-164.98 596.04,-160 594.97,-166.92"/>
</a>
</g>
</g>
<!-- Node9&#45;&gt;Node8 -->
<g id="edge14_Node000009_Node000008" class="edge">
<title>Node9&#45;&gt;Node8</title>
<g id="a_edge14_Node000009_Node000008"><a xlink:title=" ">
<path fill="none" stroke="#63b8ff" d="M675.36,-157.13C685.46,-143.92 695.5,-125.12 686.5,-110 675.73,-91.91 654.75,-80.71 636.71,-74.08"/>
<polygon fill="#63b8ff" stroke="#63b8ff" points="672.6,-154.97 668.91,-164.91 677.99,-159.44 672.6,-154.97"/>
</a>
</g>
</g>
<!-- Node10 -->
<g id="Node000010" class="node">
<title>Node10</title>
<g id="a_Node000010"><a xlink:href="../../d0/ddd/BoardManager_8cpp.html" target="_top" xlink:title=" ">
<polygon fill="white" stroke="#666666" points="678,-129 553,-129 553,-110 678,-110 678,-129"/>
<text text-anchor="middle" x="615.5" y="-117" font-family="Helvetica,sans-Serif" font-size="10.00">src/BoardManager.cpp</text>
</a>
</g>
</g>
<!-- Node9&#45;&gt;Node10 -->
<g id="edge12_Node000009_Node000010" class="edge">
<title>Node9&#45;&gt;Node10</title>
<g id="a_edge12_Node000009_Node000010"><a xlink:title=" ">
<path fill="none" stroke="#63b8ff" d="M646.45,-156.96C638.61,-147.72 629.17,-136.6 622.79,-129.09"/>
<polygon fill="#63b8ff" stroke="#63b8ff" points="643.93,-159.39 653.07,-164.75 649.26,-154.86 643.93,-159.39"/>
</a>
</g>
</g>
<!-- Node9&#45;&gt;Node11 -->
<g id="edge13_Node000009_Node000011" class="edge">
<title>Node9&#45;&gt;Node11</title>
<g id="a_edge13_Node000009_Node000011"><a xlink:title=" ">
<path fill="none" stroke="#63b8ff" d="M621,-162.18C586.4,-152.27 536.87,-138.08 505.46,-129.08"/>
<polygon fill="#63b8ff" stroke="#63b8ff" points="620.2,-165.6 630.78,-164.98 622.13,-158.87 620.2,-165.6"/>
</a>
</g>
</g>
<!-- Node12 -->
<g id="Node000012" class="node">
<title>Node12</title>
<g id="a_Node000012"><a xlink:href="../../d5/d9e/PeerLink_8cpp.html" target="_top" xlink:title=" ">
<polygon fill="white" stroke="#666666" points="1065,-129 926,-129 926,-110 1065,-110 1065,-129"/>
<text text-anchor="middle" x="995.5" y="-117" font-family="Helvetica,sans-Serif" font-size="10.00">src/network/PeerLink.cpp</text>
</a>
</g>
</g>
<!-- Node9&#45;&gt;Node12 -->
<g id="edge15_Node000009_Node000012" class="edge">
<title>Node9&#45;&gt;Node12</title>
<g id="a_edge15_Node000009_Node000012"><a xlink:title=" ">
<path fill="none" stroke="#63b8ff" d="M724.52,-163.37C787.42,-153.42 882.34,-138.4 941.53,-129.04"/>
<polygon fill="#63b8ff" stroke="#63b8ff" points="723.65,-159.96 714.32,-164.98 724.75,-166.88 723.65,-159.96"/>
</a>
</g>
</g>
<!-- Node13 -->
<g id="Node000013" class="node">
<title>Node13</title>
<g id="a_Node000013"><a xlink:href="../../d5/d2c/SignalingClient_8cpp.html" target="_top" xlink:title=" ">
<polygon fill="white" stroke="#666666" points="1253.5,-129 1083.5,-129 1083.5,-110 1253.5,-110 1253.5,-129"/>
<text text-anchor="middle" x="1168.5" y="-117" font-family="Helvetica,sans-Serif" font-size="10.00">src/network/SignalingClient.cpp</text>
</a>
</g>
</g>
<!-- Node9&#45;&gt;Node13 -->
<g id="edge16_Node000009_Node000013" class="edge">
<title>Node9&#45;&gt;Node13</title>
<g id="a_edge16_Node000009_Node000013"><a xlink:title=" ">
<path fill="none" stroke="#63b8ff" d="M752.32,-163.92C847.61,-153.98 995.24,-138.58 1086.66,-129.04"/>
<polygon fill="#63b8ff" stroke="#63b8ff" points="751.7,-160.47 742.12,-164.98 752.43,-167.43 751.7,-160.47"/>
</a>
</g>
</g>
<!-- Node14 -->
<g id="Node000014" class="node">
<title>Node14</title>
<g id="a_Node000014"><a xlink:href="../../d3/d2e/SignalingServer_8cpp.html" target="_top" xlink:title=" ">
<polygon fill="white" stroke="#666666" points="908,-129 735,-129 735,-110 908,-110 908,-129"/>
<text text-anchor="middle" x="821.5" y="-117" font-family="Helvetica,sans-Serif" font-size="10.00">src/network/SignalingServer.cpp</text>
</a>
</g>
</g>
<!-- Node9&#45;&gt;Node14 -->
<g id="edge17_Node000009_Node000014" class="edge">
<title>Node9&#45;&gt;Node14</title>
<g id="a_edge17_Node000009_Node000014"><a xlink:title=" ">
<path fill="none" stroke="#63b8ff" d="M696.05,-161.8C726.09,-151.91 768.44,-137.97 795.43,-129.08"/>
<polygon fill="#63b8ff" stroke="#63b8ff" points="694.77,-158.53 686.37,-164.98 696.96,-165.18 694.77,-158.53"/>
</a>
</g>
</g>
<!-- Node15&#45;&gt;Node3 -->
<g id="edge19_Node000015_Node000003" class="edge">
<title>Node15&#45;&gt;Node3</title>
<g id="a_edge19_Node000015_Node000003"><a xlink:title=" ">
<path fill="none" stroke="#63b8ff" d="M1163.3,-163.47C1210.18,-156.17 1263.08,-144.79 1280.5,-129 1313.39,-99.18 1318.62,-41.13 1319.39,-19.18"/>
<polygon fill="#63b8ff" stroke="#63b8ff" points="1162.77,-160.01 1153.4,-164.97 1163.81,-166.93 1162.77,-160.01"/>
</a>
</g>
</g>
<!-- Node15&#45;&gt;Node8 -->
<g id="edge20_Node000015_Node000008" class="edge">
<title>Node15&#45;&gt;Node8</title>
<g id="a_edge20_Node000015_Node000008"><a xlink:title=" ">
<path fill="none" stroke="#63b8ff" d="M1184.69,-166.43C1240.9,-158.79 1293.28,-142.93 1262.5,-110 1224.56,-69.4 865.8,-64.79 694.59,-64.93"/>
<polygon fill="#63b8ff" stroke="#63b8ff" points="1184.03,-162.98 1174.55,-167.72 1184.91,-169.93 1184.03,-162.98"/>
</a>
</g>
</g>
<!-- Node15&#45;&gt;Node12 -->
<g id="edge21_Node000015_Node000012" class="edge">
<title>Node15&#45;&gt;Node12</title>
<g id="a_edge21_Node000015_Node000012"><a xlink:title=" ">
<path fill="none" stroke="#63b8ff" d="M1059.1,-159.7C1043.43,-150.04 1022.99,-137.44 1009.57,-129.17"/>
<polygon fill="#63b8ff" stroke="#63b8ff" points="1057.33,-162.72 1067.68,-164.98 1061.01,-156.76 1057.33,-162.72"/>
</a>
</g>
</g>
<!-- Node15&#45;&gt;Node13 -->
<g id="edge22_Node000015_Node000013" class="edge">
<title>Node15&#45;&gt;Node13</title>
<g id="a_edge22_Node000015_Node000013"><a xlink:title=" ">
<path fill="none" stroke="#63b8ff" d="M1104.16,-159.7C1120.01,-150.04 1140.69,-137.44 1154.27,-129.17"/>
<polygon fill="#63b8ff" stroke="#63b8ff" points="1102.2,-156.79 1095.48,-164.98 1105.84,-162.77 1102.2,-156.79"/>
</a>
</g>
</g>
<!-- Node15&#45;&gt;Node14 -->
<g id="edge23_Node000015_Node000014" class="edge">
<title>Node15&#45;&gt;Node14</title>
<g id="a_edge23_Node000015_Node000014"><a xlink:title=" ">
<path fill="none" stroke="#63b8ff" d="M1029.7,-162.94C980.96,-153.01 908.89,-138.31 863.6,-129.08"/>
<polygon fill="#63b8ff" stroke="#63b8ff" points="1029.23,-166.42 1039.73,-164.98 1030.63,-159.56 1029.23,-166.42"/>
</a>
</g>
</g>
<!-- Node16&#45;&gt;Node4 -->
<g id="edge26_Node000016_Node000004" class="edge">
<title>Node16&#45;&gt;Node4</title>
<g id="a_edge26_Node000016_Node000004"><a xlink:title=" ">
<path fill="none" stroke="#63b8ff" d="M99.8,-105.61C85.35,-98.28 69.13,-87.79 58.5,-74 45.71,-57.42 41.5,-32.32 40.14,-19.19"/>
<polygon fill="#63b8ff" stroke="#63b8ff" points="98.43,-108.83 108.96,-109.97 101.44,-102.51 98.43,-108.83"/>
</a>
</g>
</g>
<!-- Node16&#45;&gt;Node7 -->
<g id="edge25_Node000016_Node000007" class="edge">
<title>Node16&#45;&gt;Node7</title>
<g id="a_edge25_Node000016_Node000007"><a xlink:title=" ">
<path fill="none" stroke="#63b8ff" d="M171.21,-107.18C206,-97.27 255.79,-83.08 287.38,-74.08"/>
<polygon fill="#63b8ff" stroke="#63b8ff" points="170.04,-103.88 161.38,-109.98 171.96,-110.61 170.04,-103.88"/>
</a>
</g>
</g>
<!-- Node16&#45;&gt;Node8 -->
<g id="edge27_Node000016_Node000008" class="edge">
<title>Node16&#45;&gt;Node8</title>
<g id="a_edge27_Node000016_Node000008"><a xlink:title=" ">
<path fill="none" stroke="#63b8ff" d="M217.53,-108.86C306.28,-98.92 443.35,-83.56 528.3,-74.04"/>
<polygon fill="#63b8ff" stroke="#63b8ff" points="217.04,-105.39 207.5,-109.98 217.82,-112.35 217.04,-105.39"/>
</a>
</g>
</g>
</g>
</svg>

<g id="navigator" transform="translate(0 0)" fill="#404254">
  <rect fill="#f2f5e9" fill-opacity="0.5" stroke="#606060" stroke-width=".5" x="0" y="0" width="60" height="60"/>
  <use id="zoomplus" xlink:href="#zoomPlus" x="17" y="9" onmousedown="handleZoom(evt,'in')"/>
  <use id="zoomminus" xlink:href="#zoomMin" x="42" y="9" onmousedown="handleZoom(evt,'out')"/>
  <use id="reset" xlink:href="#resetDef" x="30" y="36" onmousedown="handleReset()"/>
   <use id="arrowup" xlink:href="#arrowUp" x="0" y="0" onmousedown="handlePan(0,-1)"/>
  <use id="arrowright" xlink:href="#arrowRight" x="0" y="0" onmousedown="handlePan(1,0)"/>
  <use id="arrowdown" xlink:href="#arrowDown" x="0" y="0" onmousedown="handlePan(0,1)"/>
  <use id="arrowleft" xlink:href="#arrowLeft" x="0" y="0" onmousedown="handlePan(-1,0)"/>
</g>
<svg viewBox="0 0 15 15" width="100%" height="30px" preserveAspectRatio="xMaxYMin meet">
 <g id="arrow_out" transform="scale(0.3 0.3)">
  <a xlink:href="PathManager_8h__dep__incl_org.svg" target="_base">
   <rect id="button" ry="5" rx="5" y="6" x="6" height="38" width="38"
        fill="#f2f5e9" fill-opacity="0.5" stroke="#606060" stroke-width="1.0"/>
   <path id="arrow"
     d="M 11.500037,31.436501 C 11.940474,20.09759 22.043105,11.32322 32.158766,21.979434 L 37.068811,17.246167 C 37.068811,17.246167 37.088388,32 37.088388,32 L 22.160133,31.978069 C 22.160133,31.978069 26.997745,27.140456 26.997745,27.140456 C 18.528582,18.264221 13.291696,25.230495 11.500037,31.436501 z"
     style="fill:#404040;"/>
  </a>
 </g>
</svg>

<style type='text/css'>
<![CDATA[
[data-mouse-over-selected='false'] { opacity: 0.7; }
[data-mouse-over-selected='true']  { opacity: 1.0; }
]]>
</style>
<script type="application/ecmascript"><![CDATA[
document.addEventListener('DOMContentLoaded', (event) => {
  highlightEdges();
  highlightAdjacentNodes();
});
]]></script>
</svg>
