<?xml version="1.0" encoding="UTF-8" standalone="no"?>
<!DOCTYPE svg PUBLIC "-//W3C//DTD SVG 1.1//EN"
 "http://www.w3.org/Graphics/SVG/1.1/DTD/svg11.dtd">
<!-- Generated by graphviz version 14.0.2 (20251019.1705)
 -->
<!-- Title: include/note_editor/NotesManager.h Pages: 1 -->
<svg width="742pt" height="152pt"
 viewBox="0.00 0.00 742.00 152.00" xmlns="http://www.w3.org/2000/svg" xmlns:xlink="http://www.w3.org/1999/xlink">
<g id="graph0" class="graph" transform="scale(1 1) rotate(0) translate(4 148)">
<title>include/note_editor/NotesManager.h</title>
<!-- Node1 -->
<g id="Node000001" class="node">
<title>Node1</title>
<g id="a_Node000001"><a xlink:title=" ">
<polygon fill="#999999" stroke="#666666" points="378.88,-144 281.12,-144 281.12,-112 378.88,-112 378.88,-144"/>
<text xml:space="preserve" text-anchor="start" x="289.12" y="-130.5" font-family="Helvetica,sans-Serif" font-size="10.00">include/note_editor</text>
<text xml:space="preserve" text-anchor="middle" x="330" y="-118.5" font-family="Helvetica,sans-Serif" font-size="10.00">/NotesManager.h</text>
</a>
</g>
</g>
<!-- Node2 -->
<g id="Node000002" class="node">
<title>Node2</title>
<g id="a_Node000002"><a xlink:title=" ">
<polygon fill="#e0e0e0" stroke="#999999" points="40,-20 0,-20 0,0 40,0 40,-20"/>
<text xml:space="preserve" text-anchor="middle" x="20" y="-6.5" font-family="Helvetica,sans-Serif" font-size="10.00">string</text>
</a>
</g>
</g>
<!-- Node1&#45;&gt;Node2 -->
<g id="edge1_Node000001_Node000002" class="edge">
<title>Node1&#45;&gt;Node2</title>
<g id="a_edge1_Node000001_Node000002"><a xlink:title=" ">
<path fill="none" stroke="#63b8ff" d="M280.94,-117.57C241.27,-109.11 184.42,-95.09 137,-76 103.17,-62.38 66.84,-41.03 43.79,-26.54"/>
<polygon fill="#63b8ff" stroke="#63b8ff" points="45.79,-23.66 35.47,-21.24 42.02,-29.56 45.79,-23.66"/>
</a>
</g>
</g>
<!-- Node3 -->
<g id="Node000003" class="node">
<title>Node3</title>
<g id="a_Node000003"><a xlink:title=" ">
<polygon fill="#e0e0e0" stroke="#999999" points="423.75,-76 358.25,-76 358.25,-56 423.75,-56 423.75,-76"/>
<text xml:space="preserve" text-anchor="middle" x="391" y="-62.5" font-family="Helvetica,sans-Serif" font-size="10.00">string_view</text>
</a>
</g>
</g>
<!-- Node1&#45;&gt;Node3 -->
<g id="edge2_Node000001_Node000003" class="edge">
<title>Node1&#45;&gt;Node3</title>
<g id="a_edge2_Node000001_Node000003"><a xlink:title=" ">
<path fill="none" stroke="#63b8ff" d="M345.71,-111.55C354.18,-103.22 364.66,-92.91 373.41,-84.3"/>
<polygon fill="#63b8ff" stroke="#63b8ff" points="375.68,-86.98 380.36,-77.47 370.77,-81.99 375.68,-86.98"/>
</a>
</g>
</g>
<!-- Node4 -->
<g id="Node000004" class="node">
<title>Node4</title>
<g id="a_Node000004"><a xlink:title=" ">
<polygon fill="#e0e0e0" stroke="#999999" points="524.38,-76 441.62,-76 441.62,-56 524.38,-56 524.38,-76"/>
<text xml:space="preserve" text-anchor="middle" x="483" y="-62.5" font-family="Helvetica,sans-Serif" font-size="10.00">unordered_map</text>
</a>
</g>
</g>
<!-- Node1&#45;&gt;Node4 -->
<g id="edge3_Node000001_Node000004" class="edge">
<title>Node1&#45;&gt;Node4</title>
<g id="a_edge3_Node000001_Node000004"><a xlink:title=" ">
<path fill="none" stroke="#63b8ff" d="M369.4,-111.55C393.86,-101.96 425,-89.75 448.48,-80.54"/>
<polygon fill="#63b8ff" stroke="#63b8ff" points="449.57,-83.87 457.6,-76.96 447.01,-77.35 449.57,-83.87"/>
</a>
</g>
</g>
<!-- Node5 -->
<g id="Node000005" class="node">
<title>Node5</title>
<g id="a_Node000005"><a xlink:title=" ">
<polygon fill="#e0e0e0" stroke="#999999" points="101.5,-20 58.5,-20 58.5,0 101.5,0 101.5,-20"/>
<text xml:space="preserve" text-anchor="middle" x="80" y="-6.5" font-family="Helvetica,sans-Serif" font-size="10.00">vector</text>
</a>
</g>
</g>
<!-- Node1&#45;&gt;Node5 -->
<g id="edge4_Node000001_Node000005" class="edge">
<title>Node1&#45;&gt;Node5</title>
<g id="a_edge4_Node000001_Node000005"><a xlink:title=" ">
<path fill="none" stroke="#63b8ff" d="M280.79,-114.85C249.34,-106.15 208.2,-92.97 174,-76 146.73,-62.47 118.38,-41.81 100.05,-27.43"/>
<polygon fill="#63b8ff" stroke="#63b8ff" points="102.37,-24.81 92.38,-21.3 98.01,-30.28 102.37,-24.81"/>
</a>
</g>
</g>
<!-- Node6 -->
<g id="Node000006" class="node">
<title>Node6</title>
<g id="a_Node000006"><a xlink:title=" ">
<polygon fill="#e0e0e0" stroke="#999999" points="591.88,-76 542.12,-76 542.12,-56 591.88,-56 591.88,-76"/>
<text xml:space="preserve" text-anchor="middle" x="567" y="-62.5" font-family="Helvetica,sans-Serif" font-size="10.00">optional</text>
</a>
</g>
</g>
<!-- Node1&#45;&gt;Node6 -->
<g id="edge5_Node000001_Node000006" class="edge">
<title>Node1&#45;&gt;Node6</title>
<g id="a_edge5_Node000001_Node000006"><a xlink:title=" ">
<path fill="none" stroke="#63b8ff" d="M379.27,-114.81C417.91,-105.2 473.36,-91.33 530.66,-76.58"/>
<polygon fill="#63b8ff" stroke="#63b8ff" points="531.48,-79.98 540.29,-74.1 529.74,-73.21 531.48,-79.98"/>
</a>
</g>
</g>
<!-- Node7 -->
<g id="Node000007" class="node">
<title>Node7</title>
<g id="a_Node000007"><a xlink:title=" ">
<polygon fill="#e0e0e0" stroke="#999999" points="670.5,-76 609.5,-76 609.5,-56 670.5,-56 670.5,-76"/>
<text xml:space="preserve" text-anchor="middle" x="640" y="-62.5" font-family="Helvetica,sans-Serif" font-size="10.00">filesystem</text>
</a>
</g>
</g>
<!-- Node1&#45;&gt;Node7 -->
<g id="edge6_Node000001_Node000007" class="edge">
<title>Node1&#45;&gt;Node7</title>
<g id="a_edge6_Node000001_Node000007"><a xlink:title=" ">
<path fill="none" stroke="#63b8ff" d="M379.08,-118.39C431.12,-109.11 516,-93.6 598.3,-76.5"/>
<polygon fill="#63b8ff" stroke="#63b8ff" points="598.81,-79.97 607.89,-74.5 597.38,-73.12 598.81,-79.97"/>
</a>
</g>
</g>
<!-- Node8 -->
<g id="Node000008" class="node">
<title>Node8</title>
<g id="a_Node000008"><a xlink:title=" ">
<polygon fill="#e0e0e0" stroke="#999999" points="164.62,-20 119.38,-20 119.38,0 164.62,0 164.62,-20"/>
<text xml:space="preserve" text-anchor="middle" x="142" y="-6.5" font-family="Helvetica,sans-Serif" font-size="10.00">chrono</text>
</a>
</g>
</g>
<!-- Node1&#45;&gt;Node8 -->
<g id="edge7_Node000001_Node000008" class="edge">
<title>Node1&#45;&gt;Node8</title>
<g id="a_edge7_Node000001_Node000008"><a xlink:title=" ">
<path fill="none" stroke="#63b8ff" d="M280.89,-114.05C255.04,-105.77 223.69,-93.29 199,-76 181,-63.39 164.94,-43.93 154.49,-29.59"/>
<polygon fill="#63b8ff" stroke="#63b8ff" points="157.4,-27.65 148.79,-21.46 151.67,-31.66 157.4,-27.65"/>
</a>
</g>
</g>
<!-- Node9 -->
<g id="Node000009" class="node">
<title>Node9</title>
<g id="a_Node000009"><a xlink:title=" ">
<polygon fill="#e0e0e0" stroke="#999999" points="733.62,-76 688.38,-76 688.38,-56 733.62,-56 733.62,-76"/>
<text xml:space="preserve" text-anchor="middle" x="711" y="-62.5" font-family="Helvetica,sans-Serif" font-size="10.00">cstdint</text>
</a>
</g>
</g>
<!-- Node1&#45;&gt;Node9 -->
<g id="edge8_Node000001_Node000009" class="edge">
<title>Node1&#45;&gt;Node9</title>
<g id="a_edge8_Node000001_Node000009"><a xlink:title=" ">
<path fill="none" stroke="#63b8ff" d="M379.36,-121.98C445.29,-114.8 565.84,-100 677,-76.42"/>
<polygon fill="#63b8ff" stroke="#63b8ff" points="677.55,-79.89 686.59,-74.36 676.07,-73.04 677.55,-79.89"/>
</a>
</g>
</g>
<!-- Node10 -->
<g id="Node000010" class="node">
<title>Node10</title>
<g id="a_Node000010"><a xlink:title=" ">
<polygon fill="#e0e0e0" stroke="#999999" points="225.5,-20 182.5,-20 182.5,0 225.5,0 225.5,-20"/>
<text xml:space="preserve" text-anchor="middle" x="204" y="-6.5" font-family="Helvetica,sans-Serif" font-size="10.00">mutex</text>
</a>
</g>
</g>
<!-- Node1&#45;&gt;Node10 -->
<g id="edge9_Node000001_Node000010" class="edge">
<title>Node1&#45;&gt;Node10</title>
<g id="a_edge9_Node000001_Node000010"><a xlink:title=" ">
<path fill="none" stroke="#63b8ff" d="M280.63,-118.1C255.78,-110.98 227.5,-98.32 211,-76 201.7,-63.42 200.39,-45.55 201.15,-31.73"/>
<polygon fill="#63b8ff" stroke="#63b8ff" points="204.62,-32.24 202.12,-21.95 197.65,-31.55 204.62,-32.24"/>
</a>
</g>
</g>
<!-- Node11 -->
<g id="Node000011" class="node">
<title>Node11</title>
<g id="a_Node000011"><a xlink:title=" ">
<polygon fill="#e0e0e0" stroke="#999999" points="557.62,-20 506.38,-20 506.38,0 557.62,0 557.62,-20"/>
<text xml:space="preserve" text-anchor="middle" x="532" y="-6.5" font-family="Helvetica,sans-Serif" font-size="10.00">memory</text>
</a>
</g>
</g>
<!-- Node1&#45;&gt;Node11 -->
<g id="edge10_Node000001_Node000011" class="edge">
<title>Node1&#45;&gt;Node11</title>
<g id="a_edge10_Node000001_Node000011"><a xlink:title=" ">
<path fill="none" stroke="#63b8ff" d="M329.8,-111.75C330.45,-95.65 334.03,-70.63 349,-56 394.95,-11.09 427.85,-33.81 494.95,-20.23"/>
<polygon fill="#63b8ff" stroke="#63b8ff" points="495.56,-23.68 504.54,-18.06 494.01,-16.85 495.56,-23.68"/>
</a>
</g>
</g>
<!-- Node12 -->
<g id="Node000012" class="node">
<title>Node12</title>
<g id="a_Node000012"><a xlink:href="../../db/dd0/_im_gui_toaster_8h.html" target="_top" xlink:title=" ">
<polygon fill="white" stroke="#666666" points="302.38,-76 219.62,-76 219.62,-56 302.38,-56 302.38,-76"/>
<text xml:space="preserve" text-anchor="middle" x="261" y="-62.5" font-family="Helvetica,sans-Serif" font-size="10.00">ImGuiToaster.h</text>
</a>
</g>
</g>
<!-- Node1&#45;&gt;Node12 -->
<g id="edge11_Node000001_Node000012" class="edge">
<title>Node1&#45;&gt;Node12</title>
<g id="a_edge11_Node000001_Node000012"><a xlink:title=" ">
<path fill="none" stroke="#63b8ff" d="M312.23,-111.55C302.45,-103.04 290.3,-92.48 280.28,-83.77"/>
<polygon fill="#63b8ff" stroke="#63b8ff" points="282.8,-81.32 272.96,-77.4 278.21,-86.6 282.8,-81.32"/>
</a>
</g>
</g>
<!-- Node12&#45;&gt;Node2 -->
<g id="edge15_Node000012_Node000002" class="edge">
<title>Node12&#45;&gt;Node2</title>
<g id="a_edge15_Node000012_Node000002"><a xlink:title=" ">
<path fill="none" stroke="#63b8ff" d="M219.3,-57.32C178.7,-49.59 115.06,-36.78 51.28,-20.41"/>
<polygon fill="#63b8ff" stroke="#63b8ff" points="52.24,-17.04 41.68,-17.91 50.48,-23.82 52.24,-17.04"/>
</a>
</g>
</g>
<!-- Node12&#45;&gt;Node5 -->
<g id="edge16_Node000012_Node000005" class="edge">
<title>Node12&#45;&gt;Node5</title>
<g id="a_edge16_Node000012_Node000005"><a xlink:title=" ">
<path fill="none" stroke="#63b8ff" d="M229.18,-55.54C200.89,-47.12 158.1,-34.37 112.87,-20.86"/>
<polygon fill="#63b8ff" stroke="#63b8ff" points="113.99,-17.54 103.4,-18.02 111.98,-24.24 113.99,-17.54"/>
</a>
</g>
</g>
<!-- Node12&#45;&gt;Node8 -->
<g id="edge17_Node000012_Node000008" class="edge">
<title>Node12&#45;&gt;Node8</title>
<g id="a_edge17_Node000012_Node000008"><a xlink:title=" ">
<path fill="none" stroke="#63b8ff" d="M240.27,-55.59C221.79,-47.21 194.46,-34.8 173.31,-25.21"/>
<polygon fill="#63b8ff" stroke="#63b8ff" points="174.82,-22.05 164.27,-21.1 171.93,-28.42 174.82,-22.05"/>
</a>
</g>
</g>
<!-- Node12&#45;&gt;Node10 -->
<g id="edge14_Node000012_Node000010" class="edge">
<title>Node12&#45;&gt;Node10</title>
<g id="a_edge14_Node000012_Node000010"><a xlink:title=" ">
<path fill="none" stroke="#63b8ff" d="M251.07,-55.59C243.06,-48.01 231.58,-37.13 221.97,-28.02"/>
<polygon fill="#63b8ff" stroke="#63b8ff" points="224.58,-25.68 214.91,-21.34 219.77,-30.76 224.58,-25.68"/>
</a>
</g>
</g>
<!-- Node12&#45;&gt;Node11 -->
<g id="edge19_Node000012_Node000011" class="edge">
<title>Node12&#45;&gt;Node11</title>
<g id="a_edge19_Node000012_Node000011"><a xlink:title=" ">
<path fill="none" stroke="#63b8ff" d="M302.52,-57.9C347.57,-50.02 421.85,-36.5 495.23,-20.28"/>
<polygon fill="#63b8ff" stroke="#63b8ff" points="495.58,-23.79 504.57,-18.2 494.05,-16.96 495.58,-23.79"/>
</a>
</g>
</g>
<!-- Node13 -->
<g id="Node000013" class="node">
<title>Node13</title>
<g id="a_Node000013"><a xlink:title=" ">
<polygon fill="#e0e0e0" stroke="#999999" points="353.75,-20 306.25,-20 306.25,0 353.75,0 353.75,-20"/>
<text xml:space="preserve" text-anchor="middle" x="330" y="-6.5" font-family="Helvetica,sans-Serif" font-size="10.00">imgui.h</text>
</a>
</g>
</g>
<!-- Node12&#45;&gt;Node13 -->
<g id="edge12_Node000012_Node000013" class="edge">
<title>Node12&#45;&gt;Node13</title>
<g id="a_edge12_Node000012_Node000013"><a xlink:title=" ">
<path fill="none" stroke="#63b8ff" d="M273.02,-55.59C283.01,-47.77 297.46,-36.46 309.31,-27.19"/>
<polygon fill="#63b8ff" stroke="#63b8ff" points="311.21,-30.15 316.93,-21.23 306.89,-24.64 311.21,-30.15"/>
</a>
</g>
</g>
<!-- Node14 -->
<g id="Node000014" class="node">
<title>Node14</title>
<g id="a_Node000014"><a xlink:title=" ">
<polygon fill="#e0e0e0" stroke="#999999" points="414.12,-20 371.88,-20 371.88,0 414.12,0 414.12,-20"/>
<text xml:space="preserve" text-anchor="middle" x="393" y="-6.5" font-family="Helvetica,sans-Serif" font-size="10.00">deque</text>
</a>
</g>
</g>
<!-- Node12&#45;&gt;Node14 -->
<g id="edge13_Node000012_Node000014" class="edge">
<title>Node12&#45;&gt;Node14</title>
<g id="a_edge13_Node000012_Node000014"><a xlink:title=" ">
<path fill="none" stroke="#63b8ff" d="M283.99,-55.59C305.29,-46.88 337.17,-33.84 360.96,-24.11"/>
<polygon fill="#63b8ff" stroke="#63b8ff" points="362.25,-27.36 370.18,-20.34 359.6,-20.88 362.25,-27.36"/>
</a>
</g>
</g>
<!-- Node15 -->
<g id="Node000015" class="node">
<title>Node15</title>
<g id="a_Node000015"><a xlink:title=" ">
<polygon fill="#e0e0e0" stroke="#999999" points="487.88,-20 432.12,-20 432.12,0 487.88,0 487.88,-20"/>
<text xml:space="preserve" text-anchor="middle" x="460" y="-6.5" font-family="Helvetica,sans-Serif" font-size="10.00">algorithm</text>
</a>
</g>
</g>
<!-- Node12&#45;&gt;Node15 -->
<g id="edge18_Node000012_Node000015" class="edge">
<title>Node12&#45;&gt;Node15</title>
<g id="a_edge18_Node000012_Node000015"><a xlink:title=" ">
<path fill="none" stroke="#63b8ff" d="M295.66,-55.59C330.68,-46.09 384.68,-31.44 421.13,-21.55"/>
<polygon fill="#63b8ff" stroke="#63b8ff" points="421.64,-25.04 430.38,-19.04 419.81,-18.28 421.64,-25.04"/>
</a>
</g>
</g>
<!-- Node16 -->
<g id="Node000016" class="node">
<title>Node16</title>
<g id="a_Node000016"><a xlink:title=" ">
<polygon fill="#e0e0e0" stroke="#999999" points="288.62,-20 243.38,-20 243.38,0 288.62,0 288.62,-20"/>
<text xml:space="preserve" text-anchor="middle" x="266" y="-6.5" font-family="Helvetica,sans-Serif" font-size="10.00">atomic</text>
</a>
</g>
</g>
<!-- Node12&#45;&gt;Node16 -->
<g id="edge20_Node000012_Node000016" class="edge">
<title>Node12&#45;&gt;Node16</title>
<g id="a_edge20_Node000012_Node000016"><a xlink:title=" ">
<path fill="none" stroke="#63b8ff" d="M261.87,-55.59C262.48,-49.01 263.32,-39.96 264.08,-31.73"/>
<polygon fill="#63b8ff" stroke="#63b8ff" points="267.56,-32.09 265,-21.81 260.59,-31.44 267.56,-32.09"/>
</a>
</g>
</g>
</g>
</svg>
