<?xml version="1.0" encoding="UTF-8" standalone="no"?>
<!DOCTYPE svg PUBLIC "-//W3C//DTD SVG 1.1//EN"
 "http://www.w3.org/Graphics/SVG/1.1/DTD/svg11.dtd">
<!-- Generated by graphviz version 14.0.2 (20251019.1705)
 -->
<!-- Title: MessageQueue&lt; T &gt; Pages: 1 -->
<!--zoomable 300 -->

<svg id="main" version="1.1" xmlns="http://www.w3.org/2000/svg" xmlns:xlink="http://www.w3.org/1999/xlink" xml:space="preserve" onload="init(evt)">
<style type="text/css"><![CDATA[
.node, .edge {opacity: 0.7;}
.node.selected, .edge.selected {opacity: 1;}
.edge:hover path { stroke: red; }
.edge:hover polygon { stroke: red; fill: red; }
]]></style>

<defs>
  <circle id="rim" cx="0" cy="0" r="7"/>
  <circle id="rim2" cx="0" cy="0" r="3.5"/>
  <g id="zoomPlus">
    <use xlink:href="#rim" fill="#404040"><set attributeName="fill" to="#808080" begin="zoomplus.mouseover" end="zoomplus.mouseout"/></use>
    <path d="M-4,0h8M0,-4v8" fill="none" stroke="white" stroke-width="1.5" pointer-events="none"/>
  </g>
  <g id="zoomMin">
    <use xlink:href="#rim" fill="#404040"><set attributeName="fill" to="#808080" begin="zoomminus.mouseover" end="zoomminus.mouseout"/></use>
    <path d="M-4,0h8" fill="none" stroke="white" stroke-width="1.5" pointer-events="none"/>
  </g>
  <g id="arrowUp" transform="translate(30 24)">
    <use xlink:href="#rim"/>
    <path pointer-events="none" fill="none" stroke="white" stroke-width="1.5" d="M0,-3.0v7 M-2.5,-0.5L0,-3.0L2.5,-0.5"/>
  </g>
  <g id="arrowRight" transform="rotate(90) translate(36 -43)">
    <use xlink:href="#rim"/>
    <path pointer-events="none" fill="none" stroke="white" stroke-width="1.5" d="M0,-3.0v7 M-2.5,-0.5L0,-3.0L2.5,-0.5"/>
  </g>
  <g id="arrowDown" transform="rotate(180) translate(-30 -48)">
    <use xlink:href="#rim"/>
    <path pointer-events="none" fill="none" stroke="white" stroke-width="1.5" d="M0,-3.0v7 M-2.5,-0.5L0,-3.0L2.5,-0.5"/>
  </g>
  <g id="arrowLeft" transform="rotate(270) translate(-36 17)">
    <use xlink:href="#rim"/>
    <path pointer-events="none" fill="none" stroke="white" stroke-width="1.5" d="M0,-3.0v7 M-2.5,-0.5L0,-3.0L2.5,-0.5"/>
  </g>
  <g id="resetDef">
    <use xlink:href="#rim2" fill="#404040"><set attributeName="fill" to="#808080" begin="reset.mouseover" end="reset.mouseout"/></use>
  </g>
</defs>
<script type="application/ecmascript">
var viewWidth = 620;
var viewHeight = 300;
var sectionId = 'dynsection-0';
</script>
<script type="application/ecmascript" xlink:href="../../svg.min.js"/>
<svg id="graph" class="graph">
<g id="viewport">
<title>MessageQueue&lt; T &gt;</title>
<!-- Node1 -->
<g id="Node000001" class="node">
<title>Node1</title>
<g id="a_Node000001"><a xlink:title=" ">
<polygon fill="#999999" stroke="none" points="376.5,-292 213.75,-292 213.75,-176 376.5,-176 376.5,-292"/>
<text xml:space="preserve" text-anchor="start" x="249.38" y="-278.5" font-family="Helvetica,sans-Serif" font-size="10.00">MessageQueue&lt; T &gt;</text>
<text xml:space="preserve" text-anchor="start" x="219.25" y="-262.5" font-family="Helvetica,sans-Serif" font-size="10.00">&#45;</text>
<text xml:space="preserve" text-anchor="start" x="227.75" y="-262.5" font-family="Helvetica,sans-Serif" font-size="10.00">std::queue&lt; T &gt; queue_</text>
<text xml:space="preserve" text-anchor="start" x="219.25" y="-246.5" font-family="Helvetica,sans-Serif" font-size="10.00">&#45;</text>
<text xml:space="preserve" text-anchor="start" x="227.75" y="-246.5" font-family="Helvetica,sans-Serif" font-size="10.00">std::mutex mutex_</text>
<text xml:space="preserve" text-anchor="start" x="219.25" y="-230.5" font-family="Helvetica,sans-Serif" font-size="10.00">&#45;</text>
<text xml:space="preserve" text-anchor="start" x="227.75" y="-230.5" font-family="Helvetica,sans-Serif" font-size="10.00">std::condition_variable condition_</text>
<text xml:space="preserve" text-anchor="start" x="217.75" y="-214.5" font-family="Helvetica,sans-Serif" font-size="10.00">+</text>
<text xml:space="preserve" text-anchor="start" x="227.75" y="-214.5" font-family="Helvetica,sans-Serif" font-size="10.00">void push(T value)</text>
<text xml:space="preserve" text-anchor="start" x="217.75" y="-198.5" font-family="Helvetica,sans-Serif" font-size="10.00">+</text>
<text xml:space="preserve" text-anchor="start" x="227.75" y="-198.5" font-family="Helvetica,sans-Serif" font-size="10.00">T pop()</text>
<text xml:space="preserve" text-anchor="start" x="217.75" y="-182.5" font-family="Helvetica,sans-Serif" font-size="10.00">+</text>
<text xml:space="preserve" text-anchor="start" x="227.75" y="-182.5" font-family="Helvetica,sans-Serif" font-size="10.00">bool try_pop(T &amp;value)</text>
<polygon fill="#666666" stroke="#666666" points="213.75,-274 213.75,-274 376.5,-274 376.5,-274 213.75,-274"/>
<polygon fill="#666666" stroke="#666666" points="213.75,-226 213.75,-226 225.75,-226 225.75,-226 213.75,-226"/>
<polygon fill="#666666" stroke="#666666" points="225.75,-226 225.75,-226 376.5,-226 376.5,-226 225.75,-226"/>
<polygon fill="none" stroke="#666666" points="213.75,-176 213.75,-292 376.5,-292 376.5,-176 213.75,-176"/>
</a>
</g>
</g>
<!-- Node2 -->
<g id="Node000002" class="node">
<title>Node2</title>
<g id="a_Node000002"><a xlink:href="../../d2/d0a/class_message_queue.html" target="_top" xlink:title=" ">
<polygon fill="white" stroke="none" points="182.25,-122 0,-122 0,-6 182.25,-6 182.25,-122"/>
<text xml:space="preserve" text-anchor="start" x="15" y="-108.5" font-family="Helvetica,sans-Serif" font-size="10.00">MessageQueue&lt; msg::NetEvent &gt;</text>
<text xml:space="preserve" text-anchor="start" x="5.5" y="-92.5" font-family="Helvetica,sans-Serif" font-size="10.00">&#45;</text>
<text xml:space="preserve" text-anchor="start" x="14" y="-92.5" font-family="Helvetica,sans-Serif" font-size="10.00">std::queue&lt; msg::NetEvent &gt; queue_</text>
<text xml:space="preserve" text-anchor="start" x="5.5" y="-76.5" font-family="Helvetica,sans-Serif" font-size="10.00">&#45;</text>
<text xml:space="preserve" text-anchor="start" x="14" y="-76.5" font-family="Helvetica,sans-Serif" font-size="10.00">std::mutex mutex_</text>
<text xml:space="preserve" text-anchor="start" x="5.5" y="-60.5" font-family="Helvetica,sans-Serif" font-size="10.00">&#45;</text>
<text xml:space="preserve" text-anchor="start" x="14" y="-60.5" font-family="Helvetica,sans-Serif" font-size="10.00">std::condition_variable condition_</text>
<text xml:space="preserve" text-anchor="start" x="4" y="-44.5" font-family="Helvetica,sans-Serif" font-size="10.00">+</text>
<text xml:space="preserve" text-anchor="start" x="14" y="-44.5" font-family="Helvetica,sans-Serif" font-size="10.00">void push(msg::NetEvent value)</text>
<text xml:space="preserve" text-anchor="start" x="4" y="-28.5" font-family="Helvetica,sans-Serif" font-size="10.00">+</text>
<text xml:space="preserve" text-anchor="start" x="14" y="-28.5" font-family="Helvetica,sans-Serif" font-size="10.00">msg::NetEvent pop()</text>
<text xml:space="preserve" text-anchor="start" x="4" y="-12.5" font-family="Helvetica,sans-Serif" font-size="10.00">+</text>
<text xml:space="preserve" text-anchor="start" x="14" y="-12.5" font-family="Helvetica,sans-Serif" font-size="10.00">bool try_pop(msg::NetEvent &amp;value)</text>
<polygon fill="#666666" stroke="#666666" points="0,-104 0,-104 182.25,-104 182.25,-104 0,-104"/>
<polygon fill="#666666" stroke="#666666" points="0,-56 0,-56 12,-56 12,-56 0,-56"/>
<polygon fill="#666666" stroke="#666666" points="12,-56 12,-56 182.25,-56 182.25,-56 12,-56"/>
<polygon fill="none" stroke="#666666" points="0,-6 0,-122 182.25,-122 182.25,-6 0,-6"/>
</a>
</g>
</g>
<!-- Node1&#45;&gt;Node2 -->
<g id="edge1_Node000001_Node000002" class="edge">
<title>Node1&#45;&gt;Node2</title>
<g id="a_edge1_Node000001_Node000002"><a xlink:title=" ">
<path fill="none" stroke="orange" d="M217.23,-168.85C198.43,-153.37 178.48,-136.94 160.12,-121.82"/>
<polygon fill="orange" stroke="orange" points="214.95,-171.51 224.89,-175.16 219.4,-166.1 214.95,-171.51"/>
</a>
</g>
<text xml:space="preserve" text-anchor="middle" x="242.74" y="-148.5" font-family="Helvetica,sans-Serif" font-size="10.00" fill="grey"> &lt; msg::NetEvent &gt;</text>
</g>
<!-- Node3 -->
<g id="Node000003" class="node">
<title>Node3</title>
<g id="a_Node000003"><a xlink:href="../../d2/d0a/class_message_queue.html" target="_top" xlink:title=" ">
<polygon fill="white" stroke="none" points="390,-128 200.25,-128 200.25,0 390,0 390,-128"/>
<text xml:space="preserve" text-anchor="start" x="212.25" y="-114.5" font-family="Helvetica,sans-Serif" font-size="10.00">MessageQueue&lt; msg::InboundRaw &gt;</text>
<text xml:space="preserve" text-anchor="start" x="205.75" y="-98.5" font-family="Helvetica,sans-Serif" font-size="10.00">&#45;</text>
<text xml:space="preserve" text-anchor="start" x="214.25" y="-98.5" font-family="Helvetica,sans-Serif" font-size="10.00">std::queue&lt; msg::InboundRaw</text>
<text xml:space="preserve" text-anchor="start" x="214.25" y="-86.5" font-family="Helvetica,sans-Serif" font-size="10.00"> &gt; queue_</text>
<text xml:space="preserve" text-anchor="start" x="205.75" y="-70.5" font-family="Helvetica,sans-Serif" font-size="10.00">&#45;</text>
<text xml:space="preserve" text-anchor="start" x="214.25" y="-70.5" font-family="Helvetica,sans-Serif" font-size="10.00">std::mutex mutex_</text>
<text xml:space="preserve" text-anchor="start" x="205.75" y="-54.5" font-family="Helvetica,sans-Serif" font-size="10.00">&#45;</text>
<text xml:space="preserve" text-anchor="start" x="214.25" y="-54.5" font-family="Helvetica,sans-Serif" font-size="10.00">std::condition_variable condition_</text>
<text xml:space="preserve" text-anchor="start" x="204.25" y="-38.5" font-family="Helvetica,sans-Serif" font-size="10.00">+</text>
<text xml:space="preserve" text-anchor="start" x="214.25" y="-38.5" font-family="Helvetica,sans-Serif" font-size="10.00">void push(msg::InboundRaw value)</text>
<text xml:space="preserve" text-anchor="start" x="204.25" y="-22.5" font-family="Helvetica,sans-Serif" font-size="10.00">+</text>
<text xml:space="preserve" text-anchor="start" x="214.25" y="-22.5" font-family="Helvetica,sans-Serif" font-size="10.00">msg::InboundRaw pop()</text>
<text xml:space="preserve" text-anchor="start" x="204.25" y="-6.5" font-family="Helvetica,sans-Serif" font-size="10.00">+</text>
<text xml:space="preserve" text-anchor="start" x="214.25" y="-6.5" font-family="Helvetica,sans-Serif" font-size="10.00">bool try_pop(msg::InboundRaw &amp;value)</text>
<polygon fill="#666666" stroke="#666666" points="200.25,-110 200.25,-110 390,-110 390,-110 200.25,-110"/>
<polygon fill="#666666" stroke="#666666" points="200.25,-50 200.25,-50 212.25,-50 212.25,-50 200.25,-50"/>
<polygon fill="#666666" stroke="#666666" points="212.25,-50 212.25,-50 390,-50 390,-50 212.25,-50"/>
<polygon fill="none" stroke="#666666" points="200.25,0 200.25,-128 390,-128 390,0 200.25,0"/>
</a>
</g>
</g>
<!-- Node1&#45;&gt;Node3 -->
<g id="edge2_Node000001_Node000003" class="edge">
<title>Node1&#45;&gt;Node3</title>
<g id="a_edge2_Node000001_Node000003"><a xlink:title=" ">
<path fill="none" stroke="orange" d="M295.12,-164.64C295.12,-152.48 295.12,-139.87 295.12,-127.88"/>
<polygon fill="orange" stroke="orange" points="291.63,-164.61 295.13,-174.61 298.63,-164.61 291.63,-164.61"/>
</a>
</g>
<text xml:space="preserve" text-anchor="middle" x="345.38" y="-148.5" font-family="Helvetica,sans-Serif" font-size="10.00" fill="grey"> &lt; msg::InboundRaw &gt;</text>
</g>
<!-- Node4 -->
<g id="Node000004" class="node">
<title>Node4</title>
<g id="a_Node000004"><a xlink:href="../../d2/d0a/class_message_queue.html" target="_top" xlink:title=" ">
<polygon fill="white" stroke="none" points="611.75,-128 408.5,-128 408.5,0 611.75,0 611.75,-128"/>
<text xml:space="preserve" text-anchor="start" x="420.5" y="-114.5" font-family="Helvetica,sans-Serif" font-size="10.00">MessageQueue&lt; msg::ReadyMessage &gt;</text>
<text xml:space="preserve" text-anchor="start" x="414" y="-98.5" font-family="Helvetica,sans-Serif" font-size="10.00">&#45;</text>
<text xml:space="preserve" text-anchor="start" x="422.5" y="-98.5" font-family="Helvetica,sans-Serif" font-size="10.00">std::queue&lt; msg::ReadyMessage</text>
<text xml:space="preserve" text-anchor="start" x="422.5" y="-86.5" font-family="Helvetica,sans-Serif" font-size="10.00"> &gt; queue_</text>
<text xml:space="preserve" text-anchor="start" x="414" y="-70.5" font-family="Helvetica,sans-Serif" font-size="10.00">&#45;</text>
<text xml:space="preserve" text-anchor="start" x="422.5" y="-70.5" font-family="Helvetica,sans-Serif" font-size="10.00">std::mutex mutex_</text>
<text xml:space="preserve" text-anchor="start" x="414" y="-54.5" font-family="Helvetica,sans-Serif" font-size="10.00">&#45;</text>
<text xml:space="preserve" text-anchor="start" x="422.5" y="-54.5" font-family="Helvetica,sans-Serif" font-size="10.00">std::condition_variable condition_</text>
<text xml:space="preserve" text-anchor="start" x="412.5" y="-38.5" font-family="Helvetica,sans-Serif" font-size="10.00">+</text>
<text xml:space="preserve" text-anchor="start" x="422.5" y="-38.5" font-family="Helvetica,sans-Serif" font-size="10.00">void push(msg::ReadyMessage value)</text>
<text xml:space="preserve" text-anchor="start" x="412.5" y="-22.5" font-family="Helvetica,sans-Serif" font-size="10.00">+</text>
<text xml:space="preserve" text-anchor="start" x="422.5" y="-22.5" font-family="Helvetica,sans-Serif" font-size="10.00">msg::ReadyMessage pop()</text>
<text xml:space="preserve" text-anchor="start" x="412.5" y="-6.5" font-family="Helvetica,sans-Serif" font-size="10.00">+</text>
<text xml:space="preserve" text-anchor="start" x="422.5" y="-6.5" font-family="Helvetica,sans-Serif" font-size="10.00">bool try_pop(msg::ReadyMessage &amp;value)</text>
<polygon fill="#666666" stroke="#666666" points="408.5,-110 408.5,-110 611.75,-110 611.75,-110 408.5,-110"/>
<polygon fill="#666666" stroke="#666666" points="408.5,-50 408.5,-50 420.5,-50 420.5,-50 408.5,-50"/>
<polygon fill="#666666" stroke="#666666" points="420.5,-50 420.5,-50 611.75,-50 611.75,-50 420.5,-50"/>
<polygon fill="none" stroke="#666666" points="408.5,0 408.5,-128 611.75,-128 611.75,0 408.5,0"/>
</a>
</g>
</g>
<!-- Node1&#45;&gt;Node4 -->
<g id="edge3_Node000001_Node000004" class="edge">
<title>Node1&#45;&gt;Node4</title>
<g id="a_edge3_Node000001_Node000004"><a xlink:title=" ">
<path fill="none" stroke="orange" d="M385.3,-169.32C390.35,-165.53 395.32,-161.74 400.12,-158 412.36,-148.48 425.13,-138.12 437.44,-127.88"/>
<polygon fill="orange" stroke="orange" points="383.3,-166.44 377.37,-175.22 387.48,-172.06 383.3,-166.44"/>
</a>
</g>
<text xml:space="preserve" text-anchor="middle" x="469.39" y="-148.5" font-family="Helvetica,sans-Serif" font-size="10.00" fill="grey"> &lt; msg::ReadyMessage &gt;</text>
</g>
</g>
</svg>

<g id="navigator" transform="translate(0 0)" fill="#404254">
  <rect fill="#f2f5e9" fill-opacity="0.5" stroke="#606060" stroke-width=".5" x="0" y="0" width="60" height="60"/>
  <use id="zoomplus" xlink:href="#zoomPlus" x="17" y="9" onmousedown="handleZoom(evt,'in')"/>
  <use id="zoomminus" xlink:href="#zoomMin" x="42" y="9" onmousedown="handleZoom(evt,'out')"/>
  <use id="reset" xlink:href="#resetDef" x="30" y="36" onmousedown="handleReset()"/>
   <use id="arrowup" xlink:href="#arrowUp" x="0" y="0" onmousedown="handlePan(0,-1)"/>
  <use id="arrowright" xlink:href="#arrowRight" x="0" y="0" onmousedown="handlePan(1,0)"/>
  <use id="arrowdown" xlink:href="#arrowDown" x="0" y="0" onmousedown="handlePan(0,1)"/>
  <use id="arrowleft" xlink:href="#arrowLeft" x="0" y="0" onmousedown="handlePan(-1,0)"/>
</g>
<svg viewBox="0 0 15 15" width="100%" height="30px" preserveAspectRatio="xMaxYMin meet">
 <g id="arrow_out" transform="scale(0.3 0.3)">
  <a xlink:href="class_message_queue__inherit__graph_org.svg" target="_base">
   <rect id="button" ry="5" rx="5" y="6" x="6" height="38" width="38"
        fill="#f2f5e9" fill-opacity="0.5" stroke="#606060" stroke-width="1.0"/>
   <path id="arrow"
     d="M 11.500037,31.436501 C 11.940474,20.09759 22.043105,11.32322 32.158766,21.979434 L 37.068811,17.246167 C 37.068811,17.246167 37.088388,32 37.088388,32 L 22.160133,31.978069 C 22.160133,31.978069 26.997745,27.140456 26.997745,27.140456 C 18.528582,18.264221 13.291696,25.230495 11.500037,31.436501 z"
     style="fill:#404040;"/>
  </a>
 </g>
</svg>

<style type='text/css'>
<![CDATA[
[data-mouse-over-selected='false'] { opacity: 0.7; }
[data-mouse-over-selected='true']  { opacity: 1.0; }
]]>
</style>
<script type="application/ecmascript"><![CDATA[
document.addEventListener('DOMContentLoaded', (event) => {
  highlightEdges();
  highlightAdjacentNodes();
});
]]></script>
</svg>
