<?xml version="1.0" encoding="UTF-8" standalone="no"?>
<!DOCTYPE svg PUBLIC "-//W3C//DTD SVG 1.1//EN"
 "http://www.w3.org/Graphics/SVG/1.1/DTD/svg11.dtd">
<!-- Generated by graphviz version 14.0.2 (20251019.1705)
 -->
<!-- Title: include/renderer/Shader.h Pages: 1 -->
<svg width="1145pt" height="432pt"
 viewBox="0.00 0.00 1145.00 432.00" xmlns="http://www.w3.org/2000/svg" xmlns:xlink="http://www.w3.org/1999/xlink">
<g id="graph0" class="graph" transform="scale(1 1) rotate(0) translate(4 428)">
<title>include/renderer/Shader.h</title>
<!-- Node1 -->
<g id="Node000001" class="node">
<title>Node1</title>
<g id="a_Node000001"><a xlink:title=" ">
<polygon fill="#999999" stroke="#666666" points="638.51,-424 511.51,-424 511.51,-404 638.51,-404 638.51,-424"/>
<text xml:space="preserve" text-anchor="middle" x="575.01" y="-410.5" font-family="Helvetica,sans-Serif" font-size="10.00">include/renderer/Shader.h</text>
</a>
</g>
</g>
<!-- Node2 -->
<g id="Node000002" class="node">
<title>Node2</title>
<g id="a_Node000002"><a xlink:href="../../d0/da4/_application_handler_8h.html" target="_top" xlink:title=" ">
<polygon fill="white" stroke="#666666" points="497.89,-76 358.14,-76 358.14,-56 497.89,-56 497.89,-76"/>
<text xml:space="preserve" text-anchor="middle" x="428.01" y="-62.5" font-family="Helvetica,sans-Serif" font-size="10.00">include/ApplicationHandler.h</text>
</a>
</g>
</g>
<!-- Node1&#45;&gt;Node2 -->
<g id="edge1_Node000001_Node000002" class="edge">
<title>Node1&#45;&gt;Node2</title>
<g id="a_edge1_Node000001_Node000002"><a xlink:title=" ">
<path fill="none" stroke="#63b8ff" d="M499.79,-413.33C344.11,-411.99 1.01,-397.61 1.01,-297 1.01,-297 1.01,-297 1.01,-177 1.01,-146.9 -3.04,-131.35 20.01,-112 45.33,-90.76 248.18,-76.67 357.99,-70.53"/>
<polygon fill="#63b8ff" stroke="#63b8ff" points="499.58,-416.83 509.6,-413.4 499.63,-409.83 499.58,-416.83"/>
</a>
</g>
</g>
<!-- Node5 -->
<g id="Node000005" class="node">
<title>Node5</title>
<g id="a_Node000005"><a xlink:href="../../df/d3c/_board_manager_8h.html" target="_top" xlink:title=" ">
<polygon fill="white" stroke="#666666" points="922.51,-188 801.51,-188 801.51,-168 922.51,-168 922.51,-188"/>
<text xml:space="preserve" text-anchor="middle" x="862.01" y="-174.5" font-family="Helvetica,sans-Serif" font-size="10.00">include/BoardManager.h</text>
</a>
</g>
</g>
<!-- Node1&#45;&gt;Node5 -->
<g id="edge4_Node000001_Node000005" class="edge">
<title>Node1&#45;&gt;Node5</title>
<g id="a_edge4_Node000001_Node000005"><a xlink:title=" ">
<path fill="none" stroke="#63b8ff" d="M649.95,-410.62C785.88,-404.55 1064.57,-383.48 1124.01,-312 1184.84,-238.85 1017.99,-201.7 922.91,-186.91"/>
<polygon fill="#63b8ff" stroke="#63b8ff" points="650.18,-407.1 640.34,-411.03 650.48,-414.1 650.18,-407.1"/>
</a>
</g>
</g>
<!-- Node9 -->
<g id="Node000009" class="node">
<title>Node9</title>
<g id="a_Node000009"><a xlink:href="../../de/d99/_board_manager_8cpp.html" target="_top" xlink:title=" ">
<polygon fill="white" stroke="#666666" points="143.14,-132 28.89,-132 28.89,-112 143.14,-112 143.14,-132"/>
<text xml:space="preserve" text-anchor="middle" x="86.01" y="-118.5" font-family="Helvetica,sans-Serif" font-size="10.00">src/BoardManager.cpp</text>
</a>
</g>
</g>
<!-- Node1&#45;&gt;Node9 -->
<g id="edge32_Node000001_Node000009" class="edge">
<title>Node1&#45;&gt;Node9</title>
<g id="a_edge32_Node000001_Node000009"><a xlink:title=" ">
<path fill="none" stroke="#63b8ff" d="M499.99,-412.11C353.37,-408.33 43.01,-389.42 43.01,-297 43.01,-297 43.01,-297 43.01,-233 43.01,-193.22 67.71,-150.56 79.67,-132.23"/>
<polygon fill="#63b8ff" stroke="#63b8ff" points="499.51,-415.6 509.59,-412.34 499.68,-408.6 499.51,-415.6"/>
</a>
</g>
</g>
<!-- Node10 -->
<g id="Node000010" class="node">
<title>Node10</title>
<g id="a_Node000010"><a xlink:href="../../d3/da0/_renderer_8h.html" target="_top" xlink:title=" ">
<polygon fill="white" stroke="#666666" points="643.01,-368 507.01,-368 507.01,-348 643.01,-348 643.01,-368"/>
<text xml:space="preserve" text-anchor="middle" x="575.01" y="-354.5" font-family="Helvetica,sans-Serif" font-size="10.00">include/renderer/Renderer.h</text>
</a>
</g>
</g>
<!-- Node1&#45;&gt;Node10 -->
<g id="edge11_Node000001_Node000010" class="edge">
<title>Node1&#45;&gt;Node10</title>
<g id="a_edge11_Node000001_Node000010"><a xlink:title=" ">
<path fill="none" stroke="#63b8ff" d="M575.01,-392.13C575.01,-383.9 575.01,-374.85 575.01,-368.3"/>
<polygon fill="#63b8ff" stroke="#63b8ff" points="571.51,-392.08 575.01,-402.08 578.51,-392.08 571.51,-392.08"/>
</a>
</g>
</g>
<!-- Node18 -->
<g id="Node000018" class="node">
<title>Node18</title>
<g id="a_Node000018"><a xlink:href="../../d5/d16/_shader_8cpp.html" target="_top" xlink:title=" ">
<polygon fill="white" stroke="#666666" points="1115.14,-306 994.89,-306 994.89,-286 1115.14,-286 1115.14,-306"/>
<text xml:space="preserve" text-anchor="middle" x="1055.01" y="-292.5" font-family="Helvetica,sans-Serif" font-size="10.00">src/renderer/Shader.cpp</text>
</a>
</g>
</g>
<!-- Node1&#45;&gt;Node18 -->
<g id="edge33_Node000001_Node000018" class="edge">
<title>Node1&#45;&gt;Node18</title>
<g id="a_edge33_Node000001_Node000018"><a xlink:title=" ">
<path fill="none" stroke="#63b8ff" d="M625.45,-400.81C721.61,-377.57 929.28,-327.39 1015.86,-306.46"/>
<polygon fill="#63b8ff" stroke="#63b8ff" points="624.66,-397.4 615.77,-403.15 626.31,-404.2 624.66,-397.4"/>
</a>
</g>
</g>
<!-- Node3 -->
<g id="Node000003" class="node">
<title>Node3</title>
<g id="a_Node000003"><a xlink:href="../../df/d43/_application_handler_8cpp.html" target="_top" xlink:title=" ">
<polygon fill="white" stroke="#666666" points="434.51,-20 301.51,-20 301.51,0 434.51,0 434.51,-20"/>
<text xml:space="preserve" text-anchor="middle" x="368.01" y="-6.5" font-family="Helvetica,sans-Serif" font-size="10.00">src/ApplicationHandler.cpp</text>
</a>
</g>
</g>
<!-- Node2&#45;&gt;Node3 -->
<g id="edge2_Node000002_Node000003" class="edge">
<title>Node2&#45;&gt;Node3</title>
<g id="a_edge2_Node000002_Node000003"><a xlink:title=" ">
<path fill="none" stroke="#63b8ff" d="M409.26,-48.13C399.06,-38.94 386.83,-27.93 378.35,-20.3"/>
<polygon fill="#63b8ff" stroke="#63b8ff" points="406.66,-50.49 416.44,-54.58 411.35,-45.29 406.66,-50.49"/>
</a>
</g>
</g>
<!-- Node4 -->
<g id="Node000004" class="node">
<title>Node4</title>
<g id="a_Node000004"><a xlink:href="../../df/d0a/main_8cpp.html" target="_top" xlink:title=" ">
<polygon fill="white" stroke="#666666" points="525.14,-20 452.89,-20 452.89,0 525.14,0 525.14,-20"/>
<text xml:space="preserve" text-anchor="middle" x="489.01" y="-6.5" font-family="Helvetica,sans-Serif" font-size="10.00">src/main.cpp</text>
</a>
</g>
</g>
<!-- Node2&#45;&gt;Node4 -->
<g id="edge3_Node000002_Node000004" class="edge">
<title>Node2&#45;&gt;Node4</title>
<g id="a_edge3_Node000002_Node000004"><a xlink:title=" ">
<path fill="none" stroke="#63b8ff" d="M447.08,-48.13C457.45,-38.94 469.89,-27.93 478.51,-20.3"/>
<polygon fill="#63b8ff" stroke="#63b8ff" points="444.94,-45.34 439.77,-54.59 449.58,-50.58 444.94,-45.34"/>
</a>
</g>
</g>
<!-- Node6 -->
<g id="Node000006" class="node">
<title>Node6</title>
<g id="a_Node000006"><a xlink:href="../../d9/d4e/_game_table_manager_8h.html" target="_top" xlink:title=" ">
<polygon fill="white" stroke="#666666" points="934.51,-132 789.51,-132 789.51,-112 934.51,-112 934.51,-132"/>
<text xml:space="preserve" text-anchor="middle" x="862.01" y="-118.5" font-family="Helvetica,sans-Serif" font-size="10.00">include/GameTableManager.h</text>
</a>
</g>
</g>
<!-- Node5&#45;&gt;Node6 -->
<g id="edge5_Node000005_Node000006" class="edge">
<title>Node5&#45;&gt;Node6</title>
<g id="a_edge5_Node000005_Node000006"><a xlink:title=" ">
<path fill="none" stroke="#63b8ff" d="M862.01,-156.13C862.01,-147.9 862.01,-138.85 862.01,-132.3"/>
<polygon fill="#63b8ff" stroke="#63b8ff" points="858.51,-156.08 862.01,-166.08 865.51,-156.08 858.51,-156.08"/>
</a>
</g>
</g>
<!-- Node8 -->
<g id="Node000008" class="node">
<title>Node8</title>
<g id="a_Node000008"><a xlink:href="../../da/d82/_network_manager_8cpp.html" target="_top" xlink:title=" ">
<polygon fill="white" stroke="#666666" points="1044.51,-76 881.51,-76 881.51,-56 1044.51,-56 1044.51,-76"/>
<text xml:space="preserve" text-anchor="middle" x="963.01" y="-62.5" font-family="Helvetica,sans-Serif" font-size="10.00">src/network/NetworkManager.cpp</text>
</a>
</g>
</g>
<!-- Node5&#45;&gt;Node8 -->
<g id="edge10_Node000005_Node000008" class="edge">
<title>Node5&#45;&gt;Node8</title>
<g id="a_edge10_Node000005_Node000008"><a xlink:title=" ">
<path fill="none" stroke="#63b8ff" d="M901.16,-163.15C916.46,-155.98 932.94,-145.78 944.01,-132 957.27,-115.5 961.28,-90.07 962.49,-76.42"/>
<polygon fill="#63b8ff" stroke="#63b8ff" points="900.01,-159.84 892.24,-167.04 902.8,-166.26 900.01,-159.84"/>
</a>
</g>
</g>
<!-- Node5&#45;&gt;Node9 -->
<g id="edge9_Node000005_Node000009" class="edge">
<title>Node5&#45;&gt;Node9</title>
<g id="a_edge9_Node000005_Node000009"><a xlink:title=" ">
<path fill="none" stroke="#63b8ff" d="M790.03,-171.99C637.11,-161.35 282.52,-136.67 143.45,-127"/>
<polygon fill="#63b8ff" stroke="#63b8ff" points="789.39,-175.45 799.61,-172.66 789.88,-168.47 789.39,-175.45"/>
</a>
</g>
</g>
<!-- Node6&#45;&gt;Node2 -->
<g id="edge6_Node000006_Node000002" class="edge">
<title>Node6&#45;&gt;Node2</title>
<g id="a_edge6_Node000006_Node000002"><a xlink:title=" ">
<path fill="none" stroke="#63b8ff" d="M778.17,-110.57C696.83,-100.45 574.8,-85.26 498.37,-75.75"/>
<polygon fill="#63b8ff" stroke="#63b8ff" points="777.51,-114.01 787.87,-111.77 778.38,-107.07 777.51,-114.01"/>
</a>
</g>
</g>
<!-- Node7 -->
<g id="Node000007" class="node">
<title>Node7</title>
<g id="a_Node000007"><a xlink:href="../../d1/d06/_game_table_manager_8cpp.html" target="_top" xlink:title=" ">
<polygon fill="white" stroke="#666666" points="863.14,-76 724.89,-76 724.89,-56 863.14,-56 863.14,-76"/>
<text xml:space="preserve" text-anchor="middle" x="794.01" y="-62.5" font-family="Helvetica,sans-Serif" font-size="10.00">src/GameTableManager.cpp</text>
</a>
</g>
</g>
<!-- Node6&#45;&gt;Node7 -->
<g id="edge7_Node000006_Node000007" class="edge">
<title>Node6&#45;&gt;Node7</title>
<g id="a_edge7_Node000006_Node000007"><a xlink:title=" ">
<path fill="none" stroke="#63b8ff" d="M841.46,-104.68C829.76,-95.39 815.53,-84.09 805.72,-76.3"/>
<polygon fill="#63b8ff" stroke="#63b8ff" points="838.98,-107.17 848.98,-110.65 843.33,-101.69 838.98,-107.17"/>
</a>
</g>
</g>
<!-- Node6&#45;&gt;Node8 -->
<g id="edge8_Node000006_Node000008" class="edge">
<title>Node6&#45;&gt;Node8</title>
<g id="a_edge8_Node000006_Node000008"><a xlink:title=" ">
<path fill="none" stroke="#63b8ff" d="M889.42,-106.35C907.2,-96.84 929.84,-84.74 945.28,-76.48"/>
<polygon fill="#63b8ff" stroke="#63b8ff" points="888.11,-103.08 880.94,-110.88 891.41,-109.25 888.11,-103.08"/>
</a>
</g>
</g>
<!-- Node10&#45;&gt;Node2 -->
<g id="edge12_Node000010_Node000002" class="edge">
<title>Node10&#45;&gt;Node2</title>
<g id="a_edge12_Node000010_Node000002"><a xlink:title=" ">
<path fill="none" stroke="#63b8ff" d="M587.85,-338.26C599.94,-321.56 619.25,-297.17 640.01,-280 669.14,-255.91 723.02,-256.67 704.01,-224 653.02,-136.32 532.75,-93.57 469.13,-76.46"/>
<polygon fill="#63b8ff" stroke="#63b8ff" points="585.09,-336.1 582.18,-346.29 590.81,-340.14 585.09,-336.1"/>
</a>
</g>
</g>
<!-- Node10&#45;&gt;Node5 -->
<g id="edge13_Node000010_Node000005" class="edge">
<title>Node10&#45;&gt;Node5</title>
<g id="a_edge13_Node000010_Node000005"><a xlink:title=" ">
<path fill="none" stroke="#63b8ff" d="M654.84,-352.92C758.6,-346.79 928.91,-333.55 948.01,-312 985.04,-270.23 909.27,-211.08 876.31,-188.37"/>
<polygon fill="#63b8ff" stroke="#63b8ff" points="654.75,-349.42 644.97,-353.49 655.16,-356.41 654.75,-349.42"/>
</a>
</g>
</g>
<!-- Node10&#45;&gt;Node9 -->
<g id="edge26_Node000010_Node000009" class="edge">
<title>Node10&#45;&gt;Node9</title>
<g id="a_edge26_Node000010_Node000009"><a xlink:title=" ">
<path fill="none" stroke="#63b8ff" d="M495.71,-354.97C367.72,-350.91 127.09,-339.64 100.01,-312 50.51,-261.47 74.28,-162.51 83.17,-132.1"/>
<polygon fill="#63b8ff" stroke="#63b8ff" points="495.37,-358.47 505.47,-355.28 495.59,-351.47 495.37,-358.47"/>
</a>
</g>
</g>
<!-- Node11 -->
<g id="Node000011" class="node">
<title>Node11</title>
<g id="a_Node000011"><a xlink:href="../../de/dbf/_texture_8h.html" target="_top" xlink:title=" ">
<polygon fill="white" stroke="#666666" points="593.26,-306 464.76,-306 464.76,-286 593.26,-286 593.26,-306"/>
<text xml:space="preserve" text-anchor="middle" x="529.01" y="-292.5" font-family="Helvetica,sans-Serif" font-size="10.00">include/renderer/Texture.h</text>
</a>
</g>
</g>
<!-- Node10&#45;&gt;Node11 -->
<g id="edge14_Node000010_Node000011" class="edge">
<title>Node10&#45;&gt;Node11</title>
<g id="a_edge14_Node000010_Node000011"><a xlink:title=" ">
<path fill="none" stroke="#63b8ff" d="M560.9,-338.6C552.65,-327.83 542.59,-314.7 536,-306.11"/>
<polygon fill="#63b8ff" stroke="#63b8ff" points="558.04,-340.62 566.91,-346.42 563.6,-336.36 558.04,-340.62"/>
</a>
</g>
</g>
<!-- Node14 -->
<g id="Node000014" class="node">
<title>Node14</title>
<g id="a_Node000014"><a xlink:href="../../df/d3f/_vertex_buffer_layout_8h.html" target="_top" xlink:title=" ">
<polygon fill="white" stroke="#666666" points="250.64,-312 109.39,-312 109.39,-280 250.64,-280 250.64,-312"/>
<text xml:space="preserve" text-anchor="start" x="117.39" y="-298.5" font-family="Helvetica,sans-Serif" font-size="10.00">include/renderer/VertexBuffer</text>
<text xml:space="preserve" text-anchor="middle" x="180.01" y="-286.5" font-family="Helvetica,sans-Serif" font-size="10.00">Layout.h</text>
</a>
</g>
</g>
<!-- Node10&#45;&gt;Node14 -->
<g id="edge22_Node000010_Node000014" class="edge">
<title>Node10&#45;&gt;Node14</title>
<g id="a_edge22_Node000010_Node000014"><a xlink:title=" ">
<path fill="none" stroke="#63b8ff" d="M495.2,-346.1C432.53,-337.37 343.11,-324.56 265.01,-312 260.43,-311.26 255.71,-310.48 250.95,-309.68"/>
<polygon fill="#63b8ff" stroke="#63b8ff" points="494.7,-349.56 505.08,-347.47 495.66,-342.63 494.7,-349.56"/>
</a>
</g>
</g>
<!-- Node15 -->
<g id="Node000015" class="node">
<title>Node15</title>
<g id="a_Node000015"><a xlink:href="../../db/d28/_vertex_array_8cpp.html" target="_top" xlink:title=" ">
<polygon fill="white" stroke="#666666" points="328.89,-244 189.14,-244 189.14,-224 328.89,-224 328.89,-244"/>
<text xml:space="preserve" text-anchor="middle" x="259.01" y="-230.5" font-family="Helvetica,sans-Serif" font-size="10.00">src/renderer/VertexArray.cpp</text>
</a>
</g>
</g>
<!-- Node10&#45;&gt;Node15 -->
<g id="edge30_Node000010_Node000015" class="edge">
<title>Node10&#45;&gt;Node15</title>
<g id="a_edge30_Node000010_Node000015"><a xlink:title=" ">
<path fill="none" stroke="#63b8ff" d="M495.47,-352.05C425.02,-346.26 328.72,-334.46 298.01,-312 275.03,-295.19 264.68,-260.92 260.87,-244.36"/>
<polygon fill="#63b8ff" stroke="#63b8ff" points="494.79,-355.51 505.04,-352.81 495.34,-348.53 494.79,-355.51"/>
</a>
</g>
</g>
<!-- Node16 -->
<g id="Node000016" class="node">
<title>Node16</title>
<g id="a_Node000016"><a xlink:href="../../dd/daa/_index_buffer_8cpp.html" target="_top" xlink:title=" ">
<polygon fill="white" stroke="#666666" points="446.51,-306 307.51,-306 307.51,-286 446.51,-286 446.51,-306"/>
<text xml:space="preserve" text-anchor="middle" x="377.01" y="-292.5" font-family="Helvetica,sans-Serif" font-size="10.00">src/renderer/IndexBuffer.cpp</text>
</a>
</g>
</g>
<!-- Node10&#45;&gt;Node16 -->
<g id="edge27_Node000010_Node000016" class="edge">
<title>Node10&#45;&gt;Node16</title>
<g id="a_edge27_Node000010_Node000016"><a xlink:title=" ">
<path fill="none" stroke="#63b8ff" d="M533.52,-344.43C496.08,-333.08 441.86,-316.65 408.06,-306.41"/>
<polygon fill="#63b8ff" stroke="#63b8ff" points="532.04,-347.64 542.63,-347.19 534.07,-340.94 532.04,-347.64"/>
</a>
</g>
</g>
<!-- Node17 -->
<g id="Node000017" class="node">
<title>Node17</title>
<g id="a_Node000017"><a xlink:href="../../da/d84/_renderer_8cpp.html" target="_top" xlink:title=" ">
<polygon fill="white" stroke="#666666" points="778.64,-306 649.39,-306 649.39,-286 778.64,-286 778.64,-306"/>
<text xml:space="preserve" text-anchor="middle" x="714.01" y="-292.5" font-family="Helvetica,sans-Serif" font-size="10.00">src/renderer/Renderer.cpp</text>
</a>
</g>
</g>
<!-- Node10&#45;&gt;Node17 -->
<g id="edge28_Node000010_Node000017" class="edge">
<title>Node10&#45;&gt;Node17</title>
<g id="a_edge28_Node000010_Node000017"><a xlink:title=" ">
<path fill="none" stroke="#63b8ff" d="M607.27,-343.07C633.46,-331.77 669.66,-316.15 692.45,-306.31"/>
<polygon fill="#63b8ff" stroke="#63b8ff" points="605.92,-339.85 598.12,-347.03 608.69,-346.28 605.92,-339.85"/>
</a>
</g>
</g>
<!-- Node10&#45;&gt;Node18 -->
<g id="edge29_Node000010_Node000018" class="edge">
<title>Node10&#45;&gt;Node18</title>
<g id="a_edge29_Node000010_Node000018"><a xlink:title=" ">
<path fill="none" stroke="#63b8ff" d="M654.75,-350.29C736.82,-342.89 868.26,-329.64 981.01,-312 990.99,-310.44 1001.65,-308.46 1011.7,-306.46"/>
<polygon fill="#63b8ff" stroke="#63b8ff" points="654.66,-346.78 645.01,-351.16 655.29,-353.76 654.66,-346.78"/>
</a>
</g>
</g>
<!-- Node19 -->
<g id="Node000019" class="node">
<title>Node19</title>
<g id="a_Node000019"><a xlink:href="../../df/df6/_vertex_buffer_8cpp.html" target="_top" xlink:title=" ">
<polygon fill="white" stroke="#666666" points="939.39,-306 796.64,-306 796.64,-286 939.39,-286 939.39,-306"/>
<text xml:space="preserve" text-anchor="middle" x="868.01" y="-292.5" font-family="Helvetica,sans-Serif" font-size="10.00">src/renderer/VertexBuffer.cpp</text>
</a>
</g>
</g>
<!-- Node10&#45;&gt;Node19 -->
<g id="edge31_Node000010_Node000019" class="edge">
<title>Node10&#45;&gt;Node19</title>
<g id="a_edge31_Node000010_Node000019"><a xlink:title=" ">
<path fill="none" stroke="#63b8ff" d="M632.14,-345.3C687.48,-333.97 770.35,-317 821.7,-306.48"/>
<polygon fill="#63b8ff" stroke="#63b8ff" points="631.69,-341.82 622.6,-347.26 633.1,-348.68 631.69,-341.82"/>
</a>
</g>
</g>
<!-- Node11&#45;&gt;Node2 -->
<g id="edge15_Node000011_Node000002" class="edge">
<title>Node11&#45;&gt;Node2</title>
<g id="a_edge15_Node000011_Node000002"><a xlink:title=" ">
<path fill="none" stroke="#63b8ff" d="M466.74,-281.86C446.43,-274.3 426.03,-262.47 414.01,-244 378.55,-189.48 411.06,-104.59 423.58,-76.43"/>
<polygon fill="#63b8ff" stroke="#63b8ff" points="465.61,-285.17 476.2,-285.05 467.84,-278.54 465.61,-285.17"/>
</a>
</g>
</g>
<!-- Node11&#45;&gt;Node5 -->
<g id="edge16_Node000011_Node000005" class="edge">
<title>Node11&#45;&gt;Node5</title>
<g id="a_edge16_Node000011_Node000005"><a xlink:title=" ">
<path fill="none" stroke="#63b8ff" d="M576.56,-282.62C612,-273.04 661.43,-258.92 704.01,-244 753.98,-226.5 811.08,-201.8 841.08,-188.45"/>
<polygon fill="#63b8ff" stroke="#63b8ff" points="575.78,-279.2 567.03,-285.18 577.6,-285.97 575.78,-279.2"/>
</a>
</g>
</g>
<!-- Node11&#45;&gt;Node9 -->
<g id="edge20_Node000011_Node000009" class="edge">
<title>Node11&#45;&gt;Node9</title>
<g id="a_edge20_Node000011_Node000009"><a xlink:title=" ">
<path fill="none" stroke="#63b8ff" d="M487.75,-282.05C457.83,-272.35 416.55,-258.34 381.01,-244 361.47,-236.11 357.36,-232.37 338.01,-224 255.61,-188.35 156.3,-149.83 110.88,-132.45"/>
<polygon fill="#63b8ff" stroke="#63b8ff" points="486.6,-285.36 497.19,-285.08 488.74,-278.69 486.6,-285.36"/>
</a>
</g>
</g>
<!-- Node12 -->
<g id="Node000012" class="node">
<title>Node12</title>
<g id="a_Node000012"><a xlink:href="../../d1/d91/_directory_window_8h.html" target="_top" xlink:title=" ">
<polygon fill="white" stroke="#666666" points="555.14,-244 422.89,-244 422.89,-224 555.14,-224 555.14,-244"/>
<text xml:space="preserve" text-anchor="middle" x="489.01" y="-230.5" font-family="Helvetica,sans-Serif" font-size="10.00">include/DirectoryWindow.h</text>
</a>
</g>
</g>
<!-- Node11&#45;&gt;Node12 -->
<g id="edge17_Node000011_Node000012" class="edge">
<title>Node11&#45;&gt;Node12</title>
<g id="a_edge17_Node000011_Node000012"><a xlink:title=" ">
<path fill="none" stroke="#63b8ff" d="M516.52,-276.26C509.39,-265.56 500.76,-252.61 495.09,-244.11"/>
<polygon fill="#63b8ff" stroke="#63b8ff" points="513.47,-277.99 521.92,-284.37 519.29,-274.1 513.47,-277.99"/>
</a>
</g>
</g>
<!-- Node13 -->
<g id="Node000013" class="node">
<title>Node13</title>
<g id="a_Node000013"><a xlink:href="../../da/d26/_texture_8cpp.html" target="_top" xlink:title=" ">
<polygon fill="white" stroke="#666666" points="694.89,-244 573.14,-244 573.14,-224 694.89,-224 694.89,-244"/>
<text xml:space="preserve" text-anchor="middle" x="634.01" y="-230.5" font-family="Helvetica,sans-Serif" font-size="10.00">src/renderer/Texture.cpp</text>
</a>
</g>
</g>
<!-- Node11&#45;&gt;Node13 -->
<g id="edge21_Node000011_Node000013" class="edge">
<title>Node11&#45;&gt;Node13</title>
<g id="a_edge21_Node000011_Node000013"><a xlink:title=" ">
<path fill="none" stroke="#63b8ff" d="M555.26,-280C574.86,-268.8 601.05,-253.84 617.72,-244.31"/>
<polygon fill="#63b8ff" stroke="#63b8ff" points="553.68,-276.87 546.73,-284.87 557.15,-282.95 553.68,-276.87"/>
</a>
</g>
</g>
<!-- Node12&#45;&gt;Node2 -->
<g id="edge18_Node000012_Node000002" class="edge">
<title>Node12&#45;&gt;Node2</title>
<g id="a_edge18_Node000012_Node000002"><a xlink:title=" ">
<path fill="none" stroke="#63b8ff" d="M481.65,-212.97C468.41,-176.92 441.03,-102.42 431.43,-76.3"/>
<polygon fill="#63b8ff" stroke="#63b8ff" points="478.3,-214 485.04,-222.18 484.87,-211.59 478.3,-214"/>
</a>
</g>
</g>
<!-- Node12&#45;&gt;Node5 -->
<g id="edge19_Node000012_Node000005" class="edge">
<title>Node12&#45;&gt;Node5</title>
<g id="a_edge19_Node000012_Node000005"><a xlink:title=" ">
<path fill="none" stroke="#63b8ff" d="M565.74,-221.89C635.39,-211.81 736.76,-197.13 801.02,-187.83"/>
<polygon fill="#63b8ff" stroke="#63b8ff" points="565.31,-218.42 555.91,-223.32 566.31,-225.35 565.31,-218.42"/>
</a>
</g>
</g>
<!-- Node14&#45;&gt;Node2 -->
<g id="edge23_Node000014_Node000002" class="edge">
<title>Node14&#45;&gt;Node2</title>
<g id="a_edge23_Node000014_Node000002"><a xlink:title=" ">
<path fill="none" stroke="#63b8ff" d="M174.14,-268.59C172.41,-254.53 172.63,-237.41 180.01,-224 226.34,-139.85 338.9,-94.5 395.04,-76.44"/>
<polygon fill="#63b8ff" stroke="#63b8ff" points="170.62,-268.75 175.7,-278.05 177.53,-267.61 170.62,-268.75"/>
</a>
</g>
</g>
<!-- Node14&#45;&gt;Node9 -->
<g id="edge24_Node000014_Node000009" class="edge">
<title>Node14&#45;&gt;Node9</title>
<g id="a_edge24_Node000014_Node000009"><a xlink:title=" ">
<path fill="none" stroke="#63b8ff" d="M163.23,-270.24C157.86,-262.01 152.01,-252.72 147.01,-244 123.73,-203.39 99.78,-152.8 90.28,-132.28"/>
<polygon fill="#63b8ff" stroke="#63b8ff" points="160.19,-271.98 168.63,-278.38 166.02,-268.11 160.19,-271.98"/>
</a>
</g>
</g>
<!-- Node14&#45;&gt;Node15 -->
<g id="edge25_Node000014_Node000015" class="edge">
<title>Node14&#45;&gt;Node15</title>
<g id="a_edge25_Node000014_Node000015"><a xlink:title=" ">
<path fill="none" stroke="#63b8ff" d="M209.37,-272.7C222.25,-262.92 236.66,-251.98 246.63,-244.41"/>
<polygon fill="#63b8ff" stroke="#63b8ff" points="207.41,-269.8 201.56,-278.63 211.64,-275.37 207.41,-269.8"/>
</a>
</g>
</g>
</g>
</svg>
