<?xml version="1.0" encoding="UTF-8" standalone="no"?>
<!DOCTYPE svg PUBLIC "-//W3C//DTD SVG 1.1//EN"
 "http://www.w3.org/Graphics/SVG/1.1/DTD/svg11.dtd">
<!-- Generated by graphviz version 14.0.2 (20251019.1705)
 -->
<!-- Title: include/renderer/IndexBuffer.h Pages: 1 -->
<svg width="1146pt" height="432pt"
 viewBox="0.00 0.00 1146.00 432.00" xmlns="http://www.w3.org/2000/svg" xmlns:xlink="http://www.w3.org/1999/xlink">
<g id="graph0" class="graph" transform="scale(1 1) rotate(0) translate(4 428)">
<title>include/renderer/IndexBuffer.h</title>
<!-- Node1 -->
<g id="Node000001" class="node">
<title>Node1</title>
<g id="a_Node000001"><a xlink:title=" ">
<polygon fill="#999999" stroke="#666666" points="637.89,-424 492.14,-424 492.14,-404 637.89,-404 637.89,-424"/>
<text xml:space="preserve" text-anchor="middle" x="565.01" y="-410.5" font-family="Helvetica,sans-Serif" font-size="10.00">include/renderer/IndexBuffer.h</text>
</a>
</g>
</g>
<!-- Node2 -->
<g id="Node000002" class="node">
<title>Node2</title>
<g id="a_Node000002"><a xlink:href="../../d0/da4/_application_handler_8h.html" target="_top" xlink:title=" ">
<polygon fill="white" stroke="#666666" points="497.89,-76 358.14,-76 358.14,-56 497.89,-56 497.89,-76"/>
<text xml:space="preserve" text-anchor="middle" x="428.01" y="-62.5" font-family="Helvetica,sans-Serif" font-size="10.00">include/ApplicationHandler.h</text>
</a>
</g>
</g>
<!-- Node1&#45;&gt;Node2 -->
<g id="edge1_Node000001_Node000002" class="edge">
<title>Node1&#45;&gt;Node2</title>
<g id="a_edge1_Node000001_Node000002"><a xlink:title=" ">
<path fill="none" stroke="#63b8ff" d="M480.8,-411.22C362.4,-407.69 153.41,-397.38 84.01,-368 39.31,-349.08 1.01,-345.54 1.01,-297 1.01,-297 1.01,-297 1.01,-177 1.01,-146.9 -3.04,-131.35 20.01,-112 45.33,-90.76 248.18,-76.67 357.99,-70.53"/>
<polygon fill="#63b8ff" stroke="#63b8ff" points="480.36,-414.71 490.45,-411.5 480.56,-407.71 480.36,-414.71"/>
</a>
</g>
</g>
<!-- Node5 -->
<g id="Node000005" class="node">
<title>Node5</title>
<g id="a_Node000005"><a xlink:href="../../df/d3c/_board_manager_8h.html" target="_top" xlink:title=" ">
<polygon fill="white" stroke="#666666" points="922.51,-188 801.51,-188 801.51,-168 922.51,-168 922.51,-188"/>
<text xml:space="preserve" text-anchor="middle" x="862.01" y="-174.5" font-family="Helvetica,sans-Serif" font-size="10.00">include/BoardManager.h</text>
</a>
</g>
</g>
<!-- Node1&#45;&gt;Node5 -->
<g id="edge4_Node000001_Node000005" class="edge">
<title>Node1&#45;&gt;Node5</title>
<g id="a_edge4_Node000001_Node000005"><a xlink:title=" ">
<path fill="none" stroke="#63b8ff" d="M649.33,-410.52C790.56,-404.39 1065.37,-383.36 1125.01,-312 1186.29,-238.68 1018.21,-201.56 922.79,-186.84"/>
<polygon fill="#63b8ff" stroke="#63b8ff" points="649.52,-407.01 639.67,-410.92 649.81,-414 649.52,-407.01"/>
</a>
</g>
</g>
<!-- Node9 -->
<g id="Node000009" class="node">
<title>Node9</title>
<g id="a_Node000009"><a xlink:href="../../de/d99/_board_manager_8cpp.html" target="_top" xlink:title=" ">
<polygon fill="white" stroke="#666666" points="143.14,-132 28.89,-132 28.89,-112 143.14,-112 143.14,-132"/>
<text xml:space="preserve" text-anchor="middle" x="86.01" y="-118.5" font-family="Helvetica,sans-Serif" font-size="10.00">src/BoardManager.cpp</text>
</a>
</g>
</g>
<!-- Node1&#45;&gt;Node9 -->
<g id="edge32_Node000001_Node000009" class="edge">
<title>Node1&#45;&gt;Node9</title>
<g id="a_edge32_Node000001_Node000009"><a xlink:title=" ">
<path fill="none" stroke="#63b8ff" d="M480.63,-411.49C332.92,-406.55 43.01,-385.56 43.01,-297 43.01,-297 43.01,-297 43.01,-233 43.01,-193.22 67.71,-150.56 79.67,-132.23"/>
<polygon fill="#63b8ff" stroke="#63b8ff" points="480.26,-414.98 490.37,-411.8 480.49,-407.99 480.26,-414.98"/>
</a>
</g>
</g>
<!-- Node10 -->
<g id="Node000010" class="node">
<title>Node10</title>
<g id="a_Node000010"><a xlink:href="../../d3/da0/_renderer_8h.html" target="_top" xlink:title=" ">
<polygon fill="white" stroke="#666666" points="633.01,-368 497.01,-368 497.01,-348 633.01,-348 633.01,-368"/>
<text xml:space="preserve" text-anchor="middle" x="565.01" y="-354.5" font-family="Helvetica,sans-Serif" font-size="10.00">include/renderer/Renderer.h</text>
</a>
</g>
</g>
<!-- Node1&#45;&gt;Node10 -->
<g id="edge11_Node000001_Node000010" class="edge">
<title>Node1&#45;&gt;Node10</title>
<g id="a_edge11_Node000001_Node000010"><a xlink:title=" ">
<path fill="none" stroke="#63b8ff" d="M565.01,-392.13C565.01,-383.9 565.01,-374.85 565.01,-368.3"/>
<polygon fill="#63b8ff" stroke="#63b8ff" points="561.51,-392.08 565.01,-402.08 568.51,-392.08 561.51,-392.08"/>
</a>
</g>
</g>
<!-- Node16 -->
<g id="Node000016" class="node">
<title>Node16</title>
<g id="a_Node000016"><a xlink:href="../../dd/daa/_index_buffer_8cpp.html" target="_top" xlink:title=" ">
<polygon fill="white" stroke="#666666" points="1115.51,-306 976.51,-306 976.51,-286 1115.51,-286 1115.51,-306"/>
<text xml:space="preserve" text-anchor="middle" x="1046.01" y="-292.5" font-family="Helvetica,sans-Serif" font-size="10.00">src/renderer/IndexBuffer.cpp</text>
</a>
</g>
</g>
<!-- Node1&#45;&gt;Node16 -->
<g id="edge33_Node000001_Node000016" class="edge">
<title>Node1&#45;&gt;Node16</title>
<g id="a_edge33_Node000001_Node000016"><a xlink:title=" ">
<path fill="none" stroke="#63b8ff" d="M615.56,-400.81C711.92,-377.57 920.02,-327.39 1006.78,-306.46"/>
<polygon fill="#63b8ff" stroke="#63b8ff" points="614.75,-397.41 605.85,-403.15 616.39,-404.21 614.75,-397.41"/>
</a>
</g>
</g>
<!-- Node3 -->
<g id="Node000003" class="node">
<title>Node3</title>
<g id="a_Node000003"><a xlink:href="../../df/d43/_application_handler_8cpp.html" target="_top" xlink:title=" ">
<polygon fill="white" stroke="#666666" points="434.51,-20 301.51,-20 301.51,0 434.51,0 434.51,-20"/>
<text xml:space="preserve" text-anchor="middle" x="368.01" y="-6.5" font-family="Helvetica,sans-Serif" font-size="10.00">src/ApplicationHandler.cpp</text>
</a>
</g>
</g>
<!-- Node2&#45;&gt;Node3 -->
<g id="edge2_Node000002_Node000003" class="edge">
<title>Node2&#45;&gt;Node3</title>
<g id="a_edge2_Node000002_Node000003"><a xlink:title=" ">
<path fill="none" stroke="#63b8ff" d="M409.26,-48.13C399.06,-38.94 386.83,-27.93 378.35,-20.3"/>
<polygon fill="#63b8ff" stroke="#63b8ff" points="406.66,-50.49 416.44,-54.58 411.35,-45.29 406.66,-50.49"/>
</a>
</g>
</g>
<!-- Node4 -->
<g id="Node000004" class="node">
<title>Node4</title>
<g id="a_Node000004"><a xlink:href="../../df/d0a/main_8cpp.html" target="_top" xlink:title=" ">
<polygon fill="white" stroke="#666666" points="525.14,-20 452.89,-20 452.89,0 525.14,0 525.14,-20"/>
<text xml:space="preserve" text-anchor="middle" x="489.01" y="-6.5" font-family="Helvetica,sans-Serif" font-size="10.00">src/main.cpp</text>
</a>
</g>
</g>
<!-- Node2&#45;&gt;Node4 -->
<g id="edge3_Node000002_Node000004" class="edge">
<title>Node2&#45;&gt;Node4</title>
<g id="a_edge3_Node000002_Node000004"><a xlink:title=" ">
<path fill="none" stroke="#63b8ff" d="M447.08,-48.13C457.45,-38.94 469.89,-27.93 478.51,-20.3"/>
<polygon fill="#63b8ff" stroke="#63b8ff" points="444.94,-45.34 439.77,-54.59 449.58,-50.58 444.94,-45.34"/>
</a>
</g>
</g>
<!-- Node6 -->
<g id="Node000006" class="node">
<title>Node6</title>
<g id="a_Node000006"><a xlink:href="../../d9/d4e/_game_table_manager_8h.html" target="_top" xlink:title=" ">
<polygon fill="white" stroke="#666666" points="934.51,-132 789.51,-132 789.51,-112 934.51,-112 934.51,-132"/>
<text xml:space="preserve" text-anchor="middle" x="862.01" y="-118.5" font-family="Helvetica,sans-Serif" font-size="10.00">include/GameTableManager.h</text>
</a>
</g>
</g>
<!-- Node5&#45;&gt;Node6 -->
<g id="edge5_Node000005_Node000006" class="edge">
<title>Node5&#45;&gt;Node6</title>
<g id="a_edge5_Node000005_Node000006"><a xlink:title=" ">
<path fill="none" stroke="#63b8ff" d="M862.01,-156.13C862.01,-147.9 862.01,-138.85 862.01,-132.3"/>
<polygon fill="#63b8ff" stroke="#63b8ff" points="858.51,-156.08 862.01,-166.08 865.51,-156.08 858.51,-156.08"/>
</a>
</g>
</g>
<!-- Node8 -->
<g id="Node000008" class="node">
<title>Node8</title>
<g id="a_Node000008"><a xlink:href="../../da/d82/_network_manager_8cpp.html" target="_top" xlink:title=" ">
<polygon fill="white" stroke="#666666" points="1044.51,-76 881.51,-76 881.51,-56 1044.51,-56 1044.51,-76"/>
<text xml:space="preserve" text-anchor="middle" x="963.01" y="-62.5" font-family="Helvetica,sans-Serif" font-size="10.00">src/network/NetworkManager.cpp</text>
</a>
</g>
</g>
<!-- Node5&#45;&gt;Node8 -->
<g id="edge10_Node000005_Node000008" class="edge">
<title>Node5&#45;&gt;Node8</title>
<g id="a_edge10_Node000005_Node000008"><a xlink:title=" ">
<path fill="none" stroke="#63b8ff" d="M901.16,-163.15C916.46,-155.98 932.94,-145.78 944.01,-132 957.27,-115.5 961.28,-90.07 962.49,-76.42"/>
<polygon fill="#63b8ff" stroke="#63b8ff" points="900.01,-159.84 892.24,-167.04 902.8,-166.26 900.01,-159.84"/>
</a>
</g>
</g>
<!-- Node5&#45;&gt;Node9 -->
<g id="edge9_Node000005_Node000009" class="edge">
<title>Node5&#45;&gt;Node9</title>
<g id="a_edge9_Node000005_Node000009"><a xlink:title=" ">
<path fill="none" stroke="#63b8ff" d="M790.03,-171.99C637.11,-161.35 282.52,-136.67 143.45,-127"/>
<polygon fill="#63b8ff" stroke="#63b8ff" points="789.39,-175.45 799.61,-172.66 789.88,-168.47 789.39,-175.45"/>
</a>
</g>
</g>
<!-- Node6&#45;&gt;Node2 -->
<g id="edge6_Node000006_Node000002" class="edge">
<title>Node6&#45;&gt;Node2</title>
<g id="a_edge6_Node000006_Node000002"><a xlink:title=" ">
<path fill="none" stroke="#63b8ff" d="M778.17,-110.57C696.83,-100.45 574.8,-85.26 498.37,-75.75"/>
<polygon fill="#63b8ff" stroke="#63b8ff" points="777.51,-114.01 787.87,-111.77 778.38,-107.07 777.51,-114.01"/>
</a>
</g>
</g>
<!-- Node7 -->
<g id="Node000007" class="node">
<title>Node7</title>
<g id="a_Node000007"><a xlink:href="../../d1/d06/_game_table_manager_8cpp.html" target="_top" xlink:title=" ">
<polygon fill="white" stroke="#666666" points="863.14,-76 724.89,-76 724.89,-56 863.14,-56 863.14,-76"/>
<text xml:space="preserve" text-anchor="middle" x="794.01" y="-62.5" font-family="Helvetica,sans-Serif" font-size="10.00">src/GameTableManager.cpp</text>
</a>
</g>
</g>
<!-- Node6&#45;&gt;Node7 -->
<g id="edge7_Node000006_Node000007" class="edge">
<title>Node6&#45;&gt;Node7</title>
<g id="a_edge7_Node000006_Node000007"><a xlink:title=" ">
<path fill="none" stroke="#63b8ff" d="M841.46,-104.68C829.76,-95.39 815.53,-84.09 805.72,-76.3"/>
<polygon fill="#63b8ff" stroke="#63b8ff" points="838.98,-107.17 848.98,-110.65 843.33,-101.69 838.98,-107.17"/>
</a>
</g>
</g>
<!-- Node6&#45;&gt;Node8 -->
<g id="edge8_Node000006_Node000008" class="edge">
<title>Node6&#45;&gt;Node8</title>
<g id="a_edge8_Node000006_Node000008"><a xlink:title=" ">
<path fill="none" stroke="#63b8ff" d="M889.42,-106.35C907.2,-96.84 929.84,-84.74 945.28,-76.48"/>
<polygon fill="#63b8ff" stroke="#63b8ff" points="888.11,-103.08 880.94,-110.88 891.41,-109.25 888.11,-103.08"/>
</a>
</g>
</g>
<!-- Node10&#45;&gt;Node2 -->
<g id="edge12_Node000010_Node000002" class="edge">
<title>Node10&#45;&gt;Node2</title>
<g id="a_edge12_Node000010_Node000002"><a xlink:title=" ">
<path fill="none" stroke="#63b8ff" d="M577.42,-338.23C589.33,-321.32 608.63,-296.64 630.01,-280 662.57,-254.67 724.75,-259.65 704.01,-224 653.02,-136.32 532.75,-93.57 469.13,-76.46"/>
<polygon fill="#63b8ff" stroke="#63b8ff" points="574.62,-336.13 571.86,-346.36 580.4,-340.08 574.62,-336.13"/>
</a>
</g>
</g>
<!-- Node10&#45;&gt;Node5 -->
<g id="edge13_Node000010_Node000005" class="edge">
<title>Node10&#45;&gt;Node5</title>
<g id="a_edge13_Node000010_Node000005"><a xlink:title=" ">
<path fill="none" stroke="#63b8ff" d="M644.89,-352.66C746.33,-346.31 910.51,-332.93 929.01,-312 963.95,-272.48 900.66,-211.49 873.51,-188.34"/>
<polygon fill="#63b8ff" stroke="#63b8ff" points="644.73,-349.16 634.96,-353.27 645.16,-356.15 644.73,-349.16"/>
</a>
</g>
</g>
<!-- Node10&#45;&gt;Node9 -->
<g id="edge26_Node000010_Node000009" class="edge">
<title>Node10&#45;&gt;Node9</title>
<g id="a_edge26_Node000010_Node000009"><a xlink:title=" ">
<path fill="none" stroke="#63b8ff" d="M485.53,-354.79C359.77,-350.5 126.37,-338.96 100.01,-312 50.56,-261.42 74.3,-162.49 83.17,-132.1"/>
<polygon fill="#63b8ff" stroke="#63b8ff" points="485.36,-358.29 495.47,-355.12 485.59,-351.29 485.36,-358.29"/>
</a>
</g>
</g>
<!-- Node11 -->
<g id="Node000011" class="node">
<title>Node11</title>
<g id="a_Node000011"><a xlink:href="../../de/dbf/_texture_8h.html" target="_top" xlink:title=" ">
<polygon fill="white" stroke="#666666" points="583.26,-306 454.76,-306 454.76,-286 583.26,-286 583.26,-306"/>
<text xml:space="preserve" text-anchor="middle" x="519.01" y="-292.5" font-family="Helvetica,sans-Serif" font-size="10.00">include/renderer/Texture.h</text>
</a>
</g>
</g>
<!-- Node10&#45;&gt;Node11 -->
<g id="edge14_Node000010_Node000011" class="edge">
<title>Node10&#45;&gt;Node11</title>
<g id="a_edge14_Node000010_Node000011"><a xlink:title=" ">
<path fill="none" stroke="#63b8ff" d="M550.9,-338.6C542.65,-327.83 532.59,-314.7 526,-306.11"/>
<polygon fill="#63b8ff" stroke="#63b8ff" points="548.04,-340.62 556.91,-346.42 553.6,-336.36 548.04,-340.62"/>
</a>
</g>
</g>
<!-- Node14 -->
<g id="Node000014" class="node">
<title>Node14</title>
<g id="a_Node000014"><a xlink:href="../../df/d3f/_vertex_buffer_layout_8h.html" target="_top" xlink:title=" ">
<polygon fill="white" stroke="#666666" points="250.64,-312 109.39,-312 109.39,-280 250.64,-280 250.64,-312"/>
<text xml:space="preserve" text-anchor="start" x="117.39" y="-298.5" font-family="Helvetica,sans-Serif" font-size="10.00">include/renderer/VertexBuffer</text>
<text xml:space="preserve" text-anchor="middle" x="180.01" y="-286.5" font-family="Helvetica,sans-Serif" font-size="10.00">Layout.h</text>
</a>
</g>
</g>
<!-- Node10&#45;&gt;Node14 -->
<g id="edge22_Node000010_Node000014" class="edge">
<title>Node10&#45;&gt;Node14</title>
<g id="a_edge22_Node000010_Node000014"><a xlink:title=" ">
<path fill="none" stroke="#63b8ff" d="M487.12,-345.88C426.51,-337.09 340.34,-324.29 265.01,-312 260.43,-311.25 255.71,-310.46 250.95,-309.66"/>
<polygon fill="#63b8ff" stroke="#63b8ff" points="486.61,-349.34 497.01,-347.31 487.61,-342.41 486.61,-349.34"/>
</a>
</g>
</g>
<!-- Node15 -->
<g id="Node000015" class="node">
<title>Node15</title>
<g id="a_Node000015"><a xlink:href="../../db/d28/_vertex_array_8cpp.html" target="_top" xlink:title=" ">
<polygon fill="white" stroke="#666666" points="328.89,-244 189.14,-244 189.14,-224 328.89,-224 328.89,-244"/>
<text xml:space="preserve" text-anchor="middle" x="259.01" y="-230.5" font-family="Helvetica,sans-Serif" font-size="10.00">src/renderer/VertexArray.cpp</text>
</a>
</g>
</g>
<!-- Node10&#45;&gt;Node15 -->
<g id="edge30_Node000010_Node000015" class="edge">
<title>Node10&#45;&gt;Node15</title>
<g id="a_edge30_Node000010_Node000015"><a xlink:title=" ">
<path fill="none" stroke="#63b8ff" d="M485.73,-351.5C418.06,-345.41 327.2,-333.48 298.01,-312 275.08,-295.12 264.71,-260.88 260.88,-244.35"/>
<polygon fill="#63b8ff" stroke="#63b8ff" points="485.03,-354.95 495.3,-352.33 485.64,-347.98 485.03,-354.95"/>
</a>
</g>
</g>
<!-- Node10&#45;&gt;Node16 -->
<g id="edge27_Node000010_Node000016" class="edge">
<title>Node10&#45;&gt;Node16</title>
<g id="a_edge27_Node000010_Node000016"><a xlink:title=" ">
<path fill="none" stroke="#63b8ff" d="M644.33,-349.51C724.61,-341.58 852.21,-328.01 962.01,-312 973.01,-310.4 984.77,-308.45 995.91,-306.49"/>
<polygon fill="#63b8ff" stroke="#63b8ff" points="644.44,-345.99 634.83,-350.45 645.13,-352.95 644.44,-345.99"/>
</a>
</g>
</g>
<!-- Node17 -->
<g id="Node000017" class="node">
<title>Node17</title>
<g id="a_Node000017"><a xlink:href="../../da/d84/_renderer_8cpp.html" target="_top" xlink:title=" ">
<polygon fill="white" stroke="#666666" points="436.64,-306 307.39,-306 307.39,-286 436.64,-286 436.64,-306"/>
<text xml:space="preserve" text-anchor="middle" x="372.01" y="-292.5" font-family="Helvetica,sans-Serif" font-size="10.00">src/renderer/Renderer.cpp</text>
</a>
</g>
</g>
<!-- Node10&#45;&gt;Node17 -->
<g id="edge28_Node000010_Node000017" class="edge">
<title>Node10&#45;&gt;Node17</title>
<g id="a_edge28_Node000010_Node000017"><a xlink:title=" ">
<path fill="none" stroke="#63b8ff" d="M524.09,-344.28C487.62,-332.94 435.08,-316.61 402.28,-306.41"/>
<polygon fill="#63b8ff" stroke="#63b8ff" points="522.82,-347.55 533.41,-347.18 524.9,-340.86 522.82,-347.55"/>
</a>
</g>
</g>
<!-- Node18 -->
<g id="Node000018" class="node">
<title>Node18</title>
<g id="a_Node000018"><a xlink:href="../../d5/d16/_shader_8cpp.html" target="_top" xlink:title=" ">
<polygon fill="white" stroke="#666666" points="759.14,-306 638.89,-306 638.89,-286 759.14,-286 759.14,-306"/>
<text xml:space="preserve" text-anchor="middle" x="699.01" y="-292.5" font-family="Helvetica,sans-Serif" font-size="10.00">src/renderer/Shader.cpp</text>
</a>
</g>
</g>
<!-- Node10&#45;&gt;Node18 -->
<g id="edge29_Node000010_Node000018" class="edge">
<title>Node10&#45;&gt;Node18</title>
<g id="a_edge29_Node000010_Node000018"><a xlink:title=" ">
<path fill="none" stroke="#63b8ff" d="M596.45,-342.92C621.67,-331.63 656.35,-316.1 678.22,-306.31"/>
<polygon fill="#63b8ff" stroke="#63b8ff" points="595.03,-339.73 587.33,-347.01 597.89,-346.11 595.03,-339.73"/>
</a>
</g>
</g>
<!-- Node19 -->
<g id="Node000019" class="node">
<title>Node19</title>
<g id="a_Node000019"><a xlink:href="../../df/df6/_vertex_buffer_8cpp.html" target="_top" xlink:title=" ">
<polygon fill="white" stroke="#666666" points="920.39,-306 777.64,-306 777.64,-286 920.39,-286 920.39,-306"/>
<text xml:space="preserve" text-anchor="middle" x="849.01" y="-292.5" font-family="Helvetica,sans-Serif" font-size="10.00">src/renderer/VertexBuffer.cpp</text>
</a>
</g>
</g>
<!-- Node10&#45;&gt;Node19 -->
<g id="edge31_Node000010_Node000019" class="edge">
<title>Node10&#45;&gt;Node19</title>
<g id="a_edge31_Node000010_Node000019"><a xlink:title=" ">
<path fill="none" stroke="#63b8ff" d="M620.72,-345.23C674.36,-333.9 754.45,-316.98 804.12,-306.48"/>
<polygon fill="#63b8ff" stroke="#63b8ff" points="620.24,-341.75 611.18,-347.25 621.69,-348.6 620.24,-341.75"/>
</a>
</g>
</g>
<!-- Node11&#45;&gt;Node2 -->
<g id="edge15_Node000011_Node000002" class="edge">
<title>Node11&#45;&gt;Node2</title>
<g id="a_edge15_Node000011_Node000002"><a xlink:title=" ">
<path fill="none" stroke="#63b8ff" d="M464.79,-281.72C445.33,-274.06 425.4,-262.19 414.01,-244 379.5,-188.87 411.39,-104.38 423.67,-76.37"/>
<polygon fill="#63b8ff" stroke="#63b8ff" points="463.48,-284.97 474.07,-285.05 465.84,-278.38 463.48,-284.97"/>
</a>
</g>
</g>
<!-- Node11&#45;&gt;Node5 -->
<g id="edge16_Node000011_Node000005" class="edge">
<title>Node11&#45;&gt;Node5</title>
<g id="a_edge16_Node000011_Node000005"><a xlink:title=" ">
<path fill="none" stroke="#63b8ff" d="M569.91,-282.74C607.35,-273.3 659.31,-259.3 704.01,-244 754.25,-226.81 811.48,-201.88 841.36,-188.44"/>
<polygon fill="#63b8ff" stroke="#63b8ff" points="569.1,-279.34 560.24,-285.16 570.79,-286.13 569.1,-279.34"/>
</a>
</g>
</g>
<!-- Node11&#45;&gt;Node9 -->
<g id="edge20_Node000011_Node000009" class="edge">
<title>Node11&#45;&gt;Node9</title>
<g id="a_edge20_Node000011_Node000009"><a xlink:title=" ">
<path fill="none" stroke="#63b8ff" d="M481.03,-281.9C453.12,-272.05 414.42,-257.92 381.01,-244 361.56,-235.9 357.36,-232.37 338.01,-224 255.61,-188.35 156.3,-149.83 110.88,-132.45"/>
<polygon fill="#63b8ff" stroke="#63b8ff" points="479.5,-285.07 490.1,-285.08 481.82,-278.47 479.5,-285.07"/>
</a>
</g>
</g>
<!-- Node12 -->
<g id="Node000012" class="node">
<title>Node12</title>
<g id="a_Node000012"><a xlink:href="../../d1/d91/_directory_window_8h.html" target="_top" xlink:title=" ">
<polygon fill="white" stroke="#666666" points="555.14,-244 422.89,-244 422.89,-224 555.14,-224 555.14,-244"/>
<text xml:space="preserve" text-anchor="middle" x="489.01" y="-230.5" font-family="Helvetica,sans-Serif" font-size="10.00">include/DirectoryWindow.h</text>
</a>
</g>
</g>
<!-- Node11&#45;&gt;Node12 -->
<g id="edge17_Node000011_Node000012" class="edge">
<title>Node11&#45;&gt;Node12</title>
<g id="a_edge17_Node000011_Node000012"><a xlink:title=" ">
<path fill="none" stroke="#63b8ff" d="M509.31,-275.6C504.03,-265.03 497.73,-252.44 493.57,-244.11"/>
<polygon fill="#63b8ff" stroke="#63b8ff" points="506.05,-276.89 513.65,-284.27 512.31,-273.76 506.05,-276.89"/>
</a>
</g>
</g>
<!-- Node13 -->
<g id="Node000013" class="node">
<title>Node13</title>
<g id="a_Node000013"><a xlink:href="../../da/d26/_texture_8cpp.html" target="_top" xlink:title=" ">
<polygon fill="white" stroke="#666666" points="694.89,-244 573.14,-244 573.14,-224 694.89,-224 694.89,-244"/>
<text xml:space="preserve" text-anchor="middle" x="634.01" y="-230.5" font-family="Helvetica,sans-Serif" font-size="10.00">src/renderer/Texture.cpp</text>
</a>
</g>
</g>
<!-- Node11&#45;&gt;Node13 -->
<g id="edge21_Node000011_Node000013" class="edge">
<title>Node11&#45;&gt;Node13</title>
<g id="a_edge21_Node000011_Node000013"><a xlink:title=" ">
<path fill="none" stroke="#63b8ff" d="M547.17,-280.31C568.7,-269.08 597.74,-253.93 616.17,-244.31"/>
<polygon fill="#63b8ff" stroke="#63b8ff" points="545.57,-277.2 538.32,-284.92 548.81,-283.4 545.57,-277.2"/>
</a>
</g>
</g>
<!-- Node12&#45;&gt;Node2 -->
<g id="edge18_Node000012_Node000002" class="edge">
<title>Node12&#45;&gt;Node2</title>
<g id="a_edge18_Node000012_Node000002"><a xlink:title=" ">
<path fill="none" stroke="#63b8ff" d="M481.65,-212.97C468.41,-176.92 441.03,-102.42 431.43,-76.3"/>
<polygon fill="#63b8ff" stroke="#63b8ff" points="478.3,-214 485.04,-222.18 484.87,-211.59 478.3,-214"/>
</a>
</g>
</g>
<!-- Node12&#45;&gt;Node5 -->
<g id="edge19_Node000012_Node000005" class="edge">
<title>Node12&#45;&gt;Node5</title>
<g id="a_edge19_Node000012_Node000005"><a xlink:title=" ">
<path fill="none" stroke="#63b8ff" d="M565.74,-221.89C635.39,-211.81 736.76,-197.13 801.02,-187.83"/>
<polygon fill="#63b8ff" stroke="#63b8ff" points="565.31,-218.42 555.91,-223.32 566.31,-225.35 565.31,-218.42"/>
</a>
</g>
</g>
<!-- Node14&#45;&gt;Node2 -->
<g id="edge23_Node000014_Node000002" class="edge">
<title>Node14&#45;&gt;Node2</title>
<g id="a_edge23_Node000014_Node000002"><a xlink:title=" ">
<path fill="none" stroke="#63b8ff" d="M174.14,-268.59C172.41,-254.53 172.63,-237.41 180.01,-224 226.34,-139.85 338.9,-94.5 395.04,-76.44"/>
<polygon fill="#63b8ff" stroke="#63b8ff" points="170.62,-268.75 175.7,-278.05 177.53,-267.61 170.62,-268.75"/>
</a>
</g>
</g>
<!-- Node14&#45;&gt;Node9 -->
<g id="edge24_Node000014_Node000009" class="edge">
<title>Node14&#45;&gt;Node9</title>
<g id="a_edge24_Node000014_Node000009"><a xlink:title=" ">
<path fill="none" stroke="#63b8ff" d="M163.23,-270.24C157.86,-262.01 152.01,-252.72 147.01,-244 123.73,-203.39 99.78,-152.8 90.28,-132.28"/>
<polygon fill="#63b8ff" stroke="#63b8ff" points="160.19,-271.98 168.63,-278.38 166.02,-268.11 160.19,-271.98"/>
</a>
</g>
</g>
<!-- Node14&#45;&gt;Node15 -->
<g id="edge25_Node000014_Node000015" class="edge">
<title>Node14&#45;&gt;Node15</title>
<g id="a_edge25_Node000014_Node000015"><a xlink:title=" ">
<path fill="none" stroke="#63b8ff" d="M209.37,-272.7C222.25,-262.92 236.66,-251.98 246.63,-244.41"/>
<polygon fill="#63b8ff" stroke="#63b8ff" points="207.41,-269.8 201.56,-278.63 211.64,-275.37 207.41,-269.8"/>
</a>
</g>
</g>
</g>
</svg>
