<?xml version="1.0" encoding="UTF-8" standalone="no"?>
<!DOCTYPE svg PUBLIC "-//W3C//DTD SVG 1.1//EN"
 "http://www.w3.org/Graphics/SVG/1.1/DTD/svg11.dtd">
<!-- Generated by graphviz version 2.43.0 (0)
 -->
<!-- Title: MarkerComponent Pages: 1 -->
<svg width="266pt" height="164pt"
 viewBox="0.00 0.00 266.00 164.00" xmlns="http://www.w3.org/2000/svg" xmlns:xlink="http://www.w3.org/1999/xlink">
<g id="graph0" class="graph" transform="scale(1 1) rotate(0) translate(4 160)">
<title>MarkerComponent</title>
<!-- Node1 -->
<g id="Node000001" class="node">
<title>Node1</title>
<g id="a_Node000001"><a xlink:title=" ">
<polygon fill="#999999" stroke="transparent" points="137.5,-49 36.5,-49 36.5,0 137.5,0 137.5,-49"/>
<text text-anchor="start" x="42" y="-36.5" font-family="Helvetica,sans-Serif" font-size="10.00">MarkerComponent</text>
<text text-anchor="start" x="85.5" y="-21.5" font-family="Helvetica,sans-Serif" font-size="10.00"> </text>
<text text-anchor="start" x="85.5" y="-6.5" font-family="Helvetica,sans-Serif" font-size="10.00"> </text>
<polygon fill="#666666" stroke="#666666" points="37,-31.5 37,-31.5 138,-31.5 138,-31.5 37,-31.5"/>
<polygon fill="#666666" stroke="#666666" points="37,-16.5 37,-16.5 138,-16.5 138,-16.5 37,-16.5"/>
<polygon fill="none" stroke="#666666" points="36.5,0 36.5,-49 137.5,-49 137.5,0 36.5,0"/>
</a>
</g>
</g>
<!-- Node2 -->
<g id="Node000002" class="node">
<title>Node2</title>
<g id="a_Node000002"><a xlink:title=" ">
<polygon fill="white" stroke="transparent" points="38,-156 0,-156 0,-107 38,-107 38,-156"/>
<text text-anchor="start" x="5" y="-143.5" font-family="Helvetica,sans-Serif" font-size="10.00">string</text>
<text text-anchor="start" x="17" y="-128.5" font-family="Helvetica,sans-Serif" font-size="10.00"> </text>
<text text-anchor="start" x="17" y="-113.5" font-family="Helvetica,sans-Serif" font-size="10.00"> </text>
<polygon fill="#666666" stroke="#666666" points="0,-138.5 0,-138.5 38,-138.5 38,-138.5 0,-138.5"/>
<polygon fill="#666666" stroke="#666666" points="0,-123.5 0,-123.5 38,-123.5 38,-123.5 0,-123.5"/>
<polygon fill="none" stroke="#666666" points="0,-107 0,-156 38,-156 38,-107 0,-107"/>
</a>
</g>
</g>
<!-- Node2&#45;&gt;Node1 -->
<g id="edge1_Node000001_Node000002" class="edge">
<title>Node2&#45;&gt;Node1</title>
<g id="a_edge1_Node000001_Node000002"><a xlink:title=" ">
<path fill="none" stroke="#63b8ff" d="M14.14,-106.75C12.81,-94.16 13.25,-78.89 20,-67 22.09,-63.32 24.65,-59.92 27.54,-56.79"/>
<polygon fill="none" stroke="#63b8ff" points="27.57,-56.76 29.31,-49.76 36.44,-48.67 34.7,-55.67 27.57,-56.76"/>
</a>
</g>
<text text-anchor="middle" x="77" y="-81" font-family="Helvetica,sans-Serif" font-size="10.00" fill="grey"> +ownerPeerUsername</text>
<text text-anchor="middle" x="77" y="-70" font-family="Helvetica,sans-Serif" font-size="10.00" fill="grey">+ownerUniqueId</text>
</g>
<!-- Node3 -->
<g id="Node000003" class="node">
<title>Node3</title>
<g id="a_Node000003"><a xlink:title=" ">
<polygon fill="white" stroke="transparent" points="172,-156 140,-156 140,-107 172,-107 172,-156"/>
<text text-anchor="start" x="145" y="-143.5" font-family="Helvetica,sans-Serif" font-size="10.00">bool</text>
<text text-anchor="start" x="154" y="-128.5" font-family="Helvetica,sans-Serif" font-size="10.00"> </text>
<text text-anchor="start" x="154" y="-113.5" font-family="Helvetica,sans-Serif" font-size="10.00"> </text>
<polygon fill="#666666" stroke="#666666" points="140,-138.5 140,-138.5 172,-138.5 172,-138.5 140,-138.5"/>
<polygon fill="#666666" stroke="#666666" points="140,-123.5 140,-123.5 172,-123.5 172,-123.5 140,-123.5"/>
<polygon fill="none" stroke="#666666" points="140,-107 140,-156 172,-156 172,-107 140,-107"/>
</a>
</g>
</g>
<!-- Node3&#45;&gt;Node1 -->
<g id="edge2_Node000001_Node000003" class="edge">
<title>Node3&#45;&gt;Node1</title>
<g id="a_edge2_Node000001_Node000003"><a xlink:title=" ">
<path fill="none" stroke="#63b8ff" d="M150.91,-106.85C147.47,-94.29 142.05,-79.02 134,-67 131.95,-63.93 129.61,-60.95 127.11,-58.09"/>
<polygon fill="none" stroke="#63b8ff" points="127.01,-57.99 119.96,-56.46 118.66,-49.36 125.71,-50.89 127.01,-57.99"/>
</a>
</g>
<text text-anchor="middle" x="201" y="-81" font-family="Helvetica,sans-Serif" font-size="10.00" fill="grey"> +allowAllPlayersMove</text>
<text text-anchor="middle" x="201" y="-70" font-family="Helvetica,sans-Serif" font-size="10.00" fill="grey">+locked</text>
</g>
</g>
</svg>
