<?xml version="1.0" encoding="UTF-8" standalone="no"?>
<!DOCTYPE svg PUBLIC "-//W3C//DTD SVG 1.1//EN"
 "http://www.w3.org/Graphics/SVG/1.1/DTD/svg11.dtd">
<!-- Generated by graphviz version 2.43.0 (0)
 -->
<!-- Title: include/network/NetworkUtilities.h Pages: 1 -->
<svg width="1246pt" height="137pt"
 viewBox="0.00 0.00 1246.00 137.00" xmlns="http://www.w3.org/2000/svg" xmlns:xlink="http://www.w3.org/1999/xlink">
<g id="graph0" class="graph" transform="scale(1 1) rotate(0) translate(4 133)">
<title>include/network/NetworkUtilities.h</title>
<!-- Node1 -->
<g id="Node000001" class="node">
<title>Node1</title>
<g id="a_Node000001"><a xlink:title=" ">
<polygon fill="#999999" stroke="#666666" points="620,-129 434,-129 434,-110 620,-110 620,-129"/>
<text text-anchor="middle" x="527" y="-117" font-family="Helvetica,sans-Serif" font-size="10.00">include/network/NetworkUtilities.h</text>
</a>
</g>
</g>
<!-- Node2 -->
<g id="Node000002" class="node">
<title>Node2</title>
<g id="a_Node000002"><a xlink:title=" ">
<polygon fill="#e0e0e0" stroke="#999999" points="60,-19 0,-19 0,0 60,0 60,-19"/>
<text text-anchor="middle" x="30" y="-7" font-family="Helvetica,sans-Serif" font-size="10.00">iostream</text>
</a>
</g>
</g>
<!-- Node1&#45;&gt;Node2 -->
<g id="edge1_Node000001_Node000002" class="edge">
<title>Node1&#45;&gt;Node2</title>
<g id="a_edge1_Node000001_Node000002"><a xlink:title=" ">
<path fill="none" stroke="#63b8ff" d="M433.8,-114.68C328.94,-109.32 165.83,-97.46 109,-74 83.47,-63.46 59.56,-41.98 44.87,-26.93"/>
<polygon fill="#63b8ff" stroke="#63b8ff" points="47.11,-24.21 37.7,-19.35 42.02,-29.02 47.11,-24.21"/>
</a>
</g>
</g>
<!-- Node3 -->
<g id="Node000003" class="node">
<title>Node3</title>
<g id="a_Node000003"><a xlink:title=" ">
<polygon fill="#e0e0e0" stroke="#999999" points="276,-19 232,-19 232,0 276,0 276,-19"/>
<text text-anchor="middle" x="254" y="-7" font-family="Helvetica,sans-Serif" font-size="10.00">string</text>
</a>
</g>
</g>
<!-- Node1&#45;&gt;Node3 -->
<g id="edge2_Node000001_Node000003" class="edge">
<title>Node1&#45;&gt;Node3</title>
<g id="a_edge2_Node000001_Node000003"><a xlink:title=" ">
<path fill="none" stroke="#63b8ff" d="M505.12,-109.84C456.78,-90.72 340.75,-44.82 284.97,-22.75"/>
<polygon fill="#63b8ff" stroke="#63b8ff" points="286.19,-19.47 275.6,-19.05 283.62,-25.98 286.19,-19.47"/>
</a>
</g>
</g>
<!-- Node4 -->
<g id="Node000004" class="node">
<title>Node4</title>
<g id="a_Node000004"><a xlink:title=" ">
<polygon fill="#e0e0e0" stroke="#999999" points="616,-74 574,-74 574,-55 616,-55 616,-74"/>
<text text-anchor="middle" x="595" y="-62" font-family="Helvetica,sans-Serif" font-size="10.00">array</text>
</a>
</g>
</g>
<!-- Node1&#45;&gt;Node4 -->
<g id="edge3_Node000001_Node000004" class="edge">
<title>Node1&#45;&gt;Node4</title>
<g id="a_edge3_Node000001_Node000004"><a xlink:title=" ">
<path fill="none" stroke="#63b8ff" d="M537.93,-109.98C548.08,-102.07 563.42,-90.11 575.65,-80.58"/>
<polygon fill="#63b8ff" stroke="#63b8ff" points="578.14,-83.08 583.88,-74.17 573.84,-77.56 578.14,-83.08"/>
</a>
</g>
</g>
<!-- Node5 -->
<g id="Node000005" class="node">
<title>Node5</title>
<g id="a_Node000005"><a xlink:title=" ">
<polygon fill="#e0e0e0" stroke="#999999" points="420,-19 362,-19 362,0 420,0 420,-19"/>
<text text-anchor="middle" x="391" y="-7" font-family="Helvetica,sans-Serif" font-size="10.00">memory</text>
</a>
</g>
</g>
<!-- Node1&#45;&gt;Node5 -->
<g id="edge4_Node000001_Node000005" class="edge">
<title>Node1&#45;&gt;Node5</title>
<g id="a_edge4_Node000001_Node000005"><a xlink:title=" ">
<path fill="none" stroke="#63b8ff" d="M515.61,-109.68C504.07,-100.74 485.75,-86.47 470,-74 449.28,-57.59 425.68,-38.58 409.72,-25.67"/>
<polygon fill="#63b8ff" stroke="#63b8ff" points="411.67,-22.75 401.69,-19.18 407.27,-28.19 411.67,-22.75"/>
</a>
</g>
</g>
<!-- Node6 -->
<g id="Node000006" class="node">
<title>Node6</title>
<g id="a_Node000006"><a xlink:href="../../d2/d09/PathManager_8h.html" target="_top" xlink:title=" ">
<polygon fill="white" stroke="#666666" points="224.5,-74 135.5,-74 135.5,-55 224.5,-55 224.5,-74"/>
<text text-anchor="middle" x="180" y="-62" font-family="Helvetica,sans-Serif" font-size="10.00">PathManager.h</text>
</a>
</g>
</g>
<!-- Node1&#45;&gt;Node6 -->
<g id="edge5_Node000001_Node000006" class="edge">
<title>Node1&#45;&gt;Node6</title>
<g id="a_edge5_Node000001_Node000006"><a xlink:title=" ">
<path fill="none" stroke="#63b8ff" d="M471.25,-109.98C406.15,-100.04 299.16,-83.7 234.57,-73.84"/>
<polygon fill="#63b8ff" stroke="#63b8ff" points="235,-70.36 224.58,-72.31 233.94,-77.28 235,-70.36"/>
</a>
</g>
</g>
<!-- Node8 -->
<g id="Node000008" class="node">
<title>Node8</title>
<g id="a_Node000008"><a xlink:title=" ">
<polygon fill="#e0e0e0" stroke="#999999" points="127.5,-19 78.5,-19 78.5,0 127.5,0 127.5,-19"/>
<text text-anchor="middle" x="103" y="-7" font-family="Helvetica,sans-Serif" font-size="10.00">cstdlib</text>
</a>
</g>
</g>
<!-- Node1&#45;&gt;Node8 -->
<g id="edge18_Node000001_Node000008" class="edge">
<title>Node1&#45;&gt;Node8</title>
<g id="a_edge18_Node000001_Node000008"><a xlink:title=" ">
<path fill="none" stroke="#63b8ff" d="M433.81,-119.24C330.48,-118.19 172.23,-110.39 126,-74 112.34,-63.25 106.79,-43.66 104.54,-29.07"/>
<polygon fill="#63b8ff" stroke="#63b8ff" points="108.01,-28.65 103.37,-19.12 101.06,-29.46 108.01,-28.65"/>
</a>
</g>
</g>
<!-- Node10 -->
<g id="Node000010" class="node">
<title>Node10</title>
<g id="a_Node000010"><a xlink:title=" ">
<polygon fill="#e0e0e0" stroke="#999999" points="708,-74 634,-74 634,-55 708,-55 708,-74"/>
<text text-anchor="middle" x="671" y="-62" font-family="Helvetica,sans-Serif" font-size="10.00">WinSock2.h</text>
</a>
</g>
</g>
<!-- Node1&#45;&gt;Node10 -->
<g id="edge11_Node000001_Node000010" class="edge">
<title>Node1&#45;&gt;Node10</title>
<g id="a_edge11_Node000001_Node000010"><a xlink:title=" ">
<path fill="none" stroke="#63b8ff" d="M550.14,-109.98C573.82,-101.27 610.87,-87.63 637.71,-77.75"/>
<polygon fill="#63b8ff" stroke="#63b8ff" points="639.27,-80.91 647.44,-74.17 636.85,-74.34 639.27,-80.91"/>
</a>
</g>
</g>
<!-- Node11 -->
<g id="Node000011" class="node">
<title>Node11</title>
<g id="a_Node000011"><a xlink:title=" ">
<polygon fill="#e0e0e0" stroke="#999999" points="797.5,-74 726.5,-74 726.5,-55 797.5,-55 797.5,-74"/>
<text text-anchor="middle" x="762" y="-62" font-family="Helvetica,sans-Serif" font-size="10.00">WS2tcpip.h</text>
</a>
</g>
</g>
<!-- Node1&#45;&gt;Node11 -->
<g id="edge12_Node000001_Node000011" class="edge">
<title>Node1&#45;&gt;Node11</title>
<g id="a_edge12_Node000001_Node000011"><a xlink:title=" ">
<path fill="none" stroke="#63b8ff" d="M564.76,-109.98C606.04,-100.67 672.2,-85.75 716.36,-75.79"/>
<polygon fill="#63b8ff" stroke="#63b8ff" points="717.28,-79.17 726.26,-73.56 715.74,-72.35 717.28,-79.17"/>
</a>
</g>
</g>
<!-- Node12 -->
<g id="Node000012" class="node">
<title>Node12</title>
<g id="a_Node000012"><a xlink:title=" ">
<polygon fill="#e0e0e0" stroke="#999999" points="886,-74 816,-74 816,-55 886,-55 886,-74"/>
<text text-anchor="middle" x="851" y="-62" font-family="Helvetica,sans-Serif" font-size="10.00">Windows.h</text>
</a>
</g>
</g>
<!-- Node1&#45;&gt;Node12 -->
<g id="edge13_Node000001_Node000012" class="edge">
<title>Node1&#45;&gt;Node12</title>
<g id="a_edge13_Node000001_Node000012"><a xlink:title=" ">
<path fill="none" stroke="#63b8ff" d="M584.2,-109.98C638.65,-101.74 723.13,-88.62 805.87,-74.15"/>
<polygon fill="#63b8ff" stroke="#63b8ff" points="806.71,-77.56 815.95,-72.38 805.5,-70.66 806.71,-77.56"/>
</a>
</g>
</g>
<!-- Node13 -->
<g id="Node000013" class="node">
<title>Node13</title>
<g id="a_Node000013"><a xlink:title=" ">
<polygon fill="#e0e0e0" stroke="#999999" points="966,-74 904,-74 904,-55 966,-55 966,-74"/>
<text text-anchor="middle" x="935" y="-62" font-family="Helvetica,sans-Serif" font-size="10.00">winhttp.h</text>
</a>
</g>
</g>
<!-- Node1&#45;&gt;Node13 -->
<g id="edge14_Node000001_Node000013" class="edge">
<title>Node1&#45;&gt;Node13</title>
<g id="a_edge14_Node000001_Node000013"><a xlink:title=" ">
<path fill="none" stroke="#63b8ff" d="M616.18,-109.96C688.49,-102.52 793.24,-90.56 893.6,-74.11"/>
<polygon fill="#63b8ff" stroke="#63b8ff" points="894.31,-77.54 903.61,-72.45 893.17,-70.63 894.31,-77.54"/>
</a>
</g>
</g>
<!-- Node14 -->
<g id="Node000014" class="node">
<title>Node14</title>
<g id="a_Node000014"><a xlink:title=" ">
<polygon fill="#e0e0e0" stroke="#999999" points="486,-19 438,-19 438,0 486,0 486,-19"/>
<text text-anchor="middle" x="462" y="-7" font-family="Helvetica,sans-Serif" font-size="10.00">mutex</text>
</a>
</g>
</g>
<!-- Node1&#45;&gt;Node14 -->
<g id="edge15_Node000001_Node000014" class="edge">
<title>Node1&#45;&gt;Node14</title>
<g id="a_edge15_Node000001_Node000014"><a xlink:title=" ">
<path fill="none" stroke="#63b8ff" d="M515.77,-109.73C505.89,-101.47 491.74,-88.27 483,-74 474.47,-60.08 468.98,-42.29 465.75,-29.08"/>
<polygon fill="#63b8ff" stroke="#63b8ff" points="469.16,-28.26 463.57,-19.25 462.32,-29.78 469.16,-28.26"/>
</a>
</g>
</g>
<!-- Node15 -->
<g id="Node000015" class="node">
<title>Node15</title>
<g id="a_Node000015"><a xlink:title=" ">
<polygon fill="#e0e0e0" stroke="#999999" points="1091.5,-74 984.5,-74 984.5,-55 1091.5,-55 1091.5,-74"/>
<text text-anchor="middle" x="1038" y="-62" font-family="Helvetica,sans-Serif" font-size="10.00">condition_variable</text>
</a>
</g>
</g>
<!-- Node1&#45;&gt;Node15 -->
<g id="edge16_Node000001_Node000015" class="edge">
<title>Node1&#45;&gt;Node15</title>
<g id="a_edge16_Node000001_Node000015"><a xlink:title=" ">
<path fill="none" stroke="#63b8ff" d="M620.2,-110.2C708.59,-102.11 845.38,-89.02 974.34,-74.04"/>
<polygon fill="#63b8ff" stroke="#63b8ff" points="974.87,-77.5 984.4,-72.86 974.06,-70.55 974.87,-77.5"/>
</a>
</g>
</g>
<!-- Node16 -->
<g id="Node000016" class="node">
<title>Node16</title>
<g id="a_Node000016"><a xlink:title=" ">
<polygon fill="#e0e0e0" stroke="#999999" points="554,-19 504,-19 504,0 554,0 554,-19"/>
<text text-anchor="middle" x="529" y="-7" font-family="Helvetica,sans-Serif" font-size="10.00">chrono</text>
</a>
</g>
</g>
<!-- Node1&#45;&gt;Node16 -->
<g id="edge17_Node000001_Node000016" class="edge">
<title>Node1&#45;&gt;Node16</title>
<g id="a_edge17_Node000001_Node000016"><a xlink:title=" ">
<path fill="none" stroke="#63b8ff" d="M515.82,-109.96C501.9,-98.21 480.91,-76.11 489,-55 493.24,-43.94 501.64,-33.91 509.64,-26.18"/>
<polygon fill="#63b8ff" stroke="#63b8ff" points="512.25,-28.55 517.36,-19.27 507.58,-23.33 512.25,-28.55"/>
</a>
</g>
</g>
<!-- Node17 -->
<g id="Node000017" class="node">
<title>Node17</title>
<g id="a_Node000017"><a xlink:href="../../dd/da4/Logger_8h.html" target="_top" xlink:title=" ">
<polygon fill="white" stroke="#666666" points="556,-74 498,-74 498,-55 556,-55 556,-74"/>
<text text-anchor="middle" x="527" y="-62" font-family="Helvetica,sans-Serif" font-size="10.00">Logger.h</text>
</a>
</g>
</g>
<!-- Node1&#45;&gt;Node17 -->
<g id="edge19_Node000001_Node000017" class="edge">
<title>Node1&#45;&gt;Node17</title>
<g id="a_edge19_Node000001_Node000017"><a xlink:title=" ">
<path fill="none" stroke="#63b8ff" d="M527,-109.75C527,-102.8 527,-92.85 527,-84.13"/>
<polygon fill="#63b8ff" stroke="#63b8ff" points="530.5,-84.09 527,-74.09 523.5,-84.09 530.5,-84.09"/>
</a>
</g>
</g>
<!-- Node24 -->
<g id="Node000024" class="node">
<title>Node24</title>
<g id="a_Node000024"><a xlink:title=" ">
<polygon fill="#e0e0e0" stroke="#999999" points="1238,-74 1110,-74 1110,-55 1238,-55 1238,-74"/>
<text text-anchor="middle" x="1174" y="-62" font-family="Helvetica,sans-Serif" font-size="10.00">rtc/peerconnection.hpp</text>
</a>
</g>
</g>
<!-- Node1&#45;&gt;Node24 -->
<g id="edge31_Node000001_Node000024" class="edge">
<title>Node1&#45;&gt;Node24</title>
<g id="a_edge31_Node000001_Node000024"><a xlink:title=" ">
<path fill="none" stroke="#63b8ff" d="M620.05,-112.39C731.5,-104.83 924.12,-90.96 1099.71,-74.09"/>
<polygon fill="#63b8ff" stroke="#63b8ff" points="1100.3,-77.55 1109.92,-73.1 1099.63,-70.58 1100.3,-77.55"/>
</a>
</g>
</g>
<!-- Node6&#45;&gt;Node2 -->
<g id="edge8_Node000006_Node000002" class="edge">
<title>Node6&#45;&gt;Node2</title>
<g id="a_edge8_Node000006_Node000002"><a xlink:title=" ">
<path fill="none" stroke="#63b8ff" d="M155.9,-54.98C131.12,-46.23 92.3,-32.51 64.31,-22.62"/>
<polygon fill="#63b8ff" stroke="#63b8ff" points="65.13,-19.2 54.54,-19.17 62.8,-25.8 65.13,-19.2"/>
</a>
</g>
</g>
<!-- Node6&#45;&gt;Node3 -->
<g id="edge7_Node000006_Node000003" class="edge">
<title>Node6&#45;&gt;Node3</title>
<g id="a_edge7_Node000006_Node000003"><a xlink:title=" ">
<path fill="none" stroke="#63b8ff" d="M191.89,-54.98C203.15,-46.92 220.29,-34.65 233.71,-25.03"/>
<polygon fill="#63b8ff" stroke="#63b8ff" points="235.8,-27.84 241.89,-19.17 231.73,-22.15 235.8,-27.84"/>
</a>
</g>
</g>
<!-- Node7 -->
<g id="Node000007" class="node">
<title>Node7</title>
<g id="a_Node000007"><a xlink:title=" ">
<polygon fill="#e0e0e0" stroke="#999999" points="214,-19 146,-19 146,0 214,0 214,-19"/>
<text text-anchor="middle" x="180" y="-7" font-family="Helvetica,sans-Serif" font-size="10.00">filesystem</text>
</a>
</g>
</g>
<!-- Node6&#45;&gt;Node7 -->
<g id="edge6_Node000006_Node000007" class="edge">
<title>Node6&#45;&gt;Node7</title>
<g id="a_edge6_Node000006_Node000007"><a xlink:title=" ">
<path fill="none" stroke="#63b8ff" d="M180,-54.75C180,-47.8 180,-37.85 180,-29.13"/>
<polygon fill="#63b8ff" stroke="#63b8ff" points="183.5,-29.09 180,-19.09 176.5,-29.09 183.5,-29.09"/>
</a>
</g>
</g>
<!-- Node6&#45;&gt;Node8 -->
<g id="edge9_Node000006_Node000008" class="edge">
<title>Node6&#45;&gt;Node8</title>
<g id="a_edge9_Node000006_Node000008"><a xlink:title=" ">
<path fill="none" stroke="#63b8ff" d="M167.63,-54.98C155.91,-46.92 138.08,-34.65 124.11,-25.03"/>
<polygon fill="#63b8ff" stroke="#63b8ff" points="125.82,-21.96 115.6,-19.17 121.85,-27.72 125.82,-21.96"/>
</a>
</g>
</g>
<!-- Node9 -->
<g id="Node000009" class="node">
<title>Node9</title>
<g id="a_Node000009"><a xlink:title=" ">
<polygon fill="#e0e0e0" stroke="#999999" points="343.5,-19 294.5,-19 294.5,0 343.5,0 343.5,-19"/>
<text text-anchor="middle" x="319" y="-7" font-family="Helvetica,sans-Serif" font-size="10.00">cctype</text>
</a>
</g>
</g>
<!-- Node6&#45;&gt;Node9 -->
<g id="edge10_Node000006_Node000009" class="edge">
<title>Node6&#45;&gt;Node9</title>
<g id="a_edge10_Node000006_Node000009"><a xlink:title=" ">
<path fill="none" stroke="#63b8ff" d="M202.33,-54.98C225.2,-46.27 260.96,-32.63 286.86,-22.75"/>
<polygon fill="#63b8ff" stroke="#63b8ff" points="288.16,-26 296.26,-19.17 285.67,-19.46 288.16,-26"/>
</a>
</g>
</g>
<!-- Node17&#45;&gt;Node3 -->
<g id="edge24_Node000017_Node000003" class="edge">
<title>Node17&#45;&gt;Node3</title>
<g id="a_edge24_Node000017_Node000003"><a xlink:title=" ">
<path fill="none" stroke="#63b8ff" d="M497.78,-58.96C453.91,-51.96 368.24,-37.6 286.27,-19.13"/>
<polygon fill="#63b8ff" stroke="#63b8ff" points="286.82,-15.67 276.29,-16.86 285.27,-22.49 286.82,-15.67"/>
</a>
</g>
</g>
<!-- Node17&#45;&gt;Node5 -->
<g id="edge27_Node000017_Node000005" class="edge">
<title>Node17&#45;&gt;Node5</title>
<g id="a_edge27_Node000017_Node000005"><a xlink:title=" ">
<path fill="none" stroke="#63b8ff" d="M505.15,-54.98C482.88,-46.3 448.1,-32.75 422.78,-22.88"/>
<polygon fill="#63b8ff" stroke="#63b8ff" points="423.84,-19.54 413.25,-19.17 421.29,-26.06 423.84,-19.54"/>
</a>
</g>
</g>
<!-- Node17&#45;&gt;Node9 -->
<g id="edge30_Node000017_Node000009" class="edge">
<title>Node17&#45;&gt;Node9</title>
<g id="a_edge30_Node000017_Node000009"><a xlink:title=" ">
<path fill="none" stroke="#63b8ff" d="M497.64,-56.02C459.73,-46.36 393.85,-29.57 353.57,-19.31"/>
<polygon fill="#63b8ff" stroke="#63b8ff" points="354.22,-15.86 343.66,-16.78 352.49,-22.65 354.22,-15.86"/>
</a>
</g>
</g>
<!-- Node17&#45;&gt;Node14 -->
<g id="edge20_Node000017_Node000014" class="edge">
<title>Node17&#45;&gt;Node14</title>
<g id="a_edge20_Node000017_Node000014"><a xlink:title=" ">
<path fill="none" stroke="#63b8ff" d="M516.56,-54.98C506.85,-47.07 492.18,-35.11 480.5,-25.58"/>
<polygon fill="#63b8ff" stroke="#63b8ff" points="482.6,-22.78 472.63,-19.17 478.17,-28.2 482.6,-22.78"/>
</a>
</g>
</g>
<!-- Node17&#45;&gt;Node16 -->
<g id="edge29_Node000017_Node000016" class="edge">
<title>Node17&#45;&gt;Node16</title>
<g id="a_edge29_Node000017_Node000016"><a xlink:title=" ">
<path fill="none" stroke="#63b8ff" d="M527.33,-54.75C527.59,-47.8 527.97,-37.85 528.3,-29.13"/>
<polygon fill="#63b8ff" stroke="#63b8ff" points="531.8,-29.21 528.68,-19.09 524.8,-28.95 531.8,-29.21"/>
</a>
</g>
</g>
<!-- Node18 -->
<g id="Node000018" class="node">
<title>Node18</title>
<g id="a_Node000018"><a xlink:title=" ">
<polygon fill="#e0e0e0" stroke="#999999" points="665.5,-19 572.5,-19 572.5,0 665.5,0 665.5,-19"/>
<text text-anchor="middle" x="619" y="-7" font-family="Helvetica,sans-Serif" font-size="10.00">unordered_map</text>
</a>
</g>
</g>
<!-- Node17&#45;&gt;Node18 -->
<g id="edge21_Node000017_Node000018" class="edge">
<title>Node17&#45;&gt;Node18</title>
<g id="a_edge21_Node000017_Node000018"><a xlink:title=" ">
<path fill="none" stroke="#63b8ff" d="M541.78,-54.98C556.18,-46.69 578.31,-33.94 595.19,-24.22"/>
<polygon fill="#63b8ff" stroke="#63b8ff" points="597.03,-27.19 603.95,-19.17 593.54,-21.13 597.03,-27.19"/>
</a>
</g>
</g>
<!-- Node19 -->
<g id="Node000019" class="node">
<title>Node19</title>
<g id="a_Node000019"><a xlink:title=" ">
<polygon fill="#e0e0e0" stroke="#999999" points="730.5,-19 683.5,-19 683.5,0 730.5,0 730.5,-19"/>
<text text-anchor="middle" x="707" y="-7" font-family="Helvetica,sans-Serif" font-size="10.00">deque</text>
</a>
</g>
</g>
<!-- Node17&#45;&gt;Node19 -->
<g id="edge22_Node000017_Node000019" class="edge">
<title>Node17&#45;&gt;Node19</title>
<g id="a_edge22_Node000017_Node000019"><a xlink:title=" ">
<path fill="none" stroke="#63b8ff" d="M555.92,-54.98C587.98,-45.54 639.63,-30.34 673.44,-20.38"/>
<polygon fill="#63b8ff" stroke="#63b8ff" points="674.72,-23.65 683.32,-17.47 672.74,-16.94 674.72,-23.65"/>
</a>
</g>
</g>
<!-- Node20 -->
<g id="Node000020" class="node">
<title>Node20</title>
<g id="a_Node000020"><a xlink:title=" ">
<polygon fill="#e0e0e0" stroke="#999999" points="795.5,-19 748.5,-19 748.5,0 795.5,0 795.5,-19"/>
<text text-anchor="middle" x="772" y="-7" font-family="Helvetica,sans-Serif" font-size="10.00">vector</text>
</a>
</g>
</g>
<!-- Node17&#45;&gt;Node20 -->
<g id="edge23_Node000017_Node000020" class="edge">
<title>Node17&#45;&gt;Node20</title>
<g id="a_edge23_Node000017_Node000020"><a xlink:title=" ">
<path fill="none" stroke="#63b8ff" d="M556.03,-56.95C559.06,-56.29 562.09,-55.62 565,-55 639.45,-39.02 660.96,-37.32 738.07,-19.36"/>
<polygon fill="#63b8ff" stroke="#63b8ff" points="739.34,-22.66 748.27,-16.96 737.74,-15.84 739.34,-22.66"/>
</a>
</g>
</g>
<!-- Node21 -->
<g id="Node000021" class="node">
<title>Node21</title>
<g id="a_Node000021"><a xlink:title=" ">
<polygon fill="#e0e0e0" stroke="#999999" points="878.5,-19 813.5,-19 813.5,0 878.5,0 878.5,-19"/>
<text text-anchor="middle" x="846" y="-7" font-family="Helvetica,sans-Serif" font-size="10.00">functional</text>
</a>
</g>
</g>
<!-- Node17&#45;&gt;Node21 -->
<g id="edge25_Node000017_Node000021" class="edge">
<title>Node17&#45;&gt;Node21</title>
<g id="a_edge25_Node000017_Node000021"><a xlink:title=" ">
<path fill="none" stroke="#63b8ff" d="M556,-56.79C559.03,-56.15 562.08,-55.55 565,-55 667.92,-35.79 697.12,-37.81 803.51,-19.18"/>
<polygon fill="#63b8ff" stroke="#63b8ff" points="804.12,-22.63 813.36,-17.44 802.9,-15.74 804.12,-22.63"/>
</a>
</g>
</g>
<!-- Node22 -->
<g id="Node000022" class="node">
<title>Node22</title>
<g id="a_Node000022"><a xlink:title=" ">
<polygon fill="#e0e0e0" stroke="#999999" points="961,-19 897,-19 897,0 961,0 961,-19"/>
<text text-anchor="middle" x="929" y="-7" font-family="Helvetica,sans-Serif" font-size="10.00">algorithm</text>
</a>
</g>
</g>
<!-- Node17&#45;&gt;Node22 -->
<g id="edge26_Node000017_Node000022" class="edge">
<title>Node17&#45;&gt;Node22</title>
<g id="a_edge26_Node000017_Node000022"><a xlink:title=" ">
<path fill="none" stroke="#63b8ff" d="M556.4,-56.59C559.3,-56.01 562.2,-55.47 565,-55 704.27,-31.73 743.59,-41.23 886.79,-19.05"/>
<polygon fill="#63b8ff" stroke="#63b8ff" points="887.49,-22.48 896.82,-17.47 886.4,-15.56 887.49,-22.48"/>
</a>
</g>
</g>
<!-- Node23 -->
<g id="Node000023" class="node">
<title>Node23</title>
<g id="a_Node000023"><a xlink:title=" ">
<polygon fill="#e0e0e0" stroke="#999999" points="1036.5,-19 979.5,-19 979.5,0 1036.5,0 1036.5,-19"/>
<text text-anchor="middle" x="1008" y="-7" font-family="Helvetica,sans-Serif" font-size="10.00">ostream</text>
</a>
</g>
</g>
<!-- Node17&#45;&gt;Node23 -->
<g id="edge28_Node000017_Node000023" class="edge">
<title>Node17&#45;&gt;Node23</title>
<g id="a_edge28_Node000017_Node000023"><a xlink:title=" ">
<path fill="none" stroke="#63b8ff" d="M556.39,-56.53C559.29,-55.96 562.19,-55.44 565,-55 740.34,-27.72 789.67,-46.09 969.39,-18.86"/>
<polygon fill="#63b8ff" stroke="#63b8ff" points="970.09,-22.29 979.44,-17.31 969.03,-15.37 970.09,-22.29"/>
</a>
</g>
</g>
</g>
</svg>
