<?xml version="1.0" encoding="UTF-8" standalone="no"?>
<!DOCTYPE svg PUBLIC "-//W3C//DTD SVG 1.1//EN"
 "http://www.w3.org/Graphics/SVG/1.1/DTD/svg11.dtd">
<!-- Generated by graphviz version 14.0.2 (20251019.1705)
 -->
<!-- Title: AssetIO::importFromPath Pages: 1 -->
<svg width="702pt" height="72pt"
 viewBox="0.00 0.00 702.00 72.00" xmlns="http://www.w3.org/2000/svg" xmlns:xlink="http://www.w3.org/1999/xlink">
<g id="graph0" class="graph" transform="scale(1 1) rotate(0) translate(4 68)">
<title>AssetIO::importFromPath</title>
<!-- Node1 -->
<g id="Node000001" class="node">
<title>Node1</title>
<g id="a_Node000001"><a xlink:title=" ">
<polygon fill="#999999" stroke="#666666" points="694.25,-45 566.5,-45 566.5,-25 694.25,-25 694.25,-45"/>
<text xml:space="preserve" text-anchor="middle" x="630.38" y="-31.5" font-family="Helvetica,sans-Serif" font-size="10.00">AssetIO::importFromPath</text>
</a>
</g>
</g>
<!-- Node2 -->
<g id="Node000002" class="node">
<title>Node2</title>
<g id="a_Node000002"><a xlink:href="../../d3/d5e/namespace_asset_i_o.html#a0fd129212ac4835f913af0761824df9a" target="_top" xlink:title=" ">
<polygon fill="white" stroke="#666666" points="518.5,-64 383.25,-64 383.25,-44 518.5,-44 518.5,-64"/>
<text xml:space="preserve" text-anchor="middle" x="450.88" y="-50.5" font-family="Helvetica,sans-Serif" font-size="10.00">AssetIO::importFromPicker</text>
</a>
</g>
</g>
<!-- Node1&#45;&gt;Node2 -->
<g id="edge1_Node000001_Node000002" class="edge">
<title>Node1&#45;&gt;Node2</title>
<g id="a_edge1_Node000001_Node000002"><a xlink:title=" ">
<path fill="none" stroke="#63b8ff" d="M554.74,-42.99C542.81,-44.27 530.52,-45.58 518.78,-46.84"/>
<polygon fill="#63b8ff" stroke="#63b8ff" points="554.97,-46.48 564.54,-41.94 554.22,-39.52 554.97,-46.48"/>
</a>
</g>
</g>
<!-- Node3 -->
<g id="Node000003" class="node">
<title>Node3</title>
<g id="a_Node000003"><a xlink:href="../../d3/d5e/namespace_asset_i_o.html#ad87dd90acfa0487b69d4a53c32e1940d" target="_top" xlink:title=" ">
<polygon fill="white" stroke="#666666" points="530.5,-26 371.25,-26 371.25,-6 530.5,-6 530.5,-26"/>
<text xml:space="preserve" text-anchor="middle" x="450.88" y="-12.5" font-family="Helvetica,sans-Serif" font-size="10.00">AssetIO::importManyFromPicker</text>
</a>
</g>
</g>
<!-- Node1&#45;&gt;Node3 -->
<g id="edge2_Node000001_Node000003" class="edge">
<title>Node1&#45;&gt;Node3</title>
<g id="a_edge2_Node000001_Node000003"><a xlink:title=" ">
<path fill="none" stroke="#63b8ff" d="M554.61,-27C546.7,-26.15 538.65,-25.29 530.7,-24.44"/>
<polygon fill="#63b8ff" stroke="#63b8ff" points="554.22,-30.48 564.54,-28.06 554.97,-23.52 554.22,-30.48"/>
</a>
</g>
</g>
<!-- Node4 -->
<g id="Node000004" class="node">
<title>Node4</title>
<g id="a_Node000004"><a xlink:href="../../d4/d97/class_application_handler.html#a98e49f0d6038bf4caeed77b4d03b003c" target="_top" xlink:title=" ">
<polygon fill="white" stroke="#666666" points="335.25,-32 226.25,-32 226.25,0 335.25,0 335.25,-32"/>
<text xml:space="preserve" text-anchor="start" x="234.25" y="-18.5" font-family="Helvetica,sans-Serif" font-size="10.00">ApplicationHandler</text>
<text xml:space="preserve" text-anchor="middle" x="280.75" y="-6.5" font-family="Helvetica,sans-Serif" font-size="10.00">::renderMainMenuBar</text>
</a>
</g>
</g>
<!-- Node3&#45;&gt;Node4 -->
<g id="edge3_Node000003_Node000004" class="edge">
<title>Node3&#45;&gt;Node4</title>
<g id="a_edge3_Node000003_Node000004"><a xlink:title=" ">
<path fill="none" stroke="#63b8ff" d="M359.84,-16C351.5,-16 343.24,-16 335.38,-16"/>
<polygon fill="#63b8ff" stroke="#63b8ff" points="359.71,-19.5 369.71,-16 359.71,-12.5 359.71,-19.5"/>
</a>
</g>
</g>
<!-- Node5 -->
<g id="Node000005" class="node">
<title>Node5</title>
<g id="a_Node000005"><a xlink:href="../../d4/d97/class_application_handler.html#afaf00f4f20eca3fec59f8f02f76ef2ce" target="_top" xlink:title=" ">
<polygon fill="white" stroke="#666666" points="190.25,-26 73,-26 73,-6 190.25,-6 190.25,-26"/>
<text xml:space="preserve" text-anchor="middle" x="131.62" y="-12.5" font-family="Helvetica,sans-Serif" font-size="10.00">ApplicationHandler::run</text>
</a>
</g>
</g>
<!-- Node4&#45;&gt;Node5 -->
<g id="edge4_Node000004_Node000005" class="edge">
<title>Node4&#45;&gt;Node5</title>
<g id="a_edge4_Node000004_Node000005"><a xlink:title=" ">
<path fill="none" stroke="#63b8ff" d="M214.32,-16C206.39,-16 198.34,-16 190.53,-16"/>
<polygon fill="#63b8ff" stroke="#63b8ff" points="214.29,-19.5 224.29,-16 214.29,-12.5 214.29,-19.5"/>
</a>
</g>
</g>
<!-- Node6 -->
<g id="Node000006" class="node">
<title>Node6</title>
<g id="a_Node000006"><a xlink:href="../../df/d0a/main_8cpp.html#ae66f6b31b5ad750f1fe042a706a4e3d4" target="_top" xlink:title=" ">
<polygon fill="white" stroke="#666666" points="37,-26 0,-26 0,-6 37,-6 37,-26"/>
<text xml:space="preserve" text-anchor="middle" x="18.5" y="-12.5" font-family="Helvetica,sans-Serif" font-size="10.00">main</text>
</a>
</g>
</g>
<!-- Node5&#45;&gt;Node6 -->
<g id="edge5_Node000005_Node000006" class="edge">
<title>Node5&#45;&gt;Node6</title>
<g id="a_edge5_Node000005_Node000006"><a xlink:title=" ">
<path fill="none" stroke="#63b8ff" d="M61.44,-16C52.63,-16 44.31,-16 37.44,-16"/>
<polygon fill="#63b8ff" stroke="#63b8ff" points="61.27,-19.5 71.27,-16 61.27,-12.5 61.27,-19.5"/>
</a>
</g>
</g>
</g>
</svg>
