<?xml version="1.0" encoding="UTF-8" standalone="no"?>
<!DOCTYPE svg PUBLIC "-//W3C//DTD SVG 1.1//EN"
 "http://www.w3.org/Graphics/SVG/1.1/DTD/svg11.dtd">
<!-- Generated by graphviz version 14.0.2 (20251019.1705)
 -->
<!-- Title: AssetIO::importFromPath Pages: 1 -->
<!--zoomable 123 -->

<svg id="main" version="1.1" xmlns="http://www.w3.org/2000/svg" xmlns:xlink="http://www.w3.org/1999/xlink" xml:space="preserve" onload="init(evt)">
<style type="text/css"><![CDATA[
.node, .edge {opacity: 0.7;}
.node.selected, .edge.selected {opacity: 1;}
.edge:hover path { stroke: red; }
.edge:hover polygon { stroke: red; fill: red; }
]]></style>

<defs>
  <circle id="rim" cx="0" cy="0" r="7"/>
  <circle id="rim2" cx="0" cy="0" r="3.5"/>
  <g id="zoomPlus">
    <use xlink:href="#rim" fill="#404040"><set attributeName="fill" to="#808080" begin="zoomplus.mouseover" end="zoomplus.mouseout"/></use>
    <path d="M-4,0h8M0,-4v8" fill="none" stroke="white" stroke-width="1.5" pointer-events="none"/>
  </g>
  <g id="zoomMin">
    <use xlink:href="#rim" fill="#404040"><set attributeName="fill" to="#808080" begin="zoomminus.mouseover" end="zoomminus.mouseout"/></use>
    <path d="M-4,0h8" fill="none" stroke="white" stroke-width="1.5" pointer-events="none"/>
  </g>
  <g id="arrowUp" transform="translate(30 24)">
    <use xlink:href="#rim"/>
    <path pointer-events="none" fill="none" stroke="white" stroke-width="1.5" d="M0,-3.0v7 M-2.5,-0.5L0,-3.0L2.5,-0.5"/>
  </g>
  <g id="arrowRight" transform="rotate(90) translate(36 -43)">
    <use xlink:href="#rim"/>
    <path pointer-events="none" fill="none" stroke="white" stroke-width="1.5" d="M0,-3.0v7 M-2.5,-0.5L0,-3.0L2.5,-0.5"/>
  </g>
  <g id="arrowDown" transform="rotate(180) translate(-30 -48)">
    <use xlink:href="#rim"/>
    <path pointer-events="none" fill="none" stroke="white" stroke-width="1.5" d="M0,-3.0v7 M-2.5,-0.5L0,-3.0L2.5,-0.5"/>
  </g>
  <g id="arrowLeft" transform="rotate(270) translate(-36 17)">
    <use xlink:href="#rim"/>
    <path pointer-events="none" fill="none" stroke="white" stroke-width="1.5" d="M0,-3.0v7 M-2.5,-0.5L0,-3.0L2.5,-0.5"/>
  </g>
  <g id="resetDef">
    <use xlink:href="#rim2" fill="#404040"><set attributeName="fill" to="#808080" begin="reset.mouseover" end="reset.mouseout"/></use>
  </g>
</defs>
<script type="application/ecmascript">
var viewWidth = 668;
var viewHeight = 123;
var sectionId = 'dynsection-4';
</script>
<script type="application/ecmascript" xlink:href="../../svg.min.js"/>
<svg id="graph" class="graph">
<g id="viewport">
<title>AssetIO::importFromPath</title>
<!-- Node1 -->
<g id="Node000001" class="node">
<title>Node1</title>
<g id="a_Node000001"><a xlink:title=" ">
<polygon fill="#999999" stroke="#666666" points="127.75,-58 0,-58 0,-38 127.75,-38 127.75,-58"/>
<text xml:space="preserve" text-anchor="middle" x="63.88" y="-44.5" font-family="Helvetica,sans-Serif" font-size="10.00">AssetIO::importFromPath</text>
</a>
</g>
</g>
<!-- Node2 -->
<g id="Node000002" class="node">
<title>Node2</title>
<g id="a_Node000002"><a xlink:href="../../d3/d5e/namespace_asset_i_o.html#a8f3732300c549d06588e8fb8e0b08c4b" target="_top" xlink:title=" ">
<polygon fill="white" stroke="#666666" points="270.12,-96 170.12,-96 170.12,-76 270.12,-76 270.12,-96"/>
<text xml:space="preserve" text-anchor="middle" x="220.12" y="-82.5" font-family="Helvetica,sans-Serif" font-size="10.00">AssetIO::assetsDir</text>
</a>
</g>
</g>
<!-- Node1&#45;&gt;Node2 -->
<g id="edge1_Node000001_Node000002" class="edge">
<title>Node1&#45;&gt;Node2</title>
<g id="a_edge1_Node000001_Node000002"><a xlink:title=" ">
<path fill="none" stroke="#63b8ff" d="M107.43,-58.48C125.47,-62.93 146.69,-68.16 165.77,-72.85"/>
<polygon fill="#63b8ff" stroke="#63b8ff" points="164.69,-76.19 175.24,-75.19 166.36,-69.4 164.69,-76.19"/>
</a>
</g>
</g>
<!-- Node6 -->
<g id="Node000006" class="node">
<title>Node6</title>
<g id="a_Node000006"><a xlink:href="../../d3/d5e/namespace_asset_i_o.html#acf8b171b169e716e2c2fbf610f8ef1b2" target="_top" xlink:title=" ">
<polygon fill="white" stroke="#666666" points="263.38,-58 176.88,-58 176.88,-38 263.38,-38 263.38,-58"/>
<text xml:space="preserve" text-anchor="middle" x="220.12" y="-44.5" font-family="Helvetica,sans-Serif" font-size="10.00">AssetIO::slugify</text>
</a>
</g>
</g>
<!-- Node1&#45;&gt;Node6 -->
<g id="edge6_Node000001_Node000006" class="edge">
<title>Node1&#45;&gt;Node6</title>
<g id="a_edge6_Node000001_Node000006"><a xlink:title=" ">
<path fill="none" stroke="#63b8ff" d="M128.06,-48C140.42,-48 153.27,-48 165.29,-48"/>
<polygon fill="#63b8ff" stroke="#63b8ff" points="165,-51.5 175,-48 165,-44.5 165,-51.5"/>
</a>
</g>
</g>
<!-- Node7 -->
<g id="Node000007" class="node">
<title>Node7</title>
<g id="a_Node000007"><a xlink:href="../../d3/d5e/namespace_asset_i_o.html#a8eaed1f8d660f69ca123e48b89432ef8" target="_top" xlink:title=" ">
<polygon fill="white" stroke="#666666" points="276.5,-20 163.75,-20 163.75,0 276.5,0 276.5,-20"/>
<text xml:space="preserve" text-anchor="middle" x="220.12" y="-6.5" font-family="Helvetica,sans-Serif" font-size="10.00">AssetIO::uniqueName</text>
</a>
</g>
</g>
<!-- Node1&#45;&gt;Node7 -->
<g id="edge7_Node000001_Node000007" class="edge">
<title>Node1&#45;&gt;Node7</title>
<g id="a_edge7_Node000001_Node000007"><a xlink:title=" ">
<path fill="none" stroke="#63b8ff" d="M107.43,-37.52C125.47,-33.07 146.69,-27.84 165.77,-23.15"/>
<polygon fill="#63b8ff" stroke="#63b8ff" points="166.36,-26.6 175.24,-20.81 164.69,-19.81 166.36,-26.6"/>
</a>
</g>
</g>
<!-- Node3 -->
<g id="Node000003" class="node">
<title>Node3</title>
<g id="a_Node000003"><a xlink:href="../../de/d2f/class_path_manager.html#ae75b72eb67617d77136a829eb73c7e8f" target="_top" xlink:title=" ">
<polygon fill="white" stroke="#666666" points="455.62,-115 318.12,-115 318.12,-95 455.62,-95 455.62,-115"/>
<text xml:space="preserve" text-anchor="middle" x="386.88" y="-101.5" font-family="Helvetica,sans-Serif" font-size="10.00">PathManager::getMapsPath</text>
</a>
</g>
</g>
<!-- Node2&#45;&gt;Node3 -->
<g id="edge2_Node000002_Node000003" class="edge">
<title>Node2&#45;&gt;Node3</title>
<g id="a_edge2_Node000002_Node000003"><a xlink:title=" ">
<path fill="none" stroke="#63b8ff" d="M270.56,-91.7C281.95,-93.01 294.35,-94.44 306.65,-95.86"/>
<polygon fill="#63b8ff" stroke="#63b8ff" points="306.06,-99.32 316.39,-96.99 306.86,-92.36 306.06,-99.32"/>
</a>
</g>
</g>
<!-- Node5 -->
<g id="Node000005" class="node">
<title>Node5</title>
<g id="a_Node000005"><a xlink:href="../../de/d2f/class_path_manager.html#a220ff032714c927e1a2a8ea81d863331" target="_top" xlink:title=" ">
<polygon fill="white" stroke="#666666" points="461.25,-77 312.5,-77 312.5,-57 461.25,-57 461.25,-77"/>
<text xml:space="preserve" text-anchor="middle" x="386.88" y="-63.5" font-family="Helvetica,sans-Serif" font-size="10.00">PathManager::getMarkersPath</text>
</a>
</g>
</g>
<!-- Node2&#45;&gt;Node5 -->
<g id="edge4_Node000002_Node000005" class="edge">
<title>Node2&#45;&gt;Node5</title>
<g id="a_edge4_Node000002_Node000005"><a xlink:title=" ">
<path fill="none" stroke="#63b8ff" d="M270.56,-80.3C280.16,-79.19 290.48,-78 300.86,-76.8"/>
<polygon fill="#63b8ff" stroke="#63b8ff" points="301.07,-80.3 310.61,-75.68 300.27,-73.35 301.07,-80.3"/>
</a>
</g>
</g>
<!-- Node4 -->
<g id="Node000004" class="node">
<title>Node4</title>
<g id="a_Node000004"><a xlink:href="../../de/d2f/class_path_manager.html#a467b459b77c73cbc7544551b53911fcd" target="_top" xlink:title=" ">
<polygon fill="white" stroke="#666666" points="660.25,-96 497.25,-96 497.25,-76 660.25,-76 660.25,-96"/>
<text xml:space="preserve" text-anchor="middle" x="578.75" y="-82.5" font-family="Helvetica,sans-Serif" font-size="10.00">PathManager::getExecutableRoot</text>
</a>
</g>
</g>
<!-- Node3&#45;&gt;Node4 -->
<g id="edge3_Node000003_Node000004" class="edge">
<title>Node3&#45;&gt;Node4</title>
<g id="a_edge3_Node000003_Node000004"><a xlink:title=" ">
<path fill="none" stroke="#63b8ff" d="M455.89,-98.19C465.55,-97.23 475.62,-96.22 485.65,-95.22"/>
<polygon fill="#63b8ff" stroke="#63b8ff" points="485.82,-98.72 495.42,-94.24 485.13,-91.75 485.82,-98.72"/>
</a>
</g>
</g>
<!-- Node5&#45;&gt;Node4 -->
<g id="edge5_Node000005_Node000004" class="edge">
<title>Node5&#45;&gt;Node4</title>
<g id="a_edge5_Node000005_Node000004"><a xlink:title=" ">
<path fill="none" stroke="#63b8ff" d="M461.56,-74.37C469.42,-75.16 477.49,-75.97 485.54,-76.77"/>
<polygon fill="#63b8ff" stroke="#63b8ff" points="485.06,-80.24 495.36,-77.76 485.76,-73.28 485.06,-80.24"/>
</a>
</g>
</g>
</g>
</svg>

<g id="navigator" transform="translate(0 0)" fill="#404254">
  <rect fill="#f2f5e9" fill-opacity="0.5" stroke="#606060" stroke-width=".5" x="0" y="0" width="60" height="60"/>
  <use id="zoomplus" xlink:href="#zoomPlus" x="17" y="9" onmousedown="handleZoom(evt,'in')"/>
  <use id="zoomminus" xlink:href="#zoomMin" x="42" y="9" onmousedown="handleZoom(evt,'out')"/>
  <use id="reset" xlink:href="#resetDef" x="30" y="36" onmousedown="handleReset()"/>
   <use id="arrowup" xlink:href="#arrowUp" x="0" y="0" onmousedown="handlePan(0,-1)"/>
  <use id="arrowright" xlink:href="#arrowRight" x="0" y="0" onmousedown="handlePan(1,0)"/>
  <use id="arrowdown" xlink:href="#arrowDown" x="0" y="0" onmousedown="handlePan(0,1)"/>
  <use id="arrowleft" xlink:href="#arrowLeft" x="0" y="0" onmousedown="handlePan(-1,0)"/>
</g>
<svg viewBox="0 0 15 15" width="100%" height="30px" preserveAspectRatio="xMaxYMin meet">
 <g id="arrow_out" transform="scale(0.3 0.3)">
  <a xlink:href="namespace_asset_i_o_a2dde48f62f629e1a03ca0835f8a80908_cgraph_org.svg" target="_base">
   <rect id="button" ry="5" rx="5" y="6" x="6" height="38" width="38"
        fill="#f2f5e9" fill-opacity="0.5" stroke="#606060" stroke-width="1.0"/>
   <path id="arrow"
     d="M 11.500037,31.436501 C 11.940474,20.09759 22.043105,11.32322 32.158766,21.979434 L 37.068811,17.246167 C 37.068811,17.246167 37.088388,32 37.088388,32 L 22.160133,31.978069 C 22.160133,31.978069 26.997745,27.140456 26.997745,27.140456 C 18.528582,18.264221 13.291696,25.230495 11.500037,31.436501 z"
     style="fill:#404040;"/>
  </a>
 </g>
</svg>

<style type='text/css'>
<![CDATA[
[data-mouse-over-selected='false'] { opacity: 0.7; }
[data-mouse-over-selected='true']  { opacity: 1.0; }
]]>
</style>
<script type="application/ecmascript"><![CDATA[
document.addEventListener('DOMContentLoaded', (event) => {
  highlightEdges();
  highlightAdjacentNodes();
});
]]></script>
</svg>
