<?xml version="1.0" encoding="UTF-8" standalone="no"?>
<!DOCTYPE svg PUBLIC "-//W3C//DTD SVG 1.1//EN"
 "http://www.w3.org/Graphics/SVG/1.1/DTD/svg11.dtd">
<!-- Generated by graphviz version 14.0.2 (20251019.1705)
 -->
<!-- Title: AssetIO::importFromPicker Pages: 1 -->
<!--zoomable 161 -->

<svg id="main" version="1.1" xmlns="http://www.w3.org/2000/svg" xmlns:xlink="http://www.w3.org/1999/xlink" xml:space="preserve" onload="init(evt)">
<style type="text/css"><![CDATA[
.node, .edge {opacity: 0.7;}
.node.selected, .edge.selected {opacity: 1;}
.edge:hover path { stroke: red; }
.edge:hover polygon { stroke: red; fill: red; }
]]></style>

<defs>
  <circle id="rim" cx="0" cy="0" r="7"/>
  <circle id="rim2" cx="0" cy="0" r="3.5"/>
  <g id="zoomPlus">
    <use xlink:href="#rim" fill="#404040"><set attributeName="fill" to="#808080" begin="zoomplus.mouseover" end="zoomplus.mouseout"/></use>
    <path d="M-4,0h8M0,-4v8" fill="none" stroke="white" stroke-width="1.5" pointer-events="none"/>
  </g>
  <g id="zoomMin">
    <use xlink:href="#rim" fill="#404040"><set attributeName="fill" to="#808080" begin="zoomminus.mouseover" end="zoomminus.mouseout"/></use>
    <path d="M-4,0h8" fill="none" stroke="white" stroke-width="1.5" pointer-events="none"/>
  </g>
  <g id="arrowUp" transform="translate(30 24)">
    <use xlink:href="#rim"/>
    <path pointer-events="none" fill="none" stroke="white" stroke-width="1.5" d="M0,-3.0v7 M-2.5,-0.5L0,-3.0L2.5,-0.5"/>
  </g>
  <g id="arrowRight" transform="rotate(90) translate(36 -43)">
    <use xlink:href="#rim"/>
    <path pointer-events="none" fill="none" stroke="white" stroke-width="1.5" d="M0,-3.0v7 M-2.5,-0.5L0,-3.0L2.5,-0.5"/>
  </g>
  <g id="arrowDown" transform="rotate(180) translate(-30 -48)">
    <use xlink:href="#rim"/>
    <path pointer-events="none" fill="none" stroke="white" stroke-width="1.5" d="M0,-3.0v7 M-2.5,-0.5L0,-3.0L2.5,-0.5"/>
  </g>
  <g id="arrowLeft" transform="rotate(270) translate(-36 17)">
    <use xlink:href="#rim"/>
    <path pointer-events="none" fill="none" stroke="white" stroke-width="1.5" d="M0,-3.0v7 M-2.5,-0.5L0,-3.0L2.5,-0.5"/>
  </g>
  <g id="resetDef">
    <use xlink:href="#rim2" fill="#404040"><set attributeName="fill" to="#808080" begin="reset.mouseover" end="reset.mouseout"/></use>
  </g>
</defs>
<script type="application/ecmascript">
var viewWidth = 858;
var viewHeight = 161;
var sectionId = 'dynsection-6';
</script>
<script type="application/ecmascript" xlink:href="../../svg.min.js"/>
<svg id="graph" class="graph">
<g id="viewport">
<title>AssetIO::importFromPicker</title>
<!-- Node1 -->
<g id="Node000001" class="node">
<title>Node1</title>
<g id="a_Node000001"><a xlink:title=" ">
<polygon fill="#999999" stroke="#666666" points="135.25,-58 0,-58 0,-38 135.25,-38 135.25,-58"/>
<text xml:space="preserve" text-anchor="middle" x="67.62" y="-44.5" font-family="Helvetica,sans-Serif" font-size="10.00">AssetIO::importFromPicker</text>
</a>
</g>
</g>
<!-- Node2 -->
<g id="Node000002" class="node">
<title>Node2</title>
<g id="a_Node000002"><a xlink:href="../../d3/d5e/namespace_asset_i_o.html#a2dde48f62f629e1a03ca0835f8a80908" target="_top" xlink:title=" ">
<polygon fill="white" stroke="#666666" points="308.38,-86 180.62,-86 180.62,-66 308.38,-66 308.38,-86"/>
<text xml:space="preserve" text-anchor="middle" x="244.5" y="-72.5" font-family="Helvetica,sans-Serif" font-size="10.00">AssetIO::importFromPath</text>
</a>
</g>
</g>
<!-- Node1&#45;&gt;Node2 -->
<g id="edge1_Node000001_Node000002" class="edge">
<title>Node1&#45;&gt;Node2</title>
<g id="a_edge1_Node000001_Node000002"><a xlink:title=" ">
<path fill="none" stroke="#63b8ff" d="M133.74,-58.43C145.3,-60.28 157.41,-62.22 169.19,-64.1"/>
<polygon fill="#63b8ff" stroke="#63b8ff" points="168.44,-67.53 178.87,-65.65 169.55,-60.61 168.44,-67.53"/>
</a>
</g>
</g>
<!-- Node9 -->
<g id="Node000009" class="node">
<title>Node9</title>
<g id="a_Node000009"><a xlink:href="../../d3/d5e/namespace_asset_i_o.html#a5cba712df34d43b377cd1ccf1c17b5b2" target="_top" xlink:title=" ">
<polygon fill="white" stroke="#666666" points="317.75,-39 171.25,-39 171.25,-19 317.75,-19 317.75,-39"/>
<text xml:space="preserve" text-anchor="middle" x="244.5" y="-25.5" font-family="Helvetica,sans-Serif" font-size="10.00">AssetIO::pickImageFileWin32</text>
</a>
</g>
</g>
<!-- Node1&#45;&gt;Node9 -->
<g id="edge9_Node000001_Node000009" class="edge">
<title>Node1&#45;&gt;Node9</title>
<g id="a_edge9_Node000001_Node000009"><a xlink:title=" ">
<path fill="none" stroke="#63b8ff" d="M135.74,-40.71C143.53,-39.86 151.55,-38.99 159.53,-38.12"/>
<polygon fill="#63b8ff" stroke="#63b8ff" points="159.69,-41.63 169.25,-37.07 158.93,-34.67 159.69,-41.63"/>
</a>
</g>
</g>
<!-- Node3 -->
<g id="Node000003" class="node">
<title>Node3</title>
<g id="a_Node000003"><a xlink:href="../../d3/d5e/namespace_asset_i_o.html#a8f3732300c549d06588e8fb8e0b08c4b" target="_top" xlink:title=" ">
<polygon fill="white" stroke="#666666" points="460.12,-134 360.12,-134 360.12,-114 460.12,-114 460.12,-134"/>
<text xml:space="preserve" text-anchor="middle" x="410.12" y="-120.5" font-family="Helvetica,sans-Serif" font-size="10.00">AssetIO::assetsDir</text>
</a>
</g>
</g>
<!-- Node2&#45;&gt;Node3 -->
<g id="edge2_Node000002_Node000003" class="edge">
<title>Node2&#45;&gt;Node3</title>
<g id="a_edge2_Node000002_Node000003"><a xlink:title=" ">
<path fill="none" stroke="#63b8ff" d="M281,-86.42C304.94,-93.44 336.75,-102.77 362.69,-110.38"/>
<polygon fill="#63b8ff" stroke="#63b8ff" points="361.37,-113.64 371.96,-113.1 363.35,-106.92 361.37,-113.64"/>
</a>
</g>
</g>
<!-- Node7 -->
<g id="Node000007" class="node">
<title>Node7</title>
<g id="a_Node000007"><a xlink:href="../../d3/d5e/namespace_asset_i_o.html#acf8b171b169e716e2c2fbf610f8ef1b2" target="_top" xlink:title=" ">
<polygon fill="white" stroke="#666666" points="453.38,-96 366.88,-96 366.88,-76 453.38,-76 453.38,-96"/>
<text xml:space="preserve" text-anchor="middle" x="410.12" y="-82.5" font-family="Helvetica,sans-Serif" font-size="10.00">AssetIO::slugify</text>
</a>
</g>
</g>
<!-- Node2&#45;&gt;Node7 -->
<g id="edge7_Node000002_Node000007" class="edge">
<title>Node2&#45;&gt;Node7</title>
<g id="a_edge7_Node000002_Node000007"><a xlink:title=" ">
<path fill="none" stroke="#63b8ff" d="M308.76,-79.87C324.24,-80.81 340.66,-81.82 355.63,-82.73"/>
<polygon fill="#63b8ff" stroke="#63b8ff" points="355.05,-86.2 365.24,-83.32 355.48,-79.21 355.05,-86.2"/>
</a>
</g>
</g>
<!-- Node8 -->
<g id="Node000008" class="node">
<title>Node8</title>
<g id="a_Node000008"><a xlink:href="../../d3/d5e/namespace_asset_i_o.html#a8eaed1f8d660f69ca123e48b89432ef8" target="_top" xlink:title=" ">
<polygon fill="white" stroke="#666666" points="466.5,-58 353.75,-58 353.75,-38 466.5,-38 466.5,-58"/>
<text xml:space="preserve" text-anchor="middle" x="410.12" y="-44.5" font-family="Helvetica,sans-Serif" font-size="10.00">AssetIO::uniqueName</text>
</a>
</g>
</g>
<!-- Node2&#45;&gt;Node8 -->
<g id="edge8_Node000002_Node000008" class="edge">
<title>Node2&#45;&gt;Node8</title>
<g id="a_edge8_Node000002_Node000008"><a xlink:title=" ">
<path fill="none" stroke="#63b8ff" d="M306.43,-65.57C318.06,-63.58 330.31,-61.49 342.12,-59.47"/>
<polygon fill="#63b8ff" stroke="#63b8ff" points="342.52,-62.95 351.79,-57.81 341.34,-56.05 342.52,-62.95"/>
</a>
</g>
</g>
<!-- Node4 -->
<g id="Node000004" class="node">
<title>Node4</title>
<g id="a_Node000004"><a xlink:href="../../de/d2f/class_path_manager.html#ae75b72eb67617d77136a829eb73c7e8f" target="_top" xlink:title=" ">
<polygon fill="white" stroke="#666666" points="645.62,-153 508.12,-153 508.12,-133 645.62,-133 645.62,-153"/>
<text xml:space="preserve" text-anchor="middle" x="576.88" y="-139.5" font-family="Helvetica,sans-Serif" font-size="10.00">PathManager::getMapsPath</text>
</a>
</g>
</g>
<!-- Node3&#45;&gt;Node4 -->
<g id="edge3_Node000003_Node000004" class="edge">
<title>Node3&#45;&gt;Node4</title>
<g id="a_edge3_Node000003_Node000004"><a xlink:title=" ">
<path fill="none" stroke="#63b8ff" d="M460.56,-129.7C471.95,-131.01 484.35,-132.44 496.65,-133.86"/>
<polygon fill="#63b8ff" stroke="#63b8ff" points="496.06,-137.32 506.39,-134.99 496.86,-130.36 496.06,-137.32"/>
</a>
</g>
</g>
<!-- Node6 -->
<g id="Node000006" class="node">
<title>Node6</title>
<g id="a_Node000006"><a xlink:href="../../de/d2f/class_path_manager.html#a220ff032714c927e1a2a8ea81d863331" target="_top" xlink:title=" ">
<polygon fill="white" stroke="#666666" points="651.25,-115 502.5,-115 502.5,-95 651.25,-95 651.25,-115"/>
<text xml:space="preserve" text-anchor="middle" x="576.88" y="-101.5" font-family="Helvetica,sans-Serif" font-size="10.00">PathManager::getMarkersPath</text>
</a>
</g>
</g>
<!-- Node3&#45;&gt;Node6 -->
<g id="edge5_Node000003_Node000006" class="edge">
<title>Node3&#45;&gt;Node6</title>
<g id="a_edge5_Node000003_Node000006"><a xlink:title=" ">
<path fill="none" stroke="#63b8ff" d="M460.56,-118.3C470.16,-117.19 480.48,-116 490.86,-114.8"/>
<polygon fill="#63b8ff" stroke="#63b8ff" points="491.07,-118.3 500.61,-113.68 490.27,-111.35 491.07,-118.3"/>
</a>
</g>
</g>
<!-- Node5 -->
<g id="Node000005" class="node">
<title>Node5</title>
<g id="a_Node000005"><a xlink:href="../../de/d2f/class_path_manager.html#a467b459b77c73cbc7544551b53911fcd" target="_top" xlink:title=" ">
<polygon fill="white" stroke="#666666" points="850.25,-134 687.25,-134 687.25,-114 850.25,-114 850.25,-134"/>
<text xml:space="preserve" text-anchor="middle" x="768.75" y="-120.5" font-family="Helvetica,sans-Serif" font-size="10.00">PathManager::getExecutableRoot</text>
</a>
</g>
</g>
<!-- Node4&#45;&gt;Node5 -->
<g id="edge4_Node000004_Node000005" class="edge">
<title>Node4&#45;&gt;Node5</title>
<g id="a_edge4_Node000004_Node000005"><a xlink:title=" ">
<path fill="none" stroke="#63b8ff" d="M645.89,-136.19C655.55,-135.23 665.62,-134.22 675.65,-133.22"/>
<polygon fill="#63b8ff" stroke="#63b8ff" points="675.82,-136.72 685.42,-132.24 675.13,-129.75 675.82,-136.72"/>
</a>
</g>
</g>
<!-- Node6&#45;&gt;Node5 -->
<g id="edge6_Node000006_Node000005" class="edge">
<title>Node6&#45;&gt;Node5</title>
<g id="a_edge6_Node000006_Node000005"><a xlink:title=" ">
<path fill="none" stroke="#63b8ff" d="M651.56,-112.37C659.42,-113.16 667.49,-113.97 675.54,-114.77"/>
<polygon fill="#63b8ff" stroke="#63b8ff" points="675.06,-118.24 685.36,-115.76 675.76,-111.28 675.06,-118.24"/>
</a>
</g>
</g>
<!-- Node10 -->
<g id="Node000010" class="node">
<title>Node10</title>
<g id="a_Node000010"><a xlink:href="../../d3/d4b/struct_asset_i_o_1_1_com_init.html#ad05d9709a6ecc066bf1f221f80260184" target="_top" xlink:title=" ">
<polygon fill="white" stroke="#666666" points="464.62,-20 355.62,-20 355.62,0 464.62,0 464.62,-20"/>
<text xml:space="preserve" text-anchor="middle" x="410.12" y="-6.5" font-family="Helvetica,sans-Serif" font-size="10.00">AssetIO::ComInit::ok</text>
</a>
</g>
</g>
<!-- Node9&#45;&gt;Node10 -->
<g id="edge10_Node000009_Node000010" class="edge">
<title>Node9&#45;&gt;Node10</title>
<g id="a_edge10_Node000009_Node000010"><a xlink:title=" ">
<path fill="none" stroke="#63b8ff" d="M318.22,-20.56C326.79,-19.56 335.49,-18.55 343.94,-17.57"/>
<polygon fill="#63b8ff" stroke="#63b8ff" points="344.25,-21.06 353.78,-16.43 343.44,-14.1 344.25,-21.06"/>
</a>
</g>
</g>
</g>
</svg>

<g id="navigator" transform="translate(0 0)" fill="#404254">
  <rect fill="#f2f5e9" fill-opacity="0.5" stroke="#606060" stroke-width=".5" x="0" y="0" width="60" height="60"/>
  <use id="zoomplus" xlink:href="#zoomPlus" x="17" y="9" onmousedown="handleZoom(evt,'in')"/>
  <use id="zoomminus" xlink:href="#zoomMin" x="42" y="9" onmousedown="handleZoom(evt,'out')"/>
  <use id="reset" xlink:href="#resetDef" x="30" y="36" onmousedown="handleReset()"/>
   <use id="arrowup" xlink:href="#arrowUp" x="0" y="0" onmousedown="handlePan(0,-1)"/>
  <use id="arrowright" xlink:href="#arrowRight" x="0" y="0" onmousedown="handlePan(1,0)"/>
  <use id="arrowdown" xlink:href="#arrowDown" x="0" y="0" onmousedown="handlePan(0,1)"/>
  <use id="arrowleft" xlink:href="#arrowLeft" x="0" y="0" onmousedown="handlePan(-1,0)"/>
</g>
<svg viewBox="0 0 15 15" width="100%" height="30px" preserveAspectRatio="xMaxYMin meet">
 <g id="arrow_out" transform="scale(0.3 0.3)">
  <a xlink:href="namespace_asset_i_o_a0fd129212ac4835f913af0761824df9a_cgraph_org.svg" target="_base">
   <rect id="button" ry="5" rx="5" y="6" x="6" height="38" width="38"
        fill="#f2f5e9" fill-opacity="0.5" stroke="#606060" stroke-width="1.0"/>
   <path id="arrow"
     d="M 11.500037,31.436501 C 11.940474,20.09759 22.043105,11.32322 32.158766,21.979434 L 37.068811,17.246167 C 37.068811,17.246167 37.088388,32 37.088388,32 L 22.160133,31.978069 C 22.160133,31.978069 26.997745,27.140456 26.997745,27.140456 C 18.528582,18.264221 13.291696,25.230495 11.500037,31.436501 z"
     style="fill:#404040;"/>
  </a>
 </g>
</svg>

<style type='text/css'>
<![CDATA[
[data-mouse-over-selected='false'] { opacity: 0.7; }
[data-mouse-over-selected='true']  { opacity: 1.0; }
]]>
</style>
<script type="application/ecmascript"><![CDATA[
document.addEventListener('DOMContentLoaded', (event) => {
  highlightEdges();
  highlightAdjacentNodes();
});
]]></script>
</svg>
