<?xml version="1.0" encoding="UTF-8" standalone="no"?>
<!DOCTYPE svg PUBLIC "-//W3C//DTD SVG 1.1//EN"
 "http://www.w3.org/Graphics/SVG/1.1/DTD/svg11.dtd">
<!-- Generated by graphviz version 2.43.0 (0)
 -->
<!-- Title: SignalingServer::start Pages: 1 -->
<svg width="563pt" height="138pt"
 viewBox="0.00 0.00 563.00 138.00" xmlns="http://www.w3.org/2000/svg" xmlns:xlink="http://www.w3.org/1999/xlink">
<g id="graph0" class="graph" transform="scale(1 1) rotate(0) translate(4 134)">
<title>SignalingServer::start</title>
<!-- Node1 -->
<g id="Node000001" class="node">
<title>Node1</title>
<g id="a_Node000001"><a xlink:title=" ">
<polygon fill="#999999" stroke="#666666" points="122,-92 0,-92 0,-73 122,-73 122,-92"/>
<text text-anchor="middle" x="61" y="-80" font-family="Helvetica,sans-Serif" font-size="10.00">SignalingServer::start</text>
</a>
</g>
</g>
<!-- Node2 -->
<g id="Node000002" class="node">
<title>Node2</title>
<g id="a_Node000002"><a xlink:href="../../d6/d0b/classSignalingServer.html#a64ed3edfe61396c7d723022cddf9db61" target="_top" xlink:title=" ">
<polygon fill="white" stroke="#666666" points="311,-111 160,-111 160,-92 311,-92 311,-111"/>
<text text-anchor="middle" x="235.5" y="-99" font-family="Helvetica,sans-Serif" font-size="10.00">SignalingServer::onConnect</text>
</a>
</g>
</g>
<!-- Node1&#45;&gt;Node2 -->
<g id="edge1_Node000001_Node000002" class="edge">
<title>Node1&#45;&gt;Node2</title>
<g id="a_edge1_Node000001_Node000002"><a xlink:title=" ">
<path fill="none" stroke="#63b8ff" d="M122.33,-89.15C131.25,-90.13 140.58,-91.15 149.88,-92.18"/>
<polygon fill="#63b8ff" stroke="#63b8ff" points="149.62,-95.67 159.94,-93.29 150.38,-88.71 149.62,-95.67"/>
</a>
</g>
</g>
<!-- Node3 -->
<g id="Node000003" class="node">
<title>Node3</title>
<g id="a_Node000003"><a xlink:href="../../d6/d0b/classSignalingServer.html#a1bff9775c26724fe03a5bac447e0dd3b" target="_top" xlink:title=" ">
<polygon fill="white" stroke="#666666" points="313,-74 158,-74 158,-55 313,-55 313,-74"/>
<text text-anchor="middle" x="235.5" y="-62" font-family="Helvetica,sans-Serif" font-size="10.00">SignalingServer::onMessage</text>
</a>
</g>
</g>
<!-- Node1&#45;&gt;Node3 -->
<g id="edge2_Node000001_Node000003" class="edge">
<title>Node1&#45;&gt;Node3</title>
<g id="a_edge2_Node000001_Node000003"><a xlink:title=" ">
<path fill="none" stroke="#63b8ff" d="M122.33,-76.2C130.57,-75.34 139.16,-74.45 147.75,-73.55"/>
<polygon fill="#63b8ff" stroke="#63b8ff" points="148.24,-77.02 157.83,-72.5 147.52,-70.06 148.24,-77.02"/>
</a>
</g>
</g>
<!-- Node4 -->
<g id="Node000004" class="node">
<title>Node4</title>
<g id="a_Node000004"><a xlink:href="../../d6/d0b/classSignalingServer.html#a2c6fdfc468ee96cdb28722a11664845a" target="_top" xlink:title=" ">
<polygon fill="white" stroke="#666666" points="540,-130 364,-130 364,-111 540,-111 540,-130"/>
<text text-anchor="middle" x="452" y="-118" font-family="Helvetica,sans-Serif" font-size="10.00">SignalingServer::isAuthenticated</text>
</a>
</g>
</g>
<!-- Node3&#45;&gt;Node4 -->
<g id="edge3_Node000003_Node000004" class="edge">
<title>Node3&#45;&gt;Node4</title>
<g id="a_edge3_Node000003_Node000004"><a xlink:title=" ">
<path fill="none" stroke="#63b8ff" d="M282.77,-74.08C292.87,-76.7 303.41,-79.84 313,-83.5 329.9,-89.95 331.89,-96.64 349,-102.5 355.84,-104.84 363.05,-106.9 370.34,-108.69"/>
<polygon fill="#63b8ff" stroke="#63b8ff" points="369.78,-112.15 380.31,-110.98 371.35,-105.33 369.78,-112.15"/>
</a>
</g>
</g>
<!-- Node5 -->
<g id="Node000005" class="node">
<title>Node5</title>
<g id="a_Node000005"><a xlink:href="../../d5/d64/namespacemsg.html#a86e3987841ce342ed4a4257a3ba2ff28" target="_top" xlink:title=" ">
<polygon fill="white" stroke="#666666" points="522,-93 382,-93 382,-74 522,-74 522,-93"/>
<text text-anchor="middle" x="452" y="-81" font-family="Helvetica,sans-Serif" font-size="10.00">msg::makeAuthResponse</text>
</a>
</g>
</g>
<!-- Node3&#45;&gt;Node5 -->
<g id="edge4_Node000003_Node000005" class="edge">
<title>Node3&#45;&gt;Node5</title>
<g id="a_edge4_Node000003_Node000005"><a xlink:title=" ">
<path fill="none" stroke="#63b8ff" d="M313.03,-71.28C332.1,-72.97 352.59,-74.78 371.79,-76.48"/>
<polygon fill="#63b8ff" stroke="#63b8ff" points="371.73,-79.99 382,-77.39 372.34,-73.02 371.73,-79.99"/>
</a>
</g>
</g>
<!-- Node6 -->
<g id="Node000006" class="node">
<title>Node6</title>
<g id="a_Node000006"><a xlink:href="../../d6/d0b/classSignalingServer.html#a8d9fc20c0e4d459bb2c4058c2de70a74" target="_top" xlink:title=" ">
<polygon fill="white" stroke="#666666" points="555,-56 349,-56 349,-37 555,-37 555,-56"/>
<text text-anchor="middle" x="452" y="-44" font-family="Helvetica,sans-Serif" font-size="10.00">SignalingServer::moveToAuthenticated</text>
</a>
</g>
</g>
<!-- Node3&#45;&gt;Node6 -->
<g id="edge5_Node000003_Node000006" class="edge">
<title>Node3&#45;&gt;Node6</title>
<g id="a_edge5_Node000003_Node000006"><a xlink:title=" ">
<path fill="none" stroke="#63b8ff" d="M313.03,-58.08C321.33,-57.38 329.9,-56.66 338.52,-55.94"/>
<polygon fill="#63b8ff" stroke="#63b8ff" points="338.97,-59.41 348.64,-55.09 338.38,-52.44 338.97,-59.41"/>
</a>
</g>
</g>
<!-- Node7 -->
<g id="Node000007" class="node">
<title>Node7</title>
<g id="a_Node000007"><a xlink:href="../../d6/d0b/classSignalingServer.html#adf87cd0f47619053b3b8d14d3793028a" target="_top" xlink:title=" ">
<polygon fill="white" stroke="#666666" points="518.5,-19 385.5,-19 385.5,0 518.5,0 518.5,-19"/>
<text text-anchor="middle" x="452" y="-7" font-family="Helvetica,sans-Serif" font-size="10.00">SignalingServer::sendTo</text>
</a>
</g>
</g>
<!-- Node3&#45;&gt;Node7 -->
<g id="edge6_Node000003_Node000007" class="edge">
<title>Node3&#45;&gt;Node7</title>
<g id="a_edge6_Node000003_Node000007"><a xlink:title=" ">
<path fill="none" stroke="#63b8ff" d="M263.05,-54.96C285.68,-47.09 319.17,-36.02 349,-28.5 359.87,-25.76 371.49,-23.23 382.85,-20.96"/>
<polygon fill="#63b8ff" stroke="#63b8ff" points="383.59,-24.39 392.74,-19.05 382.26,-17.52 383.59,-24.39"/>
</a>
</g>
</g>
</g>
</svg>
