<?xml version="1.0" encoding="UTF-8" standalone="no"?>
<!DOCTYPE svg PUBLIC "-//W3C//DTD SVG 1.1//EN"
 "http://www.w3.org/Graphics/SVG/1.1/DTD/svg11.dtd">
<!-- Generated by graphviz version 14.0.2 (20251019.1705)
 -->
<!-- Title: MessageQueue::push Pages: 1 -->
<svg width="921pt" height="552pt"
 viewBox="0.00 0.00 921.00 552.00" xmlns="http://www.w3.org/2000/svg" xmlns:xlink="http://www.w3.org/1999/xlink">
<g id="graph0" class="graph" transform="scale(1 1) rotate(0) translate(4 547.65)">
<title>MessageQueue::push</title>
<!-- Node1 -->
<g id="Node000001" class="node">
<title>Node1</title>
<g id="a_Node000001"><a xlink:title=" ">
<polygon fill="#999999" stroke="#666666" points="913.25,-289 802,-289 802,-269 913.25,-269 913.25,-289"/>
<text xml:space="preserve" text-anchor="middle" x="857.62" y="-275.5" font-family="Helvetica,sans-Serif" font-size="10.00">MessageQueue::push</text>
</a>
</g>
</g>
<!-- Node2 -->
<g id="Node000002" class="node">
<title>Node2</title>
<g id="a_Node000002"><a xlink:href="../../da/d21/class_network_manager.html#a91ae6eaae32ae463c033547f74080e36" target="_top" xlink:title=" ">
<polygon fill="white" stroke="#666666" points="356,-316 208,-316 208,-284 356,-284 356,-316"/>
<text xml:space="preserve" text-anchor="start" x="216" y="-302.5" font-family="Helvetica,sans-Serif" font-size="10.00">NetworkManager::decodeRaw</text>
<text xml:space="preserve" text-anchor="middle" x="282" y="-290.5" font-family="Helvetica,sans-Serif" font-size="10.00">ChatBuffer</text>
</a>
</g>
</g>
<!-- Node1&#45;&gt;Node2 -->
<g id="edge1_Node000001_Node000002" class="edge">
<title>Node1&#45;&gt;Node2</title>
<g id="a_edge1_Node000001_Node000002"><a xlink:title=" ">
<path fill="none" stroke="#63b8ff" d="M853.17,-300.27C845.39,-341.01 822.56,-430.08 766,-476 690,-537.71 648.53,-514.04 551.25,-525 480.92,-532.92 451.97,-562.59 392,-525 315.87,-477.29 291.59,-359.62 285.08,-316.33"/>
<polygon fill="#63b8ff" stroke="#63b8ff" points="856.59,-301.01 854.89,-290.56 849.7,-299.79 856.59,-301.01"/>
</a>
</g>
</g>
<!-- Node5 -->
<g id="Node000005" class="node">
<title>Node5</title>
<g id="a_Node000005"><a xlink:href="../../da/d21/class_network_manager.html#a870fdbf3fcb748380d4bac60d0c619ae" target="_top" xlink:title=" ">
<polygon fill="white" stroke="#666666" points="747.25,-270 606,-270 606,-238 747.25,-238 747.25,-270"/>
<text xml:space="preserve" text-anchor="start" x="614" y="-256.5" font-family="Helvetica,sans-Serif" font-size="10.00">NetworkManager::handleFog</text>
<text xml:space="preserve" text-anchor="middle" x="676.62" y="-244.5" font-family="Helvetica,sans-Serif" font-size="10.00">Create</text>
</a>
</g>
</g>
<!-- Node1&#45;&gt;Node5 -->
<g id="edge4_Node000001_Node000005" class="edge">
<title>Node1&#45;&gt;Node5</title>
<g id="a_edge4_Node000001_Node000005"><a xlink:title=" ">
<path fill="none" stroke="#63b8ff" d="M790.84,-269.81C776.73,-267.84 761.77,-265.75 747.51,-263.76"/>
<polygon fill="#63b8ff" stroke="#63b8ff" points="790.06,-273.24 800.45,-271.15 791.03,-266.3 790.06,-273.24"/>
</a>
</g>
</g>
<!-- Node7 -->
<g id="Node000007" class="node">
<title>Node7</title>
<g id="a_Node000007"><a xlink:href="../../da/d21/class_network_manager.html#a106790c77d0d8c6b9428a2fbd842286b" target="_top" xlink:title=" ">
<polygon fill="white" stroke="#666666" points="747.25,-220 606,-220 606,-188 747.25,-188 747.25,-220"/>
<text xml:space="preserve" text-anchor="start" x="614" y="-206.5" font-family="Helvetica,sans-Serif" font-size="10.00">NetworkManager::handleFog</text>
<text xml:space="preserve" text-anchor="middle" x="676.62" y="-194.5" font-family="Helvetica,sans-Serif" font-size="10.00">Delete</text>
</a>
</g>
</g>
<!-- Node1&#45;&gt;Node7 -->
<g id="edge8_Node000001_Node000007" class="edge">
<title>Node1&#45;&gt;Node7</title>
<g id="a_edge8_Node000001_Node000007"><a xlink:title=" ">
<path fill="none" stroke="#63b8ff" d="M830.88,-262.72C813.16,-252.04 788.79,-238.36 766,-229 758.48,-225.91 750.45,-223.06 742.41,-220.47"/>
<polygon fill="#63b8ff" stroke="#63b8ff" points="828.84,-265.58 839.2,-267.82 832.5,-259.61 828.84,-265.58"/>
</a>
</g>
</g>
<!-- Node8 -->
<g id="Node000008" class="node">
<title>Node8</title>
<g id="a_Node000008"><a xlink:href="../../da/d21/class_network_manager.html#a0466594f0db8b90c31d5bce0c862d4a7" target="_top" xlink:title=" ">
<polygon fill="white" stroke="#666666" points="747.25,-170 606,-170 606,-138 747.25,-138 747.25,-170"/>
<text xml:space="preserve" text-anchor="start" x="614" y="-156.5" font-family="Helvetica,sans-Serif" font-size="10.00">NetworkManager::handleFog</text>
<text xml:space="preserve" text-anchor="middle" x="676.62" y="-144.5" font-family="Helvetica,sans-Serif" font-size="10.00">Update</text>
</a>
</g>
</g>
<!-- Node1&#45;&gt;Node8 -->
<g id="edge10_Node000001_Node000008" class="edge">
<title>Node1&#45;&gt;Node8</title>
<g id="a_edge10_Node000001_Node000008"><a xlink:title=" ">
<path fill="none" stroke="#63b8ff" d="M844.03,-259.47C828.4,-236.81 799.67,-199.88 766,-179 760.31,-175.47 754.11,-172.43 747.71,-169.8"/>
<polygon fill="#63b8ff" stroke="#63b8ff" points="840.94,-261.15 849.41,-267.52 846.76,-257.26 840.94,-261.15"/>
</a>
</g>
</g>
<!-- Node9 -->
<g id="Node000009" class="node">
<title>Node9</title>
<g id="a_Node000009"><a xlink:href="../../da/d21/class_network_manager.html#a95cfe12e2425d77d25a332548694f340" target="_top" xlink:title=" ">
<polygon fill="white" stroke="#666666" points="752.12,-120 601.12,-120 601.12,-88 752.12,-88 752.12,-120"/>
<text xml:space="preserve" text-anchor="start" x="609.12" y="-106.5" font-family="Helvetica,sans-Serif" font-size="10.00">NetworkManager::handleGame</text>
<text xml:space="preserve" text-anchor="middle" x="676.62" y="-94.5" font-family="Helvetica,sans-Serif" font-size="10.00">TableSnapshot</text>
</a>
</g>
</g>
<!-- Node1&#45;&gt;Node9 -->
<g id="edge12_Node000001_Node000009" class="edge">
<title>Node1&#45;&gt;Node9</title>
<g id="a_edge12_Node000001_Node000009"><a xlink:title=" ">
<path fill="none" stroke="#63b8ff" d="M849.78,-258.32C837.96,-225.83 810.6,-163.01 766,-129 761.69,-125.71 756.96,-122.86 752.01,-120.38"/>
<polygon fill="#63b8ff" stroke="#63b8ff" points="846.35,-259.09 852.94,-267.39 852.96,-256.79 846.35,-259.09"/>
</a>
</g>
</g>
<!-- Node10 -->
<g id="Node000010" class="node">
<title>Node10</title>
<g id="a_Node000010"><a xlink:href="../../da/d21/class_network_manager.html#a5974165ef6da3b0a8e954c3219310212" target="_top" xlink:title=" ">
<polygon fill="white" stroke="#666666" points="748,-70 605.25,-70 605.25,-38 748,-38 748,-70"/>
<text xml:space="preserve" text-anchor="start" x="613.25" y="-56.5" font-family="Helvetica,sans-Serif" font-size="10.00">NetworkManager::handleGrid</text>
<text xml:space="preserve" text-anchor="middle" x="676.62" y="-44.5" font-family="Helvetica,sans-Serif" font-size="10.00">Update</text>
</a>
</g>
</g>
<!-- Node1&#45;&gt;Node10 -->
<g id="edge14_Node000001_Node000010" class="edge">
<title>Node1&#45;&gt;Node10</title>
<g id="a_edge14_Node000001_Node000010"><a xlink:title=" ">
<path fill="none" stroke="#63b8ff" d="M853.06,-257.67C845.08,-216.77 821.92,-127.12 766,-79 760.68,-74.42 754.58,-70.68 748.12,-67.62"/>
<polygon fill="#63b8ff" stroke="#63b8ff" points="849.6,-258.21 854.83,-267.42 856.49,-256.96 849.6,-258.21"/>
</a>
</g>
</g>
<!-- Node11 -->
<g id="Node000011" class="node">
<title>Node11</title>
<g id="a_Node000011"><a xlink:href="../../da/d21/class_network_manager.html#af738f6e90613a669cab5551f672e7c6b" target="_top" xlink:title=" ">
<polygon fill="white" stroke="#666666" points="549,-516 394.25,-516 394.25,-484 549,-484 549,-516"/>
<text xml:space="preserve" text-anchor="start" x="402.25" y="-502.5" font-family="Helvetica,sans-Serif" font-size="10.00">NetworkManager::handleMarker</text>
<text xml:space="preserve" text-anchor="middle" x="471.62" y="-490.5" font-family="Helvetica,sans-Serif" font-size="10.00">Delete</text>
</a>
</g>
</g>
<!-- Node1&#45;&gt;Node11 -->
<g id="edge16_Node000001_Node000011" class="edge">
<title>Node1&#45;&gt;Node11</title>
<g id="a_edge16_Node000001_Node000011"><a xlink:title=" ">
<path fill="none" stroke="#63b8ff" d="M850.04,-300.19C838.58,-333.44 811.7,-397.54 766,-431 702.68,-477.37 612.84,-493.09 549.3,-498.16"/>
<polygon fill="#63b8ff" stroke="#63b8ff" points="853.3,-301.48 853.1,-290.88 846.65,-299.29 853.3,-301.48"/>
</a>
</g>
</g>
<!-- Node12 -->
<g id="Node000012" class="node">
<title>Node12</title>
<g id="a_Node000012"><a xlink:href="../../da/d21/class_network_manager.html#afc9a1534cbb3b4b950796094d4e97775" target="_top" xlink:title=" ">
<polygon fill="white" stroke="#666666" points="766,-20 587.25,-20 587.25,0 766,0 766,-20"/>
<text xml:space="preserve" text-anchor="middle" x="676.62" y="-6.5" font-family="Helvetica,sans-Serif" font-size="10.00">NetworkManager::handleMarkerMove</text>
</a>
</g>
</g>
<!-- Node1&#45;&gt;Node12 -->
<g id="edge18_Node000001_Node000012" class="edge">
<title>Node1&#45;&gt;Node12</title>
<g id="a_edge18_Node000001_Node000012"><a xlink:title=" ">
<path fill="none" stroke="#63b8ff" d="M855.53,-257.48C851.84,-208.83 835.77,-89.88 766,-29 762.1,-25.6 757.73,-22.75 753.09,-20.38"/>
<polygon fill="#63b8ff" stroke="#63b8ff" points="852.03,-257.48 856.16,-267.24 859.01,-257.03 852.03,-257.48"/>
</a>
</g>
</g>
<!-- Node14 -->
<g id="Node000014" class="node">
<title>Node14</title>
<g id="a_Node000014"><a xlink:href="../../da/d21/class_network_manager.html#a4e57df88fc7446d22630aacb5a31dfc1" target="_top" xlink:title=" ">
<polygon fill="white" stroke="#666666" points="549,-466 394.25,-466 394.25,-434 549,-434 549,-466"/>
<text xml:space="preserve" text-anchor="start" x="402.25" y="-452.5" font-family="Helvetica,sans-Serif" font-size="10.00">NetworkManager::handleMarker</text>
<text xml:space="preserve" text-anchor="middle" x="471.62" y="-440.5" font-family="Helvetica,sans-Serif" font-size="10.00">MoveState</text>
</a>
</g>
</g>
<!-- Node1&#45;&gt;Node14 -->
<g id="edge22_Node000001_Node000014" class="edge">
<title>Node1&#45;&gt;Node14</title>
<g id="a_edge22_Node000001_Node000014"><a xlink:title=" ">
<path fill="none" stroke="#63b8ff" d="M845.92,-299.26C831.38,-324.69 802.9,-367.68 766,-390 699.94,-429.95 611.8,-443.74 549.43,-448.28"/>
<polygon fill="#63b8ff" stroke="#63b8ff" points="848.95,-301.02 850.72,-290.57 842.82,-297.64 848.95,-301.02"/>
</a>
</g>
</g>
<!-- Node15 -->
<g id="Node000015" class="node">
<title>Node15</title>
<g id="a_Node000015"><a xlink:href="../../da/d21/class_network_manager.html#ac5d3c0e4fbaccd780b59519e714541b0" target="_top" xlink:title=" ">
<polygon fill="white" stroke="#666666" points="549,-416 394.25,-416 394.25,-384 549,-384 549,-416"/>
<text xml:space="preserve" text-anchor="start" x="402.25" y="-402.5" font-family="Helvetica,sans-Serif" font-size="10.00">NetworkManager::handleMarker</text>
<text xml:space="preserve" text-anchor="middle" x="471.62" y="-390.5" font-family="Helvetica,sans-Serif" font-size="10.00">Update</text>
</a>
</g>
</g>
<!-- Node1&#45;&gt;Node15 -->
<g id="edge24_Node000001_Node000015" class="edge">
<title>Node1&#45;&gt;Node15</title>
<g id="a_edge24_Node000001_Node000015"><a xlink:title=" ">
<path fill="none" stroke="#63b8ff" d="M840.07,-297.87C823.29,-315.68 795.63,-341.59 766,-355 696.99,-386.23 610.5,-396.44 549.36,-399.46"/>
<polygon fill="#63b8ff" stroke="#63b8ff" points="842.62,-300.27 846.79,-290.52 837.46,-295.54 842.62,-300.27"/>
</a>
</g>
</g>
<!-- Node16 -->
<g id="Node000016" class="node">
<title>Node16</title>
<g id="a_Node000016"><a xlink:href="../../da/d21/class_network_manager.html#a4f87c47c2317b51690a0947bc8ad88b7" target="_top" xlink:title=" ">
<polygon fill="white" stroke="#666666" points="544.5,-366 398.75,-366 398.75,-334 544.5,-334 544.5,-366"/>
<text xml:space="preserve" text-anchor="start" x="406.75" y="-352.5" font-family="Helvetica,sans-Serif" font-size="10.00">NetworkManager::handleUser</text>
<text xml:space="preserve" text-anchor="middle" x="471.62" y="-340.5" font-family="Helvetica,sans-Serif" font-size="10.00">NameUpdate</text>
</a>
</g>
</g>
<!-- Node1&#45;&gt;Node16 -->
<g id="edge26_Node000001_Node000016" class="edge">
<title>Node1&#45;&gt;Node16</title>
<g id="a_edge26_Node000001_Node000016"><a xlink:title=" ">
<path fill="none" stroke="#63b8ff" d="M833,-295.78C815.42,-307.31 790.34,-321.79 766,-329 692.92,-350.63 605.34,-354.18 545,-353.38"/>
<polygon fill="#63b8ff" stroke="#63b8ff" points="834.85,-298.76 841.17,-290.26 830.93,-292.96 834.85,-298.76"/>
</a>
</g>
</g>
<!-- Node17 -->
<g id="Node000017" class="node">
<title>Node17</title>
<g id="a_Node000017"><a xlink:href="../../da/d21/class_network_manager.html#abdacab45fd438391b9fa75a6c6d3a421" target="_top" xlink:title=" ">
<polygon fill="white" stroke="#666666" points="747.25,-320 606,-320 606,-288 747.25,-288 747.25,-320"/>
<text xml:space="preserve" text-anchor="start" x="614" y="-306.5" font-family="Helvetica,sans-Serif" font-size="10.00">NetworkManager::tryFinalize</text>
<text xml:space="preserve" text-anchor="middle" x="676.62" y="-294.5" font-family="Helvetica,sans-Serif" font-size="10.00">Image</text>
</a>
</g>
</g>
<!-- Node1&#45;&gt;Node17 -->
<g id="edge28_Node000001_Node000017" class="edge">
<title>Node1&#45;&gt;Node17</title>
<g id="a_edge28_Node000001_Node000017"><a xlink:title=" ">
<path fill="none" stroke="#63b8ff" d="M790.84,-288.19C776.73,-290.16 761.77,-292.25 747.51,-294.24"/>
<polygon fill="#63b8ff" stroke="#63b8ff" points="791.03,-291.7 800.45,-286.85 790.06,-284.76 791.03,-291.7"/>
</a>
</g>
</g>
<!-- Node3 -->
<g id="Node000003" class="node">
<title>Node3</title>
<g id="a_Node000003"><a xlink:href="../../da/d21/class_network_manager.html#ad3605b8b33fa44492458d0aaffb4dec8" target="_top" xlink:title=" ">
<polygon fill="white" stroke="#666666" points="172,-282 0,-282 0,-262 172,-262 172,-282"/>
<text xml:space="preserve" text-anchor="middle" x="86" y="-268.5" font-family="Helvetica,sans-Serif" font-size="10.00">NetworkManager::drainInboundRaw</text>
</a>
</g>
</g>
<!-- Node2&#45;&gt;Node3 -->
<g id="edge2_Node000002_Node000003" class="edge">
<title>Node2&#45;&gt;Node3</title>
<g id="a_edge2_Node000002_Node000003"><a xlink:title=" ">
<path fill="none" stroke="#63b8ff" d="M196.44,-287.8C184.12,-286.02 171.53,-284.2 159.48,-282.46"/>
<polygon fill="#63b8ff" stroke="#63b8ff" points="195.76,-291.23 206.16,-289.2 196.76,-284.31 195.76,-291.23"/>
</a>
</g>
</g>
<!-- Node4 -->
<g id="Node000004" class="node">
<title>Node4</title>
<g id="a_Node000004"><a xlink:href="../../da/d21/class_network_manager.html#a3289708df965193b6ec0287eb069b276" target="_top" xlink:title=" ">
<polygon fill="white" stroke="#666666" points="154,-244 18,-244 18,-212 154,-212 154,-244"/>
<text xml:space="preserve" text-anchor="start" x="26" y="-230.5" font-family="Helvetica,sans-Serif" font-size="10.00">NetworkManager::startRaw</text>
<text xml:space="preserve" text-anchor="middle" x="86" y="-218.5" font-family="Helvetica,sans-Serif" font-size="10.00">DrainWorker</text>
</a>
</g>
</g>
<!-- Node2&#45;&gt;Node4 -->
<g id="edge3_Node000002_Node000004" class="edge">
<title>Node2&#45;&gt;Node4</title>
<g id="a_edge3_Node000002_Node000004"><a xlink:title=" ">
<path fill="none" stroke="#63b8ff" d="M218.12,-279.47C214.67,-278.03 211.27,-276.54 208,-275 191.03,-267.03 189.14,-260.6 172,-253 164.97,-249.88 157.44,-247.03 149.88,-244.46"/>
<polygon fill="#63b8ff" stroke="#63b8ff" points="216.61,-282.63 227.2,-283.06 219.18,-276.12 216.61,-282.63"/>
</a>
</g>
</g>
<!-- Node6 -->
<g id="Node000006" class="node">
<title>Node6</title>
<g id="a_Node000006"><a xlink:href="../../da/d21/class_network_manager.html#a53df93ad0cb0498c82f866a921e7b285" target="_top" xlink:title=" ">
<polygon fill="white" stroke="#666666" points="356,-266 208,-266 208,-234 356,-234 356,-266"/>
<text xml:space="preserve" text-anchor="start" x="216" y="-252.5" font-family="Helvetica,sans-Serif" font-size="10.00">NetworkManager::decodeRaw</text>
<text xml:space="preserve" text-anchor="middle" x="282" y="-240.5" font-family="Helvetica,sans-Serif" font-size="10.00">GameBuffer</text>
</a>
</g>
</g>
<!-- Node5&#45;&gt;Node6 -->
<g id="edge5_Node000005_Node000006" class="edge">
<title>Node5&#45;&gt;Node6</title>
<g id="a_edge5_Node000005_Node000006"><a xlink:title=" ">
<path fill="none" stroke="#63b8ff" d="M606.4,-234.9C588.57,-230.8 569.31,-227.08 551.25,-225 480.94,-216.91 462.33,-217.04 392,-225 376.18,-226.79 359.31,-230 343.69,-233.53"/>
<polygon fill="#63b8ff" stroke="#63b8ff" points="605.57,-238.3 616.11,-237.21 607.19,-231.49 605.57,-238.3"/>
</a>
</g>
</g>
<!-- Node6&#45;&gt;Node3 -->
<g id="edge6_Node000006_Node000003" class="edge">
<title>Node6&#45;&gt;Node3</title>
<g id="a_edge6_Node000006_Node000003"><a xlink:title=" ">
<path fill="none" stroke="#63b8ff" d="M196.23,-259.61C188.36,-260.51 180.38,-261.41 172.5,-262.3"/>
<polygon fill="#63b8ff" stroke="#63b8ff" points="196.61,-263.09 206.15,-258.49 195.82,-256.14 196.61,-263.09"/>
</a>
</g>
</g>
<!-- Node6&#45;&gt;Node4 -->
<g id="edge7_Node000006_Node000004" class="edge">
<title>Node6&#45;&gt;Node4</title>
<g id="a_edge7_Node000006_Node000004"><a xlink:title=" ">
<path fill="none" stroke="#63b8ff" d="M196.47,-240.41C182.39,-238.82 167.95,-237.18 154.38,-235.64"/>
<polygon fill="#63b8ff" stroke="#63b8ff" points="195.82,-243.86 206.15,-241.51 196.61,-236.91 195.82,-243.86"/>
</a>
</g>
</g>
<!-- Node7&#45;&gt;Node6 -->
<g id="edge9_Node000007_Node000006" class="edge">
<title>Node7&#45;&gt;Node6</title>
<g id="a_edge9_Node000007_Node000006"><a xlink:title=" ">
<path fill="none" stroke="#63b8ff" d="M594.23,-201.33C537.19,-200.87 459.42,-203.1 392,-215 385.69,-216.11 358.06,-224.99 332.2,-233.53"/>
<polygon fill="#63b8ff" stroke="#63b8ff" points="594.16,-204.83 604.2,-201.44 594.24,-197.83 594.16,-204.83"/>
</a>
</g>
</g>
<!-- Node8&#45;&gt;Node6 -->
<g id="edge11_Node000008_Node000006" class="edge">
<title>Node8&#45;&gt;Node6</title>
<g id="a_edge11_Node000008_Node000006"><a xlink:title=" ">
<path fill="none" stroke="#63b8ff" d="M594.37,-156.16C536.05,-160.17 456.68,-170.75 392,-198 373.57,-205.76 373.68,-215.65 356,-225 350.08,-228.13 343.69,-231 337.23,-233.57"/>
<polygon fill="#63b8ff" stroke="#63b8ff" points="594.47,-159.66 604.23,-155.54 594.03,-152.67 594.47,-159.66"/>
</a>
</g>
</g>
<!-- Node9&#45;&gt;Node6 -->
<g id="edge13_Node000009_Node000006" class="edge">
<title>Node9&#45;&gt;Node6</title>
<g id="a_edge13_Node000009_Node000006"><a xlink:title=" ">
<path fill="none" stroke="#63b8ff" d="M589.32,-100.7C528.71,-102.63 448.67,-114.19 392,-156 364.17,-176.54 382.23,-202.46 356,-225 352.24,-228.23 348.04,-231.05 343.61,-233.51"/>
<polygon fill="#63b8ff" stroke="#63b8ff" points="589.35,-104.2 599.27,-100.47 589.2,-97.2 589.35,-104.2"/>
</a>
</g>
</g>
<!-- Node10&#45;&gt;Node6 -->
<g id="edge15_Node000010_Node000006" class="edge">
<title>Node10&#45;&gt;Node6</title>
<g id="a_edge15_Node000010_Node000006"><a xlink:title=" ">
<path fill="none" stroke="#63b8ff" d="M593.6,-45.05C530.98,-42.89 446.46,-50.76 392,-99 348.4,-137.62 396.11,-182.77 356,-225 352.86,-228.3 349.27,-231.17 345.4,-233.66"/>
<polygon fill="#63b8ff" stroke="#63b8ff" points="593.37,-48.54 603.52,-45.49 593.68,-41.55 593.37,-48.54"/>
</a>
</g>
</g>
<!-- Node11&#45;&gt;Node6 -->
<g id="edge17_Node000011_Node000006" class="edge">
<title>Node11&#45;&gt;Node6</title>
<g id="a_edge17_Node000011_Node000006"><a xlink:title=" ">
<path fill="none" stroke="#63b8ff" d="M393.41,-476.53C392.93,-476.03 392.46,-475.52 392,-475 332.41,-407.13 414.84,-343.52 356,-275 353.21,-271.75 349.97,-268.92 346.45,-266.46"/>
<polygon fill="#63b8ff" stroke="#63b8ff" points="390.91,-479 400.81,-482.77 395.42,-473.65 390.91,-479"/>
</a>
</g>
</g>
<!-- Node13 -->
<g id="Node000013" class="node">
<title>Node13</title>
<g id="a_Node000013"><a xlink:href="../../da/d21/class_network_manager.html#adea6a8bf4c034a65775aa7a8f9d2e8a2" target="_top" xlink:title=" ">
<polygon fill="white" stroke="#666666" points="356,-216 208,-216 208,-184 356,-184 356,-216"/>
<text xml:space="preserve" text-anchor="start" x="216" y="-202.5" font-family="Helvetica,sans-Serif" font-size="10.00">NetworkManager::decodeRaw</text>
<text xml:space="preserve" text-anchor="middle" x="282" y="-190.5" font-family="Helvetica,sans-Serif" font-size="10.00">MarkerMoveBuffer</text>
</a>
</g>
</g>
<!-- Node12&#45;&gt;Node13 -->
<g id="edge19_Node000012_Node000013" class="edge">
<title>Node12&#45;&gt;Node13</title>
<g id="a_edge19_Node000012_Node000013"><a xlink:title=" ">
<path fill="none" stroke="#63b8ff" d="M575.51,-0.61C518.04,0.11 446.68,-7.29 392,-40 335.32,-73.9 301.43,-150.03 288.74,-183.58"/>
<polygon fill="#63b8ff" stroke="#63b8ff" points="575.22,-4.1 585.29,-0.82 575.37,2.89 575.22,-4.1"/>
</a>
</g>
</g>
<!-- Node13&#45;&gt;Node3 -->
<g id="edge20_Node000013_Node000003" class="edge">
<title>Node13&#45;&gt;Node3</title>
<g id="a_edge20_Node000013_Node000003"><a xlink:title=" ">
<path fill="none" stroke="#63b8ff" d="M215.81,-221.06C213.14,-222.32 210.53,-223.63 208,-225 190.17,-234.64 190.33,-244.36 172,-253 164.75,-256.42 156.86,-259.23 148.9,-261.55"/>
<polygon fill="#63b8ff" stroke="#63b8ff" points="217.17,-224.29 224.94,-217.09 214.37,-217.87 217.17,-224.29"/>
</a>
</g>
</g>
<!-- Node13&#45;&gt;Node4 -->
<g id="edge21_Node000013_Node000004" class="edge">
<title>Node13&#45;&gt;Node4</title>
<g id="a_edge21_Node000013_Node000004"><a xlink:title=" ">
<path fill="none" stroke="#63b8ff" d="M196.47,-212.2C182.39,-214.23 167.95,-216.32 154.38,-218.28"/>
<polygon fill="#63b8ff" stroke="#63b8ff" points="196.76,-215.69 206.16,-210.8 195.76,-208.77 196.76,-215.69"/>
</a>
</g>
</g>
<!-- Node14&#45;&gt;Node6 -->
<g id="edge23_Node000014_Node000006" class="edge">
<title>Node14&#45;&gt;Node6</title>
<g id="a_edge23_Node000014_Node000006"><a xlink:title=" ">
<path fill="none" stroke="#63b8ff" d="M393.45,-426.49C392.96,-426.01 392.47,-425.51 392,-425 345.3,-374.8 402.14,-325.71 356,-275 353.03,-271.73 349.6,-268.89 345.9,-266.42"/>
<polygon fill="#63b8ff" stroke="#63b8ff" points="391.03,-429.04 401.01,-432.6 395.43,-423.59 391.03,-429.04"/>
</a>
</g>
</g>
<!-- Node15&#45;&gt;Node6 -->
<g id="edge25_Node000015_Node000006" class="edge">
<title>Node15&#45;&gt;Node6</title>
<g id="a_edge25_Node000015_Node000006"><a xlink:title=" ">
<path fill="none" stroke="#63b8ff" d="M394.29,-377.09C393.51,-376.41 392.74,-375.72 392,-375 357.97,-342.23 389.66,-308.14 356,-275 352.66,-271.71 348.87,-268.85 344.81,-266.37"/>
<polygon fill="#63b8ff" stroke="#63b8ff" points="391.95,-379.71 402.11,-382.72 396.04,-374.03 391.95,-379.71"/>
</a>
</g>
</g>
<!-- Node16&#45;&gt;Node6 -->
<g id="edge27_Node000016_Node000006" class="edge">
<title>Node16&#45;&gt;Node6</title>
<g id="a_edge27_Node000016_Node000006"><a xlink:title=" ">
<path fill="none" stroke="#63b8ff" d="M396.81,-328.24C395.16,-327.2 393.55,-326.13 392,-325 369.83,-308.93 377.99,-291.32 356,-275 351.59,-271.73 346.72,-268.86 341.65,-266.36"/>
<polygon fill="#63b8ff" stroke="#63b8ff" points="394.89,-331.17 405.34,-332.9 398.25,-325.03 394.89,-331.17"/>
</a>
</g>
</g>
<!-- Node18 -->
<g id="Node000018" class="node">
<title>Node18</title>
<g id="a_Node000018"><a xlink:href="../../da/d21/class_network_manager.html#a4cb4b93a437c7da00771f5cc9488384e" target="_top" xlink:title=" ">
<polygon fill="white" stroke="#666666" points="551.25,-266 392,-266 392,-234 551.25,-234 551.25,-266"/>
<text xml:space="preserve" text-anchor="start" x="400" y="-252.5" font-family="Helvetica,sans-Serif" font-size="10.00">NetworkManager::handleCommit</text>
<text xml:space="preserve" text-anchor="middle" x="471.62" y="-240.5" font-family="Helvetica,sans-Serif" font-size="10.00">Board</text>
</a>
</g>
</g>
<!-- Node17&#45;&gt;Node18 -->
<g id="edge29_Node000017_Node000018" class="edge">
<title>Node17&#45;&gt;Node18</title>
<g id="a_edge29_Node000017_Node000018"><a xlink:title=" ">
<path fill="none" stroke="#63b8ff" d="M602.53,-284.56C580.28,-278.64 556.05,-272.19 534.6,-266.49"/>
<polygon fill="#63b8ff" stroke="#63b8ff" points="601.59,-287.93 612.15,-287.12 603.39,-281.16 601.59,-287.93"/>
</a>
</g>
</g>
<!-- Node19 -->
<g id="Node000019" class="node">
<title>Node19</title>
<g id="a_Node000019"><a xlink:href="../../da/d21/class_network_manager.html#a4b09485e1d33303ed11454b605fd740c" target="_top" xlink:title=" ">
<polygon fill="white" stroke="#666666" points="551.25,-316 392,-316 392,-284 551.25,-284 551.25,-316"/>
<text xml:space="preserve" text-anchor="start" x="400" y="-302.5" font-family="Helvetica,sans-Serif" font-size="10.00">NetworkManager::handleCommit</text>
<text xml:space="preserve" text-anchor="middle" x="471.62" y="-290.5" font-family="Helvetica,sans-Serif" font-size="10.00">Marker</text>
</a>
</g>
</g>
<!-- Node17&#45;&gt;Node19 -->
<g id="edge31_Node000017_Node000019" class="edge">
<title>Node17&#45;&gt;Node19</title>
<g id="a_edge31_Node000017_Node000019"><a xlink:title=" ">
<path fill="none" stroke="#63b8ff" d="M594.57,-302.4C580.44,-302.12 565.75,-301.84 551.67,-301.56"/>
<polygon fill="#63b8ff" stroke="#63b8ff" points="594.18,-305.9 604.25,-302.59 594.32,-298.9 594.18,-305.9"/>
</a>
</g>
</g>
<!-- Node18&#45;&gt;Node6 -->
<g id="edge30_Node000018_Node000006" class="edge">
<title>Node18&#45;&gt;Node6</title>
<g id="a_edge30_Node000018_Node000006"><a xlink:title=" ">
<path fill="none" stroke="#63b8ff" d="M380.27,-250C372.22,-250 364.13,-250 356.26,-250"/>
<polygon fill="#63b8ff" stroke="#63b8ff" points="380.09,-253.5 390.09,-250 380.09,-246.5 380.09,-253.5"/>
</a>
</g>
</g>
<!-- Node19&#45;&gt;Node6 -->
<g id="edge32_Node000019_Node000006" class="edge">
<title>Node19&#45;&gt;Node6</title>
<g id="a_edge32_Node000019_Node000006"><a xlink:title=" ">
<path fill="none" stroke="#63b8ff" d="M398.12,-280.68C380.49,-275.98 361.81,-271 344.73,-266.45"/>
<polygon fill="#63b8ff" stroke="#63b8ff" points="396.9,-283.98 407.47,-283.17 398.71,-277.21 396.9,-283.98"/>
</a>
</g>
</g>
</g>
</svg>
