<?xml version="1.0" encoding="UTF-8" standalone="no"?>
<!DOCTYPE svg PUBLIC "-//W3C//DTD SVG 1.1//EN"
 "http://www.w3.org/Graphics/SVG/1.1/DTD/svg11.dtd">
<!-- Generated by graphviz version 14.0.2 (20251019.1705)
 -->
<!-- Title: MessageQueue::try_pop Pages: 1 -->
<svg width="339pt" height="216pt"
 viewBox="0.00 0.00 339.00 216.00" xmlns="http://www.w3.org/2000/svg" xmlns:xlink="http://www.w3.org/1999/xlink">

<svg id="main" version="1.1" xmlns="http://www.w3.org/2000/svg" xmlns:xlink="http://www.w3.org/1999/xlink" xml:space="preserve" onload="init(evt)">
<style type="text/css"><![CDATA[
.node, .edge {opacity: 0.7;}
.node.selected, .edge.selected {opacity: 1;}
.edge:hover path { stroke: red; }
.edge:hover polygon { stroke: red; fill: red; }
]]></style>
<script type="application/ecmascript" xlink:href="../../svg.min.js"/>
<svg id="graph" class="graph">
<g id="graph0" class="graph" transform="scale(1 1) rotate(0) translate(4 212)">
<title>MessageQueue::try_pop</title>
<!-- Node1 -->
<g id="Node000001" class="node">
<title>Node1</title>
<g id="a_Node000001"><a xlink:title=" ">
<polygon fill="#999999" stroke="#666666" points="330.5,-126 208,-126 208,-106 330.5,-106 330.5,-126"/>
<text xml:space="preserve" text-anchor="middle" x="269.25" y="-112.5" font-family="Helvetica,sans-Serif" font-size="10.00">MessageQueue::try_pop</text>
</a>
</g>
</g>
<!-- Node2 -->
<g id="Node000002" class="node">
<title>Node2</title>
<g id="a_Node000002"><a xlink:href="../../da/d21/class_network_manager.html#a9211bd133aed2e5ec776b4d4308b30c4" target="_top" xlink:title=" ">
<polygon fill="white" stroke="#666666" points="160,-208 12,-208 12,-188 160,-188 160,-208"/>
<text xml:space="preserve" text-anchor="middle" x="86" y="-194.5" font-family="Helvetica,sans-Serif" font-size="10.00">NetworkManager::drainEvents</text>
</a>
</g>
</g>
<!-- Node1&#45;&gt;Node2 -->
<g id="edge1_Node000001_Node000002" class="edge">
<title>Node1&#45;&gt;Node2</title>
<g id="a_edge1_Node000001_Node000002"><a xlink:title=" ">
<path fill="none" stroke="#63b8ff" d="M246.87,-133.26C228.17,-147.53 199.73,-167.28 172,-179 163.92,-182.41 155.14,-185.26 146.39,-187.61"/>
<polygon fill="#63b8ff" stroke="#63b8ff" points="248.78,-136.2 254.52,-127.3 244.48,-130.68 248.78,-136.2"/>
</a>
</g>
</g>
<!-- Node3 -->
<g id="Node000003" class="node">
<title>Node3</title>
<g id="a_Node000003"><a xlink:href="../../da/d21/class_network_manager.html#ad3605b8b33fa44492458d0aaffb4dec8" target="_top" xlink:title=" ">
<polygon fill="white" stroke="#666666" points="172,-170 0,-170 0,-150 172,-150 172,-170"/>
<text xml:space="preserve" text-anchor="middle" x="86" y="-156.5" font-family="Helvetica,sans-Serif" font-size="10.00">NetworkManager::drainInboundRaw</text>
</a>
</g>
</g>
<!-- Node1&#45;&gt;Node3 -->
<g id="edge2_Node000001_Node000003" class="edge">
<title>Node1&#45;&gt;Node3</title>
<g id="a_edge2_Node000001_Node000003"><a xlink:title=" ">
<path fill="none" stroke="#63b8ff" d="M218.4,-129.29C203.5,-133.17 187.11,-137.35 172,-141 160.09,-143.88 147.21,-146.83 135.17,-149.53"/>
<polygon fill="#63b8ff" stroke="#63b8ff" points="219.2,-132.7 227.99,-126.78 217.43,-125.93 219.2,-132.7"/>
</a>
</g>
</g>
<!-- Node4 -->
<g id="Node000004" class="node">
<title>Node4</title>
<g id="a_Node000004"><a xlink:href="../../da/d21/class_network_manager.html#a3289708df965193b6ec0287eb069b276" target="_top" xlink:title=" ">
<polygon fill="white" stroke="#666666" points="154,-132 18,-132 18,-100 154,-100 154,-132"/>
<text xml:space="preserve" text-anchor="start" x="26" y="-118.5" font-family="Helvetica,sans-Serif" font-size="10.00">NetworkManager::startRaw</text>
<text xml:space="preserve" text-anchor="middle" x="86" y="-106.5" font-family="Helvetica,sans-Serif" font-size="10.00">DrainWorker</text>
</a>
</g>
</g>
<!-- Node1&#45;&gt;Node4 -->
<g id="edge3_Node000001_Node000004" class="edge">
<title>Node1&#45;&gt;Node4</title>
<g id="a_edge3_Node000001_Node000004"><a xlink:title=" ">
<path fill="none" stroke="#63b8ff" d="M196.23,-116C182.44,-116 168.05,-116 154.42,-116"/>
<polygon fill="#63b8ff" stroke="#63b8ff" points="196.13,-119.5 206.13,-116 196.13,-112.5 196.13,-119.5"/>
</a>
</g>
</g>
<!-- Node5 -->
<g id="Node000005" class="node">
<title>Node5</title>
<g id="a_Node000005"><a xlink:href="../../da/d21/class_network_manager.html#a3f670cc0d1dd5c59de24e3ae421cf12b" target="_top" xlink:title=" ">
<polygon fill="white" stroke="#666666" points="158.5,-82 13.5,-82 13.5,-50 158.5,-50 158.5,-82"/>
<text xml:space="preserve" text-anchor="start" x="21.5" y="-68.5" font-family="Helvetica,sans-Serif" font-size="10.00">NetworkManager::tryPopRaw</text>
<text xml:space="preserve" text-anchor="middle" x="86" y="-56.5" font-family="Helvetica,sans-Serif" font-size="10.00">Message</text>
</a>
</g>
</g>
<!-- Node1&#45;&gt;Node5 -->
<g id="edge4_Node000001_Node000005" class="edge">
<title>Node1&#45;&gt;Node5</title>
<g id="a_edge4_Node000001_Node000005"><a xlink:title=" ">
<path fill="none" stroke="#63b8ff" d="M219.32,-102.5C196.95,-96.33 170.25,-88.97 146.71,-82.47"/>
<polygon fill="#63b8ff" stroke="#63b8ff" points="218.22,-105.83 228.8,-105.12 220.09,-99.08 218.22,-105.83"/>
</a>
</g>
</g>
<!-- Node6 -->
<g id="Node000006" class="node">
<title>Node6</title>
<g id="a_Node000006"><a xlink:href="../../da/d21/class_network_manager.html#a27c7cfac9b696de6e1a04d9d3e1d226e" target="_top" xlink:title=" ">
<polygon fill="white" stroke="#666666" points="162.62,-32 9.38,-32 9.38,0 162.62,0 162.62,-32"/>
<text xml:space="preserve" text-anchor="start" x="17.38" y="-18.5" font-family="Helvetica,sans-Serif" font-size="10.00">NetworkManager::tryPopReady</text>
<text xml:space="preserve" text-anchor="middle" x="86" y="-6.5" font-family="Helvetica,sans-Serif" font-size="10.00">Message</text>
</a>
</g>
</g>
<!-- Node1&#45;&gt;Node6 -->
<g id="edge5_Node000001_Node000006" class="edge">
<title>Node1&#45;&gt;Node6</title>
<g id="a_edge5_Node000001_Node000006"><a xlink:title=" ">
<path fill="none" stroke="#63b8ff" d="M249.62,-97.97C231.24,-81.08 201.67,-56.22 172,-41 165.7,-37.77 158.93,-34.89 152.04,-32.35"/>
<polygon fill="#63b8ff" stroke="#63b8ff" points="247.13,-100.43 256.82,-104.73 251.92,-95.33 247.13,-100.43"/>
</a>
</g>
</g>
</g>
</svg>
</svg>

<style type='text/css'>
<![CDATA[
[data-mouse-over-selected='false'] { opacity: 0.7; }
[data-mouse-over-selected='true']  { opacity: 1.0; }
]]>
</style>
<script type="application/ecmascript"><![CDATA[
document.addEventListener('DOMContentLoaded', (event) => {
  highlightEdges();
  highlightAdjacentNodes();
});
]]></script>
</svg>
