<?xml version="1.0" encoding="UTF-8" standalone="no"?>
<!DOCTYPE svg PUBLIC "-//W3C//DTD SVG 1.1//EN"
 "http://www.w3.org/Graphics/SVG/1.1/DTD/svg11.dtd">
<!-- Generated by graphviz version 2.43.0 (0)
 -->
<!-- Title: ApplicationHandler::ResizeMapFBO Pages: 1 -->
<svg width="647pt" height="46pt"
 viewBox="0.00 0.00 647.00 46.00" xmlns="http://www.w3.org/2000/svg" xmlns:xlink="http://www.w3.org/1999/xlink">
<g id="graph0" class="graph" transform="scale(1 1) rotate(0) translate(4 42)">
<title>ApplicationHandler::ResizeMapFBO</title>
<!-- Node1 -->
<g id="Node000001" class="node">
<title>Node1</title>
<g id="a_Node000001"><a xlink:title=" ">
<polygon fill="#999999" stroke="#666666" points="189,-19 0,-19 0,0 189,0 189,-19"/>
<text text-anchor="middle" x="94.5" y="-7" font-family="Helvetica,sans-Serif" font-size="10.00">ApplicationHandler::ResizeMapFBO</text>
</a>
</g>
</g>
<!-- Node2 -->
<g id="Node000002" class="node">
<title>Node2</title>
<g id="a_Node000002"><a xlink:href="../../d8/d43/classApplicationHandler.html#a7655937c9f7a9b730af137a5ad1d9953" target="_top" xlink:title=" ">
<polygon fill="white" stroke="#666666" points="414,-38 225,-38 225,-19 414,-19 414,-38"/>
<text text-anchor="middle" x="319.5" y="-26" font-family="Helvetica,sans-Serif" font-size="10.00">ApplicationHandler::CreateMapFBO</text>
</a>
</g>
</g>
<!-- Node1&#45;&gt;Node2 -->
<g id="edge1_Node000001_Node000002" class="edge">
<title>Node1&#45;&gt;Node2</title>
<g id="a_edge1_Node000001_Node000002"><a xlink:title=" ">
<path fill="none" stroke="#63b8ff" d="M189.1,-17.48C197.58,-18.2 206.21,-18.93 214.77,-19.66"/>
<polygon fill="#63b8ff" stroke="#63b8ff" points="214.52,-23.15 224.78,-20.51 215.11,-16.18 214.52,-23.15"/>
</a>
</g>
</g>
<!-- Node3 -->
<g id="Node000003" class="node">
<title>Node3</title>
<g id="a_Node000003"><a xlink:href="../../d8/d43/classApplicationHandler.html#a1a100fed6275d5d36ae5ff35a278ed18" target="_top" xlink:title=" ">
<polygon fill="white" stroke="#666666" points="639,-19 450,-19 450,0 639,0 639,-19"/>
<text text-anchor="middle" x="544.5" y="-7" font-family="Helvetica,sans-Serif" font-size="10.00">ApplicationHandler::DeleteMapFBO</text>
</a>
</g>
</g>
<!-- Node1&#45;&gt;Node3 -->
<g id="edge3_Node000001_Node000003" class="edge">
<title>Node1&#45;&gt;Node3</title>
<g id="a_edge3_Node000001_Node000003"><a xlink:title=" ">
<path fill="none" stroke="#63b8ff" d="M189.14,-9.5C262.42,-9.5 364.24,-9.5 439.95,-9.5"/>
<polygon fill="#63b8ff" stroke="#63b8ff" points="439.98,-13 449.98,-9.5 439.98,-6 439.98,-13"/>
</a>
</g>
</g>
<!-- Node2&#45;&gt;Node3 -->
<g id="edge2_Node000002_Node000003" class="edge">
<title>Node2&#45;&gt;Node3</title>
<g id="a_edge2_Node000002_Node000003"><a xlink:title=" ">
<path fill="none" stroke="#63b8ff" d="M414.1,-20.52C422.58,-19.8 431.21,-19.07 439.77,-18.34"/>
<polygon fill="#63b8ff" stroke="#63b8ff" points="440.11,-21.82 449.78,-17.49 439.52,-14.85 440.11,-21.82"/>
</a>
</g>
</g>
</g>
</svg>
