<?xml version="1.0" encoding="UTF-8" standalone="no"?>
<!DOCTYPE svg PUBLIC "-//W3C//DTD SVG 1.1//EN"
 "http://www.w3.org/Graphics/SVG/1.1/DTD/svg11.dtd">
<!-- Generated by graphviz version 2.43.0 (0)
 -->
<!-- Title: IdentityManager::bindPeer Pages: 1 -->
<svg width="1205pt" height="103pt"
 viewBox="0.00 0.00 1205.00 103.00" xmlns="http://www.w3.org/2000/svg" xmlns:xlink="http://www.w3.org/1999/xlink">
<g id="graph0" class="graph" transform="scale(1 1) rotate(0) translate(4 99)">
<title>IdentityManager::bindPeer</title>
<!-- Node1 -->
<g id="Node000001" class="node">
<title>Node1</title>
<g id="a_Node000001"><a xlink:title=" ">
<polygon fill="#999999" stroke="#666666" points="146,-57 0,-57 0,-38 146,-38 146,-57"/>
<text text-anchor="middle" x="73" y="-45" font-family="Helvetica,sans-Serif" font-size="10.00">IdentityManager::bindPeer</text>
</a>
</g>
</g>
<!-- Node2 -->
<g id="Node000002" class="node">
<title>Node2</title>
<g id="a_Node000002"><a xlink:href="../../d8/d43/classIdentityManager.html#a18c85a39c82ac2918657286498bbe8da" target="_top" xlink:title=" ">
<polygon fill="white" stroke="#666666" points="400,-57 182,-57 182,-38 400,-38 400,-57"/>
<text text-anchor="middle" x="291" y="-45" font-family="Helvetica,sans-Serif" font-size="10.00">IdentityManager::saveAddressBookToFile</text>
</a>
</g>
</g>
<!-- Node1&#45;&gt;Node2 -->
<g id="edge1_Node000001_Node000002" class="edge">
<title>Node1&#45;&gt;Node2</title>
<g id="a_edge1_Node000001_Node000002"><a xlink:title=" ">
<path fill="none" stroke="#63b8ff" d="M146.23,-47.5C154.42,-47.5 162.93,-47.5 171.53,-47.5"/>
<polygon fill="#63b8ff" stroke="#63b8ff" points="171.65,-51 181.65,-47.5 171.65,-44 171.65,-51"/>
</a>
</g>
</g>
<!-- Node3 -->
<g id="Node000003" class="node">
<title>Node3</title>
<g id="a_Node000003"><a xlink:href="../../d8/d43/classIdentityManager.html#a6423b50955b5c9937b4e3c928ce86dff" target="_top" xlink:title=" ">
<polygon fill="white" stroke="#666666" points="606,-57 436,-57 436,-38 606,-38 606,-57"/>
<text text-anchor="middle" x="521" y="-45" font-family="Helvetica,sans-Serif" font-size="10.00">IdentityManager::writeBookFile</text>
</a>
</g>
</g>
<!-- Node2&#45;&gt;Node3 -->
<g id="edge2_Node000002_Node000003" class="edge">
<title>Node2&#45;&gt;Node3</title>
<g id="a_edge2_Node000002_Node000003"><a xlink:title=" ">
<path fill="none" stroke="#63b8ff" d="M400.32,-47.5C408.82,-47.5 417.36,-47.5 425.75,-47.5"/>
<polygon fill="#63b8ff" stroke="#63b8ff" points="425.9,-51 435.9,-47.5 425.9,-44 425.9,-51"/>
</a>
</g>
</g>
<!-- Node4 -->
<g id="Node000004" class="node">
<title>Node4</title>
<g id="a_Node000004"><a xlink:href="../../d8/d43/classIdentityManager.html#ad6a5adbbaa98c88ed1447e8783b0a6b8" target="_top" xlink:title=" ">
<polygon fill="white" stroke="#666666" points="793,-95 642,-95 642,-76 793,-76 793,-95"/>
<text text-anchor="middle" x="717.5" y="-83" font-family="Helvetica,sans-Serif" font-size="10.00">IdentityManager::kBookFile</text>
</a>
</g>
</g>
<!-- Node3&#45;&gt;Node4 -->
<g id="edge3_Node000003_Node000004" class="edge">
<title>Node3&#45;&gt;Node4</title>
<g id="a_edge3_Node000003_Node000004"><a xlink:title=" ">
<path fill="none" stroke="#63b8ff" d="M570.83,-57.04C597.19,-62.19 629.92,-68.58 657.67,-74.01"/>
<polygon fill="#63b8ff" stroke="#63b8ff" points="657.16,-77.47 667.65,-75.96 658.51,-70.6 657.16,-77.47"/>
</a>
</g>
</g>
<!-- Node7 -->
<g id="Node000007" class="node">
<title>Node7</title>
<g id="a_Node000007"><a xlink:href="../../db/d4b/classSerializer.html#ac812cf485e5804fd6f22d34ae076f79f" target="_top" xlink:title=" ">
<polygon fill="white" stroke="#666666" points="967,-38 845,-38 845,-19 967,-19 967,-38"/>
<text text-anchor="middle" x="906" y="-26" font-family="Helvetica,sans-Serif" font-size="10.00">Serializer::serializeInt</text>
</a>
</g>
</g>
<!-- Node3&#45;&gt;Node7 -->
<g id="edge6_Node000003_Node000007" class="edge">
<title>Node3&#45;&gt;Node7</title>
<g id="a_edge6_Node000003_Node000007"><a xlink:title=" ">
<path fill="none" stroke="#63b8ff" d="M606.05,-43.33C674.61,-39.93 770.33,-35.18 834.83,-31.98"/>
<polygon fill="#63b8ff" stroke="#63b8ff" points="835.09,-35.47 844.91,-31.48 834.75,-28.48 835.09,-35.47"/>
</a>
</g>
</g>
<!-- Node8 -->
<g id="Node000008" class="node">
<title>Node8</title>
<g id="a_Node000008"><a xlink:href="../../db/d4b/classSerializer.html#a8a72c08ebb91348dc2a7ef6557c44f6c" target="_top" xlink:title=" ">
<polygon fill="white" stroke="#666666" points="786.5,-19 648.5,-19 648.5,0 786.5,0 786.5,-19"/>
<text text-anchor="middle" x="717.5" y="-7" font-family="Helvetica,sans-Serif" font-size="10.00">Serializer::serializeString</text>
</a>
</g>
</g>
<!-- Node3&#45;&gt;Node8 -->
<g id="edge7_Node000003_Node000008" class="edge">
<title>Node3&#45;&gt;Node8</title>
<g id="a_edge7_Node000003_Node000008"><a xlink:title=" ">
<path fill="none" stroke="#63b8ff" d="M570.83,-37.96C597.19,-32.81 629.92,-26.42 657.67,-20.99"/>
<polygon fill="#63b8ff" stroke="#63b8ff" points="658.51,-24.4 667.65,-19.04 657.16,-17.53 658.51,-24.4"/>
</a>
</g>
</g>
<!-- Node5 -->
<g id="Node000005" class="node">
<title>Node5</title>
<g id="a_Node000005"><a xlink:href="../../d8/dec/classPathManager.html#a516850d4f1f941e8c93900eb01f6e38b" target="_top" xlink:title=" ">
<polygon fill="white" stroke="#666666" points="983,-95 829,-95 829,-76 983,-76 983,-95"/>
<text text-anchor="middle" x="906" y="-83" font-family="Helvetica,sans-Serif" font-size="10.00">PathManager::getConfigPath</text>
</a>
</g>
</g>
<!-- Node4&#45;&gt;Node5 -->
<g id="edge4_Node000004_Node000005" class="edge">
<title>Node4&#45;&gt;Node5</title>
<g id="a_edge4_Node000004_Node000005"><a xlink:title=" ">
<path fill="none" stroke="#63b8ff" d="M793.01,-85.5C801.47,-85.5 810.15,-85.5 818.74,-85.5"/>
<polygon fill="#63b8ff" stroke="#63b8ff" points="818.78,-89 828.78,-85.5 818.78,-82 818.78,-89"/>
</a>
</g>
</g>
<!-- Node6 -->
<g id="Node000006" class="node">
<title>Node6</title>
<g id="a_Node000006"><a xlink:href="../../d8/dec/classPathManager.html#a467b459b77c73cbc7544551b53911fcd" target="_top" xlink:title=" ">
<polygon fill="white" stroke="#666666" points="1197,-95 1019,-95 1019,-76 1197,-76 1197,-95"/>
<text text-anchor="middle" x="1108" y="-83" font-family="Helvetica,sans-Serif" font-size="10.00">PathManager::getExecutableRoot</text>
</a>
</g>
</g>
<!-- Node5&#45;&gt;Node6 -->
<g id="edge5_Node000005_Node000006" class="edge">
<title>Node5&#45;&gt;Node6</title>
<g id="a_edge5_Node000005_Node000006"><a xlink:title=" ">
<path fill="none" stroke="#63b8ff" d="M983.18,-85.5C991.59,-85.5 1000.24,-85.5 1008.87,-85.5"/>
<polygon fill="#63b8ff" stroke="#63b8ff" points="1008.98,-89 1018.98,-85.5 1008.98,-82 1008.98,-89"/>
</a>
</g>
</g>
<!-- Node8&#45;&gt;Node7 -->
<g id="edge8_Node000008_Node000007" class="edge">
<title>Node8&#45;&gt;Node7</title>
<g id="a_edge8_Node000008_Node000007"><a xlink:title=" ">
<path fill="none" stroke="#63b8ff" d="M786.62,-16.44C802.24,-18.03 818.88,-19.73 834.59,-21.33"/>
<polygon fill="#63b8ff" stroke="#63b8ff" points="834.46,-24.83 844.77,-22.36 835.17,-17.87 834.46,-24.83"/>
</a>
</g>
</g>
</g>
</svg>
