<?xml version="1.0" encoding="UTF-8" standalone="no"?>
<!DOCTYPE svg PUBLIC "-//W3C//DTD SVG 1.1//EN"
 "http://www.w3.org/Graphics/SVG/1.1/DTD/svg11.dtd">
<!-- Generated by graphviz version 2.43.0 (0)
 -->
<!-- Title: ApplicationHandler::DeleteMapFBO Pages: 1 -->
<svg width="1110pt" height="103pt"
 viewBox="0.00 0.00 1110.00 103.00" xmlns="http://www.w3.org/2000/svg" xmlns:xlink="http://www.w3.org/1999/xlink">
<g id="graph0" class="graph" transform="scale(1 1) rotate(0) translate(4 99)">
<title>ApplicationHandler::DeleteMapFBO</title>
<!-- Node1 -->
<g id="Node000001" class="node">
<title>Node1</title>
<g id="a_Node000001"><a xlink:title=" ">
<polygon fill="#999999" stroke="#666666" points="1102,-57 913,-57 913,-38 1102,-38 1102,-57"/>
<text text-anchor="middle" x="1007.5" y="-45" font-family="Helvetica,sans-Serif" font-size="10.00">ApplicationHandler::DeleteMapFBO</text>
</a>
</g>
</g>
<!-- Node2 -->
<g id="Node000002" class="node">
<title>Node2</title>
<g id="a_Node000002"><a xlink:href="../../d8/d43/classApplicationHandler.html#a7655937c9f7a9b730af137a5ad1d9953" target="_top" xlink:title=" ">
<polygon fill="white" stroke="#666666" points="863,-95 674,-95 674,-76 863,-76 863,-95"/>
<text text-anchor="middle" x="768.5" y="-83" font-family="Helvetica,sans-Serif" font-size="10.00">ApplicationHandler::CreateMapFBO</text>
</a>
</g>
</g>
<!-- Node1&#45;&gt;Node2 -->
<g id="edge1_Node000001_Node000002" class="edge">
<title>Node1&#45;&gt;Node2</title>
<g id="a_edge1_Node000001_Node000002"><a xlink:title=" ">
<path fill="none" stroke="#63b8ff" d="M937.06,-58.63C902.78,-64.13 861.85,-70.69 829.02,-75.96"/>
<polygon fill="#63b8ff" stroke="#63b8ff" points="937.68,-62.08 947,-57.04 936.57,-55.17 937.68,-62.08"/>
</a>
</g>
</g>
<!-- Node3 -->
<g id="Node000003" class="node">
<title>Node3</title>
<g id="a_Node000003"><a xlink:href="../../d8/d43/classApplicationHandler.html#ad75b179ef62024ae231903d789d019a8" target="_top" xlink:title=" ">
<polygon fill="white" stroke="#666666" points="624,-76 435,-76 435,-57 624,-57 624,-76"/>
<text text-anchor="middle" x="529.5" y="-64" font-family="Helvetica,sans-Serif" font-size="10.00">ApplicationHandler::ResizeMapFBO</text>
</a>
</g>
</g>
<!-- Node1&#45;&gt;Node3 -->
<g id="edge5_Node000001_Node000003" class="edge">
<title>Node1&#45;&gt;Node3</title>
<g id="a_edge5_Node000001_Node000003"><a xlink:title=" ">
<path fill="none" stroke="#63b8ff" d="M902.53,-51.65C819.51,-54.96 704.2,-59.57 624.05,-62.77"/>
<polygon fill="#63b8ff" stroke="#63b8ff" points="902.89,-55.14 912.74,-51.24 902.61,-48.14 902.89,-55.14"/>
</a>
</g>
</g>
<!-- Node6 -->
<g id="Node000006" class="node">
<title>Node6</title>
<g id="a_Node000006"><a xlink:href="../../d8/d43/classApplicationHandler.html#af9abb61c3602569b7c74cb2577979e03" target="_top" xlink:title=" ">
<polygon fill="white" stroke="#666666" points="877,-19 660,-19 660,0 877,0 877,-19"/>
<text text-anchor="middle" x="768.5" y="-7" font-family="Helvetica,sans-Serif" font-size="10.00">ApplicationHandler::~ApplicationHandler</text>
</a>
</g>
</g>
<!-- Node1&#45;&gt;Node6 -->
<g id="edge6_Node000001_Node000006" class="edge">
<title>Node1&#45;&gt;Node6</title>
<g id="a_edge6_Node000001_Node000006"><a xlink:title=" ">
<path fill="none" stroke="#63b8ff" d="M937.06,-36.37C902.78,-30.87 861.85,-24.31 829.02,-19.04"/>
<polygon fill="#63b8ff" stroke="#63b8ff" points="936.57,-39.83 947,-37.96 937.68,-32.92 936.57,-39.83"/>
</a>
</g>
</g>
<!-- Node2&#45;&gt;Node3 -->
<g id="edge2_Node000002_Node000003" class="edge">
<title>Node2&#45;&gt;Node3</title>
<g id="a_edge2_Node000002_Node000003"><a xlink:title=" ">
<path fill="none" stroke="#63b8ff" d="M663.83,-77.19C650.67,-76.13 637.26,-75.06 624.26,-74.02"/>
<polygon fill="#63b8ff" stroke="#63b8ff" points="663.58,-80.68 673.83,-77.99 664.14,-73.7 663.58,-80.68"/>
</a>
</g>
</g>
<!-- Node4 -->
<g id="Node000004" class="node">
<title>Node4</title>
<g id="a_Node000004"><a xlink:href="../../d8/d43/classApplicationHandler.html#a58149ff209044c5304a18a7a00be29bf" target="_top" xlink:title=" ">
<polygon fill="white" stroke="#666666" points="399,-76 167,-76 167,-57 399,-57 399,-76"/>
<text text-anchor="middle" x="283" y="-64" font-family="Helvetica,sans-Serif" font-size="10.00">ApplicationHandler::renderActiveGametable</text>
</a>
</g>
</g>
<!-- Node3&#45;&gt;Node4 -->
<g id="edge3_Node000003_Node000004" class="edge">
<title>Node3&#45;&gt;Node4</title>
<g id="a_edge3_Node000003_Node000004"><a xlink:title=" ">
<path fill="none" stroke="#63b8ff" d="M424.55,-66.5C416.19,-66.5 407.72,-66.5 399.29,-66.5"/>
<polygon fill="#63b8ff" stroke="#63b8ff" points="424.67,-70 434.67,-66.5 424.67,-63 424.67,-70"/>
</a>
</g>
</g>
<!-- Node5 -->
<g id="Node000005" class="node">
<title>Node5</title>
<g id="a_Node000005"><a xlink:href="../../d8/d43/classApplicationHandler.html#afaf00f4f20eca3fec59f8f02f76ef2ce" target="_top" xlink:title=" ">
<polygon fill="white" stroke="#666666" points="131,-76 0,-76 0,-57 131,-57 131,-76"/>
<text text-anchor="middle" x="65.5" y="-64" font-family="Helvetica,sans-Serif" font-size="10.00">ApplicationHandler::run</text>
</a>
</g>
</g>
<!-- Node4&#45;&gt;Node5 -->
<g id="edge4_Node000004_Node000005" class="edge">
<title>Node4&#45;&gt;Node5</title>
<g id="a_edge4_Node000004_Node000005"><a xlink:title=" ">
<path fill="none" stroke="#63b8ff" d="M156.92,-66.5C148.04,-66.5 139.32,-66.5 131.02,-66.5"/>
<polygon fill="#63b8ff" stroke="#63b8ff" points="156.99,-70 166.99,-66.5 156.99,-63 156.99,-70"/>
</a>
</g>
</g>
</g>
</svg>
