<?xml version="1.0" encoding="UTF-8" standalone="no"?>
<!DOCTYPE svg PUBLIC "-//W3C//DTD SVG 1.1//EN"
 "http://www.w3.org/Graphics/SVG/1.1/DTD/svg11.dtd">
<!-- Generated by graphviz version 2.43.0 (0)
 -->
<!-- Title: ApplicationHandler::DrawDebugCircle Pages: 1 -->
<svg width="643pt" height="27pt"
 viewBox="0.00 0.00 643.00 27.00" xmlns="http://www.w3.org/2000/svg" xmlns:xlink="http://www.w3.org/1999/xlink">
<g id="graph0" class="graph" transform="scale(1 1) rotate(0) translate(4 23)">
<title>ApplicationHandler::DrawDebugCircle</title>
<!-- Node1 -->
<g id="Node000001" class="node">
<title>Node1</title>
<g id="a_Node000001"><a xlink:title=" ">
<polygon fill="#999999" stroke="#666666" points="635,-19 435,-19 435,0 635,0 635,-19"/>
<text text-anchor="middle" x="535" y="-7" font-family="Helvetica,sans-Serif" font-size="10.00">ApplicationHandler::DrawDebugCircle</text>
</a>
</g>
</g>
<!-- Node2 -->
<g id="Node000002" class="node">
<title>Node2</title>
<g id="a_Node000002"><a xlink:href="../../d8/d43/classApplicationHandler.html#a58149ff209044c5304a18a7a00be29bf" target="_top" xlink:title=" ">
<polygon fill="white" stroke="#666666" points="399,-19 167,-19 167,0 399,0 399,-19"/>
<text text-anchor="middle" x="283" y="-7" font-family="Helvetica,sans-Serif" font-size="10.00">ApplicationHandler::renderActiveGametable</text>
</a>
</g>
</g>
<!-- Node1&#45;&gt;Node2 -->
<g id="edge1_Node000001_Node000002" class="edge">
<title>Node1&#45;&gt;Node2</title>
<g id="a_edge1_Node000001_Node000002"><a xlink:title=" ">
<path fill="none" stroke="#63b8ff" d="M424.6,-9.5C416.16,-9.5 407.62,-9.5 399.15,-9.5"/>
<polygon fill="#63b8ff" stroke="#63b8ff" points="424.83,-13 434.83,-9.5 424.83,-6 424.83,-13"/>
</a>
</g>
</g>
<!-- Node3 -->
<g id="Node000003" class="node">
<title>Node3</title>
<g id="a_Node000003"><a xlink:href="../../d8/d43/classApplicationHandler.html#afaf00f4f20eca3fec59f8f02f76ef2ce" target="_top" xlink:title=" ">
<polygon fill="white" stroke="#666666" points="131,-19 0,-19 0,0 131,0 131,-19"/>
<text text-anchor="middle" x="65.5" y="-7" font-family="Helvetica,sans-Serif" font-size="10.00">ApplicationHandler::run</text>
</a>
</g>
</g>
<!-- Node2&#45;&gt;Node3 -->
<g id="edge2_Node000002_Node000003" class="edge">
<title>Node2&#45;&gt;Node3</title>
<g id="a_edge2_Node000002_Node000003"><a xlink:title=" ">
<path fill="none" stroke="#63b8ff" d="M156.92,-9.5C148.04,-9.5 139.32,-9.5 131.02,-9.5"/>
<polygon fill="#63b8ff" stroke="#63b8ff" points="156.99,-13 166.99,-9.5 156.99,-6 156.99,-13"/>
</a>
</g>
</g>
</g>
</svg>
