<?xml version="1.0" encoding="UTF-8" standalone="no"?>
<!DOCTYPE svg PUBLIC "-//W3C//DTD SVG 1.1//EN"
 "http://www.w3.org/Graphics/SVG/1.1/DTD/svg11.dtd">
<!-- Generated by graphviz version 2.43.0 (0)
 -->
<!-- Title: IdentityManager::saveAddressBookToFile Pages: 1 -->
<svg width="1023pt" height="103pt"
 viewBox="0.00 0.00 1023.00 103.00" xmlns="http://www.w3.org/2000/svg" xmlns:xlink="http://www.w3.org/1999/xlink">
<g id="graph0" class="graph" transform="scale(1 1) rotate(0) translate(4 99)">
<title>IdentityManager::saveAddressBookToFile</title>
<!-- Node1 -->
<g id="Node000001" class="node">
<title>Node1</title>
<g id="a_Node000001"><a xlink:title=" ">
<polygon fill="#999999" stroke="#666666" points="218,-57 0,-57 0,-38 218,-38 218,-57"/>
<text text-anchor="middle" x="109" y="-45" font-family="Helvetica,sans-Serif" font-size="10.00">IdentityManager::saveAddressBookToFile</text>
</a>
</g>
</g>
<!-- Node2 -->
<g id="Node000002" class="node">
<title>Node2</title>
<g id="a_Node000002"><a xlink:href="../../d8/d43/classIdentityManager.html#a6423b50955b5c9937b4e3c928ce86dff" target="_top" xlink:title=" ">
<polygon fill="white" stroke="#666666" points="424,-57 254,-57 254,-38 424,-38 424,-57"/>
<text text-anchor="middle" x="339" y="-45" font-family="Helvetica,sans-Serif" font-size="10.00">IdentityManager::writeBookFile</text>
</a>
</g>
</g>
<!-- Node1&#45;&gt;Node2 -->
<g id="edge1_Node000001_Node000002" class="edge">
<title>Node1&#45;&gt;Node2</title>
<g id="a_edge1_Node000001_Node000002"><a xlink:title=" ">
<path fill="none" stroke="#63b8ff" d="M218.32,-47.5C226.82,-47.5 235.36,-47.5 243.75,-47.5"/>
<polygon fill="#63b8ff" stroke="#63b8ff" points="243.9,-51 253.9,-47.5 243.9,-44 243.9,-51"/>
</a>
</g>
</g>
<!-- Node3 -->
<g id="Node000003" class="node">
<title>Node3</title>
<g id="a_Node000003"><a xlink:href="../../d8/d43/classIdentityManager.html#ad6a5adbbaa98c88ed1447e8783b0a6b8" target="_top" xlink:title=" ">
<polygon fill="white" stroke="#666666" points="611,-95 460,-95 460,-76 611,-76 611,-95"/>
<text text-anchor="middle" x="535.5" y="-83" font-family="Helvetica,sans-Serif" font-size="10.00">IdentityManager::kBookFile</text>
</a>
</g>
</g>
<!-- Node2&#45;&gt;Node3 -->
<g id="edge2_Node000002_Node000003" class="edge">
<title>Node2&#45;&gt;Node3</title>
<g id="a_edge2_Node000002_Node000003"><a xlink:title=" ">
<path fill="none" stroke="#63b8ff" d="M388.83,-57.04C415.19,-62.19 447.92,-68.58 475.67,-74.01"/>
<polygon fill="#63b8ff" stroke="#63b8ff" points="475.16,-77.47 485.65,-75.96 476.51,-70.6 475.16,-77.47"/>
</a>
</g>
</g>
<!-- Node6 -->
<g id="Node000006" class="node">
<title>Node6</title>
<g id="a_Node000006"><a xlink:href="../../db/d4b/classSerializer.html#ac812cf485e5804fd6f22d34ae076f79f" target="_top" xlink:title=" ">
<polygon fill="white" stroke="#666666" points="785,-38 663,-38 663,-19 785,-19 785,-38"/>
<text text-anchor="middle" x="724" y="-26" font-family="Helvetica,sans-Serif" font-size="10.00">Serializer::serializeInt</text>
</a>
</g>
</g>
<!-- Node2&#45;&gt;Node6 -->
<g id="edge5_Node000002_Node000006" class="edge">
<title>Node2&#45;&gt;Node6</title>
<g id="a_edge5_Node000002_Node000006"><a xlink:title=" ">
<path fill="none" stroke="#63b8ff" d="M424.05,-43.33C492.61,-39.93 588.33,-35.18 652.83,-31.98"/>
<polygon fill="#63b8ff" stroke="#63b8ff" points="653.09,-35.47 662.91,-31.48 652.75,-28.48 653.09,-35.47"/>
</a>
</g>
</g>
<!-- Node7 -->
<g id="Node000007" class="node">
<title>Node7</title>
<g id="a_Node000007"><a xlink:href="../../db/d4b/classSerializer.html#a8a72c08ebb91348dc2a7ef6557c44f6c" target="_top" xlink:title=" ">
<polygon fill="white" stroke="#666666" points="604.5,-19 466.5,-19 466.5,0 604.5,0 604.5,-19"/>
<text text-anchor="middle" x="535.5" y="-7" font-family="Helvetica,sans-Serif" font-size="10.00">Serializer::serializeString</text>
</a>
</g>
</g>
<!-- Node2&#45;&gt;Node7 -->
<g id="edge6_Node000002_Node000007" class="edge">
<title>Node2&#45;&gt;Node7</title>
<g id="a_edge6_Node000002_Node000007"><a xlink:title=" ">
<path fill="none" stroke="#63b8ff" d="M388.83,-37.96C415.19,-32.81 447.92,-26.42 475.67,-20.99"/>
<polygon fill="#63b8ff" stroke="#63b8ff" points="476.51,-24.4 485.65,-19.04 475.16,-17.53 476.51,-24.4"/>
</a>
</g>
</g>
<!-- Node4 -->
<g id="Node000004" class="node">
<title>Node4</title>
<g id="a_Node000004"><a xlink:href="../../d8/dec/classPathManager.html#a516850d4f1f941e8c93900eb01f6e38b" target="_top" xlink:title=" ">
<polygon fill="white" stroke="#666666" points="801,-95 647,-95 647,-76 801,-76 801,-95"/>
<text text-anchor="middle" x="724" y="-83" font-family="Helvetica,sans-Serif" font-size="10.00">PathManager::getConfigPath</text>
</a>
</g>
</g>
<!-- Node3&#45;&gt;Node4 -->
<g id="edge3_Node000003_Node000004" class="edge">
<title>Node3&#45;&gt;Node4</title>
<g id="a_edge3_Node000003_Node000004"><a xlink:title=" ">
<path fill="none" stroke="#63b8ff" d="M611.01,-85.5C619.47,-85.5 628.15,-85.5 636.74,-85.5"/>
<polygon fill="#63b8ff" stroke="#63b8ff" points="636.78,-89 646.78,-85.5 636.78,-82 636.78,-89"/>
</a>
</g>
</g>
<!-- Node5 -->
<g id="Node000005" class="node">
<title>Node5</title>
<g id="a_Node000005"><a xlink:href="../../d8/dec/classPathManager.html#a467b459b77c73cbc7544551b53911fcd" target="_top" xlink:title=" ">
<polygon fill="white" stroke="#666666" points="1015,-95 837,-95 837,-76 1015,-76 1015,-95"/>
<text text-anchor="middle" x="926" y="-83" font-family="Helvetica,sans-Serif" font-size="10.00">PathManager::getExecutableRoot</text>
</a>
</g>
</g>
<!-- Node4&#45;&gt;Node5 -->
<g id="edge4_Node000004_Node000005" class="edge">
<title>Node4&#45;&gt;Node5</title>
<g id="a_edge4_Node000004_Node000005"><a xlink:title=" ">
<path fill="none" stroke="#63b8ff" d="M801.18,-85.5C809.59,-85.5 818.24,-85.5 826.87,-85.5"/>
<polygon fill="#63b8ff" stroke="#63b8ff" points="826.98,-89 836.98,-85.5 826.98,-82 826.98,-89"/>
</a>
</g>
</g>
<!-- Node7&#45;&gt;Node6 -->
<g id="edge7_Node000007_Node000006" class="edge">
<title>Node7&#45;&gt;Node6</title>
<g id="a_edge7_Node000007_Node000006"><a xlink:title=" ">
<path fill="none" stroke="#63b8ff" d="M604.62,-16.44C620.24,-18.03 636.88,-19.73 652.59,-21.33"/>
<polygon fill="#63b8ff" stroke="#63b8ff" points="652.46,-24.83 662.77,-22.36 653.17,-17.87 652.46,-24.83"/>
</a>
</g>
</g>
</g>
</svg>
