<?xml version="1.0" encoding="UTF-8" standalone="no"?>
<!DOCTYPE svg PUBLIC "-//W3C//DTD SVG 1.1//EN"
 "http://www.w3.org/Graphics/SVG/1.1/DTD/svg11.dtd">
<!-- Generated by graphviz version 2.43.0 (0)
 -->
<!-- Title: src/renderer/Renderer.cpp Pages: 1 -->
<svg width="655pt" height="192pt"
 viewBox="0.00 0.00 654.50 192.00" xmlns="http://www.w3.org/2000/svg" xmlns:xlink="http://www.w3.org/1999/xlink">
<g id="graph0" class="graph" transform="scale(1 1) rotate(0) translate(4 188)">
<title>src/renderer/Renderer.cpp</title>
<!-- Node1 -->
<g id="Node000001" class="node">
<title>Node1</title>
<g id="a_Node000001"><a xlink:title=" ">
<polygon fill="#999999" stroke="#666666" points="428.5,-184 286.5,-184 286.5,-165 428.5,-165 428.5,-184"/>
<text text-anchor="middle" x="357.5" y="-172" font-family="Helvetica,sans-Serif" font-size="10.00">src/renderer/Renderer.cpp</text>
</a>
</g>
</g>
<!-- Node2 -->
<g id="Node000002" class="node">
<title>Node2</title>
<g id="a_Node000002"><a xlink:href="../../d8/db2/Renderer_8h.html" target="_top" xlink:title=" ">
<polygon fill="white" stroke="#666666" points="323,-129 254,-129 254,-110 323,-110 323,-129"/>
<text text-anchor="middle" x="288.5" y="-117" font-family="Helvetica,sans-Serif" font-size="10.00">Renderer.h</text>
</a>
</g>
</g>
<!-- Node1&#45;&gt;Node2 -->
<g id="edge1_Node000001_Node000002" class="edge">
<title>Node1&#45;&gt;Node2</title>
<g id="a_edge1_Node000001_Node000002"><a xlink:title=" ">
<path fill="none" stroke="#63b8ff" d="M346.41,-164.98C336.01,-157 320.24,-144.88 307.78,-135.31"/>
<polygon fill="#63b8ff" stroke="#63b8ff" points="309.85,-132.49 299.79,-129.17 305.59,-138.04 309.85,-132.49"/>
</a>
</g>
</g>
<!-- Node9 -->
<g id="Node000009" class="node">
<title>Node9</title>
<g id="a_Node000009"><a xlink:title=" ">
<polygon fill="#e0e0e0" stroke="#999999" points="646.5,-19 586.5,-19 586.5,0 646.5,0 646.5,-19"/>
<text text-anchor="middle" x="616.5" y="-7" font-family="Helvetica,sans-Serif" font-size="10.00">iostream</text>
</a>
</g>
</g>
<!-- Node1&#45;&gt;Node9 -->
<g id="edge14_Node000001_Node000009" class="edge">
<title>Node1&#45;&gt;Node9</title>
<g id="a_edge14_Node000001_Node000009"><a xlink:title=" ">
<path fill="none" stroke="#63b8ff" d="M371.06,-164.97C413.18,-138.46 542.06,-57.35 594.23,-24.52"/>
<polygon fill="#63b8ff" stroke="#63b8ff" points="596.16,-27.43 602.76,-19.15 592.43,-21.51 596.16,-27.43"/>
</a>
</g>
</g>
<!-- Node3 -->
<g id="Node000003" class="node">
<title>Node3</title>
<g id="a_Node000003"><a xlink:title=" ">
<polygon fill="#e0e0e0" stroke="#999999" points="365.5,-74 301.5,-74 301.5,-55 365.5,-55 365.5,-74"/>
<text text-anchor="middle" x="333.5" y="-62" font-family="Helvetica,sans-Serif" font-size="10.00">GL/glew.h</text>
</a>
</g>
</g>
<!-- Node2&#45;&gt;Node3 -->
<g id="edge2_Node000002_Node000003" class="edge">
<title>Node2&#45;&gt;Node3</title>
<g id="a_edge2_Node000002_Node000003"><a xlink:title=" ">
<path fill="none" stroke="#63b8ff" d="M295.93,-109.75C302.35,-102.18 311.81,-91.05 319.62,-81.84"/>
<polygon fill="#63b8ff" stroke="#63b8ff" points="322.4,-83.98 326.21,-74.09 317.07,-79.45 322.4,-83.98"/>
</a>
</g>
</g>
<!-- Node4 -->
<g id="Node000004" class="node">
<title>Node4</title>
<g id="a_Node000004"><a xlink:title=" ">
<polygon fill="#e0e0e0" stroke="#999999" points="83,-74 0,-74 0,-55 83,-55 83,-74"/>
<text text-anchor="middle" x="41.5" y="-62" font-family="Helvetica,sans-Serif" font-size="10.00">GLFW/glfw3.h</text>
</a>
</g>
</g>
<!-- Node2&#45;&gt;Node4 -->
<g id="edge3_Node000002_Node000004" class="edge">
<title>Node2&#45;&gt;Node4</title>
<g id="a_edge3_Node000002_Node000004"><a xlink:title=" ">
<path fill="none" stroke="#63b8ff" d="M253.9,-111.07C211.5,-101.98 139.39,-86.5 91.1,-76.14"/>
<polygon fill="#63b8ff" stroke="#63b8ff" points="91.69,-72.69 81.18,-74.01 90.22,-79.53 91.69,-72.69"/>
</a>
</g>
</g>
<!-- Node5 -->
<g id="Node000005" class="node">
<title>Node5</title>
<g id="a_Node000005"><a xlink:href="../../d5/dae/VertexArray_8h.html" target="_top" xlink:title=" ">
<polygon fill="white" stroke="#666666" points="183.5,-74 101.5,-74 101.5,-55 183.5,-55 183.5,-74"/>
<text text-anchor="middle" x="142.5" y="-62" font-family="Helvetica,sans-Serif" font-size="10.00">VertexArray.h</text>
</a>
</g>
</g>
<!-- Node2&#45;&gt;Node5 -->
<g id="edge4_Node000002_Node000005" class="edge">
<title>Node2&#45;&gt;Node5</title>
<g id="a_edge4_Node000002_Node000005"><a xlink:title=" ">
<path fill="none" stroke="#63b8ff" d="M265.04,-109.98C240.92,-101.23 203.13,-87.51 175.9,-77.62"/>
<polygon fill="#63b8ff" stroke="#63b8ff" points="176.98,-74.29 166.38,-74.17 174.59,-80.87 176.98,-74.29"/>
</a>
</g>
</g>
<!-- Node7 -->
<g id="Node000007" class="node">
<title>Node7</title>
<g id="a_Node000007"><a xlink:href="../../da/d3a/IndexBuffer_8h.html" target="_top" xlink:title=" ">
<polygon fill="white" stroke="#666666" points="283,-74 202,-74 202,-55 283,-55 283,-74"/>
<text text-anchor="middle" x="242.5" y="-62" font-family="Helvetica,sans-Serif" font-size="10.00">IndexBuffer.h</text>
</a>
</g>
</g>
<!-- Node2&#45;&gt;Node7 -->
<g id="edge6_Node000002_Node000007" class="edge">
<title>Node2&#45;&gt;Node7</title>
<g id="a_edge6_Node000002_Node000007"><a xlink:title=" ">
<path fill="none" stroke="#63b8ff" d="M280.9,-109.75C274.34,-102.18 264.68,-91.05 256.69,-81.84"/>
<polygon fill="#63b8ff" stroke="#63b8ff" points="259.15,-79.35 249.95,-74.09 253.87,-83.94 259.15,-79.35"/>
</a>
</g>
</g>
<!-- Node8 -->
<g id="Node000008" class="node">
<title>Node8</title>
<g id="a_Node000008"><a xlink:href="../../d2/dac/Shader_8h.html" target="_top" xlink:title=" ">
<polygon fill="white" stroke="#666666" points="443,-74 384,-74 384,-55 443,-55 443,-74"/>
<text text-anchor="middle" x="413.5" y="-62" font-family="Helvetica,sans-Serif" font-size="10.00">Shader.h</text>
</a>
</g>
</g>
<!-- Node2&#45;&gt;Node8 -->
<g id="edge7_Node000002_Node000008" class="edge">
<title>Node2&#45;&gt;Node8</title>
<g id="a_edge7_Node000002_Node000008"><a xlink:title=" ">
<path fill="none" stroke="#63b8ff" d="M308.58,-109.98C328.87,-101.38 360.46,-87.99 383.67,-78.15"/>
<polygon fill="#63b8ff" stroke="#63b8ff" points="385.21,-81.3 393.05,-74.17 382.48,-74.85 385.21,-81.3"/>
</a>
</g>
</g>
<!-- Node6 -->
<g id="Node000006" class="node">
<title>Node6</title>
<g id="a_Node000006"><a xlink:href="../../d9/d38/VertexBuffer_8h.html" target="_top" xlink:title=" ">
<polygon fill="white" stroke="#666666" points="151.5,-19 65.5,-19 65.5,0 151.5,0 151.5,-19"/>
<text text-anchor="middle" x="108.5" y="-7" font-family="Helvetica,sans-Serif" font-size="10.00">VertexBuffer.h</text>
</a>
</g>
</g>
<!-- Node5&#45;&gt;Node6 -->
<g id="edge5_Node000005_Node000006" class="edge">
<title>Node5&#45;&gt;Node6</title>
<g id="a_edge5_Node000005_Node000006"><a xlink:title=" ">
<path fill="none" stroke="#63b8ff" d="M136.89,-54.75C132.18,-47.42 125.33,-36.73 119.53,-27.7"/>
<polygon fill="#63b8ff" stroke="#63b8ff" points="122.36,-25.62 114.01,-19.09 116.46,-29.4 122.36,-25.62"/>
</a>
</g>
</g>
<!-- Node8&#45;&gt;Node9 -->
<g id="edge8_Node000008_Node000009" class="edge">
<title>Node8&#45;&gt;Node9</title>
<g id="a_edge8_Node000008_Node000009"><a xlink:title=" ">
<path fill="none" stroke="#63b8ff" d="M443.02,-55.79C478.22,-46.6 537.22,-31.2 576.5,-20.94"/>
<polygon fill="#63b8ff" stroke="#63b8ff" points="577.49,-24.3 586.28,-18.39 575.72,-17.53 577.49,-24.3"/>
</a>
</g>
</g>
<!-- Node10 -->
<g id="Node000010" class="node">
<title>Node10</title>
<g id="a_Node000010"><a xlink:title=" ">
<polygon fill="#e0e0e0" stroke="#999999" points="568,-19 513,-19 513,0 568,0 568,-19"/>
<text text-anchor="middle" x="540.5" y="-7" font-family="Helvetica,sans-Serif" font-size="10.00">fstream</text>
</a>
</g>
</g>
<!-- Node8&#45;&gt;Node10 -->
<g id="edge9_Node000008_Node000010" class="edge">
<title>Node8&#45;&gt;Node10</title>
<g id="a_edge9_Node000008_Node000010"><a xlink:title=" ">
<path fill="none" stroke="#63b8ff" d="M433.9,-54.98C454.52,-46.38 486.61,-32.99 510.19,-23.15"/>
<polygon fill="#63b8ff" stroke="#63b8ff" points="511.84,-26.25 519.72,-19.17 509.15,-19.79 511.84,-26.25"/>
</a>
</g>
</g>
<!-- Node11 -->
<g id="Node000011" class="node">
<title>Node11</title>
<g id="a_Node000011"><a xlink:title=" ">
<polygon fill="#e0e0e0" stroke="#999999" points="213.5,-19 169.5,-19 169.5,0 213.5,0 213.5,-19"/>
<text text-anchor="middle" x="191.5" y="-7" font-family="Helvetica,sans-Serif" font-size="10.00">string</text>
</a>
</g>
</g>
<!-- Node8&#45;&gt;Node11 -->
<g id="edge10_Node000008_Node000011" class="edge">
<title>Node8&#45;&gt;Node11</title>
<g id="a_edge10_Node000008_Node000011"><a xlink:title=" ">
<path fill="none" stroke="#63b8ff" d="M383.97,-56.99C348.27,-49.04 286.15,-34.96 223.82,-19.26"/>
<polygon fill="#63b8ff" stroke="#63b8ff" points="224.38,-15.79 213.82,-16.73 222.66,-22.58 224.38,-15.79"/>
</a>
</g>
</g>
<!-- Node12 -->
<g id="Node000012" class="node">
<title>Node12</title>
<g id="a_Node000012"><a xlink:title=" ">
<polygon fill="#e0e0e0" stroke="#999999" points="287.5,-19 231.5,-19 231.5,0 287.5,0 287.5,-19"/>
<text text-anchor="middle" x="259.5" y="-7" font-family="Helvetica,sans-Serif" font-size="10.00">sstream</text>
</a>
</g>
</g>
<!-- Node8&#45;&gt;Node12 -->
<g id="edge11_Node000008_Node000012" class="edge">
<title>Node8&#45;&gt;Node12</title>
<g id="a_edge11_Node000008_Node000012"><a xlink:title=" ">
<path fill="none" stroke="#63b8ff" d="M388.76,-54.98C363.13,-46.16 322.87,-32.31 294.09,-22.41"/>
<polygon fill="#63b8ff" stroke="#63b8ff" points="295.03,-19.03 284.44,-19.08 292.75,-25.65 295.03,-19.03"/>
</a>
</g>
</g>
<!-- Node13 -->
<g id="Node000013" class="node">
<title>Node13</title>
<g id="a_Node000013"><a xlink:title=" ">
<polygon fill="#e0e0e0" stroke="#999999" points="383.5,-19 305.5,-19 305.5,0 383.5,0 383.5,-19"/>
<text text-anchor="middle" x="344.5" y="-7" font-family="Helvetica,sans-Serif" font-size="10.00">glm/glm.hpp</text>
</a>
</g>
</g>
<!-- Node8&#45;&gt;Node13 -->
<g id="edge12_Node000008_Node000013" class="edge">
<title>Node8&#45;&gt;Node13</title>
<g id="a_edge12_Node000008_Node000013"><a xlink:title=" ">
<path fill="none" stroke="#63b8ff" d="M402.41,-54.98C392.01,-47 376.24,-34.88 363.78,-25.31"/>
<polygon fill="#63b8ff" stroke="#63b8ff" points="365.85,-22.49 355.79,-19.17 361.59,-28.04 365.85,-22.49"/>
</a>
</g>
</g>
<!-- Node14 -->
<g id="Node000014" class="node">
<title>Node14</title>
<g id="a_Node000014"><a xlink:title=" ">
<polygon fill="#e0e0e0" stroke="#999999" points="495,-19 402,-19 402,0 495,0 495,-19"/>
<text text-anchor="middle" x="448.5" y="-7" font-family="Helvetica,sans-Serif" font-size="10.00">unordered_map</text>
</a>
</g>
</g>
<!-- Node8&#45;&gt;Node14 -->
<g id="edge13_Node000008_Node000014" class="edge">
<title>Node8&#45;&gt;Node14</title>
<g id="a_edge13_Node000008_Node000014"><a xlink:title=" ">
<path fill="none" stroke="#63b8ff" d="M419.28,-54.75C424.12,-47.42 431.18,-36.73 437.14,-27.7"/>
<polygon fill="#63b8ff" stroke="#63b8ff" points="440.24,-29.36 442.83,-19.09 434.4,-25.5 440.24,-29.36"/>
</a>
</g>
</g>
</g>
</svg>
