<?xml version="1.0" encoding="UTF-8" standalone="no"?>
<!DOCTYPE svg PUBLIC "-//W3C//DTD SVG 1.1//EN"
 "http://www.w3.org/Graphics/SVG/1.1/DTD/svg11.dtd">
<!-- Generated by graphviz version 2.43.0 (0)
 -->
<!-- Title: DebugActions::RegisterToasterToggles Pages: 1 -->
<svg width="616pt" height="138pt"
 viewBox="0.00 0.00 616.00 138.00" xmlns="http://www.w3.org/2000/svg" xmlns:xlink="http://www.w3.org/1999/xlink">
<g id="graph0" class="graph" transform="scale(1 1) rotate(0) translate(4 134)">
<title>DebugActions::RegisterToasterToggles</title>
<!-- Node1 -->
<g id="Node000001" class="node">
<title>Node1</title>
<g id="a_Node000001"><a xlink:title=" ">
<polygon fill="#999999" stroke="#666666" points="203,-93 0,-93 0,-74 203,-74 203,-93"/>
<text text-anchor="middle" x="101.5" y="-81" font-family="Helvetica,sans-Serif" font-size="10.00">DebugActions::RegisterToasterToggles</text>
</a>
</g>
</g>
<!-- Node2 -->
<g id="Node000002" class="node">
<title>Node2</title>
<g id="a_Node000002"><a xlink:href="../../da/d4c/classDebugConsole.html#a7bca63678bdb0ec7273afe2d308e1160" target="_top" xlink:title=" ">
<polygon fill="white" stroke="#666666" points="394.5,-130 251.5,-130 251.5,-111 394.5,-111 394.5,-130"/>
<text text-anchor="middle" x="323" y="-118" font-family="Helvetica,sans-Serif" font-size="10.00">DebugConsole::addToggle</text>
</a>
</g>
</g>
<!-- Node1&#45;&gt;Node2 -->
<g id="edge1_Node000001_Node000002" class="edge">
<title>Node1&#45;&gt;Node2</title>
<g id="a_edge1_Node000001_Node000002"><a xlink:title=" ">
<path fill="none" stroke="#63b8ff" d="M159.03,-93.03C188.36,-97.97 224.38,-104.04 255.09,-109.22"/>
<polygon fill="#63b8ff" stroke="#63b8ff" points="254.84,-112.73 265.28,-110.94 256,-105.83 254.84,-112.73"/>
</a>
</g>
</g>
<!-- Node3 -->
<g id="Node000003" class="node">
<title>Node3</title>
<g id="a_Node000003"><a xlink:href="../../d9/dd0/namespaceDebugActions.html#a4768e514c08fc094a8e80ba8def371ea" target="_top" xlink:title=" ">
<polygon fill="white" stroke="#666666" points="407,-93 239,-93 239,-74 407,-74 407,-93"/>
<text text-anchor="middle" x="323" y="-81" font-family="Helvetica,sans-Serif" font-size="10.00">DebugActions::ToasterChanged</text>
</a>
</g>
</g>
<!-- Node1&#45;&gt;Node3 -->
<g id="edge2_Node000001_Node000003" class="edge">
<title>Node1&#45;&gt;Node3</title>
<g id="a_edge2_Node000001_Node000003"><a xlink:title=" ">
<path fill="none" stroke="#63b8ff" d="M203.26,-83.5C211.75,-83.5 220.31,-83.5 228.75,-83.5"/>
<polygon fill="#63b8ff" stroke="#63b8ff" points="228.95,-87 238.95,-83.5 228.95,-80 228.95,-87"/>
</a>
</g>
</g>
<!-- Node6 -->
<g id="Node000006" class="node">
<title>Node6</title>
<g id="a_Node000006"><a xlink:href="../../d9/dd0/namespaceDebugActions.html#a9f0ef1ee48947cd640d772814c7e5140" target="_top" xlink:title=" ">
<polygon fill="white" stroke="#666666" points="396,-56 250,-56 250,-37 396,-37 396,-56"/>
<text text-anchor="middle" x="323" y="-44" font-family="Helvetica,sans-Serif" font-size="10.00">DebugActions::ToasterTick</text>
</a>
</g>
</g>
<!-- Node1&#45;&gt;Node6 -->
<g id="edge6_Node000001_Node000006" class="edge">
<title>Node1&#45;&gt;Node6</title>
<g id="a_edge6_Node000001_Node000006"><a xlink:title=" ">
<path fill="none" stroke="#63b8ff" d="M159.03,-73.97C188.36,-69.03 224.38,-62.96 255.09,-57.78"/>
<polygon fill="#63b8ff" stroke="#63b8ff" points="256,-61.17 265.28,-56.06 254.84,-54.27 256,-61.17"/>
</a>
</g>
</g>
<!-- Node4 -->
<g id="Node000004" class="node">
<title>Node4</title>
<g id="a_Node000004"><a xlink:href="../../db/d67/classLogger.html#aebb248e608f8e2724de20b482cb2a15f" target="_top" xlink:title=" ">
<polygon fill="white" stroke="#666666" points="574,-56 477,-56 477,-37 574,-37 574,-56"/>
<text text-anchor="middle" x="525.5" y="-44" font-family="Helvetica,sans-Serif" font-size="10.00">Logger::instance</text>
</a>
</g>
</g>
<!-- Node3&#45;&gt;Node4 -->
<g id="edge3_Node000003_Node000004" class="edge">
<title>Node3&#45;&gt;Node4</title>
<g id="a_edge3_Node000003_Node000004"><a xlink:title=" ">
<path fill="none" stroke="#63b8ff" d="M375.63,-73.97C403.55,-68.82 438.11,-62.44 466.9,-57.13"/>
<polygon fill="#63b8ff" stroke="#63b8ff" points="467.62,-60.55 476.82,-55.3 466.35,-53.67 467.62,-60.55"/>
</a>
</g>
</g>
<!-- Node5 -->
<g id="Node000005" class="node">
<title>Node5</title>
<g id="a_Node000005"><a xlink:href="../../db/d67/classLogger.html#ab77a9a6a08954192b47c39f359b5d370" target="_top" xlink:title=" ">
<polygon fill="white" stroke="#666666" points="561,-93 490,-93 490,-74 561,-74 561,-93"/>
<text text-anchor="middle" x="525.5" y="-81" font-family="Helvetica,sans-Serif" font-size="10.00">Logger::log</text>
</a>
</g>
</g>
<!-- Node3&#45;&gt;Node5 -->
<g id="edge4_Node000003_Node000005" class="edge">
<title>Node3&#45;&gt;Node5</title>
<g id="a_edge4_Node000003_Node000005"><a xlink:title=" ">
<path fill="none" stroke="#63b8ff" d="M407.29,-83.5C432.16,-83.5 458.47,-83.5 479.84,-83.5"/>
<polygon fill="#63b8ff" stroke="#63b8ff" points="479.91,-87 489.91,-83.5 479.91,-80 479.91,-87"/>
</a>
</g>
</g>
<!-- Node5&#45;&gt;Node5 -->
<g id="edge5_Node000005_Node000005" class="edge">
<title>Node5&#45;&gt;Node5</title>
<g id="a_edge5_Node000005_Node000005"><a xlink:title=" ">
<path fill="none" stroke="#63b8ff" d="M494.37,-93.08C479.22,-101.73 489.6,-111 525.5,-111 550.74,-111 563.37,-106.42 563.37,-100.69"/>
<polygon fill="#63b8ff" stroke="#63b8ff" points="565.89,-98.25 556.63,-93.08 560.65,-102.89 565.89,-98.25"/>
</a>
</g>
</g>
<!-- Node6&#45;&gt;Node4 -->
<g id="edge7_Node000006_Node000004" class="edge">
<title>Node6&#45;&gt;Node4</title>
<g id="a_edge7_Node000006_Node000004"><a xlink:title=" ">
<path fill="none" stroke="#63b8ff" d="M396.1,-46.5C419.27,-46.5 444.61,-46.5 466.62,-46.5"/>
<polygon fill="#63b8ff" stroke="#63b8ff" points="466.8,-50 476.8,-46.5 466.8,-43 466.8,-50"/>
</a>
</g>
</g>
<!-- Node6&#45;&gt;Node5 -->
<g id="edge8_Node000006_Node000005" class="edge">
<title>Node6&#45;&gt;Node5</title>
<g id="a_edge8_Node000006_Node000005"><a xlink:title=" ">
<path fill="none" stroke="#63b8ff" d="M375.63,-56.03C407.85,-61.97 448.89,-69.55 479.72,-75.24"/>
<polygon fill="#63b8ff" stroke="#63b8ff" points="479.29,-78.72 489.76,-77.09 480.56,-71.83 479.29,-78.72"/>
</a>
</g>
</g>
<!-- Node7 -->
<g id="Node000007" class="node">
<title>Node7</title>
<g id="a_Node000007"><a xlink:href="../../d9/dd0/namespaceDebugActions.html#a627884124505b8c816228d512673be7e" target="_top" xlink:title=" ">
<polygon fill="white" stroke="#666666" points="608,-19 443,-19 443,0 608,0 608,-19"/>
<text text-anchor="middle" x="525.5" y="-7" font-family="Helvetica,sans-Serif" font-size="10.00">DebugActions::timeElapsedMs</text>
</a>
</g>
</g>
<!-- Node6&#45;&gt;Node7 -->
<g id="edge9_Node000006_Node000007" class="edge">
<title>Node6&#45;&gt;Node7</title>
<g id="a_edge9_Node000006_Node000007"><a xlink:title=" ">
<path fill="none" stroke="#63b8ff" d="M375.63,-36.97C402.19,-32.07 434.76,-26.06 462.65,-20.91"/>
<polygon fill="#63b8ff" stroke="#63b8ff" points="463.49,-24.32 472.69,-19.06 462.22,-17.43 463.49,-24.32"/>
</a>
</g>
</g>
</g>
</svg>
