<?xml version="1.0" encoding="UTF-8" standalone="no"?>
<!DOCTYPE svg PUBLIC "-//W3C//DTD SVG 1.1//EN"
 "http://www.w3.org/Graphics/SVG/1.1/DTD/svg11.dtd">
<!-- Generated by graphviz version 2.43.0 (0)
 -->
<!-- Title: DebugActions::ToasterChanged Pages: 1 -->
<svg width="309pt" height="82pt"
 viewBox="0.00 0.00 309.00 82.00" xmlns="http://www.w3.org/2000/svg" xmlns:xlink="http://www.w3.org/1999/xlink">
<g id="graph0" class="graph" transform="scale(1 1) rotate(0) translate(4 78)">
<title>DebugActions::ToasterChanged</title>
<!-- Node1 -->
<g id="Node000001" class="node">
<title>Node1</title>
<g id="a_Node000001"><a xlink:title=" ">
<polygon fill="#999999" stroke="#666666" points="168,-46 0,-46 0,-27 168,-27 168,-46"/>
<text text-anchor="middle" x="84" y="-34" font-family="Helvetica,sans-Serif" font-size="10.00">DebugActions::ToasterChanged</text>
</a>
</g>
</g>
<!-- Node2 -->
<g id="Node000002" class="node">
<title>Node2</title>
<g id="a_Node000002"><a xlink:href="../../db/d67/classLogger.html#aebb248e608f8e2724de20b482cb2a15f" target="_top" xlink:title=" ">
<polygon fill="white" stroke="#666666" points="301,-74 204,-74 204,-55 301,-55 301,-74"/>
<text text-anchor="middle" x="252.5" y="-62" font-family="Helvetica,sans-Serif" font-size="10.00">Logger::instance</text>
</a>
</g>
</g>
<!-- Node1&#45;&gt;Node2 -->
<g id="edge1_Node000001_Node000002" class="edge">
<title>Node1&#45;&gt;Node2</title>
<g id="a_edge1_Node000001_Node000002"><a xlink:title=" ">
<path fill="none" stroke="#63b8ff" d="M141.83,-46.06C158.53,-48.87 176.81,-51.94 193.57,-54.76"/>
<polygon fill="#63b8ff" stroke="#63b8ff" points="193.34,-58.27 203.78,-56.48 194.5,-51.37 193.34,-58.27"/>
</a>
</g>
</g>
<!-- Node3 -->
<g id="Node000003" class="node">
<title>Node3</title>
<g id="a_Node000003"><a xlink:href="../../db/d67/classLogger.html#ab77a9a6a08954192b47c39f359b5d370" target="_top" xlink:title=" ">
<polygon fill="white" stroke="#666666" points="288,-19 217,-19 217,0 288,0 288,-19"/>
<text text-anchor="middle" x="252.5" y="-7" font-family="Helvetica,sans-Serif" font-size="10.00">Logger::log</text>
</a>
</g>
</g>
<!-- Node1&#45;&gt;Node3 -->
<g id="edge2_Node000001_Node000003" class="edge">
<title>Node1&#45;&gt;Node3</title>
<g id="a_edge2_Node000001_Node000003"><a xlink:title=" ">
<path fill="none" stroke="#63b8ff" d="M143.7,-26.98C164.34,-23.63 187.18,-19.93 206.51,-16.8"/>
<polygon fill="#63b8ff" stroke="#63b8ff" points="207.24,-20.22 216.55,-15.17 206.12,-13.31 207.24,-20.22"/>
</a>
</g>
</g>
<!-- Node3&#45;&gt;Node3 -->
<g id="edge3_Node000003_Node000003" class="edge">
<title>Node3&#45;&gt;Node3</title>
<g id="a_edge3_Node000003_Node000003"><a xlink:title=" ">
<path fill="none" stroke="#63b8ff" d="M226.61,-19.08C214.01,-27.73 222.64,-37 252.5,-37 272.56,-37 283.04,-32.82 283.94,-27.45"/>
<polygon fill="#63b8ff" stroke="#63b8ff" points="286.84,-25.49 278.39,-19.08 281,-29.35 286.84,-25.49"/>
</a>
</g>
</g>
</g>
</svg>
