<?xml version="1.0" encoding="UTF-8" standalone="no"?>
<!DOCTYPE svg PUBLIC "-//W3C//DTD SVG 1.1//EN"
 "http://www.w3.org/Graphics/SVG/1.1/DTD/svg11.dtd">
<!-- Generated by graphviz version 2.43.0 (0)
 -->
<!-- Title: DebugActions::ToasterTick Pages: 1 -->
<svg width="638pt" height="27pt"
 viewBox="0.00 0.00 638.00 27.00" xmlns="http://www.w3.org/2000/svg" xmlns:xlink="http://www.w3.org/1999/xlink">
<g id="graph0" class="graph" transform="scale(1 1) rotate(0) translate(4 23)">
<title>DebugActions::ToasterTick</title>
<!-- Node1 -->
<g id="Node000001" class="node">
<title>Node1</title>
<g id="a_Node000001"><a xlink:title=" ">
<polygon fill="#999999" stroke="#666666" points="630,-19 484,-19 484,0 630,0 630,-19"/>
<text text-anchor="middle" x="557" y="-7" font-family="Helvetica,sans-Serif" font-size="10.00">DebugActions::ToasterTick</text>
</a>
</g>
</g>
<!-- Node2 -->
<g id="Node000002" class="node">
<title>Node2</title>
<g id="a_Node000002"><a xlink:href="../../d9/dd0/namespaceDebugActions.html#ab01b32376c3f2c27c176777985893ccd" target="_top" xlink:title=" ">
<polygon fill="white" stroke="#666666" points="448,-19 245,-19 245,0 448,0 448,-19"/>
<text text-anchor="middle" x="346.5" y="-7" font-family="Helvetica,sans-Serif" font-size="10.00">DebugActions::RegisterToasterToggles</text>
</a>
</g>
</g>
<!-- Node1&#45;&gt;Node2 -->
<g id="edge1_Node000001_Node000002" class="edge">
<title>Node1&#45;&gt;Node2</title>
<g id="a_edge1_Node000001_Node000002"><a xlink:title=" ">
<path fill="none" stroke="#63b8ff" d="M473.82,-9.5C465.42,-9.5 456.82,-9.5 448.24,-9.5"/>
<polygon fill="#63b8ff" stroke="#63b8ff" points="473.95,-13 483.95,-9.5 473.95,-6 473.95,-13"/>
</a>
</g>
</g>
<!-- Node3 -->
<g id="Node000003" class="node">
<title>Node3</title>
<g id="a_Node000003"><a xlink:href="../../d8/d43/classApplicationHandler.html#a5488b63e5eb5617c18e2a85c0e2d8703" target="_top" xlink:title=" ">
<polygon fill="white" stroke="#666666" points="209,-19 0,-19 0,0 209,0 209,-19"/>
<text text-anchor="middle" x="104.5" y="-7" font-family="Helvetica,sans-Serif" font-size="10.00">ApplicationHandler::ApplicationHandler</text>
</a>
</g>
</g>
<!-- Node2&#45;&gt;Node3 -->
<g id="edge2_Node000002_Node000003" class="edge">
<title>Node2&#45;&gt;Node3</title>
<g id="a_edge2_Node000002_Node000003"><a xlink:title=" ">
<path fill="none" stroke="#63b8ff" d="M234.75,-9.5C226.2,-9.5 217.57,-9.5 209.06,-9.5"/>
<polygon fill="#63b8ff" stroke="#63b8ff" points="234.76,-13 244.76,-9.5 234.76,-6 234.76,-13"/>
</a>
</g>
</g>
</g>
</svg>
