<?xml version="1.0" encoding="UTF-8" standalone="no"?>
<!DOCTYPE svg PUBLIC "-//W3C//DTD SVG 1.1//EN"
 "http://www.w3.org/Graphics/SVG/1.1/DTD/svg11.dtd">
<!-- Generated by graphviz version 14.0.2 (20251019.1705)
 -->
<!-- Title: msg::BoardMeta Pages: 1 -->
<svg width="339pt" height="240pt"
 viewBox="0.00 0.00 339.00 240.00" xmlns="http://www.w3.org/2000/svg" xmlns:xlink="http://www.w3.org/1999/xlink">
<g id="graph0" class="graph" transform="scale(1 1) rotate(0) translate(4 236)">
<title>msg::BoardMeta</title>
<!-- Node1 -->
<g id="Node000001" class="node">
<title>Node1</title>
<g id="a_Node000001"><a xlink:title=" ">
<polygon fill="#999999" stroke="none" points="192.88,-52 105.12,-52 105.12,0 192.88,0 192.88,-52"/>
<text xml:space="preserve" text-anchor="start" x="113" y="-38.5" font-family="Helvetica,sans-Serif" font-size="10.00">msg::BoardMeta</text>
<text xml:space="preserve" text-anchor="start" x="109.12" y="-22.5" font-family="Helvetica,sans-Serif" font-size="10.00">+</text>
<text xml:space="preserve" text-anchor="start" x="119.12" y="-22.5" font-family="Helvetica,sans-Serif" font-size="10.00">uint64_t boardId</text>
<text xml:space="preserve" text-anchor="start" x="147.5" y="-6.5" font-family="Helvetica,sans-Serif" font-size="10.00"> </text>
<polygon fill="#666666" stroke="#666666" points="105.12,-34 105.12,-34 192.88,-34 192.88,-34 105.12,-34"/>
<polygon fill="#666666" stroke="#666666" points="105.12,-18 105.12,-18 117.12,-18 117.12,-18 105.12,-18"/>
<polygon fill="#666666" stroke="#666666" points="117.12,-18 117.12,-18 192.88,-18 192.88,-18 117.12,-18"/>
<polygon fill="none" stroke="#666666" points="105.12,0 105.12,-52 192.88,-52 192.88,0 105.12,0"/>
</a>
</g>
</g>
<!-- Node2 -->
<g id="Node000002" class="node">
<title>Node2</title>
<g id="a_Node000002"><a xlink:title=" ">
<polygon fill="white" stroke="none" points="32,-192 0,-192 0,-140 32,-140 32,-192"/>
<text xml:space="preserve" text-anchor="start" x="4" y="-178.5" font-family="Helvetica,sans-Serif" font-size="10.00">string</text>
<text xml:space="preserve" text-anchor="start" x="14.5" y="-162.5" font-family="Helvetica,sans-Serif" font-size="10.00"> </text>
<text xml:space="preserve" text-anchor="start" x="14.5" y="-146.5" font-family="Helvetica,sans-Serif" font-size="10.00"> </text>
<polygon fill="#666666" stroke="#666666" points="0,-174 0,-174 32,-174 32,-174 0,-174"/>
<polygon fill="#666666" stroke="#666666" points="0,-158 0,-158 32,-158 32,-158 0,-158"/>
<polygon fill="none" stroke="#666666" points="0,-140 0,-192 32,-192 32,-140 0,-140"/>
</a>
</g>
</g>
<!-- Node2&#45;&gt;Node1 -->
<g id="edge1_Node000001_Node000002" class="edge">
<title>Node2&#45;&gt;Node1</title>
<g id="a_edge1_Node000001_Node000002"><a xlink:title=" ">
<path fill="none" stroke="#63b8ff" d="M22.96,-140.31C30.16,-118.96 43.4,-88.68 64.75,-70 73.37,-62.46 83.55,-55.83 93.79,-50.19"/>
<polygon fill="none" stroke="#63b8ff" points="93.85,-50.16 97.34,-43.85 104.51,-44.64 101.02,-50.95 93.85,-50.16"/>
</a>
</g>
<text xml:space="preserve" text-anchor="middle" x="94.38" y="-72.5" font-family="Helvetica,sans-Serif" font-size="10.00" fill="grey"> +boardName</text>
</g>
<!-- Node3 -->
<g id="Node000003" class="node">
<title>Node3</title>
<g id="a_Node000003"><a xlink:href="../../d4/d35/struct_panning.html" target="_top" xlink:title=" ">
<polygon fill="white" stroke="none" points="134.88,-192 53.12,-192 53.12,-140 134.88,-140 134.88,-192"/>
<text xml:space="preserve" text-anchor="start" x="76.38" y="-178.5" font-family="Helvetica,sans-Serif" font-size="10.00">Panning</text>
<text xml:space="preserve" text-anchor="start" x="57.12" y="-162.5" font-family="Helvetica,sans-Serif" font-size="10.00">+</text>
<text xml:space="preserve" text-anchor="start" x="67.12" y="-162.5" font-family="Helvetica,sans-Serif" font-size="10.00">bool isPanning</text>
<text xml:space="preserve" text-anchor="start" x="92.5" y="-146.5" font-family="Helvetica,sans-Serif" font-size="10.00"> </text>
<polygon fill="#666666" stroke="#666666" points="53.12,-174 53.12,-174 134.88,-174 134.88,-174 53.12,-174"/>
<polygon fill="#666666" stroke="#666666" points="53.12,-158 53.12,-158 65.12,-158 65.12,-158 53.12,-158"/>
<polygon fill="#666666" stroke="#666666" points="65.12,-158 65.12,-158 134.88,-158 134.88,-158 65.12,-158"/>
<polygon fill="none" stroke="#666666" points="53.12,-140 53.12,-192 134.88,-192 134.88,-140 53.12,-140"/>
</a>
</g>
</g>
<!-- Node3&#45;&gt;Node1 -->
<g id="edge2_Node000001_Node000003" class="edge">
<title>Node3&#45;&gt;Node1</title>
<g id="a_edge2_Node000001_Node000003"><a xlink:title=" ">
<path fill="none" stroke="#63b8ff" d="M103.96,-140.01C112.45,-118.71 124.76,-87.81 134.37,-63.71"/>
<polygon fill="none" stroke="#63b8ff" points="134.34,-63.79 132.84,-56.73 138.78,-52.64 140.27,-59.7 134.34,-63.79"/>
</a>
</g>
<text xml:space="preserve" text-anchor="middle" x="143.58" y="-72.5" font-family="Helvetica,sans-Serif" font-size="10.00" fill="grey"> +pan</text>
</g>
<!-- Node4 -->
<g id="Node000004" class="node">
<title>Node4</title>
<g id="a_Node000004"><a xlink:href="../../d0/d49/struct_grid.html" target="_top" xlink:title=" ">
<polygon fill="white" stroke="none" points="247.25,-232 152.75,-232 152.75,-100 247.25,-100 247.25,-232"/>
<text xml:space="preserve" text-anchor="start" x="191" y="-218.5" font-family="Helvetica,sans-Serif" font-size="10.00">Grid</text>
<text xml:space="preserve" text-anchor="start" x="156.75" y="-202.5" font-family="Helvetica,sans-Serif" font-size="10.00">+</text>
<text xml:space="preserve" text-anchor="start" x="166.75" y="-202.5" font-family="Helvetica,sans-Serif" font-size="10.00">glm::vec2 offset</text>
<text xml:space="preserve" text-anchor="start" x="156.75" y="-186.5" font-family="Helvetica,sans-Serif" font-size="10.00">+</text>
<text xml:space="preserve" text-anchor="start" x="166.75" y="-186.5" font-family="Helvetica,sans-Serif" font-size="10.00">float cell_size</text>
<text xml:space="preserve" text-anchor="start" x="156.75" y="-170.5" font-family="Helvetica,sans-Serif" font-size="10.00">+</text>
<text xml:space="preserve" text-anchor="start" x="166.75" y="-170.5" font-family="Helvetica,sans-Serif" font-size="10.00">bool is_hex</text>
<text xml:space="preserve" text-anchor="start" x="156.75" y="-154.5" font-family="Helvetica,sans-Serif" font-size="10.00">+</text>
<text xml:space="preserve" text-anchor="start" x="166.75" y="-154.5" font-family="Helvetica,sans-Serif" font-size="10.00">bool snap_to_grid</text>
<text xml:space="preserve" text-anchor="start" x="156.75" y="-138.5" font-family="Helvetica,sans-Serif" font-size="10.00">+</text>
<text xml:space="preserve" text-anchor="start" x="166.75" y="-138.5" font-family="Helvetica,sans-Serif" font-size="10.00">bool visible</text>
<text xml:space="preserve" text-anchor="start" x="156.75" y="-122.5" font-family="Helvetica,sans-Serif" font-size="10.00">+</text>
<text xml:space="preserve" text-anchor="start" x="166.75" y="-122.5" font-family="Helvetica,sans-Serif" font-size="10.00">float opacity</text>
<text xml:space="preserve" text-anchor="start" x="198.5" y="-106.5" font-family="Helvetica,sans-Serif" font-size="10.00"> </text>
<polygon fill="#666666" stroke="#666666" points="152.75,-214 152.75,-214 247.25,-214 247.25,-214 152.75,-214"/>
<polygon fill="#666666" stroke="#666666" points="152.75,-118 152.75,-118 164.75,-118 164.75,-118 152.75,-118"/>
<polygon fill="#666666" stroke="#666666" points="164.75,-118 164.75,-118 247.25,-118 247.25,-118 164.75,-118"/>
<polygon fill="none" stroke="#666666" points="152.75,-100 152.75,-232 247.25,-232 247.25,-100 152.75,-100"/>
</a>
</g>
</g>
<!-- Node4&#45;&gt;Node1 -->
<g id="edge3_Node000001_Node000004" class="edge">
<title>Node4&#45;&gt;Node1</title>
<g id="a_edge3_Node000001_Node000004"><a xlink:title=" ">
<path fill="none" stroke="#63b8ff" d="M175.99,-100.04C171.38,-87.55 166.69,-74.87 162.55,-63.67"/>
<polygon fill="none" stroke="#63b8ff" points="162.61,-63.84 156.78,-59.59 158.45,-52.58 164.29,-56.82 162.61,-63.84"/>
</a>
</g>
<text xml:space="preserve" text-anchor="middle" x="180.81" y="-72.5" font-family="Helvetica,sans-Serif" font-size="10.00" fill="grey"> +grid</text>
</g>
<!-- Node5 -->
<g id="Node000005" class="node">
<title>Node5</title>
<g id="a_Node000005"><a xlink:href="../../d8/df1/struct_size.html" target="_top" xlink:title=" ">
<polygon fill="white" stroke="none" points="331,-200 265,-200 265,-132 331,-132 331,-200"/>
<text xml:space="preserve" text-anchor="start" x="288.25" y="-186.5" font-family="Helvetica,sans-Serif" font-size="10.00">Size</text>
<text xml:space="preserve" text-anchor="start" x="269" y="-170.5" font-family="Helvetica,sans-Serif" font-size="10.00">+</text>
<text xml:space="preserve" text-anchor="start" x="279" y="-170.5" font-family="Helvetica,sans-Serif" font-size="10.00">float width</text>
<text xml:space="preserve" text-anchor="start" x="269" y="-154.5" font-family="Helvetica,sans-Serif" font-size="10.00">+</text>
<text xml:space="preserve" text-anchor="start" x="279" y="-154.5" font-family="Helvetica,sans-Serif" font-size="10.00">float height</text>
<text xml:space="preserve" text-anchor="start" x="296.5" y="-138.5" font-family="Helvetica,sans-Serif" font-size="10.00"> </text>
<polygon fill="#666666" stroke="#666666" points="265,-182 265,-182 331,-182 331,-182 265,-182"/>
<polygon fill="#666666" stroke="#666666" points="265,-150 265,-150 277,-150 277,-150 265,-150"/>
<polygon fill="#666666" stroke="#666666" points="277,-150 277,-150 331,-150 331,-150 277,-150"/>
<polygon fill="none" stroke="#666666" points="265,-132 265,-200 331,-200 331,-132 265,-132"/>
</a>
</g>
</g>
<!-- Node5&#45;&gt;Node1 -->
<g id="edge4_Node000001_Node000005" class="edge">
<title>Node5&#45;&gt;Node1</title>
<g id="a_edge4_Node000001_Node000005"><a xlink:title=" ">
<path fill="none" stroke="#63b8ff" d="M280.26,-132.06C273.5,-121.16 265.19,-109.43 256,-100 240.72,-84.33 221.6,-70.03 203.76,-58.32"/>
<polygon fill="none" stroke="#63b8ff" points="203.75,-58.31 196.54,-58.45 193.63,-51.86 200.84,-51.71 203.75,-58.31"/>
</a>
</g>
<text xml:space="preserve" text-anchor="middle" x="248.55" y="-72.5" font-family="Helvetica,sans-Serif" font-size="10.00" fill="grey"> +size</text>
</g>
</g>
</svg>
