<?xml version="1.0" encoding="UTF-8" standalone="no"?>
<!DOCTYPE svg PUBLIC "-//W3C//DTD SVG 1.1//EN"
 "http://www.w3.org/Graphics/SVG/1.1/DTD/svg11.dtd">
<!-- Generated by graphviz version 14.0.2 (20251019.1705)
 -->
<!-- Title: GameTableManager::loadGameTable Pages: 1 -->
<!--zoomable 509 -->

<svg id="main" version="1.1" xmlns="http://www.w3.org/2000/svg" xmlns:xlink="http://www.w3.org/1999/xlink" xml:space="preserve" onload="init(evt)">
<style type="text/css"><![CDATA[
.node, .edge {opacity: 0.7;}
.node.selected, .edge.selected {opacity: 1;}
.edge:hover path { stroke: red; }
.edge:hover polygon { stroke: red; fill: red; }
]]></style>

<defs>
  <circle id="rim" cx="0" cy="0" r="7"/>
  <circle id="rim2" cx="0" cy="0" r="3.5"/>
  <g id="zoomPlus">
    <use xlink:href="#rim" fill="#404040"><set attributeName="fill" to="#808080" begin="zoomplus.mouseover" end="zoomplus.mouseout"/></use>
    <path d="M-4,0h8M0,-4v8" fill="none" stroke="white" stroke-width="1.5" pointer-events="none"/>
  </g>
  <g id="zoomMin">
    <use xlink:href="#rim" fill="#404040"><set attributeName="fill" to="#808080" begin="zoomminus.mouseover" end="zoomminus.mouseout"/></use>
    <path d="M-4,0h8" fill="none" stroke="white" stroke-width="1.5" pointer-events="none"/>
  </g>
  <g id="arrowUp" transform="translate(30 24)">
    <use xlink:href="#rim"/>
    <path pointer-events="none" fill="none" stroke="white" stroke-width="1.5" d="M0,-3.0v7 M-2.5,-0.5L0,-3.0L2.5,-0.5"/>
  </g>
  <g id="arrowRight" transform="rotate(90) translate(36 -43)">
    <use xlink:href="#rim"/>
    <path pointer-events="none" fill="none" stroke="white" stroke-width="1.5" d="M0,-3.0v7 M-2.5,-0.5L0,-3.0L2.5,-0.5"/>
  </g>
  <g id="arrowDown" transform="rotate(180) translate(-30 -48)">
    <use xlink:href="#rim"/>
    <path pointer-events="none" fill="none" stroke="white" stroke-width="1.5" d="M0,-3.0v7 M-2.5,-0.5L0,-3.0L2.5,-0.5"/>
  </g>
  <g id="arrowLeft" transform="rotate(270) translate(-36 17)">
    <use xlink:href="#rim"/>
    <path pointer-events="none" fill="none" stroke="white" stroke-width="1.5" d="M0,-3.0v7 M-2.5,-0.5L0,-3.0L2.5,-0.5"/>
  </g>
  <g id="resetDef">
    <use xlink:href="#rim2" fill="#404040"><set attributeName="fill" to="#808080" begin="reset.mouseover" end="reset.mouseout"/></use>
  </g>
</defs>
<script type="application/ecmascript">
var viewWidth = 1203;
var viewHeight = 509;
var sectionId = 'dynsection-23';
</script>
<script type="application/ecmascript" xlink:href="../../svg.min.js"/>
<svg id="graph" class="graph">
<g id="viewport">
<title>GameTableManager::loadGameTable</title>
<!-- Node1 -->
<g id="Node000001" class="node">
<title>Node1</title>
<g id="a_Node000001"><a xlink:title=" ">
<polygon fill="#999999" stroke="#666666" points="153.25,-399.33 0,-399.33 0,-367.33 153.25,-367.33 153.25,-399.33"/>
<text xml:space="preserve" text-anchor="start" x="8" y="-385.83" font-family="Helvetica,sans-Serif" font-size="10.00">GameTableManager::loadGame</text>
<text xml:space="preserve" text-anchor="middle" x="76.62" y="-373.83" font-family="Helvetica,sans-Serif" font-size="10.00">Table</text>
</a>
</g>
</g>
<!-- Node2 -->
<g id="Node000002" class="node">
<title>Node2</title>
<g id="a_Node000002"><a xlink:href="../../d0/dc2/class_serializer.html#a0fa2fd5d94c71074a2a2d4d08fb2ddfd" target="_top" xlink:title=" ">
<polygon fill="white" stroke="#666666" points="324.5,-399.33 189.25,-399.33 189.25,-367.33 324.5,-367.33 324.5,-399.33"/>
<text xml:space="preserve" text-anchor="start" x="197.25" y="-385.83" font-family="Helvetica,sans-Serif" font-size="10.00">Serializer::deserializeGame</text>
<text xml:space="preserve" text-anchor="middle" x="256.88" y="-373.83" font-family="Helvetica,sans-Serif" font-size="10.00">TableEntity</text>
</a>
</g>
</g>
<!-- Node1&#45;&gt;Node2 -->
<g id="edge1_Node000001_Node000002" class="edge">
<title>Node1&#45;&gt;Node2</title>
<g id="a_edge1_Node000001_Node000002"><a xlink:title=" ">
<path fill="none" stroke="#63b8ff" d="M153.74,-383.33C161.62,-383.33 169.64,-383.33 177.55,-383.33"/>
<polygon fill="#63b8ff" stroke="#63b8ff" points="177.51,-386.83 187.51,-383.33 177.51,-379.83 177.51,-386.83"/>
</a>
</g>
</g>
<!-- Node3 -->
<g id="Node000003" class="node">
<title>Node3</title>
<g id="a_Node000003"><a xlink:href="../../d0/dc2/class_serializer.html#aff25e5361ee486db1fb453b6ec1f8acf" target="_top" xlink:title=" ">
<polygon fill="white" stroke="#666666" points="495.38,-279.33 360.88,-279.33 360.88,-247.33 495.38,-247.33 495.38,-279.33"/>
<text xml:space="preserve" text-anchor="start" x="368.88" y="-265.83" font-family="Helvetica,sans-Serif" font-size="10.00">Serializer::deserializeBoard</text>
<text xml:space="preserve" text-anchor="middle" x="428.12" y="-253.83" font-family="Helvetica,sans-Serif" font-size="10.00">Entity</text>
</a>
</g>
</g>
<!-- Node2&#45;&gt;Node3 -->
<g id="edge2_Node000002_Node000003" class="edge">
<title>Node2&#45;&gt;Node3</title>
<g id="a_edge2_Node000002_Node000003"><a xlink:title=" ">
<path fill="none" stroke="#63b8ff" d="M281.05,-366.89C310.47,-346.04 361.38,-309.94 394.65,-286.35"/>
<polygon fill="#63b8ff" stroke="#63b8ff" points="396.59,-289.27 402.72,-280.63 392.54,-283.56 396.59,-289.27"/>
</a>
</g>
</g>
<!-- Node6 -->
<g id="Node000006" class="node">
<title>Node6</title>
<g id="a_Node000006"><a xlink:href="../../d0/dc2/class_serializer.html#a45c8b78e8467c6f7dba85fd7a21c8781" target="_top" xlink:title=" ">
<polygon fill="white" stroke="#666666" points="1189.75,-416.33 1069.5,-416.33 1069.5,-396.33 1189.75,-396.33 1189.75,-416.33"/>
<text xml:space="preserve" text-anchor="middle" x="1129.62" y="-402.83" font-family="Helvetica,sans-Serif" font-size="10.00">Serializer::deserializeInt</text>
</a>
</g>
</g>
<!-- Node2&#45;&gt;Node6 -->
<g id="edge41_Node000002_Node000006" class="edge">
<title>Node2&#45;&gt;Node6</title>
<g id="a_edge41_Node000002_Node000006"><a xlink:title=" ">
<path fill="none" stroke="#63b8ff" d="M280.41,-399.82C300.5,-413.81 331.18,-433.44 360.5,-445.33 462.96,-486.88 492.31,-501.33 602.88,-501.33 602.88,-501.33 602.88,-501.33 785.88,-501.33 895.52,-501.33 924.2,-489.91 1028.25,-455.33 1053.99,-446.77 1081.56,-432.94 1101.29,-422.15"/>
<polygon fill="#63b8ff" stroke="#63b8ff" points="1102.75,-425.34 1109.78,-417.41 1099.34,-419.23 1102.75,-425.34"/>
</a>
</g>
</g>
<!-- Node11 -->
<g id="Node000011" class="node">
<title>Node11</title>
<g id="a_Node000011"><a xlink:href="../../d0/dc2/class_serializer.html#abc991f78f5490e60783620ab4c3444e6" target="_top" xlink:title=" ">
<polygon fill="white" stroke="#666666" points="854,-31.33 715.75,-31.33 715.75,-11.33 854,-11.33 854,-31.33"/>
<text xml:space="preserve" text-anchor="middle" x="784.88" y="-17.83" font-family="Helvetica,sans-Serif" font-size="10.00">Serializer::deserializeUInt64</text>
</a>
</g>
</g>
<!-- Node2&#45;&gt;Node11 -->
<g id="edge42_Node000002_Node000011" class="edge">
<title>Node2&#45;&gt;Node11</title>
<g id="a_edge42_Node000002_Node000011"><a xlink:title=" ">
<path fill="none" stroke="#63b8ff" d="M263.83,-367.19C286.94,-307.32 377.14,-97.44 531.75,-22.33 594.66,8.23 677.25,1.04 730.45,-8.69"/>
<polygon fill="#63b8ff" stroke="#63b8ff" points="729.7,-12.11 740.19,-10.57 731.03,-5.24 729.7,-12.11"/>
</a>
</g>
</g>
<!-- Node21 -->
<g id="Node000021" class="node">
<title>Node21</title>
<g id="a_Node000021"><a xlink:href="../../d0/dc2/class_serializer.html#a528a1155f9fb2669c3e70f8ab2011991" target="_top" xlink:title=" ">
<polygon fill="white" stroke="#666666" points="495.75,-436.33 360.5,-436.33 360.5,-404.33 495.75,-404.33 495.75,-436.33"/>
<text xml:space="preserve" text-anchor="start" x="368.5" y="-422.83" font-family="Helvetica,sans-Serif" font-size="10.00">Serializer::deserializeGame</text>
<text xml:space="preserve" text-anchor="middle" x="428.12" y="-410.83" font-family="Helvetica,sans-Serif" font-size="10.00">Table</text>
</a>
</g>
</g>
<!-- Node2&#45;&gt;Node21 -->
<g id="edge39_Node000002_Node000021" class="edge">
<title>Node2&#45;&gt;Node21</title>
<g id="a_edge39_Node000002_Node000021"><a xlink:title=" ">
<path fill="none" stroke="#63b8ff" d="M324.77,-397.95C332.77,-399.7 341,-401.5 349.14,-403.28"/>
<polygon fill="#63b8ff" stroke="#63b8ff" points="348.17,-406.65 358.69,-405.37 349.66,-399.81 348.17,-406.65"/>
</a>
</g>
</g>
<!-- Node4 -->
<g id="Node000004" class="node">
<title>Node4</title>
<g id="a_Node000004"><a xlink:href="../../d0/dc2/class_serializer.html#ac444af6d2a2ff0959826c9d5d922ef74" target="_top" xlink:title=" ">
<polygon fill="white" stroke="#666666" points="671.12,-390.33 536.62,-390.33 536.62,-370.33 671.12,-370.33 671.12,-390.33"/>
<text xml:space="preserve" text-anchor="middle" x="603.88" y="-376.83" font-family="Helvetica,sans-Serif" font-size="10.00">Serializer::deserializeBoard</text>
</a>
</g>
</g>
<!-- Node3&#45;&gt;Node4 -->
<g id="edge3_Node000003_Node000004" class="edge">
<title>Node3&#45;&gt;Node4</title>
<g id="a_edge3_Node000003_Node000004"><a xlink:title=" ">
<path fill="none" stroke="#63b8ff" d="M445.4,-279.54C464.72,-298.16 498.54,-328.77 531.75,-349.33 541.63,-355.44 552.92,-360.96 563.56,-365.58"/>
<polygon fill="#63b8ff" stroke="#63b8ff" points="561.93,-368.69 572.5,-369.31 564.62,-362.23 561.93,-368.69"/>
</a>
</g>
</g>
<!-- Node3&#45;&gt;Node6 -->
<g id="edge19_Node000003_Node000006" class="edge">
<title>Node3&#45;&gt;Node6</title>
<g id="a_edge19_Node000003_Node000006"><a xlink:title=" ">
<path fill="none" stroke="#63b8ff" d="M435.68,-279.74C448.73,-309.92 481.16,-373.51 531.75,-399.33 715,-492.84 972.96,-445.53 1079.57,-419.57"/>
<polygon fill="#63b8ff" stroke="#63b8ff" points="1080.29,-423 1089.15,-417.19 1078.6,-416.21 1080.29,-423"/>
</a>
</g>
</g>
<!-- Node7 -->
<g id="Node000007" class="node">
<title>Node7</title>
<g id="a_Node000007"><a xlink:href="../../d0/dc2/class_serializer.html#aa69e53999b1df0a2588948fd249fe436" target="_top" xlink:title=" ">
<polygon fill="white" stroke="#666666" points="666.62,-139.33 541.12,-139.33 541.12,-107.33 666.62,-107.33 666.62,-139.33"/>
<text xml:space="preserve" text-anchor="start" x="549.12" y="-125.83" font-family="Helvetica,sans-Serif" font-size="10.00">Serializer::deserializeFog</text>
<text xml:space="preserve" text-anchor="middle" x="603.88" y="-113.83" font-family="Helvetica,sans-Serif" font-size="10.00">Entity</text>
</a>
</g>
</g>
<!-- Node3&#45;&gt;Node7 -->
<g id="edge6_Node000003_Node000007" class="edge">
<title>Node3&#45;&gt;Node7</title>
<g id="a_edge6_Node000003_Node000007"><a xlink:title=" ">
<path fill="none" stroke="#63b8ff" d="M439.75,-246.85C456.49,-222.12 491.28,-175.43 531.75,-148.33 533.54,-147.13 535.4,-145.97 537.31,-144.87"/>
<polygon fill="#63b8ff" stroke="#63b8ff" points="538.56,-148.17 545.83,-140.47 535.34,-141.95 538.56,-148.17"/>
</a>
</g>
</g>
<!-- Node10 -->
<g id="Node000010" class="node">
<title>Node10</title>
<g id="a_Node000010"><a xlink:href="../../d0/dc2/class_serializer.html#a24d123353bde4bfadc162b244ee4e9d5" target="_top" xlink:title=" ">
<polygon fill="white" stroke="#666666" points="849.12,-69.33 720.62,-69.33 720.62,-49.33 849.12,-49.33 849.12,-69.33"/>
<text xml:space="preserve" text-anchor="middle" x="784.88" y="-55.83" font-family="Helvetica,sans-Serif" font-size="10.00">Serializer::deserializeSize</text>
</a>
</g>
</g>
<!-- Node3&#45;&gt;Node10 -->
<g id="edge36_Node000003_Node000010" class="edge">
<title>Node3&#45;&gt;Node10</title>
<g id="a_edge36_Node000003_Node000010"><a xlink:title=" ">
<path fill="none" stroke="#63b8ff" d="M434.13,-246.91C445.42,-212.92 476.3,-134.97 531.75,-98.33 583.99,-63.81 655.43,-55.52 708.92,-55.02"/>
<polygon fill="#63b8ff" stroke="#63b8ff" points="708.88,-58.52 718.88,-55.03 708.88,-51.52 708.88,-58.52"/>
</a>
</g>
</g>
<!-- Node3&#45;&gt;Node11 -->
<g id="edge38_Node000003_Node000011" class="edge">
<title>Node3&#45;&gt;Node11</title>
<g id="a_edge38_Node000003_Node000011"><a xlink:title=" ">
<path fill="none" stroke="#63b8ff" d="M431.85,-247C439.48,-206.89 465.05,-103.27 531.75,-55.33 558.69,-35.96 640.84,-27.62 704.12,-24.03"/>
<polygon fill="#63b8ff" stroke="#63b8ff" points="703.99,-27.54 713.79,-23.51 703.61,-20.55 703.99,-27.54"/>
</a>
</g>
</g>
<!-- Node14 -->
<g id="Node000014" class="node">
<title>Node14</title>
<g id="a_Node000014"><a xlink:href="../../d0/dc2/class_serializer.html#a49904ddf8105f688d32b366b5090a36a" target="_top" xlink:title=" ">
<polygon fill="white" stroke="#666666" points="848.38,-309.33 721.38,-309.33 721.38,-289.33 848.38,-289.33 848.38,-309.33"/>
<text xml:space="preserve" text-anchor="middle" x="784.88" y="-295.83" font-family="Helvetica,sans-Serif" font-size="10.00">Serializer::deserializeGrid</text>
</a>
</g>
</g>
<!-- Node3&#45;&gt;Node14 -->
<g id="edge14_Node000003_Node000014" class="edge">
<title>Node3&#45;&gt;Node14</title>
<g id="a_edge14_Node000003_Node000014"><a xlink:title=" ">
<path fill="none" stroke="#63b8ff" d="M495.85,-270.1C556.82,-276.29 646.82,-285.42 709.95,-291.83"/>
<polygon fill="#63b8ff" stroke="#63b8ff" points="709.21,-295.27 719.52,-292.8 709.92,-288.3 709.21,-295.27"/>
</a>
</g>
</g>
<!-- Node16 -->
<g id="Node000016" class="node">
<title>Node16</title>
<g id="a_Node000016"><a xlink:href="../../d0/dc2/class_serializer.html#a575d56ef9fe8683ae7be3e60c3952335" target="_top" xlink:title=" ">
<polygon fill="white" stroke="#666666" points="673.38,-189.33 534.38,-189.33 534.38,-157.33 673.38,-157.33 673.38,-189.33"/>
<text xml:space="preserve" text-anchor="start" x="542.38" y="-175.83" font-family="Helvetica,sans-Serif" font-size="10.00">Serializer::deserializeMarker</text>
<text xml:space="preserve" text-anchor="middle" x="603.88" y="-163.83" font-family="Helvetica,sans-Serif" font-size="10.00">Entity</text>
</a>
</g>
</g>
<!-- Node3&#45;&gt;Node16 -->
<g id="edge20_Node000003_Node000016" class="edge">
<title>Node3&#45;&gt;Node16</title>
<g id="a_edge20_Node000003_Node000016"><a xlink:title=" ">
<path fill="none" stroke="#63b8ff" d="M460.59,-247.03C488.71,-232.47 530.11,-211.02 561.01,-195.01"/>
<polygon fill="#63b8ff" stroke="#63b8ff" points="562.44,-198.21 569.71,-190.5 559.22,-192 562.44,-198.21"/>
</a>
</g>
</g>
<!-- Node19 -->
<g id="Node000019" class="node">
<title>Node19</title>
<g id="a_Node000019"><a xlink:href="../../d0/dc2/class_serializer.html#ab09ab45738759ee7f2d7f72b2ab7e844" target="_top" xlink:title=" ">
<polygon fill="white" stroke="#666666" points="855.5,-359.33 714.25,-359.33 714.25,-327.33 855.5,-327.33 855.5,-359.33"/>
<text xml:space="preserve" text-anchor="start" x="722.25" y="-345.83" font-family="Helvetica,sans-Serif" font-size="10.00">Serializer::deserializeTexture</text>
<text xml:space="preserve" text-anchor="middle" x="784.88" y="-333.83" font-family="Helvetica,sans-Serif" font-size="10.00">Component</text>
</a>
</g>
</g>
<!-- Node3&#45;&gt;Node19 -->
<g id="edge37_Node000003_Node000019" class="edge">
<title>Node3&#45;&gt;Node19</title>
<g id="a_edge37_Node000003_Node000019"><a xlink:title=" ">
<path fill="none" stroke="#63b8ff" d="M480,-279.81C496.42,-284.83 514.77,-290.12 531.75,-294.33 588.37,-308.34 652.96,-320.83 702.58,-329.69"/>
<polygon fill="#63b8ff" stroke="#63b8ff" points="701.95,-333.13 712.41,-331.43 703.17,-326.24 701.95,-333.13"/>
</a>
</g>
</g>
<!-- Node20 -->
<g id="Node000020" class="node">
<title>Node20</title>
<g id="a_Node000020"><a xlink:href="../../d0/dc2/class_serializer.html#a613c3e48f160ff10dda1e184b365a259" target="_top" xlink:title=" ">
<polygon fill="white" stroke="#666666" points="676,-249.33 531.75,-249.33 531.75,-229.33 676,-229.33 676,-249.33"/>
<text xml:space="preserve" text-anchor="middle" x="603.88" y="-235.83" font-family="Helvetica,sans-Serif" font-size="10.00">Serializer::deserializePanning</text>
</a>
</g>
</g>
<!-- Node3&#45;&gt;Node20 -->
<g id="edge34_Node000003_Node000020" class="edge">
<title>Node3&#45;&gt;Node20</title>
<g id="a_edge34_Node000003_Node000020"><a xlink:title=" ">
<path fill="none" stroke="#63b8ff" d="M495.8,-254.12C503.83,-253.01 512.1,-251.87 520.32,-250.73"/>
<polygon fill="#63b8ff" stroke="#63b8ff" points="520.54,-254.23 529.97,-249.4 519.58,-247.3 520.54,-254.23"/>
</a>
</g>
</g>
<!-- Node5 -->
<g id="Node000005" class="node">
<title>Node5</title>
<g id="a_Node000005"><a xlink:href="../../d0/dc2/class_serializer.html#a47d1b2e09aaa99426b40f965ef2bf284" target="_top" xlink:title=" ">
<polygon fill="white" stroke="#666666" points="1028.25,-397.33 893.75,-397.33 893.75,-377.33 1028.25,-377.33 1028.25,-397.33"/>
<text xml:space="preserve" text-anchor="middle" x="961" y="-383.83" font-family="Helvetica,sans-Serif" font-size="10.00">Serializer::deserializeString</text>
</a>
</g>
</g>
<!-- Node4&#45;&gt;Node5 -->
<g id="edge4_Node000004_Node000005" class="edge">
<title>Node4&#45;&gt;Node5</title>
<g id="a_edge4_Node000004_Node000005"><a xlink:title=" ">
<path fill="none" stroke="#63b8ff" d="M671.25,-381.64C730.98,-382.81 818.78,-384.54 881.86,-385.79"/>
<polygon fill="#63b8ff" stroke="#63b8ff" points="881.76,-389.29 891.83,-385.98 881.9,-382.29 881.76,-389.29"/>
</a>
</g>
</g>
<!-- Node5&#45;&gt;Node6 -->
<g id="edge5_Node000005_Node000006" class="edge">
<title>Node5&#45;&gt;Node6</title>
<g id="a_edge5_Node000005_Node000006"><a xlink:title=" ">
<path fill="none" stroke="#63b8ff" d="M1028.33,-394.89C1038.05,-396 1048.09,-397.14 1057.9,-398.26"/>
<polygon fill="#63b8ff" stroke="#63b8ff" points="1057.43,-401.73 1067.76,-399.39 1058.22,-394.78 1057.43,-401.73"/>
</a>
</g>
</g>
<!-- Node8 -->
<g id="Node000008" class="node">
<title>Node8</title>
<g id="a_Node000008"><a xlink:href="../../d0/dc2/class_serializer.html#a5eb5ab1b9f7566eaf2486df0e536d82b" target="_top" xlink:title=" ">
<polygon fill="white" stroke="#666666" points="857,-107.33 712.75,-107.33 712.75,-87.33 857,-87.33 857,-107.33"/>
<text xml:space="preserve" text-anchor="middle" x="784.88" y="-93.83" font-family="Helvetica,sans-Serif" font-size="10.00">Serializer::deserializePosition</text>
</a>
</g>
</g>
<!-- Node7&#45;&gt;Node8 -->
<g id="edge7_Node000007_Node000008" class="edge">
<title>Node7&#45;&gt;Node8</title>
<g id="a_edge7_Node000007_Node000008"><a xlink:title=" ">
<path fill="none" stroke="#63b8ff" d="M666.98,-114.31C677.96,-112.71 689.55,-111.03 700.99,-109.37"/>
<polygon fill="#63b8ff" stroke="#63b8ff" points="701.47,-112.83 710.86,-107.93 700.47,-105.91 701.47,-112.83"/>
</a>
</g>
</g>
<!-- Node7&#45;&gt;Node10 -->
<g id="edge9_Node000007_Node000010" class="edge">
<title>Node7&#45;&gt;Node10</title>
<g id="a_edge9_Node000007_Node000010"><a xlink:title=" ">
<path fill="none" stroke="#63b8ff" d="M643.84,-106.88C673.74,-94.28 710.21,-78.94 712,-78.33 717.65,-76.4 723.61,-74.56 729.57,-72.82"/>
<polygon fill="#63b8ff" stroke="#63b8ff" points="730.12,-76.3 738.8,-70.23 728.22,-69.56 730.12,-76.3"/>
</a>
</g>
</g>
<!-- Node7&#45;&gt;Node11 -->
<g id="edge11_Node000007_Node000011" class="edge">
<title>Node7&#45;&gt;Node11</title>
<g id="a_edge11_Node000007_Node000011"><a xlink:title=" ">
<path fill="none" stroke="#63b8ff" d="M621.58,-106.85C641.5,-88.11 676.56,-57.83 712,-40.33 715.52,-38.59 719.22,-36.99 723,-35.54"/>
<polygon fill="#63b8ff" stroke="#63b8ff" points="724.1,-38.86 732.39,-32.27 721.8,-32.25 724.1,-38.86"/>
</a>
</g>
</g>
<!-- Node12 -->
<g id="Node000012" class="node">
<title>Node12</title>
<g id="a_Node000012"><a xlink:href="../../d0/dc2/class_serializer.html#a2defbb75a244dc241a5eb1b342ba50ac" target="_top" xlink:title=" ">
<polygon fill="white" stroke="#666666" points="857.75,-145.33 712,-145.33 712,-125.33 857.75,-125.33 857.75,-145.33"/>
<text xml:space="preserve" text-anchor="middle" x="784.88" y="-131.83" font-family="Helvetica,sans-Serif" font-size="10.00">Serializer::deserializeVisibility</text>
</a>
</g>
</g>
<!-- Node7&#45;&gt;Node12 -->
<g id="edge12_Node000007_Node000012" class="edge">
<title>Node7&#45;&gt;Node12</title>
<g id="a_edge12_Node000007_Node000012"><a xlink:title=" ">
<path fill="none" stroke="#63b8ff" d="M666.98,-127.49C677.81,-128.22 689.23,-128.98 700.52,-129.74"/>
<polygon fill="#63b8ff" stroke="#63b8ff" points="700.02,-133.21 710.23,-130.39 700.49,-126.23 700.02,-133.21"/>
</a>
</g>
</g>
<!-- Node9 -->
<g id="Node000009" class="node">
<title>Node9</title>
<g id="a_Node000009"><a xlink:href="../../d0/dc2/class_serializer.html#a4281872677d0169f97044b8708014adb" target="_top" xlink:title=" ">
<polygon fill="white" stroke="#666666" points="1195,-205.33 1064.25,-205.33 1064.25,-185.33 1195,-185.33 1195,-205.33"/>
<text xml:space="preserve" text-anchor="middle" x="1129.62" y="-191.83" font-family="Helvetica,sans-Serif" font-size="10.00">Serializer::deserializeFloat</text>
</a>
</g>
</g>
<!-- Node8&#45;&gt;Node9 -->
<g id="edge8_Node000008_Node000009" class="edge">
<title>Node8&#45;&gt;Node9</title>
<g id="a_edge8_Node000008_Node000009"><a xlink:title=" ">
<path fill="none" stroke="#63b8ff" d="M826.22,-107.8C836.51,-110.53 847.55,-113.49 857.75,-116.33 937.28,-138.43 1029.48,-165.67 1083.21,-181.7"/>
<polygon fill="#63b8ff" stroke="#63b8ff" points="1082.04,-185 1092.62,-184.51 1084.04,-178.3 1082.04,-185"/>
</a>
</g>
</g>
<!-- Node10&#45;&gt;Node9 -->
<g id="edge10_Node000010_Node000009" class="edge">
<title>Node10&#45;&gt;Node9</title>
<g id="a_edge10_Node000010_Node000009"><a xlink:title=" ">
<path fill="none" stroke="#63b8ff" d="M849.62,-69.15C899.86,-78.47 970.76,-95.15 1028.25,-122.33 1058.89,-136.81 1089.76,-161.05 1109.02,-177.59"/>
<polygon fill="#63b8ff" stroke="#63b8ff" points="1106.53,-180.06 1116.35,-184.02 1111.14,-174.79 1106.53,-180.06"/>
</a>
</g>
</g>
<!-- Node13 -->
<g id="Node000013" class="node">
<title>Node13</title>
<g id="a_Node000013"><a xlink:href="../../d0/dc2/class_serializer.html#a6fded0442115eb736f46d377cf37c563" target="_top" xlink:title=" ">
<polygon fill="white" stroke="#666666" points="1025.25,-221.33 896.75,-221.33 896.75,-201.33 1025.25,-201.33 1025.25,-221.33"/>
<text xml:space="preserve" text-anchor="middle" x="961" y="-207.83" font-family="Helvetica,sans-Serif" font-size="10.00">Serializer::deserializeBool</text>
</a>
</g>
</g>
<!-- Node12&#45;&gt;Node13 -->
<g id="edge13_Node000012_Node000013" class="edge">
<title>Node12&#45;&gt;Node13</title>
<g id="a_edge13_Node000012_Node000013"><a xlink:title=" ">
<path fill="none" stroke="#63b8ff" d="M832.44,-145.81C840.99,-148.25 849.73,-151.09 857.75,-154.33 885.2,-165.4 914.5,-182.32 934.67,-194.85"/>
<polygon fill="#63b8ff" stroke="#63b8ff" points="932.72,-197.76 943.05,-200.14 936.46,-191.84 932.72,-197.76"/>
</a>
</g>
</g>
<!-- Node14&#45;&gt;Node9 -->
<g id="edge16_Node000014_Node000009" class="edge">
<title>Node14&#45;&gt;Node9</title>
<g id="a_edge16_Node000014_Node000009"><a xlink:title=" ">
<path fill="none" stroke="#63b8ff" d="M826.22,-288.87C836.52,-286.14 847.55,-283.17 857.75,-280.33 933.82,-259.12 953.05,-254.45 1028.25,-230.33 1048.43,-223.86 1070.7,-216.15 1089.12,-209.62"/>
<polygon fill="#63b8ff" stroke="#63b8ff" points="1090.09,-212.99 1098.34,-206.33 1087.74,-206.39 1090.09,-212.99"/>
</a>
</g>
</g>
<!-- Node14&#45;&gt;Node13 -->
<g id="edge15_Node000014_Node000013" class="edge">
<title>Node14&#45;&gt;Node13</title>
<g id="a_edge15_Node000014_Node000013"><a xlink:title=" ">
<path fill="none" stroke="#63b8ff" d="M839.1,-288.96C845.62,-286.63 852,-283.79 857.75,-280.33 877.96,-268.16 874.62,-255.13 893.75,-241.33 901.7,-235.59 910.92,-230.57 919.9,-226.37"/>
<polygon fill="#63b8ff" stroke="#63b8ff" points="921.13,-229.65 928.87,-222.42 918.31,-223.25 921.13,-229.65"/>
</a>
</g>
</g>
<!-- Node15 -->
<g id="Node000015" class="node">
<title>Node15</title>
<g id="a_Node000015"><a xlink:href="../../d0/dc2/class_serializer.html#ab8d82b453f8566db58a5f2e335924ff8" target="_top" xlink:title=" ">
<polygon fill="white" stroke="#666666" points="1026.38,-309.33 895.62,-309.33 895.62,-289.33 1026.38,-289.33 1026.38,-309.33"/>
<text xml:space="preserve" text-anchor="middle" x="961" y="-295.83" font-family="Helvetica,sans-Serif" font-size="10.00">Serializer::deserializeVec2</text>
</a>
</g>
</g>
<!-- Node14&#45;&gt;Node15 -->
<g id="edge17_Node000014_Node000015" class="edge">
<title>Node14&#45;&gt;Node15</title>
<g id="a_edge17_Node000014_Node000015"><a xlink:title=" ">
<path fill="none" stroke="#63b8ff" d="M848.74,-299.33C860.18,-299.33 872.23,-299.33 884,-299.33"/>
<polygon fill="#63b8ff" stroke="#63b8ff" points="883.66,-302.83 893.66,-299.33 883.66,-295.83 883.66,-302.83"/>
</a>
</g>
</g>
<!-- Node15&#45;&gt;Node9 -->
<g id="edge18_Node000015_Node000009" class="edge">
<title>Node15&#45;&gt;Node9</title>
<g id="a_edge18_Node000015_Node000009"><a xlink:title=" ">
<path fill="none" stroke="#63b8ff" d="M988.43,-288.87C1000.83,-283.59 1015.61,-276.73 1028.25,-269.33 1057.14,-252.39 1087.77,-228.9 1107.48,-212.97"/>
<polygon fill="#63b8ff" stroke="#63b8ff" points="1109.53,-215.81 1115.06,-206.77 1105.1,-210.39 1109.53,-215.81"/>
</a>
</g>
</g>
<!-- Node16&#45;&gt;Node8 -->
<g id="edge26_Node000016_Node000008" class="edge">
<title>Node16&#45;&gt;Node8</title>
<g id="a_edge26_Node000016_Node000008"><a xlink:title=" ">
<path fill="none" stroke="#63b8ff" d="M658.72,-156.95C664.7,-154.39 670.59,-151.52 676,-148.33 694.45,-137.46 693.14,-126.45 712,-116.33 715.18,-114.62 718.53,-113.06 721.97,-111.63"/>
<polygon fill="#63b8ff" stroke="#63b8ff" points="722.89,-115.02 731.06,-108.26 720.46,-108.45 722.89,-115.02"/>
</a>
</g>
</g>
<!-- Node16&#45;&gt;Node10 -->
<g id="edge27_Node000016_Node000010" class="edge">
<title>Node16&#45;&gt;Node10</title>
<g id="a_edge27_Node000016_Node000010"><a xlink:title=" ">
<path fill="none" stroke="#63b8ff" d="M663.61,-156.93C668.05,-154.44 672.25,-151.6 676,-148.33 702.37,-125.34 684.73,-100.25 712,-78.33 713.49,-77.13 715.04,-76.01 716.65,-74.96"/>
<polygon fill="#63b8ff" stroke="#63b8ff" points="717.94,-78.25 725.06,-70.4 714.6,-72.09 717.94,-78.25"/>
</a>
</g>
</g>
<!-- Node16&#45;&gt;Node11 -->
<g id="edge32_Node000016_Node000011" class="edge">
<title>Node16&#45;&gt;Node11</title>
<g id="a_edge32_Node000016_Node000011"><a xlink:title=" ">
<path fill="none" stroke="#63b8ff" d="M665.19,-156.9C669.12,-154.43 672.79,-151.59 676,-148.33 711.49,-112.26 675.11,-74.95 712,-40.33 712.92,-39.47 713.87,-38.64 714.85,-37.86"/>
<polygon fill="#63b8ff" stroke="#63b8ff" points="716.62,-40.88 723.13,-32.53 712.83,-35 716.62,-40.88"/>
</a>
</g>
</g>
<!-- Node16&#45;&gt;Node12 -->
<g id="edge33_Node000016_Node000012" class="edge">
<title>Node16&#45;&gt;Node12</title>
<g id="a_edge33_Node000016_Node000012"><a xlink:title=" ">
<path fill="none" stroke="#63b8ff" d="M673.83,-158.69C690.31,-155.19 707.78,-151.48 723.82,-148.08"/>
<polygon fill="#63b8ff" stroke="#63b8ff" points="724.14,-151.59 733.19,-146.09 722.69,-144.74 724.14,-151.59"/>
</a>
</g>
</g>
<!-- Node17 -->
<g id="Node000017" class="node">
<title>Node17</title>
<g id="a_Node000017"><a xlink:href="../../d0/dc2/class_serializer.html#aa6d578945a2d77d417131080d166e497" target="_top" xlink:title=" ">
<polygon fill="white" stroke="#666666" points="854.38,-271.33 715.38,-271.33 715.38,-239.33 854.38,-239.33 854.38,-271.33"/>
<text xml:space="preserve" text-anchor="start" x="723.38" y="-257.83" font-family="Helvetica,sans-Serif" font-size="10.00">Serializer::deserializeMarker</text>
<text xml:space="preserve" text-anchor="middle" x="784.88" y="-245.83" font-family="Helvetica,sans-Serif" font-size="10.00">Component</text>
</a>
</g>
</g>
<!-- Node16&#45;&gt;Node17 -->
<g id="edge21_Node000016_Node000017" class="edge">
<title>Node16&#45;&gt;Node17</title>
<g id="a_edge21_Node000016_Node000017"><a xlink:title=" ">
<path fill="none" stroke="#63b8ff" d="M640.67,-189.72C668.6,-202.52 707.59,-220.38 737.84,-234.24"/>
<polygon fill="#63b8ff" stroke="#63b8ff" points="736.22,-237.35 746.77,-238.33 739.13,-230.98 736.22,-237.35"/>
</a>
</g>
</g>
<!-- Node18 -->
<g id="Node000018" class="node">
<title>Node18</title>
<g id="a_Node000018"><a xlink:href="../../d0/dc2/class_serializer.html#ac2820d6131b77a9c29c47547d0af8577" target="_top" xlink:title=" ">
<polygon fill="white" stroke="#666666" points="855.12,-183.33 714.62,-183.33 714.62,-163.33 855.12,-163.33 855.12,-183.33"/>
<text xml:space="preserve" text-anchor="middle" x="784.88" y="-169.83" font-family="Helvetica,sans-Serif" font-size="10.00">Serializer::deserializeMoving</text>
</a>
</g>
</g>
<!-- Node16&#45;&gt;Node18 -->
<g id="edge24_Node000016_Node000018" class="edge">
<title>Node16&#45;&gt;Node18</title>
<g id="a_edge24_Node000016_Node000018"><a xlink:title=" ">
<path fill="none" stroke="#63b8ff" d="M673.83,-173.33C683.38,-173.33 693.27,-173.33 703.02,-173.33"/>
<polygon fill="#63b8ff" stroke="#63b8ff" points="702.86,-176.83 712.86,-173.33 702.86,-169.83 702.86,-176.83"/>
</a>
</g>
</g>
<!-- Node16&#45;&gt;Node19 -->
<g id="edge28_Node000016_Node000019" class="edge">
<title>Node16&#45;&gt;Node19</title>
<g id="a_edge28_Node000016_Node000019"><a xlink:title=" ">
<path fill="none" stroke="#63b8ff" d="M638.76,-189.72C651.87,-197.47 666.08,-207.79 676,-220.33 704.79,-256.71 678.91,-285.8 712,-318.33 712.62,-318.94 713.25,-319.53 713.9,-320.11"/>
<polygon fill="#63b8ff" stroke="#63b8ff" points="711.69,-322.83 721.82,-325.95 715.85,-317.2 711.69,-322.83"/>
</a>
</g>
</g>
<!-- Node17&#45;&gt;Node5 -->
<g id="edge23_Node000017_Node000005" class="edge">
<title>Node17&#45;&gt;Node5</title>
<g id="a_edge23_Node000017_Node000005"><a xlink:title=" ">
<path fill="none" stroke="#63b8ff" d="M841.69,-271.71C847.3,-274.24 852.76,-277.1 857.75,-280.33 877.29,-292.95 877.69,-301.49 893.75,-318.33 910.11,-335.48 928.82,-354.96 942.18,-368.83"/>
<polygon fill="#63b8ff" stroke="#63b8ff" points="939.59,-371.19 949.05,-375.97 944.64,-366.34 939.59,-371.19"/>
</a>
</g>
</g>
<!-- Node17&#45;&gt;Node13 -->
<g id="edge22_Node000017_Node000013" class="edge">
<title>Node17&#45;&gt;Node13</title>
<g id="a_edge22_Node000017_Node000013"><a xlink:title=" ">
<path fill="none" stroke="#63b8ff" d="M850.71,-238.94C869.44,-234.21 889.64,-229.11 907.52,-224.59"/>
<polygon fill="#63b8ff" stroke="#63b8ff" points="908.3,-228 917.13,-222.16 906.58,-221.22 908.3,-228"/>
</a>
</g>
</g>
<!-- Node18&#45;&gt;Node13 -->
<g id="edge25_Node000018_Node000013" class="edge">
<title>Node18&#45;&gt;Node13</title>
<g id="a_edge25_Node000018_Node000013"><a xlink:title=" ">
<path fill="none" stroke="#63b8ff" d="M833.92,-183.81C854.66,-188.34 879.13,-193.68 900.97,-198.44"/>
<polygon fill="#63b8ff" stroke="#63b8ff" points="900.12,-201.84 910.64,-200.55 901.61,-195 900.12,-201.84"/>
</a>
</g>
</g>
<!-- Node19&#45;&gt;Node5 -->
<g id="edge30_Node000019_Node000005" class="edge">
<title>Node19&#45;&gt;Node5</title>
<g id="a_edge30_Node000019_Node000005"><a xlink:title=" ">
<path fill="none" stroke="#63b8ff" d="M850.71,-359.71C869.44,-364.44 889.64,-369.55 907.52,-374.07"/>
<polygon fill="#63b8ff" stroke="#63b8ff" points="906.58,-377.44 917.13,-376.5 908.3,-370.65 906.58,-377.44"/>
</a>
</g>
</g>
<!-- Node19&#45;&gt;Node6 -->
<g id="edge29_Node000019_Node000006" class="edge">
<title>Node19&#45;&gt;Node6</title>
<g id="a_edge29_Node000019_Node000006"><a xlink:title=" ">
<path fill="none" stroke="#63b8ff" d="M855.89,-345.75C904.73,-348.6 971.13,-354.81 1028.25,-368.33 1051.4,-373.8 1076.42,-383.27 1095.69,-391.38"/>
<polygon fill="#63b8ff" stroke="#63b8ff" points="1094.07,-394.5 1104.64,-395.24 1096.84,-388.07 1094.07,-394.5"/>
</a>
</g>
</g>
<!-- Node19&#45;&gt;Node15 -->
<g id="edge31_Node000019_Node000015" class="edge">
<title>Node19&#45;&gt;Node15</title>
<g id="a_edge31_Node000019_Node000015"><a xlink:title=" ">
<path fill="none" stroke="#63b8ff" d="M850.71,-326.94C869.44,-322.21 889.64,-317.11 907.52,-312.59"/>
<polygon fill="#63b8ff" stroke="#63b8ff" points="908.3,-316 917.13,-310.16 906.58,-309.22 908.3,-316"/>
</a>
</g>
</g>
<!-- Node20&#45;&gt;Node13 -->
<g id="edge35_Node000020_Node000013" class="edge">
<title>Node20&#45;&gt;Node13</title>
<g id="a_edge35_Node000020_Node000013"><a xlink:title=" ">
<path fill="none" stroke="#63b8ff" d="M676.32,-233.25C688.23,-232.26 700.47,-231.25 712,-230.33 770.1,-225.66 835.88,-220.63 885.09,-216.92"/>
<polygon fill="#63b8ff" stroke="#63b8ff" points="885.06,-220.43 894.77,-216.19 884.53,-213.45 885.06,-220.43"/>
</a>
</g>
</g>
<!-- Node21&#45;&gt;Node5 -->
<g id="edge40_Node000021_Node000005" class="edge">
<title>Node21&#45;&gt;Node5</title>
<g id="a_edge40_Node000021_Node000005"><a xlink:title=" ">
<path fill="none" stroke="#63b8ff" d="M496.02,-418.05C580.42,-414.91 729.99,-408.47 857.75,-398.33 865.7,-397.7 874,-396.95 882.27,-396.15"/>
<polygon fill="#63b8ff" stroke="#63b8ff" points="882.39,-399.65 891.99,-395.18 881.69,-392.69 882.39,-399.65"/>
</a>
</g>
</g>
</g>
</svg>

<g id="navigator" transform="translate(0 0)" fill="#404254">
  <rect fill="#f2f5e9" fill-opacity="0.5" stroke="#606060" stroke-width=".5" x="0" y="0" width="60" height="60"/>
  <use id="zoomplus" xlink:href="#zoomPlus" x="17" y="9" onmousedown="handleZoom(evt,'in')"/>
  <use id="zoomminus" xlink:href="#zoomMin" x="42" y="9" onmousedown="handleZoom(evt,'out')"/>
  <use id="reset" xlink:href="#resetDef" x="30" y="36" onmousedown="handleReset()"/>
   <use id="arrowup" xlink:href="#arrowUp" x="0" y="0" onmousedown="handlePan(0,-1)"/>
  <use id="arrowright" xlink:href="#arrowRight" x="0" y="0" onmousedown="handlePan(1,0)"/>
  <use id="arrowdown" xlink:href="#arrowDown" x="0" y="0" onmousedown="handlePan(0,1)"/>
  <use id="arrowleft" xlink:href="#arrowLeft" x="0" y="0" onmousedown="handlePan(-1,0)"/>
</g>
<svg viewBox="0 0 15 15" width="100%" height="30px" preserveAspectRatio="xMaxYMin meet">
 <g id="arrow_out" transform="scale(0.3 0.3)">
  <a xlink:href="class_game_table_manager_aedb2f2634710aeb401d6c7e1c2d6a96d_cgraph_org.svg" target="_base">
   <rect id="button" ry="5" rx="5" y="6" x="6" height="38" width="38"
        fill="#f2f5e9" fill-opacity="0.5" stroke="#606060" stroke-width="1.0"/>
   <path id="arrow"
     d="M 11.500037,31.436501 C 11.940474,20.09759 22.043105,11.32322 32.158766,21.979434 L 37.068811,17.246167 C 37.068811,17.246167 37.088388,32 37.088388,32 L 22.160133,31.978069 C 22.160133,31.978069 26.997745,27.140456 26.997745,27.140456 C 18.528582,18.264221 13.291696,25.230495 11.500037,31.436501 z"
     style="fill:#404040;"/>
  </a>
 </g>
</svg>

<style type='text/css'>
<![CDATA[
[data-mouse-over-selected='false'] { opacity: 0.7; }
[data-mouse-over-selected='true']  { opacity: 1.0; }
]]>
</style>
<script type="application/ecmascript"><![CDATA[
document.addEventListener('DOMContentLoaded', (event) => {
  highlightEdges();
  highlightAdjacentNodes();
});
]]></script>
</svg>
