<?xml version="1.0" encoding="UTF-8" standalone="no"?>
<!DOCTYPE svg PUBLIC "-//W3C//DTD SVG 1.1//EN"
 "http://www.w3.org/Graphics/SVG/1.1/DTD/svg11.dtd">
<!-- Generated by graphviz version 14.0.2 (20251019.1705)
 -->
<!-- Title: GameTableManager::createGameTableFile Pages: 1 -->
<svg width="1033pt" height="382pt"
 viewBox="0.00 0.00 1033.00 382.00" xmlns="http://www.w3.org/2000/svg" xmlns:xlink="http://www.w3.org/1999/xlink">
<g id="graph0" class="graph" transform="scale(1 1) rotate(0) translate(4 378)">
<title>GameTableManager::createGameTableFile</title>
<!-- Node1 -->
<g id="Node000001" class="node">
<title>Node1</title>
<g id="a_Node000001"><a xlink:title=" ">
<polygon fill="#999999" stroke="#666666" points="136,-320 0,-320 0,-288 136,-288 136,-320"/>
<text xml:space="preserve" text-anchor="start" x="8" y="-306.5" font-family="Helvetica,sans-Serif" font-size="10.00">GameTableManager::create</text>
<text xml:space="preserve" text-anchor="middle" x="68" y="-294.5" font-family="Helvetica,sans-Serif" font-size="10.00">GameTableFile</text>
</a>
</g>
</g>
<!-- Node2 -->
<g id="Node000002" class="node">
<title>Node2</title>
<g id="a_Node000002"><a xlink:href="../../de/d2f/class_path_manager.html#a6be0a95403caf375f4d7b642f0f90061" target="_top" xlink:title=" ">
<polygon fill="white" stroke="#666666" points="340.25,-355 172,-355 172,-335 340.25,-335 340.25,-355"/>
<text xml:space="preserve" text-anchor="middle" x="256.12" y="-341.5" font-family="Helvetica,sans-Serif" font-size="10.00">PathManager::getGameTablesPath</text>
</a>
</g>
</g>
<!-- Node1&#45;&gt;Node2 -->
<g id="edge1_Node000001_Node000002" class="edge">
<title>Node1&#45;&gt;Node2</title>
<g id="a_edge1_Node000001_Node000002"><a xlink:title=" ">
<path fill="none" stroke="#63b8ff" d="M136.46,-318.86C156.11,-323.19 177.41,-327.88 196.47,-332.08"/>
<polygon fill="#63b8ff" stroke="#63b8ff" points="195.71,-335.5 206.23,-334.23 197.21,-328.66 195.71,-335.5"/>
</a>
</g>
</g>
<!-- Node4 -->
<g id="Node000004" class="node">
<title>Node4</title>
<g id="a_Node000004"><a xlink:href="../../d0/dc2/class_serializer.html#a88ec96a4390db20ecce812518dd2622c" target="_top" xlink:title=" ">
<polygon fill="white" stroke="#666666" points="318.5,-298 193.75,-298 193.75,-266 318.5,-266 318.5,-298"/>
<text xml:space="preserve" text-anchor="start" x="201.75" y="-284.5" font-family="Helvetica,sans-Serif" font-size="10.00">Serializer::serializeGame</text>
<text xml:space="preserve" text-anchor="middle" x="256.12" y="-272.5" font-family="Helvetica,sans-Serif" font-size="10.00">TableEntity</text>
</a>
</g>
</g>
<!-- Node1&#45;&gt;Node4 -->
<g id="edge3_Node000001_Node000004" class="edge">
<title>Node1&#45;&gt;Node4</title>
<g id="a_edge3_Node000001_Node000004"><a xlink:title=" ">
<path fill="none" stroke="#63b8ff" d="M136.46,-296.03C151.3,-294.27 167.08,-292.41 182.13,-290.63"/>
<polygon fill="#63b8ff" stroke="#63b8ff" points="182.44,-294.12 191.96,-289.47 181.62,-287.16 182.44,-294.12"/>
</a>
</g>
</g>
<!-- Node3 -->
<g id="Node000003" class="node">
<title>Node3</title>
<g id="a_Node000003"><a xlink:href="../../de/d2f/class_path_manager.html#a467b459b77c73cbc7544551b53911fcd" target="_top" xlink:title=" ">
<polygon fill="white" stroke="#666666" points="539.25,-374 376.25,-374 376.25,-354 539.25,-354 539.25,-374"/>
<text xml:space="preserve" text-anchor="middle" x="457.75" y="-360.5" font-family="Helvetica,sans-Serif" font-size="10.00">PathManager::getExecutableRoot</text>
</a>
</g>
</g>
<!-- Node2&#45;&gt;Node3 -->
<g id="edge2_Node000002_Node000003" class="edge">
<title>Node2&#45;&gt;Node3</title>
<g id="a_edge2_Node000002_Node000003"><a xlink:title=" ">
<path fill="none" stroke="#63b8ff" d="M340.63,-352.95C348.54,-353.7 356.6,-354.47 364.59,-355.23"/>
<polygon fill="#63b8ff" stroke="#63b8ff" points="364.03,-358.69 374.31,-356.15 364.69,-351.72 364.03,-358.69"/>
</a>
</g>
</g>
<!-- Node5 -->
<g id="Node000005" class="node">
<title>Node5</title>
<g id="a_Node000005"><a xlink:href="../../d0/dc2/class_serializer.html#a33c1046417ab5077d907baac823e7194" target="_top" xlink:title=" ">
<polygon fill="white" stroke="#666666" points="519.75,-159 395.75,-159 395.75,-127 519.75,-127 519.75,-159"/>
<text xml:space="preserve" text-anchor="start" x="403.75" y="-145.5" font-family="Helvetica,sans-Serif" font-size="10.00">Serializer::serializeBoard</text>
<text xml:space="preserve" text-anchor="middle" x="457.75" y="-133.5" font-family="Helvetica,sans-Serif" font-size="10.00">Entity</text>
</a>
</g>
</g>
<!-- Node4&#45;&gt;Node5 -->
<g id="edge4_Node000004_Node000005" class="edge">
<title>Node4&#45;&gt;Node5</title>
<g id="a_edge4_Node000004_Node000005"><a xlink:title=" ">
<path fill="none" stroke="#63b8ff" d="M280.81,-265.51C316.3,-240.79 383.42,-194.06 423.71,-166.01"/>
<polygon fill="#63b8ff" stroke="#63b8ff" points="425.65,-168.92 431.86,-160.33 421.65,-163.18 425.65,-168.92"/>
</a>
</g>
</g>
<!-- Node8 -->
<g id="Node000008" class="node">
<title>Node8</title>
<g id="a_Node000008"><a xlink:href="../../d0/dc2/class_serializer.html#ac812cf485e5804fd6f22d34ae076f79f" target="_top" xlink:title=" ">
<polygon fill="white" stroke="#666666" points="1020,-241 910.25,-241 910.25,-221 1020,-221 1020,-241"/>
<text xml:space="preserve" text-anchor="middle" x="965.12" y="-227.5" font-family="Helvetica,sans-Serif" font-size="10.00">Serializer::serializeInt</text>
</a>
</g>
</g>
<!-- Node4&#45;&gt;Node8 -->
<g id="edge25_Node000004_Node000008" class="edge">
<title>Node4&#45;&gt;Node8</title>
<g id="a_edge25_Node000004_Node000008"><a xlink:title=" ">
<path fill="none" stroke="#63b8ff" d="M318.88,-297.49C337.22,-301.4 357.44,-305.05 376.25,-307 594.73,-329.68 656.13,-323.16 869,-269 890.8,-263.45 914.27,-254.11 932.45,-246.08"/>
<polygon fill="#63b8ff" stroke="#63b8ff" points="933.71,-249.35 941.37,-242.04 930.82,-242.98 933.71,-249.35"/>
</a>
</g>
</g>
<!-- Node16 -->
<g id="Node000016" class="node">
<title>Node16</title>
<g id="a_Node000016"><a xlink:href="../../d0/dc2/class_serializer.html#a60889622ee4e36ea28a284e99bbdf4e5" target="_top" xlink:title=" ">
<polygon fill="white" stroke="#666666" points="706,-20 578.25,-20 578.25,0 706,0 706,-20"/>
<text xml:space="preserve" text-anchor="middle" x="642.12" y="-6.5" font-family="Helvetica,sans-Serif" font-size="10.00">Serializer::serializeUInt64</text>
</a>
</g>
</g>
<!-- Node4&#45;&gt;Node16 -->
<g id="edge26_Node000004_Node000016" class="edge">
<title>Node4&#45;&gt;Node16</title>
<g id="a_edge26_Node000004_Node000016"><a xlink:title=" ">
<path fill="none" stroke="#63b8ff" d="M265.12,-265.87C281.74,-233.76 322.96,-161.23 376.25,-118 437.53,-68.28 524.79,-38.67 582.17,-23.37"/>
<polygon fill="#63b8ff" stroke="#63b8ff" points="582.96,-26.78 591.76,-20.88 581.2,-20 582.96,-26.78"/>
</a>
</g>
</g>
<!-- Node17 -->
<g id="Node000017" class="node">
<title>Node17</title>
<g id="a_Node000017"><a xlink:href="../../d0/dc2/class_serializer.html#a776a157c2ae2e009d25025e0ed151fcb" target="_top" xlink:title=" ">
<polygon fill="white" stroke="#666666" points="520.12,-298 395.38,-298 395.38,-266 520.12,-266 520.12,-298"/>
<text xml:space="preserve" text-anchor="start" x="403.38" y="-284.5" font-family="Helvetica,sans-Serif" font-size="10.00">Serializer::serializeGame</text>
<text xml:space="preserve" text-anchor="middle" x="457.75" y="-272.5" font-family="Helvetica,sans-Serif" font-size="10.00">Table</text>
</a>
</g>
</g>
<!-- Node4&#45;&gt;Node17 -->
<g id="edge23_Node000004_Node000017" class="edge">
<title>Node4&#45;&gt;Node17</title>
<g id="a_edge23_Node000004_Node000017"><a xlink:title=" ">
<path fill="none" stroke="#63b8ff" d="M318.92,-282C339.4,-282 362.39,-282 383.64,-282"/>
<polygon fill="#63b8ff" stroke="#63b8ff" points="383.39,-285.5 393.39,-282 383.39,-278.5 383.39,-285.5"/>
</a>
</g>
</g>
<!-- Node6 -->
<g id="Node000006" class="node">
<title>Node6</title>
<g id="a_Node000006"><a xlink:href="../../d0/dc2/class_serializer.html#a9555132c02190d9a832a360fb236e954" target="_top" xlink:title=" ">
<polygon fill="white" stroke="#666666" points="704.12,-260 580.12,-260 580.12,-240 704.12,-240 704.12,-260"/>
<text xml:space="preserve" text-anchor="middle" x="642.12" y="-246.5" font-family="Helvetica,sans-Serif" font-size="10.00">Serializer::serializeBoard</text>
</a>
</g>
</g>
<!-- Node5&#45;&gt;Node6 -->
<g id="edge5_Node000005_Node000006" class="edge">
<title>Node5&#45;&gt;Node6</title>
<g id="a_edge5_Node000005_Node000006"><a xlink:title=" ">
<path fill="none" stroke="#63b8ff" d="M475.93,-159.25C497.53,-178.86 536.49,-211.61 575.25,-231 578.71,-232.73 582.35,-234.33 586.07,-235.8"/>
<polygon fill="#63b8ff" stroke="#63b8ff" points="584.67,-239.01 595.27,-239.1 587.04,-232.42 584.67,-239.01"/>
</a>
</g>
</g>
<!-- Node5&#45;&gt;Node8 -->
<g id="edge13_Node000005_Node000008" class="edge">
<title>Node5&#45;&gt;Node8</title>
<g id="a_edge13_Node000005_Node000008"><a xlink:title=" ">
<path fill="none" stroke="#63b8ff" d="M520.17,-151.6C600.61,-163.2 745.89,-185.26 869,-210 881.44,-212.5 894.76,-215.34 907.37,-218.1"/>
<polygon fill="#63b8ff" stroke="#63b8ff" points="906.24,-221.43 916.76,-220.17 907.75,-214.6 906.24,-221.43"/>
</a>
</g>
</g>
<!-- Node9 -->
<g id="Node000009" class="node">
<title>Node9</title>
<g id="a_Node000009"><a xlink:href="../../d0/dc2/class_serializer.html#ad0d31f7afee6b62ebc3c4f05bfef6bf2" target="_top" xlink:title=" ">
<polygon fill="white" stroke="#666666" points="700.38,-134 583.88,-134 583.88,-114 700.38,-114 700.38,-134"/>
<text xml:space="preserve" text-anchor="middle" x="642.12" y="-120.5" font-family="Helvetica,sans-Serif" font-size="10.00">Serializer::serializeGrid</text>
</a>
</g>
</g>
<!-- Node5&#45;&gt;Node9 -->
<g id="edge8_Node000005_Node000009" class="edge">
<title>Node5&#45;&gt;Node9</title>
<g id="a_edge8_Node000005_Node000009"><a xlink:title=" ">
<path fill="none" stroke="#63b8ff" d="M520.24,-136.59C537.04,-134.84 555.34,-132.94 572.51,-131.15"/>
<polygon fill="#63b8ff" stroke="#63b8ff" points="572.51,-134.67 582.09,-130.15 571.78,-127.71 572.51,-134.67"/>
</a>
</g>
</g>
<!-- Node13 -->
<g id="Node000013" class="node">
<title>Node13</title>
<g id="a_Node000013"><a xlink:href="../../d0/dc2/class_serializer.html#a05ba0aafb8b9ccd2050b1d61f9525ded" target="_top" xlink:title=" ">
<polygon fill="white" stroke="#666666" points="709,-96 575.25,-96 575.25,-76 709,-76 709,-96"/>
<text xml:space="preserve" text-anchor="middle" x="642.12" y="-82.5" font-family="Helvetica,sans-Serif" font-size="10.00">Serializer::serializePanning</text>
</a>
</g>
</g>
<!-- Node5&#45;&gt;Node13 -->
<g id="edge14_Node000005_Node000013" class="edge">
<title>Node5&#45;&gt;Node13</title>
<g id="a_edge14_Node000005_Node000013"><a xlink:title=" ">
<path fill="none" stroke="#63b8ff" d="M507.95,-126.54C528.67,-119.71 553.08,-111.81 575.25,-105 581.08,-103.21 587.22,-101.37 593.3,-99.58"/>
<polygon fill="#63b8ff" stroke="#63b8ff" points="594.05,-103.01 602.67,-96.85 592.09,-96.29 594.05,-103.01"/>
</a>
</g>
</g>
<!-- Node14 -->
<g id="Node000014" class="node">
<title>Node14</title>
<g id="a_Node000014"><a xlink:href="../../d0/dc2/class_serializer.html#a6be006b0cf99a37c2146723395013b76" target="_top" xlink:title=" ">
<polygon fill="white" stroke="#666666" points="866,-32 748,-32 748,-12 866,-12 866,-32"/>
<text xml:space="preserve" text-anchor="middle" x="807" y="-18.5" font-family="Helvetica,sans-Serif" font-size="10.00">Serializer::serializeSize</text>
</a>
</g>
</g>
<!-- Node5&#45;&gt;Node14 -->
<g id="edge16_Node000005_Node000014" class="edge">
<title>Node5&#45;&gt;Node14</title>
<g id="a_edge16_Node000005_Node000014"><a xlink:title=" ">
<path fill="none" stroke="#63b8ff" d="M478.45,-126.69C500.6,-109.22 538.33,-81.98 575.25,-67 627.14,-45.95 689.68,-34.54 736.56,-28.48"/>
<polygon fill="#63b8ff" stroke="#63b8ff" points="736.82,-31.98 746.32,-27.28 735.96,-25.03 736.82,-31.98"/>
</a>
</g>
</g>
<!-- Node15 -->
<g id="Node000015" class="node">
<title>Node15</title>
<g id="a_Node000015"><a xlink:href="../../d0/dc2/class_serializer.html#a2e08effc9986b4b485dc4e40ffecb7fb" target="_top" xlink:title=" ">
<polygon fill="white" stroke="#666666" points="707.5,-222 576.75,-222 576.75,-190 707.5,-190 707.5,-222"/>
<text xml:space="preserve" text-anchor="start" x="584.75" y="-208.5" font-family="Helvetica,sans-Serif" font-size="10.00">Serializer::serializeTexture</text>
<text xml:space="preserve" text-anchor="middle" x="642.12" y="-196.5" font-family="Helvetica,sans-Serif" font-size="10.00">Component</text>
</a>
</g>
</g>
<!-- Node5&#45;&gt;Node15 -->
<g id="edge18_Node000005_Node000015" class="edge">
<title>Node5&#45;&gt;Node15</title>
<g id="a_edge18_Node000005_Node000015"><a xlink:title=" ">
<path fill="none" stroke="#63b8ff" d="M506.19,-159.39C529.63,-167.49 558.13,-177.33 582.89,-185.88"/>
<polygon fill="#63b8ff" stroke="#63b8ff" points="581.58,-189.13 592.17,-189.09 583.87,-182.52 581.58,-189.13"/>
</a>
</g>
</g>
<!-- Node5&#45;&gt;Node16 -->
<g id="edge22_Node000005_Node000016" class="edge">
<title>Node5&#45;&gt;Node16</title>
<g id="a_edge22_Node000005_Node000016"><a xlink:title=" ">
<path fill="none" stroke="#63b8ff" d="M472.22,-126.78C492.43,-103.38 532.77,-60.09 575.25,-34 580.96,-30.49 587.27,-27.38 593.65,-24.66"/>
<polygon fill="#63b8ff" stroke="#63b8ff" points="594.92,-27.92 602.95,-21 592.36,-21.4 594.92,-27.92"/>
</a>
</g>
</g>
<!-- Node7 -->
<g id="Node000007" class="node">
<title>Node7</title>
<g id="a_Node000007"><a xlink:href="../../d0/dc2/class_serializer.html#a8a72c08ebb91348dc2a7ef6557c44f6c" target="_top" xlink:title=" ">
<polygon fill="white" stroke="#666666" points="869,-260 745,-260 745,-240 869,-240 869,-260"/>
<text xml:space="preserve" text-anchor="middle" x="807" y="-246.5" font-family="Helvetica,sans-Serif" font-size="10.00">Serializer::serializeString</text>
</a>
</g>
</g>
<!-- Node6&#45;&gt;Node7 -->
<g id="edge6_Node000006_Node000007" class="edge">
<title>Node6&#45;&gt;Node7</title>
<g id="a_edge6_Node000006_Node000007"><a xlink:title=" ">
<path fill="none" stroke="#63b8ff" d="M704.24,-250C713.71,-250 723.57,-250 733.27,-250"/>
<polygon fill="#63b8ff" stroke="#63b8ff" points="733.03,-253.5 743.03,-250 733.03,-246.5 733.03,-253.5"/>
</a>
</g>
</g>
<!-- Node7&#45;&gt;Node8 -->
<g id="edge7_Node000007_Node000008" class="edge">
<title>Node7&#45;&gt;Node8</title>
<g id="a_edge7_Node000007_Node000008"><a xlink:title=" ">
<path fill="none" stroke="#63b8ff" d="M869.26,-242.55C878.9,-241.37 888.9,-240.16 898.63,-238.97"/>
<polygon fill="#63b8ff" stroke="#63b8ff" points="898.88,-242.47 908.39,-237.78 898.04,-235.52 898.88,-242.47"/>
</a>
</g>
</g>
<!-- Node10 -->
<g id="Node000010" class="node">
<title>Node10</title>
<g id="a_Node000010"><a xlink:href="../../d0/dc2/class_serializer.html#a2a407c3a379b680296ee190ed625f05f" target="_top" xlink:title=" ">
<polygon fill="white" stroke="#666666" points="866,-70 748,-70 748,-50 866,-50 866,-70"/>
<text xml:space="preserve" text-anchor="middle" x="807" y="-56.5" font-family="Helvetica,sans-Serif" font-size="10.00">Serializer::serializeBool</text>
</a>
</g>
</g>
<!-- Node9&#45;&gt;Node10 -->
<g id="edge9_Node000009_Node000010" class="edge">
<title>Node9&#45;&gt;Node10</title>
<g id="a_edge9_Node000009_Node000010"><a xlink:title=" ">
<path fill="none" stroke="#63b8ff" d="M685.14,-113.57C693.18,-111.1 701.45,-108.23 709,-105 726.03,-97.71 728.33,-92.08 745,-84 751.73,-80.74 759.03,-77.57 766.16,-74.66"/>
<polygon fill="#63b8ff" stroke="#63b8ff" points="767.33,-77.95 775.34,-71.02 764.76,-71.45 767.33,-77.95"/>
</a>
</g>
</g>
<!-- Node11 -->
<g id="Node000011" class="node">
<title>Node11</title>
<g id="a_Node000011"><a xlink:href="../../d0/dc2/class_serializer.html#a92ffe65857abd6eea6a393056a9bb533" target="_top" xlink:title=" ">
<polygon fill="white" stroke="#666666" points="1025.25,-108 905,-108 905,-88 1025.25,-88 1025.25,-108"/>
<text xml:space="preserve" text-anchor="middle" x="965.12" y="-94.5" font-family="Helvetica,sans-Serif" font-size="10.00">Serializer::serializeFloat</text>
</a>
</g>
</g>
<!-- Node9&#45;&gt;Node11 -->
<g id="edge10_Node000009_Node000011" class="edge">
<title>Node9&#45;&gt;Node11</title>
<g id="a_edge10_Node000009_Node000011"><a xlink:title=" ">
<path fill="none" stroke="#63b8ff" d="M700.51,-119.35C754.44,-114.98 835.31,-108.43 893.25,-103.74"/>
<polygon fill="#63b8ff" stroke="#63b8ff" points="893.32,-107.25 903.01,-102.95 892.76,-100.27 893.32,-107.25"/>
</a>
</g>
</g>
<!-- Node12 -->
<g id="Node000012" class="node">
<title>Node12</title>
<g id="a_Node000012"><a xlink:href="../../d0/dc2/class_serializer.html#a52943821c1686ae47c30586ec7f9bc7e" target="_top" xlink:title=" ">
<polygon fill="white" stroke="#666666" points="867.12,-146 746.88,-146 746.88,-126 867.12,-126 867.12,-146"/>
<text xml:space="preserve" text-anchor="middle" x="807" y="-132.5" font-family="Helvetica,sans-Serif" font-size="10.00">Serializer::serializeVec2</text>
</a>
</g>
</g>
<!-- Node9&#45;&gt;Node12 -->
<g id="edge11_Node000009_Node000012" class="edge">
<title>Node9&#45;&gt;Node12</title>
<g id="a_edge11_Node000009_Node000012"><a xlink:title=" ">
<path fill="none" stroke="#63b8ff" d="M700.55,-128.23C711.75,-129.06 723.61,-129.93 735.18,-130.78"/>
<polygon fill="#63b8ff" stroke="#63b8ff" points="734.88,-134.27 745.11,-131.51 735.39,-127.29 734.88,-134.27"/>
</a>
</g>
</g>
<!-- Node12&#45;&gt;Node11 -->
<g id="edge12_Node000012_Node000011" class="edge">
<title>Node12&#45;&gt;Node11</title>
<g id="a_edge12_Node000012_Node000011"><a xlink:title=" ">
<path fill="none" stroke="#63b8ff" d="M851.08,-125.52C869.33,-121.07 890.81,-115.84 910.12,-111.15"/>
<polygon fill="#63b8ff" stroke="#63b8ff" points="910.83,-114.57 919.72,-108.81 909.18,-107.77 910.83,-114.57"/>
</a>
</g>
</g>
<!-- Node13&#45;&gt;Node10 -->
<g id="edge15_Node000013_Node000010" class="edge">
<title>Node13&#45;&gt;Node10</title>
<g id="a_edge15_Node000013_Node000010"><a xlink:title=" ">
<path fill="none" stroke="#63b8ff" d="M708.43,-75.57C717.62,-74.11 727.09,-72.6 736.36,-71.12"/>
<polygon fill="#63b8ff" stroke="#63b8ff" points="736.7,-74.61 746.02,-69.57 735.6,-67.69 736.7,-74.61"/>
</a>
</g>
</g>
<!-- Node14&#45;&gt;Node11 -->
<g id="edge17_Node000014_Node000011" class="edge">
<title>Node14&#45;&gt;Node11</title>
<g id="a_edge17_Node000014_Node000011"><a xlink:title=" ">
<path fill="none" stroke="#63b8ff" d="M846.59,-32.49C854.14,-34.97 861.91,-37.83 869,-41 894.21,-52.28 921.03,-68.82 939.74,-81.18"/>
<polygon fill="#63b8ff" stroke="#63b8ff" points="937.74,-84.04 947.99,-86.71 941.64,-78.23 937.74,-84.04"/>
</a>
</g>
</g>
<!-- Node15&#45;&gt;Node7 -->
<g id="edge20_Node000015_Node000007" class="edge">
<title>Node15&#45;&gt;Node7</title>
<g id="a_edge20_Node000015_Node000007"><a xlink:title=" ">
<path fill="none" stroke="#63b8ff" d="M703.77,-222.38C721.12,-227.07 739.81,-232.12 756.4,-236.6"/>
<polygon fill="#63b8ff" stroke="#63b8ff" points="755.49,-239.98 766.06,-239.21 757.31,-233.22 755.49,-239.98"/>
</a>
</g>
</g>
<!-- Node15&#45;&gt;Node8 -->
<g id="edge19_Node000015_Node000008" class="edge">
<title>Node15&#45;&gt;Node8</title>
<g id="a_edge19_Node000015_Node000008"><a xlink:title=" ">
<path fill="none" stroke="#63b8ff" d="M707.7,-211.03C763.19,-215.35 842.86,-221.56 898.62,-225.9"/>
<polygon fill="#63b8ff" stroke="#63b8ff" points="898.04,-229.36 908.28,-226.65 898.58,-222.38 898.04,-229.36"/>
</a>
</g>
</g>
<!-- Node15&#45;&gt;Node12 -->
<g id="edge21_Node000015_Node000012" class="edge">
<title>Node15&#45;&gt;Node12</title>
<g id="a_edge21_Node000015_Node000012"><a xlink:title=" ">
<path fill="none" stroke="#63b8ff" d="M681.31,-189.59C708.58,-177.87 744.97,-162.23 771.39,-150.87"/>
<polygon fill="#63b8ff" stroke="#63b8ff" points="772.5,-154.21 780.31,-147.04 769.74,-147.78 772.5,-154.21"/>
</a>
</g>
</g>
<!-- Node17&#45;&gt;Node7 -->
<g id="edge24_Node000017_Node000007" class="edge">
<title>Node17&#45;&gt;Node7</title>
<g id="a_edge24_Node000017_Node000007"><a xlink:title=" ">
<path fill="none" stroke="#63b8ff" d="M520.41,-281.22C571.19,-280 644.99,-276.89 709,-269 721.91,-267.41 735.68,-265.09 748.66,-262.62"/>
<polygon fill="#63b8ff" stroke="#63b8ff" points="749.21,-266.08 758.35,-260.72 747.86,-259.21 749.21,-266.08"/>
</a>
</g>
</g>
</g>
</svg>
