<?xml version="1.0" encoding="UTF-8" standalone="no"?>
<!DOCTYPE svg PUBLIC "-//W3C//DTD SVG 1.1//EN"
 "http://www.w3.org/Graphics/SVG/1.1/DTD/svg11.dtd">
<!-- Generated by graphviz version 2.43.0 (0)
 -->
<!-- Title: DebugConsole::renderLeftPanel_ Pages: 1 -->
<svg width="513pt" height="27pt"
 viewBox="0.00 0.00 513.00 27.00" xmlns="http://www.w3.org/2000/svg" xmlns:xlink="http://www.w3.org/1999/xlink">
<g id="graph0" class="graph" transform="scale(1 1) rotate(0) translate(4 23)">
<title>DebugConsole::renderLeftPanel_</title>
<!-- Node1 -->
<g id="Node000001" class="node">
<title>Node1</title>
<g id="a_Node000001"><a xlink:title=" ">
<polygon fill="#999999" stroke="#666666" points="505,-19 331,-19 331,0 505,0 505,-19"/>
<text text-anchor="middle" x="418" y="-7" font-family="Helvetica,sans-Serif" font-size="10.00">DebugConsole::renderLeftPanel_</text>
</a>
</g>
</g>
<!-- Node2 -->
<g id="Node000002" class="node">
<title>Node2</title>
<g id="a_Node000002"><a xlink:href="../../da/d4c/classDebugConsole.html#adeb68f1f7a629e5f8550872c30fd0b8b" target="_top" xlink:title=" ">
<polygon fill="white" stroke="#666666" points="295,-19 167,-19 167,0 295,0 295,-19"/>
<text text-anchor="middle" x="231" y="-7" font-family="Helvetica,sans-Serif" font-size="10.00">DebugConsole::Render</text>
</a>
</g>
</g>
<!-- Node1&#45;&gt;Node2 -->
<g id="edge1_Node000001_Node000002" class="edge">
<title>Node1&#45;&gt;Node2</title>
<g id="a_edge1_Node000001_Node000002"><a xlink:title=" ">
<path fill="none" stroke="#63b8ff" d="M320.79,-9.5C312.1,-9.5 303.45,-9.5 295.15,-9.5"/>
<polygon fill="#63b8ff" stroke="#63b8ff" points="321,-13 331,-9.5 321,-6 321,-13"/>
</a>
</g>
</g>
<!-- Node3 -->
<g id="Node000003" class="node">
<title>Node3</title>
<g id="a_Node000003"><a xlink:href="../../d8/d43/classApplicationHandler.html#afaf00f4f20eca3fec59f8f02f76ef2ce" target="_top" xlink:title=" ">
<polygon fill="white" stroke="#666666" points="131,-19 0,-19 0,0 131,0 131,-19"/>
<text text-anchor="middle" x="65.5" y="-7" font-family="Helvetica,sans-Serif" font-size="10.00">ApplicationHandler::run</text>
</a>
</g>
</g>
<!-- Node2&#45;&gt;Node3 -->
<g id="edge2_Node000002_Node000003" class="edge">
<title>Node2&#45;&gt;Node3</title>
<g id="a_edge2_Node000002_Node000003"><a xlink:title=" ">
<path fill="none" stroke="#63b8ff" d="M156.55,-9.5C148.08,-9.5 139.5,-9.5 131.17,-9.5"/>
<polygon fill="#63b8ff" stroke="#63b8ff" points="156.79,-13 166.79,-9.5 156.79,-6 156.79,-13"/>
</a>
</g>
</g>
</g>
</svg>
