<?xml version="1.0" encoding="UTF-8" standalone="no"?>
<!DOCTYPE svg PUBLIC "-//W3C//DTD SVG 1.1//EN"
 "http://www.w3.org/Graphics/SVG/1.1/DTD/svg11.dtd">
<!-- Generated by graphviz version 2.43.0 (0)
 -->
<!-- Title: DebugConsole::Render Pages: 1 -->
<!--zoomable 308 -->

<svg id="main" version="1.1" xmlns="http://www.w3.org/2000/svg" xmlns:xlink="http://www.w3.org/1999/xlink" xml:space="preserve" onload="init(evt)">
<style type="text/css"><![CDATA[
.node, .edge {opacity: 0.7;}
.node.selected, .edge.selected {opacity: 1;}
.edge:hover path { stroke: red; }
.edge:hover polygon { stroke: red; fill: red; }
]]></style>

<defs>
  <circle id="rim" cx="0" cy="0" r="7"/>
  <circle id="rim2" cx="0" cy="0" r="3.5"/>
  <g id="zoomPlus">
    <use xlink:href="#rim" fill="#404040"><set attributeName="fill" to="#808080" begin="zoomplus.mouseover" end="zoomplus.mouseout"/></use>
    <path d="M-4,0h8M0,-4v8" fill="none" stroke="white" stroke-width="1.5" pointer-events="none"/>
  </g>
  <g id="zoomMin">
    <use xlink:href="#rim" fill="#404040"><set attributeName="fill" to="#808080" begin="zoomminus.mouseover" end="zoomminus.mouseout"/></use>
    <path d="M-4,0h8" fill="none" stroke="white" stroke-width="1.5" pointer-events="none"/>
  </g>
  <g id="arrowUp" transform="translate(30 24)">
    <use xlink:href="#rim"/>
    <path pointer-events="none" fill="none" stroke="white" stroke-width="1.5" d="M0,-3.0v7 M-2.5,-0.5L0,-3.0L2.5,-0.5"/>
  </g>
  <g id="arrowRight" transform="rotate(90) translate(36 -43)">
    <use xlink:href="#rim"/>
    <path pointer-events="none" fill="none" stroke="white" stroke-width="1.5" d="M0,-3.0v7 M-2.5,-0.5L0,-3.0L2.5,-0.5"/>
  </g>
  <g id="arrowDown" transform="rotate(180) translate(-30 -48)">
    <use xlink:href="#rim"/>
    <path pointer-events="none" fill="none" stroke="white" stroke-width="1.5" d="M0,-3.0v7 M-2.5,-0.5L0,-3.0L2.5,-0.5"/>
  </g>
  <g id="arrowLeft" transform="rotate(270) translate(-36 17)">
    <use xlink:href="#rim"/>
    <path pointer-events="none" fill="none" stroke="white" stroke-width="1.5" d="M0,-3.0v7 M-2.5,-0.5L0,-3.0L2.5,-0.5"/>
  </g>
  <g id="resetDef">
    <use xlink:href="#rim2" fill="#404040"><set attributeName="fill" to="#808080" begin="reset.mouseover" end="reset.mouseout"/></use>
  </g>
</defs>
<script type="application/ecmascript">
var viewWidth = 710;
var viewHeight = 308;
var sectionId = 'dynsection-8';
</script>
<script type="application/ecmascript" xlink:href="../../svg.min.js"/>
<svg id="graph" class="graph">
<g id="viewport">
<title>DebugConsole::Render</title>
<!-- Node1 -->
<g id="Node000001" class="node">
<title>Node1</title>
<g id="a_Node000001"><a xlink:title=" ">
<polygon fill="#999999" stroke="#666666" points="128,-158 0,-158 0,-139 128,-139 128,-158"/>
<text text-anchor="middle" x="64" y="-146" font-family="Helvetica,sans-Serif" font-size="10.00">DebugConsole::Render</text>
</a>
</g>
</g>
<!-- Node2 -->
<g id="Node000002" class="node">
<title>Node2</title>
<g id="a_Node000002"><a xlink:href="../../da/d4c/classDebugConsole.html#a717dcde7a5054ddfa4c8b9aef2307d00" target="_top" xlink:title=" ">
<polygon fill="white" stroke="#666666" points="342,-224 168,-224 168,-205 342,-205 342,-224"/>
<text text-anchor="middle" x="255" y="-212" font-family="Helvetica,sans-Serif" font-size="10.00">DebugConsole::renderLeftPanel_</text>
</a>
</g>
</g>
<!-- Node1&#45;&gt;Node2 -->
<g id="edge1_Node000001_Node000002" class="edge">
<title>Node1&#45;&gt;Node2</title>
<g id="a_edge1_Node000001_Node000002"><a xlink:title=" ">
<path fill="none" stroke="#63b8ff" d="M92.48,-158.1C125.33,-169.57 180.43,-188.81 217,-201.58"/>
<polygon fill="#63b8ff" stroke="#63b8ff" points="216.2,-205.01 226.79,-205 218.5,-198.4 216.2,-205.01"/>
</a>
</g>
</g>
<!-- Node8 -->
<g id="Node000008" class="node">
<title>Node8</title>
<g id="a_Node000008"><a xlink:href="../../da/d4c/classDebugConsole.html#a8f35a8359718f74e24ccfa652a432853" target="_top" xlink:title=" ">
<polygon fill="white" stroke="#666666" points="346,-93 164,-93 164,-74 346,-74 346,-93"/>
<text text-anchor="middle" x="255" y="-81" font-family="Helvetica,sans-Serif" font-size="10.00">DebugConsole::renderRightPanel_</text>
</a>
</g>
</g>
<!-- Node1&#45;&gt;Node8 -->
<g id="edge9_Node000001_Node000008" class="edge">
<title>Node1&#45;&gt;Node8</title>
<g id="a_edge9_Node000001_Node000008"><a xlink:title=" ">
<path fill="none" stroke="#63b8ff" d="M92.89,-138.91C125.64,-127.64 180.13,-108.91 216.55,-96.38"/>
<polygon fill="#63b8ff" stroke="#63b8ff" points="217.99,-99.59 226.31,-93.02 215.71,-92.97 217.99,-99.59"/>
</a>
</g>
</g>
<!-- Node3 -->
<g id="Node000003" class="node">
<title>Node3</title>
<g id="a_Node000003"><a xlink:href="../../da/d4c/classDebugConsole.html#a54beaa848e4e2e121cad09e36ac26558" target="_top" xlink:title=" ">
<polygon fill="white" stroke="#666666" points="567,-300 382,-300 382,-281 567,-281 567,-300"/>
<text text-anchor="middle" x="474.5" y="-288" font-family="Helvetica,sans-Serif" font-size="10.00">DebugConsole::buildChannelLists_</text>
</a>
</g>
</g>
<!-- Node2&#45;&gt;Node3 -->
<g id="edge2_Node000002_Node000003" class="edge">
<title>Node2&#45;&gt;Node3</title>
<g id="a_edge2_Node000002_Node000003"><a xlink:title=" ">
<path fill="none" stroke="#63b8ff" d="M276.63,-224.02C301.32,-235.19 344.09,-253.77 382,-266.5 394.9,-270.83 409.04,-274.88 422.26,-278.36"/>
<polygon fill="#63b8ff" stroke="#63b8ff" points="421.6,-281.81 432.16,-280.91 423.35,-275.03 421.6,-281.81"/>
</a>
</g>
</g>
<!-- Node5 -->
<g id="Node000005" class="node">
<title>Node5</title>
<g id="a_Node000005"><a xlink:href="../../db/d67/classLogger.html#aebb248e608f8e2724de20b482cb2a15f" target="_top" xlink:title=" ">
<polygon fill="white" stroke="#666666" points="701,-262 604,-262 604,-243 701,-243 701,-262"/>
<text text-anchor="middle" x="652.5" y="-250" font-family="Helvetica,sans-Serif" font-size="10.00">Logger::instance</text>
</a>
</g>
</g>
<!-- Node2&#45;&gt;Node5 -->
<g id="edge6_Node000002_Node000005" class="edge">
<title>Node2&#45;&gt;Node5</title>
<g id="a_edge6_Node000002_Node000005"><a xlink:title=" ">
<path fill="none" stroke="#63b8ff" d="M312.64,-224.02C334.29,-227.4 359.24,-230.99 382,-233.5 454.7,-241.53 538.84,-246.83 593.5,-249.74"/>
<polygon fill="#63b8ff" stroke="#63b8ff" points="593.52,-253.25 603.69,-250.28 593.89,-246.26 593.52,-253.25"/>
</a>
</g>
</g>
<!-- Node6 -->
<g id="Node000006" class="node">
<title>Node6</title>
<g id="a_Node000006"><a xlink:href="../../db/d67/classLogger.html#af98b620264a3be3cf1df7b7265a7ac88" target="_top" xlink:title=" ">
<polygon fill="white" stroke="#666666" points="534,-224 415,-224 415,-205 534,-205 534,-224"/>
<text text-anchor="middle" x="474.5" y="-212" font-family="Helvetica,sans-Serif" font-size="10.00">Logger::clearChannel</text>
</a>
</g>
</g>
<!-- Node2&#45;&gt;Node6 -->
<g id="edge5_Node000002_Node000006" class="edge">
<title>Node2&#45;&gt;Node6</title>
<g id="a_edge5_Node000002_Node000006"><a xlink:title=" ">
<path fill="none" stroke="#63b8ff" d="M342.27,-214.5C362.98,-214.5 384.82,-214.5 404.62,-214.5"/>
<polygon fill="#63b8ff" stroke="#63b8ff" points="404.76,-218 414.76,-214.5 404.76,-211 404.76,-218"/>
</a>
</g>
</g>
<!-- Node7 -->
<g id="Node000007" class="node">
<title>Node7</title>
<g id="a_Node000007"><a xlink:href="../../db/d67/classLogger.html#ab77a9a6a08954192b47c39f359b5d370" target="_top" xlink:title=" ">
<polygon fill="white" stroke="#666666" points="510,-169 439,-169 439,-150 510,-150 510,-169"/>
<text text-anchor="middle" x="474.5" y="-157" font-family="Helvetica,sans-Serif" font-size="10.00">Logger::log</text>
</a>
</g>
</g>
<!-- Node2&#45;&gt;Node7 -->
<g id="edge7_Node000002_Node000007" class="edge">
<title>Node2&#45;&gt;Node7</title>
<g id="a_edge7_Node000002_Node000007"><a xlink:title=" ">
<path fill="none" stroke="#63b8ff" d="M293.89,-204.92C331.59,-195.39 389.41,-180.76 429.21,-170.7"/>
<polygon fill="#63b8ff" stroke="#63b8ff" points="430.08,-174.09 438.92,-168.25 428.36,-167.3 430.08,-174.09"/>
</a>
</g>
</g>
<!-- Node4 -->
<g id="Node000004" class="node">
<title>Node4</title>
<g id="a_Node000004"><a xlink:href="../../db/d67/classLogger.html#ab3787eeb00f65f63877f1c7a5e681d66" target="_top" xlink:title=" ">
<polygon fill="white" stroke="#666666" points="702,-300 603,-300 603,-281 702,-281 702,-300"/>
<text text-anchor="middle" x="652.5" y="-288" font-family="Helvetica,sans-Serif" font-size="10.00">Logger::channels</text>
</a>
</g>
</g>
<!-- Node3&#45;&gt;Node4 -->
<g id="edge3_Node000003_Node000004" class="edge">
<title>Node3&#45;&gt;Node4</title>
<g id="a_edge3_Node000003_Node000004"><a xlink:title=" ">
<path fill="none" stroke="#63b8ff" d="M567.11,-290.5C575.8,-290.5 584.45,-290.5 592.7,-290.5"/>
<polygon fill="#63b8ff" stroke="#63b8ff" points="592.93,-294 602.93,-290.5 592.93,-287 592.93,-294"/>
</a>
</g>
</g>
<!-- Node3&#45;&gt;Node5 -->
<g id="edge4_Node000003_Node000005" class="edge">
<title>Node3&#45;&gt;Node5</title>
<g id="a_edge4_Node000003_Node000005"><a xlink:title=" ">
<path fill="none" stroke="#63b8ff" d="M519.91,-280.91C543.45,-275.83 572.56,-269.54 597.4,-264.18"/>
<polygon fill="#63b8ff" stroke="#63b8ff" points="598.37,-267.55 607.41,-262.02 596.89,-260.71 598.37,-267.55"/>
</a>
</g>
</g>
<!-- Node7&#45;&gt;Node7 -->
<g id="edge8_Node000007_Node000007" class="edge">
<title>Node7&#45;&gt;Node7</title>
<g id="a_edge8_Node000007_Node000007"><a xlink:title=" ">
<path fill="none" stroke="#63b8ff" d="M447.07,-169.08C433.72,-177.73 442.86,-187 474.5,-187 495.76,-187 506.86,-182.82 507.81,-177.45"/>
<polygon fill="#63b8ff" stroke="#63b8ff" points="510.55,-175.26 501.93,-169.08 504.82,-179.28 510.55,-175.26"/>
</a>
</g>
</g>
<!-- Node8&#45;&gt;Node5 -->
<g id="edge13_Node000008_Node000005" class="edge">
<title>Node8&#45;&gt;Node5</title>
<g id="a_edge13_Node000008_Node000005"><a xlink:title=" ">
<path fill="none" stroke="#63b8ff" d="M320.66,-93.02C405.56,-105.9 546.31,-128.75 567,-141.5 603.43,-163.95 629.82,-208.27 642.68,-233.59"/>
<polygon fill="#63b8ff" stroke="#63b8ff" points="639.68,-235.42 647.21,-242.87 645.97,-232.35 639.68,-235.42"/>
</a>
</g>
</g>
<!-- Node9 -->
<g id="Node000009" class="node">
<title>Node9</title>
<g id="a_Node000009"><a xlink:href="../../da/d4c/classDebugConsole.html#a6c116a8611b2542015fbfe9bc5d0730f" target="_top" xlink:title=" ">
<polygon fill="white" stroke="#666666" points="556.5,-93 392.5,-93 392.5,-74 556.5,-74 556.5,-93"/>
<text text-anchor="middle" x="474.5" y="-81" font-family="Helvetica,sans-Serif" font-size="10.00">DebugConsole::colorForLevel_</text>
</a>
</g>
</g>
<!-- Node8&#45;&gt;Node9 -->
<g id="edge10_Node000008_Node000009" class="edge">
<title>Node8&#45;&gt;Node9</title>
<g id="a_edge10_Node000008_Node000009"><a xlink:title=" ">
<path fill="none" stroke="#63b8ff" d="M346.04,-83.5C357.88,-83.5 370.02,-83.5 381.89,-83.5"/>
<polygon fill="#63b8ff" stroke="#63b8ff" points="382.23,-87 392.23,-83.5 382.23,-80 382.23,-87"/>
</a>
</g>
</g>
<!-- Node10 -->
<g id="Node000010" class="node">
<title>Node10</title>
<g id="a_Node000010"><a xlink:href="../../db/d67/classLogger.html#a9fd06df40e80df63fc91cfc0ccd06788" target="_top" xlink:title=" ">
<polygon fill="white" stroke="#666666" points="523.5,-56 425.5,-56 425.5,-37 523.5,-37 523.5,-56"/>
<text text-anchor="middle" x="474.5" y="-44" font-family="Helvetica,sans-Serif" font-size="10.00">Logger::formatTs</text>
</a>
</g>
</g>
<!-- Node8&#45;&gt;Node10 -->
<g id="edge11_Node000008_Node000010" class="edge">
<title>Node8&#45;&gt;Node10</title>
<g id="a_edge11_Node000008_Node000010"><a xlink:title=" ">
<path fill="none" stroke="#63b8ff" d="M312.01,-73.97C343.7,-68.58 383.27,-61.85 415.31,-56.4"/>
<polygon fill="#63b8ff" stroke="#63b8ff" points="416.15,-59.81 425.43,-54.68 414.98,-52.9 416.15,-59.81"/>
</a>
</g>
</g>
<!-- Node11 -->
<g id="Node000011" class="node">
<title>Node11</title>
<g id="a_Node000011"><a xlink:href="../../db/d67/classLogger.html#a20bc2511969750adca340e0a1fe7ce93" target="_top" xlink:title=" ">
<polygon fill="white" stroke="#666666" points="530,-19 419,-19 419,0 530,0 530,-19"/>
<text text-anchor="middle" x="474.5" y="-7" font-family="Helvetica,sans-Serif" font-size="10.00">Logger::getChannel</text>
</a>
</g>
</g>
<!-- Node8&#45;&gt;Node11 -->
<g id="edge12_Node000008_Node000011" class="edge">
<title>Node8&#45;&gt;Node11</title>
<g id="a_edge12_Node000008_Node000011"><a xlink:title=" ">
<path fill="none" stroke="#63b8ff" d="M274.28,-73.81C298.35,-61.41 342.29,-40.06 382,-27.5 390.62,-24.78 399.82,-22.38 408.96,-20.31"/>
<polygon fill="#63b8ff" stroke="#63b8ff" points="409.77,-23.71 418.8,-18.18 408.29,-16.87 409.77,-23.71"/>
</a>
</g>
</g>
</g>
</svg>

<g id="navigator" transform="translate(0 0)" fill="#404254">
  <rect fill="#f2f5e9" fill-opacity="0.5" stroke="#606060" stroke-width=".5" x="0" y="0" width="60" height="60"/>
  <use id="zoomplus" xlink:href="#zoomPlus" x="17" y="9" onmousedown="handleZoom(evt,'in')"/>
  <use id="zoomminus" xlink:href="#zoomMin" x="42" y="9" onmousedown="handleZoom(evt,'out')"/>
  <use id="reset" xlink:href="#resetDef" x="30" y="36" onmousedown="handleReset()"/>
   <use id="arrowup" xlink:href="#arrowUp" x="0" y="0" onmousedown="handlePan(0,-1)"/>
  <use id="arrowright" xlink:href="#arrowRight" x="0" y="0" onmousedown="handlePan(1,0)"/>
  <use id="arrowdown" xlink:href="#arrowDown" x="0" y="0" onmousedown="handlePan(0,1)"/>
  <use id="arrowleft" xlink:href="#arrowLeft" x="0" y="0" onmousedown="handlePan(-1,0)"/>
</g>
<svg viewBox="0 0 15 15" width="100%" height="30px" preserveAspectRatio="xMaxYMin meet">
 <g id="arrow_out" transform="scale(0.3 0.3)">
  <a xlink:href="classDebugConsole_adeb68f1f7a629e5f8550872c30fd0b8b_cgraph_org.svg" target="_base">
   <rect id="button" ry="5" rx="5" y="6" x="6" height="38" width="38"
        fill="#f2f5e9" fill-opacity="0.5" stroke="#606060" stroke-width="1.0"/>
   <path id="arrow"
     d="M 11.500037,31.436501 C 11.940474,20.09759 22.043105,11.32322 32.158766,21.979434 L 37.068811,17.246167 C 37.068811,17.246167 37.088388,32 37.088388,32 L 22.160133,31.978069 C 22.160133,31.978069 26.997745,27.140456 26.997745,27.140456 C 18.528582,18.264221 13.291696,25.230495 11.500037,31.436501 z"
     style="fill:#404040;"/>
  </a>
 </g>
</svg>

<style type='text/css'>
<![CDATA[
[data-mouse-over-selected='false'] { opacity: 0.7; }
[data-mouse-over-selected='true']  { opacity: 1.0; }
]]>
</style>
<script type="application/ecmascript"><![CDATA[
document.addEventListener('DOMContentLoaded', (event) => {
  highlightEdges();
  highlightAdjacentNodes();
});
]]></script>
</svg>
