<?xml version="1.0" encoding="UTF-8" standalone="no"?>
<!DOCTYPE svg PUBLIC "-//W3C//DTD SVG 1.1//EN"
 "http://www.w3.org/Graphics/SVG/1.1/DTD/svg11.dtd">
<!-- Generated by graphviz version 2.43.0 (0)
 -->
<!-- Title: DebugConsole::bootstrapStdCapture Pages: 1 -->
<svg width="532pt" height="119pt"
 viewBox="0.00 0.00 532.00 119.00" xmlns="http://www.w3.org/2000/svg" xmlns:xlink="http://www.w3.org/1999/xlink">
<g id="graph0" class="graph" transform="scale(1 1) rotate(0) translate(4 115)">
<title>DebugConsole::bootstrapStdCapture</title>
<!-- Node1 -->
<g id="Node000001" class="node">
<title>Node1</title>
<g id="a_Node000001"><a xlink:title=" ">
<polygon fill="#999999" stroke="#666666" points="194,-74 0,-74 0,-55 194,-55 194,-74"/>
<text text-anchor="middle" x="97" y="-62" font-family="Helvetica,sans-Serif" font-size="10.00">DebugConsole::bootstrapStdCapture</text>
</a>
</g>
</g>
<!-- Node2 -->
<g id="Node000002" class="node">
<title>Node2</title>
<g id="a_Node000002"><a xlink:href="../../db/d67/classLogger.html#ac0754e12de89078ec1fb60a7f8493f08" target="_top" xlink:title=" ">
<polygon fill="white" stroke="#666666" points="370,-111 230,-111 230,-92 370,-92 370,-111"/>
<text text-anchor="middle" x="300" y="-99" font-family="Helvetica,sans-Serif" font-size="10.00">Logger::installStdCapture</text>
</a>
</g>
</g>
<!-- Node1&#45;&gt;Node2 -->
<g id="edge1_Node000001_Node000002" class="edge">
<title>Node1&#45;&gt;Node2</title>
<g id="a_edge1_Node000001_Node000002"><a xlink:title=" ">
<path fill="none" stroke="#63b8ff" d="M149.76,-74.03C176.39,-78.93 209.03,-84.94 236.99,-90.09"/>
<polygon fill="#63b8ff" stroke="#63b8ff" points="236.6,-93.57 247.06,-91.94 237.86,-86.69 236.6,-93.57"/>
</a>
</g>
</g>
<!-- Node4 -->
<g id="Node000004" class="node">
<title>Node4</title>
<g id="a_Node000004"><a xlink:href="../../db/d67/classLogger.html#aebb248e608f8e2724de20b482cb2a15f" target="_top" xlink:title=" ">
<polygon fill="white" stroke="#666666" points="348.5,-74 251.5,-74 251.5,-55 348.5,-55 348.5,-74"/>
<text text-anchor="middle" x="300" y="-62" font-family="Helvetica,sans-Serif" font-size="10.00">Logger::instance</text>
</a>
</g>
</g>
<!-- Node1&#45;&gt;Node4 -->
<g id="edge3_Node000001_Node000004" class="edge">
<title>Node1&#45;&gt;Node4</title>
<g id="a_edge3_Node000001_Node000004"><a xlink:title=" ">
<path fill="none" stroke="#63b8ff" d="M194.08,-64.5C210.09,-64.5 226.23,-64.5 240.91,-64.5"/>
<polygon fill="#63b8ff" stroke="#63b8ff" points="241.31,-68 251.31,-64.5 241.31,-61 241.31,-68"/>
</a>
</g>
</g>
<!-- Node5 -->
<g id="Node000005" class="node">
<title>Node5</title>
<g id="a_Node000005"><a xlink:href="../../db/d67/classLogger.html#ab77a9a6a08954192b47c39f359b5d370" target="_top" xlink:title=" ">
<polygon fill="white" stroke="#666666" points="335.5,-19 264.5,-19 264.5,0 335.5,0 335.5,-19"/>
<text text-anchor="middle" x="300" y="-7" font-family="Helvetica,sans-Serif" font-size="10.00">Logger::log</text>
</a>
</g>
</g>
<!-- Node1&#45;&gt;Node5 -->
<g id="edge4_Node000001_Node000005" class="edge">
<title>Node1&#45;&gt;Node5</title>
<g id="a_edge4_Node000001_Node000005"><a xlink:title=" ">
<path fill="none" stroke="#63b8ff" d="M133.01,-54.92C166.73,-45.69 217.88,-31.7 254.48,-21.68"/>
<polygon fill="#63b8ff" stroke="#63b8ff" points="255.67,-24.99 264.39,-18.97 253.82,-18.23 255.67,-24.99"/>
</a>
</g>
</g>
<!-- Node3 -->
<g id="Node000003" class="node">
<title>Node3</title>
<g id="a_Node000003"><a xlink:href="../../db/d67/classLogger.html#a4e5e5f780d0d088fb2c8152755bc2dfb" target="_top" xlink:title=" ">
<polygon fill="white" stroke="#666666" points="524,-111 406,-111 406,-92 524,-92 524,-111"/>
<text text-anchor="middle" x="465" y="-99" font-family="Helvetica,sans-Serif" font-size="10.00">Logger::ensureSeed_</text>
</a>
</g>
</g>
<!-- Node2&#45;&gt;Node3 -->
<g id="edge2_Node000002_Node000003" class="edge">
<title>Node2&#45;&gt;Node3</title>
<g id="a_edge2_Node000002_Node000003"><a xlink:title=" ">
<path fill="none" stroke="#63b8ff" d="M370.13,-101.5C378.58,-101.5 387.21,-101.5 395.65,-101.5"/>
<polygon fill="#63b8ff" stroke="#63b8ff" points="395.82,-105 405.82,-101.5 395.82,-98 395.82,-105"/>
</a>
</g>
</g>
<!-- Node5&#45;&gt;Node5 -->
<g id="edge5_Node000005_Node000005" class="edge">
<title>Node5&#45;&gt;Node5</title>
<g id="a_edge5_Node000005_Node000005"><a xlink:title=" ">
<path fill="none" stroke="#63b8ff" d="M274.72,-19.08C262.43,-27.73 270.85,-37 300,-37 319.13,-37 329.33,-33.01 330.61,-27.82"/>
<polygon fill="#63b8ff" stroke="#63b8ff" points="333.48,-25.79 325.28,-19.08 327.5,-29.44 333.48,-25.79"/>
</a>
</g>
</g>
</g>
</svg>
