<?xml version="1.0" encoding="UTF-8" standalone="no"?>
<!DOCTYPE svg PUBLIC "-//W3C//DTD SVG 1.1//EN"
 "http://www.w3.org/Graphics/SVG/1.1/DTD/svg11.dtd">
<!-- Generated by graphviz version 2.43.0 (0)
 -->
<!-- Title: DebugConsole::renderRightPanel_ Pages: 1 -->
<svg width="390pt" height="138pt"
 viewBox="0.00 0.00 390.00 138.00" xmlns="http://www.w3.org/2000/svg" xmlns:xlink="http://www.w3.org/1999/xlink">
<g id="graph0" class="graph" transform="scale(1 1) rotate(0) translate(4 134)">
<title>DebugConsole::renderRightPanel_</title>
<!-- Node1 -->
<g id="Node000001" class="node">
<title>Node1</title>
<g id="a_Node000001"><a xlink:title=" ">
<polygon fill="#999999" stroke="#666666" points="182,-74 0,-74 0,-55 182,-55 182,-74"/>
<text text-anchor="middle" x="91" y="-62" font-family="Helvetica,sans-Serif" font-size="10.00">DebugConsole::renderRightPanel_</text>
</a>
</g>
</g>
<!-- Node2 -->
<g id="Node000002" class="node">
<title>Node2</title>
<g id="a_Node000002"><a xlink:href="../../da/d4c/classDebugConsole.html#a6c116a8611b2542015fbfe9bc5d0730f" target="_top" xlink:title=" ">
<polygon fill="white" stroke="#666666" points="382,-130 218,-130 218,-111 382,-111 382,-130"/>
<text text-anchor="middle" x="300" y="-118" font-family="Helvetica,sans-Serif" font-size="10.00">DebugConsole::colorForLevel_</text>
</a>
</g>
</g>
<!-- Node1&#45;&gt;Node2 -->
<g id="edge1_Node000001_Node000002" class="edge">
<title>Node1&#45;&gt;Node2</title>
<g id="a_edge1_Node000001_Node000002"><a xlink:title=" ">
<path fill="none" stroke="#63b8ff" d="M121.36,-74.03C146.78,-82.12 184.62,-93.77 218,-102.5 226.21,-104.65 234.94,-106.76 243.5,-108.74"/>
<polygon fill="#63b8ff" stroke="#63b8ff" points="242.92,-112.2 253.45,-111 244.47,-105.37 242.92,-112.2"/>
</a>
</g>
</g>
<!-- Node3 -->
<g id="Node000003" class="node">
<title>Node3</title>
<g id="a_Node000003"><a xlink:href="../../db/d67/classLogger.html#a9fd06df40e80df63fc91cfc0ccd06788" target="_top" xlink:title=" ">
<polygon fill="white" stroke="#666666" points="349,-93 251,-93 251,-74 349,-74 349,-93"/>
<text text-anchor="middle" x="300" y="-81" font-family="Helvetica,sans-Serif" font-size="10.00">Logger::formatTs</text>
</a>
</g>
</g>
<!-- Node1&#45;&gt;Node3 -->
<g id="edge2_Node000001_Node000003" class="edge">
<title>Node1&#45;&gt;Node3</title>
<g id="a_edge2_Node000001_Node000003"><a xlink:title=" ">
<path fill="none" stroke="#63b8ff" d="M182.19,-72.78C202.05,-74.6 222.57,-76.48 240.76,-78.15"/>
<polygon fill="#63b8ff" stroke="#63b8ff" points="240.62,-81.66 250.9,-79.08 241.26,-74.69 240.62,-81.66"/>
</a>
</g>
</g>
<!-- Node4 -->
<g id="Node000004" class="node">
<title>Node4</title>
<g id="a_Node000004"><a xlink:href="../../db/d67/classLogger.html#a20bc2511969750adca340e0a1fe7ce93" target="_top" xlink:title=" ">
<polygon fill="white" stroke="#666666" points="355.5,-56 244.5,-56 244.5,-37 355.5,-37 355.5,-56"/>
<text text-anchor="middle" x="300" y="-44" font-family="Helvetica,sans-Serif" font-size="10.00">Logger::getChannel</text>
</a>
</g>
</g>
<!-- Node1&#45;&gt;Node4 -->
<g id="edge3_Node000001_Node000004" class="edge">
<title>Node1&#45;&gt;Node4</title>
<g id="a_edge3_Node000001_Node000004"><a xlink:title=" ">
<path fill="none" stroke="#63b8ff" d="M182.19,-56.66C199.69,-55.14 217.71,-53.57 234.2,-52.13"/>
<polygon fill="#63b8ff" stroke="#63b8ff" points="234.59,-55.61 244.25,-51.26 233.99,-48.64 234.59,-55.61"/>
</a>
</g>
</g>
<!-- Node5 -->
<g id="Node000005" class="node">
<title>Node5</title>
<g id="a_Node000005"><a xlink:href="../../db/d67/classLogger.html#aebb248e608f8e2724de20b482cb2a15f" target="_top" xlink:title=" ">
<polygon fill="white" stroke="#666666" points="348.5,-19 251.5,-19 251.5,0 348.5,0 348.5,-19"/>
<text text-anchor="middle" x="300" y="-7" font-family="Helvetica,sans-Serif" font-size="10.00">Logger::instance</text>
</a>
</g>
</g>
<!-- Node1&#45;&gt;Node5 -->
<g id="edge4_Node000001_Node000005" class="edge">
<title>Node1&#45;&gt;Node5</title>
<g id="a_edge4_Node000001_Node000005"><a xlink:title=" ">
<path fill="none" stroke="#63b8ff" d="M123.73,-54.98C149.14,-47.46 185.74,-36.89 218,-28.5 227.23,-26.1 237.1,-23.67 246.65,-21.39"/>
<polygon fill="#63b8ff" stroke="#63b8ff" points="247.52,-24.78 256.45,-19.08 245.91,-17.97 247.52,-24.78"/>
</a>
</g>
</g>
</g>
</svg>
