<?xml version="1.0" encoding="UTF-8" standalone="no"?>
<!DOCTYPE svg PUBLIC "-//W3C//DTD SVG 1.1//EN"
 "http://www.w3.org/Graphics/SVG/1.1/DTD/svg11.dtd">
<!-- Generated by graphviz version 2.43.0 (0)
 -->
<!-- Title: src/note_editor/NotesManager.cpp Pages: 1 -->
<svg width="1095pt" height="192pt"
 viewBox="0.00 0.00 1094.92 192.00" xmlns="http://www.w3.org/2000/svg" xmlns:xlink="http://www.w3.org/1999/xlink">
<g id="graph0" class="graph" transform="scale(1 1) rotate(0) translate(4 188)">
<title>src/note_editor/NotesManager.cpp</title>
<!-- Node1 -->
<g id="Node000001" class="node">
<title>Node1</title>
<g id="a_Node000001"><a xlink:title=" ">
<polygon fill="#999999" stroke="#666666" points="899.92,-184 716.92,-184 716.92,-165 899.92,-165 899.92,-184"/>
<text text-anchor="middle" x="808.42" y="-172" font-family="Helvetica,sans-Serif" font-size="10.00">src/note_editor/NotesManager.cpp</text>
</a>
</g>
</g>
<!-- Node2 -->
<g id="Node000002" class="node">
<title>Node2</title>
<g id="a_Node000002"><a xlink:href="../../d8/d1a/NotesManager_8h.html" target="_top" xlink:title=" ">
<polygon fill="white" stroke="#666666" points="332.42,-129 236.42,-129 236.42,-110 332.42,-110 332.42,-129"/>
<text text-anchor="middle" x="284.42" y="-117" font-family="Helvetica,sans-Serif" font-size="10.00">NotesManager.h</text>
</a>
</g>
</g>
<!-- Node1&#45;&gt;Node2 -->
<g id="edge1_Node000001_Node000002" class="edge">
<title>Node1&#45;&gt;Node2</title>
<g id="a_edge1_Node000001_Node000002"><a xlink:title=" ">
<path fill="none" stroke="#63b8ff" d="M724.23,-164.98C617.3,-154.17 435.53,-135.78 342.72,-126.4"/>
<polygon fill="#63b8ff" stroke="#63b8ff" points="342.96,-122.9 332.66,-125.38 342.26,-129.87 342.96,-122.9"/>
</a>
</g>
</g>
<!-- Node13 -->
<g id="Node000013" class="node">
<title>Node13</title>
<g id="a_Node000013"><a xlink:href="../../d7/df9/ImGuiToaster_8h.html" target="_top" xlink:title=" ">
<polygon fill="white" stroke="#666666" points="686.92,-74 597.92,-74 597.92,-55 686.92,-55 686.92,-74"/>
<text text-anchor="middle" x="642.42" y="-62" font-family="Helvetica,sans-Serif" font-size="10.00">ImGuiToaster.h</text>
</a>
</g>
</g>
<!-- Node1&#45;&gt;Node13 -->
<g id="edge22_Node000001_Node000013" class="edge">
<title>Node1&#45;&gt;Node13</title>
<g id="a_edge22_Node000001_Node000013"><a xlink:title=" ">
<path fill="none" stroke="#63b8ff" d="M778.56,-164.9C756.08,-157.56 725.2,-145.55 701.42,-129 682.98,-116.16 665.99,-96.7 655.02,-82.71"/>
<polygon fill="#63b8ff" stroke="#63b8ff" points="657.56,-80.27 648.73,-74.43 651.99,-84.51 657.56,-80.27"/>
</a>
</g>
</g>
<!-- Node16 -->
<g id="Node000016" class="node">
<title>Node16</title>
<g id="a_Node000016"><a xlink:title=" ">
<polygon fill="#e0e0e0" stroke="#999999" points="749.42,-19 685.42,-19 685.42,0 749.42,0 749.42,-19"/>
<text text-anchor="middle" x="717.42" y="-7" font-family="Helvetica,sans-Serif" font-size="10.00">algorithm</text>
</a>
</g>
</g>
<!-- Node1&#45;&gt;Node16 -->
<g id="edge27_Node000001_Node000016" class="edge">
<title>Node1&#45;&gt;Node16</title>
<g id="a_edge27_Node000001_Node000016"><a xlink:title=" ">
<path fill="none" stroke="#63b8ff" d="M783.78,-164.87C767.39,-157.82 746.85,-146.18 735.42,-129 715.22,-98.64 714.24,-54.31 715.64,-29.37"/>
<polygon fill="#63b8ff" stroke="#63b8ff" points="719.15,-29.35 716.41,-19.11 712.17,-28.82 719.15,-29.35"/>
</a>
</g>
</g>
<!-- Node18 -->
<g id="Node000018" class="node">
<title>Node18</title>
<g id="a_Node000018"><a xlink:title=" ">
<polygon fill="#e0e0e0" stroke="#999999" points="798.92,-129 743.92,-129 743.92,-110 798.92,-110 798.92,-129"/>
<text text-anchor="middle" x="771.42" y="-117" font-family="Helvetica,sans-Serif" font-size="10.00">fstream</text>
</a>
</g>
</g>
<!-- Node1&#45;&gt;Node18 -->
<g id="edge23_Node000001_Node000018" class="edge">
<title>Node1&#45;&gt;Node18</title>
<g id="a_edge23_Node000001_Node000018"><a xlink:title=" ">
<path fill="none" stroke="#63b8ff" d="M802.31,-164.75C797.14,-157.34 789.58,-146.5 783.23,-137.41"/>
<polygon fill="#63b8ff" stroke="#63b8ff" points="786.01,-135.29 777.42,-129.09 780.27,-139.29 786.01,-135.29"/>
</a>
</g>
</g>
<!-- Node19 -->
<g id="Node000019" class="node">
<title>Node19</title>
<g id="a_Node000019"><a xlink:title=" ">
<polygon fill="#e0e0e0" stroke="#999999" points="873.42,-129 817.42,-129 817.42,-110 873.42,-110 873.42,-129"/>
<text text-anchor="middle" x="845.42" y="-117" font-family="Helvetica,sans-Serif" font-size="10.00">sstream</text>
</a>
</g>
</g>
<!-- Node1&#45;&gt;Node19 -->
<g id="edge24_Node000001_Node000019" class="edge">
<title>Node1&#45;&gt;Node19</title>
<g id="a_edge24_Node000001_Node000019"><a xlink:title=" ">
<path fill="none" stroke="#63b8ff" d="M814.53,-164.75C819.71,-157.34 827.27,-146.5 833.62,-137.41"/>
<polygon fill="#63b8ff" stroke="#63b8ff" points="836.57,-139.29 839.43,-129.09 830.83,-135.29 836.57,-139.29"/>
</a>
</g>
</g>
<!-- Node20 -->
<g id="Node000020" class="node">
<title>Node20</title>
<g id="a_Node000020"><a xlink:title=" ">
<polygon fill="#e0e0e0" stroke="#999999" points="945.42,-129 891.42,-129 891.42,-110 945.42,-110 945.42,-129"/>
<text text-anchor="middle" x="918.42" y="-117" font-family="Helvetica,sans-Serif" font-size="10.00">random</text>
</a>
</g>
</g>
<!-- Node1&#45;&gt;Node20 -->
<g id="edge25_Node000001_Node000020" class="edge">
<title>Node1&#45;&gt;Node20</title>
<g id="a_edge25_Node000001_Node000020"><a xlink:title=" ">
<path fill="none" stroke="#63b8ff" d="M826.1,-164.98C843.71,-156.5 871,-143.35 891.35,-133.54"/>
<polygon fill="#63b8ff" stroke="#63b8ff" points="892.94,-136.66 900.43,-129.17 889.9,-130.36 892.94,-136.66"/>
</a>
</g>
</g>
<!-- Node21 -->
<g id="Node000021" class="node">
<title>Node21</title>
<g id="a_Node000021"><a xlink:title=" ">
<polygon fill="#e0e0e0" stroke="#999999" points="1019.42,-129 963.42,-129 963.42,-110 1019.42,-110 1019.42,-129"/>
<text text-anchor="middle" x="991.42" y="-117" font-family="Helvetica,sans-Serif" font-size="10.00">iomanip</text>
</a>
</g>
</g>
<!-- Node1&#45;&gt;Node21 -->
<g id="edge26_Node000001_Node000021" class="edge">
<title>Node1&#45;&gt;Node21</title>
<g id="a_edge26_Node000001_Node000021"><a xlink:title=" ">
<path fill="none" stroke="#63b8ff" d="M837.83,-164.98C869.27,-155.88 919.26,-141.4 953.61,-131.45"/>
<polygon fill="#63b8ff" stroke="#63b8ff" points="954.66,-134.79 963.3,-128.65 952.72,-128.07 954.66,-134.79"/>
</a>
</g>
</g>
<!-- Node22 -->
<g id="Node000022" class="node">
<title>Node22</title>
<g id="a_Node000022"><a xlink:title=" ">
<polygon fill="#e0e0e0" stroke="#999999" points="1086.92,-129 1037.92,-129 1037.92,-110 1086.92,-110 1086.92,-129"/>
<text text-anchor="middle" x="1062.42" y="-117" font-family="Helvetica,sans-Serif" font-size="10.00">cctype</text>
</a>
</g>
</g>
<!-- Node1&#45;&gt;Node22 -->
<g id="edge28_Node000001_Node000022" class="edge">
<title>Node1&#45;&gt;Node22</title>
<g id="a_edge28_Node000001_Node000022"><a xlink:title=" ">
<path fill="none" stroke="#63b8ff" d="M853.63,-164.98C896.11,-156.83 961.67,-143.9 1027.81,-129.05"/>
<polygon fill="#63b8ff" stroke="#63b8ff" points="1028.59,-132.47 1037.57,-126.85 1027.05,-125.64 1028.59,-132.47"/>
</a>
</g>
</g>
<!-- Node3 -->
<g id="Node000003" class="node">
<title>Node3</title>
<g id="a_Node000003"><a xlink:title=" ">
<polygon fill="#e0e0e0" stroke="#999999" points="354.42,-19 310.42,-19 310.42,0 354.42,0 354.42,-19"/>
<text text-anchor="middle" x="332.42" y="-7" font-family="Helvetica,sans-Serif" font-size="10.00">string</text>
</a>
</g>
</g>
<!-- Node2&#45;&gt;Node3 -->
<g id="edge2_Node000002_Node000003" class="edge">
<title>Node2&#45;&gt;Node3</title>
<g id="a_edge2_Node000002_Node000003"><a xlink:title=" ">
<path fill="none" stroke="#63b8ff" d="M247.92,-109.99C212.85,-100.03 167.86,-81.46 187.42,-55 200.87,-36.81 261.6,-22.99 300.08,-15.87"/>
<polygon fill="#63b8ff" stroke="#63b8ff" points="301.05,-19.25 310.28,-14.04 299.82,-12.36 301.05,-19.25"/>
</a>
</g>
</g>
<!-- Node4 -->
<g id="Node000004" class="node">
<title>Node4</title>
<g id="a_Node000004"><a xlink:title=" ">
<polygon fill="#e0e0e0" stroke="#999999" points="269.92,-74 196.92,-74 196.92,-55 269.92,-55 269.92,-74"/>
<text text-anchor="middle" x="233.42" y="-62" font-family="Helvetica,sans-Serif" font-size="10.00">string_view</text>
</a>
</g>
</g>
<!-- Node2&#45;&gt;Node4 -->
<g id="edge3_Node000002_Node000004" class="edge">
<title>Node2&#45;&gt;Node4</title>
<g id="a_edge3_Node000002_Node000004"><a xlink:title=" ">
<path fill="none" stroke="#63b8ff" d="M276,-109.75C268.65,-102.11 257.79,-90.82 248.88,-81.56"/>
<polygon fill="#63b8ff" stroke="#63b8ff" points="251.14,-78.87 241.69,-74.09 246.1,-83.72 251.14,-78.87"/>
</a>
</g>
</g>
<!-- Node5 -->
<g id="Node000005" class="node">
<title>Node5</title>
<g id="a_Node000005"><a xlink:title=" ">
<polygon fill="#e0e0e0" stroke="#999999" points="380.92,-74 287.92,-74 287.92,-55 380.92,-55 380.92,-74"/>
<text text-anchor="middle" x="334.42" y="-62" font-family="Helvetica,sans-Serif" font-size="10.00">unordered_map</text>
</a>
</g>
</g>
<!-- Node2&#45;&gt;Node5 -->
<g id="edge4_Node000002_Node000005" class="edge">
<title>Node2&#45;&gt;Node5</title>
<g id="a_edge4_Node000002_Node000005"><a xlink:title=" ">
<path fill="none" stroke="#63b8ff" d="M292.68,-109.75C299.89,-102.11 310.53,-90.82 319.27,-81.56"/>
<polygon fill="#63b8ff" stroke="#63b8ff" points="322,-83.76 326.32,-74.09 316.91,-78.96 322,-83.76"/>
</a>
</g>
</g>
<!-- Node6 -->
<g id="Node000006" class="node">
<title>Node6</title>
<g id="a_Node000006"><a xlink:title=" ">
<polygon fill="#e0e0e0" stroke="#999999" points="447.92,-19 400.92,-19 400.92,0 447.92,0 447.92,-19"/>
<text text-anchor="middle" x="424.42" y="-7" font-family="Helvetica,sans-Serif" font-size="10.00">vector</text>
</a>
</g>
</g>
<!-- Node2&#45;&gt;Node6 -->
<g id="edge5_Node000002_Node000006" class="edge">
<title>Node2&#45;&gt;Node6</title>
<g id="a_edge5_Node000002_Node000006"><a xlink:title=" ">
<path fill="none" stroke="#63b8ff" d="M319.81,-109.92C341.88,-103.13 369.72,-91.77 389.42,-74 403.13,-61.64 412.62,-42.61 418.22,-28.6"/>
<polygon fill="#63b8ff" stroke="#63b8ff" points="421.56,-29.65 421.76,-19.06 415,-27.22 421.56,-29.65"/>
</a>
</g>
</g>
<!-- Node7 -->
<g id="Node000007" class="node">
<title>Node7</title>
<g id="a_Node000007"><a xlink:title=" ">
<polygon fill="#e0e0e0" stroke="#999999" points="493.42,-74 437.42,-74 437.42,-55 493.42,-55 493.42,-74"/>
<text text-anchor="middle" x="465.42" y="-62" font-family="Helvetica,sans-Serif" font-size="10.00">optional</text>
</a>
</g>
</g>
<!-- Node2&#45;&gt;Node7 -->
<g id="edge6_Node000002_Node000007" class="edge">
<title>Node2&#45;&gt;Node7</title>
<g id="a_edge6_Node000002_Node000007"><a xlink:title=" ">
<path fill="none" stroke="#63b8ff" d="M313.5,-109.98C344.39,-100.94 393.33,-86.61 427.29,-76.67"/>
<polygon fill="#63b8ff" stroke="#63b8ff" points="428.69,-79.9 437.31,-73.73 426.73,-73.18 428.69,-79.9"/>
</a>
</g>
</g>
<!-- Node8 -->
<g id="Node000008" class="node">
<title>Node8</title>
<g id="a_Node000008"><a xlink:title=" ">
<polygon fill="#e0e0e0" stroke="#999999" points="579.42,-74 511.42,-74 511.42,-55 579.42,-55 579.42,-74"/>
<text text-anchor="middle" x="545.42" y="-62" font-family="Helvetica,sans-Serif" font-size="10.00">filesystem</text>
</a>
</g>
</g>
<!-- Node2&#45;&gt;Node8 -->
<g id="edge7_Node000002_Node000008" class="edge">
<title>Node2&#45;&gt;Node8</title>
<g id="a_edge7_Node000002_Node000008"><a xlink:title=" ">
<path fill="none" stroke="#63b8ff" d="M326.36,-109.98C374.25,-100.26 452.28,-84.42 501.13,-74.49"/>
<polygon fill="#63b8ff" stroke="#63b8ff" points="501.99,-77.89 511.09,-72.47 500.6,-71.03 501.99,-77.89"/>
</a>
</g>
</g>
<!-- Node9 -->
<g id="Node000009" class="node">
<title>Node9</title>
<g id="a_Node000009"><a xlink:title=" ">
<polygon fill="#e0e0e0" stroke="#999999" points="53.42,-19 3.42,-19 3.42,0 53.42,0 53.42,-19"/>
<text text-anchor="middle" x="28.42" y="-7" font-family="Helvetica,sans-Serif" font-size="10.00">chrono</text>
</a>
</g>
</g>
<!-- Node2&#45;&gt;Node9 -->
<g id="edge8_Node000002_Node000009" class="edge">
<title>Node2&#45;&gt;Node9</title>
<g id="a_edge8_Node000002_Node000009"><a xlink:title=" ">
<path fill="none" stroke="#63b8ff" d="M236.41,-118.04C164.61,-116.21 34.55,-108.14 5.42,-74 -5.94,-60.68 3.77,-41.3 13.85,-27.46"/>
<polygon fill="#63b8ff" stroke="#63b8ff" points="16.85,-29.3 20.3,-19.28 11.36,-24.96 16.85,-29.3"/>
</a>
</g>
</g>
<!-- Node10 -->
<g id="Node000010" class="node">
<title>Node10</title>
<g id="a_Node000010"><a xlink:title=" ">
<polygon fill="#e0e0e0" stroke="#999999" points="64.42,-74 14.42,-74 14.42,-55 64.42,-55 64.42,-74"/>
<text text-anchor="middle" x="39.42" y="-62" font-family="Helvetica,sans-Serif" font-size="10.00">cstdint</text>
</a>
</g>
</g>
<!-- Node2&#45;&gt;Node10 -->
<g id="edge9_Node000002_Node000010" class="edge">
<title>Node2&#45;&gt;Node10</title>
<g id="a_edge9_Node000002_Node000010"><a xlink:title=" ">
<path fill="none" stroke="#63b8ff" d="M244.93,-109.99C203.46,-101.05 136.35,-86.57 78.42,-74 77.17,-73.73 75.89,-73.45 74.59,-73.17"/>
<polygon fill="#63b8ff" stroke="#63b8ff" points="75.11,-69.7 64.6,-70.99 73.62,-76.54 75.11,-69.7"/>
</a>
</g>
</g>
<!-- Node11 -->
<g id="Node000011" class="node">
<title>Node11</title>
<g id="a_Node000011"><a xlink:title=" ">
<polygon fill="#e0e0e0" stroke="#999999" points="138.42,-19 90.42,-19 90.42,0 138.42,0 138.42,-19"/>
<text text-anchor="middle" x="114.42" y="-7" font-family="Helvetica,sans-Serif" font-size="10.00">mutex</text>
</a>
</g>
</g>
<!-- Node2&#45;&gt;Node11 -->
<g id="edge10_Node000002_Node000011" class="edge">
<title>Node2&#45;&gt;Node11</title>
<g id="a_edge10_Node000002_Node000011"><a xlink:title=" ">
<path fill="none" stroke="#63b8ff" d="M252.12,-109.93C228.66,-102.73 196.87,-90.88 172.42,-74 153.88,-61.19 137.04,-41.41 126.34,-27.34"/>
<polygon fill="#63b8ff" stroke="#63b8ff" points="128.99,-25.02 120.24,-19.04 123.35,-29.17 128.99,-25.02"/>
</a>
</g>
</g>
<!-- Node12 -->
<g id="Node000012" class="node">
<title>Node12</title>
<g id="a_Node000012"><a xlink:title=" ">
<polygon fill="#e0e0e0" stroke="#999999" points="236.42,-19 178.42,-19 178.42,0 236.42,0 236.42,-19"/>
<text text-anchor="middle" x="207.42" y="-7" font-family="Helvetica,sans-Serif" font-size="10.00">memory</text>
</a>
</g>
</g>
<!-- Node2&#45;&gt;Node12 -->
<g id="edge11_Node000002_Node000012" class="edge">
<title>Node2&#45;&gt;Node12</title>
<g id="a_edge11_Node000002_Node000012"><a xlink:title=" ">
<path fill="none" stroke="#63b8ff" d="M236.21,-110.39C215.05,-104.17 192.16,-93.23 179.42,-74 169.51,-59.03 180.63,-39.96 191.66,-26.65"/>
<polygon fill="#63b8ff" stroke="#63b8ff" points="194.27,-28.98 198.32,-19.19 189.05,-24.31 194.27,-28.98"/>
</a>
</g>
</g>
<!-- Node2&#45;&gt;Node13 -->
<g id="edge12_Node000002_Node000013" class="edge">
<title>Node2&#45;&gt;Node13</title>
<g id="a_edge12_Node000002_Node000013"><a xlink:title=" ">
<path fill="none" stroke="#63b8ff" d="M332.62,-111.61C390.6,-103.28 491.16,-88.72 587.71,-74.09"/>
<polygon fill="#63b8ff" stroke="#63b8ff" points="588.28,-77.55 597.64,-72.59 587.23,-70.63 588.28,-77.55"/>
</a>
</g>
</g>
<!-- Node13&#45;&gt;Node3 -->
<g id="edge16_Node000013_Node000003" class="edge">
<title>Node13&#45;&gt;Node3</title>
<g id="a_edge16_Node000013_Node000003"><a xlink:title=" ">
<path fill="none" stroke="#63b8ff" d="M597.68,-55.85C534.35,-45.02 420.13,-25.49 364.55,-15.99"/>
<polygon fill="#63b8ff" stroke="#63b8ff" points="365.01,-12.52 354.56,-14.28 363.83,-19.42 365.01,-12.52"/>
</a>
</g>
</g>
<!-- Node13&#45;&gt;Node6 -->
<g id="edge17_Node000013_Node000006" class="edge">
<title>Node13&#45;&gt;Node6</title>
<g id="a_edge17_Node000013_Node000006"><a xlink:title=" ">
<path fill="none" stroke="#63b8ff" d="M607.4,-54.98C566.21,-44.97 498.34,-28.47 457.85,-18.63"/>
<polygon fill="#63b8ff" stroke="#63b8ff" points="458.48,-15.18 447.94,-16.22 456.83,-21.98 458.48,-15.18"/>
</a>
</g>
</g>
<!-- Node13&#45;&gt;Node9 -->
<g id="edge18_Node000013_Node000009" class="edge">
<title>Node13&#45;&gt;Node9</title>
<g id="a_edge18_Node000013_Node000009"><a xlink:title=" ">
<path fill="none" stroke="#63b8ff" d="M597.67,-56.16C594.55,-55.73 591.44,-55.34 588.42,-55 363.98,-29.41 305.83,-44.91 81.42,-19 75.7,-18.34 69.64,-17.5 63.75,-16.61"/>
<polygon fill="#63b8ff" stroke="#63b8ff" points="63.86,-13.08 53.43,-14.98 62.76,-20 63.86,-13.08"/>
</a>
</g>
</g>
<!-- Node13&#45;&gt;Node11 -->
<g id="edge15_Node000013_Node000011" class="edge">
<title>Node13&#45;&gt;Node11</title>
<g id="a_edge15_Node000013_Node000011"><a xlink:title=" ">
<path fill="none" stroke="#63b8ff" d="M597.67,-56.21C594.54,-55.77 591.44,-55.37 588.42,-55 402.88,-32.45 355,-41.29 169.42,-19 162.75,-18.2 155.64,-17.21 148.83,-16.18"/>
<polygon fill="#63b8ff" stroke="#63b8ff" points="148.89,-12.65 138.47,-14.58 147.82,-19.57 148.89,-12.65"/>
</a>
</g>
</g>
<!-- Node13&#45;&gt;Node12 -->
<g id="edge20_Node000013_Node000012" class="edge">
<title>Node13&#45;&gt;Node12</title>
<g id="a_edge20_Node000013_Node000012"><a xlink:title=" ">
<path fill="none" stroke="#63b8ff" d="M597.65,-56.31C594.53,-55.85 591.43,-55.41 588.42,-55 463.85,-37.93 315.78,-21.83 246.64,-14.56"/>
<polygon fill="#63b8ff" stroke="#63b8ff" points="246.94,-11.07 236.63,-13.51 246.21,-18.03 246.94,-11.07"/>
</a>
</g>
</g>
<!-- Node14 -->
<g id="Node000014" class="node">
<title>Node14</title>
<g id="a_Node000014"><a xlink:title=" ">
<polygon fill="#e0e0e0" stroke="#999999" points="533.92,-19 480.92,-19 480.92,0 533.92,0 533.92,-19"/>
<text text-anchor="middle" x="507.42" y="-7" font-family="Helvetica,sans-Serif" font-size="10.00">imgui.h</text>
</a>
</g>
</g>
<!-- Node13&#45;&gt;Node14 -->
<g id="edge13_Node000013_Node000014" class="edge">
<title>Node13&#45;&gt;Node14</title>
<g id="a_edge13_Node000013_Node000014"><a xlink:title=" ">
<path fill="none" stroke="#63b8ff" d="M620.73,-54.98C598.62,-46.3 564.1,-32.75 538.97,-22.88"/>
<polygon fill="#63b8ff" stroke="#63b8ff" points="540.1,-19.57 529.51,-19.17 537.54,-26.08 540.1,-19.57"/>
</a>
</g>
</g>
<!-- Node15 -->
<g id="Node000015" class="node">
<title>Node15</title>
<g id="a_Node000015"><a xlink:title=" ">
<polygon fill="#e0e0e0" stroke="#999999" points="598.92,-19 551.92,-19 551.92,0 598.92,0 598.92,-19"/>
<text text-anchor="middle" x="575.42" y="-7" font-family="Helvetica,sans-Serif" font-size="10.00">deque</text>
</a>
</g>
</g>
<!-- Node13&#45;&gt;Node15 -->
<g id="edge14_Node000013_Node000015" class="edge">
<title>Node13&#45;&gt;Node15</title>
<g id="a_edge14_Node000013_Node000015"><a xlink:title=" ">
<path fill="none" stroke="#63b8ff" d="M631.66,-54.98C621.66,-47.07 606.54,-35.11 594.49,-25.58"/>
<polygon fill="#63b8ff" stroke="#63b8ff" points="596.4,-22.63 586.38,-19.17 592.06,-28.12 596.4,-22.63"/>
</a>
</g>
</g>
<!-- Node13&#45;&gt;Node16 -->
<g id="edge19_Node000013_Node000016" class="edge">
<title>Node13&#45;&gt;Node16</title>
<g id="a_edge19_Node000013_Node000016"><a xlink:title=" ">
<path fill="none" stroke="#63b8ff" d="M654.47,-54.98C665.89,-46.92 683.25,-34.65 696.86,-25.03"/>
<polygon fill="#63b8ff" stroke="#63b8ff" points="699.01,-27.8 705.15,-19.17 694.97,-22.08 699.01,-27.8"/>
</a>
</g>
</g>
<!-- Node17 -->
<g id="Node000017" class="node">
<title>Node17</title>
<g id="a_Node000017"><a xlink:title=" ">
<polygon fill="#e0e0e0" stroke="#999999" points="667.42,-19 617.42,-19 617.42,0 667.42,0 667.42,-19"/>
<text text-anchor="middle" x="642.42" y="-7" font-family="Helvetica,sans-Serif" font-size="10.00">atomic</text>
</a>
</g>
</g>
<!-- Node13&#45;&gt;Node17 -->
<g id="edge21_Node000013_Node000017" class="edge">
<title>Node13&#45;&gt;Node17</title>
<g id="a_edge21_Node000013_Node000017"><a xlink:title=" ">
<path fill="none" stroke="#63b8ff" d="M642.42,-54.75C642.42,-47.8 642.42,-37.85 642.42,-29.13"/>
<polygon fill="#63b8ff" stroke="#63b8ff" points="645.92,-29.09 642.42,-19.09 638.92,-29.09 645.92,-29.09"/>
</a>
</g>
</g>
</g>
</svg>
