<?xml version="1.0" encoding="UTF-8" standalone="no"?>
<!DOCTYPE svg PUBLIC "-//W3C//DTD SVG 1.1//EN"
 "http://www.w3.org/Graphics/SVG/1.1/DTD/svg11.dtd">
<!-- Generated by graphviz version 2.43.0 (0)
 -->
<!-- Title: src/renderer/VertexArray.cpp Pages: 1 -->
<svg width="590pt" height="247pt"
 viewBox="0.00 0.00 590.00 247.00" xmlns="http://www.w3.org/2000/svg" xmlns:xlink="http://www.w3.org/1999/xlink">
<g id="graph0" class="graph" transform="scale(1 1) rotate(0) translate(4 243)">
<title>src/renderer/VertexArray.cpp</title>
<!-- Node1 -->
<g id="Node000001" class="node">
<title>Node1</title>
<g id="a_Node000001"><a xlink:title=" ">
<polygon fill="#999999" stroke="#666666" points="344.5,-239 189.5,-239 189.5,-220 344.5,-220 344.5,-239"/>
<text text-anchor="middle" x="267" y="-227" font-family="Helvetica,sans-Serif" font-size="10.00">src/renderer/VertexArray.cpp</text>
</a>
</g>
</g>
<!-- Node2 -->
<g id="Node000002" class="node">
<title>Node2</title>
<g id="a_Node000002"><a xlink:href="../../d5/dae/VertexArray_8h.html" target="_top" xlink:title=" ">
<polygon fill="white" stroke="#666666" points="121,-74 39,-74 39,-55 121,-55 121,-74"/>
<text text-anchor="middle" x="80" y="-62" font-family="Helvetica,sans-Serif" font-size="10.00">VertexArray.h</text>
</a>
</g>
</g>
<!-- Node1&#45;&gt;Node2 -->
<g id="edge1_Node000001_Node000002" class="edge">
<title>Node1&#45;&gt;Node2</title>
<g id="a_edge1_Node000001_Node000002"><a xlink:title=" ">
<path fill="none" stroke="#63b8ff" d="M257.21,-219.97C227.31,-193.9 136.85,-115.06 98.02,-81.21"/>
<polygon fill="#63b8ff" stroke="#63b8ff" points="99.99,-78.28 90.15,-74.34 95.39,-83.55 99.99,-78.28"/>
</a>
</g>
</g>
<!-- Node4 -->
<g id="Node000004" class="node">
<title>Node4</title>
<g id="a_Node000004"><a xlink:href="../../d8/db2/Renderer_8h.html" target="_top" xlink:title=" ">
<polygon fill="white" stroke="#666666" points="302.5,-129 233.5,-129 233.5,-110 302.5,-110 302.5,-129"/>
<text text-anchor="middle" x="268" y="-117" font-family="Helvetica,sans-Serif" font-size="10.00">Renderer.h</text>
</a>
</g>
</g>
<!-- Node1&#45;&gt;Node4 -->
<g id="edge3_Node000001_Node000004" class="edge">
<title>Node1&#45;&gt;Node4</title>
<g id="a_edge3_Node000001_Node000004"><a xlink:title=" ">
<path fill="none" stroke="#63b8ff" d="M267.08,-219.66C267.24,-202.17 267.61,-162.8 267.83,-139.27"/>
<polygon fill="#63b8ff" stroke="#63b8ff" points="271.33,-139.19 267.92,-129.16 264.33,-139.13 271.33,-139.19"/>
</a>
</g>
</g>
<!-- Node15 -->
<g id="Node000015" class="node">
<title>Node15</title>
<g id="a_Node000015"><a xlink:href="../../df/dfa/VertexBufferLayout_8h.html" target="_top" xlink:title=" ">
<polygon fill="white" stroke="#666666" points="414.5,-184 295.5,-184 295.5,-165 414.5,-165 414.5,-184"/>
<text text-anchor="middle" x="355" y="-172" font-family="Helvetica,sans-Serif" font-size="10.00">VertexBufferLayout.h</text>
</a>
</g>
</g>
<!-- Node1&#45;&gt;Node15 -->
<g id="edge15_Node000001_Node000015" class="edge">
<title>Node1&#45;&gt;Node15</title>
<g id="a_edge15_Node000001_Node000015"><a xlink:title=" ">
<path fill="none" stroke="#63b8ff" d="M281.14,-219.98C294.79,-211.77 315.69,-199.18 331.78,-189.49"/>
<polygon fill="#63b8ff" stroke="#63b8ff" points="333.84,-192.33 340.6,-184.17 330.23,-186.33 333.84,-192.33"/>
</a>
</g>
</g>
<!-- Node3 -->
<g id="Node000003" class="node">
<title>Node3</title>
<g id="a_Node000003"><a xlink:href="../../d9/d38/VertexBuffer_8h.html" target="_top" xlink:title=" ">
<polygon fill="white" stroke="#666666" points="86,-19 0,-19 0,0 86,0 86,-19"/>
<text text-anchor="middle" x="43" y="-7" font-family="Helvetica,sans-Serif" font-size="10.00">VertexBuffer.h</text>
</a>
</g>
</g>
<!-- Node2&#45;&gt;Node3 -->
<g id="edge2_Node000002_Node000003" class="edge">
<title>Node2&#45;&gt;Node3</title>
<g id="a_edge2_Node000002_Node000003"><a xlink:title=" ">
<path fill="none" stroke="#63b8ff" d="M73.89,-54.75C68.72,-47.34 61.15,-36.5 54.81,-27.41"/>
<polygon fill="#63b8ff" stroke="#63b8ff" points="57.59,-25.29 49,-19.09 51.85,-29.29 57.59,-25.29"/>
</a>
</g>
</g>
<!-- Node4&#45;&gt;Node2 -->
<g id="edge6_Node000004_Node000002" class="edge">
<title>Node4&#45;&gt;Node2</title>
<g id="a_edge6_Node000004_Node000002"><a xlink:title=" ">
<path fill="none" stroke="#63b8ff" d="M237.79,-109.98C205.96,-101.01 155.64,-86.82 120.4,-76.89"/>
<polygon fill="#63b8ff" stroke="#63b8ff" points="121.02,-73.43 110.44,-74.08 119.12,-80.16 121.02,-73.43"/>
</a>
</g>
</g>
<!-- Node5 -->
<g id="Node000005" class="node">
<title>Node5</title>
<g id="a_Node000005"><a xlink:title=" ">
<polygon fill="#e0e0e0" stroke="#999999" points="481,-74 417,-74 417,-55 481,-55 481,-74"/>
<text text-anchor="middle" x="449" y="-62" font-family="Helvetica,sans-Serif" font-size="10.00">GL/glew.h</text>
</a>
</g>
</g>
<!-- Node4&#45;&gt;Node5 -->
<g id="edge4_Node000004_Node000005" class="edge">
<title>Node4&#45;&gt;Node5</title>
<g id="a_edge4_Node000004_Node000005"><a xlink:title=" ">
<path fill="none" stroke="#63b8ff" d="M297.08,-109.98C327.6,-101.05 375.76,-86.94 409.66,-77.02"/>
<polygon fill="#63b8ff" stroke="#63b8ff" points="411.08,-80.25 419.69,-74.08 409.11,-73.53 411.08,-80.25"/>
</a>
</g>
</g>
<!-- Node6 -->
<g id="Node000006" class="node">
<title>Node6</title>
<g id="a_Node000006"><a xlink:title=" ">
<polygon fill="#e0e0e0" stroke="#999999" points="398.5,-74 315.5,-74 315.5,-55 398.5,-55 398.5,-74"/>
<text text-anchor="middle" x="357" y="-62" font-family="Helvetica,sans-Serif" font-size="10.00">GLFW/glfw3.h</text>
</a>
</g>
</g>
<!-- Node4&#45;&gt;Node6 -->
<g id="edge5_Node000004_Node000006" class="edge">
<title>Node4&#45;&gt;Node6</title>
<g id="a_edge5_Node000004_Node000006"><a xlink:title=" ">
<path fill="none" stroke="#63b8ff" d="M282.3,-109.98C296.1,-101.77 317.24,-89.18 333.51,-79.49"/>
<polygon fill="#63b8ff" stroke="#63b8ff" points="335.64,-82.29 342.44,-74.17 332.06,-76.28 335.64,-82.29"/>
</a>
</g>
</g>
<!-- Node7 -->
<g id="Node000007" class="node">
<title>Node7</title>
<g id="a_Node000007"><a xlink:href="../../da/d3a/IndexBuffer_8h.html" target="_top" xlink:title=" ">
<polygon fill="white" stroke="#666666" points="220.5,-74 139.5,-74 139.5,-55 220.5,-55 220.5,-74"/>
<text text-anchor="middle" x="180" y="-62" font-family="Helvetica,sans-Serif" font-size="10.00">IndexBuffer.h</text>
</a>
</g>
</g>
<!-- Node4&#45;&gt;Node7 -->
<g id="edge7_Node000004_Node000007" class="edge">
<title>Node4&#45;&gt;Node7</title>
<g id="a_edge7_Node000004_Node000007"><a xlink:title=" ">
<path fill="none" stroke="#63b8ff" d="M253.86,-109.98C240.21,-101.77 219.31,-89.18 203.22,-79.49"/>
<polygon fill="#63b8ff" stroke="#63b8ff" points="204.77,-76.33 194.4,-74.17 201.16,-82.33 204.77,-76.33"/>
</a>
</g>
</g>
<!-- Node8 -->
<g id="Node000008" class="node">
<title>Node8</title>
<g id="a_Node000008"><a xlink:href="../../d2/dac/Shader_8h.html" target="_top" xlink:title=" ">
<polygon fill="white" stroke="#666666" points="297.5,-74 238.5,-74 238.5,-55 297.5,-55 297.5,-74"/>
<text text-anchor="middle" x="268" y="-62" font-family="Helvetica,sans-Serif" font-size="10.00">Shader.h</text>
</a>
</g>
</g>
<!-- Node4&#45;&gt;Node8 -->
<g id="edge8_Node000004_Node000008" class="edge">
<title>Node4&#45;&gt;Node8</title>
<g id="a_edge8_Node000004_Node000008"><a xlink:title=" ">
<path fill="none" stroke="#63b8ff" d="M268,-109.75C268,-102.8 268,-92.85 268,-84.13"/>
<polygon fill="#63b8ff" stroke="#63b8ff" points="271.5,-84.09 268,-74.09 264.5,-84.09 271.5,-84.09"/>
</a>
</g>
</g>
<!-- Node9 -->
<g id="Node000009" class="node">
<title>Node9</title>
<g id="a_Node000009"><a xlink:title=" ">
<polygon fill="#e0e0e0" stroke="#999999" points="582,-19 522,-19 522,0 582,0 582,-19"/>
<text text-anchor="middle" x="552" y="-7" font-family="Helvetica,sans-Serif" font-size="10.00">iostream</text>
</a>
</g>
</g>
<!-- Node8&#45;&gt;Node9 -->
<g id="edge9_Node000008_Node000009" class="edge">
<title>Node8&#45;&gt;Node9</title>
<g id="a_edge9_Node000008_Node000009"><a xlink:title=" ">
<path fill="none" stroke="#63b8ff" d="M297.84,-56.68C300.6,-56.1 303.35,-55.53 306,-55 394.46,-37.42 419.66,-36.96 511.76,-19.17"/>
<polygon fill="#63b8ff" stroke="#63b8ff" points="512.65,-22.56 521.79,-17.22 511.31,-15.69 512.65,-22.56"/>
</a>
</g>
</g>
<!-- Node10 -->
<g id="Node000010" class="node">
<title>Node10</title>
<g id="a_Node000010"><a xlink:title=" ">
<polygon fill="#e0e0e0" stroke="#999999" points="159.5,-19 104.5,-19 104.5,0 159.5,0 159.5,-19"/>
<text text-anchor="middle" x="132" y="-7" font-family="Helvetica,sans-Serif" font-size="10.00">fstream</text>
</a>
</g>
</g>
<!-- Node8&#45;&gt;Node10 -->
<g id="edge10_Node000008_Node000010" class="edge">
<title>Node8&#45;&gt;Node10</title>
<g id="a_edge10_Node000008_Node000010"><a xlink:title=" ">
<path fill="none" stroke="#63b8ff" d="M246.15,-54.98C223.88,-46.3 189.1,-32.75 163.78,-22.88"/>
<polygon fill="#63b8ff" stroke="#63b8ff" points="164.84,-19.54 154.25,-19.17 162.29,-26.06 164.84,-19.54"/>
</a>
</g>
</g>
<!-- Node11 -->
<g id="Node000011" class="node">
<title>Node11</title>
<g id="a_Node000011"><a xlink:title=" ">
<polygon fill="#e0e0e0" stroke="#999999" points="222,-19 178,-19 178,0 222,0 222,-19"/>
<text text-anchor="middle" x="200" y="-7" font-family="Helvetica,sans-Serif" font-size="10.00">string</text>
</a>
</g>
</g>
<!-- Node8&#45;&gt;Node11 -->
<g id="edge11_Node000008_Node000011" class="edge">
<title>Node8&#45;&gt;Node11</title>
<g id="a_edge11_Node000008_Node000011"><a xlink:title=" ">
<path fill="none" stroke="#63b8ff" d="M257.07,-54.98C246.92,-47.07 231.58,-35.11 219.35,-25.58"/>
<polygon fill="#63b8ff" stroke="#63b8ff" points="221.16,-22.56 211.12,-19.17 216.86,-28.08 221.16,-22.56"/>
</a>
</g>
</g>
<!-- Node12 -->
<g id="Node000012" class="node">
<title>Node12</title>
<g id="a_Node000012"><a xlink:title=" ">
<polygon fill="#e0e0e0" stroke="#999999" points="296,-19 240,-19 240,0 296,0 296,-19"/>
<text text-anchor="middle" x="268" y="-7" font-family="Helvetica,sans-Serif" font-size="10.00">sstream</text>
</a>
</g>
</g>
<!-- Node8&#45;&gt;Node12 -->
<g id="edge12_Node000008_Node000012" class="edge">
<title>Node8&#45;&gt;Node12</title>
<g id="a_edge12_Node000008_Node000012"><a xlink:title=" ">
<path fill="none" stroke="#63b8ff" d="M268,-54.75C268,-47.8 268,-37.85 268,-29.13"/>
<polygon fill="#63b8ff" stroke="#63b8ff" points="271.5,-29.09 268,-19.09 264.5,-29.09 271.5,-29.09"/>
</a>
</g>
</g>
<!-- Node13 -->
<g id="Node000013" class="node">
<title>Node13</title>
<g id="a_Node000013"><a xlink:title=" ">
<polygon fill="#e0e0e0" stroke="#999999" points="392,-19 314,-19 314,0 392,0 392,-19"/>
<text text-anchor="middle" x="353" y="-7" font-family="Helvetica,sans-Serif" font-size="10.00">glm/glm.hpp</text>
</a>
</g>
</g>
<!-- Node8&#45;&gt;Node13 -->
<g id="edge13_Node000008_Node000013" class="edge">
<title>Node8&#45;&gt;Node13</title>
<g id="a_edge13_Node000008_Node000013"><a xlink:title=" ">
<path fill="none" stroke="#63b8ff" d="M281.66,-54.98C294.84,-46.77 315.03,-34.18 330.57,-24.49"/>
<polygon fill="#63b8ff" stroke="#63b8ff" points="332.46,-27.43 339.09,-19.17 328.76,-21.49 332.46,-27.43"/>
</a>
</g>
</g>
<!-- Node14 -->
<g id="Node000014" class="node">
<title>Node14</title>
<g id="a_Node000014"><a xlink:title=" ">
<polygon fill="#e0e0e0" stroke="#999999" points="503.5,-19 410.5,-19 410.5,0 503.5,0 503.5,-19"/>
<text text-anchor="middle" x="457" y="-7" font-family="Helvetica,sans-Serif" font-size="10.00">unordered_map</text>
</a>
</g>
</g>
<!-- Node8&#45;&gt;Node14 -->
<g id="edge14_Node000008_Node000014" class="edge">
<title>Node8&#45;&gt;Node14</title>
<g id="a_edge14_Node000008_Node000014"><a xlink:title=" ">
<path fill="none" stroke="#63b8ff" d="M297.53,-55.22C329.61,-46.22 381.04,-31.8 416.79,-21.78"/>
<polygon fill="#63b8ff" stroke="#63b8ff" points="417.74,-25.14 426.42,-19.07 415.85,-18.4 417.74,-25.14"/>
</a>
</g>
</g>
<!-- Node15&#45;&gt;Node4 -->
<g id="edge18_Node000015_Node000004" class="edge">
<title>Node15&#45;&gt;Node4</title>
<g id="a_edge18_Node000015_Node000004"><a xlink:title=" ">
<path fill="none" stroke="#63b8ff" d="M341.02,-164.98C327.53,-156.77 306.87,-144.18 290.96,-134.49"/>
<polygon fill="#63b8ff" stroke="#63b8ff" points="292.59,-131.38 282.23,-129.17 288.95,-137.36 292.59,-131.38"/>
</a>
</g>
</g>
<!-- Node15&#45;&gt;Node5 -->
<g id="edge17_Node000015_Node000005" class="edge">
<title>Node15&#45;&gt;Node5</title>
<g id="a_edge17_Node000015_Node000005"><a xlink:title=" ">
<path fill="none" stroke="#63b8ff" d="M363.04,-164.7C371.17,-155.77 384.06,-141.51 395,-129 408.78,-113.24 424.22,-95.02 435.05,-82.15"/>
<polygon fill="#63b8ff" stroke="#63b8ff" points="437.99,-84.1 441.74,-74.19 432.63,-79.6 437.99,-84.1"/>
</a>
</g>
</g>
<!-- Node16 -->
<g id="Node000016" class="node">
<title>Node16</title>
<g id="a_Node000016"><a xlink:title=" ">
<polygon fill="#e0e0e0" stroke="#999999" points="490.5,-129 443.5,-129 443.5,-110 490.5,-110 490.5,-129"/>
<text text-anchor="middle" x="467" y="-117" font-family="Helvetica,sans-Serif" font-size="10.00">vector</text>
</a>
</g>
</g>
<!-- Node15&#45;&gt;Node16 -->
<g id="edge16_Node000015_Node000016" class="edge">
<title>Node15&#45;&gt;Node16</title>
<g id="a_edge16_Node000015_Node000016"><a xlink:title=" ">
<path fill="none" stroke="#63b8ff" d="M372.99,-164.98C390.93,-156.5 418.72,-143.35 439.43,-133.54"/>
<polygon fill="#63b8ff" stroke="#63b8ff" points="441.14,-136.61 448.68,-129.17 438.14,-130.28 441.14,-136.61"/>
</a>
</g>
</g>
<!-- Node17 -->
<g id="Node000017" class="node">
<title>Node17</title>
<g id="a_Node000017"><a xlink:title=" ">
<polygon fill="#e0e0e0" stroke="#999999" points="386.5,-129 321.5,-129 321.5,-110 386.5,-110 386.5,-129"/>
<text text-anchor="middle" x="354" y="-117" font-family="Helvetica,sans-Serif" font-size="10.00">stdexcept</text>
</a>
</g>
</g>
<!-- Node15&#45;&gt;Node17 -->
<g id="edge19_Node000015_Node000017" class="edge">
<title>Node15&#45;&gt;Node17</title>
<g id="a_edge19_Node000015_Node000017"><a xlink:title=" ">
<path fill="none" stroke="#63b8ff" d="M354.83,-164.75C354.7,-157.8 354.52,-147.85 354.35,-139.13"/>
<polygon fill="#63b8ff" stroke="#63b8ff" points="357.85,-139.02 354.16,-129.09 350.85,-139.15 357.85,-139.02"/>
</a>
</g>
</g>
</g>
</svg>
