<?xml version="1.0" encoding="UTF-8" standalone="no"?>
<!DOCTYPE svg PUBLIC "-//W3C//DTD SVG 1.1//EN"
 "http://www.w3.org/Graphics/SVG/1.1/DTD/svg11.dtd">
<!-- Generated by graphviz version 2.43.0 (0)
 -->
<!-- Title: Shader::GetUniformLocation Pages: 1 -->
<svg width="339pt" height="175pt"
 viewBox="0.00 0.00 339.00 175.00" xmlns="http://www.w3.org/2000/svg" xmlns:xlink="http://www.w3.org/1999/xlink">
<g id="graph0" class="graph" transform="scale(1 1) rotate(0) translate(4 171)">
<title>Shader::GetUniformLocation</title>
<!-- Node1 -->
<g id="Node000001" class="node">
<title>Node1</title>
<g id="a_Node000001"><a xlink:title=" ">
<polygon fill="#999999" stroke="#666666" points="331,-93 176,-93 176,-74 331,-74 331,-93"/>
<text text-anchor="middle" x="253.5" y="-81" font-family="Helvetica,sans-Serif" font-size="10.00">Shader::GetUniformLocation</text>
</a>
</g>
</g>
<!-- Node2 -->
<g id="Node000002" class="node">
<title>Node2</title>
<g id="a_Node000002"><a xlink:href="../../d9/d69/classShader.html#aa03bfc2c930f12462bcaf414f3350779" target="_top" xlink:title=" ">
<polygon fill="white" stroke="#666666" points="131,-167 9,-167 9,-148 131,-148 131,-167"/>
<text text-anchor="middle" x="70" y="-155" font-family="Helvetica,sans-Serif" font-size="10.00">Shader::SetUniform1f</text>
</a>
</g>
</g>
<!-- Node1&#45;&gt;Node2 -->
<g id="edge1_Node000001_Node000002" class="edge">
<title>Node1&#45;&gt;Node2</title>
<g id="a_edge1_Node000001_Node000002"><a xlink:title=" ">
<path fill="none" stroke="#63b8ff" d="M226.98,-98.11C204.61,-110.45 170.93,-127.91 140,-139.5 131.54,-142.67 122.29,-145.5 113.39,-147.92"/>
<polygon fill="#63b8ff" stroke="#63b8ff" points="228.81,-101.1 235.84,-93.17 225.4,-94.98 228.81,-101.1"/>
</a>
</g>
</g>
<!-- Node3 -->
<g id="Node000003" class="node">
<title>Node3</title>
<g id="a_Node000003"><a xlink:href="../../d9/d69/classShader.html#a90001fce693c6b597754403eb313c2ee" target="_top" xlink:title=" ">
<polygon fill="white" stroke="#666666" points="130.5,-130 9.5,-130 9.5,-111 130.5,-111 130.5,-130"/>
<text text-anchor="middle" x="70" y="-118" font-family="Helvetica,sans-Serif" font-size="10.00">Shader::SetUniform1i</text>
</a>
</g>
</g>
<!-- Node1&#45;&gt;Node3 -->
<g id="edge2_Node000001_Node000003" class="edge">
<title>Node1&#45;&gt;Node3</title>
<g id="a_edge2_Node000001_Node000003"><a xlink:title=" ">
<path fill="none" stroke="#63b8ff" d="M195.68,-95.08C170.67,-100.18 141.65,-106.1 117.9,-110.94"/>
<polygon fill="#63b8ff" stroke="#63b8ff" points="196.66,-98.46 205.76,-93.03 195.26,-91.6 196.66,-98.46"/>
</a>
</g>
</g>
<!-- Node4 -->
<g id="Node000004" class="node">
<title>Node4</title>
<g id="a_Node000004"><a xlink:href="../../d9/d69/classShader.html#a222acf5d6d47b38bc622261dcf317d71" target="_top" xlink:title=" ">
<polygon fill="white" stroke="#666666" points="131,-93 9,-93 9,-74 131,-74 131,-93"/>
<text text-anchor="middle" x="70" y="-81" font-family="Helvetica,sans-Serif" font-size="10.00">Shader::SetUniform2f</text>
</a>
</g>
</g>
<!-- Node1&#45;&gt;Node4 -->
<g id="edge3_Node000001_Node000004" class="edge">
<title>Node1&#45;&gt;Node4</title>
<g id="a_edge3_Node000001_Node000004"><a xlink:title=" ">
<path fill="none" stroke="#63b8ff" d="M165.6,-83.5C153.96,-83.5 142.24,-83.5 131.2,-83.5"/>
<polygon fill="#63b8ff" stroke="#63b8ff" points="165.79,-87 175.79,-83.5 165.79,-80 165.79,-87"/>
</a>
</g>
</g>
<!-- Node5 -->
<g id="Node000005" class="node">
<title>Node5</title>
<g id="a_Node000005"><a xlink:href="../../d9/d69/classShader.html#af52dfd9564e8a995f5fcca29e5a65669" target="_top" xlink:title=" ">
<polygon fill="white" stroke="#666666" points="131,-56 9,-56 9,-37 131,-37 131,-56"/>
<text text-anchor="middle" x="70" y="-44" font-family="Helvetica,sans-Serif" font-size="10.00">Shader::SetUniform4f</text>
</a>
</g>
</g>
<!-- Node1&#45;&gt;Node5 -->
<g id="edge4_Node000001_Node000005" class="edge">
<title>Node1&#45;&gt;Node5</title>
<g id="a_edge4_Node000001_Node000005"><a xlink:title=" ">
<path fill="none" stroke="#63b8ff" d="M195.68,-71.92C170.67,-66.82 141.65,-60.9 117.9,-56.06"/>
<polygon fill="#63b8ff" stroke="#63b8ff" points="195.26,-75.4 205.76,-73.97 196.66,-68.54 195.26,-75.4"/>
</a>
</g>
</g>
<!-- Node6 -->
<g id="Node000006" class="node">
<title>Node6</title>
<g id="a_Node000006"><a xlink:href="../../d9/d69/classShader.html#a2b3d2ee70c7afff3c6b48773ea6721b7" target="_top" xlink:title=" ">
<polygon fill="white" stroke="#666666" points="140,-19 0,-19 0,0 140,0 140,-19"/>
<text text-anchor="middle" x="70" y="-7" font-family="Helvetica,sans-Serif" font-size="10.00">Shader::SetUniformMat4f</text>
</a>
</g>
</g>
<!-- Node1&#45;&gt;Node6 -->
<g id="edge5_Node000001_Node000006" class="edge">
<title>Node1&#45;&gt;Node6</title>
<g id="a_edge5_Node000001_Node000006"><a xlink:title=" ">
<path fill="none" stroke="#63b8ff" d="M226.52,-69.08C204.1,-57.05 170.6,-40.08 140,-28.5 130.59,-24.94 120.22,-21.73 110.45,-19"/>
<polygon fill="#63b8ff" stroke="#63b8ff" points="224.95,-72.2 235.41,-73.9 228.29,-66.05 224.95,-72.2"/>
</a>
</g>
</g>
</g>
</svg>
