<?xml version="1.0" encoding="UTF-8" standalone="no"?>
<!DOCTYPE svg PUBLIC "-//W3C//DTD SVG 1.1//EN"
 "http://www.w3.org/Graphics/SVG/1.1/DTD/svg11.dtd">
<!-- Generated by graphviz version 14.0.2 (20251019.1705)
 -->
<!-- Title: Texture Pages: 1 -->
<svg width="159pt" height="372pt"
 viewBox="0.00 0.00 159.00 372.00" xmlns="http://www.w3.org/2000/svg" xmlns:xlink="http://www.w3.org/1999/xlink">
<g id="graph0" class="graph" transform="scale(1 1) rotate(0) translate(4 368)">
<title>Texture</title>
<!-- Node1 -->
<g id="Node000001" class="node">
<title>Node1</title>
<g id="a_Node000001"><a xlink:title=" ">
<polygon fill="#999999" stroke="none" points="150.75,-264 0,-264 0,0 150.75,0 150.75,-264"/>
<text xml:space="preserve" text-anchor="start" x="59.25" y="-250.5" font-family="Helvetica,sans-Serif" font-size="10.00">Texture</text>
<text xml:space="preserve" text-anchor="start" x="5.5" y="-234.5" font-family="Helvetica,sans-Serif" font-size="10.00">&#45;</text>
<text xml:space="preserve" text-anchor="start" x="14" y="-234.5" font-family="Helvetica,sans-Serif" font-size="10.00">unsigned char * m_LocalBuffer</text>
<text xml:space="preserve" text-anchor="start" x="5.5" y="-218.5" font-family="Helvetica,sans-Serif" font-size="10.00">&#45;</text>
<text xml:space="preserve" text-anchor="start" x="14" y="-218.5" font-family="Helvetica,sans-Serif" font-size="10.00">int m_Width</text>
<text xml:space="preserve" text-anchor="start" x="5.5" y="-202.5" font-family="Helvetica,sans-Serif" font-size="10.00">&#45;</text>
<text xml:space="preserve" text-anchor="start" x="14" y="-202.5" font-family="Helvetica,sans-Serif" font-size="10.00">int m_Height</text>
<text xml:space="preserve" text-anchor="start" x="5.5" y="-186.5" font-family="Helvetica,sans-Serif" font-size="10.00">&#45;</text>
<text xml:space="preserve" text-anchor="start" x="14" y="-186.5" font-family="Helvetica,sans-Serif" font-size="10.00">int m_BPP</text>
<text xml:space="preserve" text-anchor="start" x="5.5" y="-170.5" font-family="Helvetica,sans-Serif" font-size="10.00">&#45;</text>
<text xml:space="preserve" text-anchor="start" x="14" y="-170.5" font-family="Helvetica,sans-Serif" font-size="10.00">unsigned int m_RendererID</text>
<text xml:space="preserve" text-anchor="start" x="4" y="-154.5" font-family="Helvetica,sans-Serif" font-size="10.00">+</text>
<text xml:space="preserve" text-anchor="start" x="14" y="-154.5" font-family="Helvetica,sans-Serif" font-size="10.00">Texture(const std</text>
<text xml:space="preserve" text-anchor="start" x="14" y="-142.5" font-family="Helvetica,sans-Serif" font-size="10.00">::string &amp;path)</text>
<text xml:space="preserve" text-anchor="start" x="4" y="-126.5" font-family="Helvetica,sans-Serif" font-size="10.00">+</text>
<text xml:space="preserve" text-anchor="start" x="14" y="-126.5" font-family="Helvetica,sans-Serif" font-size="10.00">~Texture()</text>
<text xml:space="preserve" text-anchor="start" x="4" y="-110.5" font-family="Helvetica,sans-Serif" font-size="10.00">+</text>
<text xml:space="preserve" text-anchor="start" x="14" y="-110.5" font-family="Helvetica,sans-Serif" font-size="10.00">unsigned int GetRendererID()</text>
<text xml:space="preserve" text-anchor="start" x="4" y="-94.5" font-family="Helvetica,sans-Serif" font-size="10.00">+</text>
<text xml:space="preserve" text-anchor="start" x="14" y="-94.5" font-family="Helvetica,sans-Serif" font-size="10.00">void SetFilePath(const</text>
<text xml:space="preserve" text-anchor="start" x="14" y="-82.5" font-family="Helvetica,sans-Serif" font-size="10.00"> std::string &amp;path)</text>
<text xml:space="preserve" text-anchor="start" x="4" y="-66.5" font-family="Helvetica,sans-Serif" font-size="10.00">+</text>
<text xml:space="preserve" text-anchor="start" x="14" y="-66.5" font-family="Helvetica,sans-Serif" font-size="10.00">void Bind(unsigned</text>
<text xml:space="preserve" text-anchor="start" x="14" y="-54.5" font-family="Helvetica,sans-Serif" font-size="10.00"> int slot=0) const</text>
<text xml:space="preserve" text-anchor="start" x="4" y="-38.5" font-family="Helvetica,sans-Serif" font-size="10.00">+</text>
<text xml:space="preserve" text-anchor="start" x="14" y="-38.5" font-family="Helvetica,sans-Serif" font-size="10.00">void Unbind() const</text>
<text xml:space="preserve" text-anchor="start" x="4" y="-22.5" font-family="Helvetica,sans-Serif" font-size="10.00">+</text>
<text xml:space="preserve" text-anchor="start" x="14" y="-22.5" font-family="Helvetica,sans-Serif" font-size="10.00">int GetWidth() const</text>
<text xml:space="preserve" text-anchor="start" x="4" y="-6.5" font-family="Helvetica,sans-Serif" font-size="10.00">+</text>
<text xml:space="preserve" text-anchor="start" x="14" y="-6.5" font-family="Helvetica,sans-Serif" font-size="10.00">int GetHeight() const</text>
<polygon fill="#666666" stroke="#666666" points="0,-246 0,-246 150.75,-246 150.75,-246 0,-246"/>
<polygon fill="#666666" stroke="#666666" points="0,-166 0,-166 12,-166 12,-166 0,-166"/>
<polygon fill="#666666" stroke="#666666" points="12,-166 12,-166 150.75,-166 150.75,-166 12,-166"/>
<polygon fill="none" stroke="#666666" points="0,0 0,-264 150.75,-264 150.75,0 0,0"/>
</a>
</g>
</g>
<!-- Node2 -->
<g id="Node000002" class="node">
<title>Node2</title>
<g id="a_Node000002"><a xlink:title=" ">
<polygon fill="white" stroke="none" points="91.38,-364 59.38,-364 59.38,-312 91.38,-312 91.38,-364"/>
<text xml:space="preserve" text-anchor="start" x="63.38" y="-350.5" font-family="Helvetica,sans-Serif" font-size="10.00">string</text>
<text xml:space="preserve" text-anchor="start" x="73.88" y="-334.5" font-family="Helvetica,sans-Serif" font-size="10.00"> </text>
<text xml:space="preserve" text-anchor="start" x="73.88" y="-318.5" font-family="Helvetica,sans-Serif" font-size="10.00"> </text>
<polygon fill="#666666" stroke="#666666" points="59.38,-346 59.38,-346 91.38,-346 91.38,-346 59.38,-346"/>
<polygon fill="#666666" stroke="#666666" points="59.38,-330 59.38,-330 91.38,-330 91.38,-330 59.38,-330"/>
<polygon fill="none" stroke="#666666" points="59.38,-312 59.38,-364 91.38,-364 91.38,-312 59.38,-312"/>
</a>
</g>
</g>
<!-- Node2&#45;&gt;Node1 -->
<g id="edge1_Node000001_Node000002" class="edge">
<title>Node2&#45;&gt;Node1</title>
<g id="a_edge1_Node000001_Node000002"><a xlink:title=" ">
<path fill="none" stroke="#63b8ff" d="M75.38,-312.39C75.38,-302.41 75.38,-290.04 75.38,-276.48"/>
<polygon fill="none" stroke="#63b8ff" points="75.38,-276.64 71.38,-270.64 75.38,-264.64 79.38,-270.64 75.38,-276.64"/>
</a>
</g>
<text xml:space="preserve" text-anchor="middle" x="104.62" y="-284.5" font-family="Helvetica,sans-Serif" font-size="10.00" fill="grey"> +m_FilePath</text>
</g>
</g>
</svg>
