<?xml version="1.0" encoding="UTF-8" standalone="no"?>
<!DOCTYPE svg PUBLIC "-//W3C//DTD SVG 1.1//EN"
 "http://www.w3.org/Graphics/SVG/1.1/DTD/svg11.dtd">
<!-- Generated by graphviz version 2.43.0 (0)
 -->
<!-- Title: SignalingServer Pages: 1 -->
<!--zoomable 402 -->

<svg id="main" version="1.1" xmlns="http://www.w3.org/2000/svg" xmlns:xlink="http://www.w3.org/1999/xlink" xml:space="preserve" onload="init(evt)">
<style type="text/css"><![CDATA[
.node, .edge {opacity: 0.7;}
.node.selected, .edge.selected {opacity: 1;}
.edge:hover path { stroke: red; }
.edge:hover polygon { stroke: red; fill: red; }
]]></style>

<defs>
  <circle id="rim" cx="0" cy="0" r="7"/>
  <circle id="rim2" cx="0" cy="0" r="3.5"/>
  <g id="zoomPlus">
    <use xlink:href="#rim" fill="#404040"><set attributeName="fill" to="#808080" begin="zoomplus.mouseover" end="zoomplus.mouseout"/></use>
    <path d="M-4,0h8M0,-4v8" fill="none" stroke="white" stroke-width="1.5" pointer-events="none"/>
  </g>
  <g id="zoomMin">
    <use xlink:href="#rim" fill="#404040"><set attributeName="fill" to="#808080" begin="zoomminus.mouseover" end="zoomminus.mouseout"/></use>
    <path d="M-4,0h8" fill="none" stroke="white" stroke-width="1.5" pointer-events="none"/>
  </g>
  <g id="arrowUp" transform="translate(30 24)">
    <use xlink:href="#rim"/>
    <path pointer-events="none" fill="none" stroke="white" stroke-width="1.5" d="M0,-3.0v7 M-2.5,-0.5L0,-3.0L2.5,-0.5"/>
  </g>
  <g id="arrowRight" transform="rotate(90) translate(36 -43)">
    <use xlink:href="#rim"/>
    <path pointer-events="none" fill="none" stroke="white" stroke-width="1.5" d="M0,-3.0v7 M-2.5,-0.5L0,-3.0L2.5,-0.5"/>
  </g>
  <g id="arrowDown" transform="rotate(180) translate(-30 -48)">
    <use xlink:href="#rim"/>
    <path pointer-events="none" fill="none" stroke="white" stroke-width="1.5" d="M0,-3.0v7 M-2.5,-0.5L0,-3.0L2.5,-0.5"/>
  </g>
  <g id="arrowLeft" transform="rotate(270) translate(-36 17)">
    <use xlink:href="#rim"/>
    <path pointer-events="none" fill="none" stroke="white" stroke-width="1.5" d="M0,-3.0v7 M-2.5,-0.5L0,-3.0L2.5,-0.5"/>
  </g>
  <g id="resetDef">
    <use xlink:href="#rim2" fill="#404040"><set attributeName="fill" to="#808080" begin="reset.mouseover" end="reset.mouseout"/></use>
  </g>
</defs>
<script type="application/ecmascript">
var viewWidth = 898;
var viewHeight = 402;
var sectionId = 'dynsection-0';
</script>
<script type="application/ecmascript" xlink:href="../../svg.min.js"/>
<svg id="graph" class="graph">
<g id="viewport">
<title>SignalingServer</title>
<!-- Node1 -->
<g id="Node000001" class="node">
<title>Node1</title>
<g id="a_Node000001"><a xlink:title=" ">
<polygon fill="#999999" stroke="transparent" points="562,-276 376,-276 376,0 562,0 562,-276"/>
<text text-anchor="start" x="430.5" y="-264" font-family="Helvetica,sans-Serif" font-size="10.00">SignalingServer</text>
<text text-anchor="start" x="467" y="-249" font-family="Helvetica,sans-Serif" font-size="10.00"> </text>
<text text-anchor="start" x="380" y="-234" font-family="Helvetica,sans-Serif" font-size="10.00">+</text>
<text text-anchor="start" x="393" y="-234" font-family="Helvetica,sans-Serif" font-size="10.00">SignalingServer(std::weak</text>
<text text-anchor="start" x="393" y="-223" font-family="Helvetica,sans-Serif" font-size="10.00">_ptr&lt; NetworkManager &gt; parent)</text>
<text text-anchor="start" x="380" y="-208" font-family="Helvetica,sans-Serif" font-size="10.00">+</text>
<text text-anchor="start" x="393" y="-208" font-family="Helvetica,sans-Serif" font-size="10.00">~SignalingServer()</text>
<text text-anchor="start" x="380" y="-193" font-family="Helvetica,sans-Serif" font-size="10.00">+</text>
<text text-anchor="start" x="393" y="-193" font-family="Helvetica,sans-Serif" font-size="10.00">void start(unsigned short port)</text>
<text text-anchor="start" x="380" y="-178" font-family="Helvetica,sans-Serif" font-size="10.00">+</text>
<text text-anchor="start" x="393" y="-178" font-family="Helvetica,sans-Serif" font-size="10.00">void stop()</text>
<text text-anchor="start" x="380" y="-163" font-family="Helvetica,sans-Serif" font-size="10.00">+</text>
<text text-anchor="start" x="393" y="-163" font-family="Helvetica,sans-Serif" font-size="10.00">void onConnect(std::string</text>
<text text-anchor="start" x="393" y="-152" font-family="Helvetica,sans-Serif" font-size="10.00"> clientId, std::shared_ptr&lt;</text>
<text text-anchor="start" x="393" y="-141" font-family="Helvetica,sans-Serif" font-size="10.00"> rtc::WebSocket &gt; client)</text>
<text text-anchor="start" x="380" y="-126" font-family="Helvetica,sans-Serif" font-size="10.00">+</text>
<text text-anchor="start" x="393" y="-126" font-family="Helvetica,sans-Serif" font-size="10.00">void onMessage(const std::string</text>
<text text-anchor="start" x="393" y="-115" font-family="Helvetica,sans-Serif" font-size="10.00"> &amp;clientId, const std::string &amp;text)</text>
<text text-anchor="start" x="380" y="-100" font-family="Helvetica,sans-Serif" font-size="10.00">+</text>
<text text-anchor="start" x="393" y="-100" font-family="Helvetica,sans-Serif" font-size="10.00">void sendTo(const std::string</text>
<text text-anchor="start" x="393" y="-89" font-family="Helvetica,sans-Serif" font-size="10.00"> &amp;clientId, const std::string</text>
<text text-anchor="start" x="393" y="-78" font-family="Helvetica,sans-Serif" font-size="10.00"> &amp;message)</text>
<text text-anchor="start" x="380" y="-63" font-family="Helvetica,sans-Serif" font-size="10.00">+</text>
<text text-anchor="start" x="393" y="-63" font-family="Helvetica,sans-Serif" font-size="10.00">void broadcast(const std::string</text>
<text text-anchor="start" x="393" y="-52" font-family="Helvetica,sans-Serif" font-size="10.00"> &amp;message)</text>
<text text-anchor="start" x="380" y="-37" font-family="Helvetica,sans-Serif" font-size="10.00">+</text>
<text text-anchor="start" x="393" y="-37" font-family="Helvetica,sans-Serif" font-size="10.00">void broadcastShutdown()</text>
<text text-anchor="start" x="380" y="-22" font-family="Helvetica,sans-Serif" font-size="10.00">+</text>
<text text-anchor="start" x="393" y="-22" font-family="Helvetica,sans-Serif" font-size="10.00">void disconnectAllClients()</text>
<text text-anchor="start" x="393" y="-7" font-family="Helvetica,sans-Serif" font-size="10.00">and 6 more...</text>
<polygon fill="#666666" stroke="#666666" points="376,-259 376,-259 562,-259 562,-259 376,-259"/>
<polygon fill="#666666" stroke="#666666" points="376,-244 376,-244 562,-244 562,-244 376,-244"/>
<polygon fill="none" stroke="#666666" points="376,0 376,-276 562,-276 562,0 376,0"/>
</a>
</g>
</g>
<!-- Node2 -->
<g id="Node000002" class="node">
<title>Node2</title>
<g id="a_Node000002"><a xlink:title=" ">
<polygon fill="white" stroke="transparent" points="188,-388.5 0,-388.5 0,-339.5 188,-339.5 188,-388.5"/>
<text text-anchor="start" x="5" y="-376" font-family="Helvetica,sans-Serif" font-size="10.00">shared_ptr&lt; rtc::WebSocketServer &gt;</text>
<text text-anchor="start" x="92" y="-361" font-family="Helvetica,sans-Serif" font-size="10.00"> </text>
<text text-anchor="start" x="92" y="-346" font-family="Helvetica,sans-Serif" font-size="10.00"> </text>
<polygon fill="#666666" stroke="#666666" points="0,-371 0,-371 188,-371 188,-371 0,-371"/>
<polygon fill="#666666" stroke="#666666" points="0,-356 0,-356 188,-356 188,-356 0,-356"/>
<polygon fill="none" stroke="#666666" points="0,-339.5 0,-388.5 188,-388.5 188,-339.5 0,-339.5"/>
</a>
</g>
</g>
<!-- Node2&#45;&gt;Node1 -->
<g id="edge1_Node000001_Node000002" class="edge">
<title>Node2&#45;&gt;Node1</title>
<g id="a_edge1_Node000001_Node000002"><a xlink:title=" ">
<path fill="none" stroke="#63b8ff" d="M133.42,-339.45C187.93,-306.89 288.28,-246.95 365.09,-201.07"/>
<polygon fill="none" stroke="#63b8ff" points="365.47,-200.84 368.57,-194.33 375.77,-194.69 372.67,-201.2 365.47,-200.84"/>
</a>
</g>
<text text-anchor="middle" x="224" y="-302.5" font-family="Helvetica,sans-Serif" font-size="10.00" fill="grey"> &#45;server</text>
</g>
<!-- Node3 -->
<g id="Node000003" class="node">
<title>Node3</title>
<g id="a_Node000003"><a xlink:title=" ">
<polygon fill="white" stroke="transparent" points="368,-388.5 206,-388.5 206,-339.5 368,-339.5 368,-388.5"/>
<text text-anchor="start" x="211" y="-376" font-family="Helvetica,sans-Serif" font-size="10.00">weak_ptr&lt; NetworkManager &gt;</text>
<text text-anchor="start" x="285" y="-361" font-family="Helvetica,sans-Serif" font-size="10.00"> </text>
<text text-anchor="start" x="285" y="-346" font-family="Helvetica,sans-Serif" font-size="10.00"> </text>
<polygon fill="#666666" stroke="#666666" points="206,-371 206,-371 368,-371 368,-371 206,-371"/>
<polygon fill="#666666" stroke="#666666" points="206,-356 206,-356 368,-356 368,-356 206,-356"/>
<polygon fill="none" stroke="#666666" points="206,-339.5 206,-388.5 368,-388.5 368,-339.5 206,-339.5"/>
</a>
</g>
</g>
<!-- Node3&#45;&gt;Node1 -->
<g id="edge2_Node000001_Node000003" class="edge">
<title>Node3&#45;&gt;Node1</title>
<g id="a_edge2_Node000001_Node000003"><a xlink:title=" ">
<path fill="none" stroke="#63b8ff" d="M294.46,-339.2C299.41,-325.36 306.7,-307.94 316,-294 330.65,-272.04 348.69,-250.54 367.18,-230.86"/>
<polygon fill="none" stroke="#63b8ff" points="367.4,-230.63 368.65,-223.53 375.69,-221.96 374.43,-229.06 367.4,-230.63"/>
</a>
</g>
<text text-anchor="middle" x="364" y="-302.5" font-family="Helvetica,sans-Serif" font-size="10.00" fill="grey"> &#45;network_manager</text>
</g>
<!-- Node4 -->
<g id="Node000004" class="node">
<title>Node4</title>
<g id="a_Node000004"><a xlink:title=" ">
<polygon fill="white" stroke="transparent" points="418,-388.5 386,-388.5 386,-339.5 418,-339.5 418,-388.5"/>
<text text-anchor="start" x="391" y="-376" font-family="Helvetica,sans-Serif" font-size="10.00">bool</text>
<text text-anchor="start" x="400" y="-361" font-family="Helvetica,sans-Serif" font-size="10.00"> </text>
<text text-anchor="start" x="400" y="-346" font-family="Helvetica,sans-Serif" font-size="10.00"> </text>
<polygon fill="#666666" stroke="#666666" points="386,-371 386,-371 418,-371 418,-371 386,-371"/>
<polygon fill="#666666" stroke="#666666" points="386,-356 386,-356 418,-356 418,-356 386,-356"/>
<polygon fill="none" stroke="#666666" points="386,-339.5 386,-388.5 418,-388.5 418,-339.5 386,-339.5"/>
</a>
</g>
</g>
<!-- Node4&#45;&gt;Node1 -->
<g id="edge3_Node000001_Node000004" class="edge">
<title>Node4&#45;&gt;Node1</title>
<g id="a_edge3_Node000001_Node000004"><a xlink:title=" ">
<path fill="none" stroke="#63b8ff" d="M409.04,-339.45C413.08,-325.96 418.52,-307.77 424.48,-287.83"/>
<polygon fill="none" stroke="#63b8ff" points="424.51,-287.74 422.4,-280.85 427.95,-276.25 430.06,-283.14 424.51,-287.74"/>
</a>
</g>
<text text-anchor="middle" x="450" y="-302.5" font-family="Helvetica,sans-Serif" font-size="10.00" fill="grey"> &#45;is_running</text>
</g>
<!-- Node5 -->
<g id="Node000005" class="node">
<title>Node5</title>
<g id="a_Node000005"><a xlink:title=" ">
<polygon fill="white" stroke="transparent" points="628,-394 436,-394 436,-334 628,-334 628,-394"/>
<text text-anchor="start" x="441" y="-382" font-family="Helvetica,sans-Serif" font-size="10.00">unordered_map&lt; std::string,</text>
<text text-anchor="start" x="441" y="-371" font-family="Helvetica,sans-Serif" font-size="10.00"> std::shared_ptr&lt; rtc::WebSocket &gt; &gt;</text>
<text text-anchor="start" x="530" y="-356" font-family="Helvetica,sans-Serif" font-size="10.00"> </text>
<text text-anchor="start" x="530" y="-341" font-family="Helvetica,sans-Serif" font-size="10.00"> </text>
<polygon fill="#666666" stroke="#666666" points="436,-366 436,-366 628,-366 628,-366 436,-366"/>
<polygon fill="#666666" stroke="#666666" points="436,-351 436,-351 628,-351 628,-351 436,-351"/>
<polygon fill="none" stroke="#666666" points="436,-334 436,-394 628,-394 628,-334 436,-334"/>
</a>
</g>
</g>
<!-- Node5&#45;&gt;Node1 -->
<g id="edge4_Node000001_Node000005" class="edge">
<title>Node5&#45;&gt;Node1</title>
<g id="a_edge4_Node000001_Node000005"><a xlink:title=" ">
<path fill="none" stroke="#63b8ff" d="M523.76,-333.72C520.21,-321.09 515.77,-305.3 510.97,-288.21"/>
<polygon fill="none" stroke="#63b8ff" points="510.83,-287.74 505.36,-283.05 507.58,-276.19 513.06,-280.88 510.83,-287.74"/>
</a>
</g>
<text text-anchor="middle" x="559" y="-308" font-family="Helvetica,sans-Serif" font-size="10.00" fill="grey"> &#45;authClients_</text>
<text text-anchor="middle" x="559" y="-297" font-family="Helvetica,sans-Serif" font-size="10.00" fill="grey">&#45;pendingClients_</text>
</g>
<!-- Node6 -->
<g id="Node000006" class="node">
<title>Node6</title>
<g id="a_Node000006"><a xlink:title=" ">
<polygon fill="white" stroke="transparent" points="796,-394 646,-394 646,-334 796,-334 796,-394"/>
<text text-anchor="start" x="651" y="-382" font-family="Helvetica,sans-Serif" font-size="10.00">unordered_map&lt; std::string,</text>
<text text-anchor="start" x="689" y="-371" font-family="Helvetica,sans-Serif" font-size="10.00"> std::string &gt;</text>
<text text-anchor="start" x="719" y="-356" font-family="Helvetica,sans-Serif" font-size="10.00"> </text>
<text text-anchor="start" x="719" y="-341" font-family="Helvetica,sans-Serif" font-size="10.00"> </text>
<polygon fill="#666666" stroke="#666666" points="646,-366 646,-366 796,-366 796,-366 646,-366"/>
<polygon fill="#666666" stroke="#666666" points="646,-351 646,-351 796,-351 796,-351 646,-351"/>
<polygon fill="none" stroke="#666666" points="646,-334 646,-394 796,-394 796,-334 646,-334"/>
</a>
</g>
</g>
<!-- Node6&#45;&gt;Node1 -->
<g id="edge5_Node000001_Node000006" class="edge">
<title>Node6&#45;&gt;Node1</title>
<g id="a_edge5_Node000001_Node000006"><a xlink:title=" ">
<path fill="none" stroke="#63b8ff" d="M688.31,-333.95C658.6,-307.53 613.13,-267.12 571.28,-229.92"/>
<polygon fill="none" stroke="#63b8ff" points="571.11,-229.76 563.97,-228.77 562.14,-221.79 569.28,-222.79 571.11,-229.76"/>
</a>
</g>
<text text-anchor="middle" x="718" y="-308" font-family="Helvetica,sans-Serif" font-size="10.00" fill="grey"> &#45;authUsernames_</text>
<text text-anchor="middle" x="718" y="-297" font-family="Helvetica,sans-Serif" font-size="10.00" fill="grey">&#45;pendingUsernames_</text>
</g>
<!-- Node7 -->
<g id="Node000007" class="node">
<title>Node7</title>
<g id="a_Node000007"><a xlink:title=" ">
<polygon fill="white" stroke="transparent" points="868,-388.5 818,-388.5 818,-339.5 868,-339.5 868,-388.5"/>
<text text-anchor="start" x="823" y="-376" font-family="Helvetica,sans-Serif" font-size="10.00">seconds</text>
<text text-anchor="start" x="841" y="-361" font-family="Helvetica,sans-Serif" font-size="10.00"> </text>
<text text-anchor="start" x="841" y="-346" font-family="Helvetica,sans-Serif" font-size="10.00"> </text>
<polygon fill="#666666" stroke="#666666" points="818,-371 818,-371 868,-371 868,-371 818,-371"/>
<polygon fill="#666666" stroke="#666666" points="818,-356 818,-356 868,-356 868,-356 818,-356"/>
<polygon fill="none" stroke="#666666" points="818,-339.5 818,-388.5 868,-388.5 868,-339.5 818,-339.5"/>
</a>
</g>
</g>
<!-- Node7&#45;&gt;Node1 -->
<g id="edge6_Node000001_Node000007" class="edge">
<title>Node7&#45;&gt;Node1</title>
<g id="a_edge6_Node000001_Node000007"><a xlink:title=" ">
<path fill="none" stroke="#63b8ff" d="M822.86,-339.36C809.88,-325.07 792.1,-307.13 774,-294 711.77,-248.84 634.5,-209.72 573.3,-182.08"/>
<polygon fill="none" stroke="#63b8ff" points="573.02,-181.95 565.91,-183.15 562.07,-177.05 569.18,-175.85 573.02,-181.95"/>
</a>
</g>
<text text-anchor="middle" x="844" y="-302.5" font-family="Helvetica,sans-Serif" font-size="10.00" fill="grey"> &#45;pendingTimeout_</text>
</g>
</g>
</svg>

<g id="navigator" transform="translate(0 0)" fill="#404254">
  <rect fill="#f2f5e9" fill-opacity="0.5" stroke="#606060" stroke-width=".5" x="0" y="0" width="60" height="60"/>
  <use id="zoomplus" xlink:href="#zoomPlus" x="17" y="9" onmousedown="handleZoom(evt,'in')"/>
  <use id="zoomminus" xlink:href="#zoomMin" x="42" y="9" onmousedown="handleZoom(evt,'out')"/>
  <use id="reset" xlink:href="#resetDef" x="30" y="36" onmousedown="handleReset()"/>
   <use id="arrowup" xlink:href="#arrowUp" x="0" y="0" onmousedown="handlePan(0,-1)"/>
  <use id="arrowright" xlink:href="#arrowRight" x="0" y="0" onmousedown="handlePan(1,0)"/>
  <use id="arrowdown" xlink:href="#arrowDown" x="0" y="0" onmousedown="handlePan(0,1)"/>
  <use id="arrowleft" xlink:href="#arrowLeft" x="0" y="0" onmousedown="handlePan(-1,0)"/>
</g>
<svg viewBox="0 0 15 15" width="100%" height="30px" preserveAspectRatio="xMaxYMin meet">
 <g id="arrow_out" transform="scale(0.3 0.3)">
  <a xlink:href="classSignalingServer__coll__graph_org.svg" target="_base">
   <rect id="button" ry="5" rx="5" y="6" x="6" height="38" width="38"
        fill="#f2f5e9" fill-opacity="0.5" stroke="#606060" stroke-width="1.0"/>
   <path id="arrow"
     d="M 11.500037,31.436501 C 11.940474,20.09759 22.043105,11.32322 32.158766,21.979434 L 37.068811,17.246167 C 37.068811,17.246167 37.088388,32 37.088388,32 L 22.160133,31.978069 C 22.160133,31.978069 26.997745,27.140456 26.997745,27.140456 C 18.528582,18.264221 13.291696,25.230495 11.500037,31.436501 z"
     style="fill:#404040;"/>
  </a>
 </g>
</svg>

<style type='text/css'>
<![CDATA[
[data-mouse-over-selected='false'] { opacity: 0.7; }
[data-mouse-over-selected='true']  { opacity: 1.0; }
]]>
</style>
<script type="application/ecmascript"><![CDATA[
document.addEventListener('DOMContentLoaded', (event) => {
  highlightEdges();
  highlightAdjacentNodes();
});
]]></script>
</svg>
