<?xml version="1.0" encoding="UTF-8" standalone="no"?>
<!DOCTYPE svg PUBLIC "-//W3C//DTD SVG 1.1//EN"
 "http://www.w3.org/Graphics/SVG/1.1/DTD/svg11.dtd">
<!-- Generated by graphviz version 2.43.0 (0)
 -->
<!-- Title: PathManager Pages: 1 -->
<svg width="229pt" height="366pt"
 viewBox="0.00 0.00 229.00 366.00" xmlns="http://www.w3.org/2000/svg" xmlns:xlink="http://www.w3.org/1999/xlink">
<g id="graph0" class="graph" transform="scale(1 1) rotate(0) translate(4 362)">
<title>PathManager</title>
<!-- Node1 -->
<g id="Node000001" class="node">
<title>Node1</title>
<g id="a_Node000001"><a xlink:title=" ">
<polygon fill="#999999" stroke="transparent" points="221,-251 0,-251 0,0 221,0 221,-251"/>
<text text-anchor="start" x="79" y="-238.5" font-family="Helvetica,sans-Serif" font-size="10.00">PathManager</text>
<text text-anchor="start" x="109" y="-223.5" font-family="Helvetica,sans-Serif" font-size="10.00"> </text>
<text text-anchor="start" x="4.5" y="-208.5" font-family="Helvetica,sans-Serif" font-size="10.00">+</text>
<text text-anchor="start" x="17.5" y="-208.5" font-family="Helvetica,sans-Serif" font-size="10.00">static fs::path getRootDirectory()</text>
<text text-anchor="start" x="4.5" y="-193.5" font-family="Helvetica,sans-Serif" font-size="10.00">+</text>
<text text-anchor="start" x="17.5" y="-193.5" font-family="Helvetica,sans-Serif" font-size="10.00">static fs::path getMapsPath()</text>
<text text-anchor="start" x="4.5" y="-178.5" font-family="Helvetica,sans-Serif" font-size="10.00">+</text>
<text text-anchor="start" x="17.5" y="-178.5" font-family="Helvetica,sans-Serif" font-size="10.00">static fs::path getMarkersPath()</text>
<text text-anchor="start" x="4.5" y="-163.5" font-family="Helvetica,sans-Serif" font-size="10.00">+</text>
<text text-anchor="start" x="17.5" y="-163.5" font-family="Helvetica,sans-Serif" font-size="10.00">static fs::path getNotesPath()</text>
<text text-anchor="start" x="4.5" y="-148.5" font-family="Helvetica,sans-Serif" font-size="10.00">+</text>
<text text-anchor="start" x="17.5" y="-148.5" font-family="Helvetica,sans-Serif" font-size="10.00">static fs::path getGameTablesPath()</text>
<text text-anchor="start" x="4.5" y="-133.5" font-family="Helvetica,sans-Serif" font-size="10.00">+</text>
<text text-anchor="start" x="17.5" y="-133.5" font-family="Helvetica,sans-Serif" font-size="10.00">static fs::path getBoardsPath</text>
<text text-anchor="start" x="17.5" y="-122.5" font-family="Helvetica,sans-Serif" font-size="10.00">(std::string gametable_name)</text>
<text text-anchor="start" x="4.5" y="-107.5" font-family="Helvetica,sans-Serif" font-size="10.00">+</text>
<text text-anchor="start" x="17.5" y="-107.5" font-family="Helvetica,sans-Serif" font-size="10.00">static fs::path getConfigPath()</text>
<text text-anchor="start" x="4.5" y="-92.5" font-family="Helvetica,sans-Serif" font-size="10.00">+</text>
<text text-anchor="start" x="17.5" y="-92.5" font-family="Helvetica,sans-Serif" font-size="10.00">static fs::path getExternalPath()</text>
<text text-anchor="start" x="4.5" y="-77.5" font-family="Helvetica,sans-Serif" font-size="10.00">+</text>
<text text-anchor="start" x="17.5" y="-77.5" font-family="Helvetica,sans-Serif" font-size="10.00">static fs::path getNodeExePath()</text>
<text text-anchor="start" x="4.5" y="-62.5" font-family="Helvetica,sans-Serif" font-size="10.00">+</text>
<text text-anchor="start" x="17.5" y="-62.5" font-family="Helvetica,sans-Serif" font-size="10.00">static fs::path getLocalTunnelClientPath()</text>
<text text-anchor="start" x="17.5" y="-47.5" font-family="Helvetica,sans-Serif" font-size="10.00">and 15 more...</text>
<text text-anchor="start" x="7" y="-32.5" font-family="Helvetica,sans-Serif" font-size="10.00">&#45;</text>
<text text-anchor="start" x="17.5" y="-32.5" font-family="Helvetica,sans-Serif" font-size="10.00">static fs::path getDocumentsFolder()</text>
<text text-anchor="start" x="7" y="-17.5" font-family="Helvetica,sans-Serif" font-size="10.00">&#45;</text>
<text text-anchor="start" x="17.5" y="-17.5" font-family="Helvetica,sans-Serif" font-size="10.00">static void createIfNotExists</text>
<text text-anchor="start" x="17.5" y="-6.5" font-family="Helvetica,sans-Serif" font-size="10.00">(const fs::path &amp;path)</text>
<polygon fill="#666666" stroke="#666666" points="0.5,-233.5 0.5,-233.5 221.5,-233.5 221.5,-233.5 0.5,-233.5"/>
<polygon fill="#666666" stroke="#666666" points="0.5,-218.5 0.5,-218.5 221.5,-218.5 221.5,-218.5 0.5,-218.5"/>
<polygon fill="none" stroke="#666666" points="0,0 0,-251 221,-251 221,0 0,0"/>
</a>
</g>
</g>
<!-- Node2 -->
<g id="Node000002" class="node">
<title>Node2</title>
<g id="a_Node000002"><a xlink:title=" ">
<polygon fill="white" stroke="transparent" points="126.5,-358 94.5,-358 94.5,-309 126.5,-309 126.5,-358"/>
<text text-anchor="start" x="99.5" y="-345.5" font-family="Helvetica,sans-Serif" font-size="10.00">path</text>
<text text-anchor="start" x="108.5" y="-330.5" font-family="Helvetica,sans-Serif" font-size="10.00"> </text>
<text text-anchor="start" x="108.5" y="-315.5" font-family="Helvetica,sans-Serif" font-size="10.00"> </text>
<polygon fill="#666666" stroke="#666666" points="94.5,-340.5 94.5,-340.5 126.5,-340.5 126.5,-340.5 94.5,-340.5"/>
<polygon fill="#666666" stroke="#666666" points="94.5,-325.5 94.5,-325.5 126.5,-325.5 126.5,-325.5 94.5,-325.5"/>
<polygon fill="none" stroke="#666666" points="94.5,-309 94.5,-358 126.5,-358 126.5,-309 94.5,-309"/>
</a>
</g>
</g>
<!-- Node2&#45;&gt;Node1 -->
<g id="edge1_Node000001_Node000002" class="edge">
<title>Node2&#45;&gt;Node1</title>
<g id="a_edge1_Node000001_Node000002"><a xlink:title=" ">
<path fill="none" stroke="#63b8ff" d="M110.5,-308.87C110.5,-296.62 110.5,-280.56 110.5,-263.06"/>
<polygon fill="none" stroke="#63b8ff" points="110.5,-263.06 106.5,-257.06 110.5,-251.06 114.5,-257.06 110.5,-263.06"/>
</a>
</g>
<text text-anchor="middle" x="164" y="-283" font-family="Helvetica,sans-Serif" font-size="10.00" fill="grey"> &#45;baseDocumentsPath</text>
<text text-anchor="middle" x="164" y="-272" font-family="Helvetica,sans-Serif" font-size="10.00" fill="grey">&#45;executableDir</text>
</g>
</g>
</svg>
