<?xml version="1.0" encoding="UTF-8" standalone="no"?>
<!DOCTYPE svg PUBLIC "-//W3C//DTD SVG 1.1//EN"
 "http://www.w3.org/Graphics/SVG/1.1/DTD/svg11.dtd">
<!-- Generated by graphviz version 2.43.0 (0)
 -->
<!-- Title: ChatManager::tryHandleSlashCommand Pages: 1 -->
<svg width="789pt" height="46pt"
 viewBox="0.00 0.00 789.00 46.00" xmlns="http://www.w3.org/2000/svg" xmlns:xlink="http://www.w3.org/1999/xlink">
<g id="graph0" class="graph" transform="scale(1 1) rotate(0) translate(4 42)">
<title>ChatManager::tryHandleSlashCommand</title>
<!-- Node1 -->
<g id="Node000001" class="node">
<title>Node1</title>
<g id="a_Node000001"><a xlink:title=" ">
<polygon fill="#999999" stroke="#666666" points="781,-19 569,-19 569,0 781,0 781,-19"/>
<text text-anchor="middle" x="675" y="-7" font-family="Helvetica,sans-Serif" font-size="10.00">ChatManager::tryHandleSlashCommand</text>
</a>
</g>
</g>
<!-- Node2 -->
<g id="Node000002" class="node">
<title>Node2</title>
<g id="a_Node000002"><a xlink:href="../../d7/dc6/classChatManager.html#a5b19f0632a911a519401b1b40e70db7c" target="_top" xlink:title=" ">
<polygon fill="white" stroke="#666666" points="533,-38 362,-38 362,-19 533,-19 533,-38"/>
<text text-anchor="middle" x="447.5" y="-26" font-family="Helvetica,sans-Serif" font-size="10.00">ChatManager::renderDicePopup</text>
</a>
</g>
</g>
<!-- Node1&#45;&gt;Node2 -->
<g id="edge1_Node000001_Node000002" class="edge">
<title>Node1&#45;&gt;Node2</title>
<g id="a_edge1_Node000001_Node000002"><a xlink:title=" ">
<path fill="none" stroke="#63b8ff" d="M558.75,-19.21C550.15,-19.93 541.57,-20.66 533.21,-21.36"/>
<polygon fill="#63b8ff" stroke="#63b8ff" points="559.17,-22.69 568.84,-18.36 558.58,-15.71 559.17,-22.69"/>
</a>
</g>
</g>
<!-- Node3 -->
<g id="Node000003" class="node">
<title>Node3</title>
<g id="a_Node000003"><a xlink:href="../../d7/dc6/classChatManager.html#a02d518f4157ae45e4bf43f7501994ecd" target="_top" xlink:title=" ">
<polygon fill="white" stroke="#666666" points="326,-19 155,-19 155,0 326,0 326,-19"/>
<text text-anchor="middle" x="240.5" y="-7" font-family="Helvetica,sans-Serif" font-size="10.00">ChatManager::renderRightPanel</text>
</a>
</g>
</g>
<!-- Node1&#45;&gt;Node3 -->
<g id="edge4_Node000001_Node000003" class="edge">
<title>Node1&#45;&gt;Node3</title>
<g id="a_edge4_Node000001_Node000003"><a xlink:title=" ">
<path fill="none" stroke="#63b8ff" d="M558.57,-9.5C485.44,-9.5 392.48,-9.5 326.17,-9.5"/>
<polygon fill="#63b8ff" stroke="#63b8ff" points="558.75,-13 568.75,-9.5 558.75,-6 558.75,-13"/>
</a>
</g>
</g>
<!-- Node2&#45;&gt;Node3 -->
<g id="edge2_Node000002_Node000003" class="edge">
<title>Node2&#45;&gt;Node3</title>
<g id="a_edge2_Node000002_Node000003"><a xlink:title=" ">
<path fill="none" stroke="#63b8ff" d="M351.91,-19.73C343.34,-18.94 334.69,-18.14 326.2,-17.35"/>
<polygon fill="#63b8ff" stroke="#63b8ff" points="351.65,-23.22 361.94,-20.66 352.3,-16.25 351.65,-23.22"/>
</a>
</g>
</g>
<!-- Node4 -->
<g id="Node000004" class="node">
<title>Node4</title>
<g id="a_Node000004"><a xlink:href="../../d7/dc6/classChatManager.html#ae22b90f106a6b559be6533fda6c54fa5" target="_top" xlink:title=" ">
<polygon fill="white" stroke="#666666" points="119,-19 0,-19 0,0 119,0 119,-19"/>
<text text-anchor="middle" x="59.5" y="-7" font-family="Helvetica,sans-Serif" font-size="10.00">ChatManager::render</text>
</a>
</g>
</g>
<!-- Node3&#45;&gt;Node4 -->
<g id="edge3_Node000003_Node000004" class="edge">
<title>Node3&#45;&gt;Node4</title>
<g id="a_edge3_Node000003_Node000004"><a xlink:title=" ">
<path fill="none" stroke="#63b8ff" d="M144.74,-9.5C136.02,-9.5 127.37,-9.5 119.12,-9.5"/>
<polygon fill="#63b8ff" stroke="#63b8ff" points="144.98,-13 154.98,-9.5 144.98,-6 144.98,-13"/>
</a>
</g>
</g>
</g>
</svg>
