<?xml version="1.0" encoding="UTF-8" standalone="no"?>
<!DOCTYPE svg PUBLIC "-//W3C//DTD SVG 1.1//EN"
 "http://www.w3.org/Graphics/SVG/1.1/DTD/svg11.dtd">
<!-- Generated by graphviz version 2.43.0 (0)
 -->
<!-- Title: ChatManager::saveCurrent Pages: 1 -->
<svg width="786pt" height="140pt"
 viewBox="0.00 0.00 786.00 140.00" xmlns="http://www.w3.org/2000/svg" xmlns:xlink="http://www.w3.org/1999/xlink">
<g id="graph0" class="graph" transform="scale(1 1) rotate(0) translate(4 136)">
<title>ChatManager::saveCurrent</title>
<!-- Node1 -->
<g id="Node000001" class="node">
<title>Node1</title>
<g id="a_Node000001"><a xlink:title=" ">
<polygon fill="#999999" stroke="#666666" points="147,-94 0,-94 0,-75 147,-75 147,-94"/>
<text text-anchor="middle" x="73.5" y="-82" font-family="Helvetica,sans-Serif" font-size="10.00">ChatManager::saveCurrent</text>
</a>
</g>
</g>
<!-- Node2 -->
<g id="Node000002" class="node">
<title>Node2</title>
<g id="a_Node000002"><a xlink:href="../../d7/dc6/classChatManager.html#a7c4c2a8fe907802aaff347a997e4f230" target="_top" xlink:title=" ">
<polygon fill="white" stroke="#666666" points="345,-131 183,-131 183,-112 345,-112 345,-131"/>
<text text-anchor="middle" x="264" y="-119" font-family="Helvetica,sans-Serif" font-size="10.00">ChatManager::chatFilePathFor</text>
</a>
</g>
</g>
<!-- Node1&#45;&gt;Node2 -->
<g id="edge1_Node000001_Node000002" class="edge">
<title>Node1&#45;&gt;Node2</title>
<g id="a_edge1_Node000001_Node000002"><a xlink:title=" ">
<path fill="none" stroke="#63b8ff" d="M123.04,-94.03C147.79,-98.89 178.09,-104.83 204.16,-109.95"/>
<polygon fill="#63b8ff" stroke="#63b8ff" points="203.81,-113.45 214.29,-111.94 205.16,-106.58 203.81,-113.45"/>
</a>
</g>
</g>
<!-- Node5 -->
<g id="Node000005" class="node">
<title>Node5</title>
<g id="a_Node000005"><a xlink:href="../../d7/dc6/classChatManager.html#aecdeceb9be9b9b14c31f11526dbfd5a7" target="_top" xlink:title=" ">
<polygon fill="white" stroke="#666666" points="334.5,-94 193.5,-94 193.5,-75 334.5,-75 334.5,-94"/>
<text text-anchor="middle" x="264" y="-82" font-family="Helvetica,sans-Serif" font-size="10.00">ChatManager::hasCurrent</text>
</a>
</g>
</g>
<!-- Node1&#45;&gt;Node5 -->
<g id="edge4_Node000001_Node000005" class="edge">
<title>Node1&#45;&gt;Node5</title>
<g id="a_edge4_Node000001_Node000005"><a xlink:title=" ">
<path fill="none" stroke="#63b8ff" d="M147.11,-84.5C158.82,-84.5 171,-84.5 182.88,-84.5"/>
<polygon fill="#63b8ff" stroke="#63b8ff" points="183.22,-88 193.22,-84.5 183.22,-81 183.22,-88"/>
</a>
</g>
</g>
<!-- Node6 -->
<g id="Node000006" class="node">
<title>Node6</title>
<g id="a_Node000006"><a xlink:href="../../d7/dc6/classChatManager.html#a9a079a4cf27a53f06277fbe57f1d8555" target="_top" xlink:title=" ">
<polygon fill="white" stroke="#666666" points="328,-57 200,-57 200,-38 328,-38 328,-57"/>
<text text-anchor="middle" x="264" y="-45" font-family="Helvetica,sans-Serif" font-size="10.00">ChatManager::saveLog</text>
</a>
</g>
</g>
<!-- Node1&#45;&gt;Node6 -->
<g id="edge5_Node000001_Node000006" class="edge">
<title>Node1&#45;&gt;Node6</title>
<g id="a_edge5_Node000001_Node000006"><a xlink:title=" ">
<path fill="none" stroke="#63b8ff" d="M123.04,-74.97C147.79,-70.11 178.09,-64.17 204.16,-59.05"/>
<polygon fill="#63b8ff" stroke="#63b8ff" points="205.16,-62.42 214.29,-57.06 203.81,-55.55 205.16,-62.42"/>
</a>
</g>
</g>
<!-- Node3 -->
<g id="Node000003" class="node">
<title>Node3</title>
<g id="a_Node000003"><a xlink:href="../../d8/dec/classPathManager.html#a6be0a95403caf375f4d7b642f0f90061" target="_top" xlink:title=" ">
<polygon fill="white" stroke="#666666" points="564,-132 381,-132 381,-113 564,-113 564,-132"/>
<text text-anchor="middle" x="472.5" y="-120" font-family="Helvetica,sans-Serif" font-size="10.00">PathManager::getGameTablesPath</text>
</a>
</g>
</g>
<!-- Node2&#45;&gt;Node3 -->
<g id="edge2_Node000002_Node000003" class="edge">
<title>Node2&#45;&gt;Node3</title>
<g id="a_edge2_Node000002_Node000003"><a xlink:title=" ">
<path fill="none" stroke="#63b8ff" d="M345.13,-121.89C353.53,-121.93 362.13,-121.97 370.72,-122.01"/>
<polygon fill="#63b8ff" stroke="#63b8ff" points="370.76,-125.51 380.77,-122.06 370.79,-118.51 370.76,-125.51"/>
</a>
</g>
</g>
<!-- Node4 -->
<g id="Node000004" class="node">
<title>Node4</title>
<g id="a_Node000004"><a xlink:href="../../d8/dec/classPathManager.html#a467b459b77c73cbc7544551b53911fcd" target="_top" xlink:title=" ">
<polygon fill="white" stroke="#666666" points="778,-132 600,-132 600,-113 778,-113 778,-132"/>
<text text-anchor="middle" x="689" y="-120" font-family="Helvetica,sans-Serif" font-size="10.00">PathManager::getExecutableRoot</text>
</a>
</g>
</g>
<!-- Node3&#45;&gt;Node4 -->
<g id="edge3_Node000003_Node000004" class="edge">
<title>Node3&#45;&gt;Node4</title>
<g id="a_edge3_Node000003_Node000004"><a xlink:title=" ">
<path fill="none" stroke="#63b8ff" d="M564.16,-122.5C572.53,-122.5 581.04,-122.5 589.48,-122.5"/>
<polygon fill="#63b8ff" stroke="#63b8ff" points="589.72,-126 599.72,-122.5 589.72,-119 589.72,-126"/>
</a>
</g>
</g>
<!-- Node7 -->
<g id="Node000007" class="node">
<title>Node7</title>
<g id="a_Node000007"><a xlink:href="../../db/d4b/classSerializer.html#ac812cf485e5804fd6f22d34ae076f79f" target="_top" xlink:title=" ">
<polygon fill="white" stroke="#666666" points="750,-75 628,-75 628,-56 750,-56 750,-75"/>
<text text-anchor="middle" x="689" y="-63" font-family="Helvetica,sans-Serif" font-size="10.00">Serializer::serializeInt</text>
</a>
</g>
</g>
<!-- Node6&#45;&gt;Node7 -->
<g id="edge6_Node000006_Node000007" class="edge">
<title>Node6&#45;&gt;Node7</title>
<g id="a_edge6_Node000006_Node000007"><a xlink:title=" ">
<path fill="none" stroke="#63b8ff" d="M315.34,-57.04C335.65,-60.44 359.36,-63.83 381,-65.5 462.04,-71.75 555.48,-70.55 617.78,-68.56"/>
<polygon fill="#63b8ff" stroke="#63b8ff" points="618.02,-72.06 627.89,-68.23 617.78,-65.06 618.02,-72.06"/>
</a>
</g>
</g>
<!-- Node8 -->
<g id="Node000008" class="node">
<title>Node8</title>
<g id="a_Node000008"><a xlink:href="../../db/d4b/classSerializer.html#a8a72c08ebb91348dc2a7ef6557c44f6c" target="_top" xlink:title=" ">
<polygon fill="white" stroke="#666666" points="541.5,-56 403.5,-56 403.5,-37 541.5,-37 541.5,-56"/>
<text text-anchor="middle" x="472.5" y="-44" font-family="Helvetica,sans-Serif" font-size="10.00">Serializer::serializeString</text>
</a>
</g>
</g>
<!-- Node6&#45;&gt;Node8 -->
<g id="edge7_Node000006_Node000008" class="edge">
<title>Node6&#45;&gt;Node8</title>
<g id="a_edge7_Node000006_Node000008"><a xlink:title=" ">
<path fill="none" stroke="#63b8ff" d="M328.08,-47.19C348.66,-47.09 371.76,-46.98 393.32,-46.88"/>
<polygon fill="#63b8ff" stroke="#63b8ff" points="393.44,-50.38 403.42,-46.83 393.41,-43.38 393.44,-50.38"/>
</a>
</g>
</g>
<!-- Node9 -->
<g id="Node000009" class="node">
<title>Node9</title>
<g id="a_Node000009"><a xlink:href="../../db/d4b/classSerializer.html#a60889622ee4e36ea28a284e99bbdf4e5" target="_top" xlink:title=" ">
<polygon fill="white" stroke="#666666" points="543.5,-19 401.5,-19 401.5,0 543.5,0 543.5,-19"/>
<text text-anchor="middle" x="472.5" y="-7" font-family="Helvetica,sans-Serif" font-size="10.00">Serializer::serializeUInt64</text>
</a>
</g>
</g>
<!-- Node6&#45;&gt;Node9 -->
<g id="edge9_Node000006_Node000009" class="edge">
<title>Node6&#45;&gt;Node9</title>
<g id="a_edge9_Node000006_Node000009"><a xlink:title=" ">
<path fill="none" stroke="#63b8ff" d="M316.84,-37.96C344.95,-32.79 379.88,-26.36 409.43,-20.92"/>
<polygon fill="#63b8ff" stroke="#63b8ff" points="410.44,-24.3 419.64,-19.04 409.17,-17.41 410.44,-24.3"/>
</a>
</g>
</g>
<!-- Node8&#45;&gt;Node7 -->
<g id="edge8_Node000008_Node000007" class="edge">
<title>Node8&#45;&gt;Node7</title>
<g id="a_edge8_Node000008_Node000007"><a xlink:title=" ">
<path fill="none" stroke="#63b8ff" d="M541.66,-52.54C565.92,-54.69 593.27,-57.11 617.71,-59.27"/>
<polygon fill="#63b8ff" stroke="#63b8ff" points="617.71,-62.79 627.98,-60.18 618.33,-55.81 617.71,-62.79"/>
</a>
</g>
</g>
</g>
</svg>
