<?xml version="1.0" encoding="UTF-8" standalone="no"?>
<!DOCTYPE svg PUBLIC "-//W3C//DTD SVG 1.1//EN"
 "http://www.w3.org/Graphics/SVG/1.1/DTD/svg11.dtd">
<!-- Generated by graphviz version 2.43.0 (0)
 -->
<!-- Title: ChatManager::ensureGeneral Pages: 1 -->
<svg width="734pt" height="59pt"
 viewBox="0.00 0.00 734.00 59.10" xmlns="http://www.w3.org/2000/svg" xmlns:xlink="http://www.w3.org/1999/xlink">
<g id="graph0" class="graph" transform="scale(1 1) rotate(0) translate(4 55.1)">
<title>ChatManager::ensureGeneral</title>
<!-- Node1 -->
<g id="Node000001" class="node">
<title>Node1</title>
<g id="a_Node000001"><a xlink:title=" ">
<polygon fill="#999999" stroke="#666666" points="726,-38 567,-38 567,-19 726,-19 726,-38"/>
<text text-anchor="middle" x="646.5" y="-26" font-family="Helvetica,sans-Serif" font-size="10.00">ChatManager::ensureGeneral</text>
</a>
</g>
</g>
<!-- Node2 -->
<g id="Node000002" class="node">
<title>Node2</title>
<g id="a_Node000002"><a xlink:href="../../d7/dc6/classChatManager.html#a2bd172979a809d742db08764a60b3378" target="_top" xlink:title=" ">
<polygon fill="white" stroke="#666666" points="369,-38 224,-38 224,-19 369,-19 369,-38"/>
<text text-anchor="middle" x="296.5" y="-26" font-family="Helvetica,sans-Serif" font-size="10.00">ChatManager::loadCurrent</text>
</a>
</g>
</g>
<!-- Node1&#45;&gt;Node2 -->
<g id="edge1_Node000001_Node000002" class="edge">
<title>Node1&#45;&gt;Node2</title>
<g id="a_edge1_Node000001_Node000002"><a xlink:title=" ">
<path fill="none" stroke="#63b8ff" d="M588.95,-39.78C570.55,-42.94 549.98,-45.94 531,-47.5 475.19,-52.1 460.79,-52.39 405,-47.5 383.85,-45.65 360.64,-41.78 341.2,-38.01"/>
<polygon fill="#63b8ff" stroke="#63b8ff" points="589.68,-43.2 598.92,-38.01 588.46,-36.31 589.68,-43.2"/>
</a>
</g>
</g>
<!-- Node3 -->
<g id="Node000003" class="node">
<title>Node3</title>
<g id="a_Node000003"><a xlink:href="../../d7/dc6/classChatManager.html#a6bf284d1ba8a95c8963efa930ac2c571" target="_top" xlink:title=" ">
<polygon fill="white" stroke="#666666" points="188,-19 0,-19 0,0 188,0 188,-19"/>
<text text-anchor="middle" x="94" y="-7" font-family="Helvetica,sans-Serif" font-size="10.00">ChatManager::setActiveGameTable</text>
</a>
</g>
</g>
<!-- Node1&#45;&gt;Node3 -->
<g id="edge5_Node000001_Node000003" class="edge">
<title>Node1&#45;&gt;Node3</title>
<g id="a_edge5_Node000001_Node000003"><a xlink:title=" ">
<path fill="none" stroke="#63b8ff" d="M585.7,-17.32C568.14,-14.52 548.86,-11.92 531,-10.5 413.1,-1.15 276.7,-2.84 188.3,-5.58"/>
<polygon fill="#63b8ff" stroke="#63b8ff" points="585.38,-20.82 595.82,-18.99 586.52,-13.91 585.38,-20.82"/>
</a>
</g>
</g>
<!-- Node4 -->
<g id="Node000004" class="node">
<title>Node4</title>
<g id="a_Node000004"><a xlink:href="../../d7/dc6/classChatManager.html#accb252df2461a07682a79f73f50e2c34" target="_top" xlink:title=" ">
<polygon fill="white" stroke="#666666" points="531,-38 405,-38 405,-19 531,-19 531,-38"/>
<text text-anchor="middle" x="468" y="-26" font-family="Helvetica,sans-Serif" font-size="10.00">ChatManager::loadLog</text>
</a>
</g>
</g>
<!-- Node1&#45;&gt;Node4 -->
<g id="edge3_Node000001_Node000004" class="edge">
<title>Node1&#45;&gt;Node4</title>
<g id="a_edge3_Node000001_Node000004"><a xlink:title=" ">
<path fill="none" stroke="#63b8ff" d="M556.68,-28.5C548.05,-28.5 539.42,-28.5 531.13,-28.5"/>
<polygon fill="#63b8ff" stroke="#63b8ff" points="556.8,-32 566.8,-28.5 556.8,-25 556.8,-32"/>
</a>
</g>
</g>
<!-- Node2&#45;&gt;Node3 -->
<g id="edge2_Node000002_Node000003" class="edge">
<title>Node2&#45;&gt;Node3</title>
<g id="a_edge2_Node000002_Node000003"><a xlink:title=" ">
<path fill="none" stroke="#63b8ff" d="M213.8,-20.76C205.37,-19.96 196.77,-19.14 188.23,-18.33"/>
<polygon fill="#63b8ff" stroke="#63b8ff" points="213.68,-24.26 223.96,-21.72 214.34,-17.29 213.68,-24.26"/>
</a>
</g>
</g>
<!-- Node4&#45;&gt;Node2 -->
<g id="edge4_Node000004_Node000002" class="edge">
<title>Node4&#45;&gt;Node2</title>
<g id="a_edge4_Node000004_Node000002"><a xlink:title=" ">
<path fill="none" stroke="#63b8ff" d="M394.64,-28.5C386.18,-28.5 377.56,-28.5 369.11,-28.5"/>
<polygon fill="#63b8ff" stroke="#63b8ff" points="394.85,-32 404.85,-28.5 394.85,-25 394.85,-32"/>
</a>
</g>
</g>
</g>
</svg>
