<?xml version="1.0" encoding="UTF-8" standalone="no"?>
<!DOCTYPE svg PUBLIC "-//W3C//DTD SVG 1.1//EN"
 "http://www.w3.org/Graphics/SVG/1.1/DTD/svg11.dtd">
<!-- Generated by graphviz version 2.43.0 (0)
 -->
<!-- Title: ChatManager::markGroupRead Pages: 1 -->
<svg width="784pt" height="123pt"
 viewBox="0.00 0.00 784.00 122.81" xmlns="http://www.w3.org/2000/svg" xmlns:xlink="http://www.w3.org/1999/xlink">
<g id="graph0" class="graph" transform="scale(1 1) rotate(0) translate(4 118.81)">
<title>ChatManager::markGroupRead</title>
<!-- Node1 -->
<g id="Node000001" class="node">
<title>Node1</title>
<g id="a_Node000001"><a xlink:title=" ">
<polygon fill="#999999" stroke="#666666" points="776,-57.81 609,-57.81 609,-38.81 776,-38.81 776,-57.81"/>
<text text-anchor="middle" x="692.5" y="-45.81" font-family="Helvetica,sans-Serif" font-size="10.00">ChatManager::markGroupRead</text>
</a>
</g>
</g>
<!-- Node2 -->
<g id="Node000002" class="node">
<title>Node2</title>
<g id="a_Node000002"><a xlink:href="../../d7/dc6/classChatManager.html#a39192cb28eae0d798fa923a30302afa0" target="_top" xlink:title=" ">
<polygon fill="white" stroke="#666666" points="573,-114.81 362,-114.81 362,-95.81 573,-95.81 573,-114.81"/>
<text text-anchor="middle" x="467.5" y="-102.81" font-family="Helvetica,sans-Serif" font-size="10.00">ChatManager::renderCreateGroupPopup</text>
</a>
</g>
</g>
<!-- Node1&#45;&gt;Node2 -->
<g id="edge1_Node000001_Node000002" class="edge">
<title>Node1&#45;&gt;Node2</title>
<g id="a_edge1_Node000001_Node000002"><a xlink:title=" ">
<path fill="none" stroke="#63b8ff" d="M649.3,-60.57C626.73,-66.99 598.42,-74.85 573,-81.31 553.06,-86.37 530.87,-91.53 512.08,-95.77"/>
<polygon fill="#63b8ff" stroke="#63b8ff" points="650.26,-63.93 658.91,-57.81 648.34,-57.2 650.26,-63.93"/>
</a>
</g>
</g>
<!-- Node3 -->
<g id="Node000003" class="node">
<title>Node3</title>
<g id="a_Node000003"><a xlink:href="../../d7/dc6/classChatManager.html#afb35f5cfd70af565c23555f8652cacf3" target="_top" xlink:title=" ">
<polygon fill="white" stroke="#666666" points="322.5,-57.81 158.5,-57.81 158.5,-38.81 322.5,-38.81 322.5,-57.81"/>
<text text-anchor="middle" x="240.5" y="-45.81" font-family="Helvetica,sans-Serif" font-size="10.00">ChatManager::renderLeftPanel</text>
</a>
</g>
</g>
<!-- Node1&#45;&gt;Node3 -->
<g id="edge6_Node000001_Node000003" class="edge">
<title>Node1&#45;&gt;Node3</title>
<g id="a_edge6_Node000001_Node000003"><a xlink:title=" ">
<path fill="none" stroke="#63b8ff" d="M598.73,-48.31C517.43,-48.31 400.43,-48.31 322.76,-48.31"/>
<polygon fill="#63b8ff" stroke="#63b8ff" points="598.96,-51.81 608.96,-48.31 598.96,-44.81 598.96,-51.81"/>
</a>
</g>
</g>
<!-- Node5 -->
<g id="Node000005" class="node">
<title>Node5</title>
<g id="a_Node000005"><a xlink:href="../../d7/dc6/classChatManager.html#a2a7f8794c7ba31096eba399192bba538" target="_top" xlink:title=" ">
<polygon fill="white" stroke="#666666" points="566,-38.81 369,-38.81 369,-19.81 566,-19.81 566,-38.81"/>
<text text-anchor="middle" x="467.5" y="-26.81" font-family="Helvetica,sans-Serif" font-size="10.00">ChatManager::renderEditGroupPopup</text>
</a>
</g>
</g>
<!-- Node1&#45;&gt;Node5 -->
<g id="edge4_Node000001_Node000005" class="edge">
<title>Node1&#45;&gt;Node5</title>
<g id="a_edge4_Node000001_Node000005"><a xlink:title=" ">
<path fill="none" stroke="#63b8ff" d="M598.59,-40.39C587.88,-39.48 576.93,-38.55 566.16,-37.63"/>
<polygon fill="#63b8ff" stroke="#63b8ff" points="598.52,-43.9 608.78,-41.26 599.11,-36.92 598.52,-43.9"/>
</a>
</g>
</g>
<!-- Node6 -->
<g id="Node000006" class="node">
<title>Node6</title>
<g id="a_Node000006"><a xlink:href="../../d7/dc6/classChatManager.html#a02d518f4157ae45e4bf43f7501994ecd" target="_top" xlink:title=" ">
<polygon fill="white" stroke="#666666" points="326,-20.81 155,-20.81 155,-1.81 326,-1.81 326,-20.81"/>
<text text-anchor="middle" x="240.5" y="-8.81" font-family="Helvetica,sans-Serif" font-size="10.00">ChatManager::renderRightPanel</text>
</a>
</g>
</g>
<!-- Node1&#45;&gt;Node6 -->
<g id="edge7_Node000001_Node000006" class="edge">
<title>Node1&#45;&gt;Node6</title>
<g id="a_edge7_Node000001_Node000006"><a xlink:title=" ">
<path fill="none" stroke="#63b8ff" d="M659.4,-35.02C635.93,-26.04 603.07,-15.01 573,-10.31 489.84,2.7 393.51,0.52 326.19,-3.74"/>
<polygon fill="#63b8ff" stroke="#63b8ff" points="658.27,-38.33 668.85,-38.71 660.81,-31.81 658.27,-38.33"/>
</a>
</g>
</g>
<!-- Node2&#45;&gt;Node3 -->
<g id="edge2_Node000002_Node000003" class="edge">
<title>Node2&#45;&gt;Node3</title>
<g id="a_edge2_Node000002_Node000003"><a xlink:title=" ">
<path fill="none" stroke="#63b8ff" d="M413.19,-93.51C396.74,-89.75 378.59,-85.48 362,-81.31 332.45,-73.87 299.04,-64.66 274.9,-57.86"/>
<polygon fill="#63b8ff" stroke="#63b8ff" points="412.66,-96.98 423.19,-95.78 414.21,-90.16 412.66,-96.98"/>
</a>
</g>
</g>
<!-- Node4 -->
<g id="Node000004" class="node">
<title>Node4</title>
<g id="a_Node000004"><a xlink:href="../../d7/dc6/classChatManager.html#ae22b90f106a6b559be6533fda6c54fa5" target="_top" xlink:title=" ">
<polygon fill="white" stroke="#666666" points="119,-38.81 0,-38.81 0,-19.81 119,-19.81 119,-38.81"/>
<text text-anchor="middle" x="59.5" y="-26.81" font-family="Helvetica,sans-Serif" font-size="10.00">ChatManager::render</text>
</a>
</g>
</g>
<!-- Node3&#45;&gt;Node4 -->
<g id="edge3_Node000003_Node000004" class="edge">
<title>Node3&#45;&gt;Node4</title>
<g id="a_edge3_Node000003_Node000004"><a xlink:title=" ">
<path fill="none" stroke="#63b8ff" d="M148.43,-38.64C138.47,-37.58 128.54,-36.53 119.13,-35.53"/>
<polygon fill="#63b8ff" stroke="#63b8ff" points="148.07,-42.12 158.38,-39.7 148.81,-35.16 148.07,-42.12"/>
</a>
</g>
</g>
<!-- Node5&#45;&gt;Node3 -->
<g id="edge5_Node000005_Node000003" class="edge">
<title>Node5&#45;&gt;Node3</title>
<g id="a_edge5_Node000005_Node000003"><a xlink:title=" ">
<path fill="none" stroke="#63b8ff" d="M358.63,-38.42C346.5,-39.44 334.3,-40.47 322.59,-41.46"/>
<polygon fill="#63b8ff" stroke="#63b8ff" points="359.12,-41.89 368.79,-37.56 358.53,-34.91 359.12,-41.89"/>
</a>
</g>
</g>
<!-- Node6&#45;&gt;Node4 -->
<g id="edge8_Node000006_Node000004" class="edge">
<title>Node6&#45;&gt;Node4</title>
<g id="a_edge8_Node000006_Node000004"><a xlink:title=" ">
<path fill="none" stroke="#63b8ff" d="M145.02,-20.81C136.21,-21.69 127.46,-22.57 119.12,-23.41"/>
<polygon fill="#63b8ff" stroke="#63b8ff" points="145.38,-24.29 154.98,-19.81 144.68,-17.32 145.38,-24.29"/>
</a>
</g>
</g>
</g>
</svg>
