<?xml version="1.0" encoding="UTF-8" standalone="no"?>
<!DOCTYPE svg PUBLIC "-//W3C//DTD SVG 1.1//EN"
 "http://www.w3.org/Graphics/SVG/1.1/DTD/svg11.dtd">
<!-- Generated by graphviz version 2.43.0 (0)
 -->
<!-- Title: ChatManager::applyReady Pages: 1 -->
<svg width="491pt" height="101pt"
 viewBox="0.00 0.00 491.00 101.00" xmlns="http://www.w3.org/2000/svg" xmlns:xlink="http://www.w3.org/1999/xlink">

<svg id="main" version="1.1" xmlns="http://www.w3.org/2000/svg" xmlns:xlink="http://www.w3.org/1999/xlink" xml:space="preserve" onload="init(evt)">
<style type="text/css"><![CDATA[
.node, .edge {opacity: 0.7;}
.node.selected, .edge.selected {opacity: 1;}
.edge:hover path { stroke: red; }
.edge:hover polygon { stroke: red; fill: red; }
]]></style>
<script type="application/ecmascript" xlink:href="../../svg.min.js"/>
<svg id="graph" class="graph">
<g id="graph0" class="graph" transform="scale(1 1) rotate(0) translate(4 97)">
<title>ChatManager::applyReady</title>
<!-- Node1 -->
<g id="Node000001" class="node">
<title>Node1</title>
<g id="a_Node000001"><a xlink:title=" ">
<polygon fill="#999999" stroke="#666666" points="146,-56 0,-56 0,-37 146,-37 146,-56"/>
<text text-anchor="middle" x="73" y="-44" font-family="Helvetica,sans-Serif" font-size="10.00">ChatManager::applyReady</text>
</a>
</g>
</g>
<!-- Node2 -->
<g id="Node000002" class="node">
<title>Node2</title>
<g id="a_Node000002"><a xlink:href="../../d7/dc6/classChatManager.html#aab66b4f8e1ca105e3670836cffdeb2fa" target="_top" xlink:title=" ">
<polygon fill="white" stroke="#666666" points="350,-93 182,-93 182,-74 350,-74 350,-93"/>
<text text-anchor="middle" x="266" y="-81" font-family="Helvetica,sans-Serif" font-size="10.00">ChatManager::classifyMessage</text>
</a>
</g>
</g>
<!-- Node1&#45;&gt;Node2 -->
<g id="edge1_Node000001_Node000002" class="edge">
<title>Node1&#45;&gt;Node2</title>
<g id="a_edge1_Node000001_Node000002"><a xlink:title=" ">
<path fill="none" stroke="#63b8ff" d="M123.19,-56.03C148.38,-60.91 179.24,-66.89 205.73,-72.02"/>
<polygon fill="#63b8ff" stroke="#63b8ff" points="205.16,-75.47 215.65,-73.94 206.5,-68.6 205.16,-75.47"/>
</a>
</g>
</g>
<!-- Node4 -->
<g id="Node000004" class="node">
<title>Node4</title>
<g id="a_Node000004"><a xlink:href="../../d7/dc6/classChatManager.html#a19ecba5f58757b7ce91ad2f3b57f87a3" target="_top" xlink:title=" ">
<polygon fill="white" stroke="#666666" points="332.5,-56 199.5,-56 199.5,-37 332.5,-37 332.5,-56"/>
<text text-anchor="middle" x="266" y="-44" font-family="Helvetica,sans-Serif" font-size="10.00">ChatManager::getGroup</text>
</a>
</g>
</g>
<!-- Node1&#45;&gt;Node4 -->
<g id="edge3_Node000001_Node000004" class="edge">
<title>Node1&#45;&gt;Node4</title>
<g id="a_edge3_Node000001_Node000004"><a xlink:title=" ">
<path fill="none" stroke="#63b8ff" d="M146.21,-46.5C160.24,-46.5 174.98,-46.5 189.12,-46.5"/>
<polygon fill="#63b8ff" stroke="#63b8ff" points="189.29,-50 199.29,-46.5 189.29,-43 189.29,-50"/>
</a>
</g>
</g>
<!-- Node5 -->
<g id="Node000005" class="node">
<title>Node5</title>
<g id="a_Node000005"><a xlink:href="../../db/d67/classLogger.html#aebb248e608f8e2724de20b482cb2a15f" target="_top" xlink:title=" ">
<polygon fill="white" stroke="#666666" points="314.5,-19 217.5,-19 217.5,0 314.5,0 314.5,-19"/>
<text text-anchor="middle" x="266" y="-7" font-family="Helvetica,sans-Serif" font-size="10.00">Logger::instance</text>
</a>
</g>
</g>
<!-- Node1&#45;&gt;Node5 -->
<g id="edge4_Node000001_Node000005" class="edge">
<title>Node1&#45;&gt;Node5</title>
<g id="a_edge4_Node000001_Node000005"><a xlink:title=" ">
<path fill="none" stroke="#63b8ff" d="M123.19,-36.97C148.87,-32 180.44,-25.88 207.27,-20.68"/>
<polygon fill="#63b8ff" stroke="#63b8ff" points="208.15,-24.08 217.3,-18.74 206.82,-17.21 208.15,-24.08"/>
</a>
</g>
</g>
<!-- Node3 -->
<g id="Node000003" class="node">
<title>Node3</title>
<g id="a_Node000003"><a xlink:href="../../d2/dae/ChatManager_8cpp.html#aad5eed848015271ba953705f1e4cc3b1" target="_top" xlink:title=" ">
<polygon fill="white" stroke="#666666" points="483,-93 386,-93 386,-74 483,-74 483,-93"/>
<text text-anchor="middle" x="434.5" y="-81" font-family="Helvetica,sans-Serif" font-size="10.00">ends_with_icase</text>
</a>
</g>
</g>
<!-- Node2&#45;&gt;Node3 -->
<g id="edge2_Node000002_Node000003" class="edge">
<title>Node2&#45;&gt;Node3</title>
<g id="a_edge2_Node000002_Node000003"><a xlink:title=" ">
<path fill="none" stroke="#63b8ff" d="M350.25,-83.5C358.82,-83.5 367.4,-83.5 375.61,-83.5"/>
<polygon fill="#63b8ff" stroke="#63b8ff" points="375.79,-87 385.79,-83.5 375.79,-80 375.79,-87"/>
</a>
</g>
</g>
</g>
</svg>
</svg>

<style type='text/css'>
<![CDATA[
[data-mouse-over-selected='false'] { opacity: 0.7; }
[data-mouse-over-selected='true']  { opacity: 1.0; }
]]>
</style>
<script type="application/ecmascript"><![CDATA[
document.addEventListener('DOMContentLoaded', (event) => {
  highlightEdges();
  highlightAdjacentNodes();
});
]]></script>
</svg>
