<?xml version="1.0" encoding="UTF-8" standalone="no"?>
<!DOCTYPE svg PUBLIC "-//W3C//DTD SVG 1.1//EN"
 "http://www.w3.org/Graphics/SVG/1.1/DTD/svg11.dtd">
<!-- Generated by graphviz version 2.43.0 (0)
 -->
<!-- Title: ChatManager::renderRightPanel Pages: 1 -->
<svg width="1328pt" height="395pt"
 viewBox="0.00 0.00 1328.00 395.00" xmlns="http://www.w3.org/2000/svg" xmlns:xlink="http://www.w3.org/1999/xlink">
<g id="graph0" class="graph" transform="scale(1 1) rotate(0) translate(4 391)">
<title>ChatManager::renderRightPanel</title>
<!-- Node1 -->
<g id="Node000001" class="node">
<title>Node1</title>
<g id="a_Node000001"><a xlink:title=" ">
<polygon fill="#999999" stroke="#666666" points="171,-189 0,-189 0,-170 171,-170 171,-189"/>
<text text-anchor="middle" x="85.5" y="-177" font-family="Helvetica,sans-Serif" font-size="10.00">ChatManager::renderRightPanel</text>
</a>
</g>
</g>
<!-- Node2 -->
<g id="Node000002" class="node">
<title>Node2</title>
<g id="a_Node000002"><a xlink:href="../../d7/dc6/classChatManager.html#a5d3271287b7cf86e09500f25f93052dc" target="_top" xlink:title=" ">
<polygon fill="white" stroke="#666666" points="905,-350 698,-350 698,-331 905,-331 905,-350"/>
<text text-anchor="middle" x="801.5" y="-338" font-family="Helvetica,sans-Serif" font-size="10.00">ChatManager::emitChatMessageFrame</text>
</a>
</g>
</g>
<!-- Node1&#45;&gt;Node2 -->
<g id="edge1_Node000001_Node000002" class="edge">
<title>Node1&#45;&gt;Node2</title>
<g id="a_edge1_Node000001_Node000002"><a xlink:title=" ">
<path fill="none" stroke="#63b8ff" d="M91.39,-189.06C105.31,-215.1 147.95,-287.27 207,-316.5 388.08,-406.13 639.63,-372.62 747.71,-351.96"/>
<polygon fill="#63b8ff" stroke="#63b8ff" points="748.57,-355.36 757.72,-350.01 747.23,-348.49 748.57,-355.36"/>
</a>
</g>
</g>
<!-- Node7 -->
<g id="Node000007" class="node">
<title>Node7</title>
<g id="a_Node000007"><a xlink:href="../../d7/dc6/classChatManager.html#a19ecba5f58757b7ce91ad2f3b57f87a3" target="_top" xlink:title=" ">
<polygon fill="white" stroke="#666666" points="1123.5,-132 990.5,-132 990.5,-113 1123.5,-113 1123.5,-132"/>
<text text-anchor="middle" x="1057" y="-120" font-family="Helvetica,sans-Serif" font-size="10.00">ChatManager::getGroup</text>
</a>
</g>
</g>
<!-- Node1&#45;&gt;Node7 -->
<g id="edge6_Node000001_Node000007" class="edge">
<title>Node1&#45;&gt;Node7</title>
<g id="a_edge6_Node000001_Node000007"><a xlink:title=" ">
<path fill="none" stroke="#63b8ff" d="M171.11,-176.17C319.73,-170.07 637.3,-155.93 905,-136.5 929.47,-134.72 956.13,-132.39 980.15,-130.13"/>
<polygon fill="#63b8ff" stroke="#63b8ff" points="980.64,-133.6 990.27,-129.17 979.98,-126.63 980.64,-133.6"/>
</a>
</g>
</g>
<!-- Node8 -->
<g id="Node000008" class="node">
<title>Node8</title>
<g id="a_Node000008"><a xlink:href="../../d7/dc6/classChatManager.html#aeff98e92f11b66ee90059fcdbf28b44b" target="_top" xlink:title=" ">
<polygon fill="white" stroke="#666666" points="639.5,-132 472.5,-132 472.5,-113 639.5,-113 639.5,-132"/>
<text text-anchor="middle" x="556" y="-120" font-family="Helvetica,sans-Serif" font-size="10.00">ChatManager::markGroupRead</text>
</a>
</g>
</g>
<!-- Node1&#45;&gt;Node8 -->
<g id="edge7_Node000001_Node000008" class="edge">
<title>Node1&#45;&gt;Node8</title>
<g id="a_edge7_Node000001_Node000008"><a xlink:title=" ">
<path fill="none" stroke="#63b8ff" d="M115.36,-169.86C139.54,-162.2 175.14,-151.91 207,-146.5 292.65,-131.97 391.57,-126.19 462.01,-123.91"/>
<polygon fill="#63b8ff" stroke="#63b8ff" points="462.3,-127.4 472.19,-123.6 462.09,-120.41 462.3,-127.4"/>
</a>
</g>
</g>
<!-- Node9 -->
<g id="Node000009" class="node">
<title>Node9</title>
<g id="a_Node000009"><a xlink:href="../../d7/dc6/classChatManager.html#a32d2186b680379541c02b5212cebcabc" target="_top" xlink:title=" ">
<polygon fill="white" stroke="#666666" points="864,-294 739,-294 739,-275 864,-275 864,-294"/>
<text text-anchor="middle" x="801.5" y="-282" font-family="Helvetica,sans-Serif" font-size="10.00">ChatManager::nowSec</text>
</a>
</g>
</g>
<!-- Node1&#45;&gt;Node9 -->
<g id="edge9_Node000001_Node000009" class="edge">
<title>Node1&#45;&gt;Node9</title>
<g id="a_edge9_Node000001_Node000009"><a xlink:title=" ">
<path fill="none" stroke="#63b8ff" d="M93.93,-189.23C111.06,-210.79 155.81,-262.28 207,-282.5 395.73,-357.06 645.33,-318.09 750.45,-296.13"/>
<polygon fill="#63b8ff" stroke="#63b8ff" points="751.41,-299.51 760.46,-294 749.95,-292.66 751.41,-299.51"/>
</a>
</g>
</g>
<!-- Node10 -->
<g id="Node000010" class="node">
<title>Node10</title>
<g id="a_Node000010"><a xlink:href="../../d7/dc6/classChatManager.html#a12a185f305c7886960e02f78c61ccd18" target="_top" xlink:title=" ">
<polygon fill="white" stroke="#666666" points="891.5,-94 711.5,-94 711.5,-75 891.5,-75 891.5,-94"/>
<text text-anchor="middle" x="801.5" y="-82" font-family="Helvetica,sans-Serif" font-size="10.00">ChatManager::pushMessageLocal</text>
</a>
</g>
</g>
<!-- Node1&#45;&gt;Node10 -->
<g id="edge10_Node000001_Node000010" class="edge">
<title>Node1&#45;&gt;Node10</title>
<g id="a_edge10_Node000001_Node000010"><a xlink:title=" ">
<path fill="none" stroke="#63b8ff" d="M102.16,-169.8C124.48,-156.51 167.19,-133.09 207,-122.5 376.19,-77.5 581.62,-75.44 701.06,-79.18"/>
<polygon fill="#63b8ff" stroke="#63b8ff" points="701.17,-82.69 711.28,-79.52 701.41,-75.69 701.17,-82.69"/>
</a>
</g>
</g>
<!-- Node14 -->
<g id="Node000014" class="node">
<title>Node14</title>
<g id="a_Node000014"><a xlink:href="../../d7/dc6/classChatManager.html#a668fcd8523ba10e99f74dc04cb8ee16d" target="_top" xlink:title=" ">
<polygon fill="white" stroke="#666666" points="414,-56 207,-56 207,-37 414,-37 414,-56"/>
<text text-anchor="middle" x="310.5" y="-44" font-family="Helvetica,sans-Serif" font-size="10.00">ChatManager::renderColoredUsername</text>
</a>
</g>
</g>
<!-- Node1&#45;&gt;Node14 -->
<g id="edge15_Node000001_Node000014" class="edge">
<title>Node1&#45;&gt;Node14</title>
<g id="a_edge15_Node000001_Node000014"><a xlink:title=" ">
<path fill="none" stroke="#63b8ff" d="M94.1,-169.89C111.59,-148.48 157.03,-96.69 207,-70.5 216.14,-65.71 226.23,-61.87 236.42,-58.78"/>
<polygon fill="#63b8ff" stroke="#63b8ff" points="237.49,-62.12 246.18,-56.06 235.6,-55.38 237.49,-62.12"/>
</a>
</g>
</g>
<!-- Node17 -->
<g id="Node000017" class="node">
<title>Node17</title>
<g id="a_Node000017"><a xlink:href="../../d7/dc6/classChatManager.html#a5b19f0632a911a519401b1b40e70db7c" target="_top" xlink:title=" ">
<polygon fill="white" stroke="#666666" points="396,-246 225,-246 225,-227 396,-227 396,-246"/>
<text text-anchor="middle" x="310.5" y="-234" font-family="Helvetica,sans-Serif" font-size="10.00">ChatManager::renderDicePopup</text>
</a>
</g>
</g>
<!-- Node1&#45;&gt;Node17 -->
<g id="edge18_Node000001_Node000017" class="edge">
<title>Node1&#45;&gt;Node17</title>
<g id="a_edge18_Node000001_Node000017"><a xlink:title=" ">
<path fill="none" stroke="#63b8ff" d="M119.91,-189.01C144.05,-195.79 177.46,-205 207,-212.5 223.36,-216.65 241.25,-220.93 257.44,-224.71"/>
<polygon fill="#63b8ff" stroke="#63b8ff" points="256.74,-228.14 267.27,-226.99 258.32,-221.32 256.74,-228.14"/>
</a>
</g>
</g>
<!-- Node18 -->
<g id="Node000018" class="node">
<title>Node18</title>
<g id="a_Node000018"><a xlink:href="../../d9/dff/namespaceUiTypingGuard.html#a63a23afb57376e34f2fac5999eb9f1d9" target="_top" xlink:title=" ">
<polygon fill="white" stroke="#666666" points="638,-227 474,-227 474,-208 638,-208 638,-227"/>
<text text-anchor="middle" x="556" y="-215" font-family="Helvetica,sans-Serif" font-size="10.00">UiTypingGuard::TrackThisInput</text>
</a>
</g>
</g>
<!-- Node1&#45;&gt;Node18 -->
<g id="edge25_Node000001_Node000018" class="edge">
<title>Node1&#45;&gt;Node18</title>
<g id="a_edge25_Node000001_Node000018"><a xlink:title=" ">
<path fill="none" stroke="#63b8ff" d="M171.07,-186.36C253.64,-193.06 378.89,-203.22 463.69,-210.09"/>
<polygon fill="#63b8ff" stroke="#63b8ff" points="463.58,-213.6 473.83,-210.92 464.14,-206.62 463.58,-213.6"/>
</a>
</g>
</g>
<!-- Node19 -->
<g id="Node000019" class="node">
<title>Node19</title>
<g id="a_Node000019"><a xlink:href="../../d7/dc6/classChatManager.html#a5596a59f560f4f30aca7ac68a8b58451" target="_top" xlink:title=" ">
<polygon fill="white" stroke="#666666" points="662,-284 450,-284 450,-265 662,-265 662,-284"/>
<text text-anchor="middle" x="556" y="-272" font-family="Helvetica,sans-Serif" font-size="10.00">ChatManager::tryHandleSlashCommand</text>
</a>
</g>
</g>
<!-- Node1&#45;&gt;Node19 -->
<g id="edge26_Node000001_Node000019" class="edge">
<title>Node1&#45;&gt;Node19</title>
<g id="a_edge26_Node000001_Node000019"><a xlink:title=" ">
<path fill="none" stroke="#63b8ff" d="M97.47,-189.2C117.54,-206.28 162.23,-241.23 207,-255.5 282,-279.41 370.65,-283.93 439.7,-282.58"/>
<polygon fill="#63b8ff" stroke="#63b8ff" points="439.83,-286.08 449.75,-282.34 439.67,-279.08 439.83,-286.08"/>
</a>
</g>
</g>
<!-- Node20 -->
<g id="Node000020" class="node">
<title>Node20</title>
<g id="a_Node000020"><a xlink:href="../../d7/dc6/classChatManager.html#a0352e927885dc98198b0d77bb8213c22" target="_top" xlink:title=" ">
<polygon fill="white" stroke="#666666" points="404,-19 217,-19 217,0 404,0 404,-19"/>
<text text-anchor="middle" x="310.5" y="-7" font-family="Helvetica,sans-Serif" font-size="10.00">ChatManager::renderPlainMessage</text>
</a>
</g>
</g>
<!-- Node1&#45;&gt;Node20 -->
<g id="edge24_Node000001_Node000020" class="edge">
<title>Node1&#45;&gt;Node20</title>
<g id="a_edge24_Node000001_Node000020"><a xlink:title=" ">
<path fill="none" stroke="#63b8ff" d="M91.08,-169.65C104.48,-142.03 146.53,-63.51 207,-27.5 209.83,-25.81 212.78,-24.27 215.82,-22.87"/>
<polygon fill="#63b8ff" stroke="#63b8ff" points="217.22,-26.08 225.15,-19.06 214.57,-19.6 217.22,-26.08"/>
</a>
</g>
</g>
<!-- Node3 -->
<g id="Node000003" class="node">
<title>Node3</title>
<g id="a_Node000003"><a xlink:href="../../d7/dc6/classChatManager.html#aecdeceb9be9b9b14c31f11526dbfd5a7" target="_top" xlink:title=" ">
<polygon fill="white" stroke="#666666" points="1127.5,-387 986.5,-387 986.5,-368 1127.5,-368 1127.5,-387"/>
<text text-anchor="middle" x="1057" y="-375" font-family="Helvetica,sans-Serif" font-size="10.00">ChatManager::hasCurrent</text>
</a>
</g>
</g>
<!-- Node2&#45;&gt;Node3 -->
<g id="edge2_Node000002_Node000003" class="edge">
<title>Node2&#45;&gt;Node3</title>
<g id="a_edge2_Node000002_Node000003"><a xlink:title=" ">
<path fill="none" stroke="#63b8ff" d="M867.78,-350.03C902.24,-355.06 944.71,-361.26 980.57,-366.49"/>
<polygon fill="#63b8ff" stroke="#63b8ff" points="980.1,-369.96 990.5,-367.94 981.11,-363.03 980.1,-369.96"/>
</a>
</g>
</g>
<!-- Node4 -->
<g id="Node000004" class="node">
<title>Node4</title>
<g id="a_Node000004"><a xlink:href="../../d5/d64/namespacemsg.html#a0969cd8a8185332490b7ecde9021086a" target="_top" xlink:title=" ">
<polygon fill="white" stroke="#666666" points="1125.5,-350 988.5,-350 988.5,-331 1125.5,-331 1125.5,-350"/>
<text text-anchor="middle" x="1057" y="-338" font-family="Helvetica,sans-Serif" font-size="10.00">msg::makeChatMessage</text>
</a>
</g>
</g>
<!-- Node2&#45;&gt;Node4 -->
<g id="edge3_Node000002_Node000004" class="edge">
<title>Node2&#45;&gt;Node4</title>
<g id="a_edge3_Node000002_Node000004"><a xlink:title=" ">
<path fill="none" stroke="#63b8ff" d="M905.24,-340.5C929.63,-340.5 955.25,-340.5 978.31,-340.5"/>
<polygon fill="#63b8ff" stroke="#63b8ff" points="978.37,-344 988.37,-340.5 978.37,-337 978.37,-344"/>
</a>
</g>
</g>
<!-- Node6 -->
<g id="Node000006" class="node">
<title>Node6</title>
<g id="a_Node000006"><a xlink:href="../../d7/dc6/classChatManager.html#a355992faeefc4f8695bfe76f2c7f295e" target="_top" xlink:title=" ">
<polygon fill="white" stroke="#666666" points="1173,-313 941,-313 941,-294 1173,-294 1173,-313"/>
<text text-anchor="middle" x="1057" y="-301" font-family="Helvetica,sans-Serif" font-size="10.00">ChatManager::resolvePeerIdsForParticipants</text>
</a>
</g>
</g>
<!-- Node2&#45;&gt;Node6 -->
<g id="edge5_Node000002_Node000006" class="edge">
<title>Node2&#45;&gt;Node6</title>
<g id="a_edge5_Node000002_Node000006"><a xlink:title=" ">
<path fill="none" stroke="#63b8ff" d="M867.78,-330.97C902.24,-325.94 944.71,-319.74 980.57,-314.51"/>
<polygon fill="#63b8ff" stroke="#63b8ff" points="981.11,-317.97 990.5,-313.06 980.1,-311.04 981.11,-317.97"/>
</a>
</g>
</g>
<!-- Node5 -->
<g id="Node000005" class="node">
<title>Node5</title>
<g id="a_Node000005"><a xlink:href="../../d5/d64/namespacemsg.html#ad8139941ca11d8369f89b262890dad33" target="_top" xlink:title=" ">
<polygon fill="white" stroke="#666666" points="1320,-350 1209,-350 1209,-331 1320,-331 1320,-350"/>
<text text-anchor="middle" x="1264.5" y="-338" font-family="Helvetica,sans-Serif" font-size="10.00">msg::DCTypeToJson</text>
</a>
</g>
</g>
<!-- Node4&#45;&gt;Node5 -->
<g id="edge4_Node000004_Node000005" class="edge">
<title>Node4&#45;&gt;Node5</title>
<g id="a_edge4_Node000004_Node000005"><a xlink:title=" ">
<path fill="none" stroke="#63b8ff" d="M1125.57,-340.5C1149.11,-340.5 1175.45,-340.5 1198.76,-340.5"/>
<polygon fill="#63b8ff" stroke="#63b8ff" points="1198.89,-344 1208.89,-340.5 1198.89,-337 1198.89,-344"/>
</a>
</g>
</g>
<!-- Node8&#45;&gt;Node7 -->
<g id="edge8_Node000008_Node000007" class="edge">
<title>Node8&#45;&gt;Node7</title>
<g id="a_edge8_Node000008_Node000007"><a xlink:title=" ">
<path fill="none" stroke="#63b8ff" d="M639.68,-122.5C734.45,-122.5 888.49,-122.5 980.26,-122.5"/>
<polygon fill="#63b8ff" stroke="#63b8ff" points="980.31,-126 990.31,-122.5 980.31,-119 980.31,-126"/>
</a>
</g>
</g>
<!-- Node10&#45;&gt;Node7 -->
<g id="edge13_Node000010_Node000007" class="edge">
<title>Node10&#45;&gt;Node7</title>
<g id="a_edge13_Node000010_Node000007"><a xlink:title=" ">
<path fill="none" stroke="#63b8ff" d="M866.14,-94.04C901.4,-99.33 945.4,-105.92 982.17,-111.43"/>
<polygon fill="#63b8ff" stroke="#63b8ff" points="981.92,-114.93 992.33,-112.96 982.96,-108.01 981.92,-114.93"/>
</a>
</g>
</g>
<!-- Node11 -->
<g id="Node000011" class="node">
<title>Node11</title>
<g id="a_Node000011"><a xlink:href="../../d7/dc6/classChatManager.html#aab66b4f8e1ca105e3670836cffdeb2fa" target="_top" xlink:title=" ">
<polygon fill="white" stroke="#666666" points="1141,-95 973,-95 973,-76 1141,-76 1141,-95"/>
<text text-anchor="middle" x="1057" y="-83" font-family="Helvetica,sans-Serif" font-size="10.00">ChatManager::classifyMessage</text>
</a>
</g>
</g>
<!-- Node10&#45;&gt;Node11 -->
<g id="edge11_Node000010_Node000011" class="edge">
<title>Node10&#45;&gt;Node11</title>
<g id="a_edge11_Node000010_Node000011"><a xlink:title=" ">
<path fill="none" stroke="#63b8ff" d="M891.52,-84.85C914.51,-84.94 939.32,-85.04 962.53,-85.13"/>
<polygon fill="#63b8ff" stroke="#63b8ff" points="962.71,-88.63 972.72,-85.17 962.73,-81.63 962.71,-88.63"/>
</a>
</g>
</g>
<!-- Node13 -->
<g id="Node000013" class="node">
<title>Node13</title>
<g id="a_Node000013"><a xlink:href="../../db/d67/classLogger.html#aebb248e608f8e2724de20b482cb2a15f" target="_top" xlink:title=" ">
<polygon fill="white" stroke="#666666" points="1105.5,-58 1008.5,-58 1008.5,-39 1105.5,-39 1105.5,-58"/>
<text text-anchor="middle" x="1057" y="-46" font-family="Helvetica,sans-Serif" font-size="10.00">Logger::instance</text>
</a>
</g>
</g>
<!-- Node10&#45;&gt;Node13 -->
<g id="edge14_Node000010_Node000013" class="edge">
<title>Node10&#45;&gt;Node13</title>
<g id="a_edge14_Node000010_Node000013"><a xlink:title=" ">
<path fill="none" stroke="#63b8ff" d="M869.44,-74.99C909.56,-69.3 960.07,-62.12 998.41,-56.68"/>
<polygon fill="#63b8ff" stroke="#63b8ff" points="998.97,-60.13 1008.38,-55.26 997.99,-53.2 998.97,-60.13"/>
</a>
</g>
</g>
<!-- Node12 -->
<g id="Node000012" class="node">
<title>Node12</title>
<g id="a_Node000012"><a xlink:href="../../d2/dae/ChatManager_8cpp.html#aad5eed848015271ba953705f1e4cc3b1" target="_top" xlink:title=" ">
<polygon fill="white" stroke="#666666" points="1313,-95 1216,-95 1216,-76 1313,-76 1313,-95"/>
<text text-anchor="middle" x="1264.5" y="-83" font-family="Helvetica,sans-Serif" font-size="10.00">ends_with_icase</text>
</a>
</g>
</g>
<!-- Node11&#45;&gt;Node12 -->
<g id="edge12_Node000011_Node000012" class="edge">
<title>Node11&#45;&gt;Node12</title>
<g id="a_edge12_Node000011_Node000012"><a xlink:title=" ">
<path fill="none" stroke="#63b8ff" d="M1141.29,-85.5C1162.89,-85.5 1185.68,-85.5 1205.66,-85.5"/>
<polygon fill="#63b8ff" stroke="#63b8ff" points="1205.82,-89 1215.82,-85.5 1205.82,-82 1205.82,-89"/>
</a>
</g>
</g>
<!-- Node15 -->
<g id="Node000015" class="node">
<title>Node15</title>
<g id="a_Node000015"><a xlink:href="../../d7/dc6/classChatManager.html#a67d19d76fe6bdf501090ff5076a3690b" target="_top" xlink:title=" ">
<polygon fill="white" stroke="#666666" points="645.5,-56 466.5,-56 466.5,-37 645.5,-37 645.5,-56"/>
<text text-anchor="middle" x="556" y="-44" font-family="Helvetica,sans-Serif" font-size="10.00">ChatManager::getUsernameColor</text>
</a>
</g>
</g>
<!-- Node14&#45;&gt;Node15 -->
<g id="edge16_Node000014_Node000015" class="edge">
<title>Node14&#45;&gt;Node15</title>
<g id="a_edge16_Node000014_Node000015"><a xlink:title=" ">
<path fill="none" stroke="#63b8ff" d="M414.06,-46.5C428.08,-46.5 442.44,-46.5 456.38,-46.5"/>
<polygon fill="#63b8ff" stroke="#63b8ff" points="456.45,-50 466.45,-46.5 456.45,-43 456.45,-50"/>
</a>
</g>
</g>
<!-- Node16 -->
<g id="Node000016" class="node">
<title>Node16</title>
<g id="a_Node000016"><a xlink:href="../../d7/dc6/classChatManager.html#a4d4b373316ea5fddb2d2590eee672782" target="_top" xlink:title=" ">
<polygon fill="white" stroke="#666666" points="871,-56 732,-56 732,-37 871,-37 871,-56"/>
<text text-anchor="middle" x="801.5" y="-44" font-family="Helvetica,sans-Serif" font-size="10.00">ChatManager::HSVtoRGB</text>
</a>
</g>
</g>
<!-- Node15&#45;&gt;Node16 -->
<g id="edge17_Node000015_Node000016" class="edge">
<title>Node15&#45;&gt;Node16</title>
<g id="a_edge17_Node000015_Node000016"><a xlink:title=" ">
<path fill="none" stroke="#63b8ff" d="M645.6,-46.5C670.47,-46.5 697.33,-46.5 721.59,-46.5"/>
<polygon fill="#63b8ff" stroke="#63b8ff" points="721.82,-50 731.82,-46.5 721.82,-43 721.82,-50"/>
</a>
</g>
</g>
<!-- Node17&#45;&gt;Node18 -->
<g id="edge19_Node000017_Node000018" class="edge">
<title>Node17&#45;&gt;Node18</title>
<g id="a_edge19_Node000017_Node000018"><a xlink:title=" ">
<path fill="none" stroke="#63b8ff" d="M396.32,-229.88C418.1,-228.18 441.63,-226.35 463.72,-224.62"/>
<polygon fill="#63b8ff" stroke="#63b8ff" points="464.06,-228.11 473.76,-223.84 463.52,-221.13 464.06,-228.11"/>
</a>
</g>
</g>
<!-- Node17&#45;&gt;Node19 -->
<g id="edge20_Node000017_Node000019" class="edge">
<title>Node17&#45;&gt;Node19</title>
<g id="a_edge20_Node000017_Node000019"><a xlink:title=" ">
<path fill="none" stroke="#63b8ff" d="M372.63,-246.04C406.35,-251.3 448.41,-257.87 483.63,-263.36"/>
<polygon fill="#63b8ff" stroke="#63b8ff" points="483.42,-266.87 493.84,-264.96 484.5,-259.96 483.42,-266.87"/>
</a>
</g>
</g>
<!-- Node19&#45;&gt;Node2 -->
<g id="edge21_Node000019_Node000002" class="edge">
<title>Node19&#45;&gt;Node2</title>
<g id="a_edge21_Node000019_Node000002"><a xlink:title=" ">
<path fill="none" stroke="#63b8ff" d="M592.15,-284.03C635.22,-295.7 708.26,-315.5 755.42,-328.28"/>
<polygon fill="#63b8ff" stroke="#63b8ff" points="754.8,-331.74 765.36,-330.98 756.63,-324.98 754.8,-331.74"/>
</a>
</g>
</g>
<!-- Node19&#45;&gt;Node9 -->
<g id="edge22_Node000019_Node000009" class="edge">
<title>Node19&#45;&gt;Node9</title>
<g id="a_edge22_Node000019_Node000009"><a xlink:title=" ">
<path fill="none" stroke="#63b8ff" d="M662.03,-278.81C684.6,-279.74 707.95,-280.7 728.89,-281.56"/>
<polygon fill="#63b8ff" stroke="#63b8ff" points="728.83,-285.06 738.97,-281.97 729.12,-278.07 728.83,-285.06"/>
</a>
</g>
</g>
<!-- Node19&#45;&gt;Node10 -->
<g id="edge23_Node000019_Node000010" class="edge">
<title>Node19&#45;&gt;Node10</title>
<g id="a_edge23_Node000019_Node000010"><a xlink:title=" ">
<path fill="none" stroke="#63b8ff" d="M597.03,-264.97C617.57,-258.9 642.34,-249.65 662,-236.5 717.94,-199.09 766.59,-134.36 788.36,-102.83"/>
<polygon fill="#63b8ff" stroke="#63b8ff" points="791.51,-104.41 794.23,-94.17 785.72,-100.48 791.51,-104.41"/>
</a>
</g>
</g>
</g>
</svg>
