<?xml version="1.0" encoding="UTF-8" standalone="no"?>
<!DOCTYPE svg PUBLIC "-//W3C//DTD SVG 1.1//EN"
 "http://www.w3.org/Graphics/SVG/1.1/DTD/svg11.dtd">
<!-- Generated by graphviz version 2.43.0 (0)
 -->
<!-- Title: ChatManager::setActiveGameTable Pages: 1 -->
<svg width="1010pt" height="290pt"
 viewBox="0.00 0.00 1010.00 290.00" xmlns="http://www.w3.org/2000/svg" xmlns:xlink="http://www.w3.org/1999/xlink">
<g id="graph0" class="graph" transform="scale(1 1) rotate(0) translate(4 286)">
<title>ChatManager::setActiveGameTable</title>
<!-- Node1 -->
<g id="Node000001" class="node">
<title>Node1</title>
<g id="a_Node000001"><a xlink:title=" ">
<polygon fill="#999999" stroke="#666666" points="188,-187 0,-187 0,-168 188,-168 188,-187"/>
<text text-anchor="middle" x="94" y="-175" font-family="Helvetica,sans-Serif" font-size="10.00">ChatManager::setActiveGameTable</text>
</a>
</g>
</g>
<!-- Node2 -->
<g id="Node000002" class="node">
<title>Node2</title>
<g id="a_Node000002"><a xlink:href="../../d7/dc6/classChatManager.html#abcfd0eeee4aff13b5230a991670ffb5d" target="_top" xlink:title=" ">
<polygon fill="white" stroke="#666666" points="776,-282 617,-282 617,-263 776,-263 776,-282"/>
<text text-anchor="middle" x="696.5" y="-270" font-family="Helvetica,sans-Serif" font-size="10.00">ChatManager::ensureGeneral</text>
</a>
</g>
</g>
<!-- Node1&#45;&gt;Node2 -->
<g id="edge1_Node000001_Node000002" class="edge">
<title>Node1&#45;&gt;Node2</title>
<g id="a_edge1_Node000001_Node000002"><a xlink:title=" ">
<path fill="none" stroke="#63b8ff" d="M131.22,-187.09C189.08,-202.06 306.13,-230.87 407,-246.5 473.57,-256.82 549.47,-263.46 606.7,-267.44"/>
<polygon fill="#63b8ff" stroke="#63b8ff" points="606.59,-270.94 616.8,-268.13 607.07,-263.96 606.59,-270.94"/>
</a>
</g>
</g>
<!-- Node3 -->
<g id="Node000003" class="node">
<title>Node3</title>
<g id="a_Node000003"><a xlink:href="../../d7/dc6/classChatManager.html#a2bd172979a809d742db08764a60b3378" target="_top" xlink:title=" ">
<polygon fill="white" stroke="#666666" points="370,-187 225,-187 225,-168 370,-168 370,-187"/>
<text text-anchor="middle" x="297.5" y="-175" font-family="Helvetica,sans-Serif" font-size="10.00">ChatManager::loadCurrent</text>
</a>
</g>
</g>
<!-- Node1&#45;&gt;Node3 -->
<g id="edge2_Node000001_Node000003" class="edge">
<title>Node1&#45;&gt;Node3</title>
<g id="a_edge2_Node000001_Node000003"><a xlink:title=" ">
<path fill="none" stroke="#63b8ff" d="M188.08,-177.5C196.98,-177.5 205.95,-177.5 214.73,-177.5"/>
<polygon fill="#63b8ff" stroke="#63b8ff" points="214.92,-181 224.92,-177.5 214.92,-174 214.92,-181"/>
</a>
</g>
</g>
<!-- Node12 -->
<g id="Node000012" class="node">
<title>Node12</title>
<g id="a_Node000012"><a xlink:href="../../d7/dc6/classChatManager.html#a17157721204dfd36ab180a404a2294a0" target="_top" xlink:title=" ">
<polygon fill="white" stroke="#666666" points="371,-150 224,-150 224,-131 371,-131 371,-150"/>
<text text-anchor="middle" x="297.5" y="-138" font-family="Helvetica,sans-Serif" font-size="10.00">ChatManager::saveCurrent</text>
</a>
</g>
</g>
<!-- Node1&#45;&gt;Node12 -->
<g id="edge14_Node000001_Node000012" class="edge">
<title>Node1&#45;&gt;Node12</title>
<g id="a_edge14_Node000001_Node000012"><a xlink:title=" ">
<path fill="none" stroke="#63b8ff" d="M146.89,-167.97C173.58,-163.07 206.31,-157.06 234.34,-151.91"/>
<polygon fill="#63b8ff" stroke="#63b8ff" points="235.23,-155.31 244.43,-150.06 233.97,-148.42 235.23,-155.31"/>
</a>
</g>
</g>
<!-- Node3&#45;&gt;Node2 -->
<g id="edge6_Node000003_Node000002" class="edge">
<title>Node3&#45;&gt;Node2</title>
<g id="a_edge6_Node000003_Node000002"><a xlink:title=" ">
<path fill="none" stroke="#63b8ff" d="M322.75,-187.11C344.54,-195.47 377.54,-207.47 407,-215.5 480.11,-235.42 565.41,-251.4 624.2,-261.31"/>
<polygon fill="#63b8ff" stroke="#63b8ff" points="623.69,-264.78 634.13,-262.97 624.85,-257.87 623.69,-264.78"/>
</a>
</g>
</g>
<!-- Node4 -->
<g id="Node000004" class="node">
<title>Node4</title>
<g id="a_Node000004"><a xlink:href="../../d7/dc6/classChatManager.html#a7c4c2a8fe907802aaff347a997e4f230" target="_top" xlink:title=" ">
<polygon fill="white" stroke="#666666" points="569,-132 407,-132 407,-113 569,-113 569,-132"/>
<text text-anchor="middle" x="488" y="-120" font-family="Helvetica,sans-Serif" font-size="10.00">ChatManager::chatFilePathFor</text>
</a>
</g>
</g>
<!-- Node3&#45;&gt;Node4 -->
<g id="edge3_Node000003_Node000004" class="edge">
<title>Node3&#45;&gt;Node4</title>
<g id="a_edge3_Node000003_Node000004"><a xlink:title=" ">
<path fill="none" stroke="#63b8ff" d="M341.13,-167.9C351.06,-165.24 361.5,-162.08 371,-158.5 387.74,-152.2 390.15,-146.51 407,-140.5 413.07,-138.34 419.5,-136.37 425.96,-134.61"/>
<polygon fill="#63b8ff" stroke="#63b8ff" points="427.3,-137.88 436.11,-132 425.56,-131.1 427.3,-137.88"/>
</a>
</g>
</g>
<!-- Node7 -->
<g id="Node000007" class="node">
<title>Node7</title>
<g id="a_Node000007"><a xlink:href="../../d7/dc6/classChatManager.html#aecdeceb9be9b9b14c31f11526dbfd5a7" target="_top" xlink:title=" ">
<polygon fill="white" stroke="#666666" points="558.5,-169 417.5,-169 417.5,-150 558.5,-150 558.5,-169"/>
<text text-anchor="middle" x="488" y="-157" font-family="Helvetica,sans-Serif" font-size="10.00">ChatManager::hasCurrent</text>
</a>
</g>
</g>
<!-- Node3&#45;&gt;Node7 -->
<g id="edge7_Node000003_Node000007" class="edge">
<title>Node3&#45;&gt;Node7</title>
<g id="a_edge7_Node000003_Node000007"><a xlink:title=" ">
<path fill="none" stroke="#63b8ff" d="M370.03,-170.67C382.16,-169.51 394.81,-168.3 407.13,-167.13"/>
<polygon fill="#63b8ff" stroke="#63b8ff" points="407.76,-170.58 417.39,-166.15 407.1,-163.61 407.76,-170.58"/>
</a>
</g>
</g>
<!-- Node8 -->
<g id="Node000008" class="node">
<title>Node8</title>
<g id="a_Node000008"><a xlink:href="../../d7/dc6/classChatManager.html#accb252df2461a07682a79f73f50e2c34" target="_top" xlink:title=" ">
<polygon fill="white" stroke="#666666" points="551,-206 425,-206 425,-187 551,-187 551,-206"/>
<text text-anchor="middle" x="488" y="-194" font-family="Helvetica,sans-Serif" font-size="10.00">ChatManager::loadLog</text>
</a>
</g>
</g>
<!-- Node3&#45;&gt;Node8 -->
<g id="edge8_Node000003_Node000008" class="edge">
<title>Node3&#45;&gt;Node8</title>
<g id="a_edge8_Node000003_Node000008"><a xlink:title=" ">
<path fill="none" stroke="#63b8ff" d="M370.03,-184.71C384.67,-186.19 400.09,-187.74 414.75,-189.22"/>
<polygon fill="#63b8ff" stroke="#63b8ff" points="414.47,-192.71 424.77,-190.23 415.17,-185.74 414.47,-192.71"/>
</a>
</g>
</g>
<!-- Node5 -->
<g id="Node000005" class="node">
<title>Node5</title>
<g id="a_Node000005"><a xlink:href="../../d8/dec/classPathManager.html#a6be0a95403caf375f4d7b642f0f90061" target="_top" xlink:title=" ">
<polygon fill="white" stroke="#666666" points="788,-132 605,-132 605,-113 788,-113 788,-132"/>
<text text-anchor="middle" x="696.5" y="-120" font-family="Helvetica,sans-Serif" font-size="10.00">PathManager::getGameTablesPath</text>
</a>
</g>
</g>
<!-- Node4&#45;&gt;Node5 -->
<g id="edge4_Node000004_Node000005" class="edge">
<title>Node4&#45;&gt;Node5</title>
<g id="a_edge4_Node000004_Node000005"><a xlink:title=" ">
<path fill="none" stroke="#63b8ff" d="M569.13,-122.5C577.53,-122.5 586.13,-122.5 594.72,-122.5"/>
<polygon fill="#63b8ff" stroke="#63b8ff" points="594.77,-126 604.77,-122.5 594.77,-119 594.77,-126"/>
</a>
</g>
</g>
<!-- Node6 -->
<g id="Node000006" class="node">
<title>Node6</title>
<g id="a_Node000006"><a xlink:href="../../d8/dec/classPathManager.html#a467b459b77c73cbc7544551b53911fcd" target="_top" xlink:title=" ">
<polygon fill="white" stroke="#666666" points="1002,-132 824,-132 824,-113 1002,-113 1002,-132"/>
<text text-anchor="middle" x="913" y="-120" font-family="Helvetica,sans-Serif" font-size="10.00">PathManager::getExecutableRoot</text>
</a>
</g>
</g>
<!-- Node5&#45;&gt;Node6 -->
<g id="edge5_Node000005_Node000006" class="edge">
<title>Node5&#45;&gt;Node6</title>
<g id="a_edge5_Node000005_Node000006"><a xlink:title=" ">
<path fill="none" stroke="#63b8ff" d="M788.16,-122.5C796.53,-122.5 805.04,-122.5 813.48,-122.5"/>
<polygon fill="#63b8ff" stroke="#63b8ff" points="813.72,-126 823.72,-122.5 813.72,-119 813.72,-126"/>
</a>
</g>
</g>
<!-- Node8&#45;&gt;Node2 -->
<g id="edge13_Node000008_Node000002" class="edge">
<title>Node8&#45;&gt;Node2</title>
<g id="a_edge13_Node000008_Node000002"><a xlink:title=" ">
<path fill="none" stroke="#63b8ff" d="M531.25,-206.02C543.77,-209.67 557.27,-214.45 569,-220.5 587.01,-229.79 586.84,-239.5 605,-248.5 614.38,-253.15 624.77,-256.98 635.07,-260.11"/>
<polygon fill="#63b8ff" stroke="#63b8ff" points="634.3,-263.53 644.88,-262.89 636.21,-256.79 634.3,-263.53"/>
</a>
</g>
</g>
<!-- Node9 -->
<g id="Node000009" class="node">
<title>Node9</title>
<g id="a_Node000009"><a xlink:href="../../db/d4b/classSerializer.html#a45c8b78e8467c6f7dba85fd7a21c8781" target="_top" xlink:title=" ">
<polygon fill="white" stroke="#666666" points="980,-225 846,-225 846,-206 980,-206 980,-225"/>
<text text-anchor="middle" x="913" y="-213" font-family="Helvetica,sans-Serif" font-size="10.00">Serializer::deserializeInt</text>
</a>
</g>
</g>
<!-- Node8&#45;&gt;Node9 -->
<g id="edge9_Node000008_Node000009" class="edge">
<title>Node8&#45;&gt;Node9</title>
<g id="a_edge9_Node000008_Node000009"><a xlink:title=" ">
<path fill="none" stroke="#63b8ff" d="M536.19,-206.01C557.17,-209.78 582.22,-213.65 605,-215.5 683.5,-221.89 773.67,-220.9 835.88,-218.92"/>
<polygon fill="#63b8ff" stroke="#63b8ff" points="836.12,-222.42 846,-218.59 835.89,-215.42 836.12,-222.42"/>
</a>
</g>
</g>
<!-- Node10 -->
<g id="Node000010" class="node">
<title>Node10</title>
<g id="a_Node000010"><a xlink:href="../../db/d4b/classSerializer.html#a47d1b2e09aaa99426b40f965ef2bf284" target="_top" xlink:title=" ">
<polygon fill="white" stroke="#666666" points="771.5,-206 621.5,-206 621.5,-187 771.5,-187 771.5,-206"/>
<text text-anchor="middle" x="696.5" y="-194" font-family="Helvetica,sans-Serif" font-size="10.00">Serializer::deserializeString</text>
</a>
</g>
</g>
<!-- Node8&#45;&gt;Node10 -->
<g id="edge10_Node000008_Node000010" class="edge">
<title>Node8&#45;&gt;Node10</title>
<g id="a_edge10_Node000008_Node000010"><a xlink:title=" ">
<path fill="none" stroke="#63b8ff" d="M551.24,-196.5C570.13,-196.5 591.22,-196.5 611.3,-196.5"/>
<polygon fill="#63b8ff" stroke="#63b8ff" points="611.39,-200 621.39,-196.5 611.39,-193 611.39,-200"/>
</a>
</g>
</g>
<!-- Node11 -->
<g id="Node000011" class="node">
<title>Node11</title>
<g id="a_Node000011"><a xlink:href="../../db/d4b/classSerializer.html#abc991f78f5490e60783620ab4c3444e6" target="_top" xlink:title=" ">
<polygon fill="white" stroke="#666666" points="773.5,-169 619.5,-169 619.5,-150 773.5,-150 773.5,-169"/>
<text text-anchor="middle" x="696.5" y="-157" font-family="Helvetica,sans-Serif" font-size="10.00">Serializer::deserializeUInt64</text>
</a>
</g>
</g>
<!-- Node8&#45;&gt;Node11 -->
<g id="edge12_Node000008_Node000011" class="edge">
<title>Node8&#45;&gt;Node11</title>
<g id="a_edge12_Node000008_Node000011"><a xlink:title=" ">
<path fill="none" stroke="#63b8ff" d="M542.18,-186.97C569.65,-182.05 603.36,-176.01 632.17,-170.85"/>
<polygon fill="#63b8ff" stroke="#63b8ff" points="632.92,-174.27 642.14,-169.06 631.68,-167.38 632.92,-174.27"/>
</a>
</g>
</g>
<!-- Node10&#45;&gt;Node9 -->
<g id="edge11_Node000010_Node000009" class="edge">
<title>Node10&#45;&gt;Node9</title>
<g id="a_edge11_Node000010_Node000009"><a xlink:title=" ">
<path fill="none" stroke="#63b8ff" d="M771.62,-203.07C792.33,-204.9 814.86,-206.9 835.7,-208.74"/>
<polygon fill="#63b8ff" stroke="#63b8ff" points="835.5,-212.24 845.77,-209.63 836.12,-205.26 835.5,-212.24"/>
</a>
</g>
</g>
<!-- Node12&#45;&gt;Node4 -->
<g id="edge15_Node000012_Node000004" class="edge">
<title>Node12&#45;&gt;Node4</title>
<g id="a_edge15_Node000012_Node000004"><a xlink:title=" ">
<path fill="none" stroke="#63b8ff" d="M371.11,-133.57C379.53,-132.76 388.2,-131.93 396.82,-131.11"/>
<polygon fill="#63b8ff" stroke="#63b8ff" points="397.28,-134.58 406.9,-130.15 396.62,-127.61 397.28,-134.58"/>
</a>
</g>
</g>
<!-- Node12&#45;&gt;Node7 -->
<g id="edge16_Node000012_Node000007" class="edge">
<title>Node12&#45;&gt;Node7</title>
<g id="a_edge16_Node000012_Node000007"><a xlink:title=" ">
<path fill="none" stroke="#63b8ff" d="M371.11,-147.82C382.94,-149.01 395.25,-150.25 407.24,-151.46"/>
<polygon fill="#63b8ff" stroke="#63b8ff" points="406.92,-154.95 417.22,-152.47 407.62,-147.98 406.92,-154.95"/>
</a>
</g>
</g>
<!-- Node13 -->
<g id="Node000013" class="node">
<title>Node13</title>
<g id="a_Node000013"><a xlink:href="../../d7/dc6/classChatManager.html#a9a079a4cf27a53f06277fbe57f1d8555" target="_top" xlink:title=" ">
<polygon fill="white" stroke="#666666" points="552,-75 424,-75 424,-56 552,-56 552,-75"/>
<text text-anchor="middle" x="488" y="-63" font-family="Helvetica,sans-Serif" font-size="10.00">ChatManager::saveLog</text>
</a>
</g>
</g>
<!-- Node12&#45;&gt;Node13 -->
<g id="edge17_Node000012_Node000013" class="edge">
<title>Node12&#45;&gt;Node13</title>
<g id="a_edge17_Node000012_Node000013"><a xlink:title=" ">
<path fill="none" stroke="#63b8ff" d="M322.76,-130.85C355.98,-117.63 415.79,-93.83 453.34,-78.89"/>
<polygon fill="#63b8ff" stroke="#63b8ff" points="454.84,-82.06 462.84,-75.11 452.25,-75.56 454.84,-82.06"/>
</a>
</g>
</g>
<!-- Node14 -->
<g id="Node000014" class="node">
<title>Node14</title>
<g id="a_Node000014"><a xlink:href="../../db/d4b/classSerializer.html#ac812cf485e5804fd6f22d34ae076f79f" target="_top" xlink:title=" ">
<polygon fill="white" stroke="#666666" points="974,-75 852,-75 852,-56 974,-56 974,-75"/>
<text text-anchor="middle" x="913" y="-63" font-family="Helvetica,sans-Serif" font-size="10.00">Serializer::serializeInt</text>
</a>
</g>
</g>
<!-- Node13&#45;&gt;Node14 -->
<g id="edge18_Node000013_Node000014" class="edge">
<title>Node13&#45;&gt;Node14</title>
<g id="a_edge18_Node000013_Node000014"><a xlink:title=" ">
<path fill="none" stroke="#63b8ff" d="M552.33,-65.5C629.91,-65.5 760.93,-65.5 841.6,-65.5"/>
<polygon fill="#63b8ff" stroke="#63b8ff" points="841.67,-69 851.67,-65.5 841.67,-62 841.67,-69"/>
</a>
</g>
</g>
<!-- Node15 -->
<g id="Node000015" class="node">
<title>Node15</title>
<g id="a_Node000015"><a xlink:href="../../db/d4b/classSerializer.html#a8a72c08ebb91348dc2a7ef6557c44f6c" target="_top" xlink:title=" ">
<polygon fill="white" stroke="#666666" points="765.5,-56 627.5,-56 627.5,-37 765.5,-37 765.5,-56"/>
<text text-anchor="middle" x="696.5" y="-44" font-family="Helvetica,sans-Serif" font-size="10.00">Serializer::serializeString</text>
</a>
</g>
</g>
<!-- Node13&#45;&gt;Node15 -->
<g id="edge19_Node000013_Node000015" class="edge">
<title>Node13&#45;&gt;Node15</title>
<g id="a_edge19_Node000013_Node000015"><a xlink:title=" ">
<path fill="none" stroke="#63b8ff" d="M552.08,-59.7C572.66,-57.8 595.76,-55.68 617.32,-53.69"/>
<polygon fill="#63b8ff" stroke="#63b8ff" points="617.79,-57.17 627.42,-52.76 617.15,-50.19 617.79,-57.17"/>
</a>
</g>
</g>
<!-- Node16 -->
<g id="Node000016" class="node">
<title>Node16</title>
<g id="a_Node000016"><a xlink:href="../../db/d4b/classSerializer.html#a60889622ee4e36ea28a284e99bbdf4e5" target="_top" xlink:title=" ">
<polygon fill="white" stroke="#666666" points="767.5,-19 625.5,-19 625.5,0 767.5,0 767.5,-19"/>
<text text-anchor="middle" x="696.5" y="-7" font-family="Helvetica,sans-Serif" font-size="10.00">Serializer::serializeUInt64</text>
</a>
</g>
</g>
<!-- Node13&#45;&gt;Node16 -->
<g id="edge21_Node000013_Node000016" class="edge">
<title>Node13&#45;&gt;Node16</title>
<g id="a_edge21_Node000013_Node000016"><a xlink:title=" ">
<path fill="none" stroke="#63b8ff" d="M514.99,-55.99C538.33,-47.69 573.64,-35.72 605,-27.5 613.76,-25.2 623.07,-23.04 632.25,-21.07"/>
<polygon fill="#63b8ff" stroke="#63b8ff" points="633.06,-24.48 642.14,-19.01 631.63,-17.62 633.06,-24.48"/>
</a>
</g>
</g>
<!-- Node15&#45;&gt;Node14 -->
<g id="edge20_Node000015_Node000014" class="edge">
<title>Node15&#45;&gt;Node14</title>
<g id="a_edge20_Node000015_Node000014"><a xlink:title=" ">
<path fill="none" stroke="#63b8ff" d="M765.66,-52.54C789.92,-54.69 817.27,-57.11 841.71,-59.27"/>
<polygon fill="#63b8ff" stroke="#63b8ff" points="841.71,-62.79 851.98,-60.18 842.33,-55.81 841.71,-62.79"/>
</a>
</g>
</g>
</g>
</svg>
