<?xml version="1.0" encoding="UTF-8" standalone="no"?>
<!DOCTYPE svg PUBLIC "-//W3C//DTD SVG 1.1//EN"
 "http://www.w3.org/Graphics/SVG/1.1/DTD/svg11.dtd">
<!-- Generated by graphviz version 2.43.0 (0)
 -->
<!-- Title: ChatManager::loadCurrent Pages: 1 -->
<svg width="784pt" height="178pt"
 viewBox="0.00 0.00 784.00 178.00" xmlns="http://www.w3.org/2000/svg" xmlns:xlink="http://www.w3.org/1999/xlink">
<g id="graph0" class="graph" transform="scale(1 1) rotate(0) translate(4 174)">
<title>ChatManager::loadCurrent</title>
<!-- Node1 -->
<g id="Node000001" class="node">
<title>Node1</title>
<g id="a_Node000001"><a xlink:title=" ">
<polygon fill="#999999" stroke="#666666" points="145,-113 0,-113 0,-94 145,-94 145,-113"/>
<text text-anchor="middle" x="72.5" y="-101" font-family="Helvetica,sans-Serif" font-size="10.00">ChatManager::loadCurrent</text>
</a>
</g>
</g>
<!-- Node2 -->
<g id="Node000002" class="node">
<title>Node2</title>
<g id="a_Node000002"><a xlink:href="../../d7/dc6/classChatManager.html#a7c4c2a8fe907802aaff347a997e4f230" target="_top" xlink:title=" ">
<polygon fill="white" stroke="#666666" points="343,-170 181,-170 181,-151 343,-151 343,-170"/>
<text text-anchor="middle" x="262" y="-158" font-family="Helvetica,sans-Serif" font-size="10.00">ChatManager::chatFilePathFor</text>
</a>
</g>
</g>
<!-- Node1&#45;&gt;Node2 -->
<g id="edge1_Node000001_Node000002" class="edge">
<title>Node1&#45;&gt;Node2</title>
<g id="a_edge1_Node000001_Node000002"><a xlink:title=" ">
<path fill="none" stroke="#63b8ff" d="M104.53,-113.08C126,-119.7 155.22,-128.68 181,-136.5 193.48,-140.29 207.07,-144.38 219.44,-148.09"/>
<polygon fill="#63b8ff" stroke="#63b8ff" points="218.48,-151.45 229.06,-150.97 220.49,-144.75 218.48,-151.45"/>
</a>
</g>
</g>
<!-- Node5 -->
<g id="Node000005" class="node">
<title>Node5</title>
<g id="a_Node000005"><a xlink:href="../../d7/dc6/classChatManager.html#abcfd0eeee4aff13b5230a991670ffb5d" target="_top" xlink:title=" ">
<polygon fill="white" stroke="#666666" points="550,-132 391,-132 391,-113 550,-113 550,-132"/>
<text text-anchor="middle" x="470.5" y="-120" font-family="Helvetica,sans-Serif" font-size="10.00">ChatManager::ensureGeneral</text>
</a>
</g>
</g>
<!-- Node1&#45;&gt;Node5 -->
<g id="edge4_Node000001_Node000005" class="edge">
<title>Node1&#45;&gt;Node5</title>
<g id="a_edge4_Node000001_Node000005"><a xlink:title=" ">
<path fill="none" stroke="#63b8ff" d="M145.21,-106.94C211.28,-110.11 309.54,-114.83 380.58,-118.23"/>
<polygon fill="#63b8ff" stroke="#63b8ff" points="380.7,-121.74 390.85,-118.73 381.03,-114.75 380.7,-121.74"/>
</a>
</g>
</g>
<!-- Node6 -->
<g id="Node000006" class="node">
<title>Node6</title>
<g id="a_Node000006"><a xlink:href="../../d7/dc6/classChatManager.html#aecdeceb9be9b9b14c31f11526dbfd5a7" target="_top" xlink:title=" ">
<polygon fill="white" stroke="#666666" points="332.5,-94 191.5,-94 191.5,-75 332.5,-75 332.5,-94"/>
<text text-anchor="middle" x="262" y="-82" font-family="Helvetica,sans-Serif" font-size="10.00">ChatManager::hasCurrent</text>
</a>
</g>
</g>
<!-- Node1&#45;&gt;Node6 -->
<g id="edge5_Node000001_Node000006" class="edge">
<title>Node1&#45;&gt;Node6</title>
<g id="a_edge5_Node000001_Node000006"><a xlink:title=" ">
<path fill="none" stroke="#63b8ff" d="M145.19,-96.24C156.98,-95.04 169.27,-93.8 181.24,-92.58"/>
<polygon fill="#63b8ff" stroke="#63b8ff" points="181.61,-96.06 191.21,-91.57 180.91,-89.1 181.61,-96.06"/>
</a>
</g>
</g>
<!-- Node7 -->
<g id="Node000007" class="node">
<title>Node7</title>
<g id="a_Node000007"><a xlink:href="../../d7/dc6/classChatManager.html#accb252df2461a07682a79f73f50e2c34" target="_top" xlink:title=" ">
<polygon fill="white" stroke="#666666" points="325,-57 199,-57 199,-38 325,-38 325,-57"/>
<text text-anchor="middle" x="262" y="-45" font-family="Helvetica,sans-Serif" font-size="10.00">ChatManager::loadLog</text>
</a>
</g>
</g>
<!-- Node1&#45;&gt;Node7 -->
<g id="edge6_Node000001_Node000007" class="edge">
<title>Node1&#45;&gt;Node7</title>
<g id="a_edge6_Node000001_Node000007"><a xlink:title=" ">
<path fill="none" stroke="#63b8ff" d="M98.9,-93.97C120.55,-86.03 152.57,-74.75 181,-66.5 189.47,-64.04 198.5,-61.67 207.34,-59.47"/>
<polygon fill="#63b8ff" stroke="#63b8ff" points="208.31,-62.84 217.2,-57.08 206.66,-56.04 208.31,-62.84"/>
</a>
</g>
</g>
<!-- Node3 -->
<g id="Node000003" class="node">
<title>Node3</title>
<g id="a_Node000003"><a xlink:href="../../d8/dec/classPathManager.html#a6be0a95403caf375f4d7b642f0f90061" target="_top" xlink:title=" ">
<polygon fill="white" stroke="#666666" points="562,-170 379,-170 379,-151 562,-151 562,-170"/>
<text text-anchor="middle" x="470.5" y="-158" font-family="Helvetica,sans-Serif" font-size="10.00">PathManager::getGameTablesPath</text>
</a>
</g>
</g>
<!-- Node2&#45;&gt;Node3 -->
<g id="edge2_Node000002_Node000003" class="edge">
<title>Node2&#45;&gt;Node3</title>
<g id="a_edge2_Node000002_Node000003"><a xlink:title=" ">
<path fill="none" stroke="#63b8ff" d="M343.13,-160.5C351.53,-160.5 360.13,-160.5 368.72,-160.5"/>
<polygon fill="#63b8ff" stroke="#63b8ff" points="368.77,-164 378.77,-160.5 368.77,-157 368.77,-164"/>
</a>
</g>
</g>
<!-- Node4 -->
<g id="Node000004" class="node">
<title>Node4</title>
<g id="a_Node000004"><a xlink:href="../../d8/dec/classPathManager.html#a467b459b77c73cbc7544551b53911fcd" target="_top" xlink:title=" ">
<polygon fill="white" stroke="#666666" points="776,-170 598,-170 598,-151 776,-151 776,-170"/>
<text text-anchor="middle" x="687" y="-158" font-family="Helvetica,sans-Serif" font-size="10.00">PathManager::getExecutableRoot</text>
</a>
</g>
</g>
<!-- Node3&#45;&gt;Node4 -->
<g id="edge3_Node000003_Node000004" class="edge">
<title>Node3&#45;&gt;Node4</title>
<g id="a_edge3_Node000003_Node000004"><a xlink:title=" ">
<path fill="none" stroke="#63b8ff" d="M562.16,-160.5C570.53,-160.5 579.04,-160.5 587.48,-160.5"/>
<polygon fill="#63b8ff" stroke="#63b8ff" points="587.72,-164 597.72,-160.5 587.72,-157 587.72,-164"/>
</a>
</g>
</g>
<!-- Node7&#45;&gt;Node5 -->
<g id="edge11_Node000007_Node000005" class="edge">
<title>Node7&#45;&gt;Node5</title>
<g id="a_edge11_Node000007_Node000005"><a xlink:title=" ">
<path fill="none" stroke="#63b8ff" d="M318.94,-57.03C327.25,-59.51 335.53,-62.61 343,-66.5 361.99,-76.38 360.14,-88.37 379,-98.5 387.7,-103.17 397.37,-106.98 407.05,-110.07"/>
<polygon fill="#63b8ff" stroke="#63b8ff" points="406.13,-113.44 416.71,-112.92 408.11,-106.73 406.13,-113.44"/>
</a>
</g>
</g>
<!-- Node8 -->
<g id="Node000008" class="node">
<title>Node8</title>
<g id="a_Node000008"><a xlink:href="../../db/d4b/classSerializer.html#a45c8b78e8467c6f7dba85fd7a21c8781" target="_top" xlink:title=" ">
<polygon fill="white" stroke="#666666" points="754,-75 620,-75 620,-56 754,-56 754,-75"/>
<text text-anchor="middle" x="687" y="-63" font-family="Helvetica,sans-Serif" font-size="10.00">Serializer::deserializeInt</text>
</a>
</g>
</g>
<!-- Node7&#45;&gt;Node8 -->
<g id="edge7_Node000007_Node000008" class="edge">
<title>Node7&#45;&gt;Node8</title>
<g id="a_edge7_Node000007_Node000008"><a xlink:title=" ">
<path fill="none" stroke="#63b8ff" d="M313.34,-57.04C333.65,-60.44 357.36,-63.83 379,-65.5 457.4,-71.55 547.4,-70.62 609.59,-68.76"/>
<polygon fill="#63b8ff" stroke="#63b8ff" points="609.83,-72.25 619.71,-68.44 609.61,-65.25 609.83,-72.25"/>
</a>
</g>
</g>
<!-- Node9 -->
<g id="Node000009" class="node">
<title>Node9</title>
<g id="a_Node000009"><a xlink:href="../../db/d4b/classSerializer.html#a47d1b2e09aaa99426b40f965ef2bf284" target="_top" xlink:title=" ">
<polygon fill="white" stroke="#666666" points="545.5,-56 395.5,-56 395.5,-37 545.5,-37 545.5,-56"/>
<text text-anchor="middle" x="470.5" y="-44" font-family="Helvetica,sans-Serif" font-size="10.00">Serializer::deserializeString</text>
</a>
</g>
</g>
<!-- Node7&#45;&gt;Node9 -->
<g id="edge8_Node000007_Node000009" class="edge">
<title>Node7&#45;&gt;Node9</title>
<g id="a_edge8_Node000007_Node000009"><a xlink:title=" ">
<path fill="none" stroke="#63b8ff" d="M325.24,-47.2C344.13,-47.11 365.22,-47.01 385.3,-46.91"/>
<polygon fill="#63b8ff" stroke="#63b8ff" points="385.4,-50.41 395.39,-46.86 385.37,-43.41 385.4,-50.41"/>
</a>
</g>
</g>
<!-- Node10 -->
<g id="Node000010" class="node">
<title>Node10</title>
<g id="a_Node000010"><a xlink:href="../../db/d4b/classSerializer.html#abc991f78f5490e60783620ab4c3444e6" target="_top" xlink:title=" ">
<polygon fill="white" stroke="#666666" points="547.5,-19 393.5,-19 393.5,0 547.5,0 547.5,-19"/>
<text text-anchor="middle" x="470.5" y="-7" font-family="Helvetica,sans-Serif" font-size="10.00">Serializer::deserializeUInt64</text>
</a>
</g>
</g>
<!-- Node7&#45;&gt;Node10 -->
<g id="edge10_Node000007_Node000010" class="edge">
<title>Node7&#45;&gt;Node10</title>
<g id="a_edge10_Node000007_Node000010"><a xlink:title=" ">
<path fill="none" stroke="#63b8ff" d="M314.84,-37.96C342.95,-32.79 377.88,-26.36 407.43,-20.92"/>
<polygon fill="#63b8ff" stroke="#63b8ff" points="408.44,-24.3 417.64,-19.04 407.17,-17.41 408.44,-24.3"/>
</a>
</g>
</g>
<!-- Node9&#45;&gt;Node8 -->
<g id="edge9_Node000009_Node000008" class="edge">
<title>Node9&#45;&gt;Node8</title>
<g id="a_edge9_Node000009_Node000008"><a xlink:title=" ">
<path fill="none" stroke="#63b8ff" d="M545.62,-53.07C566.33,-54.9 588.86,-56.9 609.7,-58.74"/>
<polygon fill="#63b8ff" stroke="#63b8ff" points="609.5,-62.24 619.77,-59.63 610.12,-55.26 609.5,-62.24"/>
</a>
</g>
</g>
</g>
</svg>
