<?xml version="1.0" encoding="UTF-8" standalone="no"?>
<!DOCTYPE svg PUBLIC "-//W3C//DTD SVG 1.1//EN"
 "http://www.w3.org/Graphics/SVG/1.1/DTD/svg11.dtd">
<!-- Generated by graphviz version 2.43.0 (0)
 -->
<!-- Title: ChatManager::renderDicePopup Pages: 1 -->
<svg width="1085pt" height="212pt"
 viewBox="0.00 0.00 1085.00 212.00" xmlns="http://www.w3.org/2000/svg" xmlns:xlink="http://www.w3.org/1999/xlink">
<g id="graph0" class="graph" transform="scale(1 1) rotate(0) translate(4 208)">
<title>ChatManager::renderDicePopup</title>
<!-- Node1 -->
<g id="Node000001" class="node">
<title>Node1</title>
<g id="a_Node000001"><a xlink:title=" ">
<polygon fill="#999999" stroke="#666666" points="171,-138 0,-138 0,-119 171,-119 171,-138"/>
<text text-anchor="middle" x="85.5" y="-126" font-family="Helvetica,sans-Serif" font-size="10.00">ChatManager::renderDicePopup</text>
</a>
</g>
</g>
<!-- Node2 -->
<g id="Node000002" class="node">
<title>Node2</title>
<g id="a_Node000002"><a xlink:href="../../d9/dff/namespaceUiTypingGuard.html#a63a23afb57376e34f2fac5999eb9f1d9" target="_top" xlink:title=" ">
<polygon fill="white" stroke="#666666" points="395,-157 231,-157 231,-138 395,-138 395,-157"/>
<text text-anchor="middle" x="313" y="-145" font-family="Helvetica,sans-Serif" font-size="10.00">UiTypingGuard::TrackThisInput</text>
</a>
</g>
</g>
<!-- Node1&#45;&gt;Node2 -->
<g id="edge1_Node000001_Node000002" class="edge">
<title>Node1&#45;&gt;Node2</title>
<g id="a_edge1_Node000001_Node000002"><a xlink:title=" ">
<path fill="none" stroke="#63b8ff" d="M171.11,-135.63C187.25,-136.99 204.22,-138.42 220.57,-139.8"/>
<polygon fill="#63b8ff" stroke="#63b8ff" points="220.4,-143.29 230.65,-140.65 220.98,-136.32 220.4,-143.29"/>
</a>
</g>
</g>
<!-- Node3 -->
<g id="Node000003" class="node">
<title>Node3</title>
<g id="a_Node000003"><a xlink:href="../../d7/dc6/classChatManager.html#a5596a59f560f4f30aca7ac68a8b58451" target="_top" xlink:title=" ">
<polygon fill="white" stroke="#666666" points="419,-120 207,-120 207,-101 419,-101 419,-120"/>
<text text-anchor="middle" x="313" y="-108" font-family="Helvetica,sans-Serif" font-size="10.00">ChatManager::tryHandleSlashCommand</text>
</a>
</g>
</g>
<!-- Node1&#45;&gt;Node3 -->
<g id="edge2_Node000001_Node000003" class="edge">
<title>Node1&#45;&gt;Node3</title>
<g id="a_edge2_Node000001_Node000003"><a xlink:title=" ">
<path fill="none" stroke="#63b8ff" d="M171.11,-121.75C179.46,-121.08 188.04,-120.4 196.63,-119.71"/>
<polygon fill="#63b8ff" stroke="#63b8ff" points="197.03,-123.19 206.72,-118.9 196.47,-116.21 197.03,-123.19"/>
</a>
</g>
</g>
<!-- Node4 -->
<g id="Node000004" class="node">
<title>Node4</title>
<g id="a_Node000004"><a xlink:href="../../d7/dc6/classChatManager.html#a5d3271287b7cf86e09500f25f93052dc" target="_top" xlink:title=" ">
<polygon fill="white" stroke="#666666" points="662,-162 455,-162 455,-143 662,-143 662,-162"/>
<text text-anchor="middle" x="558.5" y="-150" font-family="Helvetica,sans-Serif" font-size="10.00">ChatManager::emitChatMessageFrame</text>
</a>
</g>
</g>
<!-- Node3&#45;&gt;Node4 -->
<g id="edge3_Node000003_Node000004" class="edge">
<title>Node3&#45;&gt;Node4</title>
<g id="a_edge3_Node000003_Node000004"><a xlink:title=" ">
<path fill="none" stroke="#63b8ff" d="M369.25,-120.03C405.71,-126.32 453.63,-134.58 492,-141.2"/>
<polygon fill="#63b8ff" stroke="#63b8ff" points="491.59,-144.68 502.04,-142.93 492.78,-137.79 491.59,-144.68"/>
</a>
</g>
</g>
<!-- Node9 -->
<g id="Node000009" class="node">
<title>Node9</title>
<g id="a_Node000009"><a xlink:href="../../d7/dc6/classChatManager.html#a32d2186b680379541c02b5212cebcabc" target="_top" xlink:title=" ">
<polygon fill="white" stroke="#666666" points="621,-120 496,-120 496,-101 621,-101 621,-120"/>
<text text-anchor="middle" x="558.5" y="-108" font-family="Helvetica,sans-Serif" font-size="10.00">ChatManager::nowSec</text>
</a>
</g>
</g>
<!-- Node3&#45;&gt;Node9 -->
<g id="edge8_Node000003_Node000009" class="edge">
<title>Node3&#45;&gt;Node9</title>
<g id="a_edge8_Node000003_Node000009"><a xlink:title=" ">
<path fill="none" stroke="#63b8ff" d="M419.03,-110.5C441.6,-110.5 464.95,-110.5 485.89,-110.5"/>
<polygon fill="#63b8ff" stroke="#63b8ff" points="485.97,-114 495.97,-110.5 485.97,-107 485.97,-114"/>
</a>
</g>
</g>
<!-- Node10 -->
<g id="Node000010" class="node">
<title>Node10</title>
<g id="a_Node000010"><a xlink:href="../../d7/dc6/classChatManager.html#a12a185f305c7886960e02f78c61ccd18" target="_top" xlink:title=" ">
<polygon fill="white" stroke="#666666" points="648.5,-74 468.5,-74 468.5,-55 648.5,-55 648.5,-74"/>
<text text-anchor="middle" x="558.5" y="-62" font-family="Helvetica,sans-Serif" font-size="10.00">ChatManager::pushMessageLocal</text>
</a>
</g>
</g>
<!-- Node3&#45;&gt;Node10 -->
<g id="edge9_Node000003_Node000010" class="edge">
<title>Node3&#45;&gt;Node10</title>
<g id="a_edge9_Node000003_Node000010"><a xlink:title=" ">
<path fill="none" stroke="#63b8ff" d="M364.45,-100.97C403.06,-93.68 456.44,-83.59 497.28,-75.88"/>
<polygon fill="#63b8ff" stroke="#63b8ff" points="497.93,-79.31 507.11,-74.02 496.64,-72.44 497.93,-79.31"/>
</a>
</g>
</g>
<!-- Node5 -->
<g id="Node000005" class="node">
<title>Node5</title>
<g id="a_Node000005"><a xlink:href="../../d7/dc6/classChatManager.html#aecdeceb9be9b9b14c31f11526dbfd5a7" target="_top" xlink:title=" ">
<polygon fill="white" stroke="#666666" points="884.5,-204 743.5,-204 743.5,-185 884.5,-185 884.5,-204"/>
<text text-anchor="middle" x="814" y="-192" font-family="Helvetica,sans-Serif" font-size="10.00">ChatManager::hasCurrent</text>
</a>
</g>
</g>
<!-- Node4&#45;&gt;Node5 -->
<g id="edge4_Node000004_Node000005" class="edge">
<title>Node4&#45;&gt;Node5</title>
<g id="a_edge4_Node000004_Node000005"><a xlink:title=" ">
<path fill="none" stroke="#63b8ff" d="M613.4,-162.05C639.01,-166.53 670.07,-171.89 698,-176.5 711.8,-178.78 726.54,-181.14 740.71,-183.37"/>
<polygon fill="#63b8ff" stroke="#63b8ff" points="740.48,-186.88 750.9,-184.97 741.56,-179.96 740.48,-186.88"/>
</a>
</g>
</g>
<!-- Node6 -->
<g id="Node000006" class="node">
<title>Node6</title>
<g id="a_Node000006"><a xlink:href="../../d5/d64/namespacemsg.html#a0969cd8a8185332490b7ecde9021086a" target="_top" xlink:title=" ">
<polygon fill="white" stroke="#666666" points="882.5,-167 745.5,-167 745.5,-148 882.5,-148 882.5,-167"/>
<text text-anchor="middle" x="814" y="-155" font-family="Helvetica,sans-Serif" font-size="10.00">msg::makeChatMessage</text>
</a>
</g>
</g>
<!-- Node4&#45;&gt;Node6 -->
<g id="edge5_Node000004_Node000006" class="edge">
<title>Node4&#45;&gt;Node6</title>
<g id="a_edge5_Node000004_Node000006"><a xlink:title=" ">
<path fill="none" stroke="#63b8ff" d="M662.24,-154.53C686.63,-155.01 712.25,-155.51 735.31,-155.97"/>
<polygon fill="#63b8ff" stroke="#63b8ff" points="735.3,-159.47 745.37,-156.17 735.44,-152.47 735.3,-159.47"/>
</a>
</g>
</g>
<!-- Node8 -->
<g id="Node000008" class="node">
<title>Node8</title>
<g id="a_Node000008"><a xlink:href="../../d7/dc6/classChatManager.html#a355992faeefc4f8695bfe76f2c7f295e" target="_top" xlink:title=" ">
<polygon fill="white" stroke="#666666" points="930,-130 698,-130 698,-111 930,-111 930,-130"/>
<text text-anchor="middle" x="814" y="-118" font-family="Helvetica,sans-Serif" font-size="10.00">ChatManager::resolvePeerIdsForParticipants</text>
</a>
</g>
</g>
<!-- Node4&#45;&gt;Node8 -->
<g id="edge7_Node000004_Node000008" class="edge">
<title>Node4&#45;&gt;Node8</title>
<g id="a_edge7_Node000004_Node000008"><a xlink:title=" ">
<path fill="none" stroke="#63b8ff" d="M634.87,-142.99C663.98,-139.31 697.44,-135.09 727.45,-131.3"/>
<polygon fill="#63b8ff" stroke="#63b8ff" points="728,-134.76 737.48,-130.03 727.12,-127.81 728,-134.76"/>
</a>
</g>
</g>
<!-- Node7 -->
<g id="Node000007" class="node">
<title>Node7</title>
<g id="a_Node000007"><a xlink:href="../../d5/d64/namespacemsg.html#ad8139941ca11d8369f89b262890dad33" target="_top" xlink:title=" ">
<polygon fill="white" stroke="#666666" points="1077,-167 966,-167 966,-148 1077,-148 1077,-167"/>
<text text-anchor="middle" x="1021.5" y="-155" font-family="Helvetica,sans-Serif" font-size="10.00">msg::DCTypeToJson</text>
</a>
</g>
</g>
<!-- Node6&#45;&gt;Node7 -->
<g id="edge6_Node000006_Node000007" class="edge">
<title>Node6&#45;&gt;Node7</title>
<g id="a_edge6_Node000006_Node000007"><a xlink:title=" ">
<path fill="none" stroke="#63b8ff" d="M882.57,-157.5C906.11,-157.5 932.45,-157.5 955.76,-157.5"/>
<polygon fill="#63b8ff" stroke="#63b8ff" points="955.89,-161 965.89,-157.5 955.89,-154 955.89,-161"/>
</a>
</g>
</g>
<!-- Node11 -->
<g id="Node000011" class="node">
<title>Node11</title>
<g id="a_Node000011"><a xlink:href="../../d7/dc6/classChatManager.html#aab66b4f8e1ca105e3670836cffdeb2fa" target="_top" xlink:title=" ">
<polygon fill="white" stroke="#666666" points="898,-93 730,-93 730,-74 898,-74 898,-93"/>
<text text-anchor="middle" x="814" y="-81" font-family="Helvetica,sans-Serif" font-size="10.00">ChatManager::classifyMessage</text>
</a>
</g>
</g>
<!-- Node10&#45;&gt;Node11 -->
<g id="edge10_Node000010_Node000011" class="edge">
<title>Node10&#45;&gt;Node11</title>
<g id="a_edge10_Node000010_Node000011"><a xlink:title=" ">
<path fill="none" stroke="#63b8ff" d="M648.52,-71.17C671.51,-72.9 696.32,-74.75 719.53,-76.49"/>
<polygon fill="#63b8ff" stroke="#63b8ff" points="719.49,-80 729.72,-77.26 720.01,-73.02 719.49,-80"/>
</a>
</g>
</g>
<!-- Node13 -->
<g id="Node000013" class="node">
<title>Node13</title>
<g id="a_Node000013"><a xlink:href="../../d7/dc6/classChatManager.html#a19ecba5f58757b7ce91ad2f3b57f87a3" target="_top" xlink:title=" ">
<polygon fill="white" stroke="#666666" points="880.5,-56 747.5,-56 747.5,-37 880.5,-37 880.5,-56"/>
<text text-anchor="middle" x="814" y="-44" font-family="Helvetica,sans-Serif" font-size="10.00">ChatManager::getGroup</text>
</a>
</g>
</g>
<!-- Node10&#45;&gt;Node13 -->
<g id="edge12_Node000010_Node000013" class="edge">
<title>Node10&#45;&gt;Node13</title>
<g id="a_edge12_Node000010_Node000013"><a xlink:title=" ">
<path fill="none" stroke="#63b8ff" d="M648.52,-58.18C677.49,-56.12 709.35,-53.86 737.26,-51.88"/>
<polygon fill="#63b8ff" stroke="#63b8ff" points="737.62,-55.36 747.34,-51.16 737.12,-48.38 737.62,-55.36"/>
</a>
</g>
</g>
<!-- Node14 -->
<g id="Node000014" class="node">
<title>Node14</title>
<g id="a_Node000014"><a xlink:href="../../db/d67/classLogger.html#aebb248e608f8e2724de20b482cb2a15f" target="_top" xlink:title=" ">
<polygon fill="white" stroke="#666666" points="862.5,-19 765.5,-19 765.5,0 862.5,0 862.5,-19"/>
<text text-anchor="middle" x="814" y="-7" font-family="Helvetica,sans-Serif" font-size="10.00">Logger::instance</text>
</a>
</g>
</g>
<!-- Node10&#45;&gt;Node14 -->
<g id="edge13_Node000010_Node000014" class="edge">
<title>Node10&#45;&gt;Node14</title>
<g id="a_edge13_Node000010_Node000014"><a xlink:title=" ">
<path fill="none" stroke="#63b8ff" d="M592.6,-54.99C620.54,-47.19 661.67,-36.21 698,-28.5 716.54,-24.57 736.91,-20.97 755.28,-17.99"/>
<polygon fill="#63b8ff" stroke="#63b8ff" points="755.94,-21.43 765.26,-16.4 754.83,-14.51 755.94,-21.43"/>
</a>
</g>
</g>
<!-- Node12 -->
<g id="Node000012" class="node">
<title>Node12</title>
<g id="a_Node000012"><a xlink:href="../../d2/dae/ChatManager_8cpp.html#aad5eed848015271ba953705f1e4cc3b1" target="_top" xlink:title=" ">
<polygon fill="white" stroke="#666666" points="1070,-93 973,-93 973,-74 1070,-74 1070,-93"/>
<text text-anchor="middle" x="1021.5" y="-81" font-family="Helvetica,sans-Serif" font-size="10.00">ends_with_icase</text>
</a>
</g>
</g>
<!-- Node11&#45;&gt;Node12 -->
<g id="edge11_Node000011_Node000012" class="edge">
<title>Node11&#45;&gt;Node12</title>
<g id="a_edge11_Node000011_Node000012"><a xlink:title=" ">
<path fill="none" stroke="#63b8ff" d="M898.29,-83.5C919.89,-83.5 942.68,-83.5 962.66,-83.5"/>
<polygon fill="#63b8ff" stroke="#63b8ff" points="962.82,-87 972.82,-83.5 962.82,-80 962.82,-87"/>
</a>
</g>
</g>
</g>
</svg>
