<?xml version="1.0" encoding="UTF-8" standalone="no"?>
<!DOCTYPE svg PUBLIC "-//W3C//DTD SVG 1.1//EN"
 "http://www.w3.org/Graphics/SVG/1.1/DTD/svg11.dtd">
<!-- Generated by graphviz version 2.43.0 (0)
 -->
<!-- Title: ChatManager::emitGroupUpdate Pages: 1 -->
<svg width="598pt" height="101pt"
 viewBox="0.00 0.00 598.00 101.00" xmlns="http://www.w3.org/2000/svg" xmlns:xlink="http://www.w3.org/1999/xlink">
<g id="graph0" class="graph" transform="scale(1 1) rotate(0) translate(4 97)">
<title>ChatManager::emitGroupUpdate</title>
<!-- Node1 -->
<g id="Node000001" class="node">
<title>Node1</title>
<g id="a_Node000001"><a xlink:title=" ">
<polygon fill="#999999" stroke="#666666" points="175,-56 0,-56 0,-37 175,-37 175,-56"/>
<text text-anchor="middle" x="87.5" y="-44" font-family="Helvetica,sans-Serif" font-size="10.00">ChatManager::emitGroupUpdate</text>
</a>
</g>
</g>
<!-- Node2 -->
<g id="Node000002" class="node">
<title>Node2</title>
<g id="a_Node000002"><a xlink:href="../../d7/dc6/classChatManager.html#aecdeceb9be9b9b14c31f11526dbfd5a7" target="_top" xlink:title=" ">
<polygon fill="white" stroke="#666666" points="397.5,-93 256.5,-93 256.5,-74 397.5,-74 397.5,-93"/>
<text text-anchor="middle" x="327" y="-81" font-family="Helvetica,sans-Serif" font-size="10.00">ChatManager::hasCurrent</text>
</a>
</g>
</g>
<!-- Node1&#45;&gt;Node2 -->
<g id="edge1_Node000001_Node000002" class="edge">
<title>Node1&#45;&gt;Node2</title>
<g id="a_edge1_Node000001_Node000002"><a xlink:title=" ">
<path fill="none" stroke="#63b8ff" d="M149.66,-56.03C181.67,-61.02 221.05,-67.15 254.47,-72.36"/>
<polygon fill="#63b8ff" stroke="#63b8ff" points="254.21,-75.86 264.63,-73.94 255.29,-68.94 254.21,-75.86"/>
</a>
</g>
</g>
<!-- Node3 -->
<g id="Node000003" class="node">
<title>Node3</title>
<g id="a_Node000003"><a xlink:href="../../d5/d64/namespacemsg.html#a24e8339bdeb6b6a9847b7134e8e016ad" target="_top" xlink:title=" ">
<polygon fill="white" stroke="#666666" points="406,-56 248,-56 248,-37 406,-37 406,-56"/>
<text text-anchor="middle" x="327" y="-44" font-family="Helvetica,sans-Serif" font-size="10.00">msg::makeChatGroupUpdate</text>
</a>
</g>
</g>
<!-- Node1&#45;&gt;Node3 -->
<g id="edge2_Node000001_Node000003" class="edge">
<title>Node1&#45;&gt;Node3</title>
<g id="a_edge2_Node000001_Node000003"><a xlink:title=" ">
<path fill="none" stroke="#63b8ff" d="M175.25,-46.5C195.54,-46.5 217.18,-46.5 237.54,-46.5"/>
<polygon fill="#63b8ff" stroke="#63b8ff" points="237.74,-50 247.74,-46.5 237.74,-43 237.74,-50"/>
</a>
</g>
</g>
<!-- Node5 -->
<g id="Node000005" class="node">
<title>Node5</title>
<g id="a_Node000005"><a xlink:href="../../d7/dc6/classChatManager.html#a355992faeefc4f8695bfe76f2c7f295e" target="_top" xlink:title=" ">
<polygon fill="white" stroke="#666666" points="443,-19 211,-19 211,0 443,0 443,-19"/>
<text text-anchor="middle" x="327" y="-7" font-family="Helvetica,sans-Serif" font-size="10.00">ChatManager::resolvePeerIdsForParticipants</text>
</a>
</g>
</g>
<!-- Node1&#45;&gt;Node5 -->
<g id="edge4_Node000001_Node000005" class="edge">
<title>Node1&#45;&gt;Node5</title>
<g id="a_edge4_Node000001_Node000005"><a xlink:title=" ">
<path fill="none" stroke="#63b8ff" d="M149.66,-36.97C181.67,-31.98 221.05,-25.85 254.47,-20.64"/>
<polygon fill="#63b8ff" stroke="#63b8ff" points="255.29,-24.06 264.63,-19.06 254.21,-17.14 255.29,-24.06"/>
</a>
</g>
</g>
<!-- Node4 -->
<g id="Node000004" class="node">
<title>Node4</title>
<g id="a_Node000004"><a xlink:href="../../d5/d64/namespacemsg.html#ad8139941ca11d8369f89b262890dad33" target="_top" xlink:title=" ">
<polygon fill="white" stroke="#666666" points="590,-56 479,-56 479,-37 590,-37 590,-56"/>
<text text-anchor="middle" x="534.5" y="-44" font-family="Helvetica,sans-Serif" font-size="10.00">msg::DCTypeToJson</text>
</a>
</g>
</g>
<!-- Node3&#45;&gt;Node4 -->
<g id="edge3_Node000003_Node000004" class="edge">
<title>Node3&#45;&gt;Node4</title>
<g id="a_edge3_Node000003_Node000004"><a xlink:title=" ">
<path fill="none" stroke="#63b8ff" d="M406.28,-46.5C426.85,-46.5 448.81,-46.5 468.6,-46.5"/>
<polygon fill="#63b8ff" stroke="#63b8ff" points="468.73,-50 478.73,-46.5 468.73,-43 468.73,-50"/>
</a>
</g>
</g>
</g>
</svg>
