<?xml version="1.0" encoding="UTF-8" standalone="no"?>
<!DOCTYPE svg PUBLIC "-//W3C//DTD SVG 1.1//EN"
 "http://www.w3.org/Graphics/SVG/1.1/DTD/svg11.dtd">
<!-- Generated by graphviz version 2.43.0 (0)
 -->
<!-- Title: GameTableManager::processReceivedMessages Pages: 1 -->
<svg width="504pt" height="101pt"
 viewBox="0.00 0.00 504.00 101.00" xmlns="http://www.w3.org/2000/svg" xmlns:xlink="http://www.w3.org/1999/xlink">
<g id="graph0" class="graph" transform="scale(1 1) rotate(0) translate(4 97)">
<title>GameTableManager::processReceivedMessages</title>
<!-- Node1 -->
<g id="Node000001" class="node">
<title>Node1</title>
<g id="a_Node000001"><a xlink:title=" ">
<polygon fill="#999999" stroke="#666666" points="251,-56 0,-56 0,-37 251,-37 251,-56"/>
<text text-anchor="middle" x="125.5" y="-44" font-family="Helvetica,sans-Serif" font-size="10.00">GameTableManager::processReceivedMessages</text>
</a>
</g>
</g>
<!-- Node2 -->
<g id="Node000002" class="node">
<title>Node2</title>
<g id="a_Node000002"><a xlink:href="../../d5/d64/namespacemsg.html#ad0d441d4fd6757bd6ae4637c3eb2409e" target="_top" xlink:title=" ">
<polygon fill="white" stroke="#666666" points="445.5,-93 337.5,-93 337.5,-74 445.5,-74 445.5,-93"/>
<text text-anchor="middle" x="391.5" y="-81" font-family="Helvetica,sans-Serif" font-size="10.00">msg::DCtypeString</text>
</a>
</g>
</g>
<!-- Node1&#45;&gt;Node2 -->
<g id="edge1_Node000001_Node000002" class="edge">
<title>Node1&#45;&gt;Node2</title>
<g id="a_edge1_Node000001_Node000002"><a xlink:title=" ">
<path fill="none" stroke="#63b8ff" d="M194.49,-56.03C235.47,-61.77 287.32,-69.04 327.39,-74.66"/>
<polygon fill="#63b8ff" stroke="#63b8ff" points="326.93,-78.12 337.32,-76.05 327.9,-71.19 326.93,-78.12"/>
</a>
</g>
</g>
<!-- Node3 -->
<g id="Node000003" class="node">
<title>Node3</title>
<g id="a_Node000003"><a xlink:href="../../da/d28/classGameTableManager.html#a2ca899731dbc261de7020050d2147b98" target="_top" xlink:title=" ">
<polygon fill="white" stroke="#666666" points="496,-56 287,-56 287,-37 496,-37 496,-56"/>
<text text-anchor="middle" x="391.5" y="-44" font-family="Helvetica,sans-Serif" font-size="10.00">GameTableManager::findMarkerInBoard</text>
</a>
</g>
</g>
<!-- Node1&#45;&gt;Node3 -->
<g id="edge2_Node000001_Node000003" class="edge">
<title>Node1&#45;&gt;Node3</title>
<g id="a_edge2_Node000001_Node000003"><a xlink:title=" ">
<path fill="none" stroke="#63b8ff" d="M251.16,-46.5C259.6,-46.5 268.09,-46.5 276.48,-46.5"/>
<polygon fill="#63b8ff" stroke="#63b8ff" points="276.65,-50 286.65,-46.5 276.65,-43 276.65,-50"/>
</a>
</g>
</g>
<!-- Node4 -->
<g id="Node000004" class="node">
<title>Node4</title>
<g id="a_Node000004"><a xlink:href="../../db/d67/classLogger.html#aebb248e608f8e2724de20b482cb2a15f" target="_top" xlink:title=" ">
<polygon fill="white" stroke="#666666" points="440,-19 343,-19 343,0 440,0 440,-19"/>
<text text-anchor="middle" x="391.5" y="-7" font-family="Helvetica,sans-Serif" font-size="10.00">Logger::instance</text>
</a>
</g>
</g>
<!-- Node1&#45;&gt;Node4 -->
<g id="edge3_Node000001_Node000004" class="edge">
<title>Node1&#45;&gt;Node4</title>
<g id="a_edge3_Node000001_Node000004"><a xlink:title=" ">
<path fill="none" stroke="#63b8ff" d="M194.49,-36.97C237.3,-30.97 291.97,-23.31 332.69,-17.6"/>
<polygon fill="#63b8ff" stroke="#63b8ff" points="333.31,-21.05 342.73,-16.2 332.34,-14.12 333.31,-21.05"/>
</a>
</g>
</g>
</g>
</svg>
