<?xml version="1.0" encoding="UTF-8" standalone="no"?>
<!DOCTYPE svg PUBLIC "-//W3C//DTD SVG 1.1//EN"
 "http://www.w3.org/Graphics/SVG/1.1/DTD/svg11.dtd">
<!-- Generated by graphviz version 2.43.0 (0)
 -->
<!-- Title: GameTableManager::createGameTableFile Pages: 1 -->
<svg width="1256pt" height="367pt"
 viewBox="0.00 0.00 1256.00 367.00" xmlns="http://www.w3.org/2000/svg" xmlns:xlink="http://www.w3.org/1999/xlink">
<g id="graph0" class="graph" transform="scale(1 1) rotate(0) translate(4 363)">
<title>GameTableManager::createGameTableFile</title>
<!-- Node1 -->
<g id="Node000001" class="node">
<title>Node1</title>
<g id="a_Node000001"><a xlink:title=" ">
<polygon fill="#999999" stroke="#666666" points="223,-301 0,-301 0,-282 223,-282 223,-301"/>
<text text-anchor="middle" x="111.5" y="-289" font-family="Helvetica,sans-Serif" font-size="10.00">GameTableManager::createGameTableFile</text>
</a>
</g>
</g>
<!-- Node2 -->
<g id="Node000002" class="node">
<title>Node2</title>
<g id="a_Node000002"><a xlink:href="../../d8/dec/classPathManager.html#a6be0a95403caf375f4d7b642f0f90061" target="_top" xlink:title=" ">
<polygon fill="white" stroke="#666666" points="447,-339 264,-339 264,-320 447,-320 447,-339"/>
<text text-anchor="middle" x="355.5" y="-327" font-family="Helvetica,sans-Serif" font-size="10.00">PathManager::getGameTablesPath</text>
</a>
</g>
</g>
<!-- Node1&#45;&gt;Node2 -->
<g id="edge1_Node000001_Node000002" class="edge">
<title>Node1&#45;&gt;Node2</title>
<g id="a_edge1_Node000001_Node000002"><a xlink:title=" ">
<path fill="none" stroke="#63b8ff" d="M173.25,-301.04C206.77,-306.3 248.56,-312.87 283.57,-318.36"/>
<polygon fill="#63b8ff" stroke="#63b8ff" points="283.3,-321.86 293.72,-319.96 284.38,-314.95 283.3,-321.86"/>
</a>
</g>
</g>
<!-- Node4 -->
<g id="Node000004" class="node">
<title>Node4</title>
<g id="a_Node000004"><a xlink:href="../../db/d4b/classSerializer.html#a88ec96a4390db20ecce812518dd2622c" target="_top" xlink:title=" ">
<polygon fill="white" stroke="#666666" points="452,-283 259,-283 259,-264 452,-264 452,-283"/>
<text text-anchor="middle" x="355.5" y="-271" font-family="Helvetica,sans-Serif" font-size="10.00">Serializer::serializeGameTableEntity</text>
</a>
</g>
</g>
<!-- Node1&#45;&gt;Node4 -->
<g id="edge3_Node000001_Node000004" class="edge">
<title>Node1&#45;&gt;Node4</title>
<g id="a_edge3_Node000001_Node000004"><a xlink:title=" ">
<path fill="none" stroke="#63b8ff" d="M223.23,-283.26C231.64,-282.64 240.11,-282.01 248.48,-281.39"/>
<polygon fill="#63b8ff" stroke="#63b8ff" points="248.93,-284.86 258.64,-280.63 248.41,-277.88 248.93,-284.86"/>
</a>
</g>
</g>
<!-- Node3 -->
<g id="Node000003" class="node">
<title>Node3</title>
<g id="a_Node000003"><a xlink:href="../../d8/dec/classPathManager.html#a467b459b77c73cbc7544551b53911fcd" target="_top" xlink:title=" ">
<polygon fill="white" stroke="#666666" points="666,-359 488,-359 488,-340 666,-340 666,-359"/>
<text text-anchor="middle" x="577" y="-347" font-family="Helvetica,sans-Serif" font-size="10.00">PathManager::getExecutableRoot</text>
</a>
</g>
</g>
<!-- Node2&#45;&gt;Node3 -->
<g id="edge2_Node000002_Node000003" class="edge">
<title>Node2&#45;&gt;Node3</title>
<g id="a_edge2_Node000002_Node000003"><a xlink:title=" ">
<path fill="none" stroke="#63b8ff" d="M447.05,-337.75C457.14,-338.67 467.46,-339.61 477.65,-340.54"/>
<polygon fill="#63b8ff" stroke="#63b8ff" points="477.51,-344.04 487.78,-341.46 478.14,-337.07 477.51,-344.04"/>
</a>
</g>
</g>
<!-- Node5 -->
<g id="Node000005" class="node">
<title>Node5</title>
<g id="a_Node000005"><a xlink:href="../../db/d4b/classSerializer.html#a33c1046417ab5077d907baac823e7194" target="_top" xlink:title=" ">
<polygon fill="white" stroke="#666666" points="660.5,-151 493.5,-151 493.5,-132 660.5,-132 660.5,-151"/>
<text text-anchor="middle" x="577" y="-139" font-family="Helvetica,sans-Serif" font-size="10.00">Serializer::serializeBoardEntity</text>
</a>
</g>
</g>
<!-- Node4&#45;&gt;Node5 -->
<g id="edge4_Node000004_Node000005" class="edge">
<title>Node4&#45;&gt;Node5</title>
<g id="a_edge4_Node000004_Node000005"><a xlink:title=" ">
<path fill="none" stroke="#63b8ff" d="M372.64,-263.79C410.71,-240.9 506.29,-183.42 551.53,-156.21"/>
<polygon fill="#63b8ff" stroke="#63b8ff" points="553.37,-159.2 560.13,-151.04 549.76,-153.2 553.37,-159.2"/>
</a>
</g>
</g>
<!-- Node8 -->
<g id="Node000008" class="node">
<title>Node8</title>
<g id="a_Node000008"><a xlink:href="../../db/d4b/classSerializer.html#ac812cf485e5804fd6f22d34ae076f79f" target="_top" xlink:title=" ">
<polygon fill="white" stroke="#666666" points="1242,-227 1120,-227 1120,-208 1242,-208 1242,-227"/>
<text text-anchor="middle" x="1181" y="-215" font-family="Helvetica,sans-Serif" font-size="10.00">Serializer::serializeInt</text>
</a>
</g>
</g>
<!-- Node4&#45;&gt;Node8 -->
<g id="edge25_Node000004_Node000008" class="edge">
<title>Node4&#45;&gt;Node8</title>
<g id="a_edge25_Node000004_Node000008"><a xlink:title=" ">
<path fill="none" stroke="#63b8ff" d="M410.05,-283.01C433.84,-286.78 462.23,-290.65 488,-292.5 750.06,-311.33 822.52,-316.81 1078,-255.5 1102.79,-249.55 1129.78,-239.32 1149.77,-230.97"/>
<polygon fill="#63b8ff" stroke="#63b8ff" points="1151.15,-234.18 1158.98,-227.05 1148.41,-227.74 1151.15,-234.18"/>
</a>
</g>
</g>
<!-- Node16 -->
<g id="Node000016" class="node">
<title>Node16</title>
<g id="a_Node000016"><a xlink:href="../../db/d4b/classSerializer.html#a60889622ee4e36ea28a284e99bbdf4e5" target="_top" xlink:title=" ">
<polygon fill="white" stroke="#666666" points="874,-19 732,-19 732,0 874,0 874,-19"/>
<text text-anchor="middle" x="803" y="-7" font-family="Helvetica,sans-Serif" font-size="10.00">Serializer::serializeUInt64</text>
</a>
</g>
</g>
<!-- Node4&#45;&gt;Node16 -->
<g id="edge26_Node000004_Node000016" class="edge">
<title>Node4&#45;&gt;Node16</title>
<g id="a_edge26_Node000004_Node000016"><a xlink:title=" ">
<path fill="none" stroke="#63b8ff" d="M362.79,-263.82C380.01,-237.97 430.51,-166.33 488,-123.5 571.89,-61.01 601.88,-55.82 702,-25.5 708.39,-23.57 715.08,-21.85 721.85,-20.34"/>
<polygon fill="#63b8ff" stroke="#63b8ff" points="722.71,-23.73 731.78,-18.26 721.28,-16.88 722.71,-23.73"/>
</a>
</g>
</g>
<!-- Node17 -->
<g id="Node000017" class="node">
<title>Node17</title>
<g id="a_Node000017"><a xlink:href="../../db/d4b/classSerializer.html#a776a157c2ae2e009d25025e0ed151fcb" target="_top" xlink:title=" ">
<polygon fill="white" stroke="#666666" points="659,-283 495,-283 495,-264 659,-264 659,-283"/>
<text text-anchor="middle" x="577" y="-271" font-family="Helvetica,sans-Serif" font-size="10.00">Serializer::serializeGameTable</text>
</a>
</g>
</g>
<!-- Node4&#45;&gt;Node17 -->
<g id="edge23_Node000004_Node000017" class="edge">
<title>Node4&#45;&gt;Node17</title>
<g id="a_edge23_Node000004_Node000017"><a xlink:title=" ">
<path fill="none" stroke="#63b8ff" d="M452.14,-273.5C462.91,-273.5 473.86,-273.5 484.57,-273.5"/>
<polygon fill="#63b8ff" stroke="#63b8ff" points="484.76,-277 494.76,-273.5 484.76,-270 484.76,-277"/>
</a>
</g>
</g>
<!-- Node6 -->
<g id="Node000006" class="node">
<title>Node6</title>
<g id="a_Node000006"><a xlink:href="../../db/d4b/classSerializer.html#a9555132c02190d9a832a360fb236e954" target="_top" xlink:title=" ">
<polygon fill="white" stroke="#666666" points="872,-245 734,-245 734,-226 872,-226 872,-245"/>
<text text-anchor="middle" x="803" y="-233" font-family="Helvetica,sans-Serif" font-size="10.00">Serializer::serializeBoard</text>
</a>
</g>
</g>
<!-- Node5&#45;&gt;Node6 -->
<g id="edge5_Node000005_Node000006" class="edge">
<title>Node5&#45;&gt;Node6</title>
<g id="a_edge5_Node000005_Node000006"><a xlink:title=" ">
<path fill="none" stroke="#63b8ff" d="M590.21,-151.16C611.56,-167.54 657.64,-200.6 702,-217.5 708.99,-220.16 716.41,-222.44 723.93,-224.38"/>
<polygon fill="#63b8ff" stroke="#63b8ff" points="723.29,-227.83 733.83,-226.75 724.92,-221.02 723.29,-227.83"/>
</a>
</g>
</g>
<!-- Node5&#45;&gt;Node8 -->
<g id="edge13_Node000005_Node000008" class="edge">
<title>Node5&#45;&gt;Node8</title>
<g id="a_edge13_Node000005_Node000008"><a xlink:title=" ">
<path fill="none" stroke="#63b8ff" d="M660.84,-150.5C760.12,-161.49 931.43,-181.17 1078,-201.5 1088.81,-203 1100.24,-204.69 1111.39,-206.4"/>
<polygon fill="#63b8ff" stroke="#63b8ff" points="1111.11,-209.89 1121.53,-207.96 1112.18,-202.98 1111.11,-209.89"/>
</a>
</g>
</g>
<!-- Node9 -->
<g id="Node000009" class="node">
<title>Node9</title>
<g id="a_Node000009"><a xlink:href="../../db/d4b/classSerializer.html#ad0d31f7afee6b62ebc3c4f05bfef6bf2" target="_top" xlink:title=" ">
<polygon fill="white" stroke="#666666" points="868,-132 738,-132 738,-113 868,-113 868,-132"/>
<text text-anchor="middle" x="803" y="-120" font-family="Helvetica,sans-Serif" font-size="10.00">Serializer::serializeGrid</text>
</a>
</g>
</g>
<!-- Node5&#45;&gt;Node9 -->
<g id="edge8_Node000005_Node000009" class="edge">
<title>Node5&#45;&gt;Node9</title>
<g id="a_edge8_Node000005_Node000009"><a xlink:title=" ">
<path fill="none" stroke="#63b8ff" d="M660.77,-134.48C682.72,-132.62 706.28,-130.62 727.74,-128.8"/>
<polygon fill="#63b8ff" stroke="#63b8ff" points="728.1,-132.28 737.77,-127.95 727.51,-125.31 728.1,-132.28"/>
</a>
</g>
</g>
<!-- Node13 -->
<g id="Node000013" class="node">
<title>Node13</title>
<g id="a_Node000013"><a xlink:href="../../db/d4b/classSerializer.html#a05ba0aafb8b9ccd2050b1d61f9525ded" target="_top" xlink:title=" ">
<polygon fill="white" stroke="#666666" points="877,-95 729,-95 729,-76 877,-76 877,-95"/>
<text text-anchor="middle" x="803" y="-83" font-family="Helvetica,sans-Serif" font-size="10.00">Serializer::serializePanning</text>
</a>
</g>
</g>
<!-- Node5&#45;&gt;Node13 -->
<g id="edge14_Node000005_Node000013" class="edge">
<title>Node5&#45;&gt;Node13</title>
<g id="a_edge14_Node000005_Node000013"><a xlink:title=" ">
<path fill="none" stroke="#63b8ff" d="M606.83,-131.98C631.82,-123.96 669.04,-112.53 702,-104.5 713.02,-101.82 724.8,-99.28 736.27,-96.99"/>
<polygon fill="#63b8ff" stroke="#63b8ff" points="737.1,-100.4 746.24,-95.05 735.76,-93.53 737.1,-100.4"/>
</a>
</g>
</g>
<!-- Node14 -->
<g id="Node000014" class="node">
<title>Node14</title>
<g id="a_Node000014"><a xlink:href="../../db/d4b/classSerializer.html#a6be006b0cf99a37c2146723395013b76" target="_top" xlink:title=" ">
<polygon fill="white" stroke="#666666" points="1074,-19 944,-19 944,0 1074,0 1074,-19"/>
<text text-anchor="middle" x="1009" y="-7" font-family="Helvetica,sans-Serif" font-size="10.00">Serializer::serializeSize</text>
</a>
</g>
</g>
<!-- Node5&#45;&gt;Node14 -->
<g id="edge16_Node000005_Node000014" class="edge">
<title>Node5&#45;&gt;Node14</title>
<g id="a_edge16_Node000005_Node000014"><a xlink:title=" ">
<path fill="none" stroke="#63b8ff" d="M590.59,-131.74C612.14,-115.55 658.04,-83.25 702,-66.5 713.28,-62.2 857.88,-36.14 944.2,-20.78"/>
<polygon fill="#63b8ff" stroke="#63b8ff" points="944.93,-24.21 954.17,-19.01 943.71,-17.32 944.93,-24.21"/>
</a>
</g>
</g>
<!-- Node15 -->
<g id="Node000015" class="node">
<title>Node15</title>
<g id="a_Node000015"><a xlink:href="../../db/d4b/classSerializer.html#a2e08effc9986b4b485dc4e40ffecb7fb" target="_top" xlink:title=" ">
<polygon fill="white" stroke="#666666" points="904,-208 702,-208 702,-189 904,-189 904,-208"/>
<text text-anchor="middle" x="803" y="-196" font-family="Helvetica,sans-Serif" font-size="10.00">Serializer::serializeTextureComponent</text>
</a>
</g>
</g>
<!-- Node5&#45;&gt;Node15 -->
<g id="edge18_Node000005_Node000015" class="edge">
<title>Node5&#45;&gt;Node15</title>
<g id="a_edge18_Node000005_Node000015"><a xlink:title=" ">
<path fill="none" stroke="#63b8ff" d="M612.95,-151.05C637.76,-157.76 671.87,-166.88 702,-174.5 717.9,-178.52 735.27,-182.75 751,-186.52"/>
<polygon fill="#63b8ff" stroke="#63b8ff" points="750.54,-190 761.08,-188.92 752.16,-183.19 750.54,-190"/>
</a>
</g>
</g>
<!-- Node5&#45;&gt;Node16 -->
<g id="edge22_Node000005_Node000016" class="edge">
<title>Node5&#45;&gt;Node16</title>
<g id="a_edge22_Node000005_Node000016"><a xlink:title=" ">
<path fill="none" stroke="#63b8ff" d="M588.45,-131.89C615.9,-106.7 688.87,-40.27 702,-33.5 711.26,-28.73 721.49,-24.88 731.78,-21.79"/>
<polygon fill="#63b8ff" stroke="#63b8ff" points="732.92,-25.1 741.62,-19.05 731.05,-18.36 732.92,-25.1"/>
</a>
</g>
</g>
<!-- Node7 -->
<g id="Node000007" class="node">
<title>Node7</title>
<g id="a_Node000007"><a xlink:href="../../db/d4b/classSerializer.html#a8a72c08ebb91348dc2a7ef6557c44f6c" target="_top" xlink:title=" ">
<polygon fill="white" stroke="#666666" points="1078,-246 940,-246 940,-227 1078,-227 1078,-246"/>
<text text-anchor="middle" x="1009" y="-234" font-family="Helvetica,sans-Serif" font-size="10.00">Serializer::serializeString</text>
</a>
</g>
</g>
<!-- Node6&#45;&gt;Node7 -->
<g id="edge6_Node000006_Node000007" class="edge">
<title>Node6&#45;&gt;Node7</title>
<g id="a_edge6_Node000006_Node000007"><a xlink:title=" ">
<path fill="none" stroke="#63b8ff" d="M872.21,-235.83C890.67,-235.92 910.79,-236.02 929.76,-236.12"/>
<polygon fill="#63b8ff" stroke="#63b8ff" points="929.83,-239.62 939.85,-236.17 929.87,-232.62 929.83,-239.62"/>
</a>
</g>
</g>
<!-- Node7&#45;&gt;Node8 -->
<g id="edge7_Node000007_Node000008" class="edge">
<title>Node7&#45;&gt;Node8</title>
<g id="a_edge7_Node000007_Node000008"><a xlink:title=" ">
<path fill="none" stroke="#63b8ff" d="M1078.17,-228.88C1088.49,-227.73 1099.16,-226.54 1109.53,-225.38"/>
<polygon fill="#63b8ff" stroke="#63b8ff" points="1110.23,-228.82 1119.77,-224.23 1109.45,-221.86 1110.23,-228.82"/>
</a>
</g>
</g>
<!-- Node10 -->
<g id="Node000010" class="node">
<title>Node10</title>
<g id="a_Node000010"><a xlink:href="../../db/d4b/classSerializer.html#a2a407c3a379b680296ee190ed625f05f" target="_top" xlink:title=" ">
<polygon fill="white" stroke="#666666" points="1074.5,-56 943.5,-56 943.5,-37 1074.5,-37 1074.5,-56"/>
<text text-anchor="middle" x="1009" y="-44" font-family="Helvetica,sans-Serif" font-size="10.00">Serializer::serializeBool</text>
</a>
</g>
</g>
<!-- Node9&#45;&gt;Node10 -->
<g id="edge9_Node000009_Node000010" class="edge">
<title>Node9&#45;&gt;Node10</title>
<g id="a_edge9_Node000009_Node000010"><a xlink:title=" ">
<path fill="none" stroke="#63b8ff" d="M868.2,-116.61C880.5,-113.93 892.98,-110.06 904,-104.5 923.65,-94.58 921.22,-81.97 940,-70.5 946.99,-66.23 954.85,-62.58 962.67,-59.51"/>
<polygon fill="#63b8ff" stroke="#63b8ff" points="963.95,-62.76 972.14,-56.04 961.54,-56.19 963.95,-62.76"/>
</a>
</g>
</g>
<!-- Node11 -->
<g id="Node000011" class="node">
<title>Node11</title>
<g id="a_Node000011"><a xlink:href="../../db/d4b/classSerializer.html#a92ffe65857abd6eea6a393056a9bb533" target="_top" xlink:title=" ">
<polygon fill="white" stroke="#666666" points="1248,-94 1114,-94 1114,-75 1248,-75 1248,-94"/>
<text text-anchor="middle" x="1181" y="-82" font-family="Helvetica,sans-Serif" font-size="10.00">Serializer::serializeFloat</text>
</a>
</g>
</g>
<!-- Node9&#45;&gt;Node11 -->
<g id="edge10_Node000009_Node000011" class="edge">
<title>Node9&#45;&gt;Node11</title>
<g id="a_edge10_Node000009_Node000011"><a xlink:title=" ">
<path fill="none" stroke="#63b8ff" d="M868.26,-113.34C890.91,-110.29 916.56,-107.03 940,-104.5 994.7,-98.6 1056.58,-93.48 1103.81,-89.9"/>
<polygon fill="#63b8ff" stroke="#63b8ff" points="1104.25,-93.38 1113.96,-89.14 1103.72,-86.4 1104.25,-93.38"/>
</a>
</g>
</g>
<!-- Node12 -->
<g id="Node000012" class="node">
<title>Node12</title>
<g id="a_Node000012"><a xlink:href="../../db/d4b/classSerializer.html#a52943821c1686ae47c30586ec7f9bc7e" target="_top" xlink:title=" ">
<polygon fill="white" stroke="#666666" points="1075.5,-132 942.5,-132 942.5,-113 1075.5,-113 1075.5,-132"/>
<text text-anchor="middle" x="1009" y="-120" font-family="Helvetica,sans-Serif" font-size="10.00">Serializer::serializeVec2</text>
</a>
</g>
</g>
<!-- Node9&#45;&gt;Node12 -->
<g id="edge11_Node000009_Node000012" class="edge">
<title>Node9&#45;&gt;Node12</title>
<g id="a_edge11_Node000009_Node000012"><a xlink:title=" ">
<path fill="none" stroke="#63b8ff" d="M868.27,-122.5C888.54,-122.5 911.13,-122.5 932.13,-122.5"/>
<polygon fill="#63b8ff" stroke="#63b8ff" points="932.3,-126 942.3,-122.5 932.3,-119 932.3,-126"/>
</a>
</g>
</g>
<!-- Node12&#45;&gt;Node11 -->
<g id="edge12_Node000012_Node000011" class="edge">
<title>Node12&#45;&gt;Node11</title>
<g id="a_edge12_Node000012_Node000011"><a xlink:title=" ">
<path fill="none" stroke="#63b8ff" d="M1052.9,-112.91C1075.53,-107.85 1103.5,-101.6 1127.43,-96.25"/>
<polygon fill="#63b8ff" stroke="#63b8ff" points="1128.41,-99.62 1137.41,-94.02 1126.89,-92.79 1128.41,-99.62"/>
</a>
</g>
</g>
<!-- Node13&#45;&gt;Node10 -->
<g id="edge15_Node000013_Node000010" class="edge">
<title>Node13&#45;&gt;Node10</title>
<g id="a_edge15_Node000013_Node000010"><a xlink:title=" ">
<path fill="none" stroke="#63b8ff" d="M853.9,-75.96C882.41,-70.51 918.34,-63.64 948.33,-57.91"/>
<polygon fill="#63b8ff" stroke="#63b8ff" points="949.09,-61.33 958.26,-56.01 947.78,-54.45 949.09,-61.33"/>
</a>
</g>
</g>
<!-- Node14&#45;&gt;Node11 -->
<g id="edge17_Node000014_Node000011" class="edge">
<title>Node14&#45;&gt;Node11</title>
<g id="a_edge17_Node000014_Node000011"><a xlink:title=" ">
<path fill="none" stroke="#63b8ff" d="M1052.62,-19.02C1061.15,-21.42 1069.96,-24.25 1078,-27.5 1106.54,-39.04 1137.09,-56.93 1157.23,-69.58"/>
<polygon fill="#63b8ff" stroke="#63b8ff" points="1155.4,-72.56 1165.71,-74.99 1159.16,-66.66 1155.4,-72.56"/>
</a>
</g>
</g>
<!-- Node15&#45;&gt;Node7 -->
<g id="edge20_Node000015_Node000007" class="edge">
<title>Node15&#45;&gt;Node7</title>
<g id="a_edge20_Node000015_Node000007"><a xlink:title=" ">
<path fill="none" stroke="#63b8ff" d="M855.21,-208.04C882.98,-213.21 917.49,-219.64 946.68,-225.08"/>
<polygon fill="#63b8ff" stroke="#63b8ff" points="946.29,-228.57 956.76,-226.96 947.57,-221.68 946.29,-228.57"/>
</a>
</g>
</g>
<!-- Node15&#45;&gt;Node8 -->
<g id="edge19_Node000015_Node000008" class="edge">
<title>Node15&#45;&gt;Node8</title>
<g id="a_edge19_Node000015_Node000008"><a xlink:title=" ">
<path fill="none" stroke="#63b8ff" d="M904.27,-203.57C969.12,-206.84 1051.92,-211.03 1109.79,-213.95"/>
<polygon fill="#63b8ff" stroke="#63b8ff" points="1109.77,-217.46 1119.94,-214.46 1110.13,-210.46 1109.77,-217.46"/>
</a>
</g>
</g>
<!-- Node15&#45;&gt;Node12 -->
<g id="edge21_Node000015_Node000012" class="edge">
<title>Node15&#45;&gt;Node12</title>
<g id="a_edge21_Node000015_Node000012"><a xlink:title=" ">
<path fill="none" stroke="#63b8ff" d="M829.84,-188.87C866.09,-175.37 932.16,-150.75 972.86,-135.59"/>
<polygon fill="#63b8ff" stroke="#63b8ff" points="974.22,-138.82 982.37,-132.05 971.78,-132.26 974.22,-138.82"/>
</a>
</g>
</g>
<!-- Node17&#45;&gt;Node7 -->
<g id="edge24_Node000017_Node000007" class="edge">
<title>Node17&#45;&gt;Node7</title>
<g id="a_edge24_Node000017_Node000007"><a xlink:title=" ">
<path fill="none" stroke="#63b8ff" d="M659.27,-271.32C725.36,-268.93 820.93,-264.08 904,-254.5 918.86,-252.79 934.83,-250.33 949.68,-247.79"/>
<polygon fill="#63b8ff" stroke="#63b8ff" points="950.51,-251.2 959.75,-246.02 949.3,-244.3 950.51,-251.2"/>
</a>
</g>
</g>
</g>
</svg>
