<?xml version="1.0" encoding="UTF-8" standalone="no"?>
<!DOCTYPE svg PUBLIC "-//W3C//DTD SVG 1.1//EN"
 "http://www.w3.org/Graphics/SVG/1.1/DTD/svg11.dtd">
<!-- Generated by graphviz version 2.43.0 (0)
 -->
<!-- Title: GameTableManager::isBoardActive Pages: 1 -->
<svg width="699pt" height="101pt"
 viewBox="0.00 0.00 699.00 101.00" xmlns="http://www.w3.org/2000/svg" xmlns:xlink="http://www.w3.org/1999/xlink">
<g id="graph0" class="graph" transform="scale(1 1) rotate(0) translate(4 97)">
<title>GameTableManager::isBoardActive</title>
<!-- Node1 -->
<g id="Node000001" class="node">
<title>Node1</title>
<g id="a_Node000001"><a xlink:title=" ">
<polygon fill="#999999" stroke="#666666" points="691,-56 503,-56 503,-37 691,-37 691,-56"/>
<text text-anchor="middle" x="597" y="-44" font-family="Helvetica,sans-Serif" font-size="10.00">GameTableManager::isBoardActive</text>
</a>
</g>
</g>
<!-- Node2 -->
<g id="Node000002" class="node">
<title>Node2</title>
<g id="a_Node000002"><a xlink:href="../../da/d28/classGameTableManager.html#a6088e68ec165e0415f315569325858da" target="_top" xlink:title=" ">
<polygon fill="white" stroke="#666666" points="450.5,-93 235.5,-93 235.5,-74 450.5,-74 450.5,-93"/>
<text text-anchor="middle" x="343" y="-81" font-family="Helvetica,sans-Serif" font-size="10.00">GameTableManager::handleCursorInputs</text>
</a>
</g>
</g>
<!-- Node1&#45;&gt;Node2 -->
<g id="edge1_Node000001_Node000002" class="edge">
<title>Node1&#45;&gt;Node2</title>
<g id="a_edge1_Node000001_Node000002"><a xlink:title=" ">
<path fill="none" stroke="#63b8ff" d="M521.08,-57.55C503.35,-60.16 484.51,-62.93 467,-65.5 448.21,-68.26 427.8,-71.25 409.11,-73.98"/>
<polygon fill="#63b8ff" stroke="#63b8ff" points="521.98,-60.95 531.37,-56.03 520.96,-54.03 521.98,-60.95"/>
</a>
</g>
</g>
<!-- Node4 -->
<g id="Node000004" class="node">
<title>Node4</title>
<g id="a_Node000004"><a xlink:href="../../da/d28/classGameTableManager.html#a46d1a9ffaf4b8aa4108f11adb9129e74" target="_top" xlink:title=" ">
<polygon fill="white" stroke="#666666" points="467,-56 219,-56 219,-37 467,-37 467,-56"/>
<text text-anchor="middle" x="343" y="-44" font-family="Helvetica,sans-Serif" font-size="10.00">GameTableManager::handleMouseButtonInputs</text>
</a>
</g>
</g>
<!-- Node1&#45;&gt;Node4 -->
<g id="edge3_Node000001_Node000004" class="edge">
<title>Node1&#45;&gt;Node4</title>
<g id="a_edge3_Node000001_Node000004"><a xlink:title=" ">
<path fill="none" stroke="#63b8ff" d="M492.7,-46.5C484.29,-46.5 475.73,-46.5 467.2,-46.5"/>
<polygon fill="#63b8ff" stroke="#63b8ff" points="492.88,-50 502.88,-46.5 492.88,-43 492.88,-50"/>
</a>
</g>
</g>
<!-- Node5 -->
<g id="Node000005" class="node">
<title>Node5</title>
<g id="a_Node000005"><a xlink:href="../../da/d28/classGameTableManager.html#a92617131157ef2e90afed3afa7ec2e8d" target="_top" xlink:title=" ">
<polygon fill="white" stroke="#666666" points="448,-19 238,-19 238,0 448,0 448,-19"/>
<text text-anchor="middle" x="343" y="-7" font-family="Helvetica,sans-Serif" font-size="10.00">GameTableManager::handleScrollInputs</text>
</a>
</g>
</g>
<!-- Node1&#45;&gt;Node5 -->
<g id="edge5_Node000001_Node000005" class="edge">
<title>Node1&#45;&gt;Node5</title>
<g id="a_edge5_Node000001_Node000005"><a xlink:title=" ">
<path fill="none" stroke="#63b8ff" d="M520.79,-35.46C485.26,-30.24 443.26,-24.07 409.11,-19.06"/>
<polygon fill="#63b8ff" stroke="#63b8ff" points="520.7,-38.98 531.1,-36.97 521.72,-32.06 520.7,-38.98"/>
</a>
</g>
</g>
<!-- Node3 -->
<g id="Node000003" class="node">
<title>Node3</title>
<g id="a_Node000003"><a xlink:href="../../da/d28/classGameTableManager.html#a5b94841c24e8b5259c9e114d956f01fa" target="_top" xlink:title=" ">
<polygon fill="white" stroke="#666666" points="183,-56 0,-56 0,-37 183,-37 183,-56"/>
<text text-anchor="middle" x="91.5" y="-44" font-family="Helvetica,sans-Serif" font-size="10.00">GameTableManager::handleInputs</text>
</a>
</g>
</g>
<!-- Node2&#45;&gt;Node3 -->
<g id="edge2_Node000002_Node000003" class="edge">
<title>Node2&#45;&gt;Node3</title>
<g id="a_edge2_Node000002_Node000003"><a xlink:title=" ">
<path fill="none" stroke="#63b8ff" d="M266.39,-72.48C250.72,-70.18 234.32,-67.77 219,-65.5 198.35,-62.44 175.81,-59.06 155.55,-56.02"/>
<polygon fill="#63b8ff" stroke="#63b8ff" points="266.16,-75.98 276.56,-73.97 267.18,-69.06 266.16,-75.98"/>
</a>
</g>
</g>
<!-- Node4&#45;&gt;Node3 -->
<g id="edge4_Node000004_Node000003" class="edge">
<title>Node4&#45;&gt;Node3</title>
<g id="a_edge4_Node000004_Node000003"><a xlink:title=" ">
<path fill="none" stroke="#63b8ff" d="M208.57,-46.5C199.94,-46.5 191.36,-46.5 183.01,-46.5"/>
<polygon fill="#63b8ff" stroke="#63b8ff" points="208.71,-50 218.71,-46.5 208.71,-43 208.71,-50"/>
</a>
</g>
</g>
<!-- Node5&#45;&gt;Node3 -->
<g id="edge6_Node000005_Node000003" class="edge">
<title>Node5&#45;&gt;Node3</title>
<g id="a_edge6_Node000005_Node000003"><a xlink:title=" ">
<path fill="none" stroke="#63b8ff" d="M267.53,-20.54C232.36,-25.76 190.77,-31.93 156.97,-36.94"/>
<polygon fill="#63b8ff" stroke="#63b8ff" points="268.37,-23.96 277.75,-19.03 267.34,-17.03 268.37,-23.96"/>
</a>
</g>
</g>
</g>
</svg>
