<?xml version="1.0" encoding="UTF-8" standalone="no"?>
<!DOCTYPE svg PUBLIC "-//W3C//DTD SVG 1.1//EN"
 "http://www.w3.org/Graphics/SVG/1.1/DTD/svg11.dtd">
<!-- Generated by graphviz version 2.43.0 (0)
 -->
<!-- Title: GameTableManager::networkCenterPopUp Pages: 1 -->
<svg width="801pt" height="64pt"
 viewBox="0.00 0.00 801.00 64.00" xmlns="http://www.w3.org/2000/svg" xmlns:xlink="http://www.w3.org/1999/xlink">
<g id="graph0" class="graph" transform="scale(1 1) rotate(0) translate(4 60)">
<title>GameTableManager::networkCenterPopUp</title>
<!-- Node1 -->
<g id="Node000001" class="node">
<title>Node1</title>
<g id="a_Node000001"><a xlink:title=" ">
<polygon fill="#999999" stroke="#666666" points="224,-37 0,-37 0,-18 224,-18 224,-37"/>
<text text-anchor="middle" x="112" y="-25" font-family="Helvetica,sans-Serif" font-size="10.00">GameTableManager::networkCenterPopUp</text>
</a>
</g>
</g>
<!-- Node2 -->
<g id="Node000002" class="node">
<title>Node2</title>
<g id="a_Node000002"><a xlink:href="../../da/d28/classGameTableManager.html#a9e77e8dc8b230daf3133b430fc2149b7" target="_top" xlink:title=" ">
<polygon fill="white" stroke="#666666" points="509,-19 267,-19 267,0 509,0 509,-19"/>
<text text-anchor="middle" x="388" y="-7" font-family="Helvetica,sans-Serif" font-size="10.00">GameTableManager::renderNetworkCenterGM</text>
</a>
</g>
</g>
<!-- Node1&#45;&gt;Node2 -->
<g id="edge1_Node000001_Node000002" class="edge">
<title>Node1&#45;&gt;Node2</title>
<g id="a_edge1_Node000001_Node000002"><a xlink:title=" ">
<path fill="none" stroke="#63b8ff" d="M224.05,-20.2C234.84,-19.5 245.85,-18.77 256.81,-18.05"/>
<polygon fill="#63b8ff" stroke="#63b8ff" points="257.09,-21.54 266.84,-17.39 256.64,-14.56 257.09,-21.54"/>
</a>
</g>
</g>
<!-- Node5 -->
<g id="Node000005" class="node">
<title>Node5</title>
<g id="a_Node000005"><a xlink:href="../../da/d28/classGameTableManager.html#adeaf6e8bd31c587d2b65f5288afdc907" target="_top" xlink:title=" ">
<polygon fill="white" stroke="#666666" points="516,-56 260,-56 260,-37 516,-37 516,-56"/>
<text text-anchor="middle" x="388" y="-44" font-family="Helvetica,sans-Serif" font-size="10.00">GameTableManager::renderNetworkCenterPlayer</text>
</a>
</g>
</g>
<!-- Node1&#45;&gt;Node5 -->
<g id="edge4_Node000001_Node000005" class="edge">
<title>Node1&#45;&gt;Node5</title>
<g id="a_edge4_Node000001_Node000005"><a xlink:title=" ">
<path fill="none" stroke="#63b8ff" d="M224.05,-35.2C232.47,-35.78 241.03,-36.38 249.59,-36.97"/>
<polygon fill="#63b8ff" stroke="#63b8ff" points="249.42,-40.47 259.64,-37.67 249.9,-33.48 249.42,-40.47"/>
</a>
</g>
</g>
<!-- Node3 -->
<g id="Node000003" class="node">
<title>Node3</title>
<g id="a_Node000003"><a xlink:href="../../da/d28/classGameTableManager.html#aad92559f7c07d9b2d4a34650b51e9b5a" target="_top" xlink:title=" ">
<polygon fill="white" stroke="#666666" points="774.5,-56 570.5,-56 570.5,-37 774.5,-37 774.5,-56"/>
<text text-anchor="middle" x="672.5" y="-44" font-family="Helvetica,sans-Serif" font-size="10.00">GameTableManager::UI_ConfirmModal</text>
</a>
</g>
</g>
<!-- Node2&#45;&gt;Node3 -->
<g id="edge2_Node000002_Node000003" class="edge">
<title>Node2&#45;&gt;Node3</title>
<g id="a_edge2_Node000002_Node000003"><a xlink:title=" ">
<path fill="none" stroke="#63b8ff" d="M461.75,-19.03C500.48,-24.1 548.28,-30.36 588.46,-35.62"/>
<polygon fill="#63b8ff" stroke="#63b8ff" points="588.14,-39.11 598.51,-36.94 589.04,-32.17 588.14,-39.11"/>
</a>
</g>
</g>
<!-- Node4 -->
<g id="Node000004" class="node">
<title>Node4</title>
<g id="a_Node000004"><a xlink:href="../../da/d28/classGameTableManager.html#a0eeddac2e008b9d5de4585a91ec6ee83" target="_top" xlink:title=" ">
<polygon fill="white" stroke="#666666" points="793,-19 552,-19 552,0 793,0 793,-19"/>
<text text-anchor="middle" x="672.5" y="-7" font-family="Helvetica,sans-Serif" font-size="10.00">GameTableManager::UI_CopyButtonWithToast</text>
</a>
</g>
</g>
<!-- Node2&#45;&gt;Node4 -->
<g id="edge3_Node000002_Node000004" class="edge">
<title>Node2&#45;&gt;Node4</title>
<g id="a_edge3_Node000002_Node000004"><a xlink:title=" ">
<path fill="none" stroke="#63b8ff" d="M509.22,-9.5C519.91,-9.5 530.77,-9.5 541.55,-9.5"/>
<polygon fill="#63b8ff" stroke="#63b8ff" points="541.84,-13 551.84,-9.5 541.84,-6 541.84,-13"/>
</a>
</g>
</g>
<!-- Node5&#45;&gt;Node3 -->
<g id="edge5_Node000005_Node000003" class="edge">
<title>Node5&#45;&gt;Node3</title>
<g id="a_edge5_Node000005_Node000003"><a xlink:title=" ">
<path fill="none" stroke="#63b8ff" d="M516.2,-46.5C530.81,-46.5 545.63,-46.5 560.01,-46.5"/>
<polygon fill="#63b8ff" stroke="#63b8ff" points="560.4,-50 570.4,-46.5 560.4,-43 560.4,-50"/>
</a>
</g>
</g>
</g>
</svg>
