<?xml version="1.0" encoding="UTF-8" standalone="no"?>
<!DOCTYPE svg PUBLIC "-//W3C//DTD SVG 1.1//EN"
 "http://www.w3.org/Graphics/SVG/1.1/DTD/svg11.dtd">
<!-- Generated by graphviz version 2.43.0 (0)
 -->
<!-- Title: GameTableManager::UI_TransientLine Pages: 1 -->
<svg width="499pt" height="138pt"
 viewBox="0.00 0.00 499.00 138.00" xmlns="http://www.w3.org/2000/svg" xmlns:xlink="http://www.w3.org/1999/xlink">
<g id="graph0" class="graph" transform="scale(1 1) rotate(0) translate(4 134)">
<title>GameTableManager::UI_TransientLine</title>
<!-- Node1 -->
<g id="Node000001" class="node">
<title>Node1</title>
<g id="a_Node000001"><a xlink:title=" ">
<polygon fill="#999999" stroke="#666666" points="491,-74 291,-74 291,-55 491,-55 491,-74"/>
<text text-anchor="middle" x="391" y="-62" font-family="Helvetica,sans-Serif" font-size="10.00">GameTableManager::UI_TransientLine</text>
</a>
</g>
</g>
<!-- Node2 -->
<g id="Node000002" class="node">
<title>Node2</title>
<g id="a_Node000002"><a xlink:href="../../da/d28/classGameTableManager.html#ae43cb665680b9b313894c37ebe851fef" target="_top" xlink:title=" ">
<polygon fill="white" stroke="#666666" points="255,-130 0,-130 0,-111 255,-111 255,-130"/>
<text text-anchor="middle" x="127.5" y="-118" font-family="Helvetica,sans-Serif" font-size="10.00">GameTableManager::connectToGameTablePopUp</text>
</a>
</g>
</g>
<!-- Node1&#45;&gt;Node2 -->
<g id="edge1_Node000001_Node000002" class="edge">
<title>Node1&#45;&gt;Node2</title>
<g id="a_edge1_Node000001_Node000002"><a xlink:title=" ">
<path fill="none" stroke="#63b8ff" d="M350.76,-77.04C324.01,-85.22 287.64,-95.62 255,-102.5 239.59,-105.75 223,-108.58 207.06,-110.98"/>
<polygon fill="#63b8ff" stroke="#63b8ff" points="352,-80.32 360.52,-74.02 349.93,-73.63 352,-80.32"/>
</a>
</g>
</g>
<!-- Node3 -->
<g id="Node000003" class="node">
<title>Node3</title>
<g id="a_Node000003"><a xlink:href="../../da/d28/classGameTableManager.html#aa3bc286b8b3877754c7898d36ad9f9b1" target="_top" xlink:title=" ">
<polygon fill="white" stroke="#666666" points="233,-93 22,-93 22,-74 233,-74 233,-93"/>
<text text-anchor="middle" x="127.5" y="-81" font-family="Helvetica,sans-Serif" font-size="10.00">GameTableManager::createBoardPopUp</text>
</a>
</g>
</g>
<!-- Node1&#45;&gt;Node3 -->
<g id="edge2_Node000001_Node000003" class="edge">
<title>Node1&#45;&gt;Node3</title>
<g id="a_edge2_Node000001_Node000003"><a xlink:title=" ">
<path fill="none" stroke="#63b8ff" d="M280.56,-72.45C264.92,-73.59 248.87,-74.75 233.33,-75.88"/>
<polygon fill="#63b8ff" stroke="#63b8ff" points="281.05,-75.93 290.77,-71.71 280.54,-68.94 281.05,-75.93"/>
</a>
</g>
</g>
<!-- Node4 -->
<g id="Node000004" class="node">
<title>Node4</title>
<g id="a_Node000004"><a xlink:href="../../da/d28/classGameTableManager.html#adb584efae4cf9382a59c46ba9fad6f5b" target="_top" xlink:title=" ">
<polygon fill="white" stroke="#666666" points="228,-56 27,-56 27,-37 228,-37 228,-56"/>
<text text-anchor="middle" x="127.5" y="-44" font-family="Helvetica,sans-Serif" font-size="10.00">GameTableManager::loadBoardPopUp</text>
</a>
</g>
</g>
<!-- Node1&#45;&gt;Node4 -->
<g id="edge3_Node000001_Node000004" class="edge">
<title>Node1&#45;&gt;Node4</title>
<g id="a_edge3_Node000001_Node000004"><a xlink:title=" ">
<path fill="none" stroke="#63b8ff" d="M280.59,-56.97C263.18,-55.77 245.26,-54.54 228.1,-53.36"/>
<polygon fill="#63b8ff" stroke="#63b8ff" points="280.55,-60.47 290.77,-57.67 281.03,-53.49 280.55,-60.47"/>
</a>
</g>
</g>
<!-- Node5 -->
<g id="Node000005" class="node">
<title>Node5</title>
<g id="a_Node000005"><a xlink:href="../../da/d28/classGameTableManager.html#ab88f23fc86e5afb0754c8b1089b9e1ad" target="_top" xlink:title=" ">
<polygon fill="white" stroke="#666666" points="229,-19 26,-19 26,0 229,0 229,-19"/>
<text text-anchor="middle" x="127.5" y="-7" font-family="Helvetica,sans-Serif" font-size="10.00">GameTableManager::saveBoardPopUp</text>
</a>
</g>
</g>
<!-- Node1&#45;&gt;Node5 -->
<g id="edge4_Node000001_Node000005" class="edge">
<title>Node1&#45;&gt;Node5</title>
<g id="a_edge4_Node000001_Node000005"><a xlink:title=" ">
<path fill="none" stroke="#63b8ff" d="M348.6,-52.18C322.03,-44.59 286.69,-35.08 255,-28.5 237.71,-24.91 218.96,-21.72 201.33,-19.02"/>
<polygon fill="#63b8ff" stroke="#63b8ff" points="347.75,-55.57 358.33,-54.98 349.69,-48.85 347.75,-55.57"/>
</a>
</g>
</g>
</g>
</svg>
