<?xml version="1.0" encoding="UTF-8" standalone="no"?>
<!DOCTYPE svg PUBLIC "-//W3C//DTD SVG 1.1//EN"
 "http://www.w3.org/Graphics/SVG/1.1/DTD/svg11.dtd">
<!-- Generated by graphviz version 2.43.0 (0)
 -->
<!-- Title: SignalingClient Pages: 1 -->
<svg width="346pt" height="272pt"
 viewBox="0.00 0.00 345.50 272.00" xmlns="http://www.w3.org/2000/svg" xmlns:xlink="http://www.w3.org/1999/xlink">
<g id="graph0" class="graph" transform="scale(1 1) rotate(0) translate(4 268)">
<title>SignalingClient</title>
<!-- Node1 -->
<g id="Node000001" class="node">
<title>Node1</title>
<g id="a_Node000001"><a xlink:title=" ">
<polygon fill="#999999" stroke="transparent" points="276.5,-168 58.5,-168 58.5,0 276.5,0 276.5,-168"/>
<text text-anchor="start" x="130.5" y="-156" font-family="Helvetica,sans-Serif" font-size="10.00">SignalingClient</text>
<text text-anchor="start" x="165.5" y="-141" font-family="Helvetica,sans-Serif" font-size="10.00"> </text>
<text text-anchor="start" x="62.5" y="-126" font-family="Helvetica,sans-Serif" font-size="10.00">+</text>
<text text-anchor="start" x="75.5" y="-126" font-family="Helvetica,sans-Serif" font-size="10.00">SignalingClient(std::weak</text>
<text text-anchor="start" x="75.5" y="-115" font-family="Helvetica,sans-Serif" font-size="10.00">_ptr&lt; NetworkManager &gt; parent)</text>
<text text-anchor="start" x="62.5" y="-100" font-family="Helvetica,sans-Serif" font-size="10.00">+</text>
<text text-anchor="start" x="75.5" y="-100" font-family="Helvetica,sans-Serif" font-size="10.00">bool connectUrl(const std::</text>
<text text-anchor="start" x="75.5" y="-89" font-family="Helvetica,sans-Serif" font-size="10.00">string &amp;url)</text>
<text text-anchor="start" x="62.5" y="-74" font-family="Helvetica,sans-Serif" font-size="10.00">+</text>
<text text-anchor="start" x="75.5" y="-74" font-family="Helvetica,sans-Serif" font-size="10.00">bool connect(const std::string</text>
<text text-anchor="start" x="75.5" y="-63" font-family="Helvetica,sans-Serif" font-size="10.00"> &amp;ip, unsigned short port)</text>
<text text-anchor="start" x="62.5" y="-48" font-family="Helvetica,sans-Serif" font-size="10.00">+</text>
<text text-anchor="start" x="75.5" y="-48" font-family="Helvetica,sans-Serif" font-size="10.00">void send(const std::string</text>
<text text-anchor="start" x="75.5" y="-37" font-family="Helvetica,sans-Serif" font-size="10.00"> &amp;message)</text>
<text text-anchor="start" x="62.5" y="-22" font-family="Helvetica,sans-Serif" font-size="10.00">+</text>
<text text-anchor="start" x="75.5" y="-22" font-family="Helvetica,sans-Serif" font-size="10.00">void onMessage(const std::string &amp;msg)</text>
<text text-anchor="start" x="62.5" y="-7" font-family="Helvetica,sans-Serif" font-size="10.00">+</text>
<text text-anchor="start" x="75.5" y="-7" font-family="Helvetica,sans-Serif" font-size="10.00">void close()</text>
<polygon fill="#666666" stroke="#666666" points="58.5,-151 58.5,-151 276.5,-151 276.5,-151 58.5,-151"/>
<polygon fill="#666666" stroke="#666666" points="58.5,-136 58.5,-136 276.5,-136 276.5,-136 58.5,-136"/>
<polygon fill="none" stroke="#666666" points="58.5,0 58.5,-168 276.5,-168 276.5,0 58.5,0"/>
</a>
</g>
</g>
<!-- Node2 -->
<g id="Node000002" class="node">
<title>Node2</title>
<g id="a_Node000002"><a xlink:title=" ">
<polygon fill="white" stroke="transparent" points="157,-264 0,-264 0,-215 157,-215 157,-264"/>
<text text-anchor="start" x="5.5" y="-251.5" font-family="Helvetica,sans-Serif" font-size="10.00">shared_ptr&lt; rtc::WebSocket &gt;</text>
<text text-anchor="start" x="77" y="-236.5" font-family="Helvetica,sans-Serif" font-size="10.00"> </text>
<text text-anchor="start" x="77" y="-221.5" font-family="Helvetica,sans-Serif" font-size="10.00"> </text>
<polygon fill="#666666" stroke="#666666" points="0.5,-246.5 0.5,-246.5 157.5,-246.5 157.5,-246.5 0.5,-246.5"/>
<polygon fill="#666666" stroke="#666666" points="0.5,-231.5 0.5,-231.5 157.5,-231.5 157.5,-231.5 0.5,-231.5"/>
<polygon fill="none" stroke="#666666" points="0,-215 0,-264 157,-264 157,-215 0,-215"/>
</a>
</g>
</g>
<!-- Node2&#45;&gt;Node1 -->
<g id="edge1_Node000001_Node000002" class="edge">
<title>Node2&#45;&gt;Node1</title>
<g id="a_edge1_Node000001_Node000002"><a xlink:title=" ">
<path fill="none" stroke="#63b8ff" d="M92.21,-214.85C98.16,-204.6 105.54,-191.87 113.34,-178.41"/>
<polygon fill="none" stroke="#63b8ff" points="113.35,-178.4 112.9,-171.2 119.37,-168.02 119.82,-175.21 113.35,-178.4"/>
</a>
</g>
<text text-anchor="middle" x="118" y="-189" font-family="Helvetica,sans-Serif" font-size="10.00" fill="grey"> &#45;ws</text>
</g>
<!-- Node3 -->
<g id="Node000003" class="node">
<title>Node3</title>
<g id="a_Node000003"><a xlink:title=" ">
<polygon fill="white" stroke="transparent" points="337.5,-264 175.5,-264 175.5,-215 337.5,-215 337.5,-264"/>
<text text-anchor="start" x="180.5" y="-251.5" font-family="Helvetica,sans-Serif" font-size="10.00">weak_ptr&lt; NetworkManager &gt;</text>
<text text-anchor="start" x="254.5" y="-236.5" font-family="Helvetica,sans-Serif" font-size="10.00"> </text>
<text text-anchor="start" x="254.5" y="-221.5" font-family="Helvetica,sans-Serif" font-size="10.00"> </text>
<polygon fill="#666666" stroke="#666666" points="175.5,-246.5 175.5,-246.5 337.5,-246.5 337.5,-246.5 175.5,-246.5"/>
<polygon fill="#666666" stroke="#666666" points="175.5,-231.5 175.5,-231.5 337.5,-231.5 337.5,-231.5 175.5,-231.5"/>
<polygon fill="none" stroke="#666666" points="175.5,-215 175.5,-264 337.5,-264 337.5,-215 175.5,-215"/>
</a>
</g>
</g>
<!-- Node3&#45;&gt;Node1 -->
<g id="edge2_Node000001_Node000003" class="edge">
<title>Node3&#45;&gt;Node1</title>
<g id="a_edge2_Node000001_Node000003"><a xlink:title=" ">
<path fill="none" stroke="#63b8ff" d="M242.79,-214.85C236.84,-204.6 229.46,-191.87 221.66,-178.41"/>
<polygon fill="none" stroke="#63b8ff" points="221.65,-178.4 215.18,-175.21 215.63,-168.02 222.1,-171.2 221.65,-178.4"/>
</a>
</g>
<text text-anchor="middle" x="277.5" y="-189" font-family="Helvetica,sans-Serif" font-size="10.00" fill="grey"> &#45;network_manager</text>
</g>
</g>
</svg>
