<?xml version="1.0" encoding="UTF-8" standalone="no"?>
<!DOCTYPE svg PUBLIC "-//W3C//DTD SVG 1.1//EN"
 "http://www.w3.org/Graphics/SVG/1.1/DTD/svg11.dtd">
<!-- Generated by graphviz version 2.43.0 (0)
 -->
<!-- Title: ImGuiToaster::Config Pages: 1 -->
<svg width="599pt" height="208pt"
 viewBox="0.00 0.00 599.00 208.00" xmlns="http://www.w3.org/2000/svg" xmlns:xlink="http://www.w3.org/1999/xlink">
<g id="graph0" class="graph" transform="scale(1 1) rotate(0) translate(4 204)">
<title>ImGuiToaster::Config</title>
<!-- Node1 -->
<g id="Node000001" class="node">
<title>Node1</title>
<g id="a_Node000001"><a xlink:title=" ">
<polygon fill="#999999" stroke="transparent" points="353,-49 241,-49 241,0 353,0 353,-49"/>
<text text-anchor="start" x="246" y="-36.5" font-family="Helvetica,sans-Serif" font-size="10.00">ImGuiToaster::Config</text>
<text text-anchor="start" x="295" y="-21.5" font-family="Helvetica,sans-Serif" font-size="10.00"> </text>
<text text-anchor="start" x="295" y="-6.5" font-family="Helvetica,sans-Serif" font-size="10.00"> </text>
<polygon fill="#666666" stroke="#666666" points="241,-31.5 241,-31.5 353,-31.5 353,-31.5 241,-31.5"/>
<polygon fill="#666666" stroke="#666666" points="241,-16.5 241,-16.5 353,-16.5 353,-16.5 241,-16.5"/>
<polygon fill="none" stroke="#666666" points="241,0 241,-49 353,-49 353,0 241,0"/>
</a>
</g>
</g>
<!-- Node2 -->
<g id="Node000002" class="node">
<title>Node2</title>
<g id="a_Node000002"><a xlink:title=" ">
<polygon fill="white" stroke="transparent" points="32,-200 0,-200 0,-151 32,-151 32,-200"/>
<text text-anchor="start" x="5" y="-187.5" font-family="Helvetica,sans-Serif" font-size="10.00">float</text>
<text text-anchor="start" x="14" y="-172.5" font-family="Helvetica,sans-Serif" font-size="10.00"> </text>
<text text-anchor="start" x="14" y="-157.5" font-family="Helvetica,sans-Serif" font-size="10.00"> </text>
<polygon fill="#666666" stroke="#666666" points="0,-182.5 0,-182.5 32,-182.5 32,-182.5 0,-182.5"/>
<polygon fill="#666666" stroke="#666666" points="0,-167.5 0,-167.5 32,-167.5 32,-167.5 0,-167.5"/>
<polygon fill="none" stroke="#666666" points="0,-151 0,-200 32,-200 32,-151 0,-151"/>
</a>
</g>
</g>
<!-- Node2&#45;&gt;Node1 -->
<g id="edge1_Node000001_Node000002" class="edge">
<title>Node2&#45;&gt;Node1</title>
<g id="a_edge1_Node000001_Node000002"><a xlink:title=" ">
<path fill="none" stroke="#63b8ff" d="M11.21,-150.99C7.74,-126.63 6.81,-89.09 28,-67 54.88,-38.97 158.15,-29.82 228.63,-26.87"/>
<polygon fill="none" stroke="#63b8ff" points="228.95,-26.86 234.8,-22.63 240.94,-26.4 235.1,-30.63 228.95,-26.86"/>
</a>
</g>
<text text-anchor="middle" x="70" y="-125" font-family="Helvetica,sans-Serif" font-size="10.00" fill="grey"> +bgOpacity</text>
<text text-anchor="middle" x="70" y="-114" font-family="Helvetica,sans-Serif" font-size="10.00" fill="grey">+borderSize</text>
<text text-anchor="middle" x="70" y="-103" font-family="Helvetica,sans-Serif" font-size="10.00" fill="grey">+edgePadding</text>
<text text-anchor="middle" x="70" y="-92" font-family="Helvetica,sans-Serif" font-size="10.00" fill="grey">+maxWidth</text>
<text text-anchor="middle" x="70" y="-81" font-family="Helvetica,sans-Serif" font-size="10.00" fill="grey">+rounding</text>
<text text-anchor="middle" x="70" y="-70" font-family="Helvetica,sans-Serif" font-size="10.00" fill="grey">+verticalSpacing</text>
</g>
<!-- Node3 -->
<g id="Node000003" class="node">
<title>Node3</title>
<g id="a_Node000003"><a xlink:title=" ">
<polygon fill="white" stroke="transparent" points="146.5,-200 99.5,-200 99.5,-151 146.5,-151 146.5,-200"/>
<text text-anchor="start" x="105" y="-187.5" font-family="Helvetica,sans-Serif" font-size="10.00">ImVec2</text>
<text text-anchor="start" x="121.5" y="-172.5" font-family="Helvetica,sans-Serif" font-size="10.00"> </text>
<text text-anchor="start" x="121.5" y="-157.5" font-family="Helvetica,sans-Serif" font-size="10.00"> </text>
<polygon fill="#666666" stroke="#666666" points="100,-182.5 100,-182.5 147,-182.5 147,-182.5 100,-182.5"/>
<polygon fill="#666666" stroke="#666666" points="100,-167.5 100,-167.5 147,-167.5 147,-167.5 100,-167.5"/>
<polygon fill="none" stroke="#666666" points="99.5,-151 99.5,-200 146.5,-200 146.5,-151 99.5,-151"/>
</a>
</g>
</g>
<!-- Node3&#45;&gt;Node1 -->
<g id="edge2_Node000001_Node000003" class="edge">
<title>Node3&#45;&gt;Node1</title>
<g id="a_edge2_Node000001_Node000003"><a xlink:title=" ">
<path fill="none" stroke="#63b8ff" d="M118.07,-150.99C114.5,-126.99 113.26,-90.07 133,-67 145.72,-52.14 189.61,-41.5 228.79,-34.72"/>
<polygon fill="none" stroke="#63b8ff" points="228.92,-34.7 234.18,-29.78 240.76,-32.74 235.49,-37.67 228.92,-34.7"/>
</a>
</g>
<text text-anchor="middle" x="175.5" y="-119.5" font-family="Helvetica,sans-Serif" font-size="10.00" fill="grey"> +anchorPivot</text>
<text text-anchor="middle" x="175.5" y="-108.5" font-family="Helvetica,sans-Serif" font-size="10.00" fill="grey">+fixedSize</text>
<text text-anchor="middle" x="175.5" y="-97.5" font-family="Helvetica,sans-Serif" font-size="10.00" fill="grey">+maxSize</text>
<text text-anchor="middle" x="175.5" y="-86.5" font-family="Helvetica,sans-Serif" font-size="10.00" fill="grey">+minSize</text>
<text text-anchor="middle" x="175.5" y="-75.5" font-family="Helvetica,sans-Serif" font-size="10.00" fill="grey">+windowPadding</text>
</g>
<!-- Node4 -->
<g id="Node000004" class="node">
<title>Node4</title>
<g id="a_Node000004"><a xlink:title=" ">
<polygon fill="white" stroke="transparent" points="247,-200 215,-200 215,-151 247,-151 247,-200"/>
<text text-anchor="start" x="220" y="-187.5" font-family="Helvetica,sans-Serif" font-size="10.00">bool</text>
<text text-anchor="start" x="229" y="-172.5" font-family="Helvetica,sans-Serif" font-size="10.00"> </text>
<text text-anchor="start" x="229" y="-157.5" font-family="Helvetica,sans-Serif" font-size="10.00"> </text>
<polygon fill="#666666" stroke="#666666" points="215,-182.5 215,-182.5 247,-182.5 247,-182.5 215,-182.5"/>
<polygon fill="#666666" stroke="#666666" points="215,-167.5 215,-167.5 247,-167.5 247,-167.5 215,-167.5"/>
<polygon fill="none" stroke="#666666" points="215,-151 215,-200 247,-200 247,-151 215,-151"/>
</a>
</g>
</g>
<!-- Node4&#45;&gt;Node1 -->
<g id="edge3_Node000001_Node000004" class="edge">
<title>Node4&#45;&gt;Node1</title>
<g id="a_edge3_Node000001_Node000004"><a xlink:title=" ">
<path fill="none" stroke="#63b8ff" d="M225.04,-150.64C220.68,-127.7 217.71,-92.79 232,-67 233.85,-63.65 236.1,-60.54 238.64,-57.64"/>
<polygon fill="none" stroke="#63b8ff" points="238.88,-57.41 240.46,-50.37 247.57,-49.13 245.98,-56.16 238.88,-57.41"/>
</a>
</g>
<text text-anchor="middle" x="287" y="-125" font-family="Helvetica,sans-Serif" font-size="10.00" fill="grey"> +autoResize</text>
<text text-anchor="middle" x="287" y="-114" font-family="Helvetica,sans-Serif" font-size="10.00" fill="grey">+clickThrough</text>
<text text-anchor="middle" x="287" y="-103" font-family="Helvetica,sans-Serif" font-size="10.00" fill="grey">+focusOnAppear</text>
<text text-anchor="middle" x="287" y="-92" font-family="Helvetica,sans-Serif" font-size="10.00" fill="grey">+killOnClickAnywhere</text>
<text text-anchor="middle" x="287" y="-81" font-family="Helvetica,sans-Serif" font-size="10.00" fill="grey">+showBorder</text>
<text text-anchor="middle" x="287" y="-70" font-family="Helvetica,sans-Serif" font-size="10.00" fill="grey">+wrapText</text>
</g>
<!-- Node5 -->
<g id="Node000005" class="node">
<title>Node5</title>
<g id="a_Node000005"><a xlink:title=" ">
<polygon fill="white" stroke="transparent" points="385.5,-200 342.5,-200 342.5,-151 385.5,-151 385.5,-200"/>
<text text-anchor="start" x="348" y="-187.5" font-family="Helvetica,sans-Serif" font-size="10.00">Corner</text>
<text text-anchor="start" x="362.5" y="-172.5" font-family="Helvetica,sans-Serif" font-size="10.00"> </text>
<text text-anchor="start" x="362.5" y="-157.5" font-family="Helvetica,sans-Serif" font-size="10.00"> </text>
<polygon fill="#666666" stroke="#666666" points="343,-182.5 343,-182.5 386,-182.5 386,-182.5 343,-182.5"/>
<polygon fill="#666666" stroke="#666666" points="343,-167.5 343,-167.5 386,-167.5 386,-167.5 343,-167.5"/>
<polygon fill="none" stroke="#666666" points="342.5,-151 342.5,-200 385.5,-200 385.5,-151 342.5,-151"/>
</a>
</g>
</g>
<!-- Node5&#45;&gt;Node1 -->
<g id="edge4_Node000001_Node000005" class="edge">
<title>Node5&#45;&gt;Node1</title>
<g id="a_edge4_Node000001_Node000005"><a xlink:title=" ">
<path fill="none" stroke="#63b8ff" d="M363.3,-150.82C361.71,-128.02 356.79,-93.21 342,-67 340.29,-63.96 338.27,-61.02 336.06,-58.2"/>
<polygon fill="none" stroke="#63b8ff" points="335.95,-58.08 328.97,-56.27 327.96,-49.13 334.94,-50.94 335.95,-58.08"/>
</a>
</g>
<text text-anchor="middle" x="382.5" y="-97.5" font-family="Helvetica,sans-Serif" font-size="10.00" fill="grey"> +corner</text>
</g>
<!-- Node6 -->
<g id="Node000006" class="node">
<title>Node6</title>
<g id="a_Node000006"><a xlink:title=" ">
<polygon fill="white" stroke="transparent" points="449.5,-200 410.5,-200 410.5,-151 449.5,-151 449.5,-200"/>
<text text-anchor="start" x="416" y="-187.5" font-family="Helvetica,sans-Serif" font-size="10.00">size_t</text>
<text text-anchor="start" x="428.5" y="-172.5" font-family="Helvetica,sans-Serif" font-size="10.00"> </text>
<text text-anchor="start" x="428.5" y="-157.5" font-family="Helvetica,sans-Serif" font-size="10.00"> </text>
<polygon fill="#666666" stroke="#666666" points="411,-182.5 411,-182.5 450,-182.5 450,-182.5 411,-182.5"/>
<polygon fill="#666666" stroke="#666666" points="411,-167.5 411,-167.5 450,-167.5 450,-167.5 411,-167.5"/>
<polygon fill="none" stroke="#666666" points="410.5,-151 410.5,-200 449.5,-200 449.5,-151 410.5,-151"/>
</a>
</g>
</g>
<!-- Node6&#45;&gt;Node1 -->
<g id="edge5_Node000001_Node000006" class="edge">
<title>Node6&#45;&gt;Node1</title>
<g id="a_edge5_Node000001_Node000006"><a xlink:title=" ">
<path fill="none" stroke="#63b8ff" d="M431.39,-150.71C431.5,-126.82 427.93,-90.31 408,-67 396.81,-53.91 381.07,-44.95 364.96,-38.81"/>
<polygon fill="none" stroke="#63b8ff" points="364.58,-38.68 357.61,-40.54 353.22,-34.82 360.19,-32.96 364.58,-38.68"/>
</a>
</g>
<text text-anchor="middle" x="462" y="-97.5" font-family="Helvetica,sans-Serif" font-size="10.00" fill="grey"> +maxToasts</text>
</g>
<!-- Node7 -->
<g id="Node000007" class="node">
<title>Node7</title>
<g id="a_Node000007"><a xlink:title=" ">
<polygon fill="white" stroke="transparent" points="540.5,-200 493.5,-200 493.5,-151 540.5,-151 540.5,-200"/>
<text text-anchor="start" x="499" y="-187.5" font-family="Helvetica,sans-Serif" font-size="10.00">ImVec4</text>
<text text-anchor="start" x="515.5" y="-172.5" font-family="Helvetica,sans-Serif" font-size="10.00"> </text>
<text text-anchor="start" x="515.5" y="-157.5" font-family="Helvetica,sans-Serif" font-size="10.00"> </text>
<polygon fill="#666666" stroke="#666666" points="494,-182.5 494,-182.5 541,-182.5 541,-182.5 494,-182.5"/>
<polygon fill="#666666" stroke="#666666" points="494,-167.5 494,-167.5 541,-167.5 541,-167.5 494,-167.5"/>
<polygon fill="none" stroke="#666666" points="493.5,-151 493.5,-200 540.5,-200 540.5,-151 493.5,-151"/>
</a>
</g>
</g>
<!-- Node7&#45;&gt;Node1 -->
<g id="edge6_Node000001_Node000007" class="edge">
<title>Node7&#45;&gt;Node1</title>
<g id="a_edge6_Node000001_Node000007"><a xlink:title=" ">
<path fill="none" stroke="#63b8ff" d="M519.07,-150.96C519.83,-126.57 516.9,-89.01 495,-67 476.92,-48.83 415.09,-37.89 365.27,-31.84"/>
<polygon fill="none" stroke="#63b8ff" points="365.15,-31.83 358.73,-35.11 353.23,-30.44 359.65,-27.16 365.15,-31.83"/>
</a>
</g>
<text text-anchor="middle" x="554.5" y="-125" font-family="Helvetica,sans-Serif" font-size="10.00" fill="grey"> +borderColor</text>
<text text-anchor="middle" x="554.5" y="-114" font-family="Helvetica,sans-Serif" font-size="10.00" fill="grey">+colorError</text>
<text text-anchor="middle" x="554.5" y="-103" font-family="Helvetica,sans-Serif" font-size="10.00" fill="grey">+colorGood</text>
<text text-anchor="middle" x="554.5" y="-92" font-family="Helvetica,sans-Serif" font-size="10.00" fill="grey">+colorInfo</text>
<text text-anchor="middle" x="554.5" y="-81" font-family="Helvetica,sans-Serif" font-size="10.00" fill="grey">+colorWarning</text>
<text text-anchor="middle" x="554.5" y="-70" font-family="Helvetica,sans-Serif" font-size="10.00" fill="grey">+textColor</text>
</g>
</g>
</svg>
