<?xml version="1.0" encoding="UTF-8" standalone="no"?>
<!DOCTYPE svg PUBLIC "-//W3C//DTD SVG 1.1//EN"
 "http://www.w3.org/Graphics/SVG/1.1/DTD/svg11.dtd">
<!-- Generated by graphviz version 2.43.0 (0)
 -->
<!-- Title: NetworkManager::handleCommitBoard Pages: 1 -->
<svg width="596pt" height="82pt"
 viewBox="0.00 0.00 596.00 82.00" xmlns="http://www.w3.org/2000/svg" xmlns:xlink="http://www.w3.org/1999/xlink">
<g id="graph0" class="graph" transform="scale(1 1) rotate(0) translate(4 78)">
<title>NetworkManager::handleCommitBoard</title>
<!-- Node1 -->
<g id="Node000001" class="node">
<title>Node1</title>
<g id="a_Node000001"><a xlink:title=" ">
<polygon fill="#999999" stroke="#666666" points="207,-55 0,-55 0,-36 207,-36 207,-55"/>
<text text-anchor="middle" x="103.5" y="-43" font-family="Helvetica,sans-Serif" font-size="10.00">NetworkManager::handleCommitBoard</text>
</a>
</g>
</g>
<!-- Node2 -->
<g id="Node000002" class="node">
<title>Node2</title>
<g id="a_Node000002"><a xlink:href="../../db/d4b/classSerializer.html#abc991f78f5490e60783620ab4c3444e6" target="_top" xlink:title=" ">
<polygon fill="white" stroke="#666666" points="414,-74 260,-74 260,-55 414,-55 414,-74"/>
<text text-anchor="middle" x="337" y="-62" font-family="Helvetica,sans-Serif" font-size="10.00">Serializer::deserializeUInt64</text>
</a>
</g>
</g>
<!-- Node1&#45;&gt;Node2 -->
<g id="edge1_Node000001_Node000002" class="edge">
<title>Node1&#45;&gt;Node2</title>
<g id="a_edge1_Node000001_Node000002"><a xlink:title=" ">
<path fill="none" stroke="#63b8ff" d="M207.05,-53.92C221.36,-55.09 235.93,-56.29 249.9,-57.43"/>
<polygon fill="#63b8ff" stroke="#63b8ff" points="249.69,-60.93 259.94,-58.26 250.26,-53.95 249.69,-60.93"/>
</a>
</g>
</g>
<!-- Node3 -->
<g id="Node000003" class="node">
<title>Node3</title>
<g id="a_Node000003"><a xlink:href="../../d6/d6f/classNetworkManager.html#abdacab45fd438391b9fa75a6c6d3a421" target="_top" xlink:title=" ">
<polygon fill="white" stroke="#666666" points="431,-37 243,-37 243,-18 431,-18 431,-37"/>
<text text-anchor="middle" x="337" y="-25" font-family="Helvetica,sans-Serif" font-size="10.00">NetworkManager::tryFinalizeImage</text>
</a>
</g>
</g>
<!-- Node1&#45;&gt;Node3 -->
<g id="edge2_Node000001_Node000003" class="edge">
<title>Node1&#45;&gt;Node3</title>
<g id="a_edge2_Node000001_Node000003"><a xlink:title=" ">
<path fill="none" stroke="#63b8ff" d="M207.05,-37.53C215.48,-36.87 224,-36.21 232.43,-35.55"/>
<polygon fill="#63b8ff" stroke="#63b8ff" points="232.96,-39.02 242.66,-34.76 232.42,-32.04 232.96,-39.02"/>
</a>
</g>
</g>
<!-- Node4 -->
<g id="Node000004" class="node">
<title>Node4</title>
<g id="a_Node000004"><a xlink:href="../../db/d67/classLogger.html#aebb248e608f8e2724de20b482cb2a15f" target="_top" xlink:title=" ">
<polygon fill="white" stroke="#666666" points="576,-56 479,-56 479,-37 576,-37 576,-56"/>
<text text-anchor="middle" x="527.5" y="-44" font-family="Helvetica,sans-Serif" font-size="10.00">Logger::instance</text>
</a>
</g>
</g>
<!-- Node3&#45;&gt;Node4 -->
<g id="edge3_Node000003_Node000004" class="edge">
<title>Node3&#45;&gt;Node4</title>
<g id="a_edge3_Node000003_Node000004"><a xlink:title=" ">
<path fill="none" stroke="#63b8ff" d="M431.15,-36.89C443.92,-38.18 456.71,-39.47 468.6,-40.66"/>
<polygon fill="#63b8ff" stroke="#63b8ff" points="468.48,-44.17 478.79,-41.69 469.19,-37.21 468.48,-44.17"/>
</a>
</g>
</g>
<!-- Node5 -->
<g id="Node000005" class="node">
<title>Node5</title>
<g id="a_Node000005"><a xlink:href="../../d3/df0/classMessageQueue.html#ae18e8febb6e78fadd1fc56332a4b7ba2" target="_top" xlink:title=" ">
<polygon fill="white" stroke="#666666" points="588,-19 467,-19 467,0 588,0 588,-19"/>
<text text-anchor="middle" x="527.5" y="-7" font-family="Helvetica,sans-Serif" font-size="10.00">MessageQueue::push</text>
</a>
</g>
</g>
<!-- Node3&#45;&gt;Node5 -->
<g id="edge4_Node000003_Node000005" class="edge">
<title>Node3&#45;&gt;Node5</title>
<g id="a_edge4_Node000003_Node000005"><a xlink:title=" ">
<path fill="none" stroke="#63b8ff" d="M431.15,-18.61C439.78,-17.78 448.43,-16.95 456.81,-16.15"/>
<polygon fill="#63b8ff" stroke="#63b8ff" points="457.24,-19.63 466.86,-15.19 456.58,-12.66 457.24,-19.63"/>
</a>
</g>
</g>
</g>
</svg>
