<?xml version="1.0" encoding="UTF-8" standalone="no"?>
<!DOCTYPE svg PUBLIC "-//W3C//DTD SVG 1.1//EN"
 "http://www.w3.org/Graphics/SVG/1.1/DTD/svg11.dtd">
<!-- Generated by graphviz version 2.43.0 (0)
 -->
<!-- Title: NetworkManager::getNetworkInfo Pages: 1 -->
<!--zoomable 212 -->

<svg id="main" version="1.1" xmlns="http://www.w3.org/2000/svg" xmlns:xlink="http://www.w3.org/1999/xlink" xml:space="preserve" onload="init(evt)">
<style type="text/css"><![CDATA[
.node, .edge {opacity: 0.7;}
.node.selected, .edge.selected {opacity: 1;}
.edge:hover path { stroke: red; }
.edge:hover polygon { stroke: red; fill: red; }
]]></style>

<defs>
  <circle id="rim" cx="0" cy="0" r="7"/>
  <circle id="rim2" cx="0" cy="0" r="3.5"/>
  <g id="zoomPlus">
    <use xlink:href="#rim" fill="#404040"><set attributeName="fill" to="#808080" begin="zoomplus.mouseover" end="zoomplus.mouseout"/></use>
    <path d="M-4,0h8M0,-4v8" fill="none" stroke="white" stroke-width="1.5" pointer-events="none"/>
  </g>
  <g id="zoomMin">
    <use xlink:href="#rim" fill="#404040"><set attributeName="fill" to="#808080" begin="zoomminus.mouseover" end="zoomminus.mouseout"/></use>
    <path d="M-4,0h8" fill="none" stroke="white" stroke-width="1.5" pointer-events="none"/>
  </g>
  <g id="arrowUp" transform="translate(30 24)">
    <use xlink:href="#rim"/>
    <path pointer-events="none" fill="none" stroke="white" stroke-width="1.5" d="M0,-3.0v7 M-2.5,-0.5L0,-3.0L2.5,-0.5"/>
  </g>
  <g id="arrowRight" transform="rotate(90) translate(36 -43)">
    <use xlink:href="#rim"/>
    <path pointer-events="none" fill="none" stroke="white" stroke-width="1.5" d="M0,-3.0v7 M-2.5,-0.5L0,-3.0L2.5,-0.5"/>
  </g>
  <g id="arrowDown" transform="rotate(180) translate(-30 -48)">
    <use xlink:href="#rim"/>
    <path pointer-events="none" fill="none" stroke="white" stroke-width="1.5" d="M0,-3.0v7 M-2.5,-0.5L0,-3.0L2.5,-0.5"/>
  </g>
  <g id="arrowLeft" transform="rotate(270) translate(-36 17)">
    <use xlink:href="#rim"/>
    <path pointer-events="none" fill="none" stroke="white" stroke-width="1.5" d="M0,-3.0v7 M-2.5,-0.5L0,-3.0L2.5,-0.5"/>
  </g>
  <g id="resetDef">
    <use xlink:href="#rim2" fill="#404040"><set attributeName="fill" to="#808080" begin="reset.mouseover" end="reset.mouseout"/></use>
  </g>
</defs>
<script type="application/ecmascript">
var viewWidth = 675;
var viewHeight = 212;
var sectionId = 'dynsection-84';
</script>
<script type="application/ecmascript" xlink:href="../../svg.min.js"/>
<svg id="graph" class="graph">
<g id="viewport">
<title>NetworkManager::getNetworkInfo</title>
<!-- Node1 -->
<g id="Node000001" class="node">
<title>Node1</title>
<g id="a_Node000001"><a xlink:title=" ">
<polygon fill="#999999" stroke="#666666" points="182,-111 0,-111 0,-92 182,-92 182,-111"/>
<text text-anchor="middle" x="91" y="-99" font-family="Helvetica,sans-Serif" font-size="10.00">NetworkManager::getNetworkInfo</text>
</a>
</g>
</g>
<!-- Node2 -->
<g id="Node000002" class="node">
<title>Node2</title>
<g id="a_Node000002"><a xlink:href="../../d6/d6f/classNetworkManager.html#ad1c396ebc1242ea357dd681676ffd52d" target="_top" xlink:title=" ">
<polygon fill="white" stroke="#666666" points="414,-204 232,-204 232,-185 414,-185 414,-204"/>
<text text-anchor="middle" x="323" y="-192" font-family="Helvetica,sans-Serif" font-size="10.00">NetworkManager::getCustomHost</text>
</a>
</g>
</g>
<!-- Node1&#45;&gt;Node2 -->
<g id="edge1_Node000001_Node000002" class="edge">
<title>Node1&#45;&gt;Node2</title>
<g id="a_edge1_Node000001_Node000002"><a xlink:title=" ">
<path fill="none" stroke="#63b8ff" d="M104.45,-111.05C126.2,-127.23 173.11,-159.9 218,-176.5 224.24,-178.81 230.79,-180.82 237.45,-182.58"/>
<polygon fill="#63b8ff" stroke="#63b8ff" points="236.72,-186 247.27,-184.97 238.38,-179.2 236.72,-186"/>
</a>
</g>
</g>
<!-- Node3 -->
<g id="Node000003" class="node">
<title>Node3</title>
<g id="a_Node000003"><a xlink:href="../../d6/d6f/classNetworkManager.html#ac26153ac2e3b37ed6bedffc50c37038f" target="_top" xlink:title=" ">
<polygon fill="white" stroke="#666666" points="428,-167 218,-167 218,-148 428,-148 428,-167"/>
<text text-anchor="middle" x="323" y="-155" font-family="Helvetica,sans-Serif" font-size="10.00">NetworkManager::getExternalIPAddress</text>
</a>
</g>
</g>
<!-- Node1&#45;&gt;Node3 -->
<g id="edge2_Node000001_Node000003" class="edge">
<title>Node1&#45;&gt;Node3</title>
<g id="a_edge2_Node000001_Node000003"><a xlink:title=" ">
<path fill="none" stroke="#63b8ff" d="M120.26,-111.1C145.62,-119.45 183.98,-131.46 218,-139.5 228.14,-141.9 238.9,-144.12 249.51,-146.12"/>
<polygon fill="#63b8ff" stroke="#63b8ff" points="249.14,-149.61 259.61,-147.97 250.4,-142.72 249.14,-149.61"/>
</a>
</g>
</g>
<!-- Node5 -->
<g id="Node000005" class="node">
<title>Node5</title>
<g id="a_Node000005"><a xlink:href="../../d6/d6f/classNetworkManager.html#ac6d071ea2f521c20e9c3340312bb3a44" target="_top" xlink:title=" ">
<polygon fill="white" stroke="#666666" points="420.5,-130 225.5,-130 225.5,-111 420.5,-111 420.5,-130"/>
<text text-anchor="middle" x="323" y="-118" font-family="Helvetica,sans-Serif" font-size="10.00">NetworkManager::getLocalIPAddress</text>
</a>
</g>
</g>
<!-- Node1&#45;&gt;Node5 -->
<g id="edge4_Node000001_Node000005" class="edge">
<title>Node1&#45;&gt;Node5</title>
<g id="a_edge4_Node000001_Node000005"><a xlink:title=" ">
<path fill="none" stroke="#63b8ff" d="M182.24,-108.95C193.03,-109.85 204.13,-110.76 215.13,-111.67"/>
<polygon fill="#63b8ff" stroke="#63b8ff" points="214.93,-115.17 225.19,-112.5 215.51,-108.19 214.93,-115.17"/>
</a>
</g>
</g>
<!-- Node7 -->
<g id="Node000007" class="node">
<title>Node7</title>
<g id="a_Node000007"><a xlink:href="../../d6/d6f/classNetworkManager.html#a167f2aee8f7f0b8647924a7e3c9b758c" target="_top" xlink:title=" ">
<polygon fill="white" stroke="#666666" points="422.5,-93 223.5,-93 223.5,-74 422.5,-74 422.5,-93"/>
<text text-anchor="middle" x="323" y="-81" font-family="Helvetica,sans-Serif" font-size="10.00">NetworkManager::getLocalTunnelURL</text>
</a>
</g>
</g>
<!-- Node1&#45;&gt;Node7 -->
<g id="edge6_Node000001_Node000007" class="edge">
<title>Node1&#45;&gt;Node7</title>
<g id="a_edge6_Node000001_Node000007"><a xlink:title=" ">
<path fill="none" stroke="#63b8ff" d="M182.24,-94.44C192.34,-93.65 202.71,-92.84 213.01,-92.03"/>
<polygon fill="#63b8ff" stroke="#63b8ff" points="213.58,-95.5 223.28,-91.23 213.04,-88.52 213.58,-95.5"/>
</a>
</g>
</g>
<!-- Node9 -->
<g id="Node000009" class="node">
<title>Node9</title>
<g id="a_Node000009"><a xlink:href="../../d6/d6f/classNetworkManager.html#ab5c3469820ba23321cbb4628f8c4eb1c" target="_top" xlink:title=" ">
<polygon fill="white" stroke="#666666" points="427.5,-56 218.5,-56 218.5,-37 427.5,-37 427.5,-56"/>
<text text-anchor="middle" x="323" y="-44" font-family="Helvetica,sans-Serif" font-size="10.00">NetworkManager::getNetworkPassword</text>
</a>
</g>
</g>
<!-- Node1&#45;&gt;Node9 -->
<g id="edge8_Node000001_Node000009" class="edge">
<title>Node1&#45;&gt;Node9</title>
<g id="a_edge8_Node000001_Node000009"><a xlink:title=" ">
<path fill="none" stroke="#63b8ff" d="M122.34,-91.93C147.72,-84.14 184.99,-73.21 218,-65.5 229.66,-62.78 242.13,-60.21 254.24,-57.89"/>
<polygon fill="#63b8ff" stroke="#63b8ff" points="255.12,-61.29 264.3,-56.01 253.83,-54.41 255.12,-61.29"/>
</a>
</g>
</g>
<!-- Node10 -->
<g id="Node000010" class="node">
<title>Node10</title>
<g id="a_Node000010"><a xlink:href="../../d6/d6f/classNetworkManager.html#a050d6b20955a6a6dfad147996df89f85" target="_top" xlink:title=" ">
<polygon fill="white" stroke="#666666" points="394,-19 252,-19 252,0 394,0 394,-19"/>
<text text-anchor="middle" x="323" y="-7" font-family="Helvetica,sans-Serif" font-size="10.00">NetworkManager::getPort</text>
</a>
</g>
</g>
<!-- Node1&#45;&gt;Node10 -->
<g id="edge9_Node000001_Node000010" class="edge">
<title>Node1&#45;&gt;Node10</title>
<g id="a_edge9_Node000001_Node000010"><a xlink:title=" ">
<path fill="none" stroke="#63b8ff" d="M105.21,-91.76C127.35,-75.92 173.87,-44.75 218,-28.5 225.59,-25.7 233.65,-23.31 241.8,-21.26"/>
<polygon fill="#63b8ff" stroke="#63b8ff" points="242.81,-24.61 251.74,-18.92 241.21,-17.8 242.81,-24.61"/>
</a>
</g>
</g>
<!-- Node4 -->
<g id="Node000004" class="node">
<title>Node4</title>
<g id="a_Node000004"><a xlink:href="../../dd/d71/classNetworkUtilities.html#a72637b33817388d617ec5344cc6fea3b" target="_top" xlink:title=" ">
<polygon fill="white" stroke="#666666" points="635,-167 496,-167 496,-148 635,-148 635,-167"/>
<text text-anchor="middle" x="565.5" y="-155" font-family="Helvetica,sans-Serif" font-size="10.00">NetworkUtilities::httpGet</text>
</a>
</g>
</g>
<!-- Node3&#45;&gt;Node4 -->
<g id="edge3_Node000003_Node000004" class="edge">
<title>Node3&#45;&gt;Node4</title>
<g id="a_edge3_Node000003_Node000004"><a xlink:title=" ">
<path fill="none" stroke="#63b8ff" d="M428.09,-157.5C447.48,-157.5 467.43,-157.5 485.9,-157.5"/>
<polygon fill="#63b8ff" stroke="#63b8ff" points="485.99,-161 495.99,-157.5 485.99,-154 485.99,-161"/>
</a>
</g>
</g>
<!-- Node6 -->
<g id="Node000006" class="node">
<title>Node6</title>
<g id="a_Node000006"><a xlink:href="../../dd/d71/classNetworkUtilities.html#aa1a4875844765ed6487082867f6a832f" target="_top" xlink:title=" ">
<polygon fill="white" stroke="#666666" points="667,-130 464,-130 464,-111 667,-111 667,-130"/>
<text text-anchor="middle" x="565.5" y="-118" font-family="Helvetica,sans-Serif" font-size="10.00">NetworkUtilities::getLocalIPv4Address</text>
</a>
</g>
</g>
<!-- Node5&#45;&gt;Node6 -->
<g id="edge5_Node000005_Node000006" class="edge">
<title>Node5&#45;&gt;Node6</title>
<g id="a_edge5_Node000005_Node000006"><a xlink:title=" ">
<path fill="none" stroke="#63b8ff" d="M420.78,-120.5C431.67,-120.5 442.83,-120.5 453.88,-120.5"/>
<polygon fill="#63b8ff" stroke="#63b8ff" points="453.99,-124 463.99,-120.5 453.99,-117 453.99,-124"/>
</a>
</g>
</g>
<!-- Node8 -->
<g id="Node000008" class="node">
<title>Node8</title>
<g id="a_Node000008"><a xlink:href="../../dd/d71/classNetworkUtilities.html#a8b1b056904d1c96c746c6b0720c84556" target="_top" xlink:title=" ">
<polygon fill="white" stroke="#666666" points="660,-93 471,-93 471,-74 660,-74 660,-93"/>
<text text-anchor="middle" x="565.5" y="-81" font-family="Helvetica,sans-Serif" font-size="10.00">NetworkUtilities::getLocalTunnelUrl</text>
</a>
</g>
</g>
<!-- Node7&#45;&gt;Node8 -->
<g id="edge7_Node000007_Node000008" class="edge">
<title>Node7&#45;&gt;Node8</title>
<g id="a_edge7_Node000007_Node000008"><a xlink:title=" ">
<path fill="none" stroke="#63b8ff" d="M422.51,-83.5C435.1,-83.5 448.02,-83.5 460.69,-83.5"/>
<polygon fill="#63b8ff" stroke="#63b8ff" points="460.79,-87 470.79,-83.5 460.79,-80 460.79,-87"/>
</a>
</g>
</g>
</g>
</svg>

<g id="navigator" transform="translate(0 0)" fill="#404254">
  <rect fill="#f2f5e9" fill-opacity="0.5" stroke="#606060" stroke-width=".5" x="0" y="0" width="60" height="60"/>
  <use id="zoomplus" xlink:href="#zoomPlus" x="17" y="9" onmousedown="handleZoom(evt,'in')"/>
  <use id="zoomminus" xlink:href="#zoomMin" x="42" y="9" onmousedown="handleZoom(evt,'out')"/>
  <use id="reset" xlink:href="#resetDef" x="30" y="36" onmousedown="handleReset()"/>
   <use id="arrowup" xlink:href="#arrowUp" x="0" y="0" onmousedown="handlePan(0,-1)"/>
  <use id="arrowright" xlink:href="#arrowRight" x="0" y="0" onmousedown="handlePan(1,0)"/>
  <use id="arrowdown" xlink:href="#arrowDown" x="0" y="0" onmousedown="handlePan(0,1)"/>
  <use id="arrowleft" xlink:href="#arrowLeft" x="0" y="0" onmousedown="handlePan(-1,0)"/>
</g>
<svg viewBox="0 0 15 15" width="100%" height="30px" preserveAspectRatio="xMaxYMin meet">
 <g id="arrow_out" transform="scale(0.3 0.3)">
  <a xlink:href="classNetworkManager_a257fc3a28028db256b35ecd70ec74264_cgraph_org.svg" target="_base">
   <rect id="button" ry="5" rx="5" y="6" x="6" height="38" width="38"
        fill="#f2f5e9" fill-opacity="0.5" stroke="#606060" stroke-width="1.0"/>
   <path id="arrow"
     d="M 11.500037,31.436501 C 11.940474,20.09759 22.043105,11.32322 32.158766,21.979434 L 37.068811,17.246167 C 37.068811,17.246167 37.088388,32 37.088388,32 L 22.160133,31.978069 C 22.160133,31.978069 26.997745,27.140456 26.997745,27.140456 C 18.528582,18.264221 13.291696,25.230495 11.500037,31.436501 z"
     style="fill:#404040;"/>
  </a>
 </g>
</svg>

<style type='text/css'>
<![CDATA[
[data-mouse-over-selected='false'] { opacity: 0.7; }
[data-mouse-over-selected='true']  { opacity: 1.0; }
]]>
</style>
<script type="application/ecmascript"><![CDATA[
document.addEventListener('DOMContentLoaded', (event) => {
  highlightEdges();
  highlightAdjacentNodes();
});
]]></script>
</svg>
