<?xml version="1.0" encoding="UTF-8" standalone="no"?>
<!DOCTYPE svg PUBLIC "-//W3C//DTD SVG 1.1//EN"
 "http://www.w3.org/Graphics/SVG/1.1/DTD/svg11.dtd">
<!-- Generated by graphviz version 2.43.0 (0)
 -->
<!-- Title: NetworkManager::sendGridUpdate Pages: 1 -->
<svg width="991pt" height="139pt"
 viewBox="0.00 0.00 991.00 139.00" xmlns="http://www.w3.org/2000/svg" xmlns:xlink="http://www.w3.org/1999/xlink">
<g id="graph0" class="graph" transform="scale(1 1) rotate(0) translate(4 135)">
<title>NetworkManager::sendGridUpdate</title>
<!-- Node1 -->
<g id="Node000001" class="node">
<title>Node1</title>
<g id="a_Node000001"><a xlink:title=" ">
<polygon fill="#999999" stroke="#666666" points="185,-92 0,-92 0,-73 185,-73 185,-92"/>
<text text-anchor="middle" x="92.5" y="-80" font-family="Helvetica,sans-Serif" font-size="10.00">NetworkManager::sendGridUpdate</text>
</a>
</g>
</g>
<!-- Node2 -->
<g id="Node000002" class="node">
<title>Node2</title>
<g id="a_Node000002"><a xlink:href="../../d6/d6f/classNetworkManager.html#aeb0d7937d1d825d09dc8c7b13e35a962" target="_top" xlink:title=" ">
<polygon fill="white" stroke="#666666" points="437,-120 222,-120 222,-101 437,-101 437,-120"/>
<text text-anchor="middle" x="329.5" y="-108" font-family="Helvetica,sans-Serif" font-size="10.00">NetworkManager::broadcastGameFrame</text>
</a>
</g>
</g>
<!-- Node1&#45;&gt;Node2 -->
<g id="edge1_Node000001_Node000002" class="edge">
<title>Node1&#45;&gt;Node2</title>
<g id="a_edge1_Node000001_Node000002"><a xlink:title=" ">
<path fill="none" stroke="#63b8ff" d="M173.39,-92.02C194.29,-94.51 216.98,-97.21 238.38,-99.76"/>
<polygon fill="#63b8ff" stroke="#63b8ff" points="238.09,-103.25 248.43,-100.96 238.92,-96.3 238.09,-103.25"/>
</a>
</g>
</g>
<!-- Node4 -->
<g id="Node000004" class="node">
<title>Node4</title>
<g id="a_Node000004"><a xlink:href="../../d6/d6f/classNetworkManager.html#a69494ac8e4544eab4263d7c9d56c7cf2" target="_top" xlink:title=" ">
<polygon fill="white" stroke="#666666" points="438,-74 221,-74 221,-55 438,-55 438,-74"/>
<text text-anchor="middle" x="329.5" y="-62" font-family="Helvetica,sans-Serif" font-size="10.00">NetworkManager::buildGridUpdateFrame</text>
</a>
</g>
</g>
<!-- Node1&#45;&gt;Node4 -->
<g id="edge3_Node000001_Node000004" class="edge">
<title>Node1&#45;&gt;Node4</title>
<g id="a_edge3_Node000001_Node000004"><a xlink:title=" ">
<path fill="none" stroke="#63b8ff" d="M185.03,-75.49C193.46,-74.84 202.08,-74.18 210.7,-73.52"/>
<polygon fill="#63b8ff" stroke="#63b8ff" points="211.1,-77 220.8,-72.75 210.57,-70.02 211.1,-77"/>
</a>
</g>
</g>
<!-- Node3 -->
<g id="Node000003" class="node">
<title>Node3</title>
<g id="a_Node000003"><a xlink:href="../../d6/d6f/classNetworkManager.html#a8f97d83ec35ea68c1e37d6837c1c8b4c" target="_top" xlink:title=" ">
<polygon fill="white" stroke="#666666" points="644,-130 474,-130 474,-111 644,-111 644,-130"/>
<text text-anchor="middle" x="559" y="-118" font-family="Helvetica,sans-Serif" font-size="10.00">NetworkManager::sendGameTo</text>
</a>
</g>
</g>
<!-- Node2&#45;&gt;Node3 -->
<g id="edge2_Node000002_Node000003" class="edge">
<title>Node2&#45;&gt;Node3</title>
<g id="a_edge2_Node000002_Node000003"><a xlink:title=" ">
<path fill="none" stroke="#63b8ff" d="M437.26,-115.19C446.05,-115.58 454.9,-115.97 463.6,-116.35"/>
<polygon fill="#63b8ff" stroke="#63b8ff" points="463.58,-119.85 473.72,-116.8 463.89,-112.86 463.58,-119.85"/>
</a>
</g>
</g>
<!-- Node5 -->
<g id="Node000005" class="node">
<title>Node5</title>
<g id="a_Node000005"><a xlink:href="../../db/d4b/classSerializer.html#ad0d31f7afee6b62ebc3c4f05bfef6bf2" target="_top" xlink:title=" ">
<polygon fill="white" stroke="#666666" points="624,-93 494,-93 494,-74 624,-74 624,-93"/>
<text text-anchor="middle" x="559" y="-81" font-family="Helvetica,sans-Serif" font-size="10.00">Serializer::serializeGrid</text>
</a>
</g>
</g>
<!-- Node4&#45;&gt;Node5 -->
<g id="edge4_Node000004_Node000005" class="edge">
<title>Node4&#45;&gt;Node5</title>
<g id="a_edge4_Node000004_Node000005"><a xlink:title=" ">
<path fill="none" stroke="#63b8ff" d="M438.25,-73.5C453.6,-74.78 469.08,-76.07 483.59,-77.29"/>
<polygon fill="#63b8ff" stroke="#63b8ff" points="483.72,-80.81 493.97,-78.15 484.3,-73.83 483.72,-80.81"/>
</a>
</g>
</g>
<!-- Node9 -->
<g id="Node000009" class="node">
<title>Node9</title>
<g id="a_Node000009"><a xlink:href="../../db/d4b/classSerializer.html#a60889622ee4e36ea28a284e99bbdf4e5" target="_top" xlink:title=" ">
<polygon fill="white" stroke="#666666" points="630,-56 488,-56 488,-37 630,-37 630,-56"/>
<text text-anchor="middle" x="559" y="-44" font-family="Helvetica,sans-Serif" font-size="10.00">Serializer::serializeUInt64</text>
</a>
</g>
</g>
<!-- Node4&#45;&gt;Node9 -->
<g id="edge9_Node000004_Node000009" class="edge">
<title>Node4&#45;&gt;Node9</title>
<g id="a_edge9_Node000004_Node000009"><a xlink:title=" ">
<path fill="none" stroke="#63b8ff" d="M438.25,-55.97C451.58,-54.92 465.01,-53.86 477.81,-52.84"/>
<polygon fill="#63b8ff" stroke="#63b8ff" points="478.25,-56.32 487.94,-52.04 477.69,-49.34 478.25,-56.32"/>
</a>
</g>
</g>
<!-- Node10 -->
<g id="Node000010" class="node">
<title>Node10</title>
<g id="a_Node000010"><a xlink:href="../../db/d4b/classSerializer.html#a3c3d58eaacc5f3c6f19cfde75424e9cc" target="_top" xlink:title=" ">
<polygon fill="white" stroke="#666666" points="627,-19 491,-19 491,0 627,0 627,-19"/>
<text text-anchor="middle" x="559" y="-7" font-family="Helvetica,sans-Serif" font-size="10.00">Serializer::serializeUInt8</text>
</a>
</g>
</g>
<!-- Node4&#45;&gt;Node10 -->
<g id="edge10_Node000004_Node000010" class="edge">
<title>Node4&#45;&gt;Node10</title>
<g id="a_edge10_Node000004_Node000010"><a xlink:title=" ">
<path fill="none" stroke="#63b8ff" d="M365.78,-54.97C394.77,-47.24 436.94,-36.24 474,-27.5 482.95,-25.39 492.47,-23.25 501.76,-21.22"/>
<polygon fill="#63b8ff" stroke="#63b8ff" points="502.68,-24.6 511.71,-19.06 501.2,-17.76 502.68,-24.6"/>
</a>
</g>
</g>
<!-- Node6 -->
<g id="Node000006" class="node">
<title>Node6</title>
<g id="a_Node000006"><a xlink:href="../../db/d4b/classSerializer.html#a2a407c3a379b680296ee190ed625f05f" target="_top" xlink:title=" ">
<polygon fill="white" stroke="#666666" points="812,-131 681,-131 681,-112 812,-112 812,-131"/>
<text text-anchor="middle" x="746.5" y="-119" font-family="Helvetica,sans-Serif" font-size="10.00">Serializer::serializeBool</text>
</a>
</g>
</g>
<!-- Node5&#45;&gt;Node6 -->
<g id="edge5_Node000005_Node000006" class="edge">
<title>Node5&#45;&gt;Node6</title>
<g id="a_edge5_Node000005_Node000006"><a xlink:title=" ">
<path fill="none" stroke="#63b8ff" d="M606.81,-93.09C631.84,-98.22 662.84,-104.57 689.18,-109.96"/>
<polygon fill="#63b8ff" stroke="#63b8ff" points="688.53,-113.4 699.03,-111.98 689.93,-106.54 688.53,-113.4"/>
</a>
</g>
</g>
<!-- Node7 -->
<g id="Node000007" class="node">
<title>Node7</title>
<g id="a_Node000007"><a xlink:href="../../db/d4b/classSerializer.html#a92ffe65857abd6eea6a393056a9bb533" target="_top" xlink:title=" ">
<polygon fill="white" stroke="#666666" points="983,-74 849,-74 849,-55 983,-55 983,-74"/>
<text text-anchor="middle" x="916" y="-62" font-family="Helvetica,sans-Serif" font-size="10.00">Serializer::serializeFloat</text>
</a>
</g>
</g>
<!-- Node5&#45;&gt;Node7 -->
<g id="edge6_Node000005_Node000007" class="edge">
<title>Node5&#45;&gt;Node7</title>
<g id="a_edge6_Node000005_Node000007"><a xlink:title=" ">
<path fill="none" stroke="#63b8ff" d="M624.29,-80.06C684.6,-76.83 774.84,-72 838.76,-68.58"/>
<polygon fill="#63b8ff" stroke="#63b8ff" points="838.98,-72.07 848.78,-68.04 838.61,-65.08 838.98,-72.07"/>
</a>
</g>
</g>
<!-- Node8 -->
<g id="Node000008" class="node">
<title>Node8</title>
<g id="a_Node000008"><a xlink:href="../../db/d4b/classSerializer.html#a52943821c1686ae47c30586ec7f9bc7e" target="_top" xlink:title=" ">
<polygon fill="white" stroke="#666666" points="813,-55 680,-55 680,-36 813,-36 813,-55"/>
<text text-anchor="middle" x="746.5" y="-43" font-family="Helvetica,sans-Serif" font-size="10.00">Serializer::serializeVec2</text>
</a>
</g>
</g>
<!-- Node5&#45;&gt;Node8 -->
<g id="edge7_Node000005_Node000008" class="edge">
<title>Node5&#45;&gt;Node8</title>
<g id="a_edge7_Node000005_Node000008"><a xlink:title=" ">
<path fill="none" stroke="#63b8ff" d="M606.81,-73.91C631.84,-68.78 662.84,-62.43 689.18,-57.04"/>
<polygon fill="#63b8ff" stroke="#63b8ff" points="689.93,-60.46 699.03,-55.02 688.53,-53.6 689.93,-60.46"/>
</a>
</g>
</g>
<!-- Node8&#45;&gt;Node7 -->
<g id="edge8_Node000008_Node000007" class="edge">
<title>Node8&#45;&gt;Node7</title>
<g id="a_edge8_Node000008_Node000007"><a xlink:title=" ">
<path fill="none" stroke="#63b8ff" d="M813.22,-52.95C821.65,-53.91 830.34,-54.9 838.92,-55.87"/>
<polygon fill="#63b8ff" stroke="#63b8ff" points="838.59,-59.35 848.92,-57 839.38,-52.4 838.59,-59.35"/>
</a>
</g>
</g>
</g>
</svg>
