<?xml version="1.0" encoding="UTF-8" standalone="no"?>
<!DOCTYPE svg PUBLIC "-//W3C//DTD SVG 1.1//EN"
 "http://www.w3.org/Graphics/SVG/1.1/DTD/svg11.dtd">
<!-- Generated by graphviz version 2.43.0 (0)
 -->
<!-- Title: NetworkManager::broadcastMarkerMove Pages: 1 -->
<svg width="1082pt" height="175pt"
 viewBox="0.00 0.00 1082.00 175.00" xmlns="http://www.w3.org/2000/svg" xmlns:xlink="http://www.w3.org/1999/xlink">
<g id="graph0" class="graph" transform="scale(1 1) rotate(0) translate(4 171)">
<title>NetworkManager::broadcastMarkerMove</title>
<!-- Node1 -->
<g id="Node000001" class="node">
<title>Node1</title>
<g id="a_Node000001"><a xlink:title=" ">
<polygon fill="#999999" stroke="#666666" points="215,-148 0,-148 0,-129 215,-129 215,-148"/>
<text text-anchor="middle" x="107.5" y="-136" font-family="Helvetica,sans-Serif" font-size="10.00">NetworkManager::broadcastMarkerMove</text>
</a>
</g>
</g>
<!-- Node2 -->
<g id="Node000002" class="node">
<title>Node2</title>
<g id="a_Node000002"><a xlink:href="../../d6/d6f/classNetworkManager.html#a2127afec206b45126dff36ca21ffde3d" target="_top" xlink:title=" ">
<polygon fill="white" stroke="#666666" points="461,-167 251,-167 251,-148 461,-148 461,-167"/>
<text text-anchor="middle" x="356" y="-155" font-family="Helvetica,sans-Serif" font-size="10.00">NetworkManager::getConnectedPeerIds</text>
</a>
</g>
</g>
<!-- Node1&#45;&gt;Node2 -->
<g id="edge1_Node000001_Node000002" class="edge">
<title>Node1&#45;&gt;Node2</title>
<g id="a_edge1_Node000001_Node000002"><a xlink:title=" ">
<path fill="none" stroke="#63b8ff" d="M215.18,-146.72C223.7,-147.38 232.31,-148.04 240.87,-148.7"/>
<polygon fill="#63b8ff" stroke="#63b8ff" points="240.64,-152.2 250.88,-149.47 241.18,-145.22 240.64,-152.2"/>
</a>
</g>
</g>
<!-- Node3 -->
<g id="Node000003" class="node">
<title>Node3</title>
<g id="a_Node000003"><a xlink:href="../../d6/d6f/classNetworkManager.html#a30523648225cb5f4e628c5daa19f4719" target="_top" xlink:title=" ">
<polygon fill="white" stroke="#666666" points="451.5,-130 260.5,-130 260.5,-111 451.5,-111 451.5,-130"/>
<text text-anchor="middle" x="356" y="-118" font-family="Helvetica,sans-Serif" font-size="10.00">NetworkManager::sendMarkerMove</text>
</a>
</g>
</g>
<!-- Node1&#45;&gt;Node3 -->
<g id="edge2_Node000001_Node000003" class="edge">
<title>Node1&#45;&gt;Node3</title>
<g id="a_edge2_Node000001_Node000003"><a xlink:title=" ">
<path fill="none" stroke="#63b8ff" d="M215.18,-130.71C226.76,-129.86 238.53,-129 250.08,-128.16"/>
<polygon fill="#63b8ff" stroke="#63b8ff" points="250.45,-131.64 260.17,-127.42 249.94,-124.66 250.45,-131.64"/>
</a>
</g>
</g>
<!-- Node4 -->
<g id="Node000004" class="node">
<title>Node4</title>
<g id="a_Node000004"><a xlink:href="../../d6/d6f/classNetworkManager.html#ab8fd392b2bcef38aa4c9ab92a7d73fe3" target="_top" xlink:title=" ">
<polygon fill="white" stroke="#666666" points="719,-111 497,-111 497,-92 719,-92 719,-111"/>
<text text-anchor="middle" x="608" y="-99" font-family="Helvetica,sans-Serif" font-size="10.00">NetworkManager::buildMarkerMoveFrame</text>
</a>
</g>
</g>
<!-- Node3&#45;&gt;Node4 -->
<g id="edge3_Node000003_Node000004" class="edge">
<title>Node3&#45;&gt;Node4</title>
<g id="a_edge3_Node000003_Node000004"><a xlink:title=" ">
<path fill="none" stroke="#63b8ff" d="M451.51,-113.32C462.96,-112.45 474.76,-111.55 486.52,-110.66"/>
<polygon fill="#63b8ff" stroke="#63b8ff" points="487.11,-114.12 496.82,-109.87 486.58,-107.14 487.11,-114.12"/>
</a>
</g>
</g>
<!-- Node5 -->
<g id="Node000005" class="node">
<title>Node5</title>
<g id="a_Node000005"><a xlink:href="../../d6/d6f/classNetworkManager.html#a1ca85e76187f45d46596a1d04d713f0f" target="_top" xlink:title=" ">
<polygon fill="white" stroke="#666666" points="900,-167 759,-167 759,-148 900,-148 900,-167"/>
<text text-anchor="middle" x="829.5" y="-155" font-family="Helvetica,sans-Serif" font-size="10.00">NetworkManager::nowMs</text>
</a>
</g>
</g>
<!-- Node3&#45;&gt;Node5 -->
<g id="edge10_Node000003_Node000005" class="edge">
<title>Node3&#45;&gt;Node5</title>
<g id="a_edge10_Node000003_Node000005"><a xlink:title=" ">
<path fill="none" stroke="#63b8ff" d="M451.56,-127.92C538.79,-134.77 666.84,-144.81 748.94,-151.26"/>
<polygon fill="#63b8ff" stroke="#63b8ff" points="748.73,-154.75 758.97,-152.04 749.28,-147.77 748.73,-154.75"/>
</a>
</g>
</g>
<!-- Node4&#45;&gt;Node5 -->
<g id="edge4_Node000004_Node000005" class="edge">
<title>Node4&#45;&gt;Node5</title>
<g id="a_edge4_Node000004_Node000005"><a xlink:title=" ">
<path fill="none" stroke="#63b8ff" d="M644.96,-111.01C674.49,-118.79 717.42,-130.01 755,-139.5 762.88,-141.49 771.24,-143.57 779.39,-145.58"/>
<polygon fill="#63b8ff" stroke="#63b8ff" points="778.64,-149 789.18,-147.98 780.31,-142.2 778.64,-149"/>
</a>
</g>
</g>
<!-- Node6 -->
<g id="Node000006" class="node">
<title>Node6</title>
<g id="a_Node000006"><a xlink:href="../../db/d4b/classSerializer.html#a9552a2e71fe480af903507fb148c8964" target="_top" xlink:title=" ">
<polygon fill="white" stroke="#666666" points="904,-130 755,-130 755,-111 904,-111 904,-130"/>
<text text-anchor="middle" x="829.5" y="-118" font-family="Helvetica,sans-Serif" font-size="10.00">Serializer::serializePosition</text>
</a>
</g>
</g>
<!-- Node4&#45;&gt;Node6 -->
<g id="edge5_Node000004_Node000006" class="edge">
<title>Node4&#45;&gt;Node6</title>
<g id="a_edge5_Node000004_Node000006"><a xlink:title=" ">
<path fill="none" stroke="#63b8ff" d="M719.07,-111.03C727.66,-111.77 736.26,-112.52 744.63,-113.24"/>
<polygon fill="#63b8ff" stroke="#63b8ff" points="744.47,-116.74 754.73,-114.11 745.07,-109.77 744.47,-116.74"/>
</a>
</g>
</g>
<!-- Node8 -->
<g id="Node000008" class="node">
<title>Node8</title>
<g id="a_Node000008"><a xlink:href="../../db/d4b/classSerializer.html#ac0cbc3ff6cc924221db1eebb6bb6b33b" target="_top" xlink:title=" ">
<polygon fill="white" stroke="#666666" points="900.5,-93 758.5,-93 758.5,-74 900.5,-74 900.5,-93"/>
<text text-anchor="middle" x="829.5" y="-81" font-family="Helvetica,sans-Serif" font-size="10.00">Serializer::serializeUInt32</text>
</a>
</g>
</g>
<!-- Node4&#45;&gt;Node8 -->
<g id="edge7_Node000004_Node000008" class="edge">
<title>Node4&#45;&gt;Node8</title>
<g id="a_edge7_Node000004_Node000008"><a xlink:title=" ">
<path fill="none" stroke="#63b8ff" d="M719.07,-92.47C728.89,-91.67 738.71,-90.86 748.2,-90.08"/>
<polygon fill="#63b8ff" stroke="#63b8ff" points="748.69,-93.56 758.37,-89.25 748.12,-86.58 748.69,-93.56"/>
</a>
</g>
</g>
<!-- Node9 -->
<g id="Node000009" class="node">
<title>Node9</title>
<g id="a_Node000009"><a xlink:href="../../db/d4b/classSerializer.html#a60889622ee4e36ea28a284e99bbdf4e5" target="_top" xlink:title=" ">
<polygon fill="white" stroke="#666666" points="900.5,-56 758.5,-56 758.5,-37 900.5,-37 900.5,-56"/>
<text text-anchor="middle" x="829.5" y="-44" font-family="Helvetica,sans-Serif" font-size="10.00">Serializer::serializeUInt64</text>
</a>
</g>
</g>
<!-- Node4&#45;&gt;Node9 -->
<g id="edge8_Node000004_Node000009" class="edge">
<title>Node4&#45;&gt;Node9</title>
<g id="a_edge8_Node000004_Node000009"><a xlink:title=" ">
<path fill="none" stroke="#63b8ff" d="M647.23,-91.92C684.26,-82.64 740.52,-68.54 780.54,-58.52"/>
<polygon fill="#63b8ff" stroke="#63b8ff" points="781.49,-61.89 790.34,-56.06 779.79,-55.1 781.49,-61.89"/>
</a>
</g>
</g>
<!-- Node10 -->
<g id="Node000010" class="node">
<title>Node10</title>
<g id="a_Node000010"><a xlink:href="../../db/d4b/classSerializer.html#a3c3d58eaacc5f3c6f19cfde75424e9cc" target="_top" xlink:title=" ">
<polygon fill="white" stroke="#666666" points="897.5,-19 761.5,-19 761.5,0 897.5,0 897.5,-19"/>
<text text-anchor="middle" x="829.5" y="-7" font-family="Helvetica,sans-Serif" font-size="10.00">Serializer::serializeUInt8</text>
</a>
</g>
</g>
<!-- Node4&#45;&gt;Node10 -->
<g id="edge9_Node000004_Node000010" class="edge">
<title>Node4&#45;&gt;Node10</title>
<g id="a_edge9_Node000004_Node000010"><a xlink:title=" ">
<path fill="none" stroke="#63b8ff" d="M625.09,-91.79C651.41,-76.27 705.7,-45.76 755,-27.5 760.6,-25.42 766.54,-23.52 772.5,-21.79"/>
<polygon fill="#63b8ff" stroke="#63b8ff" points="773.81,-25.06 782.53,-19.04 771.96,-18.31 773.81,-25.06"/>
</a>
</g>
</g>
<!-- Node7 -->
<g id="Node000007" class="node">
<title>Node7</title>
<g id="a_Node000007"><a xlink:href="../../db/d4b/classSerializer.html#a92ffe65857abd6eea6a393056a9bb533" target="_top" xlink:title=" ">
<polygon fill="white" stroke="#666666" points="1074,-130 940,-130 940,-111 1074,-111 1074,-130"/>
<text text-anchor="middle" x="1007" y="-118" font-family="Helvetica,sans-Serif" font-size="10.00">Serializer::serializeFloat</text>
</a>
</g>
</g>
<!-- Node6&#45;&gt;Node7 -->
<g id="edge6_Node000006_Node000007" class="edge">
<title>Node6&#45;&gt;Node7</title>
<g id="a_edge6_Node000006_Node000007"><a xlink:title=" ">
<path fill="none" stroke="#63b8ff" d="M904.16,-120.5C912.57,-120.5 921.15,-120.5 929.58,-120.5"/>
<polygon fill="#63b8ff" stroke="#63b8ff" points="929.78,-124 939.78,-120.5 929.78,-117 929.78,-124"/>
</a>
</g>
</g>
</g>
</svg>
