<?xml version="1.0" encoding="UTF-8" standalone="no"?>
<!DOCTYPE svg PUBLIC "-//W3C//DTD SVG 1.1//EN"
 "http://www.w3.org/Graphics/SVG/1.1/DTD/svg11.dtd">
<!-- Generated by graphviz version 2.43.0 (0)
 -->
<!-- Title: NetworkManager::sendMarkerUpdate Pages: 1 -->
<svg width="1041pt" height="212pt"
 viewBox="0.00 0.00 1041.00 212.00" xmlns="http://www.w3.org/2000/svg" xmlns:xlink="http://www.w3.org/1999/xlink">
<g id="graph0" class="graph" transform="scale(1 1) rotate(0) translate(4 208)">
<title>NetworkManager::sendMarkerUpdate</title>
<!-- Node1 -->
<g id="Node000001" class="node">
<title>Node1</title>
<g id="a_Node000001"><a xlink:title=" ">
<polygon fill="#999999" stroke="#666666" points="199,-129 0,-129 0,-110 199,-110 199,-129"/>
<text text-anchor="middle" x="99.5" y="-117" font-family="Helvetica,sans-Serif" font-size="10.00">NetworkManager::sendMarkerUpdate</text>
</a>
</g>
</g>
<!-- Node2 -->
<g id="Node000002" class="node">
<title>Node2</title>
<g id="a_Node000002"><a xlink:href="../../d6/d6f/classNetworkManager.html#aeb0d7937d1d825d09dc8c7b13e35a962" target="_top" xlink:title=" ">
<polygon fill="white" stroke="#666666" points="457.5,-176 242.5,-176 242.5,-157 457.5,-157 457.5,-176"/>
<text text-anchor="middle" x="350" y="-164" font-family="Helvetica,sans-Serif" font-size="10.00">NetworkManager::broadcastGameFrame</text>
</a>
</g>
</g>
<!-- Node1&#45;&gt;Node2 -->
<g id="edge1_Node000001_Node000002" class="edge">
<title>Node1&#45;&gt;Node2</title>
<g id="a_edge1_Node000001_Node000002"><a xlink:title=" ">
<path fill="none" stroke="#63b8ff" d="M150.79,-129.01C190.57,-136.54 246.26,-147.07 288.48,-155.05"/>
<polygon fill="#63b8ff" stroke="#63b8ff" points="287.88,-158.5 298.36,-156.92 289.19,-151.62 287.88,-158.5"/>
</a>
</g>
</g>
<!-- Node4 -->
<g id="Node000004" class="node">
<title>Node4</title>
<g id="a_Node000004"><a xlink:href="../../d6/d6f/classNetworkManager.html#acf942084ff349010655c47a232659527" target="_top" xlink:title=" ">
<polygon fill="white" stroke="#666666" points="465,-111 235,-111 235,-92 465,-92 465,-111"/>
<text text-anchor="middle" x="350" y="-99" font-family="Helvetica,sans-Serif" font-size="10.00">NetworkManager::buildMarkerUpdateFrame</text>
</a>
</g>
</g>
<!-- Node1&#45;&gt;Node4 -->
<g id="edge3_Node000001_Node000004" class="edge">
<title>Node1&#45;&gt;Node4</title>
<g id="a_edge3_Node000001_Node000004"><a xlink:title=" ">
<path fill="none" stroke="#63b8ff" d="M199.07,-112.36C207.54,-111.75 216.18,-111.12 224.82,-110.49"/>
<polygon fill="#63b8ff" stroke="#63b8ff" points="225.23,-113.97 234.96,-109.76 224.73,-106.99 225.23,-113.97"/>
</a>
</g>
</g>
<!-- Node3 -->
<g id="Node000003" class="node">
<title>Node3</title>
<g id="a_Node000003"><a xlink:href="../../d6/d6f/classNetworkManager.html#a8f97d83ec35ea68c1e37d6837c1c8b4c" target="_top" xlink:title=" ">
<polygon fill="white" stroke="#666666" points="686,-204 516,-204 516,-185 686,-185 686,-204"/>
<text text-anchor="middle" x="601" y="-192" font-family="Helvetica,sans-Serif" font-size="10.00">NetworkManager::sendGameTo</text>
</a>
</g>
</g>
<!-- Node2&#45;&gt;Node3 -->
<g id="edge2_Node000002_Node000003" class="edge">
<title>Node2&#45;&gt;Node3</title>
<g id="a_edge2_Node000002_Node000003"><a xlink:title=" ">
<path fill="none" stroke="#63b8ff" d="M435.65,-176.02C458.12,-178.55 482.53,-181.29 505.5,-183.87"/>
<polygon fill="#63b8ff" stroke="#63b8ff" points="505.26,-187.37 515.59,-185.01 506.04,-180.41 505.26,-187.37"/>
</a>
</g>
</g>
<!-- Node5 -->
<g id="Node000005" class="node">
<title>Node5</title>
<g id="a_Node000005"><a xlink:href="../../db/d4b/classSerializer.html#ab8e8e2bd7ed71e39b528e1bcdf528e0b" target="_top" xlink:title=" ">
<polygon fill="white" stroke="#666666" points="701,-130 501,-130 501,-111 701,-111 701,-130"/>
<text text-anchor="middle" x="601" y="-118" font-family="Helvetica,sans-Serif" font-size="10.00">Serializer::serializeMarkerComponent</text>
</a>
</g>
</g>
<!-- Node4&#45;&gt;Node5 -->
<g id="edge4_Node000004_Node000005" class="edge">
<title>Node4&#45;&gt;Node5</title>
<g id="a_edge4_Node000004_Node000005"><a xlink:title=" ">
<path fill="none" stroke="#63b8ff" d="M465.3,-110.22C473.75,-110.87 482.27,-111.52 490.69,-112.16"/>
<polygon fill="#63b8ff" stroke="#63b8ff" points="490.67,-115.67 500.9,-112.94 491.2,-108.69 490.67,-115.67"/>
</a>
</g>
</g>
<!-- Node9 -->
<g id="Node000009" class="node">
<title>Node9</title>
<g id="a_Node000009"><a xlink:href="../../db/d4b/classSerializer.html#a6be006b0cf99a37c2146723395013b76" target="_top" xlink:title=" ">
<polygon fill="white" stroke="#666666" points="666,-93 536,-93 536,-74 666,-74 666,-93"/>
<text text-anchor="middle" x="601" y="-81" font-family="Helvetica,sans-Serif" font-size="10.00">Serializer::serializeSize</text>
</a>
</g>
</g>
<!-- Node4&#45;&gt;Node9 -->
<g id="edge8_Node000004_Node000009" class="edge">
<title>Node4&#45;&gt;Node9</title>
<g id="a_edge8_Node000004_Node000009"><a xlink:title=" ">
<path fill="none" stroke="#63b8ff" d="M465.3,-93.24C485.78,-91.76 506.63,-90.25 525.62,-88.88"/>
<polygon fill="#63b8ff" stroke="#63b8ff" points="525.94,-92.36 535.66,-88.15 525.43,-85.38 525.94,-92.36"/>
</a>
</g>
</g>
<!-- Node11 -->
<g id="Node000011" class="node">
<title>Node11</title>
<g id="a_Node000011"><a xlink:href="../../db/d4b/classSerializer.html#a60889622ee4e36ea28a284e99bbdf4e5" target="_top" xlink:title=" ">
<polygon fill="white" stroke="#666666" points="672,-56 530,-56 530,-37 672,-37 672,-56"/>
<text text-anchor="middle" x="601" y="-44" font-family="Helvetica,sans-Serif" font-size="10.00">Serializer::serializeUInt64</text>
</a>
</g>
</g>
<!-- Node4&#45;&gt;Node11 -->
<g id="edge10_Node000004_Node000011" class="edge">
<title>Node4&#45;&gt;Node11</title>
<g id="a_edge10_Node000004_Node000011"><a xlink:title=" ">
<path fill="none" stroke="#63b8ff" d="M386.92,-91.97C417.22,-84.1 461.79,-72.89 501,-64.5 511.66,-62.22 523,-59.98 534.07,-57.9"/>
<polygon fill="#63b8ff" stroke="#63b8ff" points="534.92,-61.3 544.12,-56.04 533.65,-54.42 534.92,-61.3"/>
</a>
</g>
</g>
<!-- Node12 -->
<g id="Node000012" class="node">
<title>Node12</title>
<g id="a_Node000012"><a xlink:href="../../db/d4b/classSerializer.html#a3c3d58eaacc5f3c6f19cfde75424e9cc" target="_top" xlink:title=" ">
<polygon fill="white" stroke="#666666" points="669,-19 533,-19 533,0 669,0 669,-19"/>
<text text-anchor="middle" x="601" y="-7" font-family="Helvetica,sans-Serif" font-size="10.00">Serializer::serializeUInt8</text>
</a>
</g>
</g>
<!-- Node4&#45;&gt;Node12 -->
<g id="edge11_Node000004_Node000012" class="edge">
<title>Node4&#45;&gt;Node12</title>
<g id="a_edge11_Node000004_Node000012"><a xlink:title=" ">
<path fill="none" stroke="#63b8ff" d="M366.58,-91.98C393.17,-76.17 449.44,-44.53 501,-27.5 508.09,-25.16 515.58,-23.09 523.13,-21.28"/>
<polygon fill="#63b8ff" stroke="#63b8ff" points="524.07,-24.66 533.06,-19.05 522.54,-17.83 524.07,-24.66"/>
</a>
</g>
</g>
<!-- Node13 -->
<g id="Node000013" class="node">
<title>Node13</title>
<g id="a_Node000013"><a xlink:href="../../db/d4b/classSerializer.html#adf940baab7d143611e19fb957725a80a" target="_top" xlink:title=" ">
<polygon fill="white" stroke="#666666" points="677,-167 525,-167 525,-148 677,-148 677,-167"/>
<text text-anchor="middle" x="601" y="-155" font-family="Helvetica,sans-Serif" font-size="10.00">Serializer::serializeVisibility</text>
</a>
</g>
</g>
<!-- Node4&#45;&gt;Node13 -->
<g id="edge12_Node000004_Node000013" class="edge">
<title>Node4&#45;&gt;Node13</title>
<g id="a_edge12_Node000004_Node000013"><a xlink:title=" ">
<path fill="none" stroke="#63b8ff" d="M385.7,-111.01C416,-119.14 461.23,-130.86 501,-139.5 511.59,-141.8 522.85,-144.04 533.85,-146.12"/>
<polygon fill="#63b8ff" stroke="#63b8ff" points="533.37,-149.59 543.85,-147.98 534.65,-142.71 533.37,-149.59"/>
</a>
</g>
</g>
<!-- Node6 -->
<g id="Node000006" class="node">
<title>Node6</title>
<g id="a_Node000006"><a xlink:href="../../db/d4b/classSerializer.html#a2a407c3a379b680296ee190ed625f05f" target="_top" xlink:title=" ">
<polygon fill="white" stroke="#666666" points="871.5,-167 740.5,-167 740.5,-148 871.5,-148 871.5,-167"/>
<text text-anchor="middle" x="806" y="-155" font-family="Helvetica,sans-Serif" font-size="10.00">Serializer::serializeBool</text>
</a>
</g>
</g>
<!-- Node5&#45;&gt;Node6 -->
<g id="edge5_Node000005_Node000006" class="edge">
<title>Node5&#45;&gt;Node6</title>
<g id="a_edge5_Node000005_Node000006"><a xlink:title=" ">
<path fill="none" stroke="#63b8ff" d="M654.28,-130.03C681.17,-134.93 714.14,-140.94 742.38,-146.09"/>
<polygon fill="#63b8ff" stroke="#63b8ff" points="742.08,-149.59 752.55,-147.94 743.34,-142.7 742.08,-149.59"/>
</a>
</g>
</g>
<!-- Node7 -->
<g id="Node000007" class="node">
<title>Node7</title>
<g id="a_Node000007"><a xlink:href="../../db/d4b/classSerializer.html#a8a72c08ebb91348dc2a7ef6557c44f6c" target="_top" xlink:title=" ">
<polygon fill="white" stroke="#666666" points="875,-130 737,-130 737,-111 875,-111 875,-130"/>
<text text-anchor="middle" x="806" y="-118" font-family="Helvetica,sans-Serif" font-size="10.00">Serializer::serializeString</text>
</a>
</g>
</g>
<!-- Node5&#45;&gt;Node7 -->
<g id="edge6_Node000005_Node000007" class="edge">
<title>Node5&#45;&gt;Node7</title>
<g id="a_edge6_Node000005_Node000007"><a xlink:title=" ">
<path fill="none" stroke="#63b8ff" d="M701.12,-120.5C709.71,-120.5 718.32,-120.5 726.7,-120.5"/>
<polygon fill="#63b8ff" stroke="#63b8ff" points="726.8,-124 736.8,-120.5 726.8,-117 726.8,-124"/>
</a>
</g>
</g>
<!-- Node8 -->
<g id="Node000008" class="node">
<title>Node8</title>
<g id="a_Node000008"><a xlink:href="../../db/d4b/classSerializer.html#ac812cf485e5804fd6f22d34ae076f79f" target="_top" xlink:title=" ">
<polygon fill="white" stroke="#666666" points="1033,-130 911,-130 911,-111 1033,-111 1033,-130"/>
<text text-anchor="middle" x="972" y="-118" font-family="Helvetica,sans-Serif" font-size="10.00">Serializer::serializeInt</text>
</a>
</g>
</g>
<!-- Node7&#45;&gt;Node8 -->
<g id="edge7_Node000007_Node000008" class="edge">
<title>Node7&#45;&gt;Node8</title>
<g id="a_edge7_Node000007_Node000008"><a xlink:title=" ">
<path fill="none" stroke="#63b8ff" d="M875.13,-120.5C883.57,-120.5 892.22,-120.5 900.7,-120.5"/>
<polygon fill="#63b8ff" stroke="#63b8ff" points="900.93,-124 910.93,-120.5 900.93,-117 900.93,-124"/>
</a>
</g>
</g>
<!-- Node10 -->
<g id="Node000010" class="node">
<title>Node10</title>
<g id="a_Node000010"><a xlink:href="../../db/d4b/classSerializer.html#a92ffe65857abd6eea6a393056a9bb533" target="_top" xlink:title=" ">
<polygon fill="white" stroke="#666666" points="873,-93 739,-93 739,-74 873,-74 873,-93"/>
<text text-anchor="middle" x="806" y="-81" font-family="Helvetica,sans-Serif" font-size="10.00">Serializer::serializeFloat</text>
</a>
</g>
</g>
<!-- Node9&#45;&gt;Node10 -->
<g id="edge9_Node000009_Node000010" class="edge">
<title>Node9&#45;&gt;Node10</title>
<g id="a_edge9_Node000009_Node000010"><a xlink:title=" ">
<path fill="none" stroke="#63b8ff" d="M666.23,-83.5C686,-83.5 707.97,-83.5 728.49,-83.5"/>
<polygon fill="#63b8ff" stroke="#63b8ff" points="728.74,-87 738.74,-83.5 728.74,-80 728.74,-87"/>
</a>
</g>
</g>
<!-- Node13&#45;&gt;Node6 -->
<g id="edge13_Node000013_Node000006" class="edge">
<title>Node13&#45;&gt;Node6</title>
<g id="a_edge13_Node000013_Node000006"><a xlink:title=" ">
<path fill="none" stroke="#63b8ff" d="M677.01,-157.5C694.39,-157.5 712.87,-157.5 730.23,-157.5"/>
<polygon fill="#63b8ff" stroke="#63b8ff" points="730.31,-161 740.31,-157.5 730.31,-154 730.31,-161"/>
</a>
</g>
</g>
</g>
</svg>
