<?xml version="1.0" encoding="UTF-8" standalone="no"?>
<!DOCTYPE svg PUBLIC "-//W3C//DTD SVG 1.1//EN"
 "http://www.w3.org/Graphics/SVG/1.1/DTD/svg11.dtd">
<!-- Generated by graphviz version 2.43.0 (0)
 -->
<!-- Title: NetworkManager::sendBoard Pages: 1 -->
<!--zoomable 477 -->

<svg id="main" version="1.1" xmlns="http://www.w3.org/2000/svg" xmlns:xlink="http://www.w3.org/1999/xlink" xml:space="preserve" onload="init(evt)">
<style type="text/css"><![CDATA[
.node, .edge {opacity: 0.7;}
.node.selected, .edge.selected {opacity: 1;}
.edge:hover path { stroke: red; }
.edge:hover polygon { stroke: red; fill: red; }
]]></style>

<defs>
  <circle id="rim" cx="0" cy="0" r="7"/>
  <circle id="rim2" cx="0" cy="0" r="3.5"/>
  <g id="zoomPlus">
    <use xlink:href="#rim" fill="#404040"><set attributeName="fill" to="#808080" begin="zoomplus.mouseover" end="zoomplus.mouseout"/></use>
    <path d="M-4,0h8M0,-4v8" fill="none" stroke="white" stroke-width="1.5" pointer-events="none"/>
  </g>
  <g id="zoomMin">
    <use xlink:href="#rim" fill="#404040"><set attributeName="fill" to="#808080" begin="zoomminus.mouseover" end="zoomminus.mouseout"/></use>
    <path d="M-4,0h8" fill="none" stroke="white" stroke-width="1.5" pointer-events="none"/>
  </g>
  <g id="arrowUp" transform="translate(30 24)">
    <use xlink:href="#rim"/>
    <path pointer-events="none" fill="none" stroke="white" stroke-width="1.5" d="M0,-3.0v7 M-2.5,-0.5L0,-3.0L2.5,-0.5"/>
  </g>
  <g id="arrowRight" transform="rotate(90) translate(36 -43)">
    <use xlink:href="#rim"/>
    <path pointer-events="none" fill="none" stroke="white" stroke-width="1.5" d="M0,-3.0v7 M-2.5,-0.5L0,-3.0L2.5,-0.5"/>
  </g>
  <g id="arrowDown" transform="rotate(180) translate(-30 -48)">
    <use xlink:href="#rim"/>
    <path pointer-events="none" fill="none" stroke="white" stroke-width="1.5" d="M0,-3.0v7 M-2.5,-0.5L0,-3.0L2.5,-0.5"/>
  </g>
  <g id="arrowLeft" transform="rotate(270) translate(-36 17)">
    <use xlink:href="#rim"/>
    <path pointer-events="none" fill="none" stroke="white" stroke-width="1.5" d="M0,-3.0v7 M-2.5,-0.5L0,-3.0L2.5,-0.5"/>
  </g>
  <g id="resetDef">
    <use xlink:href="#rim2" fill="#404040"><set attributeName="fill" to="#808080" begin="reset.mouseover" end="reset.mouseout"/></use>
  </g>
</defs>
<script type="application/ecmascript">
var viewWidth = 1099;
var viewHeight = 477;
var sectionId = 'dynsection-129';
</script>
<script type="application/ecmascript" xlink:href="../../svg.min.js"/>
<svg id="graph" class="graph">
<g id="viewport">
<title>NetworkManager::sendBoard</title>
<!-- Node1 -->
<g id="Node000001" class="node">
<title>Node1</title>
<g id="a_Node000001"><a xlink:title=" ">
<polygon fill="#999999" stroke="#666666" points="158,-243 0,-243 0,-224 158,-224 158,-243"/>
<text text-anchor="middle" x="79" y="-231" font-family="Helvetica,sans-Serif" font-size="10.00">NetworkManager::sendBoard</text>
</a>
</g>
</g>
<!-- Node2 -->
<g id="Node000002" class="node">
<title>Node2</title>
<g id="a_Node000002"><a xlink:href="../../d6/d6f/classNetworkManager.html#aeb0d7937d1d825d09dc8c7b13e35a962" target="_top" xlink:title=" ">
<polygon fill="white" stroke="#666666" points="419,-464 204,-464 204,-445 419,-445 419,-464"/>
<text text-anchor="middle" x="311.5" y="-452" font-family="Helvetica,sans-Serif" font-size="10.00">NetworkManager::broadcastGameFrame</text>
</a>
</g>
</g>
<!-- Node1&#45;&gt;Node2 -->
<g id="edge1_Node000001_Node000002" class="edge">
<title>Node1&#45;&gt;Node2</title>
<g id="a_edge1_Node000001_Node000002"><a xlink:title=" ">
<path fill="none" stroke="#63b8ff" d="M82.5,-243.29C91.39,-275.93 124.67,-381.83 194,-431.5 199.22,-435.24 204.9,-438.41 210.85,-441.1"/>
<polygon fill="#63b8ff" stroke="#63b8ff" points="209.8,-444.45 220.39,-444.93 212.41,-437.96 209.8,-444.45"/>
</a>
</g>
</g>
<!-- Node4 -->
<g id="Node000004" class="node">
<title>Node4</title>
<g id="a_Node000004"><a xlink:href="../../d6/d6f/classNetworkManager.html#a2312355e8a21dec223fcf13d383309ff" target="_top" xlink:title=" ">
<polygon fill="white" stroke="#666666" points="694,-395 465,-395 465,-376 694,-376 694,-395"/>
<text text-anchor="middle" x="579.5" y="-383" font-family="Helvetica,sans-Serif" font-size="10.00">NetworkManager::buildCommitBoardFrame</text>
</a>
</g>
</g>
<!-- Node1&#45;&gt;Node4 -->
<g id="edge3_Node000001_Node000004" class="edge">
<title>Node1&#45;&gt;Node4</title>
<g id="a_edge3_Node000001_Node000004"><a xlink:title=" ">
<path fill="none" stroke="#63b8ff" d="M106.84,-243.04C169.22,-265.03 329.01,-320.31 465,-358.5 484.42,-363.95 505.91,-369.25 524.92,-373.69"/>
<polygon fill="#63b8ff" stroke="#63b8ff" points="524.37,-377.15 534.9,-375.99 525.95,-370.33 524.37,-377.15"/>
</a>
</g>
</g>
<!-- Node7 -->
<g id="Node000007" class="node">
<title>Node7</title>
<g id="a_Node000007"><a xlink:href="../../d6/d6f/classNetworkManager.html#af430cbaa8d0b5ae2424c97cec93e6c06" target="_top" xlink:title=" ">
<polygon fill="white" stroke="#666666" points="429,-243 194,-243 194,-224 429,-224 429,-243"/>
<text text-anchor="middle" x="311.5" y="-231" font-family="Helvetica,sans-Serif" font-size="10.00">NetworkManager::buildSnapshotBoardFrame</text>
</a>
</g>
</g>
<!-- Node1&#45;&gt;Node7 -->
<g id="edge6_Node000001_Node000007" class="edge">
<title>Node1&#45;&gt;Node7</title>
<g id="a_edge6_Node000001_Node000007"><a xlink:title=" ">
<path fill="none" stroke="#63b8ff" d="M158.04,-233.5C166.3,-233.5 174.84,-233.5 183.48,-233.5"/>
<polygon fill="#63b8ff" stroke="#63b8ff" points="183.65,-237 193.65,-233.5 183.65,-230 183.65,-237"/>
</a>
</g>
</g>
<!-- Node13 -->
<g id="Node000013" class="node">
<title>Node13</title>
<g id="a_Node000013"><a xlink:href="../../d8/dec/classPathManager.html#ae75b72eb67617d77136a829eb73c7e8f" target="_top" xlink:title=" ">
<polygon fill="white" stroke="#666666" points="386,-206 237,-206 237,-187 386,-187 386,-206"/>
<text text-anchor="middle" x="311.5" y="-194" font-family="Helvetica,sans-Serif" font-size="10.00">PathManager::getMapsPath</text>
</a>
</g>
</g>
<!-- Node1&#45;&gt;Node13 -->
<g id="edge15_Node000001_Node000013" class="edge">
<title>Node1&#45;&gt;Node13</title>
<g id="a_edge15_Node000001_Node000013"><a xlink:title=" ">
<path fill="none" stroke="#63b8ff" d="M139.36,-223.97C170.29,-219.01 208.31,-212.9 240.66,-207.71"/>
<polygon fill="#63b8ff" stroke="#63b8ff" points="241.62,-211.1 250.94,-206.06 240.51,-204.19 241.62,-211.1"/>
</a>
</g>
</g>
<!-- Node15 -->
<g id="Node000015" class="node">
<title>Node15</title>
<g id="a_Node000015"><a xlink:href="../../db/d67/classLogger.html#aebb248e608f8e2724de20b482cb2a15f" target="_top" xlink:title=" ">
<polygon fill="white" stroke="#666666" points="628,-432 531,-432 531,-413 628,-413 628,-432"/>
<text text-anchor="middle" x="579.5" y="-420" font-family="Helvetica,sans-Serif" font-size="10.00">Logger::instance</text>
</a>
</g>
</g>
<!-- Node1&#45;&gt;Node15 -->
<g id="edge17_Node000001_Node000015" class="edge">
<title>Node1&#45;&gt;Node15</title>
<g id="a_edge17_Node000001_Node000015"><a xlink:title=" ">
<path fill="none" stroke="#63b8ff" d="M89.44,-243.22C107.87,-261.66 150.66,-301.91 194,-324.5 200.96,-328.13 457.34,-402.77 465,-404.5 482.98,-408.56 502.76,-412.04 520.71,-414.82"/>
<polygon fill="#63b8ff" stroke="#63b8ff" points="520.34,-418.3 530.75,-416.33 521.38,-411.38 520.34,-418.3"/>
</a>
</g>
</g>
<!-- Node16 -->
<g id="Node000016" class="node">
<title>Node16</title>
<g id="a_Node000016"><a xlink:href="../../d8/dec/classPathManager.html#a42a0582ddea79c07f859b346b57657de" target="_top" xlink:title=" ">
<polygon fill="white" stroke="#666666" points="392.5,-169 230.5,-169 230.5,-150 392.5,-150 392.5,-169"/>
<text text-anchor="middle" x="311.5" y="-157" font-family="Helvetica,sans-Serif" font-size="10.00">PathManager::isFilenameOnly</text>
</a>
</g>
</g>
<!-- Node1&#45;&gt;Node16 -->
<g id="edge18_Node000001_Node000016" class="edge">
<title>Node1&#45;&gt;Node16</title>
<g id="a_edge18_Node000001_Node000016"><a xlink:title=" ">
<path fill="none" stroke="#63b8ff" d="M96,-223.94C117.52,-211.52 157.33,-190.07 194,-178.5 203.07,-175.64 212.67,-173.19 222.32,-171.1"/>
<polygon fill="#63b8ff" stroke="#63b8ff" points="223.28,-174.48 232.38,-169.05 221.88,-167.62 223.28,-174.48"/>
</a>
</g>
</g>
<!-- Node17 -->
<g id="Node000017" class="node">
<title>Node17</title>
<g id="a_Node000017"><a xlink:href="../../d8/dec/classPathManager.html#a7bd7a212d4af1ec7b67dfc3519375077" target="_top" xlink:title=" ">
<polygon fill="white" stroke="#666666" points="647,-56 512,-56 512,-37 647,-37 647,-56"/>
<text text-anchor="middle" x="579.5" y="-44" font-family="Helvetica,sans-Serif" font-size="10.00">PathManager::isPathLike</text>
</a>
</g>
</g>
<!-- Node1&#45;&gt;Node17 -->
<g id="edge25_Node000001_Node000017" class="edge">
<title>Node1&#45;&gt;Node17</title>
<g id="a_edge25_Node000001_Node000017"><a xlink:title=" ">
<path fill="none" stroke="#63b8ff" d="M88.63,-223.78C106.29,-204.55 148.75,-161.8 194,-141.5 290.6,-98.16 335.18,-151.56 429,-102.5 449.33,-91.87 444.68,-76.15 465,-65.5 476.42,-59.52 489.3,-55.34 502.18,-52.45"/>
<polygon fill="#63b8ff" stroke="#63b8ff" points="502.88,-55.87 512,-50.47 501.5,-49.01 502.88,-55.87"/>
</a>
</g>
</g>
<!-- Node23 -->
<g id="Node000023" class="node">
<title>Node23</title>
<g id="a_Node000023"><a xlink:href="../../d6/d6f/classNetworkManager.html#ac4526c46708af567437809ee9b561aba" target="_top" xlink:title=" ">
<polygon fill="white" stroke="#666666" points="398,-93 225,-93 225,-74 398,-74 398,-93"/>
<text text-anchor="middle" x="311.5" y="-81" font-family="Helvetica,sans-Serif" font-size="10.00">NetworkManager::readFileBytes</text>
</a>
</g>
</g>
<!-- Node1&#45;&gt;Node23 -->
<g id="edge26_Node000001_Node000023" class="edge">
<title>Node1&#45;&gt;Node23</title>
<g id="a_edge26_Node000001_Node000023"><a xlink:title=" ">
<path fill="none" stroke="#63b8ff" d="M85.73,-223.71C100.38,-199.64 141.75,-137.36 194,-107.5 202.25,-102.78 211.3,-98.99 220.59,-95.93"/>
<polygon fill="#63b8ff" stroke="#63b8ff" points="221.77,-99.24 230.34,-93.01 219.76,-92.53 221.77,-99.24"/>
</a>
</g>
</g>
<!-- Node24 -->
<g id="Node000024" class="node">
<title>Node24</title>
<g id="a_Node000024"><a xlink:href="../../d6/d6f/classNetworkManager.html#ab54b0f1b56efebcaeaf9a34a0af6194c" target="_top" xlink:title=" ">
<polygon fill="white" stroke="#666666" points="410,-422 213,-422 213,-403 410,-403 410,-422"/>
<text text-anchor="middle" x="311.5" y="-410" font-family="Helvetica,sans-Serif" font-size="10.00">NetworkManager::sendImageChunks</text>
</a>
</g>
</g>
<!-- Node1&#45;&gt;Node24 -->
<g id="edge27_Node000001_Node000024" class="edge">
<title>Node1&#45;&gt;Node24</title>
<g id="a_edge27_Node000001_Node000024"><a xlink:title=" ">
<path fill="none" stroke="#63b8ff" d="M84.67,-243.04C97.93,-269.12 138.49,-342.18 194,-379.5 207.72,-388.73 224.02,-395.4 240,-400.22"/>
<polygon fill="#63b8ff" stroke="#63b8ff" points="239.31,-403.66 249.89,-402.98 241.2,-396.92 239.31,-403.66"/>
</a>
</g>
</g>
<!-- Node3 -->
<g id="Node000003" class="node">
<title>Node3</title>
<g id="a_Node000003"><a xlink:href="../../d6/d6f/classNetworkManager.html#a8f97d83ec35ea68c1e37d6837c1c8b4c" target="_top" xlink:title=" ">
<polygon fill="white" stroke="#666666" points="664.5,-469 494.5,-469 494.5,-450 664.5,-450 664.5,-469"/>
<text text-anchor="middle" x="579.5" y="-457" font-family="Helvetica,sans-Serif" font-size="10.00">NetworkManager::sendGameTo</text>
</a>
</g>
</g>
<!-- Node2&#45;&gt;Node3 -->
<g id="edge2_Node000002_Node000003" class="edge">
<title>Node2&#45;&gt;Node3</title>
<g id="a_edge2_Node000002_Node000003"><a xlink:title=" ">
<path fill="none" stroke="#63b8ff" d="M419.16,-456.5C440.65,-456.91 463.09,-457.33 484.13,-457.73"/>
<polygon fill="#63b8ff" stroke="#63b8ff" points="484.26,-461.23 494.33,-457.92 484.39,-454.23 484.26,-461.23"/>
</a>
</g>
</g>
<!-- Node5 -->
<g id="Node000005" class="node">
<title>Node5</title>
<g id="a_Node000005"><a xlink:href="../../db/d4b/classSerializer.html#a60889622ee4e36ea28a284e99bbdf4e5" target="_top" xlink:title=" ">
<polygon fill="white" stroke="#666666" points="881.5,-357 739.5,-357 739.5,-338 881.5,-338 881.5,-357"/>
<text text-anchor="middle" x="810.5" y="-345" font-family="Helvetica,sans-Serif" font-size="10.00">Serializer::serializeUInt64</text>
</a>
</g>
</g>
<!-- Node4&#45;&gt;Node5 -->
<g id="edge4_Node000004_Node000005" class="edge">
<title>Node4&#45;&gt;Node5</title>
<g id="a_edge4_Node000004_Node000005"><a xlink:title=" ">
<path fill="none" stroke="#63b8ff" d="M637.99,-375.96C669.57,-370.72 708.91,-364.19 741.95,-358.71"/>
<polygon fill="#63b8ff" stroke="#63b8ff" points="742.69,-362.13 751.99,-357.04 741.55,-355.23 742.69,-362.13"/>
</a>
</g>
</g>
<!-- Node6 -->
<g id="Node000006" class="node">
<title>Node6</title>
<g id="a_Node000006"><a xlink:href="../../db/d4b/classSerializer.html#a3c3d58eaacc5f3c6f19cfde75424e9cc" target="_top" xlink:title=" ">
<polygon fill="white" stroke="#666666" points="878.5,-319 742.5,-319 742.5,-300 878.5,-300 878.5,-319"/>
<text text-anchor="middle" x="810.5" y="-307" font-family="Helvetica,sans-Serif" font-size="10.00">Serializer::serializeUInt8</text>
</a>
</g>
</g>
<!-- Node4&#45;&gt;Node6 -->
<g id="edge5_Node000004_Node000006" class="edge">
<title>Node4&#45;&gt;Node6</title>
<g id="a_edge5_Node000004_Node000006"><a xlink:title=" ">
<path fill="none" stroke="#63b8ff" d="M603.53,-375.95C632.65,-364.1 684.49,-343.7 730,-329.5 739.08,-326.67 748.83,-323.95 758.28,-321.49"/>
<polygon fill="#63b8ff" stroke="#63b8ff" points="759.17,-324.87 767.99,-319.01 757.44,-318.09 759.17,-324.87"/>
</a>
</g>
</g>
<!-- Node7&#45;&gt;Node5 -->
<g id="edge11_Node000007_Node000005" class="edge">
<title>Node7&#45;&gt;Node5</title>
<g id="a_edge11_Node000007_Node000005"><a xlink:title=" ">
<path fill="none" stroke="#63b8ff" d="M335.01,-243.05C359.28,-253.84 398.52,-272.76 429,-294.5 446.92,-307.28 444.78,-319.81 465,-328.5 550.63,-365.31 659.43,-364.39 731.61,-358.01"/>
<polygon fill="#63b8ff" stroke="#63b8ff" points="732.36,-361.45 741.98,-357.03 731.7,-354.49 732.36,-361.45"/>
</a>
</g>
</g>
<!-- Node7&#45;&gt;Node6 -->
<g id="edge12_Node000007_Node000006" class="edge">
<title>Node7&#45;&gt;Node6</title>
<g id="a_edge12_Node000007_Node000006"><a xlink:title=" ">
<path fill="none" stroke="#63b8ff" d="M375.63,-243.02C451.3,-254.46 581.93,-274.25 694,-291.5 708.42,-293.72 723.86,-296.11 738.59,-298.41"/>
<polygon fill="#63b8ff" stroke="#63b8ff" points="738.25,-301.89 748.66,-299.98 739.32,-294.98 738.25,-301.89"/>
</a>
</g>
</g>
<!-- Node8 -->
<g id="Node000008" class="node">
<title>Node8</title>
<g id="a_Node000008"><a xlink:href="../../db/d4b/classSerializer.html#a2a407c3a379b680296ee190ed625f05f" target="_top" xlink:title=" ">
<polygon fill="white" stroke="#666666" points="645,-243 514,-243 514,-224 645,-224 645,-243"/>
<text text-anchor="middle" x="579.5" y="-231" font-family="Helvetica,sans-Serif" font-size="10.00">Serializer::serializeBool</text>
</a>
</g>
</g>
<!-- Node7&#45;&gt;Node8 -->
<g id="edge7_Node000007_Node000008" class="edge">
<title>Node7&#45;&gt;Node8</title>
<g id="a_edge7_Node000007_Node000008"><a xlink:title=" ">
<path fill="none" stroke="#63b8ff" d="M429.17,-233.5C454.46,-233.5 480.56,-233.5 503.71,-233.5"/>
<polygon fill="#63b8ff" stroke="#63b8ff" points="503.79,-237 513.79,-233.5 503.79,-230 503.79,-237"/>
</a>
</g>
</g>
<!-- Node9 -->
<g id="Node000009" class="node">
<title>Node9</title>
<g id="a_Node000009"><a xlink:href="../../db/d4b/classSerializer.html#a92ffe65857abd6eea6a393056a9bb533" target="_top" xlink:title=" ">
<polygon fill="white" stroke="#666666" points="877.5,-149 743.5,-149 743.5,-130 877.5,-130 877.5,-149"/>
<text text-anchor="middle" x="810.5" y="-137" font-family="Helvetica,sans-Serif" font-size="10.00">Serializer::serializeFloat</text>
</a>
</g>
</g>
<!-- Node7&#45;&gt;Node9 -->
<g id="edge8_Node000007_Node000009" class="edge">
<title>Node7&#45;&gt;Node9</title>
<g id="a_edge8_Node000007_Node000009"><a xlink:title=" ">
<path fill="none" stroke="#63b8ff" d="M408.23,-223.95C415.44,-221.66 422.45,-218.88 429,-215.5 449.39,-204.98 444.4,-188.6 465,-178.5 510.68,-156.1 646.26,-146.28 733.09,-142.19"/>
<polygon fill="#63b8ff" stroke="#63b8ff" points="733.33,-145.68 743.17,-141.73 733.02,-138.69 733.33,-145.68"/>
</a>
</g>
</g>
<!-- Node10 -->
<g id="Node000010" class="node">
<title>Node10</title>
<g id="a_Node000010"><a xlink:href="../../db/d4b/classSerializer.html#a8a72c08ebb91348dc2a7ef6557c44f6c" target="_top" xlink:title=" ">
<polygon fill="white" stroke="#666666" points="648.5,-206 510.5,-206 510.5,-187 648.5,-187 648.5,-206"/>
<text text-anchor="middle" x="579.5" y="-194" font-family="Helvetica,sans-Serif" font-size="10.00">Serializer::serializeString</text>
</a>
</g>
</g>
<!-- Node7&#45;&gt;Node10 -->
<g id="edge9_Node000007_Node000010" class="edge">
<title>Node7&#45;&gt;Node10</title>
<g id="a_edge9_Node000007_Node000010"><a xlink:title=" ">
<path fill="none" stroke="#63b8ff" d="M381,-223.97C417.46,-218.9 462.45,-212.64 500.27,-207.38"/>
<polygon fill="#63b8ff" stroke="#63b8ff" points="500.81,-210.84 510.23,-206 499.84,-203.91 500.81,-210.84"/>
</a>
</g>
</g>
<!-- Node12 -->
<g id="Node000012" class="node">
<title>Node12</title>
<g id="a_Node000012"><a xlink:href="../../db/d4b/classSerializer.html#a52943821c1686ae47c30586ec7f9bc7e" target="_top" xlink:title=" ">
<polygon fill="white" stroke="#666666" points="646,-130 513,-130 513,-111 646,-111 646,-130"/>
<text text-anchor="middle" x="579.5" y="-118" font-family="Helvetica,sans-Serif" font-size="10.00">Serializer::serializeVec2</text>
</a>
</g>
</g>
<!-- Node7&#45;&gt;Node12 -->
<g id="edge13_Node000007_Node000012" class="edge">
<title>Node7&#45;&gt;Node12</title>
<g id="a_edge13_Node000007_Node000012"><a xlink:title=" ">
<path fill="none" stroke="#63b8ff" d="M414.37,-223.98C419.52,-221.61 424.44,-218.8 429,-215.5 457.64,-194.73 436.94,-166.05 465,-144.5 476.05,-136.01 489.43,-130.36 503.05,-126.63"/>
<polygon fill="#63b8ff" stroke="#63b8ff" points="504.09,-129.98 512.99,-124.24 502.45,-123.17 504.09,-129.98"/>
</a>
</g>
</g>
<!-- Node11 -->
<g id="Node000011" class="node">
<title>Node11</title>
<g id="a_Node000011"><a xlink:href="../../db/d4b/classSerializer.html#ac812cf485e5804fd6f22d34ae076f79f" target="_top" xlink:title=" ">
<polygon fill="white" stroke="#666666" points="871.5,-244 749.5,-244 749.5,-225 871.5,-225 871.5,-244"/>
<text text-anchor="middle" x="810.5" y="-232" font-family="Helvetica,sans-Serif" font-size="10.00">Serializer::serializeInt</text>
</a>
</g>
</g>
<!-- Node10&#45;&gt;Node11 -->
<g id="edge10_Node000010_Node000011" class="edge">
<title>Node10&#45;&gt;Node11</title>
<g id="a_edge10_Node000010_Node000011"><a xlink:title=" ">
<path fill="none" stroke="#63b8ff" d="M637.99,-206.04C669.57,-211.28 708.91,-217.81 741.95,-223.29"/>
<polygon fill="#63b8ff" stroke="#63b8ff" points="741.55,-226.77 751.99,-224.96 742.69,-219.87 741.55,-226.77"/>
</a>
</g>
</g>
<!-- Node12&#45;&gt;Node9 -->
<g id="edge14_Node000012_Node000009" class="edge">
<title>Node12&#45;&gt;Node9</title>
<g id="a_edge14_Node000012_Node000009"><a xlink:title=" ">
<path fill="none" stroke="#63b8ff" d="M646.12,-125.94C673.31,-128.2 705.03,-130.83 733.25,-133.17"/>
<polygon fill="#63b8ff" stroke="#63b8ff" points="733.22,-136.68 743.47,-134.02 733.8,-129.71 733.22,-136.68"/>
</a>
</g>
</g>
<!-- Node14 -->
<g id="Node000014" class="node">
<title>Node14</title>
<g id="a_Node000014"><a xlink:href="../../d8/dec/classPathManager.html#a467b459b77c73cbc7544551b53911fcd" target="_top" xlink:title=" ">
<polygon fill="white" stroke="#666666" points="668.5,-93 490.5,-93 490.5,-74 668.5,-74 668.5,-93"/>
<text text-anchor="middle" x="579.5" y="-81" font-family="Helvetica,sans-Serif" font-size="10.00">PathManager::getExecutableRoot</text>
</a>
</g>
</g>
<!-- Node13&#45;&gt;Node14 -->
<g id="edge16_Node000013_Node000014" class="edge">
<title>Node13&#45;&gt;Node14</title>
<g id="a_edge16_Node000013_Node000014"><a xlink:title=" ">
<path fill="none" stroke="#63b8ff" d="M386.11,-196.05C401.4,-193.09 416.61,-187.74 429,-178.5 458.96,-156.15 435.18,-125.03 465,-102.5 469.85,-98.83 475.15,-95.77 480.73,-93.22"/>
<polygon fill="#63b8ff" stroke="#63b8ff" points="482.34,-96.34 490.34,-89.39 479.75,-89.84 482.34,-96.34"/>
</a>
</g>
</g>
<!-- Node16&#45;&gt;Node17 -->
<g id="edge19_Node000016_Node000017" class="edge">
<title>Node16&#45;&gt;Node17</title>
<g id="a_edge19_Node000016_Node000017"><a xlink:title=" ">
<path fill="none" stroke="#63b8ff" d="M392.73,-152.83C405.73,-149.07 418.39,-143.56 429,-135.5 456.86,-114.34 436.75,-86.13 465,-65.5 475.8,-57.61 488.71,-52.55 501.89,-49.38"/>
<polygon fill="#63b8ff" stroke="#63b8ff" points="502.9,-52.74 511.99,-47.3 501.49,-45.88 502.9,-52.74"/>
</a>
</g>
</g>
<!-- Node18 -->
<g id="Node000018" class="node">
<title>Node18</title>
<g id="a_Node000018"><a xlink:href="../../d8/dec/classPathManager.html#a8ef0fd5fd2b9999b0037c1db402d4c50" target="_top" xlink:title=" ">
<polygon fill="white" stroke="#666666" points="878.5,-93 742.5,-93 742.5,-74 878.5,-74 878.5,-93"/>
<text text-anchor="middle" x="810.5" y="-81" font-family="Helvetica,sans-Serif" font-size="10.00">PathManager::hasDirSep</text>
</a>
</g>
</g>
<!-- Node17&#45;&gt;Node18 -->
<g id="edge20_Node000017_Node000018" class="edge">
<title>Node17&#45;&gt;Node18</title>
<g id="a_edge20_Node000017_Node000018"><a xlink:title=" ">
<path fill="none" stroke="#63b8ff" d="M639.47,-56.03C670.21,-60.99 707.98,-67.1 740.11,-72.29"/>
<polygon fill="#63b8ff" stroke="#63b8ff" points="739.9,-75.8 750.33,-73.94 741.02,-68.89 739.9,-75.8"/>
</a>
</g>
</g>
<!-- Node19 -->
<g id="Node000019" class="node">
<title>Node19</title>
<g id="a_Node000019"><a xlink:href="../../d8/dec/classPathManager.html#abc27ded79e24f01da862f4e920ff57af" target="_top" xlink:title=" ">
<polygon fill="white" stroke="#666666" points="889.5,-56 731.5,-56 731.5,-37 889.5,-37 889.5,-56"/>
<text text-anchor="middle" x="810.5" y="-44" font-family="Helvetica,sans-Serif" font-size="10.00">PathManager::isAbsolutePath</text>
</a>
</g>
</g>
<!-- Node17&#45;&gt;Node19 -->
<g id="edge21_Node000017_Node000019" class="edge">
<title>Node17&#45;&gt;Node19</title>
<g id="a_edge21_Node000017_Node000019"><a xlink:title=" ">
<path fill="none" stroke="#63b8ff" d="M647.04,-46.5C670.26,-46.5 696.68,-46.5 721.37,-46.5"/>
<polygon fill="#63b8ff" stroke="#63b8ff" points="721.47,-50 731.47,-46.5 721.47,-43 721.47,-50"/>
</a>
</g>
</g>
<!-- Node22 -->
<g id="Node000022" class="node">
<title>Node22</title>
<g id="a_Node000022"><a xlink:href="../../d8/dec/classPathManager.html#ac7b463a435e68be97b75fbd0f1ee0c8f" target="_top" xlink:title=" ">
<polygon fill="white" stroke="#666666" points="891,-19 730,-19 730,0 891,0 891,-19"/>
<text text-anchor="middle" x="810.5" y="-7" font-family="Helvetica,sans-Serif" font-size="10.00">PathManager::isDriveRelative</text>
</a>
</g>
</g>
<!-- Node17&#45;&gt;Node22 -->
<g id="edge24_Node000017_Node000022" class="edge">
<title>Node17&#45;&gt;Node22</title>
<g id="a_edge24_Node000017_Node000022"><a xlink:title=" ">
<path fill="none" stroke="#63b8ff" d="M639.47,-36.97C670.21,-32.01 707.98,-25.9 740.11,-20.71"/>
<polygon fill="#63b8ff" stroke="#63b8ff" points="741.02,-24.11 750.33,-19.06 739.9,-17.2 741.02,-24.11"/>
</a>
</g>
</g>
<!-- Node20 -->
<g id="Node000020" class="node">
<title>Node20</title>
<g id="a_Node000020"><a xlink:href="../../d8/dec/classPathManager.html#acb7f23b0e5687c88e3e32146cfcf315d" target="_top" xlink:title=" ">
<polygon fill="white" stroke="#666666" points="1091,-74 927,-74 927,-55 1091,-55 1091,-74"/>
<text text-anchor="middle" x="1009" y="-62" font-family="Helvetica,sans-Serif" font-size="10.00">PathManager::isDriveAbsolute</text>
</a>
</g>
</g>
<!-- Node19&#45;&gt;Node20 -->
<g id="edge22_Node000019_Node000020" class="edge">
<title>Node19&#45;&gt;Node20</title>
<g id="a_edge22_Node000019_Node000020"><a xlink:title=" ">
<path fill="none" stroke="#63b8ff" d="M889.73,-53.67C898.59,-54.48 907.68,-55.31 916.7,-56.14"/>
<polygon fill="#63b8ff" stroke="#63b8ff" points="916.55,-59.64 926.82,-57.06 917.18,-52.67 916.55,-59.64"/>
</a>
</g>
</g>
<!-- Node21 -->
<g id="Node000021" class="node">
<title>Node21</title>
<g id="a_Node000021"><a xlink:href="../../d8/dec/classPathManager.html#ab4625f00b403df325617c2af592e186f" target="_top" xlink:title=" ">
<polygon fill="white" stroke="#666666" points="1067,-37 951,-37 951,-18 1067,-18 1067,-37"/>
<text text-anchor="middle" x="1009" y="-25" font-family="Helvetica,sans-Serif" font-size="10.00">PathManager::isUNC</text>
</a>
</g>
</g>
<!-- Node19&#45;&gt;Node21 -->
<g id="edge23_Node000019_Node000021" class="edge">
<title>Node19&#45;&gt;Node21</title>
<g id="a_edge23_Node000019_Node000021"><a xlink:title=" ">
<path fill="none" stroke="#63b8ff" d="M889.73,-38.94C906.66,-37.3 924.41,-35.58 940.87,-33.99"/>
<polygon fill="#63b8ff" stroke="#63b8ff" points="941.31,-37.46 950.93,-33.02 940.64,-30.5 941.31,-37.46"/>
</a>
</g>
</g>
<!-- Node24&#45;&gt;Node3 -->
<g id="edge33_Node000024_Node000003" class="edge">
<title>Node24&#45;&gt;Node3</title>
<g id="a_edge33_Node000024_Node000003"><a xlink:title=" ">
<path fill="none" stroke="#63b8ff" d="M360.51,-422.02C390.5,-427.87 429.95,-435.39 465,-441.5 478.36,-443.83 492.64,-446.19 506.39,-448.4"/>
<polygon fill="#63b8ff" stroke="#63b8ff" points="505.87,-451.87 516.3,-449.99 506.97,-444.95 505.87,-451.87"/>
</a>
</g>
</g>
<!-- Node24&#45;&gt;Node15 -->
<g id="edge32_Node000024_Node000015" class="edge">
<title>Node24&#45;&gt;Node15</title>
<g id="a_edge32_Node000024_Node000015"><a xlink:title=" ">
<path fill="none" stroke="#63b8ff" d="M410.04,-416.17C447.23,-417.57 488.42,-419.11 520.76,-420.33"/>
<polygon fill="#63b8ff" stroke="#63b8ff" points="520.81,-423.83 530.93,-420.71 521.07,-416.84 520.81,-423.83"/>
</a>
</g>
</g>
<!-- Node25 -->
<g id="Node000025" class="node">
<title>Node25</title>
<g id="a_Node000025"><a xlink:href="../../d6/d6f/classNetworkManager.html#ad6d9928959397e1cfa4f6c0f322a20fd" target="_top" xlink:title=" ">
<polygon fill="white" stroke="#666666" points="691,-319 468,-319 468,-300 691,-300 691,-319"/>
<text text-anchor="middle" x="579.5" y="-307" font-family="Helvetica,sans-Serif" font-size="10.00">NetworkManager::buildImageChunkFrame</text>
</a>
</g>
</g>
<!-- Node24&#45;&gt;Node25 -->
<g id="edge28_Node000024_Node000025" class="edge">
<title>Node24&#45;&gt;Node25</title>
<g id="a_edge28_Node000024_Node000025"><a xlink:title=" ">
<path fill="none" stroke="#63b8ff" d="M337.05,-402.99C384.63,-384.57 489.52,-343.95 544.05,-322.84"/>
<polygon fill="#63b8ff" stroke="#63b8ff" points="545.56,-326.01 553.62,-319.13 543.04,-319.48 545.56,-326.01"/>
</a>
</g>
</g>
<!-- Node25&#45;&gt;Node5 -->
<g id="edge30_Node000025_Node000005" class="edge">
<title>Node25&#45;&gt;Node5</title>
<g id="a_edge30_Node000025_Node000005"><a xlink:title=" ">
<path fill="none" stroke="#63b8ff" d="M637.99,-319.04C669.57,-324.28 708.91,-330.81 741.95,-336.29"/>
<polygon fill="#63b8ff" stroke="#63b8ff" points="741.55,-339.77 751.99,-337.96 742.69,-332.87 741.55,-339.77"/>
</a>
</g>
</g>
<!-- Node25&#45;&gt;Node6 -->
<g id="edge31_Node000025_Node000006" class="edge">
<title>Node25&#45;&gt;Node6</title>
<g id="a_edge31_Node000025_Node000006"><a xlink:title=" ">
<path fill="none" stroke="#63b8ff" d="M691.31,-309.5C705.09,-309.5 718.95,-309.5 732.07,-309.5"/>
<polygon fill="#63b8ff" stroke="#63b8ff" points="732.43,-313 742.43,-309.5 732.43,-306 732.43,-313"/>
</a>
</g>
</g>
<!-- Node25&#45;&gt;Node11 -->
<g id="edge29_Node000025_Node000011" class="edge">
<title>Node25&#45;&gt;Node11</title>
<g id="a_edge29_Node000025_Node000011"><a xlink:title=" ">
<path fill="none" stroke="#63b8ff" d="M609.97,-299.85C650.93,-286.43 725.17,-262.12 770.63,-247.23"/>
<polygon fill="#63b8ff" stroke="#63b8ff" points="771.73,-250.55 780.14,-244.11 769.55,-243.9 771.73,-250.55"/>
</a>
</g>
</g>
</g>
</svg>

<g id="navigator" transform="translate(0 0)" fill="#404254">
  <rect fill="#f2f5e9" fill-opacity="0.5" stroke="#606060" stroke-width=".5" x="0" y="0" width="60" height="60"/>
  <use id="zoomplus" xlink:href="#zoomPlus" x="17" y="9" onmousedown="handleZoom(evt,'in')"/>
  <use id="zoomminus" xlink:href="#zoomMin" x="42" y="9" onmousedown="handleZoom(evt,'out')"/>
  <use id="reset" xlink:href="#resetDef" x="30" y="36" onmousedown="handleReset()"/>
   <use id="arrowup" xlink:href="#arrowUp" x="0" y="0" onmousedown="handlePan(0,-1)"/>
  <use id="arrowright" xlink:href="#arrowRight" x="0" y="0" onmousedown="handlePan(1,0)"/>
  <use id="arrowdown" xlink:href="#arrowDown" x="0" y="0" onmousedown="handlePan(0,1)"/>
  <use id="arrowleft" xlink:href="#arrowLeft" x="0" y="0" onmousedown="handlePan(-1,0)"/>
</g>
<svg viewBox="0 0 15 15" width="100%" height="30px" preserveAspectRatio="xMaxYMin meet">
 <g id="arrow_out" transform="scale(0.3 0.3)">
  <a xlink:href="classNetworkManager_a9faf2055aa0370adbffaa46b7f7181c1_cgraph_org.svg" target="_base">
   <rect id="button" ry="5" rx="5" y="6" x="6" height="38" width="38"
        fill="#f2f5e9" fill-opacity="0.5" stroke="#606060" stroke-width="1.0"/>
   <path id="arrow"
     d="M 11.500037,31.436501 C 11.940474,20.09759 22.043105,11.32322 32.158766,21.979434 L 37.068811,17.246167 C 37.068811,17.246167 37.088388,32 37.088388,32 L 22.160133,31.978069 C 22.160133,31.978069 26.997745,27.140456 26.997745,27.140456 C 18.528582,18.264221 13.291696,25.230495 11.500037,31.436501 z"
     style="fill:#404040;"/>
  </a>
 </g>
</svg>

<style type='text/css'>
<![CDATA[
[data-mouse-over-selected='false'] { opacity: 0.7; }
[data-mouse-over-selected='true']  { opacity: 1.0; }
]]>
</style>
<script type="application/ecmascript"><![CDATA[
document.addEventListener('DOMContentLoaded', (event) => {
  highlightEdges();
  highlightAdjacentNodes();
});
]]></script>
</svg>
