<?xml version="1.0" encoding="UTF-8" standalone="no"?>
<!DOCTYPE svg PUBLIC "-//W3C//DTD SVG 1.1//EN"
 "http://www.w3.org/Graphics/SVG/1.1/DTD/svg11.dtd">
<!-- Generated by graphviz version 2.43.0 (0)
 -->
<!-- Title: NetworkManager::broadcastMarkerUpdate Pages: 1 -->
<svg width="1312pt" height="212pt"
 viewBox="0.00 0.00 1312.00 212.00" xmlns="http://www.w3.org/2000/svg" xmlns:xlink="http://www.w3.org/1999/xlink">
<g id="graph0" class="graph" transform="scale(1 1) rotate(0) translate(4 208)">
<title>NetworkManager::broadcastMarkerUpdate</title>
<!-- Node1 -->
<g id="Node000001" class="node">
<title>Node1</title>
<g id="a_Node000001"><a xlink:title=" ">
<polygon fill="#999999" stroke="#666666" points="224,-147 0,-147 0,-128 224,-128 224,-147"/>
<text text-anchor="middle" x="112" y="-135" font-family="Helvetica,sans-Serif" font-size="10.00">NetworkManager::broadcastMarkerUpdate</text>
</a>
</g>
</g>
<!-- Node2 -->
<g id="Node000002" class="node">
<title>Node2</title>
<g id="a_Node000002"><a xlink:href="../../d6/d6f/classNetworkManager.html#a2127afec206b45126dff36ca21ffde3d" target="_top" xlink:title=" ">
<polygon fill="white" stroke="#666666" points="470,-166 260,-166 260,-147 470,-147 470,-166"/>
<text text-anchor="middle" x="365" y="-154" font-family="Helvetica,sans-Serif" font-size="10.00">NetworkManager::getConnectedPeerIds</text>
</a>
</g>
</g>
<!-- Node1&#45;&gt;Node2 -->
<g id="edge1_Node000001_Node000002" class="edge">
<title>Node1&#45;&gt;Node2</title>
<g id="a_edge1_Node000001_Node000002"><a xlink:title=" ">
<path fill="none" stroke="#63b8ff" d="M224.19,-145.92C232.58,-146.55 241.06,-147.19 249.47,-147.83"/>
<polygon fill="#63b8ff" stroke="#63b8ff" points="249.45,-151.34 259.68,-148.6 249.97,-144.36 249.45,-151.34"/>
</a>
</g>
</g>
<!-- Node3 -->
<g id="Node000003" class="node">
<title>Node3</title>
<g id="a_Node000003"><a xlink:href="../../d6/d6f/classNetworkManager.html#a3cd0860da30289b21f2f4bd467d279d3" target="_top" xlink:title=" ">
<polygon fill="white" stroke="#666666" points="464.5,-129 265.5,-129 265.5,-110 464.5,-110 464.5,-129"/>
<text text-anchor="middle" x="365" y="-117" font-family="Helvetica,sans-Serif" font-size="10.00">NetworkManager::sendMarkerUpdate</text>
</a>
</g>
</g>
<!-- Node1&#45;&gt;Node3 -->
<g id="edge2_Node000001_Node000003" class="edge">
<title>Node1&#45;&gt;Node3</title>
<g id="a_edge2_Node000001_Node000003"><a xlink:title=" ">
<path fill="none" stroke="#63b8ff" d="M224.19,-129.53C234.42,-128.79 244.77,-128.05 254.98,-127.32"/>
<polygon fill="#63b8ff" stroke="#63b8ff" points="255.41,-130.8 265.13,-126.59 254.91,-123.81 255.41,-130.8"/>
</a>
</g>
</g>
<!-- Node4 -->
<g id="Node000004" class="node">
<title>Node4</title>
<g id="a_Node000004"><a xlink:href="../../d6/d6f/classNetworkManager.html#aeb0d7937d1d825d09dc8c7b13e35a962" target="_top" xlink:title=" ">
<polygon fill="white" stroke="#666666" points="728.5,-176 513.5,-176 513.5,-157 728.5,-157 728.5,-176"/>
<text text-anchor="middle" x="621" y="-164" font-family="Helvetica,sans-Serif" font-size="10.00">NetworkManager::broadcastGameFrame</text>
</a>
</g>
</g>
<!-- Node3&#45;&gt;Node4 -->
<g id="edge3_Node000003_Node000004" class="edge">
<title>Node3&#45;&gt;Node4</title>
<g id="a_edge3_Node000003_Node000004"><a xlink:title=" ">
<path fill="none" stroke="#63b8ff" d="M418.38,-129.03C434.9,-132.04 453.21,-135.4 470,-138.5 499.34,-143.92 531.89,-149.99 559.15,-155.09"/>
<polygon fill="#63b8ff" stroke="#63b8ff" points="558.85,-158.59 569.32,-156.99 560.14,-151.71 558.85,-158.59"/>
</a>
</g>
</g>
<!-- Node6 -->
<g id="Node000006" class="node">
<title>Node6</title>
<g id="a_Node000006"><a xlink:href="../../d6/d6f/classNetworkManager.html#acf942084ff349010655c47a232659527" target="_top" xlink:title=" ">
<polygon fill="white" stroke="#666666" points="736,-111 506,-111 506,-92 736,-92 736,-111"/>
<text text-anchor="middle" x="621" y="-99" font-family="Helvetica,sans-Serif" font-size="10.00">NetworkManager::buildMarkerUpdateFrame</text>
</a>
</g>
</g>
<!-- Node3&#45;&gt;Node6 -->
<g id="edge5_Node000003_Node000006" class="edge">
<title>Node3&#45;&gt;Node6</title>
<g id="a_edge5_Node000003_Node000006"><a xlink:title=" ">
<path fill="none" stroke="#63b8ff" d="M464.57,-112.51C474.82,-111.79 485.33,-111.04 495.81,-110.3"/>
<polygon fill="#63b8ff" stroke="#63b8ff" points="496.12,-113.79 505.85,-109.59 495.63,-106.81 496.12,-113.79"/>
</a>
</g>
</g>
<!-- Node5 -->
<g id="Node000005" class="node">
<title>Node5</title>
<g id="a_Node000005"><a xlink:href="../../d6/d6f/classNetworkManager.html#a8f97d83ec35ea68c1e37d6837c1c8b4c" target="_top" xlink:title=" ">
<polygon fill="white" stroke="#666666" points="957,-204 787,-204 787,-185 957,-185 957,-204"/>
<text text-anchor="middle" x="872" y="-192" font-family="Helvetica,sans-Serif" font-size="10.00">NetworkManager::sendGameTo</text>
</a>
</g>
</g>
<!-- Node4&#45;&gt;Node5 -->
<g id="edge4_Node000004_Node000005" class="edge">
<title>Node4&#45;&gt;Node5</title>
<g id="a_edge4_Node000004_Node000005"><a xlink:title=" ">
<path fill="none" stroke="#63b8ff" d="M706.65,-176.02C729.12,-178.55 753.53,-181.29 776.5,-183.87"/>
<polygon fill="#63b8ff" stroke="#63b8ff" points="776.26,-187.37 786.59,-185.01 777.04,-180.41 776.26,-187.37"/>
</a>
</g>
</g>
<!-- Node7 -->
<g id="Node000007" class="node">
<title>Node7</title>
<g id="a_Node000007"><a xlink:href="../../db/d4b/classSerializer.html#ab8e8e2bd7ed71e39b528e1bcdf528e0b" target="_top" xlink:title=" ">
<polygon fill="white" stroke="#666666" points="972,-130 772,-130 772,-111 972,-111 972,-130"/>
<text text-anchor="middle" x="872" y="-118" font-family="Helvetica,sans-Serif" font-size="10.00">Serializer::serializeMarkerComponent</text>
</a>
</g>
</g>
<!-- Node6&#45;&gt;Node7 -->
<g id="edge6_Node000006_Node000007" class="edge">
<title>Node6&#45;&gt;Node7</title>
<g id="a_edge6_Node000006_Node000007"><a xlink:title=" ">
<path fill="none" stroke="#63b8ff" d="M736.3,-110.22C744.75,-110.87 753.27,-111.52 761.69,-112.16"/>
<polygon fill="#63b8ff" stroke="#63b8ff" points="761.67,-115.67 771.9,-112.94 762.2,-108.69 761.67,-115.67"/>
</a>
</g>
</g>
<!-- Node11 -->
<g id="Node000011" class="node">
<title>Node11</title>
<g id="a_Node000011"><a xlink:href="../../db/d4b/classSerializer.html#a6be006b0cf99a37c2146723395013b76" target="_top" xlink:title=" ">
<polygon fill="white" stroke="#666666" points="937,-93 807,-93 807,-74 937,-74 937,-93"/>
<text text-anchor="middle" x="872" y="-81" font-family="Helvetica,sans-Serif" font-size="10.00">Serializer::serializeSize</text>
</a>
</g>
</g>
<!-- Node6&#45;&gt;Node11 -->
<g id="edge10_Node000006_Node000011" class="edge">
<title>Node6&#45;&gt;Node11</title>
<g id="a_edge10_Node000006_Node000011"><a xlink:title=" ">
<path fill="none" stroke="#63b8ff" d="M736.3,-93.24C756.78,-91.76 777.63,-90.25 796.62,-88.88"/>
<polygon fill="#63b8ff" stroke="#63b8ff" points="796.94,-92.36 806.66,-88.15 796.43,-85.38 796.94,-92.36"/>
</a>
</g>
</g>
<!-- Node13 -->
<g id="Node000013" class="node">
<title>Node13</title>
<g id="a_Node000013"><a xlink:href="../../db/d4b/classSerializer.html#a60889622ee4e36ea28a284e99bbdf4e5" target="_top" xlink:title=" ">
<polygon fill="white" stroke="#666666" points="943,-56 801,-56 801,-37 943,-37 943,-56"/>
<text text-anchor="middle" x="872" y="-44" font-family="Helvetica,sans-Serif" font-size="10.00">Serializer::serializeUInt64</text>
</a>
</g>
</g>
<!-- Node6&#45;&gt;Node13 -->
<g id="edge12_Node000006_Node000013" class="edge">
<title>Node6&#45;&gt;Node13</title>
<g id="a_edge12_Node000006_Node000013"><a xlink:title=" ">
<path fill="none" stroke="#63b8ff" d="M657.92,-91.97C688.22,-84.1 732.79,-72.89 772,-64.5 782.66,-62.22 794,-59.98 805.07,-57.9"/>
<polygon fill="#63b8ff" stroke="#63b8ff" points="805.92,-61.3 815.12,-56.04 804.65,-54.42 805.92,-61.3"/>
</a>
</g>
</g>
<!-- Node14 -->
<g id="Node000014" class="node">
<title>Node14</title>
<g id="a_Node000014"><a xlink:href="../../db/d4b/classSerializer.html#a3c3d58eaacc5f3c6f19cfde75424e9cc" target="_top" xlink:title=" ">
<polygon fill="white" stroke="#666666" points="940,-19 804,-19 804,0 940,0 940,-19"/>
<text text-anchor="middle" x="872" y="-7" font-family="Helvetica,sans-Serif" font-size="10.00">Serializer::serializeUInt8</text>
</a>
</g>
</g>
<!-- Node6&#45;&gt;Node14 -->
<g id="edge13_Node000006_Node000014" class="edge">
<title>Node6&#45;&gt;Node14</title>
<g id="a_edge13_Node000006_Node000014"><a xlink:title=" ">
<path fill="none" stroke="#63b8ff" d="M637.58,-91.98C664.17,-76.17 720.44,-44.53 772,-27.5 779.09,-25.16 786.58,-23.09 794.13,-21.28"/>
<polygon fill="#63b8ff" stroke="#63b8ff" points="795.07,-24.66 804.06,-19.05 793.54,-17.83 795.07,-24.66"/>
</a>
</g>
</g>
<!-- Node15 -->
<g id="Node000015" class="node">
<title>Node15</title>
<g id="a_Node000015"><a xlink:href="../../db/d4b/classSerializer.html#adf940baab7d143611e19fb957725a80a" target="_top" xlink:title=" ">
<polygon fill="white" stroke="#666666" points="948,-167 796,-167 796,-148 948,-148 948,-167"/>
<text text-anchor="middle" x="872" y="-155" font-family="Helvetica,sans-Serif" font-size="10.00">Serializer::serializeVisibility</text>
</a>
</g>
</g>
<!-- Node6&#45;&gt;Node15 -->
<g id="edge14_Node000006_Node000015" class="edge">
<title>Node6&#45;&gt;Node15</title>
<g id="a_edge14_Node000006_Node000015"><a xlink:title=" ">
<path fill="none" stroke="#63b8ff" d="M656.7,-111.01C687,-119.14 732.23,-130.86 772,-139.5 782.59,-141.8 793.85,-144.04 804.85,-146.12"/>
<polygon fill="#63b8ff" stroke="#63b8ff" points="804.37,-149.59 814.85,-147.98 805.65,-142.71 804.37,-149.59"/>
</a>
</g>
</g>
<!-- Node8 -->
<g id="Node000008" class="node">
<title>Node8</title>
<g id="a_Node000008"><a xlink:href="../../db/d4b/classSerializer.html#a2a407c3a379b680296ee190ed625f05f" target="_top" xlink:title=" ">
<polygon fill="white" stroke="#666666" points="1142.5,-167 1011.5,-167 1011.5,-148 1142.5,-148 1142.5,-167"/>
<text text-anchor="middle" x="1077" y="-155" font-family="Helvetica,sans-Serif" font-size="10.00">Serializer::serializeBool</text>
</a>
</g>
</g>
<!-- Node7&#45;&gt;Node8 -->
<g id="edge7_Node000007_Node000008" class="edge">
<title>Node7&#45;&gt;Node8</title>
<g id="a_edge7_Node000007_Node000008"><a xlink:title=" ">
<path fill="none" stroke="#63b8ff" d="M925.28,-130.03C952.17,-134.93 985.14,-140.94 1013.38,-146.09"/>
<polygon fill="#63b8ff" stroke="#63b8ff" points="1013.08,-149.59 1023.55,-147.94 1014.34,-142.7 1013.08,-149.59"/>
</a>
</g>
</g>
<!-- Node9 -->
<g id="Node000009" class="node">
<title>Node9</title>
<g id="a_Node000009"><a xlink:href="../../db/d4b/classSerializer.html#a8a72c08ebb91348dc2a7ef6557c44f6c" target="_top" xlink:title=" ">
<polygon fill="white" stroke="#666666" points="1146,-130 1008,-130 1008,-111 1146,-111 1146,-130"/>
<text text-anchor="middle" x="1077" y="-118" font-family="Helvetica,sans-Serif" font-size="10.00">Serializer::serializeString</text>
</a>
</g>
</g>
<!-- Node7&#45;&gt;Node9 -->
<g id="edge8_Node000007_Node000009" class="edge">
<title>Node7&#45;&gt;Node9</title>
<g id="a_edge8_Node000007_Node000009"><a xlink:title=" ">
<path fill="none" stroke="#63b8ff" d="M972.12,-120.5C980.71,-120.5 989.32,-120.5 997.7,-120.5"/>
<polygon fill="#63b8ff" stroke="#63b8ff" points="997.8,-124 1007.8,-120.5 997.8,-117 997.8,-124"/>
</a>
</g>
</g>
<!-- Node10 -->
<g id="Node000010" class="node">
<title>Node10</title>
<g id="a_Node000010"><a xlink:href="../../db/d4b/classSerializer.html#ac812cf485e5804fd6f22d34ae076f79f" target="_top" xlink:title=" ">
<polygon fill="white" stroke="#666666" points="1304,-130 1182,-130 1182,-111 1304,-111 1304,-130"/>
<text text-anchor="middle" x="1243" y="-118" font-family="Helvetica,sans-Serif" font-size="10.00">Serializer::serializeInt</text>
</a>
</g>
</g>
<!-- Node9&#45;&gt;Node10 -->
<g id="edge9_Node000009_Node000010" class="edge">
<title>Node9&#45;&gt;Node10</title>
<g id="a_edge9_Node000009_Node000010"><a xlink:title=" ">
<path fill="none" stroke="#63b8ff" d="M1146.13,-120.5C1154.57,-120.5 1163.22,-120.5 1171.7,-120.5"/>
<polygon fill="#63b8ff" stroke="#63b8ff" points="1171.93,-124 1181.93,-120.5 1171.93,-117 1171.93,-124"/>
</a>
</g>
</g>
<!-- Node12 -->
<g id="Node000012" class="node">
<title>Node12</title>
<g id="a_Node000012"><a xlink:href="../../db/d4b/classSerializer.html#a92ffe65857abd6eea6a393056a9bb533" target="_top" xlink:title=" ">
<polygon fill="white" stroke="#666666" points="1144,-93 1010,-93 1010,-74 1144,-74 1144,-93"/>
<text text-anchor="middle" x="1077" y="-81" font-family="Helvetica,sans-Serif" font-size="10.00">Serializer::serializeFloat</text>
</a>
</g>
</g>
<!-- Node11&#45;&gt;Node12 -->
<g id="edge11_Node000011_Node000012" class="edge">
<title>Node11&#45;&gt;Node12</title>
<g id="a_edge11_Node000011_Node000012"><a xlink:title=" ">
<path fill="none" stroke="#63b8ff" d="M937.23,-83.5C957,-83.5 978.97,-83.5 999.49,-83.5"/>
<polygon fill="#63b8ff" stroke="#63b8ff" points="999.74,-87 1009.74,-83.5 999.74,-80 999.74,-87"/>
</a>
</g>
</g>
<!-- Node15&#45;&gt;Node8 -->
<g id="edge15_Node000015_Node000008" class="edge">
<title>Node15&#45;&gt;Node8</title>
<g id="a_edge15_Node000015_Node000008"><a xlink:title=" ">
<path fill="none" stroke="#63b8ff" d="M948.01,-157.5C965.39,-157.5 983.87,-157.5 1001.23,-157.5"/>
<polygon fill="#63b8ff" stroke="#63b8ff" points="1001.31,-161 1011.31,-157.5 1001.31,-154 1001.31,-161"/>
</a>
</g>
</g>
</g>
</svg>
