<?xml version="1.0" encoding="UTF-8" standalone="no"?>
<!DOCTYPE svg PUBLIC "-//W3C//DTD SVG 1.1//EN"
 "http://www.w3.org/Graphics/SVG/1.1/DTD/svg11.dtd">
<!-- Generated by graphviz version 2.43.0 (0)
 -->
<!-- Title: NetworkManager::buildGridUpdateFrame Pages: 1 -->
<svg width="742pt" height="139pt"
 viewBox="0.00 0.00 742.00 139.00" xmlns="http://www.w3.org/2000/svg" xmlns:xlink="http://www.w3.org/1999/xlink">
<g id="graph0" class="graph" transform="scale(1 1) rotate(0) translate(4 135)">
<title>NetworkManager::buildGridUpdateFrame</title>
<!-- Node1 -->
<g id="Node000001" class="node">
<title>Node1</title>
<g id="a_Node000001"><a xlink:title=" ">
<polygon fill="#999999" stroke="#666666" points="217,-56 0,-56 0,-37 217,-37 217,-56"/>
<text text-anchor="middle" x="108.5" y="-44" font-family="Helvetica,sans-Serif" font-size="10.00">NetworkManager::buildGridUpdateFrame</text>
</a>
</g>
</g>
<!-- Node2 -->
<g id="Node000002" class="node">
<title>Node2</title>
<g id="a_Node000002"><a xlink:href="../../db/d4b/classSerializer.html#ad0d31f7afee6b62ebc3c4f05bfef6bf2" target="_top" xlink:title=" ">
<polygon fill="white" stroke="#666666" points="389,-93 259,-93 259,-74 389,-74 389,-93"/>
<text text-anchor="middle" x="324" y="-81" font-family="Helvetica,sans-Serif" font-size="10.00">Serializer::serializeGrid</text>
</a>
</g>
</g>
<!-- Node1&#45;&gt;Node2 -->
<g id="edge1_Node000001_Node000002" class="edge">
<title>Node1&#45;&gt;Node2</title>
<g id="a_edge1_Node000001_Node000002"><a xlink:title=" ">
<path fill="none" stroke="#63b8ff" d="M164.48,-56.03C193.01,-60.97 228.05,-67.04 257.92,-72.22"/>
<polygon fill="#63b8ff" stroke="#63b8ff" points="257.38,-75.68 267.83,-73.94 258.58,-68.78 257.38,-75.68"/>
</a>
</g>
</g>
<!-- Node6 -->
<g id="Node000006" class="node">
<title>Node6</title>
<g id="a_Node000006"><a xlink:href="../../db/d4b/classSerializer.html#a60889622ee4e36ea28a284e99bbdf4e5" target="_top" xlink:title=" ">
<polygon fill="white" stroke="#666666" points="395,-56 253,-56 253,-37 395,-37 395,-56"/>
<text text-anchor="middle" x="324" y="-44" font-family="Helvetica,sans-Serif" font-size="10.00">Serializer::serializeUInt64</text>
</a>
</g>
</g>
<!-- Node1&#45;&gt;Node6 -->
<g id="edge6_Node000001_Node000006" class="edge">
<title>Node1&#45;&gt;Node6</title>
<g id="a_edge6_Node000001_Node000006"><a xlink:title=" ">
<path fill="none" stroke="#63b8ff" d="M217.19,-46.5C225.81,-46.5 234.42,-46.5 242.8,-46.5"/>
<polygon fill="#63b8ff" stroke="#63b8ff" points="242.89,-50 252.89,-46.5 242.89,-43 242.89,-50"/>
</a>
</g>
</g>
<!-- Node7 -->
<g id="Node000007" class="node">
<title>Node7</title>
<g id="a_Node000007"><a xlink:href="../../db/d4b/classSerializer.html#a3c3d58eaacc5f3c6f19cfde75424e9cc" target="_top" xlink:title=" ">
<polygon fill="white" stroke="#666666" points="392,-19 256,-19 256,0 392,0 392,-19"/>
<text text-anchor="middle" x="324" y="-7" font-family="Helvetica,sans-Serif" font-size="10.00">Serializer::serializeUInt8</text>
</a>
</g>
</g>
<!-- Node1&#45;&gt;Node7 -->
<g id="edge7_Node000001_Node000007" class="edge">
<title>Node1&#45;&gt;Node7</title>
<g id="a_edge7_Node000001_Node000007"><a xlink:title=" ">
<path fill="none" stroke="#63b8ff" d="M164.48,-36.97C193.01,-32.03 228.05,-25.96 257.92,-20.78"/>
<polygon fill="#63b8ff" stroke="#63b8ff" points="258.58,-24.22 267.83,-19.06 257.38,-17.32 258.58,-24.22"/>
</a>
</g>
</g>
<!-- Node3 -->
<g id="Node000003" class="node">
<title>Node3</title>
<g id="a_Node000003"><a xlink:href="../../db/d4b/classSerializer.html#a2a407c3a379b680296ee190ed625f05f" target="_top" xlink:title=" ">
<polygon fill="white" stroke="#666666" points="563,-131 432,-131 432,-112 563,-112 563,-131"/>
<text text-anchor="middle" x="497.5" y="-119" font-family="Helvetica,sans-Serif" font-size="10.00">Serializer::serializeBool</text>
</a>
</g>
</g>
<!-- Node2&#45;&gt;Node3 -->
<g id="edge2_Node000002_Node000003" class="edge">
<title>Node2&#45;&gt;Node3</title>
<g id="a_edge2_Node000002_Node000003"><a xlink:title=" ">
<path fill="none" stroke="#63b8ff" d="M368.28,-93.09C391.11,-98.15 419.32,-104.4 443.46,-109.75"/>
<polygon fill="#63b8ff" stroke="#63b8ff" points="443.01,-113.23 453.53,-111.98 444.53,-106.4 443.01,-113.23"/>
</a>
</g>
</g>
<!-- Node4 -->
<g id="Node000004" class="node">
<title>Node4</title>
<g id="a_Node000004"><a xlink:href="../../db/d4b/classSerializer.html#a92ffe65857abd6eea6a393056a9bb533" target="_top" xlink:title=" ">
<polygon fill="white" stroke="#666666" points="734,-74 600,-74 600,-55 734,-55 734,-74"/>
<text text-anchor="middle" x="667" y="-62" font-family="Helvetica,sans-Serif" font-size="10.00">Serializer::serializeFloat</text>
</a>
</g>
</g>
<!-- Node2&#45;&gt;Node4 -->
<g id="edge3_Node000002_Node000004" class="edge">
<title>Node2&#45;&gt;Node4</title>
<g id="a_edge3_Node000002_Node000004"><a xlink:title=" ">
<path fill="none" stroke="#63b8ff" d="M389.14,-79.93C446.04,-76.76 529.26,-72.12 589.59,-68.76"/>
<polygon fill="#63b8ff" stroke="#63b8ff" points="590.03,-72.24 599.82,-68.19 589.64,-65.25 590.03,-72.24"/>
</a>
</g>
</g>
<!-- Node5 -->
<g id="Node000005" class="node">
<title>Node5</title>
<g id="a_Node000005"><a xlink:href="../../db/d4b/classSerializer.html#a52943821c1686ae47c30586ec7f9bc7e" target="_top" xlink:title=" ">
<polygon fill="white" stroke="#666666" points="564,-55 431,-55 431,-36 564,-36 564,-55"/>
<text text-anchor="middle" x="497.5" y="-43" font-family="Helvetica,sans-Serif" font-size="10.00">Serializer::serializeVec2</text>
</a>
</g>
</g>
<!-- Node2&#45;&gt;Node5 -->
<g id="edge4_Node000002_Node000005" class="edge">
<title>Node2&#45;&gt;Node5</title>
<g id="a_edge4_Node000002_Node000005"><a xlink:title=" ">
<path fill="none" stroke="#63b8ff" d="M368.28,-73.91C391.11,-68.85 419.32,-62.6 443.46,-57.25"/>
<polygon fill="#63b8ff" stroke="#63b8ff" points="444.53,-60.6 453.53,-55.02 443.01,-53.77 444.53,-60.6"/>
</a>
</g>
</g>
<!-- Node5&#45;&gt;Node4 -->
<g id="edge5_Node000005_Node000004" class="edge">
<title>Node5&#45;&gt;Node4</title>
<g id="a_edge5_Node000005_Node000004"><a xlink:title=" ">
<path fill="none" stroke="#63b8ff" d="M564.22,-52.95C572.65,-53.91 581.34,-54.9 589.92,-55.87"/>
<polygon fill="#63b8ff" stroke="#63b8ff" points="589.59,-59.35 599.92,-57 590.38,-52.4 589.59,-59.35"/>
</a>
</g>
</g>
</g>
</svg>
