<?xml version="1.0" encoding="UTF-8" standalone="no"?>
<!DOCTYPE svg PUBLIC "-//W3C//DTD SVG 1.1//EN"
 "http://www.w3.org/Graphics/SVG/1.1/DTD/svg11.dtd">
<!-- Generated by graphviz version 2.43.0 (0)
 -->
<!-- Title: NetworkManager::broadcastBoard Pages: 1 -->
<svg width="1370pt" height="477pt"
 viewBox="0.00 0.00 1370.00 477.00" xmlns="http://www.w3.org/2000/svg" xmlns:xlink="http://www.w3.org/1999/xlink">
<g id="graph0" class="graph" transform="scale(1 1) rotate(0) translate(4 473)">
<title>NetworkManager::broadcastBoard</title>
<!-- Node1 -->
<g id="Node000001" class="node">
<title>Node1</title>
<g id="a_Node000001"><a xlink:title=" ">
<polygon fill="#999999" stroke="#666666" points="183,-261 0,-261 0,-242 183,-242 183,-261"/>
<text text-anchor="middle" x="91.5" y="-249" font-family="Helvetica,sans-Serif" font-size="10.00">NetworkManager::broadcastBoard</text>
</a>
</g>
</g>
<!-- Node2 -->
<g id="Node000002" class="node">
<title>Node2</title>
<g id="a_Node000002"><a xlink:href="../../d6/d6f/classNetworkManager.html#a2127afec206b45126dff36ca21ffde3d" target="_top" xlink:title=" ">
<polygon fill="white" stroke="#666666" points="429,-280 219,-280 219,-261 429,-261 429,-280"/>
<text text-anchor="middle" x="324" y="-268" font-family="Helvetica,sans-Serif" font-size="10.00">NetworkManager::getConnectedPeerIds</text>
</a>
</g>
</g>
<!-- Node1&#45;&gt;Node2 -->
<g id="edge1_Node000001_Node000002" class="edge">
<title>Node1&#45;&gt;Node2</title>
<g id="a_edge1_Node000001_Node000002"><a xlink:title=" ">
<path fill="none" stroke="#63b8ff" d="M183.27,-258.98C191.69,-259.68 200.29,-260.39 208.89,-261.09"/>
<polygon fill="#63b8ff" stroke="#63b8ff" points="208.71,-264.59 218.96,-261.92 209.29,-257.61 208.71,-264.59"/>
</a>
</g>
</g>
<!-- Node3 -->
<g id="Node000003" class="node">
<title>Node3</title>
<g id="a_Node000003"><a xlink:href="../../d6/d6f/classNetworkManager.html#a9faf2055aa0370adbffaa46b7f7181c1" target="_top" xlink:title=" ">
<polygon fill="white" stroke="#666666" points="403,-243 245,-243 245,-224 403,-224 403,-243"/>
<text text-anchor="middle" x="324" y="-231" font-family="Helvetica,sans-Serif" font-size="10.00">NetworkManager::sendBoard</text>
</a>
</g>
</g>
<!-- Node1&#45;&gt;Node3 -->
<g id="edge2_Node000001_Node000003" class="edge">
<title>Node1&#45;&gt;Node3</title>
<g id="a_edge2_Node000001_Node000003"><a xlink:title=" ">
<path fill="none" stroke="#63b8ff" d="M183.27,-244.41C200.17,-243.09 217.81,-241.71 234.64,-240.4"/>
<polygon fill="#63b8ff" stroke="#63b8ff" points="235.3,-243.86 244.99,-239.59 234.75,-236.88 235.3,-243.86"/>
</a>
</g>
</g>
<!-- Node4 -->
<g id="Node000004" class="node">
<title>Node4</title>
<g id="a_Node000004"><a xlink:href="../../d6/d6f/classNetworkManager.html#aeb0d7937d1d825d09dc8c7b13e35a962" target="_top" xlink:title=" ">
<polygon fill="white" stroke="#666666" points="690,-464 475,-464 475,-445 690,-445 690,-464"/>
<text text-anchor="middle" x="582.5" y="-452" font-family="Helvetica,sans-Serif" font-size="10.00">NetworkManager::broadcastGameFrame</text>
</a>
</g>
</g>
<!-- Node3&#45;&gt;Node4 -->
<g id="edge3_Node000003_Node000004" class="edge">
<title>Node3&#45;&gt;Node4</title>
<g id="a_edge3_Node000003_Node000004"><a xlink:title=" ">
<path fill="none" stroke="#63b8ff" d="M403.08,-237.07C412.73,-240.42 421.73,-245.36 429,-252.5 486.89,-309.37 407.52,-374.22 465,-431.5 468.12,-434.61 471.53,-437.36 475.17,-439.79"/>
<polygon fill="#63b8ff" stroke="#63b8ff" points="473.6,-442.93 484.01,-444.9 477.1,-436.87 473.6,-442.93"/>
</a>
</g>
</g>
<!-- Node6 -->
<g id="Node000006" class="node">
<title>Node6</title>
<g id="a_Node000006"><a xlink:href="../../d6/d6f/classNetworkManager.html#a2312355e8a21dec223fcf13d383309ff" target="_top" xlink:title=" ">
<polygon fill="white" stroke="#666666" points="965,-395 736,-395 736,-376 965,-376 965,-395"/>
<text text-anchor="middle" x="850.5" y="-383" font-family="Helvetica,sans-Serif" font-size="10.00">NetworkManager::buildCommitBoardFrame</text>
</a>
</g>
</g>
<!-- Node3&#45;&gt;Node6 -->
<g id="edge5_Node000003_Node000006" class="edge">
<title>Node3&#45;&gt;Node6</title>
<g id="a_edge5_Node000003_Node000006"><a xlink:title=" ">
<path fill="none" stroke="#63b8ff" d="M385.83,-243.01C400.09,-245.68 415.15,-248.87 429,-252.5 568.62,-289.13 597.39,-318.19 736,-358.5 755.12,-364.06 776.3,-369.33 795.13,-373.72"/>
<polygon fill="#63b8ff" stroke="#63b8ff" points="794.51,-377.17 805.03,-375.99 796.07,-370.34 794.51,-377.17"/>
</a>
</g>
</g>
<!-- Node9 -->
<g id="Node000009" class="node">
<title>Node9</title>
<g id="a_Node000009"><a xlink:href="../../d6/d6f/classNetworkManager.html#af430cbaa8d0b5ae2424c97cec93e6c06" target="_top" xlink:title=" ">
<polygon fill="white" stroke="#666666" points="700,-243 465,-243 465,-224 700,-224 700,-243"/>
<text text-anchor="middle" x="582.5" y="-231" font-family="Helvetica,sans-Serif" font-size="10.00">NetworkManager::buildSnapshotBoardFrame</text>
</a>
</g>
</g>
<!-- Node3&#45;&gt;Node9 -->
<g id="edge8_Node000003_Node000009" class="edge">
<title>Node3&#45;&gt;Node9</title>
<g id="a_edge8_Node000003_Node000009"><a xlink:title=" ">
<path fill="none" stroke="#63b8ff" d="M403,-233.5C419.27,-233.5 436.81,-233.5 454.33,-233.5"/>
<polygon fill="#63b8ff" stroke="#63b8ff" points="454.63,-237 464.63,-233.5 454.63,-230 454.63,-237"/>
</a>
</g>
</g>
<!-- Node15 -->
<g id="Node000015" class="node">
<title>Node15</title>
<g id="a_Node000015"><a xlink:href="../../d8/dec/classPathManager.html#ae75b72eb67617d77136a829eb73c7e8f" target="_top" xlink:title=" ">
<polygon fill="white" stroke="#666666" points="657,-206 508,-206 508,-187 657,-187 657,-206"/>
<text text-anchor="middle" x="582.5" y="-194" font-family="Helvetica,sans-Serif" font-size="10.00">PathManager::getMapsPath</text>
</a>
</g>
</g>
<!-- Node3&#45;&gt;Node15 -->
<g id="edge17_Node000003_Node000015" class="edge">
<title>Node3&#45;&gt;Node15</title>
<g id="a_edge17_Node000003_Node000015"><a xlink:title=" ">
<path fill="none" stroke="#63b8ff" d="M391.06,-223.97C425.92,-218.94 468.89,-212.74 505.18,-207.51"/>
<polygon fill="#63b8ff" stroke="#63b8ff" points="505.83,-210.95 515.22,-206.06 504.83,-204.02 505.83,-210.95"/>
</a>
</g>
</g>
<!-- Node17 -->
<g id="Node000017" class="node">
<title>Node17</title>
<g id="a_Node000017"><a xlink:href="../../db/d67/classLogger.html#aebb248e608f8e2724de20b482cb2a15f" target="_top" xlink:title=" ">
<polygon fill="white" stroke="#666666" points="899,-432 802,-432 802,-413 899,-413 899,-432"/>
<text text-anchor="middle" x="850.5" y="-420" font-family="Helvetica,sans-Serif" font-size="10.00">Logger::instance</text>
</a>
</g>
</g>
<!-- Node3&#45;&gt;Node17 -->
<g id="edge19_Node000003_Node000017" class="edge">
<title>Node3&#45;&gt;Node17</title>
<g id="a_edge19_Node000003_Node000017"><a xlink:title=" ">
<path fill="none" stroke="#63b8ff" d="M403.14,-239.81C412.38,-242.8 421.27,-246.91 429,-252.5 456.08,-272.08 439.22,-297.25 465,-318.5 477.19,-328.55 720.63,-400.86 736,-404.5 754.02,-408.76 773.89,-412.3 791.9,-415.08"/>
<polygon fill="#63b8ff" stroke="#63b8ff" points="791.57,-418.57 801.98,-416.58 792.6,-411.64 791.57,-418.57"/>
</a>
</g>
</g>
<!-- Node18 -->
<g id="Node000018" class="node">
<title>Node18</title>
<g id="a_Node000018"><a xlink:href="../../d8/dec/classPathManager.html#a42a0582ddea79c07f859b346b57657de" target="_top" xlink:title=" ">
<polygon fill="white" stroke="#666666" points="663.5,-169 501.5,-169 501.5,-150 663.5,-150 663.5,-169"/>
<text text-anchor="middle" x="582.5" y="-157" font-family="Helvetica,sans-Serif" font-size="10.00">PathManager::isFilenameOnly</text>
</a>
</g>
</g>
<!-- Node3&#45;&gt;Node18 -->
<g id="edge20_Node000003_Node000018" class="edge">
<title>Node3&#45;&gt;Node18</title>
<g id="a_edge20_Node000003_Node000018"><a xlink:title=" ">
<path fill="none" stroke="#63b8ff" d="M345.4,-223.89C372.25,-211.62 421.18,-190.53 465,-178.5 475.52,-175.61 486.69,-173.1 497.8,-170.94"/>
<polygon fill="#63b8ff" stroke="#63b8ff" points="498.77,-174.32 507.96,-169.05 497.49,-167.44 498.77,-174.32"/>
</a>
</g>
</g>
<!-- Node19 -->
<g id="Node000019" class="node">
<title>Node19</title>
<g id="a_Node000019"><a xlink:href="../../d8/dec/classPathManager.html#a7bd7a212d4af1ec7b67dfc3519375077" target="_top" xlink:title=" ">
<polygon fill="white" stroke="#666666" points="918,-56 783,-56 783,-37 918,-37 918,-56"/>
<text text-anchor="middle" x="850.5" y="-44" font-family="Helvetica,sans-Serif" font-size="10.00">PathManager::isPathLike</text>
</a>
</g>
</g>
<!-- Node3&#45;&gt;Node19 -->
<g id="edge27_Node000003_Node000019" class="edge">
<title>Node3&#45;&gt;Node19</title>
<g id="a_edge27_Node000003_Node000019"><a xlink:title=" ">
<path fill="none" stroke="#63b8ff" d="M336.06,-223.84C358.6,-204.73 412.18,-162.16 465,-141.5 563.6,-102.93 606.18,-151.56 700,-102.5 720.33,-91.87 715.68,-76.15 736,-65.5 747.42,-59.52 760.3,-55.34 773.18,-52.45"/>
<polygon fill="#63b8ff" stroke="#63b8ff" points="773.88,-55.87 783,-50.47 772.5,-49.01 773.88,-55.87"/>
</a>
</g>
</g>
<!-- Node25 -->
<g id="Node000025" class="node">
<title>Node25</title>
<g id="a_Node000025"><a xlink:href="../../d6/d6f/classNetworkManager.html#ac4526c46708af567437809ee9b561aba" target="_top" xlink:title=" ">
<polygon fill="white" stroke="#666666" points="669,-93 496,-93 496,-74 669,-74 669,-93"/>
<text text-anchor="middle" x="582.5" y="-81" font-family="Helvetica,sans-Serif" font-size="10.00">NetworkManager::readFileBytes</text>
</a>
</g>
</g>
<!-- Node3&#45;&gt;Node25 -->
<g id="edge28_Node000003_Node000025" class="edge">
<title>Node3&#45;&gt;Node25</title>
<g id="a_edge28_Node000003_Node000025"><a xlink:title=" ">
<path fill="none" stroke="#63b8ff" d="M332.61,-223.74C351.91,-199.74 405.47,-137.59 465,-107.5 474.6,-102.65 485.11,-98.78 495.76,-95.69"/>
<polygon fill="#63b8ff" stroke="#63b8ff" points="496.81,-99.04 505.57,-93.07 495,-92.27 496.81,-99.04"/>
</a>
</g>
</g>
<!-- Node26 -->
<g id="Node000026" class="node">
<title>Node26</title>
<g id="a_Node000026"><a xlink:href="../../d6/d6f/classNetworkManager.html#ab54b0f1b56efebcaeaf9a34a0af6194c" target="_top" xlink:title=" ">
<polygon fill="white" stroke="#666666" points="681,-422 484,-422 484,-403 681,-403 681,-422"/>
<text text-anchor="middle" x="582.5" y="-410" font-family="Helvetica,sans-Serif" font-size="10.00">NetworkManager::sendImageChunks</text>
</a>
</g>
</g>
<!-- Node3&#45;&gt;Node26 -->
<g id="edge29_Node000003_Node000026" class="edge">
<title>Node3&#45;&gt;Node26</title>
<g id="a_edge29_Node000003_Node000026"><a xlink:title=" ">
<path fill="none" stroke="#63b8ff" d="M403.11,-237.78C412.63,-241.05 421.6,-245.77 429,-252.5 472.42,-291.96 423.51,-338.02 465,-379.5 473.74,-388.24 484.61,-394.7 496.17,-399.48"/>
<polygon fill="#63b8ff" stroke="#63b8ff" points="494.96,-402.76 505.56,-402.96 497.4,-396.2 494.96,-402.76"/>
</a>
</g>
</g>
<!-- Node5 -->
<g id="Node000005" class="node">
<title>Node5</title>
<g id="a_Node000005"><a xlink:href="../../d6/d6f/classNetworkManager.html#a8f97d83ec35ea68c1e37d6837c1c8b4c" target="_top" xlink:title=" ">
<polygon fill="white" stroke="#666666" points="935.5,-469 765.5,-469 765.5,-450 935.5,-450 935.5,-469"/>
<text text-anchor="middle" x="850.5" y="-457" font-family="Helvetica,sans-Serif" font-size="10.00">NetworkManager::sendGameTo</text>
</a>
</g>
</g>
<!-- Node4&#45;&gt;Node5 -->
<g id="edge4_Node000004_Node000005" class="edge">
<title>Node4&#45;&gt;Node5</title>
<g id="a_edge4_Node000004_Node000005"><a xlink:title=" ">
<path fill="none" stroke="#63b8ff" d="M690.16,-456.5C711.65,-456.91 734.09,-457.33 755.13,-457.73"/>
<polygon fill="#63b8ff" stroke="#63b8ff" points="755.26,-461.23 765.33,-457.92 755.39,-454.23 755.26,-461.23"/>
</a>
</g>
</g>
<!-- Node7 -->
<g id="Node000007" class="node">
<title>Node7</title>
<g id="a_Node000007"><a xlink:href="../../db/d4b/classSerializer.html#a60889622ee4e36ea28a284e99bbdf4e5" target="_top" xlink:title=" ">
<polygon fill="white" stroke="#666666" points="1152.5,-357 1010.5,-357 1010.5,-338 1152.5,-338 1152.5,-357"/>
<text text-anchor="middle" x="1081.5" y="-345" font-family="Helvetica,sans-Serif" font-size="10.00">Serializer::serializeUInt64</text>
</a>
</g>
</g>
<!-- Node6&#45;&gt;Node7 -->
<g id="edge6_Node000006_Node000007" class="edge">
<title>Node6&#45;&gt;Node7</title>
<g id="a_edge6_Node000006_Node000007"><a xlink:title=" ">
<path fill="none" stroke="#63b8ff" d="M908.99,-375.96C940.57,-370.72 979.91,-364.19 1012.95,-358.71"/>
<polygon fill="#63b8ff" stroke="#63b8ff" points="1013.69,-362.13 1022.99,-357.04 1012.55,-355.23 1013.69,-362.13"/>
</a>
</g>
</g>
<!-- Node8 -->
<g id="Node000008" class="node">
<title>Node8</title>
<g id="a_Node000008"><a xlink:href="../../db/d4b/classSerializer.html#a3c3d58eaacc5f3c6f19cfde75424e9cc" target="_top" xlink:title=" ">
<polygon fill="white" stroke="#666666" points="1149.5,-319 1013.5,-319 1013.5,-300 1149.5,-300 1149.5,-319"/>
<text text-anchor="middle" x="1081.5" y="-307" font-family="Helvetica,sans-Serif" font-size="10.00">Serializer::serializeUInt8</text>
</a>
</g>
</g>
<!-- Node6&#45;&gt;Node8 -->
<g id="edge7_Node000006_Node000008" class="edge">
<title>Node6&#45;&gt;Node8</title>
<g id="a_edge7_Node000006_Node000008"><a xlink:title=" ">
<path fill="none" stroke="#63b8ff" d="M874.53,-375.95C903.65,-364.1 955.49,-343.7 1001,-329.5 1010.08,-326.67 1019.83,-323.95 1029.28,-321.49"/>
<polygon fill="#63b8ff" stroke="#63b8ff" points="1030.17,-324.87 1038.99,-319.01 1028.44,-318.09 1030.17,-324.87"/>
</a>
</g>
</g>
<!-- Node9&#45;&gt;Node7 -->
<g id="edge13_Node000009_Node000007" class="edge">
<title>Node9&#45;&gt;Node7</title>
<g id="a_edge13_Node000009_Node000007"><a xlink:title=" ">
<path fill="none" stroke="#63b8ff" d="M606.01,-243.05C630.28,-253.84 669.52,-272.76 700,-294.5 717.92,-307.28 715.78,-319.81 736,-328.5 821.63,-365.31 930.43,-364.39 1002.61,-358.01"/>
<polygon fill="#63b8ff" stroke="#63b8ff" points="1003.36,-361.45 1012.98,-357.03 1002.7,-354.49 1003.36,-361.45"/>
</a>
</g>
</g>
<!-- Node9&#45;&gt;Node8 -->
<g id="edge14_Node000009_Node000008" class="edge">
<title>Node9&#45;&gt;Node8</title>
<g id="a_edge14_Node000009_Node000008"><a xlink:title=" ">
<path fill="none" stroke="#63b8ff" d="M646.63,-243.02C722.3,-254.46 852.93,-274.25 965,-291.5 979.42,-293.72 994.86,-296.11 1009.59,-298.41"/>
<polygon fill="#63b8ff" stroke="#63b8ff" points="1009.25,-301.89 1019.66,-299.98 1010.32,-294.98 1009.25,-301.89"/>
</a>
</g>
</g>
<!-- Node10 -->
<g id="Node000010" class="node">
<title>Node10</title>
<g id="a_Node000010"><a xlink:href="../../db/d4b/classSerializer.html#a2a407c3a379b680296ee190ed625f05f" target="_top" xlink:title=" ">
<polygon fill="white" stroke="#666666" points="916,-243 785,-243 785,-224 916,-224 916,-243"/>
<text text-anchor="middle" x="850.5" y="-231" font-family="Helvetica,sans-Serif" font-size="10.00">Serializer::serializeBool</text>
</a>
</g>
</g>
<!-- Node9&#45;&gt;Node10 -->
<g id="edge9_Node000009_Node000010" class="edge">
<title>Node9&#45;&gt;Node10</title>
<g id="a_edge9_Node000009_Node000010"><a xlink:title=" ">
<path fill="none" stroke="#63b8ff" d="M700.17,-233.5C725.46,-233.5 751.56,-233.5 774.71,-233.5"/>
<polygon fill="#63b8ff" stroke="#63b8ff" points="774.79,-237 784.79,-233.5 774.79,-230 774.79,-237"/>
</a>
</g>
</g>
<!-- Node11 -->
<g id="Node000011" class="node">
<title>Node11</title>
<g id="a_Node000011"><a xlink:href="../../db/d4b/classSerializer.html#a92ffe65857abd6eea6a393056a9bb533" target="_top" xlink:title=" ">
<polygon fill="white" stroke="#666666" points="1148.5,-149 1014.5,-149 1014.5,-130 1148.5,-130 1148.5,-149"/>
<text text-anchor="middle" x="1081.5" y="-137" font-family="Helvetica,sans-Serif" font-size="10.00">Serializer::serializeFloat</text>
</a>
</g>
</g>
<!-- Node9&#45;&gt;Node11 -->
<g id="edge10_Node000009_Node000011" class="edge">
<title>Node9&#45;&gt;Node11</title>
<g id="a_edge10_Node000009_Node000011"><a xlink:title=" ">
<path fill="none" stroke="#63b8ff" d="M679.23,-223.95C686.44,-221.66 693.45,-218.88 700,-215.5 720.39,-204.98 715.4,-188.6 736,-178.5 781.68,-156.1 917.26,-146.28 1004.09,-142.19"/>
<polygon fill="#63b8ff" stroke="#63b8ff" points="1004.33,-145.68 1014.17,-141.73 1004.02,-138.69 1004.33,-145.68"/>
</a>
</g>
</g>
<!-- Node12 -->
<g id="Node000012" class="node">
<title>Node12</title>
<g id="a_Node000012"><a xlink:href="../../db/d4b/classSerializer.html#a8a72c08ebb91348dc2a7ef6557c44f6c" target="_top" xlink:title=" ">
<polygon fill="white" stroke="#666666" points="919.5,-206 781.5,-206 781.5,-187 919.5,-187 919.5,-206"/>
<text text-anchor="middle" x="850.5" y="-194" font-family="Helvetica,sans-Serif" font-size="10.00">Serializer::serializeString</text>
</a>
</g>
</g>
<!-- Node9&#45;&gt;Node12 -->
<g id="edge11_Node000009_Node000012" class="edge">
<title>Node9&#45;&gt;Node12</title>
<g id="a_edge11_Node000009_Node000012"><a xlink:title=" ">
<path fill="none" stroke="#63b8ff" d="M652,-223.97C688.46,-218.9 733.45,-212.64 771.27,-207.38"/>
<polygon fill="#63b8ff" stroke="#63b8ff" points="771.81,-210.84 781.23,-206 770.84,-203.91 771.81,-210.84"/>
</a>
</g>
</g>
<!-- Node14 -->
<g id="Node000014" class="node">
<title>Node14</title>
<g id="a_Node000014"><a xlink:href="../../db/d4b/classSerializer.html#a52943821c1686ae47c30586ec7f9bc7e" target="_top" xlink:title=" ">
<polygon fill="white" stroke="#666666" points="917,-130 784,-130 784,-111 917,-111 917,-130"/>
<text text-anchor="middle" x="850.5" y="-118" font-family="Helvetica,sans-Serif" font-size="10.00">Serializer::serializeVec2</text>
</a>
</g>
</g>
<!-- Node9&#45;&gt;Node14 -->
<g id="edge15_Node000009_Node000014" class="edge">
<title>Node9&#45;&gt;Node14</title>
<g id="a_edge15_Node000009_Node000014"><a xlink:title=" ">
<path fill="none" stroke="#63b8ff" d="M685.37,-223.98C690.52,-221.61 695.44,-218.8 700,-215.5 728.64,-194.73 707.94,-166.05 736,-144.5 747.05,-136.01 760.43,-130.36 774.05,-126.63"/>
<polygon fill="#63b8ff" stroke="#63b8ff" points="775.09,-129.98 783.99,-124.24 773.45,-123.17 775.09,-129.98"/>
</a>
</g>
</g>
<!-- Node13 -->
<g id="Node000013" class="node">
<title>Node13</title>
<g id="a_Node000013"><a xlink:href="../../db/d4b/classSerializer.html#ac812cf485e5804fd6f22d34ae076f79f" target="_top" xlink:title=" ">
<polygon fill="white" stroke="#666666" points="1142.5,-244 1020.5,-244 1020.5,-225 1142.5,-225 1142.5,-244"/>
<text text-anchor="middle" x="1081.5" y="-232" font-family="Helvetica,sans-Serif" font-size="10.00">Serializer::serializeInt</text>
</a>
</g>
</g>
<!-- Node12&#45;&gt;Node13 -->
<g id="edge12_Node000012_Node000013" class="edge">
<title>Node12&#45;&gt;Node13</title>
<g id="a_edge12_Node000012_Node000013"><a xlink:title=" ">
<path fill="none" stroke="#63b8ff" d="M908.99,-206.04C940.57,-211.28 979.91,-217.81 1012.95,-223.29"/>
<polygon fill="#63b8ff" stroke="#63b8ff" points="1012.55,-226.77 1022.99,-224.96 1013.69,-219.87 1012.55,-226.77"/>
</a>
</g>
</g>
<!-- Node14&#45;&gt;Node11 -->
<g id="edge16_Node000014_Node000011" class="edge">
<title>Node14&#45;&gt;Node11</title>
<g id="a_edge16_Node000014_Node000011"><a xlink:title=" ">
<path fill="none" stroke="#63b8ff" d="M917.12,-125.94C944.31,-128.2 976.03,-130.83 1004.25,-133.17"/>
<polygon fill="#63b8ff" stroke="#63b8ff" points="1004.22,-136.68 1014.47,-134.02 1004.8,-129.71 1004.22,-136.68"/>
</a>
</g>
</g>
<!-- Node16 -->
<g id="Node000016" class="node">
<title>Node16</title>
<g id="a_Node000016"><a xlink:href="../../d8/dec/classPathManager.html#a467b459b77c73cbc7544551b53911fcd" target="_top" xlink:title=" ">
<polygon fill="white" stroke="#666666" points="939.5,-93 761.5,-93 761.5,-74 939.5,-74 939.5,-93"/>
<text text-anchor="middle" x="850.5" y="-81" font-family="Helvetica,sans-Serif" font-size="10.00">PathManager::getExecutableRoot</text>
</a>
</g>
</g>
<!-- Node15&#45;&gt;Node16 -->
<g id="edge18_Node000015_Node000016" class="edge">
<title>Node15&#45;&gt;Node16</title>
<g id="a_edge18_Node000015_Node000016"><a xlink:title=" ">
<path fill="none" stroke="#63b8ff" d="M657.11,-196.05C672.4,-193.09 687.61,-187.74 700,-178.5 729.96,-156.15 706.18,-125.03 736,-102.5 740.85,-98.83 746.15,-95.77 751.73,-93.22"/>
<polygon fill="#63b8ff" stroke="#63b8ff" points="753.34,-96.34 761.34,-89.39 750.75,-89.84 753.34,-96.34"/>
</a>
</g>
</g>
<!-- Node18&#45;&gt;Node19 -->
<g id="edge21_Node000018_Node000019" class="edge">
<title>Node18&#45;&gt;Node19</title>
<g id="a_edge21_Node000018_Node000019"><a xlink:title=" ">
<path fill="none" stroke="#63b8ff" d="M663.73,-152.83C676.73,-149.07 689.39,-143.56 700,-135.5 727.86,-114.34 707.75,-86.13 736,-65.5 746.8,-57.61 759.71,-52.55 772.89,-49.38"/>
<polygon fill="#63b8ff" stroke="#63b8ff" points="773.9,-52.74 782.99,-47.3 772.49,-45.88 773.9,-52.74"/>
</a>
</g>
</g>
<!-- Node20 -->
<g id="Node000020" class="node">
<title>Node20</title>
<g id="a_Node000020"><a xlink:href="../../d8/dec/classPathManager.html#a8ef0fd5fd2b9999b0037c1db402d4c50" target="_top" xlink:title=" ">
<polygon fill="white" stroke="#666666" points="1149.5,-93 1013.5,-93 1013.5,-74 1149.5,-74 1149.5,-93"/>
<text text-anchor="middle" x="1081.5" y="-81" font-family="Helvetica,sans-Serif" font-size="10.00">PathManager::hasDirSep</text>
</a>
</g>
</g>
<!-- Node19&#45;&gt;Node20 -->
<g id="edge22_Node000019_Node000020" class="edge">
<title>Node19&#45;&gt;Node20</title>
<g id="a_edge22_Node000019_Node000020"><a xlink:title=" ">
<path fill="none" stroke="#63b8ff" d="M910.47,-56.03C941.21,-60.99 978.98,-67.1 1011.11,-72.29"/>
<polygon fill="#63b8ff" stroke="#63b8ff" points="1010.9,-75.8 1021.33,-73.94 1012.02,-68.89 1010.9,-75.8"/>
</a>
</g>
</g>
<!-- Node21 -->
<g id="Node000021" class="node">
<title>Node21</title>
<g id="a_Node000021"><a xlink:href="../../d8/dec/classPathManager.html#abc27ded79e24f01da862f4e920ff57af" target="_top" xlink:title=" ">
<polygon fill="white" stroke="#666666" points="1160.5,-56 1002.5,-56 1002.5,-37 1160.5,-37 1160.5,-56"/>
<text text-anchor="middle" x="1081.5" y="-44" font-family="Helvetica,sans-Serif" font-size="10.00">PathManager::isAbsolutePath</text>
</a>
</g>
</g>
<!-- Node19&#45;&gt;Node21 -->
<g id="edge23_Node000019_Node000021" class="edge">
<title>Node19&#45;&gt;Node21</title>
<g id="a_edge23_Node000019_Node000021"><a xlink:title=" ">
<path fill="none" stroke="#63b8ff" d="M918.04,-46.5C941.26,-46.5 967.68,-46.5 992.37,-46.5"/>
<polygon fill="#63b8ff" stroke="#63b8ff" points="992.47,-50 1002.47,-46.5 992.47,-43 992.47,-50"/>
</a>
</g>
</g>
<!-- Node24 -->
<g id="Node000024" class="node">
<title>Node24</title>
<g id="a_Node000024"><a xlink:href="../../d8/dec/classPathManager.html#ac7b463a435e68be97b75fbd0f1ee0c8f" target="_top" xlink:title=" ">
<polygon fill="white" stroke="#666666" points="1162,-19 1001,-19 1001,0 1162,0 1162,-19"/>
<text text-anchor="middle" x="1081.5" y="-7" font-family="Helvetica,sans-Serif" font-size="10.00">PathManager::isDriveRelative</text>
</a>
</g>
</g>
<!-- Node19&#45;&gt;Node24 -->
<g id="edge26_Node000019_Node000024" class="edge">
<title>Node19&#45;&gt;Node24</title>
<g id="a_edge26_Node000019_Node000024"><a xlink:title=" ">
<path fill="none" stroke="#63b8ff" d="M910.47,-36.97C941.21,-32.01 978.98,-25.9 1011.11,-20.71"/>
<polygon fill="#63b8ff" stroke="#63b8ff" points="1012.02,-24.11 1021.33,-19.06 1010.9,-17.2 1012.02,-24.11"/>
</a>
</g>
</g>
<!-- Node22 -->
<g id="Node000022" class="node">
<title>Node22</title>
<g id="a_Node000022"><a xlink:href="../../d8/dec/classPathManager.html#acb7f23b0e5687c88e3e32146cfcf315d" target="_top" xlink:title=" ">
<polygon fill="white" stroke="#666666" points="1362,-74 1198,-74 1198,-55 1362,-55 1362,-74"/>
<text text-anchor="middle" x="1280" y="-62" font-family="Helvetica,sans-Serif" font-size="10.00">PathManager::isDriveAbsolute</text>
</a>
</g>
</g>
<!-- Node21&#45;&gt;Node22 -->
<g id="edge24_Node000021_Node000022" class="edge">
<title>Node21&#45;&gt;Node22</title>
<g id="a_edge24_Node000021_Node000022"><a xlink:title=" ">
<path fill="none" stroke="#63b8ff" d="M1160.73,-53.67C1169.59,-54.48 1178.68,-55.31 1187.7,-56.14"/>
<polygon fill="#63b8ff" stroke="#63b8ff" points="1187.55,-59.64 1197.82,-57.06 1188.18,-52.67 1187.55,-59.64"/>
</a>
</g>
</g>
<!-- Node23 -->
<g id="Node000023" class="node">
<title>Node23</title>
<g id="a_Node000023"><a xlink:href="../../d8/dec/classPathManager.html#ab4625f00b403df325617c2af592e186f" target="_top" xlink:title=" ">
<polygon fill="white" stroke="#666666" points="1338,-37 1222,-37 1222,-18 1338,-18 1338,-37"/>
<text text-anchor="middle" x="1280" y="-25" font-family="Helvetica,sans-Serif" font-size="10.00">PathManager::isUNC</text>
</a>
</g>
</g>
<!-- Node21&#45;&gt;Node23 -->
<g id="edge25_Node000021_Node000023" class="edge">
<title>Node21&#45;&gt;Node23</title>
<g id="a_edge25_Node000021_Node000023"><a xlink:title=" ">
<path fill="none" stroke="#63b8ff" d="M1160.73,-38.94C1177.66,-37.3 1195.41,-35.58 1211.87,-33.99"/>
<polygon fill="#63b8ff" stroke="#63b8ff" points="1212.31,-37.46 1221.93,-33.02 1211.64,-30.5 1212.31,-37.46"/>
</a>
</g>
</g>
<!-- Node26&#45;&gt;Node5 -->
<g id="edge35_Node000026_Node000005" class="edge">
<title>Node26&#45;&gt;Node5</title>
<g id="a_edge35_Node000026_Node000005"><a xlink:title=" ">
<path fill="none" stroke="#63b8ff" d="M631.51,-422.02C661.5,-427.87 700.95,-435.39 736,-441.5 749.36,-443.83 763.64,-446.19 777.39,-448.4"/>
<polygon fill="#63b8ff" stroke="#63b8ff" points="776.87,-451.87 787.3,-449.99 777.97,-444.95 776.87,-451.87"/>
</a>
</g>
</g>
<!-- Node26&#45;&gt;Node17 -->
<g id="edge34_Node000026_Node000017" class="edge">
<title>Node26&#45;&gt;Node17</title>
<g id="a_edge34_Node000026_Node000017"><a xlink:title=" ">
<path fill="none" stroke="#63b8ff" d="M681.04,-416.17C718.23,-417.57 759.42,-419.11 791.76,-420.33"/>
<polygon fill="#63b8ff" stroke="#63b8ff" points="791.81,-423.83 801.93,-420.71 792.07,-416.84 791.81,-423.83"/>
</a>
</g>
</g>
<!-- Node27 -->
<g id="Node000027" class="node">
<title>Node27</title>
<g id="a_Node000027"><a xlink:href="../../d6/d6f/classNetworkManager.html#ad6d9928959397e1cfa4f6c0f322a20fd" target="_top" xlink:title=" ">
<polygon fill="white" stroke="#666666" points="962,-319 739,-319 739,-300 962,-300 962,-319"/>
<text text-anchor="middle" x="850.5" y="-307" font-family="Helvetica,sans-Serif" font-size="10.00">NetworkManager::buildImageChunkFrame</text>
</a>
</g>
</g>
<!-- Node26&#45;&gt;Node27 -->
<g id="edge30_Node000026_Node000027" class="edge">
<title>Node26&#45;&gt;Node27</title>
<g id="a_edge30_Node000026_Node000027"><a xlink:title=" ">
<path fill="none" stroke="#63b8ff" d="M608.05,-402.99C655.63,-384.57 760.52,-343.95 815.05,-322.84"/>
<polygon fill="#63b8ff" stroke="#63b8ff" points="816.56,-326.01 824.62,-319.13 814.04,-319.48 816.56,-326.01"/>
</a>
</g>
</g>
<!-- Node27&#45;&gt;Node7 -->
<g id="edge32_Node000027_Node000007" class="edge">
<title>Node27&#45;&gt;Node7</title>
<g id="a_edge32_Node000027_Node000007"><a xlink:title=" ">
<path fill="none" stroke="#63b8ff" d="M908.99,-319.04C940.57,-324.28 979.91,-330.81 1012.95,-336.29"/>
<polygon fill="#63b8ff" stroke="#63b8ff" points="1012.55,-339.77 1022.99,-337.96 1013.69,-332.87 1012.55,-339.77"/>
</a>
</g>
</g>
<!-- Node27&#45;&gt;Node8 -->
<g id="edge33_Node000027_Node000008" class="edge">
<title>Node27&#45;&gt;Node8</title>
<g id="a_edge33_Node000027_Node000008"><a xlink:title=" ">
<path fill="none" stroke="#63b8ff" d="M962.31,-309.5C976.09,-309.5 989.95,-309.5 1003.07,-309.5"/>
<polygon fill="#63b8ff" stroke="#63b8ff" points="1003.43,-313 1013.43,-309.5 1003.43,-306 1003.43,-313"/>
</a>
</g>
</g>
<!-- Node27&#45;&gt;Node13 -->
<g id="edge31_Node000027_Node000013" class="edge">
<title>Node27&#45;&gt;Node13</title>
<g id="a_edge31_Node000027_Node000013"><a xlink:title=" ">
<path fill="none" stroke="#63b8ff" d="M880.97,-299.85C921.93,-286.43 996.17,-262.12 1041.63,-247.23"/>
<polygon fill="#63b8ff" stroke="#63b8ff" points="1042.73,-250.55 1051.14,-244.11 1040.55,-243.9 1042.73,-250.55"/>
</a>
</g>
</g>
</g>
</svg>
