<?xml version="1.0" encoding="UTF-8" standalone="no"?>
<!DOCTYPE svg PUBLIC "-//W3C//DTD SVG 1.1//EN"
 "http://www.w3.org/Graphics/SVG/1.1/DTD/svg11.dtd">
<!-- Generated by graphviz version 2.43.0 (0)
 -->
<!-- Title: NetworkManager::connectToPeer Pages: 1 -->
<svg width="651pt" height="83pt"
 viewBox="0.00 0.00 651.00 83.00" xmlns="http://www.w3.org/2000/svg" xmlns:xlink="http://www.w3.org/1999/xlink">
<g id="graph0" class="graph" transform="scale(1 1) rotate(0) translate(4 79)">
<title>NetworkManager::connectToPeer</title>
<!-- Node1 -->
<g id="Node000001" class="node">
<title>Node1</title>
<g id="a_Node000001"><a xlink:title=" ">
<polygon fill="#999999" stroke="#666666" points="177,-56 0,-56 0,-37 177,-37 177,-56"/>
<text text-anchor="middle" x="88.5" y="-44" font-family="Helvetica,sans-Serif" font-size="10.00">NetworkManager::connectToPeer</text>
</a>
</g>
</g>
<!-- Node2 -->
<g id="Node000002" class="node">
<title>Node2</title>
<g id="a_Node000002"><a xlink:href="../../d6/d6f/classNetworkManager.html#ac8d84a7d1efb6af7ee6c6b3b667dfff2" target="_top" xlink:title=" ">
<polygon fill="white" stroke="#666666" points="643,-75 466,-75 466,-56 643,-56 643,-75"/>
<text text-anchor="middle" x="554.5" y="-63" font-family="Helvetica,sans-Serif" font-size="10.00">NetworkManager::hasUrlScheme</text>
</a>
</g>
</g>
<!-- Node1&#45;&gt;Node2 -->
<g id="edge1_Node000001_Node000002" class="edge">
<title>Node1&#45;&gt;Node2</title>
<g id="a_edge1_Node000001_Node000002"><a xlink:title=" ">
<path fill="none" stroke="#63b8ff" d="M139.77,-56.01C162.11,-59.78 188.77,-63.65 213,-65.5 294.57,-71.74 387.46,-71.23 455.59,-69.45"/>
<polygon fill="#63b8ff" stroke="#63b8ff" points="455.98,-72.94 465.88,-69.17 455.79,-65.94 455.98,-72.94"/>
</a>
</g>
</g>
<!-- Node3 -->
<g id="Node000003" class="node">
<title>Node3</title>
<g id="a_Node000003"><a xlink:href="../../d6/d6f/classNetworkManager.html#a9188d6597282861e87fbc7ff1c50a158" target="_top" xlink:title=" ">
<polygon fill="white" stroke="#666666" points="430,-56 213,-56 213,-37 430,-37 430,-56"/>
<text text-anchor="middle" x="321.5" y="-44" font-family="Helvetica,sans-Serif" font-size="10.00">NetworkManager::parseConnectionString</text>
</a>
</g>
</g>
<!-- Node1&#45;&gt;Node3 -->
<g id="edge2_Node000001_Node000003" class="edge">
<title>Node1&#45;&gt;Node3</title>
<g id="a_edge2_Node000001_Node000003"><a xlink:title=" ">
<path fill="none" stroke="#63b8ff" d="M177.16,-46.5C185.51,-46.5 194.06,-46.5 202.63,-46.5"/>
<polygon fill="#63b8ff" stroke="#63b8ff" points="202.69,-50 212.69,-46.5 202.69,-43 202.69,-50"/>
</a>
</g>
</g>
<!-- Node4 -->
<g id="Node000004" class="node">
<title>Node4</title>
<g id="a_Node000004"><a xlink:href="../../d6/d6f/classNetworkManager.html#ad2a4c0314a66c36cc2db8ca73aca0f8c" target="_top" xlink:title=" ">
<polygon fill="white" stroke="#666666" points="426,-19 217,-19 217,0 426,0 426,-19"/>
<text text-anchor="middle" x="321.5" y="-7" font-family="Helvetica,sans-Serif" font-size="10.00">NetworkManager::setNetworkPassword</text>
</a>
</g>
</g>
<!-- Node1&#45;&gt;Node4 -->
<g id="edge4_Node000001_Node000004" class="edge">
<title>Node1&#45;&gt;Node4</title>
<g id="a_edge4_Node000001_Node000004"><a xlink:title=" ">
<path fill="none" stroke="#63b8ff" d="M148.99,-36.97C180.12,-31.98 218.42,-25.85 250.93,-20.64"/>
<polygon fill="#63b8ff" stroke="#63b8ff" points="251.49,-24.1 260.81,-19.06 250.38,-17.19 251.49,-24.1"/>
</a>
</g>
</g>
<!-- Node3&#45;&gt;Node2 -->
<g id="edge3_Node000003_Node000002" class="edge">
<title>Node3&#45;&gt;Node2</title>
<g id="a_edge3_Node000003_Node000002"><a xlink:title=" ">
<path fill="none" stroke="#63b8ff" d="M430.22,-55.36C438.67,-56.05 447.17,-56.75 455.55,-57.44"/>
<polygon fill="#63b8ff" stroke="#63b8ff" points="455.43,-60.95 465.69,-58.28 456.01,-53.97 455.43,-60.95"/>
</a>
</g>
</g>
</g>
</svg>
