<?xml version="1.0" encoding="UTF-8" standalone="no"?>
<!DOCTYPE svg PUBLIC "-//W3C//DTD SVG 1.1//EN"
 "http://www.w3.org/Graphics/SVG/1.1/DTD/svg11.dtd">
<!-- Generated by graphviz version 2.43.0 (0)
 -->
<!-- Title: NetworkManager::nowMs Pages: 1 -->
<!--zoomable 177 -->

<svg id="main" version="1.1" xmlns="http://www.w3.org/2000/svg" xmlns:xlink="http://www.w3.org/1999/xlink" xml:space="preserve" onload="init(evt)">
<style type="text/css"><![CDATA[
.node, .edge {opacity: 0.7;}
.node.selected, .edge.selected {opacity: 1;}
.edge:hover path { stroke: red; }
.edge:hover polygon { stroke: red; fill: red; }
]]></style>

<defs>
  <circle id="rim" cx="0" cy="0" r="7"/>
  <circle id="rim2" cx="0" cy="0" r="3.5"/>
  <g id="zoomPlus">
    <use xlink:href="#rim" fill="#404040"><set attributeName="fill" to="#808080" begin="zoomplus.mouseover" end="zoomplus.mouseout"/></use>
    <path d="M-4,0h8M0,-4v8" fill="none" stroke="white" stroke-width="1.5" pointer-events="none"/>
  </g>
  <g id="zoomMin">
    <use xlink:href="#rim" fill="#404040"><set attributeName="fill" to="#808080" begin="zoomminus.mouseover" end="zoomminus.mouseout"/></use>
    <path d="M-4,0h8" fill="none" stroke="white" stroke-width="1.5" pointer-events="none"/>
  </g>
  <g id="arrowUp" transform="translate(30 24)">
    <use xlink:href="#rim"/>
    <path pointer-events="none" fill="none" stroke="white" stroke-width="1.5" d="M0,-3.0v7 M-2.5,-0.5L0,-3.0L2.5,-0.5"/>
  </g>
  <g id="arrowRight" transform="rotate(90) translate(36 -43)">
    <use xlink:href="#rim"/>
    <path pointer-events="none" fill="none" stroke="white" stroke-width="1.5" d="M0,-3.0v7 M-2.5,-0.5L0,-3.0L2.5,-0.5"/>
  </g>
  <g id="arrowDown" transform="rotate(180) translate(-30 -48)">
    <use xlink:href="#rim"/>
    <path pointer-events="none" fill="none" stroke="white" stroke-width="1.5" d="M0,-3.0v7 M-2.5,-0.5L0,-3.0L2.5,-0.5"/>
  </g>
  <g id="arrowLeft" transform="rotate(270) translate(-36 17)">
    <use xlink:href="#rim"/>
    <path pointer-events="none" fill="none" stroke="white" stroke-width="1.5" d="M0,-3.0v7 M-2.5,-0.5L0,-3.0L2.5,-0.5"/>
  </g>
  <g id="resetDef">
    <use xlink:href="#rim2" fill="#404040"><set attributeName="fill" to="#808080" begin="reset.mouseover" end="reset.mouseout"/></use>
  </g>
</defs>
<script type="application/ecmascript">
var viewWidth = 962;
var viewHeight = 177;
var sectionId = 'dynsection-120';
</script>
<script type="application/ecmascript" xlink:href="../../svg.min.js"/>
<svg id="graph" class="graph">
<g id="viewport">
<title>NetworkManager::nowMs</title>
<!-- Node1 -->
<g id="Node000001" class="node">
<title>Node1</title>
<g id="a_Node000001"><a xlink:title=" ">
<polygon fill="#999999" stroke="#666666" points="954,-93 813,-93 813,-74 954,-74 954,-93"/>
<text text-anchor="middle" x="883.5" y="-81" font-family="Helvetica,sans-Serif" font-size="10.00">NetworkManager::nowMs</text>
</a>
</g>
</g>
<!-- Node2 -->
<g id="Node000002" class="node">
<title>Node2</title>
<g id="a_Node000002"><a xlink:href="../../d6/d6f/classNetworkManager.html#ab8fd392b2bcef38aa4c9ab92a7d73fe3" target="_top" xlink:title=" ">
<polygon fill="white" stroke="#666666" points="764,-169 542,-169 542,-150 764,-150 764,-169"/>
<text text-anchor="middle" x="653" y="-157" font-family="Helvetica,sans-Serif" font-size="10.00">NetworkManager::buildMarkerMoveFrame</text>
</a>
</g>
</g>
<!-- Node1&#45;&gt;Node2 -->
<g id="edge1_Node000001_Node000002" class="edge">
<title>Node1&#45;&gt;Node2</title>
<g id="a_edge1_Node000001_Node000002"><a xlink:title=" ">
<path fill="none" stroke="#63b8ff" d="M857.42,-98.23C836.54,-109.91 805.69,-125.82 777,-135.5 758.86,-141.62 738.65,-146.37 719.95,-149.96"/>
<polygon fill="#63b8ff" stroke="#63b8ff" points="859.31,-101.18 866.27,-93.2 855.85,-95.1 859.31,-101.18"/>
</a>
</g>
</g>
<!-- Node3 -->
<g id="Node000003" class="node">
<title>Node3</title>
<g id="a_Node000003"><a xlink:href="../../d6/d6f/classNetworkManager.html#a30523648225cb5f4e628c5daa19f4719" target="_top" xlink:title=" ">
<polygon fill="white" stroke="#666666" points="480.5,-150 289.5,-150 289.5,-131 480.5,-131 480.5,-150"/>
<text text-anchor="middle" x="385" y="-138" font-family="Helvetica,sans-Serif" font-size="10.00">NetworkManager::sendMarkerMove</text>
</a>
</g>
</g>
<!-- Node1&#45;&gt;Node3 -->
<g id="edge9_Node000001_Node000003" class="edge">
<title>Node1&#45;&gt;Node3</title>
<g id="a_edge9_Node000001_Node000003"><a xlink:title=" ">
<path fill="none" stroke="#63b8ff" d="M820.83,-94.76C806.47,-97.18 791.22,-99.58 777,-101.5 676.1,-115.12 559.95,-126.12 480.63,-132.92"/>
<polygon fill="#63b8ff" stroke="#63b8ff" points="821.83,-98.14 831.1,-93.01 820.65,-91.24 821.83,-98.14"/>
</a>
</g>
</g>
<!-- Node5 -->
<g id="Node000005" class="node">
<title>Node5</title>
<g id="a_Node000005"><a xlink:href="../../d6/d6f/classNetworkManager.html#ae2eab0e91a7b37d26c273e4b0319a21c" target="_top" xlink:title=" ">
<polygon fill="white" stroke="#666666" points="777,-93 529,-93 529,-74 777,-74 777,-93"/>
<text text-anchor="middle" x="653" y="-81" font-family="Helvetica,sans-Serif" font-size="10.00">NetworkManager::buildMarkerMoveStateFrame</text>
</a>
</g>
</g>
<!-- Node1&#45;&gt;Node5 -->
<g id="edge4_Node000001_Node000005" class="edge">
<title>Node1&#45;&gt;Node5</title>
<g id="a_edge4_Node000001_Node000005"><a xlink:title=" ">
<path fill="none" stroke="#63b8ff" d="M802.48,-83.5C794.29,-83.5 785.85,-83.5 777.33,-83.5"/>
<polygon fill="#63b8ff" stroke="#63b8ff" points="802.7,-87 812.7,-83.5 802.7,-80 802.7,-87"/>
</a>
</g>
</g>
<!-- Node8 -->
<g id="Node000008" class="node">
<title>Node8</title>
<g id="a_Node000008"><a xlink:href="../../d6/d6f/classNetworkManager.html#a8e0d2dcd98ddaf7e2546508c44dd804e" target="_top" xlink:title=" ">
<polygon fill="white" stroke="#666666" points="746,-56 560,-56 560,-37 746,-37 746,-56"/>
<text text-anchor="middle" x="653" y="-44" font-family="Helvetica,sans-Serif" font-size="10.00">NetworkManager::housekeepPeers</text>
</a>
</g>
</g>
<!-- Node1&#45;&gt;Node8 -->
<g id="edge7_Node000001_Node000008" class="edge">
<title>Node1&#45;&gt;Node8</title>
<g id="a_edge7_Node000001_Node000008"><a xlink:title=" ">
<path fill="none" stroke="#63b8ff" d="M821.65,-72.19C807.04,-69.57 791.48,-66.86 777,-64.5 759.11,-61.58 739.71,-58.64 721.73,-56"/>
<polygon fill="#63b8ff" stroke="#63b8ff" points="821.12,-75.65 831.58,-73.98 822.36,-68.76 821.12,-75.65"/>
</a>
</g>
</g>
<!-- Node9 -->
<g id="Node000009" class="node">
<title>Node9</title>
<g id="a_Node000009"><a xlink:href="../../d6/d6f/classNetworkManager.html#a00095029e8bf9bf6520ae4f3383f29cf" target="_top" xlink:title=" ">
<polygon fill="white" stroke="#666666" points="754,-19 552,-19 552,0 754,0 754,-19"/>
<text text-anchor="middle" x="653" y="-7" font-family="Helvetica,sans-Serif" font-size="10.00">NetworkManager::markDraggingLocal</text>
</a>
</g>
</g>
<!-- Node1&#45;&gt;Node9 -->
<g id="edge8_Node000001_Node000009" class="edge">
<title>Node1&#45;&gt;Node9</title>
<g id="a_edge8_Node000001_Node000009"><a xlink:title=" ">
<path fill="none" stroke="#63b8ff" d="M859.5,-68.3C838.79,-55.36 807.08,-37.35 777,-27.5 766.54,-24.07 755.37,-21.3 744.18,-19.05"/>
<polygon fill="#63b8ff" stroke="#63b8ff" points="857.88,-71.42 868.19,-73.84 861.64,-65.52 857.88,-71.42"/>
</a>
</g>
</g>
<!-- Node2&#45;&gt;Node3 -->
<g id="edge2_Node000002_Node000003" class="edge">
<title>Node2&#45;&gt;Node3</title>
<g id="a_edge2_Node000002_Node000003"><a xlink:title=" ">
<path fill="none" stroke="#63b8ff" d="M531.85,-150.92C514.73,-149.69 497.32,-148.45 480.77,-147.27"/>
<polygon fill="#63b8ff" stroke="#63b8ff" points="531.66,-154.41 541.89,-151.63 532.16,-147.43 531.66,-154.41"/>
</a>
</g>
</g>
<!-- Node4 -->
<g id="Node000004" class="node">
<title>Node4</title>
<g id="a_Node000004"><a xlink:href="../../d6/d6f/classNetworkManager.html#a2c3da3e8d0493153ac8dea2dcda3bfbd" target="_top" xlink:title=" ">
<polygon fill="white" stroke="#666666" points="228,-150 13,-150 13,-131 228,-131 228,-150"/>
<text text-anchor="middle" x="120.5" y="-138" font-family="Helvetica,sans-Serif" font-size="10.00">NetworkManager::broadcastMarkerMove</text>
</a>
</g>
</g>
<!-- Node3&#45;&gt;Node4 -->
<g id="edge3_Node000003_Node000004" class="edge">
<title>Node3&#45;&gt;Node4</title>
<g id="a_edge3_Node000003_Node000004"><a xlink:title=" ">
<path fill="none" stroke="#63b8ff" d="M278.91,-140.5C262.2,-140.5 244.9,-140.5 228.15,-140.5"/>
<polygon fill="#63b8ff" stroke="#63b8ff" points="279.23,-144 289.23,-140.5 279.23,-137 279.23,-144"/>
</a>
</g>
</g>
<!-- Node6 -->
<g id="Node000006" class="node">
<title>Node6</title>
<g id="a_Node000006"><a xlink:href="../../d6/d6f/classNetworkManager.html#a50e4f0f235f999ccac9a2848c14433c6" target="_top" xlink:title=" ">
<polygon fill="white" stroke="#666666" points="493,-93 277,-93 277,-74 493,-74 493,-93"/>
<text text-anchor="middle" x="385" y="-81" font-family="Helvetica,sans-Serif" font-size="10.00">NetworkManager::sendMarkerMoveState</text>
</a>
</g>
</g>
<!-- Node5&#45;&gt;Node6 -->
<g id="edge5_Node000005_Node000006" class="edge">
<title>Node5&#45;&gt;Node6</title>
<g id="a_edge5_Node000005_Node000006"><a xlink:title=" ">
<path fill="none" stroke="#63b8ff" d="M518.46,-83.5C510.04,-83.5 501.62,-83.5 493.33,-83.5"/>
<polygon fill="#63b8ff" stroke="#63b8ff" points="518.73,-87 528.73,-83.5 518.73,-80 518.73,-87"/>
</a>
</g>
</g>
<!-- Node7 -->
<g id="Node000007" class="node">
<title>Node7</title>
<g id="a_Node000007"><a xlink:href="../../d6/d6f/classNetworkManager.html#a53b60b6286f20a92807205dd2f71c200" target="_top" xlink:title=" ">
<polygon fill="white" stroke="#666666" points="241,-93 0,-93 0,-74 241,-74 241,-93"/>
<text text-anchor="middle" x="120.5" y="-81" font-family="Helvetica,sans-Serif" font-size="10.00">NetworkManager::broadcastMarkerMoveState</text>
</a>
</g>
</g>
<!-- Node6&#45;&gt;Node7 -->
<g id="edge6_Node000006_Node000007" class="edge">
<title>Node6&#45;&gt;Node7</title>
<g id="a_edge6_Node000006_Node000007"><a xlink:title=" ">
<path fill="none" stroke="#63b8ff" d="M266.59,-83.5C258.14,-83.5 249.61,-83.5 241.15,-83.5"/>
<polygon fill="#63b8ff" stroke="#63b8ff" points="266.85,-87 276.85,-83.5 266.85,-80 266.85,-87"/>
</a>
</g>
</g>
</g>
</svg>

<g id="navigator" transform="translate(0 0)" fill="#404254">
  <rect fill="#f2f5e9" fill-opacity="0.5" stroke="#606060" stroke-width=".5" x="0" y="0" width="60" height="60"/>
  <use id="zoomplus" xlink:href="#zoomPlus" x="17" y="9" onmousedown="handleZoom(evt,'in')"/>
  <use id="zoomminus" xlink:href="#zoomMin" x="42" y="9" onmousedown="handleZoom(evt,'out')"/>
  <use id="reset" xlink:href="#resetDef" x="30" y="36" onmousedown="handleReset()"/>
   <use id="arrowup" xlink:href="#arrowUp" x="0" y="0" onmousedown="handlePan(0,-1)"/>
  <use id="arrowright" xlink:href="#arrowRight" x="0" y="0" onmousedown="handlePan(1,0)"/>
  <use id="arrowdown" xlink:href="#arrowDown" x="0" y="0" onmousedown="handlePan(0,1)"/>
  <use id="arrowleft" xlink:href="#arrowLeft" x="0" y="0" onmousedown="handlePan(-1,0)"/>
</g>
<svg viewBox="0 0 15 15" width="100%" height="30px" preserveAspectRatio="xMaxYMin meet">
 <g id="arrow_out" transform="scale(0.3 0.3)">
  <a xlink:href="classNetworkManager_a1ca85e76187f45d46596a1d04d713f0f_icgraph_org.svg" target="_base">
   <rect id="button" ry="5" rx="5" y="6" x="6" height="38" width="38"
        fill="#f2f5e9" fill-opacity="0.5" stroke="#606060" stroke-width="1.0"/>
   <path id="arrow"
     d="M 11.500037,31.436501 C 11.940474,20.09759 22.043105,11.32322 32.158766,21.979434 L 37.068811,17.246167 C 37.068811,17.246167 37.088388,32 37.088388,32 L 22.160133,31.978069 C 22.160133,31.978069 26.997745,27.140456 26.997745,27.140456 C 18.528582,18.264221 13.291696,25.230495 11.500037,31.436501 z"
     style="fill:#404040;"/>
  </a>
 </g>
</svg>

<style type='text/css'>
<![CDATA[
[data-mouse-over-selected='false'] { opacity: 0.7; }
[data-mouse-over-selected='true']  { opacity: 1.0; }
]]>
</style>
<script type="application/ecmascript"><![CDATA[
document.addEventListener('DOMContentLoaded', (event) => {
  highlightEdges();
  highlightAdjacentNodes();
});
]]></script>
</svg>
