<?xml version="1.0" encoding="UTF-8" standalone="no"?>
<!DOCTYPE svg PUBLIC "-//W3C//DTD SVG 1.1//EN"
 "http://www.w3.org/Graphics/SVG/1.1/DTD/svg11.dtd">
<!-- Generated by graphviz version 2.43.0 (0)
 -->
<!-- Title: NetworkManager::broadcastGridUpdate Pages: 1 -->
<svg width="1262pt" height="139pt"
 viewBox="0.00 0.00 1262.00 139.00" xmlns="http://www.w3.org/2000/svg" xmlns:xlink="http://www.w3.org/1999/xlink">
<g id="graph0" class="graph" transform="scale(1 1) rotate(0) translate(4 135)">
<title>NetworkManager::broadcastGridUpdate</title>
<!-- Node1 -->
<g id="Node000001" class="node">
<title>Node1</title>
<g id="a_Node000001"><a xlink:title=" ">
<polygon fill="#999999" stroke="#666666" points="210,-110 0,-110 0,-91 210,-91 210,-110"/>
<text text-anchor="middle" x="105" y="-98" font-family="Helvetica,sans-Serif" font-size="10.00">NetworkManager::broadcastGridUpdate</text>
</a>
</g>
</g>
<!-- Node2 -->
<g id="Node000002" class="node">
<title>Node2</title>
<g id="a_Node000002"><a xlink:href="../../d6/d6f/classNetworkManager.html#a2127afec206b45126dff36ca21ffde3d" target="_top" xlink:title=" ">
<polygon fill="white" stroke="#666666" points="456,-129 246,-129 246,-110 456,-110 456,-129"/>
<text text-anchor="middle" x="351" y="-117" font-family="Helvetica,sans-Serif" font-size="10.00">NetworkManager::getConnectedPeerIds</text>
</a>
</g>
</g>
<!-- Node1&#45;&gt;Node2 -->
<g id="edge1_Node000001_Node000002" class="edge">
<title>Node1&#45;&gt;Node2</title>
<g id="a_edge1_Node000001_Node000002"><a xlink:title=" ">
<path fill="none" stroke="#63b8ff" d="M210.19,-108.61C218.66,-109.27 227.25,-109.94 235.78,-110.61"/>
<polygon fill="#63b8ff" stroke="#63b8ff" points="235.53,-114.1 245.77,-111.38 236.08,-107.12 235.53,-114.1"/>
</a>
</g>
</g>
<!-- Node3 -->
<g id="Node000003" class="node">
<title>Node3</title>
<g id="a_Node000003"><a xlink:href="../../d6/d6f/classNetworkManager.html#aa65d06dfc8028a6bda33056bee158918" target="_top" xlink:title=" ">
<polygon fill="white" stroke="#666666" points="443.5,-92 258.5,-92 258.5,-73 443.5,-73 443.5,-92"/>
<text text-anchor="middle" x="351" y="-80" font-family="Helvetica,sans-Serif" font-size="10.00">NetworkManager::sendGridUpdate</text>
</a>
</g>
</g>
<!-- Node1&#45;&gt;Node3 -->
<g id="edge2_Node000001_Node000003" class="edge">
<title>Node1&#45;&gt;Node3</title>
<g id="a_edge2_Node000001_Node000003"><a xlink:title=" ">
<path fill="none" stroke="#63b8ff" d="M210.19,-92.81C222.86,-91.88 235.79,-90.92 248.43,-89.99"/>
<polygon fill="#63b8ff" stroke="#63b8ff" points="248.77,-93.48 258.49,-89.25 248.26,-86.5 248.77,-93.48"/>
</a>
</g>
</g>
<!-- Node4 -->
<g id="Node000004" class="node">
<title>Node4</title>
<g id="a_Node000004"><a xlink:href="../../d6/d6f/classNetworkManager.html#aeb0d7937d1d825d09dc8c7b13e35a962" target="_top" xlink:title=" ">
<polygon fill="white" stroke="#666666" points="708,-120 493,-120 493,-101 708,-101 708,-120"/>
<text text-anchor="middle" x="600.5" y="-108" font-family="Helvetica,sans-Serif" font-size="10.00">NetworkManager::broadcastGameFrame</text>
</a>
</g>
</g>
<!-- Node3&#45;&gt;Node4 -->
<g id="edge3_Node000003_Node000004" class="edge">
<title>Node3&#45;&gt;Node4</title>
<g id="a_edge3_Node000003_Node000004"><a xlink:title=" ">
<path fill="none" stroke="#63b8ff" d="M436.14,-92.02C458.35,-94.53 482.48,-97.26 505.19,-99.83"/>
<polygon fill="#63b8ff" stroke="#63b8ff" points="504.84,-103.31 515.17,-100.96 505.63,-96.36 504.84,-103.31"/>
</a>
</g>
</g>
<!-- Node6 -->
<g id="Node000006" class="node">
<title>Node6</title>
<g id="a_Node000006"><a xlink:href="../../d6/d6f/classNetworkManager.html#a69494ac8e4544eab4263d7c9d56c7cf2" target="_top" xlink:title=" ">
<polygon fill="white" stroke="#666666" points="709,-74 492,-74 492,-55 709,-55 709,-74"/>
<text text-anchor="middle" x="600.5" y="-62" font-family="Helvetica,sans-Serif" font-size="10.00">NetworkManager::buildGridUpdateFrame</text>
</a>
</g>
</g>
<!-- Node3&#45;&gt;Node6 -->
<g id="edge5_Node000003_Node000006" class="edge">
<title>Node3&#45;&gt;Node6</title>
<g id="a_edge5_Node000003_Node000006"><a xlink:title=" ">
<path fill="none" stroke="#63b8ff" d="M443.81,-75.82C456.18,-74.92 469.02,-73.99 481.76,-73.06"/>
<polygon fill="#63b8ff" stroke="#63b8ff" points="482.24,-76.54 491.96,-72.32 481.73,-69.56 482.24,-76.54"/>
</a>
</g>
</g>
<!-- Node5 -->
<g id="Node000005" class="node">
<title>Node5</title>
<g id="a_Node000005"><a xlink:href="../../d6/d6f/classNetworkManager.html#a8f97d83ec35ea68c1e37d6837c1c8b4c" target="_top" xlink:title=" ">
<polygon fill="white" stroke="#666666" points="915,-130 745,-130 745,-111 915,-111 915,-130"/>
<text text-anchor="middle" x="830" y="-118" font-family="Helvetica,sans-Serif" font-size="10.00">NetworkManager::sendGameTo</text>
</a>
</g>
</g>
<!-- Node4&#45;&gt;Node5 -->
<g id="edge4_Node000004_Node000005" class="edge">
<title>Node4&#45;&gt;Node5</title>
<g id="a_edge4_Node000004_Node000005"><a xlink:title=" ">
<path fill="none" stroke="#63b8ff" d="M708.26,-115.19C717.05,-115.58 725.9,-115.97 734.6,-116.35"/>
<polygon fill="#63b8ff" stroke="#63b8ff" points="734.58,-119.85 744.72,-116.8 734.89,-112.86 734.58,-119.85"/>
</a>
</g>
</g>
<!-- Node7 -->
<g id="Node000007" class="node">
<title>Node7</title>
<g id="a_Node000007"><a xlink:href="../../db/d4b/classSerializer.html#ad0d31f7afee6b62ebc3c4f05bfef6bf2" target="_top" xlink:title=" ">
<polygon fill="white" stroke="#666666" points="895,-93 765,-93 765,-74 895,-74 895,-93"/>
<text text-anchor="middle" x="830" y="-81" font-family="Helvetica,sans-Serif" font-size="10.00">Serializer::serializeGrid</text>
</a>
</g>
</g>
<!-- Node6&#45;&gt;Node7 -->
<g id="edge6_Node000006_Node000007" class="edge">
<title>Node6&#45;&gt;Node7</title>
<g id="a_edge6_Node000006_Node000007"><a xlink:title=" ">
<path fill="none" stroke="#63b8ff" d="M709.25,-73.5C724.6,-74.78 740.08,-76.07 754.59,-77.29"/>
<polygon fill="#63b8ff" stroke="#63b8ff" points="754.72,-80.81 764.97,-78.15 755.3,-73.83 754.72,-80.81"/>
</a>
</g>
</g>
<!-- Node11 -->
<g id="Node000011" class="node">
<title>Node11</title>
<g id="a_Node000011"><a xlink:href="../../db/d4b/classSerializer.html#a60889622ee4e36ea28a284e99bbdf4e5" target="_top" xlink:title=" ">
<polygon fill="white" stroke="#666666" points="901,-56 759,-56 759,-37 901,-37 901,-56"/>
<text text-anchor="middle" x="830" y="-44" font-family="Helvetica,sans-Serif" font-size="10.00">Serializer::serializeUInt64</text>
</a>
</g>
</g>
<!-- Node6&#45;&gt;Node11 -->
<g id="edge11_Node000006_Node000011" class="edge">
<title>Node6&#45;&gt;Node11</title>
<g id="a_edge11_Node000006_Node000011"><a xlink:title=" ">
<path fill="none" stroke="#63b8ff" d="M709.25,-55.97C722.58,-54.92 736.01,-53.86 748.81,-52.84"/>
<polygon fill="#63b8ff" stroke="#63b8ff" points="749.25,-56.32 758.94,-52.04 748.69,-49.34 749.25,-56.32"/>
</a>
</g>
</g>
<!-- Node12 -->
<g id="Node000012" class="node">
<title>Node12</title>
<g id="a_Node000012"><a xlink:href="../../db/d4b/classSerializer.html#a3c3d58eaacc5f3c6f19cfde75424e9cc" target="_top" xlink:title=" ">
<polygon fill="white" stroke="#666666" points="898,-19 762,-19 762,0 898,0 898,-19"/>
<text text-anchor="middle" x="830" y="-7" font-family="Helvetica,sans-Serif" font-size="10.00">Serializer::serializeUInt8</text>
</a>
</g>
</g>
<!-- Node6&#45;&gt;Node12 -->
<g id="edge12_Node000006_Node000012" class="edge">
<title>Node6&#45;&gt;Node12</title>
<g id="a_edge12_Node000006_Node000012"><a xlink:title=" ">
<path fill="none" stroke="#63b8ff" d="M636.78,-54.97C665.77,-47.24 707.94,-36.24 745,-27.5 753.95,-25.39 763.47,-23.25 772.76,-21.22"/>
<polygon fill="#63b8ff" stroke="#63b8ff" points="773.68,-24.6 782.71,-19.06 772.2,-17.76 773.68,-24.6"/>
</a>
</g>
</g>
<!-- Node8 -->
<g id="Node000008" class="node">
<title>Node8</title>
<g id="a_Node000008"><a xlink:href="../../db/d4b/classSerializer.html#a2a407c3a379b680296ee190ed625f05f" target="_top" xlink:title=" ">
<polygon fill="white" stroke="#666666" points="1083,-131 952,-131 952,-112 1083,-112 1083,-131"/>
<text text-anchor="middle" x="1017.5" y="-119" font-family="Helvetica,sans-Serif" font-size="10.00">Serializer::serializeBool</text>
</a>
</g>
</g>
<!-- Node7&#45;&gt;Node8 -->
<g id="edge7_Node000007_Node000008" class="edge">
<title>Node7&#45;&gt;Node8</title>
<g id="a_edge7_Node000007_Node000008"><a xlink:title=" ">
<path fill="none" stroke="#63b8ff" d="M877.81,-93.09C902.84,-98.22 933.84,-104.57 960.18,-109.96"/>
<polygon fill="#63b8ff" stroke="#63b8ff" points="959.53,-113.4 970.03,-111.98 960.93,-106.54 959.53,-113.4"/>
</a>
</g>
</g>
<!-- Node9 -->
<g id="Node000009" class="node">
<title>Node9</title>
<g id="a_Node000009"><a xlink:href="../../db/d4b/classSerializer.html#a92ffe65857abd6eea6a393056a9bb533" target="_top" xlink:title=" ">
<polygon fill="white" stroke="#666666" points="1254,-74 1120,-74 1120,-55 1254,-55 1254,-74"/>
<text text-anchor="middle" x="1187" y="-62" font-family="Helvetica,sans-Serif" font-size="10.00">Serializer::serializeFloat</text>
</a>
</g>
</g>
<!-- Node7&#45;&gt;Node9 -->
<g id="edge8_Node000007_Node000009" class="edge">
<title>Node7&#45;&gt;Node9</title>
<g id="a_edge8_Node000007_Node000009"><a xlink:title=" ">
<path fill="none" stroke="#63b8ff" d="M895.29,-80.06C955.6,-76.83 1045.84,-72 1109.76,-68.58"/>
<polygon fill="#63b8ff" stroke="#63b8ff" points="1109.98,-72.07 1119.78,-68.04 1109.61,-65.08 1109.98,-72.07"/>
</a>
</g>
</g>
<!-- Node10 -->
<g id="Node000010" class="node">
<title>Node10</title>
<g id="a_Node000010"><a xlink:href="../../db/d4b/classSerializer.html#a52943821c1686ae47c30586ec7f9bc7e" target="_top" xlink:title=" ">
<polygon fill="white" stroke="#666666" points="1084,-55 951,-55 951,-36 1084,-36 1084,-55"/>
<text text-anchor="middle" x="1017.5" y="-43" font-family="Helvetica,sans-Serif" font-size="10.00">Serializer::serializeVec2</text>
</a>
</g>
</g>
<!-- Node7&#45;&gt;Node10 -->
<g id="edge9_Node000007_Node000010" class="edge">
<title>Node7&#45;&gt;Node10</title>
<g id="a_edge9_Node000007_Node000010"><a xlink:title=" ">
<path fill="none" stroke="#63b8ff" d="M877.81,-73.91C902.84,-68.78 933.84,-62.43 960.18,-57.04"/>
<polygon fill="#63b8ff" stroke="#63b8ff" points="960.93,-60.46 970.03,-55.02 959.53,-53.6 960.93,-60.46"/>
</a>
</g>
</g>
<!-- Node10&#45;&gt;Node9 -->
<g id="edge10_Node000010_Node000009" class="edge">
<title>Node10&#45;&gt;Node9</title>
<g id="a_edge10_Node000010_Node000009"><a xlink:title=" ">
<path fill="none" stroke="#63b8ff" d="M1084.22,-52.95C1092.65,-53.91 1101.34,-54.9 1109.92,-55.87"/>
<polygon fill="#63b8ff" stroke="#63b8ff" points="1109.59,-59.35 1119.92,-57 1110.38,-52.4 1109.59,-59.35"/>
</a>
</g>
</g>
</g>
</svg>
