<?xml version="1.0" encoding="UTF-8" standalone="no"?>
<!DOCTYPE svg PUBLIC "-//W3C//DTD SVG 1.1//EN"
 "http://www.w3.org/Graphics/SVG/1.1/DTD/svg11.dtd">
<!-- Generated by graphviz version 2.43.0 (0)
 -->
<!-- Title: NetworkManager::debugIdentitySnapshot Pages: 1 -->
<svg width="473pt" height="101pt"
 viewBox="0.00 0.00 473.00 101.00" xmlns="http://www.w3.org/2000/svg" xmlns:xlink="http://www.w3.org/1999/xlink">
<g id="graph0" class="graph" transform="scale(1 1) rotate(0) translate(4 97)">
<title>NetworkManager::debugIdentitySnapshot</title>
<!-- Node1 -->
<g id="Node000001" class="node">
<title>Node1</title>
<g id="a_Node000001"><a xlink:title=" ">
<polygon fill="#999999" stroke="#666666" points="219,-56 0,-56 0,-37 219,-37 219,-56"/>
<text text-anchor="middle" x="109.5" y="-44" font-family="Helvetica,sans-Serif" font-size="10.00">NetworkManager::debugIdentitySnapshot</text>
</a>
</g>
</g>
<!-- Node2 -->
<g id="Node000002" class="node">
<title>Node2</title>
<g id="a_Node000002"><a xlink:href="../../d6/d6f/classNetworkManager.html#a2127afec206b45126dff36ca21ffde3d" target="_top" xlink:title=" ">
<polygon fill="white" stroke="#666666" points="465,-93 255,-93 255,-74 465,-74 465,-93"/>
<text text-anchor="middle" x="360" y="-81" font-family="Helvetica,sans-Serif" font-size="10.00">NetworkManager::getConnectedPeerIds</text>
</a>
</g>
</g>
<!-- Node1&#45;&gt;Node2 -->
<g id="edge1_Node000001_Node000002" class="edge">
<title>Node1&#45;&gt;Node2</title>
<g id="a_edge1_Node000001_Node000002"><a xlink:title=" ">
<path fill="none" stroke="#63b8ff" d="M174.49,-56.03C208.13,-61.04 249.54,-67.2 284.61,-72.42"/>
<polygon fill="#63b8ff" stroke="#63b8ff" points="284.38,-75.93 294.79,-73.94 285.42,-69.01 284.38,-75.93"/>
</a>
</g>
</g>
<!-- Node3 -->
<g id="Node000003" class="node">
<title>Node3</title>
<g id="a_Node000003"><a xlink:href="../../d6/d6f/classNetworkManager.html#a1278e316ee962616fcae67294d53fac0" target="_top" xlink:title=" ">
<polygon fill="white" stroke="#666666" points="434,-56 286,-56 286,-37 434,-37 434,-56"/>
<text text-anchor="middle" x="360" y="-44" font-family="Helvetica,sans-Serif" font-size="10.00">NetworkManager::getGMId</text>
</a>
</g>
</g>
<!-- Node1&#45;&gt;Node3 -->
<g id="edge2_Node000001_Node000003" class="edge">
<title>Node1&#45;&gt;Node3</title>
<g id="a_edge2_Node000001_Node000003"><a xlink:title=" ">
<path fill="none" stroke="#63b8ff" d="M219.13,-46.5C238.11,-46.5 257.58,-46.5 275.73,-46.5"/>
<polygon fill="#63b8ff" stroke="#63b8ff" points="275.96,-50 285.96,-46.5 275.96,-43 275.96,-50"/>
</a>
</g>
</g>
<!-- Node4 -->
<g id="Node000004" class="node">
<title>Node4</title>
<g id="a_Node000004"><a xlink:href="../../d6/d6f/classNetworkManager.html#a18a48f401ea5dea0ceb2bcecf0be521a" target="_top" xlink:title=" ">
<polygon fill="white" stroke="#666666" points="444,-19 276,-19 276,0 444,0 444,-19"/>
<text text-anchor="middle" x="360" y="-7" font-family="Helvetica,sans-Serif" font-size="10.00">NetworkManager::getMyPeerId</text>
</a>
</g>
</g>
<!-- Node1&#45;&gt;Node4 -->
<g id="edge3_Node000001_Node000004" class="edge">
<title>Node1&#45;&gt;Node4</title>
<g id="a_edge3_Node000001_Node000004"><a xlink:title=" ">
<path fill="none" stroke="#63b8ff" d="M174.49,-36.97C208.13,-31.96 249.54,-25.8 284.61,-20.58"/>
<polygon fill="#63b8ff" stroke="#63b8ff" points="285.42,-23.99 294.79,-19.06 284.38,-17.07 285.42,-23.99"/>
</a>
</g>
</g>
</g>
</svg>
