<?xml version="1.0" encoding="UTF-8" standalone="no"?>
<!DOCTYPE svg PUBLIC "-//W3C//DTD SVG 1.1//EN"
 "http://www.w3.org/Graphics/SVG/1.1/DTD/svg11.dtd">
<!-- Generated by graphviz version 2.43.0 (0)
 -->
<!-- Title: NetworkManager::decodeRawMarkerMoveBuffer Pages: 1 -->
<svg width="907pt" height="195pt"
 viewBox="0.00 0.00 907.00 195.00" xmlns="http://www.w3.org/2000/svg" xmlns:xlink="http://www.w3.org/1999/xlink">
<g id="graph0" class="graph" transform="scale(1 1) rotate(0) translate(4 191)">
<title>NetworkManager::decodeRawMarkerMoveBuffer</title>
<!-- Node1 -->
<g id="Node000001" class="node">
<title>Node1</title>
<g id="a_Node000001"><a xlink:title=" ">
<polygon fill="#999999" stroke="#666666" points="253,-130 0,-130 0,-111 253,-111 253,-130"/>
<text text-anchor="middle" x="126.5" y="-118" font-family="Helvetica,sans-Serif" font-size="10.00">NetworkManager::decodeRawMarkerMoveBuffer</text>
</a>
</g>
</g>
<!-- Node2 -->
<g id="Node000002" class="node">
<title>Node2</title>
<g id="a_Node000002"><a xlink:href="../../d5/d64/namespacemsg.html#ad0d441d4fd6757bd6ae4637c3eb2409e" target="_top" xlink:title=" ">
<polygon fill="white" stroke="#666666" points="443,-187 335,-187 335,-168 443,-168 443,-187"/>
<text text-anchor="middle" x="389" y="-175" font-family="Helvetica,sans-Serif" font-size="10.00">msg::DCtypeString</text>
</a>
</g>
</g>
<!-- Node1&#45;&gt;Node2 -->
<g id="edge1_Node000001_Node000002" class="edge">
<title>Node1&#45;&gt;Node2</title>
<g id="a_edge1_Node000001_Node000002"><a xlink:title=" ">
<path fill="none" stroke="#63b8ff" d="M171.1,-130.04C216,-139.86 286.02,-155.19 334.3,-165.75"/>
<polygon fill="#63b8ff" stroke="#63b8ff" points="333.74,-169.21 344.26,-167.93 335.24,-162.37 333.74,-169.21"/>
</a>
</g>
</g>
<!-- Node3 -->
<g id="Node000003" class="node">
<title>Node3</title>
<g id="a_Node000003"><a xlink:href="../../d6/d6f/classNetworkManager.html#aed1ae9bdd229ea45245fc0b540187779" target="_top" xlink:title=" ">
<polygon fill="white" stroke="#666666" points="717,-167 525,-167 525,-148 717,-148 717,-167"/>
<text text-anchor="middle" x="621" y="-155" font-family="Helvetica,sans-Serif" font-size="10.00">NetworkManager::ensureRemaining</text>
</a>
</g>
</g>
<!-- Node1&#45;&gt;Node3 -->
<g id="edge2_Node000001_Node000003" class="edge">
<title>Node1&#45;&gt;Node3</title>
<g id="a_edge2_Node000001_Node000003"><a xlink:title=" ">
<path fill="none" stroke="#63b8ff" d="M253.05,-129.93C333.92,-136.01 437.86,-143.82 514.46,-149.57"/>
<polygon fill="#63b8ff" stroke="#63b8ff" points="514.38,-153.07 524.61,-150.33 514.9,-146.09 514.38,-153.07"/>
</a>
</g>
</g>
<!-- Node4 -->
<g id="Node000004" class="node">
<title>Node4</title>
<g id="a_Node000004"><a xlink:href="../../d6/d6f/classNetworkManager.html#afc9a1534cbb3b4b950796094d4e97775" target="_top" xlink:title=" ">
<polygon fill="white" stroke="#666666" points="489,-111 289,-111 289,-92 489,-92 489,-111"/>
<text text-anchor="middle" x="389" y="-99" font-family="Helvetica,sans-Serif" font-size="10.00">NetworkManager::handleMarkerMove</text>
</a>
</g>
</g>
<!-- Node1&#45;&gt;Node4 -->
<g id="edge3_Node000001_Node000004" class="edge">
<title>Node1&#45;&gt;Node4</title>
<g id="a_edge3_Node000001_Node000004"><a xlink:title=" ">
<path fill="none" stroke="#63b8ff" d="M253.17,-111.33C261.68,-110.71 270.22,-110.09 278.63,-109.48"/>
<polygon fill="#63b8ff" stroke="#63b8ff" points="279.11,-112.95 288.83,-108.73 278.6,-105.97 279.11,-112.95"/>
</a>
</g>
</g>
<!-- Node10 -->
<g id="Node000010" class="node">
<title>Node10</title>
<g id="a_Node000010"><a xlink:href="../../db/d67/classLogger.html#aebb248e608f8e2724de20b482cb2a15f" target="_top" xlink:title=" ">
<polygon fill="white" stroke="#666666" points="437.5,-74 340.5,-74 340.5,-55 437.5,-55 437.5,-74"/>
<text text-anchor="middle" x="389" y="-62" font-family="Helvetica,sans-Serif" font-size="10.00">Logger::instance</text>
</a>
</g>
</g>
<!-- Node1&#45;&gt;Node10 -->
<g id="edge10_Node000001_Node000010" class="edge">
<title>Node1&#45;&gt;Node10</title>
<g id="a_edge10_Node000001_Node000010"><a xlink:title=" ">
<path fill="none" stroke="#63b8ff" d="M167.23,-110.98C199.87,-103.26 247.34,-92.27 289,-83.5 302.31,-80.7 316.65,-77.85 330.19,-75.24"/>
<polygon fill="#63b8ff" stroke="#63b8ff" points="331.18,-78.61 340.35,-73.29 329.87,-71.73 331.18,-78.61"/>
</a>
</g>
</g>
<!-- Node4&#45;&gt;Node3 -->
<g id="edge8_Node000004_Node000003" class="edge">
<title>Node4&#45;&gt;Node3</title>
<g id="a_edge8_Node000004_Node000003"><a xlink:title=" ">
<path fill="none" stroke="#63b8ff" d="M434.7,-111.01C451.82,-114.99 471.45,-119.99 489,-125.5 505.38,-130.64 508.5,-134.77 525,-139.5 533.27,-141.87 542.03,-144.01 550.75,-145.92"/>
<polygon fill="#63b8ff" stroke="#63b8ff" points="550.06,-149.35 560.57,-147.98 551.5,-142.5 550.06,-149.35"/>
</a>
</g>
</g>
<!-- Node5 -->
<g id="Node000005" class="node">
<title>Node5</title>
<g id="a_Node000005"><a xlink:href="../../db/d4b/classSerializer.html#a5eb5ab1b9f7566eaf2486df0e536d82b" target="_top" xlink:title=" ">
<polygon fill="white" stroke="#666666" points="701.5,-130 540.5,-130 540.5,-111 701.5,-111 701.5,-130"/>
<text text-anchor="middle" x="621" y="-118" font-family="Helvetica,sans-Serif" font-size="10.00">Serializer::deserializePosition</text>
</a>
</g>
</g>
<!-- Node4&#45;&gt;Node5 -->
<g id="edge4_Node000004_Node000005" class="edge">
<title>Node4&#45;&gt;Node5</title>
<g id="a_edge4_Node000004_Node000005"><a xlink:title=" ">
<path fill="none" stroke="#63b8ff" d="M489.21,-109.7C502.77,-110.82 516.64,-111.96 530.02,-113.07"/>
<polygon fill="#63b8ff" stroke="#63b8ff" points="529.9,-116.57 540.15,-113.9 530.48,-109.59 529.9,-116.57"/>
</a>
</g>
</g>
<!-- Node7 -->
<g id="Node000007" class="node">
<title>Node7</title>
<g id="a_Node000007"><a xlink:href="../../db/d4b/classSerializer.html#a25d6d53e78611af416fc652bd61e97d6" target="_top" xlink:title=" ">
<polygon fill="white" stroke="#666666" points="698,-93 544,-93 544,-74 698,-74 698,-93"/>
<text text-anchor="middle" x="621" y="-81" font-family="Helvetica,sans-Serif" font-size="10.00">Serializer::deserializeUInt32</text>
</a>
</g>
</g>
<!-- Node4&#45;&gt;Node7 -->
<g id="edge6_Node000004_Node000007" class="edge">
<title>Node4&#45;&gt;Node7</title>
<g id="a_edge6_Node000004_Node000007"><a xlink:title=" ">
<path fill="none" stroke="#63b8ff" d="M489.21,-93.74C503.88,-92.59 518.91,-91.41 533.3,-90.28"/>
<polygon fill="#63b8ff" stroke="#63b8ff" points="533.96,-93.74 543.66,-89.47 533.42,-86.77 533.96,-93.74"/>
</a>
</g>
</g>
<!-- Node8 -->
<g id="Node000008" class="node">
<title>Node8</title>
<g id="a_Node000008"><a xlink:href="../../db/d4b/classSerializer.html#abc991f78f5490e60783620ab4c3444e6" target="_top" xlink:title=" ">
<polygon fill="white" stroke="#666666" points="698,-56 544,-56 544,-37 698,-37 698,-56"/>
<text text-anchor="middle" x="621" y="-44" font-family="Helvetica,sans-Serif" font-size="10.00">Serializer::deserializeUInt64</text>
</a>
</g>
</g>
<!-- Node4&#45;&gt;Node8 -->
<g id="edge7_Node000004_Node000008" class="edge">
<title>Node4&#45;&gt;Node8</title>
<g id="a_edge7_Node000004_Node000008"><a xlink:title=" ">
<path fill="none" stroke="#63b8ff" d="M457.22,-91.94C467.98,-89.66 478.89,-86.87 489,-83.5 505.97,-77.84 508.08,-71.31 525,-65.5 532.95,-62.77 541.41,-60.39 549.88,-58.31"/>
<polygon fill="#63b8ff" stroke="#63b8ff" points="550.85,-61.68 559.81,-56.02 549.28,-54.86 550.85,-61.68"/>
</a>
</g>
</g>
<!-- Node9 -->
<g id="Node000009" class="node">
<title>Node9</title>
<g id="a_Node000009"><a xlink:href="../../d3/df0/classMessageQueue.html#ae18e8febb6e78fadd1fc56332a4b7ba2" target="_top" xlink:title=" ">
<polygon fill="white" stroke="#666666" points="681.5,-19 560.5,-19 560.5,0 681.5,0 681.5,-19"/>
<text text-anchor="middle" x="621" y="-7" font-family="Helvetica,sans-Serif" font-size="10.00">MessageQueue::push</text>
</a>
</g>
</g>
<!-- Node4&#45;&gt;Node9 -->
<g id="edge9_Node000004_Node000009" class="edge">
<title>Node4&#45;&gt;Node9</title>
<g id="a_edge9_Node000004_Node000009"><a xlink:title=" ">
<path fill="none" stroke="#63b8ff" d="M472.56,-91.97C478.35,-89.67 483.9,-86.88 489,-83.5 513.35,-67.35 500.79,-44.86 525,-28.5 532.68,-23.31 541.45,-19.48 550.48,-16.65"/>
<polygon fill="#63b8ff" stroke="#63b8ff" points="551.63,-19.97 560.36,-13.97 549.79,-13.22 551.63,-19.97"/>
</a>
</g>
</g>
<!-- Node6 -->
<g id="Node000006" class="node">
<title>Node6</title>
<g id="a_Node000006"><a xlink:href="../../db/d4b/classSerializer.html#a4281872677d0169f97044b8708014adb" target="_top" xlink:title=" ">
<polygon fill="white" stroke="#666666" points="899,-130 753,-130 753,-111 899,-111 899,-130"/>
<text text-anchor="middle" x="826" y="-118" font-family="Helvetica,sans-Serif" font-size="10.00">Serializer::deserializeFloat</text>
</a>
</g>
</g>
<!-- Node5&#45;&gt;Node6 -->
<g id="edge5_Node000005_Node000006" class="edge">
<title>Node5&#45;&gt;Node6</title>
<g id="a_edge5_Node000005_Node000006"><a xlink:title=" ">
<path fill="none" stroke="#63b8ff" d="M701.65,-120.5C715.1,-120.5 729.09,-120.5 742.62,-120.5"/>
<polygon fill="#63b8ff" stroke="#63b8ff" points="742.85,-124 752.85,-120.5 742.85,-117 742.85,-124"/>
</a>
</g>
</g>
</g>
</svg>
