<?xml version="1.0" encoding="UTF-8" standalone="no"?>
<!DOCTYPE svg PUBLIC "-//W3C//DTD SVG 1.1//EN"
 "http://www.w3.org/Graphics/SVG/1.1/DTD/svg11.dtd">
<!-- Generated by graphviz version 2.43.0 (0)
 -->
<!-- Title: NetworkManager::broadcastMarkerMoveState Pages: 1 -->
<svg width="1161pt" height="249pt"
 viewBox="0.00 0.00 1161.00 249.00" xmlns="http://www.w3.org/2000/svg" xmlns:xlink="http://www.w3.org/1999/xlink">
<g id="graph0" class="graph" transform="scale(1 1) rotate(0) translate(4 245)">
<title>NetworkManager::broadcastMarkerMoveState</title>
<!-- Node1 -->
<g id="Node000001" class="node">
<title>Node1</title>
<g id="a_Node000001"><a xlink:title=" ">
<polygon fill="#999999" stroke="#666666" points="241,-166 0,-166 0,-147 241,-147 241,-166"/>
<text text-anchor="middle" x="120.5" y="-154" font-family="Helvetica,sans-Serif" font-size="10.00">NetworkManager::broadcastMarkerMoveState</text>
</a>
</g>
</g>
<!-- Node2 -->
<g id="Node000002" class="node">
<title>Node2</title>
<g id="a_Node000002"><a xlink:href="../../d6/d6f/classNetworkManager.html#a2127afec206b45126dff36ca21ffde3d" target="_top" xlink:title=" ">
<polygon fill="white" stroke="#666666" points="490,-185 280,-185 280,-166 490,-166 490,-185"/>
<text text-anchor="middle" x="385" y="-173" font-family="Helvetica,sans-Serif" font-size="10.00">NetworkManager::getConnectedPeerIds</text>
</a>
</g>
</g>
<!-- Node1&#45;&gt;Node2 -->
<g id="edge1_Node000001_Node000002" class="edge">
<title>Node1&#45;&gt;Node2</title>
<g id="a_edge1_Node000001_Node000002"><a xlink:title=" ">
<path fill="none" stroke="#63b8ff" d="M241.23,-165.17C250.66,-165.85 260.17,-166.54 269.57,-167.22"/>
<polygon fill="#63b8ff" stroke="#63b8ff" points="269.49,-170.72 279.71,-167.95 269.99,-163.74 269.49,-170.72"/>
</a>
</g>
</g>
<!-- Node3 -->
<g id="Node000003" class="node">
<title>Node3</title>
<g id="a_Node000003"><a xlink:href="../../d6/d6f/classNetworkManager.html#a50e4f0f235f999ccac9a2848c14433c6" target="_top" xlink:title=" ">
<polygon fill="white" stroke="#666666" points="493,-148 277,-148 277,-129 493,-129 493,-148"/>
<text text-anchor="middle" x="385" y="-136" font-family="Helvetica,sans-Serif" font-size="10.00">NetworkManager::sendMarkerMoveState</text>
</a>
</g>
</g>
<!-- Node1&#45;&gt;Node3 -->
<g id="edge2_Node000001_Node000003" class="edge">
<title>Node1&#45;&gt;Node3</title>
<g id="a_edge2_Node000001_Node000003"><a xlink:title=" ">
<path fill="none" stroke="#63b8ff" d="M241.23,-148.29C249.69,-147.71 258.21,-147.13 266.66,-146.55"/>
<polygon fill="#63b8ff" stroke="#63b8ff" points="267.17,-150.02 276.91,-145.84 266.7,-143.04 267.17,-150.02"/>
</a>
</g>
</g>
<!-- Node4 -->
<g id="Node000004" class="node">
<title>Node4</title>
<g id="a_Node000004"><a xlink:href="../../d6/d6f/classNetworkManager.html#aeb0d7937d1d825d09dc8c7b13e35a962" target="_top" xlink:title=" ">
<polygon fill="white" stroke="#666666" points="760.5,-204 545.5,-204 545.5,-185 760.5,-185 760.5,-204"/>
<text text-anchor="middle" x="653" y="-192" font-family="Helvetica,sans-Serif" font-size="10.00">NetworkManager::broadcastGameFrame</text>
</a>
</g>
</g>
<!-- Node3&#45;&gt;Node4 -->
<g id="edge3_Node000003_Node000004" class="edge">
<title>Node3&#45;&gt;Node4</title>
<g id="a_edge3_Node000003_Node000004"><a xlink:title=" ">
<path fill="none" stroke="#63b8ff" d="M442.75,-148C459.01,-150.88 476.74,-154.17 493,-157.5 530.33,-165.15 572.3,-174.97 603.75,-182.57"/>
<polygon fill="#63b8ff" stroke="#63b8ff" points="603.03,-186 613.57,-184.96 604.68,-179.2 603.03,-186"/>
</a>
</g>
</g>
<!-- Node6 -->
<g id="Node000006" class="node">
<title>Node6</title>
<g id="a_Node000006"><a xlink:href="../../d6/d6f/classNetworkManager.html#ae2eab0e91a7b37d26c273e4b0319a21c" target="_top" xlink:title=" ">
<polygon fill="white" stroke="#666666" points="777,-130 529,-130 529,-111 777,-111 777,-130"/>
<text text-anchor="middle" x="653" y="-118" font-family="Helvetica,sans-Serif" font-size="10.00">NetworkManager::buildMarkerMoveStateFrame</text>
</a>
</g>
</g>
<!-- Node3&#45;&gt;Node6 -->
<g id="edge5_Node000003_Node000006" class="edge">
<title>Node3&#45;&gt;Node6</title>
<g id="a_edge5_Node000003_Node000006"><a xlink:title=" ">
<path fill="none" stroke="#63b8ff" d="M493.04,-131.26C501.45,-130.69 510,-130.11 518.55,-129.53"/>
<polygon fill="#63b8ff" stroke="#63b8ff" points="518.84,-133.02 528.58,-128.85 518.36,-126.04 518.84,-133.02"/>
</a>
</g>
</g>
<!-- Node5 -->
<g id="Node000005" class="node">
<title>Node5</title>
<g id="a_Node000005"><a xlink:href="../../d6/d6f/classNetworkManager.html#a8f97d83ec35ea68c1e37d6837c1c8b4c" target="_top" xlink:title=" ">
<polygon fill="white" stroke="#666666" points="983,-241 813,-241 813,-222 983,-222 983,-241"/>
<text text-anchor="middle" x="898" y="-229" font-family="Helvetica,sans-Serif" font-size="10.00">NetworkManager::sendGameTo</text>
</a>
</g>
</g>
<!-- Node4&#45;&gt;Node5 -->
<g id="edge4_Node000004_Node000005" class="edge">
<title>Node4&#45;&gt;Node5</title>
<g id="a_edge4_Node000004_Node000005"><a xlink:title=" ">
<path fill="none" stroke="#63b8ff" d="M716.58,-204.03C749.47,-209.04 789.97,-215.2 824.25,-220.42"/>
<polygon fill="#63b8ff" stroke="#63b8ff" points="823.8,-223.89 834.21,-221.94 824.85,-216.97 823.8,-223.89"/>
</a>
</g>
</g>
<!-- Node7 -->
<g id="Node000007" class="node">
<title>Node7</title>
<g id="a_Node000007"><a xlink:href="../../d6/d6f/classNetworkManager.html#a1ca85e76187f45d46596a1d04d713f0f" target="_top" xlink:title=" ">
<polygon fill="white" stroke="#666666" points="968.5,-204 827.5,-204 827.5,-185 968.5,-185 968.5,-204"/>
<text text-anchor="middle" x="898" y="-192" font-family="Helvetica,sans-Serif" font-size="10.00">NetworkManager::nowMs</text>
</a>
</g>
</g>
<!-- Node6&#45;&gt;Node7 -->
<g id="edge6_Node000006_Node000007" class="edge">
<title>Node6&#45;&gt;Node7</title>
<g id="a_edge6_Node000006_Node000007"><a xlink:title=" ">
<path fill="none" stroke="#63b8ff" d="M677.94,-130.01C708.79,-142.02 764.27,-162.76 813,-176.5 820.86,-178.72 829.2,-180.81 837.45,-182.73"/>
<polygon fill="#63b8ff" stroke="#63b8ff" points="836.91,-186.19 847.44,-184.98 838.45,-179.36 836.91,-186.19"/>
</a>
</g>
</g>
<!-- Node8 -->
<g id="Node000008" class="node">
<title>Node8</title>
<g id="a_Node000008"><a xlink:href="../../db/d4b/classSerializer.html#ac0767e8086f1a9879ba76d1576b7e558" target="_top" xlink:title=" ">
<polygon fill="white" stroke="#666666" points="971,-167 825,-167 825,-148 971,-148 971,-167"/>
<text text-anchor="middle" x="898" y="-155" font-family="Helvetica,sans-Serif" font-size="10.00">Serializer::serializeMoving</text>
</a>
</g>
</g>
<!-- Node6&#45;&gt;Node8 -->
<g id="edge7_Node000006_Node000008" class="edge">
<title>Node6&#45;&gt;Node8</title>
<g id="a_edge7_Node000006_Node000008"><a xlink:title=" ">
<path fill="none" stroke="#63b8ff" d="M716.58,-130.03C749.47,-135.04 789.97,-141.2 824.25,-146.42"/>
<polygon fill="#63b8ff" stroke="#63b8ff" points="823.8,-149.89 834.21,-147.94 824.85,-142.97 823.8,-149.89"/>
</a>
</g>
</g>
<!-- Node10 -->
<g id="Node000010" class="node">
<title>Node10</title>
<g id="a_Node000010"><a xlink:href="../../db/d4b/classSerializer.html#a9552a2e71fe480af903507fb148c8964" target="_top" xlink:title=" ">
<polygon fill="white" stroke="#666666" points="972.5,-130 823.5,-130 823.5,-111 972.5,-111 972.5,-130"/>
<text text-anchor="middle" x="898" y="-118" font-family="Helvetica,sans-Serif" font-size="10.00">Serializer::serializePosition</text>
</a>
</g>
</g>
<!-- Node6&#45;&gt;Node10 -->
<g id="edge9_Node000006_Node000010" class="edge">
<title>Node6&#45;&gt;Node10</title>
<g id="a_edge9_Node000006_Node000010"><a xlink:title=" ">
<path fill="none" stroke="#63b8ff" d="M777.28,-120.5C789.46,-120.5 801.61,-120.5 813.25,-120.5"/>
<polygon fill="#63b8ff" stroke="#63b8ff" points="813.33,-124 823.33,-120.5 813.33,-117 813.33,-124"/>
</a>
</g>
</g>
<!-- Node12 -->
<g id="Node000012" class="node">
<title>Node12</title>
<g id="a_Node000012"><a xlink:href="../../db/d4b/classSerializer.html#ac0cbc3ff6cc924221db1eebb6bb6b33b" target="_top" xlink:title=" ">
<polygon fill="white" stroke="#666666" points="969,-93 827,-93 827,-74 969,-74 969,-93"/>
<text text-anchor="middle" x="898" y="-81" font-family="Helvetica,sans-Serif" font-size="10.00">Serializer::serializeUInt32</text>
</a>
</g>
</g>
<!-- Node6&#45;&gt;Node12 -->
<g id="edge11_Node000006_Node000012" class="edge">
<title>Node6&#45;&gt;Node12</title>
<g id="a_edge11_Node000006_Node000012"><a xlink:title=" ">
<path fill="none" stroke="#63b8ff" d="M716.58,-110.97C749.47,-105.96 789.97,-99.8 824.25,-94.58"/>
<polygon fill="#63b8ff" stroke="#63b8ff" points="824.85,-98.03 834.21,-93.06 823.8,-91.11 824.85,-98.03"/>
</a>
</g>
</g>
<!-- Node13 -->
<g id="Node000013" class="node">
<title>Node13</title>
<g id="a_Node000013"><a xlink:href="../../db/d4b/classSerializer.html#a60889622ee4e36ea28a284e99bbdf4e5" target="_top" xlink:title=" ">
<polygon fill="white" stroke="#666666" points="969,-56 827,-56 827,-37 969,-37 969,-56"/>
<text text-anchor="middle" x="898" y="-44" font-family="Helvetica,sans-Serif" font-size="10.00">Serializer::serializeUInt64</text>
</a>
</g>
</g>
<!-- Node6&#45;&gt;Node13 -->
<g id="edge12_Node000006_Node000013" class="edge">
<title>Node6&#45;&gt;Node13</title>
<g id="a_edge12_Node000006_Node000013"><a xlink:title=" ">
<path fill="none" stroke="#63b8ff" d="M678.79,-110.97C709.84,-99.25 764.83,-79.23 813,-65.5 821.87,-62.97 831.34,-60.56 840.61,-58.35"/>
<polygon fill="#63b8ff" stroke="#63b8ff" points="841.6,-61.71 850.55,-56.04 840.02,-54.9 841.6,-61.71"/>
</a>
</g>
</g>
<!-- Node14 -->
<g id="Node000014" class="node">
<title>Node14</title>
<g id="a_Node000014"><a xlink:href="../../db/d4b/classSerializer.html#a3c3d58eaacc5f3c6f19cfde75424e9cc" target="_top" xlink:title=" ">
<polygon fill="white" stroke="#666666" points="966,-19 830,-19 830,0 966,0 966,-19"/>
<text text-anchor="middle" x="898" y="-7" font-family="Helvetica,sans-Serif" font-size="10.00">Serializer::serializeUInt8</text>
</a>
</g>
</g>
<!-- Node6&#45;&gt;Node14 -->
<g id="edge13_Node000006_Node000014" class="edge">
<title>Node6&#45;&gt;Node14</title>
<g id="a_edge13_Node000006_Node000014"><a xlink:title=" ">
<path fill="none" stroke="#63b8ff" d="M667.32,-110.9C693.79,-92.27 755.4,-51.07 813,-28.5 819.45,-25.97 826.32,-23.73 833.25,-21.77"/>
<polygon fill="#63b8ff" stroke="#63b8ff" points="834.63,-25.02 843.39,-19.08 832.83,-18.26 834.63,-25.02"/>
</a>
</g>
</g>
<!-- Node9 -->
<g id="Node000009" class="node">
<title>Node9</title>
<g id="a_Node000009"><a xlink:href="../../db/d4b/classSerializer.html#a2a407c3a379b680296ee190ed625f05f" target="_top" xlink:title=" ">
<polygon fill="white" stroke="#666666" points="1151.5,-167 1020.5,-167 1020.5,-148 1151.5,-148 1151.5,-167"/>
<text text-anchor="middle" x="1086" y="-155" font-family="Helvetica,sans-Serif" font-size="10.00">Serializer::serializeBool</text>
</a>
</g>
</g>
<!-- Node8&#45;&gt;Node9 -->
<g id="edge8_Node000008_Node000009" class="edge">
<title>Node8&#45;&gt;Node9</title>
<g id="a_edge8_Node000008_Node000009"><a xlink:title=" ">
<path fill="none" stroke="#63b8ff" d="M971.18,-157.5C983.99,-157.5 997.36,-157.5 1010.24,-157.5"/>
<polygon fill="#63b8ff" stroke="#63b8ff" points="1010.45,-161 1020.45,-157.5 1010.45,-154 1010.45,-161"/>
</a>
</g>
</g>
<!-- Node11 -->
<g id="Node000011" class="node">
<title>Node11</title>
<g id="a_Node000011"><a xlink:href="../../db/d4b/classSerializer.html#a92ffe65857abd6eea6a393056a9bb533" target="_top" xlink:title=" ">
<polygon fill="white" stroke="#666666" points="1153,-130 1019,-130 1019,-111 1153,-111 1153,-130"/>
<text text-anchor="middle" x="1086" y="-118" font-family="Helvetica,sans-Serif" font-size="10.00">Serializer::serializeFloat</text>
</a>
</g>
</g>
<!-- Node10&#45;&gt;Node11 -->
<g id="edge10_Node000010_Node000011" class="edge">
<title>Node10&#45;&gt;Node11</title>
<g id="a_edge10_Node000010_Node000011"><a xlink:title=" ">
<path fill="none" stroke="#63b8ff" d="M972.51,-120.5C984.49,-120.5 996.92,-120.5 1008.96,-120.5"/>
<polygon fill="#63b8ff" stroke="#63b8ff" points="1008.96,-124 1018.96,-120.5 1008.96,-117 1008.96,-124"/>
</a>
</g>
</g>
</g>
</svg>
