<?xml version="1.0" encoding="UTF-8" standalone="no"?>
<!DOCTYPE svg PUBLIC "-//W3C//DTD SVG 1.1//EN"
 "http://www.w3.org/Graphics/SVG/1.1/DTD/svg11.dtd">
<!-- Generated by graphviz version 2.43.0 (0)
 -->
<!-- Title: NetworkManager::decodeRawNotesBuffer Pages: 1 -->
<svg width="457pt" height="101pt"
 viewBox="0.00 0.00 457.00 101.00" xmlns="http://www.w3.org/2000/svg" xmlns:xlink="http://www.w3.org/1999/xlink">
<g id="graph0" class="graph" transform="scale(1 1) rotate(0) translate(4 97)">
<title>NetworkManager::decodeRawNotesBuffer</title>
<!-- Node1 -->
<g id="Node000001" class="node">
<title>Node1</title>
<g id="a_Node000001"><a xlink:title=" ">
<polygon fill="#999999" stroke="#666666" points="221,-56 0,-56 0,-37 221,-37 221,-56"/>
<text text-anchor="middle" x="110.5" y="-44" font-family="Helvetica,sans-Serif" font-size="10.00">NetworkManager::decodeRawNotesBuffer</text>
</a>
</g>
</g>
<!-- Node2 -->
<g id="Node000002" class="node">
<title>Node2</title>
<g id="a_Node000002"><a xlink:href="../../d5/d64/namespacemsg.html#ad0d441d4fd6757bd6ae4637c3eb2409e" target="_top" xlink:title=" ">
<polygon fill="white" stroke="#666666" points="407,-93 299,-93 299,-74 407,-74 407,-93"/>
<text text-anchor="middle" x="353" y="-81" font-family="Helvetica,sans-Serif" font-size="10.00">msg::DCtypeString</text>
</a>
</g>
</g>
<!-- Node1&#45;&gt;Node2 -->
<g id="edge1_Node000001_Node000002" class="edge">
<title>Node1&#45;&gt;Node2</title>
<g id="a_edge1_Node000001_Node000002"><a xlink:title=" ">
<path fill="none" stroke="#63b8ff" d="M173.43,-56.03C208.78,-61.47 252.99,-68.27 288.57,-73.74"/>
<polygon fill="#63b8ff" stroke="#63b8ff" points="288.43,-77.26 298.84,-75.32 289.49,-70.34 288.43,-77.26"/>
</a>
</g>
</g>
<!-- Node3 -->
<g id="Node000003" class="node">
<title>Node3</title>
<g id="a_Node000003"><a xlink:href="../../d6/d6f/classNetworkManager.html#aed1ae9bdd229ea45245fc0b540187779" target="_top" xlink:title=" ">
<polygon fill="white" stroke="#666666" points="449,-56 257,-56 257,-37 449,-37 449,-56"/>
<text text-anchor="middle" x="353" y="-44" font-family="Helvetica,sans-Serif" font-size="10.00">NetworkManager::ensureRemaining</text>
</a>
</g>
</g>
<!-- Node1&#45;&gt;Node3 -->
<g id="edge2_Node000001_Node000003" class="edge">
<title>Node1&#45;&gt;Node3</title>
<g id="a_edge2_Node000001_Node000003"><a xlink:title=" ">
<path fill="none" stroke="#63b8ff" d="M221.19,-46.5C229.65,-46.5 238.17,-46.5 246.6,-46.5"/>
<polygon fill="#63b8ff" stroke="#63b8ff" points="246.82,-50 256.82,-46.5 246.82,-43 246.82,-50"/>
</a>
</g>
</g>
<!-- Node4 -->
<g id="Node000004" class="node">
<title>Node4</title>
<g id="a_Node000004"><a xlink:href="../../db/d67/classLogger.html#aebb248e608f8e2724de20b482cb2a15f" target="_top" xlink:title=" ">
<polygon fill="white" stroke="#666666" points="401.5,-19 304.5,-19 304.5,0 401.5,0 401.5,-19"/>
<text text-anchor="middle" x="353" y="-7" font-family="Helvetica,sans-Serif" font-size="10.00">Logger::instance</text>
</a>
</g>
</g>
<!-- Node1&#45;&gt;Node4 -->
<g id="edge3_Node000001_Node000004" class="edge">
<title>Node1&#45;&gt;Node4</title>
<g id="a_edge3_Node000001_Node000004"><a xlink:title=" ">
<path fill="none" stroke="#63b8ff" d="M173.43,-36.97C210.71,-31.24 257.85,-23.99 294.33,-18.37"/>
<polygon fill="#63b8ff" stroke="#63b8ff" points="294.97,-21.82 304.32,-16.84 293.91,-14.9 294.97,-21.82"/>
</a>
</g>
</g>
</g>
</svg>
