<?xml version="1.0" encoding="UTF-8" standalone="no"?>
<!DOCTYPE svg PUBLIC "-//W3C//DTD SVG 1.1//EN"
 "http://www.w3.org/Graphics/SVG/1.1/DTD/svg11.dtd">
<!-- Generated by graphviz version 2.43.0 (0)
 -->
<!-- Title: NetworkManager::sendFog Pages: 1 -->
<svg width="782pt" height="212pt"
 viewBox="0.00 0.00 782.00 212.00" xmlns="http://www.w3.org/2000/svg" xmlns:xlink="http://www.w3.org/1999/xlink">
<g id="graph0" class="graph" transform="scale(1 1) rotate(0) translate(4 208)">
<title>NetworkManager::sendFog</title>
<!-- Node1 -->
<g id="Node000001" class="node">
<title>Node1</title>
<g id="a_Node000001"><a xlink:title=" ">
<polygon fill="#999999" stroke="#666666" points="147,-129 0,-129 0,-110 147,-110 147,-129"/>
<text text-anchor="middle" x="73.5" y="-117" font-family="Helvetica,sans-Serif" font-size="10.00">NetworkManager::sendFog</text>
</a>
</g>
</g>
<!-- Node2 -->
<g id="Node000002" class="node">
<title>Node2</title>
<g id="a_Node000002"><a xlink:href="../../d6/d6f/classNetworkManager.html#aeb0d7937d1d825d09dc8c7b13e35a962" target="_top" xlink:title=" ">
<polygon fill="white" stroke="#666666" points="398,-176 183,-176 183,-157 398,-157 398,-176"/>
<text text-anchor="middle" x="290.5" y="-164" font-family="Helvetica,sans-Serif" font-size="10.00">NetworkManager::broadcastGameFrame</text>
</a>
</g>
</g>
<!-- Node1&#45;&gt;Node2 -->
<g id="edge1_Node000001_Node000002" class="edge">
<title>Node1&#45;&gt;Node2</title>
<g id="a_edge1_Node000001_Node000002"><a xlink:title=" ">
<path fill="none" stroke="#63b8ff" d="M118.01,-129.01C151.99,-136.44 199.39,-146.8 235.75,-154.75"/>
<polygon fill="#63b8ff" stroke="#63b8ff" points="235.17,-158.21 245.69,-156.92 236.67,-151.37 235.17,-158.21"/>
</a>
</g>
</g>
<!-- Node4 -->
<g id="Node000004" class="node">
<title>Node4</title>
<g id="a_Node000004"><a xlink:href="../../d6/d6f/classNetworkManager.html#a0aadf47f716f74e1fa0cf810715bedc2" target="_top" xlink:title=" ">
<polygon fill="white" stroke="#666666" points="396,-111 185,-111 185,-92 396,-92 396,-111"/>
<text text-anchor="middle" x="290.5" y="-99" font-family="Helvetica,sans-Serif" font-size="10.00">NetworkManager::buildFogCreateFrame</text>
</a>
</g>
</g>
<!-- Node1&#45;&gt;Node4 -->
<g id="edge3_Node000001_Node000004" class="edge">
<title>Node1&#45;&gt;Node4</title>
<g id="a_edge3_Node000001_Node000004"><a xlink:title=" ">
<path fill="none" stroke="#63b8ff" d="M147.29,-113.41C156.15,-112.66 165.36,-111.89 174.64,-111.12"/>
<polygon fill="#63b8ff" stroke="#63b8ff" points="175.05,-114.59 184.73,-110.27 174.47,-107.62 175.05,-114.59"/>
</a>
</g>
</g>
<!-- Node3 -->
<g id="Node000003" class="node">
<title>Node3</title>
<g id="a_Node000003"><a xlink:href="../../d6/d6f/classNetworkManager.html#a8f97d83ec35ea68c1e37d6837c1c8b4c" target="_top" xlink:title=" ">
<polygon fill="white" stroke="#666666" points="604,-204 434,-204 434,-185 604,-185 604,-204"/>
<text text-anchor="middle" x="519" y="-192" font-family="Helvetica,sans-Serif" font-size="10.00">NetworkManager::sendGameTo</text>
</a>
</g>
</g>
<!-- Node2&#45;&gt;Node3 -->
<g id="edge2_Node000002_Node000003" class="edge">
<title>Node2&#45;&gt;Node3</title>
<g id="a_edge2_Node000002_Node000003"><a xlink:title=" ">
<path fill="none" stroke="#63b8ff" d="M368.5,-176.02C388.56,-178.5 410.31,-181.19 430.86,-183.73"/>
<polygon fill="#63b8ff" stroke="#63b8ff" points="430.48,-187.21 440.83,-184.96 431.33,-180.26 430.48,-187.21"/>
</a>
</g>
</g>
<!-- Node5 -->
<g id="Node000005" class="node">
<title>Node5</title>
<g id="a_Node000005"><a xlink:href="../../db/d4b/classSerializer.html#a9552a2e71fe480af903507fb148c8964" target="_top" xlink:title=" ">
<polygon fill="white" stroke="#666666" points="593.5,-167 444.5,-167 444.5,-148 593.5,-148 593.5,-167"/>
<text text-anchor="middle" x="519" y="-155" font-family="Helvetica,sans-Serif" font-size="10.00">Serializer::serializePosition</text>
</a>
</g>
</g>
<!-- Node4&#45;&gt;Node5 -->
<g id="edge4_Node000004_Node000005" class="edge">
<title>Node4&#45;&gt;Node5</title>
<g id="a_edge4_Node000004_Node000005"><a xlink:title=" ">
<path fill="none" stroke="#63b8ff" d="M325.35,-111.03C354.15,-119.02 396.66,-130.53 434,-139.5 442.84,-141.62 452.23,-143.76 461.41,-145.77"/>
<polygon fill="#63b8ff" stroke="#63b8ff" points="460.74,-149.21 471.25,-147.91 462.22,-142.37 460.74,-149.21"/>
</a>
</g>
</g>
<!-- Node7 -->
<g id="Node000007" class="node">
<title>Node7</title>
<g id="a_Node000007"><a xlink:href="../../db/d4b/classSerializer.html#a6be006b0cf99a37c2146723395013b76" target="_top" xlink:title=" ">
<polygon fill="white" stroke="#666666" points="584,-130 454,-130 454,-111 584,-111 584,-130"/>
<text text-anchor="middle" x="519" y="-118" font-family="Helvetica,sans-Serif" font-size="10.00">Serializer::serializeSize</text>
</a>
</g>
</g>
<!-- Node4&#45;&gt;Node7 -->
<g id="edge6_Node000004_Node000007" class="edge">
<title>Node4&#45;&gt;Node7</title>
<g id="a_edge6_Node000004_Node000007"><a xlink:title=" ">
<path fill="none" stroke="#63b8ff" d="M396.13,-110.28C412.14,-111.62 428.38,-112.98 443.57,-114.26"/>
<polygon fill="#63b8ff" stroke="#63b8ff" points="443.63,-117.77 453.89,-115.12 444.22,-110.8 443.63,-117.77"/>
</a>
</g>
</g>
<!-- Node8 -->
<g id="Node000008" class="node">
<title>Node8</title>
<g id="a_Node000008"><a xlink:href="../../db/d4b/classSerializer.html#a60889622ee4e36ea28a284e99bbdf4e5" target="_top" xlink:title=" ">
<polygon fill="white" stroke="#666666" points="590,-93 448,-93 448,-74 590,-74 590,-93"/>
<text text-anchor="middle" x="519" y="-81" font-family="Helvetica,sans-Serif" font-size="10.00">Serializer::serializeUInt64</text>
</a>
</g>
</g>
<!-- Node4&#45;&gt;Node8 -->
<g id="edge8_Node000004_Node000008" class="edge">
<title>Node4&#45;&gt;Node8</title>
<g id="a_edge8_Node000004_Node000008"><a xlink:title=" ">
<path fill="none" stroke="#63b8ff" d="M396.13,-93.18C410.08,-92.08 424.2,-90.95 437.65,-89.89"/>
<polygon fill="#63b8ff" stroke="#63b8ff" points="438.09,-93.36 447.78,-89.08 437.54,-86.38 438.09,-93.36"/>
</a>
</g>
</g>
<!-- Node9 -->
<g id="Node000009" class="node">
<title>Node9</title>
<g id="a_Node000009"><a xlink:href="../../db/d4b/classSerializer.html#a3c3d58eaacc5f3c6f19cfde75424e9cc" target="_top" xlink:title=" ">
<polygon fill="white" stroke="#666666" points="587,-56 451,-56 451,-37 587,-37 587,-56"/>
<text text-anchor="middle" x="519" y="-44" font-family="Helvetica,sans-Serif" font-size="10.00">Serializer::serializeUInt8</text>
</a>
</g>
</g>
<!-- Node4&#45;&gt;Node9 -->
<g id="edge9_Node000004_Node000009" class="edge">
<title>Node4&#45;&gt;Node9</title>
<g id="a_edge9_Node000004_Node000009"><a xlink:title=" ">
<path fill="none" stroke="#63b8ff" d="M328.05,-92C356.8,-84.59 397.89,-74.14 434,-65.5 443.92,-63.12 454.53,-60.67 464.74,-58.34"/>
<polygon fill="#63b8ff" stroke="#63b8ff" points="465.81,-61.68 474.79,-56.06 464.26,-54.86 465.81,-61.68"/>
</a>
</g>
</g>
<!-- Node10 -->
<g id="Node000010" class="node">
<title>Node10</title>
<g id="a_Node000010"><a xlink:href="../../db/d4b/classSerializer.html#adf940baab7d143611e19fb957725a80a" target="_top" xlink:title=" ">
<polygon fill="white" stroke="#666666" points="595,-19 443,-19 443,0 595,0 595,-19"/>
<text text-anchor="middle" x="519" y="-7" font-family="Helvetica,sans-Serif" font-size="10.00">Serializer::serializeVisibility</text>
</a>
</g>
</g>
<!-- Node4&#45;&gt;Node10 -->
<g id="edge10_Node000004_Node000010" class="edge">
<title>Node4&#45;&gt;Node10</title>
<g id="a_edge10_Node000004_Node000010"><a xlink:title=" ">
<path fill="none" stroke="#63b8ff" d="M307.15,-91.82C332.77,-76.35 385.66,-46.03 434,-28.5 441.21,-25.88 448.91,-23.55 456.61,-21.5"/>
<polygon fill="#63b8ff" stroke="#63b8ff" points="457.49,-24.89 466.33,-19.04 455.77,-18.1 457.49,-24.89"/>
</a>
</g>
</g>
<!-- Node6 -->
<g id="Node000006" class="node">
<title>Node6</title>
<g id="a_Node000006"><a xlink:href="../../db/d4b/classSerializer.html#a92ffe65857abd6eea6a393056a9bb533" target="_top" xlink:title=" ">
<polygon fill="white" stroke="#666666" points="774,-148 640,-148 640,-129 774,-129 774,-148"/>
<text text-anchor="middle" x="707" y="-136" font-family="Helvetica,sans-Serif" font-size="10.00">Serializer::serializeFloat</text>
</a>
</g>
</g>
<!-- Node5&#45;&gt;Node6 -->
<g id="edge5_Node000005_Node000006" class="edge">
<title>Node5&#45;&gt;Node6</title>
<g id="a_edge5_Node000005_Node000006"><a xlink:title=" ">
<path fill="none" stroke="#63b8ff" d="M593.51,-149.99C605.49,-148.77 617.92,-147.5 629.96,-146.27"/>
<polygon fill="#63b8ff" stroke="#63b8ff" points="630.37,-149.74 639.96,-145.25 629.66,-142.78 630.37,-149.74"/>
</a>
</g>
</g>
<!-- Node7&#45;&gt;Node6 -->
<g id="edge7_Node000007_Node000006" class="edge">
<title>Node7&#45;&gt;Node6</title>
<g id="a_edge7_Node000007_Node000006"><a xlink:title=" ">
<path fill="none" stroke="#63b8ff" d="M584.01,-126.69C598.7,-128.12 614.45,-129.64 629.6,-131.11"/>
<polygon fill="#63b8ff" stroke="#63b8ff" points="629.68,-134.63 639.97,-132.11 630.36,-127.66 629.68,-134.63"/>
</a>
</g>
</g>
<!-- Node11 -->
<g id="Node000011" class="node">
<title>Node11</title>
<g id="a_Node000011"><a xlink:href="../../db/d4b/classSerializer.html#a2a407c3a379b680296ee190ed625f05f" target="_top" xlink:title=" ">
<polygon fill="white" stroke="#666666" points="772.5,-19 641.5,-19 641.5,0 772.5,0 772.5,-19"/>
<text text-anchor="middle" x="707" y="-7" font-family="Helvetica,sans-Serif" font-size="10.00">Serializer::serializeBool</text>
</a>
</g>
</g>
<!-- Node10&#45;&gt;Node11 -->
<g id="edge11_Node000010_Node000011" class="edge">
<title>Node10&#45;&gt;Node11</title>
<g id="a_edge11_Node000010_Node000011"><a xlink:title=" ">
<path fill="none" stroke="#63b8ff" d="M595.12,-9.5C606.97,-9.5 619.23,-9.5 631.07,-9.5"/>
<polygon fill="#63b8ff" stroke="#63b8ff" points="631.36,-13 641.36,-9.5 631.36,-6 631.36,-13"/>
</a>
</g>
</g>
</g>
</svg>
