<?xml version="1.0" encoding="UTF-8" standalone="no"?>
<!DOCTYPE svg PUBLIC "-//W3C//DTD SVG 1.1//EN"
 "http://www.w3.org/Graphics/SVG/1.1/DTD/svg11.dtd">
<!-- Generated by graphviz version 2.43.0 (0)
 -->
<!-- Title: NetworkManager::buildMarkerMoveFrame Pages: 1 -->
<svg width="708pt" height="27pt"
 viewBox="0.00 0.00 708.00 27.00" xmlns="http://www.w3.org/2000/svg" xmlns:xlink="http://www.w3.org/1999/xlink">
<g id="graph0" class="graph" transform="scale(1 1) rotate(0) translate(4 23)">
<title>NetworkManager::buildMarkerMoveFrame</title>
<!-- Node1 -->
<g id="Node000001" class="node">
<title>Node1</title>
<g id="a_Node000001"><a xlink:title=" ">
<polygon fill="#999999" stroke="#666666" points="700,-19 478,-19 478,0 700,0 700,-19"/>
<text text-anchor="middle" x="589" y="-7" font-family="Helvetica,sans-Serif" font-size="10.00">NetworkManager::buildMarkerMoveFrame</text>
</a>
</g>
</g>
<!-- Node2 -->
<g id="Node000002" class="node">
<title>Node2</title>
<g id="a_Node000002"><a xlink:href="../../d6/d6f/classNetworkManager.html#a30523648225cb5f4e628c5daa19f4719" target="_top" xlink:title=" ">
<polygon fill="white" stroke="#666666" points="442,-19 251,-19 251,0 442,0 442,-19"/>
<text text-anchor="middle" x="346.5" y="-7" font-family="Helvetica,sans-Serif" font-size="10.00">NetworkManager::sendMarkerMove</text>
</a>
</g>
</g>
<!-- Node1&#45;&gt;Node2 -->
<g id="edge1_Node000001_Node000002" class="edge">
<title>Node1&#45;&gt;Node2</title>
<g id="a_edge1_Node000001_Node000002"><a xlink:title=" ">
<path fill="none" stroke="#63b8ff" d="M467.81,-9.5C459.16,-9.5 450.51,-9.5 442.04,-9.5"/>
<polygon fill="#63b8ff" stroke="#63b8ff" points="467.96,-13 477.96,-9.5 467.96,-6 467.96,-13"/>
</a>
</g>
</g>
<!-- Node3 -->
<g id="Node000003" class="node">
<title>Node3</title>
<g id="a_Node000003"><a xlink:href="../../d6/d6f/classNetworkManager.html#a2c3da3e8d0493153ac8dea2dcda3bfbd" target="_top" xlink:title=" ">
<polygon fill="white" stroke="#666666" points="215,-19 0,-19 0,0 215,0 215,-19"/>
<text text-anchor="middle" x="107.5" y="-7" font-family="Helvetica,sans-Serif" font-size="10.00">NetworkManager::broadcastMarkerMove</text>
</a>
</g>
</g>
<!-- Node2&#45;&gt;Node3 -->
<g id="edge2_Node000002_Node000003" class="edge">
<title>Node2&#45;&gt;Node3</title>
<g id="a_edge2_Node000002_Node000003"><a xlink:title=" ">
<path fill="none" stroke="#63b8ff" d="M240.57,-9.5C232.12,-9.5 223.58,-9.5 215.12,-9.5"/>
<polygon fill="#63b8ff" stroke="#63b8ff" points="240.81,-13 250.81,-9.5 240.81,-6 240.81,-13"/>
</a>
</g>
</g>
</g>
</svg>
