<?xml version="1.0" encoding="UTF-8" standalone="no"?>
<!DOCTYPE svg PUBLIC "-//W3C//DTD SVG 1.1//EN"
 "http://www.w3.org/Graphics/SVG/1.1/DTD/svg11.dtd">
<!-- Generated by graphviz version 2.43.0 (0)
 -->
<!-- Title: NetworkManager::buildSnapshotBoardFrame Pages: 1 -->
<svg width="885pt" height="64pt"
 viewBox="0.00 0.00 885.00 64.00" xmlns="http://www.w3.org/2000/svg" xmlns:xlink="http://www.w3.org/1999/xlink">
<g id="graph0" class="graph" transform="scale(1 1) rotate(0) translate(4 60)">
<title>NetworkManager::buildSnapshotBoardFrame</title>
<!-- Node1 -->
<g id="Node000001" class="node">
<title>Node1</title>
<g id="a_Node000001"><a xlink:title=" ">
<polygon fill="#999999" stroke="#666666" points="877,-37 642,-37 642,-18 877,-18 877,-37"/>
<text text-anchor="middle" x="759.5" y="-25" font-family="Helvetica,sans-Serif" font-size="10.00">NetworkManager::buildSnapshotBoardFrame</text>
</a>
</g>
</g>
<!-- Node2 -->
<g id="Node000002" class="node">
<title>Node2</title>
<g id="a_Node000002"><a xlink:href="../../d6/d6f/classNetworkManager.html#a9faf2055aa0370adbffaa46b7f7181c1" target="_top" xlink:title=" ">
<polygon fill="white" stroke="#666666" points="606,-37 448,-37 448,-18 606,-18 606,-37"/>
<text text-anchor="middle" x="527" y="-25" font-family="Helvetica,sans-Serif" font-size="10.00">NetworkManager::sendBoard</text>
</a>
</g>
</g>
<!-- Node1&#45;&gt;Node2 -->
<g id="edge1_Node000001_Node000002" class="edge">
<title>Node1&#45;&gt;Node2</title>
<g id="a_edge1_Node000001_Node000002"><a xlink:title=" ">
<path fill="none" stroke="#63b8ff" d="M631.74,-27.5C623.11,-27.5 614.57,-27.5 606.31,-27.5"/>
<polygon fill="#63b8ff" stroke="#63b8ff" points="631.9,-31 641.9,-27.5 631.9,-24 631.9,-31"/>
</a>
</g>
</g>
<!-- Node3 -->
<g id="Node000003" class="node">
<title>Node3</title>
<g id="a_Node000003"><a xlink:href="../../d6/d6f/classNetworkManager.html#ac5104e38077637eeeab41e078fa51a5b" target="_top" xlink:title=" ">
<polygon fill="white" stroke="#666666" points="412,-56 200,-56 200,-37 412,-37 412,-56"/>
<text text-anchor="middle" x="306" y="-44" font-family="Helvetica,sans-Serif" font-size="10.00">NetworkManager::bootstrapPeerIfReady</text>
</a>
</g>
</g>
<!-- Node2&#45;&gt;Node3 -->
<g id="edge2_Node000002_Node000003" class="edge">
<title>Node2&#45;&gt;Node3</title>
<g id="a_edge2_Node000002_Node000003"><a xlink:title=" ">
<path fill="none" stroke="#63b8ff" d="M437.74,-35.16C429.35,-35.88 420.8,-36.63 412.27,-37.37"/>
<polygon fill="#63b8ff" stroke="#63b8ff" points="438.2,-38.63 447.86,-34.28 437.6,-31.66 438.2,-38.63"/>
</a>
</g>
</g>
<!-- Node5 -->
<g id="Node000005" class="node">
<title>Node5</title>
<g id="a_Node000005"><a xlink:href="../../d6/d6f/classNetworkManager.html#a8104f62e2e6c3197832dbfe7753853de" target="_top" xlink:title=" ">
<polygon fill="white" stroke="#666666" points="397.5,-19 214.5,-19 214.5,0 397.5,0 397.5,-19"/>
<text text-anchor="middle" x="306" y="-7" font-family="Helvetica,sans-Serif" font-size="10.00">NetworkManager::broadcastBoard</text>
</a>
</g>
</g>
<!-- Node2&#45;&gt;Node5 -->
<g id="edge4_Node000002_Node000005" class="edge">
<title>Node2&#45;&gt;Node5</title>
<g id="a_edge4_Node000002_Node000005"><a xlink:title=" ">
<path fill="none" stroke="#63b8ff" d="M437.87,-20.26C424.68,-19.17 411.06,-18.05 397.81,-16.96"/>
<polygon fill="#63b8ff" stroke="#63b8ff" points="437.61,-23.75 447.86,-21.08 438.18,-16.77 437.61,-23.75"/>
</a>
</g>
</g>
<!-- Node4 -->
<g id="Node000004" class="node">
<title>Node4</title>
<g id="a_Node000004"><a xlink:href="../../d6/d6f/classNetworkManager.html#a9211bd133aed2e5ec776b4d4308b30c4" target="_top" xlink:title=" ">
<polygon fill="white" stroke="#666666" points="164,-56 0,-56 0,-37 164,-37 164,-56"/>
<text text-anchor="middle" x="82" y="-44" font-family="Helvetica,sans-Serif" font-size="10.00">NetworkManager::drainEvents</text>
</a>
</g>
</g>
<!-- Node3&#45;&gt;Node4 -->
<g id="edge3_Node000003_Node000004" class="edge">
<title>Node3&#45;&gt;Node4</title>
<g id="a_edge3_Node000003_Node000004"><a xlink:title=" ">
<path fill="none" stroke="#63b8ff" d="M189.72,-46.5C181.1,-46.5 172.51,-46.5 164.16,-46.5"/>
<polygon fill="#63b8ff" stroke="#63b8ff" points="189.85,-50 199.85,-46.5 189.85,-43 189.85,-50"/>
</a>
</g>
</g>
</g>
</svg>
