<?xml version="1.0" encoding="UTF-8" standalone="no"?>
<!DOCTYPE svg PUBLIC "-//W3C//DTD SVG 1.1//EN"
 "http://www.w3.org/Graphics/SVG/1.1/DTD/svg11.dtd">
<!-- Generated by graphviz version 2.43.0 (0)
 -->
<!-- Title: NetworkManager::handleMarkerUpdate Pages: 1 -->
<svg width="720pt" height="64pt"
 viewBox="0.00 0.00 720.00 64.00" xmlns="http://www.w3.org/2000/svg" xmlns:xlink="http://www.w3.org/1999/xlink">
<g id="graph0" class="graph" transform="scale(1 1) rotate(0) translate(4 60)">
<title>NetworkManager::handleMarkerUpdate</title>
<!-- Node1 -->
<g id="Node000001" class="node">
<title>Node1</title>
<g id="a_Node000001"><a xlink:title=" ">
<polygon fill="#999999" stroke="#666666" points="712,-37 503,-37 503,-18 712,-18 712,-37"/>
<text text-anchor="middle" x="607.5" y="-25" font-family="Helvetica,sans-Serif" font-size="10.00">NetworkManager::handleMarkerUpdate</text>
</a>
</g>
</g>
<!-- Node2 -->
<g id="Node000002" class="node">
<title>Node2</title>
<g id="a_Node000002"><a xlink:href="../../d6/d6f/classNetworkManager.html#a53df93ad0cb0498c82f866a921e7b285" target="_top" xlink:title=" ">
<polygon fill="white" stroke="#666666" points="467,-37 246,-37 246,-18 467,-18 467,-37"/>
<text text-anchor="middle" x="356.5" y="-25" font-family="Helvetica,sans-Serif" font-size="10.00">NetworkManager::decodeRawGameBuffer</text>
</a>
</g>
</g>
<!-- Node1&#45;&gt;Node2 -->
<g id="edge1_Node000001_Node000002" class="edge">
<title>Node1&#45;&gt;Node2</title>
<g id="a_edge1_Node000001_Node000002"><a xlink:title=" ">
<path fill="none" stroke="#63b8ff" d="M492.47,-27.5C484.04,-27.5 475.55,-27.5 467.15,-27.5"/>
<polygon fill="#63b8ff" stroke="#63b8ff" points="492.7,-31 502.7,-27.5 492.7,-24 492.7,-31"/>
</a>
</g>
</g>
<!-- Node3 -->
<g id="Node000003" class="node">
<title>Node3</title>
<g id="a_Node000003"><a xlink:href="../../d6/d6f/classNetworkManager.html#ad3605b8b33fa44492458d0aaffb4dec8" target="_top" xlink:title=" ">
<polygon fill="white" stroke="#666666" points="200.5,-56 9.5,-56 9.5,-37 200.5,-37 200.5,-56"/>
<text text-anchor="middle" x="105" y="-44" font-family="Helvetica,sans-Serif" font-size="10.00">NetworkManager::drainInboundRaw</text>
</a>
</g>
</g>
<!-- Node2&#45;&gt;Node3 -->
<g id="edge2_Node000002_Node000003" class="edge">
<title>Node2&#45;&gt;Node3</title>
<g id="a_edge2_Node000002_Node000003"><a xlink:title=" ">
<path fill="none" stroke="#63b8ff" d="M235.45,-36.64C223.75,-37.53 212,-38.43 200.61,-39.3"/>
<polygon fill="#63b8ff" stroke="#63b8ff" points="236,-40.11 245.7,-35.86 235.47,-33.13 236,-40.11"/>
</a>
</g>
</g>
<!-- Node4 -->
<g id="Node000004" class="node">
<title>Node4</title>
<g id="a_Node000004"><a xlink:href="../../d6/d6f/classNetworkManager.html#a3289708df965193b6ec0287eb069b276" target="_top" xlink:title=" ">
<polygon fill="white" stroke="#666666" points="210,-19 0,-19 0,0 210,0 210,-19"/>
<text text-anchor="middle" x="105" y="-7" font-family="Helvetica,sans-Serif" font-size="10.00">NetworkManager::startRawDrainWorker</text>
</a>
</g>
</g>
<!-- Node2&#45;&gt;Node4 -->
<g id="edge3_Node000002_Node000004" class="edge">
<title>Node2&#45;&gt;Node4</title>
<g id="a_edge3_Node000002_Node000004"><a xlink:title=" ">
<path fill="none" stroke="#63b8ff" d="M235.46,-18.84C227.05,-18.23 218.61,-17.62 210.29,-17.02"/>
<polygon fill="#63b8ff" stroke="#63b8ff" points="235.48,-22.35 245.7,-19.58 235.98,-15.37 235.48,-22.35"/>
</a>
</g>
</g>
</g>
</svg>
