<?xml version="1.0" encoding="UTF-8" standalone="no"?>
<!DOCTYPE svg PUBLIC "-//W3C//DTD SVG 1.1//EN"
 "http://www.w3.org/Graphics/SVG/1.1/DTD/svg11.dtd">
<!-- Generated by graphviz version 2.43.0 (0)
 -->
<!-- Title: NetworkManager::sendGameTo Pages: 1 -->
<!--zoomable 397 -->

<svg id="main" version="1.1" xmlns="http://www.w3.org/2000/svg" xmlns:xlink="http://www.w3.org/1999/xlink" xml:space="preserve" onload="init(evt)">
<style type="text/css"><![CDATA[
.node, .edge {opacity: 0.7;}
.node.selected, .edge.selected {opacity: 1;}
.edge:hover path { stroke: red; }
.edge:hover polygon { stroke: red; fill: red; }
]]></style>

<defs>
  <circle id="rim" cx="0" cy="0" r="7"/>
  <circle id="rim2" cx="0" cy="0" r="3.5"/>
  <g id="zoomPlus">
    <use xlink:href="#rim" fill="#404040"><set attributeName="fill" to="#808080" begin="zoomplus.mouseover" end="zoomplus.mouseout"/></use>
    <path d="M-4,0h8M0,-4v8" fill="none" stroke="white" stroke-width="1.5" pointer-events="none"/>
  </g>
  <g id="zoomMin">
    <use xlink:href="#rim" fill="#404040"><set attributeName="fill" to="#808080" begin="zoomminus.mouseover" end="zoomminus.mouseout"/></use>
    <path d="M-4,0h8" fill="none" stroke="white" stroke-width="1.5" pointer-events="none"/>
  </g>
  <g id="arrowUp" transform="translate(30 24)">
    <use xlink:href="#rim"/>
    <path pointer-events="none" fill="none" stroke="white" stroke-width="1.5" d="M0,-3.0v7 M-2.5,-0.5L0,-3.0L2.5,-0.5"/>
  </g>
  <g id="arrowRight" transform="rotate(90) translate(36 -43)">
    <use xlink:href="#rim"/>
    <path pointer-events="none" fill="none" stroke="white" stroke-width="1.5" d="M0,-3.0v7 M-2.5,-0.5L0,-3.0L2.5,-0.5"/>
  </g>
  <g id="arrowDown" transform="rotate(180) translate(-30 -48)">
    <use xlink:href="#rim"/>
    <path pointer-events="none" fill="none" stroke="white" stroke-width="1.5" d="M0,-3.0v7 M-2.5,-0.5L0,-3.0L2.5,-0.5"/>
  </g>
  <g id="arrowLeft" transform="rotate(270) translate(-36 17)">
    <use xlink:href="#rim"/>
    <path pointer-events="none" fill="none" stroke="white" stroke-width="1.5" d="M0,-3.0v7 M-2.5,-0.5L0,-3.0L2.5,-0.5"/>
  </g>
  <g id="resetDef">
    <use xlink:href="#rim2" fill="#404040"><set attributeName="fill" to="#808080" begin="reset.mouseover" end="reset.mouseout"/></use>
  </g>
</defs>
<script type="application/ecmascript">
var viewWidth = 1158;
var viewHeight = 397;
var sectionId = 'dynsection-139';
</script>
<script type="application/ecmascript" xlink:href="../../svg.min.js"/>
<svg id="graph" class="graph">
<g id="viewport">
<title>NetworkManager::sendGameTo</title>
<!-- Node1 -->
<g id="Node000001" class="node">
<title>Node1</title>
<g id="a_Node000001"><a xlink:title=" ">
<polygon fill="#999999" stroke="#666666" points="1150,-259 980,-259 980,-240 1150,-240 1150,-259"/>
<text text-anchor="middle" x="1065" y="-247" font-family="Helvetica,sans-Serif" font-size="10.00">NetworkManager::sendGameTo</text>
</a>
</g>
</g>
<!-- Node2 -->
<g id="Node000002" class="node">
<title>Node2</title>
<g id="a_Node000002"><a xlink:href="../../d6/d6f/classNetworkManager.html#aeb0d7937d1d825d09dc8c7b13e35a962" target="_top" xlink:title=" ">
<polygon fill="white" stroke="#666666" points="944,-204 729,-204 729,-185 944,-185 944,-204"/>
<text text-anchor="middle" x="836.5" y="-192" font-family="Helvetica,sans-Serif" font-size="10.00">NetworkManager::broadcastGameFrame</text>
</a>
</g>
</g>
<!-- Node1&#45;&gt;Node2 -->
<g id="edge1_Node000001_Node000002" class="edge">
<title>Node1&#45;&gt;Node2</title>
<g id="a_edge1_Node000001_Node000002"><a xlink:title=" ">
<path fill="none" stroke="#63b8ff" d="M1014.96,-237.59C973.65,-227.56 915.32,-213.4 876.97,-204.09"/>
<polygon fill="#63b8ff" stroke="#63b8ff" points="1014.26,-241.02 1024.81,-239.98 1015.91,-234.22 1014.26,-241.02"/>
</a>
</g>
</g>
<!-- Node25 -->
<g id="Node000025" class="node">
<title>Node25</title>
<g id="a_Node000025"><a xlink:href="../../d6/d6f/classNetworkManager.html#ab54b0f1b56efebcaeaf9a34a0af6194c" target="_top" xlink:title=" ">
<polygon fill="white" stroke="#666666" points="935,-315 738,-315 738,-296 935,-296 935,-315"/>
<text text-anchor="middle" x="836.5" y="-303" font-family="Helvetica,sans-Serif" font-size="10.00">NetworkManager::sendImageChunks</text>
</a>
</g>
</g>
<!-- Node1&#45;&gt;Node25 -->
<g id="edge25_Node000001_Node000025" class="edge">
<title>Node1&#45;&gt;Node25</title>
<g id="a_edge25_Node000001_Node000025"><a xlink:title=" ">
<path fill="none" stroke="#63b8ff" d="M1015.39,-261.52C973.72,-271.82 914.48,-286.47 876.02,-295.98"/>
<polygon fill="#63b8ff" stroke="#63b8ff" points="1016.45,-264.86 1025.32,-259.06 1014.77,-258.07 1016.45,-264.86"/>
</a>
</g>
</g>
<!-- Node3 -->
<g id="Node000003" class="node">
<title>Node3</title>
<g id="a_Node000003"><a xlink:href="../../d6/d6f/classNetworkManager.html#a9faf2055aa0370adbffaa46b7f7181c1" target="_top" xlink:title=" ">
<polygon fill="white" stroke="#666666" points="664,-315 506,-315 506,-296 664,-296 664,-315"/>
<text text-anchor="middle" x="585" y="-303" font-family="Helvetica,sans-Serif" font-size="10.00">NetworkManager::sendBoard</text>
</a>
</g>
</g>
<!-- Node2&#45;&gt;Node3 -->
<g id="edge2_Node000002_Node000003" class="edge">
<title>Node2&#45;&gt;Node3</title>
<g id="a_edge2_Node000002_Node000003"><a xlink:title=" ">
<path fill="none" stroke="#63b8ff" d="M816.22,-210.57C790.05,-231.5 741.01,-267.63 693,-286.5 683.08,-290.4 672.33,-293.5 661.59,-295.97"/>
<polygon fill="#63b8ff" stroke="#63b8ff" points="818.63,-213.12 824.19,-204.1 814.22,-207.69 818.63,-213.12"/>
</a>
</g>
</g>
<!-- Node7 -->
<g id="Node000007" class="node">
<title>Node7</title>
<g id="a_Node000007"><a xlink:href="../../d6/d6f/classNetworkManager.html#aca07ad2cb1e034fe5ac1f6c88df2d7a0" target="_top" xlink:title=" ">
<polygon fill="white" stroke="#666666" points="658.5,-19 511.5,-19 511.5,0 658.5,0 658.5,-19"/>
<text text-anchor="middle" x="585" y="-7" font-family="Helvetica,sans-Serif" font-size="10.00">NetworkManager::sendFog</text>
</a>
</g>
</g>
<!-- Node2&#45;&gt;Node7 -->
<g id="edge6_Node000002_Node000007" class="edge">
<title>Node2&#45;&gt;Node7</title>
<g id="a_edge6_Node000002_Node000007"><a xlink:title=" ">
<path fill="none" stroke="#63b8ff" d="M825.73,-176.15C805.89,-140.89 757.26,-63.91 693,-27.5 682.51,-21.56 670.58,-17.46 658.58,-14.66"/>
<polygon fill="#63b8ff" stroke="#63b8ff" points="822.66,-177.85 830.55,-184.93 828.8,-174.48 822.66,-177.85"/>
</a>
</g>
</g>
<!-- Node9 -->
<g id="Node000009" class="node">
<title>Node9</title>
<g id="a_Node000009"><a xlink:href="../../d6/d6f/classNetworkManager.html#aad1e7e0b1f9199df8863180b8e52f962" target="_top" xlink:title=" ">
<polygon fill="white" stroke="#666666" points="674.5,-241 495.5,-241 495.5,-222 674.5,-222 674.5,-241"/>
<text text-anchor="middle" x="585" y="-229" font-family="Helvetica,sans-Serif" font-size="10.00">NetworkManager::sendFogDelete</text>
</a>
</g>
</g>
<!-- Node2&#45;&gt;Node9 -->
<g id="edge8_Node000002_Node000009" class="edge">
<title>Node2&#45;&gt;Node9</title>
<g id="a_edge8_Node000002_Node000009"><a xlink:title=" ">
<path fill="none" stroke="#63b8ff" d="M761.03,-205.54C725.86,-210.76 684.27,-216.93 650.47,-221.94"/>
<polygon fill="#63b8ff" stroke="#63b8ff" points="761.87,-208.96 771.25,-204.03 760.84,-202.03 761.87,-208.96"/>
</a>
</g>
</g>
<!-- Node11 -->
<g id="Node000011" class="node">
<title>Node11</title>
<g id="a_Node000011"><a xlink:href="../../d6/d6f/classNetworkManager.html#a3684a5a4e823449e8006c323faf54f8a" target="_top" xlink:title=" ">
<polygon fill="white" stroke="#666666" points="676,-204 494,-204 494,-185 676,-185 676,-204"/>
<text text-anchor="middle" x="585" y="-192" font-family="Helvetica,sans-Serif" font-size="10.00">NetworkManager::sendFogUpdate</text>
</a>
</g>
</g>
<!-- Node2&#45;&gt;Node11 -->
<g id="edge10_Node000002_Node000011" class="edge">
<title>Node2&#45;&gt;Node11</title>
<g id="a_edge10_Node000002_Node000011"><a xlink:title=" ">
<path fill="none" stroke="#63b8ff" d="M718.6,-194.5C704.31,-194.5 689.89,-194.5 676.08,-194.5"/>
<polygon fill="#63b8ff" stroke="#63b8ff" points="718.97,-198 728.97,-194.5 718.97,-191 718.97,-198"/>
</a>
</g>
</g>
<!-- Node13 -->
<g id="Node000013" class="node">
<title>Node13</title>
<g id="a_Node000013"><a xlink:href="../../d6/d6f/classNetworkManager.html#ae486f852701623bc15b9325f8bb64794" target="_top" xlink:title=" ">
<polygon fill="white" stroke="#666666" points="677.5,-278 492.5,-278 492.5,-259 677.5,-259 677.5,-278"/>
<text text-anchor="middle" x="585" y="-266" font-family="Helvetica,sans-Serif" font-size="10.00">NetworkManager::sendGameTable</text>
</a>
</g>
</g>
<!-- Node2&#45;&gt;Node13 -->
<g id="edge12_Node000002_Node000013" class="edge">
<title>Node2&#45;&gt;Node13</title>
<g id="a_edge12_Node000002_Node000013"><a xlink:title=" ">
<path fill="none" stroke="#63b8ff" d="M804.81,-208.33C776.34,-220.68 732.53,-238.47 693,-249.5 679.64,-253.23 665.14,-256.38 651.24,-258.98"/>
<polygon fill="#63b8ff" stroke="#63b8ff" points="806.46,-211.43 814.21,-204.21 803.65,-205.02 806.46,-211.43"/>
</a>
</g>
</g>
<!-- Node15 -->
<g id="Node000015" class="node">
<title>Node15</title>
<g id="a_Node000015"><a xlink:href="../../d6/d6f/classNetworkManager.html#aa65d06dfc8028a6bda33056bee158918" target="_top" xlink:title=" ">
<polygon fill="white" stroke="#666666" points="677.5,-167 492.5,-167 492.5,-148 677.5,-148 677.5,-167"/>
<text text-anchor="middle" x="585" y="-155" font-family="Helvetica,sans-Serif" font-size="10.00">NetworkManager::sendGridUpdate</text>
</a>
</g>
</g>
<!-- Node2&#45;&gt;Node15 -->
<g id="edge15_Node000002_Node000015" class="edge">
<title>Node2&#45;&gt;Node15</title>
<g id="a_edge15_Node000002_Node000015"><a xlink:title=" ">
<path fill="none" stroke="#63b8ff" d="M761.03,-183.46C725.86,-178.24 684.27,-172.07 650.47,-167.06"/>
<polygon fill="#63b8ff" stroke="#63b8ff" points="760.84,-186.97 771.25,-184.97 761.87,-180.04 760.84,-186.97"/>
</a>
</g>
</g>
<!-- Node17 -->
<g id="Node000017" class="node">
<title>Node17</title>
<g id="a_Node000017"><a xlink:href="../../d6/d6f/classNetworkManager.html#a88303e860c818888a1cdd7d40bc19bf3" target="_top" xlink:title=" ">
<polygon fill="white" stroke="#666666" points="667,-352 503,-352 503,-333 667,-333 667,-352"/>
<text text-anchor="middle" x="585" y="-340" font-family="Helvetica,sans-Serif" font-size="10.00">NetworkManager::sendMarker</text>
</a>
</g>
</g>
<!-- Node2&#45;&gt;Node17 -->
<g id="edge17_Node000002_Node000017" class="edge">
<title>Node2&#45;&gt;Node17</title>
<g id="a_edge17_Node000002_Node000017"><a xlink:title=" ">
<path fill="none" stroke="#63b8ff" d="M815.78,-210.53C794.01,-228.45 758.17,-258.64 729,-286.5 712.18,-302.57 713.53,-313.56 693,-324.5 684.94,-328.8 676.09,-332.11 667.04,-334.66"/>
<polygon fill="#63b8ff" stroke="#63b8ff" points="818.14,-213.12 823.66,-204.07 813.71,-207.7 818.14,-213.12"/>
</a>
</g>
</g>
<!-- Node19 -->
<g id="Node000019" class="node">
<title>Node19</title>
<g id="a_Node000019"><a xlink:href="../../d6/d6f/classNetworkManager.html#af46b58c27029b0eb91b851a51f6eff73" target="_top" xlink:title=" ">
<polygon fill="white" stroke="#666666" points="683,-130 487,-130 487,-111 683,-111 683,-130"/>
<text text-anchor="middle" x="585" y="-118" font-family="Helvetica,sans-Serif" font-size="10.00">NetworkManager::sendMarkerDelete</text>
</a>
</g>
</g>
<!-- Node2&#45;&gt;Node19 -->
<g id="edge19_Node000002_Node000019" class="edge">
<title>Node2&#45;&gt;Node19</title>
<g id="a_edge19_Node000002_Node000019"><a xlink:title=" ">
<path fill="none" stroke="#63b8ff" d="M805.84,-180.75C777.44,-168.08 733.1,-149.62 693,-138.5 681.02,-135.18 668.1,-132.37 655.53,-130.04"/>
<polygon fill="#63b8ff" stroke="#63b8ff" points="804.64,-184.04 815.19,-184.96 807.52,-177.66 804.64,-184.04"/>
</a>
</g>
</g>
<!-- Node21 -->
<g id="Node000021" class="node">
<title>Node21</title>
<g id="a_Node000021"><a xlink:href="../../d6/d6f/classNetworkManager.html#a50e4f0f235f999ccac9a2848c14433c6" target="_top" xlink:title=" ">
<polygon fill="white" stroke="#666666" points="693,-93 477,-93 477,-74 693,-74 693,-93"/>
<text text-anchor="middle" x="585" y="-81" font-family="Helvetica,sans-Serif" font-size="10.00">NetworkManager::sendMarkerMoveState</text>
</a>
</g>
</g>
<!-- Node2&#45;&gt;Node21 -->
<g id="edge21_Node000002_Node000021" class="edge">
<title>Node2&#45;&gt;Node21</title>
<g id="a_edge21_Node000002_Node000021"><a xlink:title=" ">
<path fill="none" stroke="#63b8ff" d="M816.28,-178.18C790.17,-156.95 741.21,-120.33 693,-101.5 684.23,-98.07 674.8,-95.3 665.31,-93.05"/>
<polygon fill="#63b8ff" stroke="#63b8ff" points="814.28,-181.07 824.22,-184.75 818.74,-175.68 814.28,-181.07"/>
</a>
</g>
</g>
<!-- Node23 -->
<g id="Node000023" class="node">
<title>Node23</title>
<g id="a_Node000023"><a xlink:href="../../d6/d6f/classNetworkManager.html#a3cd0860da30289b21f2f4bd467d279d3" target="_top" xlink:title=" ">
<polygon fill="white" stroke="#666666" points="684.5,-56 485.5,-56 485.5,-37 684.5,-37 684.5,-56"/>
<text text-anchor="middle" x="585" y="-44" font-family="Helvetica,sans-Serif" font-size="10.00">NetworkManager::sendMarkerUpdate</text>
</a>
</g>
</g>
<!-- Node2&#45;&gt;Node23 -->
<g id="edge23_Node000002_Node000023" class="edge">
<title>Node2&#45;&gt;Node23</title>
<g id="a_edge23_Node000002_Node000023"><a xlink:title=" ">
<path fill="none" stroke="#63b8ff" d="M821.84,-176.67C798.73,-147.91 748.94,-91.74 693,-64.5 685.97,-61.08 678.41,-58.29 670.67,-56.03"/>
<polygon fill="#63b8ff" stroke="#63b8ff" points="819.2,-178.97 828.14,-184.66 824.7,-174.63 819.2,-178.97"/>
</a>
</g>
</g>
<!-- Node4 -->
<g id="Node000004" class="node">
<title>Node4</title>
<g id="a_Node000004"><a xlink:href="../../d6/d6f/classNetworkManager.html#ac5104e38077637eeeab41e078fa51a5b" target="_top" xlink:title=" ">
<polygon fill="white" stroke="#666666" points="426.5,-315 214.5,-315 214.5,-296 426.5,-296 426.5,-315"/>
<text text-anchor="middle" x="320.5" y="-303" font-family="Helvetica,sans-Serif" font-size="10.00">NetworkManager::bootstrapPeerIfReady</text>
</a>
</g>
</g>
<!-- Node3&#45;&gt;Node4 -->
<g id="edge3_Node000003_Node000004" class="edge">
<title>Node3&#45;&gt;Node4</title>
<g id="a_edge3_Node000003_Node000004"><a xlink:title=" ">
<path fill="none" stroke="#63b8ff" d="M495.93,-305.5C473.8,-305.5 449.83,-305.5 426.95,-305.5"/>
<polygon fill="#63b8ff" stroke="#63b8ff" points="495.95,-309 505.95,-305.5 495.95,-302 495.95,-309"/>
</a>
</g>
</g>
<!-- Node6 -->
<g id="Node000006" class="node">
<title>Node6</title>
<g id="a_Node000006"><a xlink:href="../../d6/d6f/classNetworkManager.html#a8104f62e2e6c3197832dbfe7753853de" target="_top" xlink:title=" ">
<polygon fill="white" stroke="#666666" points="412,-352 229,-352 229,-333 412,-333 412,-352"/>
<text text-anchor="middle" x="320.5" y="-340" font-family="Helvetica,sans-Serif" font-size="10.00">NetworkManager::broadcastBoard</text>
</a>
</g>
</g>
<!-- Node3&#45;&gt;Node6 -->
<g id="edge5_Node000003_Node000006" class="edge">
<title>Node3&#45;&gt;Node6</title>
<g id="a_edge5_Node000003_Node000006"><a xlink:title=" ">
<path fill="none" stroke="#63b8ff" d="M506.13,-316.48C469.02,-321.71 425.05,-327.9 389.33,-332.94"/>
<polygon fill="#63b8ff" stroke="#63b8ff" points="506.99,-319.89 516.4,-315.03 506.01,-312.96 506.99,-319.89"/>
</a>
</g>
</g>
<!-- Node5 -->
<g id="Node000005" class="node">
<title>Node5</title>
<g id="a_Node000005"><a xlink:href="../../d6/d6f/classNetworkManager.html#a9211bd133aed2e5ec776b4d4308b30c4" target="_top" xlink:title=" ">
<polygon fill="white" stroke="#666666" points="164,-315 0,-315 0,-296 164,-296 164,-315"/>
<text text-anchor="middle" x="82" y="-303" font-family="Helvetica,sans-Serif" font-size="10.00">NetworkManager::drainEvents</text>
</a>
</g>
</g>
<!-- Node4&#45;&gt;Node5 -->
<g id="edge4_Node000004_Node000005" class="edge">
<title>Node4&#45;&gt;Node5</title>
<g id="a_edge4_Node000004_Node000005"><a xlink:title=" ">
<path fill="none" stroke="#63b8ff" d="M204.06,-305.5C190.52,-305.5 176.93,-305.5 164,-305.5"/>
<polygon fill="#63b8ff" stroke="#63b8ff" points="204.39,-309 214.39,-305.5 204.39,-302 204.39,-309"/>
</a>
</g>
</g>
<!-- Node8 -->
<g id="Node000008" class="node">
<title>Node8</title>
<g id="a_Node000008"><a xlink:href="../../d6/d6f/classNetworkManager.html#ac9b0019724cae52ed6be8fb853fa62e5" target="_top" xlink:title=" ">
<polygon fill="white" stroke="#666666" points="406.5,-19 234.5,-19 234.5,0 406.5,0 406.5,-19"/>
<text text-anchor="middle" x="320.5" y="-7" font-family="Helvetica,sans-Serif" font-size="10.00">NetworkManager::broadcastFog</text>
</a>
</g>
</g>
<!-- Node7&#45;&gt;Node8 -->
<g id="edge7_Node000007_Node000008" class="edge">
<title>Node7&#45;&gt;Node8</title>
<g id="a_edge7_Node000007_Node000008"><a xlink:title=" ">
<path fill="none" stroke="#63b8ff" d="M501.16,-9.5C470.99,-9.5 436.85,-9.5 406.5,-9.5"/>
<polygon fill="#63b8ff" stroke="#63b8ff" points="501.23,-13 511.23,-9.5 501.23,-6 501.23,-13"/>
</a>
</g>
</g>
<!-- Node10 -->
<g id="Node000010" class="node">
<title>Node10</title>
<g id="a_Node000010"><a xlink:href="../../d6/d6f/classNetworkManager.html#a80077121e02a5bf6a05c519a87a795f3" target="_top" xlink:title=" ">
<polygon fill="white" stroke="#666666" points="422.5,-241 218.5,-241 218.5,-222 422.5,-222 422.5,-241"/>
<text text-anchor="middle" x="320.5" y="-229" font-family="Helvetica,sans-Serif" font-size="10.00">NetworkManager::broadcastFogDelete</text>
</a>
</g>
</g>
<!-- Node9&#45;&gt;Node10 -->
<g id="edge9_Node000009_Node000010" class="edge">
<title>Node9&#45;&gt;Node10</title>
<g id="a_edge9_Node000009_Node000010"><a xlink:title=" ">
<path fill="none" stroke="#63b8ff" d="M485.25,-231.5C464.82,-231.5 443.26,-231.5 422.75,-231.5"/>
<polygon fill="#63b8ff" stroke="#63b8ff" points="485.5,-235 495.5,-231.5 485.5,-228 485.5,-235"/>
</a>
</g>
</g>
<!-- Node12 -->
<g id="Node000012" class="node">
<title>Node12</title>
<g id="a_Node000012"><a xlink:href="../../d6/d6f/classNetworkManager.html#a952cf99cf04e63f0a0674f06ab8ec4bb" target="_top" xlink:title=" ">
<polygon fill="white" stroke="#666666" points="424,-204 217,-204 217,-185 424,-185 424,-204"/>
<text text-anchor="middle" x="320.5" y="-192" font-family="Helvetica,sans-Serif" font-size="10.00">NetworkManager::broadcastFogUpdate</text>
</a>
</g>
</g>
<!-- Node11&#45;&gt;Node12 -->
<g id="edge11_Node000011_Node000012" class="edge">
<title>Node11&#45;&gt;Node12</title>
<g id="a_edge11_Node000011_Node000012"><a xlink:title=" ">
<path fill="none" stroke="#63b8ff" d="M483.58,-194.5C464.12,-194.5 443.7,-194.5 424.17,-194.5"/>
<polygon fill="#63b8ff" stroke="#63b8ff" points="483.66,-198 493.66,-194.5 483.66,-191 483.66,-198"/>
</a>
</g>
</g>
<!-- Node13&#45;&gt;Node4 -->
<g id="edge13_Node000013_Node000004" class="edge">
<title>Node13&#45;&gt;Node4</title>
<g id="a_edge13_Node000013_Node000004"><a xlink:title=" ">
<path fill="none" stroke="#63b8ff" d="M506.13,-279.48C469.02,-284.71 425.05,-290.9 389.33,-295.94"/>
<polygon fill="#63b8ff" stroke="#63b8ff" points="506.99,-282.89 516.4,-278.03 506.01,-275.96 506.99,-282.89"/>
</a>
</g>
</g>
<!-- Node14 -->
<g id="Node000014" class="node">
<title>Node14</title>
<g id="a_Node000014"><a xlink:href="../../d6/d6f/classNetworkManager.html#a2a8b22c40456b5e116efcd9317fea0c6" target="_top" xlink:title=" ">
<polygon fill="white" stroke="#666666" points="425,-278 216,-278 216,-259 425,-259 425,-278"/>
<text text-anchor="middle" x="320.5" y="-266" font-family="Helvetica,sans-Serif" font-size="10.00">NetworkManager::broadcastGameTable</text>
</a>
</g>
</g>
<!-- Node13&#45;&gt;Node14 -->
<g id="edge14_Node000013_Node000014" class="edge">
<title>Node13&#45;&gt;Node14</title>
<g id="a_edge14_Node000013_Node000014"><a xlink:title=" ">
<path fill="none" stroke="#63b8ff" d="M481.97,-268.5C463.4,-268.5 444,-268.5 425.38,-268.5"/>
<polygon fill="#63b8ff" stroke="#63b8ff" points="482.19,-272 492.19,-268.5 482.19,-265 482.19,-272"/>
</a>
</g>
</g>
<!-- Node16 -->
<g id="Node000016" class="node">
<title>Node16</title>
<g id="a_Node000016"><a xlink:href="../../d6/d6f/classNetworkManager.html#aea4ab5f779d28c2b8e5a69ec89c21ebf" target="_top" xlink:title=" ">
<polygon fill="white" stroke="#666666" points="425.5,-167 215.5,-167 215.5,-148 425.5,-148 425.5,-167"/>
<text text-anchor="middle" x="320.5" y="-155" font-family="Helvetica,sans-Serif" font-size="10.00">NetworkManager::broadcastGridUpdate</text>
</a>
</g>
</g>
<!-- Node15&#45;&gt;Node16 -->
<g id="edge16_Node000015_Node000016" class="edge">
<title>Node15&#45;&gt;Node16</title>
<g id="a_edge16_Node000015_Node000016"><a xlink:title=" ">
<path fill="none" stroke="#63b8ff" d="M482.04,-157.5C463.6,-157.5 444.34,-157.5 425.83,-157.5"/>
<polygon fill="#63b8ff" stroke="#63b8ff" points="482.19,-161 492.19,-157.5 482.19,-154 482.19,-161"/>
</a>
</g>
</g>
<!-- Node18 -->
<g id="Node000018" class="node">
<title>Node18</title>
<g id="a_Node000018"><a xlink:href="../../d6/d6f/classNetworkManager.html#a1548090a456937ffafda64318f21ba40" target="_top" xlink:title=" ">
<polygon fill="white" stroke="#666666" points="414.5,-389 226.5,-389 226.5,-370 414.5,-370 414.5,-389"/>
<text text-anchor="middle" x="320.5" y="-377" font-family="Helvetica,sans-Serif" font-size="10.00">NetworkManager::broadcastMarker</text>
</a>
</g>
</g>
<!-- Node17&#45;&gt;Node18 -->
<g id="edge18_Node000017_Node000018" class="edge">
<title>Node17&#45;&gt;Node18</title>
<g id="a_edge18_Node000017_Node000018"><a xlink:title=" ">
<path fill="none" stroke="#63b8ff" d="M506.13,-353.48C469.02,-358.71 425.05,-364.9 389.33,-369.94"/>
<polygon fill="#63b8ff" stroke="#63b8ff" points="506.99,-356.89 516.4,-352.03 506.01,-349.96 506.99,-356.89"/>
</a>
</g>
</g>
<!-- Node20 -->
<g id="Node000020" class="node">
<title>Node20</title>
<g id="a_Node000020"><a xlink:href="../../d6/d6f/classNetworkManager.html#a3d49abb7b737ca9e16995f8a55358ae6" target="_top" xlink:title=" ">
<polygon fill="white" stroke="#666666" points="431,-130 210,-130 210,-111 431,-111 431,-130"/>
<text text-anchor="middle" x="320.5" y="-118" font-family="Helvetica,sans-Serif" font-size="10.00">NetworkManager::broadcastMarkerDelete</text>
</a>
</g>
</g>
<!-- Node19&#45;&gt;Node20 -->
<g id="edge20_Node000019_Node000020" class="edge">
<title>Node19&#45;&gt;Node20</title>
<g id="a_edge20_Node000019_Node000020"><a xlink:title=" ">
<path fill="none" stroke="#63b8ff" d="M476.36,-120.5C461.43,-120.5 446.07,-120.5 431.09,-120.5"/>
<polygon fill="#63b8ff" stroke="#63b8ff" points="476.63,-124 486.63,-120.5 476.63,-117 476.63,-124"/>
</a>
</g>
</g>
<!-- Node22 -->
<g id="Node000022" class="node">
<title>Node22</title>
<g id="a_Node000022"><a xlink:href="../../d6/d6f/classNetworkManager.html#a53b60b6286f20a92807205dd2f71c200" target="_top" xlink:title=" ">
<polygon fill="white" stroke="#666666" points="441,-93 200,-93 200,-74 441,-74 441,-93"/>
<text text-anchor="middle" x="320.5" y="-81" font-family="Helvetica,sans-Serif" font-size="10.00">NetworkManager::broadcastMarkerMoveState</text>
</a>
</g>
</g>
<!-- Node21&#45;&gt;Node22 -->
<g id="edge22_Node000021_Node000022" class="edge">
<title>Node21&#45;&gt;Node22</title>
<g id="a_edge22_Node000021_Node000022"><a xlink:title=" ">
<path fill="none" stroke="#63b8ff" d="M466.59,-83.5C458.14,-83.5 449.61,-83.5 441.15,-83.5"/>
<polygon fill="#63b8ff" stroke="#63b8ff" points="466.85,-87 476.85,-83.5 466.85,-80 466.85,-87"/>
</a>
</g>
</g>
<!-- Node24 -->
<g id="Node000024" class="node">
<title>Node24</title>
<g id="a_Node000024"><a xlink:href="../../d6/d6f/classNetworkManager.html#a2f0bd7fd012f4f7c96fcc25b2ac90b0f" target="_top" xlink:title=" ">
<polygon fill="white" stroke="#666666" points="432.5,-56 208.5,-56 208.5,-37 432.5,-37 432.5,-56"/>
<text text-anchor="middle" x="320.5" y="-44" font-family="Helvetica,sans-Serif" font-size="10.00">NetworkManager::broadcastMarkerUpdate</text>
</a>
</g>
</g>
<!-- Node23&#45;&gt;Node24 -->
<g id="edge24_Node000023_Node000024" class="edge">
<title>Node23&#45;&gt;Node24</title>
<g id="a_edge24_Node000023_Node000024"><a xlink:title=" ">
<path fill="none" stroke="#63b8ff" d="M475.01,-46.5C461,-46.5 446.64,-46.5 432.6,-46.5"/>
<polygon fill="#63b8ff" stroke="#63b8ff" points="475.13,-50 485.13,-46.5 475.13,-43 475.13,-50"/>
</a>
</g>
</g>
<!-- Node25&#45;&gt;Node3 -->
<g id="edge26_Node000025_Node000003" class="edge">
<title>Node25&#45;&gt;Node3</title>
<g id="a_edge26_Node000025_Node000003"><a xlink:title=" ">
<path fill="none" stroke="#63b8ff" d="M727.86,-305.5C706.46,-305.5 684.37,-305.5 664.18,-305.5"/>
<polygon fill="#63b8ff" stroke="#63b8ff" points="727.96,-309 737.96,-305.5 727.96,-302 727.96,-309"/>
</a>
</g>
</g>
<!-- Node25&#45;&gt;Node17 -->
<g id="edge27_Node000025_Node000017" class="edge">
<title>Node25&#45;&gt;Node17</title>
<g id="a_edge27_Node000025_Node000017"><a xlink:title=" ">
<path fill="none" stroke="#63b8ff" d="M761.03,-316.54C725.86,-321.76 684.27,-327.93 650.47,-332.94"/>
<polygon fill="#63b8ff" stroke="#63b8ff" points="761.87,-319.96 771.25,-315.03 760.84,-313.03 761.87,-319.96"/>
</a>
</g>
</g>
</g>
</svg>

<g id="navigator" transform="translate(0 0)" fill="#404254">
  <rect fill="#f2f5e9" fill-opacity="0.5" stroke="#606060" stroke-width=".5" x="0" y="0" width="60" height="60"/>
  <use id="zoomplus" xlink:href="#zoomPlus" x="17" y="9" onmousedown="handleZoom(evt,'in')"/>
  <use id="zoomminus" xlink:href="#zoomMin" x="42" y="9" onmousedown="handleZoom(evt,'out')"/>
  <use id="reset" xlink:href="#resetDef" x="30" y="36" onmousedown="handleReset()"/>
   <use id="arrowup" xlink:href="#arrowUp" x="0" y="0" onmousedown="handlePan(0,-1)"/>
  <use id="arrowright" xlink:href="#arrowRight" x="0" y="0" onmousedown="handlePan(1,0)"/>
  <use id="arrowdown" xlink:href="#arrowDown" x="0" y="0" onmousedown="handlePan(0,1)"/>
  <use id="arrowleft" xlink:href="#arrowLeft" x="0" y="0" onmousedown="handlePan(-1,0)"/>
</g>
<svg viewBox="0 0 15 15" width="100%" height="30px" preserveAspectRatio="xMaxYMin meet">
 <g id="arrow_out" transform="scale(0.3 0.3)">
  <a xlink:href="classNetworkManager_a8f97d83ec35ea68c1e37d6837c1c8b4c_icgraph_org.svg" target="_base">
   <rect id="button" ry="5" rx="5" y="6" x="6" height="38" width="38"
        fill="#f2f5e9" fill-opacity="0.5" stroke="#606060" stroke-width="1.0"/>
   <path id="arrow"
     d="M 11.500037,31.436501 C 11.940474,20.09759 22.043105,11.32322 32.158766,21.979434 L 37.068811,17.246167 C 37.068811,17.246167 37.088388,32 37.088388,32 L 22.160133,31.978069 C 22.160133,31.978069 26.997745,27.140456 26.997745,27.140456 C 18.528582,18.264221 13.291696,25.230495 11.500037,31.436501 z"
     style="fill:#404040;"/>
  </a>
 </g>
</svg>

<style type='text/css'>
<![CDATA[
[data-mouse-over-selected='false'] { opacity: 0.7; }
[data-mouse-over-selected='true']  { opacity: 1.0; }
]]>
</style>
<script type="application/ecmascript"><![CDATA[
document.addEventListener('DOMContentLoaded', (event) => {
  highlightEdges();
  highlightAdjacentNodes();
});
]]></script>
</svg>
