<?xml version="1.0" encoding="UTF-8" standalone="no"?>
<!DOCTYPE svg PUBLIC "-//W3C//DTD SVG 1.1//EN"
 "http://www.w3.org/Graphics/SVG/1.1/DTD/svg11.dtd">
<!-- Generated by graphviz version 2.43.0 (0)
 -->
<!-- Title: NetworkManager::broadcastFog Pages: 1 -->
<svg width="1053pt" height="212pt"
 viewBox="0.00 0.00 1053.00 212.00" xmlns="http://www.w3.org/2000/svg" xmlns:xlink="http://www.w3.org/1999/xlink">
<g id="graph0" class="graph" transform="scale(1 1) rotate(0) translate(4 208)">
<title>NetworkManager::broadcastFog</title>
<!-- Node1 -->
<g id="Node000001" class="node">
<title>Node1</title>
<g id="a_Node000001"><a xlink:title=" ">
<polygon fill="#999999" stroke="#666666" points="172,-147 0,-147 0,-128 172,-128 172,-147"/>
<text text-anchor="middle" x="86" y="-135" font-family="Helvetica,sans-Serif" font-size="10.00">NetworkManager::broadcastFog</text>
</a>
</g>
</g>
<!-- Node2 -->
<g id="Node000002" class="node">
<title>Node2</title>
<g id="a_Node000002"><a xlink:href="../../d6/d6f/classNetworkManager.html#a2127afec206b45126dff36ca21ffde3d" target="_top" xlink:title=" ">
<polygon fill="white" stroke="#666666" points="418,-166 208,-166 208,-147 418,-147 418,-166"/>
<text text-anchor="middle" x="313" y="-154" font-family="Helvetica,sans-Serif" font-size="10.00">NetworkManager::getConnectedPeerIds</text>
</a>
</g>
</g>
<!-- Node1&#45;&gt;Node2 -->
<g id="edge1_Node000001_Node000002" class="edge">
<title>Node1&#45;&gt;Node2</title>
<g id="a_edge1_Node000001_Node000002"><a xlink:title=" ">
<path fill="none" stroke="#63b8ff" d="M172.06,-144.68C180.47,-145.39 189.1,-146.12 197.74,-146.85"/>
<polygon fill="#63b8ff" stroke="#63b8ff" points="197.61,-150.35 207.87,-147.71 198.2,-143.38 197.61,-150.35"/>
</a>
</g>
</g>
<!-- Node3 -->
<g id="Node000003" class="node">
<title>Node3</title>
<g id="a_Node000003"><a xlink:href="../../d6/d6f/classNetworkManager.html#aca07ad2cb1e034fe5ac1f6c88df2d7a0" target="_top" xlink:title=" ">
<polygon fill="white" stroke="#666666" points="386.5,-129 239.5,-129 239.5,-110 386.5,-110 386.5,-129"/>
<text text-anchor="middle" x="313" y="-117" font-family="Helvetica,sans-Serif" font-size="10.00">NetworkManager::sendFog</text>
</a>
</g>
</g>
<!-- Node1&#45;&gt;Node3 -->
<g id="edge2_Node000001_Node000003" class="edge">
<title>Node1&#45;&gt;Node3</title>
<g id="a_edge2_Node000001_Node000003"><a xlink:title=" ">
<path fill="none" stroke="#63b8ff" d="M172.06,-130.69C190.75,-129.2 210.52,-127.62 229.12,-126.13"/>
<polygon fill="#63b8ff" stroke="#63b8ff" points="229.63,-129.6 239.32,-125.31 229.08,-122.62 229.63,-129.6"/>
</a>
</g>
</g>
<!-- Node4 -->
<g id="Node000004" class="node">
<title>Node4</title>
<g id="a_Node000004"><a xlink:href="../../d6/d6f/classNetworkManager.html#aeb0d7937d1d825d09dc8c7b13e35a962" target="_top" xlink:title=" ">
<polygon fill="white" stroke="#666666" points="669,-176 454,-176 454,-157 669,-157 669,-176"/>
<text text-anchor="middle" x="561.5" y="-164" font-family="Helvetica,sans-Serif" font-size="10.00">NetworkManager::broadcastGameFrame</text>
</a>
</g>
</g>
<!-- Node3&#45;&gt;Node4 -->
<g id="edge3_Node000003_Node000004" class="edge">
<title>Node3&#45;&gt;Node4</title>
<g id="a_edge3_Node000003_Node000004"><a xlink:title=" ">
<path fill="none" stroke="#63b8ff" d="M366.93,-129.03C383.31,-132.02 401.41,-135.35 418,-138.5 445.88,-143.79 476.79,-149.84 502.68,-154.96"/>
<polygon fill="#63b8ff" stroke="#63b8ff" points="502.22,-158.43 512.71,-156.94 503.58,-151.57 502.22,-158.43"/>
</a>
</g>
</g>
<!-- Node6 -->
<g id="Node000006" class="node">
<title>Node6</title>
<g id="a_Node000006"><a xlink:href="../../d6/d6f/classNetworkManager.html#a0aadf47f716f74e1fa0cf810715bedc2" target="_top" xlink:title=" ">
<polygon fill="white" stroke="#666666" points="667,-111 456,-111 456,-92 667,-92 667,-111"/>
<text text-anchor="middle" x="561.5" y="-99" font-family="Helvetica,sans-Serif" font-size="10.00">NetworkManager::buildFogCreateFrame</text>
</a>
</g>
</g>
<!-- Node3&#45;&gt;Node6 -->
<g id="edge5_Node000003_Node000006" class="edge">
<title>Node3&#45;&gt;Node6</title>
<g id="a_edge5_Node000003_Node000006"><a xlink:title=" ">
<path fill="none" stroke="#63b8ff" d="M386.62,-114.2C405.21,-112.84 425.66,-111.35 445.8,-109.88"/>
<polygon fill="#63b8ff" stroke="#63b8ff" points="446.25,-113.35 455.97,-109.13 445.74,-106.37 446.25,-113.35"/>
</a>
</g>
</g>
<!-- Node5 -->
<g id="Node000005" class="node">
<title>Node5</title>
<g id="a_Node000005"><a xlink:href="../../d6/d6f/classNetworkManager.html#a8f97d83ec35ea68c1e37d6837c1c8b4c" target="_top" xlink:title=" ">
<polygon fill="white" stroke="#666666" points="875,-204 705,-204 705,-185 875,-185 875,-204"/>
<text text-anchor="middle" x="790" y="-192" font-family="Helvetica,sans-Serif" font-size="10.00">NetworkManager::sendGameTo</text>
</a>
</g>
</g>
<!-- Node4&#45;&gt;Node5 -->
<g id="edge4_Node000004_Node000005" class="edge">
<title>Node4&#45;&gt;Node5</title>
<g id="a_edge4_Node000004_Node000005"><a xlink:title=" ">
<path fill="none" stroke="#63b8ff" d="M639.5,-176.02C659.56,-178.5 681.31,-181.19 701.86,-183.73"/>
<polygon fill="#63b8ff" stroke="#63b8ff" points="701.48,-187.21 711.83,-184.96 702.33,-180.26 701.48,-187.21"/>
</a>
</g>
</g>
<!-- Node7 -->
<g id="Node000007" class="node">
<title>Node7</title>
<g id="a_Node000007"><a xlink:href="../../db/d4b/classSerializer.html#a9552a2e71fe480af903507fb148c8964" target="_top" xlink:title=" ">
<polygon fill="white" stroke="#666666" points="864.5,-167 715.5,-167 715.5,-148 864.5,-148 864.5,-167"/>
<text text-anchor="middle" x="790" y="-155" font-family="Helvetica,sans-Serif" font-size="10.00">Serializer::serializePosition</text>
</a>
</g>
</g>
<!-- Node6&#45;&gt;Node7 -->
<g id="edge6_Node000006_Node000007" class="edge">
<title>Node6&#45;&gt;Node7</title>
<g id="a_edge6_Node000006_Node000007"><a xlink:title=" ">
<path fill="none" stroke="#63b8ff" d="M596.35,-111.03C625.15,-119.02 667.66,-130.53 705,-139.5 713.84,-141.62 723.23,-143.76 732.41,-145.77"/>
<polygon fill="#63b8ff" stroke="#63b8ff" points="731.74,-149.21 742.25,-147.91 733.22,-142.37 731.74,-149.21"/>
</a>
</g>
</g>
<!-- Node9 -->
<g id="Node000009" class="node">
<title>Node9</title>
<g id="a_Node000009"><a xlink:href="../../db/d4b/classSerializer.html#a6be006b0cf99a37c2146723395013b76" target="_top" xlink:title=" ">
<polygon fill="white" stroke="#666666" points="855,-130 725,-130 725,-111 855,-111 855,-130"/>
<text text-anchor="middle" x="790" y="-118" font-family="Helvetica,sans-Serif" font-size="10.00">Serializer::serializeSize</text>
</a>
</g>
</g>
<!-- Node6&#45;&gt;Node9 -->
<g id="edge8_Node000006_Node000009" class="edge">
<title>Node6&#45;&gt;Node9</title>
<g id="a_edge8_Node000006_Node000009"><a xlink:title=" ">
<path fill="none" stroke="#63b8ff" d="M667.13,-110.28C683.14,-111.62 699.38,-112.98 714.57,-114.26"/>
<polygon fill="#63b8ff" stroke="#63b8ff" points="714.63,-117.77 724.89,-115.12 715.22,-110.8 714.63,-117.77"/>
</a>
</g>
</g>
<!-- Node10 -->
<g id="Node000010" class="node">
<title>Node10</title>
<g id="a_Node000010"><a xlink:href="../../db/d4b/classSerializer.html#a60889622ee4e36ea28a284e99bbdf4e5" target="_top" xlink:title=" ">
<polygon fill="white" stroke="#666666" points="861,-93 719,-93 719,-74 861,-74 861,-93"/>
<text text-anchor="middle" x="790" y="-81" font-family="Helvetica,sans-Serif" font-size="10.00">Serializer::serializeUInt64</text>
</a>
</g>
</g>
<!-- Node6&#45;&gt;Node10 -->
<g id="edge10_Node000006_Node000010" class="edge">
<title>Node6&#45;&gt;Node10</title>
<g id="a_edge10_Node000006_Node000010"><a xlink:title=" ">
<path fill="none" stroke="#63b8ff" d="M667.13,-93.18C681.08,-92.08 695.2,-90.95 708.65,-89.89"/>
<polygon fill="#63b8ff" stroke="#63b8ff" points="709.09,-93.36 718.78,-89.08 708.54,-86.38 709.09,-93.36"/>
</a>
</g>
</g>
<!-- Node11 -->
<g id="Node000011" class="node">
<title>Node11</title>
<g id="a_Node000011"><a xlink:href="../../db/d4b/classSerializer.html#a3c3d58eaacc5f3c6f19cfde75424e9cc" target="_top" xlink:title=" ">
<polygon fill="white" stroke="#666666" points="858,-56 722,-56 722,-37 858,-37 858,-56"/>
<text text-anchor="middle" x="790" y="-44" font-family="Helvetica,sans-Serif" font-size="10.00">Serializer::serializeUInt8</text>
</a>
</g>
</g>
<!-- Node6&#45;&gt;Node11 -->
<g id="edge11_Node000006_Node000011" class="edge">
<title>Node6&#45;&gt;Node11</title>
<g id="a_edge11_Node000006_Node000011"><a xlink:title=" ">
<path fill="none" stroke="#63b8ff" d="M599.05,-92C627.8,-84.59 668.89,-74.14 705,-65.5 714.92,-63.12 725.53,-60.67 735.74,-58.34"/>
<polygon fill="#63b8ff" stroke="#63b8ff" points="736.81,-61.68 745.79,-56.06 735.26,-54.86 736.81,-61.68"/>
</a>
</g>
</g>
<!-- Node12 -->
<g id="Node000012" class="node">
<title>Node12</title>
<g id="a_Node000012"><a xlink:href="../../db/d4b/classSerializer.html#adf940baab7d143611e19fb957725a80a" target="_top" xlink:title=" ">
<polygon fill="white" stroke="#666666" points="866,-19 714,-19 714,0 866,0 866,-19"/>
<text text-anchor="middle" x="790" y="-7" font-family="Helvetica,sans-Serif" font-size="10.00">Serializer::serializeVisibility</text>
</a>
</g>
</g>
<!-- Node6&#45;&gt;Node12 -->
<g id="edge12_Node000006_Node000012" class="edge">
<title>Node6&#45;&gt;Node12</title>
<g id="a_edge12_Node000006_Node000012"><a xlink:title=" ">
<path fill="none" stroke="#63b8ff" d="M578.15,-91.82C603.77,-76.35 656.66,-46.03 705,-28.5 712.21,-25.88 719.91,-23.55 727.61,-21.5"/>
<polygon fill="#63b8ff" stroke="#63b8ff" points="728.49,-24.89 737.33,-19.04 726.77,-18.1 728.49,-24.89"/>
</a>
</g>
</g>
<!-- Node8 -->
<g id="Node000008" class="node">
<title>Node8</title>
<g id="a_Node000008"><a xlink:href="../../db/d4b/classSerializer.html#a92ffe65857abd6eea6a393056a9bb533" target="_top" xlink:title=" ">
<polygon fill="white" stroke="#666666" points="1045,-148 911,-148 911,-129 1045,-129 1045,-148"/>
<text text-anchor="middle" x="978" y="-136" font-family="Helvetica,sans-Serif" font-size="10.00">Serializer::serializeFloat</text>
</a>
</g>
</g>
<!-- Node7&#45;&gt;Node8 -->
<g id="edge7_Node000007_Node000008" class="edge">
<title>Node7&#45;&gt;Node8</title>
<g id="a_edge7_Node000007_Node000008"><a xlink:title=" ">
<path fill="none" stroke="#63b8ff" d="M864.51,-149.99C876.49,-148.77 888.92,-147.5 900.96,-146.27"/>
<polygon fill="#63b8ff" stroke="#63b8ff" points="901.37,-149.74 910.96,-145.25 900.66,-142.78 901.37,-149.74"/>
</a>
</g>
</g>
<!-- Node9&#45;&gt;Node8 -->
<g id="edge9_Node000009_Node000008" class="edge">
<title>Node9&#45;&gt;Node8</title>
<g id="a_edge9_Node000009_Node000008"><a xlink:title=" ">
<path fill="none" stroke="#63b8ff" d="M855.01,-126.69C869.7,-128.12 885.45,-129.64 900.6,-131.11"/>
<polygon fill="#63b8ff" stroke="#63b8ff" points="900.68,-134.63 910.97,-132.11 901.36,-127.66 900.68,-134.63"/>
</a>
</g>
</g>
<!-- Node13 -->
<g id="Node000013" class="node">
<title>Node13</title>
<g id="a_Node000013"><a xlink:href="../../db/d4b/classSerializer.html#a2a407c3a379b680296ee190ed625f05f" target="_top" xlink:title=" ">
<polygon fill="white" stroke="#666666" points="1043.5,-19 912.5,-19 912.5,0 1043.5,0 1043.5,-19"/>
<text text-anchor="middle" x="978" y="-7" font-family="Helvetica,sans-Serif" font-size="10.00">Serializer::serializeBool</text>
</a>
</g>
</g>
<!-- Node12&#45;&gt;Node13 -->
<g id="edge13_Node000012_Node000013" class="edge">
<title>Node12&#45;&gt;Node13</title>
<g id="a_edge13_Node000012_Node000013"><a xlink:title=" ">
<path fill="none" stroke="#63b8ff" d="M866.12,-9.5C877.97,-9.5 890.23,-9.5 902.07,-9.5"/>
<polygon fill="#63b8ff" stroke="#63b8ff" points="902.36,-13 912.36,-9.5 902.36,-6 902.36,-13"/>
</a>
</g>
</g>
</g>
</svg>
