<?xml version="1.0" encoding="UTF-8" standalone="no"?>
<!DOCTYPE svg PUBLIC "-//W3C//DTD SVG 1.1//EN"
 "http://www.w3.org/Graphics/SVG/1.1/DTD/svg11.dtd">
<!-- Generated by graphviz version 2.43.0 (0)
 -->
<!-- Title: NetworkManager::readFileBytes Pages: 1 -->
<svg width="829pt" height="101pt"
 viewBox="0.00 0.00 829.00 101.00" xmlns="http://www.w3.org/2000/svg" xmlns:xlink="http://www.w3.org/1999/xlink">
<g id="graph0" class="graph" transform="scale(1 1) rotate(0) translate(4 97)">
<title>NetworkManager::readFileBytes</title>
<!-- Node1 -->
<g id="Node000001" class="node">
<title>Node1</title>
<g id="a_Node000001"><a xlink:title=" ">
<polygon fill="#999999" stroke="#666666" points="821,-37 648,-37 648,-18 821,-18 821,-37"/>
<text text-anchor="middle" x="734.5" y="-25" font-family="Helvetica,sans-Serif" font-size="10.00">NetworkManager::readFileBytes</text>
</a>
</g>
</g>
<!-- Node2 -->
<g id="Node000002" class="node">
<title>Node2</title>
<g id="a_Node000002"><a xlink:href="../../d6/d6f/classNetworkManager.html#a9faf2055aa0370adbffaa46b7f7181c1" target="_top" xlink:title=" ">
<polygon fill="white" stroke="#666666" points="609,-56 451,-56 451,-37 609,-37 609,-56"/>
<text text-anchor="middle" x="530" y="-44" font-family="Helvetica,sans-Serif" font-size="10.00">NetworkManager::sendBoard</text>
</a>
</g>
</g>
<!-- Node1&#45;&gt;Node2 -->
<g id="edge1_Node000001_Node000002" class="edge">
<title>Node1&#45;&gt;Node2</title>
<g id="a_edge1_Node000001_Node000002"><a xlink:title=" ">
<path fill="none" stroke="#63b8ff" d="M637.93,-36.47C628.3,-37.37 618.61,-38.28 609.2,-39.16"/>
<polygon fill="#63b8ff" stroke="#63b8ff" points="638.29,-39.95 647.92,-35.53 637.63,-32.98 638.29,-39.95"/>
</a>
</g>
</g>
<!-- Node6 -->
<g id="Node000006" class="node">
<title>Node6</title>
<g id="a_Node000006"><a xlink:href="../../d6/d6f/classNetworkManager.html#a88303e860c818888a1cdd7d40bc19bf3" target="_top" xlink:title=" ">
<polygon fill="white" stroke="#666666" points="612,-19 448,-19 448,0 612,0 612,-19"/>
<text text-anchor="middle" x="530" y="-7" font-family="Helvetica,sans-Serif" font-size="10.00">NetworkManager::sendMarker</text>
</a>
</g>
</g>
<!-- Node1&#45;&gt;Node6 -->
<g id="edge5_Node000001_Node000006" class="edge">
<title>Node1&#45;&gt;Node6</title>
<g id="a_edge5_Node000001_Node000006"><a xlink:title=" ">
<path fill="none" stroke="#63b8ff" d="M637.84,-19C629.23,-18.23 620.56,-17.46 612.09,-16.71"/>
<polygon fill="#63b8ff" stroke="#63b8ff" points="637.64,-22.49 647.92,-19.89 638.26,-15.52 637.64,-22.49"/>
</a>
</g>
</g>
<!-- Node3 -->
<g id="Node000003" class="node">
<title>Node3</title>
<g id="a_Node000003"><a xlink:href="../../d6/d6f/classNetworkManager.html#ac5104e38077637eeeab41e078fa51a5b" target="_top" xlink:title=" ">
<polygon fill="white" stroke="#666666" points="412,-93 200,-93 200,-74 412,-74 412,-93"/>
<text text-anchor="middle" x="306" y="-81" font-family="Helvetica,sans-Serif" font-size="10.00">NetworkManager::bootstrapPeerIfReady</text>
</a>
</g>
</g>
<!-- Node2&#45;&gt;Node3 -->
<g id="edge2_Node000002_Node000003" class="edge">
<title>Node2&#45;&gt;Node3</title>
<g id="a_edge2_Node000002_Node000003"><a xlink:title=" ">
<path fill="none" stroke="#63b8ff" d="M461.93,-57.68C430.81,-62.87 394.18,-68.97 364.36,-73.94"/>
<polygon fill="#63b8ff" stroke="#63b8ff" points="462.54,-61.12 471.83,-56.03 461.39,-54.22 462.54,-61.12"/>
</a>
</g>
</g>
<!-- Node5 -->
<g id="Node000005" class="node">
<title>Node5</title>
<g id="a_Node000005"><a xlink:href="../../d6/d6f/classNetworkManager.html#a8104f62e2e6c3197832dbfe7753853de" target="_top" xlink:title=" ">
<polygon fill="white" stroke="#666666" points="397.5,-56 214.5,-56 214.5,-37 397.5,-37 397.5,-56"/>
<text text-anchor="middle" x="306" y="-44" font-family="Helvetica,sans-Serif" font-size="10.00">NetworkManager::broadcastBoard</text>
</a>
</g>
</g>
<!-- Node2&#45;&gt;Node5 -->
<g id="edge4_Node000002_Node000005" class="edge">
<title>Node2&#45;&gt;Node5</title>
<g id="a_edge4_Node000002_Node000005"><a xlink:title=" ">
<path fill="none" stroke="#63b8ff" d="M440.59,-46.5C426.53,-46.5 411.96,-46.5 397.84,-46.5"/>
<polygon fill="#63b8ff" stroke="#63b8ff" points="440.73,-50 450.73,-46.5 440.73,-43 440.73,-50"/>
</a>
</g>
</g>
<!-- Node4 -->
<g id="Node000004" class="node">
<title>Node4</title>
<g id="a_Node000004"><a xlink:href="../../d6/d6f/classNetworkManager.html#a9211bd133aed2e5ec776b4d4308b30c4" target="_top" xlink:title=" ">
<polygon fill="white" stroke="#666666" points="164,-93 0,-93 0,-74 164,-74 164,-93"/>
<text text-anchor="middle" x="82" y="-81" font-family="Helvetica,sans-Serif" font-size="10.00">NetworkManager::drainEvents</text>
</a>
</g>
</g>
<!-- Node3&#45;&gt;Node4 -->
<g id="edge3_Node000003_Node000004" class="edge">
<title>Node3&#45;&gt;Node4</title>
<g id="a_edge3_Node000003_Node000004"><a xlink:title=" ">
<path fill="none" stroke="#63b8ff" d="M189.72,-83.5C181.1,-83.5 172.51,-83.5 164.16,-83.5"/>
<polygon fill="#63b8ff" stroke="#63b8ff" points="189.85,-87 199.85,-83.5 189.85,-80 189.85,-87"/>
</a>
</g>
</g>
<!-- Node7 -->
<g id="Node000007" class="node">
<title>Node7</title>
<g id="a_Node000007"><a xlink:href="../../d6/d6f/classNetworkManager.html#a1548090a456937ffafda64318f21ba40" target="_top" xlink:title=" ">
<polygon fill="white" stroke="#666666" points="400,-19 212,-19 212,0 400,0 400,-19"/>
<text text-anchor="middle" x="306" y="-7" font-family="Helvetica,sans-Serif" font-size="10.00">NetworkManager::broadcastMarker</text>
</a>
</g>
</g>
<!-- Node6&#45;&gt;Node7 -->
<g id="edge6_Node000006_Node000007" class="edge">
<title>Node6&#45;&gt;Node7</title>
<g id="a_edge6_Node000006_Node000007"><a xlink:title=" ">
<path fill="none" stroke="#63b8ff" d="M437.64,-9.5C425.31,-9.5 412.64,-9.5 400.28,-9.5"/>
<polygon fill="#63b8ff" stroke="#63b8ff" points="437.91,-13 447.91,-9.5 437.91,-6 437.91,-13"/>
</a>
</g>
</g>
</g>
</svg>
