<?xml version="1.0" encoding="UTF-8" standalone="no"?>
<!DOCTYPE svg PUBLIC "-//W3C//DTD SVG 1.1//EN"
 "http://www.w3.org/Graphics/SVG/1.1/DTD/svg11.dtd">
<!-- Generated by graphviz version 2.43.0 (0)
 -->
<!-- Title: NetworkManager::decodeRawMarkerMoveBuffer Pages: 1 -->
<svg width="507pt" height="64pt"
 viewBox="0.00 0.00 507.00 64.00" xmlns="http://www.w3.org/2000/svg" xmlns:xlink="http://www.w3.org/1999/xlink">
<g id="graph0" class="graph" transform="scale(1 1) rotate(0) translate(4 60)">
<title>NetworkManager::decodeRawMarkerMoveBuffer</title>
<!-- Node1 -->
<g id="Node000001" class="node">
<title>Node1</title>
<g id="a_Node000001"><a xlink:title=" ">
<polygon fill="#999999" stroke="#666666" points="499,-37 246,-37 246,-18 499,-18 499,-37"/>
<text text-anchor="middle" x="372.5" y="-25" font-family="Helvetica,sans-Serif" font-size="10.00">NetworkManager::decodeRawMarkerMoveBuffer</text>
</a>
</g>
</g>
<!-- Node2 -->
<g id="Node000002" class="node">
<title>Node2</title>
<g id="a_Node000002"><a xlink:href="../../d6/d6f/classNetworkManager.html#ad3605b8b33fa44492458d0aaffb4dec8" target="_top" xlink:title=" ">
<polygon fill="white" stroke="#666666" points="200.5,-56 9.5,-56 9.5,-37 200.5,-37 200.5,-56"/>
<text text-anchor="middle" x="105" y="-44" font-family="Helvetica,sans-Serif" font-size="10.00">NetworkManager::drainInboundRaw</text>
</a>
</g>
</g>
<!-- Node1&#45;&gt;Node2 -->
<g id="edge1_Node000001_Node000002" class="edge">
<title>Node1&#45;&gt;Node2</title>
<g id="a_edge1_Node000001_Node000002"><a xlink:title=" ">
<path fill="none" stroke="#63b8ff" d="M235.44,-37.24C223.72,-38.08 212.03,-38.91 200.74,-39.72"/>
<polygon fill="#63b8ff" stroke="#63b8ff" points="236.02,-40.7 245.75,-36.5 235.52,-33.72 236.02,-40.7"/>
</a>
</g>
</g>
<!-- Node3 -->
<g id="Node000003" class="node">
<title>Node3</title>
<g id="a_Node000003"><a xlink:href="../../d6/d6f/classNetworkManager.html#a3289708df965193b6ec0287eb069b276" target="_top" xlink:title=" ">
<polygon fill="white" stroke="#666666" points="210,-19 0,-19 0,0 210,0 210,-19"/>
<text text-anchor="middle" x="105" y="-7" font-family="Helvetica,sans-Serif" font-size="10.00">NetworkManager::startRawDrainWorker</text>
</a>
</g>
</g>
<!-- Node1&#45;&gt;Node3 -->
<g id="edge2_Node000001_Node000003" class="edge">
<title>Node1&#45;&gt;Node3</title>
<g id="a_edge2_Node000001_Node000003"><a xlink:title=" ">
<path fill="none" stroke="#63b8ff" d="M235.67,-18.29C227.09,-17.71 218.53,-17.13 210.12,-16.56"/>
<polygon fill="#63b8ff" stroke="#63b8ff" points="235.53,-21.79 245.75,-18.97 236.01,-14.81 235.53,-21.79"/>
</a>
</g>
</g>
</g>
</svg>
