<?xml version="1.0" encoding="UTF-8" standalone="no"?>
<!DOCTYPE svg PUBLIC "-//W3C//DTD SVG 1.1//EN"
 "http://www.w3.org/Graphics/SVG/1.1/DTD/svg11.dtd">
<!-- Generated by graphviz version 2.43.0 (0)
 -->
<!-- Title: NetworkManager::handleGameTableSnapshot Pages: 1 -->
<svg width="607pt" height="101pt"
 viewBox="0.00 0.00 607.00 101.00" xmlns="http://www.w3.org/2000/svg" xmlns:xlink="http://www.w3.org/1999/xlink">
<g id="graph0" class="graph" transform="scale(1 1) rotate(0) translate(4 97)">
<title>NetworkManager::handleGameTableSnapshot</title>
<!-- Node1 -->
<g id="Node000001" class="node">
<title>Node1</title>
<g id="a_Node000001"><a xlink:title=" ">
<polygon fill="#999999" stroke="#666666" points="239,-56 0,-56 0,-37 239,-37 239,-56"/>
<text text-anchor="middle" x="119.5" y="-44" font-family="Helvetica,sans-Serif" font-size="10.00">NetworkManager::handleGameTableSnapshot</text>
</a>
</g>
</g>
<!-- Node2 -->
<g id="Node000002" class="node">
<title>Node2</title>
<g id="a_Node000002"><a xlink:href="../../db/d4b/classSerializer.html#a47d1b2e09aaa99426b40f965ef2bf284" target="_top" xlink:title=" ">
<polygon fill="white" stroke="#666666" points="427,-93 277,-93 277,-74 427,-74 427,-93"/>
<text text-anchor="middle" x="352" y="-81" font-family="Helvetica,sans-Serif" font-size="10.00">Serializer::deserializeString</text>
</a>
</g>
</g>
<!-- Node1&#45;&gt;Node2 -->
<g id="edge1_Node000001_Node000002" class="edge">
<title>Node1&#45;&gt;Node2</title>
<g id="a_edge1_Node000001_Node000002"><a xlink:title=" ">
<path fill="none" stroke="#63b8ff" d="M179.86,-56.03C210.79,-60.99 248.81,-67.1 281.16,-72.29"/>
<polygon fill="#63b8ff" stroke="#63b8ff" points="281.01,-75.81 291.44,-73.94 282.12,-68.9 281.01,-75.81"/>
</a>
</g>
</g>
<!-- Node4 -->
<g id="Node000004" class="node">
<title>Node4</title>
<g id="a_Node000004"><a xlink:href="../../db/d4b/classSerializer.html#abc991f78f5490e60783620ab4c3444e6" target="_top" xlink:title=" ">
<polygon fill="white" stroke="#666666" points="429,-56 275,-56 275,-37 429,-37 429,-56"/>
<text text-anchor="middle" x="352" y="-44" font-family="Helvetica,sans-Serif" font-size="10.00">Serializer::deserializeUInt64</text>
</a>
</g>
</g>
<!-- Node1&#45;&gt;Node4 -->
<g id="edge3_Node000001_Node000004" class="edge">
<title>Node1&#45;&gt;Node4</title>
<g id="a_edge3_Node000001_Node000004"><a xlink:title=" ">
<path fill="none" stroke="#63b8ff" d="M239.13,-46.5C247.75,-46.5 256.35,-46.5 264.74,-46.5"/>
<polygon fill="#63b8ff" stroke="#63b8ff" points="264.84,-50 274.84,-46.5 264.84,-43 264.84,-50"/>
</a>
</g>
</g>
<!-- Node5 -->
<g id="Node000005" class="node">
<title>Node5</title>
<g id="a_Node000005"><a xlink:href="../../d3/df0/classMessageQueue.html#ae18e8febb6e78fadd1fc56332a4b7ba2" target="_top" xlink:title=" ">
<polygon fill="white" stroke="#666666" points="412.5,-19 291.5,-19 291.5,0 412.5,0 412.5,-19"/>
<text text-anchor="middle" x="352" y="-7" font-family="Helvetica,sans-Serif" font-size="10.00">MessageQueue::push</text>
</a>
</g>
</g>
<!-- Node1&#45;&gt;Node5 -->
<g id="edge4_Node000001_Node000005" class="edge">
<title>Node1&#45;&gt;Node5</title>
<g id="a_edge4_Node000001_Node000005"><a xlink:title=" ">
<path fill="none" stroke="#63b8ff" d="M179.86,-36.97C210.79,-32.01 248.81,-25.9 281.16,-20.71"/>
<polygon fill="#63b8ff" stroke="#63b8ff" points="282.12,-24.1 291.44,-19.06 281.01,-17.19 282.12,-24.1"/>
</a>
</g>
</g>
<!-- Node3 -->
<g id="Node000003" class="node">
<title>Node3</title>
<g id="a_Node000003"><a xlink:href="../../db/d4b/classSerializer.html#a45c8b78e8467c6f7dba85fd7a21c8781" target="_top" xlink:title=" ">
<polygon fill="white" stroke="#666666" points="599,-93 465,-93 465,-74 599,-74 599,-93"/>
<text text-anchor="middle" x="532" y="-81" font-family="Helvetica,sans-Serif" font-size="10.00">Serializer::deserializeInt</text>
</a>
</g>
</g>
<!-- Node2&#45;&gt;Node3 -->
<g id="edge2_Node000002_Node000003" class="edge">
<title>Node2&#45;&gt;Node3</title>
<g id="a_edge2_Node000002_Node000003"><a xlink:title=" ">
<path fill="none" stroke="#63b8ff" d="M427.2,-83.5C436.28,-83.5 445.57,-83.5 454.68,-83.5"/>
<polygon fill="#63b8ff" stroke="#63b8ff" points="454.87,-87 464.87,-83.5 454.87,-80 454.87,-87"/>
</a>
</g>
</g>
</g>
</svg>
