<?xml version="1.0" encoding="UTF-8" standalone="no"?>
<!DOCTYPE svg PUBLIC "-//W3C//DTD SVG 1.1//EN"
 "http://www.w3.org/Graphics/SVG/1.1/DTD/svg11.dtd">
<!-- Generated by graphviz version 2.43.0 (0)
 -->
<!-- Title: NetworkManager::broadcastFogDelete Pages: 1 -->
<svg width="915pt" height="119pt"
 viewBox="0.00 0.00 915.00 119.00" xmlns="http://www.w3.org/2000/svg" xmlns:xlink="http://www.w3.org/1999/xlink">
<g id="graph0" class="graph" transform="scale(1 1) rotate(0) translate(4 115)">
<title>NetworkManager::broadcastFogDelete</title>
<!-- Node1 -->
<g id="Node000001" class="node">
<title>Node1</title>
<g id="a_Node000001"><a xlink:title=" ">
<polygon fill="#999999" stroke="#666666" points="204,-92 0,-92 0,-73 204,-73 204,-92"/>
<text text-anchor="middle" x="102" y="-80" font-family="Helvetica,sans-Serif" font-size="10.00">NetworkManager::broadcastFogDelete</text>
</a>
</g>
</g>
<!-- Node2 -->
<g id="Node000002" class="node">
<title>Node2</title>
<g id="a_Node000002"><a xlink:href="../../d6/d6f/classNetworkManager.html#a2127afec206b45126dff36ca21ffde3d" target="_top" xlink:title=" ">
<polygon fill="white" stroke="#666666" points="450,-111 240,-111 240,-92 450,-92 450,-111"/>
<text text-anchor="middle" x="345" y="-99" font-family="Helvetica,sans-Serif" font-size="10.00">NetworkManager::getConnectedPeerIds</text>
</a>
</g>
</g>
<!-- Node1&#45;&gt;Node2 -->
<g id="edge1_Node000001_Node000002" class="edge">
<title>Node1&#45;&gt;Node2</title>
<g id="a_edge1_Node000001_Node000002"><a xlink:title=" ">
<path fill="none" stroke="#63b8ff" d="M204.16,-90.48C212.49,-91.13 220.95,-91.8 229.37,-92.46"/>
<polygon fill="#63b8ff" stroke="#63b8ff" points="229.37,-95.97 239.62,-93.27 229.92,-89 229.37,-95.97"/>
</a>
</g>
</g>
<!-- Node3 -->
<g id="Node000003" class="node">
<title>Node3</title>
<g id="a_Node000003"><a xlink:href="../../d6/d6f/classNetworkManager.html#aad1e7e0b1f9199df8863180b8e52f962" target="_top" xlink:title=" ">
<polygon fill="white" stroke="#666666" points="434.5,-74 255.5,-74 255.5,-55 434.5,-55 434.5,-74"/>
<text text-anchor="middle" x="345" y="-62" font-family="Helvetica,sans-Serif" font-size="10.00">NetworkManager::sendFogDelete</text>
</a>
</g>
</g>
<!-- Node1&#45;&gt;Node3 -->
<g id="edge2_Node000001_Node000003" class="edge">
<title>Node1&#45;&gt;Node3</title>
<g id="a_edge2_Node000001_Node000003"><a xlink:title=" ">
<path fill="none" stroke="#63b8ff" d="M204.16,-74.94C217.71,-73.93 231.59,-72.9 245.1,-71.89"/>
<polygon fill="#63b8ff" stroke="#63b8ff" points="245.64,-75.36 255.35,-71.12 245.12,-68.38 245.64,-75.36"/>
</a>
</g>
</g>
<!-- Node4 -->
<g id="Node000004" class="node">
<title>Node4</title>
<g id="a_Node000004"><a xlink:href="../../d6/d6f/classNetworkManager.html#aeb0d7937d1d825d09dc8c7b13e35a962" target="_top" xlink:title=" ">
<polygon fill="white" stroke="#666666" points="701,-93 486,-93 486,-74 701,-74 701,-93"/>
<text text-anchor="middle" x="593.5" y="-81" font-family="Helvetica,sans-Serif" font-size="10.00">NetworkManager::broadcastGameFrame</text>
</a>
</g>
</g>
<!-- Node3&#45;&gt;Node4 -->
<g id="edge3_Node000003_Node000004" class="edge">
<title>Node3&#45;&gt;Node4</title>
<g id="a_edge3_Node000003_Node000004"><a xlink:title=" ">
<path fill="none" stroke="#63b8ff" d="M434.64,-71.33C447.97,-72.36 461.89,-73.43 475.7,-74.5"/>
<polygon fill="#63b8ff" stroke="#63b8ff" points="475.48,-77.99 485.72,-75.27 476.02,-71.01 475.48,-77.99"/>
</a>
</g>
</g>
<!-- Node6 -->
<g id="Node000006" class="node">
<title>Node6</title>
<g id="a_Node000006"><a xlink:href="../../d6/d6f/classNetworkManager.html#ae092d67d435d2d9db776324c2c9f58b8" target="_top" xlink:title=" ">
<polygon fill="white" stroke="#666666" points="699,-56 488,-56 488,-37 699,-37 699,-56"/>
<text text-anchor="middle" x="593.5" y="-44" font-family="Helvetica,sans-Serif" font-size="10.00">NetworkManager::buildFogDeleteFrame</text>
</a>
</g>
</g>
<!-- Node3&#45;&gt;Node6 -->
<g id="edge5_Node000003_Node000006" class="edge">
<title>Node3&#45;&gt;Node6</title>
<g id="a_edge5_Node000003_Node000006"><a xlink:title=" ">
<path fill="none" stroke="#63b8ff" d="M434.64,-58.03C448.66,-57 463.33,-55.93 477.84,-54.87"/>
<polygon fill="#63b8ff" stroke="#63b8ff" points="478.13,-58.36 487.85,-54.14 477.62,-51.38 478.13,-58.36"/>
</a>
</g>
</g>
<!-- Node5 -->
<g id="Node000005" class="node">
<title>Node5</title>
<g id="a_Node000005"><a xlink:href="../../d6/d6f/classNetworkManager.html#a8f97d83ec35ea68c1e37d6837c1c8b4c" target="_top" xlink:title=" ">
<polygon fill="white" stroke="#666666" points="907,-93 737,-93 737,-74 907,-74 907,-93"/>
<text text-anchor="middle" x="822" y="-81" font-family="Helvetica,sans-Serif" font-size="10.00">NetworkManager::sendGameTo</text>
</a>
</g>
</g>
<!-- Node4&#45;&gt;Node5 -->
<g id="edge4_Node000004_Node000005" class="edge">
<title>Node4&#45;&gt;Node5</title>
<g id="a_edge4_Node000004_Node000005"><a xlink:title=" ">
<path fill="none" stroke="#63b8ff" d="M701.12,-83.5C709.6,-83.5 718.13,-83.5 726.53,-83.5"/>
<polygon fill="#63b8ff" stroke="#63b8ff" points="726.68,-87 736.68,-83.5 726.68,-80 726.68,-87"/>
</a>
</g>
</g>
<!-- Node7 -->
<g id="Node000007" class="node">
<title>Node7</title>
<g id="a_Node000007"><a xlink:href="../../db/d4b/classSerializer.html#a60889622ee4e36ea28a284e99bbdf4e5" target="_top" xlink:title=" ">
<polygon fill="white" stroke="#666666" points="893,-56 751,-56 751,-37 893,-37 893,-56"/>
<text text-anchor="middle" x="822" y="-44" font-family="Helvetica,sans-Serif" font-size="10.00">Serializer::serializeUInt64</text>
</a>
</g>
</g>
<!-- Node6&#45;&gt;Node7 -->
<g id="edge6_Node000006_Node000007" class="edge">
<title>Node6&#45;&gt;Node7</title>
<g id="a_edge6_Node000006_Node000007"><a xlink:title=" ">
<path fill="none" stroke="#63b8ff" d="M699.13,-46.5C713.08,-46.5 727.2,-46.5 740.65,-46.5"/>
<polygon fill="#63b8ff" stroke="#63b8ff" points="740.78,-50 750.78,-46.5 740.78,-43 740.78,-50"/>
</a>
</g>
</g>
<!-- Node8 -->
<g id="Node000008" class="node">
<title>Node8</title>
<g id="a_Node000008"><a xlink:href="../../db/d4b/classSerializer.html#a3c3d58eaacc5f3c6f19cfde75424e9cc" target="_top" xlink:title=" ">
<polygon fill="white" stroke="#666666" points="890,-19 754,-19 754,0 890,0 890,-19"/>
<text text-anchor="middle" x="822" y="-7" font-family="Helvetica,sans-Serif" font-size="10.00">Serializer::serializeUInt8</text>
</a>
</g>
</g>
<!-- Node6&#45;&gt;Node8 -->
<g id="edge7_Node000006_Node000008" class="edge">
<title>Node6&#45;&gt;Node8</title>
<g id="a_edge7_Node000006_Node000008"><a xlink:title=" ">
<path fill="none" stroke="#63b8ff" d="M652.83,-36.97C683.23,-32.01 720.59,-25.9 752.37,-20.71"/>
<polygon fill="#63b8ff" stroke="#63b8ff" points="753.17,-24.13 762.48,-19.06 752.04,-17.22 753.17,-24.13"/>
</a>
</g>
</g>
</g>
</svg>
