<?xml version="1.0" encoding="UTF-8" standalone="no"?>
<!DOCTYPE svg PUBLIC "-//W3C//DTD SVG 1.1//EN"
 "http://www.w3.org/Graphics/SVG/1.1/DTD/svg11.dtd">
<!-- Generated by graphviz version 2.43.0 (0)
 -->
<!-- Title: NetworkManager::handleUserNameUpdate Pages: 1 -->
<!--zoomable 175 -->

<svg id="main" version="1.1" xmlns="http://www.w3.org/2000/svg" xmlns:xlink="http://www.w3.org/1999/xlink" xml:space="preserve" onload="init(evt)">
<style type="text/css"><![CDATA[
.node, .edge {opacity: 0.7;}
.node.selected, .edge.selected {opacity: 1;}
.edge:hover path { stroke: red; }
.edge:hover polygon { stroke: red; fill: red; }
]]></style>

<defs>
  <circle id="rim" cx="0" cy="0" r="7"/>
  <circle id="rim2" cx="0" cy="0" r="3.5"/>
  <g id="zoomPlus">
    <use xlink:href="#rim" fill="#404040"><set attributeName="fill" to="#808080" begin="zoomplus.mouseover" end="zoomplus.mouseout"/></use>
    <path d="M-4,0h8M0,-4v8" fill="none" stroke="white" stroke-width="1.5" pointer-events="none"/>
  </g>
  <g id="zoomMin">
    <use xlink:href="#rim" fill="#404040"><set attributeName="fill" to="#808080" begin="zoomminus.mouseover" end="zoomminus.mouseout"/></use>
    <path d="M-4,0h8" fill="none" stroke="white" stroke-width="1.5" pointer-events="none"/>
  </g>
  <g id="arrowUp" transform="translate(30 24)">
    <use xlink:href="#rim"/>
    <path pointer-events="none" fill="none" stroke="white" stroke-width="1.5" d="M0,-3.0v7 M-2.5,-0.5L0,-3.0L2.5,-0.5"/>
  </g>
  <g id="arrowRight" transform="rotate(90) translate(36 -43)">
    <use xlink:href="#rim"/>
    <path pointer-events="none" fill="none" stroke="white" stroke-width="1.5" d="M0,-3.0v7 M-2.5,-0.5L0,-3.0L2.5,-0.5"/>
  </g>
  <g id="arrowDown" transform="rotate(180) translate(-30 -48)">
    <use xlink:href="#rim"/>
    <path pointer-events="none" fill="none" stroke="white" stroke-width="1.5" d="M0,-3.0v7 M-2.5,-0.5L0,-3.0L2.5,-0.5"/>
  </g>
  <g id="arrowLeft" transform="rotate(270) translate(-36 17)">
    <use xlink:href="#rim"/>
    <path pointer-events="none" fill="none" stroke="white" stroke-width="1.5" d="M0,-3.0v7 M-2.5,-0.5L0,-3.0L2.5,-0.5"/>
  </g>
  <g id="resetDef">
    <use xlink:href="#rim2" fill="#404040"><set attributeName="fill" to="#808080" begin="reset.mouseover" end="reset.mouseout"/></use>
  </g>
</defs>
<script type="application/ecmascript">
var viewWidth = 595;
var viewHeight = 175;
var sectionId = 'dynsection-115';
</script>
<script type="application/ecmascript" xlink:href="../../svg.min.js"/>
<svg id="graph" class="graph">
<g id="viewport">
<title>NetworkManager::handleUserNameUpdate</title>
<!-- Node1 -->
<g id="Node000001" class="node">
<title>Node1</title>
<g id="a_Node000001"><a xlink:title=" ">
<polygon fill="#999999" stroke="#666666" points="227,-93 0,-93 0,-74 227,-74 227,-93"/>
<text text-anchor="middle" x="113.5" y="-81" font-family="Helvetica,sans-Serif" font-size="10.00">NetworkManager::handleUserNameUpdate</text>
</a>
</g>
</g>
<!-- Node2 -->
<g id="Node000002" class="node">
<title>Node2</title>
<g id="a_Node000002"><a xlink:href="../../db/d4b/classSerializer.html#a47d1b2e09aaa99426b40f965ef2bf284" target="_top" xlink:title=" ">
<polygon fill="white" stroke="#666666" points="415,-167 265,-167 265,-148 415,-148 415,-167"/>
<text text-anchor="middle" x="340" y="-155" font-family="Helvetica,sans-Serif" font-size="10.00">Serializer::deserializeString</text>
</a>
</g>
</g>
<!-- Node1&#45;&gt;Node2 -->
<g id="edge1_Node000001_Node000002" class="edge">
<title>Node1&#45;&gt;Node2</title>
<g id="a_edge1_Node000001_Node000002"><a xlink:title=" ">
<path fill="none" stroke="#63b8ff" d="M137.33,-93.16C166.22,-105.13 217.68,-125.65 263,-139.5 269.95,-141.63 277.33,-143.65 284.64,-145.52"/>
<polygon fill="#63b8ff" stroke="#63b8ff" points="283.99,-148.97 294.54,-147.98 285.67,-142.17 283.99,-148.97"/>
</a>
</g>
</g>
<!-- Node4 -->
<g id="Node000004" class="node">
<title>Node4</title>
<g id="a_Node000004"><a xlink:href="../../db/d4b/classSerializer.html#abc991f78f5490e60783620ab4c3444e6" target="_top" xlink:title=" ">
<polygon fill="white" stroke="#666666" points="417,-130 263,-130 263,-111 417,-111 417,-130"/>
<text text-anchor="middle" x="340" y="-118" font-family="Helvetica,sans-Serif" font-size="10.00">Serializer::deserializeUInt64</text>
</a>
</g>
</g>
<!-- Node1&#45;&gt;Node4 -->
<g id="edge3_Node000001_Node000004" class="edge">
<title>Node1&#45;&gt;Node4</title>
<g id="a_edge3_Node000001_Node000004"><a xlink:title=" ">
<path fill="none" stroke="#63b8ff" d="M172.31,-93.03C202.44,-97.99 239.47,-104.1 270.97,-109.29"/>
<polygon fill="#63b8ff" stroke="#63b8ff" points="270.56,-112.77 280.99,-110.94 271.69,-105.86 270.56,-112.77"/>
</a>
</g>
</g>
<!-- Node5 -->
<g id="Node000005" class="node">
<title>Node5</title>
<g id="a_Node000005"><a xlink:href="../../db/d4b/classSerializer.html#a9eea566a2f6dcb71ee0ecd06052b9252" target="_top" xlink:title=" ">
<polygon fill="white" stroke="#666666" points="414,-93 266,-93 266,-74 414,-74 414,-93"/>
<text text-anchor="middle" x="340" y="-81" font-family="Helvetica,sans-Serif" font-size="10.00">Serializer::deserializeUInt8</text>
</a>
</g>
</g>
<!-- Node1&#45;&gt;Node5 -->
<g id="edge4_Node000001_Node000005" class="edge">
<title>Node1&#45;&gt;Node5</title>
<g id="a_edge4_Node000001_Node000005"><a xlink:title=" ">
<path fill="none" stroke="#63b8ff" d="M227.08,-83.5C236.72,-83.5 246.36,-83.5 255.71,-83.5"/>
<polygon fill="#63b8ff" stroke="#63b8ff" points="255.73,-87 265.73,-83.5 255.73,-80 255.73,-87"/>
</a>
</g>
</g>
<!-- Node6 -->
<g id="Node000006" class="node">
<title>Node6</title>
<g id="a_Node000006"><a xlink:href="../../db/d67/classLogger.html#aebb248e608f8e2724de20b482cb2a15f" target="_top" xlink:title=" ">
<polygon fill="white" stroke="#666666" points="388.5,-56 291.5,-56 291.5,-37 388.5,-37 388.5,-56"/>
<text text-anchor="middle" x="340" y="-44" font-family="Helvetica,sans-Serif" font-size="10.00">Logger::instance</text>
</a>
</g>
</g>
<!-- Node1&#45;&gt;Node6 -->
<g id="edge5_Node000001_Node000006" class="edge">
<title>Node1&#45;&gt;Node6</title>
<g id="a_edge5_Node000001_Node000006"><a xlink:title=" ">
<path fill="none" stroke="#63b8ff" d="M172.31,-73.97C205.75,-68.46 247.69,-61.55 281.14,-56.04"/>
<polygon fill="#63b8ff" stroke="#63b8ff" points="281.93,-59.45 291.23,-54.37 280.79,-52.55 281.93,-59.45"/>
</a>
</g>
</g>
<!-- Node7 -->
<g id="Node000007" class="node">
<title>Node7</title>
<g id="a_Node000007"><a xlink:href="../../d3/df0/classMessageQueue.html#ae18e8febb6e78fadd1fc56332a4b7ba2" target="_top" xlink:title=" ">
<polygon fill="white" stroke="#666666" points="400.5,-19 279.5,-19 279.5,0 400.5,0 400.5,-19"/>
<text text-anchor="middle" x="340" y="-7" font-family="Helvetica,sans-Serif" font-size="10.00">MessageQueue::push</text>
</a>
</g>
</g>
<!-- Node1&#45;&gt;Node7 -->
<g id="edge6_Node000001_Node000007" class="edge">
<title>Node1&#45;&gt;Node7</title>
<g id="a_edge6_Node000001_Node000007"><a xlink:title=" ">
<path fill="none" stroke="#63b8ff" d="M137.89,-73.93C166.92,-62.26 218.09,-42.39 263,-28.5 270.85,-26.07 279.23,-23.73 287.45,-21.57"/>
<polygon fill="#63b8ff" stroke="#63b8ff" points="288.54,-24.91 297.36,-19.04 286.8,-18.13 288.54,-24.91"/>
</a>
</g>
</g>
<!-- Node3 -->
<g id="Node000003" class="node">
<title>Node3</title>
<g id="a_Node000003"><a xlink:href="../../db/d4b/classSerializer.html#a45c8b78e8467c6f7dba85fd7a21c8781" target="_top" xlink:title=" ">
<polygon fill="white" stroke="#666666" points="587,-167 453,-167 453,-148 587,-148 587,-167"/>
<text text-anchor="middle" x="520" y="-155" font-family="Helvetica,sans-Serif" font-size="10.00">Serializer::deserializeInt</text>
</a>
</g>
</g>
<!-- Node2&#45;&gt;Node3 -->
<g id="edge2_Node000002_Node000003" class="edge">
<title>Node2&#45;&gt;Node3</title>
<g id="a_edge2_Node000002_Node000003"><a xlink:title=" ">
<path fill="none" stroke="#63b8ff" d="M415.2,-157.5C424.28,-157.5 433.57,-157.5 442.68,-157.5"/>
<polygon fill="#63b8ff" stroke="#63b8ff" points="442.87,-161 452.87,-157.5 442.87,-154 442.87,-161"/>
</a>
</g>
</g>
</g>
</svg>

<g id="navigator" transform="translate(0 0)" fill="#404254">
  <rect fill="#f2f5e9" fill-opacity="0.5" stroke="#606060" stroke-width=".5" x="0" y="0" width="60" height="60"/>
  <use id="zoomplus" xlink:href="#zoomPlus" x="17" y="9" onmousedown="handleZoom(evt,'in')"/>
  <use id="zoomminus" xlink:href="#zoomMin" x="42" y="9" onmousedown="handleZoom(evt,'out')"/>
  <use id="reset" xlink:href="#resetDef" x="30" y="36" onmousedown="handleReset()"/>
   <use id="arrowup" xlink:href="#arrowUp" x="0" y="0" onmousedown="handlePan(0,-1)"/>
  <use id="arrowright" xlink:href="#arrowRight" x="0" y="0" onmousedown="handlePan(1,0)"/>
  <use id="arrowdown" xlink:href="#arrowDown" x="0" y="0" onmousedown="handlePan(0,1)"/>
  <use id="arrowleft" xlink:href="#arrowLeft" x="0" y="0" onmousedown="handlePan(-1,0)"/>
</g>
<svg viewBox="0 0 15 15" width="100%" height="30px" preserveAspectRatio="xMaxYMin meet">
 <g id="arrow_out" transform="scale(0.3 0.3)">
  <a xlink:href="classNetworkManager_a4f87c47c2317b51690a0947bc8ad88b7_cgraph_org.svg" target="_base">
   <rect id="button" ry="5" rx="5" y="6" x="6" height="38" width="38"
        fill="#f2f5e9" fill-opacity="0.5" stroke="#606060" stroke-width="1.0"/>
   <path id="arrow"
     d="M 11.500037,31.436501 C 11.940474,20.09759 22.043105,11.32322 32.158766,21.979434 L 37.068811,17.246167 C 37.068811,17.246167 37.088388,32 37.088388,32 L 22.160133,31.978069 C 22.160133,31.978069 26.997745,27.140456 26.997745,27.140456 C 18.528582,18.264221 13.291696,25.230495 11.500037,31.436501 z"
     style="fill:#404040;"/>
  </a>
 </g>
</svg>

<style type='text/css'>
<![CDATA[
[data-mouse-over-selected='false'] { opacity: 0.7; }
[data-mouse-over-selected='true']  { opacity: 1.0; }
]]>
</style>
<script type="application/ecmascript"><![CDATA[
document.addEventListener('DOMContentLoaded', (event) => {
  highlightEdges();
  highlightAdjacentNodes();
});
]]></script>
</svg>
