<?xml version="1.0" encoding="UTF-8" standalone="no"?>
<!DOCTYPE svg PUBLIC "-//W3C//DTD SVG 1.1//EN"
 "http://www.w3.org/Graphics/SVG/1.1/DTD/svg11.dtd">
<!-- Generated by graphviz version 2.43.0 (0)
 -->
<!-- Title: NetworkManager::closeServer Pages: 1 -->
<svg width="593pt" height="27pt"
 viewBox="0.00 0.00 593.00 27.00" xmlns="http://www.w3.org/2000/svg" xmlns:xlink="http://www.w3.org/1999/xlink">
<g id="graph0" class="graph" transform="scale(1 1) rotate(0) translate(4 23)">
<title>NetworkManager::closeServer</title>
<!-- Node1 -->
<g id="Node000001" class="node">
<title>Node1</title>
<g id="a_Node000001"><a xlink:title=" ">
<polygon fill="#999999" stroke="#666666" points="164,-19 0,-19 0,0 164,0 164,-19"/>
<text text-anchor="middle" x="82" y="-7" font-family="Helvetica,sans-Serif" font-size="10.00">NetworkManager::closeServer</text>
</a>
</g>
</g>
<!-- Node2 -->
<g id="Node000002" class="node">
<title>Node2</title>
<g id="a_Node000002"><a xlink:href="../../dd/d71/classNetworkUtilities.html#a1aff5744053044b32a0b910f02abc05a" target="_top" xlink:title=" ">
<polygon fill="white" stroke="#666666" points="380,-19 200,-19 200,0 380,0 380,-19"/>
<text text-anchor="middle" x="290" y="-7" font-family="Helvetica,sans-Serif" font-size="10.00">NetworkUtilities::stopLocalTunnel</text>
</a>
</g>
</g>
<!-- Node1&#45;&gt;Node2 -->
<g id="edge1_Node000001_Node000002" class="edge">
<title>Node1&#45;&gt;Node2</title>
<g id="a_edge1_Node000001_Node000002"><a xlink:title=" ">
<path fill="none" stroke="#63b8ff" d="M164.12,-9.5C172.54,-9.5 181.16,-9.5 189.74,-9.5"/>
<polygon fill="#63b8ff" stroke="#63b8ff" points="189.79,-13 199.79,-9.5 189.79,-6 189.79,-13"/>
</a>
</g>
</g>
<!-- Node3 -->
<g id="Node000003" class="node">
<title>Node3</title>
<g id="a_Node000003"><a xlink:href="../../dd/d71/classNetworkUtilities.html#a9bb500d7c81ea448babc07ac94e6bd65" target="_top" xlink:title=" ">
<polygon fill="white" stroke="#666666" points="585,-19 416,-19 416,0 585,0 585,-19"/>
<text text-anchor="middle" x="500.5" y="-7" font-family="Helvetica,sans-Serif" font-size="10.00">NetworkUtilities::closeHandleIf</text>
</a>
</g>
</g>
<!-- Node2&#45;&gt;Node3 -->
<g id="edge2_Node000002_Node000003" class="edge">
<title>Node2&#45;&gt;Node3</title>
<g id="a_edge2_Node000002_Node000003"><a xlink:title=" ">
<path fill="none" stroke="#63b8ff" d="M380.03,-9.5C388.45,-9.5 397,-9.5 405.47,-9.5"/>
<polygon fill="#63b8ff" stroke="#63b8ff" points="405.73,-13 415.73,-9.5 405.73,-6 405.73,-13"/>
</a>
</g>
</g>
</g>
</svg>
