<?xml version="1.0" encoding="UTF-8" standalone="no"?>
<!DOCTYPE svg PUBLIC "-//W3C//DTD SVG 1.1//EN"
 "http://www.w3.org/Graphics/SVG/1.1/DTD/svg11.dtd">
<!-- Generated by graphviz version 2.43.0 (0)
 -->
<!-- Title: NetworkManager::handleGridUpdate Pages: 1 -->
<svg width="794pt" height="176pt"
 viewBox="0.00 0.00 794.00 176.00" xmlns="http://www.w3.org/2000/svg" xmlns:xlink="http://www.w3.org/1999/xlink">
<g id="graph0" class="graph" transform="scale(1 1) rotate(0) translate(4 172)">
<title>NetworkManager::handleGridUpdate</title>
<!-- Node1 -->
<g id="Node000001" class="node">
<title>Node1</title>
<g id="a_Node000001"><a xlink:title=" ">
<polygon fill="#999999" stroke="#666666" points="195,-74 0,-74 0,-55 195,-55 195,-74"/>
<text text-anchor="middle" x="97.5" y="-62" font-family="Helvetica,sans-Serif" font-size="10.00">NetworkManager::handleGridUpdate</text>
</a>
</g>
</g>
<!-- Node2 -->
<g id="Node000002" class="node">
<title>Node2</title>
<g id="a_Node000002"><a xlink:href="../../db/d4b/classSerializer.html#a49904ddf8105f688d32b366b5090a36a" target="_top" xlink:title=" ">
<polygon fill="white" stroke="#666666" points="398,-130 256,-130 256,-111 398,-111 398,-130"/>
<text text-anchor="middle" x="327" y="-118" font-family="Helvetica,sans-Serif" font-size="10.00">Serializer::deserializeGrid</text>
</a>
</g>
</g>
<!-- Node1&#45;&gt;Node2 -->
<g id="edge1_Node000001_Node000002" class="edge">
<title>Node1&#45;&gt;Node2</title>
<g id="a_edge1_Node000001_Node000002"><a xlink:title=" ">
<path fill="none" stroke="#63b8ff" d="M130.19,-74.07C156.92,-81.97 196.27,-93.19 231,-101.5 241.77,-104.08 253.29,-106.59 264.45,-108.89"/>
<polygon fill="#63b8ff" stroke="#63b8ff" points="264.07,-112.39 274.57,-110.95 265.47,-105.53 264.07,-112.39"/>
</a>
</g>
</g>
<!-- Node6 -->
<g id="Node000006" class="node">
<title>Node6</title>
<g id="a_Node000006"><a xlink:href="../../db/d4b/classSerializer.html#abc991f78f5490e60783620ab4c3444e6" target="_top" xlink:title=" ">
<polygon fill="white" stroke="#666666" points="404,-93 250,-93 250,-74 404,-74 404,-93"/>
<text text-anchor="middle" x="327" y="-81" font-family="Helvetica,sans-Serif" font-size="10.00">Serializer::deserializeUInt64</text>
</a>
</g>
</g>
<!-- Node1&#45;&gt;Node6 -->
<g id="edge6_Node000001_Node000006" class="edge">
<title>Node1&#45;&gt;Node6</title>
<g id="a_edge6_Node000001_Node000006"><a xlink:title=" ">
<path fill="none" stroke="#63b8ff" d="M195.31,-72.59C210.15,-73.82 225.38,-75.1 239.96,-76.31"/>
<polygon fill="#63b8ff" stroke="#63b8ff" points="239.69,-79.8 249.94,-77.15 240.27,-72.83 239.69,-79.8"/>
</a>
</g>
</g>
<!-- Node7 -->
<g id="Node000007" class="node">
<title>Node7</title>
<g id="a_Node000007"><a xlink:href="../../d6/d6f/classNetworkManager.html#aed1ae9bdd229ea45245fc0b540187779" target="_top" xlink:title=" ">
<polygon fill="white" stroke="#666666" points="423,-56 231,-56 231,-37 423,-37 423,-56"/>
<text text-anchor="middle" x="327" y="-44" font-family="Helvetica,sans-Serif" font-size="10.00">NetworkManager::ensureRemaining</text>
</a>
</g>
</g>
<!-- Node1&#45;&gt;Node7 -->
<g id="edge7_Node000001_Node000007" class="edge">
<title>Node1&#45;&gt;Node7</title>
<g id="a_edge7_Node000001_Node000007"><a xlink:title=" ">
<path fill="none" stroke="#63b8ff" d="M195.31,-56.84C203.65,-56.18 212.11,-55.51 220.52,-54.85"/>
<polygon fill="#63b8ff" stroke="#63b8ff" points="221.03,-58.32 230.73,-54.04 220.48,-51.34 221.03,-58.32"/>
</a>
</g>
</g>
<!-- Node8 -->
<g id="Node000008" class="node">
<title>Node8</title>
<g id="a_Node000008"><a xlink:href="../../d3/df0/classMessageQueue.html#ae18e8febb6e78fadd1fc56332a4b7ba2" target="_top" xlink:title=" ">
<polygon fill="white" stroke="#666666" points="387.5,-19 266.5,-19 266.5,0 387.5,0 387.5,-19"/>
<text text-anchor="middle" x="327" y="-7" font-family="Helvetica,sans-Serif" font-size="10.00">MessageQueue::push</text>
</a>
</g>
</g>
<!-- Node1&#45;&gt;Node8 -->
<g id="edge8_Node000001_Node000008" class="edge">
<title>Node1&#45;&gt;Node8</title>
<g id="a_edge8_Node000001_Node000008"><a xlink:title=" ">
<path fill="none" stroke="#63b8ff" d="M129.63,-55C156.36,-47.04 196,-35.69 231,-27.5 240.75,-25.22 251.11,-23.03 261.26,-21"/>
<polygon fill="#63b8ff" stroke="#63b8ff" points="262.18,-24.39 271.33,-19.04 260.84,-17.52 262.18,-24.39"/>
</a>
</g>
</g>
<!-- Node3 -->
<g id="Node000003" class="node">
<title>Node3</title>
<g id="a_Node000003"><a xlink:href="../../db/d4b/classSerializer.html#a6fded0442115eb736f46d377cf37c563" target="_top" xlink:title=" ">
<polygon fill="white" stroke="#666666" points="603,-168 460,-168 460,-149 603,-149 603,-168"/>
<text text-anchor="middle" x="531.5" y="-156" font-family="Helvetica,sans-Serif" font-size="10.00">Serializer::deserializeBool</text>
</a>
</g>
</g>
<!-- Node2&#45;&gt;Node3 -->
<g id="edge2_Node000002_Node000003" class="edge">
<title>Node2&#45;&gt;Node3</title>
<g id="a_edge2_Node000002_Node000003"><a xlink:title=" ">
<path fill="none" stroke="#63b8ff" d="M378.84,-130.04C406.4,-135.21 440.65,-141.64 469.63,-147.08"/>
<polygon fill="#63b8ff" stroke="#63b8ff" points="469.17,-150.55 479.64,-148.96 470.46,-143.67 469.17,-150.55"/>
</a>
</g>
</g>
<!-- Node4 -->
<g id="Node000004" class="node">
<title>Node4</title>
<g id="a_Node000004"><a xlink:href="../../db/d4b/classSerializer.html#a4281872677d0169f97044b8708014adb" target="_top" xlink:title=" ">
<polygon fill="white" stroke="#666666" points="786,-111 640,-111 640,-92 786,-92 786,-111"/>
<text text-anchor="middle" x="713" y="-99" font-family="Helvetica,sans-Serif" font-size="10.00">Serializer::deserializeFloat</text>
</a>
</g>
</g>
<!-- Node2&#45;&gt;Node4 -->
<g id="edge3_Node000002_Node000004" class="edge">
<title>Node2&#45;&gt;Node4</title>
<g id="a_edge3_Node000002_Node000004"><a xlink:title=" ">
<path fill="none" stroke="#63b8ff" d="M398.43,-117.02C463.61,-113.79 560.55,-108.99 629.37,-105.59"/>
<polygon fill="#63b8ff" stroke="#63b8ff" points="629.92,-109.07 639.73,-105.08 629.57,-102.07 629.92,-109.07"/>
</a>
</g>
</g>
<!-- Node5 -->
<g id="Node000005" class="node">
<title>Node5</title>
<g id="a_Node000005"><a xlink:href="../../db/d4b/classSerializer.html#ab8d82b453f8566db58a5f2e335924ff8" target="_top" xlink:title=" ">
<polygon fill="white" stroke="#666666" points="604,-92 459,-92 459,-73 604,-73 604,-92"/>
<text text-anchor="middle" x="531.5" y="-80" font-family="Helvetica,sans-Serif" font-size="10.00">Serializer::deserializeVec2</text>
</a>
</g>
</g>
<!-- Node2&#45;&gt;Node5 -->
<g id="edge4_Node000002_Node000005" class="edge">
<title>Node2&#45;&gt;Node5</title>
<g id="a_edge4_Node000002_Node000005"><a xlink:title=" ">
<path fill="none" stroke="#63b8ff" d="M378.84,-110.96C406.4,-105.79 440.65,-99.36 469.63,-93.92"/>
<polygon fill="#63b8ff" stroke="#63b8ff" points="470.46,-97.33 479.64,-92.04 469.17,-90.45 470.46,-97.33"/>
</a>
</g>
</g>
<!-- Node5&#45;&gt;Node4 -->
<g id="edge5_Node000005_Node000004" class="edge">
<title>Node5&#45;&gt;Node4</title>
<g id="a_edge5_Node000005_Node000004"><a xlink:title=" ">
<path fill="none" stroke="#63b8ff" d="M604.22,-90.09C612.64,-90.98 621.28,-91.9 629.83,-92.8"/>
<polygon fill="#63b8ff" stroke="#63b8ff" points="629.5,-96.29 639.81,-93.86 630.23,-89.33 629.5,-96.29"/>
</a>
</g>
</g>
</g>
</svg>
