<?xml version="1.0" encoding="UTF-8" standalone="no"?>
<!DOCTYPE svg PUBLIC "-//W3C//DTD SVG 1.1//EN"
 "http://www.w3.org/Graphics/SVG/1.1/DTD/svg11.dtd">
<!-- Generated by graphviz version 2.43.0 (0)
 -->
<!-- Title: NetworkManager::buildMarkerMoveFrame Pages: 1 -->
<svg width="585pt" height="175pt"
 viewBox="0.00 0.00 585.00 175.00" xmlns="http://www.w3.org/2000/svg" xmlns:xlink="http://www.w3.org/1999/xlink">
<g id="graph0" class="graph" transform="scale(1 1) rotate(0) translate(4 171)">
<title>NetworkManager::buildMarkerMoveFrame</title>
<!-- Node1 -->
<g id="Node000001" class="node">
<title>Node1</title>
<g id="a_Node000001"><a xlink:title=" ">
<polygon fill="#999999" stroke="#666666" points="222,-93 0,-93 0,-74 222,-74 222,-93"/>
<text text-anchor="middle" x="111" y="-81" font-family="Helvetica,sans-Serif" font-size="10.00">NetworkManager::buildMarkerMoveFrame</text>
</a>
</g>
</g>
<!-- Node2 -->
<g id="Node000002" class="node">
<title>Node2</title>
<g id="a_Node000002"><a xlink:href="../../d6/d6f/classNetworkManager.html#a1ca85e76187f45d46596a1d04d713f0f" target="_top" xlink:title=" ">
<polygon fill="white" stroke="#666666" points="403,-167 262,-167 262,-148 403,-148 403,-167"/>
<text text-anchor="middle" x="332.5" y="-155" font-family="Helvetica,sans-Serif" font-size="10.00">NetworkManager::nowMs</text>
</a>
</g>
</g>
<!-- Node1&#45;&gt;Node2 -->
<g id="edge1_Node000001_Node000002" class="edge">
<title>Node1&#45;&gt;Node2</title>
<g id="a_edge1_Node000001_Node000002"><a xlink:title=" ">
<path fill="none" stroke="#63b8ff" d="M134.45,-93.13C162.85,-105.07 213.44,-125.56 258,-139.5 264.57,-141.56 271.53,-143.52 278.45,-145.35"/>
<polygon fill="#63b8ff" stroke="#63b8ff" points="277.94,-148.84 288.5,-147.93 279.68,-142.06 277.94,-148.84"/>
</a>
</g>
</g>
<!-- Node3 -->
<g id="Node000003" class="node">
<title>Node3</title>
<g id="a_Node000003"><a xlink:href="../../db/d4b/classSerializer.html#a9552a2e71fe480af903507fb148c8964" target="_top" xlink:title=" ">
<polygon fill="white" stroke="#666666" points="407,-130 258,-130 258,-111 407,-111 407,-130"/>
<text text-anchor="middle" x="332.5" y="-118" font-family="Helvetica,sans-Serif" font-size="10.00">Serializer::serializePosition</text>
</a>
</g>
</g>
<!-- Node1&#45;&gt;Node3 -->
<g id="edge2_Node000001_Node000003" class="edge">
<title>Node1&#45;&gt;Node3</title>
<g id="a_edge2_Node000001_Node000003"><a xlink:title=" ">
<path fill="none" stroke="#63b8ff" d="M168.53,-93.03C197.86,-97.97 233.88,-104.04 264.59,-109.22"/>
<polygon fill="#63b8ff" stroke="#63b8ff" points="264.34,-112.73 274.78,-110.94 265.5,-105.83 264.34,-112.73"/>
</a>
</g>
</g>
<!-- Node5 -->
<g id="Node000005" class="node">
<title>Node5</title>
<g id="a_Node000005"><a xlink:href="../../db/d4b/classSerializer.html#ac0cbc3ff6cc924221db1eebb6bb6b33b" target="_top" xlink:title=" ">
<polygon fill="white" stroke="#666666" points="403.5,-93 261.5,-93 261.5,-74 403.5,-74 403.5,-93"/>
<text text-anchor="middle" x="332.5" y="-81" font-family="Helvetica,sans-Serif" font-size="10.00">Serializer::serializeUInt32</text>
</a>
</g>
</g>
<!-- Node1&#45;&gt;Node5 -->
<g id="edge4_Node000001_Node000005" class="edge">
<title>Node1&#45;&gt;Node5</title>
<g id="a_edge4_Node000001_Node000005"><a xlink:title=" ">
<path fill="none" stroke="#63b8ff" d="M222.07,-83.5C231.89,-83.5 241.71,-83.5 251.2,-83.5"/>
<polygon fill="#63b8ff" stroke="#63b8ff" points="251.37,-87 261.37,-83.5 251.37,-80 251.37,-87"/>
</a>
</g>
</g>
<!-- Node6 -->
<g id="Node000006" class="node">
<title>Node6</title>
<g id="a_Node000006"><a xlink:href="../../db/d4b/classSerializer.html#a60889622ee4e36ea28a284e99bbdf4e5" target="_top" xlink:title=" ">
<polygon fill="white" stroke="#666666" points="403.5,-56 261.5,-56 261.5,-37 403.5,-37 403.5,-56"/>
<text text-anchor="middle" x="332.5" y="-44" font-family="Helvetica,sans-Serif" font-size="10.00">Serializer::serializeUInt64</text>
</a>
</g>
</g>
<!-- Node1&#45;&gt;Node6 -->
<g id="edge5_Node000001_Node000006" class="edge">
<title>Node1&#45;&gt;Node6</title>
<g id="a_edge5_Node000001_Node000006"><a xlink:title=" ">
<path fill="none" stroke="#63b8ff" d="M168.53,-73.97C197.86,-69.03 233.88,-62.96 264.59,-57.78"/>
<polygon fill="#63b8ff" stroke="#63b8ff" points="265.5,-61.17 274.78,-56.06 264.34,-54.27 265.5,-61.17"/>
</a>
</g>
</g>
<!-- Node7 -->
<g id="Node000007" class="node">
<title>Node7</title>
<g id="a_Node000007"><a xlink:href="../../db/d4b/classSerializer.html#a3c3d58eaacc5f3c6f19cfde75424e9cc" target="_top" xlink:title=" ">
<polygon fill="white" stroke="#666666" points="400.5,-19 264.5,-19 264.5,0 400.5,0 400.5,-19"/>
<text text-anchor="middle" x="332.5" y="-7" font-family="Helvetica,sans-Serif" font-size="10.00">Serializer::serializeUInt8</text>
</a>
</g>
</g>
<!-- Node1&#45;&gt;Node7 -->
<g id="edge6_Node000001_Node000007" class="edge">
<title>Node1&#45;&gt;Node7</title>
<g id="a_edge6_Node000001_Node000007"><a xlink:title=" ">
<path fill="none" stroke="#63b8ff" d="M134.99,-73.96C163.53,-62.32 213.84,-42.48 258,-28.5 265.51,-26.12 273.52,-23.82 281.39,-21.69"/>
<polygon fill="#63b8ff" stroke="#63b8ff" points="282.45,-25.02 291.22,-19.08 280.66,-18.26 282.45,-25.02"/>
</a>
</g>
</g>
<!-- Node4 -->
<g id="Node000004" class="node">
<title>Node4</title>
<g id="a_Node000004"><a xlink:href="../../db/d4b/classSerializer.html#a92ffe65857abd6eea6a393056a9bb533" target="_top" xlink:title=" ">
<polygon fill="white" stroke="#666666" points="577,-130 443,-130 443,-111 577,-111 577,-130"/>
<text text-anchor="middle" x="510" y="-118" font-family="Helvetica,sans-Serif" font-size="10.00">Serializer::serializeFloat</text>
</a>
</g>
</g>
<!-- Node3&#45;&gt;Node4 -->
<g id="edge3_Node000003_Node000004" class="edge">
<title>Node3&#45;&gt;Node4</title>
<g id="a_edge3_Node000003_Node000004"><a xlink:title=" ">
<path fill="none" stroke="#63b8ff" d="M407.16,-120.5C415.57,-120.5 424.15,-120.5 432.58,-120.5"/>
<polygon fill="#63b8ff" stroke="#63b8ff" points="432.78,-124 442.78,-120.5 432.78,-117 432.78,-124"/>
</a>
</g>
</g>
</g>
</svg>
