<?xml version="1.0" encoding="UTF-8" standalone="no"?>
<!DOCTYPE svg PUBLIC "-//W3C//DTD SVG 1.1//EN"
 "http://www.w3.org/Graphics/SVG/1.1/DTD/svg11.dtd">
<!-- Generated by graphviz version 2.43.0 (0)
 -->
<!-- Title: include/network/Message.h Pages: 1 -->
<!--zoomable 247 -->

<svg id="main" version="1.1" xmlns="http://www.w3.org/2000/svg" xmlns:xlink="http://www.w3.org/1999/xlink" xml:space="preserve" onload="init(evt)">
<style type="text/css"><![CDATA[
.node, .edge {opacity: 0.7;}
.node.selected, .edge.selected {opacity: 1;}
.edge:hover path { stroke: red; }
.edge:hover polygon { stroke: red; fill: red; }
]]></style>

<defs>
  <circle id="rim" cx="0" cy="0" r="7"/>
  <circle id="rim2" cx="0" cy="0" r="3.5"/>
  <g id="zoomPlus">
    <use xlink:href="#rim" fill="#404040"><set attributeName="fill" to="#808080" begin="zoomplus.mouseover" end="zoomplus.mouseout"/></use>
    <path d="M-4,0h8M0,-4v8" fill="none" stroke="white" stroke-width="1.5" pointer-events="none"/>
  </g>
  <g id="zoomMin">
    <use xlink:href="#rim" fill="#404040"><set attributeName="fill" to="#808080" begin="zoomminus.mouseover" end="zoomminus.mouseout"/></use>
    <path d="M-4,0h8" fill="none" stroke="white" stroke-width="1.5" pointer-events="none"/>
  </g>
  <g id="arrowUp" transform="translate(30 24)">
    <use xlink:href="#rim"/>
    <path pointer-events="none" fill="none" stroke="white" stroke-width="1.5" d="M0,-3.0v7 M-2.5,-0.5L0,-3.0L2.5,-0.5"/>
  </g>
  <g id="arrowRight" transform="rotate(90) translate(36 -43)">
    <use xlink:href="#rim"/>
    <path pointer-events="none" fill="none" stroke="white" stroke-width="1.5" d="M0,-3.0v7 M-2.5,-0.5L0,-3.0L2.5,-0.5"/>
  </g>
  <g id="arrowDown" transform="rotate(180) translate(-30 -48)">
    <use xlink:href="#rim"/>
    <path pointer-events="none" fill="none" stroke="white" stroke-width="1.5" d="M0,-3.0v7 M-2.5,-0.5L0,-3.0L2.5,-0.5"/>
  </g>
  <g id="arrowLeft" transform="rotate(270) translate(-36 17)">
    <use xlink:href="#rim"/>
    <path pointer-events="none" fill="none" stroke="white" stroke-width="1.5" d="M0,-3.0v7 M-2.5,-0.5L0,-3.0L2.5,-0.5"/>
  </g>
  <g id="resetDef">
    <use xlink:href="#rim2" fill="#404040"><set attributeName="fill" to="#808080" begin="reset.mouseover" end="reset.mouseout"/></use>
  </g>
</defs>
<script type="application/ecmascript">
var viewWidth = 1263;
var viewHeight = 247;
var sectionId = 'dynsection-1';
</script>
<script type="application/ecmascript" xlink:href="../../svg.min.js"/>
<svg id="graph" class="graph">
<g id="viewport">
<title>include/network/Message.h</title>
<!-- Node1 -->
<g id="Node000001" class="node">
<title>Node1</title>
<g id="a_Node000001"><a xlink:title=" ">
<polygon fill="#999999" stroke="#666666" points="999.5,-239 849.5,-239 849.5,-220 999.5,-220 999.5,-239"/>
<text text-anchor="middle" x="924.5" y="-227" font-family="Helvetica,sans-Serif" font-size="10.00">include/network/Message.h</text>
</a>
</g>
</g>
<!-- Node2 -->
<g id="Node000002" class="node">
<title>Node2</title>
<g id="a_Node000002"><a xlink:href="../../d4/d97/ChatManager_8h.html" target="_top" xlink:title=" ">
<polygon fill="white" stroke="#666666" points="414.5,-184 286.5,-184 286.5,-165 414.5,-165 414.5,-184"/>
<text text-anchor="middle" x="350.5" y="-172" font-family="Helvetica,sans-Serif" font-size="10.00">include/ChatManager.h</text>
</a>
</g>
</g>
<!-- Node1&#45;&gt;Node2 -->
<g id="edge1_Node000001_Node000002" class="edge">
<title>Node1&#45;&gt;Node2</title>
<g id="a_edge1_Node000001_Node000002"><a xlink:title=" ">
<path fill="none" stroke="#63b8ff" d="M839.2,-220.62C723.19,-209.91 518.25,-190.99 414.51,-181.41"/>
<polygon fill="#63b8ff" stroke="#63b8ff" points="839.18,-224.14 849.46,-221.57 839.82,-217.17 839.18,-224.14"/>
</a>
</g>
</g>
<!-- Node8 -->
<g id="Node000008" class="node">
<title>Node8</title>
<g id="a_Node000008"><a xlink:href="../../d2/ddd/NetworkManager_8cpp.html" target="_top" xlink:title=" ">
<polygon fill="white" stroke="#666666" points="771.5,-74 591.5,-74 591.5,-55 771.5,-55 771.5,-74"/>
<text text-anchor="middle" x="681.5" y="-62" font-family="Helvetica,sans-Serif" font-size="10.00">src/network/NetworkManager.cpp</text>
</a>
</g>
</g>
<!-- Node1&#45;&gt;Node8 -->
<g id="edge20_Node000001_Node000008" class="edge">
<title>Node1&#45;&gt;Node8</title>
<g id="a_edge20_Node000001_Node000008"><a xlink:title=" ">
<path fill="none" stroke="#63b8ff" d="M1009.78,-223.75C1125.37,-214.36 1309.67,-187.09 1238.5,-110 1207.55,-76.48 921.29,-68.19 771.68,-66.16"/>
<polygon fill="#63b8ff" stroke="#63b8ff" points="1009.2,-220.29 999.51,-224.56 1009.75,-227.27 1009.2,-220.29"/>
</a>
</g>
</g>
<!-- Node12 -->
<g id="Node000012" class="node">
<title>Node12</title>
<g id="a_Node000012"><a xlink:href="../../dd/d6c/NetworkManager_8h.html" target="_top" xlink:title=" ">
<polygon fill="white" stroke="#666666" points="785.5,-184 595.5,-184 595.5,-165 785.5,-165 785.5,-184"/>
<text text-anchor="middle" x="690.5" y="-172" font-family="Helvetica,sans-Serif" font-size="10.00">include/network/NetworkManager.h</text>
</a>
</g>
</g>
<!-- Node1&#45;&gt;Node12 -->
<g id="edge12_Node000001_Node000012" class="edge">
<title>Node1&#45;&gt;Node12</title>
<g id="a_edge12_Node000001_Node000012"><a xlink:title=" ">
<path fill="none" stroke="#63b8ff" d="M877.05,-217.75C833.2,-207.82 768.9,-193.26 728.39,-184.08"/>
<polygon fill="#63b8ff" stroke="#63b8ff" points="876.38,-221.19 886.9,-219.98 877.92,-214.36 876.38,-221.19"/>
</a>
</g>
</g>
<!-- Node14 -->
<g id="Node000014" class="node">
<title>Node14</title>
<g id="a_Node000014"><a xlink:href="../../d5/d9e/PeerLink_8cpp.html" target="_top" xlink:title=" ">
<polygon fill="white" stroke="#666666" points="849,-129 710,-129 710,-110 849,-110 849,-129"/>
<text text-anchor="middle" x="779.5" y="-117" font-family="Helvetica,sans-Serif" font-size="10.00">src/network/PeerLink.cpp</text>
</a>
</g>
</g>
<!-- Node1&#45;&gt;Node14 -->
<g id="edge21_Node000001_Node000014" class="edge">
<title>Node1&#45;&gt;Node14</title>
<g id="a_edge21_Node000001_Node000014"><a xlink:title=" ">
<path fill="none" stroke="#63b8ff" d="M904.36,-213.5C873.58,-190.57 815.78,-147.52 791.12,-129.16"/>
<polygon fill="#63b8ff" stroke="#63b8ff" points="902.52,-216.5 912.63,-219.66 906.7,-210.88 902.52,-216.5"/>
</a>
</g>
</g>
<!-- Node15 -->
<g id="Node000015" class="node">
<title>Node15</title>
<g id="a_Node000015"><a xlink:href="../../d5/d2c/SignalingClient_8cpp.html" target="_top" xlink:title=" ">
<polygon fill="white" stroke="#666666" points="1037.5,-129 867.5,-129 867.5,-110 1037.5,-110 1037.5,-129"/>
<text text-anchor="middle" x="952.5" y="-117" font-family="Helvetica,sans-Serif" font-size="10.00">src/network/SignalingClient.cpp</text>
</a>
</g>
</g>
<!-- Node1&#45;&gt;Node15 -->
<g id="edge22_Node000001_Node000015" class="edge">
<title>Node1&#45;&gt;Node15</title>
<g id="a_edge22_Node000001_Node000015"><a xlink:title=" ">
<path fill="none" stroke="#63b8ff" d="M929.35,-209.8C935.47,-186.2 945.74,-146.58 950.26,-129.16"/>
<polygon fill="#63b8ff" stroke="#63b8ff" points="925.91,-209.1 926.79,-219.66 932.69,-210.86 925.91,-209.1"/>
</a>
</g>
</g>
<!-- Node16 -->
<g id="Node000016" class="node">
<title>Node16</title>
<g id="a_Node000016"><a xlink:href="../../d3/d2e/SignalingServer_8cpp.html" target="_top" xlink:title=" ">
<polygon fill="white" stroke="#666666" points="1229,-129 1056,-129 1056,-110 1229,-110 1229,-129"/>
<text text-anchor="middle" x="1142.5" y="-117" font-family="Helvetica,sans-Serif" font-size="10.00">src/network/SignalingServer.cpp</text>
</a>
</g>
</g>
<!-- Node1&#45;&gt;Node16 -->
<g id="edge23_Node000001_Node000016" class="edge">
<title>Node1&#45;&gt;Node16</title>
<g id="a_edge23_Node000001_Node000016"><a xlink:title=" ">
<path fill="none" stroke="#63b8ff" d="M951.18,-215.28C996.5,-192.83 1087.33,-147.83 1125.25,-129.05"/>
<polygon fill="#63b8ff" stroke="#63b8ff" points="949.38,-212.27 941.97,-219.84 952.49,-218.54 949.38,-212.27"/>
</a>
</g>
</g>
<!-- Node3 -->
<g id="Node000003" class="node">
<title>Node3</title>
<g id="a_Node000003"><a xlink:href="../../da/d5b/GameTableManager_8h.html" target="_top" xlink:title=" ">
<polygon fill="white" stroke="#666666" points="510,-129 349,-129 349,-110 510,-110 510,-129"/>
<text text-anchor="middle" x="429.5" y="-117" font-family="Helvetica,sans-Serif" font-size="10.00">include/GameTableManager.h</text>
</a>
</g>
</g>
<!-- Node2&#45;&gt;Node3 -->
<g id="edge2_Node000002_Node000003" class="edge">
<title>Node2&#45;&gt;Node3</title>
<g id="a_edge2_Node000002_Node000003"><a xlink:title=" ">
<path fill="none" stroke="#63b8ff" d="M371.89,-159.15C386.17,-149.57 404.47,-137.29 416.58,-129.17"/>
<polygon fill="#63b8ff" stroke="#63b8ff" points="369.55,-156.51 363.19,-164.98 373.45,-162.32 369.55,-156.51"/>
</a>
</g>
</g>
<!-- Node9 -->
<g id="Node000009" class="node">
<title>Node9</title>
<g id="a_Node000009"><a xlink:href="../../d3/d39/NoteEditorUI_8h.html" target="_top" xlink:title=" ">
<polygon fill="white" stroke="#666666" points="194,-129 9,-129 9,-110 194,-110 194,-129"/>
<text text-anchor="middle" x="101.5" y="-117" font-family="Helvetica,sans-Serif" font-size="10.00">include/note_editor/NoteEditorUI.h</text>
</a>
</g>
</g>
<!-- Node2&#45;&gt;Node9 -->
<g id="edge8_Node000002_Node000009" class="edge">
<title>Node2&#45;&gt;Node9</title>
<g id="a_edge8_Node000002_Node000009"><a xlink:title=" ">
<path fill="none" stroke="#63b8ff" d="M300.6,-162.88C253.93,-152.94 185.11,-138.3 141.82,-129.08"/>
<polygon fill="#63b8ff" stroke="#63b8ff" points="299.98,-166.33 310.49,-164.98 301.44,-159.48 299.98,-166.33"/>
</a>
</g>
</g>
<!-- Node11 -->
<g id="Node000011" class="node">
<title>Node11</title>
<g id="a_Node000011"><a xlink:href="../../d2/dae/ChatManager_8cpp.html" target="_top" xlink:title=" ">
<polygon fill="white" stroke="#666666" points="331,-129 212,-129 212,-110 331,-110 331,-129"/>
<text text-anchor="middle" x="271.5" y="-117" font-family="Helvetica,sans-Serif" font-size="10.00">src/ChatManager.cpp</text>
</a>
</g>
</g>
<!-- Node2&#45;&gt;Node11 -->
<g id="edge11_Node000002_Node000011" class="edge">
<title>Node2&#45;&gt;Node11</title>
<g id="a_edge11_Node000002_Node000011"><a xlink:title=" ">
<path fill="none" stroke="#63b8ff" d="M329.11,-159.15C314.83,-149.57 296.53,-137.29 284.42,-129.17"/>
<polygon fill="#63b8ff" stroke="#63b8ff" points="327.55,-162.32 337.81,-164.98 331.45,-156.51 327.55,-162.32"/>
</a>
</g>
</g>
<!-- Node4 -->
<g id="Node000004" class="node">
<title>Node4</title>
<g id="a_Node000004"><a xlink:href="../../df/d64/ApplicationHandler_8h.html" target="_top" xlink:title=" ">
<polygon fill="white" stroke="#666666" points="349.5,-74 193.5,-74 193.5,-55 349.5,-55 349.5,-74"/>
<text text-anchor="middle" x="271.5" y="-62" font-family="Helvetica,sans-Serif" font-size="10.00">include/ApplicationHandler.h</text>
</a>
</g>
</g>
<!-- Node3&#45;&gt;Node4 -->
<g id="edge3_Node000003_Node000004" class="edge">
<title>Node3&#45;&gt;Node4</title>
<g id="a_edge3_Node000003_Node000004"><a xlink:title=" ">
<path fill="none" stroke="#63b8ff" d="M394.62,-106.8C365.13,-96.91 323.57,-82.97 297.08,-74.08"/>
<polygon fill="#63b8ff" stroke="#63b8ff" points="393.52,-110.12 404.11,-109.98 395.75,-103.49 393.52,-110.12"/>
</a>
</g>
</g>
<!-- Node7 -->
<g id="Node000007" class="node">
<title>Node7</title>
<g id="a_Node000007"><a xlink:href="../../d6/ddb/GameTableManager_8cpp.html" target="_top" xlink:title=" ">
<polygon fill="white" stroke="#666666" points="519,-74 368,-74 368,-55 519,-55 519,-74"/>
<text text-anchor="middle" x="443.5" y="-62" font-family="Helvetica,sans-Serif" font-size="10.00">src/GameTableManager.cpp</text>
</a>
</g>
</g>
<!-- Node3&#45;&gt;Node7 -->
<g id="edge6_Node000003_Node000007" class="edge">
<title>Node3&#45;&gt;Node7</title>
<g id="a_edge6_Node000003_Node000007"><a xlink:title=" ">
<path fill="none" stroke="#63b8ff" d="M434.4,-99.95C436.72,-91.15 439.39,-81.06 441.23,-74.09"/>
<polygon fill="#63b8ff" stroke="#63b8ff" points="430.98,-99.19 431.81,-109.75 437.75,-100.97 430.98,-99.19"/>
</a>
</g>
</g>
<!-- Node3&#45;&gt;Node8 -->
<g id="edge7_Node000003_Node000008" class="edge">
<title>Node3&#45;&gt;Node8</title>
<g id="a_edge7_Node000003_Node000008"><a xlink:title=" ">
<path fill="none" stroke="#63b8ff" d="M480,-107.88C527.24,-97.94 596.89,-83.3 640.69,-74.08"/>
<polygon fill="#63b8ff" stroke="#63b8ff" points="479.05,-104.5 469.99,-109.98 480.49,-111.35 479.05,-104.5"/>
</a>
</g>
</g>
<!-- Node5 -->
<g id="Node000005" class="node">
<title>Node5</title>
<g id="a_Node000005"><a xlink:href="../../d1/d2a/ApplicationHandler_8cpp.html" target="_top" xlink:title=" ">
<polygon fill="white" stroke="#666666" points="278.5,-19 132.5,-19 132.5,0 278.5,0 278.5,-19"/>
<text text-anchor="middle" x="205.5" y="-7" font-family="Helvetica,sans-Serif" font-size="10.00">src/ApplicationHandler.cpp</text>
</a>
</g>
</g>
<!-- Node4&#45;&gt;Node5 -->
<g id="edge4_Node000004_Node000005" class="edge">
<title>Node4&#45;&gt;Node5</title>
<g id="a_edge4_Node000004_Node000005"><a xlink:title=" ">
<path fill="none" stroke="#63b8ff" d="M252.95,-48.6C241.12,-39.11 226.21,-27.13 216.3,-19.17"/>
<polygon fill="#63b8ff" stroke="#63b8ff" points="250.91,-51.45 260.9,-54.98 255.29,-45.99 250.91,-51.45"/>
</a>
</g>
</g>
<!-- Node6 -->
<g id="Node000006" class="node">
<title>Node6</title>
<g id="a_Node000006"><a xlink:href="../../df/d0a/main_8cpp.html" target="_top" xlink:title=" ">
<polygon fill="white" stroke="#666666" points="376,-19 297,-19 297,0 376,0 376,-19"/>
<text text-anchor="middle" x="336.5" y="-7" font-family="Helvetica,sans-Serif" font-size="10.00">src/main.cpp</text>
</a>
</g>
</g>
<!-- Node4&#45;&gt;Node6 -->
<g id="edge5_Node000004_Node000006" class="edge">
<title>Node4&#45;&gt;Node6</title>
<g id="a_edge5_Node000004_Node000006"><a xlink:title=" ">
<path fill="none" stroke="#63b8ff" d="M289.77,-48.6C301.42,-39.11 316.1,-27.13 325.87,-19.17"/>
<polygon fill="#63b8ff" stroke="#63b8ff" points="287.48,-45.95 281.94,-54.98 291.91,-51.38 287.48,-45.95"/>
</a>
</g>
</g>
<!-- Node9&#45;&gt;Node4 -->
<g id="edge9_Node000009_Node000004" class="edge">
<title>Node9&#45;&gt;Node4</title>
<g id="a_edge9_Node000009_Node000004"><a xlink:title=" ">
<path fill="none" stroke="#63b8ff" d="M138.62,-106.93C170.37,-97.03 215.35,-83.01 243.97,-74.08"/>
<polygon fill="#63b8ff" stroke="#63b8ff" points="137.32,-103.67 128.81,-109.98 139.4,-110.35 137.32,-103.67"/>
</a>
</g>
</g>
<!-- Node10 -->
<g id="Node000010" class="node">
<title>Node10</title>
<g id="a_Node000010"><a xlink:href="../../de/d4b/NoteEditorUI_8cpp.html" target="_top" xlink:title=" ">
<polygon fill="white" stroke="#666666" points="175,-74 0,-74 0,-55 175,-55 175,-74"/>
<text text-anchor="middle" x="87.5" y="-62" font-family="Helvetica,sans-Serif" font-size="10.00">src/note_editor/NoteEditorUI.cpp</text>
</a>
</g>
</g>
<!-- Node9&#45;&gt;Node10 -->
<g id="edge10_Node000009_Node000010" class="edge">
<title>Node9&#45;&gt;Node10</title>
<g id="a_edge10_Node000009_Node000010"><a xlink:title=" ">
<path fill="none" stroke="#63b8ff" d="M96.6,-99.95C94.28,-91.15 91.61,-81.06 89.77,-74.09"/>
<polygon fill="#63b8ff" stroke="#63b8ff" points="93.25,-100.97 99.19,-109.75 100.02,-99.19 93.25,-100.97"/>
</a>
</g>
</g>
<!-- Node12&#45;&gt;Node3 -->
<g id="edge13_Node000012_Node000003" class="edge">
<title>Node12&#45;&gt;Node3</title>
<g id="a_edge13_Node000012_Node000003"><a xlink:title=" ">
<path fill="none" stroke="#63b8ff" d="M638.5,-162.94C589.58,-153.01 517.23,-138.31 471.76,-129.08"/>
<polygon fill="#63b8ff" stroke="#63b8ff" points="638.07,-166.42 648.57,-164.98 639.46,-159.56 638.07,-166.42"/>
</a>
</g>
</g>
<!-- Node12&#45;&gt;Node8 -->
<g id="edge16_Node000012_Node000008" class="edge">
<title>Node12&#45;&gt;Node8</title>
<g id="a_edge16_Node000012_Node000008"><a xlink:title=" ">
<path fill="none" stroke="#63b8ff" d="M688.92,-154.48C686.95,-130.84 683.67,-91.5 682.22,-74.16"/>
<polygon fill="#63b8ff" stroke="#63b8ff" points="685.45,-154.99 689.76,-164.66 692.42,-154.41 685.45,-154.99"/>
</a>
</g>
</g>
<!-- Node12&#45;&gt;Node11 -->
<g id="edge15_Node000012_Node000011" class="edge">
<title>Node12&#45;&gt;Node11</title>
<g id="a_edge15_Node000012_Node000011"><a xlink:title=" ">
<path fill="none" stroke="#63b8ff" d="M612.98,-163.69C531.54,-153.39 405.21,-137.41 331.19,-128.05"/>
<polygon fill="#63b8ff" stroke="#63b8ff" points="612.82,-167.2 623.18,-164.98 613.7,-160.26 612.82,-167.2"/>
</a>
</g>
</g>
<!-- Node13 -->
<g id="Node000013" class="node">
<title>Node13</title>
<g id="a_Node000013"><a xlink:href="../../d0/ddd/BoardManager_8cpp.html" target="_top" xlink:title=" ">
<polygon fill="white" stroke="#666666" points="653,-129 528,-129 528,-110 653,-110 653,-129"/>
<text text-anchor="middle" x="590.5" y="-117" font-family="Helvetica,sans-Serif" font-size="10.00">src/BoardManager.cpp</text>
</a>
</g>
</g>
<!-- Node12&#45;&gt;Node13 -->
<g id="edge14_Node000012_Node000013" class="edge">
<title>Node12&#45;&gt;Node13</title>
<g id="a_edge14_Node000012_Node000013"><a xlink:title=" ">
<path fill="none" stroke="#63b8ff" d="M665.47,-160.23C647.13,-150.51 622.76,-137.6 606.86,-129.17"/>
<polygon fill="#63b8ff" stroke="#63b8ff" points="663.96,-163.39 674.43,-164.98 667.24,-157.21 663.96,-163.39"/>
</a>
</g>
</g>
<!-- Node12&#45;&gt;Node14 -->
<g id="edge17_Node000012_Node000014" class="edge">
<title>Node12&#45;&gt;Node14</title>
<g id="a_edge17_Node000012_Node000014"><a xlink:title=" ">
<path fill="none" stroke="#63b8ff" d="M713.68,-159.7C729.89,-150.04 751.05,-137.44 764.94,-129.17"/>
<polygon fill="#63b8ff" stroke="#63b8ff" points="711.6,-156.86 704.8,-164.98 715.18,-162.88 711.6,-156.86"/>
</a>
</g>
</g>
<!-- Node12&#45;&gt;Node15 -->
<g id="edge18_Node000012_Node000015" class="edge">
<title>Node12&#45;&gt;Node15</title>
<g id="a_edge18_Node000012_Node000015"><a xlink:title=" ">
<path fill="none" stroke="#63b8ff" d="M742.7,-162.94C791.81,-153.01 864.43,-138.31 910.08,-129.08"/>
<polygon fill="#63b8ff" stroke="#63b8ff" points="741.7,-159.57 732.59,-164.98 743.09,-166.43 741.7,-159.57"/>
</a>
</g>
</g>
<!-- Node12&#45;&gt;Node16 -->
<g id="edge19_Node000012_Node000016" class="edge">
<title>Node12&#45;&gt;Node16</title>
<g id="a_edge19_Node000012_Node000016"><a xlink:title=" ">
<path fill="none" stroke="#63b8ff" d="M773.23,-163.8C858.05,-153.85 988.67,-138.54 1069.68,-129.04"/>
<polygon fill="#63b8ff" stroke="#63b8ff" points="772.65,-160.34 763.12,-164.98 773.46,-167.3 772.65,-160.34"/>
</a>
</g>
</g>
</g>
</svg>

<g id="navigator" transform="translate(0 0)" fill="#404254">
  <rect fill="#f2f5e9" fill-opacity="0.5" stroke="#606060" stroke-width=".5" x="0" y="0" width="60" height="60"/>
  <use id="zoomplus" xlink:href="#zoomPlus" x="17" y="9" onmousedown="handleZoom(evt,'in')"/>
  <use id="zoomminus" xlink:href="#zoomMin" x="42" y="9" onmousedown="handleZoom(evt,'out')"/>
  <use id="reset" xlink:href="#resetDef" x="30" y="36" onmousedown="handleReset()"/>
   <use id="arrowup" xlink:href="#arrowUp" x="0" y="0" onmousedown="handlePan(0,-1)"/>
  <use id="arrowright" xlink:href="#arrowRight" x="0" y="0" onmousedown="handlePan(1,0)"/>
  <use id="arrowdown" xlink:href="#arrowDown" x="0" y="0" onmousedown="handlePan(0,1)"/>
  <use id="arrowleft" xlink:href="#arrowLeft" x="0" y="0" onmousedown="handlePan(-1,0)"/>
</g>
<svg viewBox="0 0 15 15" width="100%" height="30px" preserveAspectRatio="xMaxYMin meet">
 <g id="arrow_out" transform="scale(0.3 0.3)">
  <a xlink:href="Message_8h__dep__incl_org.svg" target="_base">
   <rect id="button" ry="5" rx="5" y="6" x="6" height="38" width="38"
        fill="#f2f5e9" fill-opacity="0.5" stroke="#606060" stroke-width="1.0"/>
   <path id="arrow"
     d="M 11.500037,31.436501 C 11.940474,20.09759 22.043105,11.32322 32.158766,21.979434 L 37.068811,17.246167 C 37.068811,17.246167 37.088388,32 37.088388,32 L 22.160133,31.978069 C 22.160133,31.978069 26.997745,27.140456 26.997745,27.140456 C 18.528582,18.264221 13.291696,25.230495 11.500037,31.436501 z"
     style="fill:#404040;"/>
  </a>
 </g>
</svg>

<style type='text/css'>
<![CDATA[
[data-mouse-over-selected='false'] { opacity: 0.7; }
[data-mouse-over-selected='true']  { opacity: 1.0; }
]]>
</style>
<script type="application/ecmascript"><![CDATA[
document.addEventListener('DOMContentLoaded', (event) => {
  highlightEdges();
  highlightAdjacentNodes();
});
]]></script>
</svg>
