<?xml version="1.0" encoding="UTF-8" standalone="no"?>
<!DOCTYPE svg PUBLIC "-//W3C//DTD SVG 1.1//EN"
 "http://www.w3.org/Graphics/SVG/1.1/DTD/svg11.dtd">
<!-- Generated by graphviz version 2.43.0 (0)
 -->
<!-- Title: include/DirectoryWindow.h Pages: 1 -->
<svg width="592pt" height="247pt"
 viewBox="0.00 0.00 592.00 247.00" xmlns="http://www.w3.org/2000/svg" xmlns:xlink="http://www.w3.org/1999/xlink">
<g id="graph0" class="graph" transform="scale(1 1) rotate(0) translate(4 243)">
<title>include/DirectoryWindow.h</title>
<!-- Node1 -->
<g id="Node000001" class="node">
<title>Node1</title>
<g id="a_Node000001"><a xlink:title=" ">
<polygon fill="#999999" stroke="#666666" points="297.5,-239 150.5,-239 150.5,-220 297.5,-220 297.5,-239"/>
<text text-anchor="middle" x="224" y="-227" font-family="Helvetica,sans-Serif" font-size="10.00">include/DirectoryWindow.h</text>
</a>
</g>
</g>
<!-- Node2 -->
<g id="Node000002" class="node">
<title>Node2</title>
<g id="a_Node000002"><a xlink:href="../../df/d64/ApplicationHandler_8h.html" target="_top" xlink:title=" ">
<polygon fill="white" stroke="#666666" points="216,-74 60,-74 60,-55 216,-55 216,-74"/>
<text text-anchor="middle" x="138" y="-62" font-family="Helvetica,sans-Serif" font-size="10.00">include/ApplicationHandler.h</text>
</a>
</g>
</g>
<!-- Node1&#45;&gt;Node2 -->
<g id="edge1_Node000001_Node000002" class="edge">
<title>Node1&#45;&gt;Node2</title>
<g id="a_edge1_Node000001_Node000002"><a xlink:title=" ">
<path fill="none" stroke="#63b8ff" d="M214.63,-210.73C196.29,-175.97 156.27,-100.12 142.65,-74.31"/>
<polygon fill="#63b8ff" stroke="#63b8ff" points="211.61,-212.53 219.38,-219.74 217.81,-209.26 211.61,-212.53"/>
</a>
</g>
</g>
<!-- Node5 -->
<g id="Node000005" class="node">
<title>Node5</title>
<g id="a_Node000005"><a xlink:href="../../d1/d2f/BoardManager_8h.html" target="_top" xlink:title=" ">
<polygon fill="white" stroke="#666666" points="431,-184 297,-184 297,-165 431,-165 431,-184"/>
<text text-anchor="middle" x="364" y="-172" font-family="Helvetica,sans-Serif" font-size="10.00">include/BoardManager.h</text>
</a>
</g>
</g>
<!-- Node1&#45;&gt;Node5 -->
<g id="edge4_Node000001_Node000005" class="edge">
<title>Node1&#45;&gt;Node5</title>
<g id="a_edge4_Node000001_Node000005"><a xlink:title=" ">
<path fill="none" stroke="#63b8ff" d="M255.91,-216.42C281.88,-206.59 317.92,-192.95 341.1,-184.17"/>
<polygon fill="#63b8ff" stroke="#63b8ff" points="254.61,-213.17 246.49,-219.98 257.08,-219.72 254.61,-213.17"/>
</a>
</g>
</g>
<!-- Node3 -->
<g id="Node000003" class="node">
<title>Node3</title>
<g id="a_Node000003"><a xlink:href="../../d1/d2a/ApplicationHandler_8cpp.html" target="_top" xlink:title=" ">
<polygon fill="white" stroke="#666666" points="146,-19 0,-19 0,0 146,0 146,-19"/>
<text text-anchor="middle" x="73" y="-7" font-family="Helvetica,sans-Serif" font-size="10.00">src/ApplicationHandler.cpp</text>
</a>
</g>
</g>
<!-- Node2&#45;&gt;Node3 -->
<g id="edge2_Node000002_Node000003" class="edge">
<title>Node2&#45;&gt;Node3</title>
<g id="a_edge2_Node000002_Node000003"><a xlink:title=" ">
<path fill="none" stroke="#63b8ff" d="M119.73,-48.6C108.08,-39.11 93.4,-27.13 83.63,-19.17"/>
<polygon fill="#63b8ff" stroke="#63b8ff" points="117.59,-51.38 127.56,-54.98 122.02,-45.95 117.59,-51.38"/>
</a>
</g>
</g>
<!-- Node4 -->
<g id="Node000004" class="node">
<title>Node4</title>
<g id="a_Node000004"><a xlink:href="../../df/d0a/main_8cpp.html" target="_top" xlink:title=" ">
<polygon fill="white" stroke="#666666" points="243.5,-19 164.5,-19 164.5,0 243.5,0 243.5,-19"/>
<text text-anchor="middle" x="204" y="-7" font-family="Helvetica,sans-Serif" font-size="10.00">src/main.cpp</text>
</a>
</g>
</g>
<!-- Node2&#45;&gt;Node4 -->
<g id="edge3_Node000002_Node000004" class="edge">
<title>Node2&#45;&gt;Node4</title>
<g id="a_edge3_Node000002_Node000004"><a xlink:title=" ">
<path fill="none" stroke="#63b8ff" d="M156.55,-48.6C168.38,-39.11 183.29,-27.13 193.2,-19.17"/>
<polygon fill="#63b8ff" stroke="#63b8ff" points="154.21,-45.99 148.6,-54.98 158.59,-51.45 154.21,-45.99"/>
</a>
</g>
</g>
<!-- Node6 -->
<g id="Node000006" class="node">
<title>Node6</title>
<g id="a_Node000006"><a xlink:href="../../da/d5b/GameTableManager_8h.html" target="_top" xlink:title=" ">
<polygon fill="white" stroke="#666666" points="390.5,-129 229.5,-129 229.5,-110 390.5,-110 390.5,-129"/>
<text text-anchor="middle" x="310" y="-117" font-family="Helvetica,sans-Serif" font-size="10.00">include/GameTableManager.h</text>
</a>
</g>
</g>
<!-- Node5&#45;&gt;Node6 -->
<g id="edge5_Node000005_Node000006" class="edge">
<title>Node5&#45;&gt;Node6</title>
<g id="a_edge5_Node000005_Node000006"><a xlink:title=" ">
<path fill="none" stroke="#63b8ff" d="M347.72,-157.52C338.2,-148.18 326.56,-136.75 318.75,-129.09"/>
<polygon fill="#63b8ff" stroke="#63b8ff" points="345.49,-160.24 355.08,-164.75 350.4,-155.25 345.49,-160.24"/>
</a>
</g>
</g>
<!-- Node8 -->
<g id="Node000008" class="node">
<title>Node8</title>
<g id="a_Node000008"><a xlink:href="../../d2/ddd/NetworkManager_8cpp.html" target="_top" xlink:title=" ">
<polygon fill="white" stroke="#666666" points="584,-74 404,-74 404,-55 584,-55 584,-74"/>
<text text-anchor="middle" x="494" y="-62" font-family="Helvetica,sans-Serif" font-size="10.00">src/network/NetworkManager.cpp</text>
</a>
</g>
</g>
<!-- Node5&#45;&gt;Node8 -->
<g id="edge10_Node000005_Node000008" class="edge">
<title>Node5&#45;&gt;Node8</title>
<g id="a_edge10_Node000005_Node000008"><a xlink:title=" ">
<path fill="none" stroke="#63b8ff" d="M381.73,-158.3C396.87,-145.36 419.26,-126.34 439,-110 454.14,-97.47 471.84,-83.22 482.98,-74.29"/>
<polygon fill="#63b8ff" stroke="#63b8ff" points="379.45,-155.64 374.13,-164.8 384,-160.96 379.45,-155.64"/>
</a>
</g>
</g>
<!-- Node9 -->
<g id="Node000009" class="node">
<title>Node9</title>
<g id="a_Node000009"><a xlink:href="../../d0/ddd/BoardManager_8cpp.html" target="_top" xlink:title=" ">
<polygon fill="white" stroke="#666666" points="572.5,-129 447.5,-129 447.5,-110 572.5,-110 572.5,-129"/>
<text text-anchor="middle" x="510" y="-117" font-family="Helvetica,sans-Serif" font-size="10.00">src/BoardManager.cpp</text>
</a>
</g>
</g>
<!-- Node5&#45;&gt;Node9 -->
<g id="edge9_Node000005_Node000009" class="edge">
<title>Node5&#45;&gt;Node9</title>
<g id="a_edge9_Node000005_Node000009"><a xlink:title=" ">
<path fill="none" stroke="#63b8ff" d="M396.92,-161.55C424.03,-151.71 461.83,-137.98 486.12,-129.17"/>
<polygon fill="#63b8ff" stroke="#63b8ff" points="395.66,-158.28 387.46,-164.98 398.05,-164.86 395.66,-158.28"/>
</a>
</g>
</g>
<!-- Node6&#45;&gt;Node2 -->
<g id="edge6_Node000006_Node000002" class="edge">
<title>Node6&#45;&gt;Node2</title>
<g id="a_edge6_Node000006_Node000002"><a xlink:title=" ">
<path fill="none" stroke="#63b8ff" d="M272.44,-106.93C240.32,-97.03 194.81,-83.01 165.85,-74.08"/>
<polygon fill="#63b8ff" stroke="#63b8ff" points="271.78,-110.38 282.37,-109.98 273.84,-103.69 271.78,-110.38"/>
</a>
</g>
</g>
<!-- Node7 -->
<g id="Node000007" class="node">
<title>Node7</title>
<g id="a_Node000007"><a xlink:href="../../d6/ddb/GameTableManager_8cpp.html" target="_top" xlink:title=" ">
<polygon fill="white" stroke="#666666" points="385.5,-74 234.5,-74 234.5,-55 385.5,-55 385.5,-74"/>
<text text-anchor="middle" x="310" y="-62" font-family="Helvetica,sans-Serif" font-size="10.00">src/GameTableManager.cpp</text>
</a>
</g>
</g>
<!-- Node6&#45;&gt;Node7 -->
<g id="edge7_Node000006_Node000007" class="edge">
<title>Node6&#45;&gt;Node7</title>
<g id="a_edge7_Node000006_Node000007"><a xlink:title=" ">
<path fill="none" stroke="#63b8ff" d="M310,-99.66C310,-90.93 310,-80.99 310,-74.09"/>
<polygon fill="#63b8ff" stroke="#63b8ff" points="306.5,-99.75 310,-109.75 313.5,-99.75 306.5,-99.75"/>
</a>
</g>
</g>
<!-- Node6&#45;&gt;Node8 -->
<g id="edge8_Node000006_Node000008" class="edge">
<title>Node6&#45;&gt;Node8</title>
<g id="a_edge8_Node000006_Node000008"><a xlink:title=" ">
<path fill="none" stroke="#63b8ff" d="M349.29,-107.18C383.7,-97.27 432.96,-83.08 464.21,-74.08"/>
<polygon fill="#63b8ff" stroke="#63b8ff" points="348.2,-103.85 339.56,-109.98 350.14,-110.58 348.2,-103.85"/>
</a>
</g>
</g>
</g>
</svg>
