<?xml version="1.0" encoding="UTF-8" standalone="no"?>
<!DOCTYPE svg PUBLIC "-//W3C//DTD SVG 1.1//EN"
 "http://www.w3.org/Graphics/SVG/1.1/DTD/svg11.dtd">
<!-- Generated by graphviz version 2.43.0 (0)
 -->
<!-- Title: Grid Pages: 1 -->
<svg width="228pt" height="175pt"
 viewBox="0.00 0.00 228.00 175.00" xmlns="http://www.w3.org/2000/svg" xmlns:xlink="http://www.w3.org/1999/xlink">

<svg id="main" version="1.1" xmlns="http://www.w3.org/2000/svg" xmlns:xlink="http://www.w3.org/1999/xlink" xml:space="preserve" onload="init(evt)">
<style type="text/css"><![CDATA[
.node, .edge {opacity: 0.7;}
.node.selected, .edge.selected {opacity: 1;}
.edge:hover path { stroke: red; }
.edge:hover polygon { stroke: red; fill: red; }
]]></style>
<script type="application/ecmascript" xlink:href="../../svg.min.js"/>
<svg id="graph" class="graph">
<g id="graph0" class="graph" transform="scale(1 1) rotate(0) translate(4 171)">
<title>Grid</title>
<!-- Node1 -->
<g id="Node000001" class="node">
<title>Node1</title>
<g id="a_Node000001"><a xlink:title=" ">
<polygon fill="#999999" stroke="transparent" points="95.5,-49 64.5,-49 64.5,0 95.5,0 95.5,-49"/>
<text text-anchor="start" x="70" y="-36.5" font-family="Helvetica,sans-Serif" font-size="10.00">Grid</text>
<text text-anchor="start" x="78.5" y="-21.5" font-family="Helvetica,sans-Serif" font-size="10.00"> </text>
<text text-anchor="start" x="78.5" y="-6.5" font-family="Helvetica,sans-Serif" font-size="10.00"> </text>
<polygon fill="#666666" stroke="#666666" points="65,-31.5 65,-31.5 96,-31.5 96,-31.5 65,-31.5"/>
<polygon fill="#666666" stroke="#666666" points="65,-16.5 65,-16.5 96,-16.5 96,-16.5 65,-16.5"/>
<polygon fill="none" stroke="#666666" points="64.5,0 64.5,-49 95.5,-49 95.5,0 64.5,0"/>
</a>
</g>
</g>
<!-- Node2 -->
<g id="Node000002" class="node">
<title>Node2</title>
<g id="a_Node000002"><a xlink:title=" ">
<polygon fill="white" stroke="transparent" points="34,-167 0,-167 0,-118 34,-118 34,-167"/>
<text text-anchor="start" x="5" y="-154.5" font-family="Helvetica,sans-Serif" font-size="10.00">vec2</text>
<text text-anchor="start" x="15" y="-139.5" font-family="Helvetica,sans-Serif" font-size="10.00"> </text>
<text text-anchor="start" x="15" y="-124.5" font-family="Helvetica,sans-Serif" font-size="10.00"> </text>
<polygon fill="#666666" stroke="#666666" points="0,-149.5 0,-149.5 34,-149.5 34,-149.5 0,-149.5"/>
<polygon fill="#666666" stroke="#666666" points="0,-134.5 0,-134.5 34,-134.5 34,-134.5 0,-134.5"/>
<polygon fill="none" stroke="#666666" points="0,-118 0,-167 34,-167 34,-118 0,-118"/>
</a>
</g>
</g>
<!-- Node2&#45;&gt;Node1 -->
<g id="edge1_Node000001_Node000002" class="edge">
<title>Node2&#45;&gt;Node1</title>
<g id="a_edge1_Node000001_Node000002"><a xlink:title=" ">
<path fill="none" stroke="#63b8ff" d="M19.59,-117.71C22.07,-102.4 26.86,-82.53 36,-67 40.91,-58.66 47.98,-50.95 55.03,-44.5"/>
<polygon fill="none" stroke="#63b8ff" points="55.26,-44.3 57.25,-37.37 64.41,-36.53 62.43,-43.46 55.26,-44.3"/>
</a>
</g>
<text text-anchor="middle" x="56" y="-81" font-family="Helvetica,sans-Serif" font-size="10.00" fill="grey"> +offset</text>
</g>
<!-- Node3 -->
<g id="Node000003" class="node">
<title>Node3</title>
<g id="a_Node000003"><a xlink:title=" ">
<polygon fill="white" stroke="transparent" points="96,-167 64,-167 64,-118 96,-118 96,-167"/>
<text text-anchor="start" x="69" y="-154.5" font-family="Helvetica,sans-Serif" font-size="10.00">float</text>
<text text-anchor="start" x="78" y="-139.5" font-family="Helvetica,sans-Serif" font-size="10.00"> </text>
<text text-anchor="start" x="78" y="-124.5" font-family="Helvetica,sans-Serif" font-size="10.00"> </text>
<polygon fill="#666666" stroke="#666666" points="64,-149.5 64,-149.5 96,-149.5 96,-149.5 64,-149.5"/>
<polygon fill="#666666" stroke="#666666" points="64,-134.5 64,-134.5 96,-134.5 96,-134.5 64,-134.5"/>
<polygon fill="none" stroke="#666666" points="64,-118 64,-167 96,-167 96,-118 64,-118"/>
</a>
</g>
</g>
<!-- Node3&#45;&gt;Node1 -->
<g id="edge2_Node000001_Node000003" class="edge">
<title>Node3&#45;&gt;Node1</title>
<g id="a_edge2_Node000001_Node000003"><a xlink:title=" ">
<path fill="none" stroke="#63b8ff" d="M80,-117.75C80,-101.48 80,-79.62 80,-61.26"/>
<polygon fill="none" stroke="#63b8ff" points="80,-61.22 76,-55.22 80,-49.22 84,-55.22 80,-61.22"/>
</a>
</g>
<text text-anchor="middle" x="107" y="-86.5" font-family="Helvetica,sans-Serif" font-size="10.00" fill="grey"> +cell_size</text>
<text text-anchor="middle" x="107" y="-75.5" font-family="Helvetica,sans-Serif" font-size="10.00" fill="grey">+opacity</text>
</g>
<!-- Node4 -->
<g id="Node000004" class="node">
<title>Node4</title>
<g id="a_Node000004"><a xlink:title=" ">
<polygon fill="white" stroke="transparent" points="173,-167 141,-167 141,-118 173,-118 173,-167"/>
<text text-anchor="start" x="146" y="-154.5" font-family="Helvetica,sans-Serif" font-size="10.00">bool</text>
<text text-anchor="start" x="155" y="-139.5" font-family="Helvetica,sans-Serif" font-size="10.00"> </text>
<text text-anchor="start" x="155" y="-124.5" font-family="Helvetica,sans-Serif" font-size="10.00"> </text>
<polygon fill="#666666" stroke="#666666" points="141,-149.5 141,-149.5 173,-149.5 173,-149.5 141,-149.5"/>
<polygon fill="#666666" stroke="#666666" points="141,-134.5 141,-134.5 173,-134.5 173,-134.5 141,-134.5"/>
<polygon fill="none" stroke="#666666" points="141,-118 141,-167 173,-167 173,-118 141,-118"/>
</a>
</g>
</g>
<!-- Node4&#45;&gt;Node1 -->
<g id="edge3_Node000001_Node000004" class="edge">
<title>Node4&#45;&gt;Node1</title>
<g id="a_edge3_Node000001_Node000004"><a xlink:title=" ">
<path fill="none" stroke="#63b8ff" d="M153.91,-117.68C151,-102.16 145.44,-82.08 135,-67 127.52,-56.2 116.33,-47.03 106,-40.07"/>
<polygon fill="none" stroke="#63b8ff" points="105.9,-40.01 98.69,-40.23 95.72,-33.66 102.93,-33.44 105.9,-40.01"/>
</a>
</g>
<text text-anchor="middle" x="184.5" y="-92" font-family="Helvetica,sans-Serif" font-size="10.00" fill="grey"> +is_hex</text>
<text text-anchor="middle" x="184.5" y="-81" font-family="Helvetica,sans-Serif" font-size="10.00" fill="grey">+snap_to_grid</text>
<text text-anchor="middle" x="184.5" y="-70" font-family="Helvetica,sans-Serif" font-size="10.00" fill="grey">+visible</text>
</g>
</g>
</svg>
</svg>

<style type='text/css'>
<![CDATA[
[data-mouse-over-selected='false'] { opacity: 0.7; }
[data-mouse-over-selected='true']  { opacity: 1.0; }
]]>
</style>
<script type="application/ecmascript"><![CDATA[
document.addEventListener('DOMContentLoaded', (event) => {
  highlightEdges();
  highlightAdjacentNodes();
});
]]></script>
</svg>
