<?xml version="1.0" encoding="UTF-8" standalone="no"?>
<!DOCTYPE svg PUBLIC "-//W3C//DTD SVG 1.1//EN"
 "http://www.w3.org/Graphics/SVG/1.1/DTD/svg11.dtd">
<!-- Generated by graphviz version 2.43.0 (0)
 -->
<!-- Title: NetworkUtilities::setupTLS Pages: 1 -->
<svg width="730pt" height="27pt"
 viewBox="0.00 0.00 730.00 27.00" xmlns="http://www.w3.org/2000/svg" xmlns:xlink="http://www.w3.org/1999/xlink">
<g id="graph0" class="graph" transform="scale(1 1) rotate(0) translate(4 23)">
<title>NetworkUtilities::setupTLS</title>
<!-- Node1 -->
<g id="Node000001" class="node">
<title>Node1</title>
<g id="a_Node000001"><a xlink:title=" ">
<polygon fill="#999999" stroke="#666666" points="146,-19 0,-19 0,0 146,0 146,-19"/>
<text text-anchor="middle" x="73" y="-7" font-family="Helvetica,sans-Serif" font-size="10.00">NetworkUtilities::setupTLS</text>
</a>
</g>
</g>
<!-- Node2 -->
<g id="Node000002" class="node">
<title>Node2</title>
<g id="a_Node000002"><a xlink:href="../../d8/dec/classPathManager.html#af9ba5d87d91f87a8dae1b129dd9151f1" target="_top" xlink:title=" ">
<polygon fill="white" stroke="#666666" points="331,-19 182,-19 182,0 331,0 331,-19"/>
<text text-anchor="middle" x="256.5" y="-7" font-family="Helvetica,sans-Serif" font-size="10.00">PathManager::getCertsPath</text>
</a>
</g>
</g>
<!-- Node1&#45;&gt;Node2 -->
<g id="edge1_Node000001_Node000002" class="edge">
<title>Node1&#45;&gt;Node2</title>
<g id="a_edge1_Node000001_Node000002"><a xlink:title=" ">
<path fill="none" stroke="#63b8ff" d="M146.26,-9.5C154.55,-9.5 163.06,-9.5 171.49,-9.5"/>
<polygon fill="#63b8ff" stroke="#63b8ff" points="171.71,-13 181.71,-9.5 171.71,-6 171.71,-13"/>
</a>
</g>
</g>
<!-- Node3 -->
<g id="Node000003" class="node">
<title>Node3</title>
<g id="a_Node000003"><a xlink:href="../../d8/dec/classPathManager.html#ab849cb5818b9f328bbd3214223761ccd" target="_top" xlink:title=" ">
<polygon fill="white" stroke="#666666" points="508,-19 367,-19 367,0 508,0 508,-19"/>
<text text-anchor="middle" x="437.5" y="-7" font-family="Helvetica,sans-Serif" font-size="10.00">PathManager::getResPath</text>
</a>
</g>
</g>
<!-- Node2&#45;&gt;Node3 -->
<g id="edge2_Node000002_Node000003" class="edge">
<title>Node2&#45;&gt;Node3</title>
<g id="a_edge2_Node000002_Node000003"><a xlink:title=" ">
<path fill="none" stroke="#63b8ff" d="M331.08,-9.5C339.61,-9.5 348.33,-9.5 356.93,-9.5"/>
<polygon fill="#63b8ff" stroke="#63b8ff" points="356.95,-13 366.95,-9.5 356.95,-6 356.95,-13"/>
</a>
</g>
</g>
<!-- Node4 -->
<g id="Node000004" class="node">
<title>Node4</title>
<g id="a_Node000004"><a xlink:href="../../d8/dec/classPathManager.html#a467b459b77c73cbc7544551b53911fcd" target="_top" xlink:title=" ">
<polygon fill="white" stroke="#666666" points="722,-19 544,-19 544,0 722,0 722,-19"/>
<text text-anchor="middle" x="633" y="-7" font-family="Helvetica,sans-Serif" font-size="10.00">PathManager::getExecutableRoot</text>
</a>
</g>
</g>
<!-- Node3&#45;&gt;Node4 -->
<g id="edge3_Node000003_Node000004" class="edge">
<title>Node3&#45;&gt;Node4</title>
<g id="a_edge3_Node000003_Node000004"><a xlink:title=" ">
<path fill="none" stroke="#63b8ff" d="M508.08,-9.5C516.42,-9.5 525.04,-9.5 533.68,-9.5"/>
<polygon fill="#63b8ff" stroke="#63b8ff" points="533.82,-13 543.82,-9.5 533.82,-6 533.82,-13"/>
</a>
</g>
</g>
</g>
</svg>
