<?xml version="1.0" encoding="UTF-8" standalone="no"?>
<!DOCTYPE svg PUBLIC "-//W3C//DTD SVG 1.1//EN"
 "http://www.w3.org/Graphics/SVG/1.1/DTD/svg11.dtd">
<!-- Generated by graphviz version 2.43.0 (0)
 -->
<!-- Title: NetworkUtilities::startLocalTunnel Pages: 1 -->
<!--zoomable 251 -->

<svg id="main" version="1.1" xmlns="http://www.w3.org/2000/svg" xmlns:xlink="http://www.w3.org/1999/xlink" xml:space="preserve" onload="init(evt)">
<style type="text/css"><![CDATA[
.node, .edge {opacity: 0.7;}
.node.selected, .edge.selected {opacity: 1;}
.edge:hover path { stroke: red; }
.edge:hover polygon { stroke: red; fill: red; }
]]></style>

<defs>
  <circle id="rim" cx="0" cy="0" r="7"/>
  <circle id="rim2" cx="0" cy="0" r="3.5"/>
  <g id="zoomPlus">
    <use xlink:href="#rim" fill="#404040"><set attributeName="fill" to="#808080" begin="zoomplus.mouseover" end="zoomplus.mouseout"/></use>
    <path d="M-4,0h8M0,-4v8" fill="none" stroke="white" stroke-width="1.5" pointer-events="none"/>
  </g>
  <g id="zoomMin">
    <use xlink:href="#rim" fill="#404040"><set attributeName="fill" to="#808080" begin="zoomminus.mouseover" end="zoomminus.mouseout"/></use>
    <path d="M-4,0h8" fill="none" stroke="white" stroke-width="1.5" pointer-events="none"/>
  </g>
  <g id="arrowUp" transform="translate(30 24)">
    <use xlink:href="#rim"/>
    <path pointer-events="none" fill="none" stroke="white" stroke-width="1.5" d="M0,-3.0v7 M-2.5,-0.5L0,-3.0L2.5,-0.5"/>
  </g>
  <g id="arrowRight" transform="rotate(90) translate(36 -43)">
    <use xlink:href="#rim"/>
    <path pointer-events="none" fill="none" stroke="white" stroke-width="1.5" d="M0,-3.0v7 M-2.5,-0.5L0,-3.0L2.5,-0.5"/>
  </g>
  <g id="arrowDown" transform="rotate(180) translate(-30 -48)">
    <use xlink:href="#rim"/>
    <path pointer-events="none" fill="none" stroke="white" stroke-width="1.5" d="M0,-3.0v7 M-2.5,-0.5L0,-3.0L2.5,-0.5"/>
  </g>
  <g id="arrowLeft" transform="rotate(270) translate(-36 17)">
    <use xlink:href="#rim"/>
    <path pointer-events="none" fill="none" stroke="white" stroke-width="1.5" d="M0,-3.0v7 M-2.5,-0.5L0,-3.0L2.5,-0.5"/>
  </g>
  <g id="resetDef">
    <use xlink:href="#rim2" fill="#404040"><set attributeName="fill" to="#808080" begin="reset.mouseover" end="reset.mouseout"/></use>
  </g>
</defs>
<script type="application/ecmascript">
var viewWidth = 912;
var viewHeight = 251;
var sectionId = 'dynsection-18';
</script>
<script type="application/ecmascript" xlink:href="../../svg.min.js"/>
<svg id="graph" class="graph">
<g id="viewport">
<title>NetworkUtilities::startLocalTunnel</title>
<!-- Node1 -->
<g id="Node000001" class="node">
<title>Node1</title>
<g id="a_Node000001"><a xlink:title=" ">
<polygon fill="#999999" stroke="#666666" points="182,-131 0,-131 0,-112 182,-112 182,-131"/>
<text text-anchor="middle" x="91" y="-119" font-family="Helvetica,sans-Serif" font-size="10.00">NetworkUtilities::startLocalTunnel</text>
</a>
</g>
</g>
<!-- Node2 -->
<g id="Node000002" class="node">
<title>Node2</title>
<g id="a_Node000002"><a xlink:href="../../dd/d71/classNetworkUtilities.html#ace9b13371f4e6ffa2594682ada0f4e0c" target="_top" xlink:title=" ">
<polygon fill="white" stroke="#666666" points="411.5,-243 252.5,-243 252.5,-224 411.5,-224 411.5,-243"/>
<text text-anchor="middle" x="332" y="-231" font-family="Helvetica,sans-Serif" font-size="10.00">NetworkUtilities::assignToJob</text>
</a>
</g>
</g>
<!-- Node1&#45;&gt;Node2 -->
<g id="edge1_Node000001_Node000002" class="edge">
<title>Node1&#45;&gt;Node2</title>
<g id="a_edge1_Node000001_Node000002"><a xlink:title=" ">
<path fill="none" stroke="#63b8ff" d="M101.4,-131.14C121.04,-150.65 168.72,-194.7 218,-215.5 225.76,-218.78 234.05,-221.46 242.48,-223.66"/>
<polygon fill="#63b8ff" stroke="#63b8ff" points="241.88,-227.12 252.42,-226.03 243.5,-220.31 241.88,-227.12"/>
</a>
</g>
</g>
<!-- Node4 -->
<g id="Node000004" class="node">
<title>Node4</title>
<g id="a_Node000004"><a xlink:href="../../dd/d71/classNetworkUtilities.html#a9bb500d7c81ea448babc07ac94e6bd65" target="_top" xlink:title=" ">
<polygon fill="white" stroke="#666666" points="670.5,-75 501.5,-75 501.5,-56 670.5,-56 670.5,-75"/>
<text text-anchor="middle" x="586" y="-63" font-family="Helvetica,sans-Serif" font-size="10.00">NetworkUtilities::closeHandleIf</text>
</a>
</g>
</g>
<!-- Node1&#45;&gt;Node4 -->
<g id="edge3_Node000001_Node000004" class="edge">
<title>Node1&#45;&gt;Node4</title>
<g id="a_edge3_Node000001_Node000004"><a xlink:title=" ">
<path fill="none" stroke="#63b8ff" d="M182.36,-121.28C254.2,-119.94 357.05,-115.39 446,-101.5 480.11,-96.17 517.99,-86.07 545.59,-77.92"/>
<polygon fill="#63b8ff" stroke="#63b8ff" points="546.69,-81.25 555.26,-75.02 544.68,-74.54 546.69,-81.25"/>
</a>
</g>
</g>
<!-- Node5 -->
<g id="Node000005" class="node">
<title>Node5</title>
<g id="a_Node000005"><a xlink:href="../../d8/dec/classPathManager.html#a84566186a965025393fe31a9cfb50299" target="_top" xlink:title=" ">
<polygon fill="white" stroke="#666666" points="446,-206 218,-206 218,-187 446,-187 446,-206"/>
<text text-anchor="middle" x="332" y="-194" font-family="Helvetica,sans-Serif" font-size="10.00">PathManager::getLocalTunnelControllerPath</text>
</a>
</g>
</g>
<!-- Node1&#45;&gt;Node5 -->
<g id="edge4_Node000001_Node000005" class="edge">
<title>Node1&#45;&gt;Node5</title>
<g id="a_edge4_Node000001_Node000005"><a xlink:title=" ">
<path fill="none" stroke="#63b8ff" d="M109.81,-131.14C133.74,-143.69 177.89,-165.42 218,-177.5 227.5,-180.36 237.59,-182.83 247.67,-184.95"/>
<polygon fill="#63b8ff" stroke="#63b8ff" points="247.25,-188.43 257.74,-186.95 248.61,-181.56 247.25,-188.43"/>
</a>
</g>
</g>
<!-- Node8 -->
<g id="Node000008" class="node">
<title>Node8</title>
<g id="a_Node000008"><a xlink:href="../../d8/dec/classPathManager.html#a8995cf2a53dfcf82d99d80695396031a" target="_top" xlink:title=" ">
<polygon fill="white" stroke="#666666" points="415,-169 249,-169 249,-150 415,-150 415,-169"/>
<text text-anchor="middle" x="332" y="-157" font-family="Helvetica,sans-Serif" font-size="10.00">PathManager::getNodeExePath</text>
</a>
</g>
</g>
<!-- Node1&#45;&gt;Node8 -->
<g id="edge7_Node000001_Node000008" class="edge">
<title>Node1&#45;&gt;Node8</title>
<g id="a_edge7_Node000001_Node000008"><a xlink:title=" ">
<path fill="none" stroke="#63b8ff" d="M152,-131.04C185.1,-136.3 226.38,-142.87 260.95,-148.36"/>
<polygon fill="#63b8ff" stroke="#63b8ff" points="260.55,-151.84 270.97,-149.96 261.65,-144.93 260.55,-151.84"/>
</a>
</g>
</g>
<!-- Node9 -->
<g id="Node000009" class="node">
<title>Node9</title>
<g id="a_Node000009"><a xlink:href="../../db/d67/classLogger.html#aebb248e608f8e2724de20b482cb2a15f" target="_top" xlink:title=" ">
<polygon fill="white" stroke="#666666" points="380.5,-93 283.5,-93 283.5,-74 380.5,-74 380.5,-93"/>
<text text-anchor="middle" x="332" y="-81" font-family="Helvetica,sans-Serif" font-size="10.00">Logger::instance</text>
</a>
</g>
</g>
<!-- Node1&#45;&gt;Node9 -->
<g id="edge9_Node000001_Node000009" class="edge">
<title>Node1&#45;&gt;Node9</title>
<g id="a_edge9_Node000001_Node000009"><a xlink:title=" ">
<path fill="none" stroke="#63b8ff" d="M152,-111.96C189.16,-106.05 236.62,-98.51 273.34,-92.67"/>
<polygon fill="#63b8ff" stroke="#63b8ff" points="274.07,-96.1 283.39,-91.07 272.97,-89.18 274.07,-96.1"/>
</a>
</g>
</g>
<!-- Node10 -->
<g id="Node000010" class="node">
<title>Node10</title>
<g id="a_Node000010"><a xlink:href="../../dd/d71/classNetworkUtilities.html#ad620dd61d9d41d13af77219ffd1d937e" target="_top" xlink:title=" ">
<polygon fill="white" stroke="#666666" points="423,-56 241,-56 241,-37 423,-37 423,-56"/>
<text text-anchor="middle" x="332" y="-44" font-family="Helvetica,sans-Serif" font-size="10.00">NetworkUtilities::lastErrorToString</text>
</a>
</g>
</g>
<!-- Node1&#45;&gt;Node10 -->
<g id="edge10_Node000001_Node000010" class="edge">
<title>Node1&#45;&gt;Node10</title>
<g id="a_edge10_Node000001_Node000010"><a xlink:title=" ">
<path fill="none" stroke="#63b8ff" d="M109.37,-111.84C133.15,-99.03 177.53,-76.64 218,-64.5 226.23,-62.03 234.9,-59.89 243.63,-58.02"/>
<polygon fill="#63b8ff" stroke="#63b8ff" points="244.38,-61.44 253.49,-56.03 242.99,-54.58 244.38,-61.44"/>
</a>
</g>
</g>
<!-- Node11 -->
<g id="Node000011" class="node">
<title>Node11</title>
<g id="a_Node000011"><a xlink:href="../../dd/d71/classNetworkUtilities.html#a1aff5744053044b32a0b910f02abc05a" target="_top" xlink:title=" ">
<polygon fill="white" stroke="#666666" points="422,-19 242,-19 242,0 422,0 422,-19"/>
<text text-anchor="middle" x="332" y="-7" font-family="Helvetica,sans-Serif" font-size="10.00">NetworkUtilities::stopLocalTunnel</text>
</a>
</g>
</g>
<!-- Node1&#45;&gt;Node11 -->
<g id="edge11_Node000001_Node000011" class="edge">
<title>Node1&#45;&gt;Node11</title>
<g id="a_edge11_Node000001_Node000011"><a xlink:title=" ">
<path fill="none" stroke="#63b8ff" d="M101.4,-111.86C121.04,-92.35 168.72,-48.3 218,-27.5 223.09,-25.35 228.41,-23.46 233.84,-21.79"/>
<polygon fill="#63b8ff" stroke="#63b8ff" points="235.05,-25.08 243.73,-19.02 233.16,-18.34 235.05,-25.08"/>
</a>
</g>
</g>
<!-- Node3 -->
<g id="Node000003" class="node">
<title>Node3</title>
<g id="a_Node000003"><a xlink:href="../../dd/d71/classNetworkUtilities.html#a829777d7022ecf7433b66afbae859800" target="_top" xlink:title=" ">
<polygon fill="white" stroke="#666666" points="690,-243 482,-243 482,-224 690,-224 690,-243"/>
<text text-anchor="middle" x="586" y="-231" font-family="Helvetica,sans-Serif" font-size="10.00">NetworkUtilities::createKillJobIfNeeded</text>
</a>
</g>
</g>
<!-- Node2&#45;&gt;Node3 -->
<g id="edge2_Node000002_Node000003" class="edge">
<title>Node2&#45;&gt;Node3</title>
<g id="a_edge2_Node000002_Node000003"><a xlink:title=" ">
<path fill="none" stroke="#63b8ff" d="M411.7,-233.5C430.72,-233.5 451.43,-233.5 471.7,-233.5"/>
<polygon fill="#63b8ff" stroke="#63b8ff" points="471.92,-237 481.92,-233.5 471.92,-230 471.92,-237"/>
</a>
</g>
</g>
<!-- Node6 -->
<g id="Node000006" class="node">
<title>Node6</title>
<g id="a_Node000006"><a xlink:href="../../d8/dec/classPathManager.html#a8bc07ea0ad8692223d1743e442b48e26" target="_top" xlink:title=" ">
<polygon fill="white" stroke="#666666" points="668,-187 504,-187 504,-168 668,-168 668,-187"/>
<text text-anchor="middle" x="586" y="-175" font-family="Helvetica,sans-Serif" font-size="10.00">PathManager::getExternalPath</text>
</a>
</g>
</g>
<!-- Node5&#45;&gt;Node6 -->
<g id="edge5_Node000005_Node000006" class="edge">
<title>Node5&#45;&gt;Node6</title>
<g id="a_edge5_Node000005_Node000006"><a xlink:title=" ">
<path fill="none" stroke="#63b8ff" d="M446.1,-187.97C462.09,-186.77 478.37,-185.54 493.87,-184.37"/>
<polygon fill="#63b8ff" stroke="#63b8ff" points="494.23,-187.85 503.94,-183.61 493.71,-180.87 494.23,-187.85"/>
</a>
</g>
</g>
<!-- Node7 -->
<g id="Node000007" class="node">
<title>Node7</title>
<g id="a_Node000007"><a xlink:href="../../d8/dec/classPathManager.html#a467b459b77c73cbc7544551b53911fcd" target="_top" xlink:title=" ">
<polygon fill="white" stroke="#666666" points="904,-187 726,-187 726,-168 904,-168 904,-187"/>
<text text-anchor="middle" x="815" y="-175" font-family="Helvetica,sans-Serif" font-size="10.00">PathManager::getExecutableRoot</text>
</a>
</g>
</g>
<!-- Node6&#45;&gt;Node7 -->
<g id="edge6_Node000006_Node000007" class="edge">
<title>Node6&#45;&gt;Node7</title>
<g id="a_edge6_Node000006_Node000007"><a xlink:title=" ">
<path fill="none" stroke="#63b8ff" d="M668.31,-177.5C683.65,-177.5 699.85,-177.5 715.64,-177.5"/>
<polygon fill="#63b8ff" stroke="#63b8ff" points="715.96,-181 725.96,-177.5 715.96,-174 715.96,-181"/>
</a>
</g>
</g>
<!-- Node8&#45;&gt;Node6 -->
<g id="edge8_Node000008_Node000006" class="edge">
<title>Node8&#45;&gt;Node6</title>
<g id="a_edge8_Node000008_Node000006"><a xlink:title=" ">
<path fill="none" stroke="#63b8ff" d="M415.17,-165.37C440.27,-167.16 468.03,-169.15 493.7,-170.98"/>
<polygon fill="#63b8ff" stroke="#63b8ff" points="493.58,-174.48 503.81,-171.7 494.08,-167.5 493.58,-174.48"/>
</a>
</g>
</g>
<!-- Node11&#45;&gt;Node4 -->
<g id="edge12_Node000011_Node000004" class="edge">
<title>Node11&#45;&gt;Node4</title>
<g id="a_edge12_Node000011_Node000004"><a xlink:title=" ">
<path fill="none" stroke="#63b8ff" d="M400.45,-19.01C415.5,-21.48 431.34,-24.34 446,-27.5 479.43,-34.71 516.8,-45.06 544.36,-53.13"/>
<polygon fill="#63b8ff" stroke="#63b8ff" points="543.47,-56.52 554.05,-56 545.45,-49.81 543.47,-56.52"/>
</a>
</g>
</g>
</g>
</svg>

<g id="navigator" transform="translate(0 0)" fill="#404254">
  <rect fill="#f2f5e9" fill-opacity="0.5" stroke="#606060" stroke-width=".5" x="0" y="0" width="60" height="60"/>
  <use id="zoomplus" xlink:href="#zoomPlus" x="17" y="9" onmousedown="handleZoom(evt,'in')"/>
  <use id="zoomminus" xlink:href="#zoomMin" x="42" y="9" onmousedown="handleZoom(evt,'out')"/>
  <use id="reset" xlink:href="#resetDef" x="30" y="36" onmousedown="handleReset()"/>
   <use id="arrowup" xlink:href="#arrowUp" x="0" y="0" onmousedown="handlePan(0,-1)"/>
  <use id="arrowright" xlink:href="#arrowRight" x="0" y="0" onmousedown="handlePan(1,0)"/>
  <use id="arrowdown" xlink:href="#arrowDown" x="0" y="0" onmousedown="handlePan(0,1)"/>
  <use id="arrowleft" xlink:href="#arrowLeft" x="0" y="0" onmousedown="handlePan(-1,0)"/>
</g>
<svg viewBox="0 0 15 15" width="100%" height="30px" preserveAspectRatio="xMaxYMin meet">
 <g id="arrow_out" transform="scale(0.3 0.3)">
  <a xlink:href="classNetworkUtilities_ac0655968aa7b9e06f7566343e0d2e567_cgraph_org.svg" target="_base">
   <rect id="button" ry="5" rx="5" y="6" x="6" height="38" width="38"
        fill="#f2f5e9" fill-opacity="0.5" stroke="#606060" stroke-width="1.0"/>
   <path id="arrow"
     d="M 11.500037,31.436501 C 11.940474,20.09759 22.043105,11.32322 32.158766,21.979434 L 37.068811,17.246167 C 37.068811,17.246167 37.088388,32 37.088388,32 L 22.160133,31.978069 C 22.160133,31.978069 26.997745,27.140456 26.997745,27.140456 C 18.528582,18.264221 13.291696,25.230495 11.500037,31.436501 z"
     style="fill:#404040;"/>
  </a>
 </g>
</svg>

<style type='text/css'>
<![CDATA[
[data-mouse-over-selected='false'] { opacity: 0.7; }
[data-mouse-over-selected='true']  { opacity: 1.0; }
]]>
</style>
<script type="application/ecmascript"><![CDATA[
document.addEventListener('DOMContentLoaded', (event) => {
  highlightEdges();
  highlightAdjacentNodes();
});
]]></script>
</svg>
