<?xml version="1.0" encoding="UTF-8" standalone="no"?>
<!DOCTYPE svg PUBLIC "-//W3C//DTD SVG 1.1//EN"
 "http://www.w3.org/Graphics/SVG/1.1/DTD/svg11.dtd">
<!-- Generated by graphviz version 2.43.0 (0)
 -->
<!-- Title: NetworkUtilities::safeCloseWebSocket Pages: 1 -->
<svg width="653pt" height="101pt"
 viewBox="0.00 0.00 653.00 101.00" xmlns="http://www.w3.org/2000/svg" xmlns:xlink="http://www.w3.org/1999/xlink">
<g id="graph0" class="graph" transform="scale(1 1) rotate(0) translate(4 97)">
<title>NetworkUtilities::safeCloseWebSocket</title>
<!-- Node1 -->
<g id="Node000001" class="node">
<title>Node1</title>
<g id="a_Node000001"><a xlink:title=" ">
<polygon fill="#999999" stroke="#666666" points="645,-56 442,-56 442,-37 645,-37 645,-56"/>
<text text-anchor="middle" x="543.5" y="-44" font-family="Helvetica,sans-Serif" font-size="10.00">NetworkUtilities::safeCloseWebSocket</text>
</a>
</g>
</g>
<!-- Node2 -->
<g id="Node000002" class="node">
<title>Node2</title>
<g id="a_Node000002"><a xlink:href="../../d9/d85/classSignalingClient.html#ac3db9617d91d271ba18bde81f24b5c97" target="_top" xlink:title=" ">
<polygon fill="white" stroke="#666666" points="374,-93 252,-93 252,-74 374,-74 374,-93"/>
<text text-anchor="middle" x="313" y="-81" font-family="Helvetica,sans-Serif" font-size="10.00">SignalingClient::close</text>
</a>
</g>
</g>
<!-- Node1&#45;&gt;Node2 -->
<g id="edge1_Node000001_Node000002" class="edge">
<title>Node1&#45;&gt;Node2</title>
<g id="a_edge1_Node000001_Node000002"><a xlink:title=" ">
<path fill="none" stroke="#63b8ff" d="M473.47,-57.68C441.43,-62.87 403.74,-68.97 373.04,-73.94"/>
<polygon fill="#63b8ff" stroke="#63b8ff" points="474.34,-61.08 483.66,-56.03 473.22,-54.17 474.34,-61.08"/>
</a>
</g>
</g>
<!-- Node3 -->
<g id="Node000003" class="node">
<title>Node3</title>
<g id="a_Node000003"><a xlink:href="../../d6/d6f/classNetworkManager.html#a8e0d2dcd98ddaf7e2546508c44dd804e" target="_top" xlink:title=" ">
<polygon fill="white" stroke="#666666" points="406,-56 220,-56 220,-37 406,-37 406,-56"/>
<text text-anchor="middle" x="313" y="-44" font-family="Helvetica,sans-Serif" font-size="10.00">NetworkManager::housekeepPeers</text>
</a>
</g>
</g>
<!-- Node1&#45;&gt;Node3 -->
<g id="edge2_Node000001_Node000003" class="edge">
<title>Node1&#45;&gt;Node3</title>
<g id="a_edge2_Node000001_Node000003"><a xlink:title=" ">
<path fill="none" stroke="#63b8ff" d="M431.91,-46.5C423.34,-46.5 414.74,-46.5 406.3,-46.5"/>
<polygon fill="#63b8ff" stroke="#63b8ff" points="431.94,-50 441.94,-46.5 431.94,-43 431.94,-50"/>
</a>
</g>
</g>
<!-- Node4 -->
<g id="Node000004" class="node">
<title>Node4</title>
<g id="a_Node000004"><a xlink:href="../../d6/d0b/classSignalingServer.html#ad1eb7f34bf1ee45ab24d16020ffcb889" target="_top" xlink:title=" ">
<polygon fill="white" stroke="#666666" points="373,-19 253,-19 253,0 373,0 373,-19"/>
<text text-anchor="middle" x="313" y="-7" font-family="Helvetica,sans-Serif" font-size="10.00">SignalingServer::stop</text>
</a>
</g>
</g>
<!-- Node1&#45;&gt;Node4 -->
<g id="edge3_Node000001_Node000004" class="edge">
<title>Node1&#45;&gt;Node4</title>
<g id="a_edge3_Node000001_Node000004"><a xlink:title=" ">
<path fill="none" stroke="#63b8ff" d="M473.47,-35.32C441.43,-30.13 403.74,-24.03 373.04,-19.06"/>
<polygon fill="#63b8ff" stroke="#63b8ff" points="473.22,-38.83 483.66,-36.97 474.34,-31.92 473.22,-38.83"/>
</a>
</g>
</g>
<!-- Node5 -->
<g id="Node000005" class="node">
<title>Node5</title>
<g id="a_Node000005"><a xlink:href="../../d6/d0b/classSignalingServer.html#a257d9fcbdd01ef29c2c4b093a79b023a" target="_top" xlink:title=" ">
<polygon fill="white" stroke="#666666" points="184,-19 0,-19 0,0 184,0 184,-19"/>
<text text-anchor="middle" x="92" y="-7" font-family="Helvetica,sans-Serif" font-size="10.00">SignalingServer::~SignalingServer</text>
</a>
</g>
</g>
<!-- Node4&#45;&gt;Node5 -->
<g id="edge4_Node000004_Node000005" class="edge">
<title>Node4&#45;&gt;Node5</title>
<g id="a_edge4_Node000004_Node000005"><a xlink:title=" ">
<path fill="none" stroke="#63b8ff" d="M242.6,-9.5C224,-9.5 203.61,-9.5 184.02,-9.5"/>
<polygon fill="#63b8ff" stroke="#63b8ff" points="242.74,-13 252.74,-9.5 242.74,-6 242.74,-13"/>
</a>
</g>
</g>
</g>
</svg>
