<?xml version="1.0" encoding="UTF-8" standalone="no"?>
<!DOCTYPE svg PUBLIC "-//W3C//DTD SVG 1.1//EN"
 "http://www.w3.org/Graphics/SVG/1.1/DTD/svg11.dtd">
<!-- Generated by graphviz version 14.0.2 (20251019.1705)
 -->
<!-- Title: include/network/Message.h Pages: 1 -->
<svg width="1122pt" height="276pt"
 viewBox="0.00 0.00 1122.00 276.00" xmlns="http://www.w3.org/2000/svg" xmlns:xlink="http://www.w3.org/1999/xlink">
<g id="graph0" class="graph" transform="scale(1 1) rotate(0) translate(4 272)">
<title>include/network/Message.h</title>
<!-- Node1 -->
<g id="Node000001" class="node">
<title>Node1</title>
<g id="a_Node000001"><a xlink:title=" ">
<polygon fill="#999999" stroke="#666666" points="878.62,-268 743.38,-268 743.38,-248 878.62,-248 878.62,-268"/>
<text xml:space="preserve" text-anchor="middle" x="811" y="-254.5" font-family="Helvetica,sans-Serif" font-size="10.00">include/network/Message.h</text>
</a>
</g>
</g>
<!-- Node2 -->
<g id="Node000002" class="node">
<title>Node2</title>
<g id="a_Node000002"><a xlink:href="../../db/d8b/_chat_manager_8h.html" target="_top" xlink:title=" ">
<polygon fill="white" stroke="#666666" points="339.25,-212 222.75,-212 222.75,-192 339.25,-192 339.25,-212"/>
<text xml:space="preserve" text-anchor="middle" x="281" y="-198.5" font-family="Helvetica,sans-Serif" font-size="10.00">include/ChatManager.h</text>
</a>
</g>
</g>
<!-- Node1&#45;&gt;Node2 -->
<g id="edge1_Node000001_Node000002" class="edge">
<title>Node1&#45;&gt;Node2</title>
<g id="a_edge1_Node000001_Node000002"><a xlink:title=" ">
<path fill="none" stroke="#63b8ff" d="M731.66,-248.92C624.27,-237.97 435.13,-218.7 339.65,-208.98"/>
<polygon fill="#63b8ff" stroke="#63b8ff" points="731.26,-252.39 741.56,-249.93 731.97,-245.43 731.26,-252.39"/>
</a>
</g>
</g>
<!-- Node8 -->
<g id="Node000008" class="node">
<title>Node8</title>
<g id="a_Node000008"><a xlink:href="../../da/d82/_network_manager_8cpp.html" target="_top" xlink:title=" ">
<polygon fill="white" stroke="#666666" points="667.5,-82 504.5,-82 504.5,-62 667.5,-62 667.5,-82"/>
<text xml:space="preserve" text-anchor="middle" x="586" y="-68.5" font-family="Helvetica,sans-Serif" font-size="10.00">src/network/NetworkManager.cpp</text>
</a>
</g>
</g>
<!-- Node1&#45;&gt;Node8 -->
<g id="edge20_Node000001_Node000008" class="edge">
<title>Node1&#45;&gt;Node8</title>
<g id="a_edge20_Node000001_Node000008"><a xlink:title=" ">
<path fill="none" stroke="#63b8ff" d="M890.2,-248.15C996.69,-233.27 1165.43,-197.36 1099,-124 1070.65,-92.69 805.23,-79.83 667.74,-75.23"/>
<polygon fill="#63b8ff" stroke="#63b8ff" points="889.76,-244.68 880.32,-249.49 890.7,-251.61 889.76,-244.68"/>
</a>
</g>
</g>
<!-- Node12 -->
<g id="Node000012" class="node">
<title>Node12</title>
<g id="a_Node000012"><a xlink:href="../../d8/ddc/_network_manager_8h.html" target="_top" xlink:title=" ">
<polygon fill="white" stroke="#666666" points="679.88,-212 510.12,-212 510.12,-192 679.88,-192 679.88,-212"/>
<text xml:space="preserve" text-anchor="middle" x="595" y="-198.5" font-family="Helvetica,sans-Serif" font-size="10.00">include/network/NetworkManager.h</text>
</a>
</g>
</g>
<!-- Node1&#45;&gt;Node12 -->
<g id="edge12_Node000001_Node000012" class="edge">
<title>Node1&#45;&gt;Node12</title>
<g id="a_edge12_Node000001_Node000012"><a xlink:title=" ">
<path fill="none" stroke="#63b8ff" d="M762.25,-244.81C723.09,-235.02 668.88,-221.47 632.92,-212.48"/>
<polygon fill="#63b8ff" stroke="#63b8ff" points="761.36,-248.2 771.91,-247.23 763.05,-241.41 761.36,-248.2"/>
</a>
</g>
</g>
<!-- Node14 -->
<g id="Node000014" class="node">
<title>Node14</title>
<g id="a_Node000014"><a xlink:href="../../d8/d6b/_peer_link_8cpp.html" target="_top" xlink:title=" ">
<polygon fill="white" stroke="#666666" points="741.5,-150 614.5,-150 614.5,-130 741.5,-130 741.5,-150"/>
<text xml:space="preserve" text-anchor="middle" x="678" y="-136.5" font-family="Helvetica,sans-Serif" font-size="10.00">src/network/PeerLink.cpp</text>
</a>
</g>
</g>
<!-- Node1&#45;&gt;Node14 -->
<g id="edge21_Node000001_Node000014" class="edge">
<title>Node1&#45;&gt;Node14</title>
<g id="a_edge21_Node000001_Node000014"><a xlink:title=" ">
<path fill="none" stroke="#63b8ff" d="M791.8,-240.25C763.38,-215.47 711.08,-169.86 688.66,-150.3"/>
<polygon fill="#63b8ff" stroke="#63b8ff" points="789.14,-242.58 798.98,-246.51 793.74,-237.3 789.14,-242.58"/>
</a>
</g>
</g>
<!-- Node15 -->
<g id="Node000015" class="node">
<title>Node15</title>
<g id="a_Node000015"><a xlink:href="../../d3/d55/_signaling_client_8cpp.html" target="_top" xlink:title=" ">
<polygon fill="white" stroke="#666666" points="914,-150 760,-150 760,-130 914,-130 914,-150"/>
<text xml:space="preserve" text-anchor="middle" x="837" y="-136.5" font-family="Helvetica,sans-Serif" font-size="10.00">src/network/SignalingClient.cpp</text>
</a>
</g>
</g>
<!-- Node1&#45;&gt;Node15 -->
<g id="edge22_Node000001_Node000015" class="edge">
<title>Node1&#45;&gt;Node15</title>
<g id="a_edge22_Node000001_Node000015"><a xlink:title=" ">
<path fill="none" stroke="#63b8ff" d="M815.58,-236.57C821.27,-211.18 830.74,-168.92 834.92,-150.3"/>
<polygon fill="#63b8ff" stroke="#63b8ff" points="812.23,-235.51 813.46,-246.03 819.06,-237.04 812.23,-235.51"/>
</a>
</g>
</g>
<!-- Node16 -->
<g id="Node000016" class="node">
<title>Node16</title>
<g id="a_Node000016"><a xlink:href="../../d1/ddf/_signaling_server_8cpp.html" target="_top" xlink:title=" ">
<polygon fill="white" stroke="#666666" points="1089.5,-150 932.5,-150 932.5,-130 1089.5,-130 1089.5,-150"/>
<text xml:space="preserve" text-anchor="middle" x="1011" y="-136.5" font-family="Helvetica,sans-Serif" font-size="10.00">src/network/SignalingServer.cpp</text>
</a>
</g>
</g>
<!-- Node1&#45;&gt;Node16 -->
<g id="edge23_Node000001_Node000016" class="edge">
<title>Node1&#45;&gt;Node16</title>
<g id="a_edge23_Node000001_Node000016"><a xlink:title=" ">
<path fill="none" stroke="#63b8ff" d="M837.13,-241.85C879.03,-217.54 960.08,-170.54 994.69,-150.46"/>
<polygon fill="#63b8ff" stroke="#63b8ff" points="835.57,-238.7 828.68,-246.75 839.08,-244.76 835.57,-238.7"/>
</a>
</g>
</g>
<!-- Node3 -->
<g id="Node000003" class="node">
<title>Node3</title>
<g id="a_Node000003"><a xlink:href="../../d9/d4e/_game_table_manager_8h.html" target="_top" xlink:title=" ">
<polygon fill="white" stroke="#666666" points="425.5,-150 280.5,-150 280.5,-130 425.5,-130 425.5,-150"/>
<text xml:space="preserve" text-anchor="middle" x="353" y="-136.5" font-family="Helvetica,sans-Serif" font-size="10.00">include/GameTableManager.h</text>
</a>
</g>
</g>
<!-- Node2&#45;&gt;Node3 -->
<g id="edge2_Node000002_Node000003" class="edge">
<title>Node2&#45;&gt;Node3</title>
<g id="a_edge2_Node000002_Node000003"><a xlink:title=" ">
<path fill="none" stroke="#63b8ff" d="M300.75,-184.55C314.06,-173.45 331.13,-159.23 342.06,-150.11"/>
<polygon fill="#63b8ff" stroke="#63b8ff" points="298.85,-181.57 293.41,-190.66 303.34,-186.94 298.85,-181.57"/>
</a>
</g>
</g>
<!-- Node9 -->
<g id="Node000009" class="node">
<title>Node9</title>
<g id="a_Node000009"><a xlink:href="../../d1/ded/_note_editor_u_i_8h.html" target="_top" xlink:title=" ">
<polygon fill="white" stroke="#666666" points="134.88,-156 37.12,-156 37.12,-124 134.88,-124 134.88,-156"/>
<text xml:space="preserve" text-anchor="start" x="45.12" y="-142.5" font-family="Helvetica,sans-Serif" font-size="10.00">include/note_editor</text>
<text xml:space="preserve" text-anchor="middle" x="86" y="-130.5" font-family="Helvetica,sans-Serif" font-size="10.00">/NoteEditorUI.h</text>
</a>
</g>
</g>
<!-- Node2&#45;&gt;Node9 -->
<g id="edge8_Node000002_Node000009" class="edge">
<title>Node2&#45;&gt;Node9</title>
<g id="a_edge8_Node000002_Node000009"><a xlink:title=" ">
<path fill="none" stroke="#63b8ff" d="M239.82,-188.33C209.28,-178.93 167.51,-166.08 135.21,-156.14"/>
<polygon fill="#63b8ff" stroke="#63b8ff" points="238.5,-191.58 249.08,-191.18 240.56,-184.89 238.5,-191.58"/>
</a>
</g>
</g>
<!-- Node11 -->
<g id="Node000011" class="node">
<title>Node11</title>
<g id="a_Node000011"><a xlink:href="../../d1/d1e/_chat_manager_8cpp.html" target="_top" xlink:title=" ">
<polygon fill="white" stroke="#666666" points="262.88,-150 153.12,-150 153.12,-130 262.88,-130 262.88,-150"/>
<text xml:space="preserve" text-anchor="middle" x="208" y="-136.5" font-family="Helvetica,sans-Serif" font-size="10.00">src/ChatManager.cpp</text>
</a>
</g>
</g>
<!-- Node2&#45;&gt;Node11 -->
<g id="edge11_Node000002_Node000011" class="edge">
<title>Node2&#45;&gt;Node11</title>
<g id="a_edge11_Node000002_Node000011"><a xlink:title=" ">
<path fill="none" stroke="#63b8ff" d="M260.98,-184.55C247.48,-173.45 230.18,-159.23 219.09,-150.11"/>
<polygon fill="#63b8ff" stroke="#63b8ff" points="258.48,-187.02 268.42,-190.66 262.92,-181.61 258.48,-187.02"/>
</a>
</g>
</g>
<!-- Node4 -->
<g id="Node000004" class="node">
<title>Node4</title>
<g id="a_Node000004"><a xlink:href="../../d0/da4/_application_handler_8h.html" target="_top" xlink:title=" ">
<polygon fill="white" stroke="#666666" points="287.88,-82 148.12,-82 148.12,-62 287.88,-62 287.88,-82"/>
<text xml:space="preserve" text-anchor="middle" x="218" y="-68.5" font-family="Helvetica,sans-Serif" font-size="10.00">include/ApplicationHandler.h</text>
</a>
</g>
</g>
<!-- Node3&#45;&gt;Node4 -->
<g id="edge3_Node000003_Node000004" class="edge">
<title>Node3&#45;&gt;Node4</title>
<g id="a_edge3_Node000003_Node000004"><a xlink:title=" ">
<path fill="none" stroke="#63b8ff" d="M323.55,-124.6C297.37,-111.8 259.85,-93.46 237.31,-82.44"/>
<polygon fill="#63b8ff" stroke="#63b8ff" points="321.78,-127.63 332.3,-128.88 324.85,-121.34 321.78,-127.63"/>
</a>
</g>
</g>
<!-- Node7 -->
<g id="Node000007" class="node">
<title>Node7</title>
<g id="a_Node000007"><a xlink:href="../../d1/d06/_game_table_manager_8cpp.html" target="_top" xlink:title=" ">
<polygon fill="white" stroke="#666666" points="444.12,-82 305.88,-82 305.88,-62 444.12,-62 444.12,-82"/>
<text xml:space="preserve" text-anchor="middle" x="375" y="-68.5" font-family="Helvetica,sans-Serif" font-size="10.00">src/GameTableManager.cpp</text>
</a>
</g>
</g>
<!-- Node3&#45;&gt;Node7 -->
<g id="edge6_Node000003_Node000007" class="edge">
<title>Node3&#45;&gt;Node7</title>
<g id="a_edge6_Node000003_Node000007"><a xlink:title=" ">
<path fill="none" stroke="#63b8ff" d="M359.78,-118.65C363.81,-106.58 368.72,-91.84 371.85,-82.44"/>
<polygon fill="#63b8ff" stroke="#63b8ff" points="356.47,-117.51 356.63,-128.11 363.11,-119.73 356.47,-117.51"/>
</a>
</g>
</g>
<!-- Node3&#45;&gt;Node8 -->
<g id="edge7_Node000003_Node000008" class="edge">
<title>Node3&#45;&gt;Node8</title>
<g id="a_edge7_Node000003_Node000008"><a xlink:title=" ">
<path fill="none" stroke="#63b8ff" d="M397.34,-126.44C442.62,-113.61 511.87,-94 552.68,-82.44"/>
<polygon fill="#63b8ff" stroke="#63b8ff" points="396.51,-123.04 387.84,-129.13 398.41,-129.77 396.51,-123.04"/>
</a>
</g>
</g>
<!-- Node5 -->
<g id="Node000005" class="node">
<title>Node5</title>
<g id="a_Node000005"><a xlink:href="../../df/d43/_application_handler_8cpp.html" target="_top" xlink:title=" ">
<polygon fill="white" stroke="#666666" points="223.5,-20 90.5,-20 90.5,0 223.5,0 223.5,-20"/>
<text xml:space="preserve" text-anchor="middle" x="157" y="-6.5" font-family="Helvetica,sans-Serif" font-size="10.00">src/ApplicationHandler.cpp</text>
</a>
</g>
</g>
<!-- Node4&#45;&gt;Node5 -->
<g id="edge4_Node000004_Node000005" class="edge">
<title>Node4&#45;&gt;Node5</title>
<g id="a_edge4_Node000004_Node000005"><a xlink:title=" ">
<path fill="none" stroke="#63b8ff" d="M200.29,-53.58C189.16,-42.63 175.26,-28.97 166.26,-20.11"/>
<polygon fill="#63b8ff" stroke="#63b8ff" points="197.81,-56.05 207.39,-60.56 202.71,-51.06 197.81,-56.05"/>
</a>
</g>
</g>
<!-- Node6 -->
<g id="Node000006" class="node">
<title>Node6</title>
<g id="a_Node000006"><a xlink:href="../../df/d0a/main_8cpp.html" target="_top" xlink:title=" ">
<polygon fill="white" stroke="#666666" points="314.12,-20 241.88,-20 241.88,0 314.12,0 314.12,-20"/>
<text xml:space="preserve" text-anchor="middle" x="278" y="-6.5" font-family="Helvetica,sans-Serif" font-size="10.00">src/main.cpp</text>
</a>
</g>
</g>
<!-- Node4&#45;&gt;Node6 -->
<g id="edge5_Node000004_Node000006" class="edge">
<title>Node4&#45;&gt;Node6</title>
<g id="a_edge5_Node000004_Node000006"><a xlink:title=" ">
<path fill="none" stroke="#63b8ff" d="M235.42,-53.58C246.37,-42.63 260.03,-28.97 268.89,-20.11"/>
<polygon fill="#63b8ff" stroke="#63b8ff" points="233.04,-51.01 228.45,-60.55 237.99,-55.96 233.04,-51.01"/>
</a>
</g>
</g>
<!-- Node9&#45;&gt;Node4 -->
<g id="edge9_Node000009_Node000004" class="edge">
<title>Node9&#45;&gt;Node4</title>
<g id="a_edge9_Node000009_Node000004"><a xlink:title=" ">
<path fill="none" stroke="#63b8ff" d="M127.23,-118.39C151.26,-106.37 180.41,-91.79 199.08,-82.46"/>
<polygon fill="#63b8ff" stroke="#63b8ff" points="125.68,-115.25 118.3,-122.85 128.81,-121.51 125.68,-115.25"/>
</a>
</g>
</g>
<!-- Node10 -->
<g id="Node000010" class="node">
<title>Node10</title>
<g id="a_Node000010"><a xlink:href="../../d9/d67/_note_editor_u_i_8cpp.html" target="_top" xlink:title=" ">
<polygon fill="white" stroke="#666666" points="130,-88 0,-88 0,-56 130,-56 130,-88"/>
<text xml:space="preserve" text-anchor="start" x="8" y="-74.5" font-family="Helvetica,sans-Serif" font-size="10.00">src/note_editor/NoteEditor</text>
<text xml:space="preserve" text-anchor="middle" x="65" y="-62.5" font-family="Helvetica,sans-Serif" font-size="10.00">UI.cpp</text>
</a>
</g>
</g>
<!-- Node9&#45;&gt;Node10 -->
<g id="edge10_Node000009_Node000010" class="edge">
<title>Node9&#45;&gt;Node10</title>
<g id="a_edge10_Node000009_Node000010"><a xlink:title=" ">
<path fill="none" stroke="#63b8ff" d="M77.69,-112.89C75.03,-104.52 72.17,-95.54 69.84,-88.22"/>
<polygon fill="#63b8ff" stroke="#63b8ff" points="74.3,-113.78 80.67,-122.25 80.97,-111.66 74.3,-113.78"/>
</a>
</g>
</g>
<!-- Node12&#45;&gt;Node3 -->
<g id="edge13_Node000012_Node000003" class="edge">
<title>Node12&#45;&gt;Node3</title>
<g id="a_edge13_Node000012_Node000003"><a xlink:title=" ">
<path fill="none" stroke="#63b8ff" d="M545.8,-188.8C500.12,-177.48 433.05,-160.85 391.26,-150.48"/>
<polygon fill="#63b8ff" stroke="#63b8ff" points="544.9,-192.19 555.45,-191.19 546.59,-185.39 544.9,-192.19"/>
</a>
</g>
</g>
<!-- Node12&#45;&gt;Node8 -->
<g id="edge16_Node000012_Node000008" class="edge">
<title>Node12&#45;&gt;Node8</title>
<g id="a_edge16_Node000012_Node000008"><a xlink:title=" ">
<path fill="none" stroke="#63b8ff" d="M593.56,-180.57C591.59,-152.49 588.12,-103.09 586.67,-82.47"/>
<polygon fill="#63b8ff" stroke="#63b8ff" points="590.05,-180.55 594.25,-190.28 597.04,-180.06 590.05,-180.55"/>
</a>
</g>
</g>
<!-- Node12&#45;&gt;Node11 -->
<g id="edge15_Node000012_Node000011" class="edge">
<title>Node12&#45;&gt;Node11</title>
<g id="a_edge15_Node000012_Node000011"><a xlink:title=" ">
<path fill="none" stroke="#63b8ff" d="M499.32,-190.15C434.61,-182.22 347.34,-170.36 271,-156 262.6,-154.42 253.64,-152.46 245.18,-150.48"/>
<polygon fill="#63b8ff" stroke="#63b8ff" points="498.88,-193.62 509.22,-191.36 499.72,-186.68 498.88,-193.62"/>
</a>
</g>
</g>
<!-- Node13 -->
<g id="Node000013" class="node">
<title>Node13</title>
<g id="a_Node000013"><a xlink:href="../../de/d99/_board_manager_8cpp.html" target="_top" xlink:title=" ">
<polygon fill="white" stroke="#666666" points="558.12,-150 443.88,-150 443.88,-130 558.12,-130 558.12,-150"/>
<text xml:space="preserve" text-anchor="middle" x="501" y="-136.5" font-family="Helvetica,sans-Serif" font-size="10.00">src/BoardManager.cpp</text>
</a>
</g>
</g>
<!-- Node12&#45;&gt;Node13 -->
<g id="edge14_Node000012_Node000013" class="edge">
<title>Node12&#45;&gt;Node13</title>
<g id="a_edge14_Node000012_Node000013"><a xlink:title=" ">
<path fill="none" stroke="#63b8ff" d="M570.77,-185.54C553.31,-174.39 530.31,-159.71 515.58,-150.31"/>
<polygon fill="#63b8ff" stroke="#63b8ff" points="568.72,-188.38 579.04,-190.81 572.49,-182.48 568.72,-188.38"/>
</a>
</g>
</g>
<!-- Node12&#45;&gt;Node14 -->
<g id="edge17_Node000012_Node000014" class="edge">
<title>Node12&#45;&gt;Node14</title>
<g id="a_edge17_Node000012_Node000014"><a xlink:title=" ">
<path fill="none" stroke="#63b8ff" d="M617.26,-184.91C632.57,-173.84 652.36,-159.53 665.12,-150.31"/>
<polygon fill="#63b8ff" stroke="#63b8ff" points="615.25,-182.04 609.2,-190.74 619.35,-187.72 615.25,-182.04"/>
</a>
</g>
</g>
<!-- Node12&#45;&gt;Node15 -->
<g id="edge18_Node000012_Node000015" class="edge">
<title>Node12&#45;&gt;Node15</title>
<g id="a_edge18_Node000012_Node000015"><a xlink:title=" ">
<path fill="none" stroke="#63b8ff" d="M644.2,-188.8C689.88,-177.48 756.95,-160.85 798.74,-150.48"/>
<polygon fill="#63b8ff" stroke="#63b8ff" points="643.41,-185.39 634.55,-191.19 645.1,-192.19 643.41,-185.39"/>
</a>
</g>
</g>
<!-- Node12&#45;&gt;Node16 -->
<g id="edge19_Node000012_Node000016" class="edge">
<title>Node12&#45;&gt;Node16</title>
<g id="a_edge19_Node000012_Node000016"><a xlink:title=" ">
<path fill="none" stroke="#63b8ff" d="M680.24,-190.08C746.51,-181.4 840.7,-168.66 923,-156 934.03,-154.3 945.82,-152.38 957.06,-150.48"/>
<polygon fill="#63b8ff" stroke="#63b8ff" points="679.99,-186.58 670.53,-191.35 680.9,-193.52 679.99,-186.58"/>
</a>
</g>
</g>
</g>
</svg>
