<?xml version="1.0" encoding="UTF-8" standalone="no"?>
<!DOCTYPE svg PUBLIC "-//W3C//DTD SVG 1.1//EN"
 "http://www.w3.org/Graphics/SVG/1.1/DTD/svg11.dtd">
<!-- Generated by graphviz version 2.43.0 (0)
 -->
<!-- Title: NetworkUtilities Pages: 1 -->
<svg width="464pt" height="587pt"
 viewBox="0.00 0.00 463.50 587.00" xmlns="http://www.w3.org/2000/svg" xmlns:xlink="http://www.w3.org/1999/xlink">
<g id="graph0" class="graph" transform="scale(1 1) rotate(0) translate(4 583)">
<title>NetworkUtilities</title>
<!-- Node1 -->
<g id="Node000001" class="node">
<title>Node1</title>
<g id="a_Node000001"><a xlink:title=" ">
<polygon fill="#999999" stroke="transparent" points="344.5,-417 103.5,-417 103.5,0 344.5,0 344.5,-417"/>
<text text-anchor="start" x="184.5" y="-404.5" font-family="Helvetica,sans-Serif" font-size="10.00">NetworkUtilities</text>
<text text-anchor="start" x="222.5" y="-389.5" font-family="Helvetica,sans-Serif" font-size="10.00"> </text>
<text text-anchor="start" x="108" y="-374.5" font-family="Helvetica,sans-Serif" font-size="10.00">+</text>
<text text-anchor="start" x="121" y="-374.5" font-family="Helvetica,sans-Serif" font-size="10.00">static void safeCloseDataChannel</text>
<text text-anchor="start" x="121" y="-363.5" font-family="Helvetica,sans-Serif" font-size="10.00">(std::shared_ptr&lt; rtc::DataChannel &gt; &amp;dc)</text>
<text text-anchor="start" x="108" y="-348.5" font-family="Helvetica,sans-Serif" font-size="10.00">+</text>
<text text-anchor="start" x="121" y="-348.5" font-family="Helvetica,sans-Serif" font-size="10.00">static void safeClosePeerConnection</text>
<text text-anchor="start" x="121" y="-337.5" font-family="Helvetica,sans-Serif" font-size="10.00">(std::shared_ptr&lt; rtc::PeerConnection &gt; &amp;pc)</text>
<text text-anchor="start" x="108" y="-322.5" font-family="Helvetica,sans-Serif" font-size="10.00">+</text>
<text text-anchor="start" x="121" y="-322.5" font-family="Helvetica,sans-Serif" font-size="10.00">static void safeCloseWebSocket</text>
<text text-anchor="start" x="121" y="-311.5" font-family="Helvetica,sans-Serif" font-size="10.00">(std::shared_ptr&lt; rtc::WebSocket &gt; &amp;ws)</text>
<text text-anchor="start" x="108" y="-296.5" font-family="Helvetica,sans-Serif" font-size="10.00">+</text>
<text text-anchor="start" x="121" y="-296.5" font-family="Helvetica,sans-Serif" font-size="10.00">static std::string runCommand</text>
<text text-anchor="start" x="121" y="-285.5" font-family="Helvetica,sans-Serif" font-size="10.00">(const std::string &amp;cmd)</text>
<text text-anchor="start" x="108" y="-270.5" font-family="Helvetica,sans-Serif" font-size="10.00">+</text>
<text text-anchor="start" x="121" y="-270.5" font-family="Helvetica,sans-Serif" font-size="10.00">static std::string httpGet</text>
<text text-anchor="start" x="121" y="-259.5" font-family="Helvetica,sans-Serif" font-size="10.00">(const std::wstring &amp;host, const</text>
<text text-anchor="start" x="121" y="-248.5" font-family="Helvetica,sans-Serif" font-size="10.00"> std::wstring &amp;path)</text>
<text text-anchor="start" x="108" y="-233.5" font-family="Helvetica,sans-Serif" font-size="10.00">+</text>
<text text-anchor="start" x="121" y="-233.5" font-family="Helvetica,sans-Serif" font-size="10.00">static std::string getLocalIPv4Address()</text>
<text text-anchor="start" x="108" y="-218.5" font-family="Helvetica,sans-Serif" font-size="10.00">+</text>
<text text-anchor="start" x="121" y="-218.5" font-family="Helvetica,sans-Serif" font-size="10.00">static std::string normalizeWsUrl</text>
<text text-anchor="start" x="121" y="-207.5" font-family="Helvetica,sans-Serif" font-size="10.00">(const std::string &amp;hostOrUrl,</text>
<text text-anchor="start" x="121" y="-196.5" font-family="Helvetica,sans-Serif" font-size="10.00"> unsigned short port)</text>
<text text-anchor="start" x="108" y="-181.5" font-family="Helvetica,sans-Serif" font-size="10.00">+</text>
<text text-anchor="start" x="121" y="-181.5" font-family="Helvetica,sans-Serif" font-size="10.00">static void setupTLS()</text>
<text text-anchor="start" x="108" y="-166.5" font-family="Helvetica,sans-Serif" font-size="10.00">+</text>
<text text-anchor="start" x="121" y="-166.5" font-family="Helvetica,sans-Serif" font-size="10.00">static std::string normalizeWsUrl</text>
<text text-anchor="start" x="121" y="-155.5" font-family="Helvetica,sans-Serif" font-size="10.00">(const std::string &amp;raw)</text>
<text text-anchor="start" x="108" y="-140.5" font-family="Helvetica,sans-Serif" font-size="10.00">+</text>
<text text-anchor="start" x="121" y="-140.5" font-family="Helvetica,sans-Serif" font-size="10.00">static std::string startLocalTunnel</text>
<text text-anchor="start" x="121" y="-129.5" font-family="Helvetica,sans-Serif" font-size="10.00">(const std::string &amp;subdomainBase,</text>
<text text-anchor="start" x="121" y="-118.5" font-family="Helvetica,sans-Serif" font-size="10.00"> int port)</text>
<text text-anchor="start" x="108" y="-103.5" font-family="Helvetica,sans-Serif" font-size="10.00">+</text>
<text text-anchor="start" x="121" y="-103.5" font-family="Helvetica,sans-Serif" font-size="10.00">static void stopLocalTunnel()</text>
<text text-anchor="start" x="108" y="-88.5" font-family="Helvetica,sans-Serif" font-size="10.00">+</text>
<text text-anchor="start" x="121" y="-88.5" font-family="Helvetica,sans-Serif" font-size="10.00">static std::string getLocalTunnelUrl()</text>
<text text-anchor="start" x="110.5" y="-73.5" font-family="Helvetica,sans-Serif" font-size="10.00">&#45;</text>
<text text-anchor="start" x="121" y="-73.5" font-family="Helvetica,sans-Serif" font-size="10.00">static void closeHandleIf(HANDLE &amp;h)</text>
<text text-anchor="start" x="110.5" y="-58.5" font-family="Helvetica,sans-Serif" font-size="10.00">&#45;</text>
<text text-anchor="start" x="121" y="-58.5" font-family="Helvetica,sans-Serif" font-size="10.00">static void createKillJobIfNeeded()</text>
<text text-anchor="start" x="110.5" y="-43.5" font-family="Helvetica,sans-Serif" font-size="10.00">&#45;</text>
<text text-anchor="start" x="121" y="-43.5" font-family="Helvetica,sans-Serif" font-size="10.00">static void assignToJob(HANDLE</text>
<text text-anchor="start" x="121" y="-32.5" font-family="Helvetica,sans-Serif" font-size="10.00"> process)</text>
<text text-anchor="start" x="110.5" y="-17.5" font-family="Helvetica,sans-Serif" font-size="10.00">&#45;</text>
<text text-anchor="start" x="121" y="-17.5" font-family="Helvetica,sans-Serif" font-size="10.00">static std::string lastErrorToString</text>
<text text-anchor="start" x="121" y="-6.5" font-family="Helvetica,sans-Serif" font-size="10.00">(DWORD err)</text>
<polygon fill="#666666" stroke="#666666" points="104,-399.5 104,-399.5 345,-399.5 345,-399.5 104,-399.5"/>
<polygon fill="#666666" stroke="#666666" points="104,-384.5 104,-384.5 345,-384.5 345,-384.5 104,-384.5"/>
<polygon fill="none" stroke="#666666" points="103.5,0 103.5,-417 344.5,-417 344.5,0 103.5,0"/>
</a>
</g>
</g>
<!-- Node2 -->
<g id="Node000002" class="node">
<title>Node2</title>
<g id="a_Node000002"><a xlink:title=" ">
<polygon fill="white" stroke="transparent" points="88,-579 0,-579 0,-530 88,-530 88,-579"/>
<text text-anchor="start" x="5" y="-566.5" font-family="Helvetica,sans-Serif" font-size="10.00">atomic&lt; bool &gt;</text>
<text text-anchor="start" x="42" y="-551.5" font-family="Helvetica,sans-Serif" font-size="10.00"> </text>
<text text-anchor="start" x="42" y="-536.5" font-family="Helvetica,sans-Serif" font-size="10.00"> </text>
<polygon fill="#666666" stroke="#666666" points="0,-561.5 0,-561.5 88,-561.5 88,-561.5 0,-561.5"/>
<polygon fill="#666666" stroke="#666666" points="0,-546.5 0,-546.5 88,-546.5 88,-546.5 0,-546.5"/>
<polygon fill="none" stroke="#666666" points="0,-530 0,-579 88,-579 88,-530 0,-530"/>
</a>
</g>
</g>
<!-- Node2&#45;&gt;Node1 -->
<g id="edge1_Node000001_Node000002" class="edge">
<title>Node2&#45;&gt;Node1</title>
<g id="a_edge1_Node000001_Node000002"><a xlink:title=" ">
<path fill="none" stroke="#63b8ff" d="M48.68,-529.61C53.96,-505.15 63.73,-466.36 78,-435 83.88,-422.07 90.44,-409.02 97.41,-396.06"/>
<polygon fill="none" stroke="#63b8ff" points="97.6,-395.73 96.98,-388.54 103.37,-385.21 103.99,-392.39 97.6,-395.73"/>
</a>
</g>
<text text-anchor="middle" x="100" y="-471" font-family="Helvetica,sans-Serif" font-size="10.00" fill="grey"> &#45;running</text>
</g>
<!-- Node3 -->
<g id="Node000003" class="node">
<title>Node3</title>
<g id="a_Node000003"><a xlink:title=" ">
<polygon fill="white" stroke="transparent" points="144,-579 106,-579 106,-530 144,-530 144,-579"/>
<text text-anchor="start" x="111" y="-566.5" font-family="Helvetica,sans-Serif" font-size="10.00">string</text>
<text text-anchor="start" x="123" y="-551.5" font-family="Helvetica,sans-Serif" font-size="10.00"> </text>
<text text-anchor="start" x="123" y="-536.5" font-family="Helvetica,sans-Serif" font-size="10.00"> </text>
<polygon fill="#666666" stroke="#666666" points="106,-561.5 106,-561.5 144,-561.5 144,-561.5 106,-561.5"/>
<polygon fill="#666666" stroke="#666666" points="106,-546.5 106,-546.5 144,-546.5 144,-546.5 106,-546.5"/>
<polygon fill="none" stroke="#666666" points="106,-530 106,-579 144,-579 144,-530 106,-530"/>
</a>
</g>
</g>
<!-- Node3&#45;&gt;Node1 -->
<g id="edge2_Node000001_Node000003" class="edge">
<title>Node3&#45;&gt;Node1</title>
<g id="a_edge2_Node000001_Node000003"><a xlink:title=" ">
<path fill="none" stroke="#63b8ff" d="M125.27,-529.58C125.99,-505.42 128.39,-467.17 136,-435 136.48,-432.96 136.98,-430.92 137.49,-428.87"/>
<polygon fill="none" stroke="#63b8ff" points="137.54,-428.69 135.18,-421.88 140.56,-417.08 142.92,-423.89 137.54,-428.69"/>
</a>
</g>
<text text-anchor="middle" x="174" y="-471" font-family="Helvetica,sans-Serif" font-size="10.00" fill="grey"> &#45;localTunnelUrl</text>
</g>
<!-- Node4 -->
<g id="Node000004" class="node">
<title>Node4</title>
<g id="a_Node000004"><a xlink:title=" ">
<polygon fill="white" stroke="transparent" points="237,-579 195,-579 195,-530 237,-530 237,-579"/>
<text text-anchor="start" x="200" y="-566.5" font-family="Helvetica,sans-Serif" font-size="10.00">mutex</text>
<text text-anchor="start" x="214" y="-551.5" font-family="Helvetica,sans-Serif" font-size="10.00"> </text>
<text text-anchor="start" x="214" y="-536.5" font-family="Helvetica,sans-Serif" font-size="10.00"> </text>
<polygon fill="#666666" stroke="#666666" points="195,-561.5 195,-561.5 237,-561.5 237,-561.5 195,-561.5"/>
<polygon fill="#666666" stroke="#666666" points="195,-546.5 195,-546.5 237,-546.5 237,-546.5 195,-546.5"/>
<polygon fill="none" stroke="#666666" points="195,-530 195,-579 237,-579 237,-530 195,-530"/>
</a>
</g>
</g>
<!-- Node4&#45;&gt;Node1 -->
<g id="edge3_Node000001_Node000004" class="edge">
<title>Node4&#45;&gt;Node1</title>
<g id="a_edge3_Node000001_Node000004"><a xlink:title=" ">
<path fill="none" stroke="#63b8ff" d="M216.55,-529.86C217.08,-507.13 217.93,-470.3 218.88,-429.56"/>
<polygon fill="none" stroke="#63b8ff" points="218.89,-429.39 215.03,-423.29 219.17,-417.39 223.02,-423.48 218.89,-429.39"/>
</a>
</g>
<text text-anchor="middle" x="243.5" y="-471" font-family="Helvetica,sans-Serif" font-size="10.00" fill="grey"> &#45;urlMutex</text>
</g>
<!-- Node5 -->
<g id="Node000005" class="node">
<title>Node5</title>
<g id="a_Node000005"><a xlink:title=" ">
<polygon fill="white" stroke="transparent" points="356.5,-579 255.5,-579 255.5,-530 356.5,-530 356.5,-579"/>
<text text-anchor="start" x="261" y="-566.5" font-family="Helvetica,sans-Serif" font-size="10.00">condition_variable</text>
<text text-anchor="start" x="304.5" y="-551.5" font-family="Helvetica,sans-Serif" font-size="10.00"> </text>
<text text-anchor="start" x="304.5" y="-536.5" font-family="Helvetica,sans-Serif" font-size="10.00"> </text>
<polygon fill="#666666" stroke="#666666" points="256,-561.5 256,-561.5 357,-561.5 357,-561.5 256,-561.5"/>
<polygon fill="#666666" stroke="#666666" points="256,-546.5 256,-546.5 357,-546.5 357,-546.5 256,-546.5"/>
<polygon fill="none" stroke="#666666" points="255.5,-530 255.5,-579 356.5,-579 356.5,-530 255.5,-530"/>
</a>
</g>
</g>
<!-- Node5&#45;&gt;Node1 -->
<g id="edge4_Node000001_Node000005" class="edge">
<title>Node5&#45;&gt;Node1</title>
<g id="a_edge4_Node000001_Node000005"><a xlink:title=" ">
<path fill="none" stroke="#63b8ff" d="M300.36,-529.86C294.93,-507.08 286.13,-470.14 276.39,-429.3"/>
<polygon fill="none" stroke="#63b8ff" points="276.34,-429.06 271.06,-424.15 273.56,-417.39 278.84,-422.3 276.34,-429.06"/>
</a>
</g>
<text text-anchor="middle" x="311.5" y="-471" font-family="Helvetica,sans-Serif" font-size="10.00" fill="grey"> &#45;urlCv</text>
</g>
<!-- Node6 -->
<g id="Node000006" class="node">
<title>Node6</title>
<g id="a_Node000006"><a xlink:title=" ">
<polygon fill="white" stroke="transparent" points="455.5,-579 374.5,-579 374.5,-530 455.5,-530 455.5,-579"/>
<text text-anchor="start" x="380" y="-566.5" font-family="Helvetica,sans-Serif" font-size="10.00">static HANDLE</text>
<text text-anchor="start" x="413.5" y="-551.5" font-family="Helvetica,sans-Serif" font-size="10.00"> </text>
<text text-anchor="start" x="413.5" y="-536.5" font-family="Helvetica,sans-Serif" font-size="10.00"> </text>
<polygon fill="#666666" stroke="#666666" points="375,-561.5 375,-561.5 456,-561.5 456,-561.5 375,-561.5"/>
<polygon fill="#666666" stroke="#666666" points="375,-546.5 375,-546.5 456,-546.5 456,-546.5 375,-546.5"/>
<polygon fill="none" stroke="#666666" points="374.5,-530 374.5,-579 455.5,-579 455.5,-530 374.5,-530"/>
</a>
</g>
</g>
<!-- Node6&#45;&gt;Node1 -->
<g id="edge5_Node000001_Node000006" class="edge">
<title>Node6&#45;&gt;Node1</title>
<g id="a_edge5_Node000001_Node000006"><a xlink:title=" ">
<path fill="none" stroke="#63b8ff" d="M401.87,-529.86C389.09,-506.84 368.28,-469.35 345.31,-427.98"/>
<polygon fill="none" stroke="#63b8ff" points="345.25,-427.88 338.84,-424.58 339.43,-417.39 345.84,-420.69 345.25,-427.88"/>
</a>
</g>
<text text-anchor="middle" x="419" y="-504" font-family="Helvetica,sans-Serif" font-size="10.00" fill="grey"> &#45;ltJob</text>
<text text-anchor="middle" x="419" y="-493" font-family="Helvetica,sans-Serif" font-size="10.00" fill="grey">&#45;ltProc</text>
<text text-anchor="middle" x="419" y="-482" font-family="Helvetica,sans-Serif" font-size="10.00" fill="grey">&#45;ltStdinRd</text>
<text text-anchor="middle" x="419" y="-471" font-family="Helvetica,sans-Serif" font-size="10.00" fill="grey">&#45;ltStdinWr</text>
<text text-anchor="middle" x="419" y="-460" font-family="Helvetica,sans-Serif" font-size="10.00" fill="grey">&#45;ltStdoutRd</text>
<text text-anchor="middle" x="419" y="-449" font-family="Helvetica,sans-Serif" font-size="10.00" fill="grey">&#45;ltStdoutWr</text>
<text text-anchor="middle" x="419" y="-438" font-family="Helvetica,sans-Serif" font-size="10.00" fill="grey">&#45;ltThread</text>
</g>
</g>
</svg>
