<?xml version="1.0" encoding="UTF-8" standalone="no"?>
<!DOCTYPE svg PUBLIC "-//W3C//DTD SVG 1.1//EN"
 "http://www.w3.org/Graphics/SVG/1.1/DTD/svg11.dtd">
<!-- Generated by graphviz version 14.0.2 (20251019.1705)
 -->
<!-- Title: src/note_editor/NotesManager.cpp Pages: 1 -->
<!--zoomable 196 -->

<svg id="main" version="1.1" xmlns="http://www.w3.org/2000/svg" xmlns:xlink="http://www.w3.org/1999/xlink" xml:space="preserve" onload="init(evt)">
<style type="text/css"><![CDATA[
.node, .edge {opacity: 0.7;}
.node.selected, .edge.selected {opacity: 1;}
.edge:hover path { stroke: red; }
.edge:hover polygon { stroke: red; fill: red; }
]]></style>

<defs>
  <circle id="rim" cx="0" cy="0" r="7"/>
  <circle id="rim2" cx="0" cy="0" r="3.5"/>
  <g id="zoomPlus">
    <use xlink:href="#rim" fill="#404040"><set attributeName="fill" to="#808080" begin="zoomplus.mouseover" end="zoomplus.mouseout"/></use>
    <path d="M-4,0h8M0,-4v8" fill="none" stroke="white" stroke-width="1.5" pointer-events="none"/>
  </g>
  <g id="zoomMin">
    <use xlink:href="#rim" fill="#404040"><set attributeName="fill" to="#808080" begin="zoomminus.mouseover" end="zoomminus.mouseout"/></use>
    <path d="M-4,0h8" fill="none" stroke="white" stroke-width="1.5" pointer-events="none"/>
  </g>
  <g id="arrowUp" transform="translate(30 24)">
    <use xlink:href="#rim"/>
    <path pointer-events="none" fill="none" stroke="white" stroke-width="1.5" d="M0,-3.0v7 M-2.5,-0.5L0,-3.0L2.5,-0.5"/>
  </g>
  <g id="arrowRight" transform="rotate(90) translate(36 -43)">
    <use xlink:href="#rim"/>
    <path pointer-events="none" fill="none" stroke="white" stroke-width="1.5" d="M0,-3.0v7 M-2.5,-0.5L0,-3.0L2.5,-0.5"/>
  </g>
  <g id="arrowDown" transform="rotate(180) translate(-30 -48)">
    <use xlink:href="#rim"/>
    <path pointer-events="none" fill="none" stroke="white" stroke-width="1.5" d="M0,-3.0v7 M-2.5,-0.5L0,-3.0L2.5,-0.5"/>
  </g>
  <g id="arrowLeft" transform="rotate(270) translate(-36 17)">
    <use xlink:href="#rim"/>
    <path pointer-events="none" fill="none" stroke="white" stroke-width="1.5" d="M0,-3.0v7 M-2.5,-0.5L0,-3.0L2.5,-0.5"/>
  </g>
  <g id="resetDef">
    <use xlink:href="#rim2" fill="#404040"><set attributeName="fill" to="#808080" begin="reset.mouseover" end="reset.mouseout"/></use>
  </g>
</defs>
<script type="application/ecmascript">
var viewWidth = 1024;
var viewHeight = 196;
var sectionId = 'dynsection-0';
</script>
<script type="application/ecmascript" xlink:href="../../svg.min.js"/>
<svg id="graph" class="graph">
<g id="viewport">
<title>src/note_editor/NotesManager.cpp</title>
<!-- Node1 -->
<g id="Node000001" class="node">
<title>Node1</title>
<g id="a_Node000001"><a xlink:title=" ">
<polygon fill="#999999" stroke="#666666" points="841.58,-188 675.58,-188 675.58,-168 841.58,-168 841.58,-188"/>
<text xml:space="preserve" text-anchor="middle" x="758.58" y="-174.5" font-family="Helvetica,sans-Serif" font-size="10.00">src/note_editor/NotesManager.cpp</text>
</a>
</g>
</g>
<!-- Node2 -->
<g id="Node000002" class="node">
<title>Node2</title>
<g id="a_Node000002"><a xlink:href="../../d7/d8b/_notes_manager_8h.html" target="_top" xlink:title=" ">
<polygon fill="white" stroke="#666666" points="315.58,-132 227.58,-132 227.58,-112 315.58,-112 315.58,-132"/>
<text xml:space="preserve" text-anchor="middle" x="271.58" y="-118.5" font-family="Helvetica,sans-Serif" font-size="10.00">NotesManager.h</text>
</a>
</g>
</g>
<!-- Node1&#45;&gt;Node2 -->
<g id="edge1_Node000001_Node000002" class="edge">
<title>Node1&#45;&gt;Node2</title>
<g id="a_edge1_Node000001_Node000002"><a xlink:title=" ">
<path fill="none" stroke="#63b8ff" d="M675.14,-167.75C575.74,-156.73 412.46,-138.62 327.26,-129.17"/>
<polygon fill="#63b8ff" stroke="#63b8ff" points="327.85,-125.72 317.52,-128.09 327.08,-132.68 327.85,-125.72"/>
</a>
</g>
</g>
<!-- Node13 -->
<g id="Node000013" class="node">
<title>Node13</title>
<g id="a_Node000013"><a xlink:href="../../db/dd0/_im_gui_toaster_8h.html" target="_top" xlink:title=" ">
<polygon fill="white" stroke="#666666" points="643.96,-76 561.21,-76 561.21,-56 643.96,-56 643.96,-76"/>
<text xml:space="preserve" text-anchor="middle" x="602.58" y="-62.5" font-family="Helvetica,sans-Serif" font-size="10.00">ImGuiToaster.h</text>
</a>
</g>
</g>
<!-- Node1&#45;&gt;Node13 -->
<g id="edge22_Node000001_Node000013" class="edge">
<title>Node1&#45;&gt;Node13</title>
<g id="a_edge22_Node000001_Node000013"><a xlink:title=" ">
<path fill="none" stroke="#63b8ff" d="M728.4,-167.59C707.27,-160.08 679.08,-148.13 657.58,-132 640.27,-119 624.76,-99.6 614.66,-85.38"/>
<polygon fill="#63b8ff" stroke="#63b8ff" points="617.71,-83.63 609.17,-77.35 611.93,-87.58 617.71,-83.63"/>
</a>
</g>
</g>
<!-- Node16 -->
<g id="Node000016" class="node">
<title>Node16</title>
<g id="a_Node000016"><a xlink:title=" ">
<polygon fill="#e0e0e0" stroke="#999999" points="699.46,-20 643.71,-20 643.71,0 699.46,0 699.46,-20"/>
<text xml:space="preserve" text-anchor="middle" x="671.58" y="-6.5" font-family="Helvetica,sans-Serif" font-size="10.00">algorithm</text>
</a>
</g>
</g>
<!-- Node1&#45;&gt;Node16 -->
<g id="edge27_Node000001_Node000016" class="edge">
<title>Node1&#45;&gt;Node16</title>
<g id="a_edge27_Node000001_Node000016"><a xlink:title=" ">
<path fill="none" stroke="#63b8ff" d="M735.99,-167.66C720.97,-160.24 702.12,-148.38 691.58,-132 671.78,-101.21 669.55,-57.19 670.23,-31.61"/>
<polygon fill="#63b8ff" stroke="#63b8ff" points="673.71,-32.03 670.68,-21.88 666.72,-31.71 673.71,-32.03"/>
</a>
</g>
</g>
<!-- Node18 -->
<g id="Node000018" class="node">
<title>Node18</title>
<g id="a_Node000018"><a xlink:title=" ">
<polygon fill="#e0e0e0" stroke="#999999" points="749.08,-132 700.08,-132 700.08,-112 749.08,-112 749.08,-132"/>
<text xml:space="preserve" text-anchor="middle" x="724.58" y="-118.5" font-family="Helvetica,sans-Serif" font-size="10.00">fstream</text>
</a>
</g>
</g>
<!-- Node1&#45;&gt;Node18 -->
<g id="edge23_Node000001_Node000018" class="edge">
<title>Node1&#45;&gt;Node18</title>
<g id="a_edge23_Node000001_Node000018"><a xlink:title=" ">
<path fill="none" stroke="#63b8ff" d="M752.66,-167.59C748.22,-160.55 742,-150.67 736.55,-142"/>
<polygon fill="#63b8ff" stroke="#63b8ff" points="739.53,-140.18 731.24,-133.58 733.61,-143.91 739.53,-140.18"/>
</a>
</g>
</g>
<!-- Node19 -->
<g id="Node000019" class="node">
<title>Node19</title>
<g id="a_Node000019"><a xlink:title=" ">
<polygon fill="#e0e0e0" stroke="#999999" points="818.21,-132 766.96,-132 766.96,-112 818.21,-112 818.21,-132"/>
<text xml:space="preserve" text-anchor="middle" x="792.58" y="-118.5" font-family="Helvetica,sans-Serif" font-size="10.00">sstream</text>
</a>
</g>
</g>
<!-- Node1&#45;&gt;Node19 -->
<g id="edge24_Node000001_Node000019" class="edge">
<title>Node1&#45;&gt;Node19</title>
<g id="a_edge24_Node000001_Node000019"><a xlink:title=" ">
<path fill="none" stroke="#63b8ff" d="M764.5,-167.59C768.94,-160.55 775.16,-150.67 780.62,-142"/>
<polygon fill="#63b8ff" stroke="#63b8ff" points="783.55,-143.91 785.92,-133.58 777.63,-140.18 783.55,-143.91"/>
</a>
</g>
</g>
<!-- Node20 -->
<g id="Node000020" class="node">
<title>Node20</title>
<g id="a_Node000020"><a xlink:title=" ">
<polygon fill="#e0e0e0" stroke="#999999" points="884.71,-132 836.46,-132 836.46,-112 884.71,-112 884.71,-132"/>
<text xml:space="preserve" text-anchor="middle" x="860.58" y="-118.5" font-family="Helvetica,sans-Serif" font-size="10.00">random</text>
</a>
</g>
</g>
<!-- Node1&#45;&gt;Node20 -->
<g id="edge25_Node000001_Node000020" class="edge">
<title>Node1&#45;&gt;Node20</title>
<g id="a_edge25_Node000001_Node000020"><a xlink:title=" ">
<path fill="none" stroke="#63b8ff" d="M776.35,-167.59C791.9,-159.36 814.76,-147.26 832.74,-137.74"/>
<polygon fill="#63b8ff" stroke="#63b8ff" points="834.14,-140.96 841.34,-133.19 830.86,-134.77 834.14,-140.96"/>
</a>
</g>
</g>
<!-- Node21 -->
<g id="Node000021" class="node">
<title>Node21</title>
<g id="a_Node000021"><a xlink:title=" ">
<polygon fill="#e0e0e0" stroke="#999999" points="952.46,-132 902.71,-132 902.71,-112 952.46,-112 952.46,-132"/>
<text xml:space="preserve" text-anchor="middle" x="927.58" y="-118.5" font-family="Helvetica,sans-Serif" font-size="10.00">iomanip</text>
</a>
</g>
</g>
<!-- Node1&#45;&gt;Node21 -->
<g id="edge26_Node000001_Node000021" class="edge">
<title>Node1&#45;&gt;Node21</title>
<g id="a_edge26_Node000001_Node000021"><a xlink:title=" ">
<path fill="none" stroke="#63b8ff" d="M788.02,-167.59C816.82,-158.39 860.75,-144.35 891.61,-134.49"/>
<polygon fill="#63b8ff" stroke="#63b8ff" points="892.44,-137.9 900.9,-131.53 890.31,-131.24 892.44,-137.9"/>
</a>
</g>
</g>
<!-- Node22 -->
<g id="Node000022" class="node">
<title>Node22</title>
<g id="a_Node000022"><a xlink:title=" ">
<polygon fill="#e0e0e0" stroke="#999999" points="1016.21,-132 970.96,-132 970.96,-112 1016.21,-112 1016.21,-132"/>
<text xml:space="preserve" text-anchor="middle" x="993.58" y="-118.5" font-family="Helvetica,sans-Serif" font-size="10.00">cctype</text>
</a>
</g>
</g>
<!-- Node1&#45;&gt;Node22 -->
<g id="edge28_Node000001_Node000022" class="edge">
<title>Node1&#45;&gt;Node22</title>
<g id="a_edge28_Node000001_Node000022"><a xlink:title=" ">
<path fill="none" stroke="#63b8ff" d="M804.71,-167.54C843.55,-159.41 900.82,-147.02 959.57,-132.4"/>
<polygon fill="#63b8ff" stroke="#63b8ff" points="960.23,-135.84 969.08,-130.01 958.53,-129.05 960.23,-135.84"/>
</a>
</g>
</g>
<!-- Node3 -->
<g id="Node000003" class="node">
<title>Node3</title>
<g id="a_Node000003"><a xlink:title=" ">
<polygon fill="#e0e0e0" stroke="#999999" points="333.58,-20 293.58,-20 293.58,0 333.58,0 333.58,-20"/>
<text xml:space="preserve" text-anchor="middle" x="313.58" y="-6.5" font-family="Helvetica,sans-Serif" font-size="10.00">string</text>
</a>
</g>
</g>
<!-- Node2&#45;&gt;Node3 -->
<g id="edge2_Node000002_Node000003" class="edge">
<title>Node2&#45;&gt;Node3</title>
<g id="a_edge2_Node000002_Node000003"><a xlink:title=" ">
<path fill="none" stroke="#63b8ff" d="M238.36,-111.58C206.46,-100.79 165.57,-81.3 183.58,-56 205.72,-24.91 250.87,-15.1 281.68,-12.12"/>
<polygon fill="#63b8ff" stroke="#63b8ff" points="281.88,-15.61 291.59,-11.37 281.36,-8.63 281.88,-15.61"/>
</a>
</g>
</g>
<!-- Node4 -->
<g id="Node000004" class="node">
<title>Node4</title>
<g id="a_Node000004"><a xlink:title=" ">
<polygon fill="#e0e0e0" stroke="#999999" points="258.33,-76 192.83,-76 192.83,-56 258.33,-56 258.33,-76"/>
<text xml:space="preserve" text-anchor="middle" x="225.58" y="-62.5" font-family="Helvetica,sans-Serif" font-size="10.00">string_view</text>
</a>
</g>
</g>
<!-- Node2&#45;&gt;Node4 -->
<g id="edge3_Node000002_Node000004" class="edge">
<title>Node2&#45;&gt;Node4</title>
<g id="a_edge3_Node000002_Node000004"><a xlink:title=" ">
<path fill="none" stroke="#63b8ff" d="M263.57,-111.59C257.3,-104.24 248.41,-93.8 240.8,-84.87"/>
<polygon fill="#63b8ff" stroke="#63b8ff" points="243.63,-82.79 234.48,-77.45 238.3,-87.33 243.63,-82.79"/>
</a>
</g>
</g>
<!-- Node5 -->
<g id="Node000005" class="node">
<title>Node5</title>
<g id="a_Node000005"><a xlink:title=" ">
<polygon fill="#e0e0e0" stroke="#999999" points="358.96,-76 276.21,-76 276.21,-56 358.96,-56 358.96,-76"/>
<text xml:space="preserve" text-anchor="middle" x="317.58" y="-62.5" font-family="Helvetica,sans-Serif" font-size="10.00">unordered_map</text>
</a>
</g>
</g>
<!-- Node2&#45;&gt;Node5 -->
<g id="edge4_Node000002_Node000005" class="edge">
<title>Node2&#45;&gt;Node5</title>
<g id="a_edge4_Node000002_Node000005"><a xlink:title=" ">
<path fill="none" stroke="#63b8ff" d="M279.59,-111.59C285.86,-104.24 294.76,-93.8 302.36,-84.87"/>
<polygon fill="#63b8ff" stroke="#63b8ff" points="304.86,-87.33 308.68,-77.45 299.53,-82.79 304.86,-87.33"/>
</a>
</g>
</g>
<!-- Node6 -->
<g id="Node000006" class="node">
<title>Node6</title>
<g id="a_Node000006"><a xlink:title=" ">
<polygon fill="#e0e0e0" stroke="#999999" points="422.08,-20 379.08,-20 379.08,0 422.08,0 422.08,-20"/>
<text xml:space="preserve" text-anchor="middle" x="400.58" y="-6.5" font-family="Helvetica,sans-Serif" font-size="10.00">vector</text>
</a>
</g>
</g>
<!-- Node2&#45;&gt;Node6 -->
<g id="edge5_Node000002_Node000006" class="edge">
<title>Node2&#45;&gt;Node6</title>
<g id="a_edge5_Node000002_Node000006"><a xlink:title=" ">
<path fill="none" stroke="#63b8ff" d="M304.6,-111.62C324.78,-104.52 350,-93.04 367.58,-76 380.5,-63.48 389.25,-44.81 394.48,-30.69"/>
<polygon fill="#63b8ff" stroke="#63b8ff" points="397.67,-32.16 397.56,-21.57 391.04,-29.92 397.67,-32.16"/>
</a>
</g>
</g>
<!-- Node7 -->
<g id="Node000007" class="node">
<title>Node7</title>
<g id="a_Node000007"><a xlink:title=" ">
<polygon fill="#e0e0e0" stroke="#999999" points="464.46,-76 414.71,-76 414.71,-56 464.46,-56 464.46,-76"/>
<text xml:space="preserve" text-anchor="middle" x="439.58" y="-62.5" font-family="Helvetica,sans-Serif" font-size="10.00">optional</text>
</a>
</g>
</g>
<!-- Node2&#45;&gt;Node7 -->
<g id="edge6_Node000002_Node000007" class="edge">
<title>Node2&#45;&gt;Node7</title>
<g id="a_edge6_Node000002_Node000007"><a xlink:title=" ">
<path fill="none" stroke="#63b8ff" d="M300.85,-111.59C329.4,-102.42 372.89,-88.44 403.55,-78.58"/>
<polygon fill="#63b8ff" stroke="#63b8ff" points="404.33,-82.01 412.78,-75.62 402.19,-75.34 404.33,-82.01"/>
</a>
</g>
</g>
<!-- Node8 -->
<g id="Node000008" class="node">
<title>Node8</title>
<g id="a_Node000008"><a xlink:title=" ">
<polygon fill="#e0e0e0" stroke="#999999" points="543.08,-76 482.08,-76 482.08,-56 543.08,-56 543.08,-76"/>
<text xml:space="preserve" text-anchor="middle" x="512.58" y="-62.5" font-family="Helvetica,sans-Serif" font-size="10.00">filesystem</text>
</a>
</g>
</g>
<!-- Node2&#45;&gt;Node8 -->
<g id="edge7_Node000002_Node000008" class="edge">
<title>Node2&#45;&gt;Node8</title>
<g id="a_edge7_Node000002_Node000008"><a xlink:title=" ">
<path fill="none" stroke="#63b8ff" d="M314.55,-111.53C353.07,-103.01 411.41,-90.06 470.83,-76.61"/>
<polygon fill="#63b8ff" stroke="#63b8ff" points="471.47,-80.06 480.45,-74.43 469.93,-73.23 471.47,-80.06"/>
</a>
</g>
</g>
<!-- Node9 -->
<g id="Node000009" class="node">
<title>Node9</title>
<g id="a_Node000009"><a xlink:title=" ">
<polygon fill="#e0e0e0" stroke="#999999" points="50.21,-20 4.96,-20 4.96,0 50.21,0 50.21,-20"/>
<text xml:space="preserve" text-anchor="middle" x="27.58" y="-6.5" font-family="Helvetica,sans-Serif" font-size="10.00">chrono</text>
</a>
</g>
</g>
<!-- Node2&#45;&gt;Node9 -->
<g id="edge8_Node000002_Node000009" class="edge">
<title>Node2&#45;&gt;Node9</title>
<g id="a_edge8_Node000002_Node000009"><a xlink:title=" ">
<path fill="none" stroke="#63b8ff" d="M227.17,-120.14C158.98,-117.78 33.43,-108.96 5.58,-76 -5.56,-62.82 2.95,-43.75 12.44,-29.67"/>
<polygon fill="#63b8ff" stroke="#63b8ff" points="15.22,-31.79 18.36,-21.67 9.6,-27.63 15.22,-31.79"/>
</a>
</g>
</g>
<!-- Node10 -->
<g id="Node000010" class="node">
<title>Node10</title>
<g id="a_Node000010"><a xlink:title=" ">
<polygon fill="#e0e0e0" stroke="#999999" points="60.21,-76 14.96,-76 14.96,-56 60.21,-56 60.21,-76"/>
<text xml:space="preserve" text-anchor="middle" x="37.58" y="-62.5" font-family="Helvetica,sans-Serif" font-size="10.00">cstdint</text>
</a>
</g>
</g>
<!-- Node2&#45;&gt;Node10 -->
<g id="edge9_Node000002_Node000010" class="edge">
<title>Node2&#45;&gt;Node10</title>
<g id="a_edge9_Node000002_Node000010"><a xlink:title=" ">
<path fill="none" stroke="#63b8ff" d="M229.27,-111.52C189.35,-102.52 127.85,-88.56 74.58,-76 73.6,-75.77 72.6,-75.53 71.59,-75.29"/>
<polygon fill="#63b8ff" stroke="#63b8ff" points="72.67,-71.95 62.13,-73.02 71.04,-78.76 72.67,-71.95"/>
</a>
</g>
</g>
<!-- Node11 -->
<g id="Node000011" class="node">
<title>Node11</title>
<g id="a_Node000011"><a xlink:title=" ">
<polygon fill="#e0e0e0" stroke="#999999" points="131.08,-20 88.08,-20 88.08,0 131.08,0 131.08,-20"/>
<text xml:space="preserve" text-anchor="middle" x="109.58" y="-6.5" font-family="Helvetica,sans-Serif" font-size="10.00">mutex</text>
</a>
</g>
</g>
<!-- Node2&#45;&gt;Node11 -->
<g id="edge10_Node000002_Node000011" class="edge">
<title>Node2&#45;&gt;Node11</title>
<g id="a_edge10_Node000002_Node000011"><a xlink:title=" ">
<path fill="none" stroke="#63b8ff" d="M240.63,-111.59C218.92,-104.07 189.91,-92.12 167.58,-76 149.62,-63.03 133.23,-43.63 122.49,-29.4"/>
<polygon fill="#63b8ff" stroke="#63b8ff" points="125.33,-27.36 116.62,-21.34 119.68,-31.48 125.33,-27.36"/>
</a>
</g>
</g>
<!-- Node12 -->
<g id="Node000012" class="node">
<title>Node12</title>
<g id="a_Node000012"><a xlink:title=" ">
<polygon fill="#e0e0e0" stroke="#999999" points="221.21,-20 169.96,-20 169.96,0 221.21,0 221.21,-20"/>
<text xml:space="preserve" text-anchor="middle" x="195.58" y="-6.5" font-family="Helvetica,sans-Serif" font-size="10.00">memory</text>
</a>
</g>
</g>
<!-- Node2&#45;&gt;Node12 -->
<g id="edge11_Node000002_Node000012" class="edge">
<title>Node2&#45;&gt;Node12</title>
<g id="a_edge11_Node000002_Node000012"><a xlink:title=" ">
<path fill="none" stroke="#63b8ff" d="M227.13,-111.51C207.82,-104.95 187.04,-94.02 175.58,-76 166.6,-61.87 173.71,-43.44 181.84,-29.82"/>
<polygon fill="#63b8ff" stroke="#63b8ff" points="184.58,-32.02 187.17,-21.75 178.74,-28.16 184.58,-32.02"/>
</a>
</g>
</g>
<!-- Node2&#45;&gt;Node13 -->
<g id="edge12_Node000002_Node000013" class="edge">
<title>Node2&#45;&gt;Node13</title>
<g id="a_edge12_Node000002_Node000013"><a xlink:title=" ">
<path fill="none" stroke="#63b8ff" d="M315.91,-114.17C369.05,-105.93 461.1,-91.45 549.53,-76.5"/>
<polygon fill="#63b8ff" stroke="#63b8ff" points="550.08,-79.95 559.36,-74.83 548.91,-73.05 550.08,-79.95"/>
</a>
</g>
</g>
<!-- Node13&#45;&gt;Node3 -->
<g id="edge16_Node000013_Node000003" class="edge">
<title>Node13&#45;&gt;Node3</title>
<g id="a_edge16_Node000013_Node000003"><a xlink:title=" ">
<path fill="none" stroke="#63b8ff" d="M560.87,-57.21C502.42,-46.29 397.47,-26.68 345.1,-16.89"/>
<polygon fill="#63b8ff" stroke="#63b8ff" points="345.83,-13.46 335.36,-15.07 344.54,-20.35 345.83,-13.46"/>
</a>
</g>
</g>
<!-- Node13&#45;&gt;Node6 -->
<g id="edge17_Node000013_Node000006" class="edge">
<title>Node13&#45;&gt;Node6</title>
<g id="a_edge17_Node000013_Node000006"><a xlink:title=" ">
<path fill="none" stroke="#63b8ff" d="M567.4,-55.59C529.66,-45.51 470.2,-29.61 433.4,-19.77"/>
<polygon fill="#63b8ff" stroke="#63b8ff" points="434.33,-16.4 423.77,-17.2 432.53,-23.16 434.33,-16.4"/>
</a>
</g>
</g>
<!-- Node13&#45;&gt;Node9 -->
<g id="edge18_Node000013_Node000009" class="edge">
<title>Node13&#45;&gt;Node9</title>
<g id="a_edge18_Node000013_Node000009"><a xlink:title=" ">
<path fill="none" stroke="#63b8ff" d="M560.89,-57.17C558.08,-56.74 555.29,-56.35 552.58,-56 343.01,-29.25 288.2,-46.39 78.58,-20 73.13,-19.31 67.37,-18.44 61.76,-17.51"/>
<polygon fill="#63b8ff" stroke="#63b8ff" points="62.56,-14.1 52.1,-15.82 61.35,-20.99 62.56,-14.1"/>
</a>
</g>
</g>
<!-- Node13&#45;&gt;Node11 -->
<g id="edge15_Node000013_Node000011" class="edge">
<title>Node13&#45;&gt;Node11</title>
<g id="a_edge15_Node000013_Node000011"><a xlink:title=" ">
<path fill="none" stroke="#63b8ff" d="M560.88,-57.22C558.08,-56.78 555.29,-56.37 552.58,-56 379.21,-32.48 333.99,-43.22 160.58,-20 154.72,-19.21 148.5,-18.24 142.49,-17.22"/>
<polygon fill="#63b8ff" stroke="#63b8ff" points="143.31,-13.81 132.85,-15.52 142.09,-20.7 143.31,-13.81"/>
</a>
</g>
</g>
<!-- Node13&#45;&gt;Node12 -->
<g id="edge20_Node000013_Node000012" class="edge">
<title>Node13&#45;&gt;Node12</title>
<g id="a_edge20_Node000013_Node000012"><a xlink:title=" ">
<path fill="none" stroke="#63b8ff" d="M560.87,-57.32C558.07,-56.86 555.28,-56.41 552.58,-56 436.31,-38.22 297.96,-22.25 232.9,-15.05"/>
<polygon fill="#63b8ff" stroke="#63b8ff" points="233.45,-11.59 223.13,-13.97 232.69,-18.55 233.45,-11.59"/>
</a>
</g>
</g>
<!-- Node14 -->
<g id="Node000014" class="node">
<title>Node14</title>
<g id="a_Node000014"><a xlink:title=" ">
<polygon fill="#e0e0e0" stroke="#999999" points="501.33,-20 453.83,-20 453.83,0 501.33,0 501.33,-20"/>
<text xml:space="preserve" text-anchor="middle" x="477.58" y="-6.5" font-family="Helvetica,sans-Serif" font-size="10.00">imgui.h</text>
</a>
</g>
</g>
<!-- Node13&#45;&gt;Node14 -->
<g id="edge13_Node000013_Node000014" class="edge">
<title>Node13&#45;&gt;Node14</title>
<g id="a_edge13_Node000013_Node000014"><a xlink:title=" ">
<path fill="none" stroke="#63b8ff" d="M580.81,-55.59C561.21,-47.13 532.15,-34.58 509.86,-24.94"/>
<polygon fill="#63b8ff" stroke="#63b8ff" points="511.48,-21.83 500.91,-21.08 508.71,-28.26 511.48,-21.83"/>
</a>
</g>
</g>
<!-- Node15 -->
<g id="Node000015" class="node">
<title>Node15</title>
<g id="a_Node000015"><a xlink:title=" ">
<polygon fill="#e0e0e0" stroke="#999999" points="561.71,-20 519.46,-20 519.46,0 561.71,0 561.71,-20"/>
<text xml:space="preserve" text-anchor="middle" x="540.58" y="-6.5" font-family="Helvetica,sans-Serif" font-size="10.00">deque</text>
</a>
</g>
</g>
<!-- Node13&#45;&gt;Node15 -->
<g id="edge14_Node000013_Node000015" class="edge">
<title>Node13&#45;&gt;Node15</title>
<g id="a_edge14_Node000013_Node000015"><a xlink:title=" ">
<path fill="none" stroke="#63b8ff" d="M591.78,-55.59C582.98,-47.93 570.33,-36.91 559.81,-27.75"/>
<polygon fill="#63b8ff" stroke="#63b8ff" points="562.24,-25.22 552.4,-21.29 557.64,-30.5 562.24,-25.22"/>
</a>
</g>
</g>
<!-- Node13&#45;&gt;Node16 -->
<g id="edge19_Node000013_Node000016" class="edge">
<title>Node13&#45;&gt;Node16</title>
<g id="a_edge19_Node000013_Node000016"><a xlink:title=" ">
<path fill="none" stroke="#63b8ff" d="M614.6,-55.59C624.59,-47.77 639.04,-36.46 650.89,-27.19"/>
<polygon fill="#63b8ff" stroke="#63b8ff" points="652.79,-30.15 658.51,-21.23 648.48,-24.64 652.79,-30.15"/>
</a>
</g>
</g>
<!-- Node17 -->
<g id="Node000017" class="node">
<title>Node17</title>
<g id="a_Node000017"><a xlink:title=" ">
<polygon fill="#e0e0e0" stroke="#999999" points="625.21,-20 579.96,-20 579.96,0 625.21,0 625.21,-20"/>
<text xml:space="preserve" text-anchor="middle" x="602.58" y="-6.5" font-family="Helvetica,sans-Serif" font-size="10.00">atomic</text>
</a>
</g>
</g>
<!-- Node13&#45;&gt;Node17 -->
<g id="edge21_Node000013_Node000017" class="edge">
<title>Node13&#45;&gt;Node17</title>
<g id="a_edge21_Node000013_Node000017"><a xlink:title=" ">
<path fill="none" stroke="#63b8ff" d="M602.58,-55.59C602.58,-49.01 602.58,-39.96 602.58,-31.73"/>
<polygon fill="#63b8ff" stroke="#63b8ff" points="606.08,-31.81 602.58,-21.81 599.08,-31.81 606.08,-31.81"/>
</a>
</g>
</g>
</g>
</svg>

<g id="navigator" transform="translate(0 0)" fill="#404254">
  <rect fill="#f2f5e9" fill-opacity="0.5" stroke="#606060" stroke-width=".5" x="0" y="0" width="60" height="60"/>
  <use id="zoomplus" xlink:href="#zoomPlus" x="17" y="9" onmousedown="handleZoom(evt,'in')"/>
  <use id="zoomminus" xlink:href="#zoomMin" x="42" y="9" onmousedown="handleZoom(evt,'out')"/>
  <use id="reset" xlink:href="#resetDef" x="30" y="36" onmousedown="handleReset()"/>
   <use id="arrowup" xlink:href="#arrowUp" x="0" y="0" onmousedown="handlePan(0,-1)"/>
  <use id="arrowright" xlink:href="#arrowRight" x="0" y="0" onmousedown="handlePan(1,0)"/>
  <use id="arrowdown" xlink:href="#arrowDown" x="0" y="0" onmousedown="handlePan(0,1)"/>
  <use id="arrowleft" xlink:href="#arrowLeft" x="0" y="0" onmousedown="handlePan(-1,0)"/>
</g>
<svg viewBox="0 0 15 15" width="100%" height="30px" preserveAspectRatio="xMaxYMin meet">
 <g id="arrow_out" transform="scale(0.3 0.3)">
  <a xlink:href="_notes_manager_8cpp__incl_org.svg" target="_base">
   <rect id="button" ry="5" rx="5" y="6" x="6" height="38" width="38"
        fill="#f2f5e9" fill-opacity="0.5" stroke="#606060" stroke-width="1.0"/>
   <path id="arrow"
     d="M 11.500037,31.436501 C 11.940474,20.09759 22.043105,11.32322 32.158766,21.979434 L 37.068811,17.246167 C 37.068811,17.246167 37.088388,32 37.088388,32 L 22.160133,31.978069 C 22.160133,31.978069 26.997745,27.140456 26.997745,27.140456 C 18.528582,18.264221 13.291696,25.230495 11.500037,31.436501 z"
     style="fill:#404040;"/>
  </a>
 </g>
</svg>

<style type='text/css'>
<![CDATA[
[data-mouse-over-selected='false'] { opacity: 0.7; }
[data-mouse-over-selected='true']  { opacity: 1.0; }
]]>
</style>
<script type="application/ecmascript"><![CDATA[
document.addEventListener('DOMContentLoaded', (event) => {
  highlightEdges();
  highlightAdjacentNodes();
});
]]></script>
</svg>
