<?xml version="1.0" encoding="UTF-8" standalone="no"?>
<!DOCTYPE svg PUBLIC "-//W3C//DTD SVG 1.1//EN"
 "http://www.w3.org/Graphics/SVG/1.1/DTD/svg11.dtd">
<!-- Generated by graphviz version 14.0.2 (20251019.1705)
 -->
<!-- Title: src/renderer/Renderer.cpp Pages: 1 -->
<svg width="604pt" height="196pt"
 viewBox="0.00 0.00 604.00 196.00" xmlns="http://www.w3.org/2000/svg" xmlns:xlink="http://www.w3.org/1999/xlink">
<g id="graph0" class="graph" transform="scale(1 1) rotate(0) translate(4 192)">
<title>src/renderer/Renderer.cpp</title>
<!-- Node1 -->
<g id="Node000001" class="node">
<title>Node1</title>
<g id="a_Node000001"><a xlink:title=" ">
<polygon fill="#999999" stroke="#666666" points="399.12,-188 269.88,-188 269.88,-168 399.12,-168 399.12,-188"/>
<text xml:space="preserve" text-anchor="middle" x="334.5" y="-174.5" font-family="Helvetica,sans-Serif" font-size="10.00">src/renderer/Renderer.cpp</text>
</a>
</g>
</g>
<!-- Node2 -->
<g id="Node000002" class="node">
<title>Node2</title>
<g id="a_Node000002"><a xlink:href="../../d3/da0/_renderer_8h.html" target="_top" xlink:title=" ">
<polygon fill="white" stroke="#666666" points="301.5,-132 237.5,-132 237.5,-112 301.5,-112 301.5,-132"/>
<text xml:space="preserve" text-anchor="middle" x="269.5" y="-118.5" font-family="Helvetica,sans-Serif" font-size="10.00">Renderer.h</text>
</a>
</g>
</g>
<!-- Node1&#45;&gt;Node2 -->
<g id="edge1_Node000001_Node000002" class="edge">
<title>Node1&#45;&gt;Node2</title>
<g id="a_edge1_Node000001_Node000002"><a xlink:title=" ">
<path fill="none" stroke="#63b8ff" d="M323.18,-167.59C313.86,-159.85 300.42,-148.69 289.32,-139.47"/>
<polygon fill="#63b8ff" stroke="#63b8ff" points="291.79,-136.96 281.86,-133.27 287.31,-142.35 291.79,-136.96"/>
</a>
</g>
</g>
<!-- Node9 -->
<g id="Node000009" class="node">
<title>Node9</title>
<g id="a_Node000009"><a xlink:title=" ">
<polygon fill="#e0e0e0" stroke="#999999" points="596.25,-20 542.75,-20 542.75,0 596.25,0 596.25,-20"/>
<text xml:space="preserve" text-anchor="middle" x="569.5" y="-6.5" font-family="Helvetica,sans-Serif" font-size="10.00">iostream</text>
</a>
</g>
</g>
<!-- Node1&#45;&gt;Node9 -->
<g id="edge14_Node000001_Node000009" class="edge">
<title>Node1&#45;&gt;Node9</title>
<g id="a_edge14_Node000001_Node000009"><a xlink:title=" ">
<path fill="none" stroke="#63b8ff" d="M347.81,-167.6C386.42,-140.32 498.81,-60.93 547.06,-26.85"/>
<polygon fill="#63b8ff" stroke="#63b8ff" points="548.95,-29.8 555.1,-21.17 544.91,-24.08 548.95,-29.8"/>
</a>
</g>
</g>
<!-- Node3 -->
<g id="Node000003" class="node">
<title>Node3</title>
<g id="a_Node000003"><a xlink:title=" ">
<polygon fill="#e0e0e0" stroke="#999999" points="341.25,-76 281.75,-76 281.75,-56 341.25,-56 341.25,-76"/>
<text xml:space="preserve" text-anchor="middle" x="311.5" y="-62.5" font-family="Helvetica,sans-Serif" font-size="10.00">GL/glew.h</text>
</a>
</g>
</g>
<!-- Node2&#45;&gt;Node3 -->
<g id="edge2_Node000002_Node000003" class="edge">
<title>Node2&#45;&gt;Node3</title>
<g id="a_edge2_Node000002_Node000003"><a xlink:title=" ">
<path fill="none" stroke="#63b8ff" d="M276.82,-111.59C282.48,-104.32 290.49,-94.02 297.39,-85.15"/>
<polygon fill="#63b8ff" stroke="#63b8ff" points="299.96,-87.54 303.34,-77.49 294.44,-83.24 299.96,-87.54"/>
</a>
</g>
</g>
<!-- Node4 -->
<g id="Node000004" class="node">
<title>Node4</title>
<g id="a_Node000004"><a xlink:title=" ">
<polygon fill="#e0e0e0" stroke="#999999" points="79,-76 0,-76 0,-56 79,-56 79,-76"/>
<text xml:space="preserve" text-anchor="middle" x="39.5" y="-62.5" font-family="Helvetica,sans-Serif" font-size="10.00">GLFW/glfw3.h</text>
</a>
</g>
</g>
<!-- Node2&#45;&gt;Node4 -->
<g id="edge3_Node000002_Node000004" class="edge">
<title>Node2&#45;&gt;Node4</title>
<g id="a_edge3_Node000002_Node000004"><a xlink:title=" ">
<path fill="none" stroke="#63b8ff" d="M237.03,-113.38C198.79,-104.4 134.82,-89.38 90.06,-78.87"/>
<polygon fill="#63b8ff" stroke="#63b8ff" points="91.14,-75.53 80.6,-76.65 89.54,-82.34 91.14,-75.53"/>
</a>
</g>
</g>
<!-- Node5 -->
<g id="Node000005" class="node">
<title>Node5</title>
<g id="a_Node000005"><a xlink:href="../../d0/df4/_vertex_array_8h.html" target="_top" xlink:title=" ">
<polygon fill="white" stroke="#666666" points="171.75,-76 97.25,-76 97.25,-56 171.75,-56 171.75,-76"/>
<text xml:space="preserve" text-anchor="middle" x="134.5" y="-62.5" font-family="Helvetica,sans-Serif" font-size="10.00">VertexArray.h</text>
</a>
</g>
</g>
<!-- Node2&#45;&gt;Node5 -->
<g id="edge4_Node000002_Node000005" class="edge">
<title>Node2&#45;&gt;Node5</title>
<g id="a_edge4_Node000002_Node000005"><a xlink:title=" ">
<path fill="none" stroke="#63b8ff" d="M245.98,-111.59C224.63,-103.05 192.87,-90.35 168.7,-80.68"/>
<polygon fill="#63b8ff" stroke="#63b8ff" points="170.19,-77.51 159.6,-77.04 167.59,-84.01 170.19,-77.51"/>
</a>
</g>
</g>
<!-- Node7 -->
<g id="Node000007" class="node">
<title>Node7</title>
<g id="a_Node000007"><a xlink:href="../../df/ddc/_index_buffer_8h.html" target="_top" xlink:title=" ">
<polygon fill="white" stroke="#666666" points="263.38,-76 189.62,-76 189.62,-56 263.38,-56 263.38,-76"/>
<text xml:space="preserve" text-anchor="middle" x="226.5" y="-62.5" font-family="Helvetica,sans-Serif" font-size="10.00">IndexBuffer.h</text>
</a>
</g>
</g>
<!-- Node2&#45;&gt;Node7 -->
<g id="edge6_Node000002_Node000007" class="edge">
<title>Node2&#45;&gt;Node7</title>
<g id="a_edge6_Node000002_Node000007"><a xlink:title=" ">
<path fill="none" stroke="#63b8ff" d="M262.01,-111.59C256.21,-104.32 248.01,-94.02 240.95,-85.15"/>
<polygon fill="#63b8ff" stroke="#63b8ff" points="243.81,-83.12 234.85,-77.48 238.34,-87.49 243.81,-83.12"/>
</a>
</g>
</g>
<!-- Node8 -->
<g id="Node000008" class="node">
<title>Node8</title>
<g id="a_Node000008"><a xlink:href="../../d8/d34/_shader_8h.html" target="_top" xlink:title=" ">
<polygon fill="white" stroke="#666666" points="414,-76 359,-76 359,-56 414,-56 414,-76"/>
<text xml:space="preserve" text-anchor="middle" x="386.5" y="-62.5" font-family="Helvetica,sans-Serif" font-size="10.00">Shader.h</text>
</a>
</g>
</g>
<!-- Node2&#45;&gt;Node8 -->
<g id="edge7_Node000002_Node000008" class="edge">
<title>Node2&#45;&gt;Node8</title>
<g id="a_edge7_Node000002_Node000008"><a xlink:title=" ">
<path fill="none" stroke="#63b8ff" d="M289.88,-111.59C308.06,-103.21 334.93,-90.8 355.72,-81.21"/>
<polygon fill="#63b8ff" stroke="#63b8ff" points="356.97,-84.48 364.59,-77.11 354.04,-78.13 356.97,-84.48"/>
</a>
</g>
</g>
<!-- Node6 -->
<g id="Node000006" class="node">
<title>Node6</title>
<g id="a_Node000006"><a xlink:href="../../d4/d84/_vertex_buffer_8h.html" target="_top" xlink:title=" ">
<polygon fill="white" stroke="#666666" points="142.25,-20 64.75,-20 64.75,0 142.25,0 142.25,-20"/>
<text xml:space="preserve" text-anchor="middle" x="103.5" y="-6.5" font-family="Helvetica,sans-Serif" font-size="10.00">VertexBuffer.h</text>
</a>
</g>
</g>
<!-- Node5&#45;&gt;Node6 -->
<g id="edge5_Node000005_Node000006" class="edge">
<title>Node5&#45;&gt;Node6</title>
<g id="a_edge5_Node000005_Node000006"><a xlink:title=" ">
<path fill="none" stroke="#63b8ff" d="M129.1,-55.59C125.06,-48.55 119.38,-38.67 114.41,-30"/>
<polygon fill="#63b8ff" stroke="#63b8ff" points="117.61,-28.54 109.59,-21.61 111.53,-32.03 117.61,-28.54"/>
</a>
</g>
</g>
<!-- Node8&#45;&gt;Node9 -->
<g id="edge8_Node000008_Node000009" class="edge">
<title>Node8&#45;&gt;Node9</title>
<g id="a_edge8_Node000008_Node000009"><a xlink:title=" ">
<path fill="none" stroke="#63b8ff" d="M414.29,-56.8C445.6,-47.56 496.66,-32.49 531.61,-22.18"/>
<polygon fill="#63b8ff" stroke="#63b8ff" points="532.29,-25.63 540.89,-19.44 530.31,-18.92 532.29,-25.63"/>
</a>
</g>
</g>
<!-- Node10 -->
<g id="Node000010" class="node">
<title>Node10</title>
<g id="a_Node000010"><a xlink:title=" ">
<polygon fill="#e0e0e0" stroke="#999999" points="525,-20 476,-20 476,0 525,0 525,-20"/>
<text xml:space="preserve" text-anchor="middle" x="500.5" y="-6.5" font-family="Helvetica,sans-Serif" font-size="10.00">fstream</text>
</a>
</g>
</g>
<!-- Node8&#45;&gt;Node10 -->
<g id="edge9_Node000008_Node000010" class="edge">
<title>Node8&#45;&gt;Node10</title>
<g id="a_edge9_Node000008_Node000010"><a xlink:title=" ">
<path fill="none" stroke="#63b8ff" d="M406.36,-55.59C423.99,-47.24 450.01,-34.92 470.23,-25.34"/>
<polygon fill="#63b8ff" stroke="#63b8ff" points="471.58,-28.57 479.12,-21.13 468.58,-22.25 471.58,-28.57"/>
</a>
</g>
</g>
<!-- Node11 -->
<g id="Node000011" class="node">
<title>Node11</title>
<g id="a_Node000011"><a xlink:title=" ">
<polygon fill="#e0e0e0" stroke="#999999" points="200.5,-20 160.5,-20 160.5,0 200.5,0 200.5,-20"/>
<text xml:space="preserve" text-anchor="middle" x="180.5" y="-6.5" font-family="Helvetica,sans-Serif" font-size="10.00">string</text>
</a>
</g>
</g>
<!-- Node8&#45;&gt;Node11 -->
<g id="edge10_Node000008_Node000011" class="edge">
<title>Node8&#45;&gt;Node11</title>
<g id="a_edge10_Node000008_Node000011"><a xlink:title=" ">
<path fill="none" stroke="#63b8ff" d="M358.7,-58.02C318.16,-47.82 244.71,-29.31 211.83,-20.48"/>
<polygon fill="#63b8ff" stroke="#63b8ff" points="212.77,-17.11 202.2,-17.83 210.91,-23.86 212.77,-17.11"/>
</a>
</g>
</g>
<!-- Node12 -->
<g id="Node000012" class="node">
<title>Node12</title>
<g id="a_Node000012"><a xlink:title=" ">
<polygon fill="#e0e0e0" stroke="#999999" points="270.12,-20 218.88,-20 218.88,0 270.12,0 270.12,-20"/>
<text xml:space="preserve" text-anchor="middle" x="244.5" y="-6.5" font-family="Helvetica,sans-Serif" font-size="10.00">sstream</text>
</a>
</g>
</g>
<!-- Node8&#45;&gt;Node12 -->
<g id="edge11_Node000008_Node000012" class="edge">
<title>Node8&#45;&gt;Node12</title>
<g id="a_edge11_Node000008_Node000012"><a xlink:title=" ">
<path fill="none" stroke="#63b8ff" d="M361.77,-55.59C339.2,-47.01 305.59,-34.23 280.13,-24.55"/>
<polygon fill="#63b8ff" stroke="#63b8ff" points="281.43,-21.3 270.84,-21.02 278.95,-27.84 281.43,-21.3"/>
</a>
</g>
</g>
<!-- Node13 -->
<g id="Node000013" class="node">
<title>Node13</title>
<g id="a_Node000013"><a xlink:title=" ">
<polygon fill="#e0e0e0" stroke="#999999" points="357.12,-20 287.88,-20 287.88,0 357.12,0 357.12,-20"/>
<text xml:space="preserve" text-anchor="middle" x="322.5" y="-6.5" font-family="Helvetica,sans-Serif" font-size="10.00">glm/glm.hpp</text>
</a>
</g>
</g>
<!-- Node8&#45;&gt;Node13 -->
<g id="edge12_Node000008_Node000013" class="edge">
<title>Node8&#45;&gt;Node13</title>
<g id="a_edge12_Node000008_Node000013"><a xlink:title=" ">
<path fill="none" stroke="#63b8ff" d="M375.35,-55.59C366.17,-47.85 352.95,-36.69 342.02,-27.47"/>
<polygon fill="#63b8ff" stroke="#63b8ff" points="344.58,-25.05 334.68,-21.27 340.06,-30.4 344.58,-25.05"/>
</a>
</g>
</g>
<!-- Node14 -->
<g id="Node000014" class="node">
<title>Node14</title>
<g id="a_Node000014"><a xlink:title=" ">
<polygon fill="#e0e0e0" stroke="#999999" points="457.88,-20 375.12,-20 375.12,0 457.88,0 457.88,-20"/>
<text xml:space="preserve" text-anchor="middle" x="416.5" y="-6.5" font-family="Helvetica,sans-Serif" font-size="10.00">unordered_map</text>
</a>
</g>
</g>
<!-- Node8&#45;&gt;Node14 -->
<g id="edge13_Node000008_Node000014" class="edge">
<title>Node8&#45;&gt;Node14</title>
<g id="a_edge13_Node000008_Node000014"><a xlink:title=" ">
<path fill="none" stroke="#63b8ff" d="M391.73,-55.59C395.6,-48.63 401.01,-38.89 405.78,-30.29"/>
<polygon fill="#63b8ff" stroke="#63b8ff" points="408.8,-32.06 410.6,-21.62 402.68,-28.66 408.8,-32.06"/>
</a>
</g>
</g>
</g>
</svg>
