<?xml version="1.0" encoding="UTF-8" standalone="no"?>
<!DOCTYPE svg PUBLIC "-//W3C//DTD SVG 1.1//EN"
 "http://www.w3.org/Graphics/SVG/1.1/DTD/svg11.dtd">
<!-- Generated by graphviz version 14.0.2 (20251019.1705)
 -->
<!-- Title: ImGuiToaster::Toast Pages: 1 -->
<svg width="150pt" height="204pt"
 viewBox="0.00 0.00 150.00 204.00" xmlns="http://www.w3.org/2000/svg" xmlns:xlink="http://www.w3.org/1999/xlink">
<g id="graph0" class="graph" transform="scale(1 1) rotate(0) translate(4 200)">
<title>ImGuiToaster::Toast</title>
<!-- Node1 -->
<g id="Node000001" class="node">
<title>Node1</title>
<g id="a_Node000001"><a xlink:title=" ">
<polygon fill="#999999" stroke="none" points="141.75,-96 0,-96 0,0 141.75,0 141.75,-96"/>
<text xml:space="preserve" text-anchor="start" x="26.62" y="-82.5" font-family="Helvetica,sans-Serif" font-size="10.00">ImGuiToaster::Toast</text>
<text xml:space="preserve" text-anchor="start" x="4" y="-66.5" font-family="Helvetica,sans-Serif" font-size="10.00">+</text>
<text xml:space="preserve" text-anchor="start" x="14" y="-66.5" font-family="Helvetica,sans-Serif" font-size="10.00">uint64_t id</text>
<text xml:space="preserve" text-anchor="start" x="4" y="-50.5" font-family="Helvetica,sans-Serif" font-size="10.00">+</text>
<text xml:space="preserve" text-anchor="start" x="14" y="-50.5" font-family="Helvetica,sans-Serif" font-size="10.00">Level level</text>
<text xml:space="preserve" text-anchor="start" x="4" y="-34.5" font-family="Helvetica,sans-Serif" font-size="10.00">+</text>
<text xml:space="preserve" text-anchor="start" x="14" y="-34.5" font-family="Helvetica,sans-Serif" font-size="10.00">std::chrono::steady</text>
<text xml:space="preserve" text-anchor="start" x="14" y="-22.5" font-family="Helvetica,sans-Serif" font-size="10.00">_clock::time_point expiresAt</text>
<text xml:space="preserve" text-anchor="start" x="69.38" y="-6.5" font-family="Helvetica,sans-Serif" font-size="10.00"> </text>
<polygon fill="#666666" stroke="#666666" points="0,-78 0,-78 141.75,-78 141.75,-78 0,-78"/>
<polygon fill="#666666" stroke="#666666" points="0,-18 0,-18 12,-18 12,-18 0,-18"/>
<polygon fill="#666666" stroke="#666666" points="12,-18 12,-18 141.75,-18 141.75,-18 12,-18"/>
<polygon fill="none" stroke="#666666" points="0,0 0,-96 141.75,-96 141.75,0 0,0"/>
</a>
</g>
</g>
<!-- Node2 -->
<g id="Node000002" class="node">
<title>Node2</title>
<g id="a_Node000002"><a xlink:title=" ">
<polygon fill="white" stroke="none" points="86.88,-196 54.88,-196 54.88,-144 86.88,-144 86.88,-196"/>
<text xml:space="preserve" text-anchor="start" x="58.88" y="-182.5" font-family="Helvetica,sans-Serif" font-size="10.00">string</text>
<text xml:space="preserve" text-anchor="start" x="69.38" y="-166.5" font-family="Helvetica,sans-Serif" font-size="10.00"> </text>
<text xml:space="preserve" text-anchor="start" x="69.38" y="-150.5" font-family="Helvetica,sans-Serif" font-size="10.00"> </text>
<polygon fill="#666666" stroke="#666666" points="54.88,-178 54.88,-178 86.88,-178 86.88,-178 54.88,-178"/>
<polygon fill="#666666" stroke="#666666" points="54.88,-162 54.88,-162 86.88,-162 86.88,-162 54.88,-162"/>
<polygon fill="none" stroke="#666666" points="54.88,-144 54.88,-196 86.88,-196 86.88,-144 54.88,-144"/>
</a>
</g>
</g>
<!-- Node2&#45;&gt;Node1 -->
<g id="edge1_Node000001_Node000002" class="edge">
<title>Node2&#45;&gt;Node1</title>
<g id="a_edge1_Node000001_Node000002"><a xlink:title=" ">
<path fill="none" stroke="#63b8ff" d="M70.88,-144.14C70.88,-133.74 70.88,-121.18 70.88,-108.63"/>
<polygon fill="none" stroke="#63b8ff" points="70.88,-108.56 66.88,-102.56 70.88,-96.56 74.88,-102.56 70.88,-108.56"/>
</a>
</g>
<text xml:space="preserve" text-anchor="middle" x="95.25" y="-116.5" font-family="Helvetica,sans-Serif" font-size="10.00" fill="grey"> +message</text>
</g>
</g>
</svg>
