<?xml version="1.0" encoding="UTF-8" standalone="no"?>
<!DOCTYPE svg PUBLIC "-//W3C//DTD SVG 1.1//EN"
 "http://www.w3.org/Graphics/SVG/1.1/DTD/svg11.dtd">
<!-- Generated by graphviz version 2.43.0 (0)
 -->
<!-- Title: NotesManager Pages: 1 -->
<svg width="684pt" height="983pt"
 viewBox="0.00 0.00 684.00 983.00" xmlns="http://www.w3.org/2000/svg" xmlns:xlink="http://www.w3.org/1999/xlink">
<g id="graph0" class="graph" transform="scale(1 1) rotate(0) translate(4 979)">
<title>NotesManager</title>
<!-- Node1 -->
<g id="Node000001" class="node">
<title>Node1</title>
<g id="a_Node000001"><a xlink:title=" ">
<polygon fill="#999999" stroke="transparent" points="497.5,-750 288.5,-750 288.5,0 497.5,0 497.5,-750"/>
<text text-anchor="start" x="357.5" y="-738" font-family="Helvetica,sans-Serif" font-size="10.00">NotesManager</text>
<text text-anchor="start" x="391.5" y="-723" font-family="Helvetica,sans-Serif" font-size="10.00"> </text>
<text text-anchor="start" x="293" y="-708" font-family="Helvetica,sans-Serif" font-size="10.00">+</text>
<text text-anchor="start" x="306" y="-708" font-family="Helvetica,sans-Serif" font-size="10.00">NotesManager(NotesManagerConfig</text>
<text text-anchor="start" x="306" y="-697" font-family="Helvetica,sans-Serif" font-size="10.00"> cfg, std::shared_ptr&lt; ImGuiToaster</text>
<text text-anchor="start" x="306" y="-686" font-family="Helvetica,sans-Serif" font-size="10.00"> &gt; toaster)</text>
<text text-anchor="start" x="293" y="-671" font-family="Helvetica,sans-Serif" font-size="10.00">+</text>
<text text-anchor="start" x="306" y="-671" font-family="Helvetica,sans-Serif" font-size="10.00">void loadAllFromDisk()</text>
<text text-anchor="start" x="293" y="-656" font-family="Helvetica,sans-Serif" font-size="10.00">+</text>
<text text-anchor="start" x="306" y="-656" font-family="Helvetica,sans-Serif" font-size="10.00">void loadFromGlobal()</text>
<text text-anchor="start" x="293" y="-641" font-family="Helvetica,sans-Serif" font-size="10.00">+</text>
<text text-anchor="start" x="306" y="-641" font-family="Helvetica,sans-Serif" font-size="10.00">void loadFromTable(const std</text>
<text text-anchor="start" x="306" y="-630" font-family="Helvetica,sans-Serif" font-size="10.00">::string &amp;tableName)</text>
<text text-anchor="start" x="293" y="-615" font-family="Helvetica,sans-Serif" font-size="10.00">+</text>
<text text-anchor="start" x="306" y="-615" font-family="Helvetica,sans-Serif" font-size="10.00">std::string createNote(std</text>
<text text-anchor="start" x="306" y="-604" font-family="Helvetica,sans-Serif" font-size="10.00">::string title, std::string</text>
<text text-anchor="start" x="306" y="-593" font-family="Helvetica,sans-Serif" font-size="10.00"> author, std::optional&lt; std::</text>
<text text-anchor="start" x="306" y="-582" font-family="Helvetica,sans-Serif" font-size="10.00">string &gt; tableName=std::nullopt)</text>
<text text-anchor="start" x="293" y="-567" font-family="Helvetica,sans-Serif" font-size="10.00">+</text>
<text text-anchor="start" x="306" y="-567" font-family="Helvetica,sans-Serif" font-size="10.00">bool saveNote(const std::string &amp;uuid)</text>
<text text-anchor="start" x="293" y="-552" font-family="Helvetica,sans-Serif" font-size="10.00">+</text>
<text text-anchor="start" x="306" y="-552" font-family="Helvetica,sans-Serif" font-size="10.00">bool saveNoteAs(const std::</text>
<text text-anchor="start" x="306" y="-541" font-family="Helvetica,sans-Serif" font-size="10.00">string &amp;uuid, const std::filesystem</text>
<text text-anchor="start" x="306" y="-530" font-family="Helvetica,sans-Serif" font-size="10.00">::path &amp;absolutePath)</text>
<text text-anchor="start" x="293" y="-515" font-family="Helvetica,sans-Serif" font-size="10.00">+</text>
<text text-anchor="start" x="306" y="-515" font-family="Helvetica,sans-Serif" font-size="10.00">bool deleteNote(const std::</text>
<text text-anchor="start" x="306" y="-504" font-family="Helvetica,sans-Serif" font-size="10.00">string &amp;uuid, bool deleteFromDisk)</text>
<text text-anchor="start" x="293" y="-489" font-family="Helvetica,sans-Serif" font-size="10.00">+</text>
<text text-anchor="start" x="306" y="-489" font-family="Helvetica,sans-Serif" font-size="10.00">std::shared_ptr&lt; Note &gt; getNote</text>
<text text-anchor="start" x="306" y="-478" font-family="Helvetica,sans-Serif" font-size="10.00">(const std::string &amp;uuid)</text>
<text text-anchor="start" x="293" y="-463" font-family="Helvetica,sans-Serif" font-size="10.00">+</text>
<text text-anchor="start" x="306" y="-463" font-family="Helvetica,sans-Serif" font-size="10.00">std::shared_ptr&lt; const Note</text>
<text text-anchor="start" x="306" y="-452" font-family="Helvetica,sans-Serif" font-size="10.00"> &gt; getNote(const std::string</text>
<text text-anchor="start" x="306" y="-441" font-family="Helvetica,sans-Serif" font-size="10.00"> &amp;uuid) const</text>
<text text-anchor="start" x="306" y="-426" font-family="Helvetica,sans-Serif" font-size="10.00">and 13 more...</text>
<text text-anchor="start" x="293" y="-411" font-family="Helvetica,sans-Serif" font-size="10.00">+</text>
<text text-anchor="start" x="306" y="-411" font-family="Helvetica,sans-Serif" font-size="10.00">static std::string generateUUID()</text>
<text text-anchor="start" x="293" y="-396" font-family="Helvetica,sans-Serif" font-size="10.00">+</text>
<text text-anchor="start" x="306" y="-396" font-family="Helvetica,sans-Serif" font-size="10.00">static std::string slugify</text>
<text text-anchor="start" x="306" y="-385" font-family="Helvetica,sans-Serif" font-size="10.00">(const std::string &amp;title)</text>
<text text-anchor="start" x="293" y="-370" font-family="Helvetica,sans-Serif" font-size="10.00">+</text>
<text text-anchor="start" x="306" y="-370" font-family="Helvetica,sans-Serif" font-size="10.00">static int64_t toEpochMillis</text>
<text text-anchor="start" x="306" y="-359" font-family="Helvetica,sans-Serif" font-size="10.00">(std::chrono::system_clock::time</text>
<text text-anchor="start" x="306" y="-348" font-family="Helvetica,sans-Serif" font-size="10.00">_point tp)</text>
<text text-anchor="start" x="293" y="-333" font-family="Helvetica,sans-Serif" font-size="10.00">+</text>
<text text-anchor="start" x="306" y="-333" font-family="Helvetica,sans-Serif" font-size="10.00">static std::chrono::system</text>
<text text-anchor="start" x="306" y="-322" font-family="Helvetica,sans-Serif" font-size="10.00">_clock::time_point fromEpochMillis</text>
<text text-anchor="start" x="306" y="-311" font-family="Helvetica,sans-Serif" font-size="10.00">(int64_t ms)</text>
<text text-anchor="start" x="293" y="-296" font-family="Helvetica,sans-Serif" font-size="10.00">+</text>
<text text-anchor="start" x="306" y="-296" font-family="Helvetica,sans-Serif" font-size="10.00">static bool parseMarkdownFile</text>
<text text-anchor="start" x="306" y="-285" font-family="Helvetica,sans-Serif" font-size="10.00">(const std::filesystem::path</text>
<text text-anchor="start" x="306" y="-274" font-family="Helvetica,sans-Serif" font-size="10.00"> &amp;path, Note &amp;outNote)</text>
<text text-anchor="start" x="293" y="-259" font-family="Helvetica,sans-Serif" font-size="10.00">+</text>
<text text-anchor="start" x="306" y="-259" font-family="Helvetica,sans-Serif" font-size="10.00">static bool writeMarkdownFile</text>
<text text-anchor="start" x="306" y="-248" font-family="Helvetica,sans-Serif" font-size="10.00">(const std::filesystem::path</text>
<text text-anchor="start" x="306" y="-237" font-family="Helvetica,sans-Serif" font-size="10.00"> &amp;path, const Note &amp;note)</text>
<text text-anchor="start" x="295.5" y="-222" font-family="Helvetica,sans-Serif" font-size="10.00">&#45;</text>
<text text-anchor="start" x="306" y="-222" font-family="Helvetica,sans-Serif" font-size="10.00">void scanFolderForMd_(const</text>
<text text-anchor="start" x="306" y="-211" font-family="Helvetica,sans-Serif" font-size="10.00"> std::filesystem::path &amp;dir,</text>
<text text-anchor="start" x="306" y="-200" font-family="Helvetica,sans-Serif" font-size="10.00"> std::optional&lt; std::string &gt;</text>
<text text-anchor="start" x="306" y="-189" font-family="Helvetica,sans-Serif" font-size="10.00"> tableName)</text>
<text text-anchor="start" x="295.5" y="-174" font-family="Helvetica,sans-Serif" font-size="10.00">&#45;</text>
<text text-anchor="start" x="306" y="-174" font-family="Helvetica,sans-Serif" font-size="10.00">void toastInfo(const std::string</text>
<text text-anchor="start" x="306" y="-163" font-family="Helvetica,sans-Serif" font-size="10.00"> &amp;msg) const</text>
<text text-anchor="start" x="295.5" y="-148" font-family="Helvetica,sans-Serif" font-size="10.00">&#45;</text>
<text text-anchor="start" x="306" y="-148" font-family="Helvetica,sans-Serif" font-size="10.00">void toastGood(const std::string</text>
<text text-anchor="start" x="306" y="-137" font-family="Helvetica,sans-Serif" font-size="10.00"> &amp;msg) const</text>
<text text-anchor="start" x="295.5" y="-122" font-family="Helvetica,sans-Serif" font-size="10.00">&#45;</text>
<text text-anchor="start" x="306" y="-122" font-family="Helvetica,sans-Serif" font-size="10.00">void toastWarn(const std::string</text>
<text text-anchor="start" x="306" y="-111" font-family="Helvetica,sans-Serif" font-size="10.00"> &amp;msg) const</text>
<text text-anchor="start" x="295.5" y="-96" font-family="Helvetica,sans-Serif" font-size="10.00">&#45;</text>
<text text-anchor="start" x="306" y="-96" font-family="Helvetica,sans-Serif" font-size="10.00">void toastError(const std::</text>
<text text-anchor="start" x="306" y="-85" font-family="Helvetica,sans-Serif" font-size="10.00">string &amp;msg) const</text>
<text text-anchor="start" x="295.5" y="-70" font-family="Helvetica,sans-Serif" font-size="10.00">&#45;</text>
<text text-anchor="start" x="306" y="-70" font-family="Helvetica,sans-Serif" font-size="10.00">static bool looksLikeUuid_</text>
<text text-anchor="start" x="306" y="-59" font-family="Helvetica,sans-Serif" font-size="10.00">(const std::string &amp;s)</text>
<text text-anchor="start" x="295.5" y="-44" font-family="Helvetica,sans-Serif" font-size="10.00">&#45;</text>
<text text-anchor="start" x="306" y="-44" font-family="Helvetica,sans-Serif" font-size="10.00">static bool looksLikeShortHex</text>
<text text-anchor="start" x="306" y="-33" font-family="Helvetica,sans-Serif" font-size="10.00">_(const std::string &amp;s)</text>
<text text-anchor="start" x="295.5" y="-18" font-family="Helvetica,sans-Serif" font-size="10.00">&#45;</text>
<text text-anchor="start" x="306" y="-18" font-family="Helvetica,sans-Serif" font-size="10.00">static std::string toLower</text>
<text text-anchor="start" x="306" y="-7" font-family="Helvetica,sans-Serif" font-size="10.00">_(const std::string &amp;s)</text>
<polygon fill="#666666" stroke="#666666" points="289,-733 289,-733 498,-733 498,-733 289,-733"/>
<polygon fill="#666666" stroke="#666666" points="289,-718 289,-718 498,-718 498,-718 289,-718"/>
<polygon fill="none" stroke="#666666" points="288.5,0 288.5,-750 497.5,-750 497.5,0 288.5,0"/>
</a>
</g>
</g>
<!-- Node2 -->
<g id="Node000002" class="node">
<title>Node2</title>
<g id="a_Node000002"><a xlink:title=" ">
<polygon fill="white" stroke="transparent" points="150,-868 0,-868 0,-808 150,-808 150,-868"/>
<text text-anchor="start" x="5" y="-856" font-family="Helvetica,sans-Serif" font-size="10.00">unordered_map&lt; std::string,</text>
<text text-anchor="start" x="8.5" y="-845" font-family="Helvetica,sans-Serif" font-size="10.00"> std::shared_ptr&lt; Note &gt; &gt;</text>
<text text-anchor="start" x="73" y="-830" font-family="Helvetica,sans-Serif" font-size="10.00"> </text>
<text text-anchor="start" x="73" y="-815" font-family="Helvetica,sans-Serif" font-size="10.00"> </text>
<polygon fill="#666666" stroke="#666666" points="0,-840 0,-840 150,-840 150,-840 0,-840"/>
<polygon fill="#666666" stroke="#666666" points="0,-825 0,-825 150,-825 150,-825 0,-825"/>
<polygon fill="none" stroke="#666666" points="0,-808 0,-868 150,-868 150,-808 0,-808"/>
</a>
</g>
</g>
<!-- Node2&#45;&gt;Node1 -->
<g id="edge1_Node000001_Node000002" class="edge">
<title>Node2&#45;&gt;Node1</title>
<g id="a_edge1_Node000001_Node000002"><a xlink:title=" ">
<path fill="none" stroke="#63b8ff" d="M95.13,-807.81C132.09,-754.23 213.24,-636.6 281.51,-537.63"/>
<polygon fill="none" stroke="#63b8ff" points="281.68,-537.38 281.8,-530.16 288.5,-527.5 288.38,-534.71 281.68,-537.38"/>
</a>
</g>
<text text-anchor="middle" x="158" y="-782" font-family="Helvetica,sans-Serif" font-size="10.00" fill="grey"> &#45;notesById_</text>
<text text-anchor="middle" x="158" y="-771" font-family="Helvetica,sans-Serif" font-size="10.00" fill="grey">&#45;notesByUuid_</text>
</g>
<!-- Node3 -->
<g id="Node000003" class="node">
<title>Node3</title>
<g id="a_Node000003"><a xlink:title=" ">
<polygon fill="white" stroke="transparent" points="318,-868 168,-868 168,-808 318,-808 318,-868"/>
<text text-anchor="start" x="173" y="-856" font-family="Helvetica,sans-Serif" font-size="10.00">unordered_map&lt; std::string,</text>
<text text-anchor="start" x="211" y="-845" font-family="Helvetica,sans-Serif" font-size="10.00"> std::string &gt;</text>
<text text-anchor="start" x="241" y="-830" font-family="Helvetica,sans-Serif" font-size="10.00"> </text>
<text text-anchor="start" x="241" y="-815" font-family="Helvetica,sans-Serif" font-size="10.00"> </text>
<polygon fill="#666666" stroke="#666666" points="168,-840 168,-840 318,-840 318,-840 168,-840"/>
<polygon fill="#666666" stroke="#666666" points="168,-825 168,-825 318,-825 318,-825 168,-825"/>
<polygon fill="none" stroke="#666666" points="168,-808 168,-868 318,-868 318,-808 168,-808"/>
</a>
</g>
</g>
<!-- Node3&#45;&gt;Node1 -->
<g id="edge2_Node000001_Node000003" class="edge">
<title>Node3&#45;&gt;Node1</title>
<g id="a_edge2_Node000001_Node000003"><a xlink:title=" ">
<path fill="none" stroke="#63b8ff" d="M252.5,-807.81C260.05,-784.61 271.5,-749.4 284.69,-708.89"/>
<polygon fill="none" stroke="#63b8ff" points="284.73,-708.74 282.79,-701.79 288.45,-697.33 290.39,-704.27 284.73,-708.74"/>
</a>
</g>
<text text-anchor="middle" x="297.5" y="-776.5" font-family="Helvetica,sans-Serif" font-size="10.00" fill="grey"> &#45;titleToUuid_</text>
</g>
<!-- Node4 -->
<g id="Node000004" class="node">
<title>Node4</title>
<g id="a_Node000004"><a xlink:href="../../db/de3/structNotesManagerConfig.html" target="_top" xlink:title=" ">
<polygon fill="white" stroke="transparent" points="449.5,-862.5 336.5,-862.5 336.5,-813.5 449.5,-813.5 449.5,-862.5"/>
<text text-anchor="start" x="342" y="-850" font-family="Helvetica,sans-Serif" font-size="10.00">NotesManagerConfig</text>
<text text-anchor="start" x="391.5" y="-835" font-family="Helvetica,sans-Serif" font-size="10.00"> </text>
<text text-anchor="start" x="391.5" y="-820" font-family="Helvetica,sans-Serif" font-size="10.00"> </text>
<polygon fill="#666666" stroke="#666666" points="337,-845 337,-845 450,-845 450,-845 337,-845"/>
<polygon fill="#666666" stroke="#666666" points="337,-830 337,-830 450,-830 450,-830 337,-830"/>
<polygon fill="none" stroke="#666666" points="336.5,-813.5 336.5,-862.5 449.5,-862.5 449.5,-813.5 336.5,-813.5"/>
</a>
</g>
</g>
<!-- Node4&#45;&gt;Node1 -->
<g id="edge3_Node000001_Node000004" class="edge">
<title>Node4&#45;&gt;Node1</title>
<g id="a_edge3_Node000001_Node000004"><a xlink:title=" ">
<path fill="none" stroke="#63b8ff" d="M393,-813.19C393,-800.33 393,-782.88 393,-762.31"/>
<polygon fill="none" stroke="#63b8ff" points="393,-762.21 389,-756.21 393,-750.21 397,-756.21 393,-762.21"/>
</a>
</g>
<text text-anchor="middle" x="407" y="-776.5" font-family="Helvetica,sans-Serif" font-size="10.00" fill="grey"> &#45;cfg_</text>
</g>
<!-- Node5 -->
<g id="Node000005" class="node">
<title>Node5</title>
<g id="a_Node000005"><a xlink:title=" ">
<polygon fill="white" stroke="transparent" points="409,-975 377,-975 377,-926 409,-926 409,-975"/>
<text text-anchor="start" x="382" y="-962.5" font-family="Helvetica,sans-Serif" font-size="10.00">path</text>
<text text-anchor="start" x="391" y="-947.5" font-family="Helvetica,sans-Serif" font-size="10.00"> </text>
<text text-anchor="start" x="391" y="-932.5" font-family="Helvetica,sans-Serif" font-size="10.00"> </text>
<polygon fill="#666666" stroke="#666666" points="377,-957.5 377,-957.5 409,-957.5 409,-957.5 377,-957.5"/>
<polygon fill="#666666" stroke="#666666" points="377,-942.5 377,-942.5 409,-942.5 409,-942.5 377,-942.5"/>
<polygon fill="none" stroke="#666666" points="377,-926 377,-975 409,-975 409,-926 377,-926"/>
</a>
</g>
</g>
<!-- Node5&#45;&gt;Node4 -->
<g id="edge4_Node000004_Node000005" class="edge">
<title>Node5&#45;&gt;Node4</title>
<g id="a_edge4_Node000004_Node000005"><a xlink:title=" ">
<path fill="none" stroke="#63b8ff" d="M393,-925.79C393,-910.94 393,-891.5 393,-874.79"/>
<polygon fill="none" stroke="#63b8ff" points="393,-874.67 389,-868.67 393,-862.67 397,-868.67 393,-874.67"/>
</a>
</g>
<text text-anchor="middle" x="446.5" y="-900" font-family="Helvetica,sans-Serif" font-size="10.00" fill="grey"> +gameTablesRootDir</text>
<text text-anchor="middle" x="446.5" y="-889" font-family="Helvetica,sans-Serif" font-size="10.00" fill="grey">+globalNotesDir</text>
</g>
<!-- Node6 -->
<g id="Node000006" class="node">
<title>Node6</title>
<g id="a_Node000006"><a xlink:title=" ">
<polygon fill="white" stroke="transparent" points="616.5,-862.5 467.5,-862.5 467.5,-813.5 616.5,-813.5 616.5,-862.5"/>
<text text-anchor="start" x="473" y="-850" font-family="Helvetica,sans-Serif" font-size="10.00">shared_ptr&lt; ImGuiToaster &gt;</text>
<text text-anchor="start" x="540.5" y="-835" font-family="Helvetica,sans-Serif" font-size="10.00"> </text>
<text text-anchor="start" x="540.5" y="-820" font-family="Helvetica,sans-Serif" font-size="10.00"> </text>
<polygon fill="#666666" stroke="#666666" points="468,-845 468,-845 617,-845 617,-845 468,-845"/>
<polygon fill="#666666" stroke="#666666" points="468,-830 468,-830 617,-830 617,-830 468,-830"/>
<polygon fill="none" stroke="#666666" points="467.5,-813.5 467.5,-862.5 616.5,-862.5 616.5,-813.5 467.5,-813.5"/>
</a>
</g>
</g>
<!-- Node6&#45;&gt;Node1 -->
<g id="edge5_Node000001_Node000006" class="edge">
<title>Node6&#45;&gt;Node1</title>
<g id="a_edge5_Node000001_Node000006"><a xlink:title=" ">
<path fill="none" stroke="#63b8ff" d="M534.3,-813.19C527.01,-790.63 515.14,-753.9 501.29,-711.06"/>
<polygon fill="none" stroke="#63b8ff" points="501.23,-710.85 495.58,-706.37 497.54,-699.43 503.19,-703.91 501.23,-710.85"/>
</a>
</g>
<text text-anchor="middle" x="550.5" y="-776.5" font-family="Helvetica,sans-Serif" font-size="10.00" fill="grey"> &#45;toaster_</text>
</g>
<!-- Node7 -->
<g id="Node000007" class="node">
<title>Node7</title>
<g id="a_Node000007"><a xlink:title=" ">
<polygon fill="white" stroke="transparent" points="676,-862.5 634,-862.5 634,-813.5 676,-813.5 676,-862.5"/>
<text text-anchor="start" x="639" y="-850" font-family="Helvetica,sans-Serif" font-size="10.00">mutex</text>
<text text-anchor="start" x="653" y="-835" font-family="Helvetica,sans-Serif" font-size="10.00"> </text>
<text text-anchor="start" x="653" y="-820" font-family="Helvetica,sans-Serif" font-size="10.00"> </text>
<polygon fill="#666666" stroke="#666666" points="634,-845 634,-845 676,-845 676,-845 634,-845"/>
<polygon fill="#666666" stroke="#666666" points="634,-830 634,-830 676,-830 676,-830 634,-830"/>
<polygon fill="none" stroke="#666666" points="634,-813.5 634,-862.5 676,-862.5 676,-813.5 634,-813.5"/>
</a>
</g>
</g>
<!-- Node7&#45;&gt;Node1 -->
<g id="edge6_Node000001_Node000007" class="edge">
<title>Node7&#45;&gt;Node1</title>
<g id="a_edge6_Node000001_Node000007"><a xlink:title=" ">
<path fill="none" stroke="#63b8ff" d="M641.47,-813.19C615.69,-767.82 557.31,-665.11 503.62,-570.64"/>
<polygon fill="none" stroke="#63b8ff" points="503.53,-570.48 497.09,-567.24 497.6,-560.05 504.04,-563.29 503.53,-570.48"/>
</a>
</g>
<text text-anchor="middle" x="643" y="-776.5" font-family="Helvetica,sans-Serif" font-size="10.00" fill="grey"> &#45;mtx_</text>
</g>
</g>
</svg>
