<?xml version="1.0" encoding="UTF-8" standalone="no"?>
<!DOCTYPE svg PUBLIC "-//W3C//DTD SVG 1.1//EN"
 "http://www.w3.org/Graphics/SVG/1.1/DTD/svg11.dtd">
<!-- Generated by graphviz version 14.0.2 (20251019.1705)
 -->
<!-- Title: include/ImGuiToaster.h Pages: 1 -->
<!--zoomable 288 -->

<svg id="main" version="1.1" xmlns="http://www.w3.org/2000/svg" xmlns:xlink="http://www.w3.org/1999/xlink" xml:space="preserve" onload="init(evt)">
<style type="text/css"><![CDATA[
.node, .edge {opacity: 0.7;}
.node.selected, .edge.selected {opacity: 1;}
.edge:hover path { stroke: red; }
.edge:hover polygon { stroke: red; fill: red; }
]]></style>

<defs>
  <circle id="rim" cx="0" cy="0" r="7"/>
  <circle id="rim2" cx="0" cy="0" r="3.5"/>
  <g id="zoomPlus">
    <use xlink:href="#rim" fill="#404040"><set attributeName="fill" to="#808080" begin="zoomplus.mouseover" end="zoomplus.mouseout"/></use>
    <path d="M-4,0h8M0,-4v8" fill="none" stroke="white" stroke-width="1.5" pointer-events="none"/>
  </g>
  <g id="zoomMin">
    <use xlink:href="#rim" fill="#404040"><set attributeName="fill" to="#808080" begin="zoomminus.mouseover" end="zoomminus.mouseout"/></use>
    <path d="M-4,0h8" fill="none" stroke="white" stroke-width="1.5" pointer-events="none"/>
  </g>
  <g id="arrowUp" transform="translate(30 24)">
    <use xlink:href="#rim"/>
    <path pointer-events="none" fill="none" stroke="white" stroke-width="1.5" d="M0,-3.0v7 M-2.5,-0.5L0,-3.0L2.5,-0.5"/>
  </g>
  <g id="arrowRight" transform="rotate(90) translate(36 -43)">
    <use xlink:href="#rim"/>
    <path pointer-events="none" fill="none" stroke="white" stroke-width="1.5" d="M0,-3.0v7 M-2.5,-0.5L0,-3.0L2.5,-0.5"/>
  </g>
  <g id="arrowDown" transform="rotate(180) translate(-30 -48)">
    <use xlink:href="#rim"/>
    <path pointer-events="none" fill="none" stroke="white" stroke-width="1.5" d="M0,-3.0v7 M-2.5,-0.5L0,-3.0L2.5,-0.5"/>
  </g>
  <g id="arrowLeft" transform="rotate(270) translate(-36 17)">
    <use xlink:href="#rim"/>
    <path pointer-events="none" fill="none" stroke="white" stroke-width="1.5" d="M0,-3.0v7 M-2.5,-0.5L0,-3.0L2.5,-0.5"/>
  </g>
  <g id="resetDef">
    <use xlink:href="#rim2" fill="#404040"><set attributeName="fill" to="#808080" begin="reset.mouseover" end="reset.mouseout"/></use>
  </g>
</defs>
<script type="application/ecmascript">
var viewWidth = 1417;
var viewHeight = 288;
var sectionId = 'dynsection-1';
</script>
<script type="application/ecmascript" xlink:href="../../svg.min.js"/>
<svg id="graph" class="graph">
<g id="viewport">
<title>include/ImGuiToaster.h</title>
<!-- Node1 -->
<g id="Node000001" class="node">
<title>Node1</title>
<g id="a_Node000001"><a xlink:title=" ">
<polygon fill="#999999" stroke="#666666" points="1118.75,-280 1002.25,-280 1002.25,-260 1118.75,-260 1118.75,-280"/>
<text xml:space="preserve" text-anchor="middle" x="1060.5" y="-266.5" font-family="Helvetica,sans-Serif" font-size="10.00">include/ImGuiToaster.h</text>
</a>
</g>
</g>
<!-- Node2 -->
<g id="Node000002" class="node">
<title>Node2</title>
<g id="a_Node000002"><a xlink:href="../../d4/dd7/_asset_i_o_8h.html" target="_top" xlink:title=" ">
<polygon fill="white" stroke="#666666" points="120.5,-218 26.5,-218 26.5,-198 120.5,-198 120.5,-218"/>
<text xml:space="preserve" text-anchor="middle" x="73.5" y="-204.5" font-family="Helvetica,sans-Serif" font-size="10.00">include/AssetIO.h</text>
</a>
</g>
</g>
<!-- Node1&#45;&gt;Node2 -->
<g id="edge1_Node000001_Node000002" class="edge">
<title>Node1&#45;&gt;Node2</title>
<g id="a_edge1_Node000001_Node000002"><a xlink:title=" ">
<path fill="none" stroke="#63b8ff" d="M990.62,-264.94C857.49,-257.18 558.31,-239.62 306.5,-224 242.17,-220.01 167.87,-215.19 120.8,-212.11"/>
<polygon fill="#63b8ff" stroke="#63b8ff" points="990.14,-268.42 1000.32,-265.5 990.54,-261.43 990.14,-268.42"/>
</a>
</g>
</g>
<!-- Node4 -->
<g id="Node000004" class="node">
<title>Node4</title>
<g id="a_Node000004"><a xlink:href="../../d5/d35/_debug_actions_8h.html" target="_top" xlink:title=" ">
<polygon fill="white" stroke="#666666" points="463.88,-218 315.12,-218 315.12,-198 463.88,-198 463.88,-218"/>
<text xml:space="preserve" text-anchor="middle" x="389.5" y="-204.5" font-family="Helvetica,sans-Serif" font-size="10.00">include/debug/DebugActions.h</text>
</a>
</g>
</g>
<!-- Node1&#45;&gt;Node4 -->
<g id="edge3_Node000001_Node000004" class="edge">
<title>Node1&#45;&gt;Node4</title>
<g id="a_edge3_Node000001_Node000004"><a xlink:title=" ">
<path fill="none" stroke="#63b8ff" d="M990.71,-262.76C863.52,-251.39 595.08,-227.38 464.29,-215.69"/>
<polygon fill="#63b8ff" stroke="#63b8ff" points="990.05,-266.21 1000.33,-263.62 990.68,-259.24 990.05,-266.21"/>
</a>
</g>
</g>
<!-- Node5 -->
<g id="Node000005" class="node">
<title>Node5</title>
<g id="a_Node000005"><a xlink:href="../../d8/ddc/_network_manager_8h.html" target="_top" xlink:title=" ">
<polygon fill="white" stroke="#666666" points="740.38,-218 570.62,-218 570.62,-198 740.38,-198 740.38,-218"/>
<text xml:space="preserve" text-anchor="middle" x="655.5" y="-204.5" font-family="Helvetica,sans-Serif" font-size="10.00">include/network/NetworkManager.h</text>
</a>
</g>
</g>
<!-- Node1&#45;&gt;Node5 -->
<g id="edge5_Node000001_Node000005" class="edge">
<title>Node1&#45;&gt;Node5</title>
<g id="a_edge5_Node000001_Node000005"><a xlink:title=" ">
<path fill="none" stroke="#63b8ff" d="M990.67,-258.66C914.47,-247.37 793.5,-229.44 719.62,-218.5"/>
<polygon fill="#63b8ff" stroke="#63b8ff" points="990.14,-262.11 1000.54,-260.12 991.17,-255.19 990.14,-262.11"/>
</a>
</g>
</g>
<!-- Node16 -->
<g id="Node000016" class="node">
<title>Node16</title>
<g id="a_Node000016"><a xlink:href="../../d1/ded/_note_editor_u_i_8h.html" target="_top" xlink:title=" ">
<polygon fill="white" stroke="#666666" points="1186.38,-156 1088.62,-156 1088.62,-124 1186.38,-124 1186.38,-156"/>
<text xml:space="preserve" text-anchor="start" x="1096.62" y="-142.5" font-family="Helvetica,sans-Serif" font-size="10.00">include/note_editor</text>
<text xml:space="preserve" text-anchor="middle" x="1137.5" y="-130.5" font-family="Helvetica,sans-Serif" font-size="10.00">/NoteEditorUI.h</text>
</a>
</g>
</g>
<!-- Node1&#45;&gt;Node16 -->
<g id="edge18_Node000001_Node000016" class="edge">
<title>Node1&#45;&gt;Node16</title>
<g id="a_edge18_Node000001_Node000016"><a xlink:title=" ">
<path fill="none" stroke="#63b8ff" d="M1071.81,-250.19C1087.13,-224.73 1114.18,-179.77 1128.31,-156.27"/>
<polygon fill="#63b8ff" stroke="#63b8ff" points="1068.97,-248.12 1066.82,-258.5 1074.97,-251.73 1068.97,-248.12"/>
</a>
</g>
</g>
<!-- Node17 -->
<g id="Node000017" class="node">
<title>Node17</title>
<g id="a_Node000017"><a xlink:href="../../d9/d67/_note_editor_u_i_8cpp.html" target="_top" xlink:title=" ">
<polygon fill="white" stroke="#666666" points="1087.5,-88 957.5,-88 957.5,-56 1087.5,-56 1087.5,-88"/>
<text xml:space="preserve" text-anchor="start" x="965.5" y="-74.5" font-family="Helvetica,sans-Serif" font-size="10.00">src/note_editor/NoteEditor</text>
<text xml:space="preserve" text-anchor="middle" x="1022.5" y="-62.5" font-family="Helvetica,sans-Serif" font-size="10.00">UI.cpp</text>
</a>
</g>
</g>
<!-- Node1&#45;&gt;Node17 -->
<g id="edge25_Node000001_Node000017" class="edge">
<title>Node1&#45;&gt;Node17</title>
<g id="a_edge25_Node000001_Node000017"><a xlink:title=" ">
<path fill="none" stroke="#63b8ff" d="M1059.28,-248.51C1057.26,-220.18 1052.33,-167.59 1041.5,-124 1038.45,-111.71 1033.39,-98.31 1029.25,-88.34"/>
<polygon fill="#63b8ff" stroke="#63b8ff" points="1055.77,-248.44 1059.91,-258.19 1062.75,-247.99 1055.77,-248.44"/>
</a>
</g>
</g>
<!-- Node18 -->
<g id="Node000018" class="node">
<title>Node18</title>
<g id="a_Node000018"><a xlink:href="../../d7/d8b/_notes_manager_8h.html" target="_top" xlink:title=" ">
<polygon fill="white" stroke="#666666" points="1253.38,-224 1155.62,-224 1155.62,-192 1253.38,-192 1253.38,-224"/>
<text xml:space="preserve" text-anchor="start" x="1163.62" y="-210.5" font-family="Helvetica,sans-Serif" font-size="10.00">include/note_editor</text>
<text xml:space="preserve" text-anchor="middle" x="1204.5" y="-198.5" font-family="Helvetica,sans-Serif" font-size="10.00">/NotesManager.h</text>
</a>
</g>
</g>
<!-- Node1&#45;&gt;Node18 -->
<g id="edge21_Node000001_Node000018" class="edge">
<title>Node1&#45;&gt;Node18</title>
<g id="a_edge21_Node000001_Node000018"><a xlink:title=" ">
<path fill="none" stroke="#63b8ff" d="M1093.5,-255.25C1115.51,-246.08 1144.49,-234 1167.32,-224.49"/>
<polygon fill="#63b8ff" stroke="#63b8ff" points="1092.28,-251.97 1084.4,-259.04 1094.97,-258.43 1092.28,-251.97"/>
</a>
</g>
</g>
<!-- Node19 -->
<g id="Node000019" class="node">
<title>Node19</title>
<g id="a_Node000019"><a xlink:href="../../de/de9/_notes_manager_8cpp.html" target="_top" xlink:title=" ">
<polygon fill="white" stroke="#666666" points="1408.5,-150 1242.5,-150 1242.5,-130 1408.5,-130 1408.5,-150"/>
<text xml:space="preserve" text-anchor="middle" x="1325.5" y="-136.5" font-family="Helvetica,sans-Serif" font-size="10.00">src/note_editor/NotesManager.cpp</text>
</a>
</g>
</g>
<!-- Node1&#45;&gt;Node19 -->
<g id="edge26_Node000001_Node000019" class="edge">
<title>Node1&#45;&gt;Node19</title>
<g id="a_edge26_Node000001_Node000019"><a xlink:title=" ">
<path fill="none" stroke="#63b8ff" d="M1130.32,-265.38C1171.51,-260.47 1223.11,-249.27 1262.5,-224 1291.74,-205.25 1312.56,-167.94 1321.14,-150.45"/>
<polygon fill="#63b8ff" stroke="#63b8ff" points="1130.07,-261.89 1120.5,-266.45 1130.82,-268.85 1130.07,-261.89"/>
</a>
</g>
</g>
<!-- Node3 -->
<g id="Node000003" class="node">
<title>Node3</title>
<g id="a_Node000003"><a xlink:href="../../df/d43/_application_handler_8cpp.html" target="_top" xlink:title=" ">
<polygon fill="white" stroke="#666666" points="133,-20 0,-20 0,0 133,0 133,-20"/>
<text xml:space="preserve" text-anchor="middle" x="66.5" y="-6.5" font-family="Helvetica,sans-Serif" font-size="10.00">src/ApplicationHandler.cpp</text>
</a>
</g>
</g>
<!-- Node2&#45;&gt;Node3 -->
<g id="edge2_Node000002_Node000003" class="edge">
<title>Node2&#45;&gt;Node3</title>
<g id="a_edge2_Node000002_Node000003"><a xlink:title=" ">
<path fill="none" stroke="#63b8ff" d="M63.37,-187.5C59.11,-178.23 54.64,-166.82 52.5,-156 43.87,-112.4 45.82,-99.94 52.5,-56 54.42,-43.38 59.2,-29.43 62.64,-20.46"/>
<polygon fill="#63b8ff" stroke="#63b8ff" points="60.1,-188.77 67.64,-196.22 66.38,-185.7 60.1,-188.77"/>
</a>
</g>
</g>
<!-- Node4&#45;&gt;Node3 -->
<g id="edge4_Node000004_Node000003" class="edge">
<title>Node4&#45;&gt;Node3</title>
<g id="a_edge4_Node000004_Node000003"><a xlink:title=" ">
<path fill="none" stroke="#63b8ff" d="M303.19,-203.7C224.07,-198.76 114.89,-186.47 85.5,-156 48.84,-117.99 59.21,-46.03 64.39,-20.37"/>
<polygon fill="#63b8ff" stroke="#63b8ff" points="302.93,-207.19 313.12,-204.29 303.35,-200.2 302.93,-207.19"/>
</a>
</g>
</g>
<!-- Node6 -->
<g id="Node000006" class="node">
<title>Node6</title>
<g id="a_Node000006"><a xlink:href="../../d9/d4e/_game_table_manager_8h.html" target="_top" xlink:title=" ">
<polygon fill="white" stroke="#666666" points="772,-150 627,-150 627,-130 772,-130 772,-150"/>
<text xml:space="preserve" text-anchor="middle" x="699.5" y="-136.5" font-family="Helvetica,sans-Serif" font-size="10.00">include/GameTableManager.h</text>
</a>
</g>
</g>
<!-- Node5&#45;&gt;Node6 -->
<g id="edge6_Node000005_Node000006" class="edge">
<title>Node5&#45;&gt;Node6</title>
<g id="a_edge6_Node000005_Node000006"><a xlink:title=" ">
<path fill="none" stroke="#63b8ff" d="M668.07,-188.15C676.29,-175.82 686.68,-160.23 693.21,-150.44"/>
<polygon fill="#63b8ff" stroke="#63b8ff" points="665.28,-186.02 662.64,-196.28 671.1,-189.91 665.28,-186.02"/>
</a>
</g>
</g>
<!-- Node10 -->
<g id="Node000010" class="node">
<title>Node10</title>
<g id="a_Node000010"><a xlink:href="../../da/d82/_network_manager_8cpp.html" target="_top" xlink:title=" ">
<polygon fill="white" stroke="#666666" points="680,-82 517,-82 517,-62 680,-62 680,-82"/>
<text xml:space="preserve" text-anchor="middle" x="598.5" y="-68.5" font-family="Helvetica,sans-Serif" font-size="10.00">src/network/NetworkManager.cpp</text>
</a>
</g>
</g>
<!-- Node5&#45;&gt;Node10 -->
<g id="edge14_Node000005_Node000010" class="edge">
<title>Node5&#45;&gt;Node10</title>
<g id="a_edge14_Node000005_Node000010"><a xlink:title=" ">
<path fill="none" stroke="#63b8ff" d="M639.19,-189.01C631.57,-179.74 623,-167.9 617.5,-156 605.91,-130.9 601.11,-98.18 599.37,-82.37"/>
<polygon fill="#63b8ff" stroke="#63b8ff" points="636.44,-191.18 645.61,-196.48 641.75,-186.62 636.44,-191.18"/>
</a>
</g>
</g>
<!-- Node11 -->
<g id="Node000011" class="node">
<title>Node11</title>
<g id="a_Node000011"><a xlink:href="../../de/d99/_board_manager_8cpp.html" target="_top" xlink:title=" ">
<polygon fill="white" stroke="#666666" points="904.62,-150 790.38,-150 790.38,-130 904.62,-130 904.62,-150"/>
<text xml:space="preserve" text-anchor="middle" x="847.5" y="-136.5" font-family="Helvetica,sans-Serif" font-size="10.00">src/BoardManager.cpp</text>
</a>
</g>
</g>
<!-- Node5&#45;&gt;Node11 -->
<g id="edge12_Node000005_Node000011" class="edge">
<title>Node5&#45;&gt;Node11</title>
<g id="a_edge12_Node000005_Node000011"><a xlink:title=" ">
<path fill="none" stroke="#63b8ff" d="M693.47,-193.95C730.8,-181.12 786.85,-161.85 820.04,-150.44"/>
<polygon fill="#63b8ff" stroke="#63b8ff" points="692.76,-190.49 684.44,-197.05 695.03,-197.11 692.76,-190.49"/>
</a>
</g>
</g>
<!-- Node12 -->
<g id="Node000012" class="node">
<title>Node12</title>
<g id="a_Node000012"><a xlink:href="../../d1/d1e/_chat_manager_8cpp.html" target="_top" xlink:title=" ">
<polygon fill="white" stroke="#666666" points="1032.38,-150 922.62,-150 922.62,-130 1032.38,-130 1032.38,-150"/>
<text xml:space="preserve" text-anchor="middle" x="977.5" y="-136.5" font-family="Helvetica,sans-Serif" font-size="10.00">src/ChatManager.cpp</text>
</a>
</g>
</g>
<!-- Node5&#45;&gt;Node12 -->
<g id="edge13_Node000005_Node000012" class="edge">
<title>Node5&#45;&gt;Node12</title>
<g id="a_edge13_Node000005_Node000012"><a xlink:title=" ">
<path fill="none" stroke="#63b8ff" d="M717.14,-195.44C769.49,-185.48 846.56,-170.46 913.5,-156 921.42,-154.29 929.87,-152.37 937.95,-150.5"/>
<polygon fill="#63b8ff" stroke="#63b8ff" points="716.69,-191.97 707.52,-197.27 718,-198.84 716.69,-191.97"/>
</a>
</g>
</g>
<!-- Node13 -->
<g id="Node000013" class="node">
<title>Node13</title>
<g id="a_Node000013"><a xlink:href="../../d8/d6b/_peer_link_8cpp.html" target="_top" xlink:title=" ">
<polygon fill="white" stroke="#666666" points="222,-150 95,-150 95,-130 222,-130 222,-150"/>
<text xml:space="preserve" text-anchor="middle" x="158.5" y="-136.5" font-family="Helvetica,sans-Serif" font-size="10.00">src/network/PeerLink.cpp</text>
</a>
</g>
</g>
<!-- Node5&#45;&gt;Node13 -->
<g id="edge15_Node000005_Node000013" class="edge">
<title>Node5&#45;&gt;Node13</title>
<g id="a_edge15_Node000005_Node000013"><a xlink:title=" ">
<path fill="none" stroke="#63b8ff" d="M559,-197.7C472.85,-188.84 343.38,-174.19 231.5,-156 221.79,-154.42 211.42,-152.46 201.62,-150.48"/>
<polygon fill="#63b8ff" stroke="#63b8ff" points="558.53,-201.17 568.83,-198.7 559.24,-194.2 558.53,-201.17"/>
</a>
</g>
</g>
<!-- Node14 -->
<g id="Node000014" class="node">
<title>Node14</title>
<g id="a_Node000014"><a xlink:href="../../d3/d55/_signaling_client_8cpp.html" target="_top" xlink:title=" ">
<polygon fill="white" stroke="#666666" points="394.5,-150 240.5,-150 240.5,-130 394.5,-130 394.5,-150"/>
<text xml:space="preserve" text-anchor="middle" x="317.5" y="-136.5" font-family="Helvetica,sans-Serif" font-size="10.00">src/network/SignalingClient.cpp</text>
</a>
</g>
</g>
<!-- Node5&#45;&gt;Node14 -->
<g id="edge16_Node000005_Node000014" class="edge">
<title>Node5&#45;&gt;Node14</title>
<g id="a_edge16_Node000005_Node000014"><a xlink:title=" ">
<path fill="none" stroke="#63b8ff" d="M596.13,-195.41C530.75,-182.64 426.85,-162.35 366.11,-150.49"/>
<polygon fill="#63b8ff" stroke="#63b8ff" points="595.1,-198.77 605.59,-197.25 596.44,-191.9 595.1,-198.77"/>
</a>
</g>
</g>
<!-- Node15 -->
<g id="Node000015" class="node">
<title>Node15</title>
<g id="a_Node000015"><a xlink:href="../../d1/ddf/_signaling_server_8cpp.html" target="_top" xlink:title=" ">
<polygon fill="white" stroke="#666666" points="570,-150 413,-150 413,-130 570,-130 570,-150"/>
<text xml:space="preserve" text-anchor="middle" x="491.5" y="-136.5" font-family="Helvetica,sans-Serif" font-size="10.00">src/network/SignalingServer.cpp</text>
</a>
</g>
</g>
<!-- Node5&#45;&gt;Node15 -->
<g id="edge17_Node000005_Node000015" class="edge">
<title>Node5&#45;&gt;Node15</title>
<g id="a_edge17_Node000005_Node000015"><a xlink:title=" ">
<path fill="none" stroke="#63b8ff" d="M621.41,-193.28C589.55,-180.46 542.82,-161.65 514.95,-150.44"/>
<polygon fill="#63b8ff" stroke="#63b8ff" points="620.02,-196.49 630.6,-196.98 622.63,-190 620.02,-196.49"/>
</a>
</g>
</g>
<!-- Node7 -->
<g id="Node000007" class="node">
<title>Node7</title>
<g id="a_Node000007"><a xlink:href="../../d0/da4/_application_handler_8h.html" target="_top" xlink:title=" ">
<polygon fill="white" stroke="#666666" points="1245.38,-82 1105.62,-82 1105.62,-62 1245.38,-62 1245.38,-82"/>
<text xml:space="preserve" text-anchor="middle" x="1175.5" y="-68.5" font-family="Helvetica,sans-Serif" font-size="10.00">include/ApplicationHandler.h</text>
</a>
</g>
</g>
<!-- Node6&#45;&gt;Node7 -->
<g id="edge7_Node000006_Node000007" class="edge">
<title>Node6&#45;&gt;Node7</title>
<g id="a_edge7_Node000006_Node000007"><a xlink:title=" ">
<path fill="none" stroke="#63b8ff" d="M759.22,-127.59C766.71,-126.3 774.28,-125.07 781.5,-124 920.88,-103.31 957.19,-109.16 1096.5,-88 1106.99,-86.41 1118.21,-84.44 1128.81,-82.46"/>
<polygon fill="#63b8ff" stroke="#63b8ff" points="758.7,-124.13 749.46,-129.31 759.92,-131.02 758.7,-124.13"/>
</a>
</g>
</g>
<!-- Node9 -->
<g id="Node000009" class="node">
<title>Node9</title>
<g id="a_Node000009"><a xlink:href="../../d1/d06/_game_table_manager_8cpp.html" target="_top" xlink:title=" ">
<polygon fill="white" stroke="#666666" points="836.62,-82 698.38,-82 698.38,-62 836.62,-62 836.62,-82"/>
<text xml:space="preserve" text-anchor="middle" x="767.5" y="-68.5" font-family="Helvetica,sans-Serif" font-size="10.00">src/GameTableManager.cpp</text>
</a>
</g>
</g>
<!-- Node6&#45;&gt;Node9 -->
<g id="edge10_Node000006_Node000009" class="edge">
<title>Node6&#45;&gt;Node9</title>
<g id="a_edge10_Node000006_Node000009"><a xlink:title=" ">
<path fill="none" stroke="#63b8ff" d="M717.41,-121.61C730.33,-109.07 747.28,-92.63 757.78,-82.44"/>
<polygon fill="#63b8ff" stroke="#63b8ff" points="715.07,-119.01 710.33,-128.49 719.94,-124.04 715.07,-119.01"/>
</a>
</g>
</g>
<!-- Node6&#45;&gt;Node10 -->
<g id="edge11_Node000006_Node000010" class="edge">
<title>Node6&#45;&gt;Node10</title>
<g id="a_edge11_Node000006_Node000010"><a xlink:title=" ">
<path fill="none" stroke="#63b8ff" d="M675.62,-123.39C656.14,-110.67 629.28,-93.12 612.94,-82.44"/>
<polygon fill="#63b8ff" stroke="#63b8ff" points="673.48,-126.18 683.76,-128.72 677.31,-120.32 673.48,-126.18"/>
</a>
</g>
</g>
<!-- Node7&#45;&gt;Node3 -->
<g id="edge8_Node000007_Node000003" class="edge">
<title>Node7&#45;&gt;Node3</title>
<g id="a_edge8_Node000007_Node000003"><a xlink:title=" ">
<path fill="none" stroke="#63b8ff" d="M1120.58,-59.52C1112.53,-58.15 1104.32,-56.91 1096.5,-56 734.91,-13.99 297.78,-10.33 133.34,-10.6"/>
<polygon fill="#63b8ff" stroke="#63b8ff" points="1119.85,-62.94 1130.31,-61.27 1121.09,-56.06 1119.85,-62.94"/>
</a>
</g>
</g>
<!-- Node8 -->
<g id="Node000008" class="node">
<title>Node8</title>
<g id="a_Node000008"><a xlink:href="../../df/d0a/main_8cpp.html" target="_top" xlink:title=" ">
<polygon fill="white" stroke="#666666" points="1211.62,-20 1139.38,-20 1139.38,0 1211.62,0 1211.62,-20"/>
<text xml:space="preserve" text-anchor="middle" x="1175.5" y="-6.5" font-family="Helvetica,sans-Serif" font-size="10.00">src/main.cpp</text>
</a>
</g>
</g>
<!-- Node7&#45;&gt;Node8 -->
<g id="edge9_Node000007_Node000008" class="edge">
<title>Node7&#45;&gt;Node8</title>
<g id="a_edge9_Node000007_Node000008"><a xlink:title=" ">
<path fill="none" stroke="#63b8ff" d="M1175.5,-50.25C1175.5,-39.97 1175.5,-28.09 1175.5,-20.11"/>
<polygon fill="#63b8ff" stroke="#63b8ff" points="1172,-50.11 1175.5,-60.11 1179,-50.11 1172,-50.11"/>
</a>
</g>
</g>
<!-- Node16&#45;&gt;Node7 -->
<g id="edge19_Node000016_Node000007" class="edge">
<title>Node16&#45;&gt;Node7</title>
<g id="a_edge19_Node000016_Node000007"><a xlink:title=" ">
<path fill="none" stroke="#63b8ff" d="M1151.88,-114.02C1158.27,-102.93 1165.4,-90.55 1170.14,-82.32"/>
<polygon fill="#63b8ff" stroke="#63b8ff" points="1149.03,-111.97 1147.07,-122.38 1155.09,-115.46 1149.03,-111.97"/>
</a>
</g>
</g>
<!-- Node16&#45;&gt;Node17 -->
<g id="edge20_Node000016_Node000017" class="edge">
<title>Node16&#45;&gt;Node17</title>
<g id="a_edge20_Node000016_Node000017"><a xlink:title=" ">
<path fill="none" stroke="#63b8ff" d="M1100.56,-117.8C1083.88,-108.23 1064.55,-97.13 1049.29,-88.38"/>
<polygon fill="#63b8ff" stroke="#63b8ff" points="1098.81,-120.83 1109.22,-122.77 1102.29,-114.76 1098.81,-120.83"/>
</a>
</g>
</g>
<!-- Node18&#45;&gt;Node7 -->
<g id="edge22_Node000018_Node000007" class="edge">
<title>Node18&#45;&gt;Node7</title>
<g id="a_edge22_Node000018_Node000007"><a xlink:title=" ">
<path fill="none" stroke="#63b8ff" d="M1203.41,-180.33C1202.3,-163.9 1200.05,-142.51 1195.5,-124 1191.78,-108.85 1184.62,-92.18 1179.95,-82.16"/>
<polygon fill="#63b8ff" stroke="#63b8ff" points="1199.91,-180.5 1203.97,-190.29 1206.9,-180.1 1199.91,-180.5"/>
</a>
</g>
</g>
<!-- Node18&#45;&gt;Node16 -->
<g id="edge23_Node000018_Node000016" class="edge">
<title>Node18&#45;&gt;Node16</title>
<g id="a_edge23_Node000018_Node000016"><a xlink:title=" ">
<path fill="none" stroke="#63b8ff" d="M1180.86,-183.71C1171.59,-174.59 1161.23,-164.37 1152.96,-156.22"/>
<polygon fill="#63b8ff" stroke="#63b8ff" points="1178.3,-186.11 1187.88,-190.63 1183.21,-181.12 1178.3,-186.11"/>
</a>
</g>
</g>
<!-- Node18&#45;&gt;Node19 -->
<g id="edge24_Node000018_Node000019" class="edge">
<title>Node18&#45;&gt;Node19</title>
<g id="a_edge24_Node000018_Node000019"><a xlink:title=" ">
<path fill="none" stroke="#63b8ff" d="M1242.89,-186.06C1264.8,-174.11 1291.2,-159.71 1308.16,-150.46"/>
<polygon fill="#63b8ff" stroke="#63b8ff" points="1241.3,-182.94 1234.2,-190.8 1244.65,-189.09 1241.3,-182.94"/>
</a>
</g>
</g>
</g>
</svg>

<g id="navigator" transform="translate(0 0)" fill="#404254">
  <rect fill="#f2f5e9" fill-opacity="0.5" stroke="#606060" stroke-width=".5" x="0" y="0" width="60" height="60"/>
  <use id="zoomplus" xlink:href="#zoomPlus" x="17" y="9" onmousedown="handleZoom(evt,'in')"/>
  <use id="zoomminus" xlink:href="#zoomMin" x="42" y="9" onmousedown="handleZoom(evt,'out')"/>
  <use id="reset" xlink:href="#resetDef" x="30" y="36" onmousedown="handleReset()"/>
   <use id="arrowup" xlink:href="#arrowUp" x="0" y="0" onmousedown="handlePan(0,-1)"/>
  <use id="arrowright" xlink:href="#arrowRight" x="0" y="0" onmousedown="handlePan(1,0)"/>
  <use id="arrowdown" xlink:href="#arrowDown" x="0" y="0" onmousedown="handlePan(0,1)"/>
  <use id="arrowleft" xlink:href="#arrowLeft" x="0" y="0" onmousedown="handlePan(-1,0)"/>
</g>
<svg viewBox="0 0 15 15" width="100%" height="30px" preserveAspectRatio="xMaxYMin meet">
 <g id="arrow_out" transform="scale(0.3 0.3)">
  <a xlink:href="_im_gui_toaster_8h__dep__incl_org.svg" target="_base">
   <rect id="button" ry="5" rx="5" y="6" x="6" height="38" width="38"
        fill="#f2f5e9" fill-opacity="0.5" stroke="#606060" stroke-width="1.0"/>
   <path id="arrow"
     d="M 11.500037,31.436501 C 11.940474,20.09759 22.043105,11.32322 32.158766,21.979434 L 37.068811,17.246167 C 37.068811,17.246167 37.088388,32 37.088388,32 L 22.160133,31.978069 C 22.160133,31.978069 26.997745,27.140456 26.997745,27.140456 C 18.528582,18.264221 13.291696,25.230495 11.500037,31.436501 z"
     style="fill:#404040;"/>
  </a>
 </g>
</svg>

<style type='text/css'>
<![CDATA[
[data-mouse-over-selected='false'] { opacity: 0.7; }
[data-mouse-over-selected='true']  { opacity: 1.0; }
]]>
</style>
<script type="application/ecmascript"><![CDATA[
document.addEventListener('DOMContentLoaded', (event) => {
  highlightEdges();
  highlightAdjacentNodes();
});
]]></script>
</svg>
