<?xml version="1.0" encoding="UTF-8" standalone="no"?>
<!DOCTYPE svg PUBLIC "-//W3C//DTD SVG 1.1//EN"
 "http://www.w3.org/Graphics/SVG/1.1/DTD/svg11.dtd">
<!-- Generated by graphviz version 2.43.0 (0)
 -->
<!-- Title: Logger::LogEntry Pages: 1 -->
<svg width="170pt" height="164pt"
 viewBox="0.00 0.00 170.00 164.00" xmlns="http://www.w3.org/2000/svg" xmlns:xlink="http://www.w3.org/1999/xlink">
<g id="graph0" class="graph" transform="scale(1 1) rotate(0) translate(4 160)">
<title>Logger::LogEntry</title>
<!-- Node1 -->
<g id="Node000001" class="node">
<title>Node1</title>
<g id="a_Node000001"><a xlink:title=" ">
<polygon fill="#999999" stroke="transparent" points="121,-49 29,-49 29,0 121,0 121,-49"/>
<text text-anchor="start" x="34" y="-36.5" font-family="Helvetica,sans-Serif" font-size="10.00">Logger::LogEntry</text>
<text text-anchor="start" x="73" y="-21.5" font-family="Helvetica,sans-Serif" font-size="10.00"> </text>
<text text-anchor="start" x="73" y="-6.5" font-family="Helvetica,sans-Serif" font-size="10.00"> </text>
<polygon fill="#666666" stroke="#666666" points="29,-31.5 29,-31.5 121,-31.5 121,-31.5 29,-31.5"/>
<polygon fill="#666666" stroke="#666666" points="29,-16.5 29,-16.5 121,-16.5 121,-16.5 29,-16.5"/>
<polygon fill="none" stroke="#666666" points="29,0 29,-49 121,-49 121,0 29,0"/>
</a>
</g>
</g>
<!-- Node2 -->
<g id="Node000002" class="node">
<title>Node2</title>
<g id="a_Node000002"><a xlink:title=" ">
<polygon fill="white" stroke="transparent" points="38,-156 0,-156 0,-107 38,-107 38,-156"/>
<text text-anchor="start" x="5" y="-143.5" font-family="Helvetica,sans-Serif" font-size="10.00">string</text>
<text text-anchor="start" x="17" y="-128.5" font-family="Helvetica,sans-Serif" font-size="10.00"> </text>
<text text-anchor="start" x="17" y="-113.5" font-family="Helvetica,sans-Serif" font-size="10.00"> </text>
<polygon fill="#666666" stroke="#666666" points="0,-138.5 0,-138.5 38,-138.5 38,-138.5 0,-138.5"/>
<polygon fill="#666666" stroke="#666666" points="0,-123.5 0,-123.5 38,-123.5 38,-123.5 0,-123.5"/>
<polygon fill="none" stroke="#666666" points="0,-107 0,-156 38,-156 38,-107 0,-107"/>
</a>
</g>
</g>
<!-- Node2&#45;&gt;Node1 -->
<g id="edge1_Node000001_Node000002" class="edge">
<title>Node2&#45;&gt;Node1</title>
<g id="a_edge1_Node000001_Node000002"><a xlink:title=" ">
<path fill="none" stroke="#63b8ff" d="M24.47,-106.98C27.91,-94.61 33.03,-79.46 40,-67 41.49,-64.34 43.16,-61.68 44.95,-59.08"/>
<polygon fill="none" stroke="#63b8ff" points="45.04,-58.96 45.44,-51.76 52.25,-49.37 51.84,-56.57 45.04,-58.96"/>
</a>
</g>
<text text-anchor="middle" x="55.5" y="-81" font-family="Helvetica,sans-Serif" font-size="10.00" fill="grey"> +text</text>
<text text-anchor="middle" x="55.5" y="-70" font-family="Helvetica,sans-Serif" font-size="10.00" fill="grey">+tsStr</text>
</g>
<!-- Node3 -->
<g id="Node000003" class="node">
<title>Node3</title>
<g id="a_Node000003"><a xlink:title=" ">
<polygon fill="white" stroke="transparent" points="93.5,-156 56.5,-156 56.5,-107 93.5,-107 93.5,-156"/>
<text text-anchor="start" x="62" y="-143.5" font-family="Helvetica,sans-Serif" font-size="10.00">Level</text>
<text text-anchor="start" x="73.5" y="-128.5" font-family="Helvetica,sans-Serif" font-size="10.00"> </text>
<text text-anchor="start" x="73.5" y="-113.5" font-family="Helvetica,sans-Serif" font-size="10.00"> </text>
<polygon fill="#666666" stroke="#666666" points="57,-138.5 57,-138.5 94,-138.5 94,-138.5 57,-138.5"/>
<polygon fill="#666666" stroke="#666666" points="57,-123.5 57,-123.5 94,-123.5 94,-123.5 57,-123.5"/>
<polygon fill="none" stroke="#666666" points="56.5,-107 56.5,-156 93.5,-156 93.5,-107 56.5,-107"/>
</a>
</g>
</g>
<!-- Node3&#45;&gt;Node1 -->
<g id="edge2_Node000001_Node000003" class="edge">
<title>Node3&#45;&gt;Node1</title>
<g id="a_edge2_Node000001_Node000003"><a xlink:title=" ">
<path fill="none" stroke="#63b8ff" d="M75,-106.94C75,-93.52 75,-76.44 75,-61.39"/>
<polygon fill="none" stroke="#63b8ff" points="75,-61.35 71,-55.35 75,-49.35 79,-55.35 75,-61.35"/>
</a>
</g>
<text text-anchor="middle" x="93" y="-75.5" font-family="Helvetica,sans-Serif" font-size="10.00" fill="grey"> +level</text>
</g>
<!-- Node4 -->
<g id="Node000004" class="node">
<title>Node4</title>
<g id="a_Node000004"><a xlink:title=" ">
<polygon fill="white" stroke="transparent" points="162,-156 112,-156 112,-107 162,-107 162,-156"/>
<text text-anchor="start" x="117" y="-143.5" font-family="Helvetica,sans-Serif" font-size="10.00">uint64_t</text>
<text text-anchor="start" x="135" y="-128.5" font-family="Helvetica,sans-Serif" font-size="10.00"> </text>
<text text-anchor="start" x="135" y="-113.5" font-family="Helvetica,sans-Serif" font-size="10.00"> </text>
<polygon fill="#666666" stroke="#666666" points="112,-138.5 112,-138.5 162,-138.5 162,-138.5 112,-138.5"/>
<polygon fill="#666666" stroke="#666666" points="112,-123.5 112,-123.5 162,-123.5 162,-123.5 112,-123.5"/>
<polygon fill="none" stroke="#666666" points="112,-107 112,-156 162,-156 162,-107 112,-107"/>
</a>
</g>
</g>
<!-- Node4&#45;&gt;Node1 -->
<g id="edge3_Node000001_Node000004" class="edge">
<title>Node4&#45;&gt;Node1</title>
<g id="a_edge3_Node000001_Node000004"><a xlink:title=" ">
<path fill="none" stroke="#63b8ff" d="M131.43,-106.8C127.88,-94.37 122.5,-79.23 115,-67 113.18,-64.04 111.13,-61.12 108.93,-58.29"/>
<polygon fill="none" stroke="#63b8ff" points="108.82,-58.16 101.88,-56.19 101.03,-49.03 107.97,-51 108.82,-58.16"/>
</a>
</g>
<text text-anchor="middle" x="142.5" y="-75.5" font-family="Helvetica,sans-Serif" font-size="10.00" fill="grey"> +tsMs</text>
</g>
</g>
</svg>
