<?xml version="1.0" encoding="UTF-8" standalone="no"?>
<!DOCTYPE svg PUBLIC "-//W3C//DTD SVG 1.1//EN"
 "http://www.w3.org/Graphics/SVG/1.1/DTD/svg11.dtd">
<!-- Generated by graphviz version 2.43.0 (0)
 -->
<!-- Title: Serializer::serializePosition Pages: 1 -->
<!--zoomable 249 -->

<svg id="main" version="1.1" xmlns="http://www.w3.org/2000/svg" xmlns:xlink="http://www.w3.org/1999/xlink" xml:space="preserve" onload="init(evt)">
<style type="text/css"><![CDATA[
.node, .edge {opacity: 0.7;}
.node.selected, .edge.selected {opacity: 1;}
.edge:hover path { stroke: red; }
.edge:hover polygon { stroke: red; fill: red; }
]]></style>

<defs>
  <circle id="rim" cx="0" cy="0" r="7"/>
  <circle id="rim2" cx="0" cy="0" r="3.5"/>
  <g id="zoomPlus">
    <use xlink:href="#rim" fill="#404040"><set attributeName="fill" to="#808080" begin="zoomplus.mouseover" end="zoomplus.mouseout"/></use>
    <path d="M-4,0h8M0,-4v8" fill="none" stroke="white" stroke-width="1.5" pointer-events="none"/>
  </g>
  <g id="zoomMin">
    <use xlink:href="#rim" fill="#404040"><set attributeName="fill" to="#808080" begin="zoomminus.mouseover" end="zoomminus.mouseout"/></use>
    <path d="M-4,0h8" fill="none" stroke="white" stroke-width="1.5" pointer-events="none"/>
  </g>
  <g id="arrowUp" transform="translate(30 24)">
    <use xlink:href="#rim"/>
    <path pointer-events="none" fill="none" stroke="white" stroke-width="1.5" d="M0,-3.0v7 M-2.5,-0.5L0,-3.0L2.5,-0.5"/>
  </g>
  <g id="arrowRight" transform="rotate(90) translate(36 -43)">
    <use xlink:href="#rim"/>
    <path pointer-events="none" fill="none" stroke="white" stroke-width="1.5" d="M0,-3.0v7 M-2.5,-0.5L0,-3.0L2.5,-0.5"/>
  </g>
  <g id="arrowDown" transform="rotate(180) translate(-30 -48)">
    <use xlink:href="#rim"/>
    <path pointer-events="none" fill="none" stroke="white" stroke-width="1.5" d="M0,-3.0v7 M-2.5,-0.5L0,-3.0L2.5,-0.5"/>
  </g>
  <g id="arrowLeft" transform="rotate(270) translate(-36 17)">
    <use xlink:href="#rim"/>
    <path pointer-events="none" fill="none" stroke="white" stroke-width="1.5" d="M0,-3.0v7 M-2.5,-0.5L0,-3.0L2.5,-0.5"/>
  </g>
  <g id="resetDef">
    <use xlink:href="#rim2" fill="#404040"><set attributeName="fill" to="#808080" begin="reset.mouseover" end="reset.mouseout"/></use>
  </g>
</defs>
<script type="application/ecmascript">
var viewWidth = 970;
var viewHeight = 249;
var sectionId = 'dynsection-61';
</script>
<script type="application/ecmascript" xlink:href="../../svg.min.js"/>
<svg id="graph" class="graph">
<g id="viewport">
<title>Serializer::serializePosition</title>
<!-- Node1 -->
<g id="Node000001" class="node">
<title>Node1</title>
<g id="a_Node000001"><a xlink:title=" ">
<polygon fill="#999999" stroke="#666666" points="962,-130 813,-130 813,-111 962,-111 962,-130"/>
<text text-anchor="middle" x="887.5" y="-118" font-family="Helvetica,sans-Serif" font-size="10.00">Serializer::serializePosition</text>
</a>
</g>
</g>
<!-- Node2 -->
<g id="Node000002" class="node">
<title>Node2</title>
<g id="a_Node000002"><a xlink:href="../../d6/d6f/classNetworkManager.html#abb704d7511a6b3f8e125f8371ea3b97d" target="_top" xlink:title=" ">
<polygon fill="white" stroke="#666666" points="766.5,-241 539.5,-241 539.5,-222 766.5,-222 766.5,-241"/>
<text text-anchor="middle" x="653" y="-229" font-family="Helvetica,sans-Serif" font-size="10.00">NetworkManager::buildCreateMarkerFrame</text>
</a>
</g>
</g>
<!-- Node1&#45;&gt;Node2 -->
<g id="edge1_Node000001_Node000002" class="edge">
<title>Node1&#45;&gt;Node2</title>
<g id="a_edge1_Node000001_Node000002"><a xlink:title=" ">
<path fill="none" stroke="#63b8ff" d="M871.84,-137.87C852.51,-159.49 816.32,-195.72 777,-213.5 769.53,-216.88 761.56,-219.65 753.42,-221.92"/>
<polygon fill="#63b8ff" stroke="#63b8ff" points="874.67,-139.95 878.61,-130.11 869.4,-135.34 874.67,-139.95"/>
</a>
</g>
</g>
<!-- Node5 -->
<g id="Node000005" class="node">
<title>Node5</title>
<g id="a_Node000005"><a xlink:href="../../d6/d6f/classNetworkManager.html#a0aadf47f716f74e1fa0cf810715bedc2" target="_top" xlink:title=" ">
<polygon fill="white" stroke="#666666" points="758.5,-204 547.5,-204 547.5,-185 758.5,-185 758.5,-204"/>
<text text-anchor="middle" x="653" y="-192" font-family="Helvetica,sans-Serif" font-size="10.00">NetworkManager::buildFogCreateFrame</text>
</a>
</g>
</g>
<!-- Node1&#45;&gt;Node5 -->
<g id="edge4_Node000001_Node000005" class="edge">
<title>Node1&#45;&gt;Node5</title>
<g id="a_edge4_Node000001_Node000005"><a xlink:title=" ">
<path fill="none" stroke="#63b8ff" d="M862.83,-135.5C841.29,-148.43 808.18,-166.54 777,-176.5 766.21,-179.95 754.67,-182.74 743.14,-184.99"/>
<polygon fill="#63b8ff" stroke="#63b8ff" points="864.89,-138.34 871.59,-130.14 861.23,-132.37 864.89,-138.34"/>
</a>
</g>
</g>
<!-- Node8 -->
<g id="Node000008" class="node">
<title>Node8</title>
<g id="a_Node000008"><a xlink:href="../../d6/d6f/classNetworkManager.html#a22a74f98b0c9341e369396bd22685055" target="_top" xlink:title=" ">
<polygon fill="white" stroke="#666666" points="760,-167 546,-167 546,-148 760,-148 760,-167"/>
<text text-anchor="middle" x="653" y="-155" font-family="Helvetica,sans-Serif" font-size="10.00">NetworkManager::buildFogUpdateFrame</text>
</a>
</g>
</g>
<!-- Node1&#45;&gt;Node8 -->
<g id="edge7_Node000001_Node000008" class="edge">
<title>Node1&#45;&gt;Node8</title>
<g id="a_edge7_Node000001_Node000008"><a xlink:title=" ">
<path fill="none" stroke="#63b8ff" d="M823.09,-131.8C808,-134.4 791.94,-137.11 777,-139.5 758.99,-142.38 739.47,-145.32 721.4,-147.97"/>
<polygon fill="#63b8ff" stroke="#63b8ff" points="824.11,-135.17 833.36,-130.01 822.91,-128.28 824.11,-135.17"/>
</a>
</g>
</g>
<!-- Node11 -->
<g id="Node000011" class="node">
<title>Node11</title>
<g id="a_Node000011"><a xlink:href="../../d6/d6f/classNetworkManager.html#ab8fd392b2bcef38aa4c9ab92a7d73fe3" target="_top" xlink:title=" ">
<polygon fill="white" stroke="#666666" points="764,-130 542,-130 542,-111 764,-111 764,-130"/>
<text text-anchor="middle" x="653" y="-118" font-family="Helvetica,sans-Serif" font-size="10.00">NetworkManager::buildMarkerMoveFrame</text>
</a>
</g>
</g>
<!-- Node1&#45;&gt;Node11 -->
<g id="edge10_Node000001_Node000011" class="edge">
<title>Node1&#45;&gt;Node11</title>
<g id="a_edge10_Node000001_Node000011"><a xlink:title=" ">
<path fill="none" stroke="#63b8ff" d="M802.56,-120.5C790.05,-120.5 776.99,-120.5 764.04,-120.5"/>
<polygon fill="#63b8ff" stroke="#63b8ff" points="802.94,-124 812.94,-120.5 802.94,-117 802.94,-124"/>
</a>
</g>
</g>
<!-- Node14 -->
<g id="Node000014" class="node">
<title>Node14</title>
<g id="a_Node000014"><a xlink:href="../../d6/d6f/classNetworkManager.html#ae2eab0e91a7b37d26c273e4b0319a21c" target="_top" xlink:title=" ">
<polygon fill="white" stroke="#666666" points="777,-93 529,-93 529,-74 777,-74 777,-93"/>
<text text-anchor="middle" x="653" y="-81" font-family="Helvetica,sans-Serif" font-size="10.00">NetworkManager::buildMarkerMoveStateFrame</text>
</a>
</g>
</g>
<!-- Node1&#45;&gt;Node14 -->
<g id="edge13_Node000001_Node000014" class="edge">
<title>Node1&#45;&gt;Node14</title>
<g id="a_edge13_Node000001_Node000014"><a xlink:title=" ">
<path fill="none" stroke="#63b8ff" d="M819.12,-109.32C805.2,-107.04 790.63,-104.67 777,-102.5 757.26,-99.35 735.73,-96 716.28,-93"/>
<polygon fill="#63b8ff" stroke="#63b8ff" points="818.68,-112.79 829.12,-110.96 819.82,-105.89 818.68,-112.79"/>
</a>
</g>
</g>
<!-- Node17 -->
<g id="Node000017" class="node">
<title>Node17</title>
<g id="a_Node000017"><a xlink:href="../../db/d4b/classSerializer.html#a1440a54bfe30bdaee9873faf051305cc" target="_top" xlink:title=" ">
<polygon fill="white" stroke="#666666" points="730.5,-56 575.5,-56 575.5,-37 730.5,-37 730.5,-56"/>
<text text-anchor="middle" x="653" y="-44" font-family="Helvetica,sans-Serif" font-size="10.00">Serializer::serializeFogEntity</text>
</a>
</g>
</g>
<!-- Node1&#45;&gt;Node17 -->
<g id="edge16_Node000001_Node000017" class="edge">
<title>Node1&#45;&gt;Node17</title>
<g id="a_edge16_Node000001_Node000017"><a xlink:title=" ">
<path fill="none" stroke="#63b8ff" d="M862.41,-105.63C840.82,-92.99 807.89,-75.37 777,-65.5 762.28,-60.8 746.19,-57.24 730.64,-54.55"/>
<polygon fill="#63b8ff" stroke="#63b8ff" points="860.82,-108.76 871.2,-110.87 864.4,-102.74 860.82,-108.76"/>
</a>
</g>
</g>
<!-- Node18 -->
<g id="Node000018" class="node">
<title>Node18</title>
<g id="a_Node000018"><a xlink:href="../../db/d4b/classSerializer.html#a8799545c0b1ea86a5447cbcd1d0a733c" target="_top" xlink:title=" ">
<polygon fill="white" stroke="#666666" points="739,-19 567,-19 567,0 739,0 739,-19"/>
<text text-anchor="middle" x="653" y="-7" font-family="Helvetica,sans-Serif" font-size="10.00">Serializer::serializeMarkerEntity</text>
</a>
</g>
</g>
<!-- Node1&#45;&gt;Node18 -->
<g id="edge17_Node000001_Node000018" class="edge">
<title>Node1&#45;&gt;Node18</title>
<g id="a_edge17_Node000001_Node000018"><a xlink:title=" ">
<path fill="none" stroke="#63b8ff" d="M871.48,-103.04C852.01,-81.67 815.92,-46.16 777,-28.5 765.19,-23.14 752.17,-19.25 739.14,-16.44"/>
<polygon fill="#63b8ff" stroke="#63b8ff" points="869.06,-105.58 878.32,-110.73 874.29,-100.93 869.06,-105.58"/>
</a>
</g>
</g>
<!-- Node3 -->
<g id="Node000003" class="node">
<title>Node3</title>
<g id="a_Node000003"><a xlink:href="../../d6/d6f/classNetworkManager.html#a88303e860c818888a1cdd7d40bc19bf3" target="_top" xlink:title=" ">
<polygon fill="white" stroke="#666666" points="467,-241 303,-241 303,-222 467,-222 467,-241"/>
<text text-anchor="middle" x="385" y="-229" font-family="Helvetica,sans-Serif" font-size="10.00">NetworkManager::sendMarker</text>
</a>
</g>
</g>
<!-- Node2&#45;&gt;Node3 -->
<g id="edge2_Node000002_Node000003" class="edge">
<title>Node2&#45;&gt;Node3</title>
<g id="a_edge2_Node000002_Node000003"><a xlink:title=" ">
<path fill="none" stroke="#63b8ff" d="M528.93,-231.5C507.96,-231.5 486.65,-231.5 467.12,-231.5"/>
<polygon fill="#63b8ff" stroke="#63b8ff" points="529.19,-235 539.19,-231.5 529.19,-228 529.19,-235"/>
</a>
</g>
</g>
<!-- Node4 -->
<g id="Node000004" class="node">
<title>Node4</title>
<g id="a_Node000004"><a xlink:href="../../d6/d6f/classNetworkManager.html#a1548090a456937ffafda64318f21ba40" target="_top" xlink:title=" ">
<polygon fill="white" stroke="#666666" points="214.5,-241 26.5,-241 26.5,-222 214.5,-222 214.5,-241"/>
<text text-anchor="middle" x="120.5" y="-229" font-family="Helvetica,sans-Serif" font-size="10.00">NetworkManager::broadcastMarker</text>
</a>
</g>
</g>
<!-- Node3&#45;&gt;Node4 -->
<g id="edge3_Node000003_Node000004" class="edge">
<title>Node3&#45;&gt;Node4</title>
<g id="a_edge3_Node000003_Node000004"><a xlink:title=" ">
<path fill="none" stroke="#63b8ff" d="M292.48,-231.5C267.32,-231.5 240.02,-231.5 214.77,-231.5"/>
<polygon fill="#63b8ff" stroke="#63b8ff" points="292.74,-235 302.74,-231.5 292.74,-228 292.74,-235"/>
</a>
</g>
</g>
<!-- Node6 -->
<g id="Node000006" class="node">
<title>Node6</title>
<g id="a_Node000006"><a xlink:href="../../d6/d6f/classNetworkManager.html#aca07ad2cb1e034fe5ac1f6c88df2d7a0" target="_top" xlink:title=" ">
<polygon fill="white" stroke="#666666" points="458.5,-204 311.5,-204 311.5,-185 458.5,-185 458.5,-204"/>
<text text-anchor="middle" x="385" y="-192" font-family="Helvetica,sans-Serif" font-size="10.00">NetworkManager::sendFog</text>
</a>
</g>
</g>
<!-- Node5&#45;&gt;Node6 -->
<g id="edge5_Node000005_Node000006" class="edge">
<title>Node5&#45;&gt;Node6</title>
<g id="a_edge5_Node000005_Node000006"><a xlink:title=" ">
<path fill="none" stroke="#63b8ff" d="M537.11,-194.5C510.48,-194.5 482.88,-194.5 458.66,-194.5"/>
<polygon fill="#63b8ff" stroke="#63b8ff" points="537.25,-198 547.25,-194.5 537.25,-191 537.25,-198"/>
</a>
</g>
</g>
<!-- Node7 -->
<g id="Node000007" class="node">
<title>Node7</title>
<g id="a_Node000007"><a xlink:href="../../d6/d6f/classNetworkManager.html#ac9b0019724cae52ed6be8fb853fa62e5" target="_top" xlink:title=" ">
<polygon fill="white" stroke="#666666" points="206.5,-204 34.5,-204 34.5,-185 206.5,-185 206.5,-204"/>
<text text-anchor="middle" x="120.5" y="-192" font-family="Helvetica,sans-Serif" font-size="10.00">NetworkManager::broadcastFog</text>
</a>
</g>
</g>
<!-- Node6&#45;&gt;Node7 -->
<g id="edge6_Node000006_Node000007" class="edge">
<title>Node6&#45;&gt;Node7</title>
<g id="a_edge6_Node000006_Node000007"><a xlink:title=" ">
<path fill="none" stroke="#63b8ff" d="M301.16,-194.5C270.99,-194.5 236.85,-194.5 206.5,-194.5"/>
<polygon fill="#63b8ff" stroke="#63b8ff" points="301.23,-198 311.23,-194.5 301.23,-191 301.23,-198"/>
</a>
</g>
</g>
<!-- Node9 -->
<g id="Node000009" class="node">
<title>Node9</title>
<g id="a_Node000009"><a xlink:href="../../d6/d6f/classNetworkManager.html#a3684a5a4e823449e8006c323faf54f8a" target="_top" xlink:title=" ">
<polygon fill="white" stroke="#666666" points="476,-167 294,-167 294,-148 476,-148 476,-167"/>
<text text-anchor="middle" x="385" y="-155" font-family="Helvetica,sans-Serif" font-size="10.00">NetworkManager::sendFogUpdate</text>
</a>
</g>
</g>
<!-- Node8&#45;&gt;Node9 -->
<g id="edge8_Node000008_Node000009" class="edge">
<title>Node8&#45;&gt;Node9</title>
<g id="a_edge8_Node000008_Node000009"><a xlink:title=" ">
<path fill="none" stroke="#63b8ff" d="M535.69,-157.5C515.78,-157.5 495.37,-157.5 476.27,-157.5"/>
<polygon fill="#63b8ff" stroke="#63b8ff" points="535.72,-161 545.72,-157.5 535.72,-154 535.72,-161"/>
</a>
</g>
</g>
<!-- Node10 -->
<g id="Node000010" class="node">
<title>Node10</title>
<g id="a_Node000010"><a xlink:href="../../d6/d6f/classNetworkManager.html#a952cf99cf04e63f0a0674f06ab8ec4bb" target="_top" xlink:title=" ">
<polygon fill="white" stroke="#666666" points="224,-167 17,-167 17,-148 224,-148 224,-167"/>
<text text-anchor="middle" x="120.5" y="-155" font-family="Helvetica,sans-Serif" font-size="10.00">NetworkManager::broadcastFogUpdate</text>
</a>
</g>
</g>
<!-- Node9&#45;&gt;Node10 -->
<g id="edge9_Node000009_Node000010" class="edge">
<title>Node9&#45;&gt;Node10</title>
<g id="a_edge9_Node000009_Node000010"><a xlink:title=" ">
<path fill="none" stroke="#63b8ff" d="M283.58,-157.5C264.12,-157.5 243.7,-157.5 224.17,-157.5"/>
<polygon fill="#63b8ff" stroke="#63b8ff" points="283.66,-161 293.66,-157.5 283.66,-154 283.66,-161"/>
</a>
</g>
</g>
<!-- Node12 -->
<g id="Node000012" class="node">
<title>Node12</title>
<g id="a_Node000012"><a xlink:href="../../d6/d6f/classNetworkManager.html#a30523648225cb5f4e628c5daa19f4719" target="_top" xlink:title=" ">
<polygon fill="white" stroke="#666666" points="480.5,-130 289.5,-130 289.5,-111 480.5,-111 480.5,-130"/>
<text text-anchor="middle" x="385" y="-118" font-family="Helvetica,sans-Serif" font-size="10.00">NetworkManager::sendMarkerMove</text>
</a>
</g>
</g>
<!-- Node11&#45;&gt;Node12 -->
<g id="edge11_Node000011_Node000012" class="edge">
<title>Node11&#45;&gt;Node12</title>
<g id="a_edge11_Node000011_Node000012"><a xlink:title=" ">
<path fill="none" stroke="#63b8ff" d="M531.85,-120.5C514.73,-120.5 497.32,-120.5 480.77,-120.5"/>
<polygon fill="#63b8ff" stroke="#63b8ff" points="531.89,-124 541.89,-120.5 531.89,-117 531.89,-124"/>
</a>
</g>
</g>
<!-- Node13 -->
<g id="Node000013" class="node">
<title>Node13</title>
<g id="a_Node000013"><a xlink:href="../../d6/d6f/classNetworkManager.html#a2c3da3e8d0493153ac8dea2dcda3bfbd" target="_top" xlink:title=" ">
<polygon fill="white" stroke="#666666" points="228,-130 13,-130 13,-111 228,-111 228,-130"/>
<text text-anchor="middle" x="120.5" y="-118" font-family="Helvetica,sans-Serif" font-size="10.00">NetworkManager::broadcastMarkerMove</text>
</a>
</g>
</g>
<!-- Node12&#45;&gt;Node13 -->
<g id="edge12_Node000012_Node000013" class="edge">
<title>Node12&#45;&gt;Node13</title>
<g id="a_edge12_Node000012_Node000013"><a xlink:title=" ">
<path fill="none" stroke="#63b8ff" d="M278.91,-120.5C262.2,-120.5 244.9,-120.5 228.15,-120.5"/>
<polygon fill="#63b8ff" stroke="#63b8ff" points="279.23,-124 289.23,-120.5 279.23,-117 279.23,-124"/>
</a>
</g>
</g>
<!-- Node15 -->
<g id="Node000015" class="node">
<title>Node15</title>
<g id="a_Node000015"><a xlink:href="../../d6/d6f/classNetworkManager.html#a50e4f0f235f999ccac9a2848c14433c6" target="_top" xlink:title=" ">
<polygon fill="white" stroke="#666666" points="493,-93 277,-93 277,-74 493,-74 493,-93"/>
<text text-anchor="middle" x="385" y="-81" font-family="Helvetica,sans-Serif" font-size="10.00">NetworkManager::sendMarkerMoveState</text>
</a>
</g>
</g>
<!-- Node14&#45;&gt;Node15 -->
<g id="edge14_Node000014_Node000015" class="edge">
<title>Node14&#45;&gt;Node15</title>
<g id="a_edge14_Node000014_Node000015"><a xlink:title=" ">
<path fill="none" stroke="#63b8ff" d="M518.46,-83.5C510.04,-83.5 501.62,-83.5 493.33,-83.5"/>
<polygon fill="#63b8ff" stroke="#63b8ff" points="518.73,-87 528.73,-83.5 518.73,-80 518.73,-87"/>
</a>
</g>
</g>
<!-- Node16 -->
<g id="Node000016" class="node">
<title>Node16</title>
<g id="a_Node000016"><a xlink:href="../../d6/d6f/classNetworkManager.html#a53b60b6286f20a92807205dd2f71c200" target="_top" xlink:title=" ">
<polygon fill="white" stroke="#666666" points="241,-93 0,-93 0,-74 241,-74 241,-93"/>
<text text-anchor="middle" x="120.5" y="-81" font-family="Helvetica,sans-Serif" font-size="10.00">NetworkManager::broadcastMarkerMoveState</text>
</a>
</g>
</g>
<!-- Node15&#45;&gt;Node16 -->
<g id="edge15_Node000015_Node000016" class="edge">
<title>Node15&#45;&gt;Node16</title>
<g id="a_edge15_Node000015_Node000016"><a xlink:title=" ">
<path fill="none" stroke="#63b8ff" d="M266.59,-83.5C258.14,-83.5 249.61,-83.5 241.15,-83.5"/>
<polygon fill="#63b8ff" stroke="#63b8ff" points="266.85,-87 276.85,-83.5 266.85,-80 266.85,-87"/>
</a>
</g>
</g>
</g>
</svg>

<g id="navigator" transform="translate(0 0)" fill="#404254">
  <rect fill="#f2f5e9" fill-opacity="0.5" stroke="#606060" stroke-width=".5" x="0" y="0" width="60" height="60"/>
  <use id="zoomplus" xlink:href="#zoomPlus" x="17" y="9" onmousedown="handleZoom(evt,'in')"/>
  <use id="zoomminus" xlink:href="#zoomMin" x="42" y="9" onmousedown="handleZoom(evt,'out')"/>
  <use id="reset" xlink:href="#resetDef" x="30" y="36" onmousedown="handleReset()"/>
   <use id="arrowup" xlink:href="#arrowUp" x="0" y="0" onmousedown="handlePan(0,-1)"/>
  <use id="arrowright" xlink:href="#arrowRight" x="0" y="0" onmousedown="handlePan(1,0)"/>
  <use id="arrowdown" xlink:href="#arrowDown" x="0" y="0" onmousedown="handlePan(0,1)"/>
  <use id="arrowleft" xlink:href="#arrowLeft" x="0" y="0" onmousedown="handlePan(-1,0)"/>
</g>
<svg viewBox="0 0 15 15" width="100%" height="30px" preserveAspectRatio="xMaxYMin meet">
 <g id="arrow_out" transform="scale(0.3 0.3)">
  <a xlink:href="classSerializer_a9552a2e71fe480af903507fb148c8964_icgraph_org.svg" target="_base">
   <rect id="button" ry="5" rx="5" y="6" x="6" height="38" width="38"
        fill="#f2f5e9" fill-opacity="0.5" stroke="#606060" stroke-width="1.0"/>
   <path id="arrow"
     d="M 11.500037,31.436501 C 11.940474,20.09759 22.043105,11.32322 32.158766,21.979434 L 37.068811,17.246167 C 37.068811,17.246167 37.088388,32 37.088388,32 L 22.160133,31.978069 C 22.160133,31.978069 26.997745,27.140456 26.997745,27.140456 C 18.528582,18.264221 13.291696,25.230495 11.500037,31.436501 z"
     style="fill:#404040;"/>
  </a>
 </g>
</svg>

<style type='text/css'>
<![CDATA[
[data-mouse-over-selected='false'] { opacity: 0.7; }
[data-mouse-over-selected='true']  { opacity: 1.0; }
]]>
</style>
<script type="application/ecmascript"><![CDATA[
document.addEventListener('DOMContentLoaded', (event) => {
  highlightEdges();
  highlightAdjacentNodes();
});
]]></script>
</svg>
