<?xml version="1.0" encoding="UTF-8" standalone="no"?>
<!DOCTYPE svg PUBLIC "-//W3C//DTD SVG 1.1//EN"
 "http://www.w3.org/Graphics/SVG/1.1/DTD/svg11.dtd">
<!-- Generated by graphviz version 2.43.0 (0)
 -->
<!-- Title: Serializer::deserializeGameTableEntity Pages: 1 -->
<!--zoomable 473 -->

<svg id="main" version="1.1" xmlns="http://www.w3.org/2000/svg" xmlns:xlink="http://www.w3.org/1999/xlink" xml:space="preserve" onload="init(evt)">
<style type="text/css"><![CDATA[
.node, .edge {opacity: 0.7;}
.node.selected, .edge.selected {opacity: 1;}
.edge:hover path { stroke: red; }
.edge:hover polygon { stroke: red; fill: red; }
]]></style>

<defs>
  <circle id="rim" cx="0" cy="0" r="7"/>
  <circle id="rim2" cx="0" cy="0" r="3.5"/>
  <g id="zoomPlus">
    <use xlink:href="#rim" fill="#404040"><set attributeName="fill" to="#808080" begin="zoomplus.mouseover" end="zoomplus.mouseout"/></use>
    <path d="M-4,0h8M0,-4v8" fill="none" stroke="white" stroke-width="1.5" pointer-events="none"/>
  </g>
  <g id="zoomMin">
    <use xlink:href="#rim" fill="#404040"><set attributeName="fill" to="#808080" begin="zoomminus.mouseover" end="zoomminus.mouseout"/></use>
    <path d="M-4,0h8" fill="none" stroke="white" stroke-width="1.5" pointer-events="none"/>
  </g>
  <g id="arrowUp" transform="translate(30 24)">
    <use xlink:href="#rim"/>
    <path pointer-events="none" fill="none" stroke="white" stroke-width="1.5" d="M0,-3.0v7 M-2.5,-0.5L0,-3.0L2.5,-0.5"/>
  </g>
  <g id="arrowRight" transform="rotate(90) translate(36 -43)">
    <use xlink:href="#rim"/>
    <path pointer-events="none" fill="none" stroke="white" stroke-width="1.5" d="M0,-3.0v7 M-2.5,-0.5L0,-3.0L2.5,-0.5"/>
  </g>
  <g id="arrowDown" transform="rotate(180) translate(-30 -48)">
    <use xlink:href="#rim"/>
    <path pointer-events="none" fill="none" stroke="white" stroke-width="1.5" d="M0,-3.0v7 M-2.5,-0.5L0,-3.0L2.5,-0.5"/>
  </g>
  <g id="arrowLeft" transform="rotate(270) translate(-36 17)">
    <use xlink:href="#rim"/>
    <path pointer-events="none" fill="none" stroke="white" stroke-width="1.5" d="M0,-3.0v7 M-2.5,-0.5L0,-3.0L2.5,-0.5"/>
  </g>
  <g id="resetDef">
    <use xlink:href="#rim2" fill="#404040"><set attributeName="fill" to="#808080" begin="reset.mouseover" end="reset.mouseout"/></use>
  </g>
</defs>
<script type="application/ecmascript">
var viewWidth = 1266;
var viewHeight = 473;
var sectionId = 'dynsection-11';
</script>
<script type="application/ecmascript" xlink:href="../../svg.min.js"/>
<svg id="graph" class="graph">
<g id="viewport">
<title>Serializer::deserializeGameTableEntity</title>
<!-- Node1 -->
<g id="Node000001" class="node">
<title>Node1</title>
<g id="a_Node000001"><a xlink:title=" ">
<polygon fill="#999999" stroke="#666666" points="205,-353.88 0,-353.88 0,-334.88 205,-334.88 205,-353.88"/>
<text text-anchor="middle" x="102.5" y="-341.88" font-family="Helvetica,sans-Serif" font-size="10.00">Serializer::deserializeGameTableEntity</text>
</a>
</g>
</g>
<!-- Node2 -->
<g id="Node000002" class="node">
<title>Node2</title>
<g id="a_Node000002"><a xlink:href="../../db/d4b/classSerializer.html#aff25e5361ee486db1fb453b6ec1f8acf" target="_top" xlink:title=" ">
<polygon fill="white" stroke="#666666" points="420,-249.88 241,-249.88 241,-230.88 420,-230.88 420,-249.88"/>
<text text-anchor="middle" x="330.5" y="-237.88" font-family="Helvetica,sans-Serif" font-size="10.00">Serializer::deserializeBoardEntity</text>
</a>
</g>
</g>
<!-- Node1&#45;&gt;Node2 -->
<g id="edge1_Node000001_Node000002" class="edge">
<title>Node1&#45;&gt;Node2</title>
<g id="a_edge1_Node000001_Node000002"><a xlink:title=" ">
<path fill="none" stroke="#63b8ff" d="M124.36,-334.78C164.55,-316.28 252.87,-275.64 299.43,-254.22"/>
<polygon fill="#63b8ff" stroke="#63b8ff" points="301.07,-257.31 308.69,-249.95 298.15,-250.95 301.07,-257.31"/>
</a>
</g>
</g>
<!-- Node5 -->
<g id="Node000005" class="node">
<title>Node5</title>
<g id="a_Node000005"><a xlink:href="../../db/d4b/classSerializer.html#a45c8b78e8467c6f7dba85fd7a21c8781" target="_top" xlink:title=" ">
<polygon fill="white" stroke="#666666" points="1252,-379.88 1118,-379.88 1118,-360.88 1252,-360.88 1252,-379.88"/>
<text text-anchor="middle" x="1185" y="-367.88" font-family="Helvetica,sans-Serif" font-size="10.00">Serializer::deserializeInt</text>
</a>
</g>
</g>
<!-- Node1&#45;&gt;Node5 -->
<g id="edge40_Node000001_Node000005" class="edge">
<title>Node1&#45;&gt;Node5</title>
<g id="a_edge40_Node000001_Node000005"><a xlink:title=" ">
<path fill="none" stroke="#63b8ff" d="M123.74,-354.08C185.6,-382.79 378.2,-465.38 547,-465.38 547,-465.38 547,-465.38 784,-465.38 915.24,-465.38 950.44,-459.58 1076,-421.38 1105.72,-412.33 1137.65,-396.41 1159.02,-384.75"/>
<polygon fill="#63b8ff" stroke="#63b8ff" points="1160.72,-387.81 1167.77,-379.89 1157.33,-381.69 1160.72,-387.81"/>
</a>
</g>
</g>
<!-- Node10 -->
<g id="Node000010" class="node">
<title>Node10</title>
<g id="a_Node000010"><a xlink:href="../../db/d4b/classSerializer.html#abc991f78f5490e60783620ab4c3444e6" target="_top" xlink:title=" ">
<polygon fill="white" stroke="#666666" points="860,-24.88 706,-24.88 706,-5.88 860,-5.88 860,-24.88"/>
<text text-anchor="middle" x="783" y="-12.88" font-family="Helvetica,sans-Serif" font-size="10.00">Serializer::deserializeUInt64</text>
</a>
</g>
</g>
<!-- Node1&#45;&gt;Node10 -->
<g id="edge41_Node000001_Node000010" class="edge">
<title>Node1&#45;&gt;Node10</title>
<g id="a_edge41_Node000001_Node000010"><a xlink:title=" ">
<path fill="none" stroke="#63b8ff" d="M110.22,-334.66C142.2,-289.32 284.64,-97.89 456,-28.38 538.5,5.09 642.59,2.36 710.65,-4.73"/>
<polygon fill="#63b8ff" stroke="#63b8ff" points="710.52,-8.24 720.84,-5.86 711.29,-1.28 710.52,-8.24"/>
</a>
</g>
</g>
<!-- Node20 -->
<g id="Node000020" class="node">
<title>Node20</title>
<g id="a_Node000020"><a xlink:href="../../db/d4b/classSerializer.html#a528a1155f9fb2669c3e70f8ab2011991" target="_top" xlink:title=" ">
<polygon fill="white" stroke="#666666" points="418.5,-384.88 242.5,-384.88 242.5,-365.88 418.5,-365.88 418.5,-384.88"/>
<text text-anchor="middle" x="330.5" y="-372.88" font-family="Helvetica,sans-Serif" font-size="10.00">Serializer::deserializeGameTable</text>
</a>
</g>
</g>
<!-- Node1&#45;&gt;Node20 -->
<g id="edge38_Node000001_Node000020" class="edge">
<title>Node1&#45;&gt;Node20</title>
<g id="a_edge38_Node000001_Node000020"><a xlink:title=" ">
<path fill="none" stroke="#63b8ff" d="M172.84,-353.89C197.13,-357.22 224.61,-360.99 249.68,-364.43"/>
<polygon fill="#63b8ff" stroke="#63b8ff" points="249.52,-367.94 259.9,-365.83 250.47,-361 249.52,-367.94"/>
</a>
</g>
</g>
<!-- Node3 -->
<g id="Node000003" class="node">
<title>Node3</title>
<g id="a_Node000003"><a xlink:href="../../db/d4b/classSerializer.html#ac444af6d2a2ff0959826c9d5d922ef74" target="_top" xlink:title=" ">
<polygon fill="white" stroke="#666666" points="623,-360.88 473,-360.88 473,-341.88 623,-341.88 623,-360.88"/>
<text text-anchor="middle" x="548" y="-348.88" font-family="Helvetica,sans-Serif" font-size="10.00">Serializer::deserializeBoard</text>
</a>
</g>
</g>
<!-- Node2&#45;&gt;Node3 -->
<g id="edge2_Node000002_Node000003" class="edge">
<title>Node2&#45;&gt;Node3</title>
<g id="a_edge2_Node000002_Node000003"><a xlink:title=" ">
<path fill="none" stroke="#63b8ff" d="M343.51,-250.13C364.92,-267.12 411.65,-302.32 456,-323.38 468.98,-329.54 483.63,-334.74 497.33,-338.93"/>
<polygon fill="#63b8ff" stroke="#63b8ff" points="496.51,-342.34 507.09,-341.8 498.48,-335.62 496.51,-342.34"/>
</a>
</g>
</g>
<!-- Node2&#45;&gt;Node5 -->
<g id="edge18_Node000002_Node000005" class="edge">
<title>Node2&#45;&gt;Node5</title>
<g id="a_edge18_Node000002_Node000005"><a xlink:title=" ">
<path fill="none" stroke="#63b8ff" d="M336.92,-249.98C351.9,-275.38 396.71,-344.15 456,-369.38 694.73,-470.95 1018.67,-410.28 1137.69,-382.24"/>
<polygon fill="#63b8ff" stroke="#63b8ff" points="1138.65,-385.61 1147.56,-379.88 1137.02,-378.8 1138.65,-385.61"/>
</a>
</g>
</g>
<!-- Node6 -->
<g id="Node000006" class="node">
<title>Node6</title>
<g id="a_Node000006"><a xlink:href="../../db/d4b/classSerializer.html#aa69e53999b1df0a2588948fd249fe436" target="_top" xlink:title=" ">
<polygon fill="white" stroke="#666666" points="631.5,-135.88 464.5,-135.88 464.5,-116.88 631.5,-116.88 631.5,-135.88"/>
<text text-anchor="middle" x="548" y="-123.88" font-family="Helvetica,sans-Serif" font-size="10.00">Serializer::deserializeFogEntity</text>
</a>
</g>
</g>
<!-- Node2&#45;&gt;Node6 -->
<g id="edge5_Node000002_Node000006" class="edge">
<title>Node2&#45;&gt;Node6</title>
<g id="a_edge5_Node000002_Node000006"><a xlink:title=" ">
<path fill="none" stroke="#63b8ff" d="M340.78,-230.67C360.19,-211.02 407.29,-166.49 456,-144.38 460.44,-142.36 465.1,-140.57 469.88,-138.98"/>
<polygon fill="#63b8ff" stroke="#63b8ff" points="471.22,-142.23 479.78,-135.99 469.2,-135.53 471.22,-142.23"/>
</a>
</g>
</g>
<!-- Node9 -->
<g id="Node000009" class="node">
<title>Node9</title>
<g id="a_Node000009"><a xlink:href="../../db/d4b/classSerializer.html#a24d123353bde4bfadc162b244ee4e9d5" target="_top" xlink:title=" ">
<polygon fill="white" stroke="#666666" points="854,-61.88 712,-61.88 712,-42.88 854,-42.88 854,-61.88"/>
<text text-anchor="middle" x="783" y="-49.88" font-family="Helvetica,sans-Serif" font-size="10.00">Serializer::deserializeSize</text>
</a>
</g>
</g>
<!-- Node2&#45;&gt;Node9 -->
<g id="edge35_Node000002_Node000009" class="edge">
<title>Node2&#45;&gt;Node9</title>
<g id="a_edge35_Node000002_Node000009"><a xlink:title=" ">
<path fill="none" stroke="#63b8ff" d="M337.32,-230.67C352.96,-205.54 398.6,-138.2 456,-107.38 497.44,-85.13 619.47,-68.82 701.89,-59.97"/>
<polygon fill="#63b8ff" stroke="#63b8ff" points="702.41,-63.43 711.99,-58.9 701.67,-56.47 702.41,-63.43"/>
</a>
</g>
</g>
<!-- Node2&#45;&gt;Node10 -->
<g id="edge37_Node000002_Node000010" class="edge">
<title>Node2&#45;&gt;Node10</title>
<g id="a_edge37_Node000002_Node000010"><a xlink:title=" ">
<path fill="none" stroke="#63b8ff" d="M335.11,-230.69C347.01,-200.27 388.13,-106.19 456,-64.38 476.12,-51.98 605.93,-35.19 695.55,-24.83"/>
<polygon fill="#63b8ff" stroke="#63b8ff" points="696.19,-28.28 705.72,-23.66 695.39,-21.33 696.19,-28.28"/>
</a>
</g>
</g>
<!-- Node13 -->
<g id="Node000013" class="node">
<title>Node13</title>
<g id="a_Node000013"><a xlink:href="../../db/d4b/classSerializer.html#a49904ddf8105f688d32b366b5090a36a" target="_top" xlink:title=" ">
<polygon fill="white" stroke="#666666" points="854,-285.88 712,-285.88 712,-266.88 854,-266.88 854,-285.88"/>
<text text-anchor="middle" x="783" y="-273.88" font-family="Helvetica,sans-Serif" font-size="10.00">Serializer::deserializeGrid</text>
</a>
</g>
</g>
<!-- Node2&#45;&gt;Node13 -->
<g id="edge13_Node000002_Node000013" class="edge">
<title>Node2&#45;&gt;Node13</title>
<g id="a_edge13_Node000002_Node000013"><a xlink:title=" ">
<path fill="none" stroke="#63b8ff" d="M420.24,-247.47C502.05,-254.01 622.44,-263.63 701.52,-269.95"/>
<polygon fill="#63b8ff" stroke="#63b8ff" points="701.67,-273.47 711.92,-270.78 702.23,-266.49 701.67,-273.47"/>
</a>
</g>
</g>
<!-- Node15 -->
<g id="Node000015" class="node">
<title>Node15</title>
<g id="a_Node000015"><a xlink:href="../../db/d4b/classSerializer.html#a575d56ef9fe8683ae7be3e60c3952335" target="_top" xlink:title=" ">
<polygon fill="white" stroke="#666666" points="640,-172.88 456,-172.88 456,-153.88 640,-153.88 640,-172.88"/>
<text text-anchor="middle" x="548" y="-160.88" font-family="Helvetica,sans-Serif" font-size="10.00">Serializer::deserializeMarkerEntity</text>
</a>
</g>
</g>
<!-- Node2&#45;&gt;Node15 -->
<g id="edge19_Node000002_Node000015" class="edge">
<title>Node2&#45;&gt;Node15</title>
<g id="a_edge19_Node000002_Node000015"><a xlink:title=" ">
<path fill="none" stroke="#63b8ff" d="M358.36,-230.78C396.77,-217.06 467.52,-191.78 510.61,-176.38"/>
<polygon fill="#63b8ff" stroke="#63b8ff" points="511.9,-179.64 520.14,-172.97 509.55,-173.04 511.9,-179.64"/>
</a>
</g>
</g>
<!-- Node18 -->
<g id="Node000018" class="node">
<title>Node18</title>
<g id="a_Node000018"><a xlink:href="../../db/d4b/classSerializer.html#ab09ab45738759ee7f2d7f72b2ab7e844" target="_top" xlink:title=" ">
<polygon fill="white" stroke="#666666" points="890,-322.88 676,-322.88 676,-303.88 890,-303.88 890,-322.88"/>
<text text-anchor="middle" x="783" y="-310.88" font-family="Helvetica,sans-Serif" font-size="10.00">Serializer::deserializeTextureComponent</text>
</a>
</g>
</g>
<!-- Node2&#45;&gt;Node18 -->
<g id="edge36_Node000002_Node000018" class="edge">
<title>Node2&#45;&gt;Node18</title>
<g id="a_edge36_Node000002_Node000018"><a xlink:title=" ">
<path fill="none" stroke="#63b8ff" d="M364.01,-249.94C388.99,-256.99 424.43,-266.36 456,-272.38 526.61,-285.84 606.69,-295.98 669.81,-302.81"/>
<polygon fill="#63b8ff" stroke="#63b8ff" points="669.48,-306.29 679.79,-303.88 670.22,-299.33 669.48,-306.29"/>
</a>
</g>
</g>
<!-- Node19 -->
<g id="Node000019" class="node">
<title>Node19</title>
<g id="a_Node000019"><a xlink:href="../../db/d4b/classSerializer.html#a613c3e48f160ff10dda1e184b365a259" target="_top" xlink:title=" ">
<polygon fill="white" stroke="#666666" points="628,-228.88 468,-228.88 468,-209.88 628,-209.88 628,-228.88"/>
<text text-anchor="middle" x="548" y="-216.88" font-family="Helvetica,sans-Serif" font-size="10.00">Serializer::deserializePanning</text>
</a>
</g>
</g>
<!-- Node2&#45;&gt;Node19 -->
<g id="edge33_Node000002_Node000019" class="edge">
<title>Node2&#45;&gt;Node19</title>
<g id="a_edge33_Node000002_Node000019"><a xlink:title=" ">
<path fill="none" stroke="#63b8ff" d="M420.09,-231.75C432.42,-230.54 445.1,-229.31 457.45,-228.1"/>
<polygon fill="#63b8ff" stroke="#63b8ff" points="458.12,-231.56 467.74,-227.1 457.44,-224.59 458.12,-231.56"/>
</a>
</g>
</g>
<!-- Node4 -->
<g id="Node000004" class="node">
<title>Node4</title>
<g id="a_Node000004"><a xlink:href="../../db/d4b/classSerializer.html#a47d1b2e09aaa99426b40f965ef2bf284" target="_top" xlink:title=" ">
<polygon fill="white" stroke="#666666" points="1076,-360.88 926,-360.88 926,-341.88 1076,-341.88 1076,-360.88"/>
<text text-anchor="middle" x="1001" y="-348.88" font-family="Helvetica,sans-Serif" font-size="10.00">Serializer::deserializeString</text>
</a>
</g>
</g>
<!-- Node3&#45;&gt;Node4 -->
<g id="edge3_Node000003_Node000004" class="edge">
<title>Node3&#45;&gt;Node4</title>
<g id="a_edge3_Node000003_Node000004"><a xlink:title=" ">
<path fill="none" stroke="#63b8ff" d="M623.22,-351.38C703.59,-351.38 831.55,-351.38 915.67,-351.38"/>
<polygon fill="#63b8ff" stroke="#63b8ff" points="915.7,-354.88 925.7,-351.38 915.7,-347.88 915.7,-354.88"/>
</a>
</g>
</g>
<!-- Node4&#45;&gt;Node5 -->
<g id="edge4_Node000004_Node000005" class="edge">
<title>Node4&#45;&gt;Node5</title>
<g id="a_edge4_Node000004_Node000005"><a xlink:title=" ">
<path fill="none" stroke="#63b8ff" d="M1076.03,-359.11C1086.54,-360.2 1097.37,-361.33 1107.92,-362.44"/>
<polygon fill="#63b8ff" stroke="#63b8ff" points="1107.63,-365.92 1117.94,-363.48 1108.36,-358.96 1107.63,-365.92"/>
</a>
</g>
</g>
<!-- Node7 -->
<g id="Node000007" class="node">
<title>Node7</title>
<g id="a_Node000007"><a xlink:href="../../db/d4b/classSerializer.html#a5eb5ab1b9f7566eaf2486df0e536d82b" target="_top" xlink:title=" ">
<polygon fill="white" stroke="#666666" points="863.5,-98.88 702.5,-98.88 702.5,-79.88 863.5,-79.88 863.5,-98.88"/>
<text text-anchor="middle" x="783" y="-86.88" font-family="Helvetica,sans-Serif" font-size="10.00">Serializer::deserializePosition</text>
</a>
</g>
</g>
<!-- Node6&#45;&gt;Node7 -->
<g id="edge6_Node000006_Node000007" class="edge">
<title>Node6&#45;&gt;Node7</title>
<g id="a_edge6_Node000006_Node000007"><a xlink:title=" ">
<path fill="none" stroke="#63b8ff" d="M609,-116.85C640.41,-111.86 679.04,-105.73 711.82,-100.52"/>
<polygon fill="#63b8ff" stroke="#63b8ff" points="712.47,-103.96 721.8,-98.94 711.37,-97.05 712.47,-103.96"/>
</a>
</g>
</g>
<!-- Node6&#45;&gt;Node9 -->
<g id="edge8_Node000006_Node000009" class="edge">
<title>Node6&#45;&gt;Node9</title>
<g id="a_edge8_Node000006_Node000009"><a xlink:title=" ">
<path fill="none" stroke="#63b8ff" d="M602.08,-116.83C614.94,-113.33 628.34,-108.63 640,-102.38 658.87,-92.26 656.7,-79.64 676,-70.38 684.16,-66.46 693.02,-63.39 702.04,-60.97"/>
<polygon fill="#63b8ff" stroke="#63b8ff" points="702.96,-64.35 711.86,-58.6 701.32,-57.54 702.96,-64.35"/>
</a>
</g>
</g>
<!-- Node6&#45;&gt;Node10 -->
<g id="edge10_Node000006_Node000010" class="edge">
<title>Node6&#45;&gt;Node10</title>
<g id="a_edge10_Node000006_Node000010"><a xlink:title=" ">
<path fill="none" stroke="#63b8ff" d="M564.18,-116.79C582.55,-105.01 614.22,-84.16 640,-64.38 656.75,-51.52 656.89,-42.36 676,-33.38 682.24,-30.44 688.89,-27.98 695.7,-25.91"/>
<polygon fill="#63b8ff" stroke="#63b8ff" points="697.04,-29.18 705.76,-23.16 695.19,-22.43 697.04,-29.18"/>
</a>
</g>
</g>
<!-- Node11 -->
<g id="Node000011" class="node">
<title>Node11</title>
<g id="a_Node000011"><a xlink:href="../../db/d4b/classSerializer.html#a2defbb75a244dc241a5eb1b342ba50ac" target="_top" xlink:title=" ">
<polygon fill="white" stroke="#666666" points="865,-135.88 701,-135.88 701,-116.88 865,-116.88 865,-135.88"/>
<text text-anchor="middle" x="783" y="-123.88" font-family="Helvetica,sans-Serif" font-size="10.00">Serializer::deserializeVisibility</text>
</a>
</g>
</g>
<!-- Node6&#45;&gt;Node11 -->
<g id="edge11_Node000006_Node000011" class="edge">
<title>Node6&#45;&gt;Node11</title>
<g id="a_edge11_Node000006_Node000011"><a xlink:title=" ">
<path fill="none" stroke="#63b8ff" d="M631.8,-126.38C650.85,-126.38 671.21,-126.38 690.6,-126.38"/>
<polygon fill="#63b8ff" stroke="#63b8ff" points="690.64,-129.88 700.64,-126.38 690.64,-122.88 690.64,-129.88"/>
</a>
</g>
</g>
<!-- Node8 -->
<g id="Node000008" class="node">
<title>Node8</title>
<g id="a_Node000008"><a xlink:href="../../db/d4b/classSerializer.html#a4281872677d0169f97044b8708014adb" target="_top" xlink:title=" ">
<polygon fill="white" stroke="#666666" points="1258,-208.88 1112,-208.88 1112,-189.88 1258,-189.88 1258,-208.88"/>
<text text-anchor="middle" x="1185" y="-196.88" font-family="Helvetica,sans-Serif" font-size="10.00">Serializer::deserializeFloat</text>
</a>
</g>
</g>
<!-- Node7&#45;&gt;Node8 -->
<g id="edge7_Node000007_Node000008" class="edge">
<title>Node7&#45;&gt;Node8</title>
<g id="a_edge7_Node000007_Node000008"><a xlink:title=" ">
<path fill="none" stroke="#63b8ff" d="M848.47,-98.89C862.24,-101.33 876.66,-104.17 890,-107.38 984.49,-130.07 1092.95,-166.9 1147.95,-186.36"/>
<polygon fill="#63b8ff" stroke="#63b8ff" points="1146.99,-189.73 1157.58,-189.79 1149.33,-183.14 1146.99,-189.73"/>
</a>
</g>
</g>
<!-- Node9&#45;&gt;Node8 -->
<g id="edge9_Node000009_Node000008" class="edge">
<title>Node9&#45;&gt;Node8</title>
<g id="a_edge9_Node000009_Node000008"><a xlink:title=" ">
<path fill="none" stroke="#63b8ff" d="M854.29,-57.81C915.41,-64.71 1005.05,-80.15 1076,-114.38 1112.26,-131.88 1147.65,-163.24 1167.55,-182.59"/>
<polygon fill="#63b8ff" stroke="#63b8ff" points="1165.3,-185.28 1174.86,-189.83 1170.22,-180.3 1165.3,-185.28"/>
</a>
</g>
</g>
<!-- Node12 -->
<g id="Node000012" class="node">
<title>Node12</title>
<g id="a_Node000012"><a xlink:href="../../db/d4b/classSerializer.html#a6fded0442115eb736f46d377cf37c563" target="_top" xlink:title=" ">
<polygon fill="white" stroke="#666666" points="1072.5,-208.88 929.5,-208.88 929.5,-189.88 1072.5,-189.88 1072.5,-208.88"/>
<text text-anchor="middle" x="1001" y="-196.88" font-family="Helvetica,sans-Serif" font-size="10.00">Serializer::deserializeBool</text>
</a>
</g>
</g>
<!-- Node11&#45;&gt;Node12 -->
<g id="edge12_Node000011_Node000012" class="edge">
<title>Node11&#45;&gt;Node12</title>
<g id="a_edge12_Node000011_Node000012"><a xlink:title=" ">
<path fill="none" stroke="#63b8ff" d="M857.39,-135.93C868.45,-138.2 879.62,-140.99 890,-144.38 920.94,-154.49 954.03,-172.06 975.75,-184.62"/>
<polygon fill="#63b8ff" stroke="#63b8ff" points="974.2,-187.78 984.6,-189.83 977.75,-181.74 974.2,-187.78"/>
</a>
</g>
</g>
<!-- Node13&#45;&gt;Node8 -->
<g id="edge15_Node000013_Node000008" class="edge">
<title>Node13&#45;&gt;Node8</title>
<g id="a_edge15_Node000013_Node000008"><a xlink:title=" ">
<path fill="none" stroke="#63b8ff" d="M838.23,-266.85C854.85,-263.87 873.19,-260.54 890,-257.38 972.53,-241.84 1067.86,-222.84 1127.05,-210.92"/>
<polygon fill="#63b8ff" stroke="#63b8ff" points="1127.84,-214.33 1136.95,-208.92 1126.45,-207.47 1127.84,-214.33"/>
</a>
</g>
</g>
<!-- Node13&#45;&gt;Node12 -->
<g id="edge14_Node000013_Node000012" class="edge">
<title>Node13&#45;&gt;Node12</title>
<g id="a_edge14_Node000013_Node000012"><a xlink:title=" ">
<path fill="none" stroke="#63b8ff" d="M854.01,-269.76C866.41,-266.95 878.9,-262.98 890,-257.38 909.65,-247.47 907.07,-234.6 926,-223.38 933.35,-219.02 941.58,-215.35 949.82,-212.3"/>
<polygon fill="#63b8ff" stroke="#63b8ff" points="951.11,-215.55 959.43,-208.99 948.83,-208.93 951.11,-215.55"/>
</a>
</g>
</g>
<!-- Node14 -->
<g id="Node000014" class="node">
<title>Node14</title>
<g id="a_Node000014"><a xlink:href="../../db/d4b/classSerializer.html#ab8d82b453f8566db58a5f2e335924ff8" target="_top" xlink:title=" ">
<polygon fill="white" stroke="#666666" points="1073.5,-284.88 928.5,-284.88 928.5,-265.88 1073.5,-265.88 1073.5,-284.88"/>
<text text-anchor="middle" x="1001" y="-272.88" font-family="Helvetica,sans-Serif" font-size="10.00">Serializer::deserializeVec2</text>
</a>
</g>
</g>
<!-- Node13&#45;&gt;Node14 -->
<g id="edge16_Node000013_Node000014" class="edge">
<title>Node13&#45;&gt;Node14</title>
<g id="a_edge16_Node000013_Node000014"><a xlink:title=" ">
<path fill="none" stroke="#63b8ff" d="M854.13,-276.05C874.56,-275.96 897.06,-275.85 918.15,-275.76"/>
<polygon fill="#63b8ff" stroke="#63b8ff" points="918.39,-279.26 928.37,-275.71 918.36,-272.26 918.39,-279.26"/>
</a>
</g>
</g>
<!-- Node14&#45;&gt;Node8 -->
<g id="edge17_Node000014_Node000008" class="edge">
<title>Node14&#45;&gt;Node8</title>
<g id="a_edge17_Node000014_Node000008"><a xlink:title=" ">
<path fill="none" stroke="#63b8ff" d="M1034.76,-265.8C1047.74,-261.73 1062.71,-256.7 1076,-251.38 1104.27,-240.05 1135.51,-224.68 1157.09,-213.59"/>
<polygon fill="#63b8ff" stroke="#63b8ff" points="1158.72,-216.69 1165.99,-208.98 1155.5,-210.47 1158.72,-216.69"/>
</a>
</g>
</g>
<!-- Node15&#45;&gt;Node7 -->
<g id="edge25_Node000015_Node000007" class="edge">
<title>Node15&#45;&gt;Node7</title>
<g id="a_edge25_Node000015_Node000007"><a xlink:title=" ">
<path fill="none" stroke="#63b8ff" d="M617.2,-153.82C625.15,-151.36 632.93,-148.26 640,-144.38 660.11,-133.33 655.69,-118.05 676,-107.38 681.24,-104.63 686.81,-102.28 692.54,-100.28"/>
<polygon fill="#63b8ff" stroke="#63b8ff" points="693.82,-103.55 702.32,-97.23 691.74,-96.87 693.82,-103.55"/>
</a>
</g>
</g>
<!-- Node15&#45;&gt;Node9 -->
<g id="edge26_Node000015_Node000009" class="edge">
<title>Node15&#45;&gt;Node9</title>
<g id="a_edge26_Node000015_Node000009"><a xlink:title=" ">
<path fill="none" stroke="#63b8ff" d="M624.06,-153.71C629.76,-151.22 635.16,-148.15 640,-144.38 668.85,-121.9 646.73,-92.31 676,-70.38 683.7,-64.6 692.61,-60.43 701.91,-57.44"/>
<polygon fill="#63b8ff" stroke="#63b8ff" points="703.01,-60.76 711.73,-54.73 701.15,-54.01 703.01,-60.76"/>
</a>
</g>
</g>
<!-- Node15&#45;&gt;Node10 -->
<g id="edge31_Node000015_Node000010" class="edge">
<title>Node15&#45;&gt;Node10</title>
<g id="a_edge31_Node000015_Node000010"><a xlink:title=" ">
<path fill="none" stroke="#63b8ff" d="M625.96,-153.78C631.04,-151.25 635.8,-148.15 640,-144.38 678.59,-109.73 636.76,-67.29 676,-33.38 682.01,-28.19 688.95,-24.22 696.34,-21.22"/>
<polygon fill="#63b8ff" stroke="#63b8ff" points="697.6,-24.49 705.91,-17.92 695.32,-17.87 697.6,-24.49"/>
</a>
</g>
</g>
<!-- Node15&#45;&gt;Node11 -->
<g id="edge32_Node000015_Node000011" class="edge">
<title>Node15&#45;&gt;Node11</title>
<g id="a_edge32_Node000015_Node000011"><a xlink:title=" ">
<path fill="none" stroke="#63b8ff" d="M609,-153.85C640.41,-148.86 679.04,-142.73 711.82,-137.52"/>
<polygon fill="#63b8ff" stroke="#63b8ff" points="712.47,-140.96 721.8,-135.94 711.37,-134.05 712.47,-140.96"/>
</a>
</g>
</g>
<!-- Node16 -->
<g id="Node000016" class="node">
<title>Node16</title>
<g id="a_Node000016"><a xlink:href="../../db/d4b/classSerializer.html#aa6d578945a2d77d417131080d166e497" target="_top" xlink:title=" ">
<polygon fill="white" stroke="#666666" points="889,-248.88 677,-248.88 677,-229.88 889,-229.88 889,-248.88"/>
<text text-anchor="middle" x="783" y="-236.88" font-family="Helvetica,sans-Serif" font-size="10.00">Serializer::deserializeMarkerComponent</text>
</a>
</g>
</g>
<!-- Node15&#45;&gt;Node16 -->
<g id="edge20_Node000015_Node000016" class="edge">
<title>Node15&#45;&gt;Node16</title>
<g id="a_edge20_Node000015_Node000016"><a xlink:title=" ">
<path fill="none" stroke="#63b8ff" d="M578.51,-173C620.26,-186.62 696.66,-211.54 743.03,-226.67"/>
<polygon fill="#63b8ff" stroke="#63b8ff" points="742.14,-230.06 752.73,-229.83 744.31,-223.4 742.14,-230.06"/>
</a>
</g>
</g>
<!-- Node17 -->
<g id="Node000017" class="node">
<title>Node17</title>
<g id="a_Node000017"><a xlink:href="../../db/d4b/classSerializer.html#ac2820d6131b77a9c29c47547d0af8577" target="_top" xlink:title=" ">
<polygon fill="white" stroke="#666666" points="862,-172.88 704,-172.88 704,-153.88 862,-153.88 862,-172.88"/>
<text text-anchor="middle" x="783" y="-160.88" font-family="Helvetica,sans-Serif" font-size="10.00">Serializer::deserializeMoving</text>
</a>
</g>
</g>
<!-- Node15&#45;&gt;Node17 -->
<g id="edge23_Node000015_Node000017" class="edge">
<title>Node15&#45;&gt;Node17</title>
<g id="a_edge23_Node000015_Node000017"><a xlink:title=" ">
<path fill="none" stroke="#63b8ff" d="M640.08,-163.38C657.69,-163.38 676.11,-163.38 693.63,-163.38"/>
<polygon fill="#63b8ff" stroke="#63b8ff" points="693.82,-166.88 703.82,-163.38 693.82,-159.88 693.82,-166.88"/>
</a>
</g>
</g>
<!-- Node15&#45;&gt;Node18 -->
<g id="edge27_Node000015_Node000018" class="edge">
<title>Node15&#45;&gt;Node18</title>
<g id="a_edge27_Node000015_Node000018"><a xlink:title=" ">
<path fill="none" stroke="#63b8ff" d="M592.15,-172.99C608.9,-178.58 627.11,-187.22 640,-200.38 671.31,-232.33 641.53,-265.86 676,-294.38 677.84,-295.9 679.77,-297.32 681.76,-298.65"/>
<polygon fill="#63b8ff" stroke="#63b8ff" points="680.46,-301.94 690.89,-303.83 683.92,-295.85 680.46,-301.94"/>
</a>
</g>
</g>
<!-- Node16&#45;&gt;Node4 -->
<g id="edge22_Node000016_Node000004" class="edge">
<title>Node16&#45;&gt;Node4</title>
<g id="a_edge22_Node000016_Node000004"><a xlink:title=" ">
<path fill="none" stroke="#63b8ff" d="M868.88,-248.88C876.22,-251.16 883.37,-253.95 890,-257.38 910.1,-267.76 909.06,-278.37 926,-293.38 943.06,-308.49 963.51,-324.37 978.59,-335.68"/>
<polygon fill="#63b8ff" stroke="#63b8ff" points="976.67,-338.62 986.78,-341.78 980.85,-333 976.67,-338.62"/>
</a>
</g>
</g>
<!-- Node16&#45;&gt;Node12 -->
<g id="edge21_Node000016_Node000012" class="edge">
<title>Node16&#45;&gt;Node12</title>
<g id="a_edge21_Node000016_Node000012"><a xlink:title=" ">
<path fill="none" stroke="#63b8ff" d="M835.46,-229.85C866.45,-224.11 906.08,-216.77 938.68,-210.73"/>
<polygon fill="#63b8ff" stroke="#63b8ff" points="939.36,-214.17 948.56,-208.9 938.09,-207.28 939.36,-214.17"/>
</a>
</g>
</g>
<!-- Node17&#45;&gt;Node12 -->
<g id="edge24_Node000017_Node000012" class="edge">
<title>Node17&#45;&gt;Node12</title>
<g id="a_edge24_Node000017_Node000012"><a xlink:title=" ">
<path fill="none" stroke="#63b8ff" d="M841.03,-172.88C869.1,-177.56 903.12,-183.23 932.47,-188.12"/>
<polygon fill="#63b8ff" stroke="#63b8ff" points="932.21,-191.63 942.65,-189.82 933.36,-184.72 932.21,-191.63"/>
</a>
</g>
</g>
<!-- Node18&#45;&gt;Node4 -->
<g id="edge29_Node000018_Node000004" class="edge">
<title>Node18&#45;&gt;Node4</title>
<g id="a_edge29_Node000018_Node000004"><a xlink:title=" ">
<path fill="none" stroke="#63b8ff" d="M838.23,-322.92C867.88,-328.14 904.8,-334.63 935.88,-340.1"/>
<polygon fill="#63b8ff" stroke="#63b8ff" points="935.3,-343.55 945.75,-341.83 936.51,-336.65 935.3,-343.55"/>
</a>
</g>
</g>
<!-- Node18&#45;&gt;Node5 -->
<g id="edge28_Node000018_Node000005" class="edge">
<title>Node18&#45;&gt;Node5</title>
<g id="a_edge28_Node000018_Node000005"><a xlink:title=" ">
<path fill="none" stroke="#63b8ff" d="M890,-313.33C945.83,-315.05 1015.15,-319.94 1076,-332.38 1102.73,-337.84 1131.84,-348.37 1153.1,-356.96"/>
<polygon fill="#63b8ff" stroke="#63b8ff" points="1151.99,-360.29 1162.57,-360.87 1154.66,-353.82 1151.99,-360.29"/>
</a>
</g>
</g>
<!-- Node18&#45;&gt;Node14 -->
<g id="edge30_Node000018_Node000014" class="edge">
<title>Node18&#45;&gt;Node14</title>
<g id="a_edge30_Node000018_Node000014"><a xlink:title=" ">
<path fill="none" stroke="#63b8ff" d="M838.23,-303.84C867.88,-298.62 904.8,-292.13 935.88,-286.66"/>
<polygon fill="#63b8ff" stroke="#63b8ff" points="936.51,-290.1 945.75,-284.92 935.3,-283.21 936.51,-290.1"/>
</a>
</g>
</g>
<!-- Node19&#45;&gt;Node12 -->
<g id="edge34_Node000019_Node000012" class="edge">
<title>Node19&#45;&gt;Node12</title>
<g id="a_edge34_Node000019_Node000012"><a xlink:title=" ">
<path fill="none" stroke="#63b8ff" d="M628.07,-215.87C709.8,-212.25 836.73,-206.62 919.12,-202.97"/>
<polygon fill="#63b8ff" stroke="#63b8ff" points="919.35,-206.46 929.19,-202.52 919.04,-199.47 919.35,-206.46"/>
</a>
</g>
</g>
<!-- Node20&#45;&gt;Node4 -->
<g id="edge39_Node000020_Node000004" class="edge">
<title>Node20&#45;&gt;Node4</title>
<g id="a_edge39_Node000020_Node000004"><a xlink:title=" ">
<path fill="none" stroke="#63b8ff" d="M418.7,-376.74C528.71,-377.79 723.63,-377.42 890,-365.38 901.21,-364.57 913.03,-363.4 924.6,-362.07"/>
<polygon fill="#63b8ff" stroke="#63b8ff" points="925.16,-365.53 934.68,-360.88 924.34,-358.58 925.16,-365.53"/>
</a>
</g>
</g>
</g>
</svg>

<g id="navigator" transform="translate(0 0)" fill="#404254">
  <rect fill="#f2f5e9" fill-opacity="0.5" stroke="#606060" stroke-width=".5" x="0" y="0" width="60" height="60"/>
  <use id="zoomplus" xlink:href="#zoomPlus" x="17" y="9" onmousedown="handleZoom(evt,'in')"/>
  <use id="zoomminus" xlink:href="#zoomMin" x="42" y="9" onmousedown="handleZoom(evt,'out')"/>
  <use id="reset" xlink:href="#resetDef" x="30" y="36" onmousedown="handleReset()"/>
   <use id="arrowup" xlink:href="#arrowUp" x="0" y="0" onmousedown="handlePan(0,-1)"/>
  <use id="arrowright" xlink:href="#arrowRight" x="0" y="0" onmousedown="handlePan(1,0)"/>
  <use id="arrowdown" xlink:href="#arrowDown" x="0" y="0" onmousedown="handlePan(0,1)"/>
  <use id="arrowleft" xlink:href="#arrowLeft" x="0" y="0" onmousedown="handlePan(-1,0)"/>
</g>
<svg viewBox="0 0 15 15" width="100%" height="30px" preserveAspectRatio="xMaxYMin meet">
 <g id="arrow_out" transform="scale(0.3 0.3)">
  <a xlink:href="classSerializer_a0fa2fd5d94c71074a2a2d4d08fb2ddfd_cgraph_org.svg" target="_base">
   <rect id="button" ry="5" rx="5" y="6" x="6" height="38" width="38"
        fill="#f2f5e9" fill-opacity="0.5" stroke="#606060" stroke-width="1.0"/>
   <path id="arrow"
     d="M 11.500037,31.436501 C 11.940474,20.09759 22.043105,11.32322 32.158766,21.979434 L 37.068811,17.246167 C 37.068811,17.246167 37.088388,32 37.088388,32 L 22.160133,31.978069 C 22.160133,31.978069 26.997745,27.140456 26.997745,27.140456 C 18.528582,18.264221 13.291696,25.230495 11.500037,31.436501 z"
     style="fill:#404040;"/>
  </a>
 </g>
</svg>

<style type='text/css'>
<![CDATA[
[data-mouse-over-selected='false'] { opacity: 0.7; }
[data-mouse-over-selected='true']  { opacity: 1.0; }
]]>
</style>
<script type="application/ecmascript"><![CDATA[
document.addEventListener('DOMContentLoaded', (event) => {
  highlightEdges();
  highlightAdjacentNodes();
});
]]></script>
</svg>
