<?xml version="1.0" encoding="UTF-8" standalone="no"?>
<!DOCTYPE svg PUBLIC "-//W3C//DTD SVG 1.1//EN"
 "http://www.w3.org/Graphics/SVG/1.1/DTD/svg11.dtd">
<!-- Generated by graphviz version 2.43.0 (0)
 -->
<!-- Title: Serializer::serializeMarkerComponent Pages: 1 -->
<svg width="540pt" height="64pt"
 viewBox="0.00 0.00 540.00 64.00" xmlns="http://www.w3.org/2000/svg" xmlns:xlink="http://www.w3.org/1999/xlink">
<g id="graph0" class="graph" transform="scale(1 1) rotate(0) translate(4 60)">
<title>Serializer::serializeMarkerComponent</title>
<!-- Node1 -->
<g id="Node000001" class="node">
<title>Node1</title>
<g id="a_Node000001"><a xlink:title=" ">
<polygon fill="#999999" stroke="#666666" points="200,-37 0,-37 0,-18 200,-18 200,-37"/>
<text text-anchor="middle" x="100" y="-25" font-family="Helvetica,sans-Serif" font-size="10.00">Serializer::serializeMarkerComponent</text>
</a>
</g>
</g>
<!-- Node2 -->
<g id="Node000002" class="node">
<title>Node2</title>
<g id="a_Node000002"><a xlink:href="../../db/d4b/classSerializer.html#a2a407c3a379b680296ee190ed625f05f" target="_top" xlink:title=" ">
<polygon fill="white" stroke="#666666" points="370.5,-56 239.5,-56 239.5,-37 370.5,-37 370.5,-56"/>
<text text-anchor="middle" x="305" y="-44" font-family="Helvetica,sans-Serif" font-size="10.00">Serializer::serializeBool</text>
</a>
</g>
</g>
<!-- Node1&#45;&gt;Node2 -->
<g id="edge1_Node000001_Node000002" class="edge">
<title>Node1&#45;&gt;Node2</title>
<g id="a_edge1_Node000001_Node000002"><a xlink:title=" ">
<path fill="none" stroke="#63b8ff" d="M200.12,-36.78C209.88,-37.69 219.66,-38.61 229.12,-39.49"/>
<polygon fill="#63b8ff" stroke="#63b8ff" points="228.95,-42.99 239.23,-40.44 229.6,-36.02 228.95,-42.99"/>
</a>
</g>
</g>
<!-- Node3 -->
<g id="Node000003" class="node">
<title>Node3</title>
<g id="a_Node000003"><a xlink:href="../../db/d4b/classSerializer.html#a8a72c08ebb91348dc2a7ef6557c44f6c" target="_top" xlink:title=" ">
<polygon fill="white" stroke="#666666" points="374,-19 236,-19 236,0 374,0 374,-19"/>
<text text-anchor="middle" x="305" y="-7" font-family="Helvetica,sans-Serif" font-size="10.00">Serializer::serializeString</text>
</a>
</g>
</g>
<!-- Node1&#45;&gt;Node3 -->
<g id="edge2_Node000001_Node000003" class="edge">
<title>Node1&#45;&gt;Node3</title>
<g id="a_edge2_Node000001_Node000003"><a xlink:title=" ">
<path fill="none" stroke="#63b8ff" d="M200.12,-18.71C208.71,-17.95 217.32,-17.19 225.7,-16.44"/>
<polygon fill="#63b8ff" stroke="#63b8ff" points="226.15,-19.92 235.8,-15.55 225.53,-12.94 226.15,-19.92"/>
</a>
</g>
</g>
<!-- Node4 -->
<g id="Node000004" class="node">
<title>Node4</title>
<g id="a_Node000004"><a xlink:href="../../db/d4b/classSerializer.html#ac812cf485e5804fd6f22d34ae076f79f" target="_top" xlink:title=" ">
<polygon fill="white" stroke="#666666" points="532,-19 410,-19 410,0 532,0 532,-19"/>
<text text-anchor="middle" x="471" y="-7" font-family="Helvetica,sans-Serif" font-size="10.00">Serializer::serializeInt</text>
</a>
</g>
</g>
<!-- Node3&#45;&gt;Node4 -->
<g id="edge3_Node000003_Node000004" class="edge">
<title>Node3&#45;&gt;Node4</title>
<g id="a_edge3_Node000003_Node000004"><a xlink:title=" ">
<path fill="none" stroke="#63b8ff" d="M374.13,-9.5C382.57,-9.5 391.22,-9.5 399.7,-9.5"/>
<polygon fill="#63b8ff" stroke="#63b8ff" points="399.93,-13 409.93,-9.5 399.93,-6 399.93,-13"/>
</a>
</g>
</g>
</g>
</svg>
