<?xml version="1.0" encoding="UTF-8" standalone="no"?>
<!DOCTYPE svg PUBLIC "-//W3C//DTD SVG 1.1//EN"
 "http://www.w3.org/Graphics/SVG/1.1/DTD/svg11.dtd">
<!-- Generated by graphviz version 2.43.0 (0)
 -->
<!-- Title: Serializer::deserializePosition Pages: 1 -->
<!--zoomable 249 -->

<svg id="main" version="1.1" xmlns="http://www.w3.org/2000/svg" xmlns:xlink="http://www.w3.org/1999/xlink" xml:space="preserve" onload="init(evt)">
<style type="text/css"><![CDATA[
.node, .edge {opacity: 0.7;}
.node.selected, .edge.selected {opacity: 1;}
.edge:hover path { stroke: red; }
.edge:hover polygon { stroke: red; fill: red; }
]]></style>

<defs>
  <circle id="rim" cx="0" cy="0" r="7"/>
  <circle id="rim2" cx="0" cy="0" r="3.5"/>
  <g id="zoomPlus">
    <use xlink:href="#rim" fill="#404040"><set attributeName="fill" to="#808080" begin="zoomplus.mouseover" end="zoomplus.mouseout"/></use>
    <path d="M-4,0h8M0,-4v8" fill="none" stroke="white" stroke-width="1.5" pointer-events="none"/>
  </g>
  <g id="zoomMin">
    <use xlink:href="#rim" fill="#404040"><set attributeName="fill" to="#808080" begin="zoomminus.mouseover" end="zoomminus.mouseout"/></use>
    <path d="M-4,0h8" fill="none" stroke="white" stroke-width="1.5" pointer-events="none"/>
  </g>
  <g id="arrowUp" transform="translate(30 24)">
    <use xlink:href="#rim"/>
    <path pointer-events="none" fill="none" stroke="white" stroke-width="1.5" d="M0,-3.0v7 M-2.5,-0.5L0,-3.0L2.5,-0.5"/>
  </g>
  <g id="arrowRight" transform="rotate(90) translate(36 -43)">
    <use xlink:href="#rim"/>
    <path pointer-events="none" fill="none" stroke="white" stroke-width="1.5" d="M0,-3.0v7 M-2.5,-0.5L0,-3.0L2.5,-0.5"/>
  </g>
  <g id="arrowDown" transform="rotate(180) translate(-30 -48)">
    <use xlink:href="#rim"/>
    <path pointer-events="none" fill="none" stroke="white" stroke-width="1.5" d="M0,-3.0v7 M-2.5,-0.5L0,-3.0L2.5,-0.5"/>
  </g>
  <g id="arrowLeft" transform="rotate(270) translate(-36 17)">
    <use xlink:href="#rim"/>
    <path pointer-events="none" fill="none" stroke="white" stroke-width="1.5" d="M0,-3.0v7 M-2.5,-0.5L0,-3.0L2.5,-0.5"/>
  </g>
  <g id="resetDef">
    <use xlink:href="#rim2" fill="#404040"><set attributeName="fill" to="#808080" begin="reset.mouseover" end="reset.mouseout"/></use>
  </g>
</defs>
<script type="application/ecmascript">
var viewWidth = 1461;
var viewHeight = 249;
var sectionId = 'dynsection-25';
</script>
<script type="application/ecmascript" xlink:href="../../svg.min.js"/>
<svg id="graph" class="graph">
<g id="viewport">
<title>Serializer::deserializePosition</title>
<!-- Node1 -->
<g id="Node000001" class="node">
<title>Node1</title>
<g id="a_Node000001"><a xlink:title=" ">
<polygon fill="#999999" stroke="#666666" points="1453,-130 1292,-130 1292,-111 1453,-111 1453,-130"/>
<text text-anchor="middle" x="1372.5" y="-118" font-family="Helvetica,sans-Serif" font-size="10.00">Serializer::deserializePosition</text>
</a>
</g>
</g>
<!-- Node2 -->
<g id="Node000002" class="node">
<title>Node2</title>
<g id="a_Node000002"><a xlink:href="../../db/d4b/classSerializer.html#aa69e53999b1df0a2588948fd249fe436" target="_top" xlink:title=" ">
<polygon fill="white" stroke="#666666" points="1226.5,-204 1059.5,-204 1059.5,-185 1226.5,-185 1226.5,-204"/>
<text text-anchor="middle" x="1143" y="-192" font-family="Helvetica,sans-Serif" font-size="10.00">Serializer::deserializeFogEntity</text>
</a>
</g>
</g>
<!-- Node1&#45;&gt;Node2 -->
<g id="edge1_Node000001_Node000002" class="edge">
<title>Node1&#45;&gt;Node2</title>
<g id="a_edge1_Node000001_Node000002"><a xlink:title=" ">
<path fill="none" stroke="#63b8ff" d="M1346.69,-135.17C1323.88,-148.01 1288.73,-166.18 1256,-176.5 1245.2,-179.9 1233.6,-182.69 1222.11,-184.96"/>
<polygon fill="#63b8ff" stroke="#63b8ff" points="1348.73,-138.04 1355.67,-130.03 1345.25,-131.96 1348.73,-138.04"/>
</a>
</g>
</g>
<!-- Node8 -->
<g id="Node000008" class="node">
<title>Node8</title>
<g id="a_Node000008"><a xlink:href="../../db/d4b/classSerializer.html#a575d56ef9fe8683ae7be3e60c3952335" target="_top" xlink:title=" ">
<polygon fill="white" stroke="#666666" points="1235,-241 1051,-241 1051,-222 1235,-222 1235,-241"/>
<text text-anchor="middle" x="1143" y="-229" font-family="Helvetica,sans-Serif" font-size="10.00">Serializer::deserializeMarkerEntity</text>
</a>
</g>
</g>
<!-- Node1&#45;&gt;Node8 -->
<g id="edge7_Node000001_Node000008" class="edge">
<title>Node1&#45;&gt;Node8</title>
<g id="a_edge7_Node000001_Node000008"><a xlink:title=" ">
<path fill="none" stroke="#63b8ff" d="M1356.07,-137.48C1335.49,-158.96 1296.88,-195.31 1256,-213.5 1248.35,-216.9 1240.16,-219.67 1231.81,-221.92"/>
<polygon fill="#63b8ff" stroke="#63b8ff" points="1358.75,-139.74 1363.04,-130.05 1353.64,-134.95 1358.75,-139.74"/>
</a>
</g>
</g>
<!-- Node9 -->
<g id="Node000009" class="node">
<title>Node9</title>
<g id="a_Node000009"><a xlink:href="../../d6/d6f/classNetworkManager.html#a870fdbf3fcb748380d4bac60d0c619ae" target="_top" xlink:title=" ">
<polygon fill="white" stroke="#666666" points="1237.5,-19 1048.5,-19 1048.5,0 1237.5,0 1237.5,-19"/>
<text text-anchor="middle" x="1143" y="-7" font-family="Helvetica,sans-Serif" font-size="10.00">NetworkManager::handleFogCreate</text>
</a>
</g>
</g>
<!-- Node1&#45;&gt;Node9 -->
<g id="edge9_Node000001_Node000009" class="edge">
<title>Node1&#45;&gt;Node9</title>
<g id="a_edge9_Node000001_Node000009"><a xlink:title=" ">
<path fill="none" stroke="#63b8ff" d="M1356.07,-103.52C1335.49,-82.04 1296.88,-45.69 1256,-27.5 1248.35,-24.1 1240.16,-21.33 1231.81,-19.08"/>
<polygon fill="#63b8ff" stroke="#63b8ff" points="1353.64,-106.05 1363.04,-110.95 1358.75,-101.26 1353.64,-106.05"/>
</a>
</g>
</g>
<!-- Node13 -->
<g id="Node000013" class="node">
<title>Node13</title>
<g id="a_Node000013"><a xlink:href="../../d6/d6f/classNetworkManager.html#a0466594f0db8b90c31d5bce0c862d4a7" target="_top" xlink:title=" ">
<polygon fill="white" stroke="#666666" points="1239,-130 1047,-130 1047,-111 1239,-111 1239,-130"/>
<text text-anchor="middle" x="1143" y="-118" font-family="Helvetica,sans-Serif" font-size="10.00">NetworkManager::handleFogUpdate</text>
</a>
</g>
</g>
<!-- Node1&#45;&gt;Node13 -->
<g id="edge13_Node000001_Node000013" class="edge">
<title>Node1&#45;&gt;Node13</title>
<g id="a_edge13_Node000001_Node000013"><a xlink:title=" ">
<path fill="none" stroke="#63b8ff" d="M1281.83,-120.5C1267.82,-120.5 1253.29,-120.5 1239.16,-120.5"/>
<polygon fill="#63b8ff" stroke="#63b8ff" points="1281.93,-124 1291.93,-120.5 1281.93,-117 1281.93,-124"/>
</a>
</g>
</g>
<!-- Node14 -->
<g id="Node000014" class="node">
<title>Node14</title>
<g id="a_Node000014"><a xlink:href="../../d6/d6f/classNetworkManager.html#ad64ac29f56dad04509518f9e2bdf8f76" target="_top" xlink:title=" ">
<polygon fill="white" stroke="#666666" points="1242,-93 1044,-93 1044,-74 1242,-74 1242,-93"/>
<text text-anchor="middle" x="1143" y="-81" font-family="Helvetica,sans-Serif" font-size="10.00">NetworkManager::handleMarkerMeta</text>
</a>
</g>
</g>
<!-- Node1&#45;&gt;Node14 -->
<g id="edge15_Node000001_Node000014" class="edge">
<title>Node1&#45;&gt;Node14</title>
<g id="a_edge15_Node000001_Node000014"><a xlink:title=" ">
<path fill="none" stroke="#63b8ff" d="M1303.78,-109.32C1288.09,-106.74 1271.47,-104.02 1256,-101.5 1238.99,-98.73 1220.53,-95.76 1203.58,-93.03"/>
<polygon fill="#63b8ff" stroke="#63b8ff" points="1303.5,-112.82 1313.93,-110.99 1304.63,-105.91 1303.5,-112.82"/>
</a>
</g>
</g>
<!-- Node15 -->
<g id="Node000015" class="node">
<title>Node15</title>
<g id="a_Node000015"><a xlink:href="../../d6/d6f/classNetworkManager.html#afc9a1534cbb3b4b950796094d4e97775" target="_top" xlink:title=" ">
<polygon fill="white" stroke="#666666" points="1243,-167 1043,-167 1043,-148 1243,-148 1243,-167"/>
<text text-anchor="middle" x="1143" y="-155" font-family="Helvetica,sans-Serif" font-size="10.00">NetworkManager::handleMarkerMove</text>
</a>
</g>
</g>
<!-- Node1&#45;&gt;Node15 -->
<g id="edge17_Node000001_Node000015" class="edge">
<title>Node1&#45;&gt;Node15</title>
<g id="a_edge17_Node000001_Node000015"><a xlink:title=" ">
<path fill="none" stroke="#63b8ff" d="M1302.77,-131.68C1270.87,-136.87 1233.34,-142.97 1202.78,-147.94"/>
<polygon fill="#63b8ff" stroke="#63b8ff" points="1303.6,-135.09 1312.91,-130.03 1302.48,-128.18 1303.6,-135.09"/>
</a>
</g>
</g>
<!-- Node17 -->
<g id="Node000017" class="node">
<title>Node17</title>
<g id="a_Node000017"><a xlink:href="../../d6/d6f/classNetworkManager.html#a4e57df88fc7446d22630aacb5a31dfc1" target="_top" xlink:title=" ">
<polygon fill="white" stroke="#666666" points="1256,-56 1030,-56 1030,-37 1256,-37 1256,-56"/>
<text text-anchor="middle" x="1143" y="-44" font-family="Helvetica,sans-Serif" font-size="10.00">NetworkManager::handleMarkerMoveState</text>
</a>
</g>
</g>
<!-- Node1&#45;&gt;Node17 -->
<g id="edge21_Node000001_Node000017" class="edge">
<title>Node1&#45;&gt;Node17</title>
<g id="a_edge21_Node000001_Node000017"><a xlink:title=" ">
<path fill="none" stroke="#63b8ff" d="M1346.69,-105.83C1323.88,-92.99 1288.73,-74.82 1256,-64.5 1245.2,-61.1 1233.6,-58.31 1222.11,-56.04"/>
<polygon fill="#63b8ff" stroke="#63b8ff" points="1345.25,-109.04 1355.67,-110.97 1348.73,-102.96 1345.25,-109.04"/>
</a>
</g>
</g>
<!-- Node3 -->
<g id="Node000003" class="node">
<title>Node3</title>
<g id="a_Node000003"><a xlink:href="../../db/d4b/classSerializer.html#aff25e5361ee486db1fb453b6ec1f8acf" target="_top" xlink:title=" ">
<polygon fill="white" stroke="#666666" points="957,-222 778,-222 778,-203 957,-203 957,-222"/>
<text text-anchor="middle" x="867.5" y="-210" font-family="Helvetica,sans-Serif" font-size="10.00">Serializer::deserializeBoardEntity</text>
</a>
</g>
</g>
<!-- Node2&#45;&gt;Node3 -->
<g id="edge2_Node000002_Node000003" class="edge">
<title>Node2&#45;&gt;Node3</title>
<g id="a_edge2_Node000002_Node000003"><a xlink:title=" ">
<path fill="none" stroke="#63b8ff" d="M1048.85,-200.63C1019.21,-202.58 986.52,-204.73 957.2,-206.66"/>
<polygon fill="#63b8ff" stroke="#63b8ff" points="1049.45,-204.1 1059.2,-199.95 1048.99,-197.11 1049.45,-204.1"/>
</a>
</g>
</g>
<!-- Node4 -->
<g id="Node000004" class="node">
<title>Node4</title>
<g id="a_Node000004"><a xlink:href="../../db/d4b/classSerializer.html#a0fa2fd5d94c71074a2a2d4d08fb2ddfd" target="_top" xlink:title=" ">
<polygon fill="white" stroke="#666666" points="702.5,-241 497.5,-241 497.5,-222 702.5,-222 702.5,-241"/>
<text text-anchor="middle" x="600" y="-229" font-family="Helvetica,sans-Serif" font-size="10.00">Serializer::deserializeGameTableEntity</text>
</a>
</g>
</g>
<!-- Node3&#45;&gt;Node4 -->
<g id="edge3_Node000003_Node000004" class="edge">
<title>Node3&#45;&gt;Node4</title>
<g id="a_edge3_Node000003_Node000004"><a xlink:title=" ">
<path fill="none" stroke="#63b8ff" d="M767.72,-219.57C746.44,-221.09 723.91,-222.7 702.53,-224.23"/>
<polygon fill="#63b8ff" stroke="#63b8ff" points="768,-223.06 777.72,-218.85 767.5,-216.08 768,-223.06"/>
</a>
</g>
</g>
<!-- Node7 -->
<g id="Node000007" class="node">
<title>Node7</title>
<g id="a_Node000007"><a xlink:href="../../d9/dff/classBoardManager.html#ae3c8d16dfa3b0e954475b6cf8e5e52f2" target="_top" xlink:title=" ">
<polygon fill="white" stroke="#666666" points="687,-204 513,-204 513,-185 687,-185 687,-204"/>
<text text-anchor="middle" x="600" y="-192" font-family="Helvetica,sans-Serif" font-size="10.00">BoardManager::loadActiveBoard</text>
</a>
</g>
</g>
<!-- Node3&#45;&gt;Node7 -->
<g id="edge6_Node000003_Node000007" class="edge">
<title>Node3&#45;&gt;Node7</title>
<g id="a_edge6_Node000003_Node000007"><a xlink:title=" ">
<path fill="none" stroke="#63b8ff" d="M767.72,-205.8C741.36,-204.02 713.08,-202.1 687.44,-200.36"/>
<polygon fill="#63b8ff" stroke="#63b8ff" points="767.51,-209.3 777.72,-206.48 767.98,-202.31 767.51,-209.3"/>
</a>
</g>
</g>
<!-- Node5 -->
<g id="Node000005" class="node">
<title>Node5</title>
<g id="a_Node000005"><a xlink:href="../../da/d28/classGameTableManager.html#aedb2f2634710aeb401d6c7e1c2d6a96d" target="_top" xlink:title=" ">
<polygon fill="white" stroke="#666666" points="459,-241 263,-241 263,-222 459,-222 459,-241"/>
<text text-anchor="middle" x="361" y="-229" font-family="Helvetica,sans-Serif" font-size="10.00">GameTableManager::loadGameTable</text>
</a>
</g>
</g>
<!-- Node4&#45;&gt;Node5 -->
<g id="edge4_Node000004_Node000005" class="edge">
<title>Node4&#45;&gt;Node5</title>
<g id="a_edge4_Node000004_Node000005"><a xlink:title=" ">
<path fill="none" stroke="#63b8ff" d="M487.3,-231.5C477.91,-231.5 468.46,-231.5 459.2,-231.5"/>
<polygon fill="#63b8ff" stroke="#63b8ff" points="487.46,-235 497.46,-231.5 487.46,-228 487.46,-235"/>
</a>
</g>
</g>
<!-- Node6 -->
<g id="Node000006" class="node">
<title>Node6</title>
<g id="a_Node000006"><a xlink:href="../../da/d28/classGameTableManager.html#a42414a5596a4e90a3f321f90e166f9a0" target="_top" xlink:title=" ">
<polygon fill="white" stroke="#666666" points="227,-241 0,-241 0,-222 227,-222 227,-241"/>
<text text-anchor="middle" x="113.5" y="-229" font-family="Helvetica,sans-Serif" font-size="10.00">GameTableManager::hostGameTablePopUp</text>
</a>
</g>
</g>
<!-- Node5&#45;&gt;Node6 -->
<g id="edge5_Node000005_Node000006" class="edge">
<title>Node5&#45;&gt;Node6</title>
<g id="a_edge5_Node000005_Node000006"><a xlink:title=" ">
<path fill="none" stroke="#63b8ff" d="M252.95,-231.5C244.37,-231.5 235.68,-231.5 227.06,-231.5"/>
<polygon fill="#63b8ff" stroke="#63b8ff" points="252.97,-235 262.97,-231.5 252.97,-228 252.97,-235"/>
</a>
</g>
</g>
<!-- Node8&#45;&gt;Node3 -->
<g id="edge8_Node000008_Node000003" class="edge">
<title>Node8&#45;&gt;Node3</title>
<g id="a_edge8_Node000008_Node000003"><a xlink:title=" ">
<path fill="none" stroke="#63b8ff" d="M1040.93,-224.48C1013.5,-222.57 984.01,-220.52 957.32,-218.67"/>
<polygon fill="#63b8ff" stroke="#63b8ff" points="1040.71,-227.97 1050.93,-225.17 1041.2,-220.99 1040.71,-227.97"/>
</a>
</g>
</g>
<!-- Node10 -->
<g id="Node000010" class="node">
<title>Node10</title>
<g id="a_Node000010"><a xlink:href="../../d6/d6f/classNetworkManager.html#a53df93ad0cb0498c82f866a921e7b285" target="_top" xlink:title=" ">
<polygon fill="white" stroke="#666666" points="978,-93 757,-93 757,-74 978,-74 978,-93"/>
<text text-anchor="middle" x="867.5" y="-81" font-family="Helvetica,sans-Serif" font-size="10.00">NetworkManager::decodeRawGameBuffer</text>
</a>
</g>
</g>
<!-- Node9&#45;&gt;Node10 -->
<g id="edge10_Node000009_Node000010" class="edge">
<title>Node9&#45;&gt;Node10</title>
<g id="a_edge10_Node000009_Node000010"><a xlink:title=" ">
<path fill="none" stroke="#63b8ff" d="M1060.85,-20.82C1050.41,-22.78 1039.91,-25 1030,-27.5 979.78,-40.14 922.99,-61.57 891.91,-73.93"/>
<polygon fill="#63b8ff" stroke="#63b8ff" points="1061.6,-24.24 1070.82,-19.02 1060.36,-17.35 1061.6,-24.24"/>
</a>
</g>
</g>
<!-- Node11 -->
<g id="Node000011" class="node">
<title>Node11</title>
<g id="a_Node000011"><a xlink:href="../../d6/d6f/classNetworkManager.html#ad3605b8b33fa44492458d0aaffb4dec8" target="_top" xlink:title=" ">
<polygon fill="white" stroke="#666666" points="695.5,-130 504.5,-130 504.5,-111 695.5,-111 695.5,-130"/>
<text text-anchor="middle" x="600" y="-118" font-family="Helvetica,sans-Serif" font-size="10.00">NetworkManager::drainInboundRaw</text>
</a>
</g>
</g>
<!-- Node10&#45;&gt;Node11 -->
<g id="edge11_Node000010_Node000011" class="edge">
<title>Node10&#45;&gt;Node11</title>
<g id="a_edge11_Node000010_Node000011"><a xlink:title=" ">
<path fill="none" stroke="#63b8ff" d="M788.22,-94.41C750.58,-99.65 705.89,-105.88 669.6,-110.94"/>
<polygon fill="#63b8ff" stroke="#63b8ff" points="788.71,-97.88 798.13,-93.03 787.74,-90.94 788.71,-97.88"/>
</a>
</g>
</g>
<!-- Node12 -->
<g id="Node000012" class="node">
<title>Node12</title>
<g id="a_Node000012"><a xlink:href="../../d6/d6f/classNetworkManager.html#a3289708df965193b6ec0287eb069b276" target="_top" xlink:title=" ">
<polygon fill="white" stroke="#666666" points="705,-93 495,-93 495,-74 705,-74 705,-93"/>
<text text-anchor="middle" x="600" y="-81" font-family="Helvetica,sans-Serif" font-size="10.00">NetworkManager::startRawDrainWorker</text>
</a>
</g>
</g>
<!-- Node10&#45;&gt;Node12 -->
<g id="edge12_Node000010_Node000012" class="edge">
<title>Node10&#45;&gt;Node12</title>
<g id="a_edge12_Node000010_Node000012"><a xlink:title=" ">
<path fill="none" stroke="#63b8ff" d="M746.88,-83.5C732.96,-83.5 718.84,-83.5 705.15,-83.5"/>
<polygon fill="#63b8ff" stroke="#63b8ff" points="746.98,-87 756.98,-83.5 746.98,-80 746.98,-87"/>
</a>
</g>
</g>
<!-- Node13&#45;&gt;Node10 -->
<g id="edge14_Node000013_Node000010" class="edge">
<title>Node13&#45;&gt;Node10</title>
<g id="a_edge14_Node000013_Node000010"><a xlink:title=" ">
<path fill="none" stroke="#63b8ff" d="M1061.36,-109.59C1022.59,-104.35 976.55,-98.12 939.17,-93.06"/>
<polygon fill="#63b8ff" stroke="#63b8ff" points="1061.19,-113.1 1071.57,-110.97 1062.13,-106.16 1061.19,-113.1"/>
</a>
</g>
</g>
<!-- Node14&#45;&gt;Node10 -->
<g id="edge16_Node000014_Node000010" class="edge">
<title>Node14&#45;&gt;Node10</title>
<g id="a_edge16_Node000014_Node000010"><a xlink:title=" ">
<path fill="none" stroke="#63b8ff" d="M1033.58,-83.5C1015.31,-83.5 996.33,-83.5 978.04,-83.5"/>
<polygon fill="#63b8ff" stroke="#63b8ff" points="1033.65,-87 1043.65,-83.5 1033.65,-80 1033.65,-87"/>
</a>
</g>
</g>
<!-- Node16 -->
<g id="Node000016" class="node">
<title>Node16</title>
<g id="a_Node000016"><a xlink:href="../../d6/d6f/classNetworkManager.html#adea6a8bf4c034a65775aa7a8f9d2e8a2" target="_top" xlink:title=" ">
<polygon fill="white" stroke="#666666" points="994,-130 741,-130 741,-111 994,-111 994,-130"/>
<text text-anchor="middle" x="867.5" y="-118" font-family="Helvetica,sans-Serif" font-size="10.00">NetworkManager::decodeRawMarkerMoveBuffer</text>
</a>
</g>
</g>
<!-- Node15&#45;&gt;Node16 -->
<g id="edge18_Node000015_Node000016" class="edge">
<title>Node15&#45;&gt;Node16</title>
<g id="a_edge18_Node000015_Node000016"><a xlink:title=" ">
<path fill="none" stroke="#63b8ff" d="M1061.36,-146.59C1022.59,-141.35 976.55,-135.12 939.17,-130.06"/>
<polygon fill="#63b8ff" stroke="#63b8ff" points="1061.19,-150.1 1071.57,-147.97 1062.13,-143.16 1061.19,-150.1"/>
</a>
</g>
</g>
<!-- Node16&#45;&gt;Node11 -->
<g id="edge19_Node000016_Node000011" class="edge">
<title>Node16&#45;&gt;Node11</title>
<g id="a_edge19_Node000016_Node000011"><a xlink:title=" ">
<path fill="none" stroke="#63b8ff" d="M730.44,-120.5C718.72,-120.5 707.03,-120.5 695.74,-120.5"/>
<polygon fill="#63b8ff" stroke="#63b8ff" points="730.75,-124 740.75,-120.5 730.75,-117 730.75,-124"/>
</a>
</g>
</g>
<!-- Node16&#45;&gt;Node12 -->
<g id="edge20_Node000016_Node000012" class="edge">
<title>Node16&#45;&gt;Node12</title>
<g id="a_edge20_Node000016_Node000012"><a xlink:title=" ">
<path fill="none" stroke="#63b8ff" d="M788.22,-109.59C750.58,-104.35 705.89,-98.12 669.6,-93.06"/>
<polygon fill="#63b8ff" stroke="#63b8ff" points="787.74,-113.06 798.13,-110.97 788.71,-106.12 787.74,-113.06"/>
</a>
</g>
</g>
<!-- Node17&#45;&gt;Node10 -->
<g id="edge22_Node000017_Node000010" class="edge">
<title>Node17&#45;&gt;Node10</title>
<g id="a_edge22_Node000017_Node000010"><a xlink:title=" ">
<path fill="none" stroke="#63b8ff" d="M1061.36,-57.41C1022.59,-62.65 976.55,-68.88 939.17,-73.94"/>
<polygon fill="#63b8ff" stroke="#63b8ff" points="1062.13,-60.84 1071.57,-56.03 1061.19,-53.9 1062.13,-60.84"/>
</a>
</g>
</g>
</g>
</svg>

<g id="navigator" transform="translate(0 0)" fill="#404254">
  <rect fill="#f2f5e9" fill-opacity="0.5" stroke="#606060" stroke-width=".5" x="0" y="0" width="60" height="60"/>
  <use id="zoomplus" xlink:href="#zoomPlus" x="17" y="9" onmousedown="handleZoom(evt,'in')"/>
  <use id="zoomminus" xlink:href="#zoomMin" x="42" y="9" onmousedown="handleZoom(evt,'out')"/>
  <use id="reset" xlink:href="#resetDef" x="30" y="36" onmousedown="handleReset()"/>
   <use id="arrowup" xlink:href="#arrowUp" x="0" y="0" onmousedown="handlePan(0,-1)"/>
  <use id="arrowright" xlink:href="#arrowRight" x="0" y="0" onmousedown="handlePan(1,0)"/>
  <use id="arrowdown" xlink:href="#arrowDown" x="0" y="0" onmousedown="handlePan(0,1)"/>
  <use id="arrowleft" xlink:href="#arrowLeft" x="0" y="0" onmousedown="handlePan(-1,0)"/>
</g>
<svg viewBox="0 0 15 15" width="100%" height="30px" preserveAspectRatio="xMaxYMin meet">
 <g id="arrow_out" transform="scale(0.3 0.3)">
  <a xlink:href="classSerializer_a5eb5ab1b9f7566eaf2486df0e536d82b_icgraph_org.svg" target="_base">
   <rect id="button" ry="5" rx="5" y="6" x="6" height="38" width="38"
        fill="#f2f5e9" fill-opacity="0.5" stroke="#606060" stroke-width="1.0"/>
   <path id="arrow"
     d="M 11.500037,31.436501 C 11.940474,20.09759 22.043105,11.32322 32.158766,21.979434 L 37.068811,17.246167 C 37.068811,17.246167 37.088388,32 37.088388,32 L 22.160133,31.978069 C 22.160133,31.978069 26.997745,27.140456 26.997745,27.140456 C 18.528582,18.264221 13.291696,25.230495 11.500037,31.436501 z"
     style="fill:#404040;"/>
  </a>
 </g>
</svg>

<style type='text/css'>
<![CDATA[
[data-mouse-over-selected='false'] { opacity: 0.7; }
[data-mouse-over-selected='true']  { opacity: 1.0; }
]]>
</style>
<script type="application/ecmascript"><![CDATA[
document.addEventListener('DOMContentLoaded', (event) => {
  highlightEdges();
  highlightAdjacentNodes();
});
]]></script>
</svg>
