<?xml version="1.0" encoding="UTF-8" standalone="no"?>
<!DOCTYPE svg PUBLIC "-//W3C//DTD SVG 1.1//EN"
 "http://www.w3.org/Graphics/SVG/1.1/DTD/svg11.dtd">
<!-- Generated by graphviz version 2.43.0 (0)
 -->
<!-- Title: Serializer::serializeTextureComponent Pages: 1 -->
<svg width="554pt" height="83pt"
 viewBox="0.00 0.00 554.00 83.00" xmlns="http://www.w3.org/2000/svg" xmlns:xlink="http://www.w3.org/1999/xlink">
<g id="graph0" class="graph" transform="scale(1 1) rotate(0) translate(4 79)">
<title>Serializer::serializeTextureComponent</title>
<!-- Node1 -->
<g id="Node000001" class="node">
<title>Node1</title>
<g id="a_Node000001"><a xlink:title=" ">
<polygon fill="#999999" stroke="#666666" points="202,-56 0,-56 0,-37 202,-37 202,-56"/>
<text text-anchor="middle" x="101" y="-44" font-family="Helvetica,sans-Serif" font-size="10.00">Serializer::serializeTextureComponent</text>
</a>
</g>
</g>
<!-- Node2 -->
<g id="Node000002" class="node">
<title>Node2</title>
<g id="a_Node000002"><a xlink:href="../../db/d4b/classSerializer.html#ac812cf485e5804fd6f22d34ae076f79f" target="_top" xlink:title=" ">
<polygon fill="white" stroke="#666666" points="540,-75 418,-75 418,-56 540,-56 540,-75"/>
<text text-anchor="middle" x="479" y="-63" font-family="Helvetica,sans-Serif" font-size="10.00">Serializer::serializeInt</text>
</a>
</g>
</g>
<!-- Node1&#45;&gt;Node2 -->
<g id="edge1_Node000001_Node000002" class="edge">
<title>Node1&#45;&gt;Node2</title>
<g id="a_edge1_Node000001_Node000002"><a xlink:title=" ">
<path fill="none" stroke="#63b8ff" d="M157.4,-56.01C182,-59.78 211.36,-63.65 238,-65.5 294.93,-69.46 359.63,-69.18 407.5,-68.07"/>
<polygon fill="#63b8ff" stroke="#63b8ff" points="407.85,-71.56 417.75,-67.81 407.67,-64.56 407.85,-71.56"/>
</a>
</g>
</g>
<!-- Node3 -->
<g id="Node000003" class="node">
<title>Node3</title>
<g id="a_Node000003"><a xlink:href="../../db/d4b/classSerializer.html#a8a72c08ebb91348dc2a7ef6557c44f6c" target="_top" xlink:title=" ">
<polygon fill="white" stroke="#666666" points="376,-56 238,-56 238,-37 376,-37 376,-56"/>
<text text-anchor="middle" x="307" y="-44" font-family="Helvetica,sans-Serif" font-size="10.00">Serializer::serializeString</text>
</a>
</g>
</g>
<!-- Node1&#45;&gt;Node3 -->
<g id="edge2_Node000001_Node000003" class="edge">
<title>Node1&#45;&gt;Node3</title>
<g id="a_edge2_Node000001_Node000003"><a xlink:title=" ">
<path fill="none" stroke="#63b8ff" d="M202.21,-46.5C210.8,-46.5 219.42,-46.5 227.8,-46.5"/>
<polygon fill="#63b8ff" stroke="#63b8ff" points="227.9,-50 237.9,-46.5 227.9,-43 227.9,-50"/>
</a>
</g>
</g>
<!-- Node4 -->
<g id="Node000004" class="node">
<title>Node4</title>
<g id="a_Node000004"><a xlink:href="../../db/d4b/classSerializer.html#a52943821c1686ae47c30586ec7f9bc7e" target="_top" xlink:title=" ">
<polygon fill="white" stroke="#666666" points="373.5,-19 240.5,-19 240.5,0 373.5,0 373.5,-19"/>
<text text-anchor="middle" x="307" y="-7" font-family="Helvetica,sans-Serif" font-size="10.00">Serializer::serializeVec2</text>
</a>
</g>
</g>
<!-- Node1&#45;&gt;Node4 -->
<g id="edge4_Node000001_Node000004" class="edge">
<title>Node1&#45;&gt;Node4</title>
<g id="a_edge4_Node000001_Node000004"><a xlink:title=" ">
<path fill="none" stroke="#63b8ff" d="M154.54,-36.97C181.68,-32.05 214.98,-26.01 243.44,-20.85"/>
<polygon fill="#63b8ff" stroke="#63b8ff" points="244.07,-24.29 253.29,-19.06 242.82,-17.4 244.07,-24.29"/>
</a>
</g>
</g>
<!-- Node3&#45;&gt;Node2 -->
<g id="edge3_Node000003_Node000002" class="edge">
<title>Node3&#45;&gt;Node2</title>
<g id="a_edge3_Node000003_Node000002"><a xlink:title=" ">
<path fill="none" stroke="#63b8ff" d="M376.17,-54.12C386.49,-55.27 397.16,-56.46 407.53,-57.62"/>
<polygon fill="#63b8ff" stroke="#63b8ff" points="407.45,-61.14 417.77,-58.77 408.23,-54.18 407.45,-61.14"/>
</a>
</g>
</g>
<!-- Node5 -->
<g id="Node000005" class="node">
<title>Node5</title>
<g id="a_Node000005"><a xlink:href="../../db/d4b/classSerializer.html#a92ffe65857abd6eea6a393056a9bb533" target="_top" xlink:title=" ">
<polygon fill="white" stroke="#666666" points="546,-19 412,-19 412,0 546,0 546,-19"/>
<text text-anchor="middle" x="479" y="-7" font-family="Helvetica,sans-Serif" font-size="10.00">Serializer::serializeFloat</text>
</a>
</g>
</g>
<!-- Node4&#45;&gt;Node5 -->
<g id="edge5_Node000004_Node000005" class="edge">
<title>Node4&#45;&gt;Node5</title>
<g id="a_edge5_Node000004_Node000005"><a xlink:title=" ">
<path fill="none" stroke="#63b8ff" d="M373.73,-9.5C382.92,-9.5 392.43,-9.5 401.8,-9.5"/>
<polygon fill="#63b8ff" stroke="#63b8ff" points="401.89,-13 411.89,-9.5 401.89,-6 401.89,-13"/>
</a>
</g>
</g>
</g>
</svg>
