<?xml version="1.0" encoding="UTF-8" standalone="no"?>
<!DOCTYPE svg PUBLIC "-//W3C//DTD SVG 1.1//EN"
 "http://www.w3.org/Graphics/SVG/1.1/DTD/svg11.dtd">
<!-- Generated by graphviz version 2.43.0 (0)
 -->
<!-- Title: Serializer::deserializeGrid Pages: 1 -->
<svg width="1147pt" height="128pt"
 viewBox="0.00 0.00 1147.00 128.00" xmlns="http://www.w3.org/2000/svg" xmlns:xlink="http://www.w3.org/1999/xlink">
<g id="graph0" class="graph" transform="scale(1 1) rotate(0) translate(4 124)">
<title>Serializer::deserializeGrid</title>
<!-- Node1 -->
<g id="Node000001" class="node">
<title>Node1</title>
<g id="a_Node000001"><a xlink:title=" ">
<polygon fill="#999999" stroke="#666666" points="1139,-65 997,-65 997,-46 1139,-46 1139,-65"/>
<text text-anchor="middle" x="1068" y="-53" font-family="Helvetica,sans-Serif" font-size="10.00">Serializer::deserializeGrid</text>
</a>
</g>
</g>
<!-- Node2 -->
<g id="Node000002" class="node">
<title>Node2</title>
<g id="a_Node000002"><a xlink:href="../../db/d4b/classSerializer.html#aff25e5361ee486db1fb453b6ec1f8acf" target="_top" xlink:title=" ">
<polygon fill="white" stroke="#666666" points="953,-102 774,-102 774,-83 953,-83 953,-102"/>
<text text-anchor="middle" x="863.5" y="-90" font-family="Helvetica,sans-Serif" font-size="10.00">Serializer::deserializeBoardEntity</text>
</a>
</g>
</g>
<!-- Node1&#45;&gt;Node2 -->
<g id="edge1_Node000001_Node000002" class="edge">
<title>Node1&#45;&gt;Node2</title>
<g id="a_edge1_Node000001_Node000002"><a xlink:title=" ">
<path fill="none" stroke="#63b8ff" d="M1004.71,-66.88C976.56,-72.02 943.67,-78.03 916.82,-82.94"/>
<polygon fill="#63b8ff" stroke="#63b8ff" points="1005.64,-70.27 1014.85,-65.03 1004.38,-63.38 1005.64,-70.27"/>
</a>
</g>
</g>
<!-- Node7 -->
<g id="Node000007" class="node">
<title>Node7</title>
<g id="a_Node000007"><a xlink:href="../../d6/d6f/classNetworkManager.html#a85d05ea5d23a92fa2d94593612bcdd63" target="_top" xlink:title=" ">
<polygon fill="white" stroke="#666666" points="960,-65 767,-65 767,-46 960,-46 960,-65"/>
<text text-anchor="middle" x="863.5" y="-53" font-family="Helvetica,sans-Serif" font-size="10.00">NetworkManager::handleBoardMeta</text>
</a>
</g>
</g>
<!-- Node1&#45;&gt;Node7 -->
<g id="edge6_Node000001_Node000007" class="edge">
<title>Node1&#45;&gt;Node7</title>
<g id="a_edge6_Node000001_Node000007"><a xlink:title=" ">
<path fill="none" stroke="#63b8ff" d="M986.69,-55.5C978.02,-55.5 969.14,-55.5 960.32,-55.5"/>
<polygon fill="#63b8ff" stroke="#63b8ff" points="986.74,-59 996.74,-55.5 986.74,-52 986.74,-59"/>
</a>
</g>
</g>
<!-- Node11 -->
<g id="Node000011" class="node">
<title>Node11</title>
<g id="a_Node000011"><a xlink:href="../../d6/d6f/classNetworkManager.html#a5974165ef6da3b0a8e954c3219310212" target="_top" xlink:title=" ">
<polygon fill="white" stroke="#666666" points="961,-28 766,-28 766,-9 961,-9 961,-28"/>
<text text-anchor="middle" x="863.5" y="-16" font-family="Helvetica,sans-Serif" font-size="10.00">NetworkManager::handleGridUpdate</text>
</a>
</g>
</g>
<!-- Node1&#45;&gt;Node11 -->
<g id="edge10_Node000001_Node000011" class="edge">
<title>Node1&#45;&gt;Node11</title>
<g id="a_edge10_Node000001_Node000011"><a xlink:title=" ">
<path fill="none" stroke="#63b8ff" d="M1004.71,-44.12C976.56,-38.98 943.67,-32.97 916.82,-28.06"/>
<polygon fill="#63b8ff" stroke="#63b8ff" points="1004.38,-47.62 1014.85,-45.97 1005.64,-40.73 1004.38,-47.62"/>
</a>
</g>
</g>
<!-- Node3 -->
<g id="Node000003" class="node">
<title>Node3</title>
<g id="a_Node000003"><a xlink:href="../../db/d4b/classSerializer.html#a0fa2fd5d94c71074a2a2d4d08fb2ddfd" target="_top" xlink:title=" ">
<polygon fill="white" stroke="#666666" points="722,-120 517,-120 517,-101 722,-101 722,-120"/>
<text text-anchor="middle" x="619.5" y="-108" font-family="Helvetica,sans-Serif" font-size="10.00">Serializer::deserializeGameTableEntity</text>
</a>
</g>
</g>
<!-- Node2&#45;&gt;Node3 -->
<g id="edge2_Node000002_Node000003" class="edge">
<title>Node2&#45;&gt;Node3</title>
<g id="a_edge2_Node000002_Node000003"><a xlink:title=" ">
<path fill="none" stroke="#63b8ff" d="M763.47,-99.87C749.9,-100.88 735.95,-101.91 722.33,-102.93"/>
<polygon fill="#63b8ff" stroke="#63b8ff" points="764.05,-103.33 773.76,-99.1 763.53,-96.35 764.05,-103.33"/>
</a>
</g>
</g>
<!-- Node6 -->
<g id="Node000006" class="node">
<title>Node6</title>
<g id="a_Node000006"><a xlink:href="../../d9/dff/classBoardManager.html#ae3c8d16dfa3b0e954475b6cf8e5e52f2" target="_top" xlink:title=" ">
<polygon fill="white" stroke="#666666" points="706.5,-83 532.5,-83 532.5,-64 706.5,-64 706.5,-83"/>
<text text-anchor="middle" x="619.5" y="-71" font-family="Helvetica,sans-Serif" font-size="10.00">BoardManager::loadActiveBoard</text>
</a>
</g>
</g>
<!-- Node2&#45;&gt;Node6 -->
<g id="edge5_Node000002_Node000006" class="edge">
<title>Node2&#45;&gt;Node6</title>
<g id="a_edge5_Node000002_Node000006"><a xlink:title=" ">
<path fill="none" stroke="#63b8ff" d="M763.68,-84.74C744.83,-83.26 725.23,-81.72 706.81,-80.28"/>
<polygon fill="#63b8ff" stroke="#63b8ff" points="763.52,-88.24 773.76,-85.53 764.07,-81.26 763.52,-88.24"/>
</a>
</g>
</g>
<!-- Node4 -->
<g id="Node000004" class="node">
<title>Node4</title>
<g id="a_Node000004"><a xlink:href="../../da/d28/classGameTableManager.html#aedb2f2634710aeb401d6c7e1c2d6a96d" target="_top" xlink:title=" ">
<polygon fill="white" stroke="#666666" points="466,-120 270,-120 270,-101 466,-101 466,-120"/>
<text text-anchor="middle" x="368" y="-108" font-family="Helvetica,sans-Serif" font-size="10.00">GameTableManager::loadGameTable</text>
</a>
</g>
</g>
<!-- Node3&#45;&gt;Node4 -->
<g id="edge3_Node000003_Node000004" class="edge">
<title>Node3&#45;&gt;Node4</title>
<g id="a_edge3_Node000003_Node000004"><a xlink:title=" ">
<path fill="none" stroke="#63b8ff" d="M506.42,-110.5C492.96,-110.5 479.3,-110.5 466.09,-110.5"/>
<polygon fill="#63b8ff" stroke="#63b8ff" points="506.66,-114 516.66,-110.5 506.66,-107 506.66,-114"/>
</a>
</g>
</g>
<!-- Node5 -->
<g id="Node000005" class="node">
<title>Node5</title>
<g id="a_Node000005"><a xlink:href="../../da/d28/classGameTableManager.html#a42414a5596a4e90a3f321f90e166f9a0" target="_top" xlink:title=" ">
<polygon fill="white" stroke="#666666" points="227,-120 0,-120 0,-101 227,-101 227,-120"/>
<text text-anchor="middle" x="113.5" y="-108" font-family="Helvetica,sans-Serif" font-size="10.00">GameTableManager::hostGameTablePopUp</text>
</a>
</g>
</g>
<!-- Node4&#45;&gt;Node5 -->
<g id="edge4_Node000004_Node000005" class="edge">
<title>Node4&#45;&gt;Node5</title>
<g id="a_edge4_Node000004_Node000005"><a xlink:title=" ">
<path fill="none" stroke="#63b8ff" d="M259.57,-110.5C248.89,-110.5 238.03,-110.5 227.3,-110.5"/>
<polygon fill="#63b8ff" stroke="#63b8ff" points="259.74,-114 269.74,-110.5 259.74,-107 259.74,-114"/>
</a>
</g>
</g>
<!-- Node8 -->
<g id="Node000008" class="node">
<title>Node8</title>
<g id="a_Node000008"><a xlink:href="../../d6/d6f/classNetworkManager.html#a53df93ad0cb0498c82f866a921e7b285" target="_top" xlink:title=" ">
<polygon fill="white" stroke="#666666" points="730,-37 509,-37 509,-18 730,-18 730,-37"/>
<text text-anchor="middle" x="619.5" y="-25" font-family="Helvetica,sans-Serif" font-size="10.00">NetworkManager::decodeRawGameBuffer</text>
</a>
</g>
</g>
<!-- Node7&#45;&gt;Node8 -->
<g id="edge7_Node000007_Node000008" class="edge">
<title>Node7&#45;&gt;Node8</title>
<g id="a_edge7_Node000007_Node000008"><a xlink:title=" ">
<path fill="none" stroke="#63b8ff" d="M770.18,-44.82C748.06,-42.26 724.59,-39.54 702.95,-37.04"/>
<polygon fill="#63b8ff" stroke="#63b8ff" points="769.9,-48.31 780.23,-45.98 770.7,-41.36 769.9,-48.31"/>
</a>
</g>
</g>
<!-- Node9 -->
<g id="Node000009" class="node">
<title>Node9</title>
<g id="a_Node000009"><a xlink:href="../../d6/d6f/classNetworkManager.html#ad3605b8b33fa44492458d0aaffb4dec8" target="_top" xlink:title=" ">
<polygon fill="white" stroke="#666666" points="463.5,-56 272.5,-56 272.5,-37 463.5,-37 463.5,-56"/>
<text text-anchor="middle" x="368" y="-44" font-family="Helvetica,sans-Serif" font-size="10.00">NetworkManager::drainInboundRaw</text>
</a>
</g>
</g>
<!-- Node8&#45;&gt;Node9 -->
<g id="edge8_Node000008_Node000009" class="edge">
<title>Node8&#45;&gt;Node9</title>
<g id="a_edge8_Node000008_Node000009"><a xlink:title=" ">
<path fill="none" stroke="#63b8ff" d="M498.45,-36.64C486.75,-37.53 475,-38.43 463.61,-39.3"/>
<polygon fill="#63b8ff" stroke="#63b8ff" points="499,-40.11 508.7,-35.86 498.47,-33.13 499,-40.11"/>
</a>
</g>
</g>
<!-- Node10 -->
<g id="Node000010" class="node">
<title>Node10</title>
<g id="a_Node000010"><a xlink:href="../../d6/d6f/classNetworkManager.html#a3289708df965193b6ec0287eb069b276" target="_top" xlink:title=" ">
<polygon fill="white" stroke="#666666" points="473,-19 263,-19 263,0 473,0 473,-19"/>
<text text-anchor="middle" x="368" y="-7" font-family="Helvetica,sans-Serif" font-size="10.00">NetworkManager::startRawDrainWorker</text>
</a>
</g>
</g>
<!-- Node8&#45;&gt;Node10 -->
<g id="edge9_Node000008_Node000010" class="edge">
<title>Node8&#45;&gt;Node10</title>
<g id="a_edge9_Node000008_Node000010"><a xlink:title=" ">
<path fill="none" stroke="#63b8ff" d="M498.46,-18.84C490.05,-18.23 481.61,-17.62 473.29,-17.02"/>
<polygon fill="#63b8ff" stroke="#63b8ff" points="498.48,-22.35 508.7,-19.58 498.98,-15.37 498.48,-22.35"/>
</a>
</g>
</g>
<!-- Node11&#45;&gt;Node8 -->
<g id="edge11_Node000011_Node000008" class="edge">
<title>Node11&#45;&gt;Node8</title>
<g id="a_edge11_Node000011_Node000008"><a xlink:title=" ">
<path fill="none" stroke="#63b8ff" d="M755.58,-22.48C747.15,-22.79 738.62,-23.11 730.17,-23.42"/>
<polygon fill="#63b8ff" stroke="#63b8ff" points="755.95,-25.97 765.81,-22.1 755.69,-18.97 755.95,-25.97"/>
</a>
</g>
</g>
</g>
</svg>
