<?xml version="1.0" encoding="UTF-8" standalone="no"?>
<!DOCTYPE svg PUBLIC "-//W3C//DTD SVG 1.1//EN"
 "http://www.w3.org/Graphics/SVG/1.1/DTD/svg11.dtd">
<!-- Generated by graphviz version 2.43.0 (0)
 -->
<!-- Title: Serializer::serializeUInt64 Pages: 1 -->
<svg width="1457pt" height="757pt"
 viewBox="0.00 0.00 1457.00 756.94" xmlns="http://www.w3.org/2000/svg" xmlns:xlink="http://www.w3.org/1999/xlink">
<g id="graph0" class="graph" transform="scale(1 1) rotate(0) translate(4 752.94)">
<title>Serializer::serializeUInt64</title>
<!-- Node1 -->
<g id="Node000001" class="node">
<title>Node1</title>
<g id="a_Node000001"><a xlink:title=" ">
<polygon fill="#999999" stroke="#666666" points="1449,-372 1307,-372 1307,-353 1449,-353 1449,-372"/>
<text text-anchor="middle" x="1378" y="-360" font-family="Helvetica,sans-Serif" font-size="10.00">Serializer::serializeUInt64</text>
</a>
</g>
</g>
<!-- Node2 -->
<g id="Node000002" class="node">
<title>Node2</title>
<g id="a_Node000002"><a xlink:href="../../d6/d6f/classNetworkManager.html#a2312355e8a21dec223fcf13d383309ff" target="_top" xlink:title=" ">
<polygon fill="white" stroke="#666666" points="971.5,-615 742.5,-615 742.5,-596 971.5,-596 971.5,-615"/>
<text text-anchor="middle" x="857" y="-603" font-family="Helvetica,sans-Serif" font-size="10.00">NetworkManager::buildCommitBoardFrame</text>
</a>
</g>
</g>
<!-- Node1&#45;&gt;Node2 -->
<g id="edge1_Node000001_Node000002" class="edge">
<title>Node1&#45;&gt;Node2</title>
<g id="a_edge1_Node000001_Node000002"><a xlink:title=" ">
<path fill="none" stroke="#63b8ff" d="M1374.35,-382.36C1367.15,-427.53 1342.69,-537.73 1271,-585.5 1223.73,-616.99 1077.08,-617.19 971.98,-612.75"/>
<polygon fill="#63b8ff" stroke="#63b8ff" points="1377.83,-382.76 1375.83,-372.36 1370.9,-381.74 1377.83,-382.76"/>
</a>
</g>
</g>
<!-- Node7 -->
<g id="Node000007" class="node">
<title>Node7</title>
<g id="a_Node000007"><a xlink:href="../../d6/d6f/classNetworkManager.html#a5a298bfe9adff14e356bd4dad5cbc5b3" target="_top" xlink:title=" ">
<polygon fill="white" stroke="#666666" points="974,-690 740,-690 740,-671 974,-671 974,-690"/>
<text text-anchor="middle" x="857" y="-678" font-family="Helvetica,sans-Serif" font-size="10.00">NetworkManager::buildCommitMarkerFrame</text>
</a>
</g>
</g>
<!-- Node1&#45;&gt;Node7 -->
<g id="edge6_Node000001_Node000007" class="edge">
<title>Node1&#45;&gt;Node7</title>
<g id="a_edge6_Node000001_Node000007"><a xlink:title=" ">
<path fill="none" stroke="#63b8ff" d="M1376.94,-382.37C1375.56,-437.55 1363.31,-593.05 1271,-661.5 1225.6,-695.17 1079.73,-694.6 974.21,-689.18"/>
<polygon fill="#63b8ff" stroke="#63b8ff" points="1380.44,-382.24 1377.09,-372.19 1373.44,-382.13 1380.44,-382.24"/>
</a>
</g>
</g>
<!-- Node10 -->
<g id="Node000010" class="node">
<title>Node10</title>
<g id="a_Node000010"><a xlink:href="../../d6/d6f/classNetworkManager.html#abb704d7511a6b3f8e125f8371ea3b97d" target="_top" xlink:title=" ">
<polygon fill="white" stroke="#666666" points="970.5,-727 743.5,-727 743.5,-708 970.5,-708 970.5,-727"/>
<text text-anchor="middle" x="857" y="-715" font-family="Helvetica,sans-Serif" font-size="10.00">NetworkManager::buildCreateMarkerFrame</text>
</a>
</g>
</g>
<!-- Node1&#45;&gt;Node10 -->
<g id="edge9_Node000001_Node000010" class="edge">
<title>Node1&#45;&gt;Node10</title>
<g id="a_edge9_Node000001_Node000010"><a xlink:title=" ">
<path fill="none" stroke="#63b8ff" d="M1377.56,-382.2C1378.03,-440.5 1370.59,-612.93 1271,-690.5 1157.91,-778.59 970.26,-745.78 892.95,-727.01"/>
<polygon fill="#63b8ff" stroke="#63b8ff" points="1381.06,-382.06 1377.39,-372.12 1374.06,-382.18 1381.06,-382.06"/>
</a>
</g>
</g>
<!-- Node11 -->
<g id="Node000011" class="node">
<title>Node11</title>
<g id="a_Node000011"><a xlink:href="../../d6/d6f/classNetworkManager.html#a0aadf47f716f74e1fa0cf810715bedc2" target="_top" xlink:title=" ">
<polygon fill="white" stroke="#666666" points="1246,-539 1035,-539 1035,-520 1246,-520 1246,-539"/>
<text text-anchor="middle" x="1140.5" y="-527" font-family="Helvetica,sans-Serif" font-size="10.00">NetworkManager::buildFogCreateFrame</text>
</a>
</g>
</g>
<!-- Node1&#45;&gt;Node11 -->
<g id="edge11_Node000001_Node000011" class="edge">
<title>Node1&#45;&gt;Node11</title>
<g id="a_edge11_Node000001_Node000011"><a xlink:title=" ">
<path fill="none" stroke="#63b8ff" d="M1369.47,-381.59C1355.48,-414.28 1322.19,-480.45 1271,-511.5 1263.33,-516.15 1254.95,-519.79 1246.25,-522.63"/>
<polygon fill="#63b8ff" stroke="#63b8ff" points="1372.75,-382.82 1373.33,-372.24 1366.28,-380.15 1372.75,-382.82"/>
</a>
</g>
</g>
<!-- Node14 -->
<g id="Node000014" class="node">
<title>Node14</title>
<g id="a_Node000014"><a xlink:href="../../d6/d6f/classNetworkManager.html#ae092d67d435d2d9db776324c2c9f58b8" target="_top" xlink:title=" ">
<polygon fill="white" stroke="#666666" points="1246,-502 1035,-502 1035,-483 1246,-483 1246,-502"/>
<text text-anchor="middle" x="1140.5" y="-490" font-family="Helvetica,sans-Serif" font-size="10.00">NetworkManager::buildFogDeleteFrame</text>
</a>
</g>
</g>
<!-- Node1&#45;&gt;Node14 -->
<g id="edge14_Node000001_Node000014" class="edge">
<title>Node1&#45;&gt;Node14</title>
<g id="a_edge14_Node000001_Node000014"><a xlink:title=" ">
<path fill="none" stroke="#63b8ff" d="M1365.82,-380.46C1348.81,-406.08 1313.82,-452.45 1271,-474.5 1263.23,-478.5 1254.87,-481.71 1246.27,-484.26"/>
<polygon fill="#63b8ff" stroke="#63b8ff" points="1368.77,-382.34 1371.26,-372.04 1362.89,-378.54 1368.77,-382.34"/>
</a>
</g>
</g>
<!-- Node17 -->
<g id="Node000017" class="node">
<title>Node17</title>
<g id="a_Node000017"><a xlink:href="../../d6/d6f/classNetworkManager.html#a22a74f98b0c9341e369396bd22685055" target="_top" xlink:title=" ">
<polygon fill="white" stroke="#666666" points="1247.5,-465 1033.5,-465 1033.5,-446 1247.5,-446 1247.5,-465"/>
<text text-anchor="middle" x="1140.5" y="-453" font-family="Helvetica,sans-Serif" font-size="10.00">NetworkManager::buildFogUpdateFrame</text>
</a>
</g>
</g>
<!-- Node1&#45;&gt;Node17 -->
<g id="edge17_Node000001_Node000017" class="edge">
<title>Node1&#45;&gt;Node17</title>
<g id="a_edge17_Node000001_Node000017"><a xlink:title=" ">
<path fill="none" stroke="#63b8ff" d="M1359.59,-378.88C1339.78,-396.49 1305.66,-423.78 1271,-437.5 1262.35,-440.93 1253.14,-443.72 1243.79,-445.99"/>
<polygon fill="#63b8ff" stroke="#63b8ff" points="1362.11,-381.32 1367.16,-372 1357.4,-376.14 1362.11,-381.32"/>
</a>
</g>
</g>
<!-- Node20 -->
<g id="Node000020" class="node">
<title>Node20</title>
<g id="a_Node000020"><a xlink:href="../../d6/d6f/classNetworkManager.html#a69494ac8e4544eab4263d7c9d56c7cf2" target="_top" xlink:title=" ">
<polygon fill="white" stroke="#666666" points="1249,-428 1032,-428 1032,-409 1249,-409 1249,-428"/>
<text text-anchor="middle" x="1140.5" y="-416" font-family="Helvetica,sans-Serif" font-size="10.00">NetworkManager::buildGridUpdateFrame</text>
</a>
</g>
</g>
<!-- Node1&#45;&gt;Node20 -->
<g id="edge20_Node000001_Node000020" class="edge">
<title>Node1&#45;&gt;Node20</title>
<g id="a_edge20_Node000001_Node000020"><a xlink:title=" ">
<path fill="none" stroke="#63b8ff" d="M1345.37,-375.78C1324.57,-384.02 1296.57,-394.21 1271,-400.5 1257.33,-403.86 1242.69,-406.65 1228.35,-408.95"/>
<polygon fill="#63b8ff" stroke="#63b8ff" points="1346.7,-379.01 1354.67,-372.03 1344.09,-372.52 1346.7,-379.01"/>
</a>
</g>
</g>
<!-- Node23 -->
<g id="Node000023" class="node">
<title>Node23</title>
<g id="a_Node000023"><a xlink:href="../../d6/d6f/classNetworkManager.html#ad6d9928959397e1cfa4f6c0f322a20fd" target="_top" xlink:title=" ">
<polygon fill="white" stroke="#666666" points="1252,-652 1029,-652 1029,-633 1252,-633 1252,-652"/>
<text text-anchor="middle" x="1140.5" y="-640" font-family="Helvetica,sans-Serif" font-size="10.00">NetworkManager::buildImageChunkFrame</text>
</a>
</g>
</g>
<!-- Node1&#45;&gt;Node23 -->
<g id="edge23_Node000001_Node000023" class="edge">
<title>Node1&#45;&gt;Node23</title>
<g id="a_edge23_Node000001_Node000023"><a xlink:title=" ">
<path fill="none" stroke="#63b8ff" d="M1375.11,-382.16C1369.32,-430.68 1347.31,-556.7 1271,-618.5 1263.54,-624.54 1255.04,-629.25 1246.04,-632.9"/>
<polygon fill="#63b8ff" stroke="#63b8ff" points="1378.6,-382.37 1376.21,-372.05 1371.64,-381.62 1378.6,-382.37"/>
</a>
</g>
</g>
<!-- Node25 -->
<g id="Node000025" class="node">
<title>Node25</title>
<g id="a_Node000025"><a xlink:href="../../d6/d6f/classNetworkManager.html#ac6c048e2a5d14f1b709b3bb97e500cf5" target="_top" xlink:title=" ">
<polygon fill="white" stroke="#666666" points="1254,-391 1027,-391 1027,-372 1254,-372 1254,-391"/>
<text text-anchor="middle" x="1140.5" y="-379" font-family="Helvetica,sans-Serif" font-size="10.00">NetworkManager::buildMarkerDeleteFrame</text>
</a>
</g>
</g>
<!-- Node1&#45;&gt;Node25 -->
<g id="edge27_Node000001_Node000025" class="edge">
<title>Node1&#45;&gt;Node25</title>
<g id="a_edge27_Node000001_Node000025"><a xlink:title=" ">
<path fill="none" stroke="#63b8ff" d="M1296.64,-368.98C1282.91,-370.09 1268.42,-371.26 1254.04,-372.42"/>
<polygon fill="#63b8ff" stroke="#63b8ff" points="1297.29,-372.44 1306.98,-368.15 1296.73,-365.46 1297.29,-372.44"/>
</a>
</g>
</g>
<!-- Node28 -->
<g id="Node000028" class="node">
<title>Node28</title>
<g id="a_Node000028"><a xlink:href="../../d6/d6f/classNetworkManager.html#ab8fd392b2bcef38aa4c9ab92a7d73fe3" target="_top" xlink:title=" ">
<polygon fill="white" stroke="#666666" points="1251.5,-354 1029.5,-354 1029.5,-335 1251.5,-335 1251.5,-354"/>
<text text-anchor="middle" x="1140.5" y="-342" font-family="Helvetica,sans-Serif" font-size="10.00">NetworkManager::buildMarkerMoveFrame</text>
</a>
</g>
</g>
<!-- Node1&#45;&gt;Node28 -->
<g id="edge30_Node000001_Node000028" class="edge">
<title>Node1&#45;&gt;Node28</title>
<g id="a_edge30_Node000001_Node000028"><a xlink:title=" ">
<path fill="none" stroke="#63b8ff" d="M1296.63,-356.36C1282.21,-355.25 1266.94,-354.09 1251.84,-352.93"/>
<polygon fill="#63b8ff" stroke="#63b8ff" points="1296.74,-359.88 1306.98,-357.15 1297.28,-352.9 1296.74,-359.88"/>
</a>
</g>
</g>
<!-- Node31 -->
<g id="Node000031" class="node">
<title>Node31</title>
<g id="a_Node000031"><a xlink:href="../../d6/d6f/classNetworkManager.html#ae2eab0e91a7b37d26c273e4b0319a21c" target="_top" xlink:title=" ">
<polygon fill="white" stroke="#666666" points="1264.5,-317 1016.5,-317 1016.5,-298 1264.5,-298 1264.5,-317"/>
<text text-anchor="middle" x="1140.5" y="-305" font-family="Helvetica,sans-Serif" font-size="10.00">NetworkManager::buildMarkerMoveStateFrame</text>
</a>
</g>
</g>
<!-- Node1&#45;&gt;Node31 -->
<g id="edge33_Node000001_Node000031" class="edge">
<title>Node1&#45;&gt;Node31</title>
<g id="a_edge33_Node000001_Node000031"><a xlink:title=" ">
<path fill="none" stroke="#63b8ff" d="M1343.39,-349.33C1322.77,-341.7 1295.68,-332.45 1271,-326.5 1255.32,-322.72 1238.37,-319.57 1222.07,-317"/>
<polygon fill="#63b8ff" stroke="#63b8ff" points="1342.36,-352.69 1352.95,-352.93 1344.82,-346.13 1342.36,-352.69"/>
</a>
</g>
</g>
<!-- Node34 -->
<g id="Node000034" class="node">
<title>Node34</title>
<g id="a_Node000034"><a xlink:href="../../d6/d6f/classNetworkManager.html#acf942084ff349010655c47a232659527" target="_top" xlink:title=" ">
<polygon fill="white" stroke="#666666" points="1255.5,-280 1025.5,-280 1025.5,-261 1255.5,-261 1255.5,-280"/>
<text text-anchor="middle" x="1140.5" y="-268" font-family="Helvetica,sans-Serif" font-size="10.00">NetworkManager::buildMarkerUpdateFrame</text>
</a>
</g>
</g>
<!-- Node1&#45;&gt;Node34 -->
<g id="edge36_Node000001_Node000034" class="edge">
<title>Node1&#45;&gt;Node34</title>
<g id="a_edge36_Node000001_Node000034"><a xlink:title=" ">
<path fill="none" stroke="#63b8ff" d="M1358.85,-346.07C1338.86,-328.97 1305.03,-302.87 1271,-289.5 1261.06,-285.59 1250.4,-282.48 1239.63,-280"/>
<polygon fill="#63b8ff" stroke="#63b8ff" points="1356.69,-348.83 1366.53,-352.78 1361.3,-343.56 1356.69,-348.83"/>
</a>
</g>
</g>
<!-- Node37 -->
<g id="Node000037" class="node">
<title>Node37</title>
<g id="a_Node000037"><a xlink:href="../../d6/d6f/classNetworkManager.html#af430cbaa8d0b5ae2424c97cec93e6c06" target="_top" xlink:title=" ">
<polygon fill="white" stroke="#666666" points="1258,-576 1023,-576 1023,-557 1258,-557 1258,-576"/>
<text text-anchor="middle" x="1140.5" y="-564" font-family="Helvetica,sans-Serif" font-size="10.00">NetworkManager::buildSnapshotBoardFrame</text>
</a>
</g>
</g>
<!-- Node1&#45;&gt;Node37 -->
<g id="edge39_Node000001_Node000037" class="edge">
<title>Node1&#45;&gt;Node37</title>
<g id="a_edge39_Node000001_Node000037"><a xlink:title=" ">
<path fill="none" stroke="#63b8ff" d="M1372.07,-382.11C1361.16,-421.04 1331.06,-507.81 1271,-548.5 1266.21,-551.75 1261.09,-554.52 1255.75,-556.9"/>
<polygon fill="#63b8ff" stroke="#63b8ff" points="1375.49,-382.84 1374.69,-372.27 1368.73,-381.03 1375.49,-382.84"/>
</a>
</g>
</g>
<!-- Node38 -->
<g id="Node000038" class="node">
<title>Node38</title>
<g id="a_Node000038"><a xlink:href="../../d6/d6f/classNetworkManager.html#ad3a1202c87e5df7db27357a94194f9b3" target="_top" xlink:title=" ">
<polygon fill="white" stroke="#666666" points="1271,-243 1010,-243 1010,-224 1271,-224 1271,-243"/>
<text text-anchor="middle" x="1140.5" y="-231" font-family="Helvetica,sans-Serif" font-size="10.00">NetworkManager::buildSnapshotGameTableFrame</text>
</a>
</g>
</g>
<!-- Node1&#45;&gt;Node38 -->
<g id="edge41_Node000001_Node000038" class="edge">
<title>Node1&#45;&gt;Node38</title>
<g id="a_edge41_Node000001_Node000038"><a xlink:title=" ">
<path fill="none" stroke="#63b8ff" d="M1365.24,-344.2C1347.92,-318.95 1313.04,-274.11 1271,-252.5 1263.62,-248.71 1255.72,-245.61 1247.58,-243.09"/>
<polygon fill="#63b8ff" stroke="#63b8ff" points="1362.53,-346.45 1370.99,-352.82 1368.35,-342.56 1362.53,-346.45"/>
</a>
</g>
</g>
<!-- Node41 -->
<g id="Node000041" class="node">
<title>Node41</title>
<g id="a_Node000041"><a xlink:href="../../d6/d6f/classNetworkManager.html#a2bdb7f4df1202fad0548600482a4403d" target="_top" xlink:title=" ">
<polygon fill="white" stroke="#666666" points="1249.5,-206 1031.5,-206 1031.5,-187 1249.5,-187 1249.5,-206"/>
<text text-anchor="middle" x="1140.5" y="-194" font-family="Helvetica,sans-Serif" font-size="10.00">NetworkManager::buildUserNameUpdate</text>
</a>
</g>
</g>
<!-- Node1&#45;&gt;Node41 -->
<g id="edge45_Node000001_Node000041" class="edge">
<title>Node1&#45;&gt;Node41</title>
<g id="a_edge45_Node000001_Node000041"><a xlink:title=" ">
<path fill="none" stroke="#63b8ff" d="M1369.37,-343.7C1355.23,-311.5 1321.71,-246.31 1271,-215.5 1264.3,-211.43 1257.05,-208.11 1249.53,-205.42"/>
<polygon fill="#63b8ff" stroke="#63b8ff" points="1366.15,-345.07 1373.28,-352.91 1372.59,-342.33 1366.15,-345.07"/>
</a>
</g>
</g>
<!-- Node42 -->
<g id="Node000042" class="node">
<title>Node42</title>
<g id="a_Node000042"><a xlink:href="../../d7/dc6/classChatManager.html#a9a079a4cf27a53f06277fbe57f1d8555" target="_top" xlink:title=" ">
<polygon fill="white" stroke="#666666" points="1204.5,-169 1076.5,-169 1076.5,-150 1204.5,-150 1204.5,-169"/>
<text text-anchor="middle" x="1140.5" y="-157" font-family="Helvetica,sans-Serif" font-size="10.00">ChatManager::saveLog</text>
</a>
</g>
</g>
<!-- Node1&#45;&gt;Node42 -->
<g id="edge46_Node000001_Node000042" class="edge">
<title>Node1&#45;&gt;Node42</title>
<g id="a_edge46_Node000001_Node000042"><a xlink:title=" ">
<path fill="none" stroke="#63b8ff" d="M1371.9,-342.89C1360.77,-304.32 1330.39,-218.86 1271,-178.5 1251.74,-165.41 1227.14,-159.75 1204.57,-157.68"/>
<polygon fill="#63b8ff" stroke="#63b8ff" points="1368.62,-344.14 1374.65,-352.85 1375.36,-342.28 1368.62,-344.14"/>
</a>
</g>
</g>
<!-- Node45 -->
<g id="Node000045" class="node">
<title>Node45</title>
<g id="a_Node000045"><a xlink:href="../../db/d4b/classSerializer.html#a33c1046417ab5077d907baac823e7194" target="_top" xlink:title=" ">
<polygon fill="white" stroke="#666666" points="1224,-132 1057,-132 1057,-113 1224,-113 1224,-132"/>
<text text-anchor="middle" x="1140.5" y="-120" font-family="Helvetica,sans-Serif" font-size="10.00">Serializer::serializeBoardEntity</text>
</a>
</g>
</g>
<!-- Node1&#45;&gt;Node45 -->
<g id="edge49_Node000001_Node000045" class="edge">
<title>Node1&#45;&gt;Node45</title>
<g id="a_edge49_Node000001_Node000045"><a xlink:title=" ">
<path fill="none" stroke="#63b8ff" d="M1373.91,-343C1365.82,-299.04 1339.72,-192.09 1271,-141.5 1257.46,-131.53 1240.93,-125.74 1224.26,-122.54"/>
<polygon fill="#63b8ff" stroke="#63b8ff" points="1370.48,-343.71 1375.62,-352.97 1377.38,-342.52 1370.48,-343.71"/>
</a>
</g>
</g>
<!-- Node47 -->
<g id="Node000047" class="node">
<title>Node47</title>
<g id="a_Node000047"><a xlink:href="../../db/d4b/classSerializer.html#a88ec96a4390db20ecce812518dd2622c" target="_top" xlink:title=" ">
<polygon fill="white" stroke="#666666" points="953.5,-95 760.5,-95 760.5,-76 953.5,-76 953.5,-95"/>
<text text-anchor="middle" x="857" y="-83" font-family="Helvetica,sans-Serif" font-size="10.00">Serializer::serializeGameTableEntity</text>
</a>
</g>
</g>
<!-- Node1&#45;&gt;Node47 -->
<g id="edge56_Node000001_Node000047" class="edge">
<title>Node1&#45;&gt;Node47</title>
<g id="a_edge56_Node000001_Node000047"><a xlink:title=" ">
<path fill="none" stroke="#63b8ff" d="M1375.76,-342.6C1371.44,-292.45 1352.48,-160.81 1271,-103.5 1221.76,-68.87 1059.72,-71.9 953.85,-78.1"/>
<polygon fill="#63b8ff" stroke="#63b8ff" points="1372.28,-343.06 1376.52,-352.76 1379.26,-342.53 1372.28,-343.06"/>
</a>
</g>
</g>
<!-- Node51 -->
<g id="Node000051" class="node">
<title>Node51</title>
<g id="a_Node000051"><a xlink:href="../../db/d4b/classSerializer.html#a1440a54bfe30bdaee9873faf051305cc" target="_top" xlink:title=" ">
<polygon fill="white" stroke="#666666" points="1218,-56 1063,-56 1063,-37 1218,-37 1218,-56"/>
<text text-anchor="middle" x="1140.5" y="-44" font-family="Helvetica,sans-Serif" font-size="10.00">Serializer::serializeFogEntity</text>
</a>
</g>
</g>
<!-- Node1&#45;&gt;Node51 -->
<g id="edge55_Node000001_Node000051" class="edge">
<title>Node1&#45;&gt;Node51</title>
<g id="a_edge55_Node000001_Node000051"><a xlink:title=" ">
<path fill="none" stroke="#63b8ff" d="M1376.21,-342.66C1372.96,-289.45 1356.29,-142.77 1271,-70.5 1256.26,-58.01 1237.14,-51.15 1218.14,-47.57"/>
<polygon fill="#63b8ff" stroke="#63b8ff" points="1372.72,-342.99 1376.73,-352.79 1379.71,-342.63 1372.72,-342.99"/>
</a>
</g>
</g>
<!-- Node52 -->
<g id="Node000052" class="node">
<title>Node52</title>
<g id="a_Node000052"><a xlink:href="../../db/d4b/classSerializer.html#a8799545c0b1ea86a5447cbcd1d0a733c" target="_top" xlink:title=" ">
<polygon fill="white" stroke="#666666" points="1226.5,-19 1054.5,-19 1054.5,0 1226.5,0 1226.5,-19"/>
<text text-anchor="middle" x="1140.5" y="-7" font-family="Helvetica,sans-Serif" font-size="10.00">Serializer::serializeMarkerEntity</text>
</a>
</g>
</g>
<!-- Node1&#45;&gt;Node52 -->
<g id="edge57_Node000001_Node000052" class="edge">
<title>Node1&#45;&gt;Node52</title>
<g id="a_edge57_Node000001_Node000052"><a xlink:title=" ">
<path fill="none" stroke="#63b8ff" d="M1377.44,-342.73C1377.58,-284.17 1369.31,-110.52 1271,-27.5 1258.51,-16.96 1242.81,-10.92 1226.68,-7.69"/>
<polygon fill="#63b8ff" stroke="#63b8ff" points="1373.94,-342.81 1377.33,-352.85 1380.94,-342.89 1373.94,-342.81"/>
</a>
</g>
</g>
<!-- Node3 -->
<g id="Node000003" class="node">
<title>Node3</title>
<g id="a_Node000003"><a xlink:href="../../d6/d6f/classNetworkManager.html#a9faf2055aa0370adbffaa46b7f7181c1" target="_top" xlink:title=" ">
<polygon fill="white" stroke="#666666" points="662.5,-596 504.5,-596 504.5,-577 662.5,-577 662.5,-596"/>
<text text-anchor="middle" x="583.5" y="-584" font-family="Helvetica,sans-Serif" font-size="10.00">NetworkManager::sendBoard</text>
</a>
</g>
</g>
<!-- Node2&#45;&gt;Node3 -->
<g id="edge2_Node000002_Node000003" class="edge">
<title>Node2&#45;&gt;Node3</title>
<g id="a_edge2_Node000002_Node000003"><a xlink:title=" ">
<path fill="none" stroke="#63b8ff" d="M732.3,-596.84C708.58,-595.18 684.36,-593.49 662.58,-591.96"/>
<polygon fill="#63b8ff" stroke="#63b8ff" points="732.21,-600.35 742.43,-597.55 732.7,-593.36 732.21,-600.35"/>
</a>
</g>
</g>
<!-- Node4 -->
<g id="Node000004" class="node">
<title>Node4</title>
<g id="a_Node000004"><a xlink:href="../../d6/d6f/classNetworkManager.html#ac5104e38077637eeeab41e078fa51a5b" target="_top" xlink:title=" ">
<polygon fill="white" stroke="#666666" points="419.5,-400 207.5,-400 207.5,-381 419.5,-381 419.5,-400"/>
<text text-anchor="middle" x="313.5" y="-388" font-family="Helvetica,sans-Serif" font-size="10.00">NetworkManager::bootstrapPeerIfReady</text>
</a>
</g>
</g>
<!-- Node3&#45;&gt;Node4 -->
<g id="edge3_Node000003_Node000004" class="edge">
<title>Node3&#45;&gt;Node4</title>
<g id="a_edge3_Node000003_Node000004"><a xlink:title=" ">
<path fill="none" stroke="#63b8ff" d="M524.05,-574.31C503.74,-568.46 481.44,-560.12 463,-548.5 396.43,-506.57 339.58,-427.79 320.95,-400.28"/>
<polygon fill="#63b8ff" stroke="#63b8ff" points="523.27,-577.73 533.84,-576.99 525.11,-570.97 523.27,-577.73"/>
</a>
</g>
</g>
<!-- Node6 -->
<g id="Node000006" class="node">
<title>Node6</title>
<g id="a_Node000006"><a xlink:href="../../d6/d6f/classNetworkManager.html#a8104f62e2e6c3197832dbfe7753853de" target="_top" xlink:title=" ">
<polygon fill="white" stroke="#666666" points="405,-596 222,-596 222,-577 405,-577 405,-596"/>
<text text-anchor="middle" x="313.5" y="-584" font-family="Helvetica,sans-Serif" font-size="10.00">NetworkManager::broadcastBoard</text>
</a>
</g>
</g>
<!-- Node3&#45;&gt;Node6 -->
<g id="edge5_Node000003_Node000006" class="edge">
<title>Node3&#45;&gt;Node6</title>
<g id="a_edge5_Node000003_Node000006"><a xlink:title=" ">
<path fill="none" stroke="#63b8ff" d="M493.91,-586.5C465.4,-586.5 433.77,-586.5 405.11,-586.5"/>
<polygon fill="#63b8ff" stroke="#63b8ff" points="494.26,-590 504.26,-586.5 494.26,-583 494.26,-590"/>
</a>
</g>
</g>
<!-- Node5 -->
<g id="Node000005" class="node">
<title>Node5</title>
<g id="a_Node000005"><a xlink:href="../../d6/d6f/classNetworkManager.html#a9211bd133aed2e5ec776b4d4308b30c4" target="_top" xlink:title=" ">
<polygon fill="white" stroke="#666666" points="164,-400 0,-400 0,-381 164,-381 164,-400"/>
<text text-anchor="middle" x="82" y="-388" font-family="Helvetica,sans-Serif" font-size="10.00">NetworkManager::drainEvents</text>
</a>
</g>
</g>
<!-- Node4&#45;&gt;Node5 -->
<g id="edge4_Node000004_Node000005" class="edge">
<title>Node4&#45;&gt;Node5</title>
<g id="a_edge4_Node000004_Node000005"><a xlink:title=" ">
<path fill="none" stroke="#63b8ff" d="M197.26,-390.5C186.11,-390.5 174.96,-390.5 164.25,-390.5"/>
<polygon fill="#63b8ff" stroke="#63b8ff" points="197.49,-394 207.49,-390.5 197.49,-387 197.49,-394"/>
</a>
</g>
</g>
<!-- Node8 -->
<g id="Node000008" class="node">
<title>Node8</title>
<g id="a_Node000008"><a xlink:href="../../d6/d6f/classNetworkManager.html#a88303e860c818888a1cdd7d40bc19bf3" target="_top" xlink:title=" ">
<polygon fill="white" stroke="#666666" points="665.5,-690 501.5,-690 501.5,-671 665.5,-671 665.5,-690"/>
<text text-anchor="middle" x="583.5" y="-678" font-family="Helvetica,sans-Serif" font-size="10.00">NetworkManager::sendMarker</text>
</a>
</g>
</g>
<!-- Node7&#45;&gt;Node8 -->
<g id="edge7_Node000007_Node000008" class="edge">
<title>Node7&#45;&gt;Node8</title>
<g id="a_edge7_Node000007_Node000008"><a xlink:title=" ">
<path fill="none" stroke="#63b8ff" d="M729.42,-680.5C707.77,-680.5 685.81,-680.5 665.75,-680.5"/>
<polygon fill="#63b8ff" stroke="#63b8ff" points="729.68,-684 739.68,-680.5 729.68,-677 729.68,-684"/>
</a>
</g>
</g>
<!-- Node9 -->
<g id="Node000009" class="node">
<title>Node9</title>
<g id="a_Node000009"><a xlink:href="../../d6/d6f/classNetworkManager.html#a1548090a456937ffafda64318f21ba40" target="_top" xlink:title=" ">
<polygon fill="white" stroke="#666666" points="407.5,-690 219.5,-690 219.5,-671 407.5,-671 407.5,-690"/>
<text text-anchor="middle" x="313.5" y="-678" font-family="Helvetica,sans-Serif" font-size="10.00">NetworkManager::broadcastMarker</text>
</a>
</g>
</g>
<!-- Node8&#45;&gt;Node9 -->
<g id="edge8_Node000008_Node000009" class="edge">
<title>Node8&#45;&gt;Node9</title>
<g id="a_edge8_Node000008_Node000009"><a xlink:title=" ">
<path fill="none" stroke="#63b8ff" d="M491.16,-680.5C464.2,-680.5 434.65,-680.5 407.58,-680.5"/>
<polygon fill="#63b8ff" stroke="#63b8ff" points="491.36,-684 501.36,-680.5 491.36,-677 491.36,-684"/>
</a>
</g>
</g>
<!-- Node10&#45;&gt;Node8 -->
<g id="edge10_Node000010_Node000008" class="edge">
<title>Node10&#45;&gt;Node8</title>
<g id="a_edge10_Node000010_Node000008"><a xlink:title=" ">
<path fill="none" stroke="#63b8ff" d="M775.95,-706.59C737.47,-701.35 691.76,-695.12 654.65,-690.06"/>
<polygon fill="#63b8ff" stroke="#63b8ff" points="775.7,-710.09 786.08,-707.97 776.65,-703.15 775.7,-710.09"/>
</a>
</g>
</g>
<!-- Node12 -->
<g id="Node000012" class="node">
<title>Node12</title>
<g id="a_Node000012"><a xlink:href="../../d6/d6f/classNetworkManager.html#aca07ad2cb1e034fe5ac1f6c88df2d7a0" target="_top" xlink:title=" ">
<polygon fill="white" stroke="#666666" points="930.5,-539 783.5,-539 783.5,-520 930.5,-520 930.5,-539"/>
<text text-anchor="middle" x="857" y="-527" font-family="Helvetica,sans-Serif" font-size="10.00">NetworkManager::sendFog</text>
</a>
</g>
</g>
<!-- Node11&#45;&gt;Node12 -->
<g id="edge12_Node000011_Node000012" class="edge">
<title>Node11&#45;&gt;Node12</title>
<g id="a_edge12_Node000011_Node000012"><a xlink:title=" ">
<path fill="none" stroke="#63b8ff" d="M1024.48,-529.5C992.84,-529.5 959.4,-529.5 930.87,-529.5"/>
<polygon fill="#63b8ff" stroke="#63b8ff" points="1024.68,-533 1034.68,-529.5 1024.68,-526 1024.68,-533"/>
</a>
</g>
</g>
<!-- Node13 -->
<g id="Node000013" class="node">
<title>Node13</title>
<g id="a_Node000013"><a xlink:href="../../d6/d6f/classNetworkManager.html#ac9b0019724cae52ed6be8fb853fa62e5" target="_top" xlink:title=" ">
<polygon fill="white" stroke="#666666" points="669.5,-539 497.5,-539 497.5,-520 669.5,-520 669.5,-539"/>
<text text-anchor="middle" x="583.5" y="-527" font-family="Helvetica,sans-Serif" font-size="10.00">NetworkManager::broadcastFog</text>
</a>
</g>
</g>
<!-- Node12&#45;&gt;Node13 -->
<g id="edge13_Node000012_Node000013" class="edge">
<title>Node12&#45;&gt;Node13</title>
<g id="a_edge13_Node000012_Node000013"><a xlink:title=" ">
<path fill="none" stroke="#63b8ff" d="M772.84,-529.5C740.22,-529.5 702.82,-529.5 669.99,-529.5"/>
<polygon fill="#63b8ff" stroke="#63b8ff" points="773.24,-533 783.24,-529.5 773.24,-526 773.24,-533"/>
</a>
</g>
</g>
<!-- Node15 -->
<g id="Node000015" class="node">
<title>Node15</title>
<g id="a_Node000015"><a xlink:href="../../d6/d6f/classNetworkManager.html#aad1e7e0b1f9199df8863180b8e52f962" target="_top" xlink:title=" ">
<polygon fill="white" stroke="#666666" points="946.5,-502 767.5,-502 767.5,-483 946.5,-483 946.5,-502"/>
<text text-anchor="middle" x="857" y="-490" font-family="Helvetica,sans-Serif" font-size="10.00">NetworkManager::sendFogDelete</text>
</a>
</g>
</g>
<!-- Node14&#45;&gt;Node15 -->
<g id="edge15_Node000014_Node000015" class="edge">
<title>Node14&#45;&gt;Node15</title>
<g id="a_edge15_Node000014_Node000015"><a xlink:title=" ">
<path fill="none" stroke="#63b8ff" d="M1024.43,-492.5C998.52,-492.5 971.4,-492.5 946.76,-492.5"/>
<polygon fill="#63b8ff" stroke="#63b8ff" points="1024.68,-496 1034.68,-492.5 1024.68,-489 1024.68,-496"/>
</a>
</g>
</g>
<!-- Node16 -->
<g id="Node000016" class="node">
<title>Node16</title>
<g id="a_Node000016"><a xlink:href="../../d6/d6f/classNetworkManager.html#a80077121e02a5bf6a05c519a87a795f3" target="_top" xlink:title=" ">
<polygon fill="white" stroke="#666666" points="685.5,-502 481.5,-502 481.5,-483 685.5,-483 685.5,-502"/>
<text text-anchor="middle" x="583.5" y="-490" font-family="Helvetica,sans-Serif" font-size="10.00">NetworkManager::broadcastFogDelete</text>
</a>
</g>
</g>
<!-- Node15&#45;&gt;Node16 -->
<g id="edge16_Node000015_Node000016" class="edge">
<title>Node15&#45;&gt;Node16</title>
<g id="a_edge16_Node000015_Node000016"><a xlink:title=" ">
<path fill="none" stroke="#63b8ff" d="M757.24,-492.5C733.93,-492.5 709.04,-492.5 685.62,-492.5"/>
<polygon fill="#63b8ff" stroke="#63b8ff" points="757.48,-496 767.48,-492.5 757.48,-489 757.48,-496"/>
</a>
</g>
</g>
<!-- Node18 -->
<g id="Node000018" class="node">
<title>Node18</title>
<g id="a_Node000018"><a xlink:href="../../d6/d6f/classNetworkManager.html#a3684a5a4e823449e8006c323faf54f8a" target="_top" xlink:title=" ">
<polygon fill="white" stroke="#666666" points="948,-465 766,-465 766,-446 948,-446 948,-465"/>
<text text-anchor="middle" x="857" y="-453" font-family="Helvetica,sans-Serif" font-size="10.00">NetworkManager::sendFogUpdate</text>
</a>
</g>
</g>
<!-- Node17&#45;&gt;Node18 -->
<g id="edge18_Node000017_Node000018" class="edge">
<title>Node17&#45;&gt;Node18</title>
<g id="a_edge18_Node000017_Node000018"><a xlink:title=" ">
<path fill="none" stroke="#63b8ff" d="M1023.21,-455.5C998.2,-455.5 972.12,-455.5 948.28,-455.5"/>
<polygon fill="#63b8ff" stroke="#63b8ff" points="1023.48,-459 1033.48,-455.5 1023.48,-452 1023.48,-459"/>
</a>
</g>
</g>
<!-- Node19 -->
<g id="Node000019" class="node">
<title>Node19</title>
<g id="a_Node000019"><a xlink:href="../../d6/d6f/classNetworkManager.html#a952cf99cf04e63f0a0674f06ab8ec4bb" target="_top" xlink:title=" ">
<polygon fill="white" stroke="#666666" points="687,-465 480,-465 480,-446 687,-446 687,-465"/>
<text text-anchor="middle" x="583.5" y="-453" font-family="Helvetica,sans-Serif" font-size="10.00">NetworkManager::broadcastFogUpdate</text>
</a>
</g>
</g>
<!-- Node18&#45;&gt;Node19 -->
<g id="edge19_Node000018_Node000019" class="edge">
<title>Node18&#45;&gt;Node19</title>
<g id="a_edge19_Node000018_Node000019"><a xlink:title=" ">
<path fill="none" stroke="#63b8ff" d="M755.83,-455.5C733.53,-455.5 709.85,-455.5 687.43,-455.5"/>
<polygon fill="#63b8ff" stroke="#63b8ff" points="755.97,-459 765.97,-455.5 755.97,-452 755.97,-459"/>
</a>
</g>
</g>
<!-- Node21 -->
<g id="Node000021" class="node">
<title>Node21</title>
<g id="a_Node000021"><a xlink:href="../../d6/d6f/classNetworkManager.html#aa65d06dfc8028a6bda33056bee158918" target="_top" xlink:title=" ">
<polygon fill="white" stroke="#666666" points="949.5,-428 764.5,-428 764.5,-409 949.5,-409 949.5,-428"/>
<text text-anchor="middle" x="857" y="-416" font-family="Helvetica,sans-Serif" font-size="10.00">NetworkManager::sendGridUpdate</text>
</a>
</g>
</g>
<!-- Node20&#45;&gt;Node21 -->
<g id="edge21_Node000020_Node000021" class="edge">
<title>Node20&#45;&gt;Node21</title>
<g id="a_edge21_Node000020_Node000021"><a xlink:title=" ">
<path fill="none" stroke="#63b8ff" d="M1021.61,-418.5C997.52,-418.5 972.52,-418.5 949.52,-418.5"/>
<polygon fill="#63b8ff" stroke="#63b8ff" points="1021.87,-422 1031.87,-418.5 1021.87,-415 1021.87,-422"/>
</a>
</g>
</g>
<!-- Node22 -->
<g id="Node000022" class="node">
<title>Node22</title>
<g id="a_Node000022"><a xlink:href="../../d6/d6f/classNetworkManager.html#aea4ab5f779d28c2b8e5a69ec89c21ebf" target="_top" xlink:title=" ">
<polygon fill="white" stroke="#666666" points="688.5,-428 478.5,-428 478.5,-409 688.5,-409 688.5,-428"/>
<text text-anchor="middle" x="583.5" y="-416" font-family="Helvetica,sans-Serif" font-size="10.00">NetworkManager::broadcastGridUpdate</text>
</a>
</g>
</g>
<!-- Node21&#45;&gt;Node22 -->
<g id="edge22_Node000021_Node000022" class="edge">
<title>Node21&#45;&gt;Node22</title>
<g id="a_edge22_Node000021_Node000022"><a xlink:title=" ">
<path fill="none" stroke="#63b8ff" d="M754.37,-418.5C732.93,-418.5 710.28,-418.5 688.74,-418.5"/>
<polygon fill="#63b8ff" stroke="#63b8ff" points="754.46,-422 764.46,-418.5 754.46,-415 754.46,-422"/>
</a>
</g>
</g>
<!-- Node24 -->
<g id="Node000024" class="node">
<title>Node24</title>
<g id="a_Node000024"><a xlink:href="../../d6/d6f/classNetworkManager.html#ab54b0f1b56efebcaeaf9a34a0af6194c" target="_top" xlink:title=" ">
<polygon fill="white" stroke="#666666" points="955.5,-652 758.5,-652 758.5,-633 955.5,-633 955.5,-652"/>
<text text-anchor="middle" x="857" y="-640" font-family="Helvetica,sans-Serif" font-size="10.00">NetworkManager::sendImageChunks</text>
</a>
</g>
</g>
<!-- Node23&#45;&gt;Node24 -->
<g id="edge24_Node000023_Node000024" class="edge">
<title>Node23&#45;&gt;Node24</title>
<g id="a_edge24_Node000023_Node000024"><a xlink:title=" ">
<path fill="none" stroke="#63b8ff" d="M1018.39,-642.5C997.39,-642.5 975.79,-642.5 955.51,-642.5"/>
<polygon fill="#63b8ff" stroke="#63b8ff" points="1018.65,-646 1028.65,-642.5 1018.65,-639 1018.65,-646"/>
</a>
</g>
</g>
<!-- Node24&#45;&gt;Node3 -->
<g id="edge25_Node000024_Node000003" class="edge">
<title>Node24&#45;&gt;Node3</title>
<g id="a_edge25_Node000024_Node000003"><a xlink:title=" ">
<path fill="none" stroke="#63b8ff" d="M777.94,-631.33C765.22,-629.24 752.22,-626.94 740,-624.5 698.44,-616.21 651.21,-604.31 619.82,-596.05"/>
<polygon fill="#63b8ff" stroke="#63b8ff" points="777.62,-634.82 788.05,-632.95 778.73,-627.91 777.62,-634.82"/>
</a>
</g>
</g>
<!-- Node24&#45;&gt;Node8 -->
<g id="edge26_Node000024_Node000008" class="edge">
<title>Node24&#45;&gt;Node8</title>
<g id="a_edge26_Node000024_Node000008"><a xlink:title=" ">
<path fill="none" stroke="#63b8ff" d="M777.71,-653.46C738.19,-658.99 690.7,-665.64 652.69,-670.96"/>
<polygon fill="#63b8ff" stroke="#63b8ff" points="778.42,-656.89 787.84,-652.04 777.45,-649.96 778.42,-656.89"/>
</a>
</g>
</g>
<!-- Node26 -->
<g id="Node000026" class="node">
<title>Node26</title>
<g id="a_Node000026"><a xlink:href="../../d6/d6f/classNetworkManager.html#af46b58c27029b0eb91b851a51f6eff73" target="_top" xlink:title=" ">
<polygon fill="white" stroke="#666666" points="955,-391 759,-391 759,-372 955,-372 955,-391"/>
<text text-anchor="middle" x="857" y="-379" font-family="Helvetica,sans-Serif" font-size="10.00">NetworkManager::sendMarkerDelete</text>
</a>
</g>
</g>
<!-- Node25&#45;&gt;Node26 -->
<g id="edge28_Node000025_Node000026" class="edge">
<title>Node25&#45;&gt;Node26</title>
<g id="a_edge28_Node000025_Node000026"><a xlink:title=" ">
<path fill="none" stroke="#63b8ff" d="M1016.57,-381.5C995.97,-381.5 974.86,-381.5 955.04,-381.5"/>
<polygon fill="#63b8ff" stroke="#63b8ff" points="1016.63,-385 1026.63,-381.5 1016.63,-378 1016.63,-385"/>
</a>
</g>
</g>
<!-- Node27 -->
<g id="Node000027" class="node">
<title>Node27</title>
<g id="a_Node000027"><a xlink:href="../../d6/d6f/classNetworkManager.html#a3d49abb7b737ca9e16995f8a55358ae6" target="_top" xlink:title=" ">
<polygon fill="white" stroke="#666666" points="694,-391 473,-391 473,-372 694,-372 694,-391"/>
<text text-anchor="middle" x="583.5" y="-379" font-family="Helvetica,sans-Serif" font-size="10.00">NetworkManager::broadcastMarkerDelete</text>
</a>
</g>
</g>
<!-- Node26&#45;&gt;Node27 -->
<g id="edge29_Node000026_Node000027" class="edge">
<title>Node26&#45;&gt;Node27</title>
<g id="a_edge29_Node000026_Node000027"><a xlink:title=" ">
<path fill="none" stroke="#63b8ff" d="M748.39,-381.5C730.65,-381.5 712.25,-381.5 694.45,-381.5"/>
<polygon fill="#63b8ff" stroke="#63b8ff" points="748.75,-385 758.75,-381.5 748.75,-378 748.75,-385"/>
</a>
</g>
</g>
<!-- Node29 -->
<g id="Node000029" class="node">
<title>Node29</title>
<g id="a_Node000029"><a xlink:href="../../d6/d6f/classNetworkManager.html#a30523648225cb5f4e628c5daa19f4719" target="_top" xlink:title=" ">
<polygon fill="white" stroke="#666666" points="952.5,-354 761.5,-354 761.5,-335 952.5,-335 952.5,-354"/>
<text text-anchor="middle" x="857" y="-342" font-family="Helvetica,sans-Serif" font-size="10.00">NetworkManager::sendMarkerMove</text>
</a>
</g>
</g>
<!-- Node28&#45;&gt;Node29 -->
<g id="edge31_Node000028_Node000029" class="edge">
<title>Node28&#45;&gt;Node29</title>
<g id="a_edge31_Node000028_Node000029"><a xlink:title=" ">
<path fill="none" stroke="#63b8ff" d="M1019.31,-344.5C997.12,-344.5 974.22,-344.5 952.9,-344.5"/>
<polygon fill="#63b8ff" stroke="#63b8ff" points="1019.46,-348 1029.46,-344.5 1019.46,-341 1019.46,-348"/>
</a>
</g>
</g>
<!-- Node30 -->
<g id="Node000030" class="node">
<title>Node30</title>
<g id="a_Node000030"><a xlink:href="../../d6/d6f/classNetworkManager.html#a2c3da3e8d0493153ac8dea2dcda3bfbd" target="_top" xlink:title=" ">
<polygon fill="white" stroke="#666666" points="691,-354 476,-354 476,-335 691,-335 691,-354"/>
<text text-anchor="middle" x="583.5" y="-342" font-family="Helvetica,sans-Serif" font-size="10.00">NetworkManager::broadcastMarkerMove</text>
</a>
</g>
</g>
<!-- Node29&#45;&gt;Node30 -->
<g id="edge32_Node000029_Node000030" class="edge">
<title>Node29&#45;&gt;Node30</title>
<g id="a_edge32_Node000029_Node000030"><a xlink:title=" ">
<path fill="none" stroke="#63b8ff" d="M751.24,-344.5C731.57,-344.5 711,-344.5 691.28,-344.5"/>
<polygon fill="#63b8ff" stroke="#63b8ff" points="751.42,-348 761.42,-344.5 751.42,-341 751.42,-348"/>
</a>
</g>
</g>
<!-- Node32 -->
<g id="Node000032" class="node">
<title>Node32</title>
<g id="a_Node000032"><a xlink:href="../../d6/d6f/classNetworkManager.html#a50e4f0f235f999ccac9a2848c14433c6" target="_top" xlink:title=" ">
<polygon fill="white" stroke="#666666" points="965,-317 749,-317 749,-298 965,-298 965,-317"/>
<text text-anchor="middle" x="857" y="-305" font-family="Helvetica,sans-Serif" font-size="10.00">NetworkManager::sendMarkerMoveState</text>
</a>
</g>
</g>
<!-- Node31&#45;&gt;Node32 -->
<g id="edge34_Node000031_Node000032" class="edge">
<title>Node31&#45;&gt;Node32</title>
<g id="a_edge34_Node000031_Node000032"><a xlink:title=" ">
<path fill="none" stroke="#63b8ff" d="M1006.44,-307.5C992.67,-307.5 978.8,-307.5 965.36,-307.5"/>
<polygon fill="#63b8ff" stroke="#63b8ff" points="1006.44,-311 1016.44,-307.5 1006.44,-304 1006.44,-311"/>
</a>
</g>
</g>
<!-- Node33 -->
<g id="Node000033" class="node">
<title>Node33</title>
<g id="a_Node000033"><a xlink:href="../../d6/d6f/classNetworkManager.html#a53b60b6286f20a92807205dd2f71c200" target="_top" xlink:title=" ">
<polygon fill="white" stroke="#666666" points="704,-317 463,-317 463,-298 704,-298 704,-317"/>
<text text-anchor="middle" x="583.5" y="-305" font-family="Helvetica,sans-Serif" font-size="10.00">NetworkManager::broadcastMarkerMoveState</text>
</a>
</g>
</g>
<!-- Node32&#45;&gt;Node33 -->
<g id="edge35_Node000032_Node000033" class="edge">
<title>Node32&#45;&gt;Node33</title>
<g id="a_edge35_Node000032_Node000033"><a xlink:title=" ">
<path fill="none" stroke="#63b8ff" d="M738.66,-307.5C727.18,-307.5 715.51,-307.5 704.01,-307.5"/>
<polygon fill="#63b8ff" stroke="#63b8ff" points="738.7,-311 748.7,-307.5 738.7,-304 738.7,-311"/>
</a>
</g>
</g>
<!-- Node35 -->
<g id="Node000035" class="node">
<title>Node35</title>
<g id="a_Node000035"><a xlink:href="../../d6/d6f/classNetworkManager.html#a3cd0860da30289b21f2f4bd467d279d3" target="_top" xlink:title=" ">
<polygon fill="white" stroke="#666666" points="956.5,-280 757.5,-280 757.5,-261 956.5,-261 956.5,-280"/>
<text text-anchor="middle" x="857" y="-268" font-family="Helvetica,sans-Serif" font-size="10.00">NetworkManager::sendMarkerUpdate</text>
</a>
</g>
</g>
<!-- Node34&#45;&gt;Node35 -->
<g id="edge37_Node000034_Node000035" class="edge">
<title>Node34&#45;&gt;Node35</title>
<g id="a_edge37_Node000034_Node000035"><a xlink:title=" ">
<path fill="none" stroke="#63b8ff" d="M1015.24,-270.5C995.71,-270.5 975.74,-270.5 956.88,-270.5"/>
<polygon fill="#63b8ff" stroke="#63b8ff" points="1015.41,-274 1025.41,-270.5 1015.41,-267 1015.41,-274"/>
</a>
</g>
</g>
<!-- Node36 -->
<g id="Node000036" class="node">
<title>Node36</title>
<g id="a_Node000036"><a xlink:href="../../d6/d6f/classNetworkManager.html#a2f0bd7fd012f4f7c96fcc25b2ac90b0f" target="_top" xlink:title=" ">
<polygon fill="white" stroke="#666666" points="695.5,-280 471.5,-280 471.5,-261 695.5,-261 695.5,-280"/>
<text text-anchor="middle" x="583.5" y="-268" font-family="Helvetica,sans-Serif" font-size="10.00">NetworkManager::broadcastMarkerUpdate</text>
</a>
</g>
</g>
<!-- Node35&#45;&gt;Node36 -->
<g id="edge38_Node000035_Node000036" class="edge">
<title>Node35&#45;&gt;Node36</title>
<g id="a_edge38_Node000035_Node000036"><a xlink:title=" ">
<path fill="none" stroke="#63b8ff" d="M746.8,-270.5C729.94,-270.5 712.52,-270.5 695.62,-270.5"/>
<polygon fill="#63b8ff" stroke="#63b8ff" points="747.21,-274 757.21,-270.5 747.21,-267 747.21,-274"/>
</a>
</g>
</g>
<!-- Node37&#45;&gt;Node3 -->
<g id="edge40_Node000037_Node000003" class="edge">
<title>Node37&#45;&gt;Node3</title>
<g id="a_edge40_Node000037_Node000003"><a xlink:title=" ">
<path fill="none" stroke="#63b8ff" d="M1012.52,-571.08C904.74,-574.96 753.5,-580.41 662.65,-583.68"/>
<polygon fill="#63b8ff" stroke="#63b8ff" points="1012.95,-574.56 1022.82,-570.7 1012.7,-567.57 1012.95,-574.56"/>
</a>
</g>
</g>
<!-- Node39 -->
<g id="Node000039" class="node">
<title>Node39</title>
<g id="a_Node000039"><a xlink:href="../../d6/d6f/classNetworkManager.html#ae486f852701623bc15b9325f8bb64794" target="_top" xlink:title=" ">
<polygon fill="white" stroke="#666666" points="949.5,-242 764.5,-242 764.5,-223 949.5,-223 949.5,-242"/>
<text text-anchor="middle" x="857" y="-230" font-family="Helvetica,sans-Serif" font-size="10.00">NetworkManager::sendGameTable</text>
</a>
</g>
</g>
<!-- Node38&#45;&gt;Node39 -->
<g id="edge42_Node000038_Node000039" class="edge">
<title>Node38&#45;&gt;Node39</title>
<g id="a_edge42_Node000038_Node000039"><a xlink:title=" ">
<path fill="none" stroke="#63b8ff" d="M999.84,-233C982.79,-232.94 965.71,-232.88 949.61,-232.83"/>
<polygon fill="#63b8ff" stroke="#63b8ff" points="999.86,-236.5 1009.87,-233.04 999.89,-229.5 999.86,-236.5"/>
</a>
</g>
</g>
<!-- Node39&#45;&gt;Node4 -->
<g id="edge43_Node000039_Node000004" class="edge">
<title>Node39&#45;&gt;Node4</title>
<g id="a_edge43_Node000039_Node000004"><a xlink:title=" ">
<path fill="none" stroke="#63b8ff" d="M783.38,-221.83C701.93,-213.06 567.55,-208.32 463,-252.5 395.57,-280.99 339.68,-354.29 321.09,-380.77"/>
<polygon fill="#63b8ff" stroke="#63b8ff" points="783.2,-225.34 793.53,-222.98 783.99,-218.38 783.2,-225.34"/>
</a>
</g>
</g>
<!-- Node40 -->
<g id="Node000040" class="node">
<title>Node40</title>
<g id="a_Node000040"><a xlink:href="../../d6/d6f/classNetworkManager.html#a2a8b22c40456b5e116efcd9317fea0c6" target="_top" xlink:title=" ">
<polygon fill="white" stroke="#666666" points="688,-204 479,-204 479,-185 688,-185 688,-204"/>
<text text-anchor="middle" x="583.5" y="-192" font-family="Helvetica,sans-Serif" font-size="10.00">NetworkManager::broadcastGameTable</text>
</a>
</g>
</g>
<!-- Node39&#45;&gt;Node40 -->
<g id="edge44_Node000039_Node000040" class="edge">
<title>Node39&#45;&gt;Node40</title>
<g id="a_edge44_Node000039_Node000040"><a xlink:title=" ">
<path fill="none" stroke="#63b8ff" d="M777.71,-221.54C738.19,-216.01 690.7,-209.36 652.69,-204.04"/>
<polygon fill="#63b8ff" stroke="#63b8ff" points="777.45,-225.04 787.84,-222.96 778.42,-218.11 777.45,-225.04"/>
</a>
</g>
</g>
<!-- Node43 -->
<g id="Node000043" class="node">
<title>Node43</title>
<g id="a_Node000043"><a xlink:href="../../d7/dc6/classChatManager.html#a17157721204dfd36ab180a404a2294a0" target="_top" xlink:title=" ">
<polygon fill="white" stroke="#666666" points="930.5,-169 783.5,-169 783.5,-150 930.5,-150 930.5,-169"/>
<text text-anchor="middle" x="857" y="-157" font-family="Helvetica,sans-Serif" font-size="10.00">ChatManager::saveCurrent</text>
</a>
</g>
</g>
<!-- Node42&#45;&gt;Node43 -->
<g id="edge47_Node000042_Node000043" class="edge">
<title>Node42&#45;&gt;Node43</title>
<g id="a_edge47_Node000042_Node000043"><a xlink:title=" ">
<path fill="none" stroke="#63b8ff" d="M1066.22,-159.5C1024.46,-159.5 972.31,-159.5 930.65,-159.5"/>
<polygon fill="#63b8ff" stroke="#63b8ff" points="1066.33,-163 1076.33,-159.5 1066.33,-156 1066.33,-163"/>
</a>
</g>
</g>
<!-- Node44 -->
<g id="Node000044" class="node">
<title>Node44</title>
<g id="a_Node000044"><a xlink:href="../../d7/dc6/classChatManager.html#a6bf284d1ba8a95c8963efa930ac2c571" target="_top" xlink:title=" ">
<polygon fill="white" stroke="#666666" points="677.5,-167 489.5,-167 489.5,-148 677.5,-148 677.5,-167"/>
<text text-anchor="middle" x="583.5" y="-155" font-family="Helvetica,sans-Serif" font-size="10.00">ChatManager::setActiveGameTable</text>
</a>
</g>
</g>
<!-- Node43&#45;&gt;Node44 -->
<g id="edge48_Node000043_Node000044" class="edge">
<title>Node43&#45;&gt;Node44</title>
<g id="a_edge48_Node000043_Node000044"><a xlink:title=" ">
<path fill="none" stroke="#63b8ff" d="M773.18,-158.89C743.01,-158.67 708.7,-158.41 677.69,-158.19"/>
<polygon fill="#63b8ff" stroke="#63b8ff" points="773.22,-162.39 783.24,-158.96 773.27,-155.39 773.22,-162.39"/>
</a>
</g>
</g>
<!-- Node46 -->
<g id="Node000046" class="node">
<title>Node46</title>
<g id="a_Node000046"><a xlink:href="../../d9/dff/classBoardManager.html#a15c3689fe12cdc5f3d0589f9d92a678e" target="_top" xlink:title=" ">
<polygon fill="white" stroke="#666666" points="945,-132 769,-132 769,-113 945,-113 945,-132"/>
<text text-anchor="middle" x="857" y="-120" font-family="Helvetica,sans-Serif" font-size="10.00">BoardManager::saveActiveBoard</text>
</a>
</g>
</g>
<!-- Node45&#45;&gt;Node46 -->
<g id="edge50_Node000045_Node000046" class="edge">
<title>Node45&#45;&gt;Node46</title>
<g id="a_edge50_Node000045_Node000046"><a xlink:title=" ">
<path fill="none" stroke="#63b8ff" d="M1046.94,-122.5C1014.28,-122.5 977.68,-122.5 945.46,-122.5"/>
<polygon fill="#63b8ff" stroke="#63b8ff" points="1046.94,-126 1056.94,-122.5 1046.94,-119 1046.94,-126"/>
</a>
</g>
</g>
<!-- Node45&#45;&gt;Node47 -->
<g id="edge51_Node000045_Node000047" class="edge">
<title>Node45&#45;&gt;Node47</title>
<g id="a_edge51_Node000045_Node000047"><a xlink:title=" ">
<path fill="none" stroke="#63b8ff" d="M1057.01,-111.66C1017,-106.4 969.37,-100.14 930.74,-95.06"/>
<polygon fill="#63b8ff" stroke="#63b8ff" points="1056.64,-115.14 1067.01,-112.97 1057.55,-108.2 1056.64,-115.14"/>
</a>
</g>
</g>
<!-- Node48 -->
<g id="Node000048" class="node">
<title>Node48</title>
<g id="a_Node000048"><a xlink:href="../../da/d28/classGameTableManager.html#a172cce8920ef8672b5508fdbca0108fa" target="_top" xlink:title=" ">
<polygon fill="white" stroke="#666666" points="695,-95 472,-95 472,-76 695,-76 695,-95"/>
<text text-anchor="middle" x="583.5" y="-83" font-family="Helvetica,sans-Serif" font-size="10.00">GameTableManager::createGameTableFile</text>
</a>
</g>
</g>
<!-- Node47&#45;&gt;Node48 -->
<g id="edge52_Node000047_Node000048" class="edge">
<title>Node47&#45;&gt;Node48</title>
<g id="a_edge52_Node000047_Node000048"><a xlink:title=" ">
<path fill="none" stroke="#63b8ff" d="M750.06,-85.5C732.03,-85.5 713.27,-85.5 695.13,-85.5"/>
<polygon fill="#63b8ff" stroke="#63b8ff" points="750.28,-89 760.28,-85.5 750.28,-82 750.28,-89"/>
</a>
</g>
</g>
<!-- Node49 -->
<g id="Node000049" class="node">
<title>Node49</title>
<g id="a_Node000049"><a xlink:href="../../da/d28/classGameTableManager.html#a42414a5596a4e90a3f321f90e166f9a0" target="_top" xlink:title=" ">
<polygon fill="white" stroke="#666666" points="427,-77 200,-77 200,-58 427,-58 427,-77"/>
<text text-anchor="middle" x="313.5" y="-65" font-family="Helvetica,sans-Serif" font-size="10.00">GameTableManager::hostGameTablePopUp</text>
</a>
</g>
</g>
<!-- Node48&#45;&gt;Node49 -->
<g id="edge53_Node000048_Node000049" class="edge">
<title>Node48&#45;&gt;Node49</title>
<g id="a_edge53_Node000048_Node000049"><a xlink:title=" ">
<path fill="none" stroke="#63b8ff" d="M461.9,-77.4C450.42,-76.63 438.8,-75.85 427.4,-75.08"/>
<polygon fill="#63b8ff" stroke="#63b8ff" points="461.73,-80.9 471.95,-78.07 462.2,-73.91 461.73,-80.9"/>
</a>
</g>
</g>
<!-- Node50 -->
<g id="Node000050" class="node">
<title>Node50</title>
<g id="a_Node000050"><a xlink:href="../../da/d28/classGameTableManager.html#a9e6225573f97256dd5dfef871a1e32d6" target="_top" xlink:title=" ">
<polygon fill="white" stroke="#666666" points="412.5,-114 214.5,-114 214.5,-95 412.5,-95 412.5,-114"/>
<text text-anchor="middle" x="313.5" y="-102" font-family="Helvetica,sans-Serif" font-size="10.00">GameTableManager::saveGameTable</text>
</a>
</g>
</g>
<!-- Node48&#45;&gt;Node50 -->
<g id="edge54_Node000048_Node000050" class="edge">
<title>Node48&#45;&gt;Node50</title>
<g id="a_edge54_Node000048_Node000050"><a xlink:title=" ">
<path fill="none" stroke="#63b8ff" d="M461.78,-94.06C445.39,-95.22 428.73,-96.4 412.8,-97.53"/>
<polygon fill="#63b8ff" stroke="#63b8ff" points="462.22,-97.54 471.95,-93.34 461.72,-90.55 462.22,-97.54"/>
</a>
</g>
</g>
</g>
</svg>
