<?xml version="1.0" encoding="UTF-8" standalone="no"?>
<!DOCTYPE svg PUBLIC "-//W3C//DTD SVG 1.1//EN"
 "http://www.w3.org/Graphics/SVG/1.1/DTD/svg11.dtd">
<!-- Generated by graphviz version 2.43.0 (0)
 -->
<!-- Title: Serializer::serializeString Pages: 1 -->
<svg width="1486pt" height="399pt"
 viewBox="0.00 0.00 1486.00 399.00" xmlns="http://www.w3.org/2000/svg" xmlns:xlink="http://www.w3.org/1999/xlink">
<g id="graph0" class="graph" transform="scale(1 1) rotate(0) translate(4 395)">
<title>Serializer::serializeString</title>
<!-- Node1 -->
<g id="Node000001" class="node">
<title>Node1</title>
<g id="a_Node000001"><a xlink:title=" ">
<polygon fill="#999999" stroke="#666666" points="1478,-206 1340,-206 1340,-187 1478,-187 1478,-206"/>
<text text-anchor="middle" x="1409" y="-194" font-family="Helvetica,sans-Serif" font-size="10.00">Serializer::serializeString</text>
</a>
</g>
</g>
<!-- Node2 -->
<g id="Node000002" class="node">
<title>Node2</title>
<g id="a_Node000002"><a xlink:href="../../d6/d6f/classNetworkManager.html#abb704d7511a6b3f8e125f8371ea3b97d" target="_top" xlink:title=" ">
<polygon fill="white" stroke="#666666" points="1287,-391 1060,-391 1060,-372 1287,-372 1287,-391"/>
<text text-anchor="middle" x="1173.5" y="-379" font-family="Helvetica,sans-Serif" font-size="10.00">NetworkManager::buildCreateMarkerFrame</text>
</a>
</g>
</g>
<!-- Node1&#45;&gt;Node2 -->
<g id="edge1_Node000001_Node000002" class="edge">
<title>Node1&#45;&gt;Node2</title>
<g id="a_edge1_Node000001_Node000002"><a xlink:title=" ">
<path fill="none" stroke="#63b8ff" d="M1402.09,-215.83C1390.04,-251.6 1359.03,-327.76 1304,-363.5 1298.67,-366.96 1292.96,-369.88 1287.01,-372.34"/>
<polygon fill="#63b8ff" stroke="#63b8ff" points="1405.48,-216.7 1405.22,-206.11 1398.82,-214.55 1405.48,-216.7"/>
</a>
</g>
</g>
<!-- Node5 -->
<g id="Node000005" class="node">
<title>Node5</title>
<g id="a_Node000005"><a xlink:href="../../d6/d6f/classNetworkManager.html#af430cbaa8d0b5ae2424c97cec93e6c06" target="_top" xlink:title=" ">
<polygon fill="white" stroke="#666666" points="1291,-354 1056,-354 1056,-335 1291,-335 1291,-354"/>
<text text-anchor="middle" x="1173.5" y="-342" font-family="Helvetica,sans-Serif" font-size="10.00">NetworkManager::buildSnapshotBoardFrame</text>
</a>
</g>
</g>
<!-- Node1&#45;&gt;Node5 -->
<g id="edge4_Node000001_Node000005" class="edge">
<title>Node1&#45;&gt;Node5</title>
<g id="a_edge4_Node000001_Node000005"><a xlink:title=" ">
<path fill="none" stroke="#63b8ff" d="M1398.99,-215.2C1383.83,-244.39 1350.3,-300.17 1304,-326.5 1298.18,-329.81 1291.98,-332.6 1285.57,-334.94"/>
<polygon fill="#63b8ff" stroke="#63b8ff" points="1402.21,-216.58 1403.57,-206.07 1395.95,-213.44 1402.21,-216.58"/>
</a>
</g>
</g>
<!-- Node10 -->
<g id="Node000010" class="node">
<title>Node10</title>
<g id="a_Node000010"><a xlink:href="../../d6/d6f/classNetworkManager.html#ad3a1202c87e5df7db27357a94194f9b3" target="_top" xlink:title=" ">
<polygon fill="white" stroke="#666666" points="1304,-317 1043,-317 1043,-298 1304,-298 1304,-317"/>
<text text-anchor="middle" x="1173.5" y="-305" font-family="Helvetica,sans-Serif" font-size="10.00">NetworkManager::buildSnapshotGameTableFrame</text>
</a>
</g>
</g>
<!-- Node1&#45;&gt;Node10 -->
<g id="edge9_Node000001_Node000010" class="edge">
<title>Node1&#45;&gt;Node10</title>
<g id="a_edge9_Node000001_Node000010"><a xlink:title=" ">
<path fill="none" stroke="#63b8ff" d="M1394.29,-213.92C1376.16,-235.59 1342.03,-271.88 1304,-289.5 1296.69,-292.89 1288.91,-295.68 1280.95,-297.98"/>
<polygon fill="#63b8ff" stroke="#63b8ff" points="1397.03,-216.1 1400.64,-206.14 1391.6,-211.68 1397.03,-216.1"/>
</a>
</g>
</g>
<!-- Node13 -->
<g id="Node000013" class="node">
<title>Node13</title>
<g id="a_Node000013"><a xlink:href="../../d6/d6f/classNetworkManager.html#a2bdb7f4df1202fad0548600482a4403d" target="_top" xlink:title=" ">
<polygon fill="white" stroke="#666666" points="1282.5,-280 1064.5,-280 1064.5,-261 1282.5,-261 1282.5,-280"/>
<text text-anchor="middle" x="1173.5" y="-268" font-family="Helvetica,sans-Serif" font-size="10.00">NetworkManager::buildUserNameUpdate</text>
</a>
</g>
</g>
<!-- Node1&#45;&gt;Node13 -->
<g id="edge13_Node000001_Node000013" class="edge">
<title>Node1&#45;&gt;Node13</title>
<g id="a_edge13_Node000001_Node000013"><a xlink:title=" ">
<path fill="none" stroke="#63b8ff" d="M1385.37,-211.76C1364.99,-224.74 1333.75,-242.77 1304,-252.5 1293.54,-255.92 1282.39,-258.69 1271.19,-260.94"/>
<polygon fill="#63b8ff" stroke="#63b8ff" points="1387.45,-214.59 1393.93,-206.2 1383.64,-208.72 1387.45,-214.59"/>
</a>
</g>
</g>
<!-- Node14 -->
<g id="Node000014" class="node">
<title>Node14</title>
<g id="a_Node000014"><a xlink:href="../../d7/dc6/classChatManager.html#a9a079a4cf27a53f06277fbe57f1d8555" target="_top" xlink:title=" ">
<polygon fill="white" stroke="#666666" points="1237.5,-243 1109.5,-243 1109.5,-224 1237.5,-224 1237.5,-243"/>
<text text-anchor="middle" x="1173.5" y="-231" font-family="Helvetica,sans-Serif" font-size="10.00">ChatManager::saveLog</text>
</a>
</g>
</g>
<!-- Node1&#45;&gt;Node14 -->
<g id="edge14_Node000001_Node000014" class="edge">
<title>Node1&#45;&gt;Node14</title>
<g id="a_edge14_Node000001_Node000014"><a xlink:title=" ">
<path fill="none" stroke="#63b8ff" d="M1348.47,-207.83C1333.94,-210.47 1318.43,-213.18 1304,-215.5 1282.49,-218.96 1258.9,-222.35 1237.81,-225.25"/>
<polygon fill="#63b8ff" stroke="#63b8ff" points="1349.14,-211.26 1358.35,-206.02 1347.88,-204.38 1349.14,-211.26"/>
</a>
</g>
</g>
<!-- Node17 -->
<g id="Node000017" class="node">
<title>Node17</title>
<g id="a_Node000017"><a xlink:href="../../db/d4b/classSerializer.html#a9555132c02190d9a832a360fb236e954" target="_top" xlink:title=" ">
<polygon fill="white" stroke="#666666" points="1242.5,-206 1104.5,-206 1104.5,-187 1242.5,-187 1242.5,-206"/>
<text text-anchor="middle" x="1173.5" y="-194" font-family="Helvetica,sans-Serif" font-size="10.00">Serializer::serializeBoard</text>
</a>
</g>
</g>
<!-- Node1&#45;&gt;Node17 -->
<g id="edge17_Node000001_Node000017" class="edge">
<title>Node1&#45;&gt;Node17</title>
<g id="a_edge17_Node000001_Node000017"><a xlink:title=" ">
<path fill="none" stroke="#63b8ff" d="M1329.63,-196.5C1301.48,-196.5 1269.97,-196.5 1242.75,-196.5"/>
<polygon fill="#63b8ff" stroke="#63b8ff" points="1329.83,-200 1339.83,-196.5 1329.83,-193 1329.83,-200"/>
</a>
</g>
</g>
<!-- Node24 -->
<g id="Node000024" class="node">
<title>Node24</title>
<g id="a_Node000024"><a xlink:href="../../db/d4b/classSerializer.html#a776a157c2ae2e009d25025e0ed151fcb" target="_top" xlink:title=" ">
<polygon fill="white" stroke="#666666" points="974,-94 810,-94 810,-75 974,-75 974,-94"/>
<text text-anchor="middle" x="892" y="-82" font-family="Helvetica,sans-Serif" font-size="10.00">Serializer::serializeGameTable</text>
</a>
</g>
</g>
<!-- Node1&#45;&gt;Node24 -->
<g id="edge24_Node000001_Node000024" class="edge">
<title>Node1&#45;&gt;Node24</title>
<g id="a_edge24_Node000001_Node000024"><a xlink:title=" ">
<path fill="none" stroke="#63b8ff" d="M1394.76,-179.06C1376.9,-157.09 1342.83,-120.3 1304,-104.5 1188.7,-57.58 1039.94,-65.27 956.69,-74.96"/>
<polygon fill="#63b8ff" stroke="#63b8ff" points="1392.04,-181.27 1400.98,-186.94 1397.53,-176.93 1392.04,-181.27"/>
</a>
</g>
</g>
<!-- Node25 -->
<g id="Node000025" class="node">
<title>Node25</title>
<g id="a_Node000025"><a xlink:href="../../db/d4b/classSerializer.html#ab8e8e2bd7ed71e39b528e1bcdf528e0b" target="_top" xlink:title=" ">
<polygon fill="white" stroke="#666666" points="1273.5,-132 1073.5,-132 1073.5,-113 1273.5,-113 1273.5,-132"/>
<text text-anchor="middle" x="1173.5" y="-120" font-family="Helvetica,sans-Serif" font-size="10.00">Serializer::serializeMarkerComponent</text>
</a>
</g>
</g>
<!-- Node1&#45;&gt;Node25 -->
<g id="edge26_Node000001_Node000025" class="edge">
<title>Node1&#45;&gt;Node25</title>
<g id="a_edge26_Node000001_Node000025"><a xlink:title=" ">
<path fill="none" stroke="#63b8ff" d="M1384.97,-181.36C1364.54,-168.67 1333.46,-151.13 1304,-141.5 1292.12,-137.62 1279.37,-134.52 1266.67,-132.06"/>
<polygon fill="#63b8ff" stroke="#63b8ff" points="1383.24,-184.41 1393.56,-186.8 1386.98,-178.49 1383.24,-184.41"/>
</a>
</g>
</g>
<!-- Node30 -->
<g id="Node000030" class="node">
<title>Node30</title>
<g id="a_Node000030"><a xlink:href="../../db/d4b/classSerializer.html#a2e08effc9986b4b485dc4e40ffecb7fb" target="_top" xlink:title=" ">
<polygon fill="white" stroke="#666666" points="1274.5,-169 1072.5,-169 1072.5,-150 1274.5,-150 1274.5,-169"/>
<text text-anchor="middle" x="1173.5" y="-157" font-family="Helvetica,sans-Serif" font-size="10.00">Serializer::serializeTextureComponent</text>
</a>
</g>
</g>
<!-- Node1&#45;&gt;Node30 -->
<g id="edge31_Node000001_Node000030" class="edge">
<title>Node1&#45;&gt;Node30</title>
<g id="a_edge31_Node000001_Node000030"><a xlink:title=" ">
<path fill="none" stroke="#63b8ff" d="M1344.53,-185.25C1331.15,-182.95 1317.12,-180.6 1304,-178.5 1283.81,-175.27 1261.8,-171.96 1241.76,-169.03"/>
<polygon fill="#63b8ff" stroke="#63b8ff" points="1344.15,-188.73 1354.6,-186.99 1345.34,-181.84 1344.15,-188.73"/>
</a>
</g>
</g>
<!-- Node31 -->
<g id="Node000031" class="node">
<title>Node31</title>
<g id="a_Node000031"><a xlink:href="../../d8/d43/classIdentityManager.html#a6423b50955b5c9937b4e3c928ce86dff" target="_top" xlink:title=" ">
<polygon fill="white" stroke="#666666" points="1258.5,-56 1088.5,-56 1088.5,-37 1258.5,-37 1258.5,-56"/>
<text text-anchor="middle" x="1173.5" y="-44" font-family="Helvetica,sans-Serif" font-size="10.00">IdentityManager::writeBookFile</text>
</a>
</g>
</g>
<!-- Node1&#45;&gt;Node31 -->
<g id="edge34_Node000001_Node000031" class="edge">
<title>Node1&#45;&gt;Node31</title>
<g id="a_edge34_Node000001_Node000031"><a xlink:title=" ">
<path fill="none" stroke="#63b8ff" d="M1398.23,-177.79C1382.46,-149.6 1348.61,-96.76 1304,-70.5 1290.3,-62.44 1274.5,-56.99 1258.74,-53.32"/>
<polygon fill="#63b8ff" stroke="#63b8ff" points="1395.19,-179.53 1403.04,-186.65 1401.35,-176.19 1395.19,-179.53"/>
</a>
</g>
</g>
<!-- Node36 -->
<g id="Node000036" class="node">
<title>Node36</title>
<g id="a_Node000036"><a xlink:href="../../d8/d43/classIdentityManager.html#a39c326ae35bbfd58d73cae32d8793174" target="_top" xlink:title=" ">
<polygon fill="white" stroke="#666666" points="1253.5,-19 1093.5,-19 1093.5,0 1253.5,0 1253.5,-19"/>
<text text-anchor="middle" x="1173.5" y="-7" font-family="Helvetica,sans-Serif" font-size="10.00">IdentityManager::writeMeFile</text>
</a>
</g>
</g>
<!-- Node1&#45;&gt;Node36 -->
<g id="edge39_Node000001_Node000036" class="edge">
<title>Node1&#45;&gt;Node36</title>
<g id="a_edge39_Node000001_Node000036"><a xlink:title=" ">
<path fill="none" stroke="#63b8ff" d="M1402.16,-176.95C1390.23,-140.75 1359.41,-63.7 1304,-27.5 1289.18,-17.82 1271.36,-12.36 1253.76,-9.46"/>
<polygon fill="#63b8ff" stroke="#63b8ff" points="1398.91,-178.29 1405.26,-186.78 1405.59,-176.19 1398.91,-178.29"/>
</a>
</g>
</g>
<!-- Node3 -->
<g id="Node000003" class="node">
<title>Node3</title>
<g id="a_Node000003"><a xlink:href="../../d6/d6f/classNetworkManager.html#a88303e860c818888a1cdd7d40bc19bf3" target="_top" xlink:title=" ">
<polygon fill="white" stroke="#666666" points="974,-391 810,-391 810,-372 974,-372 974,-391"/>
<text text-anchor="middle" x="892" y="-379" font-family="Helvetica,sans-Serif" font-size="10.00">NetworkManager::sendMarker</text>
</a>
</g>
</g>
<!-- Node2&#45;&gt;Node3 -->
<g id="edge2_Node000002_Node000003" class="edge">
<title>Node2&#45;&gt;Node3</title>
<g id="a_edge2_Node000002_Node000003"><a xlink:title=" ">
<path fill="none" stroke="#63b8ff" d="M1049.5,-381.5C1023.96,-381.5 997.66,-381.5 974.08,-381.5"/>
<polygon fill="#63b8ff" stroke="#63b8ff" points="1049.62,-385 1059.62,-381.5 1049.62,-378 1049.62,-385"/>
</a>
</g>
</g>
<!-- Node4 -->
<g id="Node000004" class="node">
<title>Node4</title>
<g id="a_Node000004"><a xlink:href="../../d6/d6f/classNetworkManager.html#a1548090a456937ffafda64318f21ba40" target="_top" xlink:title=" ">
<polygon fill="white" stroke="#666666" points="726,-391 538,-391 538,-372 726,-372 726,-391"/>
<text text-anchor="middle" x="632" y="-379" font-family="Helvetica,sans-Serif" font-size="10.00">NetworkManager::broadcastMarker</text>
</a>
</g>
</g>
<!-- Node3&#45;&gt;Node4 -->
<g id="edge3_Node000003_Node000004" class="edge">
<title>Node3&#45;&gt;Node4</title>
<g id="a_edge3_Node000003_Node000004"><a xlink:title=" ">
<path fill="none" stroke="#63b8ff" d="M799.61,-381.5C775.74,-381.5 749.98,-381.5 726.02,-381.5"/>
<polygon fill="#63b8ff" stroke="#63b8ff" points="799.72,-385 809.72,-381.5 799.72,-378 799.72,-385"/>
</a>
</g>
</g>
<!-- Node6 -->
<g id="Node000006" class="node">
<title>Node6</title>
<g id="a_Node000006"><a xlink:href="../../d6/d6f/classNetworkManager.html#a9faf2055aa0370adbffaa46b7f7181c1" target="_top" xlink:title=" ">
<polygon fill="white" stroke="#666666" points="971,-354 813,-354 813,-335 971,-335 971,-354"/>
<text text-anchor="middle" x="892" y="-342" font-family="Helvetica,sans-Serif" font-size="10.00">NetworkManager::sendBoard</text>
</a>
</g>
</g>
<!-- Node5&#45;&gt;Node6 -->
<g id="edge5_Node000005_Node000006" class="edge">
<title>Node5&#45;&gt;Node6</title>
<g id="a_edge5_Node000005_Node000006"><a xlink:title=" ">
<path fill="none" stroke="#63b8ff" d="M1045.89,-344.5C1020.41,-344.5 994.35,-344.5 971.13,-344.5"/>
<polygon fill="#63b8ff" stroke="#63b8ff" points="1045.99,-348 1055.99,-344.5 1045.99,-341 1045.99,-348"/>
</a>
</g>
</g>
<!-- Node7 -->
<g id="Node000007" class="node">
<title>Node7</title>
<g id="a_Node000007"><a xlink:href="../../d6/d6f/classNetworkManager.html#ac5104e38077637eeeab41e078fa51a5b" target="_top" xlink:title=" ">
<polygon fill="white" stroke="#666666" points="738,-317 526,-317 526,-298 738,-298 738,-317"/>
<text text-anchor="middle" x="632" y="-305" font-family="Helvetica,sans-Serif" font-size="10.00">NetworkManager::bootstrapPeerIfReady</text>
</a>
</g>
</g>
<!-- Node6&#45;&gt;Node7 -->
<g id="edge6_Node000006_Node000007" class="edge">
<title>Node6&#45;&gt;Node7</title>
<g id="a_edge6_Node000006_Node000007"><a xlink:title=" ">
<path fill="none" stroke="#63b8ff" d="M814.46,-333.52C777.99,-328.29 734.77,-322.1 699.66,-317.06"/>
<polygon fill="#63b8ff" stroke="#63b8ff" points="814.16,-337.02 824.56,-334.97 815.16,-330.09 814.16,-337.02"/>
</a>
</g>
</g>
<!-- Node9 -->
<g id="Node000009" class="node">
<title>Node9</title>
<g id="a_Node000009"><a xlink:href="../../d6/d6f/classNetworkManager.html#a8104f62e2e6c3197832dbfe7753853de" target="_top" xlink:title=" ">
<polygon fill="white" stroke="#666666" points="723.5,-354 540.5,-354 540.5,-335 723.5,-335 723.5,-354"/>
<text text-anchor="middle" x="632" y="-342" font-family="Helvetica,sans-Serif" font-size="10.00">NetworkManager::broadcastBoard</text>
</a>
</g>
</g>
<!-- Node6&#45;&gt;Node9 -->
<g id="edge8_Node000006_Node000009" class="edge">
<title>Node6&#45;&gt;Node9</title>
<g id="a_edge8_Node000006_Node000009"><a xlink:title=" ">
<path fill="none" stroke="#63b8ff" d="M802.84,-344.5C777.24,-344.5 749.26,-344.5 723.52,-344.5"/>
<polygon fill="#63b8ff" stroke="#63b8ff" points="802.89,-348 812.89,-344.5 802.89,-341 802.89,-348"/>
</a>
</g>
</g>
<!-- Node8 -->
<g id="Node000008" class="node">
<title>Node8</title>
<g id="a_Node000008"><a xlink:href="../../d6/d6f/classNetworkManager.html#a9211bd133aed2e5ec776b4d4308b30c4" target="_top" xlink:title=" ">
<polygon fill="white" stroke="#666666" points="457,-317 293,-317 293,-298 457,-298 457,-317"/>
<text text-anchor="middle" x="375" y="-305" font-family="Helvetica,sans-Serif" font-size="10.00">NetworkManager::drainEvents</text>
</a>
</g>
</g>
<!-- Node7&#45;&gt;Node8 -->
<g id="edge7_Node000007_Node000008" class="edge">
<title>Node7&#45;&gt;Node8</title>
<g id="a_edge7_Node000007_Node000008"><a xlink:title=" ">
<path fill="none" stroke="#63b8ff" d="M515.55,-307.5C495.85,-307.5 475.76,-307.5 457.18,-307.5"/>
<polygon fill="#63b8ff" stroke="#63b8ff" points="515.81,-311 525.81,-307.5 515.81,-304 515.81,-311"/>
</a>
</g>
</g>
<!-- Node11 -->
<g id="Node000011" class="node">
<title>Node11</title>
<g id="a_Node000011"><a xlink:href="../../d6/d6f/classNetworkManager.html#ae486f852701623bc15b9325f8bb64794" target="_top" xlink:title=" ">
<polygon fill="white" stroke="#666666" points="984.5,-317 799.5,-317 799.5,-298 984.5,-298 984.5,-317"/>
<text text-anchor="middle" x="892" y="-305" font-family="Helvetica,sans-Serif" font-size="10.00">NetworkManager::sendGameTable</text>
</a>
</g>
</g>
<!-- Node10&#45;&gt;Node11 -->
<g id="edge10_Node000010_Node000011" class="edge">
<title>Node10&#45;&gt;Node11</title>
<g id="a_edge10_Node000010_Node000011"><a xlink:title=" ">
<path fill="none" stroke="#63b8ff" d="M1032.8,-307.5C1016.44,-307.5 1000.08,-307.5 984.62,-307.5"/>
<polygon fill="#63b8ff" stroke="#63b8ff" points="1032.98,-311 1042.98,-307.5 1032.98,-304 1032.98,-311"/>
</a>
</g>
</g>
<!-- Node11&#45;&gt;Node7 -->
<g id="edge11_Node000011_Node000007" class="edge">
<title>Node11&#45;&gt;Node7</title>
<g id="a_edge11_Node000011_Node000007"><a xlink:title=" ">
<path fill="none" stroke="#63b8ff" d="M788.98,-307.5C772.23,-307.5 754.85,-307.5 738.03,-307.5"/>
<polygon fill="#63b8ff" stroke="#63b8ff" points="789.31,-311 799.31,-307.5 789.31,-304 789.31,-311"/>
</a>
</g>
</g>
<!-- Node12 -->
<g id="Node000012" class="node">
<title>Node12</title>
<g id="a_Node000012"><a xlink:href="../../d6/d6f/classNetworkManager.html#a2a8b22c40456b5e116efcd9317fea0c6" target="_top" xlink:title=" ">
<polygon fill="white" stroke="#666666" points="736.5,-280 527.5,-280 527.5,-261 736.5,-261 736.5,-280"/>
<text text-anchor="middle" x="632" y="-268" font-family="Helvetica,sans-Serif" font-size="10.00">NetworkManager::broadcastGameTable</text>
</a>
</g>
</g>
<!-- Node11&#45;&gt;Node12 -->
<g id="edge12_Node000011_Node000012" class="edge">
<title>Node11&#45;&gt;Node12</title>
<g id="a_edge12_Node000011_Node000012"><a xlink:title=" ">
<path fill="none" stroke="#63b8ff" d="M814.46,-296.52C777.99,-291.29 734.77,-285.1 699.66,-280.06"/>
<polygon fill="#63b8ff" stroke="#63b8ff" points="814.16,-300.02 824.56,-297.97 815.16,-293.09 814.16,-300.02"/>
</a>
</g>
</g>
<!-- Node15 -->
<g id="Node000015" class="node">
<title>Node15</title>
<g id="a_Node000015"><a xlink:href="../../d7/dc6/classChatManager.html#a17157721204dfd36ab180a404a2294a0" target="_top" xlink:title=" ">
<polygon fill="white" stroke="#666666" points="965.5,-243 818.5,-243 818.5,-224 965.5,-224 965.5,-243"/>
<text text-anchor="middle" x="892" y="-231" font-family="Helvetica,sans-Serif" font-size="10.00">ChatManager::saveCurrent</text>
</a>
</g>
</g>
<!-- Node14&#45;&gt;Node15 -->
<g id="edge15_Node000014_Node000015" class="edge">
<title>Node14&#45;&gt;Node15</title>
<g id="a_edge15_Node000014_Node000015"><a xlink:title=" ">
<path fill="none" stroke="#63b8ff" d="M1099.19,-233.5C1058.01,-233.5 1006.8,-233.5 965.72,-233.5"/>
<polygon fill="#63b8ff" stroke="#63b8ff" points="1099.43,-237 1109.43,-233.5 1099.43,-230 1099.43,-237"/>
</a>
</g>
</g>
<!-- Node16 -->
<g id="Node000016" class="node">
<title>Node16</title>
<g id="a_Node000016"><a xlink:href="../../d7/dc6/classChatManager.html#a6bf284d1ba8a95c8963efa930ac2c571" target="_top" xlink:title=" ">
<polygon fill="white" stroke="#666666" points="726,-243 538,-243 538,-224 726,-224 726,-243"/>
<text text-anchor="middle" x="632" y="-231" font-family="Helvetica,sans-Serif" font-size="10.00">ChatManager::setActiveGameTable</text>
</a>
</g>
</g>
<!-- Node15&#45;&gt;Node16 -->
<g id="edge16_Node000015_Node000016" class="edge">
<title>Node15&#45;&gt;Node16</title>
<g id="a_edge16_Node000015_Node000016"><a xlink:title=" ">
<path fill="none" stroke="#63b8ff" d="M808.21,-233.5C782.08,-233.5 753.04,-233.5 726.24,-233.5"/>
<polygon fill="#63b8ff" stroke="#63b8ff" points="808.45,-237 818.45,-233.5 808.45,-230 808.45,-237"/>
</a>
</g>
</g>
<!-- Node18 -->
<g id="Node000018" class="node">
<title>Node18</title>
<g id="a_Node000018"><a xlink:href="../../db/d4b/classSerializer.html#a33c1046417ab5077d907baac823e7194" target="_top" xlink:title=" ">
<polygon fill="white" stroke="#666666" points="975.5,-206 808.5,-206 808.5,-187 975.5,-187 975.5,-206"/>
<text text-anchor="middle" x="892" y="-194" font-family="Helvetica,sans-Serif" font-size="10.00">Serializer::serializeBoardEntity</text>
</a>
</g>
</g>
<!-- Node17&#45;&gt;Node18 -->
<g id="edge18_Node000017_Node000018" class="edge">
<title>Node17&#45;&gt;Node18</title>
<g id="a_edge18_Node000017_Node000018"><a xlink:title=" ">
<path fill="none" stroke="#63b8ff" d="M1094.25,-196.5C1057.26,-196.5 1013.08,-196.5 975.55,-196.5"/>
<polygon fill="#63b8ff" stroke="#63b8ff" points="1094.48,-200 1104.48,-196.5 1094.48,-193 1094.48,-200"/>
</a>
</g>
</g>
<!-- Node19 -->
<g id="Node000019" class="node">
<title>Node19</title>
<g id="a_Node000019"><a xlink:href="../../d9/dff/classBoardManager.html#a15c3689fe12cdc5f3d0589f9d92a678e" target="_top" xlink:title=" ">
<polygon fill="white" stroke="#666666" points="720,-206 544,-206 544,-187 720,-187 720,-206"/>
<text text-anchor="middle" x="632" y="-194" font-family="Helvetica,sans-Serif" font-size="10.00">BoardManager::saveActiveBoard</text>
</a>
</g>
</g>
<!-- Node18&#45;&gt;Node19 -->
<g id="edge19_Node000018_Node000019" class="edge">
<title>Node18&#45;&gt;Node19</title>
<g id="a_edge19_Node000018_Node000019"><a xlink:title=" ">
<path fill="none" stroke="#63b8ff" d="M798.28,-196.5C772.8,-196.5 745.27,-196.5 720.12,-196.5"/>
<polygon fill="#63b8ff" stroke="#63b8ff" points="798.3,-200 808.3,-196.5 798.3,-193 798.3,-200"/>
</a>
</g>
</g>
<!-- Node20 -->
<g id="Node000020" class="node">
<title>Node20</title>
<g id="a_Node000020"><a xlink:href="../../db/d4b/classSerializer.html#a88ec96a4390db20ecce812518dd2622c" target="_top" xlink:title=" ">
<polygon fill="white" stroke="#666666" points="728.5,-169 535.5,-169 535.5,-150 728.5,-150 728.5,-169"/>
<text text-anchor="middle" x="632" y="-157" font-family="Helvetica,sans-Serif" font-size="10.00">Serializer::serializeGameTableEntity</text>
</a>
</g>
</g>
<!-- Node18&#45;&gt;Node20 -->
<g id="edge20_Node000018_Node000020" class="edge">
<title>Node18&#45;&gt;Node20</title>
<g id="a_edge20_Node000018_Node000020"><a xlink:title=" ">
<path fill="none" stroke="#63b8ff" d="M814.46,-185.52C777.99,-180.29 734.77,-174.1 699.66,-169.06"/>
<polygon fill="#63b8ff" stroke="#63b8ff" points="814.16,-189.02 824.56,-186.97 815.16,-182.09 814.16,-189.02"/>
</a>
</g>
</g>
<!-- Node21 -->
<g id="Node000021" class="node">
<title>Node21</title>
<g id="a_Node000021"><a xlink:href="../../da/d28/classGameTableManager.html#a172cce8920ef8672b5508fdbca0108fa" target="_top" xlink:title=" ">
<polygon fill="white" stroke="#666666" points="486.5,-169 263.5,-169 263.5,-150 486.5,-150 486.5,-169"/>
<text text-anchor="middle" x="375" y="-157" font-family="Helvetica,sans-Serif" font-size="10.00">GameTableManager::createGameTableFile</text>
</a>
</g>
</g>
<!-- Node20&#45;&gt;Node21 -->
<g id="edge21_Node000020_Node000021" class="edge">
<title>Node20&#45;&gt;Node21</title>
<g id="a_edge21_Node000020_Node000021"><a xlink:title=" ">
<path fill="none" stroke="#63b8ff" d="M525.22,-159.5C512.54,-159.5 499.56,-159.5 486.8,-159.5"/>
<polygon fill="#63b8ff" stroke="#63b8ff" points="525.32,-163 535.32,-159.5 525.32,-156 525.32,-163"/>
</a>
</g>
</g>
<!-- Node22 -->
<g id="Node000022" class="node">
<title>Node22</title>
<g id="a_Node000022"><a xlink:href="../../da/d28/classGameTableManager.html#a42414a5596a4e90a3f321f90e166f9a0" target="_top" xlink:title=" ">
<polygon fill="white" stroke="#666666" points="227,-187 0,-187 0,-168 227,-168 227,-187"/>
<text text-anchor="middle" x="113.5" y="-175" font-family="Helvetica,sans-Serif" font-size="10.00">GameTableManager::hostGameTablePopUp</text>
</a>
</g>
</g>
<!-- Node21&#45;&gt;Node22 -->
<g id="edge22_Node000021_Node000022" class="edge">
<title>Node21&#45;&gt;Node22</title>
<g id="a_edge22_Node000021_Node000022"><a xlink:title=" ">
<path fill="none" stroke="#63b8ff" d="M253.04,-167.89C244.36,-168.49 235.63,-169.1 227,-169.7"/>
<polygon fill="#63b8ff" stroke="#63b8ff" points="253.46,-171.37 263.2,-167.19 252.98,-164.39 253.46,-171.37"/>
</a>
</g>
</g>
<!-- Node23 -->
<g id="Node000023" class="node">
<title>Node23</title>
<g id="a_Node000023"><a xlink:href="../../da/d28/classGameTableManager.html#a9e6225573f97256dd5dfef871a1e32d6" target="_top" xlink:title=" ">
<polygon fill="white" stroke="#666666" points="212.5,-150 14.5,-150 14.5,-131 212.5,-131 212.5,-150"/>
<text text-anchor="middle" x="113.5" y="-138" font-family="Helvetica,sans-Serif" font-size="10.00">GameTableManager::saveGameTable</text>
</a>
</g>
</g>
<!-- Node21&#45;&gt;Node23 -->
<g id="edge23_Node000021_Node000023" class="edge">
<title>Node21&#45;&gt;Node23</title>
<g id="a_edge23_Node000021_Node000023"><a xlink:title=" ">
<path fill="none" stroke="#63b8ff" d="M252.91,-150.63C239.42,-149.65 225.8,-148.65 212.64,-147.69"/>
<polygon fill="#63b8ff" stroke="#63b8ff" points="252.97,-154.15 263.2,-151.39 253.48,-147.17 252.97,-154.15"/>
</a>
</g>
</g>
<!-- Node24&#45;&gt;Node20 -->
<g id="edge25_Node000024_Node000020" class="edge">
<title>Node24&#45;&gt;Node20</title>
<g id="a_edge25_Node000024_Node000020"><a xlink:title=" ">
<path fill="none" stroke="#63b8ff" d="M799.96,-95.07C791.97,-97.59 784.2,-100.69 777,-104.5 756.72,-115.22 761.33,-130.86 741,-141.5 734.52,-144.89 727.54,-147.67 720.37,-149.95"/>
<polygon fill="#63b8ff" stroke="#63b8ff" points="801.14,-98.37 809.79,-92.26 799.22,-91.64 801.14,-98.37"/>
</a>
</g>
</g>
<!-- Node26 -->
<g id="Node000026" class="node">
<title>Node26</title>
<g id="a_Node000026"><a xlink:href="../../d6/d6f/classNetworkManager.html#acf942084ff349010655c47a232659527" target="_top" xlink:title=" ">
<polygon fill="white" stroke="#666666" points="1007,-132 777,-132 777,-113 1007,-113 1007,-132"/>
<text text-anchor="middle" x="892" y="-120" font-family="Helvetica,sans-Serif" font-size="10.00">NetworkManager::buildMarkerUpdateFrame</text>
</a>
</g>
</g>
<!-- Node25&#45;&gt;Node26 -->
<g id="edge27_Node000025_Node000026" class="edge">
<title>Node25&#45;&gt;Node26</title>
<g id="a_edge27_Node000025_Node000026"><a xlink:title=" ">
<path fill="none" stroke="#63b8ff" d="M1063.08,-122.5C1044.75,-122.5 1025.7,-122.5 1007.26,-122.5"/>
<polygon fill="#63b8ff" stroke="#63b8ff" points="1063.17,-126 1073.17,-122.5 1063.17,-119 1063.17,-126"/>
</a>
</g>
</g>
<!-- Node29 -->
<g id="Node000029" class="node">
<title>Node29</title>
<g id="a_Node000029"><a xlink:href="../../db/d4b/classSerializer.html#a8799545c0b1ea86a5447cbcd1d0a733c" target="_top" xlink:title=" ">
<polygon fill="white" stroke="#666666" points="978,-169 806,-169 806,-150 978,-150 978,-169"/>
<text text-anchor="middle" x="892" y="-157" font-family="Helvetica,sans-Serif" font-size="10.00">Serializer::serializeMarkerEntity</text>
</a>
</g>
</g>
<!-- Node25&#45;&gt;Node29 -->
<g id="edge30_Node000025_Node000029" class="edge">
<title>Node25&#45;&gt;Node29</title>
<g id="a_edge30_Node000025_Node000029"><a xlink:title=" ">
<path fill="none" stroke="#63b8ff" d="M1090.6,-133.34C1050.87,-138.6 1003.58,-144.86 965.22,-149.94"/>
<polygon fill="#63b8ff" stroke="#63b8ff" points="1091.07,-136.81 1100.52,-132.03 1090.15,-129.87 1091.07,-136.81"/>
</a>
</g>
</g>
<!-- Node27 -->
<g id="Node000027" class="node">
<title>Node27</title>
<g id="a_Node000027"><a xlink:href="../../d6/d6f/classNetworkManager.html#a3cd0860da30289b21f2f4bd467d279d3" target="_top" xlink:title=" ">
<polygon fill="white" stroke="#666666" points="731.5,-132 532.5,-132 532.5,-113 731.5,-113 731.5,-132"/>
<text text-anchor="middle" x="632" y="-120" font-family="Helvetica,sans-Serif" font-size="10.00">NetworkManager::sendMarkerUpdate</text>
</a>
</g>
</g>
<!-- Node26&#45;&gt;Node27 -->
<g id="edge28_Node000026_Node000027" class="edge">
<title>Node26&#45;&gt;Node27</title>
<g id="a_edge28_Node000026_Node000027"><a xlink:title=" ">
<path fill="none" stroke="#63b8ff" d="M766.51,-122.5C754.88,-122.5 743.2,-122.5 731.84,-122.5"/>
<polygon fill="#63b8ff" stroke="#63b8ff" points="766.71,-126 776.71,-122.5 766.71,-119 766.71,-126"/>
</a>
</g>
</g>
<!-- Node28 -->
<g id="Node000028" class="node">
<title>Node28</title>
<g id="a_Node000028"><a xlink:href="../../d6/d6f/classNetworkManager.html#a2f0bd7fd012f4f7c96fcc25b2ac90b0f" target="_top" xlink:title=" ">
<polygon fill="white" stroke="#666666" points="487,-132 263,-132 263,-113 487,-113 487,-132"/>
<text text-anchor="middle" x="375" y="-120" font-family="Helvetica,sans-Serif" font-size="10.00">NetworkManager::broadcastMarkerUpdate</text>
</a>
</g>
</g>
<!-- Node27&#45;&gt;Node28 -->
<g id="edge29_Node000027_Node000028" class="edge">
<title>Node27&#45;&gt;Node28</title>
<g id="a_edge29_Node000027_Node000028"><a xlink:title=" ">
<path fill="none" stroke="#63b8ff" d="M522.24,-122.5C510.59,-122.5 498.73,-122.5 487.05,-122.5"/>
<polygon fill="#63b8ff" stroke="#63b8ff" points="522.41,-126 532.41,-122.5 522.41,-119 522.41,-126"/>
</a>
</g>
</g>
<!-- Node30&#45;&gt;Node18 -->
<g id="edge32_Node000030_Node000018" class="edge">
<title>Node30&#45;&gt;Node18</title>
<g id="a_edge32_Node000030_Node000018"><a xlink:title=" ">
<path fill="none" stroke="#63b8ff" d="M1090.6,-170.34C1050.87,-175.6 1003.58,-181.86 965.22,-186.94"/>
<polygon fill="#63b8ff" stroke="#63b8ff" points="1091.07,-173.81 1100.52,-169.03 1090.15,-166.87 1091.07,-173.81"/>
</a>
</g>
</g>
<!-- Node30&#45;&gt;Node29 -->
<g id="edge33_Node000030_Node000029" class="edge">
<title>Node30&#45;&gt;Node29</title>
<g id="a_edge33_Node000030_Node000029"><a xlink:title=" ">
<path fill="none" stroke="#63b8ff" d="M1062.17,-159.5C1034.21,-159.5 1004.6,-159.5 978.11,-159.5"/>
<polygon fill="#63b8ff" stroke="#63b8ff" points="1062.38,-163 1072.38,-159.5 1062.38,-156 1062.38,-163"/>
</a>
</g>
</g>
<!-- Node32 -->
<g id="Node000032" class="node">
<title>Node32</title>
<g id="a_Node000032"><a xlink:href="../../d8/d43/classIdentityManager.html#a18c85a39c82ac2918657286498bbe8da" target="_top" xlink:title=" ">
<polygon fill="white" stroke="#666666" points="1001,-56 783,-56 783,-37 1001,-37 1001,-56"/>
<text text-anchor="middle" x="892" y="-44" font-family="Helvetica,sans-Serif" font-size="10.00">IdentityManager::saveAddressBookToFile</text>
</a>
</g>
</g>
<!-- Node31&#45;&gt;Node32 -->
<g id="edge35_Node000031_Node000032" class="edge">
<title>Node31&#45;&gt;Node32</title>
<g id="a_edge35_Node000031_Node000032"><a xlink:title=" ">
<path fill="none" stroke="#63b8ff" d="M1078.17,-46.5C1053.42,-46.5 1026.55,-46.5 1001.15,-46.5"/>
<polygon fill="#63b8ff" stroke="#63b8ff" points="1078.26,-50 1088.26,-46.5 1078.26,-43 1078.26,-50"/>
</a>
</g>
</g>
<!-- Node33 -->
<g id="Node000033" class="node">
<title>Node33</title>
<g id="a_Node000033"><a xlink:href="../../d8/d43/classIdentityManager.html#a22e3ee5efe1fc4e1df1363b9490390fb" target="_top" xlink:title=" ">
<polygon fill="white" stroke="#666666" points="705,-93 559,-93 559,-74 705,-74 705,-93"/>
<text text-anchor="middle" x="632" y="-81" font-family="Helvetica,sans-Serif" font-size="10.00">IdentityManager::bindPeer</text>
</a>
</g>
</g>
<!-- Node32&#45;&gt;Node33 -->
<g id="edge36_Node000032_Node000033" class="edge">
<title>Node32&#45;&gt;Node33</title>
<g id="a_edge36_Node000032_Node000033"><a xlink:title=" ">
<path fill="none" stroke="#63b8ff" d="M814.46,-57.48C777.99,-62.71 734.77,-68.9 699.66,-73.94"/>
<polygon fill="#63b8ff" stroke="#63b8ff" points="815.16,-60.91 824.56,-56.03 814.16,-53.98 815.16,-60.91"/>
</a>
</g>
</g>
<!-- Node34 -->
<g id="Node000034" class="node">
<title>Node34</title>
<g id="a_Node000034"><a xlink:href="../../d8/d43/classIdentityManager.html#a06c9f1224957dbb9d2680a5c0d595ebd" target="_top" xlink:title=" ">
<polygon fill="white" stroke="#666666" points="717,-19 547,-19 547,0 717,0 717,-19"/>
<text text-anchor="middle" x="632" y="-7" font-family="Helvetica,sans-Serif" font-size="10.00">IdentityManager::setMyIdentity</text>
</a>
</g>
</g>
<!-- Node32&#45;&gt;Node34 -->
<g id="edge37_Node000032_Node000034" class="edge">
<title>Node32&#45;&gt;Node34</title>
<g id="a_edge37_Node000032_Node000034"><a xlink:title=" ">
<path fill="none" stroke="#63b8ff" d="M814.46,-35.52C777.99,-30.29 734.77,-24.1 699.66,-19.06"/>
<polygon fill="#63b8ff" stroke="#63b8ff" points="814.16,-39.02 824.56,-36.97 815.16,-32.09 814.16,-39.02"/>
</a>
</g>
</g>
<!-- Node35 -->
<g id="Node000035" class="node">
<title>Node35</title>
<g id="a_Node000035"><a xlink:href="../../d8/d43/classIdentityManager.html#a2545919ba7d19962e6b4f147940cd3d9" target="_top" xlink:title=" ">
<polygon fill="white" stroke="#666666" points="741,-56 523,-56 523,-37 741,-37 741,-56"/>
<text text-anchor="middle" x="632" y="-44" font-family="Helvetica,sans-Serif" font-size="10.00">IdentityManager::setUsernameForUnique</text>
</a>
</g>
</g>
<!-- Node32&#45;&gt;Node35 -->
<g id="edge38_Node000032_Node000035" class="edge">
<title>Node32&#45;&gt;Node35</title>
<g id="a_edge38_Node000032_Node000035"><a xlink:title=" ">
<path fill="none" stroke="#63b8ff" d="M772.64,-46.5C762.1,-46.5 751.46,-46.5 741.02,-46.5"/>
<polygon fill="#63b8ff" stroke="#63b8ff" points="772.71,-50 782.71,-46.5 772.71,-43 772.71,-50"/>
</a>
</g>
</g>
<!-- Node37 -->
<g id="Node000037" class="node">
<title>Node37</title>
<g id="a_Node000037"><a xlink:href="../../d8/d43/classIdentityManager.html#a1869a9c4eeaabc2a70e422ae5c685a9b" target="_top" xlink:title=" ">
<polygon fill="white" stroke="#666666" points="995,-19 789,-19 789,0 995,0 995,-19"/>
<text text-anchor="middle" x="892" y="-7" font-family="Helvetica,sans-Serif" font-size="10.00">IdentityManager::saveMyIdentityToFile</text>
</a>
</g>
</g>
<!-- Node36&#45;&gt;Node37 -->
<g id="edge40_Node000036_Node000037" class="edge">
<title>Node36&#45;&gt;Node37</title>
<g id="a_edge40_Node000036_Node000037"><a xlink:title=" ">
<path fill="none" stroke="#63b8ff" d="M1082.98,-9.5C1054.97,-9.5 1023.86,-9.5 995.05,-9.5"/>
<polygon fill="#63b8ff" stroke="#63b8ff" points="1083.15,-13 1093.15,-9.5 1083.15,-6 1083.15,-13"/>
</a>
</g>
</g>
<!-- Node37&#45;&gt;Node34 -->
<g id="edge41_Node000037_Node000034" class="edge">
<title>Node37&#45;&gt;Node34</title>
<g id="a_edge41_Node000037_Node000034"><a xlink:title=" ">
<path fill="none" stroke="#63b8ff" d="M778.63,-9.5C758.07,-9.5 736.94,-9.5 717.37,-9.5"/>
<polygon fill="#63b8ff" stroke="#63b8ff" points="778.66,-13 788.66,-9.5 778.66,-6 778.66,-13"/>
</a>
</g>
</g>
<!-- Node37&#45;&gt;Node35 -->
<g id="edge42_Node000037_Node000035" class="edge">
<title>Node37&#45;&gt;Node35</title>
<g id="a_edge42_Node000037_Node000035"><a xlink:title=" ">
<path fill="none" stroke="#63b8ff" d="M814.46,-20.48C777.99,-25.71 734.77,-31.9 699.66,-36.94"/>
<polygon fill="#63b8ff" stroke="#63b8ff" points="815.16,-23.91 824.56,-19.03 814.16,-16.98 815.16,-23.91"/>
</a>
</g>
</g>
</g>
</svg>
