<?xml version="1.0" encoding="UTF-8" standalone="no"?>
<!DOCTYPE svg PUBLIC "-//W3C//DTD SVG 1.1//EN"
 "http://www.w3.org/Graphics/SVG/1.1/DTD/svg11.dtd">
<!-- Generated by graphviz version 2.43.0 (0)
 -->
<!-- Title: Serializer::serializeGameTable Pages: 1 -->
<svg width="923pt" height="64pt"
 viewBox="0.00 0.00 923.00 64.00" xmlns="http://www.w3.org/2000/svg" xmlns:xlink="http://www.w3.org/1999/xlink">
<g id="graph0" class="graph" transform="scale(1 1) rotate(0) translate(4 60)">
<title>Serializer::serializeGameTable</title>
<!-- Node1 -->
<g id="Node000001" class="node">
<title>Node1</title>
<g id="a_Node000001"><a xlink:title=" ">
<polygon fill="#999999" stroke="#666666" points="915,-37 751,-37 751,-18 915,-18 915,-37"/>
<text text-anchor="middle" x="833" y="-25" font-family="Helvetica,sans-Serif" font-size="10.00">Serializer::serializeGameTable</text>
</a>
</g>
</g>
<!-- Node2 -->
<g id="Node000002" class="node">
<title>Node2</title>
<g id="a_Node000002"><a xlink:href="../../db/d4b/classSerializer.html#a88ec96a4390db20ecce812518dd2622c" target="_top" xlink:title=" ">
<polygon fill="white" stroke="#666666" points="715,-37 522,-37 522,-18 715,-18 715,-37"/>
<text text-anchor="middle" x="618.5" y="-25" font-family="Helvetica,sans-Serif" font-size="10.00">Serializer::serializeGameTableEntity</text>
</a>
</g>
</g>
<!-- Node1&#45;&gt;Node2 -->
<g id="edge1_Node000001_Node000002" class="edge">
<title>Node1&#45;&gt;Node2</title>
<g id="a_edge1_Node000001_Node000002"><a xlink:title=" ">
<path fill="none" stroke="#63b8ff" d="M740.6,-27.5C732.22,-27.5 723.71,-27.5 715.29,-27.5"/>
<polygon fill="#63b8ff" stroke="#63b8ff" points="740.75,-31 750.75,-27.5 740.75,-24 740.75,-31"/>
</a>
</g>
</g>
<!-- Node3 -->
<g id="Node000003" class="node">
<title>Node3</title>
<g id="a_Node000003"><a xlink:href="../../da/d28/classGameTableManager.html#a172cce8920ef8672b5508fdbca0108fa" target="_top" xlink:title=" ">
<polygon fill="white" stroke="#666666" points="486,-37 263,-37 263,-18 486,-18 486,-37"/>
<text text-anchor="middle" x="374.5" y="-25" font-family="Helvetica,sans-Serif" font-size="10.00">GameTableManager::createGameTableFile</text>
</a>
</g>
</g>
<!-- Node2&#45;&gt;Node3 -->
<g id="edge2_Node000002_Node000003" class="edge">
<title>Node2&#45;&gt;Node3</title>
<g id="a_edge2_Node000002_Node000003"><a xlink:title=" ">
<path fill="none" stroke="#63b8ff" d="M511.59,-27.5C503.12,-27.5 494.55,-27.5 486.05,-27.5"/>
<polygon fill="#63b8ff" stroke="#63b8ff" points="511.86,-31 521.86,-27.5 511.86,-24 511.86,-31"/>
</a>
</g>
</g>
<!-- Node4 -->
<g id="Node000004" class="node">
<title>Node4</title>
<g id="a_Node000004"><a xlink:href="../../da/d28/classGameTableManager.html#a42414a5596a4e90a3f321f90e166f9a0" target="_top" xlink:title=" ">
<polygon fill="white" stroke="#666666" points="227,-56 0,-56 0,-37 227,-37 227,-56"/>
<text text-anchor="middle" x="113.5" y="-44" font-family="Helvetica,sans-Serif" font-size="10.00">GameTableManager::hostGameTablePopUp</text>
</a>
</g>
</g>
<!-- Node3&#45;&gt;Node4 -->
<g id="edge3_Node000003_Node000004" class="edge">
<title>Node3&#45;&gt;Node4</title>
<g id="a_edge3_Node000003_Node000004"><a xlink:title=" ">
<path fill="none" stroke="#63b8ff" d="M252.89,-36.35C244.33,-36.98 235.71,-37.61 227.2,-38.23"/>
<polygon fill="#63b8ff" stroke="#63b8ff" points="253.19,-39.84 262.91,-35.61 252.68,-32.85 253.19,-39.84"/>
</a>
</g>
</g>
<!-- Node5 -->
<g id="Node000005" class="node">
<title>Node5</title>
<g id="a_Node000005"><a xlink:href="../../da/d28/classGameTableManager.html#a9e6225573f97256dd5dfef871a1e32d6" target="_top" xlink:title=" ">
<polygon fill="white" stroke="#666666" points="212.5,-19 14.5,-19 14.5,0 212.5,0 212.5,-19"/>
<text text-anchor="middle" x="113.5" y="-7" font-family="Helvetica,sans-Serif" font-size="10.00">GameTableManager::saveGameTable</text>
</a>
</g>
</g>
<!-- Node3&#45;&gt;Node5 -->
<g id="edge4_Node000003_Node000005" class="edge">
<title>Node3&#45;&gt;Node5</title>
<g id="a_edge4_Node000003_Node000005"><a xlink:title=" ">
<path fill="none" stroke="#63b8ff" d="M252.73,-19.11C239.37,-18.18 225.89,-17.24 212.85,-16.34"/>
<polygon fill="#63b8ff" stroke="#63b8ff" points="252.69,-22.61 262.91,-19.81 253.18,-15.63 252.69,-22.61"/>
</a>
</g>
</g>
</g>
</svg>
