<?xml version="1.0" encoding="UTF-8" standalone="no"?>
<!DOCTYPE svg PUBLIC "-//W3C//DTD SVG 1.1//EN"
 "http://www.w3.org/Graphics/SVG/1.1/DTD/svg11.dtd">
<!-- Generated by graphviz version 2.43.0 (0)
 -->
<!-- Title: Serializer::serializeInt Pages: 1 -->
<svg width="1729pt" height="588pt"
 viewBox="0.00 0.00 1729.00 588.00" xmlns="http://www.w3.org/2000/svg" xmlns:xlink="http://www.w3.org/1999/xlink">
<g id="graph0" class="graph" transform="scale(1 1) rotate(0) translate(4 584)">
<title>Serializer::serializeInt</title>
<!-- Node1 -->
<g id="Node000001" class="node">
<title>Node1</title>
<g id="a_Node000001"><a xlink:title=" ">
<polygon fill="#999999" stroke="#666666" points="1721,-227 1599,-227 1599,-208 1721,-208 1721,-227"/>
<text text-anchor="middle" x="1660" y="-215" font-family="Helvetica,sans-Serif" font-size="10.00">Serializer::serializeInt</text>
</a>
</g>
</g>
<!-- Node2 -->
<g id="Node000002" class="node">
<title>Node2</title>
<g id="a_Node000002"><a xlink:href="../../d6/d6f/classNetworkManager.html#ad6d9928959397e1cfa4f6c0f322a20fd" target="_top" xlink:title=" ">
<polygon fill="white" stroke="#666666" points="1563,-450 1340,-450 1340,-431 1563,-431 1563,-450"/>
<text text-anchor="middle" x="1451.5" y="-438" font-family="Helvetica,sans-Serif" font-size="10.00">NetworkManager::buildImageChunkFrame</text>
</a>
</g>
</g>
<!-- Node1&#45;&gt;Node2 -->
<g id="edge1_Node000001_Node000002" class="edge">
<title>Node1&#45;&gt;Node2</title>
<g id="a_edge1_Node000001_Node000002"><a xlink:title=" ">
<path fill="none" stroke="#63b8ff" d="M1647.5,-235.76C1630.61,-261.9 1597.37,-310.88 1563,-347.5 1531.26,-381.33 1487.69,-414.83 1465.96,-430.81"/>
<polygon fill="#63b8ff" stroke="#63b8ff" points="1650.52,-237.54 1652.95,-227.23 1644.62,-233.77 1650.52,-237.54"/>
</a>
</g>
</g>
<!-- Node10 -->
<g id="Node000010" class="node">
<title>Node10</title>
<g id="a_Node000010"><a xlink:href="../../d7/dc6/classChatManager.html#a9a079a4cf27a53f06277fbe57f1d8555" target="_top" xlink:title=" ">
<polygon fill="white" stroke="#666666" points="1237.5,-580 1109.5,-580 1109.5,-561 1237.5,-561 1237.5,-580"/>
<text text-anchor="middle" x="1173.5" y="-568" font-family="Helvetica,sans-Serif" font-size="10.00">ChatManager::saveLog</text>
</a>
</g>
</g>
<!-- Node1&#45;&gt;Node10 -->
<g id="edge9_Node000001_Node000010" class="edge">
<title>Node1&#45;&gt;Node10</title>
<g id="a_edge9_Node000001_Node000010"><a xlink:title=" ">
<path fill="none" stroke="#63b8ff" d="M1656.65,-237.48C1650.23,-283.2 1628.28,-396.34 1563,-459.5 1473.9,-545.72 1322.64,-565.79 1237.53,-569.96"/>
<polygon fill="#63b8ff" stroke="#63b8ff" points="1660.14,-237.75 1657.96,-227.38 1653.2,-236.85 1660.14,-237.75"/>
</a>
</g>
</g>
<!-- Node13 -->
<g id="Node000013" class="node">
<title>Node13</title>
<g id="a_Node000013"><a xlink:href="../../db/d4b/classSerializer.html#a33c1046417ab5077d907baac823e7194" target="_top" xlink:title=" ">
<polygon fill="white" stroke="#666666" points="975.5,-227 808.5,-227 808.5,-208 975.5,-208 975.5,-227"/>
<text text-anchor="middle" x="892" y="-215" font-family="Helvetica,sans-Serif" font-size="10.00">Serializer::serializeBoardEntity</text>
</a>
</g>
</g>
<!-- Node1&#45;&gt;Node13 -->
<g id="edge12_Node000001_Node000013" class="edge">
<title>Node1&#45;&gt;Node13</title>
<g id="a_edge12_Node000001_Node000013"><a xlink:title=" ">
<path fill="none" stroke="#63b8ff" d="M1588.72,-216.68C1580.06,-216.61 1571.33,-216.54 1563,-216.5 1351.3,-215.4 1101.97,-216.37 975.52,-217.02"/>
<polygon fill="#63b8ff" stroke="#63b8ff" points="1588.8,-220.18 1598.83,-216.78 1588.86,-213.18 1588.8,-220.18"/>
</a>
</g>
</g>
<!-- Node15 -->
<g id="Node000015" class="node">
<title>Node15</title>
<g id="a_Node000015"><a xlink:href="../../db/d4b/classSerializer.html#a88ec96a4390db20ecce812518dd2622c" target="_top" xlink:title=" ">
<polygon fill="white" stroke="#666666" points="728.5,-246 535.5,-246 535.5,-227 728.5,-227 728.5,-246"/>
<text text-anchor="middle" x="632" y="-234" font-family="Helvetica,sans-Serif" font-size="10.00">Serializer::serializeGameTableEntity</text>
</a>
</g>
</g>
<!-- Node1&#45;&gt;Node15 -->
<g id="edge18_Node000001_Node000015" class="edge">
<title>Node1&#45;&gt;Node15</title>
<g id="a_edge18_Node000001_Node000015"><a xlink:title=" ">
<path fill="none" stroke="#63b8ff" d="M1647.99,-199.15C1632.45,-175.19 1601.62,-134.23 1563,-116.5 1352.91,-20.03 1270.73,-63.66 1043,-103.5 919.19,-125.16 891.97,-148.71 777,-199.5 760.45,-206.81 758.14,-212.72 741,-218.5 730.82,-221.93 719.88,-224.73 709,-227"/>
<polygon fill="#63b8ff" stroke="#63b8ff" points="1645.07,-201.09 1653.35,-207.7 1651,-197.37 1645.07,-201.09"/>
</a>
</g>
</g>
<!-- Node19 -->
<g id="Node000019" class="node">
<title>Node19</title>
<g id="a_Node000019"><a xlink:href="../../db/d4b/classSerializer.html#a8a72c08ebb91348dc2a7ef6557c44f6c" target="_top" xlink:title=" ">
<polygon fill="white" stroke="#666666" points="1520.5,-338 1382.5,-338 1382.5,-319 1520.5,-319 1520.5,-338"/>
<text text-anchor="middle" x="1451.5" y="-326" font-family="Helvetica,sans-Serif" font-size="10.00">Serializer::serializeString</text>
</a>
</g>
</g>
<!-- Node1&#45;&gt;Node19 -->
<g id="edge19_Node000001_Node000019" class="edge">
<title>Node1&#45;&gt;Node19</title>
<g id="a_edge19_Node000001_Node000019"><a xlink:title=" ">
<path fill="none" stroke="#63b8ff" d="M1632.02,-232C1589.12,-255.06 1506.51,-299.47 1470.28,-318.95"/>
<polygon fill="#63b8ff" stroke="#63b8ff" points="1633.88,-234.97 1641.04,-227.16 1630.57,-228.81 1633.88,-234.97"/>
</a>
</g>
</g>
<!-- Node33 -->
<g id="Node000033" class="node">
<title>Node33</title>
<g id="a_Node000033"><a xlink:href="../../db/d4b/classSerializer.html#a2e08effc9986b4b485dc4e40ffecb7fb" target="_top" xlink:title=" ">
<polygon fill="white" stroke="#666666" points="1274.5,-245 1072.5,-245 1072.5,-226 1274.5,-226 1274.5,-245"/>
<text text-anchor="middle" x="1173.5" y="-233" font-family="Helvetica,sans-Serif" font-size="10.00">Serializer::serializeTextureComponent</text>
</a>
</g>
</g>
<!-- Node1&#45;&gt;Node33 -->
<g id="edge51_Node000001_Node000033" class="edge">
<title>Node1&#45;&gt;Node33</title>
<g id="a_edge51_Node000001_Node000033"><a xlink:title=" ">
<path fill="none" stroke="#63b8ff" d="M1588.58,-220.12C1506.03,-223.18 1368.61,-228.29 1274.91,-231.77"/>
<polygon fill="#63b8ff" stroke="#63b8ff" points="1588.75,-223.61 1598.62,-219.74 1588.49,-216.62 1588.75,-223.61"/>
</a>
</g>
</g>
<!-- Node34 -->
<g id="Node000034" class="node">
<title>Node34</title>
<g id="a_Node000034"><a xlink:href="../../d8/d43/classIdentityManager.html#a6423b50955b5c9937b4e3c928ce86dff" target="_top" xlink:title=" ">
<polygon fill="white" stroke="#666666" points="1258.5,-169 1088.5,-169 1088.5,-150 1258.5,-150 1258.5,-169"/>
<text text-anchor="middle" x="1173.5" y="-157" font-family="Helvetica,sans-Serif" font-size="10.00">IdentityManager::writeBookFile</text>
</a>
</g>
</g>
<!-- Node1&#45;&gt;Node34 -->
<g id="edge52_Node000001_Node000034" class="edge">
<title>Node1&#45;&gt;Node34</title>
<g id="a_edge52_Node000001_Node000034"><a xlink:title=" ">
<path fill="none" stroke="#63b8ff" d="M1627.22,-204.18C1608.8,-197.07 1584.97,-188.9 1563,-184.5 1459.62,-163.79 1337.97,-159.04 1258.7,-158.48"/>
<polygon fill="#63b8ff" stroke="#63b8ff" points="1626,-207.46 1636.59,-207.88 1628.57,-200.95 1626,-207.46"/>
</a>
</g>
</g>
<!-- Node39 -->
<g id="Node000039" class="node">
<title>Node39</title>
<g id="a_Node000039"><a xlink:href="../../d8/d43/classIdentityManager.html#a39c326ae35bbfd58d73cae32d8793174" target="_top" xlink:title=" ">
<polygon fill="white" stroke="#666666" points="1253.5,-132 1093.5,-132 1093.5,-113 1253.5,-113 1253.5,-132"/>
<text text-anchor="middle" x="1173.5" y="-120" font-family="Helvetica,sans-Serif" font-size="10.00">IdentityManager::writeMeFile</text>
</a>
</g>
</g>
<!-- Node1&#45;&gt;Node39 -->
<g id="edge53_Node000001_Node000039" class="edge">
<title>Node1&#45;&gt;Node39</title>
<g id="a_edge53_Node000001_Node000039"><a xlink:title=" ">
<path fill="none" stroke="#63b8ff" d="M1639.69,-201.25C1621.27,-186.76 1592.09,-166.36 1563,-156.5 1460.24,-121.68 1333.9,-117.13 1253.76,-118.6"/>
<polygon fill="#63b8ff" stroke="#63b8ff" points="1637.85,-204.25 1647.83,-207.81 1642.24,-198.81 1637.85,-204.25"/>
</a>
</g>
</g>
<!-- Node3 -->
<g id="Node000003" class="node">
<title>Node3</title>
<g id="a_Node000003"><a xlink:href="../../d6/d6f/classNetworkManager.html#ab54b0f1b56efebcaeaf9a34a0af6194c" target="_top" xlink:title=" ">
<polygon fill="white" stroke="#666666" points="1272,-506 1075,-506 1075,-487 1272,-487 1272,-506"/>
<text text-anchor="middle" x="1173.5" y="-494" font-family="Helvetica,sans-Serif" font-size="10.00">NetworkManager::sendImageChunks</text>
</a>
</g>
</g>
<!-- Node2&#45;&gt;Node3 -->
<g id="edge2_Node000002_Node000003" class="edge">
<title>Node2&#45;&gt;Node3</title>
<g id="a_edge2_Node000002_Node000003"><a xlink:title=" ">
<path fill="none" stroke="#63b8ff" d="M1408.33,-452.82C1379.22,-460.99 1339.5,-471.45 1304,-478.5 1287.86,-481.7 1270.47,-484.54 1253.84,-486.95"/>
<polygon fill="#63b8ff" stroke="#63b8ff" points="1409.5,-456.13 1418.16,-450.04 1407.59,-449.39 1409.5,-456.13"/>
</a>
</g>
</g>
<!-- Node4 -->
<g id="Node000004" class="node">
<title>Node4</title>
<g id="a_Node000004"><a xlink:href="../../d6/d6f/classNetworkManager.html#a9faf2055aa0370adbffaa46b7f7181c1" target="_top" xlink:title=" ">
<polygon fill="white" stroke="#666666" points="971,-487 813,-487 813,-468 971,-468 971,-487"/>
<text text-anchor="middle" x="892" y="-475" font-family="Helvetica,sans-Serif" font-size="10.00">NetworkManager::sendBoard</text>
</a>
</g>
</g>
<!-- Node3&#45;&gt;Node4 -->
<g id="edge3_Node000003_Node000004" class="edge">
<title>Node3&#45;&gt;Node4</title>
<g id="a_edge3_Node000003_Node000004"><a xlink:title=" ">
<path fill="none" stroke="#63b8ff" d="M1064.73,-489.17C1033.63,-487.06 1000.3,-484.79 971.35,-482.83"/>
<polygon fill="#63b8ff" stroke="#63b8ff" points="1064.53,-492.67 1074.74,-489.85 1065,-485.68 1064.53,-492.67"/>
</a>
</g>
</g>
<!-- Node8 -->
<g id="Node000008" class="node">
<title>Node8</title>
<g id="a_Node000008"><a xlink:href="../../d6/d6f/classNetworkManager.html#a88303e860c818888a1cdd7d40bc19bf3" target="_top" xlink:title=" ">
<polygon fill="white" stroke="#666666" points="974,-533 810,-533 810,-514 974,-514 974,-533"/>
<text text-anchor="middle" x="892" y="-521" font-family="Helvetica,sans-Serif" font-size="10.00">NetworkManager::sendMarker</text>
</a>
</g>
</g>
<!-- Node3&#45;&gt;Node8 -->
<g id="edge7_Node000003_Node000008" class="edge">
<title>Node3&#45;&gt;Node8</title>
<g id="a_edge7_Node000003_Node000008"><a xlink:title=" ">
<path fill="none" stroke="#63b8ff" d="M1064.62,-506.92C1034.52,-509.83 1002.32,-512.94 974.05,-515.67"/>
<polygon fill="#63b8ff" stroke="#63b8ff" points="1065.13,-510.39 1074.74,-505.94 1064.45,-503.42 1065.13,-510.39"/>
</a>
</g>
</g>
<!-- Node5 -->
<g id="Node000005" class="node">
<title>Node5</title>
<g id="a_Node000005"><a xlink:href="../../d6/d6f/classNetworkManager.html#ac5104e38077637eeeab41e078fa51a5b" target="_top" xlink:title=" ">
<polygon fill="white" stroke="#666666" points="738,-450 526,-450 526,-431 738,-431 738,-450"/>
<text text-anchor="middle" x="632" y="-438" font-family="Helvetica,sans-Serif" font-size="10.00">NetworkManager::bootstrapPeerIfReady</text>
</a>
</g>
</g>
<!-- Node4&#45;&gt;Node5 -->
<g id="edge4_Node000004_Node000005" class="edge">
<title>Node4&#45;&gt;Node5</title>
<g id="a_edge4_Node000004_Node000005"><a xlink:title=" ">
<path fill="none" stroke="#63b8ff" d="M814.46,-466.52C777.99,-461.29 734.77,-455.1 699.66,-450.06"/>
<polygon fill="#63b8ff" stroke="#63b8ff" points="814.16,-470.02 824.56,-467.97 815.16,-463.09 814.16,-470.02"/>
</a>
</g>
</g>
<!-- Node7 -->
<g id="Node000007" class="node">
<title>Node7</title>
<g id="a_Node000007"><a xlink:href="../../d6/d6f/classNetworkManager.html#a8104f62e2e6c3197832dbfe7753853de" target="_top" xlink:title=" ">
<polygon fill="white" stroke="#666666" points="723.5,-487 540.5,-487 540.5,-468 723.5,-468 723.5,-487"/>
<text text-anchor="middle" x="632" y="-475" font-family="Helvetica,sans-Serif" font-size="10.00">NetworkManager::broadcastBoard</text>
</a>
</g>
</g>
<!-- Node4&#45;&gt;Node7 -->
<g id="edge6_Node000004_Node000007" class="edge">
<title>Node4&#45;&gt;Node7</title>
<g id="a_edge6_Node000004_Node000007"><a xlink:title=" ">
<path fill="none" stroke="#63b8ff" d="M802.84,-477.5C777.24,-477.5 749.26,-477.5 723.52,-477.5"/>
<polygon fill="#63b8ff" stroke="#63b8ff" points="802.89,-481 812.89,-477.5 802.89,-474 802.89,-481"/>
</a>
</g>
</g>
<!-- Node6 -->
<g id="Node000006" class="node">
<title>Node6</title>
<g id="a_Node000006"><a xlink:href="../../d6/d6f/classNetworkManager.html#a9211bd133aed2e5ec776b4d4308b30c4" target="_top" xlink:title=" ">
<polygon fill="white" stroke="#666666" points="457,-450 293,-450 293,-431 457,-431 457,-450"/>
<text text-anchor="middle" x="375" y="-438" font-family="Helvetica,sans-Serif" font-size="10.00">NetworkManager::drainEvents</text>
</a>
</g>
</g>
<!-- Node5&#45;&gt;Node6 -->
<g id="edge5_Node000005_Node000006" class="edge">
<title>Node5&#45;&gt;Node6</title>
<g id="a_edge5_Node000005_Node000006"><a xlink:title=" ">
<path fill="none" stroke="#63b8ff" d="M515.55,-440.5C495.85,-440.5 475.76,-440.5 457.18,-440.5"/>
<polygon fill="#63b8ff" stroke="#63b8ff" points="515.81,-444 525.81,-440.5 515.81,-437 515.81,-444"/>
</a>
</g>
</g>
<!-- Node9 -->
<g id="Node000009" class="node">
<title>Node9</title>
<g id="a_Node000009"><a xlink:href="../../d6/d6f/classNetworkManager.html#a1548090a456937ffafda64318f21ba40" target="_top" xlink:title=" ">
<polygon fill="white" stroke="#666666" points="726,-533 538,-533 538,-514 726,-514 726,-533"/>
<text text-anchor="middle" x="632" y="-521" font-family="Helvetica,sans-Serif" font-size="10.00">NetworkManager::broadcastMarker</text>
</a>
</g>
</g>
<!-- Node8&#45;&gt;Node9 -->
<g id="edge8_Node000008_Node000009" class="edge">
<title>Node8&#45;&gt;Node9</title>
<g id="a_edge8_Node000008_Node000009"><a xlink:title=" ">
<path fill="none" stroke="#63b8ff" d="M799.61,-523.5C775.74,-523.5 749.98,-523.5 726.02,-523.5"/>
<polygon fill="#63b8ff" stroke="#63b8ff" points="799.72,-527 809.72,-523.5 799.72,-520 799.72,-527"/>
</a>
</g>
</g>
<!-- Node11 -->
<g id="Node000011" class="node">
<title>Node11</title>
<g id="a_Node000011"><a xlink:href="../../d7/dc6/classChatManager.html#a17157721204dfd36ab180a404a2294a0" target="_top" xlink:title=" ">
<polygon fill="white" stroke="#666666" points="965.5,-580 818.5,-580 818.5,-561 965.5,-561 965.5,-580"/>
<text text-anchor="middle" x="892" y="-568" font-family="Helvetica,sans-Serif" font-size="10.00">ChatManager::saveCurrent</text>
</a>
</g>
</g>
<!-- Node10&#45;&gt;Node11 -->
<g id="edge10_Node000010_Node000011" class="edge">
<title>Node10&#45;&gt;Node11</title>
<g id="a_edge10_Node000010_Node000011"><a xlink:title=" ">
<path fill="none" stroke="#63b8ff" d="M1099.19,-570.5C1058.01,-570.5 1006.8,-570.5 965.72,-570.5"/>
<polygon fill="#63b8ff" stroke="#63b8ff" points="1099.43,-574 1109.43,-570.5 1099.43,-567 1099.43,-574"/>
</a>
</g>
</g>
<!-- Node12 -->
<g id="Node000012" class="node">
<title>Node12</title>
<g id="a_Node000012"><a xlink:href="../../d7/dc6/classChatManager.html#a6bf284d1ba8a95c8963efa930ac2c571" target="_top" xlink:title=" ">
<polygon fill="white" stroke="#666666" points="726,-580 538,-580 538,-561 726,-561 726,-580"/>
<text text-anchor="middle" x="632" y="-568" font-family="Helvetica,sans-Serif" font-size="10.00">ChatManager::setActiveGameTable</text>
</a>
</g>
</g>
<!-- Node11&#45;&gt;Node12 -->
<g id="edge11_Node000011_Node000012" class="edge">
<title>Node11&#45;&gt;Node12</title>
<g id="a_edge11_Node000011_Node000012"><a xlink:title=" ">
<path fill="none" stroke="#63b8ff" d="M808.21,-570.5C782.08,-570.5 753.04,-570.5 726.24,-570.5"/>
<polygon fill="#63b8ff" stroke="#63b8ff" points="808.45,-574 818.45,-570.5 808.45,-567 808.45,-574"/>
</a>
</g>
</g>
<!-- Node14 -->
<g id="Node000014" class="node">
<title>Node14</title>
<g id="a_Node000014"><a xlink:href="../../d9/dff/classBoardManager.html#a15c3689fe12cdc5f3d0589f9d92a678e" target="_top" xlink:title=" ">
<polygon fill="white" stroke="#666666" points="720,-209 544,-209 544,-190 720,-190 720,-209"/>
<text text-anchor="middle" x="632" y="-197" font-family="Helvetica,sans-Serif" font-size="10.00">BoardManager::saveActiveBoard</text>
</a>
</g>
</g>
<!-- Node13&#45;&gt;Node14 -->
<g id="edge13_Node000013_Node000014" class="edge">
<title>Node13&#45;&gt;Node14</title>
<g id="a_edge13_Node000013_Node000014"><a xlink:title=" ">
<path fill="none" stroke="#63b8ff" d="M798.28,-211.03C772.8,-209.25 745.27,-207.33 720.12,-205.58"/>
<polygon fill="#63b8ff" stroke="#63b8ff" points="798.08,-214.53 808.3,-211.73 798.57,-207.54 798.08,-214.53"/>
</a>
</g>
</g>
<!-- Node13&#45;&gt;Node15 -->
<g id="edge14_Node000013_Node000015" class="edge">
<title>Node13&#45;&gt;Node15</title>
<g id="a_edge14_Node000013_Node000015"><a xlink:title=" ">
<path fill="none" stroke="#63b8ff" d="M798.07,-224.34C775.52,-226 751.38,-227.78 728.71,-229.45"/>
<polygon fill="#63b8ff" stroke="#63b8ff" points="798.59,-227.82 808.3,-223.59 798.07,-220.83 798.59,-227.82"/>
</a>
</g>
</g>
<!-- Node16 -->
<g id="Node000016" class="node">
<title>Node16</title>
<g id="a_Node000016"><a xlink:href="../../da/d28/classGameTableManager.html#a172cce8920ef8672b5508fdbca0108fa" target="_top" xlink:title=" ">
<polygon fill="white" stroke="#666666" points="486.5,-246 263.5,-246 263.5,-227 486.5,-227 486.5,-246"/>
<text text-anchor="middle" x="375" y="-234" font-family="Helvetica,sans-Serif" font-size="10.00">GameTableManager::createGameTableFile</text>
</a>
</g>
</g>
<!-- Node15&#45;&gt;Node16 -->
<g id="edge15_Node000015_Node000016" class="edge">
<title>Node15&#45;&gt;Node16</title>
<g id="a_edge15_Node000015_Node000016"><a xlink:title=" ">
<path fill="none" stroke="#63b8ff" d="M525.22,-236.5C512.54,-236.5 499.56,-236.5 486.8,-236.5"/>
<polygon fill="#63b8ff" stroke="#63b8ff" points="525.32,-240 535.32,-236.5 525.32,-233 525.32,-240"/>
</a>
</g>
</g>
<!-- Node17 -->
<g id="Node000017" class="node">
<title>Node17</title>
<g id="a_Node000017"><a xlink:href="../../da/d28/classGameTableManager.html#a42414a5596a4e90a3f321f90e166f9a0" target="_top" xlink:title=" ">
<polygon fill="white" stroke="#666666" points="227,-265 0,-265 0,-246 227,-246 227,-265"/>
<text text-anchor="middle" x="113.5" y="-253" font-family="Helvetica,sans-Serif" font-size="10.00">GameTableManager::hostGameTablePopUp</text>
</a>
</g>
</g>
<!-- Node16&#45;&gt;Node17 -->
<g id="edge16_Node000016_Node000017" class="edge">
<title>Node16&#45;&gt;Node17</title>
<g id="a_edge16_Node000016_Node000017"><a xlink:title=" ">
<path fill="none" stroke="#63b8ff" d="M253.04,-245.36C244.36,-245.99 235.63,-246.63 227,-247.26"/>
<polygon fill="#63b8ff" stroke="#63b8ff" points="253.48,-248.83 263.2,-244.61 252.97,-241.85 253.48,-248.83"/>
</a>
</g>
</g>
<!-- Node18 -->
<g id="Node000018" class="node">
<title>Node18</title>
<g id="a_Node000018"><a xlink:href="../../da/d28/classGameTableManager.html#a9e6225573f97256dd5dfef871a1e32d6" target="_top" xlink:title=" ">
<polygon fill="white" stroke="#666666" points="212.5,-228 14.5,-228 14.5,-209 212.5,-209 212.5,-228"/>
<text text-anchor="middle" x="113.5" y="-216" font-family="Helvetica,sans-Serif" font-size="10.00">GameTableManager::saveGameTable</text>
</a>
</g>
</g>
<!-- Node16&#45;&gt;Node18 -->
<g id="edge17_Node000016_Node000018" class="edge">
<title>Node16&#45;&gt;Node18</title>
<g id="a_edge17_Node000016_Node000018"><a xlink:title=" ">
<path fill="none" stroke="#63b8ff" d="M252.91,-228.1C239.42,-227.16 225.8,-226.22 212.64,-225.31"/>
<polygon fill="#63b8ff" stroke="#63b8ff" points="252.98,-231.61 263.2,-228.81 253.46,-224.63 252.98,-231.61"/>
</a>
</g>
</g>
<!-- Node19&#45;&gt;Node10 -->
<g id="edge29_Node000019_Node000010" class="edge">
<title>Node19&#45;&gt;Node10</title>
<g id="a_edge29_Node000019_Node000010"><a xlink:title=" ">
<path fill="none" stroke="#63b8ff" d="M1425.25,-343.54C1399.99,-359.88 1361.84,-388.27 1340,-422.5 1307.75,-473.04 1349.1,-513 1304,-552.5 1286.07,-568.2 1261.06,-574.05 1237.8,-575.49"/>
<polygon fill="#63b8ff" stroke="#63b8ff" points="1427.32,-346.37 1433.92,-338.08 1423.59,-340.45 1427.32,-346.37"/>
</a>
</g>
</g>
<!-- Node20 -->
<g id="Node000020" class="node">
<title>Node20</title>
<g id="a_Node000020"><a xlink:href="../../d6/d6f/classNetworkManager.html#abb704d7511a6b3f8e125f8371ea3b97d" target="_top" xlink:title=" ">
<polygon fill="white" stroke="#666666" points="1287,-543 1060,-543 1060,-524 1287,-524 1287,-543"/>
<text text-anchor="middle" x="1173.5" y="-531" font-family="Helvetica,sans-Serif" font-size="10.00">NetworkManager::buildCreateMarkerFrame</text>
</a>
</g>
</g>
<!-- Node19&#45;&gt;Node20 -->
<g id="edge20_Node000019_Node000020" class="edge">
<title>Node19&#45;&gt;Node20</title>
<g id="a_edge20_Node000019_Node000020"><a xlink:title=" ">
<path fill="none" stroke="#63b8ff" d="M1426.35,-343.73C1401.65,-360.4 1363.64,-389.22 1340,-422.5 1314.33,-458.63 1338.75,-487.98 1304,-515.5 1298.84,-519.59 1293.19,-522.98 1287.22,-525.78"/>
<polygon fill="#63b8ff" stroke="#63b8ff" points="1428.38,-346.58 1434.79,-338.15 1424.52,-340.74 1428.38,-346.58"/>
</a>
</g>
</g>
<!-- Node21 -->
<g id="Node000021" class="node">
<title>Node21</title>
<g id="a_Node000021"><a xlink:href="../../d6/d6f/classNetworkManager.html#af430cbaa8d0b5ae2424c97cec93e6c06" target="_top" xlink:title=" ">
<polygon fill="white" stroke="#666666" points="1291,-469 1056,-469 1056,-450 1291,-450 1291,-469"/>
<text text-anchor="middle" x="1173.5" y="-457" font-family="Helvetica,sans-Serif" font-size="10.00">NetworkManager::buildSnapshotBoardFrame</text>
</a>
</g>
</g>
<!-- Node19&#45;&gt;Node21 -->
<g id="edge22_Node000019_Node000021" class="edge">
<title>Node19&#45;&gt;Node21</title>
<g id="a_edge22_Node000019_Node000021"><a xlink:title=" ">
<path fill="none" stroke="#63b8ff" d="M1431.45,-345.21C1398.57,-373.7 1332,-429.74 1304,-441.5 1295.94,-444.88 1287.38,-447.66 1278.65,-449.93"/>
<polygon fill="#63b8ff" stroke="#63b8ff" points="1434.16,-347.49 1439.41,-338.28 1429.57,-342.21 1434.16,-347.49"/>
</a>
</g>
</g>
<!-- Node22 -->
<g id="Node000022" class="node">
<title>Node22</title>
<g id="a_Node000022"><a xlink:href="../../d6/d6f/classNetworkManager.html#ad3a1202c87e5df7db27357a94194f9b3" target="_top" xlink:title=" ">
<polygon fill="white" stroke="#666666" points="1304,-432 1043,-432 1043,-413 1304,-413 1304,-432"/>
<text text-anchor="middle" x="1173.5" y="-420" font-family="Helvetica,sans-Serif" font-size="10.00">NetworkManager::buildSnapshotGameTableFrame</text>
</a>
</g>
</g>
<!-- Node19&#45;&gt;Node22 -->
<g id="edge24_Node000019_Node000022" class="edge">
<title>Node19&#45;&gt;Node22</title>
<g id="a_edge24_Node000019_Node000022"><a xlink:title=" ">
<path fill="none" stroke="#63b8ff" d="M1427.63,-343.52C1399.67,-361.12 1350.36,-389.74 1304,-404.5 1293.19,-407.94 1281.66,-410.73 1270.1,-412.98"/>
<polygon fill="#63b8ff" stroke="#63b8ff" points="1429.71,-346.35 1436.25,-338.02 1425.94,-340.45 1429.71,-346.35"/>
</a>
</g>
</g>
<!-- Node25 -->
<g id="Node000025" class="node">
<title>Node25</title>
<g id="a_Node000025"><a xlink:href="../../d6/d6f/classNetworkManager.html#a2bdb7f4df1202fad0548600482a4403d" target="_top" xlink:title=" ">
<polygon fill="white" stroke="#666666" points="1282.5,-395 1064.5,-395 1064.5,-376 1282.5,-376 1282.5,-395"/>
<text text-anchor="middle" x="1173.5" y="-383" font-family="Helvetica,sans-Serif" font-size="10.00">NetworkManager::buildUserNameUpdate</text>
</a>
</g>
</g>
<!-- Node19&#45;&gt;Node25 -->
<g id="edge28_Node000019_Node000025" class="edge">
<title>Node19&#45;&gt;Node25</title>
<g id="a_edge28_Node000019_Node000025"><a xlink:title=" ">
<path fill="none" stroke="#63b8ff" d="M1400.14,-340.34C1371.93,-346.85 1336.07,-354.92 1304,-361.5 1279.25,-366.58 1251.74,-371.75 1228.46,-375.98"/>
<polygon fill="#63b8ff" stroke="#63b8ff" points="1401.22,-343.69 1410.17,-338.02 1399.64,-336.87 1401.22,-343.69"/>
</a>
</g>
</g>
<!-- Node26 -->
<g id="Node000026" class="node">
<title>Node26</title>
<g id="a_Node000026"><a xlink:href="../../db/d4b/classSerializer.html#a9555132c02190d9a832a360fb236e954" target="_top" xlink:title=" ">
<polygon fill="white" stroke="#666666" points="1242.5,-282 1104.5,-282 1104.5,-263 1242.5,-263 1242.5,-282"/>
<text text-anchor="middle" x="1173.5" y="-270" font-family="Helvetica,sans-Serif" font-size="10.00">Serializer::serializeBoard</text>
</a>
</g>
</g>
<!-- Node19&#45;&gt;Node26 -->
<g id="edge30_Node000019_Node000026" class="edge">
<title>Node19&#45;&gt;Node26</title>
<g id="a_edge30_Node000019_Node000026"><a xlink:title=" ">
<path fill="none" stroke="#63b8ff" d="M1407.15,-316.32C1378.13,-308.47 1338.98,-298.46 1304,-291.5 1284.17,-287.55 1262.47,-284.05 1242.61,-281.17"/>
<polygon fill="#63b8ff" stroke="#63b8ff" points="1406.4,-319.74 1416.97,-319 1408.25,-312.99 1406.4,-319.74"/>
</a>
</g>
</g>
<!-- Node27 -->
<g id="Node000027" class="node">
<title>Node27</title>
<g id="a_Node000027"><a xlink:href="../../db/d4b/classSerializer.html#a776a157c2ae2e009d25025e0ed151fcb" target="_top" xlink:title=" ">
<polygon fill="white" stroke="#666666" points="974,-301 810,-301 810,-282 974,-282 974,-301"/>
<text text-anchor="middle" x="892" y="-289" font-family="Helvetica,sans-Serif" font-size="10.00">Serializer::serializeGameTable</text>
</a>
</g>
</g>
<!-- Node19&#45;&gt;Node27 -->
<g id="edge32_Node000019_Node000027" class="edge">
<title>Node19&#45;&gt;Node27</title>
<g id="a_edge32_Node000019_Node000027"><a xlink:title=" ">
<path fill="none" stroke="#63b8ff" d="M1372.23,-339.04C1289.28,-347.78 1155.03,-354.95 1043,-328.5 1025.59,-324.39 1024.01,-316.03 1007,-310.5 995.07,-306.62 982.18,-303.5 969.49,-301.01"/>
<polygon fill="#63b8ff" stroke="#63b8ff" points="1372.78,-342.5 1382.34,-337.94 1372.02,-335.54 1372.78,-342.5"/>
</a>
</g>
</g>
<!-- Node28 -->
<g id="Node000028" class="node">
<title>Node28</title>
<g id="a_Node000028"><a xlink:href="../../db/d4b/classSerializer.html#ab8e8e2bd7ed71e39b528e1bcdf528e0b" target="_top" xlink:title=" ">
<polygon fill="white" stroke="#666666" points="1273.5,-319 1073.5,-319 1073.5,-300 1273.5,-300 1273.5,-319"/>
<text text-anchor="middle" x="1173.5" y="-307" font-family="Helvetica,sans-Serif" font-size="10.00">Serializer::serializeMarkerComponent</text>
</a>
</g>
</g>
<!-- Node19&#45;&gt;Node28 -->
<g id="edge34_Node000019_Node000028" class="edge">
<title>Node19&#45;&gt;Node28</title>
<g id="a_edge34_Node000019_Node000028"><a xlink:title=" ">
<path fill="none" stroke="#63b8ff" d="M1372.1,-323.1C1341.5,-321 1306.07,-318.56 1273.72,-316.33"/>
<polygon fill="#63b8ff" stroke="#63b8ff" points="1372.06,-326.61 1382.28,-323.8 1372.54,-319.62 1372.06,-326.61"/>
</a>
</g>
</g>
<!-- Node19&#45;&gt;Node33 -->
<g id="edge39_Node000019_Node000033" class="edge">
<title>Node19&#45;&gt;Node33</title>
<g id="a_edge39_Node000019_Node000033"><a xlink:title=" ">
<path fill="none" stroke="#63b8ff" d="M1426.65,-313.41C1398.47,-296.31 1349.64,-268.95 1304,-254.5 1291.65,-250.59 1278.38,-247.48 1265.21,-245"/>
<polygon fill="#63b8ff" stroke="#63b8ff" points="1425.03,-316.52 1435.38,-318.78 1428.7,-310.56 1425.03,-316.52"/>
</a>
</g>
</g>
<!-- Node19&#45;&gt;Node34 -->
<g id="edge42_Node000019_Node000034" class="edge">
<title>Node19&#45;&gt;Node34</title>
<g id="a_edge42_Node000019_Node000034"><a xlink:title=" ">
<path fill="none" stroke="#63b8ff" d="M1431.9,-312.19C1404.99,-289.12 1353.05,-246.55 1304,-217.5 1269.88,-197.29 1227.45,-179.56 1200.67,-169.18"/>
<polygon fill="#63b8ff" stroke="#63b8ff" points="1429.87,-315.05 1439.72,-318.95 1434.44,-309.76 1429.87,-315.05"/>
</a>
</g>
</g>
<!-- Node19&#45;&gt;Node39 -->
<g id="edge47_Node000019_Node000039" class="edge">
<title>Node19&#45;&gt;Node39</title>
<g id="a_edge47_Node000019_Node000039"><a xlink:title=" ">
<path fill="none" stroke="#63b8ff" d="M1441.78,-309.45C1422.87,-270.54 1374.07,-182.17 1304,-141.5 1288.87,-132.72 1271.12,-127.5 1253.71,-124.49"/>
<polygon fill="#63b8ff" stroke="#63b8ff" points="1438.68,-311.09 1446.13,-318.63 1445.01,-308.09 1438.68,-311.09"/>
</a>
</g>
</g>
<!-- Node20&#45;&gt;Node8 -->
<g id="edge21_Node000020_Node000008" class="edge">
<title>Node20&#45;&gt;Node8</title>
<g id="a_edge21_Node000020_Node000008"><a xlink:title=" ">
<path fill="none" stroke="#63b8ff" d="M1049.5,-529.1C1023.96,-528.19 997.66,-527.24 974.08,-526.4"/>
<polygon fill="#63b8ff" stroke="#63b8ff" points="1049.5,-532.6 1059.62,-529.46 1049.75,-525.61 1049.5,-532.6"/>
</a>
</g>
</g>
<!-- Node21&#45;&gt;Node4 -->
<g id="edge23_Node000021_Node000004" class="edge">
<title>Node21&#45;&gt;Node4</title>
<g id="a_edge23_Node000021_Node000004"><a xlink:title=" ">
<path fill="none" stroke="#63b8ff" d="M1045.89,-467.65C1020.41,-469.29 994.35,-470.97 971.13,-472.47"/>
<polygon fill="#63b8ff" stroke="#63b8ff" points="1046.24,-471.14 1055.99,-467 1045.79,-464.15 1046.24,-471.14"/>
</a>
</g>
</g>
<!-- Node23 -->
<g id="Node000023" class="node">
<title>Node23</title>
<g id="a_Node000023"><a xlink:href="../../d6/d6f/classNetworkManager.html#ae486f852701623bc15b9325f8bb64794" target="_top" xlink:title=" ">
<polygon fill="white" stroke="#666666" points="984.5,-432 799.5,-432 799.5,-413 984.5,-413 984.5,-432"/>
<text text-anchor="middle" x="892" y="-420" font-family="Helvetica,sans-Serif" font-size="10.00">NetworkManager::sendGameTable</text>
</a>
</g>
</g>
<!-- Node22&#45;&gt;Node23 -->
<g id="edge25_Node000022_Node000023" class="edge">
<title>Node22&#45;&gt;Node23</title>
<g id="a_edge25_Node000022_Node000023"><a xlink:title=" ">
<path fill="none" stroke="#63b8ff" d="M1032.8,-422.5C1016.44,-422.5 1000.08,-422.5 984.62,-422.5"/>
<polygon fill="#63b8ff" stroke="#63b8ff" points="1032.98,-426 1042.98,-422.5 1032.98,-419 1032.98,-426"/>
</a>
</g>
</g>
<!-- Node23&#45;&gt;Node5 -->
<g id="edge26_Node000023_Node000005" class="edge">
<title>Node23&#45;&gt;Node5</title>
<g id="a_edge26_Node000023_Node000005"><a xlink:title=" ">
<path fill="none" stroke="#63b8ff" d="M788.98,-429.62C772.23,-430.79 754.85,-432 738.03,-433.17"/>
<polygon fill="#63b8ff" stroke="#63b8ff" points="789.58,-433.08 799.31,-428.9 789.09,-426.1 789.58,-433.08"/>
</a>
</g>
</g>
<!-- Node24 -->
<g id="Node000024" class="node">
<title>Node24</title>
<g id="a_Node000024"><a xlink:href="../../d6/d6f/classNetworkManager.html#a2a8b22c40456b5e116efcd9317fea0c6" target="_top" xlink:title=" ">
<polygon fill="white" stroke="#666666" points="736.5,-413 527.5,-413 527.5,-394 736.5,-394 736.5,-413"/>
<text text-anchor="middle" x="632" y="-401" font-family="Helvetica,sans-Serif" font-size="10.00">NetworkManager::broadcastGameTable</text>
</a>
</g>
</g>
<!-- Node23&#45;&gt;Node24 -->
<g id="edge27_Node000023_Node000024" class="edge">
<title>Node23&#45;&gt;Node24</title>
<g id="a_edge27_Node000023_Node000024"><a xlink:title=" ">
<path fill="none" stroke="#63b8ff" d="M789.23,-415.01C771.96,-413.73 754.01,-412.41 736.7,-411.14"/>
<polygon fill="#63b8ff" stroke="#63b8ff" points="789.08,-418.5 799.31,-415.75 789.6,-411.52 789.08,-418.5"/>
</a>
</g>
</g>
<!-- Node26&#45;&gt;Node13 -->
<g id="edge31_Node000026_Node000013" class="edge">
<title>Node26&#45;&gt;Node13</title>
<g id="a_edge31_Node000026_Node000013"><a xlink:title=" ">
<path fill="none" stroke="#63b8ff" d="M1094.38,-265.82C1077.22,-263.2 1059.31,-259.56 1043,-254.5 1025.92,-249.2 1024.01,-242.03 1007,-236.5 995.07,-232.62 982.18,-229.5 969.49,-227.01"/>
<polygon fill="#63b8ff" stroke="#63b8ff" points="1093.98,-269.3 1104.37,-267.25 1094.97,-262.37 1093.98,-269.3"/>
</a>
</g>
</g>
<!-- Node27&#45;&gt;Node15 -->
<g id="edge33_Node000027_Node000015" class="edge">
<title>Node27&#45;&gt;Node15</title>
<g id="a_edge33_Node000027_Node000015"><a xlink:title=" ">
<path fill="none" stroke="#63b8ff" d="M814.02,-280.37C801.61,-278.28 788.92,-275.97 777,-273.5 738.71,-265.58 695.3,-254.07 666.25,-246"/>
<polygon fill="#63b8ff" stroke="#63b8ff" points="813.46,-283.82 823.9,-281.99 814.6,-276.91 813.46,-283.82"/>
</a>
</g>
</g>
<!-- Node29 -->
<g id="Node000029" class="node">
<title>Node29</title>
<g id="a_Node000029"><a xlink:href="../../d6/d6f/classNetworkManager.html#acf942084ff349010655c47a232659527" target="_top" xlink:title=" ">
<polygon fill="white" stroke="#666666" points="1007,-338 777,-338 777,-319 1007,-319 1007,-338"/>
<text text-anchor="middle" x="892" y="-326" font-family="Helvetica,sans-Serif" font-size="10.00">NetworkManager::buildMarkerUpdateFrame</text>
</a>
</g>
</g>
<!-- Node28&#45;&gt;Node29 -->
<g id="edge35_Node000028_Node000029" class="edge">
<title>Node28&#45;&gt;Node29</title>
<g id="a_edge35_Node000028_Node000029"><a xlink:title=" ">
<path fill="none" stroke="#63b8ff" d="M1063.08,-316.94C1044.75,-318.18 1025.7,-319.48 1007.26,-320.73"/>
<polygon fill="#63b8ff" stroke="#63b8ff" points="1063.43,-320.42 1073.17,-316.25 1062.96,-313.44 1063.43,-320.42"/>
</a>
</g>
</g>
<!-- Node32 -->
<g id="Node000032" class="node">
<title>Node32</title>
<g id="a_Node000032"><a xlink:href="../../db/d4b/classSerializer.html#a8799545c0b1ea86a5447cbcd1d0a733c" target="_top" xlink:title=" ">
<polygon fill="white" stroke="#666666" points="978,-264 806,-264 806,-245 978,-245 978,-264"/>
<text text-anchor="middle" x="892" y="-252" font-family="Helvetica,sans-Serif" font-size="10.00">Serializer::serializeMarkerEntity</text>
</a>
</g>
</g>
<!-- Node28&#45;&gt;Node32 -->
<g id="edge38_Node000028_Node000032" class="edge">
<title>Node28&#45;&gt;Node32</title>
<g id="a_edge38_Node000028_Node000032"><a xlink:title=" ">
<path fill="none" stroke="#63b8ff" d="M1067.71,-297.93C1059.27,-296.09 1050.95,-293.97 1043,-291.5 1025.92,-286.2 1024.01,-279.03 1007,-273.5 995.07,-269.62 982.18,-266.5 969.49,-264.01"/>
<polygon fill="#63b8ff" stroke="#63b8ff" points="1067.14,-301.39 1077.64,-299.96 1068.54,-294.53 1067.14,-301.39"/>
</a>
</g>
</g>
<!-- Node30 -->
<g id="Node000030" class="node">
<title>Node30</title>
<g id="a_Node000030"><a xlink:href="../../d6/d6f/classNetworkManager.html#a3cd0860da30289b21f2f4bd467d279d3" target="_top" xlink:title=" ">
<polygon fill="white" stroke="#666666" points="731.5,-338 532.5,-338 532.5,-319 731.5,-319 731.5,-338"/>
<text text-anchor="middle" x="632" y="-326" font-family="Helvetica,sans-Serif" font-size="10.00">NetworkManager::sendMarkerUpdate</text>
</a>
</g>
</g>
<!-- Node29&#45;&gt;Node30 -->
<g id="edge36_Node000029_Node000030" class="edge">
<title>Node29&#45;&gt;Node30</title>
<g id="a_edge36_Node000029_Node000030"><a xlink:title=" ">
<path fill="none" stroke="#63b8ff" d="M766.51,-328.5C754.88,-328.5 743.2,-328.5 731.84,-328.5"/>
<polygon fill="#63b8ff" stroke="#63b8ff" points="766.71,-332 776.71,-328.5 766.71,-325 766.71,-332"/>
</a>
</g>
</g>
<!-- Node31 -->
<g id="Node000031" class="node">
<title>Node31</title>
<g id="a_Node000031"><a xlink:href="../../d6/d6f/classNetworkManager.html#a2f0bd7fd012f4f7c96fcc25b2ac90b0f" target="_top" xlink:title=" ">
<polygon fill="white" stroke="#666666" points="487,-338 263,-338 263,-319 487,-319 487,-338"/>
<text text-anchor="middle" x="375" y="-326" font-family="Helvetica,sans-Serif" font-size="10.00">NetworkManager::broadcastMarkerUpdate</text>
</a>
</g>
</g>
<!-- Node30&#45;&gt;Node31 -->
<g id="edge37_Node000030_Node000031" class="edge">
<title>Node30&#45;&gt;Node31</title>
<g id="a_edge37_Node000030_Node000031"><a xlink:title=" ">
<path fill="none" stroke="#63b8ff" d="M522.24,-328.5C510.59,-328.5 498.73,-328.5 487.05,-328.5"/>
<polygon fill="#63b8ff" stroke="#63b8ff" points="522.41,-332 532.41,-328.5 522.41,-325 522.41,-332"/>
</a>
</g>
</g>
<!-- Node33&#45;&gt;Node13 -->
<g id="edge40_Node000033_Node000013" class="edge">
<title>Node33&#45;&gt;Node13</title>
<g id="a_edge40_Node000033_Node000013"><a xlink:title=" ">
<path fill="none" stroke="#63b8ff" d="M1062.28,-228.4C1033.49,-226.55 1002.95,-224.58 975.85,-222.84"/>
<polygon fill="#63b8ff" stroke="#63b8ff" points="1062.18,-231.9 1072.38,-229.05 1062.63,-224.92 1062.18,-231.9"/>
</a>
</g>
</g>
<!-- Node33&#45;&gt;Node32 -->
<g id="edge41_Node000033_Node000032" class="edge">
<title>Node33&#45;&gt;Node32</title>
<g id="a_edge41_Node000033_Node000032"><a xlink:title=" ">
<path fill="none" stroke="#63b8ff" d="M1062.17,-243C1034.21,-244.9 1004.6,-246.91 978.11,-248.71"/>
<polygon fill="#63b8ff" stroke="#63b8ff" points="1062.64,-246.48 1072.38,-242.31 1062.17,-239.49 1062.64,-246.48"/>
</a>
</g>
</g>
<!-- Node35 -->
<g id="Node000035" class="node">
<title>Node35</title>
<g id="a_Node000035"><a xlink:href="../../d8/d43/classIdentityManager.html#a18c85a39c82ac2918657286498bbe8da" target="_top" xlink:title=" ">
<polygon fill="white" stroke="#666666" points="1001,-56 783,-56 783,-37 1001,-37 1001,-56"/>
<text text-anchor="middle" x="892" y="-44" font-family="Helvetica,sans-Serif" font-size="10.00">IdentityManager::saveAddressBookToFile</text>
</a>
</g>
</g>
<!-- Node34&#45;&gt;Node35 -->
<g id="edge43_Node000034_Node000035" class="edge">
<title>Node34&#45;&gt;Node35</title>
<g id="a_edge43_Node000034_Node000035"><a xlink:title=" ">
<path fill="none" stroke="#63b8ff" d="M1078.21,-151.21C1066.16,-148.76 1054.16,-145.59 1043,-141.5 986.27,-120.71 928.48,-76.07 904.51,-56.28"/>
<polygon fill="#63b8ff" stroke="#63b8ff" points="1077.84,-154.71 1088.32,-153.11 1079.13,-147.83 1077.84,-154.71"/>
</a>
</g>
</g>
<!-- Node36 -->
<g id="Node000036" class="node">
<title>Node36</title>
<g id="a_Node000036"><a xlink:href="../../d8/d43/classIdentityManager.html#a22e3ee5efe1fc4e1df1363b9490390fb" target="_top" xlink:title=" ">
<polygon fill="white" stroke="#666666" points="705,-93 559,-93 559,-74 705,-74 705,-93"/>
<text text-anchor="middle" x="632" y="-81" font-family="Helvetica,sans-Serif" font-size="10.00">IdentityManager::bindPeer</text>
</a>
</g>
</g>
<!-- Node35&#45;&gt;Node36 -->
<g id="edge44_Node000035_Node000036" class="edge">
<title>Node35&#45;&gt;Node36</title>
<g id="a_edge44_Node000035_Node000036"><a xlink:title=" ">
<path fill="none" stroke="#63b8ff" d="M814.46,-57.48C777.99,-62.71 734.77,-68.9 699.66,-73.94"/>
<polygon fill="#63b8ff" stroke="#63b8ff" points="815.16,-60.91 824.56,-56.03 814.16,-53.98 815.16,-60.91"/>
</a>
</g>
</g>
<!-- Node37 -->
<g id="Node000037" class="node">
<title>Node37</title>
<g id="a_Node000037"><a xlink:href="../../d8/d43/classIdentityManager.html#a06c9f1224957dbb9d2680a5c0d595ebd" target="_top" xlink:title=" ">
<polygon fill="white" stroke="#666666" points="717,-56 547,-56 547,-37 717,-37 717,-56"/>
<text text-anchor="middle" x="632" y="-44" font-family="Helvetica,sans-Serif" font-size="10.00">IdentityManager::setMyIdentity</text>
</a>
</g>
</g>
<!-- Node35&#45;&gt;Node37 -->
<g id="edge45_Node000035_Node000037" class="edge">
<title>Node35&#45;&gt;Node37</title>
<g id="a_edge45_Node000035_Node000037"><a xlink:title=" ">
<path fill="none" stroke="#63b8ff" d="M772.64,-46.5C753.89,-46.5 734.84,-46.5 717.09,-46.5"/>
<polygon fill="#63b8ff" stroke="#63b8ff" points="772.71,-50 782.71,-46.5 772.71,-43 772.71,-50"/>
</a>
</g>
</g>
<!-- Node38 -->
<g id="Node000038" class="node">
<title>Node38</title>
<g id="a_Node000038"><a xlink:href="../../d8/d43/classIdentityManager.html#a2545919ba7d19962e6b4f147940cd3d9" target="_top" xlink:title=" ">
<polygon fill="white" stroke="#666666" points="741,-19 523,-19 523,0 741,0 741,-19"/>
<text text-anchor="middle" x="632" y="-7" font-family="Helvetica,sans-Serif" font-size="10.00">IdentityManager::setUsernameForUnique</text>
</a>
</g>
</g>
<!-- Node35&#45;&gt;Node38 -->
<g id="edge46_Node000035_Node000038" class="edge">
<title>Node35&#45;&gt;Node38</title>
<g id="a_edge46_Node000035_Node000038"><a xlink:title=" ">
<path fill="none" stroke="#63b8ff" d="M814.46,-35.52C777.99,-30.29 734.77,-24.1 699.66,-19.06"/>
<polygon fill="#63b8ff" stroke="#63b8ff" points="814.16,-39.02 824.56,-36.97 815.16,-32.09 814.16,-39.02"/>
</a>
</g>
</g>
<!-- Node40 -->
<g id="Node000040" class="node">
<title>Node40</title>
<g id="a_Node000040"><a xlink:href="../../d8/d43/classIdentityManager.html#a1869a9c4eeaabc2a70e422ae5c685a9b" target="_top" xlink:title=" ">
<polygon fill="white" stroke="#666666" points="995,-19 789,-19 789,0 995,0 995,-19"/>
<text text-anchor="middle" x="892" y="-7" font-family="Helvetica,sans-Serif" font-size="10.00">IdentityManager::saveMyIdentityToFile</text>
</a>
</g>
</g>
<!-- Node39&#45;&gt;Node40 -->
<g id="edge48_Node000039_Node000040" class="edge">
<title>Node39&#45;&gt;Node40</title>
<g id="a_edge48_Node000039_Node000040"><a xlink:title=" ">
<path fill="none" stroke="#63b8ff" d="M1151.07,-106.74C1120.66,-85.21 1062.5,-47.06 1007,-27.5 997.27,-24.07 986.84,-21.29 976.38,-19.04"/>
<polygon fill="#63b8ff" stroke="#63b8ff" points="1149.42,-109.86 1159.58,-112.85 1153.5,-104.17 1149.42,-109.86"/>
</a>
</g>
</g>
<!-- Node40&#45;&gt;Node37 -->
<g id="edge49_Node000040_Node000037" class="edge">
<title>Node40&#45;&gt;Node37</title>
<g id="a_edge49_Node000040_Node000037"><a xlink:title=" ">
<path fill="none" stroke="#63b8ff" d="M814.46,-20.48C777.99,-25.71 734.77,-31.9 699.66,-36.94"/>
<polygon fill="#63b8ff" stroke="#63b8ff" points="815.16,-23.91 824.56,-19.03 814.16,-16.98 815.16,-23.91"/>
</a>
</g>
</g>
<!-- Node40&#45;&gt;Node38 -->
<g id="edge50_Node000040_Node000038" class="edge">
<title>Node40&#45;&gt;Node38</title>
<g id="a_edge50_Node000040_Node000038"><a xlink:title=" ">
<path fill="none" stroke="#63b8ff" d="M778.34,-9.5C765.99,-9.5 753.44,-9.5 741.15,-9.5"/>
<polygon fill="#63b8ff" stroke="#63b8ff" points="778.66,-13 788.66,-9.5 778.66,-6 778.66,-13"/>
</a>
</g>
</g>
</g>
</svg>
