<?xml version="1.0" encoding="UTF-8" standalone="no"?>
<!DOCTYPE svg PUBLIC "-//W3C//DTD SVG 1.1//EN"
 "http://www.w3.org/Graphics/SVG/1.1/DTD/svg11.dtd">
<!-- Generated by graphviz version 2.43.0 (0)
 -->
<!-- Title: Serializer::serializeSize Pages: 1 -->
<svg width="1162pt" height="249pt"
 viewBox="0.00 0.00 1162.00 249.00" xmlns="http://www.w3.org/2000/svg" xmlns:xlink="http://www.w3.org/1999/xlink">
<g id="graph0" class="graph" transform="scale(1 1) rotate(0) translate(4 245)">
<title>Serializer::serializeSize</title>
<!-- Node1 -->
<g id="Node000001" class="node">
<title>Node1</title>
<g id="a_Node000001"><a xlink:title=" ">
<polygon fill="#999999" stroke="#666666" points="1154,-130 1024,-130 1024,-111 1154,-111 1154,-130"/>
<text text-anchor="middle" x="1089" y="-118" font-family="Helvetica,sans-Serif" font-size="10.00">Serializer::serializeSize</text>
</a>
</g>
</g>
<!-- Node2 -->
<g id="Node000002" class="node">
<title>Node2</title>
<g id="a_Node000002"><a xlink:href="../../d6/d6f/classNetworkManager.html#abb704d7511a6b3f8e125f8371ea3b97d" target="_top" xlink:title=" ">
<polygon fill="white" stroke="#666666" points="986.5,-241 759.5,-241 759.5,-222 986.5,-222 986.5,-241"/>
<text text-anchor="middle" x="873" y="-229" font-family="Helvetica,sans-Serif" font-size="10.00">NetworkManager::buildCreateMarkerFrame</text>
</a>
</g>
</g>
<!-- Node1&#45;&gt;Node2 -->
<g id="edge1_Node000001_Node000002" class="edge">
<title>Node1&#45;&gt;Node2</title>
<g id="a_edge1_Node000001_Node000002"><a xlink:title=" ">
<path fill="none" stroke="#63b8ff" d="M1074.69,-138.1C1057.31,-159.7 1024.72,-195.63 988,-213.5 980.97,-216.92 973.44,-219.71 965.72,-222"/>
<polygon fill="#63b8ff" stroke="#63b8ff" points="1077.57,-140.11 1080.98,-130.08 1072.06,-135.79 1077.57,-140.11"/>
</a>
</g>
</g>
<!-- Node5 -->
<g id="Node000005" class="node">
<title>Node5</title>
<g id="a_Node000005"><a xlink:href="../../d6/d6f/classNetworkManager.html#a0aadf47f716f74e1fa0cf810715bedc2" target="_top" xlink:title=" ">
<polygon fill="white" stroke="#666666" points="978.5,-204 767.5,-204 767.5,-185 978.5,-185 978.5,-204"/>
<text text-anchor="middle" x="873" y="-192" font-family="Helvetica,sans-Serif" font-size="10.00">NetworkManager::buildFogCreateFrame</text>
</a>
</g>
</g>
<!-- Node1&#45;&gt;Node5 -->
<g id="edge4_Node000001_Node000005" class="edge">
<title>Node1&#45;&gt;Node5</title>
<g id="a_edge4_Node000001_Node000005"><a xlink:title=" ">
<path fill="none" stroke="#63b8ff" d="M1066.02,-135.83C1046.45,-148.73 1016.57,-166.6 988,-176.5 978.06,-179.94 967.4,-182.73 956.74,-184.99"/>
<polygon fill="#63b8ff" stroke="#63b8ff" points="1068.16,-138.61 1074.5,-130.13 1064.25,-132.81 1068.16,-138.61"/>
</a>
</g>
</g>
<!-- Node8 -->
<g id="Node000008" class="node">
<title>Node8</title>
<g id="a_Node000008"><a xlink:href="../../d6/d6f/classNetworkManager.html#a22a74f98b0c9341e369396bd22685055" target="_top" xlink:title=" ">
<polygon fill="white" stroke="#666666" points="980,-167 766,-167 766,-148 980,-148 980,-167"/>
<text text-anchor="middle" x="873" y="-155" font-family="Helvetica,sans-Serif" font-size="10.00">NetworkManager::buildFogUpdateFrame</text>
</a>
</g>
</g>
<!-- Node1&#45;&gt;Node8 -->
<g id="edge7_Node000001_Node000008" class="edge">
<title>Node1&#45;&gt;Node8</title>
<g id="a_edge7_Node000001_Node000008"><a xlink:title=" ">
<path fill="none" stroke="#63b8ff" d="M1029.31,-131.97C1015.76,-134.53 1001.39,-137.17 988,-139.5 971.32,-142.4 953.23,-145.35 936.48,-147.99"/>
<polygon fill="#63b8ff" stroke="#63b8ff" points="1030.31,-135.34 1039.48,-130.03 1029,-128.46 1030.31,-135.34"/>
</a>
</g>
</g>
<!-- Node11 -->
<g id="Node000011" class="node">
<title>Node11</title>
<g id="a_Node000011"><a xlink:href="../../d6/d6f/classNetworkManager.html#acf942084ff349010655c47a232659527" target="_top" xlink:title=" ">
<polygon fill="white" stroke="#666666" points="988,-130 758,-130 758,-111 988,-111 988,-130"/>
<text text-anchor="middle" x="873" y="-118" font-family="Helvetica,sans-Serif" font-size="10.00">NetworkManager::buildMarkerUpdateFrame</text>
</a>
</g>
</g>
<!-- Node1&#45;&gt;Node11 -->
<g id="edge10_Node000001_Node000011" class="edge">
<title>Node1&#45;&gt;Node11</title>
<g id="a_edge10_Node000001_Node000011"><a xlink:title=" ">
<path fill="none" stroke="#63b8ff" d="M1013.52,-120.5C1005.28,-120.5 996.75,-120.5 988.16,-120.5"/>
<polygon fill="#63b8ff" stroke="#63b8ff" points="1013.79,-124 1023.79,-120.5 1013.79,-117 1013.79,-124"/>
</a>
</g>
</g>
<!-- Node14 -->
<g id="Node000014" class="node">
<title>Node14</title>
<g id="a_Node000014"><a xlink:href="../../db/d4b/classSerializer.html#a33c1046417ab5077d907baac823e7194" target="_top" xlink:title=" ">
<polygon fill="white" stroke="#666666" points="956.5,-93 789.5,-93 789.5,-74 956.5,-74 956.5,-93"/>
<text text-anchor="middle" x="873" y="-81" font-family="Helvetica,sans-Serif" font-size="10.00">Serializer::serializeBoardEntity</text>
</a>
</g>
</g>
<!-- Node1&#45;&gt;Node14 -->
<g id="edge13_Node000001_Node000014" class="edge">
<title>Node1&#45;&gt;Node14</title>
<g id="a_edge13_Node000001_Node000014"><a xlink:title=" ">
<path fill="none" stroke="#63b8ff" d="M1025.94,-109.2C1013.39,-106.95 1000.27,-104.63 988,-102.5 969.81,-99.35 949.97,-96.01 932.02,-93.02"/>
<polygon fill="#63b8ff" stroke="#63b8ff" points="1025.4,-112.66 1035.86,-110.98 1026.64,-105.77 1025.4,-112.66"/>
</a>
</g>
</g>
<!-- Node20 -->
<g id="Node000020" class="node">
<title>Node20</title>
<g id="a_Node000020"><a xlink:href="../../db/d4b/classSerializer.html#a1440a54bfe30bdaee9873faf051305cc" target="_top" xlink:title=" ">
<polygon fill="white" stroke="#666666" points="950.5,-56 795.5,-56 795.5,-37 950.5,-37 950.5,-56"/>
<text text-anchor="middle" x="873" y="-44" font-family="Helvetica,sans-Serif" font-size="10.00">Serializer::serializeFogEntity</text>
</a>
</g>
</g>
<!-- Node1&#45;&gt;Node20 -->
<g id="edge19_Node000001_Node000020" class="edge">
<title>Node1&#45;&gt;Node20</title>
<g id="a_edge19_Node000001_Node000020"><a xlink:title=" ">
<path fill="none" stroke="#63b8ff" d="M1065.63,-105.3C1046.01,-92.7 1016.28,-75.31 988,-65.5 976.15,-61.39 963.3,-58.15 950.63,-55.61"/>
<polygon fill="#63b8ff" stroke="#63b8ff" points="1063.86,-108.33 1074.14,-110.88 1067.69,-102.47 1063.86,-108.33"/>
</a>
</g>
</g>
<!-- Node21 -->
<g id="Node000021" class="node">
<title>Node21</title>
<g id="a_Node000021"><a xlink:href="../../db/d4b/classSerializer.html#a8799545c0b1ea86a5447cbcd1d0a733c" target="_top" xlink:title=" ">
<polygon fill="white" stroke="#666666" points="959,-19 787,-19 787,0 959,0 959,-19"/>
<text text-anchor="middle" x="873" y="-7" font-family="Helvetica,sans-Serif" font-size="10.00">Serializer::serializeMarkerEntity</text>
</a>
</g>
</g>
<!-- Node1&#45;&gt;Node21 -->
<g id="edge20_Node000001_Node000021" class="edge">
<title>Node1&#45;&gt;Node21</title>
<g id="a_edge20_Node000001_Node000021"><a xlink:title=" ">
<path fill="none" stroke="#63b8ff" d="M1074.35,-102.81C1056.83,-81.47 1024.33,-46.25 988,-28.5 978.99,-24.1 969.14,-20.69 959.14,-18.05"/>
<polygon fill="#63b8ff" stroke="#63b8ff" points="1071.73,-105.14 1080.71,-110.76 1077.2,-100.76 1071.73,-105.14"/>
</a>
</g>
</g>
<!-- Node3 -->
<g id="Node000003" class="node">
<title>Node3</title>
<g id="a_Node000003"><a xlink:href="../../d6/d6f/classNetworkManager.html#a88303e860c818888a1cdd7d40bc19bf3" target="_top" xlink:title=" ">
<polygon fill="white" stroke="#666666" points="704.5,-241 540.5,-241 540.5,-222 704.5,-222 704.5,-241"/>
<text text-anchor="middle" x="622.5" y="-229" font-family="Helvetica,sans-Serif" font-size="10.00">NetworkManager::sendMarker</text>
</a>
</g>
</g>
<!-- Node2&#45;&gt;Node3 -->
<g id="edge2_Node000002_Node000003" class="edge">
<title>Node2&#45;&gt;Node3</title>
<g id="a_edge2_Node000002_Node000003"><a xlink:title=" ">
<path fill="none" stroke="#63b8ff" d="M748.96,-231.5C733.87,-231.5 718.77,-231.5 704.52,-231.5"/>
<polygon fill="#63b8ff" stroke="#63b8ff" points="749.38,-235 759.38,-231.5 749.38,-228 749.38,-235"/>
</a>
</g>
</g>
<!-- Node4 -->
<g id="Node000004" class="node">
<title>Node4</title>
<g id="a_Node000004"><a xlink:href="../../d6/d6f/classNetworkManager.html#a1548090a456937ffafda64318f21ba40" target="_top" xlink:title=" ">
<polygon fill="white" stroke="#666666" points="469,-241 281,-241 281,-222 469,-222 469,-241"/>
<text text-anchor="middle" x="375" y="-229" font-family="Helvetica,sans-Serif" font-size="10.00">NetworkManager::broadcastMarker</text>
</a>
</g>
</g>
<!-- Node3&#45;&gt;Node4 -->
<g id="edge3_Node000003_Node000004" class="edge">
<title>Node3&#45;&gt;Node4</title>
<g id="a_edge3_Node000003_Node000004"><a xlink:title=" ">
<path fill="none" stroke="#63b8ff" d="M530.16,-231.5C510.3,-231.5 489.26,-231.5 469.31,-231.5"/>
<polygon fill="#63b8ff" stroke="#63b8ff" points="530.43,-235 540.43,-231.5 530.43,-228 530.43,-235"/>
</a>
</g>
</g>
<!-- Node6 -->
<g id="Node000006" class="node">
<title>Node6</title>
<g id="a_Node000006"><a xlink:href="../../d6/d6f/classNetworkManager.html#aca07ad2cb1e034fe5ac1f6c88df2d7a0" target="_top" xlink:title=" ">
<polygon fill="white" stroke="#666666" points="696,-204 549,-204 549,-185 696,-185 696,-204"/>
<text text-anchor="middle" x="622.5" y="-192" font-family="Helvetica,sans-Serif" font-size="10.00">NetworkManager::sendFog</text>
</a>
</g>
</g>
<!-- Node5&#45;&gt;Node6 -->
<g id="edge5_Node000005_Node000006" class="edge">
<title>Node5&#45;&gt;Node6</title>
<g id="a_edge5_Node000005_Node000006"><a xlink:title=" ">
<path fill="none" stroke="#63b8ff" d="M757.16,-194.5C736.35,-194.5 715.18,-194.5 696.01,-194.5"/>
<polygon fill="#63b8ff" stroke="#63b8ff" points="757.33,-198 767.33,-194.5 757.33,-191 757.33,-198"/>
</a>
</g>
</g>
<!-- Node7 -->
<g id="Node000007" class="node">
<title>Node7</title>
<g id="a_Node000007"><a xlink:href="../../d6/d6f/classNetworkManager.html#ac9b0019724cae52ed6be8fb853fa62e5" target="_top" xlink:title=" ">
<polygon fill="white" stroke="#666666" points="461,-204 289,-204 289,-185 461,-185 461,-204"/>
<text text-anchor="middle" x="375" y="-192" font-family="Helvetica,sans-Serif" font-size="10.00">NetworkManager::broadcastFog</text>
</a>
</g>
</g>
<!-- Node6&#45;&gt;Node7 -->
<g id="edge6_Node000006_Node000007" class="edge">
<title>Node6&#45;&gt;Node7</title>
<g id="a_edge6_Node000006_Node000007"><a xlink:title=" ">
<path fill="none" stroke="#63b8ff" d="M538.66,-194.5C513.65,-194.5 486.16,-194.5 461.02,-194.5"/>
<polygon fill="#63b8ff" stroke="#63b8ff" points="538.84,-198 548.84,-194.5 538.84,-191 538.84,-198"/>
</a>
</g>
</g>
<!-- Node9 -->
<g id="Node000009" class="node">
<title>Node9</title>
<g id="a_Node000009"><a xlink:href="../../d6/d6f/classNetworkManager.html#a3684a5a4e823449e8006c323faf54f8a" target="_top" xlink:title=" ">
<polygon fill="white" stroke="#666666" points="713.5,-167 531.5,-167 531.5,-148 713.5,-148 713.5,-167"/>
<text text-anchor="middle" x="622.5" y="-155" font-family="Helvetica,sans-Serif" font-size="10.00">NetworkManager::sendFogUpdate</text>
</a>
</g>
</g>
<!-- Node8&#45;&gt;Node9 -->
<g id="edge8_Node000008_Node000009" class="edge">
<title>Node8&#45;&gt;Node9</title>
<g id="a_edge8_Node000008_Node000009"><a xlink:title=" ">
<path fill="none" stroke="#63b8ff" d="M755.64,-157.5C741.52,-157.5 727.27,-157.5 713.6,-157.5"/>
<polygon fill="#63b8ff" stroke="#63b8ff" points="755.89,-161 765.89,-157.5 755.89,-154 755.89,-161"/>
</a>
</g>
</g>
<!-- Node10 -->
<g id="Node000010" class="node">
<title>Node10</title>
<g id="a_Node000010"><a xlink:href="../../d6/d6f/classNetworkManager.html#a952cf99cf04e63f0a0674f06ab8ec4bb" target="_top" xlink:title=" ">
<polygon fill="white" stroke="#666666" points="478.5,-167 271.5,-167 271.5,-148 478.5,-148 478.5,-167"/>
<text text-anchor="middle" x="375" y="-155" font-family="Helvetica,sans-Serif" font-size="10.00">NetworkManager::broadcastFogUpdate</text>
</a>
</g>
</g>
<!-- Node9&#45;&gt;Node10 -->
<g id="edge9_Node000009_Node000010" class="edge">
<title>Node9&#45;&gt;Node10</title>
<g id="a_edge9_Node000009_Node000010"><a xlink:title=" ">
<path fill="none" stroke="#63b8ff" d="M521.36,-157.5C507.35,-157.5 492.94,-157.5 478.88,-157.5"/>
<polygon fill="#63b8ff" stroke="#63b8ff" points="521.48,-161 531.48,-157.5 521.48,-154 521.48,-161"/>
</a>
</g>
</g>
<!-- Node12 -->
<g id="Node000012" class="node">
<title>Node12</title>
<g id="a_Node000012"><a xlink:href="../../d6/d6f/classNetworkManager.html#a3cd0860da30289b21f2f4bd467d279d3" target="_top" xlink:title=" ">
<polygon fill="white" stroke="#666666" points="722,-130 523,-130 523,-111 722,-111 722,-130"/>
<text text-anchor="middle" x="622.5" y="-118" font-family="Helvetica,sans-Serif" font-size="10.00">NetworkManager::sendMarkerUpdate</text>
</a>
</g>
</g>
<!-- Node11&#45;&gt;Node12 -->
<g id="edge11_Node000011_Node000012" class="edge">
<title>Node11&#45;&gt;Node12</title>
<g id="a_edge11_Node000011_Node000012"><a xlink:title=" ">
<path fill="none" stroke="#63b8ff" d="M747.79,-120.5C739.15,-120.5 730.5,-120.5 722.02,-120.5"/>
<polygon fill="#63b8ff" stroke="#63b8ff" points="747.93,-124 757.93,-120.5 747.93,-117 747.93,-124"/>
</a>
</g>
</g>
<!-- Node13 -->
<g id="Node000013" class="node">
<title>Node13</title>
<g id="a_Node000013"><a xlink:href="../../d6/d6f/classNetworkManager.html#a2f0bd7fd012f4f7c96fcc25b2ac90b0f" target="_top" xlink:title=" ">
<polygon fill="white" stroke="#666666" points="487,-130 263,-130 263,-111 487,-111 487,-130"/>
<text text-anchor="middle" x="375" y="-118" font-family="Helvetica,sans-Serif" font-size="10.00">NetworkManager::broadcastMarkerUpdate</text>
</a>
</g>
</g>
<!-- Node12&#45;&gt;Node13 -->
<g id="edge12_Node000012_Node000013" class="edge">
<title>Node12&#45;&gt;Node13</title>
<g id="a_edge12_Node000012_Node000013"><a xlink:title=" ">
<path fill="none" stroke="#63b8ff" d="M512.47,-120.5C504.04,-120.5 495.52,-120.5 487.07,-120.5"/>
<polygon fill="#63b8ff" stroke="#63b8ff" points="512.71,-124 522.71,-120.5 512.71,-117 512.71,-124"/>
</a>
</g>
</g>
<!-- Node15 -->
<g id="Node000015" class="node">
<title>Node15</title>
<g id="a_Node000015"><a xlink:href="../../d9/dff/classBoardManager.html#a15c3689fe12cdc5f3d0589f9d92a678e" target="_top" xlink:title=" ">
<polygon fill="white" stroke="#666666" points="710.5,-93 534.5,-93 534.5,-74 710.5,-74 710.5,-93"/>
<text text-anchor="middle" x="622.5" y="-81" font-family="Helvetica,sans-Serif" font-size="10.00">BoardManager::saveActiveBoard</text>
</a>
</g>
</g>
<!-- Node14&#45;&gt;Node15 -->
<g id="edge14_Node000014_Node000015" class="edge">
<title>Node14&#45;&gt;Node15</title>
<g id="a_edge14_Node000014_Node000015"><a xlink:title=" ">
<path fill="none" stroke="#63b8ff" d="M779.06,-83.5C756.62,-83.5 732.73,-83.5 710.57,-83.5"/>
<polygon fill="#63b8ff" stroke="#63b8ff" points="779.25,-87 789.25,-83.5 779.25,-80 779.25,-87"/>
</a>
</g>
</g>
<!-- Node16 -->
<g id="Node000016" class="node">
<title>Node16</title>
<g id="a_Node000016"><a xlink:href="../../db/d4b/classSerializer.html#a88ec96a4390db20ecce812518dd2622c" target="_top" xlink:title=" ">
<polygon fill="white" stroke="#666666" points="719,-56 526,-56 526,-37 719,-37 719,-56"/>
<text text-anchor="middle" x="622.5" y="-44" font-family="Helvetica,sans-Serif" font-size="10.00">Serializer::serializeGameTableEntity</text>
</a>
</g>
</g>
<!-- Node14&#45;&gt;Node16 -->
<g id="edge15_Node000014_Node000016" class="edge">
<title>Node14&#45;&gt;Node16</title>
<g id="a_edge15_Node000014_Node000016"><a xlink:title=" ">
<path fill="none" stroke="#63b8ff" d="M797.83,-72.46C762.8,-67.24 721.38,-61.07 687.71,-56.06"/>
<polygon fill="#63b8ff" stroke="#63b8ff" points="797.6,-75.96 808.01,-73.97 798.63,-69.04 797.6,-75.96"/>
</a>
</g>
</g>
<!-- Node17 -->
<g id="Node000017" class="node">
<title>Node17</title>
<g id="a_Node000017"><a xlink:href="../../da/d28/classGameTableManager.html#a172cce8920ef8672b5508fdbca0108fa" target="_top" xlink:title=" ">
<polygon fill="white" stroke="#666666" points="486.5,-56 263.5,-56 263.5,-37 486.5,-37 486.5,-56"/>
<text text-anchor="middle" x="375" y="-44" font-family="Helvetica,sans-Serif" font-size="10.00">GameTableManager::createGameTableFile</text>
</a>
</g>
</g>
<!-- Node16&#45;&gt;Node17 -->
<g id="edge16_Node000016_Node000017" class="edge">
<title>Node16&#45;&gt;Node17</title>
<g id="a_edge16_Node000016_Node000017"><a xlink:title=" ">
<path fill="none" stroke="#63b8ff" d="M515.61,-46.5C506.09,-46.5 496.43,-46.5 486.86,-46.5"/>
<polygon fill="#63b8ff" stroke="#63b8ff" points="515.88,-50 525.88,-46.5 515.88,-43 515.88,-50"/>
</a>
</g>
</g>
<!-- Node18 -->
<g id="Node000018" class="node">
<title>Node18</title>
<g id="a_Node000018"><a xlink:href="../../da/d28/classGameTableManager.html#a42414a5596a4e90a3f321f90e166f9a0" target="_top" xlink:title=" ">
<polygon fill="white" stroke="#666666" points="227,-75 0,-75 0,-56 227,-56 227,-75"/>
<text text-anchor="middle" x="113.5" y="-63" font-family="Helvetica,sans-Serif" font-size="10.00">GameTableManager::hostGameTablePopUp</text>
</a>
</g>
</g>
<!-- Node17&#45;&gt;Node18 -->
<g id="edge17_Node000017_Node000018" class="edge">
<title>Node17&#45;&gt;Node18</title>
<g id="a_edge17_Node000017_Node000018"><a xlink:title=" ">
<path fill="none" stroke="#63b8ff" d="M253.04,-55.36C244.36,-55.99 235.63,-56.63 227,-57.26"/>
<polygon fill="#63b8ff" stroke="#63b8ff" points="253.48,-58.83 263.2,-54.61 252.97,-51.85 253.48,-58.83"/>
</a>
</g>
</g>
<!-- Node19 -->
<g id="Node000019" class="node">
<title>Node19</title>
<g id="a_Node000019"><a xlink:href="../../da/d28/classGameTableManager.html#a9e6225573f97256dd5dfef871a1e32d6" target="_top" xlink:title=" ">
<polygon fill="white" stroke="#666666" points="212.5,-38 14.5,-38 14.5,-19 212.5,-19 212.5,-38"/>
<text text-anchor="middle" x="113.5" y="-26" font-family="Helvetica,sans-Serif" font-size="10.00">GameTableManager::saveGameTable</text>
</a>
</g>
</g>
<!-- Node17&#45;&gt;Node19 -->
<g id="edge18_Node000017_Node000019" class="edge">
<title>Node17&#45;&gt;Node19</title>
<g id="a_edge18_Node000017_Node000019"><a xlink:title=" ">
<path fill="none" stroke="#63b8ff" d="M252.91,-38.1C239.42,-37.16 225.8,-36.22 212.64,-35.31"/>
<polygon fill="#63b8ff" stroke="#63b8ff" points="252.98,-41.61 263.2,-38.81 253.46,-34.63 252.98,-41.61"/>
</a>
</g>
</g>
</g>
</svg>
