<?xml version="1.0" encoding="UTF-8" standalone="no"?>
<!DOCTYPE svg PUBLIC "-//W3C//DTD SVG 1.1//EN"
 "http://www.w3.org/Graphics/SVG/1.1/DTD/svg11.dtd">
<!-- Generated by graphviz version 2.43.0 (0)
 -->
<!-- Title: Serializer::serializeTextureComponent Pages: 1 -->
<!--zoomable 82 -->

<svg id="main" version="1.1" xmlns="http://www.w3.org/2000/svg" xmlns:xlink="http://www.w3.org/1999/xlink" xml:space="preserve" onload="init(evt)">
<style type="text/css"><![CDATA[
.node, .edge {opacity: 0.7;}
.node.selected, .edge.selected {opacity: 1;}
.edge:hover path { stroke: red; }
.edge:hover polygon { stroke: red; fill: red; }
]]></style>

<defs>
  <circle id="rim" cx="0" cy="0" r="7"/>
  <circle id="rim2" cx="0" cy="0" r="3.5"/>
  <g id="zoomPlus">
    <use xlink:href="#rim" fill="#404040"><set attributeName="fill" to="#808080" begin="zoomplus.mouseover" end="zoomplus.mouseout"/></use>
    <path d="M-4,0h8M0,-4v8" fill="none" stroke="white" stroke-width="1.5" pointer-events="none"/>
  </g>
  <g id="zoomMin">
    <use xlink:href="#rim" fill="#404040"><set attributeName="fill" to="#808080" begin="zoomminus.mouseover" end="zoomminus.mouseout"/></use>
    <path d="M-4,0h8" fill="none" stroke="white" stroke-width="1.5" pointer-events="none"/>
  </g>
  <g id="arrowUp" transform="translate(30 24)">
    <use xlink:href="#rim"/>
    <path pointer-events="none" fill="none" stroke="white" stroke-width="1.5" d="M0,-3.0v7 M-2.5,-0.5L0,-3.0L2.5,-0.5"/>
  </g>
  <g id="arrowRight" transform="rotate(90) translate(36 -43)">
    <use xlink:href="#rim"/>
    <path pointer-events="none" fill="none" stroke="white" stroke-width="1.5" d="M0,-3.0v7 M-2.5,-0.5L0,-3.0L2.5,-0.5"/>
  </g>
  <g id="arrowDown" transform="rotate(180) translate(-30 -48)">
    <use xlink:href="#rim"/>
    <path pointer-events="none" fill="none" stroke="white" stroke-width="1.5" d="M0,-3.0v7 M-2.5,-0.5L0,-3.0L2.5,-0.5"/>
  </g>
  <g id="arrowLeft" transform="rotate(270) translate(-36 17)">
    <use xlink:href="#rim"/>
    <path pointer-events="none" fill="none" stroke="white" stroke-width="1.5" d="M0,-3.0v7 M-2.5,-0.5L0,-3.0L2.5,-0.5"/>
  </g>
  <g id="resetDef">
    <use xlink:href="#rim2" fill="#404040"><set attributeName="fill" to="#808080" begin="reset.mouseover" end="reset.mouseout"/></use>
  </g>
</defs>
<script type="application/ecmascript">
var viewWidth = 1169;
var viewHeight = 82;
var sectionId = 'dynsection-67';
</script>
<script type="application/ecmascript" xlink:href="../../svg.min.js"/>
<svg id="graph" class="graph">
<g id="viewport">
<title>Serializer::serializeTextureComponent</title>
<!-- Node1 -->
<g id="Node000001" class="node">
<title>Node1</title>
<g id="a_Node000001"><a xlink:title=" ">
<polygon fill="#999999" stroke="#666666" points="1161,-37 959,-37 959,-18 1161,-18 1161,-37"/>
<text text-anchor="middle" x="1060" y="-25" font-family="Helvetica,sans-Serif" font-size="10.00">Serializer::serializeTextureComponent</text>
</a>
</g>
</g>
<!-- Node2 -->
<g id="Node000002" class="node">
<title>Node2</title>
<g id="a_Node000002"><a xlink:href="../../db/d4b/classSerializer.html#a33c1046417ab5077d907baac823e7194" target="_top" xlink:title=" ">
<polygon fill="white" stroke="#666666" points="920.5,-56 753.5,-56 753.5,-37 920.5,-37 920.5,-56"/>
<text text-anchor="middle" x="837" y="-44" font-family="Helvetica,sans-Serif" font-size="10.00">Serializer::serializeBoardEntity</text>
</a>
</g>
</g>
<!-- Node1&#45;&gt;Node2 -->
<g id="edge1_Node000001_Node000002" class="edge">
<title>Node1&#45;&gt;Node2</title>
<g id="a_edge1_Node000001_Node000002"><a xlink:title=" ">
<path fill="none" stroke="#63b8ff" d="M948.63,-36.99C939.2,-37.8 929.76,-38.61 920.61,-39.4"/>
<polygon fill="#63b8ff" stroke="#63b8ff" points="949.18,-40.45 958.85,-36.11 948.58,-33.48 949.18,-40.45"/>
</a>
</g>
</g>
<!-- Node8 -->
<g id="Node000008" class="node">
<title>Node8</title>
<g id="a_Node000008"><a xlink:href="../../db/d4b/classSerializer.html#a8799545c0b1ea86a5447cbcd1d0a733c" target="_top" xlink:title=" ">
<polygon fill="white" stroke="#666666" points="923,-19 751,-19 751,0 923,0 923,-19"/>
<text text-anchor="middle" x="837" y="-7" font-family="Helvetica,sans-Serif" font-size="10.00">Serializer::serializeMarkerEntity</text>
</a>
</g>
</g>
<!-- Node1&#45;&gt;Node8 -->
<g id="edge7_Node000001_Node000008" class="edge">
<title>Node1&#45;&gt;Node8</title>
<g id="a_edge7_Node000001_Node000008"><a xlink:title=" ">
<path fill="none" stroke="#63b8ff" d="M948.8,-18.52C940.23,-17.83 931.66,-17.13 923.29,-16.45"/>
<polygon fill="#63b8ff" stroke="#63b8ff" points="948.59,-22.02 958.85,-19.34 949.16,-15.04 948.59,-22.02"/>
</a>
</g>
</g>
<!-- Node3 -->
<g id="Node000003" class="node">
<title>Node3</title>
<g id="a_Node000003"><a xlink:href="../../d9/dff/classBoardManager.html#a15c3689fe12cdc5f3d0589f9d92a678e" target="_top" xlink:title=" ">
<polygon fill="white" stroke="#666666" points="706.5,-74 530.5,-74 530.5,-55 706.5,-55 706.5,-74"/>
<text text-anchor="middle" x="618.5" y="-62" font-family="Helvetica,sans-Serif" font-size="10.00">BoardManager::saveActiveBoard</text>
</a>
</g>
</g>
<!-- Node2&#45;&gt;Node3 -->
<g id="edge2_Node000002_Node000003" class="edge">
<title>Node2&#45;&gt;Node3</title>
<g id="a_edge2_Node000002_Node000003"><a xlink:title=" ">
<path fill="none" stroke="#63b8ff" d="M743.11,-54.22C730.97,-55.23 718.58,-56.26 706.55,-57.26"/>
<polygon fill="#63b8ff" stroke="#63b8ff" points="743.55,-57.7 753.22,-53.38 742.97,-50.72 743.55,-57.7"/>
</a>
</g>
</g>
<!-- Node4 -->
<g id="Node000004" class="node">
<title>Node4</title>
<g id="a_Node000004"><a xlink:href="../../db/d4b/classSerializer.html#a88ec96a4390db20ecce812518dd2622c" target="_top" xlink:title=" ">
<polygon fill="white" stroke="#666666" points="715,-37 522,-37 522,-18 715,-18 715,-37"/>
<text text-anchor="middle" x="618.5" y="-25" font-family="Helvetica,sans-Serif" font-size="10.00">Serializer::serializeGameTableEntity</text>
</a>
</g>
</g>
<!-- Node2&#45;&gt;Node4 -->
<g id="edge3_Node000002_Node000004" class="edge">
<title>Node2&#45;&gt;Node4</title>
<g id="a_edge3_Node000002_Node000004"><a xlink:title=" ">
<path fill="none" stroke="#63b8ff" d="M743.24,-38.36C733.98,-37.55 724.56,-36.72 715.26,-35.9"/>
<polygon fill="#63b8ff" stroke="#63b8ff" points="742.96,-41.85 753.22,-39.24 743.57,-34.87 742.96,-41.85"/>
</a>
</g>
</g>
<!-- Node5 -->
<g id="Node000005" class="node">
<title>Node5</title>
<g id="a_Node000005"><a xlink:href="../../da/d28/classGameTableManager.html#a172cce8920ef8672b5508fdbca0108fa" target="_top" xlink:title=" ">
<polygon fill="white" stroke="#666666" points="486,-37 263,-37 263,-18 486,-18 486,-37"/>
<text text-anchor="middle" x="374.5" y="-25" font-family="Helvetica,sans-Serif" font-size="10.00">GameTableManager::createGameTableFile</text>
</a>
</g>
</g>
<!-- Node4&#45;&gt;Node5 -->
<g id="edge4_Node000004_Node000005" class="edge">
<title>Node4&#45;&gt;Node5</title>
<g id="a_edge4_Node000004_Node000005"><a xlink:title=" ">
<path fill="none" stroke="#63b8ff" d="M511.59,-27.5C503.12,-27.5 494.55,-27.5 486.05,-27.5"/>
<polygon fill="#63b8ff" stroke="#63b8ff" points="511.86,-31 521.86,-27.5 511.86,-24 511.86,-31"/>
</a>
</g>
</g>
<!-- Node6 -->
<g id="Node000006" class="node">
<title>Node6</title>
<g id="a_Node000006"><a xlink:href="../../da/d28/classGameTableManager.html#a42414a5596a4e90a3f321f90e166f9a0" target="_top" xlink:title=" ">
<polygon fill="white" stroke="#666666" points="227,-56 0,-56 0,-37 227,-37 227,-56"/>
<text text-anchor="middle" x="113.5" y="-44" font-family="Helvetica,sans-Serif" font-size="10.00">GameTableManager::hostGameTablePopUp</text>
</a>
</g>
</g>
<!-- Node5&#45;&gt;Node6 -->
<g id="edge5_Node000005_Node000006" class="edge">
<title>Node5&#45;&gt;Node6</title>
<g id="a_edge5_Node000005_Node000006"><a xlink:title=" ">
<path fill="none" stroke="#63b8ff" d="M252.89,-36.35C244.33,-36.98 235.71,-37.61 227.2,-38.23"/>
<polygon fill="#63b8ff" stroke="#63b8ff" points="253.19,-39.84 262.91,-35.61 252.68,-32.85 253.19,-39.84"/>
</a>
</g>
</g>
<!-- Node7 -->
<g id="Node000007" class="node">
<title>Node7</title>
<g id="a_Node000007"><a xlink:href="../../da/d28/classGameTableManager.html#a9e6225573f97256dd5dfef871a1e32d6" target="_top" xlink:title=" ">
<polygon fill="white" stroke="#666666" points="212.5,-19 14.5,-19 14.5,0 212.5,0 212.5,-19"/>
<text text-anchor="middle" x="113.5" y="-7" font-family="Helvetica,sans-Serif" font-size="10.00">GameTableManager::saveGameTable</text>
</a>
</g>
</g>
<!-- Node5&#45;&gt;Node7 -->
<g id="edge6_Node000005_Node000007" class="edge">
<title>Node5&#45;&gt;Node7</title>
<g id="a_edge6_Node000005_Node000007"><a xlink:title=" ">
<path fill="none" stroke="#63b8ff" d="M252.73,-19.11C239.37,-18.18 225.89,-17.24 212.85,-16.34"/>
<polygon fill="#63b8ff" stroke="#63b8ff" points="252.69,-22.61 262.91,-19.81 253.18,-15.63 252.69,-22.61"/>
</a>
</g>
</g>
</g>
</svg>

<g id="navigator" transform="translate(0 0)" fill="#404254">
  <rect fill="#f2f5e9" fill-opacity="0.5" stroke="#606060" stroke-width=".5" x="0" y="0" width="60" height="60"/>
  <use id="zoomplus" xlink:href="#zoomPlus" x="17" y="9" onmousedown="handleZoom(evt,'in')"/>
  <use id="zoomminus" xlink:href="#zoomMin" x="42" y="9" onmousedown="handleZoom(evt,'out')"/>
  <use id="reset" xlink:href="#resetDef" x="30" y="36" onmousedown="handleReset()"/>
   <use id="arrowup" xlink:href="#arrowUp" x="0" y="0" onmousedown="handlePan(0,-1)"/>
  <use id="arrowright" xlink:href="#arrowRight" x="0" y="0" onmousedown="handlePan(1,0)"/>
  <use id="arrowdown" xlink:href="#arrowDown" x="0" y="0" onmousedown="handlePan(0,1)"/>
  <use id="arrowleft" xlink:href="#arrowLeft" x="0" y="0" onmousedown="handlePan(-1,0)"/>
</g>
<svg viewBox="0 0 15 15" width="100%" height="30px" preserveAspectRatio="xMaxYMin meet">
 <g id="arrow_out" transform="scale(0.3 0.3)">
  <a xlink:href="classSerializer_a2e08effc9986b4b485dc4e40ffecb7fb_icgraph_org.svg" target="_base">
   <rect id="button" ry="5" rx="5" y="6" x="6" height="38" width="38"
        fill="#f2f5e9" fill-opacity="0.5" stroke="#606060" stroke-width="1.0"/>
   <path id="arrow"
     d="M 11.500037,31.436501 C 11.940474,20.09759 22.043105,11.32322 32.158766,21.979434 L 37.068811,17.246167 C 37.068811,17.246167 37.088388,32 37.088388,32 L 22.160133,31.978069 C 22.160133,31.978069 26.997745,27.140456 26.997745,27.140456 C 18.528582,18.264221 13.291696,25.230495 11.500037,31.436501 z"
     style="fill:#404040;"/>
  </a>
 </g>
</svg>

<style type='text/css'>
<![CDATA[
[data-mouse-over-selected='false'] { opacity: 0.7; }
[data-mouse-over-selected='true']  { opacity: 1.0; }
]]>
</style>
<script type="application/ecmascript"><![CDATA[
document.addEventListener('DOMContentLoaded', (event) => {
  highlightEdges();
  highlightAdjacentNodes();
});
]]></script>
</svg>
