<?xml version="1.0" encoding="UTF-8" standalone="no"?>
<!DOCTYPE svg PUBLIC "-//W3C//DTD SVG 1.1//EN"
 "http://www.w3.org/Graphics/SVG/1.1/DTD/svg11.dtd">
<!-- Generated by graphviz version 14.0.2 (20251019.1705)
 -->
<!-- Title: NotesManager::resolveRef Pages: 1 -->
<svg width="351pt" height="104pt"
 viewBox="0.00 0.00 351.00 104.00" xmlns="http://www.w3.org/2000/svg" xmlns:xlink="http://www.w3.org/1999/xlink">
<g id="graph0" class="graph" transform="scale(1 1) rotate(0) translate(4 100)">
<title>NotesManager::resolveRef</title>
<!-- Node1 -->
<g id="Node000001" class="node">
<title>Node1</title>
<g id="a_Node000001"><a xlink:title=" ">
<polygon fill="#999999" stroke="#666666" points="133,-58 0,-58 0,-38 133,-38 133,-58"/>
<text xml:space="preserve" text-anchor="middle" x="66.5" y="-44.5" font-family="Helvetica,sans-Serif" font-size="10.00">NotesManager::resolveRef</text>
</a>
</g>
</g>
<!-- Node2 -->
<g id="Node000002" class="node">
<title>Node2</title>
<g id="a_Node000002"><a xlink:href="../../de/d23/class_notes_manager.html#a133ea5cb0c5f0c01714c87e38d5868f7" target="_top" xlink:title=" ">
<polygon fill="white" stroke="#666666" points="342.5,-96 169,-96 169,-76 342.5,-76 342.5,-96"/>
<text xml:space="preserve" text-anchor="middle" x="255.75" y="-82.5" font-family="Helvetica,sans-Serif" font-size="10.00">NotesManager::looksLikeShortHex_</text>
</a>
</g>
</g>
<!-- Node1&#45;&gt;Node2 -->
<g id="edge1_Node000001_Node000002" class="edge">
<title>Node1&#45;&gt;Node2</title>
<g id="a_edge1_Node000001_Node000002"><a xlink:title=" ">
<path fill="none" stroke="#63b8ff" d="M119.16,-58.48C141.78,-63.07 168.51,-68.5 192.24,-73.31"/>
<polygon fill="#63b8ff" stroke="#63b8ff" points="191.28,-76.69 201.77,-75.25 192.67,-69.83 191.28,-76.69"/>
</a>
</g>
</g>
<!-- Node3 -->
<g id="Node000003" class="node">
<title>Node3</title>
<g id="a_Node000003"><a xlink:href="../../de/d23/class_notes_manager.html#abe017a5fb56317502be71b06a1c3fc07" target="_top" xlink:title=" ">
<polygon fill="white" stroke="#666666" points="332,-58 179.5,-58 179.5,-38 332,-38 332,-58"/>
<text xml:space="preserve" text-anchor="middle" x="255.75" y="-44.5" font-family="Helvetica,sans-Serif" font-size="10.00">NotesManager::looksLikeUuid_</text>
</a>
</g>
</g>
<!-- Node1&#45;&gt;Node3 -->
<g id="edge2_Node000001_Node000003" class="edge">
<title>Node1&#45;&gt;Node3</title>
<g id="a_edge2_Node000001_Node000003"><a xlink:title=" ">
<path fill="none" stroke="#63b8ff" d="M133.25,-48C144.51,-48 156.37,-48 168.07,-48"/>
<polygon fill="#63b8ff" stroke="#63b8ff" points="167.71,-51.5 177.71,-48 167.71,-44.5 167.71,-51.5"/>
</a>
</g>
</g>
<!-- Node4 -->
<g id="Node000004" class="node">
<title>Node4</title>
<g id="a_Node000004"><a xlink:href="../../de/d23/class_notes_manager.html#a13854ae6acc53849d7863cf28d747e6e" target="_top" xlink:title=" ">
<polygon fill="white" stroke="#666666" points="318.5,-20 193,-20 193,0 318.5,0 318.5,-20"/>
<text xml:space="preserve" text-anchor="middle" x="255.75" y="-6.5" font-family="Helvetica,sans-Serif" font-size="10.00">NotesManager::toLower_</text>
</a>
</g>
</g>
<!-- Node1&#45;&gt;Node4 -->
<g id="edge3_Node000001_Node000004" class="edge">
<title>Node1&#45;&gt;Node4</title>
<g id="a_edge3_Node000001_Node000004"><a xlink:title=" ">
<path fill="none" stroke="#63b8ff" d="M119.16,-37.52C141.78,-32.93 168.51,-27.5 192.24,-22.69"/>
<polygon fill="#63b8ff" stroke="#63b8ff" points="192.67,-26.17 201.77,-20.75 191.28,-19.31 192.67,-26.17"/>
</a>
</g>
</g>
</g>
</svg>
