<?xml version="1.0" encoding="UTF-8" standalone="no"?>
<!DOCTYPE svg PUBLIC "-//W3C//DTD SVG 1.1//EN"
 "http://www.w3.org/Graphics/SVG/1.1/DTD/svg11.dtd">
<!-- Generated by graphviz version 14.0.2 (20251019.1705)
 -->
<!-- Title: NotesManager::saveNoteAs Pages: 1 -->
<svg width="532pt" height="104pt"
 viewBox="0.00 0.00 532.00 104.00" xmlns="http://www.w3.org/2000/svg" xmlns:xlink="http://www.w3.org/1999/xlink">
<g id="graph0" class="graph" transform="scale(1 1) rotate(0) translate(4 100)">
<title>NotesManager::saveNoteAs</title>
<!-- Node1 -->
<g id="Node000001" class="node">
<title>Node1</title>
<g id="a_Node000001"><a xlink:title=" ">
<polygon fill="#999999" stroke="#666666" points="139.75,-58 0,-58 0,-38 139.75,-38 139.75,-58"/>
<text xml:space="preserve" text-anchor="middle" x="69.88" y="-44.5" font-family="Helvetica,sans-Serif" font-size="10.00">NotesManager::saveNoteAs</text>
</a>
</g>
</g>
<!-- Node2 -->
<g id="Node000002" class="node">
<title>Node2</title>
<g id="a_Node000002"><a xlink:href="../../de/d23/class_notes_manager.html#aa8325acde2b7361287a1f77510bb537b" target="_top" xlink:title=" ">
<polygon fill="white" stroke="#666666" points="323.75,-96 195.25,-96 195.25,-76 323.75,-76 323.75,-96"/>
<text xml:space="preserve" text-anchor="middle" x="259.5" y="-82.5" font-family="Helvetica,sans-Serif" font-size="10.00">NotesManager::toastError</text>
</a>
</g>
</g>
<!-- Node1&#45;&gt;Node2 -->
<g id="edge1_Node000001_Node000002" class="edge">
<title>Node1&#45;&gt;Node2</title>
<g id="a_edge1_Node000001_Node000002"><a xlink:title=" ">
<path fill="none" stroke="#63b8ff" d="M122.64,-58.48C145.3,-63.07 172.09,-68.5 195.86,-73.31"/>
<polygon fill="#63b8ff" stroke="#63b8ff" points="194.92,-76.69 205.42,-75.25 196.31,-69.83 194.92,-76.69"/>
</a>
</g>
</g>
<!-- Node3 -->
<g id="Node000003" class="node">
<title>Node3</title>
<g id="a_Node000003"><a xlink:href="../../de/d23/class_notes_manager.html#a16aa5064191ddce447cb059609f2501e" target="_top" xlink:title=" ">
<polygon fill="white" stroke="#666666" points="324.88,-58 194.12,-58 194.12,-38 324.88,-38 324.88,-58"/>
<text xml:space="preserve" text-anchor="middle" x="259.5" y="-44.5" font-family="Helvetica,sans-Serif" font-size="10.00">NotesManager::toastGood</text>
</a>
</g>
</g>
<!-- Node1&#45;&gt;Node3 -->
<g id="edge2_Node000001_Node000003" class="edge">
<title>Node1&#45;&gt;Node3</title>
<g id="a_edge2_Node000001_Node000003"><a xlink:title=" ">
<path fill="none" stroke="#63b8ff" d="M140.21,-48C154.04,-48 168.65,-48 182.69,-48"/>
<polygon fill="#63b8ff" stroke="#63b8ff" points="182.29,-51.5 192.29,-48 182.29,-44.5 182.29,-51.5"/>
</a>
</g>
</g>
<!-- Node4 -->
<g id="Node000004" class="node">
<title>Node4</title>
<g id="a_Node000004"><a xlink:href="../../de/d23/class_notes_manager.html#af75002653d61b6835f1eebc29fd328e1" target="_top" xlink:title=" ">
<polygon fill="white" stroke="#666666" points="343.25,-20 175.75,-20 175.75,0 343.25,0 343.25,-20"/>
<text xml:space="preserve" text-anchor="middle" x="259.5" y="-6.5" font-family="Helvetica,sans-Serif" font-size="10.00">NotesManager::writeMarkdownFile</text>
</a>
</g>
</g>
<!-- Node1&#45;&gt;Node4 -->
<g id="edge3_Node000001_Node000004" class="edge">
<title>Node1&#45;&gt;Node4</title>
<g id="a_edge3_Node000001_Node000004"><a xlink:title=" ">
<path fill="none" stroke="#63b8ff" d="M122.64,-37.52C145.3,-32.93 172.09,-27.5 195.86,-22.69"/>
<polygon fill="#63b8ff" stroke="#63b8ff" points="196.31,-26.17 205.42,-20.75 194.92,-19.31 196.31,-26.17"/>
</a>
</g>
</g>
<!-- Node5 -->
<g id="Node000005" class="node">
<title>Node5</title>
<g id="a_Node000005"><a xlink:href="../../de/d23/class_notes_manager.html#adc59a0ee5716f09b1ed47e0c0fe5f4ec" target="_top" xlink:title=" ">
<polygon fill="white" stroke="#666666" points="523.5,-20 379.25,-20 379.25,0 523.5,0 523.5,-20"/>
<text xml:space="preserve" text-anchor="middle" x="451.38" y="-6.5" font-family="Helvetica,sans-Serif" font-size="10.00">NotesManager::toEpochMillis</text>
</a>
</g>
</g>
<!-- Node4&#45;&gt;Node5 -->
<g id="edge4_Node000004_Node000005" class="edge">
<title>Node4&#45;&gt;Node5</title>
<g id="a_edge4_Node000004_Node000005"><a xlink:title=" ">
<path fill="none" stroke="#63b8ff" d="M343.51,-10C351.42,-10 359.44,-10 367.35,-10"/>
<polygon fill="#63b8ff" stroke="#63b8ff" points="367.32,-13.5 377.32,-10 367.32,-6.5 367.32,-13.5"/>
</a>
</g>
</g>
</g>
</svg>
