<?xml version="1.0" encoding="UTF-8" standalone="no"?>
<!DOCTYPE svg PUBLIC "-//W3C//DTD SVG 1.1//EN"
 "http://www.w3.org/Graphics/SVG/1.1/DTD/svg11.dtd">
<!-- Generated by graphviz version 14.0.2 (20251019.1705)
 -->
<!-- Title: NotesManager::loadAllFromDisk Pages: 1 -->
<svg width="734pt" height="91pt"
 viewBox="0.00 0.00 734.00 91.00" xmlns="http://www.w3.org/2000/svg" xmlns:xlink="http://www.w3.org/1999/xlink">
<g id="graph0" class="graph" transform="scale(1 1) rotate(0) translate(4 87)">
<title>NotesManager::loadAllFromDisk</title>
<!-- Node1 -->
<g id="Node000001" class="node">
<title>Node1</title>
<g id="a_Node000001"><a xlink:title=" ">
<polygon fill="#999999" stroke="#666666" points="157.75,-42 0,-42 0,-22 157.75,-22 157.75,-42"/>
<text xml:space="preserve" text-anchor="middle" x="78.88" y="-28.5" font-family="Helvetica,sans-Serif" font-size="10.00">NotesManager::loadAllFromDisk</text>
</a>
</g>
</g>
<!-- Node2 -->
<g id="Node000002" class="node">
<title>Node2</title>
<g id="a_Node000002"><a xlink:href="../../de/d23/class_notes_manager.html#ab3b787865dc553f59e3e5d8c6cd44402" target="_top" xlink:title=" ">
<polygon fill="white" stroke="#666666" points="327.5,-70 193.75,-70 193.75,-38 327.5,-38 327.5,-70"/>
<text xml:space="preserve" text-anchor="start" x="201.75" y="-56.5" font-family="Helvetica,sans-Serif" font-size="10.00">NotesManager::scanFolder</text>
<text xml:space="preserve" text-anchor="middle" x="260.62" y="-44.5" font-family="Helvetica,sans-Serif" font-size="10.00">ForMd_</text>
</a>
</g>
</g>
<!-- Node1&#45;&gt;Node2 -->
<g id="edge1_Node000001_Node000002" class="edge">
<title>Node1&#45;&gt;Node2</title>
<g id="a_edge1_Node000001_Node000002"><a xlink:title=" ">
<path fill="none" stroke="#63b8ff" d="M158.19,-41.59C166.08,-42.55 174.08,-43.53 181.95,-44.49"/>
<polygon fill="#63b8ff" stroke="#63b8ff" points="181.52,-47.97 191.87,-45.71 182.37,-41.02 181.52,-47.97"/>
</a>
</g>
</g>
<!-- Node6 -->
<g id="Node000006" class="node">
<title>Node6</title>
<g id="a_Node000006"><a xlink:href="../../de/d23/class_notes_manager.html#ac80d118ff9b4d60588936093c67766bf" target="_top" xlink:title=" ">
<polygon fill="white" stroke="#666666" points="322.62,-20 198.62,-20 198.62,0 322.62,0 322.62,-20"/>
<text xml:space="preserve" text-anchor="middle" x="260.62" y="-6.5" font-family="Helvetica,sans-Serif" font-size="10.00">NotesManager::toastInfo</text>
</a>
</g>
</g>
<!-- Node1&#45;&gt;Node6 -->
<g id="edge5_Node000001_Node000006" class="edge">
<title>Node1&#45;&gt;Node6</title>
<g id="a_edge5_Node000001_Node000006"><a xlink:title=" ">
<path fill="none" stroke="#63b8ff" d="M158.19,-22.41C167.74,-21.25 177.47,-20.05 186.94,-18.9"/>
<polygon fill="#63b8ff" stroke="#63b8ff" points="187.32,-22.38 196.82,-17.69 186.47,-15.43 187.32,-22.38"/>
</a>
</g>
</g>
<!-- Node3 -->
<g id="Node000003" class="node">
<title>Node3</title>
<g id="a_Node000003"><a xlink:href="../../de/d23/class_notes_manager.html#a037463bcba85b07e00958d45ba6dbd60" target="_top" xlink:title=" ">
<polygon fill="white" stroke="#666666" points="534,-64 363.5,-64 363.5,-44 534,-44 534,-64"/>
<text xml:space="preserve" text-anchor="middle" x="448.75" y="-50.5" font-family="Helvetica,sans-Serif" font-size="10.00">NotesManager::parseMarkdownFile</text>
</a>
</g>
</g>
<!-- Node2&#45;&gt;Node3 -->
<g id="edge2_Node000002_Node000003" class="edge">
<title>Node2&#45;&gt;Node3</title>
<g id="a_edge2_Node000002_Node000003"><a xlink:title=" ">
<path fill="none" stroke="#63b8ff" d="M327.77,-54C335.58,-54 343.67,-54 351.79,-54"/>
<polygon fill="#63b8ff" stroke="#63b8ff" points="351.75,-57.5 361.75,-54 351.75,-50.5 351.75,-57.5"/>
</a>
</g>
</g>
<!-- Node4 -->
<g id="Node000004" class="node">
<title>Node4</title>
<g id="a_Node000004"><a xlink:href="../../de/d23/class_notes_manager.html#ad0d8672d88e2eef61fb90dfce9bc18d9" target="_top" xlink:title=" ">
<polygon fill="white" stroke="#666666" points="725.5,-83 570,-83 570,-63 725.5,-63 725.5,-83"/>
<text xml:space="preserve" text-anchor="middle" x="647.75" y="-69.5" font-family="Helvetica,sans-Serif" font-size="10.00">NotesManager::fromEpochMillis</text>
</a>
</g>
</g>
<!-- Node3&#45;&gt;Node4 -->
<g id="edge3_Node000003_Node000004" class="edge">
<title>Node3&#45;&gt;Node4</title>
<g id="a_edge3_Node000003_Node000004"><a xlink:title=" ">
<path fill="none" stroke="#63b8ff" d="M534.44,-62.17C542.38,-62.93 550.44,-63.71 558.41,-64.48"/>
<polygon fill="#63b8ff" stroke="#63b8ff" points="557.8,-67.94 568.09,-65.41 558.47,-60.97 557.8,-67.94"/>
</a>
</g>
</g>
<!-- Node5 -->
<g id="Node000005" class="node">
<title>Node5</title>
<g id="a_Node000005"><a xlink:href="../../de/d23/class_notes_manager.html#aafac8c0a547a63f95440d0ab7bdbe4ef" target="_top" xlink:title=" ">
<polygon fill="white" stroke="#666666" points="722.12,-45 573.38,-45 573.38,-25 722.12,-25 722.12,-45"/>
<text xml:space="preserve" text-anchor="middle" x="647.75" y="-31.5" font-family="Helvetica,sans-Serif" font-size="10.00">NotesManager::generateUUID</text>
</a>
</g>
</g>
<!-- Node3&#45;&gt;Node5 -->
<g id="edge4_Node000003_Node000005" class="edge">
<title>Node3&#45;&gt;Node5</title>
<g id="a_edge4_Node000003_Node000005"><a xlink:title=" ">
<path fill="none" stroke="#63b8ff" d="M534.44,-45.83C543.46,-44.96 552.63,-44.08 561.66,-43.21"/>
<polygon fill="#63b8ff" stroke="#63b8ff" points="561.86,-46.7 571.48,-42.26 561.19,-39.74 561.86,-46.7"/>
</a>
</g>
</g>
</g>
</svg>
