<?xml version="1.0" encoding="UTF-8" standalone="no"?>
<!DOCTYPE svg PUBLIC "-//W3C//DTD SVG 1.1//EN"
 "http://www.w3.org/Graphics/SVG/1.1/DTD/svg11.dtd">
<!-- Generated by graphviz version 14.0.2 (20251019.1705)
 -->
<!-- Title: NotesManager::parseMarkdownFile Pages: 1 -->
<svg width="542pt" height="104pt"
 viewBox="0.00 0.00 542.00 104.00" xmlns="http://www.w3.org/2000/svg" xmlns:xlink="http://www.w3.org/1999/xlink">
<g id="graph0" class="graph" transform="scale(1 1) rotate(0) translate(4 100)">
<title>NotesManager::parseMarkdownFile</title>
<!-- Node1 -->
<g id="Node000001" class="node">
<title>Node1</title>
<g id="a_Node000001"><a xlink:title=" ">
<polygon fill="#999999" stroke="#666666" points="534,-58 363.5,-58 363.5,-38 534,-38 534,-58"/>
<text xml:space="preserve" text-anchor="middle" x="448.75" y="-44.5" font-family="Helvetica,sans-Serif" font-size="10.00">NotesManager::parseMarkdownFile</text>
</a>
</g>
</g>
<!-- Node2 -->
<g id="Node000002" class="node">
<title>Node2</title>
<g id="a_Node000002"><a xlink:href="../../de/d23/class_notes_manager.html#ab3b787865dc553f59e3e5d8c6cd44402" target="_top" xlink:title=" ">
<polygon fill="white" stroke="#666666" points="327.5,-64 193.75,-64 193.75,-32 327.5,-32 327.5,-64"/>
<text xml:space="preserve" text-anchor="start" x="201.75" y="-50.5" font-family="Helvetica,sans-Serif" font-size="10.00">NotesManager::scanFolder</text>
<text xml:space="preserve" text-anchor="middle" x="260.62" y="-38.5" font-family="Helvetica,sans-Serif" font-size="10.00">ForMd_</text>
</a>
</g>
</g>
<!-- Node1&#45;&gt;Node2 -->
<g id="edge1_Node000001_Node000002" class="edge">
<title>Node1&#45;&gt;Node2</title>
<g id="a_edge1_Node000001_Node000002"><a xlink:title=" ">
<path fill="none" stroke="#63b8ff" d="M351.75,-48C343.69,-48 335.67,-48 327.91,-48"/>
<polygon fill="#63b8ff" stroke="#63b8ff" points="351.62,-51.5 361.62,-48 351.62,-44.5 351.62,-51.5"/>
</a>
</g>
</g>
<!-- Node3 -->
<g id="Node000003" class="node">
<title>Node3</title>
<g id="a_Node000003"><a xlink:href="../../de/d23/class_notes_manager.html#ad27f8593eb58d8f778818bf4921574f3" target="_top" xlink:title=" ">
<polygon fill="white" stroke="#666666" points="157.75,-96 0,-96 0,-76 157.75,-76 157.75,-96"/>
<text xml:space="preserve" text-anchor="middle" x="78.88" y="-82.5" font-family="Helvetica,sans-Serif" font-size="10.00">NotesManager::loadAllFromDisk</text>
</a>
</g>
</g>
<!-- Node2&#45;&gt;Node3 -->
<g id="edge2_Node000002_Node000003" class="edge">
<title>Node2&#45;&gt;Node3</title>
<g id="a_edge2_Node000002_Node000003"><a xlink:title=" ">
<path fill="none" stroke="#63b8ff" d="M182.37,-64.33C164.39,-68.13 145.71,-72.08 129.31,-75.55"/>
<polygon fill="#63b8ff" stroke="#63b8ff" points="182.92,-67.79 191.98,-62.3 181.47,-60.95 182.92,-67.79"/>
</a>
</g>
</g>
<!-- Node4 -->
<g id="Node000004" class="node">
<title>Node4</title>
<g id="a_Node000004"><a xlink:href="../../de/d23/class_notes_manager.html#aa1f004250dedc1e84ec8926c0283a450" target="_top" xlink:title=" ">
<polygon fill="white" stroke="#666666" points="155.88,-58 1.88,-58 1.88,-38 155.88,-38 155.88,-58"/>
<text xml:space="preserve" text-anchor="middle" x="78.88" y="-44.5" font-family="Helvetica,sans-Serif" font-size="10.00">NotesManager::loadFromGlobal</text>
</a>
</g>
</g>
<!-- Node2&#45;&gt;Node4 -->
<g id="edge3_Node000002_Node000004" class="edge">
<title>Node2&#45;&gt;Node4</title>
<g id="a_edge3_Node000002_Node000004"><a xlink:title=" ">
<path fill="none" stroke="#63b8ff" d="M181.95,-48C173.42,-48 164.75,-48 156.23,-48"/>
<polygon fill="#63b8ff" stroke="#63b8ff" points="181.94,-51.5 191.94,-48 181.94,-44.5 181.94,-51.5"/>
</a>
</g>
</g>
<!-- Node5 -->
<g id="Node000005" class="node">
<title>Node5</title>
<g id="a_Node000005"><a xlink:href="../../de/d23/class_notes_manager.html#af4a6dd97ecee332425ca422fb84bfc1f" target="_top" xlink:title=" ">
<polygon fill="white" stroke="#666666" points="153.62,-20 4.12,-20 4.12,0 153.62,0 153.62,-20"/>
<text xml:space="preserve" text-anchor="middle" x="78.88" y="-6.5" font-family="Helvetica,sans-Serif" font-size="10.00">NotesManager::loadFromTable</text>
</a>
</g>
</g>
<!-- Node2&#45;&gt;Node5 -->
<g id="edge4_Node000002_Node000005" class="edge">
<title>Node2&#45;&gt;Node5</title>
<g id="a_edge4_Node000002_Node000005"><a xlink:title=" ">
<path fill="none" stroke="#63b8ff" d="M182.37,-31.67C164.39,-27.87 145.71,-23.92 129.31,-20.45"/>
<polygon fill="#63b8ff" stroke="#63b8ff" points="181.47,-35.05 191.98,-33.7 182.92,-28.21 181.47,-35.05"/>
</a>
</g>
</g>
</g>
</svg>
