<?xml version="1.0" encoding="UTF-8" standalone="no"?>
<!DOCTYPE svg PUBLIC "-//W3C//DTD SVG 1.1//EN"
 "http://www.w3.org/Graphics/SVG/1.1/DTD/svg11.dtd">
<!-- Generated by graphviz version 2.43.0 (0)
 -->
<!-- Title: BoardManager::handleFogCreation Pages: 1 -->
<svg width="650pt" height="64pt"
 viewBox="0.00 0.00 650.00 64.00" xmlns="http://www.w3.org/2000/svg" xmlns:xlink="http://www.w3.org/1999/xlink">
<g id="graph0" class="graph" transform="scale(1 1) rotate(0) translate(4 60)">
<title>BoardManager::handleFogCreation</title>
<!-- Node1 -->
<g id="Node000001" class="node">
<title>Node1</title>
<g id="a_Node000001"><a xlink:title=" ">
<polygon fill="#999999" stroke="#666666" points="185,-37 0,-37 0,-18 185,-18 185,-37"/>
<text text-anchor="middle" x="92.5" y="-25" font-family="Helvetica,sans-Serif" font-size="10.00">BoardManager::handleFogCreation</text>
</a>
</g>
</g>
<!-- Node2 -->
<g id="Node000002" class="node">
<title>Node2</title>
<g id="a_Node000002"><a xlink:href="../../d9/dff/classBoardManager.html#acdce04083030c8be718c47f246f1cf0f" target="_top" xlink:title=" ">
<polygon fill="white" stroke="#666666" points="409,-56 237,-56 237,-37 409,-37 409,-56"/>
<text text-anchor="middle" x="323" y="-44" font-family="Helvetica,sans-Serif" font-size="10.00">BoardManager::createFogOfWar</text>
</a>
</g>
</g>
<!-- Node1&#45;&gt;Node2 -->
<g id="edge1_Node000001_Node000002" class="edge">
<title>Node1&#45;&gt;Node2</title>
<g id="a_edge1_Node000001_Node000002"><a xlink:title=" ">
<path fill="none" stroke="#63b8ff" d="M185.12,-35.12C198.68,-36.25 212.68,-37.41 226.31,-38.54"/>
<polygon fill="#63b8ff" stroke="#63b8ff" points="226.4,-42.06 236.65,-39.4 226.98,-35.09 226.4,-42.06"/>
</a>
</g>
</g>
<!-- Node4 -->
<g id="Node000004" class="node">
<title>Node4</title>
<g id="a_Node000004"><a xlink:href="../../d9/dff/classBoardManager.html#a7d2d476b95461eead67e8d151f0d376a" target="_top" xlink:title=" ">
<polygon fill="white" stroke="#666666" points="425,-19 221,-19 221,0 425,0 425,-19"/>
<text text-anchor="middle" x="323" y="-7" font-family="Helvetica,sans-Serif" font-size="10.00">BoardManager::getMouseStartPosition</text>
</a>
</g>
</g>
<!-- Node1&#45;&gt;Node4 -->
<g id="edge3_Node000001_Node000004" class="edge">
<title>Node1&#45;&gt;Node4</title>
<g id="a_edge3_Node000001_Node000004"><a xlink:title=" ">
<path fill="none" stroke="#63b8ff" d="M185.12,-20.28C193.6,-19.61 202.25,-18.93 210.88,-18.25"/>
<polygon fill="#63b8ff" stroke="#63b8ff" points="211.29,-21.73 220.98,-17.46 210.74,-14.75 211.29,-21.73"/>
</a>
</g>
</g>
<!-- Node3 -->
<g id="Node000003" class="node">
<title>Node3</title>
<g id="a_Node000003"><a xlink:href="../../d9/dff/classBoardManager.html#a2f084d03176076e9260e06df52e474fe" target="_top" xlink:title=" ">
<polygon fill="white" stroke="#666666" points="642,-56 461,-56 461,-37 642,-37 642,-56"/>
<text text-anchor="middle" x="551.5" y="-44" font-family="Helvetica,sans-Serif" font-size="10.00">BoardManager::generateUniqueId</text>
</a>
</g>
</g>
<!-- Node2&#45;&gt;Node3 -->
<g id="edge2_Node000002_Node000003" class="edge">
<title>Node2&#45;&gt;Node3</title>
<g id="a_edge2_Node000002_Node000003"><a xlink:title=" ">
<path fill="none" stroke="#63b8ff" d="M409.31,-46.5C422.83,-46.5 436.92,-46.5 450.73,-46.5"/>
<polygon fill="#63b8ff" stroke="#63b8ff" points="450.74,-50 460.74,-46.5 450.74,-43 450.74,-50"/>
</a>
</g>
</g>
</g>
</svg>
