<?xml version="1.0" encoding="UTF-8" standalone="no"?>
<!DOCTYPE svg PUBLIC "-//W3C//DTD SVG 1.1//EN"
 "http://www.w3.org/Graphics/SVG/1.1/DTD/svg11.dtd">
<!-- Generated by graphviz version 2.43.0 (0)
 -->
<!-- Title: BoardManager::renderCameraWindow Pages: 1 -->
<svg width="555pt" height="101pt"
 viewBox="0.00 0.00 555.00 101.00" xmlns="http://www.w3.org/2000/svg" xmlns:xlink="http://www.w3.org/1999/xlink">
<g id="graph0" class="graph" transform="scale(1 1) rotate(0) translate(4 97)">
<title>BoardManager::renderCameraWindow</title>
<!-- Node1 -->
<g id="Node000001" class="node">
<title>Node1</title>
<g id="a_Node000001"><a xlink:title=" ">
<polygon fill="#999999" stroke="#666666" points="203,-56 0,-56 0,-37 203,-37 203,-56"/>
<text text-anchor="middle" x="101.5" y="-44" font-family="Helvetica,sans-Serif" font-size="10.00">BoardManager::renderCameraWindow</text>
</a>
</g>
</g>
<!-- Node2 -->
<g id="Node000002" class="node">
<title>Node2</title>
<g id="a_Node000002"><a xlink:href="../../d1/df0/classCamera.html#a811613828473f845ff5ab6b38a3492a9" target="_top" xlink:title=" ">
<polygon fill="white" stroke="#666666" points="370,-93 265,-93 265,-74 370,-74 370,-93"/>
<text text-anchor="middle" x="317.5" y="-81" font-family="Helvetica,sans-Serif" font-size="10.00">Camera::getZoom</text>
</a>
</g>
</g>
<!-- Node1&#45;&gt;Node2 -->
<g id="edge1_Node000001_Node000002" class="edge">
<title>Node1&#45;&gt;Node2</title>
<g id="a_edge1_Node000001_Node000002"><a xlink:title=" ">
<path fill="none" stroke="#63b8ff" d="M157.61,-56.03C187.32,-61.16 224.07,-67.52 254.74,-72.82"/>
<polygon fill="#63b8ff" stroke="#63b8ff" points="254.44,-76.32 264.89,-74.58 255.63,-69.42 254.44,-76.32"/>
</a>
</g>
</g>
<!-- Node3 -->
<g id="Node000003" class="node">
<title>Node3</title>
<g id="a_Node000003"><a xlink:href="../../d9/dff/classBoardManager.html#aa8cc85933ca8f36804277702fa568079" target="_top" xlink:title=" ">
<polygon fill="white" stroke="#666666" points="396,-56 239,-56 239,-37 396,-37 396,-56"/>
<text text-anchor="middle" x="317.5" y="-44" font-family="Helvetica,sans-Serif" font-size="10.00">BoardManager::resetCamera</text>
</a>
</g>
</g>
<!-- Node1&#45;&gt;Node3 -->
<g id="edge2_Node000001_Node000003" class="edge">
<title>Node1&#45;&gt;Node3</title>
<g id="a_edge2_Node000001_Node000003"><a xlink:title=" ">
<path fill="none" stroke="#63b8ff" d="M203.23,-46.5C211.71,-46.5 220.24,-46.5 228.61,-46.5"/>
<polygon fill="#63b8ff" stroke="#63b8ff" points="228.73,-50 238.73,-46.5 228.73,-43 228.73,-50"/>
</a>
</g>
</g>
<!-- Node5 -->
<g id="Node000005" class="node">
<title>Node5</title>
<g id="a_Node000005"><a xlink:href="../../d1/df0/classCamera.html#a2c2387705de7f2189756fe55b4e4ca2c" target="_top" xlink:title=" ">
<polygon fill="white" stroke="#666666" points="541.5,-19 437.5,-19 437.5,0 541.5,0 541.5,-19"/>
<text text-anchor="middle" x="489.5" y="-7" font-family="Helvetica,sans-Serif" font-size="10.00">Camera::setZoom</text>
</a>
</g>
</g>
<!-- Node1&#45;&gt;Node5 -->
<g id="edge5_Node000001_Node000005" class="edge">
<title>Node1&#45;&gt;Node5</title>
<g id="a_edge5_Node000001_Node000005"><a xlink:title=" ">
<path fill="none" stroke="#63b8ff" d="M164.57,-36.98C187.87,-33.63 214.61,-30.07 239,-27.5 303.04,-20.74 376.6,-15.77 427.17,-12.79"/>
<polygon fill="#63b8ff" stroke="#63b8ff" points="427.5,-16.27 437.28,-12.2 427.1,-9.29 427.5,-16.27"/>
</a>
</g>
</g>
<!-- Node4 -->
<g id="Node000004" class="node">
<title>Node4</title>
<g id="a_Node000004"><a xlink:href="../../d1/df0/classCamera.html#a68011392c392f16827b18793f5d8272a" target="_top" xlink:title=" ">
<polygon fill="white" stroke="#666666" points="547,-56 432,-56 432,-37 547,-37 547,-56"/>
<text text-anchor="middle" x="489.5" y="-44" font-family="Helvetica,sans-Serif" font-size="10.00">Camera::setPosition</text>
</a>
</g>
</g>
<!-- Node3&#45;&gt;Node4 -->
<g id="edge3_Node000003_Node000004" class="edge">
<title>Node3&#45;&gt;Node4</title>
<g id="a_edge3_Node000003_Node000004"><a xlink:title=" ">
<path fill="none" stroke="#63b8ff" d="M396.04,-46.5C404.63,-46.5 413.32,-46.5 421.76,-46.5"/>
<polygon fill="#63b8ff" stroke="#63b8ff" points="421.91,-50 431.91,-46.5 421.91,-43 421.91,-50"/>
</a>
</g>
</g>
<!-- Node3&#45;&gt;Node5 -->
<g id="edge4_Node000003_Node000005" class="edge">
<title>Node3&#45;&gt;Node5</title>
<g id="a_edge4_Node000003_Node000005"><a xlink:title=" ">
<path fill="none" stroke="#63b8ff" d="M362.28,-36.97C384.3,-32.18 411.2,-26.32 434.5,-21.25"/>
<polygon fill="#63b8ff" stroke="#63b8ff" points="435.55,-24.61 444.57,-19.06 434.06,-17.77 435.55,-24.61"/>
</a>
</g>
</g>
</g>
</svg>
