<?xml version="1.0" encoding="UTF-8" standalone="no"?>
<!DOCTYPE svg PUBLIC "-//W3C//DTD SVG 1.1//EN"
 "http://www.w3.org/Graphics/SVG/1.1/DTD/svg11.dtd">
<!-- Generated by graphviz version 2.43.0 (0)
 -->
<!-- Title: BoardManager::resnapAllMarkersToNearest Pages: 1 -->
<svg width="653pt" height="27pt"
 viewBox="0.00 0.00 653.00 27.00" xmlns="http://www.w3.org/2000/svg" xmlns:xlink="http://www.w3.org/1999/xlink">
<g id="graph0" class="graph" transform="scale(1 1) rotate(0) translate(4 23)">
<title>BoardManager::resnapAllMarkersToNearest</title>
<!-- Node1 -->
<g id="Node000001" class="node">
<title>Node1</title>
<g id="a_Node000001"><a xlink:title=" ">
<polygon fill="#999999" stroke="#666666" points="645,-19 418,-19 418,0 645,0 645,-19"/>
<text text-anchor="middle" x="531.5" y="-7" font-family="Helvetica,sans-Serif" font-size="10.00">BoardManager::resnapAllMarkersToNearest</text>
</a>
</g>
</g>
<!-- Node2 -->
<g id="Node000002" class="node">
<title>Node2</title>
<g id="a_Node000002"><a xlink:href="../../d9/dff/classBoardManager.html#aa3991452f739c572a483f72672382fa9" target="_top" xlink:title=" ">
<polygon fill="white" stroke="#666666" points="382,-19 197,-19 197,0 382,0 382,-19"/>
<text text-anchor="middle" x="289.5" y="-7" font-family="Helvetica,sans-Serif" font-size="10.00">BoardManager::renderGridWindow</text>
</a>
</g>
</g>
<!-- Node1&#45;&gt;Node2 -->
<g id="edge1_Node000001_Node000002" class="edge">
<title>Node1&#45;&gt;Node2</title>
<g id="a_edge1_Node000001_Node000002"><a xlink:title=" ">
<path fill="none" stroke="#63b8ff" d="M407.8,-9.5C399.2,-9.5 390.63,-9.5 382.25,-9.5"/>
<polygon fill="#63b8ff" stroke="#63b8ff" points="407.88,-13 417.88,-9.5 407.88,-6 407.88,-13"/>
</a>
</g>
</g>
<!-- Node3 -->
<g id="Node000003" class="node">
<title>Node3</title>
<g id="a_Node000003"><a xlink:href="../../d9/dff/classBoardManager.html#a2aad7a42521772a965571ce188decae8" target="_top" xlink:title=" ">
<polygon fill="white" stroke="#666666" points="161,-19 0,-19 0,0 161,0 161,-19"/>
<text text-anchor="middle" x="80.5" y="-7" font-family="Helvetica,sans-Serif" font-size="10.00">BoardManager::renderToolbar</text>
</a>
</g>
</g>
<!-- Node2&#45;&gt;Node3 -->
<g id="edge2_Node000002_Node000003" class="edge">
<title>Node2&#45;&gt;Node3</title>
<g id="a_edge2_Node000002_Node000003"><a xlink:title=" ">
<path fill="none" stroke="#63b8ff" d="M186.73,-9.5C178.13,-9.5 169.52,-9.5 161.12,-9.5"/>
<polygon fill="#63b8ff" stroke="#63b8ff" points="186.8,-13 196.8,-9.5 186.8,-6 186.8,-13"/>
</a>
</g>
</g>
</g>
</svg>
