<?xml version="1.0" encoding="UTF-8" standalone="no"?>
<!DOCTYPE svg PUBLIC "-//W3C//DTD SVG 1.1//EN"
 "http://www.w3.org/Graphics/SVG/1.1/DTD/svg11.dtd">
<!-- Generated by graphviz version 2.43.0 (0)
 -->
<!-- Title: BoardManager::renderToolbar Pages: 1 -->
<svg width="823pt" height="140pt"
 viewBox="0.00 0.00 823.00 140.00" xmlns="http://www.w3.org/2000/svg" xmlns:xlink="http://www.w3.org/1999/xlink">
<g id="graph0" class="graph" transform="scale(1 1) rotate(0) translate(4 136)">
<title>BoardManager::renderToolbar</title>
<!-- Node1 -->
<g id="Node000001" class="node">
<title>Node1</title>
<g id="a_Node000001"><a xlink:title=" ">
<polygon fill="#999999" stroke="#666666" points="161,-76 0,-76 0,-57 161,-57 161,-76"/>
<text text-anchor="middle" x="80.5" y="-64" font-family="Helvetica,sans-Serif" font-size="10.00">BoardManager::renderToolbar</text>
</a>
</g>
</g>
<!-- Node2 -->
<g id="Node000002" class="node">
<title>Node2</title>
<g id="a_Node000002"><a xlink:href="../../d9/dff/namespaceUiTypingGuard.html#ae821948ccc636af7863b13c235bb8fa2" target="_top" xlink:title=" ">
<polygon fill="white" stroke="#666666" points="365.5,-113 231.5,-113 231.5,-94 365.5,-94 365.5,-113"/>
<text text-anchor="middle" x="298.5" y="-101" font-family="Helvetica,sans-Serif" font-size="10.00">UiTypingGuard::IsTyping</text>
</a>
</g>
</g>
<!-- Node1&#45;&gt;Node2 -->
<g id="edge1_Node000001_Node000002" class="edge">
<title>Node1&#45;&gt;Node2</title>
<g id="a_edge1_Node000001_Node000002"><a xlink:title=" ">
<path fill="none" stroke="#63b8ff" d="M137.13,-76.03C165.99,-80.97 201.43,-87.04 231.66,-92.22"/>
<polygon fill="#63b8ff" stroke="#63b8ff" points="231.24,-95.7 241.69,-93.94 232.42,-88.8 231.24,-95.7"/>
</a>
</g>
</g>
<!-- Node3 -->
<g id="Node000003" class="node">
<title>Node3</title>
<g id="a_Node000003"><a xlink:href="../../d9/dff/classBoardManager.html#aa78dbda1a719e20ebd433c876451bf59" target="_top" xlink:title=" ">
<polygon fill="white" stroke="#666666" points="400,-76 197,-76 197,-57 400,-57 400,-76"/>
<text text-anchor="middle" x="298.5" y="-64" font-family="Helvetica,sans-Serif" font-size="10.00">BoardManager::renderCameraWindow</text>
</a>
</g>
</g>
<!-- Node1&#45;&gt;Node3 -->
<g id="edge2_Node000001_Node000003" class="edge">
<title>Node1&#45;&gt;Node3</title>
<g id="a_edge2_Node000001_Node000003"><a xlink:title=" ">
<path fill="none" stroke="#63b8ff" d="M161.01,-66.5C169.4,-66.5 178.03,-66.5 186.69,-66.5"/>
<polygon fill="#63b8ff" stroke="#63b8ff" points="186.85,-70 196.85,-66.5 186.85,-63 186.85,-70"/>
</a>
</g>
</g>
<!-- Node8 -->
<g id="Node000008" class="node">
<title>Node8</title>
<g id="a_Node000008"><a xlink:href="../../d9/dff/classBoardManager.html#aa3991452f739c572a483f72672382fa9" target="_top" xlink:title=" ">
<polygon fill="white" stroke="#666666" points="391,-39 206,-39 206,-20 391,-20 391,-39"/>
<text text-anchor="middle" x="298.5" y="-27" font-family="Helvetica,sans-Serif" font-size="10.00">BoardManager::renderGridWindow</text>
</a>
</g>
</g>
<!-- Node1&#45;&gt;Node8 -->
<g id="edge8_Node000001_Node000008" class="edge">
<title>Node1&#45;&gt;Node8</title>
<g id="a_edge8_Node000001_Node000008"><a xlink:title=" ">
<path fill="none" stroke="#63b8ff" d="M137.13,-56.97C165.99,-52.03 201.43,-45.96 231.66,-40.78"/>
<polygon fill="#63b8ff" stroke="#63b8ff" points="232.42,-44.2 241.69,-39.06 231.24,-37.3 232.42,-44.2"/>
</a>
</g>
</g>
<!-- Node4 -->
<g id="Node000004" class="node">
<title>Node4</title>
<g id="a_Node000004"><a xlink:href="../../d1/df0/classCamera.html#a811613828473f845ff5ab6b38a3492a9" target="_top" xlink:title=" ">
<polygon fill="white" stroke="#666666" points="602,-132 497,-132 497,-113 602,-113 602,-132"/>
<text text-anchor="middle" x="549.5" y="-120" font-family="Helvetica,sans-Serif" font-size="10.00">Camera::getZoom</text>
</a>
</g>
</g>
<!-- Node3&#45;&gt;Node4 -->
<g id="edge3_Node000003_Node000004" class="edge">
<title>Node3&#45;&gt;Node4</title>
<g id="a_edge3_Node000003_Node000004"><a xlink:title=" ">
<path fill="none" stroke="#63b8ff" d="M365.39,-76.03C377.08,-78.55 389.02,-81.66 400,-85.5 417.08,-91.47 418.84,-98.77 436,-104.5 452.08,-109.87 470.01,-113.66 486.74,-116.33"/>
<polygon fill="#63b8ff" stroke="#63b8ff" points="486.56,-119.84 496.97,-117.85 487.59,-112.92 486.56,-119.84"/>
</a>
</g>
</g>
<!-- Node5 -->
<g id="Node000005" class="node">
<title>Node5</title>
<g id="a_Node000005"><a xlink:href="../../d9/dff/classBoardManager.html#aa8cc85933ca8f36804277702fa568079" target="_top" xlink:title=" ">
<polygon fill="white" stroke="#666666" points="628,-95 471,-95 471,-76 628,-76 628,-95"/>
<text text-anchor="middle" x="549.5" y="-83" font-family="Helvetica,sans-Serif" font-size="10.00">BoardManager::resetCamera</text>
</a>
</g>
</g>
<!-- Node3&#45;&gt;Node5 -->
<g id="edge4_Node000003_Node000005" class="edge">
<title>Node3&#45;&gt;Node5</title>
<g id="a_edge4_Node000003_Node000005"><a xlink:title=" ">
<path fill="none" stroke="#63b8ff" d="M400.06,-74.17C420.17,-75.71 441.16,-77.31 460.79,-78.81"/>
<polygon fill="#63b8ff" stroke="#63b8ff" points="460.69,-82.31 470.93,-79.58 461.22,-75.33 460.69,-82.31"/>
</a>
</g>
</g>
<!-- Node7 -->
<g id="Node000007" class="node">
<title>Node7</title>
<g id="a_Node000007"><a xlink:href="../../d1/df0/classCamera.html#a2c2387705de7f2189756fe55b4e4ca2c" target="_top" xlink:title=" ">
<polygon fill="white" stroke="#666666" points="809,-57 705,-57 705,-38 809,-38 809,-57"/>
<text text-anchor="middle" x="757" y="-45" font-family="Helvetica,sans-Serif" font-size="10.00">Camera::setZoom</text>
</a>
</g>
</g>
<!-- Node3&#45;&gt;Node7 -->
<g id="edge7_Node000003_Node000007" class="edge">
<title>Node3&#45;&gt;Node7</title>
<g id="a_edge7_Node000003_Node000007"><a xlink:title=" ">
<path fill="none" stroke="#63b8ff" d="M400.25,-62.31C490.27,-58.56 619.27,-53.19 694.66,-50.05"/>
<polygon fill="#63b8ff" stroke="#63b8ff" points="695.09,-53.54 704.93,-49.63 694.8,-46.54 695.09,-53.54"/>
</a>
</g>
</g>
<!-- Node6 -->
<g id="Node000006" class="node">
<title>Node6</title>
<g id="a_Node000006"><a xlink:href="../../d1/df0/classCamera.html#a68011392c392f16827b18793f5d8272a" target="_top" xlink:title=" ">
<polygon fill="white" stroke="#666666" points="814.5,-95 699.5,-95 699.5,-76 814.5,-76 814.5,-95"/>
<text text-anchor="middle" x="757" y="-83" font-family="Helvetica,sans-Serif" font-size="10.00">Camera::setPosition</text>
</a>
</g>
</g>
<!-- Node5&#45;&gt;Node6 -->
<g id="edge5_Node000005_Node000006" class="edge">
<title>Node5&#45;&gt;Node6</title>
<g id="a_edge5_Node000005_Node000006"><a xlink:title=" ">
<path fill="none" stroke="#63b8ff" d="M628.19,-85.5C648.32,-85.5 669.82,-85.5 689.33,-85.5"/>
<polygon fill="#63b8ff" stroke="#63b8ff" points="689.34,-89 699.34,-85.5 689.34,-82 689.34,-89"/>
</a>
</g>
</g>
<!-- Node5&#45;&gt;Node7 -->
<g id="edge6_Node000005_Node000007" class="edge">
<title>Node5&#45;&gt;Node7</title>
<g id="a_edge6_Node000005_Node000007"><a xlink:title=" ">
<path fill="none" stroke="#63b8ff" d="M602.09,-75.96C630.17,-70.77 665.09,-64.31 694.56,-58.86"/>
<polygon fill="#63b8ff" stroke="#63b8ff" points="695.55,-62.24 704.74,-56.98 694.27,-55.35 695.55,-62.24"/>
</a>
</g>
</g>
<!-- Node9 -->
<g id="Node000009" class="node">
<title>Node9</title>
<g id="a_Node000009"><a xlink:href="../../d9/dff/classBoardManager.html#ac5a6f3a919fb3fdb4fef2511117069aa" target="_top" xlink:title=" ">
<polygon fill="white" stroke="#666666" points="663,-19 436,-19 436,0 663,0 663,-19"/>
<text text-anchor="middle" x="549.5" y="-7" font-family="Helvetica,sans-Serif" font-size="10.00">BoardManager::resnapAllMarkersToNearest</text>
</a>
</g>
</g>
<!-- Node8&#45;&gt;Node9 -->
<g id="edge9_Node000008_Node000009" class="edge">
<title>Node8&#45;&gt;Node9</title>
<g id="a_edge9_Node000008_Node000009"><a xlink:title=" ">
<path fill="none" stroke="#63b8ff" d="M391.16,-22.14C402.42,-21.23 414.07,-20.3 425.69,-19.36"/>
<polygon fill="#63b8ff" stroke="#63b8ff" points="426.21,-22.83 435.9,-18.54 425.65,-15.86 426.21,-22.83"/>
</a>
</g>
</g>
<!-- Node10 -->
<g id="Node000010" class="node">
<title>Node10</title>
<g id="a_Node000010"><a xlink:href="../../d0/ddd/BoardManager_8cpp.html#af72f7137106c13fa8b82ca16d08d5570" target="_top" xlink:title=" ">
<polygon fill="white" stroke="#666666" points="815,-19 699,-19 699,0 815,0 815,-19"/>
<text text-anchor="middle" x="757" y="-7" font-family="Helvetica,sans-Serif" font-size="10.00">snapToSquareCenter</text>
</a>
</g>
</g>
<!-- Node9&#45;&gt;Node10 -->
<g id="edge10_Node000009_Node000010" class="edge">
<title>Node9&#45;&gt;Node10</title>
<g id="a_edge10_Node000009_Node000010"><a xlink:title=" ">
<path fill="none" stroke="#63b8ff" d="M663.17,-9.5C671.85,-9.5 680.43,-9.5 688.66,-9.5"/>
<polygon fill="#63b8ff" stroke="#63b8ff" points="688.89,-13 698.89,-9.5 688.89,-6 688.89,-13"/>
</a>
</g>
</g>
</g>
</svg>
