<?xml version="1.0" encoding="UTF-8" standalone="no"?>
<!DOCTYPE svg PUBLIC "-//W3C//DTD SVG 1.1//EN"
 "http://www.w3.org/Graphics/SVG/1.1/DTD/svg11.dtd">
<!-- Generated by graphviz version 2.43.0 (0)
 -->
<!-- Title: UiTypingGuard::TrackThisInput Pages: 1 -->
<!--zoomable 476 -->

<svg id="main" version="1.1" xmlns="http://www.w3.org/2000/svg" xmlns:xlink="http://www.w3.org/1999/xlink" xml:space="preserve" onload="init(evt)">
<style type="text/css"><![CDATA[
.node, .edge {opacity: 0.7;}
.node.selected, .edge.selected {opacity: 1;}
.edge:hover path { stroke: red; }
.edge:hover polygon { stroke: red; fill: red; }
]]></style>

<defs>
  <circle id="rim" cx="0" cy="0" r="7"/>
  <circle id="rim2" cx="0" cy="0" r="3.5"/>
  <g id="zoomPlus">
    <use xlink:href="#rim" fill="#404040"><set attributeName="fill" to="#808080" begin="zoomplus.mouseover" end="zoomplus.mouseout"/></use>
    <path d="M-4,0h8M0,-4v8" fill="none" stroke="white" stroke-width="1.5" pointer-events="none"/>
  </g>
  <g id="zoomMin">
    <use xlink:href="#rim" fill="#404040"><set attributeName="fill" to="#808080" begin="zoomminus.mouseover" end="zoomminus.mouseout"/></use>
    <path d="M-4,0h8" fill="none" stroke="white" stroke-width="1.5" pointer-events="none"/>
  </g>
  <g id="arrowUp" transform="translate(30 24)">
    <use xlink:href="#rim"/>
    <path pointer-events="none" fill="none" stroke="white" stroke-width="1.5" d="M0,-3.0v7 M-2.5,-0.5L0,-3.0L2.5,-0.5"/>
  </g>
  <g id="arrowRight" transform="rotate(90) translate(36 -43)">
    <use xlink:href="#rim"/>
    <path pointer-events="none" fill="none" stroke="white" stroke-width="1.5" d="M0,-3.0v7 M-2.5,-0.5L0,-3.0L2.5,-0.5"/>
  </g>
  <g id="arrowDown" transform="rotate(180) translate(-30 -48)">
    <use xlink:href="#rim"/>
    <path pointer-events="none" fill="none" stroke="white" stroke-width="1.5" d="M0,-3.0v7 M-2.5,-0.5L0,-3.0L2.5,-0.5"/>
  </g>
  <g id="arrowLeft" transform="rotate(270) translate(-36 17)">
    <use xlink:href="#rim"/>
    <path pointer-events="none" fill="none" stroke="white" stroke-width="1.5" d="M0,-3.0v7 M-2.5,-0.5L0,-3.0L2.5,-0.5"/>
  </g>
  <g id="resetDef">
    <use xlink:href="#rim2" fill="#404040"><set attributeName="fill" to="#808080" begin="reset.mouseover" end="reset.mouseout"/></use>
  </g>
</defs>
<script type="application/ecmascript">
var viewWidth = 839;
var viewHeight = 476;
var sectionId = 'dynsection-1';
</script>
<script type="application/ecmascript" xlink:href="../../svg.min.js"/>
<svg id="graph" class="graph">
<g id="viewport">
<title>UiTypingGuard::TrackThisInput</title>
<!-- Node1 -->
<g id="Node000001" class="node">
<title>Node1</title>
<g id="a_Node000001"><a xlink:title=" ">
<polygon fill="#999999" stroke="#666666" points="831,-244 667,-244 667,-225 831,-225 831,-244"/>
<text text-anchor="middle" x="749" y="-232" font-family="Helvetica,sans-Serif" font-size="10.00">UiTypingGuard::TrackThisInput</text>
</a>
</g>
</g>
<!-- Node2 -->
<g id="Node000002" class="node">
<title>Node2</title>
<g id="a_Node000002"><a xlink:href="../../dc/de9/classNoteEditorUI.html#a10ecfb29a9a81d6a332cba389555f17c" target="_top" xlink:title=" ">
<polygon fill="white" stroke="#666666" points="577,-468 416,-468 416,-449 577,-449 577,-468"/>
<text text-anchor="middle" x="496.5" y="-456" font-family="Helvetica,sans-Serif" font-size="10.00">NoteEditorUI::actCreateNote_</text>
</a>
</g>
</g>
<!-- Node1&#45;&gt;Node2 -->
<g id="edge1_Node000001_Node000002" class="edge">
<title>Node1&#45;&gt;Node2</title>
<g id="a_edge1_Node000001_Node000002"><a xlink:title=" ">
<path fill="none" stroke="#63b8ff" d="M743.14,-254.23C731.66,-296.33 698.58,-394.85 631,-440.5 615.21,-451.17 595.94,-456.87 577.01,-459.68"/>
<polygon fill="#63b8ff" stroke="#63b8ff" points="746.58,-254.93 745.72,-244.37 739.81,-253.17 746.58,-254.93"/>
</a>
</g>
</g>
<!-- Node3 -->
<g id="Node000003" class="node">
<title>Node3</title>
<g id="a_Node000003"><a xlink:href="../../da/d28/classGameTableManager.html#ae43cb665680b9b313894c37ebe851fef" target="_top" xlink:title=" ">
<polygon fill="white" stroke="#666666" points="624,-431 369,-431 369,-412 624,-412 624,-431"/>
<text text-anchor="middle" x="496.5" y="-419" font-family="Helvetica,sans-Serif" font-size="10.00">GameTableManager::connectToGameTablePopUp</text>
</a>
</g>
</g>
<!-- Node1&#45;&gt;Node3 -->
<g id="edge2_Node000001_Node000003" class="edge">
<title>Node1&#45;&gt;Node3</title>
<g id="a_edge2_Node000001_Node000003"><a xlink:title=" ">
<path fill="none" stroke="#63b8ff" d="M740.89,-253.66C726.39,-289.77 689.71,-367.53 631,-403.5 625.62,-406.8 619.88,-409.6 613.93,-411.98"/>
<polygon fill="#63b8ff" stroke="#63b8ff" points="744.18,-254.85 744.54,-244.26 737.66,-252.32 744.18,-254.85"/>
</a>
</g>
</g>
<!-- Node4 -->
<g id="Node000004" class="node">
<title>Node4</title>
<g id="a_Node000004"><a xlink:href="../../da/d28/classGameTableManager.html#aa3bc286b8b3877754c7898d36ad9f9b1" target="_top" xlink:title=" ">
<polygon fill="white" stroke="#666666" points="602,-394 391,-394 391,-375 602,-375 602,-394"/>
<text text-anchor="middle" x="496.5" y="-382" font-family="Helvetica,sans-Serif" font-size="10.00">GameTableManager::createBoardPopUp</text>
</a>
</g>
</g>
<!-- Node1&#45;&gt;Node4 -->
<g id="edge3_Node000001_Node000004" class="edge">
<title>Node1&#45;&gt;Node4</title>
<g id="a_edge3_Node000001_Node000004"><a xlink:title=" ">
<path fill="none" stroke="#63b8ff" d="M737.55,-253.14C719.86,-282.73 681.01,-339.84 631,-366.5 622.02,-371.29 612.24,-374.97 602.19,-377.78"/>
<polygon fill="#63b8ff" stroke="#63b8ff" points="740.72,-254.65 742.72,-244.24 734.67,-251.13 740.72,-254.65"/>
</a>
</g>
</g>
<!-- Node5 -->
<g id="Node000005" class="node">
<title>Node5</title>
<g id="a_Node000005"><a xlink:href="../../da/d28/classGameTableManager.html#a42414a5596a4e90a3f321f90e166f9a0" target="_top" xlink:title=" ">
<polygon fill="white" stroke="#666666" points="610,-357 383,-357 383,-338 610,-338 610,-357"/>
<text text-anchor="middle" x="496.5" y="-345" font-family="Helvetica,sans-Serif" font-size="10.00">GameTableManager::hostGameTablePopUp</text>
</a>
</g>
</g>
<!-- Node1&#45;&gt;Node5 -->
<g id="edge4_Node000001_Node000005" class="edge">
<title>Node1&#45;&gt;Node5</title>
<g id="a_edge4_Node000001_Node000005"><a xlink:title=" ">
<path fill="none" stroke="#63b8ff" d="M731.46,-251.25C710.2,-271.72 671.19,-305.84 631,-323.5 616.56,-329.85 600.53,-334.52 584.73,-337.95"/>
<polygon fill="#63b8ff" stroke="#63b8ff" points="734.03,-253.63 738.71,-244.13 729.13,-248.64 734.03,-253.63"/>
</a>
</g>
</g>
<!-- Node6 -->
<g id="Node000006" class="node">
<title>Node6</title>
<g id="a_Node000006"><a xlink:href="../../dc/de9/classNoteEditorUI.html#a3a9be72ef4837839ff716f6afd456611" target="_top" xlink:title=" ">
<polygon fill="white" stroke="#666666" points="117.5,-131 1.5,-131 1.5,-112 117.5,-112 117.5,-131"/>
<text text-anchor="middle" x="59.5" y="-119" font-family="Helvetica,sans-Serif" font-size="10.00">NoteEditorUI::render</text>
</a>
</g>
</g>
<!-- Node1&#45;&gt;Node6 -->
<g id="edge5_Node000001_Node000006" class="edge">
<title>Node1&#45;&gt;Node6</title>
<g id="a_edge5_Node000001_Node000006"><a xlink:title=" ">
<path fill="none" stroke="#63b8ff" d="M724.11,-219.85C701.15,-206.57 665.01,-187.7 631,-178.5 426.09,-123.09 365.33,-168.07 155,-139.5 138.78,-137.3 121.13,-134.14 105.52,-131.09"/>
<polygon fill="#63b8ff" stroke="#63b8ff" points="722.42,-222.92 732.81,-224.99 725.98,-216.89 722.42,-222.92"/>
</a>
</g>
</g>
<!-- Node7 -->
<g id="Node000007" class="node">
<title>Node7</title>
<g id="a_Node000007"><a xlink:href="../../d7/dc6/classChatManager.html#a39192cb28eae0d798fa923a30302afa0" target="_top" xlink:title=" ">
<polygon fill="white" stroke="#666666" points="602,-207 391,-207 391,-188 602,-188 602,-207"/>
<text text-anchor="middle" x="496.5" y="-195" font-family="Helvetica,sans-Serif" font-size="10.00">ChatManager::renderCreateGroupPopup</text>
</a>
</g>
</g>
<!-- Node1&#45;&gt;Node7 -->
<g id="edge6_Node000001_Node000007" class="edge">
<title>Node1&#45;&gt;Node7</title>
<g id="a_edge6_Node000001_Node000007"><a xlink:title=" ">
<path fill="none" stroke="#63b8ff" d="M681.17,-223.33C664.78,-220.68 647.27,-217.92 631,-215.5 611.45,-212.6 590.26,-209.65 570.65,-207"/>
<polygon fill="#63b8ff" stroke="#63b8ff" points="680.78,-226.81 691.22,-224.96 681.91,-219.9 680.78,-226.81"/>
</a>
</g>
</g>
<!-- Node10 -->
<g id="Node000010" class="node">
<title>Node10</title>
<g id="a_Node000010"><a xlink:href="../../d7/dc6/classChatManager.html#a5b19f0632a911a519401b1b40e70db7c" target="_top" xlink:title=" ">
<polygon fill="white" stroke="#666666" points="582,-281 411,-281 411,-262 582,-262 582,-281"/>
<text text-anchor="middle" x="496.5" y="-269" font-family="Helvetica,sans-Serif" font-size="10.00">ChatManager::renderDicePopup</text>
</a>
</g>
</g>
<!-- Node1&#45;&gt;Node10 -->
<g id="edge9_Node000001_Node000010" class="edge">
<title>Node1&#45;&gt;Node10</title>
<g id="a_edge9_Node000001_Node000010"><a xlink:title=" ">
<path fill="none" stroke="#63b8ff" d="M676.69,-245.6C661.61,-247.91 645.78,-250.31 631,-252.5 609.69,-255.65 586.46,-259 565.44,-261.98"/>
<polygon fill="#63b8ff" stroke="#63b8ff" points="677.64,-249 686.99,-244.02 676.58,-242.08 677.64,-249"/>
</a>
</g>
</g>
<!-- Node11 -->
<g id="Node000011" class="node">
<title>Node11</title>
<g id="a_Node000011"><a xlink:href="../../d7/dc6/classChatManager.html#a02d518f4157ae45e4bf43f7501994ecd" target="_top" xlink:title=" ">
<polygon fill="white" stroke="#666666" points="326,-281 155,-281 155,-262 326,-262 326,-281"/>
<text text-anchor="middle" x="240.5" y="-269" font-family="Helvetica,sans-Serif" font-size="10.00">ChatManager::renderRightPanel</text>
</a>
</g>
</g>
<!-- Node1&#45;&gt;Node11 -->
<g id="edge19_Node000001_Node000011" class="edge">
<title>Node1&#45;&gt;Node11</title>
<g id="a_edge19_Node000001_Node000011"><a xlink:title=" ">
<path fill="none" stroke="#63b8ff" d="M725.03,-249.32C702.23,-263.09 665.74,-282.61 631,-290.5 507.54,-318.52 356.62,-295.47 284.23,-281"/>
<polygon fill="#63b8ff" stroke="#63b8ff" points="726.97,-252.24 733.64,-244 723.29,-246.28 726.97,-252.24"/>
</a>
</g>
</g>
<!-- Node12 -->
<g id="Node000012" class="node">
<title>Node12</title>
<g id="a_Node000012"><a xlink:href="../../dc/de9/classNoteEditorUI.html#a51f8b15563300d06e71d3c40f6f9446b" target="_top" xlink:title=" ">
<polygon fill="white" stroke="#666666" points="324,-131 157,-131 157,-112 324,-112 324,-131"/>
<text text-anchor="middle" x="240.5" y="-119" font-family="Helvetica,sans-Serif" font-size="10.00">NoteEditorUI::renderDirectory_</text>
</a>
</g>
</g>
<!-- Node1&#45;&gt;Node12 -->
<g id="edge12_Node000001_Node000012" class="edge">
<title>Node1&#45;&gt;Node12</title>
<g id="a_edge12_Node000001_Node000012"><a xlink:title=" ">
<path fill="none" stroke="#63b8ff" d="M732.42,-217.64C711.63,-196.45 672.58,-160.96 631,-145.5 530.35,-108.08 405.02,-107.8 324.16,-113.01"/>
<polygon fill="#63b8ff" stroke="#63b8ff" points="730.01,-220.2 739.46,-225 735.07,-215.35 730.01,-220.2"/>
</a>
</g>
</g>
<!-- Node13 -->
<g id="Node000013" class="node">
<title>Node13</title>
<g id="a_Node000013"><a xlink:href="../../d7/dc6/classChatManager.html#a2a7f8794c7ba31096eba399192bba538" target="_top" xlink:title=" ">
<polygon fill="white" stroke="#666666" points="595,-244 398,-244 398,-225 595,-225 595,-244"/>
<text text-anchor="middle" x="496.5" y="-232" font-family="Helvetica,sans-Serif" font-size="10.00">ChatManager::renderEditGroupPopup</text>
</a>
</g>
</g>
<!-- Node1&#45;&gt;Node13 -->
<g id="edge14_Node000001_Node000013" class="edge">
<title>Node1&#45;&gt;Node13</title>
<g id="a_edge14_Node000001_Node000013"><a xlink:title=" ">
<path fill="none" stroke="#63b8ff" d="M656.63,-234.5C636.59,-234.5 615.3,-234.5 595.02,-234.5"/>
<polygon fill="#63b8ff" stroke="#63b8ff" points="656.67,-238 666.67,-234.5 656.67,-231 656.67,-238"/>
</a>
</g>
</g>
<!-- Node14 -->
<g id="Node000014" class="node">
<title>Node14</title>
<g id="a_Node000014"><a xlink:href="../../dc/de9/classNoteEditorUI.html#a41e928a368befa223a486e3417e26382" target="_top" xlink:title=" ">
<polygon fill="white" stroke="#666666" points="575.5,-93 417.5,-93 417.5,-74 575.5,-74 575.5,-93"/>
<text text-anchor="middle" x="496.5" y="-81" font-family="Helvetica,sans-Serif" font-size="10.00">NoteEditorUI::renderOneTab_</text>
</a>
</g>
</g>
<!-- Node1&#45;&gt;Node14 -->
<g id="edge16_Node000001_Node000014" class="edge">
<title>Node1&#45;&gt;Node14</title>
<g id="a_edge16_Node000001_Node000014"><a xlink:title=" ">
<path fill="none" stroke="#63b8ff" d="M736.97,-216.4C718.72,-188.15 679.4,-134.07 631,-107.5 614.18,-98.26 594.53,-92.48 575.57,-88.88"/>
<polygon fill="#63b8ff" stroke="#63b8ff" points="734.04,-218.31 742.33,-224.91 739.96,-214.58 734.04,-218.31"/>
</a>
</g>
</g>
<!-- Node16 -->
<g id="Node000016" class="node">
<title>Node16</title>
<g id="a_Node000016"><a xlink:href="../../da/d28/classGameTableManager.html#aba1bab954299e451be5100a33efb3641" target="_top" xlink:title=" ">
<polygon fill="white" stroke="#666666" points="631,-56 362,-56 362,-37 631,-37 631,-56"/>
<text text-anchor="middle" x="496.5" y="-44" font-family="Helvetica,sans-Serif" font-size="10.00">GameTableManager::renderUsernameChangePopup</text>
</a>
</g>
</g>
<!-- Node1&#45;&gt;Node16 -->
<g id="edge20_Node000001_Node000016" class="edge">
<title>Node1&#45;&gt;Node16</title>
<g id="a_edge20_Node000001_Node000016"><a xlink:title=" ">
<path fill="none" stroke="#63b8ff" d="M740.92,-215.23C726.48,-178.9 689.9,-100.69 631,-64.5 625.62,-61.19 619.89,-58.39 613.94,-56.01"/>
<polygon fill="#63b8ff" stroke="#63b8ff" points="737.7,-216.6 744.55,-224.68 744.24,-214.09 737.7,-216.6"/>
</a>
</g>
</g>
<!-- Node17 -->
<g id="Node000017" class="node">
<title>Node17</title>
<g id="a_Node000017"><a xlink:href="../../da/d28/classGameTableManager.html#a1a00d061ae40e8417540bdaf736363ec" target="_top" xlink:title=" ">
<polygon fill="white" stroke="#666666" points="623.5,-19 369.5,-19 369.5,0 623.5,0 623.5,-19"/>
<text text-anchor="middle" x="496.5" y="-7" font-family="Helvetica,sans-Serif" font-size="10.00">GameTableManager::UI_RenderPortAndPassword</text>
</a>
</g>
</g>
<!-- Node1&#45;&gt;Node17 -->
<g id="edge21_Node000001_Node000017" class="edge">
<title>Node1&#45;&gt;Node17</title>
<g id="a_edge21_Node000001_Node000017"><a xlink:title=" ">
<path fill="none" stroke="#63b8ff" d="M743.18,-214.68C731.75,-172.37 698.78,-73.39 631,-27.5 626.16,-24.22 620.99,-21.41 615.6,-19.01"/>
<polygon fill="#63b8ff" stroke="#63b8ff" points="739.84,-215.77 745.73,-224.58 746.62,-214.02 739.84,-215.77"/>
</a>
</g>
</g>
<!-- Node8 -->
<g id="Node000008" class="node">
<title>Node8</title>
<g id="a_Node000008"><a xlink:href="../../d7/dc6/classChatManager.html#afb35f5cfd70af565c23555f8652cacf3" target="_top" xlink:title=" ">
<polygon fill="white" stroke="#666666" points="322.5,-244 158.5,-244 158.5,-225 322.5,-225 322.5,-244"/>
<text text-anchor="middle" x="240.5" y="-232" font-family="Helvetica,sans-Serif" font-size="10.00">ChatManager::renderLeftPanel</text>
</a>
</g>
</g>
<!-- Node7&#45;&gt;Node8 -->
<g id="edge7_Node000007_Node000008" class="edge">
<title>Node7&#45;&gt;Node8</title>
<g id="a_edge7_Node000007_Node000008"><a xlink:title=" ">
<path fill="none" stroke="#63b8ff" d="M412.42,-208.41C395.71,-210.69 378.29,-213.12 362,-215.5 341.88,-218.44 319.91,-221.85 300.3,-224.96"/>
<polygon fill="#63b8ff" stroke="#63b8ff" points="413.27,-211.83 422.71,-207.01 412.33,-204.89 413.27,-211.83"/>
</a>
</g>
</g>
<!-- Node9 -->
<g id="Node000009" class="node">
<title>Node9</title>
<g id="a_Node000009"><a xlink:href="../../d7/dc6/classChatManager.html#ae22b90f106a6b559be6533fda6c54fa5" target="_top" xlink:title=" ">
<polygon fill="white" stroke="#666666" points="119,-262 0,-262 0,-243 119,-243 119,-262"/>
<text text-anchor="middle" x="59.5" y="-250" font-family="Helvetica,sans-Serif" font-size="10.00">ChatManager::render</text>
</a>
</g>
</g>
<!-- Node8&#45;&gt;Node9 -->
<g id="edge8_Node000008_Node000009" class="edge">
<title>Node8&#45;&gt;Node9</title>
<g id="a_edge8_Node000008_Node000009"><a xlink:title=" ">
<path fill="none" stroke="#63b8ff" d="M148.12,-243.69C138.27,-244.68 128.44,-245.67 119.13,-246.6"/>
<polygon fill="#63b8ff" stroke="#63b8ff" points="148.78,-247.14 158.38,-242.66 148.08,-240.18 148.78,-247.14"/>
</a>
</g>
</g>
<!-- Node10&#45;&gt;Node11 -->
<g id="edge10_Node000010_Node000011" class="edge">
<title>Node10&#45;&gt;Node11</title>
<g id="a_edge10_Node000010_Node000011"><a xlink:title=" ">
<path fill="none" stroke="#63b8ff" d="M400.89,-271.5C376.37,-271.5 350.12,-271.5 326.14,-271.5"/>
<polygon fill="#63b8ff" stroke="#63b8ff" points="400.92,-275 410.92,-271.5 400.92,-268 400.92,-275"/>
</a>
</g>
</g>
<!-- Node11&#45;&gt;Node9 -->
<g id="edge11_Node000011_Node000009" class="edge">
<title>Node11&#45;&gt;Node9</title>
<g id="a_edge11_Node000011_Node000009"><a xlink:title=" ">
<path fill="none" stroke="#63b8ff" d="M145.02,-261.47C136.21,-260.54 127.46,-259.61 119.12,-258.72"/>
<polygon fill="#63b8ff" stroke="#63b8ff" points="144.67,-264.95 154.98,-262.53 145.4,-257.99 144.67,-264.95"/>
</a>
</g>
</g>
<!-- Node12&#45;&gt;Node6 -->
<g id="edge13_Node000012_Node000006" class="edge">
<title>Node12&#45;&gt;Node6</title>
<g id="a_edge13_Node000012_Node000006"><a xlink:title=" ">
<path fill="none" stroke="#63b8ff" d="M146.52,-121.5C136.64,-121.5 126.82,-121.5 117.54,-121.5"/>
<polygon fill="#63b8ff" stroke="#63b8ff" points="146.81,-125 156.81,-121.5 146.81,-118 146.81,-125"/>
</a>
</g>
</g>
<!-- Node13&#45;&gt;Node8 -->
<g id="edge15_Node000013_Node000008" class="edge">
<title>Node13&#45;&gt;Node8</title>
<g id="a_edge15_Node000013_Node000008"><a xlink:title=" ">
<path fill="none" stroke="#63b8ff" d="M387.44,-234.5C365.78,-234.5 343.37,-234.5 322.81,-234.5"/>
<polygon fill="#63b8ff" stroke="#63b8ff" points="387.66,-238 397.66,-234.5 387.66,-231 387.66,-238"/>
</a>
</g>
</g>
<!-- Node15 -->
<g id="Node000015" class="node">
<title>Node15</title>
<g id="a_Node000015"><a xlink:href="../../dc/de9/classNoteEditorUI.html#a3ea6ba49489a982beddb2ed1c4e46cf3" target="_top" xlink:title=" ">
<polygon fill="white" stroke="#666666" points="323.5,-94 157.5,-94 157.5,-75 323.5,-75 323.5,-94"/>
<text text-anchor="middle" x="240.5" y="-82" font-family="Helvetica,sans-Serif" font-size="10.00">NoteEditorUI::renderTabsArea_</text>
</a>
</g>
</g>
<!-- Node14&#45;&gt;Node15 -->
<g id="edge17_Node000014_Node000015" class="edge">
<title>Node14&#45;&gt;Node15</title>
<g id="a_edge17_Node000014_Node000015"><a xlink:title=" ">
<path fill="none" stroke="#63b8ff" d="M407.01,-83.85C380.03,-83.95 350.49,-84.07 323.92,-84.18"/>
<polygon fill="#63b8ff" stroke="#63b8ff" points="407.23,-87.35 417.22,-83.81 407.21,-80.35 407.23,-87.35"/>
</a>
</g>
</g>
<!-- Node15&#45;&gt;Node6 -->
<g id="edge18_Node000015_Node000006" class="edge">
<title>Node15&#45;&gt;Node6</title>
<g id="a_edge18_Node000015_Node000006"><a xlink:title=" ">
<path fill="none" stroke="#63b8ff" d="M183.46,-96.08C158.8,-101.18 130.17,-107.1 106.75,-111.94"/>
<polygon fill="#63b8ff" stroke="#63b8ff" points="184.32,-99.48 193.4,-94.03 182.9,-92.63 184.32,-99.48"/>
</a>
</g>
</g>
</g>
</svg>

<g id="navigator" transform="translate(0 0)" fill="#404254">
  <rect fill="#f2f5e9" fill-opacity="0.5" stroke="#606060" stroke-width=".5" x="0" y="0" width="60" height="60"/>
  <use id="zoomplus" xlink:href="#zoomPlus" x="17" y="9" onmousedown="handleZoom(evt,'in')"/>
  <use id="zoomminus" xlink:href="#zoomMin" x="42" y="9" onmousedown="handleZoom(evt,'out')"/>
  <use id="reset" xlink:href="#resetDef" x="30" y="36" onmousedown="handleReset()"/>
   <use id="arrowup" xlink:href="#arrowUp" x="0" y="0" onmousedown="handlePan(0,-1)"/>
  <use id="arrowright" xlink:href="#arrowRight" x="0" y="0" onmousedown="handlePan(1,0)"/>
  <use id="arrowdown" xlink:href="#arrowDown" x="0" y="0" onmousedown="handlePan(0,1)"/>
  <use id="arrowleft" xlink:href="#arrowLeft" x="0" y="0" onmousedown="handlePan(-1,0)"/>
</g>
<svg viewBox="0 0 15 15" width="100%" height="30px" preserveAspectRatio="xMaxYMin meet">
 <g id="arrow_out" transform="scale(0.3 0.3)">
  <a xlink:href="namespaceUiTypingGuard_a63a23afb57376e34f2fac5999eb9f1d9_icgraph_org.svg" target="_base">
   <rect id="button" ry="5" rx="5" y="6" x="6" height="38" width="38"
        fill="#f2f5e9" fill-opacity="0.5" stroke="#606060" stroke-width="1.0"/>
   <path id="arrow"
     d="M 11.500037,31.436501 C 11.940474,20.09759 22.043105,11.32322 32.158766,21.979434 L 37.068811,17.246167 C 37.068811,17.246167 37.088388,32 37.088388,32 L 22.160133,31.978069 C 22.160133,31.978069 26.997745,27.140456 26.997745,27.140456 C 18.528582,18.264221 13.291696,25.230495 11.500037,31.436501 z"
     style="fill:#404040;"/>
  </a>
 </g>
</svg>

<style type='text/css'>
<![CDATA[
[data-mouse-over-selected='false'] { opacity: 0.7; }
[data-mouse-over-selected='true']  { opacity: 1.0; }
]]>
</style>
<script type="application/ecmascript"><![CDATA[
document.addEventListener('DOMContentLoaded', (event) => {
  highlightEdges();
  highlightAdjacentNodes();
});
]]></script>
</svg>
