<?xml version="1.0" encoding="UTF-8" standalone="no"?>
<!DOCTYPE svg PUBLIC "-//W3C//DTD SVG 1.1//EN"
 "http://www.w3.org/Graphics/SVG/1.1/DTD/svg11.dtd">
<!-- Generated by graphviz version 2.43.0 (0)
 -->
<!-- Title: main Pages: 1 -->
<!--zoomable 637 -->

<svg id="main" version="1.1" xmlns="http://www.w3.org/2000/svg" xmlns:xlink="http://www.w3.org/1999/xlink" xml:space="preserve" onload="init(evt)">
<style type="text/css"><![CDATA[
.node, .edge {opacity: 0.7;}
.node.selected, .edge.selected {opacity: 1;}
.edge:hover path { stroke: red; }
.edge:hover polygon { stroke: red; fill: red; }
]]></style>

<defs>
  <circle id="rim" cx="0" cy="0" r="7"/>
  <circle id="rim2" cx="0" cy="0" r="3.5"/>
  <g id="zoomPlus">
    <use xlink:href="#rim" fill="#404040"><set attributeName="fill" to="#808080" begin="zoomplus.mouseover" end="zoomplus.mouseout"/></use>
    <path d="M-4,0h8M0,-4v8" fill="none" stroke="white" stroke-width="1.5" pointer-events="none"/>
  </g>
  <g id="zoomMin">
    <use xlink:href="#rim" fill="#404040"><set attributeName="fill" to="#808080" begin="zoomminus.mouseover" end="zoomminus.mouseout"/></use>
    <path d="M-4,0h8" fill="none" stroke="white" stroke-width="1.5" pointer-events="none"/>
  </g>
  <g id="arrowUp" transform="translate(30 24)">
    <use xlink:href="#rim"/>
    <path pointer-events="none" fill="none" stroke="white" stroke-width="1.5" d="M0,-3.0v7 M-2.5,-0.5L0,-3.0L2.5,-0.5"/>
  </g>
  <g id="arrowRight" transform="rotate(90) translate(36 -43)">
    <use xlink:href="#rim"/>
    <path pointer-events="none" fill="none" stroke="white" stroke-width="1.5" d="M0,-3.0v7 M-2.5,-0.5L0,-3.0L2.5,-0.5"/>
  </g>
  <g id="arrowDown" transform="rotate(180) translate(-30 -48)">
    <use xlink:href="#rim"/>
    <path pointer-events="none" fill="none" stroke="white" stroke-width="1.5" d="M0,-3.0v7 M-2.5,-0.5L0,-3.0L2.5,-0.5"/>
  </g>
  <g id="arrowLeft" transform="rotate(270) translate(-36 17)">
    <use xlink:href="#rim"/>
    <path pointer-events="none" fill="none" stroke="white" stroke-width="1.5" d="M0,-3.0v7 M-2.5,-0.5L0,-3.0L2.5,-0.5"/>
  </g>
  <g id="resetDef">
    <use xlink:href="#rim2" fill="#404040"><set attributeName="fill" to="#808080" begin="reset.mouseover" end="reset.mouseout"/></use>
  </g>
</defs>
<script type="application/ecmascript">
var viewWidth = 725;
var viewHeight = 637;
var sectionId = 'dynsection-4';
</script>
<script type="application/ecmascript" xlink:href="../../svg.min.js"/>
<svg id="graph" class="graph">
<g id="viewport">
<title>main</title>
<!-- Node1 -->
<g id="Node000001" class="node">
<title>Node1</title>
<g id="a_Node000001"><a xlink:title=" ">
<polygon fill="#999999" stroke="#666666" points="41,-262 0,-262 0,-243 41,-243 41,-262"/>
<text text-anchor="middle" x="20.5" y="-250" font-family="Helvetica,sans-Serif" font-size="10.00">main</text>
</a>
</g>
</g>
<!-- Node2 -->
<g id="Node000002" class="node">
<title>Node2</title>
<g id="a_Node000002"><a xlink:href="../../d4/d66/namespaceFirewallUtils.html#a0c4cf4c2262c6defdc879f06ca39a1b6" target="_top" xlink:title=" ">
<polygon fill="white" stroke="#666666" points="284,-610 77,-610 77,-591 284,-591 284,-610"/>
<text text-anchor="middle" x="180.5" y="-598" font-family="Helvetica,sans-Serif" font-size="10.00">FirewallUtils::addInboundAnyTcpForExe</text>
</a>
</g>
</g>
<!-- Node1&#45;&gt;Node2 -->
<g id="edge1_Node000001_Node000002" class="edge">
<title>Node1&#45;&gt;Node2</title>
<g id="a_edge1_Node000001_Node000002"><a xlink:title=" ">
<path fill="none" stroke="#63b8ff" d="M21.68,-262.12C22.8,-311.44 30.44,-535.6 77,-582.5 77.8,-583.3 78.61,-584.07 79.45,-584.82"/>
<polygon fill="#63b8ff" stroke="#63b8ff" points="77.4,-587.66 87.52,-590.81 81.58,-582.04 77.4,-587.66"/>
</a>
</g>
</g>
<!-- Node5 -->
<g id="Node000005" class="node">
<title>Node5</title>
<g id="a_Node000005"><a xlink:href="../../d1/d62/namespaceShutdownUtils.html#a164fd3deeb07623fca39c80eb580ab02" target="_top" xlink:title=" ">
<polygon fill="white" stroke="#666666" points="268.5,-500 92.5,-500 92.5,-481 268.5,-481 268.5,-500"/>
<text text-anchor="middle" x="180.5" y="-488" font-family="Helvetica,sans-Serif" font-size="10.00">ShutdownUtils::ArmDeadManKill</text>
</a>
</g>
</g>
<!-- Node1&#45;&gt;Node5 -->
<g id="edge4_Node000001_Node000005" class="edge">
<title>Node1&#45;&gt;Node5</title>
<g id="a_edge4_Node000001_Node000005"><a xlink:title=" ">
<path fill="none" stroke="#63b8ff" d="M22.54,-262.05C26.92,-300.44 45.11,-442.87 77,-472.5 78.97,-474.33 81.05,-476.01 83.24,-477.54"/>
<polygon fill="#63b8ff" stroke="#63b8ff" points="81.71,-480.71 92.1,-482.8 85.28,-474.69 81.71,-480.71"/>
</a>
</g>
</g>
<!-- Node6 -->
<g id="Node000006" class="node">
<title>Node6</title>
<g id="a_Node000006"><a xlink:href="../../da/d4c/classDebugConsole.html#a2ba9a847495e31f2d1cf3f9e629e6990" target="_top" xlink:title=" ">
<polygon fill="white" stroke="#666666" points="277.5,-463 83.5,-463 83.5,-444 277.5,-444 277.5,-463"/>
<text text-anchor="middle" x="180.5" y="-451" font-family="Helvetica,sans-Serif" font-size="10.00">DebugConsole::bootstrapStdCapture</text>
</a>
</g>
</g>
<!-- Node1&#45;&gt;Node6 -->
<g id="edge5_Node000001_Node000006" class="edge">
<title>Node1&#45;&gt;Node6</title>
<g id="a_edge5_Node000001_Node000006"><a xlink:title=" ">
<path fill="none" stroke="#63b8ff" d="M22.98,-262.35C27.18,-287.35 41.29,-354.21 77,-395.5 94.48,-415.71 120.82,-430.4 142.42,-439.94"/>
<polygon fill="#63b8ff" stroke="#63b8ff" points="141.08,-443.17 151.65,-443.83 143.8,-436.72 141.08,-443.17"/>
</a>
</g>
</g>
<!-- Node9 -->
<g id="Node000009" class="node">
<title>Node9</title>
<g id="a_Node000009"><a xlink:href="../../db/d67/classLogger.html#aebb248e608f8e2724de20b482cb2a15f" target="_top" xlink:title=" ">
<polygon fill="white" stroke="#666666" points="460,-463 363,-463 363,-444 460,-444 460,-463"/>
<text text-anchor="middle" x="411.5" y="-451" font-family="Helvetica,sans-Serif" font-size="10.00">Logger::instance</text>
</a>
</g>
</g>
<!-- Node1&#45;&gt;Node9 -->
<g id="edge35_Node000001_Node000009" class="edge">
<title>Node1&#45;&gt;Node9</title>
<g id="a_edge35_Node000001_Node000009"><a xlink:title=" ">
<path fill="none" stroke="#63b8ff" d="M26.37,-262.17C34.75,-277.96 53.32,-309.45 77,-328.5 159.77,-395.08 281.65,-428.59 352.86,-443.44"/>
<polygon fill="#63b8ff" stroke="#63b8ff" points="352.5,-446.93 362.99,-445.49 353.89,-440.07 352.5,-446.93"/>
</a>
</g>
</g>
<!-- Node11 -->
<g id="Node000011" class="node">
<title>Node11</title>
<g id="a_Node000011"><a xlink:href="../../d8/dec/classPathManager.html#a8ab36dc1c3f37bc603cb61f4ba6a90b7" target="_top" xlink:title=" ">
<polygon fill="white" stroke="#666666" points="267,-319 94,-319 94,-300 267,-300 267,-319"/>
<text text-anchor="middle" x="180.5" y="-307" font-family="Helvetica,sans-Serif" font-size="10.00">PathManager::ensureDirectories</text>
</a>
</g>
</g>
<!-- Node1&#45;&gt;Node11 -->
<g id="edge11_Node000001_Node000011" class="edge">
<title>Node1&#45;&gt;Node11</title>
<g id="a_edge11_Node000001_Node000011"><a xlink:title=" ">
<path fill="none" stroke="#63b8ff" d="M35.03,-262.15C45.9,-269.51 61.82,-279.38 77,-285.5 88.9,-290.3 101.99,-294.27 114.71,-297.51"/>
<polygon fill="#63b8ff" stroke="#63b8ff" points="114.27,-301 124.81,-299.95 115.91,-294.2 114.27,-301"/>
</a>
</g>
</g>
<!-- Node16 -->
<g id="Node000016" class="node">
<title>Node16</title>
<g id="a_Node000016"><a xlink:href="../../d8/dec/classPathManager.html#ae75b72eb67617d77136a829eb73c7e8f" target="_top" xlink:title=" ">
<polygon fill="white" stroke="#666666" points="486,-241 337,-241 337,-222 486,-222 486,-241"/>
<text text-anchor="middle" x="411.5" y="-229" font-family="Helvetica,sans-Serif" font-size="10.00">PathManager::getMapsPath</text>
</a>
</g>
</g>
<!-- Node1&#45;&gt;Node16 -->
<g id="edge27_Node000001_Node000016" class="edge">
<title>Node1&#45;&gt;Node16</title>
<g id="a_edge27_Node000001_Node000016"><a xlink:title=" ">
<path fill="none" stroke="#63b8ff" d="M41.29,-252.84C85.09,-253.44 193.53,-254.06 284,-247.5 300.73,-246.29 318.64,-244.39 335.56,-242.32"/>
<polygon fill="#63b8ff" stroke="#63b8ff" points="336.47,-245.73 345.95,-241.01 335.6,-238.79 336.47,-245.73"/>
</a>
</g>
</g>
<!-- Node17 -->
<g id="Node000017" class="node">
<title>Node17</title>
<g id="a_Node000017"><a xlink:href="../../d8/dec/classPathManager.html#a220ff032714c927e1a2a8ea81d863331" target="_top" xlink:title=" ">
<polygon fill="white" stroke="#666666" points="492.5,-204 330.5,-204 330.5,-185 492.5,-185 492.5,-204"/>
<text text-anchor="middle" x="411.5" y="-192" font-family="Helvetica,sans-Serif" font-size="10.00">PathManager::getMarkersPath</text>
</a>
</g>
</g>
<!-- Node1&#45;&gt;Node17 -->
<g id="edge28_Node000001_Node000017" class="edge">
<title>Node1&#45;&gt;Node17</title>
<g id="a_edge28_Node000001_Node000017"><a xlink:title=" ">
<path fill="none" stroke="#63b8ff" d="M41.06,-249.58C94.44,-241.62 244.78,-219.21 336.39,-205.55"/>
<polygon fill="#63b8ff" stroke="#63b8ff" points="337.07,-208.99 346.44,-204.05 336.03,-202.06 337.07,-208.99"/>
</a>
</g>
</g>
<!-- Node20 -->
<g id="Node000020" class="node">
<title>Node20</title>
<g id="a_Node000020"><a xlink:href="../../d8/dec/classPathManager.html#a8bc07ea0ad8692223d1743e442b48e26" target="_top" xlink:title=" ">
<polygon fill="white" stroke="#666666" points="493.5,-167 329.5,-167 329.5,-148 493.5,-148 493.5,-167"/>
<text text-anchor="middle" x="411.5" y="-155" font-family="Helvetica,sans-Serif" font-size="10.00">PathManager::getExternalPath</text>
</a>
</g>
</g>
<!-- Node1&#45;&gt;Node20 -->
<g id="edge25_Node000001_Node000020" class="edge">
<title>Node1&#45;&gt;Node20</title>
<g id="a_edge25_Node000001_Node000020"><a xlink:title=" ">
<path fill="none" stroke="#63b8ff" d="M31.17,-242.77C41.55,-232.95 58.99,-218.17 77,-210.5 83,-207.94 241.81,-183.33 338.08,-168.56"/>
<polygon fill="#63b8ff" stroke="#63b8ff" points="338.7,-172.01 348.06,-167.03 337.64,-165.09 338.7,-172.01"/>
</a>
</g>
</g>
<!-- Node21 -->
<g id="Node000021" class="node">
<title>Node21</title>
<g id="a_Node000021"><a xlink:href="../../d8/dec/classPathManager.html#a8995cf2a53dfcf82d99d80695396031a" target="_top" xlink:title=" ">
<polygon fill="white" stroke="#666666" points="263.5,-167 97.5,-167 97.5,-148 263.5,-148 263.5,-167"/>
<text text-anchor="middle" x="180.5" y="-155" font-family="Helvetica,sans-Serif" font-size="10.00">PathManager::getNodeExePath</text>
</a>
</g>
</g>
<!-- Node1&#45;&gt;Node21 -->
<g id="edge29_Node000001_Node000021" class="edge">
<title>Node1&#45;&gt;Node21</title>
<g id="a_edge29_Node000001_Node000021"><a xlink:title=" ">
<path fill="none" stroke="#63b8ff" d="M26.18,-242.99C34.29,-227.55 52.48,-197.17 77,-181.5 84.14,-176.94 92.05,-173.24 100.23,-170.24"/>
<polygon fill="#63b8ff" stroke="#63b8ff" points="101.52,-173.5 109.92,-167.04 99.32,-166.86 101.52,-173.5"/>
</a>
</g>
</g>
<!-- Node22 -->
<g id="Node000022" class="node">
<title>Node22</title>
<g id="a_Node000022"><a xlink:href="../../d8/dec/classPathManager.html#ab849cb5818b9f328bbd3214223761ccd" target="_top" xlink:title=" ">
<polygon fill="white" stroke="#666666" points="251,-130 110,-130 110,-111 251,-111 251,-130"/>
<text text-anchor="middle" x="180.5" y="-118" font-family="Helvetica,sans-Serif" font-size="10.00">PathManager::getResPath</text>
</a>
</g>
</g>
<!-- Node1&#45;&gt;Node22 -->
<g id="edge31_Node000001_Node000022" class="edge">
<title>Node1&#45;&gt;Node22</title>
<g id="a_edge31_Node000001_Node000022"><a xlink:title=" ">
<path fill="none" stroke="#63b8ff" d="M23.24,-242.77C27.74,-220.57 41.99,-166.04 77,-139.5 83.97,-134.22 91.96,-130.25 100.33,-127.29"/>
<polygon fill="#63b8ff" stroke="#63b8ff" points="101.38,-130.63 109.92,-124.37 99.33,-123.94 101.38,-130.63"/>
</a>
</g>
</g>
<!-- Node23 -->
<g id="Node000023" class="node">
<title>Node23</title>
<g id="a_Node000023"><a xlink:href="../../df/d0a/main_8cpp.html#a4f94e8ef0963814279e35dbc2bff3271" target="_top" xlink:title=" ">
<polygon fill="white" stroke="#666666" points="216.5,-93 144.5,-93 144.5,-74 216.5,-74 216.5,-93"/>
<text text-anchor="middle" x="180.5" y="-81" font-family="Helvetica,sans-Serif" font-size="10.00">getSelfPath</text>
</a>
</g>
</g>
<!-- Node1&#45;&gt;Node23 -->
<g id="edge33_Node000001_Node000023" class="edge">
<title>Node1&#45;&gt;Node23</title>
<g id="a_edge33_Node000001_Node000023"><a xlink:title=" ">
<path fill="none" stroke="#63b8ff" d="M21.94,-242.97C23.71,-216.2 32.61,-139.88 77,-102.5 92.8,-89.2 114.88,-83.98 134.5,-82.28"/>
<polygon fill="#63b8ff" stroke="#63b8ff" points="134.71,-85.77 144.49,-81.69 134.3,-78.79 134.71,-85.77"/>
</a>
</g>
</g>
<!-- Node24 -->
<g id="Node000024" class="node">
<title>Node24</title>
<g id="a_Node000024"><a xlink:href="../../df/d0a/main_8cpp.html#a9071fb6ecd182ffe03a7a12812701a2f" target="_top" xlink:title=" ">
<polygon fill="white" stroke="#666666" points="243,-56 118,-56 118,-37 243,-37 243,-56"/>
<text text-anchor="middle" x="180.5" y="-44" font-family="Helvetica,sans-Serif" font-size="10.00">initializeGLFWContext</text>
</a>
</g>
</g>
<!-- Node1&#45;&gt;Node24 -->
<g id="edge34_Node000001_Node000024" class="edge">
<title>Node1&#45;&gt;Node24</title>
<g id="a_edge34_Node000001_Node000024"><a xlink:title=" ">
<path fill="none" stroke="#63b8ff" d="M21.14,-242.97C20.54,-212.08 23.13,-113.98 77,-65.5 85.69,-57.68 96.52,-52.6 107.85,-49.37"/>
<polygon fill="#63b8ff" stroke="#63b8ff" points="108.98,-52.7 117.9,-46.98 107.36,-45.89 108.98,-52.7"/>
</a>
</g>
</g>
<!-- Node25 -->
<g id="Node000025" class="node">
<title>Node25</title>
<g id="a_Node000025"><a xlink:href="../../d4/d66/namespaceFirewallUtils.html#aeb693e7086b7890dc330afc739537795" target="_top" xlink:title=" ">
<polygon fill="white" stroke="#666666" points="273,-573 88,-573 88,-554 273,-554 273,-573"/>
<text text-anchor="middle" x="180.5" y="-561" font-family="Helvetica,sans-Serif" font-size="10.00">FirewallUtils::removeRuleElevated</text>
</a>
</g>
</g>
<!-- Node1&#45;&gt;Node25 -->
<g id="edge36_Node000001_Node000025" class="edge">
<title>Node1&#45;&gt;Node25</title>
<g id="a_edge36_Node000001_Node000025"><a xlink:title=" ">
<path fill="none" stroke="#63b8ff" d="M22.49,-262.19C26.95,-304.04 46.23,-468.96 77,-509.5 91.66,-528.81 115.24,-541.91 136.09,-550.36"/>
<polygon fill="#63b8ff" stroke="#63b8ff" points="134.84,-553.63 145.43,-553.93 137.34,-547.09 134.84,-553.63"/>
</a>
</g>
</g>
<!-- Node26 -->
<g id="Node000026" class="node">
<title>Node26</title>
<g id="a_Node000026"><a xlink:href="../../df/d0a/main_8cpp.html#aba448250c8ed52c43c1f11edd0eabc00" target="_top" xlink:title=" ">
<polygon fill="white" stroke="#666666" points="226,-19 135,-19 135,0 226,0 226,-19"/>
<text text-anchor="middle" x="180.5" y="-7" font-family="Helvetica,sans-Serif" font-size="10.00">setWindowIcon</text>
</a>
</g>
</g>
<!-- Node1&#45;&gt;Node26 -->
<g id="edge39_Node000001_Node000026" class="edge">
<title>Node1&#45;&gt;Node26</title>
<g id="a_edge39_Node000001_Node000026"><a xlink:title=" ">
<path fill="none" stroke="#63b8ff" d="M22.48,-243C26.67,-204.14 44.44,-57.92 77,-27.5 89.8,-15.54 107.61,-10.06 124.8,-7.86"/>
<polygon fill="#63b8ff" stroke="#63b8ff" points="125.17,-11.34 134.8,-6.93 124.52,-4.37 125.17,-11.34"/>
</a>
</g>
</g>
<!-- Node3 -->
<g id="Node000003" class="node">
<title>Node3</title>
<g id="a_Node000003"><a xlink:href="../../d4/d66/namespaceFirewallUtils.html#aeb36bfe1766b8cab726095eb9cdafcec" target="_top" xlink:title=" ">
<polygon fill="white" stroke="#666666" points="476,-592 347,-592 347,-573 476,-573 476,-592"/>
<text text-anchor="middle" x="411.5" y="-580" font-family="Helvetica,sans-Serif" font-size="10.00">FirewallUtils::psEscape</text>
</a>
</g>
</g>
<!-- Node2&#45;&gt;Node3 -->
<g id="edge2_Node000002_Node000003" class="edge">
<title>Node2&#45;&gt;Node3</title>
<g id="a_edge2_Node000002_Node000003"><a xlink:title=" ">
<path fill="none" stroke="#63b8ff" d="M284.28,-592.42C301.9,-591.04 319.9,-589.62 336.58,-588.31"/>
<polygon fill="#63b8ff" stroke="#63b8ff" points="337.09,-591.78 346.78,-587.51 336.54,-584.8 337.09,-591.78"/>
</a>
</g>
</g>
<!-- Node4 -->
<g id="Node000004" class="node">
<title>Node4</title>
<g id="a_Node000004"><a xlink:href="../../d4/d66/namespaceFirewallUtils.html#a7fa6fae6f04113bbf5b67918fdc2ff4a" target="_top" xlink:title=" ">
<polygon fill="white" stroke="#666666" points="499.5,-629 323.5,-629 323.5,-610 499.5,-610 499.5,-629"/>
<text text-anchor="middle" x="411.5" y="-617" font-family="Helvetica,sans-Serif" font-size="10.00">FirewallUtils::runPSElevatedWait</text>
</a>
</g>
</g>
<!-- Node2&#45;&gt;Node4 -->
<g id="edge3_Node000002_Node000004" class="edge">
<title>Node2&#45;&gt;Node4</title>
<g id="a_edge3_Node000002_Node000004"><a xlink:title=" ">
<path fill="none" stroke="#63b8ff" d="M284.28,-609.03C293.98,-609.83 303.81,-610.65 313.46,-611.45"/>
<polygon fill="#63b8ff" stroke="#63b8ff" points="313.19,-614.94 323.44,-612.28 313.77,-607.96 313.19,-614.94"/>
</a>
</g>
</g>
<!-- Node7 -->
<g id="Node000007" class="node">
<title>Node7</title>
<g id="a_Node000007"><a xlink:href="../../db/d67/classLogger.html#ac0754e12de89078ec1fb60a7f8493f08" target="_top" xlink:title=" ">
<polygon fill="white" stroke="#666666" points="481.5,-500 341.5,-500 341.5,-481 481.5,-481 481.5,-500"/>
<text text-anchor="middle" x="411.5" y="-488" font-family="Helvetica,sans-Serif" font-size="10.00">Logger::installStdCapture</text>
</a>
</g>
</g>
<!-- Node6&#45;&gt;Node7 -->
<g id="edge6_Node000006_Node000007" class="edge">
<title>Node6&#45;&gt;Node7</title>
<g id="a_edge6_Node000006_Node000007"><a xlink:title=" ">
<path fill="none" stroke="#63b8ff" d="M240.47,-463.03C271.21,-467.99 308.98,-474.1 341.11,-479.29"/>
<polygon fill="#63b8ff" stroke="#63b8ff" points="340.9,-482.8 351.33,-480.94 342.02,-475.89 340.9,-482.8"/>
</a>
</g>
</g>
<!-- Node6&#45;&gt;Node9 -->
<g id="edge8_Node000006_Node000009" class="edge">
<title>Node6&#45;&gt;Node9</title>
<g id="a_edge8_Node000006_Node000009"><a xlink:title=" ">
<path fill="none" stroke="#63b8ff" d="M277.62,-453.5C303.1,-453.5 329.82,-453.5 352.56,-453.5"/>
<polygon fill="#63b8ff" stroke="#63b8ff" points="352.71,-457 362.71,-453.5 352.71,-450 352.71,-457"/>
</a>
</g>
</g>
<!-- Node10 -->
<g id="Node000010" class="node">
<title>Node10</title>
<g id="a_Node000010"><a xlink:href="../../db/d67/classLogger.html#ab77a9a6a08954192b47c39f359b5d370" target="_top" xlink:title=" ">
<polygon fill="white" stroke="#666666" points="447,-537 376,-537 376,-518 447,-518 447,-537"/>
<text text-anchor="middle" x="411.5" y="-525" font-family="Helvetica,sans-Serif" font-size="10.00">Logger::log</text>
</a>
</g>
</g>
<!-- Node6&#45;&gt;Node10 -->
<g id="edge9_Node000006_Node000010" class="edge">
<title>Node6&#45;&gt;Node10</title>
<g id="a_edge9_Node000006_Node000010"><a xlink:title=" ">
<path fill="none" stroke="#63b8ff" d="M260.71,-463.03C268.82,-465.51 276.74,-468.62 284,-472.5 304.23,-483.32 299.84,-498.55 320,-509.5 333.84,-517.02 350.4,-521.42 365.54,-523.98"/>
<polygon fill="#63b8ff" stroke="#63b8ff" points="365.35,-527.49 375.75,-525.48 366.37,-520.57 365.35,-527.49"/>
</a>
</g>
</g>
<!-- Node8 -->
<g id="Node000008" class="node">
<title>Node8</title>
<g id="a_Node000008"><a xlink:href="../../db/d67/classLogger.html#a4e5e5f780d0d088fb2c8152755bc2dfb" target="_top" xlink:title=" ">
<polygon fill="white" stroke="#666666" points="687,-500 569,-500 569,-481 687,-481 687,-500"/>
<text text-anchor="middle" x="628" y="-488" font-family="Helvetica,sans-Serif" font-size="10.00">Logger::ensureSeed_</text>
</a>
</g>
</g>
<!-- Node7&#45;&gt;Node8 -->
<g id="edge7_Node000007_Node000008" class="edge">
<title>Node7&#45;&gt;Node8</title>
<g id="a_edge7_Node000007_Node000008"><a xlink:title=" ">
<path fill="none" stroke="#63b8ff" d="M481.55,-490.5C506.31,-490.5 534.19,-490.5 558.87,-490.5"/>
<polygon fill="#63b8ff" stroke="#63b8ff" points="558.87,-494 568.87,-490.5 558.87,-487 558.87,-494"/>
</a>
</g>
</g>
<!-- Node10&#45;&gt;Node10 -->
<g id="edge10_Node000010_Node000010" class="edge">
<title>Node10&#45;&gt;Node10</title>
<g id="a_edge10_Node000010_Node000010"><a xlink:title=" ">
<path fill="none" stroke="#63b8ff" d="M378.21,-537.08C362.01,-545.73 373.11,-555 411.5,-555 439.09,-555 452.59,-550.21 451.98,-544.31"/>
<polygon fill="#63b8ff" stroke="#63b8ff" points="454.33,-541.7 444.79,-537.08 449.36,-546.64 454.33,-541.7"/>
</a>
</g>
</g>
<!-- Node12 -->
<g id="Node000012" class="node">
<title>Node12</title>
<g id="a_Node000012"><a xlink:href="../../d8/dec/classPathManager.html#acead0801ac03e6f4de6fa9bf3b6d0636" target="_top" xlink:title=" ">
<polygon fill="white" stroke="#666666" points="496.5,-426 326.5,-426 326.5,-407 496.5,-407 496.5,-426"/>
<text text-anchor="middle" x="411.5" y="-414" font-family="Helvetica,sans-Serif" font-size="10.00">PathManager::createIfNotExists</text>
</a>
</g>
</g>
<!-- Node11&#45;&gt;Node12 -->
<g id="edge12_Node000011_Node000012" class="edge">
<title>Node11&#45;&gt;Node12</title>
<g id="a_edge12_Node000011_Node000012"><a xlink:title=" ">
<path fill="none" stroke="#63b8ff" d="M201.07,-319.11C222.22,-329.83 256.57,-348.21 284,-367.5 301.27,-379.65 301.02,-389.25 320,-398.5 324.08,-400.49 328.36,-402.26 332.76,-403.83"/>
<polygon fill="#63b8ff" stroke="#63b8ff" points="331.93,-407.24 342.52,-406.97 334.07,-400.58 331.93,-407.24"/>
</a>
</g>
</g>
<!-- Node13 -->
<g id="Node000013" class="node">
<title>Node13</title>
<g id="a_Node000013"><a xlink:href="../../d8/dec/classPathManager.html#a516850d4f1f941e8c93900eb01f6e38b" target="_top" xlink:title=" ">
<polygon fill="white" stroke="#666666" points="488.5,-352 334.5,-352 334.5,-333 488.5,-333 488.5,-352"/>
<text text-anchor="middle" x="411.5" y="-340" font-family="Helvetica,sans-Serif" font-size="10.00">PathManager::getConfigPath</text>
</a>
</g>
</g>
<!-- Node11&#45;&gt;Node13 -->
<g id="edge13_Node000011_Node000013" class="edge">
<title>Node11&#45;&gt;Node13</title>
<g id="a_edge13_Node000011_Node000013"><a xlink:title=" ">
<path fill="none" stroke="#63b8ff" d="M247.43,-319C274.5,-322.9 306.01,-327.44 334.07,-331.49"/>
<polygon fill="#63b8ff" stroke="#63b8ff" points="333.85,-334.99 344.24,-332.95 334.84,-328.06 333.85,-334.99"/>
</a>
</g>
</g>
<!-- Node15 -->
<g id="Node000015" class="node">
<title>Node15</title>
<g id="a_Node000015"><a xlink:href="../../d8/dec/classPathManager.html#a6be0a95403caf375f4d7b642f0f90061" target="_top" xlink:title=" ">
<polygon fill="white" stroke="#666666" points="503,-315 320,-315 320,-296 503,-296 503,-315"/>
<text text-anchor="middle" x="411.5" y="-303" font-family="Helvetica,sans-Serif" font-size="10.00">PathManager::getGameTablesPath</text>
</a>
</g>
</g>
<!-- Node11&#45;&gt;Node15 -->
<g id="edge15_Node000011_Node000015" class="edge">
<title>Node11&#45;&gt;Node15</title>
<g id="a_edge15_Node000011_Node000015"><a xlink:title=" ">
<path fill="none" stroke="#63b8ff" d="M267.1,-308C280.9,-307.76 295.3,-307.51 309.42,-307.27"/>
<polygon fill="#63b8ff" stroke="#63b8ff" points="309.71,-310.76 319.64,-307.09 309.58,-303.76 309.71,-310.76"/>
</a>
</g>
</g>
<!-- Node11&#45;&gt;Node16 -->
<g id="edge17_Node000011_Node000016" class="edge">
<title>Node11&#45;&gt;Node16</title>
<g id="a_edge17_Node000011_Node000016"><a xlink:title=" ">
<path fill="none" stroke="#63b8ff" d="M246.08,-299.99C259.11,-296.54 272.38,-291.86 284,-285.5 303.58,-274.79 300.3,-260.98 320,-250.5 324.29,-248.22 328.83,-246.21 333.51,-244.44"/>
<polygon fill="#63b8ff" stroke="#63b8ff" points="334.9,-247.66 343.25,-241.14 332.65,-241.03 334.9,-247.66"/>
</a>
</g>
</g>
<!-- Node11&#45;&gt;Node17 -->
<g id="edge19_Node000011_Node000017" class="edge">
<title>Node11&#45;&gt;Node17</title>
<g id="a_edge19_Node000011_Node000017"><a xlink:title=" ">
<path fill="none" stroke="#63b8ff" d="M200.03,-299.86C221.16,-288.51 256.36,-268.53 284,-247.5 301.51,-234.17 300.5,-223.7 320,-213.5 324.51,-211.14 329.29,-209.08 334.2,-207.27"/>
<polygon fill="#63b8ff" stroke="#63b8ff" points="335.39,-210.56 343.78,-204.1 333.18,-203.92 335.39,-210.56"/>
</a>
</g>
</g>
<!-- Node18 -->
<g id="Node000018" class="node">
<title>Node18</title>
<g id="a_Node000018"><a xlink:href="../../d8/dec/classPathManager.html#af679863b43cab353b30094f54650bc99" target="_top" xlink:title=" ">
<polygon fill="white" stroke="#666666" points="487.5,-278 335.5,-278 335.5,-259 487.5,-259 487.5,-278"/>
<text text-anchor="middle" x="411.5" y="-266" font-family="Helvetica,sans-Serif" font-size="10.00">PathManager::getNotesPath</text>
</a>
</g>
</g>
<!-- Node11&#45;&gt;Node18 -->
<g id="edge21_Node000011_Node000018" class="edge">
<title>Node11&#45;&gt;Node18</title>
<g id="a_edge21_Node000011_Node000018"><a xlink:title=" ">
<path fill="none" stroke="#63b8ff" d="M234.61,-299.99C268.16,-293.98 311.7,-286.19 347.06,-279.86"/>
<polygon fill="#63b8ff" stroke="#63b8ff" points="348.05,-283.24 357.28,-278.03 346.82,-276.35 348.05,-283.24"/>
</a>
</g>
</g>
<!-- Node19 -->
<g id="Node000019" class="node">
<title>Node19</title>
<g id="a_Node000019"><a xlink:href="../../d8/dec/classPathManager.html#a38ea96d0a74f2dbf21e811dbdbe43fb4" target="_top" xlink:title=" ">
<polygon fill="white" stroke="#666666" points="496.5,-389 326.5,-389 326.5,-370 496.5,-370 496.5,-389"/>
<text text-anchor="middle" x="411.5" y="-377" font-family="Helvetica,sans-Serif" font-size="10.00">PathManager::getRootDirectory</text>
</a>
</g>
</g>
<!-- Node11&#45;&gt;Node19 -->
<g id="edge23_Node000011_Node000019" class="edge">
<title>Node11&#45;&gt;Node19</title>
<g id="a_edge23_Node000011_Node000019"><a xlink:title=" ">
<path fill="none" stroke="#63b8ff" d="M203.67,-319.11C230.71,-330.53 278.01,-349.53 320,-361.5 328.08,-363.8 336.65,-365.92 345.17,-367.83"/>
<polygon fill="#63b8ff" stroke="#63b8ff" points="344.61,-371.29 355.12,-369.97 346.08,-364.44 344.61,-371.29"/>
</a>
</g>
</g>
<!-- Node14 -->
<g id="Node000014" class="node">
<title>Node14</title>
<g id="a_Node000014"><a xlink:href="../../d8/dec/classPathManager.html#a467b459b77c73cbc7544551b53911fcd" target="_top" xlink:title=" ">
<polygon fill="white" stroke="#666666" points="717,-260 539,-260 539,-241 717,-241 717,-260"/>
<text text-anchor="middle" x="628" y="-248" font-family="Helvetica,sans-Serif" font-size="10.00">PathManager::getExecutableRoot</text>
</a>
</g>
</g>
<!-- Node13&#45;&gt;Node14 -->
<g id="edge14_Node000013_Node000014" class="edge">
<title>Node13&#45;&gt;Node14</title>
<g id="a_edge14_Node000013_Node000014"><a xlink:title=" ">
<path fill="none" stroke="#63b8ff" d="M475.12,-332.96C484.62,-330.68 494.18,-327.89 503,-324.5 541.8,-309.58 582.36,-282.94 606.12,-266.02"/>
<polygon fill="#63b8ff" stroke="#63b8ff" points="608.31,-268.76 614.37,-260.06 604.21,-263.08 608.31,-268.76"/>
</a>
</g>
</g>
<!-- Node15&#45;&gt;Node14 -->
<g id="edge16_Node000015_Node000014" class="edge">
<title>Node15&#45;&gt;Node14</title>
<g id="a_edge16_Node000015_Node000014"><a xlink:title=" ">
<path fill="none" stroke="#63b8ff" d="M464.85,-295.95C477.4,-293.43 490.72,-290.55 503,-287.5 531.75,-280.37 563.77,-270.77 588.07,-263.14"/>
<polygon fill="#63b8ff" stroke="#63b8ff" points="589.17,-266.46 597.65,-260.1 587.06,-259.79 589.17,-266.46"/>
</a>
</g>
</g>
<!-- Node16&#45;&gt;Node14 -->
<g id="edge18_Node000016_Node000014" class="edge">
<title>Node16&#45;&gt;Node14</title>
<g id="a_edge18_Node000016_Node000014"><a xlink:title=" ">
<path fill="none" stroke="#63b8ff" d="M486.02,-238.01C499.68,-239.22 514.16,-240.5 528.43,-241.77"/>
<polygon fill="#63b8ff" stroke="#63b8ff" points="528.5,-245.29 538.77,-242.68 529.11,-238.32 528.5,-245.29"/>
</a>
</g>
</g>
<!-- Node17&#45;&gt;Node14 -->
<g id="edge20_Node000017_Node000014" class="edge">
<title>Node17&#45;&gt;Node14</title>
<g id="a_edge20_Node000017_Node000014"><a xlink:title=" ">
<path fill="none" stroke="#63b8ff" d="M461.52,-204.02C475.01,-206.85 489.62,-210.1 503,-213.5 531.71,-220.78 563.73,-230.38 588.05,-237.97"/>
<polygon fill="#63b8ff" stroke="#63b8ff" points="587.04,-241.32 597.63,-240.98 589.14,-234.65 587.04,-241.32"/>
</a>
</g>
</g>
<!-- Node18&#45;&gt;Node14 -->
<g id="edge22_Node000018_Node000014" class="edge">
<title>Node18&#45;&gt;Node14</title>
<g id="a_edge22_Node000018_Node000014"><a xlink:title=" ">
<path fill="none" stroke="#63b8ff" d="M487.52,-262.2C500.84,-261.09 514.89,-259.91 528.74,-258.75"/>
<polygon fill="#63b8ff" stroke="#63b8ff" points="529.1,-262.23 538.77,-257.9 528.52,-255.25 529.1,-262.23"/>
</a>
</g>
</g>
<!-- Node19&#45;&gt;Node14 -->
<g id="edge24_Node000019_Node000014" class="edge">
<title>Node19&#45;&gt;Node14</title>
<g id="a_edge24_Node000019_Node000014"><a xlink:title=" ">
<path fill="none" stroke="#63b8ff" d="M481.02,-369.97C488.64,-367.72 496.12,-364.94 503,-361.5 549.48,-338.29 591.84,-292.93 612.93,-267.98"/>
<polygon fill="#63b8ff" stroke="#63b8ff" points="615.8,-270.01 619.48,-260.08 610.41,-265.54 615.8,-270.01"/>
</a>
</g>
</g>
<!-- Node20&#45;&gt;Node14 -->
<g id="edge26_Node000020_Node000014" class="edge">
<title>Node20&#45;&gt;Node14</title>
<g id="a_edge26_Node000020_Node000014"><a xlink:title=" ">
<path fill="none" stroke="#63b8ff" d="M472.23,-167.11C482.66,-169.61 493.28,-172.7 503,-176.5 541.72,-191.63 582.3,-218.21 606.09,-235.05"/>
<polygon fill="#63b8ff" stroke="#63b8ff" points="604.19,-237.99 614.35,-240.99 608.27,-232.31 604.19,-237.99"/>
</a>
</g>
</g>
<!-- Node21&#45;&gt;Node20 -->
<g id="edge30_Node000021_Node000020" class="edge">
<title>Node21&#45;&gt;Node20</title>
<g id="a_edge30_Node000021_Node000020"><a xlink:title=" ">
<path fill="none" stroke="#63b8ff" d="M263.53,-157.5C281.61,-157.5 300.87,-157.5 319.29,-157.5"/>
<polygon fill="#63b8ff" stroke="#63b8ff" points="319.43,-161 329.43,-157.5 319.43,-154 319.43,-161"/>
</a>
</g>
</g>
<!-- Node22&#45;&gt;Node14 -->
<g id="edge32_Node000022_Node000014" class="edge">
<title>Node22&#45;&gt;Node14</title>
<g id="a_edge32_Node000022_Node000014"><a xlink:title=" ">
<path fill="none" stroke="#63b8ff" d="M251.24,-111.76C318.42,-106.26 421.57,-105.59 503,-139.5 551.2,-159.57 593.13,-206.61 613.63,-232.55"/>
<polygon fill="#63b8ff" stroke="#63b8ff" points="611.09,-234.98 619.97,-240.76 616.63,-230.7 611.09,-234.98"/>
</a>
</g>
</g>
<!-- Node25&#45;&gt;Node3 -->
<g id="edge37_Node000025_Node000003" class="edge">
<title>Node25&#45;&gt;Node3</title>
<g id="a_edge37_Node000025_Node000003"><a xlink:title=" ">
<path fill="none" stroke="#63b8ff" d="M273.32,-571.12C294.4,-572.87 316.54,-574.7 336.74,-576.38"/>
<polygon fill="#63b8ff" stroke="#63b8ff" points="336.55,-579.88 346.8,-577.21 337.12,-572.9 336.55,-579.88"/>
</a>
</g>
</g>
<!-- Node25&#45;&gt;Node4 -->
<g id="edge38_Node000025_Node000004" class="edge">
<title>Node25&#45;&gt;Node4</title>
<g id="a_edge38_Node000025_Node000004"><a xlink:title=" ">
<path fill="none" stroke="#63b8ff" d="M249.25,-573.06C261,-575.56 272.97,-578.67 284,-582.5 301.09,-588.44 302.95,-595.45 320,-601.5 326.39,-603.77 333.14,-605.78 339.96,-607.55"/>
<polygon fill="#63b8ff" stroke="#63b8ff" points="339.42,-611.02 349.96,-609.99 341.08,-604.22 339.42,-611.02"/>
</a>
</g>
</g>
<!-- Node27 -->
<g id="Node000027" class="node">
<title>Node27</title>
<g id="a_Node000027"><a xlink:href="../../df/d0a/main_8cpp.html#a5ebbdce218ec7a8d08979b7b58dbb936" target="_top" xlink:title=" ">
<polygon fill="white" stroke="#666666" points="445.5,-19 377.5,-19 377.5,0 445.5,0 445.5,-19"/>
<text text-anchor="middle" x="411.5" y="-7" font-family="Helvetica,sans-Serif" font-size="10.00">loadImage</text>
</a>
</g>
</g>
<!-- Node26&#45;&gt;Node27 -->
<g id="edge40_Node000026_Node000027" class="edge">
<title>Node26&#45;&gt;Node27</title>
<g id="a_edge40_Node000026_Node000027"><a xlink:title=" ">
<path fill="none" stroke="#63b8ff" d="M226.2,-9.5C267.03,-9.5 327.01,-9.5 367.35,-9.5"/>
<polygon fill="#63b8ff" stroke="#63b8ff" points="367.41,-13 377.41,-9.5 367.41,-6 367.41,-13"/>
</a>
</g>
</g>
</g>
</svg>

<g id="navigator" transform="translate(0 0)" fill="#404254">
  <rect fill="#f2f5e9" fill-opacity="0.5" stroke="#606060" stroke-width=".5" x="0" y="0" width="60" height="60"/>
  <use id="zoomplus" xlink:href="#zoomPlus" x="17" y="9" onmousedown="handleZoom(evt,'in')"/>
  <use id="zoomminus" xlink:href="#zoomMin" x="42" y="9" onmousedown="handleZoom(evt,'out')"/>
  <use id="reset" xlink:href="#resetDef" x="30" y="36" onmousedown="handleReset()"/>
   <use id="arrowup" xlink:href="#arrowUp" x="0" y="0" onmousedown="handlePan(0,-1)"/>
  <use id="arrowright" xlink:href="#arrowRight" x="0" y="0" onmousedown="handlePan(1,0)"/>
  <use id="arrowdown" xlink:href="#arrowDown" x="0" y="0" onmousedown="handlePan(0,1)"/>
  <use id="arrowleft" xlink:href="#arrowLeft" x="0" y="0" onmousedown="handlePan(-1,0)"/>
</g>
<svg viewBox="0 0 15 15" width="100%" height="30px" preserveAspectRatio="xMaxYMin meet">
 <g id="arrow_out" transform="scale(0.3 0.3)">
  <a xlink:href="main_8cpp_ae66f6b31b5ad750f1fe042a706a4e3d4_cgraph_org.svg" target="_base">
   <rect id="button" ry="5" rx="5" y="6" x="6" height="38" width="38"
        fill="#f2f5e9" fill-opacity="0.5" stroke="#606060" stroke-width="1.0"/>
   <path id="arrow"
     d="M 11.500037,31.436501 C 11.940474,20.09759 22.043105,11.32322 32.158766,21.979434 L 37.068811,17.246167 C 37.068811,17.246167 37.088388,32 37.088388,32 L 22.160133,31.978069 C 22.160133,31.978069 26.997745,27.140456 26.997745,27.140456 C 18.528582,18.264221 13.291696,25.230495 11.500037,31.436501 z"
     style="fill:#404040;"/>
  </a>
 </g>
</svg>

<style type='text/css'>
<![CDATA[
[data-mouse-over-selected='false'] { opacity: 0.7; }
[data-mouse-over-selected='true']  { opacity: 1.0; }
]]>
</style>
<script type="application/ecmascript"><![CDATA[
document.addEventListener('DOMContentLoaded', (event) => {
  highlightEdges();
  highlightAdjacentNodes();
});
]]></script>
</svg>
