<?xml version="1.0" encoding="UTF-8" standalone="no"?>
<!DOCTYPE svg PUBLIC "-//W3C//DTD SVG 1.1//EN"
 "http://www.w3.org/Graphics/SVG/1.1/DTD/svg11.dtd">
<!-- Generated by graphviz version 2.43.0 (0)
 -->
<!-- Title: PendingImage Pages: 1 -->
<!--zoomable 186 -->

<svg id="main" version="1.1" xmlns="http://www.w3.org/2000/svg" xmlns:xlink="http://www.w3.org/1999/xlink" xml:space="preserve" onload="init(evt)">
<style type="text/css"><![CDATA[
.node, .edge {opacity: 0.7;}
.node.selected, .edge.selected {opacity: 1;}
.edge:hover path { stroke: red; }
.edge:hover polygon { stroke: red; fill: red; }
]]></style>

<defs>
  <circle id="rim" cx="0" cy="0" r="7"/>
  <circle id="rim2" cx="0" cy="0" r="3.5"/>
  <g id="zoomPlus">
    <use xlink:href="#rim" fill="#404040"><set attributeName="fill" to="#808080" begin="zoomplus.mouseover" end="zoomplus.mouseout"/></use>
    <path d="M-4,0h8M0,-4v8" fill="none" stroke="white" stroke-width="1.5" pointer-events="none"/>
  </g>
  <g id="zoomMin">
    <use xlink:href="#rim" fill="#404040"><set attributeName="fill" to="#808080" begin="zoomminus.mouseover" end="zoomminus.mouseout"/></use>
    <path d="M-4,0h8" fill="none" stroke="white" stroke-width="1.5" pointer-events="none"/>
  </g>
  <g id="arrowUp" transform="translate(30 24)">
    <use xlink:href="#rim"/>
    <path pointer-events="none" fill="none" stroke="white" stroke-width="1.5" d="M0,-3.0v7 M-2.5,-0.5L0,-3.0L2.5,-0.5"/>
  </g>
  <g id="arrowRight" transform="rotate(90) translate(36 -43)">
    <use xlink:href="#rim"/>
    <path pointer-events="none" fill="none" stroke="white" stroke-width="1.5" d="M0,-3.0v7 M-2.5,-0.5L0,-3.0L2.5,-0.5"/>
  </g>
  <g id="arrowDown" transform="rotate(180) translate(-30 -48)">
    <use xlink:href="#rim"/>
    <path pointer-events="none" fill="none" stroke="white" stroke-width="1.5" d="M0,-3.0v7 M-2.5,-0.5L0,-3.0L2.5,-0.5"/>
  </g>
  <g id="arrowLeft" transform="rotate(270) translate(-36 17)">
    <use xlink:href="#rim"/>
    <path pointer-events="none" fill="none" stroke="white" stroke-width="1.5" d="M0,-3.0v7 M-2.5,-0.5L0,-3.0L2.5,-0.5"/>
  </g>
  <g id="resetDef">
    <use xlink:href="#rim2" fill="#404040"><set attributeName="fill" to="#808080" begin="reset.mouseover" end="reset.mouseout"/></use>
  </g>
</defs>
<script type="application/ecmascript">
var viewWidth = 786;
var viewHeight = 186;
var sectionId = 'dynsection-0';
</script>
<script type="application/ecmascript" xlink:href="../../svg.min.js"/>
<svg id="graph" class="graph">
<g id="viewport">
<title>PendingImage</title>
<!-- Node1 -->
<g id="Node000001" class="node">
<title>Node1</title>
<g id="a_Node000001"><a xlink:title=" ">
<polygon fill="#999999" stroke="transparent" points="385.5,-49 247.5,-49 247.5,0 385.5,0 385.5,-49"/>
<text text-anchor="start" x="281.5" y="-36.5" font-family="Helvetica,sans-Serif" font-size="10.00">PendingImage</text>
<text text-anchor="start" x="314.5" y="-21.5" font-family="Helvetica,sans-Serif" font-size="10.00"> </text>
<text text-anchor="start" x="251.5" y="-6.5" font-family="Helvetica,sans-Serif" font-size="10.00">+</text>
<text text-anchor="start" x="264.5" y="-6.5" font-family="Helvetica,sans-Serif" font-size="10.00">bool isComplete() const</text>
<polygon fill="#666666" stroke="#666666" points="247.5,-31.5 247.5,-31.5 385.5,-31.5 385.5,-31.5 247.5,-31.5"/>
<polygon fill="#666666" stroke="#666666" points="247.5,-16.5 247.5,-16.5 385.5,-16.5 385.5,-16.5 247.5,-16.5"/>
<polygon fill="none" stroke="#666666" points="247.5,0 247.5,-49 385.5,-49 385.5,0 247.5,0"/>
</a>
</g>
</g>
<!-- Node2 -->
<g id="Node000002" class="node">
<title>Node2</title>
<g id="a_Node000002"><a xlink:title=" ">
<polygon fill="white" stroke="transparent" points="95,-178 0,-178 0,-129 95,-129 95,-178"/>
<text text-anchor="start" x="5.5" y="-165.5" font-family="Helvetica,sans-Serif" font-size="10.00">ImageOwnerKind</text>
<text text-anchor="start" x="46" y="-150.5" font-family="Helvetica,sans-Serif" font-size="10.00"> </text>
<text text-anchor="start" x="46" y="-135.5" font-family="Helvetica,sans-Serif" font-size="10.00"> </text>
<polygon fill="#666666" stroke="#666666" points="0.5,-160.5 0.5,-160.5 95.5,-160.5 95.5,-160.5 0.5,-160.5"/>
<polygon fill="#666666" stroke="#666666" points="0.5,-145.5 0.5,-145.5 95.5,-145.5 95.5,-145.5 0.5,-145.5"/>
<polygon fill="none" stroke="#666666" points="0,-129 0,-178 95,-178 95,-129 0,-129"/>
</a>
</g>
</g>
<!-- Node2&#45;&gt;Node1 -->
<g id="edge1_Node000001_Node000002" class="edge">
<title>Node2&#45;&gt;Node1</title>
<g id="a_edge1_Node000001_Node000002"><a xlink:title=" ">
<path fill="none" stroke="#63b8ff" d="M59.85,-128.71C71.33,-109.04 90.29,-81.99 114.5,-67 150.42,-44.76 196.15,-34.2 235.01,-29.29"/>
<polygon fill="none" stroke="#63b8ff" points="235.18,-29.27 240.68,-24.62 247.1,-27.91 241.59,-32.56 235.18,-29.27"/>
</a>
</g>
<text text-anchor="middle" x="131" y="-86.5" font-family="Helvetica,sans-Serif" font-size="10.00" fill="grey"> +kind</text>
</g>
<!-- Node3 -->
<g id="Node000003" class="node">
<title>Node3</title>
<g id="a_Node000003"><a xlink:title=" ">
<polygon fill="white" stroke="transparent" points="163.5,-178 113.5,-178 113.5,-129 163.5,-129 163.5,-178"/>
<text text-anchor="start" x="118.5" y="-165.5" font-family="Helvetica,sans-Serif" font-size="10.00">uint64_t</text>
<text text-anchor="start" x="136.5" y="-150.5" font-family="Helvetica,sans-Serif" font-size="10.00"> </text>
<text text-anchor="start" x="136.5" y="-135.5" font-family="Helvetica,sans-Serif" font-size="10.00"> </text>
<polygon fill="#666666" stroke="#666666" points="113.5,-160.5 113.5,-160.5 163.5,-160.5 163.5,-160.5 113.5,-160.5"/>
<polygon fill="#666666" stroke="#666666" points="113.5,-145.5 113.5,-145.5 163.5,-145.5 163.5,-145.5 113.5,-145.5"/>
<polygon fill="none" stroke="#666666" points="113.5,-129 113.5,-178 163.5,-178 163.5,-129 113.5,-129"/>
</a>
</g>
</g>
<!-- Node3&#45;&gt;Node1 -->
<g id="edge2_Node000001_Node000003" class="edge">
<title>Node3&#45;&gt;Node1</title>
<g id="a_edge2_Node000001_Node000003"><a xlink:title=" ">
<path fill="none" stroke="#63b8ff" d="M144.13,-128.93C149.9,-109.67 160.76,-83.08 179.5,-67 195.35,-53.41 215.55,-44.27 235.54,-38.12"/>
<polygon fill="none" stroke="#63b8ff" points="235.7,-38.08 240.39,-32.61 247.25,-34.84 242.55,-40.31 235.7,-38.08"/>
</a>
</g>
<text text-anchor="middle" x="205" y="-103" font-family="Helvetica,sans-Serif" font-size="10.00" fill="grey"> +boardId</text>
<text text-anchor="middle" x="205" y="-92" font-family="Helvetica,sans-Serif" font-size="10.00" fill="grey">+id</text>
<text text-anchor="middle" x="205" y="-81" font-family="Helvetica,sans-Serif" font-size="10.00" fill="grey">+received</text>
<text text-anchor="middle" x="205" y="-70" font-family="Helvetica,sans-Serif" font-size="10.00" fill="grey">+total</text>
</g>
<!-- Node4 -->
<g id="Node000004" class="node">
<title>Node4</title>
<g id="a_Node000004"><a xlink:title=" ">
<polygon fill="white" stroke="transparent" points="219.5,-178 181.5,-178 181.5,-129 219.5,-129 219.5,-178"/>
<text text-anchor="start" x="186.5" y="-165.5" font-family="Helvetica,sans-Serif" font-size="10.00">string</text>
<text text-anchor="start" x="198.5" y="-150.5" font-family="Helvetica,sans-Serif" font-size="10.00"> </text>
<text text-anchor="start" x="198.5" y="-135.5" font-family="Helvetica,sans-Serif" font-size="10.00"> </text>
<polygon fill="#666666" stroke="#666666" points="181.5,-160.5 181.5,-160.5 219.5,-160.5 219.5,-160.5 181.5,-160.5"/>
<polygon fill="#666666" stroke="#666666" points="181.5,-145.5 181.5,-145.5 219.5,-145.5 219.5,-145.5 181.5,-145.5"/>
<polygon fill="none" stroke="#666666" points="181.5,-129 181.5,-178 219.5,-178 219.5,-129 181.5,-129"/>
</a>
</g>
</g>
<!-- Node4&#45;&gt;Node1 -->
<g id="edge3_Node000001_Node000004" class="edge">
<title>Node4&#45;&gt;Node1</title>
<g id="a_edge3_Node000001_Node000004"><a xlink:title=" ">
<path fill="none" stroke="#63b8ff" d="M219.36,-128.65C233.49,-111.14 253.57,-87.03 272.5,-67 275.4,-63.93 278.48,-60.8 281.6,-57.71"/>
<polygon fill="none" stroke="#63b8ff" points="281.81,-57.51 283.33,-50.46 290.43,-49.16 288.9,-56.2 281.81,-57.51"/>
</a>
</g>
<text text-anchor="middle" x="292.5" y="-86.5" font-family="Helvetica,sans-Serif" font-size="10.00" fill="grey"> +name</text>
</g>
<!-- Node5 -->
<g id="Node000005" class="node">
<title>Node5</title>
<g id="a_Node000005"><a xlink:title=" ">
<polygon fill="white" stroke="transparent" points="395.5,-178 237.5,-178 237.5,-129 395.5,-129 395.5,-178"/>
<text text-anchor="start" x="242.5" y="-165.5" font-family="Helvetica,sans-Serif" font-size="10.00">optional&lt; msg::MarkerMeta &gt;</text>
<text text-anchor="start" x="314.5" y="-150.5" font-family="Helvetica,sans-Serif" font-size="10.00"> </text>
<text text-anchor="start" x="314.5" y="-135.5" font-family="Helvetica,sans-Serif" font-size="10.00"> </text>
<polygon fill="#666666" stroke="#666666" points="237.5,-160.5 237.5,-160.5 395.5,-160.5 395.5,-160.5 237.5,-160.5"/>
<polygon fill="#666666" stroke="#666666" points="237.5,-145.5 237.5,-145.5 395.5,-145.5 395.5,-145.5 237.5,-145.5"/>
<polygon fill="none" stroke="#666666" points="237.5,-129 237.5,-178 395.5,-178 395.5,-129 237.5,-129"/>
</a>
</g>
</g>
<!-- Node5&#45;&gt;Node1 -->
<g id="edge4_Node000001_Node000005" class="edge">
<title>Node5&#45;&gt;Node1</title>
<g id="a_edge4_Node000001_Node000005"><a xlink:title=" ">
<path fill="none" stroke="#63b8ff" d="M316.5,-128.91C316.5,-109.96 316.5,-83.04 316.5,-61.41"/>
<polygon fill="none" stroke="#63b8ff" points="316.5,-61.39 312.5,-55.39 316.5,-49.39 320.5,-55.39 316.5,-61.39"/>
</a>
</g>
<text text-anchor="middle" x="352" y="-86.5" font-family="Helvetica,sans-Serif" font-size="10.00" fill="grey"> +markerMeta</text>
</g>
<!-- Node6 -->
<g id="Node000006" class="node">
<title>Node6</title>
<g id="a_Node000006"><a xlink:title=" ">
<polygon fill="white" stroke="transparent" points="567,-178 414,-178 414,-129 567,-129 567,-178"/>
<text text-anchor="start" x="419.5" y="-165.5" font-family="Helvetica,sans-Serif" font-size="10.00">optional&lt; msg::BoardMeta &gt;</text>
<text text-anchor="start" x="489" y="-150.5" font-family="Helvetica,sans-Serif" font-size="10.00"> </text>
<text text-anchor="start" x="489" y="-135.5" font-family="Helvetica,sans-Serif" font-size="10.00"> </text>
<polygon fill="#666666" stroke="#666666" points="414.5,-160.5 414.5,-160.5 567.5,-160.5 567.5,-160.5 414.5,-160.5"/>
<polygon fill="#666666" stroke="#666666" points="414.5,-145.5 414.5,-145.5 567.5,-145.5 567.5,-145.5 414.5,-145.5"/>
<polygon fill="none" stroke="#666666" points="414,-129 414,-178 567,-178 567,-129 414,-129"/>
</a>
</g>
</g>
<!-- Node6&#45;&gt;Node1 -->
<g id="edge5_Node000001_Node000006" class="edge">
<title>Node6&#45;&gt;Node1</title>
<g id="a_edge5_Node000001_Node000006"><a xlink:title=" ">
<path fill="none" stroke="#63b8ff" d="M466.04,-128.84C446.69,-110.76 418.51,-85.83 391.5,-67 385.71,-62.97 379.5,-59 373.21,-55.22"/>
<polygon fill="none" stroke="#63b8ff" points="372.99,-55.09 365.8,-55.53 362.63,-49.05 369.82,-48.62 372.99,-55.09"/>
</a>
</g>
<text text-anchor="middle" x="475.5" y="-86.5" font-family="Helvetica,sans-Serif" font-size="10.00" fill="grey"> +boardMeta</text>
</g>
<!-- Node7 -->
<g id="Node000007" class="node">
<title>Node7</title>
<g id="a_Node000007"><a xlink:title=" ">
<polygon fill="white" stroke="transparent" points="683.5,-178 585.5,-178 585.5,-129 683.5,-129 683.5,-178"/>
<text text-anchor="start" x="590.5" y="-165.5" font-family="Helvetica,sans-Serif" font-size="10.00">vector&lt; uint8_t &gt;</text>
<text text-anchor="start" x="632.5" y="-150.5" font-family="Helvetica,sans-Serif" font-size="10.00"> </text>
<text text-anchor="start" x="632.5" y="-135.5" font-family="Helvetica,sans-Serif" font-size="10.00"> </text>
<polygon fill="#666666" stroke="#666666" points="585.5,-160.5 585.5,-160.5 683.5,-160.5 683.5,-160.5 585.5,-160.5"/>
<polygon fill="#666666" stroke="#666666" points="585.5,-145.5 585.5,-145.5 683.5,-145.5 683.5,-145.5 585.5,-145.5"/>
<polygon fill="none" stroke="#666666" points="585.5,-129 585.5,-178 683.5,-178 683.5,-129 585.5,-129"/>
</a>
</g>
</g>
<!-- Node7&#45;&gt;Node1 -->
<g id="edge6_Node000001_Node000007" class="edge">
<title>Node7&#45;&gt;Node1</title>
<g id="a_edge6_Node000001_Node000007"><a xlink:title=" ">
<path fill="none" stroke="#63b8ff" d="M607.11,-128.63C583.37,-109.19 547.3,-82.5 511.5,-67 475.69,-51.49 433.59,-41.6 397.7,-35.38"/>
<polygon fill="none" stroke="#63b8ff" points="397.62,-35.36 391.05,-38.33 385.78,-33.4 392.35,-30.44 397.62,-35.36"/>
</a>
</g>
<text text-anchor="middle" x="597.5" y="-86.5" font-family="Helvetica,sans-Serif" font-size="10.00" fill="grey"> +buf</text>
</g>
<!-- Node8 -->
<g id="Node000008" class="node">
<title>Node8</title>
<g id="a_Node000008"><a xlink:title=" ">
<polygon fill="white" stroke="transparent" points="733.5,-178 701.5,-178 701.5,-129 733.5,-129 733.5,-178"/>
<text text-anchor="start" x="706.5" y="-165.5" font-family="Helvetica,sans-Serif" font-size="10.00">bool</text>
<text text-anchor="start" x="715.5" y="-150.5" font-family="Helvetica,sans-Serif" font-size="10.00"> </text>
<text text-anchor="start" x="715.5" y="-135.5" font-family="Helvetica,sans-Serif" font-size="10.00"> </text>
<polygon fill="#666666" stroke="#666666" points="701.5,-160.5 701.5,-160.5 733.5,-160.5 733.5,-160.5 701.5,-160.5"/>
<polygon fill="#666666" stroke="#666666" points="701.5,-145.5 701.5,-145.5 733.5,-145.5 733.5,-145.5 701.5,-145.5"/>
<polygon fill="none" stroke="#666666" points="701.5,-129 701.5,-178 733.5,-178 733.5,-129 701.5,-129"/>
</a>
</g>
</g>
<!-- Node8&#45;&gt;Node1 -->
<g id="edge7_Node000001_Node000008" class="edge">
<title>Node8&#45;&gt;Node1</title>
<g id="a_edge7_Node000001_Node000008"><a xlink:title=" ">
<path fill="none" stroke="#63b8ff" d="M701.26,-133.5C682.75,-113.27 650.5,-82.12 615.5,-67 577.51,-50.58 472.57,-38.62 397.76,-31.87"/>
<polygon fill="none" stroke="#63b8ff" points="397.51,-31.85 391.18,-35.31 385.56,-30.79 391.89,-27.34 397.51,-31.85"/>
</a>
</g>
<text text-anchor="middle" x="727" y="-86.5" font-family="Helvetica,sans-Serif" font-size="10.00" fill="grey"> +commitRequested</text>
</g>
</g>
</svg>

<g id="navigator" transform="translate(0 0)" fill="#404254">
  <rect fill="#f2f5e9" fill-opacity="0.5" stroke="#606060" stroke-width=".5" x="0" y="0" width="60" height="60"/>
  <use id="zoomplus" xlink:href="#zoomPlus" x="17" y="9" onmousedown="handleZoom(evt,'in')"/>
  <use id="zoomminus" xlink:href="#zoomMin" x="42" y="9" onmousedown="handleZoom(evt,'out')"/>
  <use id="reset" xlink:href="#resetDef" x="30" y="36" onmousedown="handleReset()"/>
   <use id="arrowup" xlink:href="#arrowUp" x="0" y="0" onmousedown="handlePan(0,-1)"/>
  <use id="arrowright" xlink:href="#arrowRight" x="0" y="0" onmousedown="handlePan(1,0)"/>
  <use id="arrowdown" xlink:href="#arrowDown" x="0" y="0" onmousedown="handlePan(0,1)"/>
  <use id="arrowleft" xlink:href="#arrowLeft" x="0" y="0" onmousedown="handlePan(-1,0)"/>
</g>
<svg viewBox="0 0 15 15" width="100%" height="30px" preserveAspectRatio="xMaxYMin meet">
 <g id="arrow_out" transform="scale(0.3 0.3)">
  <a xlink:href="structPendingImage__coll__graph_org.svg" target="_base">
   <rect id="button" ry="5" rx="5" y="6" x="6" height="38" width="38"
        fill="#f2f5e9" fill-opacity="0.5" stroke="#606060" stroke-width="1.0"/>
   <path id="arrow"
     d="M 11.500037,31.436501 C 11.940474,20.09759 22.043105,11.32322 32.158766,21.979434 L 37.068811,17.246167 C 37.068811,17.246167 37.088388,32 37.088388,32 L 22.160133,31.978069 C 22.160133,31.978069 26.997745,27.140456 26.997745,27.140456 C 18.528582,18.264221 13.291696,25.230495 11.500037,31.436501 z"
     style="fill:#404040;"/>
  </a>
 </g>
</svg>

<style type='text/css'>
<![CDATA[
[data-mouse-over-selected='false'] { opacity: 0.7; }
[data-mouse-over-selected='true']  { opacity: 1.0; }
]]>
</style>
<script type="application/ecmascript"><![CDATA[
document.addEventListener('DOMContentLoaded', (event) => {
  highlightEdges();
  highlightAdjacentNodes();
});
]]></script>
</svg>
