<?xml version="1.0" encoding="UTF-8" standalone="no"?>
<!DOCTYPE svg PUBLIC "-//W3C//DTD SVG 1.1//EN"
 "http://www.w3.org/Graphics/SVG/1.1/DTD/svg11.dtd">
<!-- Generated by graphviz version 14.0.2 (20251019.1705)
 -->
<!-- Title: include/note_editor/MarkdownRenderer.h Pages: 1 -->
<svg width="409pt" height="96pt"
 viewBox="0.00 0.00 409.00 96.00" xmlns="http://www.w3.org/2000/svg" xmlns:xlink="http://www.w3.org/1999/xlink">
<g id="graph0" class="graph" transform="scale(1 1) rotate(0) translate(4 92)">
<title>include/note_editor/MarkdownRenderer.h</title>
<!-- Node1 -->
<g id="Node000001" class="node">
<title>Node1</title>
<g id="a_Node000001"><a xlink:title=" ">
<polygon fill="#999999" stroke="#666666" points="269.12,-88 157.12,-88 157.12,-56 269.12,-56 269.12,-88"/>
<text xml:space="preserve" text-anchor="start" x="165.12" y="-74.5" font-family="Helvetica,sans-Serif" font-size="10.00">include/note_editor</text>
<text xml:space="preserve" text-anchor="middle" x="213.12" y="-62.5" font-family="Helvetica,sans-Serif" font-size="10.00">/MarkdownRenderer.h</text>
</a>
</g>
</g>
<!-- Node2 -->
<g id="Node000002" class="node">
<title>Node2</title>
<g id="a_Node000002"><a xlink:title=" ">
<polygon fill="#e0e0e0" stroke="#999999" points="66.25,-20 0,-20 0,0 66.25,0 66.25,-20"/>
<text xml:space="preserve" text-anchor="middle" x="33.12" y="-6.5" font-family="Helvetica,sans-Serif" font-size="10.00">imgui_md.h</text>
</a>
</g>
</g>
<!-- Node1&#45;&gt;Node2 -->
<g id="edge1_Node000001_Node000002" class="edge">
<title>Node1&#45;&gt;Node2</title>
<g id="a_edge1_Node000001_Node000002"><a xlink:title=" ">
<path fill="none" stroke="#63b8ff" d="M166.77,-55.55C137.57,-45.81 100.27,-33.38 72.5,-24.13"/>
<polygon fill="#63b8ff" stroke="#63b8ff" points="73.64,-20.82 63.05,-20.97 71.43,-27.46 73.64,-20.82"/>
</a>
</g>
</g>
<!-- Node3 -->
<g id="Node000003" class="node">
<title>Node3</title>
<g id="a_Node000003"><a xlink:title=" ">
<polygon fill="#e0e0e0" stroke="#999999" points="142.12,-20 84.12,-20 84.12,0 142.12,0 142.12,-20"/>
<text xml:space="preserve" text-anchor="middle" x="113.12" y="-6.5" font-family="Helvetica,sans-Serif" font-size="10.00">functional</text>
</a>
</g>
</g>
<!-- Node1&#45;&gt;Node3 -->
<g id="edge2_Node000001_Node000003" class="edge">
<title>Node1&#45;&gt;Node3</title>
<g id="a_edge2_Node000001_Node000003"><a xlink:title=" ">
<path fill="none" stroke="#63b8ff" d="M187.37,-55.55C172.33,-46.52 153.42,-35.17 138.44,-26.19"/>
<polygon fill="#63b8ff" stroke="#63b8ff" points="140.48,-23.33 130.1,-21.19 136.88,-29.33 140.48,-23.33"/>
</a>
</g>
</g>
<!-- Node4 -->
<g id="Node000004" class="node">
<title>Node4</title>
<g id="a_Node000004"><a xlink:title=" ">
<polygon fill="#e0e0e0" stroke="#999999" points="200.12,-20 160.12,-20 160.12,0 200.12,0 200.12,-20"/>
<text xml:space="preserve" text-anchor="middle" x="180.12" y="-6.5" font-family="Helvetica,sans-Serif" font-size="10.00">string</text>
</a>
</g>
</g>
<!-- Node1&#45;&gt;Node4 -->
<g id="edge3_Node000001_Node000004" class="edge">
<title>Node1&#45;&gt;Node4</title>
<g id="a_edge3_Node000001_Node000004"><a xlink:title=" ">
<path fill="none" stroke="#63b8ff" d="M204.63,-55.55C200.43,-47.91 195.31,-38.61 190.84,-30.49"/>
<polygon fill="#63b8ff" stroke="#63b8ff" points="193.91,-28.81 186.03,-21.73 187.78,-32.18 193.91,-28.81"/>
</a>
</g>
</g>
<!-- Node5 -->
<g id="Node000005" class="node">
<title>Node5</title>
<g id="a_Node000005"><a xlink:title=" ">
<polygon fill="#e0e0e0" stroke="#999999" points="274,-20 218.25,-20 218.25,0 274,0 274,-20"/>
<text xml:space="preserve" text-anchor="middle" x="246.12" y="-6.5" font-family="Helvetica,sans-Serif" font-size="10.00">algorithm</text>
</a>
</g>
</g>
<!-- Node1&#45;&gt;Node5 -->
<g id="edge4_Node000001_Node000005" class="edge">
<title>Node1&#45;&gt;Node5</title>
<g id="a_edge4_Node000001_Node000005"><a xlink:title=" ">
<path fill="none" stroke="#63b8ff" d="M221.62,-55.55C225.82,-47.91 230.94,-38.61 235.41,-30.49"/>
<polygon fill="#63b8ff" stroke="#63b8ff" points="238.47,-32.18 240.22,-21.73 232.34,-28.81 238.47,-32.18"/>
</a>
</g>
</g>
<!-- Node6 -->
<g id="Node000006" class="node">
<title>Node6</title>
<g id="a_Node000006"><a xlink:title=" ">
<polygon fill="#e0e0e0" stroke="#999999" points="337.75,-20 292.5,-20 292.5,0 337.75,0 337.75,-20"/>
<text xml:space="preserve" text-anchor="middle" x="315.12" y="-6.5" font-family="Helvetica,sans-Serif" font-size="10.00">cctype</text>
</a>
</g>
</g>
<!-- Node1&#45;&gt;Node6 -->
<g id="edge5_Node000001_Node000006" class="edge">
<title>Node1&#45;&gt;Node6</title>
<g id="a_edge5_Node000001_Node000006"><a xlink:title=" ">
<path fill="none" stroke="#63b8ff" d="M239.39,-55.55C254.74,-46.52 274.03,-35.17 289.3,-26.19"/>
<polygon fill="#63b8ff" stroke="#63b8ff" points="290.98,-29.26 297.83,-21.18 287.43,-23.23 290.98,-29.26"/>
</a>
</g>
</g>
<!-- Node7 -->
<g id="Node000007" class="node">
<title>Node7</title>
<g id="a_Node000007"><a xlink:title=" ">
<polygon fill="#e0e0e0" stroke="#999999" points="400.75,-20 355.5,-20 355.5,0 400.75,0 400.75,-20"/>
<text xml:space="preserve" text-anchor="middle" x="378.12" y="-6.5" font-family="Helvetica,sans-Serif" font-size="10.00">cstring</text>
</a>
</g>
</g>
<!-- Node1&#45;&gt;Node7 -->
<g id="edge6_Node000001_Node000007" class="edge">
<title>Node1&#45;&gt;Node7</title>
<g id="a_edge6_Node000001_Node000007"><a xlink:title=" ">
<path fill="none" stroke="#63b8ff" d="M255.62,-55.55C283.23,-45.51 318.74,-32.6 344.41,-23.26"/>
<polygon fill="#63b8ff" stroke="#63b8ff" points="345.48,-26.6 353.68,-19.89 343.08,-20.02 345.48,-26.6"/>
</a>
</g>
</g>
</g>
</svg>
