<?xml version="1.0" encoding="UTF-8" standalone="no"?>
<!DOCTYPE svg PUBLIC "-//W3C//DTD SVG 1.1//EN"
 "http://www.w3.org/Graphics/SVG/1.1/DTD/svg11.dtd">
<!-- Generated by graphviz version 2.43.0 (0)
 -->
<!-- Title: Logger::LineToLoggerBuf::overflow Pages: 1 -->
<svg width="550pt" height="64pt"
 viewBox="0.00 0.00 550.00 64.00" xmlns="http://www.w3.org/2000/svg" xmlns:xlink="http://www.w3.org/1999/xlink">
<g id="graph0" class="graph" transform="scale(1 1) rotate(0) translate(4 60)">
<title>Logger::LineToLoggerBuf::overflow</title>
<!-- Node1 -->
<g id="Node000001" class="node">
<title>Node1</title>
<g id="a_Node000001"><a xlink:title=" ">
<polygon fill="#999999" stroke="#666666" points="183,-37 0,-37 0,-18 183,-18 183,-37"/>
<text text-anchor="middle" x="91.5" y="-25" font-family="Helvetica,sans-Serif" font-size="10.00">Logger::LineToLoggerBuf::overflow</text>
</a>
</g>
</g>
<!-- Node2 -->
<g id="Node000002" class="node">
<title>Node2</title>
<g id="a_Node000002"><a xlink:href="../../d1/dd5/classLogger_1_1LineToLoggerBuf.html#a65604209f9adb1e9adf47388212c7cf8" target="_top" xlink:title=" ">
<polygon fill="white" stroke="#666666" points="409,-56 219,-56 219,-37 409,-37 409,-56"/>
<text text-anchor="middle" x="314" y="-44" font-family="Helvetica,sans-Serif" font-size="10.00">Logger::LineToLoggerBuf::flushLine_</text>
</a>
</g>
</g>
<!-- Node1&#45;&gt;Node2 -->
<g id="edge1_Node000001_Node000002" class="edge">
<title>Node1&#45;&gt;Node2</title>
<g id="a_edge1_Node000001_Node000002"><a xlink:title=" ">
<path fill="none" stroke="#63b8ff" d="M183.14,-35.31C191.59,-36.04 200.2,-36.78 208.77,-37.52"/>
<polygon fill="#63b8ff" stroke="#63b8ff" points="208.52,-41.01 218.78,-38.38 209.12,-34.04 208.52,-41.01"/>
</a>
</g>
</g>
<!-- Node4 -->
<g id="Node000004" class="node">
<title>Node4</title>
<g id="a_Node000004"><a xlink:href="../../d1/dd5/classLogger_1_1LineToLoggerBuf.html#a9dd164184038b0f6a7d1b3926d228d30" target="_top" xlink:title=" ">
<polygon fill="white" stroke="#666666" points="396,-19 232,-19 232,0 396,0 396,-19"/>
<text text-anchor="middle" x="314" y="-7" font-family="Helvetica,sans-Serif" font-size="10.00">Logger::LineToLoggerBuf::sync</text>
</a>
</g>
</g>
<!-- Node1&#45;&gt;Node4 -->
<g id="edge3_Node000001_Node000004" class="edge">
<title>Node1&#45;&gt;Node4</title>
<g id="a_edge3_Node000001_Node000004"><a xlink:title=" ">
<path fill="none" stroke="#63b8ff" d="M183.14,-20.1C195.89,-19.06 209,-17.99 221.75,-16.95"/>
<polygon fill="#63b8ff" stroke="#63b8ff" points="222.21,-20.42 231.9,-16.12 221.65,-13.45 222.21,-20.42"/>
</a>
</g>
</g>
<!-- Node3 -->
<g id="Node000003" class="node">
<title>Node3</title>
<g id="a_Node000003"><a xlink:href="../../db/d67/classLogger.html#aebb248e608f8e2724de20b482cb2a15f" target="_top" xlink:title=" ">
<polygon fill="white" stroke="#666666" points="542,-37 445,-37 445,-18 542,-18 542,-37"/>
<text text-anchor="middle" x="493.5" y="-25" font-family="Helvetica,sans-Serif" font-size="10.00">Logger::instance</text>
</a>
</g>
</g>
<!-- Node2&#45;&gt;Node3 -->
<g id="edge2_Node000002_Node000003" class="edge">
<title>Node2&#45;&gt;Node3</title>
<g id="a_edge2_Node000002_Node000003"><a xlink:title=" ">
<path fill="none" stroke="#63b8ff" d="M404.01,-36.97C414.41,-35.86 424.81,-34.75 434.63,-33.7"/>
<polygon fill="#63b8ff" stroke="#63b8ff" points="435.06,-37.17 444.63,-32.62 434.31,-30.21 435.06,-37.17"/>
</a>
</g>
</g>
<!-- Node4&#45;&gt;Node3 -->
<g id="edge4_Node000004_Node000003" class="edge">
<title>Node4&#45;&gt;Node3</title>
<g id="a_edge4_Node000004_Node000003"><a xlink:title=" ">
<path fill="none" stroke="#63b8ff" d="M396.22,-17.74C409.2,-19.05 422.39,-20.39 434.68,-21.64"/>
<polygon fill="#63b8ff" stroke="#63b8ff" points="434.47,-25.13 444.77,-22.66 435.18,-18.17 434.47,-25.13"/>
</a>
</g>
</g>
</g>
</svg>
