<?xml version="1.0" encoding="UTF-8" standalone="no"?>
<!DOCTYPE svg PUBLIC "-//W3C//DTD SVG 1.1//EN"
 "http://www.w3.org/Graphics/SVG/1.1/DTD/svg11.dtd">
<!-- Generated by graphviz version 2.43.0 (0)
 -->
<!-- Title: NoteEditorUI Pages: 1 -->
<!--zoomable 944 -->

<svg id="main" version="1.1" xmlns="http://www.w3.org/2000/svg" xmlns:xlink="http://www.w3.org/1999/xlink" xml:space="preserve" onload="init(evt)">
<style type="text/css"><![CDATA[
.node, .edge {opacity: 0.7;}
.node.selected, .edge.selected {opacity: 1;}
.edge:hover path { stroke: red; }
.edge:hover polygon { stroke: red; fill: red; }
]]></style>

<defs>
  <circle id="rim" cx="0" cy="0" r="7"/>
  <circle id="rim2" cx="0" cy="0" r="3.5"/>
  <g id="zoomPlus">
    <use xlink:href="#rim" fill="#404040"><set attributeName="fill" to="#808080" begin="zoomplus.mouseover" end="zoomplus.mouseout"/></use>
    <path d="M-4,0h8M0,-4v8" fill="none" stroke="white" stroke-width="1.5" pointer-events="none"/>
  </g>
  <g id="zoomMin">
    <use xlink:href="#rim" fill="#404040"><set attributeName="fill" to="#808080" begin="zoomminus.mouseover" end="zoomminus.mouseout"/></use>
    <path d="M-4,0h8" fill="none" stroke="white" stroke-width="1.5" pointer-events="none"/>
  </g>
  <g id="arrowUp" transform="translate(30 24)">
    <use xlink:href="#rim"/>
    <path pointer-events="none" fill="none" stroke="white" stroke-width="1.5" d="M0,-3.0v7 M-2.5,-0.5L0,-3.0L2.5,-0.5"/>
  </g>
  <g id="arrowRight" transform="rotate(90) translate(36 -43)">
    <use xlink:href="#rim"/>
    <path pointer-events="none" fill="none" stroke="white" stroke-width="1.5" d="M0,-3.0v7 M-2.5,-0.5L0,-3.0L2.5,-0.5"/>
  </g>
  <g id="arrowDown" transform="rotate(180) translate(-30 -48)">
    <use xlink:href="#rim"/>
    <path pointer-events="none" fill="none" stroke="white" stroke-width="1.5" d="M0,-3.0v7 M-2.5,-0.5L0,-3.0L2.5,-0.5"/>
  </g>
  <g id="arrowLeft" transform="rotate(270) translate(-36 17)">
    <use xlink:href="#rim"/>
    <path pointer-events="none" fill="none" stroke="white" stroke-width="1.5" d="M0,-3.0v7 M-2.5,-0.5L0,-3.0L2.5,-0.5"/>
  </g>
  <g id="resetDef">
    <use xlink:href="#rim2" fill="#404040"><set attributeName="fill" to="#808080" begin="reset.mouseover" end="reset.mouseout"/></use>
  </g>
</defs>
<script type="application/ecmascript">
var viewWidth = 1358;
var viewHeight = 944;
var sectionId = 'dynsection-0';
</script>
<script type="application/ecmascript" xlink:href="../../svg.min.js"/>
<svg id="graph" class="graph">
<g id="viewport">
<title>NoteEditorUI</title>
<!-- Node1 -->
<g id="Node000001" class="node">
<title>Node1</title>
<g id="a_Node000001"><a xlink:title=" ">
<polygon fill="#999999" stroke="transparent" points="872.5,-521 667.5,-521 667.5,0 872.5,0 872.5,-521"/>
<text text-anchor="start" x="739" y="-508.5" font-family="Helvetica,sans-Serif" font-size="10.00">NoteEditorUI</text>
<text text-anchor="start" x="768.5" y="-493.5" font-family="Helvetica,sans-Serif" font-size="10.00"> </text>
<text text-anchor="start" x="672" y="-478.5" font-family="Helvetica,sans-Serif" font-size="10.00">+</text>
<text text-anchor="start" x="685" y="-478.5" font-family="Helvetica,sans-Serif" font-size="10.00">NoteEditorUI(std::shared_ptr</text>
<text text-anchor="start" x="685" y="-467.5" font-family="Helvetica,sans-Serif" font-size="10.00">&lt; NotesManager &gt; notes_manager,</text>
<text text-anchor="start" x="685" y="-456.5" font-family="Helvetica,sans-Serif" font-size="10.00"> std::shared_ptr&lt; ImGuiToaster</text>
<text text-anchor="start" x="685" y="-445.5" font-family="Helvetica,sans-Serif" font-size="10.00"> &gt; toaster)</text>
<text text-anchor="start" x="672" y="-430.5" font-family="Helvetica,sans-Serif" font-size="10.00">+</text>
<text text-anchor="start" x="685" y="-430.5" font-family="Helvetica,sans-Serif" font-size="10.00">void render()</text>
<text text-anchor="start" x="672" y="-415.5" font-family="Helvetica,sans-Serif" font-size="10.00">+</text>
<text text-anchor="start" x="685" y="-415.5" font-family="Helvetica,sans-Serif" font-size="10.00">void openNoteTab(const std</text>
<text text-anchor="start" x="685" y="-404.5" font-family="Helvetica,sans-Serif" font-size="10.00">::string &amp;uuid)</text>
<text text-anchor="start" x="672" y="-389.5" font-family="Helvetica,sans-Serif" font-size="10.00">+</text>
<text text-anchor="start" x="685" y="-389.5" font-family="Helvetica,sans-Serif" font-size="10.00">void setActiveTable(std::optional</text>
<text text-anchor="start" x="685" y="-378.5" font-family="Helvetica,sans-Serif" font-size="10.00">&lt; std::string &gt; tableName)</text>
<text text-anchor="start" x="672" y="-363.5" font-family="Helvetica,sans-Serif" font-size="10.00">+</text>
<text text-anchor="start" x="685" y="-363.5" font-family="Helvetica,sans-Serif" font-size="10.00">void setVisible(bool v)</text>
<text text-anchor="start" x="672" y="-348.5" font-family="Helvetica,sans-Serif" font-size="10.00">+</text>
<text text-anchor="start" x="685" y="-348.5" font-family="Helvetica,sans-Serif" font-size="10.00">bool isVisible() const</text>
<text text-anchor="start" x="672" y="-333.5" font-family="Helvetica,sans-Serif" font-size="10.00">+</text>
<text text-anchor="start" x="685" y="-333.5" font-family="Helvetica,sans-Serif" font-size="10.00">bool openTabByUuid(const std</text>
<text text-anchor="start" x="685" y="-322.5" font-family="Helvetica,sans-Serif" font-size="10.00">::string &amp;uuid)</text>
<text text-anchor="start" x="672" y="-307.5" font-family="Helvetica,sans-Serif" font-size="10.00">+</text>
<text text-anchor="start" x="685" y="-307.5" font-family="Helvetica,sans-Serif" font-size="10.00">void setChatManager(std::shared</text>
<text text-anchor="start" x="685" y="-296.5" font-family="Helvetica,sans-Serif" font-size="10.00">_ptr&lt; ChatManager &gt; chat_manager)</text>
<text text-anchor="start" x="674.5" y="-281.5" font-family="Helvetica,sans-Serif" font-size="10.00">&#45;</text>
<text text-anchor="start" x="685" y="-281.5" font-family="Helvetica,sans-Serif" font-size="10.00">void renderDirectory_(float height)</text>
<text text-anchor="start" x="674.5" y="-266.5" font-family="Helvetica,sans-Serif" font-size="10.00">&#45;</text>
<text text-anchor="start" x="685" y="-266.5" font-family="Helvetica,sans-Serif" font-size="10.00">void renderTabsArea_(float</text>
<text text-anchor="start" x="685" y="-255.5" font-family="Helvetica,sans-Serif" font-size="10.00"> width, float height)</text>
<text text-anchor="start" x="674.5" y="-240.5" font-family="Helvetica,sans-Serif" font-size="10.00">&#45;</text>
<text text-anchor="start" x="685" y="-240.5" font-family="Helvetica,sans-Serif" font-size="10.00">void renderOneTab_(const std</text>
<text text-anchor="start" x="685" y="-229.5" font-family="Helvetica,sans-Serif" font-size="10.00">::string &amp;uuid, float availW,</text>
<text text-anchor="start" x="685" y="-218.5" font-family="Helvetica,sans-Serif" font-size="10.00"> float availH)</text>
<text text-anchor="start" x="674.5" y="-203.5" font-family="Helvetica,sans-Serif" font-size="10.00">&#45;</text>
<text text-anchor="start" x="685" y="-203.5" font-family="Helvetica,sans-Serif" font-size="10.00">void actCreateNote_()</text>
<text text-anchor="start" x="674.5" y="-188.5" font-family="Helvetica,sans-Serif" font-size="10.00">&#45;</text>
<text text-anchor="start" x="685" y="-188.5" font-family="Helvetica,sans-Serif" font-size="10.00">void actSaveNote_(const std</text>
<text text-anchor="start" x="685" y="-177.5" font-family="Helvetica,sans-Serif" font-size="10.00">::string &amp;uuid)</text>
<text text-anchor="start" x="674.5" y="-162.5" font-family="Helvetica,sans-Serif" font-size="10.00">&#45;</text>
<text text-anchor="start" x="685" y="-162.5" font-family="Helvetica,sans-Serif" font-size="10.00">void actDeleteNote_(const std</text>
<text text-anchor="start" x="685" y="-151.5" font-family="Helvetica,sans-Serif" font-size="10.00">::string &amp;uuid)</text>
<text text-anchor="start" x="674.5" y="-136.5" font-family="Helvetica,sans-Serif" font-size="10.00">&#45;</text>
<text text-anchor="start" x="685" y="-136.5" font-family="Helvetica,sans-Serif" font-size="10.00">void actSaveInboxToLocal_(const</text>
<text text-anchor="start" x="685" y="-125.5" font-family="Helvetica,sans-Serif" font-size="10.00"> std::string &amp;uuid)</text>
<text text-anchor="start" x="674.5" y="-110.5" font-family="Helvetica,sans-Serif" font-size="10.00">&#45;</text>
<text text-anchor="start" x="685" y="-110.5" font-family="Helvetica,sans-Serif" font-size="10.00">void toggleOpenEditor_(const</text>
<text text-anchor="start" x="685" y="-99.5" font-family="Helvetica,sans-Serif" font-size="10.00"> std::string &amp;uuid)</text>
<text text-anchor="start" x="674.5" y="-84.5" font-family="Helvetica,sans-Serif" font-size="10.00">&#45;</text>
<text text-anchor="start" x="685" y="-84.5" font-family="Helvetica,sans-Serif" font-size="10.00">void addTabIfMissing_(const</text>
<text text-anchor="start" x="685" y="-73.5" font-family="Helvetica,sans-Serif" font-size="10.00"> std::string &amp;uuid)</text>
<text text-anchor="start" x="674.5" y="-58.5" font-family="Helvetica,sans-Serif" font-size="10.00">&#45;</text>
<text text-anchor="start" x="685" y="-58.5" font-family="Helvetica,sans-Serif" font-size="10.00">void openOrFocusTab(const std</text>
<text text-anchor="start" x="685" y="-47.5" font-family="Helvetica,sans-Serif" font-size="10.00">::string &amp;uuid)</text>
<text text-anchor="start" x="674.5" y="-32.5" font-family="Helvetica,sans-Serif" font-size="10.00">&#45;</text>
<text text-anchor="start" x="685" y="-32.5" font-family="Helvetica,sans-Serif" font-size="10.00">void closeTab_(int tabIndex)</text>
<text text-anchor="start" x="674.5" y="-17.5" font-family="Helvetica,sans-Serif" font-size="10.00">&#45;</text>
<text text-anchor="start" x="685" y="-17.5" font-family="Helvetica,sans-Serif" font-size="10.00">bool filterMatch_(const Note</text>
<text text-anchor="start" x="685" y="-6.5" font-family="Helvetica,sans-Serif" font-size="10.00"> &amp;n) const</text>
<polygon fill="#666666" stroke="#666666" points="668,-503.5 668,-503.5 873,-503.5 873,-503.5 668,-503.5"/>
<polygon fill="#666666" stroke="#666666" points="668,-488.5 668,-488.5 873,-488.5 873,-488.5 668,-488.5"/>
<polygon fill="none" stroke="#666666" points="667.5,0 667.5,-521 872.5,-521 872.5,0 667.5,0"/>
</a>
</g>
</g>
<!-- Node2 -->
<g id="Node000002" class="node">
<title>Node2</title>
<g id="a_Node000002"><a xlink:title=" ">
<polygon fill="white" stroke="transparent" points="156,-739.5 0,-739.5 0,-690.5 156,-690.5 156,-739.5"/>
<text text-anchor="start" x="5" y="-727" font-family="Helvetica,sans-Serif" font-size="10.00">shared_ptr&lt; NotesManager &gt;</text>
<text text-anchor="start" x="76" y="-712" font-family="Helvetica,sans-Serif" font-size="10.00"> </text>
<text text-anchor="start" x="76" y="-697" font-family="Helvetica,sans-Serif" font-size="10.00"> </text>
<polygon fill="#666666" stroke="#666666" points="0,-722 0,-722 156,-722 156,-722 0,-722"/>
<polygon fill="#666666" stroke="#666666" points="0,-707 0,-707 156,-707 156,-707 0,-707"/>
<polygon fill="none" stroke="#666666" points="0,-690.5 0,-739.5 156,-739.5 156,-690.5 0,-690.5"/>
</a>
</g>
</g>
<!-- Node2&#45;&gt;Node1 -->
<g id="edge1_Node000001_Node000002" class="edge">
<title>Node2&#45;&gt;Node1</title>
<g id="a_edge1_Node000001_Node000002"><a xlink:title=" ">
<path fill="none" stroke="#63b8ff" d="M90.35,-690.06C105.19,-663.09 132.22,-619.23 165,-590 314.15,-457 526.56,-357.6 655.96,-304.65"/>
<polygon fill="none" stroke="#63b8ff" points="656.33,-304.5 660.38,-298.53 667.45,-299.98 663.4,-305.94 656.33,-304.5"/>
</a>
</g>
<text text-anchor="middle" x="264.5" y="-553" font-family="Helvetica,sans-Serif" font-size="10.00" fill="grey"> &#45;notes_manager</text>
</g>
<!-- Node3 -->
<g id="Node000003" class="node">
<title>Node3</title>
<g id="a_Node000003"><a xlink:title=" ">
<polygon fill="white" stroke="transparent" points="323.5,-739.5 174.5,-739.5 174.5,-690.5 323.5,-690.5 323.5,-739.5"/>
<text text-anchor="start" x="180" y="-727" font-family="Helvetica,sans-Serif" font-size="10.00">shared_ptr&lt; ImGuiToaster &gt;</text>
<text text-anchor="start" x="247.5" y="-712" font-family="Helvetica,sans-Serif" font-size="10.00"> </text>
<text text-anchor="start" x="247.5" y="-697" font-family="Helvetica,sans-Serif" font-size="10.00"> </text>
<polygon fill="#666666" stroke="#666666" points="175,-722 175,-722 324,-722 324,-722 175,-722"/>
<polygon fill="#666666" stroke="#666666" points="175,-707 175,-707 324,-707 324,-707 175,-707"/>
<polygon fill="none" stroke="#666666" points="174.5,-690.5 174.5,-739.5 323.5,-739.5 323.5,-690.5 174.5,-690.5"/>
</a>
</g>
</g>
<!-- Node3&#45;&gt;Node1 -->
<g id="edge2_Node000001_Node000003" class="edge">
<title>Node3&#45;&gt;Node1</title>
<g id="a_edge2_Node000001_Node000003"><a xlink:title=" ">
<path fill="none" stroke="#63b8ff" d="M261.59,-690.37C276.3,-664.08 302.42,-621.21 332,-590 430.1,-486.49 563.66,-391.48 657.41,-330.55"/>
<polygon fill="none" stroke="#63b8ff" points="657.42,-330.55 660.29,-323.93 667.5,-324.03 664.63,-330.65 657.42,-330.55"/>
</a>
</g>
<text text-anchor="middle" x="396.5" y="-553" font-family="Helvetica,sans-Serif" font-size="10.00" fill="grey"> &#45;toaster_</text>
</g>
<!-- Node4 -->
<g id="Node000004" class="node">
<title>Node4</title>
<g id="a_Node000004"><a xlink:title=" ">
<polygon fill="white" stroke="transparent" points="491,-739.5 341,-739.5 341,-690.5 491,-690.5 491,-739.5"/>
<text text-anchor="start" x="346" y="-727" font-family="Helvetica,sans-Serif" font-size="10.00">shared_ptr&lt; ChatManager &gt;</text>
<text text-anchor="start" x="414" y="-712" font-family="Helvetica,sans-Serif" font-size="10.00"> </text>
<text text-anchor="start" x="414" y="-697" font-family="Helvetica,sans-Serif" font-size="10.00"> </text>
<polygon fill="#666666" stroke="#666666" points="341,-722 341,-722 491,-722 491,-722 341,-722"/>
<polygon fill="#666666" stroke="#666666" points="341,-707 341,-707 491,-707 491,-707 341,-707"/>
<polygon fill="none" stroke="#666666" points="341,-690.5 341,-739.5 491,-739.5 491,-690.5 341,-690.5"/>
</a>
</g>
</g>
<!-- Node4&#45;&gt;Node1 -->
<g id="edge3_Node000001_Node000004" class="edge">
<title>Node4&#45;&gt;Node1</title>
<g id="a_edge3_Node000001_Node000004"><a xlink:title=" ">
<path fill="none" stroke="#63b8ff" d="M431.4,-690.41C447.95,-665.26 475.23,-624.39 500,-590 549.55,-521.2 608.99,-448.01 659.47,-388.22"/>
<polygon fill="none" stroke="#63b8ff" points="659.73,-387.9 660.56,-380.73 667.49,-378.74 666.66,-385.9 659.73,-387.9"/>
</a>
</g>
<text text-anchor="middle" x="572.5" y="-553" font-family="Helvetica,sans-Serif" font-size="10.00" fill="grey"> &#45;chat_manager</text>
</g>
<!-- Node5 -->
<g id="Node000005" class="node">
<title>Node5</title>
<g id="a_Node000005"><a xlink:href="../../de/d26/classMarkdownRenderer.html" target="_top" xlink:title=" ">
<polygon fill="white" stroke="transparent" points="685.5,-840 508.5,-840 508.5,-590 685.5,-590 685.5,-840"/>
<text text-anchor="start" x="549.5" y="-828" font-family="Helvetica,sans-Serif" font-size="10.00">MarkdownRenderer</text>
<text text-anchor="start" x="595.5" y="-813" font-family="Helvetica,sans-Serif" font-size="10.00"> </text>
<text text-anchor="start" x="513" y="-798" font-family="Helvetica,sans-Serif" font-size="10.00">+</text>
<text text-anchor="start" x="526" y="-798" font-family="Helvetica,sans-Serif" font-size="10.00">MarkdownRenderer()=default</text>
<text text-anchor="start" x="513" y="-783" font-family="Helvetica,sans-Serif" font-size="10.00">+</text>
<text text-anchor="start" x="526" y="-783" font-family="Helvetica,sans-Serif" font-size="10.00">void open_url() const override</text>
<text text-anchor="start" x="513" y="-768" font-family="Helvetica,sans-Serif" font-size="10.00">+</text>
<text text-anchor="start" x="526" y="-768" font-family="Helvetica,sans-Serif" font-size="10.00">void soft_break() override</text>
<text text-anchor="start" x="513" y="-753" font-family="Helvetica,sans-Serif" font-size="10.00">+</text>
<text text-anchor="start" x="526" y="-753" font-family="Helvetica,sans-Serif" font-size="10.00">static void openDefaultBrowser</text>
<text text-anchor="start" x="526" y="-742" font-family="Helvetica,sans-Serif" font-size="10.00">_(const std::string &amp;url)</text>
<text text-anchor="start" x="515.5" y="-727" font-family="Helvetica,sans-Serif" font-size="10.00">&#45;</text>
<text text-anchor="start" x="526" y="-727" font-family="Helvetica,sans-Serif" font-size="10.00">Parsed parseHref_(const std</text>
<text text-anchor="start" x="526" y="-716" font-family="Helvetica,sans-Serif" font-size="10.00">::string &amp;href) const</text>
<text text-anchor="start" x="515.5" y="-701" font-family="Helvetica,sans-Serif" font-size="10.00">&#45;</text>
<text text-anchor="start" x="526" y="-701" font-family="Helvetica,sans-Serif" font-size="10.00">std::string resolveNote_(const</text>
<text text-anchor="start" x="526" y="-690" font-family="Helvetica,sans-Serif" font-size="10.00"> std::string &amp;ref) const</text>
<text text-anchor="start" x="515.5" y="-675" font-family="Helvetica,sans-Serif" font-size="10.00">&#45;</text>
<text text-anchor="start" x="526" y="-675" font-family="Helvetica,sans-Serif" font-size="10.00">static bool startsWith_(const</text>
<text text-anchor="start" x="526" y="-664" font-family="Helvetica,sans-Serif" font-size="10.00"> std::string &amp;s, const char *pref)</text>
<text text-anchor="start" x="515.5" y="-649" font-family="Helvetica,sans-Serif" font-size="10.00">&#45;</text>
<text text-anchor="start" x="526" y="-649" font-family="Helvetica,sans-Serif" font-size="10.00">static bool looksLikeUuid_</text>
<text text-anchor="start" x="526" y="-638" font-family="Helvetica,sans-Serif" font-size="10.00">(const std::string &amp;s)</text>
<text text-anchor="start" x="515.5" y="-623" font-family="Helvetica,sans-Serif" font-size="10.00">&#45;</text>
<text text-anchor="start" x="526" y="-623" font-family="Helvetica,sans-Serif" font-size="10.00">static bool looksLikeShortId</text>
<text text-anchor="start" x="526" y="-612" font-family="Helvetica,sans-Serif" font-size="10.00">_(const std::string &amp;s)</text>
<text text-anchor="start" x="515.5" y="-597" font-family="Helvetica,sans-Serif" font-size="10.00">&#45;</text>
<text text-anchor="start" x="526" y="-597" font-family="Helvetica,sans-Serif" font-size="10.00">static bool isHex_(char c)</text>
<polygon fill="#666666" stroke="#666666" points="509,-823 509,-823 686,-823 686,-823 509,-823"/>
<polygon fill="#666666" stroke="#666666" points="509,-808 509,-808 686,-808 686,-808 509,-808"/>
<polygon fill="none" stroke="#666666" points="508.5,-590 508.5,-840 685.5,-840 685.5,-590 508.5,-590"/>
</a>
</g>
</g>
<!-- Node5&#45;&gt;Node1 -->
<g id="edge4_Node000001_Node000005" class="edge">
<title>Node5&#45;&gt;Node1</title>
<g id="a_edge4_Node000001_Node000005"><a xlink:title=" ">
<path fill="none" stroke="#63b8ff" d="M615.99,-589.55C619.9,-572.37 624.54,-555.1 630,-539 639.06,-512.27 650.26,-484.89 662.35,-458.23"/>
<polygon fill="none" stroke="#63b8ff" points="662.38,-458.15 661.25,-451.03 667.39,-447.25 668.52,-454.37 662.38,-458.15"/>
</a>
</g>
<text text-anchor="middle" x="644" y="-553" font-family="Helvetica,sans-Serif" font-size="10.00" fill="grey"> &#45;md_</text>
</g>
<!-- Node6 -->
<g id="Node000006" class="node">
<title>Node6</title>
<g id="a_Node000006"><a xlink:href="../../d7/ddd/classimgui__md.html" target="_top" xlink:title=" ">
<polygon fill="white" stroke="transparent" points="433.5,-936 374.5,-936 374.5,-887 433.5,-887 433.5,-936"/>
<text text-anchor="start" x="380" y="-923.5" font-family="Helvetica,sans-Serif" font-size="10.00">imgui_md</text>
<text text-anchor="start" x="402.5" y="-908.5" font-family="Helvetica,sans-Serif" font-size="10.00"> </text>
<text text-anchor="start" x="402.5" y="-893.5" font-family="Helvetica,sans-Serif" font-size="10.00"> </text>
<polygon fill="#666666" stroke="#666666" points="375,-918.5 375,-918.5 434,-918.5 434,-918.5 375,-918.5"/>
<polygon fill="#666666" stroke="#666666" points="375,-903.5 375,-903.5 434,-903.5 434,-903.5 375,-903.5"/>
<polygon fill="none" stroke="#666666" points="374.5,-887 374.5,-936 433.5,-936 433.5,-887 374.5,-887"/>
</a>
</g>
</g>
<!-- Node6&#45;&gt;Node5 -->
<g id="edge5_Node000005_Node000006" class="edge">
<title>Node6&#45;&gt;Node5</title>
<g id="a_edge5_Node000005_Node000006"><a xlink:title=" ">
<path fill="none" stroke="#63b8ff" d="M442.47,-885.85C460.82,-873.22 482.53,-856.95 500,-840 502.84,-837.24 505.68,-834.4 508.49,-831.48"/>
<polygon fill="none" stroke="#63b8ff" points="440.08,-883.24 433.76,-891.75 444.01,-889.04 440.08,-883.24"/>
</a>
</g>
</g>
<!-- Node7 -->
<g id="Node000007" class="node">
<title>Node7</title>
<g id="a_Node000007"><a xlink:title=" ">
<polygon fill="white" stroke="transparent" points="516.5,-936 451.5,-936 451.5,-887 516.5,-887 516.5,-936"/>
<text text-anchor="start" x="457" y="-923.5" font-family="Helvetica,sans-Serif" font-size="10.00">string &amp;url)</text>
<text text-anchor="start" x="482.5" y="-908.5" font-family="Helvetica,sans-Serif" font-size="10.00"> </text>
<text text-anchor="start" x="482.5" y="-893.5" font-family="Helvetica,sans-Serif" font-size="10.00"> </text>
<polygon fill="#666666" stroke="#666666" points="452,-918.5 452,-918.5 517,-918.5 517,-918.5 452,-918.5"/>
<polygon fill="#666666" stroke="#666666" points="452,-903.5 452,-903.5 517,-903.5 517,-903.5 452,-903.5"/>
<polygon fill="none" stroke="#666666" points="451.5,-887 451.5,-936 516.5,-936 516.5,-887 451.5,-887"/>
</a>
</g>
</g>
<!-- Node7&#45;&gt;Node5 -->
<g id="edge6_Node000005_Node000007" class="edge">
<title>Node7&#45;&gt;Node5</title>
<g id="a_edge6_Node000005_Node000007"><a xlink:title=" ">
<path fill="none" stroke="#63b8ff" d="M486.26,-886.85C487.71,-877.58 490.1,-867.03 494,-858 496.6,-851.97 499.5,-845.95 502.62,-839.98"/>
<polygon fill="none" stroke="#63b8ff" points="502.71,-839.82 502.08,-832.64 508.47,-829.3 509.1,-836.48 502.71,-839.82"/>
</a>
</g>
<text text-anchor="middle" x="539" y="-861" font-family="Helvetica,sans-Serif" font-size="10.00" fill="grey"> +onOpenExternal</text>
</g>
<!-- Node8 -->
<g id="Node000008" class="node">
<title>Node8</title>
<g id="a_Node000008"><a xlink:title=" ">
<polygon fill="white" stroke="transparent" points="623,-936 549,-936 549,-887 623,-887 623,-936"/>
<text text-anchor="start" x="554" y="-923.5" font-family="Helvetica,sans-Serif" font-size="10.00">string &amp;expr)</text>
<text text-anchor="start" x="584" y="-908.5" font-family="Helvetica,sans-Serif" font-size="10.00"> </text>
<text text-anchor="start" x="584" y="-893.5" font-family="Helvetica,sans-Serif" font-size="10.00"> </text>
<polygon fill="#666666" stroke="#666666" points="549,-918.5 549,-918.5 623,-918.5 623,-918.5 549,-918.5"/>
<polygon fill="#666666" stroke="#666666" points="549,-903.5 549,-903.5 623,-903.5 623,-903.5 549,-903.5"/>
<polygon fill="none" stroke="#666666" points="549,-887 549,-936 623,-936 623,-887 549,-887"/>
</a>
</g>
</g>
<!-- Node8&#45;&gt;Node5 -->
<g id="edge7_Node000005_Node000008" class="edge">
<title>Node8&#45;&gt;Node5</title>
<g id="a_edge7_Node000005_Node000008"><a xlink:title=" ">
<path fill="none" stroke="#63b8ff" d="M587.35,-886.65C587.89,-877.1 588.56,-865.29 589.29,-852.37"/>
<polygon fill="none" stroke="#63b8ff" points="589.3,-852.21 585.64,-845.99 589.97,-840.23 593.63,-846.45 589.3,-852.21"/>
</a>
</g>
<text text-anchor="middle" x="609.5" y="-861" font-family="Helvetica,sans-Serif" font-size="10.00" fill="grey"> +onRoll</text>
</g>
<!-- Node9 -->
<g id="Node000009" class="node">
<title>Node9</title>
<g id="a_Node000009"><a xlink:title=" ">
<polygon fill="white" stroke="transparent" points="715,-936 641,-936 641,-887 715,-887 715,-936"/>
<text text-anchor="start" x="646" y="-923.5" font-family="Helvetica,sans-Serif" font-size="10.00">string &amp;uuid)</text>
<text text-anchor="start" x="676" y="-908.5" font-family="Helvetica,sans-Serif" font-size="10.00"> </text>
<text text-anchor="start" x="676" y="-893.5" font-family="Helvetica,sans-Serif" font-size="10.00"> </text>
<polygon fill="#666666" stroke="#666666" points="641,-918.5 641,-918.5 715,-918.5 715,-918.5 641,-918.5"/>
<polygon fill="#666666" stroke="#666666" points="641,-903.5 641,-903.5 715,-903.5 715,-903.5 641,-903.5"/>
<polygon fill="none" stroke="#666666" points="641,-887 641,-936 715,-936 715,-887 641,-887"/>
</a>
</g>
</g>
<!-- Node9&#45;&gt;Node5 -->
<g id="edge8_Node000005_Node000009" class="edge">
<title>Node9&#45;&gt;Node5</title>
<g id="a_edge8_Node000005_Node000009"><a xlink:title=" ">
<path fill="none" stroke="#63b8ff" d="M668.07,-886.65C664.01,-876.9 658.97,-864.8 653.46,-851.58"/>
<polygon fill="none" stroke="#63b8ff" points="653.35,-851.31 647.35,-847.31 648.74,-840.23 654.73,-844.23 653.35,-851.31"/>
</a>
</g>
<text text-anchor="middle" x="696.5" y="-861" font-family="Helvetica,sans-Serif" font-size="10.00" fill="grey"> +onNoteOpen</text>
</g>
<!-- Node10 -->
<g id="Node000010" class="node">
<title>Node10</title>
<g id="a_Node000010"><a xlink:title=" ">
<polygon fill="white" stroke="transparent" points="802,-936 736,-936 736,-887 802,-887 802,-936"/>
<text text-anchor="start" x="741" y="-923.5" font-family="Helvetica,sans-Serif" font-size="10.00">string &amp;ref)</text>
<text text-anchor="start" x="767" y="-908.5" font-family="Helvetica,sans-Serif" font-size="10.00"> </text>
<text text-anchor="start" x="767" y="-893.5" font-family="Helvetica,sans-Serif" font-size="10.00"> </text>
<polygon fill="#666666" stroke="#666666" points="736,-918.5 736,-918.5 802,-918.5 802,-918.5 736,-918.5"/>
<polygon fill="#666666" stroke="#666666" points="736,-903.5 736,-903.5 802,-903.5 802,-903.5 736,-903.5"/>
<polygon fill="none" stroke="#666666" points="736,-887 736,-936 802,-936 802,-887 736,-887"/>
</a>
</g>
</g>
<!-- Node10&#45;&gt;Node5 -->
<g id="edge9_Node000005_Node000010" class="edge">
<title>Node10&#45;&gt;Node5</title>
<g id="a_edge9_Node000005_Node000010"><a xlink:title=" ">
<path fill="none" stroke="#63b8ff" d="M758.62,-886.75C753.33,-876.81 746.07,-865.79 737,-858 723.62,-846.5 713.79,-850.65 695.83,-840.2"/>
<polygon fill="none" stroke="#63b8ff" points="695.55,-840.01 688.34,-839.93 685.64,-833.25 692.85,-833.32 695.55,-840.01"/>
</a>
</g>
<text text-anchor="middle" x="791" y="-861" font-family="Helvetica,sans-Serif" font-size="10.00" fill="grey"> +resolveNoteRef</text>
</g>
<!-- Node11 -->
<g id="Node000011" class="node">
<title>Node11</title>
<g id="a_Node000011"><a xlink:title=" ">
<polygon fill="white" stroke="transparent" points="735,-739.5 703,-739.5 703,-690.5 735,-690.5 735,-739.5"/>
<text text-anchor="start" x="708" y="-727" font-family="Helvetica,sans-Serif" font-size="10.00">bool</text>
<text text-anchor="start" x="717" y="-712" font-family="Helvetica,sans-Serif" font-size="10.00"> </text>
<text text-anchor="start" x="717" y="-697" font-family="Helvetica,sans-Serif" font-size="10.00"> </text>
<polygon fill="#666666" stroke="#666666" points="703,-722 703,-722 735,-722 735,-722 703,-722"/>
<polygon fill="#666666" stroke="#666666" points="703,-707 703,-707 735,-707 735,-707 703,-707"/>
<polygon fill="none" stroke="#666666" points="703,-690.5 703,-739.5 735,-739.5 735,-690.5 703,-690.5"/>
</a>
</g>
</g>
<!-- Node11&#45;&gt;Node1 -->
<g id="edge10_Node000001_Node000011" class="edge">
<title>Node11&#45;&gt;Node1</title>
<g id="a_edge10_Node000001_Node000011"><a xlink:title=" ">
<path fill="none" stroke="#63b8ff" d="M719.85,-690.39C719.66,-663.74 715.77,-620.16 695,-590 686.39,-577.51 673.37,-585.26 666,-572 658.87,-559.18 663.38,-553.43 666,-539 666.37,-536.96 666.76,-534.91 667.15,-532.85"/>
<polygon fill="none" stroke="#63b8ff" points="667.16,-532.81 664.45,-526.13 669.58,-521.06 672.29,-527.74 667.16,-532.81"/>
</a>
</g>
<text text-anchor="middle" x="716" y="-564" font-family="Helvetica,sans-Serif" font-size="10.00" fill="grey"> &#45;showCreatePopup_</text>
<text text-anchor="middle" x="716" y="-553" font-family="Helvetica,sans-Serif" font-size="10.00" fill="grey">&#45;showDeletePopup_</text>
<text text-anchor="middle" x="716" y="-542" font-family="Helvetica,sans-Serif" font-size="10.00" fill="grey">&#45;visible_</text>
</g>
<!-- Node12 -->
<g id="Node000012" class="node">
<title>Node12</title>
<g id="a_Node000012"><a xlink:title=" ">
<polygon fill="white" stroke="transparent" points="786,-739.5 754,-739.5 754,-690.5 786,-690.5 786,-739.5"/>
<text text-anchor="start" x="759" y="-727" font-family="Helvetica,sans-Serif" font-size="10.00">float</text>
<text text-anchor="start" x="768" y="-712" font-family="Helvetica,sans-Serif" font-size="10.00"> </text>
<text text-anchor="start" x="768" y="-697" font-family="Helvetica,sans-Serif" font-size="10.00"> </text>
<polygon fill="#666666" stroke="#666666" points="754,-722 754,-722 786,-722 786,-722 754,-722"/>
<polygon fill="#666666" stroke="#666666" points="754,-707 754,-707 786,-707 786,-707 754,-707"/>
<polygon fill="none" stroke="#666666" points="754,-690.5 754,-739.5 786,-739.5 786,-690.5 754,-690.5"/>
</a>
</g>
</g>
<!-- Node12&#45;&gt;Node1 -->
<g id="edge11_Node000001_Node000012" class="edge">
<title>Node12&#45;&gt;Node1</title>
<g id="a_edge11_Node000001_Node000012"><a xlink:title=" ">
<path fill="none" stroke="#63b8ff" d="M770,-690.31C770,-658.55 770,-598.57 770,-533.32"/>
<polygon fill="none" stroke="#63b8ff" points="770,-533.08 766,-527.08 770,-521.08 774,-527.08 770,-533.08"/>
</a>
</g>
<text text-anchor="middle" x="798.5" y="-553" font-family="Helvetica,sans-Serif" font-size="10.00" fill="grey"> &#45;leftWidth_</text>
</g>
<!-- Node13 -->
<g id="Node000013" class="node">
<title>Node13</title>
<g id="a_Node000013"><a xlink:title=" ">
<polygon fill="white" stroke="transparent" points="869,-739.5 831,-739.5 831,-690.5 869,-690.5 869,-739.5"/>
<text text-anchor="start" x="836" y="-727" font-family="Helvetica,sans-Serif" font-size="10.00">string</text>
<text text-anchor="start" x="848" y="-712" font-family="Helvetica,sans-Serif" font-size="10.00"> </text>
<text text-anchor="start" x="848" y="-697" font-family="Helvetica,sans-Serif" font-size="10.00"> </text>
<polygon fill="#666666" stroke="#666666" points="831,-722 831,-722 869,-722 869,-722 831,-722"/>
<polygon fill="#666666" stroke="#666666" points="831,-707 831,-707 869,-707 869,-707 831,-707"/>
<polygon fill="none" stroke="#666666" points="831,-690.5 831,-739.5 869,-739.5 869,-690.5 831,-690.5"/>
</a>
</g>
</g>
<!-- Node13&#45;&gt;Node1 -->
<g id="edge12_Node000001_Node000013" class="edge">
<title>Node13&#45;&gt;Node1</title>
<g id="a_edge12_Node000001_Node000013"><a xlink:title=" ">
<path fill="none" stroke="#63b8ff" d="M847.65,-690.42C844.15,-656.72 837.01,-592.91 828,-539 827.68,-537.09 827.36,-535.17 827.03,-533.25"/>
<polygon fill="none" stroke="#63b8ff" points="827.02,-533.18 822.06,-527.94 824.98,-521.35 829.94,-526.58 827.02,-533.18"/>
</a>
</g>
<text text-anchor="middle" x="885" y="-553" font-family="Helvetica,sans-Serif" font-size="10.00" fill="grey"> &#45;pendingDeleteUuid_</text>
</g>
<!-- Node14 -->
<g id="Node000014" class="node">
<title>Node14</title>
<g id="a_Node000014"><a xlink:title=" ">
<polygon fill="white" stroke="transparent" points="995,-739.5 963,-739.5 963,-690.5 995,-690.5 995,-739.5"/>
<text text-anchor="start" x="968" y="-727" font-family="Helvetica,sans-Serif" font-size="10.00">char</text>
<text text-anchor="start" x="977" y="-712" font-family="Helvetica,sans-Serif" font-size="10.00"> </text>
<text text-anchor="start" x="977" y="-697" font-family="Helvetica,sans-Serif" font-size="10.00"> </text>
<polygon fill="#666666" stroke="#666666" points="963,-722 963,-722 995,-722 995,-722 963,-722"/>
<polygon fill="#666666" stroke="#666666" points="963,-707 963,-707 995,-707 995,-707 963,-707"/>
<polygon fill="none" stroke="#666666" points="963,-690.5 963,-739.5 995,-739.5 995,-690.5 963,-690.5"/>
</a>
</g>
</g>
<!-- Node14&#45;&gt;Node1 -->
<g id="edge13_Node000001_Node000014" class="edge">
<title>Node14&#45;&gt;Node1</title>
<g id="a_edge13_Node000001_Node000014"><a xlink:title=" ">
<path fill="none" stroke="#63b8ff" d="M976.62,-690.32C972.6,-655.95 962.76,-590.73 942,-539 925.29,-497.35 902.46,-454.92 878.9,-416.18"/>
<polygon fill="none" stroke="#63b8ff" points="878.85,-416.1 872.3,-413.09 872.57,-405.88 879.12,-408.9 878.85,-416.1"/>
</a>
</g>
<text text-anchor="middle" x="991" y="-564" font-family="Helvetica,sans-Serif" font-size="10.00" fill="grey"> &#45;createAuthor_</text>
<text text-anchor="middle" x="991" y="-553" font-family="Helvetica,sans-Serif" font-size="10.00" fill="grey">&#45;createTitle_</text>
<text text-anchor="middle" x="991" y="-542" font-family="Helvetica,sans-Serif" font-size="10.00" fill="grey">&#45;searchBuf_</text>
</g>
<!-- Node15 -->
<g id="Node000015" class="node">
<title>Node15</title>
<g id="a_Node000015"><a xlink:title=" ">
<polygon fill="white" stroke="transparent" points="1133.5,-739.5 1020.5,-739.5 1020.5,-690.5 1133.5,-690.5 1133.5,-739.5"/>
<text text-anchor="start" x="1026" y="-727" font-family="Helvetica,sans-Serif" font-size="10.00">vector&lt; std::string &gt;</text>
<text text-anchor="start" x="1075.5" y="-712" font-family="Helvetica,sans-Serif" font-size="10.00"> </text>
<text text-anchor="start" x="1075.5" y="-697" font-family="Helvetica,sans-Serif" font-size="10.00"> </text>
<polygon fill="#666666" stroke="#666666" points="1021,-722 1021,-722 1134,-722 1134,-722 1021,-722"/>
<polygon fill="#666666" stroke="#666666" points="1021,-707 1021,-707 1134,-707 1134,-707 1021,-707"/>
<polygon fill="none" stroke="#666666" points="1020.5,-690.5 1020.5,-739.5 1133.5,-739.5 1133.5,-690.5 1020.5,-690.5"/>
</a>
</g>
</g>
<!-- Node15&#45;&gt;Node1 -->
<g id="edge14_Node000001_Node000015" class="edge">
<title>Node15&#45;&gt;Node1</title>
<g id="a_edge14_Node000001_Node000015"><a xlink:title=" ">
<path fill="none" stroke="#63b8ff" d="M1074.88,-690.25C1070.94,-655.23 1060.23,-588.56 1033,-539 994.78,-469.44 934.88,-404.31 881.89,-354.66"/>
<polygon fill="none" stroke="#63b8ff" points="881.57,-354.36 874.45,-353.21 872.77,-346.2 879.89,-347.34 881.57,-354.36"/>
</a>
</g>
<text text-anchor="middle" x="1076" y="-553" font-family="Helvetica,sans-Serif" font-size="10.00" fill="grey"> &#45;openTabs_</text>
</g>
<!-- Node16 -->
<g id="Node000016" class="node">
<title>Node16</title>
<g id="a_Node000016"><a xlink:title=" ">
<polygon fill="white" stroke="transparent" points="1174.5,-739.5 1151.5,-739.5 1151.5,-690.5 1174.5,-690.5 1174.5,-739.5"/>
<text text-anchor="start" x="1157" y="-727" font-family="Helvetica,sans-Serif" font-size="10.00">int</text>
<text text-anchor="start" x="1161.5" y="-712" font-family="Helvetica,sans-Serif" font-size="10.00"> </text>
<text text-anchor="start" x="1161.5" y="-697" font-family="Helvetica,sans-Serif" font-size="10.00"> </text>
<polygon fill="#666666" stroke="#666666" points="1152,-722 1152,-722 1175,-722 1175,-722 1152,-722"/>
<polygon fill="#666666" stroke="#666666" points="1152,-707 1152,-707 1175,-707 1175,-707 1152,-707"/>
<polygon fill="none" stroke="#666666" points="1151.5,-690.5 1151.5,-739.5 1174.5,-739.5 1174.5,-690.5 1151.5,-690.5"/>
</a>
</g>
</g>
<!-- Node16&#45;&gt;Node1 -->
<g id="edge15_Node000001_Node000016" class="edge">
<title>Node16&#45;&gt;Node1</title>
<g id="a_edge15_Node000001_Node000016"><a xlink:title=" ">
<path fill="none" stroke="#63b8ff" d="M1162.17,-690.36C1160.6,-664.82 1156.06,-623.29 1143,-590 1133.05,-564.64 1127.3,-559.18 1109,-539 1041.06,-464.06 952.22,-392.09 882.53,-340.23"/>
<polygon fill="none" stroke="#63b8ff" points="882.47,-340.18 875.27,-339.83 872.83,-333.04 880.03,-333.4 882.47,-340.18"/>
</a>
</g>
<text text-anchor="middle" x="1179.5" y="-553" font-family="Helvetica,sans-Serif" font-size="10.00" fill="grey"> &#45;currentTabIndex_</text>
</g>
<!-- Node17 -->
<g id="Node000017" class="node">
<title>Node17</title>
<g id="a_Node000017"><a xlink:title=" ">
<polygon fill="white" stroke="transparent" points="1350,-745 1200,-745 1200,-685 1350,-685 1350,-745"/>
<text text-anchor="start" x="1205" y="-733" font-family="Helvetica,sans-Serif" font-size="10.00">unordered_map&lt; std::string,</text>
<text text-anchor="start" x="1212.5" y="-722" font-family="Helvetica,sans-Serif" font-size="10.00"> NoteEditorUI::TabState &gt;</text>
<text text-anchor="start" x="1273" y="-707" font-family="Helvetica,sans-Serif" font-size="10.00"> </text>
<text text-anchor="start" x="1273" y="-692" font-family="Helvetica,sans-Serif" font-size="10.00"> </text>
<polygon fill="#666666" stroke="#666666" points="1200,-717 1200,-717 1350,-717 1350,-717 1200,-717"/>
<polygon fill="#666666" stroke="#666666" points="1200,-702 1200,-702 1350,-702 1350,-702 1200,-702"/>
<polygon fill="none" stroke="#666666" points="1200,-685 1200,-745 1350,-745 1350,-685 1200,-685"/>
</a>
</g>
</g>
<!-- Node17&#45;&gt;Node1 -->
<g id="edge16_Node000001_Node000017" class="edge">
<title>Node17&#45;&gt;Node1</title>
<g id="a_edge16_Node000001_Node000017"><a xlink:title=" ">
<path fill="none" stroke="#63b8ff" d="M1273.92,-684.79C1271.17,-647.52 1261.64,-582.65 1229,-539 1141.57,-422.07 989.07,-344.28 883.99,-301.55"/>
<polygon fill="none" stroke="#63b8ff" points="883.84,-301.48 876.78,-302.96 872.7,-297.01 879.76,-295.54 883.84,-301.48"/>
</a>
</g>
<text text-anchor="middle" x="1273" y="-553" font-family="Helvetica,sans-Serif" font-size="10.00" fill="grey"> &#45;tabState_</text>
</g>
</g>
</svg>

<g id="navigator" transform="translate(0 0)" fill="#404254">
  <rect fill="#f2f5e9" fill-opacity="0.5" stroke="#606060" stroke-width=".5" x="0" y="0" width="60" height="60"/>
  <use id="zoomplus" xlink:href="#zoomPlus" x="17" y="9" onmousedown="handleZoom(evt,'in')"/>
  <use id="zoomminus" xlink:href="#zoomMin" x="42" y="9" onmousedown="handleZoom(evt,'out')"/>
  <use id="reset" xlink:href="#resetDef" x="30" y="36" onmousedown="handleReset()"/>
   <use id="arrowup" xlink:href="#arrowUp" x="0" y="0" onmousedown="handlePan(0,-1)"/>
  <use id="arrowright" xlink:href="#arrowRight" x="0" y="0" onmousedown="handlePan(1,0)"/>
  <use id="arrowdown" xlink:href="#arrowDown" x="0" y="0" onmousedown="handlePan(0,1)"/>
  <use id="arrowleft" xlink:href="#arrowLeft" x="0" y="0" onmousedown="handlePan(-1,0)"/>
</g>
<svg viewBox="0 0 15 15" width="100%" height="30px" preserveAspectRatio="xMaxYMin meet">
 <g id="arrow_out" transform="scale(0.3 0.3)">
  <a xlink:href="classNoteEditorUI__coll__graph_org.svg" target="_base">
   <rect id="button" ry="5" rx="5" y="6" x="6" height="38" width="38"
        fill="#f2f5e9" fill-opacity="0.5" stroke="#606060" stroke-width="1.0"/>
   <path id="arrow"
     d="M 11.500037,31.436501 C 11.940474,20.09759 22.043105,11.32322 32.158766,21.979434 L 37.068811,17.246167 C 37.068811,17.246167 37.088388,32 37.088388,32 L 22.160133,31.978069 C 22.160133,31.978069 26.997745,27.140456 26.997745,27.140456 C 18.528582,18.264221 13.291696,25.230495 11.500037,31.436501 z"
     style="fill:#404040;"/>
  </a>
 </g>
</svg>

<style type='text/css'>
<![CDATA[
[data-mouse-over-selected='false'] { opacity: 0.7; }
[data-mouse-over-selected='true']  { opacity: 1.0; }
]]>
</style>
<script type="application/ecmascript"><![CDATA[
document.addEventListener('DOMContentLoaded', (event) => {
  highlightEdges();
  highlightAdjacentNodes();
});
]]></script>
</svg>
