<?xml version="1.0" encoding="UTF-8" standalone="no"?>
<!DOCTYPE svg PUBLIC "-//W3C//DTD SVG 1.1//EN"
 "http://www.w3.org/Graphics/SVG/1.1/DTD/svg11.dtd">
<!-- Generated by graphviz version 14.0.2 (20251019.1705)
 -->
<!-- Title: snapToSquareCenter Pages: 1 -->
<svg width="658pt" height="116pt"
 viewBox="0.00 0.00 658.00 116.00" xmlns="http://www.w3.org/2000/svg" xmlns:xlink="http://www.w3.org/1999/xlink">
<g id="graph0" class="graph" transform="scale(1 1) rotate(0) translate(4 112)">
<title>snapToSquareCenter</title>
<!-- Node1 -->
<g id="Node000001" class="node">
<title>Node1</title>
<g id="a_Node000001"><a xlink:title=" ">
<polygon fill="#999999" stroke="#666666" points="649.75,-64 542.25,-64 542.25,-44 649.75,-44 649.75,-64"/>
<text xml:space="preserve" text-anchor="middle" x="596" y="-50.5" font-family="Helvetica,sans-Serif" font-size="10.00">snapToSquareCenter</text>
</a>
</g>
</g>
<!-- Node2 -->
<g id="Node000002" class="node">
<title>Node2</title>
<g id="a_Node000002"><a xlink:href="../../d2/dbf/class_board_manager.html#a4172206441f2f3e86ed4dfe188aa4c3a" target="_top" xlink:title=" ">
<polygon fill="white" stroke="#666666" points="501.38,-108 350.38,-108 350.38,-88 501.38,-88 501.38,-108"/>
<text xml:space="preserve" text-anchor="middle" x="425.88" y="-94.5" font-family="Helvetica,sans-Serif" font-size="10.00">BoardManager::endMouseDrag</text>
</a>
</g>
</g>
<!-- Node1&#45;&gt;Node2 -->
<g id="edge1_Node000001_Node000002" class="edge">
<title>Node1&#45;&gt;Node2</title>
<g id="a_edge1_Node000001_Node000002"><a xlink:title=" ">
<path fill="none" stroke="#63b8ff" d="M548.24,-67.55C534.72,-71.36 519.93,-75.44 506.25,-79 495.14,-81.89 483.12,-84.86 471.87,-87.56"/>
<polygon fill="#63b8ff" stroke="#63b8ff" points="549.13,-70.93 557.79,-64.83 547.21,-64.2 549.13,-70.93"/>
</a>
</g>
</g>
<!-- Node3 -->
<g id="Node000003" class="node">
<title>Node3</title>
<g id="a_Node000003"><a xlink:href="../../d2/dbf/class_board_manager.html#ac5a6f3a919fb3fdb4fef2511117069aa" target="_top" xlink:title=" ">
<polygon fill="white" stroke="#666666" points="506.25,-70 345.5,-70 345.5,-38 506.25,-38 506.25,-70"/>
<text xml:space="preserve" text-anchor="start" x="353.5" y="-56.5" font-family="Helvetica,sans-Serif" font-size="10.00">BoardManager::resnapAllMarkers</text>
<text xml:space="preserve" text-anchor="middle" x="425.88" y="-44.5" font-family="Helvetica,sans-Serif" font-size="10.00">ToNearest</text>
</a>
</g>
</g>
<!-- Node1&#45;&gt;Node3 -->
<g id="edge2_Node000001_Node000003" class="edge">
<title>Node1&#45;&gt;Node3</title>
<g id="a_edge2_Node000001_Node000003"><a xlink:title=" ">
<path fill="none" stroke="#63b8ff" d="M530.48,-54C522.61,-54 514.5,-54 506.44,-54"/>
<polygon fill="#63b8ff" stroke="#63b8ff" points="530.29,-57.5 540.29,-54 530.29,-50.5 530.29,-57.5"/>
</a>
</g>
</g>
<!-- Node6 -->
<g id="Node000006" class="node">
<title>Node6</title>
<g id="a_Node000006"><a xlink:href="../../de/d99/_board_manager_8cpp.html#a587fc0c3f892440971a073a02f227278" target="_top" xlink:title=" ">
<polygon fill="white" stroke="#666666" points="473.25,-20 378.5,-20 378.5,0 473.25,0 473.25,-20"/>
<text xml:space="preserve" text-anchor="middle" x="425.88" y="-6.5" font-family="Helvetica,sans-Serif" font-size="10.00">snapToGridCenter</text>
</a>
</g>
</g>
<!-- Node1&#45;&gt;Node6 -->
<g id="edge5_Node000001_Node000006" class="edge">
<title>Node1&#45;&gt;Node6</title>
<g id="a_edge5_Node000001_Node000006"><a xlink:title=" ">
<path fill="none" stroke="#63b8ff" d="M548.24,-40.45C534.72,-36.64 519.93,-32.56 506.25,-29 495.14,-26.11 483.12,-23.14 471.87,-20.44"/>
<polygon fill="#63b8ff" stroke="#63b8ff" points="547.21,-43.8 557.79,-43.17 549.13,-37.07 547.21,-43.8"/>
</a>
</g>
</g>
<!-- Node4 -->
<g id="Node000004" class="node">
<title>Node4</title>
<g id="a_Node000004"><a xlink:href="../../d2/dbf/class_board_manager.html#aa3991452f739c572a483f72672382fa9" target="_top" xlink:title=" ">
<polygon fill="white" stroke="#666666" points="309.5,-70 179.5,-70 179.5,-38 309.5,-38 309.5,-70"/>
<text xml:space="preserve" text-anchor="start" x="187.5" y="-56.5" font-family="Helvetica,sans-Serif" font-size="10.00">BoardManager::renderGrid</text>
<text xml:space="preserve" text-anchor="middle" x="244.5" y="-44.5" font-family="Helvetica,sans-Serif" font-size="10.00">Window</text>
</a>
</g>
</g>
<!-- Node3&#45;&gt;Node4 -->
<g id="edge3_Node000003_Node000004" class="edge">
<title>Node3&#45;&gt;Node4</title>
<g id="a_edge3_Node000003_Node000004"><a xlink:title=" ">
<path fill="none" stroke="#63b8ff" d="M333.78,-54C325.72,-54 317.68,-54 309.92,-54"/>
<polygon fill="#63b8ff" stroke="#63b8ff" points="333.64,-57.5 343.64,-54 333.64,-50.5 333.64,-57.5"/>
</a>
</g>
</g>
<!-- Node5 -->
<g id="Node000005" class="node">
<title>Node5</title>
<g id="a_Node000005"><a xlink:href="../../d2/dbf/class_board_manager.html#a2aad7a42521772a965571ce188decae8" target="_top" xlink:title=" ">
<polygon fill="white" stroke="#666666" points="143.5,-64 0,-64 0,-44 143.5,-44 143.5,-64"/>
<text xml:space="preserve" text-anchor="middle" x="71.75" y="-50.5" font-family="Helvetica,sans-Serif" font-size="10.00">BoardManager::renderToolbar</text>
</a>
</g>
</g>
<!-- Node4&#45;&gt;Node5 -->
<g id="edge4_Node000004_Node000005" class="edge">
<title>Node4&#45;&gt;Node5</title>
<g id="a_edge4_Node000004_Node000005"><a xlink:title=" ">
<path fill="none" stroke="#63b8ff" d="M168.11,-54C160.01,-54 151.8,-54 143.76,-54"/>
<polygon fill="#63b8ff" stroke="#63b8ff" points="167.92,-57.5 177.92,-54 167.92,-50.5 167.92,-57.5"/>
</a>
</g>
</g>
</g>
</svg>
