<?xml version="1.0" encoding="UTF-8" standalone="no"?>
<!DOCTYPE svg PUBLIC "-//W3C//DTD SVG 1.1//EN"
 "http://www.w3.org/Graphics/SVG/1.1/DTD/svg11.dtd">
<!-- Generated by graphviz version 14.0.2 (20251019.1705)
 -->
<!-- Title: include/note_editor/NotesManager.h Pages: 1 -->
<svg width="445pt" height="232pt"
 viewBox="0.00 0.00 445.00 232.00" xmlns="http://www.w3.org/2000/svg" xmlns:xlink="http://www.w3.org/1999/xlink">

<svg id="main" version="1.1" xmlns="http://www.w3.org/2000/svg" xmlns:xlink="http://www.w3.org/1999/xlink" xml:space="preserve" onload="init(evt)">
<style type="text/css"><![CDATA[
.node, .edge {opacity: 0.7;}
.node.selected, .edge.selected {opacity: 1;}
.edge:hover path { stroke: red; }
.edge:hover polygon { stroke: red; fill: red; }
]]></style>
<script type="application/ecmascript" xlink:href="../../svg.min.js"/>
<svg id="graph" class="graph">
<g id="graph0" class="graph" transform="scale(1 1) rotate(0) translate(4 228)">
<title>include/note_editor/NotesManager.h</title>
<!-- Node1 -->
<g id="Node000001" class="node">
<title>Node1</title>
<g id="a_Node000001"><a xlink:title=" ">
<polygon fill="#999999" stroke="#666666" points="252.38,-224 154.62,-224 154.62,-192 252.38,-192 252.38,-224"/>
<text xml:space="preserve" text-anchor="start" x="162.62" y="-210.5" font-family="Helvetica,sans-Serif" font-size="10.00">include/note_editor</text>
<text xml:space="preserve" text-anchor="middle" x="203.5" y="-198.5" font-family="Helvetica,sans-Serif" font-size="10.00">/NotesManager.h</text>
</a>
</g>
</g>
<!-- Node2 -->
<g id="Node000002" class="node">
<title>Node2</title>
<g id="a_Node000002"><a xlink:href="../../d0/da4/_application_handler_8h.html" target="_top" xlink:title=" ">
<polygon fill="white" stroke="#666666" points="196.38,-82 56.62,-82 56.62,-62 196.38,-62 196.38,-82"/>
<text xml:space="preserve" text-anchor="middle" x="126.5" y="-68.5" font-family="Helvetica,sans-Serif" font-size="10.00">include/ApplicationHandler.h</text>
</a>
</g>
</g>
<!-- Node1&#45;&gt;Node2 -->
<g id="edge1_Node000001_Node000002" class="edge">
<title>Node1&#45;&gt;Node2</title>
<g id="a_edge1_Node000001_Node000002"><a xlink:title=" ">
<path fill="none" stroke="#63b8ff" d="M170.96,-184.58C161.48,-176.57 151.95,-166.82 145.5,-156 131.28,-132.12 127.7,-98.55 126.8,-82.4"/>
<polygon fill="#63b8ff" stroke="#63b8ff" points="168.73,-187.28 178.74,-190.76 173.09,-181.8 168.73,-187.28"/>
</a>
</g>
</g>
<!-- Node5 -->
<g id="Node000005" class="node">
<title>Node5</title>
<g id="a_Node000005"><a xlink:href="../../d1/ded/_note_editor_u_i_8h.html" target="_top" xlink:title=" ">
<polygon fill="white" stroke="#666666" points="252.38,-156 154.62,-156 154.62,-124 252.38,-124 252.38,-156"/>
<text xml:space="preserve" text-anchor="start" x="162.62" y="-142.5" font-family="Helvetica,sans-Serif" font-size="10.00">include/note_editor</text>
<text xml:space="preserve" text-anchor="middle" x="203.5" y="-130.5" font-family="Helvetica,sans-Serif" font-size="10.00">/NoteEditorUI.h</text>
</a>
</g>
</g>
<!-- Node1&#45;&gt;Node5 -->
<g id="edge4_Node000001_Node000005" class="edge">
<title>Node1&#45;&gt;Node5</title>
<g id="a_edge4_Node000001_Node000005"><a xlink:title=" ">
<path fill="none" stroke="#63b8ff" d="M203.5,-180.31C203.5,-172.12 203.5,-163.38 203.5,-156.22"/>
<polygon fill="#63b8ff" stroke="#63b8ff" points="200,-180.18 203.5,-190.18 207,-180.18 200,-180.18"/>
</a>
</g>
</g>
<!-- Node7 -->
<g id="Node000007" class="node">
<title>Node7</title>
<g id="a_Node000007"><a xlink:href="../../de/de9/_notes_manager_8cpp.html" target="_top" xlink:title=" ">
<polygon fill="white" stroke="#666666" points="436.5,-150 270.5,-150 270.5,-130 436.5,-130 436.5,-150"/>
<text xml:space="preserve" text-anchor="middle" x="353.5" y="-136.5" font-family="Helvetica,sans-Serif" font-size="10.00">src/note_editor/NotesManager.cpp</text>
</a>
</g>
</g>
<!-- Node1&#45;&gt;Node7 -->
<g id="edge7_Node000001_Node000007" class="edge">
<title>Node1&#45;&gt;Node7</title>
<g id="a_edge7_Node000001_Node000007"><a xlink:title=" ">
<path fill="none" stroke="#63b8ff" d="M248.89,-187.03C276.46,-174.9 310.4,-159.96 332,-150.46"/>
<polygon fill="#63b8ff" stroke="#63b8ff" points="247.8,-183.69 240.05,-190.92 250.62,-190.09 247.8,-183.69"/>
</a>
</g>
</g>
<!-- Node3 -->
<g id="Node000003" class="node">
<title>Node3</title>
<g id="a_Node000003"><a xlink:href="../../df/d43/_application_handler_8cpp.html" target="_top" xlink:title=" ">
<polygon fill="white" stroke="#666666" points="133,-20 0,-20 0,0 133,0 133,-20"/>
<text xml:space="preserve" text-anchor="middle" x="66.5" y="-6.5" font-family="Helvetica,sans-Serif" font-size="10.00">src/ApplicationHandler.cpp</text>
</a>
</g>
</g>
<!-- Node2&#45;&gt;Node3 -->
<g id="edge2_Node000002_Node000003" class="edge">
<title>Node2&#45;&gt;Node3</title>
<g id="a_edge2_Node000002_Node000003"><a xlink:title=" ">
<path fill="none" stroke="#63b8ff" d="M109.08,-53.58C98.13,-42.63 84.47,-28.97 75.61,-20.11"/>
<polygon fill="#63b8ff" stroke="#63b8ff" points="106.51,-55.96 116.05,-60.55 111.46,-51.01 106.51,-55.96"/>
</a>
</g>
</g>
<!-- Node4 -->
<g id="Node000004" class="node">
<title>Node4</title>
<g id="a_Node000004"><a xlink:href="../../df/d0a/main_8cpp.html" target="_top" xlink:title=" ">
<polygon fill="white" stroke="#666666" points="223.62,-20 151.38,-20 151.38,0 223.62,0 223.62,-20"/>
<text xml:space="preserve" text-anchor="middle" x="187.5" y="-6.5" font-family="Helvetica,sans-Serif" font-size="10.00">src/main.cpp</text>
</a>
</g>
</g>
<!-- Node2&#45;&gt;Node4 -->
<g id="edge3_Node000002_Node000004" class="edge">
<title>Node2&#45;&gt;Node4</title>
<g id="a_edge3_Node000002_Node000004"><a xlink:title=" ">
<path fill="none" stroke="#63b8ff" d="M144.21,-53.58C155.34,-42.63 169.24,-28.97 178.24,-20.11"/>
<polygon fill="#63b8ff" stroke="#63b8ff" points="141.79,-51.06 137.11,-60.56 146.69,-56.05 141.79,-51.06"/>
</a>
</g>
</g>
<!-- Node5&#45;&gt;Node2 -->
<g id="edge5_Node000005_Node000002" class="edge">
<title>Node5&#45;&gt;Node2</title>
<g id="a_edge5_Node000005_Node000002"><a xlink:title=" ">
<path fill="none" stroke="#63b8ff" d="M177.11,-116.38C163.5,-104.72 147.66,-91.13 137.37,-82.32"/>
<polygon fill="#63b8ff" stroke="#63b8ff" points="174.62,-118.86 184.49,-122.71 179.18,-113.54 174.62,-118.86"/>
</a>
</g>
</g>
<!-- Node6 -->
<g id="Node000006" class="node">
<title>Node6</title>
<g id="a_Node000006"><a xlink:href="../../d9/d67/_note_editor_u_i_8cpp.html" target="_top" xlink:title=" ">
<polygon fill="white" stroke="#666666" points="344.5,-88 214.5,-88 214.5,-56 344.5,-56 344.5,-88"/>
<text xml:space="preserve" text-anchor="start" x="222.5" y="-74.5" font-family="Helvetica,sans-Serif" font-size="10.00">src/note_editor/NoteEditor</text>
<text xml:space="preserve" text-anchor="middle" x="279.5" y="-62.5" font-family="Helvetica,sans-Serif" font-size="10.00">UI.cpp</text>
</a>
</g>
</g>
<!-- Node5&#45;&gt;Node6 -->
<g id="edge6_Node000005_Node000006" class="edge">
<title>Node5&#45;&gt;Node6</title>
<g id="a_edge6_Node000005_Node000006"><a xlink:title=" ">
<path fill="none" stroke="#63b8ff" d="M229.61,-116.32C240.2,-107.13 252.15,-96.75 261.71,-88.45"/>
<polygon fill="#63b8ff" stroke="#63b8ff" points="227.53,-113.5 222.27,-122.7 232.11,-118.79 227.53,-113.5"/>
</a>
</g>
</g>
</g>
</svg>
</svg>

<style type='text/css'>
<![CDATA[
[data-mouse-over-selected='false'] { opacity: 0.7; }
[data-mouse-over-selected='true']  { opacity: 1.0; }
]]>
</style>
<script type="application/ecmascript"><![CDATA[
document.addEventListener('DOMContentLoaded', (event) => {
  highlightEdges();
  highlightAdjacentNodes();
});
]]></script>
</svg>
