<?xml version="1.0" encoding="UTF-8" standalone="no"?>
<!DOCTYPE svg PUBLIC "-//W3C//DTD SVG 1.1//EN"
 "http://www.w3.org/Graphics/SVG/1.1/DTD/svg11.dtd">
<!-- Generated by graphviz version 14.0.2 (20251019.1705)
 -->
<!-- Title: ApplicationHandler::ResizeMapFBO Pages: 1 -->
<svg width="373pt" height="62pt"
 viewBox="0.00 0.00 373.00 62.00" xmlns="http://www.w3.org/2000/svg" xmlns:xlink="http://www.w3.org/1999/xlink">
<g id="graph0" class="graph" transform="scale(1 1) rotate(0) translate(4 58)">
<title>ApplicationHandler::ResizeMapFBO</title>
<!-- Node1 -->
<g id="Node000001" class="node">
<title>Node1</title>
<g id="a_Node000001"><a xlink:title=" ">
<polygon fill="#999999" stroke="#666666" points="97.75,-32 0,-32 0,0 97.75,0 97.75,-32"/>
<text xml:space="preserve" text-anchor="start" x="8" y="-18.5" font-family="Helvetica,sans-Serif" font-size="10.00">ApplicationHandler</text>
<text xml:space="preserve" text-anchor="middle" x="48.88" y="-6.5" font-family="Helvetica,sans-Serif" font-size="10.00">::ResizeMapFBO</text>
</a>
</g>
</g>
<!-- Node2 -->
<g id="Node000002" class="node">
<title>Node2</title>
<g id="a_Node000002"><a xlink:href="../../d4/d97/class_application_handler.html#a7655937c9f7a9b730af137a5ad1d9953" target="_top" xlink:title=" ">
<polygon fill="white" stroke="#666666" points="231.5,-54 133.75,-54 133.75,-22 231.5,-22 231.5,-54"/>
<text xml:space="preserve" text-anchor="start" x="141.75" y="-40.5" font-family="Helvetica,sans-Serif" font-size="10.00">ApplicationHandler</text>
<text xml:space="preserve" text-anchor="middle" x="182.62" y="-28.5" font-family="Helvetica,sans-Serif" font-size="10.00">::CreateMapFBO</text>
</a>
</g>
</g>
<!-- Node1&#45;&gt;Node2 -->
<g id="edge1_Node000001_Node000002" class="edge">
<title>Node1&#45;&gt;Node2</title>
<g id="a_edge1_Node000001_Node000002"><a xlink:title=" ">
<path fill="none" stroke="#63b8ff" d="M98.19,-24.07C105.97,-25.37 114.11,-26.73 122.13,-28.06"/>
<polygon fill="#63b8ff" stroke="#63b8ff" points="121.39,-31.49 131.83,-29.68 122.54,-24.59 121.39,-31.49"/>
</a>
</g>
</g>
<!-- Node3 -->
<g id="Node000003" class="node">
<title>Node3</title>
<g id="a_Node000003"><a xlink:href="../../d4/d97/class_application_handler.html#a1a100fed6275d5d36ae5ff35a278ed18" target="_top" xlink:title=" ">
<polygon fill="white" stroke="#666666" points="365.25,-32 267.5,-32 267.5,0 365.25,0 365.25,-32"/>
<text xml:space="preserve" text-anchor="start" x="275.5" y="-18.5" font-family="Helvetica,sans-Serif" font-size="10.00">ApplicationHandler</text>
<text xml:space="preserve" text-anchor="middle" x="316.38" y="-6.5" font-family="Helvetica,sans-Serif" font-size="10.00">::DeleteMapFBO</text>
</a>
</g>
</g>
<!-- Node1&#45;&gt;Node3 -->
<g id="edge3_Node000001_Node000003" class="edge">
<title>Node1&#45;&gt;Node3</title>
<g id="a_edge3_Node000001_Node000003"><a xlink:title=" ">
<path fill="none" stroke="#63b8ff" d="M98.21,-13.98C109.85,-13.57 122.24,-13.21 133.75,-13 177.19,-12.22 188.06,-12.22 231.5,-13 239.32,-13.14 247.55,-13.35 255.68,-13.6"/>
<polygon fill="#63b8ff" stroke="#63b8ff" points="255.42,-17.1 265.53,-13.93 255.65,-10.1 255.42,-17.1"/>
</a>
</g>
</g>
<!-- Node2&#45;&gt;Node3 -->
<g id="edge2_Node000002_Node000003" class="edge">
<title>Node2&#45;&gt;Node3</title>
<g id="a_edge2_Node000002_Node000003"><a xlink:title=" ">
<path fill="none" stroke="#63b8ff" d="M231.94,-29.93C239.72,-28.63 247.86,-27.27 255.88,-25.94"/>
<polygon fill="#63b8ff" stroke="#63b8ff" points="256.29,-29.41 265.58,-24.32 255.14,-22.51 256.29,-29.41"/>
</a>
</g>
</g>
</g>
</svg>
