<?xml version="1.0" encoding="UTF-8" standalone="no"?>
<!DOCTYPE svg PUBLIC "-//W3C//DTD SVG 1.1//EN"
 "http://www.w3.org/Graphics/SVG/1.1/DTD/svg11.dtd">
<!-- Generated by graphviz version 14.0.2 (20251019.1705)
 -->
<!-- Title: include/debug/DebugConsole.h Pages: 1 -->
<svg width="466pt" height="140pt"
 viewBox="0.00 0.00 466.00 140.00" xmlns="http://www.w3.org/2000/svg" xmlns:xlink="http://www.w3.org/1999/xlink">

<svg id="main" version="1.1" xmlns="http://www.w3.org/2000/svg" xmlns:xlink="http://www.w3.org/1999/xlink" xml:space="preserve" onload="init(evt)">
<style type="text/css"><![CDATA[
.node, .edge {opacity: 0.7;}
.node.selected, .edge.selected {opacity: 1;}
.edge:hover path { stroke: red; }
.edge:hover polygon { stroke: red; fill: red; }
]]></style>
<script type="application/ecmascript" xlink:href="../../svg.min.js"/>
<svg id="graph" class="graph">
<g id="graph0" class="graph" transform="scale(1 1) rotate(0) translate(4 136)">
<title>include/debug/DebugConsole.h</title>
<!-- Node1 -->
<g id="Node000001" class="node">
<title>Node1</title>
<g id="a_Node000001"><a xlink:title=" ">
<polygon fill="#999999" stroke="#666666" points="284.25,-132 132.5,-132 132.5,-112 284.25,-112 284.25,-132"/>
<text xml:space="preserve" text-anchor="middle" x="208.38" y="-118.5" font-family="Helvetica,sans-Serif" font-size="10.00">include/debug/DebugConsole.h</text>
</a>
</g>
</g>
<!-- Node2 -->
<g id="Node000002" class="node">
<title>Node2</title>
<g id="a_Node000002"><a xlink:href="../../d5/d35/_debug_actions_8h.html" target="_top" xlink:title=" ">
<polygon fill="white" stroke="#666666" points="148.75,-76 0,-76 0,-56 148.75,-56 148.75,-76"/>
<text xml:space="preserve" text-anchor="middle" x="74.38" y="-62.5" font-family="Helvetica,sans-Serif" font-size="10.00">include/debug/DebugActions.h</text>
</a>
</g>
</g>
<!-- Node1&#45;&gt;Node2 -->
<g id="edge1_Node000001_Node000002" class="edge">
<title>Node1&#45;&gt;Node2</title>
<g id="a_edge1_Node000001_Node000002"><a xlink:title=" ">
<path fill="none" stroke="#63b8ff" d="M174.63,-107.4C150.69,-97.75 119.16,-85.05 97.9,-76.48"/>
<polygon fill="#63b8ff" stroke="#63b8ff" points="173.05,-110.54 183.63,-111.03 175.66,-104.04 173.05,-110.54"/>
</a>
</g>
</g>
<!-- Node3 -->
<g id="Node000003" class="node">
<title>Node3</title>
<g id="a_Node000003"><a xlink:href="../../df/d43/_application_handler_8cpp.html" target="_top" xlink:title=" ">
<polygon fill="white" stroke="#666666" points="191.88,-20 58.88,-20 58.88,0 191.88,0 191.88,-20"/>
<text xml:space="preserve" text-anchor="middle" x="125.38" y="-6.5" font-family="Helvetica,sans-Serif" font-size="10.00">src/ApplicationHandler.cpp</text>
</a>
</g>
</g>
<!-- Node1&#45;&gt;Node3 -->
<g id="edge3_Node000001_Node000003" class="edge">
<title>Node1&#45;&gt;Node3</title>
<g id="a_edge3_Node000001_Node000003"><a xlink:title=" ">
<path fill="none" stroke="#63b8ff" d="M194.48,-102.58C176.58,-78.86 146.14,-38.52 132.43,-20.35"/>
<polygon fill="#63b8ff" stroke="#63b8ff" points="191.57,-104.54 200.39,-110.41 197.16,-100.32 191.57,-104.54"/>
</a>
</g>
</g>
<!-- Node4 -->
<g id="Node000004" class="node">
<title>Node4</title>
<g id="a_Node000004"><a xlink:href="../../df/d0a/main_8cpp.html" target="_top" xlink:title=" ">
<polygon fill="white" stroke="#666666" points="276.5,-76 204.25,-76 204.25,-56 276.5,-56 276.5,-76"/>
<text xml:space="preserve" text-anchor="middle" x="240.38" y="-62.5" font-family="Helvetica,sans-Serif" font-size="10.00">src/main.cpp</text>
</a>
</g>
</g>
<!-- Node1&#45;&gt;Node4 -->
<g id="edge4_Node000001_Node000004" class="edge">
<title>Node1&#45;&gt;Node4</title>
<g id="a_edge4_Node000001_Node000004"><a xlink:title=" ">
<path fill="none" stroke="#63b8ff" d="M219.71,-101.87C224.86,-93.19 230.71,-83.32 234.86,-76.3"/>
<polygon fill="#63b8ff" stroke="#63b8ff" points="216.81,-99.9 214.72,-110.29 222.83,-103.47 216.81,-99.9"/>
</a>
</g>
</g>
<!-- Node5 -->
<g id="Node000005" class="node">
<title>Node5</title>
<g id="a_Node000005"><a xlink:href="../../da/d82/_network_manager_8cpp.html" target="_top" xlink:title=" ">
<polygon fill="white" stroke="#666666" points="457.88,-76 294.88,-76 294.88,-56 457.88,-56 457.88,-76"/>
<text xml:space="preserve" text-anchor="middle" x="376.38" y="-62.5" font-family="Helvetica,sans-Serif" font-size="10.00">src/network/NetworkManager.cpp</text>
</a>
</g>
</g>
<!-- Node1&#45;&gt;Node5 -->
<g id="edge5_Node000001_Node000005" class="edge">
<title>Node1&#45;&gt;Node5</title>
<g id="a_edge5_Node000001_Node000005"><a xlink:title=" ">
<path fill="none" stroke="#63b8ff" d="M248.27,-108.18C278.55,-98.44 319.51,-85.28 346.88,-76.48"/>
<polygon fill="#63b8ff" stroke="#63b8ff" points="247.53,-104.74 239.08,-111.13 249.67,-111.4 247.53,-104.74"/>
</a>
</g>
</g>
<!-- Node2&#45;&gt;Node3 -->
<g id="edge2_Node000002_Node000003" class="edge">
<title>Node2&#45;&gt;Node3</title>
<g id="a_edge2_Node000002_Node000003"><a xlink:title=" ">
<path fill="none" stroke="#63b8ff" d="M91.11,-47.29C99.61,-38.28 109.6,-27.7 116.59,-20.3"/>
<polygon fill="#63b8ff" stroke="#63b8ff" points="88.62,-44.82 84.3,-54.49 93.71,-49.63 88.62,-44.82"/>
</a>
</g>
</g>
</g>
</svg>
</svg>

<style type='text/css'>
<![CDATA[
[data-mouse-over-selected='false'] { opacity: 0.7; }
[data-mouse-over-selected='true']  { opacity: 1.0; }
]]>
</style>
<script type="application/ecmascript"><![CDATA[
document.addEventListener('DOMContentLoaded', (event) => {
  highlightEdges();
  highlightAdjacentNodes();
});
]]></script>
</svg>
