<?xml version="1.0" encoding="UTF-8" standalone="no"?>
<!DOCTYPE svg PUBLIC "-//W3C//DTD SVG 1.1//EN"
 "http://www.w3.org/Graphics/SVG/1.1/DTD/svg11.dtd">
<!-- Generated by graphviz version 14.0.2 (20251019.1705)
 -->
<!-- Title: DebugConsole::renderLeftPanel_ Pages: 1 -->
<svg width="443pt" height="172pt"
 viewBox="0.00 0.00 443.00 172.00" xmlns="http://www.w3.org/2000/svg" xmlns:xlink="http://www.w3.org/1999/xlink">
<g id="graph0" class="graph" transform="scale(1 1) rotate(0) translate(4 168)">
<title>DebugConsole::renderLeftPanel_</title>
<!-- Node1 -->
<g id="Node000001" class="node">
<title>Node1</title>
<g id="a_Node000001"><a xlink:title=" ">
<polygon fill="#999999" stroke="#666666" points="130,-101 0,-101 0,-69 130,-69 130,-101"/>
<text xml:space="preserve" text-anchor="start" x="8" y="-87.5" font-family="Helvetica,sans-Serif" font-size="10.00">DebugConsole::renderLeft</text>
<text xml:space="preserve" text-anchor="middle" x="65" y="-75.5" font-family="Helvetica,sans-Serif" font-size="10.00">Panel_</text>
</a>
</g>
</g>
<!-- Node2 -->
<g id="Node000002" class="node">
<title>Node2</title>
<g id="a_Node000002"><a xlink:href="../../d5/d7c/class_debug_console.html#a54beaa848e4e2e121cad09e36ac26558" target="_top" xlink:title=" ">
<polygon fill="white" stroke="#666666" points="308.75,-164 166,-164 166,-132 308.75,-132 308.75,-164"/>
<text xml:space="preserve" text-anchor="start" x="174" y="-150.5" font-family="Helvetica,sans-Serif" font-size="10.00">DebugConsole::buildChannel</text>
<text xml:space="preserve" text-anchor="middle" x="237.38" y="-138.5" font-family="Helvetica,sans-Serif" font-size="10.00">Lists_</text>
</a>
</g>
</g>
<!-- Node1&#45;&gt;Node2 -->
<g id="edge1_Node000001_Node000002" class="edge">
<title>Node1&#45;&gt;Node2</title>
<g id="a_edge1_Node000001_Node000002"><a xlink:title=" ">
<path fill="none" stroke="#63b8ff" d="M110.32,-101.39C132.02,-109.41 158.37,-119.15 181.35,-127.65"/>
<polygon fill="#63b8ff" stroke="#63b8ff" points="179.97,-130.87 190.56,-131.06 182.4,-124.31 179.97,-130.87"/>
</a>
</g>
</g>
<!-- Node4 -->
<g id="Node000004" class="node">
<title>Node4</title>
<g id="a_Node000004"><a xlink:href="../../d3/d42/class_logger.html#aebb248e608f8e2724de20b482cb2a15f" target="_top" xlink:title=" ">
<polygon fill="white" stroke="#666666" points="433.88,-117 345.88,-117 345.88,-97 433.88,-97 433.88,-117"/>
<text xml:space="preserve" text-anchor="middle" x="389.88" y="-103.5" font-family="Helvetica,sans-Serif" font-size="10.00">Logger::instance</text>
</a>
</g>
</g>
<!-- Node1&#45;&gt;Node4 -->
<g id="edge5_Node000001_Node000004" class="edge">
<title>Node1&#45;&gt;Node4</title>
<g id="a_edge5_Node000001_Node000004"><a xlink:title=" ">
<path fill="none" stroke="#63b8ff" d="M130.18,-89.37C189.88,-93.44 277.87,-99.44 334.28,-103.28"/>
<polygon fill="#63b8ff" stroke="#63b8ff" points="333.75,-106.75 343.96,-103.94 334.22,-99.77 333.75,-106.75"/>
</a>
</g>
</g>
<!-- Node5 -->
<g id="Node000005" class="node">
<title>Node5</title>
<g id="a_Node000005"><a xlink:href="../../d3/d42/class_logger.html#af98b620264a3be3cf1df7b7265a7ac88" target="_top" xlink:title=" ">
<polygon fill="white" stroke="#666666" points="291.5,-76 183.25,-76 183.25,-56 291.5,-56 291.5,-76"/>
<text xml:space="preserve" text-anchor="middle" x="237.38" y="-62.5" font-family="Helvetica,sans-Serif" font-size="10.00">Logger::clearChannel</text>
</a>
</g>
</g>
<!-- Node1&#45;&gt;Node5 -->
<g id="edge4_Node000001_Node000005" class="edge">
<title>Node1&#45;&gt;Node5</title>
<g id="a_edge4_Node000001_Node000005"><a xlink:title=" ">
<path fill="none" stroke="#63b8ff" d="M130.41,-77.82C143.96,-76.31 158.25,-74.71 171.8,-73.2"/>
<polygon fill="#63b8ff" stroke="#63b8ff" points="171.92,-76.71 181.47,-72.12 171.15,-69.75 171.92,-76.71"/>
</a>
</g>
</g>
<!-- Node6 -->
<g id="Node000006" class="node">
<title>Node6</title>
<g id="a_Node000006"><a xlink:href="../../d3/d42/class_logger.html#ab77a9a6a08954192b47c39f359b5d370" target="_top" xlink:title=" ">
<polygon fill="white" stroke="#666666" points="269.38,-20 205.38,-20 205.38,0 269.38,0 269.38,-20"/>
<text xml:space="preserve" text-anchor="middle" x="237.38" y="-6.5" font-family="Helvetica,sans-Serif" font-size="10.00">Logger::log</text>
</a>
</g>
</g>
<!-- Node1&#45;&gt;Node6 -->
<g id="edge6_Node000001_Node000006" class="edge">
<title>Node1&#45;&gt;Node6</title>
<g id="a_edge6_Node000001_Node000006"><a xlink:title=" ">
<path fill="none" stroke="#63b8ff" d="M103.39,-68.54C132.92,-55.54 173.78,-37.55 202.39,-24.96"/>
<polygon fill="#63b8ff" stroke="#63b8ff" points="203.58,-28.26 211.33,-21.03 200.76,-21.85 203.58,-28.26"/>
</a>
</g>
</g>
<!-- Node3 -->
<g id="Node000003" class="node">
<title>Node3</title>
<g id="a_Node000003"><a xlink:href="../../d3/d42/class_logger.html#ab3787eeb00f65f63877f1c7a5e681d66" target="_top" xlink:title=" ">
<polygon fill="white" stroke="#666666" points="435,-158 344.75,-158 344.75,-138 435,-138 435,-158"/>
<text xml:space="preserve" text-anchor="middle" x="389.88" y="-144.5" font-family="Helvetica,sans-Serif" font-size="10.00">Logger::channels</text>
</a>
</g>
</g>
<!-- Node2&#45;&gt;Node3 -->
<g id="edge2_Node000002_Node000003" class="edge">
<title>Node2&#45;&gt;Node3</title>
<g id="a_edge2_Node000002_Node000003"><a xlink:title=" ">
<path fill="none" stroke="#63b8ff" d="M309.22,-148C317.31,-148 325.47,-148 333.33,-148"/>
<polygon fill="#63b8ff" stroke="#63b8ff" points="333.06,-151.5 343.06,-148 333.06,-144.5 333.06,-151.5"/>
</a>
</g>
</g>
<!-- Node2&#45;&gt;Node4 -->
<g id="edge3_Node000002_Node000004" class="edge">
<title>Node2&#45;&gt;Node4</title>
<g id="a_edge3_Node000002_Node000004"><a xlink:title=" ">
<path fill="none" stroke="#63b8ff" d="M298.72,-131.56C312.26,-127.87 326.46,-124 339.49,-120.45"/>
<polygon fill="#63b8ff" stroke="#63b8ff" points="340.4,-123.83 349.13,-117.83 338.56,-117.08 340.4,-123.83"/>
</a>
</g>
</g>
<!-- Node6&#45;&gt;Node6 -->
<g id="edge7_Node000006_Node000006" class="edge">
<title>Node6&#45;&gt;Node6</title>
<g id="a_edge7_Node000006_Node000006"><a xlink:title=" ">
<path fill="none" stroke="#63b8ff" d="M213.14,-20.34C202.79,-28.98 210.87,-38 237.38,-38 251.87,-38 260.86,-35.3 264.33,-31.44"/>
<polygon fill="#63b8ff" stroke="#63b8ff" points="267.75,-30.69 261.97,-21.81 260.95,-32.35 267.75,-30.69"/>
</a>
</g>
</g>
</g>
</svg>
