<?xml version="1.0" encoding="UTF-8" standalone="no"?>
<!DOCTYPE svg PUBLIC "-//W3C//DTD SVG 1.1//EN"
 "http://www.w3.org/Graphics/SVG/1.1/DTD/svg11.dtd">
<!-- Generated by graphviz version 2.43.0 (0)
 -->
<!-- Title: ImGuiToaster::Push Pages: 1 -->
<svg width="267pt" height="138pt"
 viewBox="0.00 0.00 267.00 138.00" xmlns="http://www.w3.org/2000/svg" xmlns:xlink="http://www.w3.org/1999/xlink">
<g id="graph0" class="graph" transform="scale(1 1) rotate(0) translate(4 134)">
<title>ImGuiToaster::Push</title>
<!-- Node1 -->
<g id="Node000001" class="node">
<title>Node1</title>
<g id="a_Node000001"><a xlink:title=" ">
<polygon fill="#999999" stroke="#666666" points="259,-74 149,-74 149,-55 259,-55 259,-74"/>
<text text-anchor="middle" x="204" y="-62" font-family="Helvetica,sans-Serif" font-size="10.00">ImGuiToaster::Push</text>
</a>
</g>
</g>
<!-- Node2 -->
<g id="Node000002" class="node">
<title>Node2</title>
<g id="a_Node000002"><a xlink:href="../../d8/db3/classImGuiToaster.html#a18c109941d29e1bd30a74029c8875b73" target="_top" xlink:title=" ">
<polygon fill="white" stroke="#666666" points="111.5,-130 1.5,-130 1.5,-111 111.5,-111 111.5,-130"/>
<text text-anchor="middle" x="56.5" y="-118" font-family="Helvetica,sans-Serif" font-size="10.00">ImGuiToaster::Error</text>
</a>
</g>
</g>
<!-- Node1&#45;&gt;Node2 -->
<g id="edge1_Node000001_Node000002" class="edge">
<title>Node1&#45;&gt;Node2</title>
<g id="a_edge1_Node000001_Node000002"><a xlink:title=" ">
<path fill="none" stroke="#63b8ff" d="M172.19,-78.28C154.93,-85.81 132.93,-95.08 113,-102.5 105.12,-105.43 96.52,-108.36 88.49,-110.97"/>
<polygon fill="#63b8ff" stroke="#63b8ff" points="174,-81.31 181.75,-74.08 171.19,-74.9 174,-81.31"/>
</a>
</g>
</g>
<!-- Node3 -->
<g id="Node000003" class="node">
<title>Node3</title>
<g id="a_Node000003"><a xlink:href="../../d8/db3/classImGuiToaster.html#ac3660066402819b5bc7b87e14022313d" target="_top" xlink:title=" ">
<polygon fill="white" stroke="#666666" points="113,-93 0,-93 0,-74 113,-74 113,-93"/>
<text text-anchor="middle" x="56.5" y="-81" font-family="Helvetica,sans-Serif" font-size="10.00">ImGuiToaster::Good</text>
</a>
</g>
</g>
<!-- Node1&#45;&gt;Node3 -->
<g id="edge2_Node000001_Node000003" class="edge">
<title>Node1&#45;&gt;Node3</title>
<g id="a_edge2_Node000001_Node000003"><a xlink:title=" ">
<path fill="none" stroke="#63b8ff" d="M138.87,-72.87C130.31,-73.99 121.58,-75.13 113.18,-76.23"/>
<polygon fill="#63b8ff" stroke="#63b8ff" points="139.36,-76.34 148.82,-71.57 138.45,-69.4 139.36,-76.34"/>
</a>
</g>
</g>
<!-- Node4 -->
<g id="Node000004" class="node">
<title>Node4</title>
<g id="a_Node000004"><a xlink:href="../../d8/db3/classImGuiToaster.html#ab276112c911d59380e09ab5824e60847" target="_top" xlink:title=" ">
<polygon fill="white" stroke="#666666" points="109.5,-56 3.5,-56 3.5,-37 109.5,-37 109.5,-56"/>
<text text-anchor="middle" x="56.5" y="-44" font-family="Helvetica,sans-Serif" font-size="10.00">ImGuiToaster::Info</text>
</a>
</g>
</g>
<!-- Node1&#45;&gt;Node4 -->
<g id="edge3_Node000001_Node000004" class="edge">
<title>Node1&#45;&gt;Node4</title>
<g id="a_edge3_Node000001_Node000004"><a xlink:title=" ">
<path fill="none" stroke="#63b8ff" d="M138.81,-56.56C129.11,-55.36 119.2,-54.13 109.79,-52.97"/>
<polygon fill="#63b8ff" stroke="#63b8ff" points="138.47,-60.04 148.82,-57.8 139.33,-53.1 138.47,-60.04"/>
</a>
</g>
</g>
<!-- Node5 -->
<g id="Node000005" class="node">
<title>Node5</title>
<g id="a_Node000005"><a xlink:href="../../d8/db3/classImGuiToaster.html#a23049eb7b246cc90e8d67eaa8017e142" target="_top" xlink:title=" ">
<polygon fill="white" stroke="#666666" points="112.5,-19 0.5,-19 0.5,0 112.5,0 112.5,-19"/>
<text text-anchor="middle" x="56.5" y="-7" font-family="Helvetica,sans-Serif" font-size="10.00">ImGuiToaster::Warn</text>
</a>
</g>
</g>
<!-- Node1&#45;&gt;Node5 -->
<g id="edge4_Node000001_Node000005" class="edge">
<title>Node1&#45;&gt;Node5</title>
<g id="a_edge4_Node000001_Node000005"><a xlink:title=" ">
<path fill="none" stroke="#63b8ff" d="M170.33,-50.97C153.32,-44.04 132.13,-35.59 113,-28.5 104.41,-25.31 95,-22.02 86.4,-19.09"/>
<polygon fill="#63b8ff" stroke="#63b8ff" points="169.24,-54.3 179.82,-54.85 171.89,-47.82 169.24,-54.3"/>
</a>
</g>
</g>
</g>
</svg>
