<?xml version="1.0" encoding="UTF-8" standalone="no"?>
<!DOCTYPE svg PUBLIC "-//W3C//DTD SVG 1.1//EN"
 "http://www.w3.org/Graphics/SVG/1.1/DTD/svg11.dtd">
<!-- Generated by graphviz version 2.43.0 (0)
 -->
<!-- Title: NoteEditorUI::openTabByUuid Pages: 1 -->
<svg width="574pt" height="27pt"
 viewBox="0.00 0.00 574.00 27.00" xmlns="http://www.w3.org/2000/svg" xmlns:xlink="http://www.w3.org/1999/xlink">
<g id="graph0" class="graph" transform="scale(1 1) rotate(0) translate(4 23)">
<title>NoteEditorUI::openTabByUuid</title>
<!-- Node1 -->
<g id="Node000001" class="node">
<title>Node1</title>
<g id="a_Node000001"><a xlink:title=" ">
<polygon fill="#999999" stroke="#666666" points="161,-19 0,-19 0,0 161,0 161,-19"/>
<text text-anchor="middle" x="80.5" y="-7" font-family="Helvetica,sans-Serif" font-size="10.00">NoteEditorUI::openTabByUuid</text>
</a>
</g>
</g>
<!-- Node2 -->
<g id="Node000002" class="node">
<title>Node2</title>
<g id="a_Node000002"><a xlink:href="../../dc/de9/classNoteEditorUI.html#ae6cdb065e2d7f4eb4633cf81c21d8cad" target="_top" xlink:title=" ">
<polygon fill="white" stroke="#666666" points="361,-19 197,-19 197,0 361,0 361,-19"/>
<text text-anchor="middle" x="279" y="-7" font-family="Helvetica,sans-Serif" font-size="10.00">NoteEditorUI::openOrFocusTab</text>
</a>
</g>
</g>
<!-- Node1&#45;&gt;Node2 -->
<g id="edge1_Node000001_Node000002" class="edge">
<title>Node1&#45;&gt;Node2</title>
<g id="a_edge1_Node000001_Node000002"><a xlink:title=" ">
<path fill="none" stroke="#63b8ff" d="M161.14,-9.5C169.63,-9.5 178.31,-9.5 186.91,-9.5"/>
<polygon fill="#63b8ff" stroke="#63b8ff" points="186.97,-13 196.97,-9.5 186.97,-6 186.97,-13"/>
</a>
</g>
</g>
<!-- Node3 -->
<g id="Node000003" class="node">
<title>Node3</title>
<g id="a_Node000003"><a xlink:href="../../dc/de9/classNoteEditorUI.html#a818ddcd070082f3d89964a77ec669601" target="_top" xlink:title=" ">
<polygon fill="white" stroke="#666666" points="566,-19 397,-19 397,0 566,0 566,-19"/>
<text text-anchor="middle" x="481.5" y="-7" font-family="Helvetica,sans-Serif" font-size="10.00">NoteEditorUI::addTabIfMissing_</text>
</a>
</g>
</g>
<!-- Node2&#45;&gt;Node3 -->
<g id="edge2_Node000002_Node000003" class="edge">
<title>Node2&#45;&gt;Node3</title>
<g id="a_edge2_Node000002_Node000003"><a xlink:title=" ">
<path fill="none" stroke="#63b8ff" d="M361.26,-9.5C369.6,-9.5 378.11,-9.5 386.57,-9.5"/>
<polygon fill="#63b8ff" stroke="#63b8ff" points="386.84,-13 396.84,-9.5 386.84,-6 386.84,-13"/>
</a>
</g>
</g>
</g>
</svg>
