<?xml version="1.0" encoding="UTF-8" standalone="no"?>
<!DOCTYPE svg PUBLIC "-//W3C//DTD SVG 1.1//EN"
 "http://www.w3.org/Graphics/SVG/1.1/DTD/svg11.dtd">
<!-- Generated by graphviz version 2.43.0 (0)
 -->
<!-- Title: NoteEditorUI::render Pages: 1 -->
<svg width="1165pt" height="314pt"
 viewBox="0.00 0.00 1165.00 314.33" xmlns="http://www.w3.org/2000/svg" xmlns:xlink="http://www.w3.org/1999/xlink">
<g id="graph0" class="graph" transform="scale(1 1) rotate(0) translate(4 310.33)">
<title>NoteEditorUI::render</title>
<!-- Node1 -->
<g id="Node000001" class="node">
<title>Node1</title>
<g id="a_Node000001"><a xlink:title=" ">
<polygon fill="#999999" stroke="#666666" points="116,-121.33 0,-121.33 0,-102.33 116,-102.33 116,-121.33"/>
<text text-anchor="middle" x="58" y="-109.33" font-family="Helvetica,sans-Serif" font-size="10.00">NoteEditorUI::render</text>
</a>
</g>
</g>
<!-- Node2 -->
<g id="Node000002" class="node">
<title>Node2</title>
<g id="a_Node000002"><a xlink:href="../../dc/de9/classNoteEditorUI.html#a4b6d90e40bab36d5a965d577e9761142" target="_top" xlink:title=" ">
<polygon fill="white" stroke="#666666" points="503.5,-214.33 371.5,-214.33 371.5,-195.33 503.5,-195.33 503.5,-214.33"/>
<text text-anchor="middle" x="437.5" y="-202.33" font-family="Helvetica,sans-Serif" font-size="10.00">NoteEditorUI::closeTab_</text>
</a>
</g>
</g>
<!-- Node1&#45;&gt;Node2 -->
<g id="edge1_Node000001_Node000002" class="edge">
<title>Node1&#45;&gt;Node2</title>
<g id="a_edge1_Node000001_Node000002"><a xlink:title=" ">
<path fill="none" stroke="#63b8ff" d="M67.34,-121.35C82.36,-137.74 115.8,-170.88 152,-184.83 219.34,-210.78 302.22,-213.66 361.12,-211.33"/>
<polygon fill="#63b8ff" stroke="#63b8ff" points="361.63,-214.82 371.46,-210.86 361.31,-207.82 361.63,-214.82"/>
</a>
</g>
</g>
<!-- Node3 -->
<g id="Node000003" class="node">
<title>Node3</title>
<g id="a_Node000003"><a xlink:href="../../dc/de9/classNoteEditorUI.html#ae6cdb065e2d7f4eb4633cf81c21d8cad" target="_top" xlink:title=" ">
<polygon fill="white" stroke="#666666" points="948,-83.33 784,-83.33 784,-64.33 948,-64.33 948,-83.33"/>
<text text-anchor="middle" x="866" y="-71.33" font-family="Helvetica,sans-Serif" font-size="10.00">NoteEditorUI::openOrFocusTab</text>
</a>
</g>
</g>
<!-- Node1&#45;&gt;Node3 -->
<g id="edge2_Node000001_Node000003" class="edge">
<title>Node1&#45;&gt;Node3</title>
<g id="a_edge2_Node000001_Node000003"><a xlink:title=" ">
<path fill="none" stroke="#63b8ff" d="M83.22,-102.28C172.17,-68.5 488.87,40.25 744,-16.83 780.01,-24.89 817.94,-44.9 841.53,-58.93"/>
<polygon fill="#63b8ff" stroke="#63b8ff" points="839.76,-61.95 850.12,-64.15 843.4,-55.97 839.76,-61.95"/>
</a>
</g>
</g>
<!-- Node5 -->
<g id="Node000005" class="node">
<title>Node5</title>
<g id="a_Node000005"><a xlink:href="../../dc/de9/classNoteEditorUI.html#a51f8b15563300d06e71d3c40f6f9446b" target="_top" xlink:title=" ">
<polygon fill="white" stroke="#666666" points="521,-83.33 354,-83.33 354,-64.33 521,-64.33 521,-83.33"/>
<text text-anchor="middle" x="437.5" y="-71.33" font-family="Helvetica,sans-Serif" font-size="10.00">NoteEditorUI::renderDirectory_</text>
</a>
</g>
</g>
<!-- Node1&#45;&gt;Node5 -->
<g id="edge4_Node000001_Node000005" class="edge">
<title>Node1&#45;&gt;Node5</title>
<g id="a_edge4_Node000001_Node000005"><a xlink:title=" ">
<path fill="none" stroke="#63b8ff" d="M116.47,-102.58C128.21,-100.86 140.49,-99.18 152,-97.83 215.84,-90.34 288.01,-84.28 343.68,-80.12"/>
<polygon fill="#63b8ff" stroke="#63b8ff" points="344.16,-83.6 353.88,-79.37 343.65,-76.61 344.16,-83.6"/>
</a>
</g>
</g>
<!-- Node7 -->
<g id="Node000007" class="node">
<title>Node7</title>
<g id="a_Node000007"><a xlink:href="../../d9/dff/namespaceUiTypingGuard.html#a63a23afb57376e34f2fac5999eb9f1d9" target="_top" xlink:title=" ">
<polygon fill="white" stroke="#666666" points="732.5,-121.33 568.5,-121.33 568.5,-102.33 732.5,-102.33 732.5,-121.33"/>
<text text-anchor="middle" x="650.5" y="-109.33" font-family="Helvetica,sans-Serif" font-size="10.00">UiTypingGuard::TrackThisInput</text>
</a>
</g>
</g>
<!-- Node1&#45;&gt;Node7 -->
<g id="edge19_Node000001_Node000007" class="edge">
<title>Node1&#45;&gt;Node7</title>
<g id="a_edge19_Node000001_Node000007"><a xlink:title=" ">
<path fill="none" stroke="#63b8ff" d="M116.16,-111.83C218.77,-111.83 435.01,-111.83 558.31,-111.83"/>
<polygon fill="#63b8ff" stroke="#63b8ff" points="558.48,-115.33 568.48,-111.83 558.48,-108.33 558.48,-115.33"/>
</a>
</g>
</g>
<!-- Node8 -->
<g id="Node000008" class="node">
<title>Node8</title>
<g id="a_Node000008"><a xlink:href="../../dc/de9/classNoteEditorUI.html#a3ea6ba49489a982beddb2ed1c4e46cf3" target="_top" xlink:title=" ">
<polygon fill="white" stroke="#666666" points="318,-176.33 152,-176.33 152,-157.33 318,-157.33 318,-176.33"/>
<text text-anchor="middle" x="235" y="-164.33" font-family="Helvetica,sans-Serif" font-size="10.00">NoteEditorUI::renderTabsArea_</text>
</a>
</g>
</g>
<!-- Node1&#45;&gt;Node8 -->
<g id="edge8_Node000001_Node000008" class="edge">
<title>Node1&#45;&gt;Node8</title>
<g id="a_edge8_Node000001_Node000008"><a xlink:title=" ">
<path fill="none" stroke="#63b8ff" d="M89.48,-121.41C118.38,-130.49 161.97,-144.19 193.72,-154.17"/>
<polygon fill="#63b8ff" stroke="#63b8ff" points="192.98,-157.61 203.57,-157.27 195.08,-150.93 192.98,-157.61"/>
</a>
</g>
</g>
<!-- Node4 -->
<g id="Node000004" class="node">
<title>Node4</title>
<g id="a_Node000004"><a xlink:href="../../dc/de9/classNoteEditorUI.html#a818ddcd070082f3d89964a77ec669601" target="_top" xlink:title=" ">
<polygon fill="white" stroke="#666666" points="1157,-83.33 988,-83.33 988,-64.33 1157,-64.33 1157,-83.33"/>
<text text-anchor="middle" x="1072.5" y="-71.33" font-family="Helvetica,sans-Serif" font-size="10.00">NoteEditorUI::addTabIfMissing_</text>
</a>
</g>
</g>
<!-- Node3&#45;&gt;Node4 -->
<g id="edge3_Node000003_Node000004" class="edge">
<title>Node3&#45;&gt;Node4</title>
<g id="a_edge3_Node000003_Node000004"><a xlink:title=" ">
<path fill="none" stroke="#63b8ff" d="M948.12,-73.83C957.8,-73.83 967.75,-73.83 977.59,-73.83"/>
<polygon fill="#63b8ff" stroke="#63b8ff" points="977.8,-77.33 987.8,-73.83 977.8,-70.33 977.8,-77.33"/>
</a>
</g>
</g>
<!-- Node5&#45;&gt;Node3 -->
<g id="edge6_Node000005_Node000003" class="edge">
<title>Node5&#45;&gt;Node3</title>
<g id="a_edge6_Node000005_Node000003"><a xlink:title=" ">
<path fill="none" stroke="#63b8ff" d="M521.24,-73.83C593.66,-73.83 698.7,-73.83 773.58,-73.83"/>
<polygon fill="#63b8ff" stroke="#63b8ff" points="773.94,-77.33 783.94,-73.83 773.94,-70.33 773.94,-77.33"/>
</a>
</g>
</g>
<!-- Node6 -->
<g id="Node000006" class="node">
<title>Node6</title>
<g id="a_Node000006"><a xlink:href="../../dc/de9/classNoteEditorUI.html#a82b355724ddd9de4f031fdb5fde4b22f" target="_top" xlink:title=" ">
<polygon fill="white" stroke="#666666" points="722,-45.33 579,-45.33 579,-26.33 722,-26.33 722,-45.33"/>
<text text-anchor="middle" x="650.5" y="-33.33" font-family="Helvetica,sans-Serif" font-size="10.00">NoteEditorUI::filterMatch_</text>
</a>
</g>
</g>
<!-- Node5&#45;&gt;Node6 -->
<g id="edge5_Node000005_Node000006" class="edge">
<title>Node5&#45;&gt;Node6</title>
<g id="a_edge5_Node000005_Node000006"><a xlink:title=" ">
<path fill="none" stroke="#63b8ff" d="M491.47,-64.29C520.32,-59.09 556.2,-52.63 586.47,-47.18"/>
<polygon fill="#63b8ff" stroke="#63b8ff" points="587.29,-50.59 596.51,-45.37 586.04,-43.7 587.29,-50.59"/>
</a>
</g>
</g>
<!-- Node5&#45;&gt;Node7 -->
<g id="edge7_Node000005_Node000007" class="edge">
<title>Node5&#45;&gt;Node7</title>
<g id="a_edge7_Node000005_Node000007"><a xlink:title=" ">
<path fill="none" stroke="#63b8ff" d="M491.47,-83.37C520.32,-88.56 556.2,-95.02 586.47,-100.48"/>
<polygon fill="#63b8ff" stroke="#63b8ff" points="586.04,-103.96 596.51,-102.28 587.29,-97.07 586.04,-103.96"/>
</a>
</g>
</g>
<!-- Node8&#45;&gt;Node2 -->
<g id="edge9_Node000008_Node000002" class="edge">
<title>Node8&#45;&gt;Node2</title>
<g id="a_edge9_Node000008_Node000002"><a xlink:title=" ">
<path fill="none" stroke="#63b8ff" d="M286.34,-176.37C313.63,-181.54 347.54,-187.97 376.23,-193.41"/>
<polygon fill="#63b8ff" stroke="#63b8ff" points="375.67,-196.86 386.14,-195.28 376.97,-189.98 375.67,-196.86"/>
</a>
</g>
</g>
<!-- Node9 -->
<g id="Node000009" class="node">
<title>Node9</title>
<g id="a_Node000009"><a xlink:href="../../dc/de9/classNoteEditorUI.html#a41e928a368befa223a486e3417e26382" target="_top" xlink:title=" ">
<polygon fill="white" stroke="#666666" points="516.5,-177.33 358.5,-177.33 358.5,-158.33 516.5,-158.33 516.5,-177.33"/>
<text text-anchor="middle" x="437.5" y="-165.33" font-family="Helvetica,sans-Serif" font-size="10.00">NoteEditorUI::renderOneTab_</text>
</a>
</g>
</g>
<!-- Node8&#45;&gt;Node9 -->
<g id="edge10_Node000008_Node000009" class="edge">
<title>Node8&#45;&gt;Node9</title>
<g id="a_edge10_Node000008_Node000009"><a xlink:title=" ">
<path fill="none" stroke="#63b8ff" d="M318.13,-167.24C328,-167.29 338.12,-167.34 348.07,-167.39"/>
<polygon fill="#63b8ff" stroke="#63b8ff" points="348.36,-170.89 358.38,-167.44 348.39,-163.89 348.36,-170.89"/>
</a>
</g>
</g>
<!-- Node9&#45;&gt;Node7 -->
<g id="edge18_Node000009_Node000007" class="edge">
<title>Node9&#45;&gt;Node7</title>
<g id="a_edge18_Node000009_Node000007"><a xlink:title=" ">
<path fill="none" stroke="#63b8ff" d="M465.06,-158.32C488.91,-150.01 524.98,-138.05 557,-129.83 566.06,-127.5 575.68,-125.32 585.16,-123.33"/>
<polygon fill="#63b8ff" stroke="#63b8ff" points="585.87,-126.76 594.97,-121.33 584.47,-119.9 585.87,-126.76"/>
</a>
</g>
</g>
<!-- Node10 -->
<g id="Node000010" class="node">
<title>Node10</title>
<g id="a_Node000010"><a xlink:href="../../dc/de9/classNoteEditorUI.html#a1bf409f46d4db716685a06b0474edf72" target="_top" xlink:title=" ">
<polygon fill="white" stroke="#666666" points="726.5,-306.33 574.5,-306.33 574.5,-287.33 726.5,-287.33 726.5,-306.33"/>
<text text-anchor="middle" x="650.5" y="-294.33" font-family="Helvetica,sans-Serif" font-size="10.00">NoteEditorUI::actSaveNote_</text>
</a>
</g>
</g>
<!-- Node9&#45;&gt;Node10 -->
<g id="edge11_Node000009_Node000010" class="edge">
<title>Node9&#45;&gt;Node10</title>
<g id="a_edge11_Node000009_Node000010"><a xlink:title=" ">
<path fill="none" stroke="#63b8ff" d="M508.08,-177.45C512.73,-179.73 517.1,-182.49 521,-185.83 554.67,-214.66 523.01,-250.38 557,-278.83 559.57,-280.98 562.33,-282.9 565.21,-284.62"/>
<polygon fill="#63b8ff" stroke="#63b8ff" points="563.74,-287.8 574.24,-289.17 566.89,-281.55 563.74,-287.8"/>
</a>
</g>
</g>
<!-- Node11 -->
<g id="Node000011" class="node">
<title>Node11</title>
<g id="a_Node000011"><a xlink:href="../../de/d4b/NoteEditorUI_8cpp.html#a45d4ae7298891b5e82f640db9de87f35" target="_top" xlink:title=" ">
<polygon fill="white" stroke="#666666" points="744,-269.33 557,-269.33 557,-250.33 744,-250.33 744,-269.33"/>
<text text-anchor="middle" x="650.5" y="-257.33" font-family="Helvetica,sans-Serif" font-size="10.00">InputTextMultilineString_HardWrap</text>
</a>
</g>
</g>
<!-- Node9&#45;&gt;Node11 -->
<g id="edge12_Node000009_Node000011" class="edge">
<title>Node9&#45;&gt;Node11</title>
<g id="a_edge12_Node000009_Node000011"><a xlink:title=" ">
<path fill="none" stroke="#63b8ff" d="M504.85,-177.38C510.57,-179.64 516.05,-182.42 521,-185.83 545.06,-202.4 532.84,-224.41 557,-240.83 559.94,-242.82 563.04,-244.62 566.26,-246.23"/>
<polygon fill="#63b8ff" stroke="#63b8ff" points="565.03,-249.51 575.59,-250.31 567.83,-243.1 565.03,-249.51"/>
</a>
</g>
</g>
<!-- Node13 -->
<g id="Node000013" class="node">
<title>Node13</title>
<g id="a_Node000013"><a xlink:href="../../dc/de9/classNoteEditorUI.html#aecb8f4275999ce387668ca2db3acd2e5" target="_top" xlink:title=" ">
<polygon fill="white" stroke="#666666" points="731,-158.33 570,-158.33 570,-139.33 731,-139.33 731,-158.33"/>
<text text-anchor="middle" x="650.5" y="-146.33" font-family="Helvetica,sans-Serif" font-size="10.00">NoteEditorUI::openTabByUuid</text>
</a>
</g>
</g>
<!-- Node9&#45;&gt;Node13 -->
<g id="edge14_Node000009_Node000013" class="edge">
<title>Node9&#45;&gt;Node13</title>
<g id="a_edge14_Node000009_Node000013"><a xlink:title=" ">
<path fill="none" stroke="#63b8ff" d="M516.77,-160.78C530.74,-159.52 545.39,-158.2 559.65,-156.92"/>
<polygon fill="#63b8ff" stroke="#63b8ff" points="560.3,-160.37 569.95,-155.99 559.67,-153.4 560.3,-160.37"/>
</a>
</g>
</g>
<!-- Node14 -->
<g id="Node000014" class="node">
<title>Node14</title>
<g id="a_Node000014"><a xlink:href="../../d6/d22/classNotesManager.html#adc59a0ee5716f09b1ed47e0c0fe5f4ec" target="_top" xlink:title=" ">
<polygon fill="white" stroke="#666666" points="730,-232.33 571,-232.33 571,-213.33 730,-213.33 730,-232.33"/>
<text text-anchor="middle" x="650.5" y="-220.33" font-family="Helvetica,sans-Serif" font-size="10.00">NotesManager::toEpochMillis</text>
</a>
</g>
</g>
<!-- Node9&#45;&gt;Node14 -->
<g id="edge16_Node000009_Node000014" class="edge">
<title>Node9&#45;&gt;Node14</title>
<g id="a_edge16_Node000009_Node000014"><a xlink:title=" ">
<path fill="none" stroke="#63b8ff" d="M491.86,-177.43C501.67,-179.77 511.74,-182.56 521,-185.83 537.87,-191.78 540.09,-197.98 557,-203.83 564.71,-206.5 572.92,-208.84 581.14,-210.9"/>
<polygon fill="#63b8ff" stroke="#63b8ff" points="580.6,-214.37 591.14,-213.26 582.21,-207.55 580.6,-214.37"/>
</a>
</g>
</g>
<!-- Node15 -->
<g id="Node000015" class="node">
<title>Node15</title>
<g id="a_Node000015"><a xlink:href="../../dc/de9/classNoteEditorUI.html#a443c48e18d7f3f4ad45f36263805b700" target="_top" xlink:title=" ">
<polygon fill="white" stroke="#666666" points="738,-195.33 563,-195.33 563,-176.33 738,-176.33 738,-195.33"/>
<text text-anchor="middle" x="650.5" y="-183.33" font-family="Helvetica,sans-Serif" font-size="10.00">NoteEditorUI::toggleOpenEditor_</text>
</a>
</g>
</g>
<!-- Node9&#45;&gt;Node15 -->
<g id="edge17_Node000009_Node000015" class="edge">
<title>Node9&#45;&gt;Node15</title>
<g id="a_edge17_Node000009_Node000015"><a xlink:title=" ">
<path fill="none" stroke="#63b8ff" d="M516.77,-174.51C528.5,-175.51 540.71,-176.55 552.76,-177.58"/>
<polygon fill="#63b8ff" stroke="#63b8ff" points="552.58,-181.07 562.84,-178.44 553.17,-174.1 552.58,-181.07"/>
</a>
</g>
</g>
<!-- Node12 -->
<g id="Node000012" class="node">
<title>Node12</title>
<g id="a_Node000012"><a xlink:href="../../de/d4b/NoteEditorUI_8cpp.html#a10b418a248e7bff57a91ed717dd09739" target="_top" xlink:title=" ">
<polygon fill="white" stroke="#666666" points="952,-269.33 780,-269.33 780,-250.33 952,-250.33 952,-269.33"/>
<text text-anchor="middle" x="866" y="-257.33" font-family="Helvetica,sans-Serif" font-size="10.00">InputTextMultilineWrapCallback</text>
</a>
</g>
</g>
<!-- Node11&#45;&gt;Node12 -->
<g id="edge13_Node000011_Node000012" class="edge">
<title>Node11&#45;&gt;Node12</title>
<g id="a_edge13_Node000011_Node000012"><a xlink:title=" ">
<path fill="none" stroke="#63b8ff" d="M744.21,-259.83C752.61,-259.83 761.13,-259.83 769.56,-259.83"/>
<polygon fill="#63b8ff" stroke="#63b8ff" points="769.77,-263.33 779.77,-259.83 769.77,-256.33 769.77,-263.33"/>
</a>
</g>
</g>
<!-- Node13&#45;&gt;Node3 -->
<g id="edge15_Node000013_Node000003" class="edge">
<title>Node13&#45;&gt;Node3</title>
<g id="a_edge15_Node000013_Node000003"><a xlink:title=" ">
<path fill="none" stroke="#63b8ff" d="M708.3,-139.32C720.23,-136.72 732.63,-133.57 744,-129.83 777.77,-118.71 814.58,-100.77 838.62,-88.2"/>
<polygon fill="#63b8ff" stroke="#63b8ff" points="840.29,-91.28 847.48,-83.51 837.01,-85.1 840.29,-91.28"/>
</a>
</g>
</g>
</g>
</svg>
