<?xml version="1.0" encoding="UTF-8" standalone="no"?>
<!DOCTYPE svg PUBLIC "-//W3C//DTD SVG 1.1//EN"
 "http://www.w3.org/Graphics/SVG/1.1/DTD/svg11.dtd">
<!-- Generated by graphviz version 2.43.0 (0)
 -->
<!-- Title: NoteEditorUI::renderOneTab_ Pages: 1 -->
<svg width="802pt" height="212pt"
 viewBox="0.00 0.00 802.00 212.00" xmlns="http://www.w3.org/2000/svg" xmlns:xlink="http://www.w3.org/1999/xlink">
<g id="graph0" class="graph" transform="scale(1 1) rotate(0) translate(4 208)">
<title>NoteEditorUI::renderOneTab_</title>
<!-- Node1 -->
<g id="Node000001" class="node">
<title>Node1</title>
<g id="a_Node000001"><a xlink:title=" ">
<polygon fill="#999999" stroke="#666666" points="158,-111 0,-111 0,-92 158,-92 158,-111"/>
<text text-anchor="middle" x="79" y="-99" font-family="Helvetica,sans-Serif" font-size="10.00">NoteEditorUI::renderOneTab_</text>
</a>
</g>
</g>
<!-- Node2 -->
<g id="Node000002" class="node">
<title>Node2</title>
<g id="a_Node000002"><a xlink:href="../../dc/de9/classNoteEditorUI.html#a1bf409f46d4db716685a06b0474edf72" target="_top" xlink:title=" ">
<polygon fill="white" stroke="#666666" points="363.5,-204 211.5,-204 211.5,-185 363.5,-185 363.5,-204"/>
<text text-anchor="middle" x="287.5" y="-192" font-family="Helvetica,sans-Serif" font-size="10.00">NoteEditorUI::actSaveNote_</text>
</a>
</g>
</g>
<!-- Node1&#45;&gt;Node2 -->
<g id="edge1_Node000001_Node000002" class="edge">
<title>Node1&#45;&gt;Node2</title>
<g id="a_edge1_Node000001_Node000002"><a xlink:title=" ">
<path fill="none" stroke="#63b8ff" d="M91.13,-111.01C110.61,-127.12 152.76,-159.69 194,-176.5 199.34,-178.68 204.96,-180.59 210.68,-182.28"/>
<polygon fill="#63b8ff" stroke="#63b8ff" points="209.82,-185.67 220.38,-184.92 211.65,-178.92 209.82,-185.67"/>
</a>
</g>
</g>
<!-- Node3 -->
<g id="Node000003" class="node">
<title>Node3</title>
<g id="a_Node000003"><a xlink:href="../../de/d4b/NoteEditorUI_8cpp.html#a45d4ae7298891b5e82f640db9de87f35" target="_top" xlink:title=" ">
<polygon fill="white" stroke="#666666" points="381,-167 194,-167 194,-148 381,-148 381,-167"/>
<text text-anchor="middle" x="287.5" y="-155" font-family="Helvetica,sans-Serif" font-size="10.00">InputTextMultilineString_HardWrap</text>
</a>
</g>
</g>
<!-- Node1&#45;&gt;Node3 -->
<g id="edge2_Node000001_Node000003" class="edge">
<title>Node1&#45;&gt;Node3</title>
<g id="a_edge2_Node000001_Node000003"><a xlink:title=" ">
<path fill="none" stroke="#63b8ff" d="M105.52,-111.06C128.44,-119.4 163.13,-131.39 194,-139.5 202.72,-141.79 211.96,-143.93 221.11,-145.87"/>
<polygon fill="#63b8ff" stroke="#63b8ff" points="220.46,-149.31 230.96,-147.91 221.88,-142.46 220.46,-149.31"/>
</a>
</g>
</g>
<!-- Node5 -->
<g id="Node000005" class="node">
<title>Node5</title>
<g id="a_Node000005"><a xlink:href="../../dc/de9/classNoteEditorUI.html#aecb8f4275999ce387668ca2db3acd2e5" target="_top" xlink:title=" ">
<polygon fill="white" stroke="#666666" points="368,-130 207,-130 207,-111 368,-111 368,-130"/>
<text text-anchor="middle" x="287.5" y="-118" font-family="Helvetica,sans-Serif" font-size="10.00">NoteEditorUI::openTabByUuid</text>
</a>
</g>
</g>
<!-- Node1&#45;&gt;Node5 -->
<g id="edge4_Node000001_Node000005" class="edge">
<title>Node1&#45;&gt;Node5</title>
<g id="a_edge4_Node000001_Node000005"><a xlink:title=" ">
<path fill="none" stroke="#63b8ff" d="M158.07,-108.68C170.69,-109.84 183.84,-111.05 196.7,-112.24"/>
<polygon fill="#63b8ff" stroke="#63b8ff" points="196.67,-115.75 206.95,-113.18 197.31,-108.78 196.67,-115.75"/>
</a>
</g>
</g>
<!-- Node8 -->
<g id="Node000008" class="node">
<title>Node8</title>
<g id="a_Node000008"><a xlink:href="../../d6/d22/classNotesManager.html#adc59a0ee5716f09b1ed47e0c0fe5f4ec" target="_top" xlink:title=" ">
<polygon fill="white" stroke="#666666" points="367,-93 208,-93 208,-74 367,-74 367,-93"/>
<text text-anchor="middle" x="287.5" y="-81" font-family="Helvetica,sans-Serif" font-size="10.00">NotesManager::toEpochMillis</text>
</a>
</g>
</g>
<!-- Node1&#45;&gt;Node8 -->
<g id="edge7_Node000001_Node000008" class="edge">
<title>Node1&#45;&gt;Node8</title>
<g id="a_edge7_Node000001_Node000008"><a xlink:title=" ">
<path fill="none" stroke="#63b8ff" d="M158.07,-94.69C171.08,-93.56 184.67,-92.38 197.92,-91.22"/>
<polygon fill="#63b8ff" stroke="#63b8ff" points="198.32,-94.7 207.98,-90.34 197.71,-87.73 198.32,-94.7"/>
</a>
</g>
</g>
<!-- Node9 -->
<g id="Node000009" class="node">
<title>Node9</title>
<g id="a_Node000009"><a xlink:href="../../dc/de9/classNoteEditorUI.html#a443c48e18d7f3f4ad45f36263805b700" target="_top" xlink:title=" ">
<polygon fill="white" stroke="#666666" points="375,-56 200,-56 200,-37 375,-37 375,-56"/>
<text text-anchor="middle" x="287.5" y="-44" font-family="Helvetica,sans-Serif" font-size="10.00">NoteEditorUI::toggleOpenEditor_</text>
</a>
</g>
</g>
<!-- Node1&#45;&gt;Node9 -->
<g id="edge8_Node000001_Node000009" class="edge">
<title>Node1&#45;&gt;Node9</title>
<g id="a_edge8_Node000001_Node000009"><a xlink:title=" ">
<path fill="none" stroke="#63b8ff" d="M107.41,-91.97C130.36,-84.2 164.07,-73.28 194,-65.5 204.1,-62.88 214.9,-60.38 225.42,-58.11"/>
<polygon fill="#63b8ff" stroke="#63b8ff" points="226.33,-61.5 235.39,-56.02 224.89,-54.65 226.33,-61.5"/>
</a>
</g>
</g>
<!-- Node10 -->
<g id="Node000010" class="node">
<title>Node10</title>
<g id="a_Node000010"><a xlink:href="../../d9/dff/namespaceUiTypingGuard.html#a63a23afb57376e34f2fac5999eb9f1d9" target="_top" xlink:title=" ">
<polygon fill="white" stroke="#666666" points="369.5,-19 205.5,-19 205.5,0 369.5,0 369.5,-19"/>
<text text-anchor="middle" x="287.5" y="-7" font-family="Helvetica,sans-Serif" font-size="10.00">UiTypingGuard::TrackThisInput</text>
</a>
</g>
</g>
<!-- Node1&#45;&gt;Node10 -->
<g id="edge9_Node000001_Node000010" class="edge">
<title>Node1&#45;&gt;Node10</title>
<g id="a_edge9_Node000001_Node000010"><a xlink:title=" ">
<path fill="none" stroke="#63b8ff" d="M91.83,-91.8C111.67,-76.04 153.5,-44.96 194,-28.5 200.33,-25.93 207.04,-23.69 213.86,-21.75"/>
<polygon fill="#63b8ff" stroke="#63b8ff" points="215.1,-25.04 223.87,-19.1 213.31,-18.27 215.1,-25.04"/>
</a>
</g>
</g>
<!-- Node4 -->
<g id="Node000004" class="node">
<title>Node4</title>
<g id="a_Node000004"><a xlink:href="../../de/d4b/NoteEditorUI_8cpp.html#a10b418a248e7bff57a91ed717dd09739" target="_top" xlink:title=" ">
<polygon fill="white" stroke="#666666" points="589,-167 417,-167 417,-148 589,-148 589,-167"/>
<text text-anchor="middle" x="503" y="-155" font-family="Helvetica,sans-Serif" font-size="10.00">InputTextMultilineWrapCallback</text>
</a>
</g>
</g>
<!-- Node3&#45;&gt;Node4 -->
<g id="edge3_Node000003_Node000004" class="edge">
<title>Node3&#45;&gt;Node4</title>
<g id="a_edge3_Node000003_Node000004"><a xlink:title=" ">
<path fill="none" stroke="#63b8ff" d="M381.21,-157.5C389.61,-157.5 398.13,-157.5 406.56,-157.5"/>
<polygon fill="#63b8ff" stroke="#63b8ff" points="406.77,-161 416.77,-157.5 406.77,-154 406.77,-161"/>
</a>
</g>
</g>
<!-- Node6 -->
<g id="Node000006" class="node">
<title>Node6</title>
<g id="a_Node000006"><a xlink:href="../../dc/de9/classNoteEditorUI.html#ae6cdb065e2d7f4eb4633cf81c21d8cad" target="_top" xlink:title=" ">
<polygon fill="white" stroke="#666666" points="585,-130 421,-130 421,-111 585,-111 585,-130"/>
<text text-anchor="middle" x="503" y="-118" font-family="Helvetica,sans-Serif" font-size="10.00">NoteEditorUI::openOrFocusTab</text>
</a>
</g>
</g>
<!-- Node5&#45;&gt;Node6 -->
<g id="edge5_Node000005_Node000006" class="edge">
<title>Node5&#45;&gt;Node6</title>
<g id="a_edge5_Node000005_Node000006"><a xlink:title=" ">
<path fill="none" stroke="#63b8ff" d="M368.3,-120.5C382.12,-120.5 396.59,-120.5 410.68,-120.5"/>
<polygon fill="#63b8ff" stroke="#63b8ff" points="410.87,-124 420.87,-120.5 410.87,-117 410.87,-124"/>
</a>
</g>
</g>
<!-- Node7 -->
<g id="Node000007" class="node">
<title>Node7</title>
<g id="a_Node000007"><a xlink:href="../../dc/de9/classNoteEditorUI.html#a818ddcd070082f3d89964a77ec669601" target="_top" xlink:title=" ">
<polygon fill="white" stroke="#666666" points="794,-130 625,-130 625,-111 794,-111 794,-130"/>
<text text-anchor="middle" x="709.5" y="-118" font-family="Helvetica,sans-Serif" font-size="10.00">NoteEditorUI::addTabIfMissing_</text>
</a>
</g>
</g>
<!-- Node6&#45;&gt;Node7 -->
<g id="edge6_Node000006_Node000007" class="edge">
<title>Node6&#45;&gt;Node7</title>
<g id="a_edge6_Node000006_Node000007"><a xlink:title=" ">
<path fill="none" stroke="#63b8ff" d="M585.12,-120.5C594.8,-120.5 604.75,-120.5 614.59,-120.5"/>
<polygon fill="#63b8ff" stroke="#63b8ff" points="614.8,-124 624.8,-120.5 614.8,-117 614.8,-124"/>
</a>
</g>
</g>
</g>
</svg>
