<?xml version="1.0" encoding="UTF-8" standalone="no"?>
<!DOCTYPE svg PUBLIC "-//W3C//DTD SVG 1.1//EN"
 "http://www.w3.org/Graphics/SVG/1.1/DTD/svg11.dtd">
<!-- Generated by graphviz version 2.43.0 (0)
 -->
<!-- Title: NoteEditorUI::renderTabsArea_ Pages: 1 -->
<!--zoomable 212 -->

<svg id="main" version="1.1" xmlns="http://www.w3.org/2000/svg" xmlns:xlink="http://www.w3.org/1999/xlink" xml:space="preserve" onload="init(evt)">
<style type="text/css"><![CDATA[
.node, .edge {opacity: 0.7;}
.node.selected, .edge.selected {opacity: 1;}
.edge:hover path { stroke: red; }
.edge:hover polygon { stroke: red; fill: red; }
]]></style>

<defs>
  <circle id="rim" cx="0" cy="0" r="7"/>
  <circle id="rim2" cx="0" cy="0" r="3.5"/>
  <g id="zoomPlus">
    <use xlink:href="#rim" fill="#404040"><set attributeName="fill" to="#808080" begin="zoomplus.mouseover" end="zoomplus.mouseout"/></use>
    <path d="M-4,0h8M0,-4v8" fill="none" stroke="white" stroke-width="1.5" pointer-events="none"/>
  </g>
  <g id="zoomMin">
    <use xlink:href="#rim" fill="#404040"><set attributeName="fill" to="#808080" begin="zoomminus.mouseover" end="zoomminus.mouseout"/></use>
    <path d="M-4,0h8" fill="none" stroke="white" stroke-width="1.5" pointer-events="none"/>
  </g>
  <g id="arrowUp" transform="translate(30 24)">
    <use xlink:href="#rim"/>
    <path pointer-events="none" fill="none" stroke="white" stroke-width="1.5" d="M0,-3.0v7 M-2.5,-0.5L0,-3.0L2.5,-0.5"/>
  </g>
  <g id="arrowRight" transform="rotate(90) translate(36 -43)">
    <use xlink:href="#rim"/>
    <path pointer-events="none" fill="none" stroke="white" stroke-width="1.5" d="M0,-3.0v7 M-2.5,-0.5L0,-3.0L2.5,-0.5"/>
  </g>
  <g id="arrowDown" transform="rotate(180) translate(-30 -48)">
    <use xlink:href="#rim"/>
    <path pointer-events="none" fill="none" stroke="white" stroke-width="1.5" d="M0,-3.0v7 M-2.5,-0.5L0,-3.0L2.5,-0.5"/>
  </g>
  <g id="arrowLeft" transform="rotate(270) translate(-36 17)">
    <use xlink:href="#rim"/>
    <path pointer-events="none" fill="none" stroke="white" stroke-width="1.5" d="M0,-3.0v7 M-2.5,-0.5L0,-3.0L2.5,-0.5"/>
  </g>
  <g id="resetDef">
    <use xlink:href="#rim2" fill="#404040"><set attributeName="fill" to="#808080" begin="reset.mouseover" end="reset.mouseout"/></use>
  </g>
</defs>
<script type="application/ecmascript">
var viewWidth = 1004;
var viewHeight = 212;
var sectionId = 'dynsection-17';
</script>
<script type="application/ecmascript" xlink:href="../../svg.min.js"/>
<svg id="graph" class="graph">
<g id="viewport">
<title>NoteEditorUI::renderTabsArea_</title>
<!-- Node1 -->
<g id="Node000001" class="node">
<title>Node1</title>
<g id="a_Node000001"><a xlink:title=" ">
<polygon fill="#999999" stroke="#666666" points="166,-129 0,-129 0,-110 166,-110 166,-129"/>
<text text-anchor="middle" x="83" y="-117" font-family="Helvetica,sans-Serif" font-size="10.00">NoteEditorUI::renderTabsArea_</text>
</a>
</g>
</g>
<!-- Node2 -->
<g id="Node000002" class="node">
<title>Node2</title>
<g id="a_Node000002"><a xlink:href="../../dc/de9/classNoteEditorUI.html#a4b6d90e40bab36d5a965d577e9761142" target="_top" xlink:title=" ">
<polygon fill="white" stroke="#666666" points="347,-148 215,-148 215,-129 347,-129 347,-148"/>
<text text-anchor="middle" x="281" y="-136" font-family="Helvetica,sans-Serif" font-size="10.00">NoteEditorUI::closeTab_</text>
</a>
</g>
</g>
<!-- Node1&#45;&gt;Node2 -->
<g id="edge1_Node000001_Node000002" class="edge">
<title>Node1&#45;&gt;Node2</title>
<g id="a_edge1_Node000001_Node000002"><a xlink:title=" ">
<path fill="none" stroke="#63b8ff" d="M166.27,-127.48C179.08,-128.72 192.26,-129.99 204.91,-131.22"/>
<polygon fill="#63b8ff" stroke="#63b8ff" points="204.62,-134.71 214.91,-132.19 205.3,-127.74 204.62,-134.71"/>
</a>
</g>
</g>
<!-- Node3 -->
<g id="Node000003" class="node">
<title>Node3</title>
<g id="a_Node000003"><a xlink:href="../../dc/de9/classNoteEditorUI.html#a41e928a368befa223a486e3417e26382" target="_top" xlink:title=" ">
<polygon fill="white" stroke="#666666" points="360,-111 202,-111 202,-92 360,-92 360,-111"/>
<text text-anchor="middle" x="281" y="-99" font-family="Helvetica,sans-Serif" font-size="10.00">NoteEditorUI::renderOneTab_</text>
</a>
</g>
</g>
<!-- Node1&#45;&gt;Node3 -->
<g id="edge2_Node000001_Node000003" class="edge">
<title>Node1&#45;&gt;Node3</title>
<g id="a_edge2_Node000001_Node000003"><a xlink:title=" ">
<path fill="none" stroke="#63b8ff" d="M166.27,-111.94C174.61,-111.18 183.11,-110.4 191.51,-109.63"/>
<polygon fill="#63b8ff" stroke="#63b8ff" points="192.06,-113.09 201.7,-108.69 191.42,-106.12 192.06,-113.09"/>
</a>
</g>
</g>
<!-- Node4 -->
<g id="Node000004" class="node">
<title>Node4</title>
<g id="a_Node000004"><a xlink:href="../../dc/de9/classNoteEditorUI.html#a1bf409f46d4db716685a06b0474edf72" target="_top" xlink:title=" ">
<polygon fill="white" stroke="#666666" points="565.5,-204 413.5,-204 413.5,-185 565.5,-185 565.5,-204"/>
<text text-anchor="middle" x="489.5" y="-192" font-family="Helvetica,sans-Serif" font-size="10.00">NoteEditorUI::actSaveNote_</text>
</a>
</g>
</g>
<!-- Node3&#45;&gt;Node4 -->
<g id="edge3_Node000003_Node000004" class="edge">
<title>Node3&#45;&gt;Node4</title>
<g id="a_edge3_Node000003_Node000004"><a xlink:title=" ">
<path fill="none" stroke="#63b8ff" d="M342.01,-111.06C348.4,-113.52 354.55,-116.62 360,-120.5 384.09,-137.67 371.51,-159.9 396,-176.5 398.56,-178.23 401.24,-179.81 404.02,-181.24"/>
<polygon fill="#63b8ff" stroke="#63b8ff" points="402.61,-184.45 413.17,-185.34 405.48,-178.06 402.61,-184.45"/>
</a>
</g>
</g>
<!-- Node5 -->
<g id="Node000005" class="node">
<title>Node5</title>
<g id="a_Node000005"><a xlink:href="../../de/d4b/NoteEditorUI_8cpp.html#a45d4ae7298891b5e82f640db9de87f35" target="_top" xlink:title=" ">
<polygon fill="white" stroke="#666666" points="583,-167 396,-167 396,-148 583,-148 583,-167"/>
<text text-anchor="middle" x="489.5" y="-155" font-family="Helvetica,sans-Serif" font-size="10.00">InputTextMultilineString_HardWrap</text>
</a>
</g>
</g>
<!-- Node3&#45;&gt;Node5 -->
<g id="edge4_Node000003_Node000005" class="edge">
<title>Node3&#45;&gt;Node5</title>
<g id="a_edge4_Node000003_Node000005"><a xlink:title=" ">
<path fill="none" stroke="#63b8ff" d="M329.18,-111.01C339.48,-113.63 350.23,-116.8 360,-120.5 376.92,-126.91 378.94,-133.49 396,-139.5 402.43,-141.77 409.21,-143.77 416.07,-145.54"/>
<polygon fill="#63b8ff" stroke="#63b8ff" points="415.59,-149.02 426.13,-147.97 417.23,-142.22 415.59,-149.02"/>
</a>
</g>
</g>
<!-- Node7 -->
<g id="Node000007" class="node">
<title>Node7</title>
<g id="a_Node000007"><a xlink:href="../../dc/de9/classNoteEditorUI.html#aecb8f4275999ce387668ca2db3acd2e5" target="_top" xlink:title=" ">
<polygon fill="white" stroke="#666666" points="570,-130 409,-130 409,-111 570,-111 570,-130"/>
<text text-anchor="middle" x="489.5" y="-118" font-family="Helvetica,sans-Serif" font-size="10.00">NoteEditorUI::openTabByUuid</text>
</a>
</g>
</g>
<!-- Node3&#45;&gt;Node7 -->
<g id="edge6_Node000003_Node000007" class="edge">
<title>Node3&#45;&gt;Node7</title>
<g id="a_edge6_Node000003_Node000007"><a xlink:title=" ">
<path fill="none" stroke="#63b8ff" d="M360.07,-108.68C372.69,-109.84 385.84,-111.05 398.7,-112.24"/>
<polygon fill="#63b8ff" stroke="#63b8ff" points="398.67,-115.75 408.95,-113.18 399.31,-108.78 398.67,-115.75"/>
</a>
</g>
</g>
<!-- Node10 -->
<g id="Node000010" class="node">
<title>Node10</title>
<g id="a_Node000010"><a xlink:href="../../d6/d22/classNotesManager.html#adc59a0ee5716f09b1ed47e0c0fe5f4ec" target="_top" xlink:title=" ">
<polygon fill="white" stroke="#666666" points="569,-93 410,-93 410,-74 569,-74 569,-93"/>
<text text-anchor="middle" x="489.5" y="-81" font-family="Helvetica,sans-Serif" font-size="10.00">NotesManager::toEpochMillis</text>
</a>
</g>
</g>
<!-- Node3&#45;&gt;Node10 -->
<g id="edge9_Node000003_Node000010" class="edge">
<title>Node3&#45;&gt;Node10</title>
<g id="a_edge9_Node000003_Node000010"><a xlink:title=" ">
<path fill="none" stroke="#63b8ff" d="M360.07,-94.69C373.08,-93.56 386.67,-92.38 399.92,-91.22"/>
<polygon fill="#63b8ff" stroke="#63b8ff" points="400.32,-94.7 409.98,-90.34 399.71,-87.73 400.32,-94.7"/>
</a>
</g>
</g>
<!-- Node11 -->
<g id="Node000011" class="node">
<title>Node11</title>
<g id="a_Node000011"><a xlink:href="../../dc/de9/classNoteEditorUI.html#a443c48e18d7f3f4ad45f36263805b700" target="_top" xlink:title=" ">
<polygon fill="white" stroke="#666666" points="577,-56 402,-56 402,-37 577,-37 577,-56"/>
<text text-anchor="middle" x="489.5" y="-44" font-family="Helvetica,sans-Serif" font-size="10.00">NoteEditorUI::toggleOpenEditor_</text>
</a>
</g>
</g>
<!-- Node3&#45;&gt;Node11 -->
<g id="edge10_Node000003_Node000011" class="edge">
<title>Node3&#45;&gt;Node11</title>
<g id="a_edge10_Node000003_Node000011"><a xlink:title=" ">
<path fill="none" stroke="#63b8ff" d="M309.41,-91.97C332.36,-84.2 366.07,-73.28 396,-65.5 406.1,-62.88 416.9,-60.38 427.42,-58.11"/>
<polygon fill="#63b8ff" stroke="#63b8ff" points="428.33,-61.5 437.39,-56.02 426.89,-54.65 428.33,-61.5"/>
</a>
</g>
</g>
<!-- Node12 -->
<g id="Node000012" class="node">
<title>Node12</title>
<g id="a_Node000012"><a xlink:href="../../d9/dff/namespaceUiTypingGuard.html#a63a23afb57376e34f2fac5999eb9f1d9" target="_top" xlink:title=" ">
<polygon fill="white" stroke="#666666" points="571.5,-19 407.5,-19 407.5,0 571.5,0 571.5,-19"/>
<text text-anchor="middle" x="489.5" y="-7" font-family="Helvetica,sans-Serif" font-size="10.00">UiTypingGuard::TrackThisInput</text>
</a>
</g>
</g>
<!-- Node3&#45;&gt;Node12 -->
<g id="edge11_Node000003_Node000012" class="edge">
<title>Node3&#45;&gt;Node12</title>
<g id="a_edge11_Node000003_Node000012"><a xlink:title=" ">
<path fill="none" stroke="#63b8ff" d="M293.83,-91.8C313.67,-76.04 355.5,-44.96 396,-28.5 402.33,-25.93 409.04,-23.69 415.86,-21.75"/>
<polygon fill="#63b8ff" stroke="#63b8ff" points="417.1,-25.04 425.87,-19.1 415.31,-18.27 417.1,-25.04"/>
</a>
</g>
</g>
<!-- Node6 -->
<g id="Node000006" class="node">
<title>Node6</title>
<g id="a_Node000006"><a xlink:href="../../de/d4b/NoteEditorUI_8cpp.html#a10b418a248e7bff57a91ed717dd09739" target="_top" xlink:title=" ">
<polygon fill="white" stroke="#666666" points="791,-167 619,-167 619,-148 791,-148 791,-167"/>
<text text-anchor="middle" x="705" y="-155" font-family="Helvetica,sans-Serif" font-size="10.00">InputTextMultilineWrapCallback</text>
</a>
</g>
</g>
<!-- Node5&#45;&gt;Node6 -->
<g id="edge5_Node000005_Node000006" class="edge">
<title>Node5&#45;&gt;Node6</title>
<g id="a_edge5_Node000005_Node000006"><a xlink:title=" ">
<path fill="none" stroke="#63b8ff" d="M583.21,-157.5C591.61,-157.5 600.13,-157.5 608.56,-157.5"/>
<polygon fill="#63b8ff" stroke="#63b8ff" points="608.77,-161 618.77,-157.5 608.77,-154 608.77,-161"/>
</a>
</g>
</g>
<!-- Node8 -->
<g id="Node000008" class="node">
<title>Node8</title>
<g id="a_Node000008"><a xlink:href="../../dc/de9/classNoteEditorUI.html#ae6cdb065e2d7f4eb4633cf81c21d8cad" target="_top" xlink:title=" ">
<polygon fill="white" stroke="#666666" points="787,-130 623,-130 623,-111 787,-111 787,-130"/>
<text text-anchor="middle" x="705" y="-118" font-family="Helvetica,sans-Serif" font-size="10.00">NoteEditorUI::openOrFocusTab</text>
</a>
</g>
</g>
<!-- Node7&#45;&gt;Node8 -->
<g id="edge7_Node000007_Node000008" class="edge">
<title>Node7&#45;&gt;Node8</title>
<g id="a_edge7_Node000007_Node000008"><a xlink:title=" ">
<path fill="none" stroke="#63b8ff" d="M570.3,-120.5C584.12,-120.5 598.59,-120.5 612.68,-120.5"/>
<polygon fill="#63b8ff" stroke="#63b8ff" points="612.87,-124 622.87,-120.5 612.87,-117 612.87,-124"/>
</a>
</g>
</g>
<!-- Node9 -->
<g id="Node000009" class="node">
<title>Node9</title>
<g id="a_Node000009"><a xlink:href="../../dc/de9/classNoteEditorUI.html#a818ddcd070082f3d89964a77ec669601" target="_top" xlink:title=" ">
<polygon fill="white" stroke="#666666" points="996,-130 827,-130 827,-111 996,-111 996,-130"/>
<text text-anchor="middle" x="911.5" y="-118" font-family="Helvetica,sans-Serif" font-size="10.00">NoteEditorUI::addTabIfMissing_</text>
</a>
</g>
</g>
<!-- Node8&#45;&gt;Node9 -->
<g id="edge8_Node000008_Node000009" class="edge">
<title>Node8&#45;&gt;Node9</title>
<g id="a_edge8_Node000008_Node000009"><a xlink:title=" ">
<path fill="none" stroke="#63b8ff" d="M787.12,-120.5C796.8,-120.5 806.75,-120.5 816.59,-120.5"/>
<polygon fill="#63b8ff" stroke="#63b8ff" points="816.8,-124 826.8,-120.5 816.8,-117 816.8,-124"/>
</a>
</g>
</g>
</g>
</svg>

<g id="navigator" transform="translate(0 0)" fill="#404254">
  <rect fill="#f2f5e9" fill-opacity="0.5" stroke="#606060" stroke-width=".5" x="0" y="0" width="60" height="60"/>
  <use id="zoomplus" xlink:href="#zoomPlus" x="17" y="9" onmousedown="handleZoom(evt,'in')"/>
  <use id="zoomminus" xlink:href="#zoomMin" x="42" y="9" onmousedown="handleZoom(evt,'out')"/>
  <use id="reset" xlink:href="#resetDef" x="30" y="36" onmousedown="handleReset()"/>
   <use id="arrowup" xlink:href="#arrowUp" x="0" y="0" onmousedown="handlePan(0,-1)"/>
  <use id="arrowright" xlink:href="#arrowRight" x="0" y="0" onmousedown="handlePan(1,0)"/>
  <use id="arrowdown" xlink:href="#arrowDown" x="0" y="0" onmousedown="handlePan(0,1)"/>
  <use id="arrowleft" xlink:href="#arrowLeft" x="0" y="0" onmousedown="handlePan(-1,0)"/>
</g>
<svg viewBox="0 0 15 15" width="100%" height="30px" preserveAspectRatio="xMaxYMin meet">
 <g id="arrow_out" transform="scale(0.3 0.3)">
  <a xlink:href="classNoteEditorUI_a3ea6ba49489a982beddb2ed1c4e46cf3_cgraph_org.svg" target="_base">
   <rect id="button" ry="5" rx="5" y="6" x="6" height="38" width="38"
        fill="#f2f5e9" fill-opacity="0.5" stroke="#606060" stroke-width="1.0"/>
   <path id="arrow"
     d="M 11.500037,31.436501 C 11.940474,20.09759 22.043105,11.32322 32.158766,21.979434 L 37.068811,17.246167 C 37.068811,17.246167 37.088388,32 37.088388,32 L 22.160133,31.978069 C 22.160133,31.978069 26.997745,27.140456 26.997745,27.140456 C 18.528582,18.264221 13.291696,25.230495 11.500037,31.436501 z"
     style="fill:#404040;"/>
  </a>
 </g>
</svg>

<style type='text/css'>
<![CDATA[
[data-mouse-over-selected='false'] { opacity: 0.7; }
[data-mouse-over-selected='true']  { opacity: 1.0; }
]]>
</style>
<script type="application/ecmascript"><![CDATA[
document.addEventListener('DOMContentLoaded', (event) => {
  highlightEdges();
  highlightAdjacentNodes();
});
]]></script>
</svg>
