<?xml version="1.0" encoding="UTF-8" standalone="no"?>
<!DOCTYPE svg PUBLIC "-//W3C//DTD SVG 1.1//EN"
 "http://www.w3.org/Graphics/SVG/1.1/DTD/svg11.dtd">
<!-- Generated by graphviz version 14.0.2 (20251019.1705)
 -->
<!-- Title: IdentityManager::setMyIdentity Pages: 1 -->
<svg width="1089pt" height="155pt"
 viewBox="0.00 0.00 1089.00 155.00" xmlns="http://www.w3.org/2000/svg" xmlns:xlink="http://www.w3.org/1999/xlink">
<g id="graph0" class="graph" transform="scale(1 1) rotate(0) translate(4 151.15)">
<title>IdentityManager::setMyIdentity</title>
<!-- Node1 -->
<g id="Node000001" class="node">
<title>Node1</title>
<g id="a_Node000001"><a xlink:title=" ">
<polygon fill="#999999" stroke="#666666" points="151,-66.15 0,-66.15 0,-46.15 151,-46.15 151,-66.15"/>
<text xml:space="preserve" text-anchor="middle" x="75.5" y="-52.65" font-family="Helvetica,sans-Serif" font-size="10.00">IdentityManager::setMyIdentity</text>
</a>
</g>
</g>
<!-- Node2 -->
<g id="Node000002" class="node">
<title>Node2</title>
<g id="a_Node000002"><a xlink:href="../../d4/d55/class_identity_manager.html#a18c85a39c82ac2918657286498bbe8da" target="_top" xlink:title=" ">
<polygon fill="white" stroke="#666666" points="340.62,-47.15 191.88,-47.15 191.88,-15.15 340.62,-15.15 340.62,-47.15"/>
<text xml:space="preserve" text-anchor="start" x="199.88" y="-33.65" font-family="Helvetica,sans-Serif" font-size="10.00">IdentityManager::saveAddress</text>
<text xml:space="preserve" text-anchor="middle" x="266.25" y="-21.65" font-family="Helvetica,sans-Serif" font-size="10.00">BookToFile</text>
</a>
</g>
</g>
<!-- Node1&#45;&gt;Node2 -->
<g id="edge1_Node000001_Node000002" class="edge">
<title>Node1&#45;&gt;Node2</title>
<g id="a_edge1_Node000001_Node000002"><a xlink:title=" ">
<path fill="none" stroke="#63b8ff" d="M151.37,-46.23C160.84,-44.98 170.58,-43.69 180.2,-42.41"/>
<polygon fill="#63b8ff" stroke="#63b8ff" points="180.44,-45.91 189.9,-41.13 179.52,-38.97 180.44,-45.91"/>
</a>
</g>
</g>
<!-- Node9 -->
<g id="Node000009" class="node">
<title>Node9</title>
<g id="a_Node000009"><a xlink:href="../../d4/d55/class_identity_manager.html#a1869a9c4eeaabc2a70e422ae5c685a9b" target="_top" xlink:title=" ">
<polygon fill="white" stroke="#666666" points="345.5,-100.15 187,-100.15 187,-68.15 345.5,-68.15 345.5,-100.15"/>
<text xml:space="preserve" text-anchor="start" x="195" y="-86.65" font-family="Helvetica,sans-Serif" font-size="10.00">IdentityManager::saveMyIdentity</text>
<text xml:space="preserve" text-anchor="middle" x="266.25" y="-74.65" font-family="Helvetica,sans-Serif" font-size="10.00">ToFile</text>
</a>
</g>
</g>
<!-- Node1&#45;&gt;Node9 -->
<g id="edge9_Node000001_Node000009" class="edge">
<title>Node1&#45;&gt;Node9</title>
<g id="a_edge9_Node000001_Node000009"><a xlink:title=" ">
<path fill="none" stroke="#63b8ff" d="M147.05,-66.62C156.31,-67.99 165.89,-69.41 175.42,-70.82"/>
<polygon fill="#63b8ff" stroke="#63b8ff" points="174.64,-74.25 185.05,-72.25 175.67,-67.32 174.64,-74.25"/>
</a>
</g>
</g>
<!-- Node3 -->
<g id="Node000003" class="node">
<title>Node3</title>
<g id="a_Node000003"><a xlink:href="../../d4/d55/class_identity_manager.html#a6423b50955b5c9937b4e3c928ce86dff" target="_top" xlink:title=" ">
<polygon fill="white" stroke="#666666" points="532.5,-35.15 381.5,-35.15 381.5,-15.15 532.5,-15.15 532.5,-35.15"/>
<text xml:space="preserve" text-anchor="middle" x="457" y="-21.65" font-family="Helvetica,sans-Serif" font-size="10.00">IdentityManager::writeBookFile</text>
</a>
</g>
</g>
<!-- Node2&#45;&gt;Node3 -->
<g id="edge2_Node000002_Node000003" class="edge">
<title>Node2&#45;&gt;Node3</title>
<g id="a_edge2_Node000002_Node000003"><a xlink:title=" ">
<path fill="none" stroke="#63b8ff" d="M341.04,-28.8C350.47,-28.5 360.2,-28.19 369.81,-27.89"/>
<polygon fill="#63b8ff" stroke="#63b8ff" points="369.63,-31.4 379.51,-27.58 369.4,-24.4 369.63,-31.4"/>
</a>
</g>
</g>
<!-- Node4 -->
<g id="Node000004" class="node">
<title>Node4</title>
<g id="a_Node000004"><a xlink:href="../../d4/d55/class_identity_manager.html#ad6a5adbbaa98c88ed1447e8783b0a6b8" target="_top" xlink:title=" ">
<polygon fill="white" stroke="#666666" points="703.75,-71.15 568.5,-71.15 568.5,-51.15 703.75,-51.15 703.75,-71.15"/>
<text xml:space="preserve" text-anchor="middle" x="636.12" y="-57.65" font-family="Helvetica,sans-Serif" font-size="10.00">IdentityManager::kBookFile</text>
</a>
</g>
</g>
<!-- Node3&#45;&gt;Node4 -->
<g id="edge3_Node000003_Node000004" class="edge">
<title>Node3&#45;&gt;Node4</title>
<g id="a_edge3_Node000003_Node000004"><a xlink:title=" ">
<path fill="none" stroke="#63b8ff" d="M509.23,-35.56C528.97,-39.57 551.74,-44.2 572.45,-48.41"/>
<polygon fill="#63b8ff" stroke="#63b8ff" points="571.72,-51.83 582.22,-50.4 573.12,-44.97 571.72,-51.83"/>
</a>
</g>
</g>
<!-- Node7 -->
<g id="Node000007" class="node">
<title>Node7</title>
<g id="a_Node000007"><a xlink:href="../../d0/dc2/class_serializer.html#ac812cf485e5804fd6f22d34ae076f79f" target="_top" xlink:title=" ">
<polygon fill="white" stroke="#666666" points="865.62,-33.15 755.88,-33.15 755.88,-13.15 865.62,-13.15 865.62,-33.15"/>
<text xml:space="preserve" text-anchor="middle" x="810.75" y="-19.65" font-family="Helvetica,sans-Serif" font-size="10.00">Serializer::serializeInt</text>
</a>
</g>
</g>
<!-- Node3&#45;&gt;Node7 -->
<g id="edge6_Node000003_Node000007" class="edge">
<title>Node3&#45;&gt;Node7</title>
<g id="a_edge6_Node000003_Node000007"><a xlink:title=" ">
<path fill="none" stroke="#63b8ff" d="M502.62,-14.69C522.64,-10.51 546.63,-6.21 568.5,-4.15 628.35,1.49 643.88,1.17 703.75,-4.15 718.96,-5.5 735.26,-7.93 750.4,-10.6"/>
<polygon fill="#63b8ff" stroke="#63b8ff" points="749.75,-14.04 760.22,-12.4 751.02,-7.15 749.75,-14.04"/>
</a>
</g>
</g>
<!-- Node8 -->
<g id="Node000008" class="node">
<title>Node8</title>
<g id="a_Node000008"><a xlink:href="../../d0/dc2/class_serializer.html#a8a72c08ebb91348dc2a7ef6557c44f6c" target="_top" xlink:title=" ">
<polygon fill="white" stroke="#666666" points="698.12,-33.15 574.12,-33.15 574.12,-13.15 698.12,-13.15 698.12,-33.15"/>
<text xml:space="preserve" text-anchor="middle" x="636.12" y="-19.65" font-family="Helvetica,sans-Serif" font-size="10.00">Serializer::serializeString</text>
</a>
</g>
</g>
<!-- Node3&#45;&gt;Node8 -->
<g id="edge7_Node000003_Node000008" class="edge">
<title>Node3&#45;&gt;Node8</title>
<g id="a_edge7_Node000003_Node000008"><a xlink:title=" ">
<path fill="none" stroke="#63b8ff" d="M532.86,-24.3C542.63,-24.19 552.63,-24.08 562.37,-23.97"/>
<polygon fill="#63b8ff" stroke="#63b8ff" points="562.18,-27.47 572.14,-23.86 562.1,-20.47 562.18,-27.47"/>
</a>
</g>
</g>
<!-- Node5 -->
<g id="Node000005" class="node">
<title>Node5</title>
<g id="a_Node000005"><a xlink:href="../../de/d2f/class_path_manager.html#a516850d4f1f941e8c93900eb01f6e38b" target="_top" xlink:title=" ">
<polygon fill="white" stroke="#666666" points="881.75,-109.15 739.75,-109.15 739.75,-89.15 881.75,-89.15 881.75,-109.15"/>
<text xml:space="preserve" text-anchor="middle" x="810.75" y="-95.65" font-family="Helvetica,sans-Serif" font-size="10.00">PathManager::getConfigPath</text>
</a>
</g>
</g>
<!-- Node4&#45;&gt;Node5 -->
<g id="edge4_Node000004_Node000005" class="edge">
<title>Node4&#45;&gt;Node5</title>
<g id="a_edge4_Node000004_Node000005"><a xlink:title=" ">
<path fill="none" stroke="#63b8ff" d="M684.75,-71.63C705.32,-76.16 729.58,-81.5 751.23,-86.27"/>
<polygon fill="#63b8ff" stroke="#63b8ff" points="750.28,-89.64 760.8,-88.37 751.79,-82.81 750.28,-89.64"/>
</a>
</g>
</g>
<!-- Node6 -->
<g id="Node000006" class="node">
<title>Node6</title>
<g id="a_Node000006"><a xlink:href="../../de/d2f/class_path_manager.html#a467b459b77c73cbc7544551b53911fcd" target="_top" xlink:title=" ">
<polygon fill="white" stroke="#666666" points="1080.75,-109.15 917.75,-109.15 917.75,-89.15 1080.75,-89.15 1080.75,-109.15"/>
<text xml:space="preserve" text-anchor="middle" x="999.25" y="-95.65" font-family="Helvetica,sans-Serif" font-size="10.00">PathManager::getExecutableRoot</text>
</a>
</g>
</g>
<!-- Node5&#45;&gt;Node6 -->
<g id="edge5_Node000005_Node000006" class="edge">
<title>Node5&#45;&gt;Node6</title>
<g id="a_edge5_Node000005_Node000006"><a xlink:title=" ">
<path fill="none" stroke="#63b8ff" d="M881.99,-99.15C889.85,-99.15 897.95,-99.15 906.03,-99.15"/>
<polygon fill="#63b8ff" stroke="#63b8ff" points="905.91,-102.65 915.91,-99.15 905.91,-95.65 905.91,-102.65"/>
</a>
</g>
</g>
<!-- Node8&#45;&gt;Node7 -->
<g id="edge8_Node000008_Node000007" class="edge">
<title>Node8&#45;&gt;Node7</title>
<g id="a_edge8_Node000008_Node000007"><a xlink:title=" ">
<path fill="none" stroke="#63b8ff" d="M698.47,-23.15C713.3,-23.15 729.2,-23.15 744.21,-23.15"/>
<polygon fill="#63b8ff" stroke="#63b8ff" points="743.97,-26.65 753.97,-23.15 743.97,-19.65 743.97,-26.65"/>
</a>
</g>
</g>
<!-- Node10 -->
<g id="Node000010" class="node">
<title>Node10</title>
<g id="a_Node000010"><a xlink:href="../../d4/d55/class_identity_manager.html#a39c326ae35bbfd58d73cae32d8793174" target="_top" xlink:title=" ">
<polygon fill="white" stroke="#666666" points="528,-107.15 386,-107.15 386,-87.15 528,-87.15 528,-107.15"/>
<text xml:space="preserve" text-anchor="middle" x="457" y="-93.65" font-family="Helvetica,sans-Serif" font-size="10.00">IdentityManager::writeMeFile</text>
</a>
</g>
</g>
<!-- Node9&#45;&gt;Node10 -->
<g id="edge10_Node000009_Node000010" class="edge">
<title>Node9&#45;&gt;Node10</title>
<g id="a_edge10_Node000009_Node000010"><a xlink:title=" ">
<path fill="none" stroke="#63b8ff" d="M345.93,-89.57C355.28,-90.21 364.84,-90.87 374.23,-91.52"/>
<polygon fill="#63b8ff" stroke="#63b8ff" points="373.85,-95 384.06,-92.19 374.33,-88.02 373.85,-95"/>
</a>
</g>
</g>
<!-- Node10&#45;&gt;Node7 -->
<g id="edge13_Node000010_Node000007" class="edge">
<title>Node10&#45;&gt;Node7</title>
<g id="a_edge13_Node000010_Node000007"><a xlink:title=" ">
<path fill="none" stroke="#63b8ff" d="M528.48,-100.08C578.37,-100.28 646.33,-96.74 703.75,-80.15 733.8,-71.47 764.96,-53.45 785.65,-39.98"/>
<polygon fill="#63b8ff" stroke="#63b8ff" points="787.55,-42.92 793.92,-34.45 783.66,-37.09 787.55,-42.92"/>
</a>
</g>
</g>
<!-- Node10&#45;&gt;Node8 -->
<g id="edge14_Node000010_Node000008" class="edge">
<title>Node10&#45;&gt;Node8</title>
<g id="a_edge14_Node000010_Node000008"><a xlink:title=" ">
<path fill="none" stroke="#63b8ff" d="M476.3,-86.73C497.83,-74.78 534.93,-55.16 568.5,-42.15 573.17,-40.34 578.08,-38.62 583.03,-37"/>
<polygon fill="#63b8ff" stroke="#63b8ff" points="583.9,-40.39 592.41,-34.08 581.83,-33.71 583.9,-40.39"/>
</a>
</g>
</g>
<!-- Node11 -->
<g id="Node000011" class="node">
<title>Node11</title>
<g id="a_Node000011"><a xlink:href="../../d4/d55/class_identity_manager.html#a611e5cdca43b5f0e960cd0a486e14d00" target="_top" xlink:title=" ">
<polygon fill="white" stroke="#666666" points="699.25,-147.15 573,-147.15 573,-127.15 699.25,-127.15 699.25,-147.15"/>
<text xml:space="preserve" text-anchor="middle" x="636.12" y="-133.65" font-family="Helvetica,sans-Serif" font-size="10.00">IdentityManager::kMeFile</text>
</a>
</g>
</g>
<!-- Node10&#45;&gt;Node11 -->
<g id="edge11_Node000010_Node000011" class="edge">
<title>Node10&#45;&gt;Node11</title>
<g id="a_edge11_Node000010_Node000011"><a xlink:title=" ">
<path fill="none" stroke="#63b8ff" d="M504.08,-107.55C526.55,-112.63 553.81,-118.79 577.64,-124.17"/>
<polygon fill="#63b8ff" stroke="#63b8ff" points="576.66,-127.53 587.19,-126.32 578.21,-120.71 576.66,-127.53"/>
</a>
</g>
</g>
<!-- Node11&#45;&gt;Node5 -->
<g id="edge12_Node000011_Node000005" class="edge">
<title>Node11&#45;&gt;Node5</title>
<g id="a_edge12_Node000011_Node000005"><a xlink:title=" ">
<path fill="none" stroke="#63b8ff" d="M684.75,-126.66C705.32,-122.14 729.58,-116.8 751.23,-112.03"/>
<polygon fill="#63b8ff" stroke="#63b8ff" points="751.79,-115.49 760.8,-109.92 750.28,-108.66 751.79,-115.49"/>
</a>
</g>
</g>
</g>
</svg>
