<?xml version="1.0" encoding="UTF-8" standalone="no"?>
<!DOCTYPE svg PUBLIC "-//W3C//DTD SVG 1.1//EN"
 "http://www.w3.org/Graphics/SVG/1.1/DTD/svg11.dtd">
<!-- Generated by graphviz version 14.0.2 (20251019.1705)
 -->
<!-- Title: IdentityManager::loadMyIdentityFromFile Pages: 1 -->
<svg width="887pt" height="85pt"
 viewBox="0.00 0.00 887.00 85.00" xmlns="http://www.w3.org/2000/svg" xmlns:xlink="http://www.w3.org/1999/xlink">
<g id="graph0" class="graph" transform="scale(1 1) rotate(0) translate(4 81)">
<title>IdentityManager::loadMyIdentityFromFile</title>
<!-- Node1 -->
<g id="Node000001" class="node">
<title>Node1</title>
<g id="a_Node000001"><a xlink:title=" ">
<polygon fill="#999999" stroke="#666666" points="155.5,-64 0,-64 0,-32 155.5,-32 155.5,-64"/>
<text xml:space="preserve" text-anchor="start" x="8" y="-50.5" font-family="Helvetica,sans-Serif" font-size="10.00">IdentityManager::loadMyIdentity</text>
<text xml:space="preserve" text-anchor="middle" x="77.75" y="-38.5" font-family="Helvetica,sans-Serif" font-size="10.00">FromFile</text>
</a>
</g>
</g>
<!-- Node2 -->
<g id="Node000002" class="node">
<title>Node2</title>
<g id="a_Node000002"><a xlink:href="../../d4/d55/class_identity_manager.html#a03e0bcd4a09304e6f8e4d9b7b3fa7736" target="_top" xlink:title=" ">
<polygon fill="white" stroke="#666666" points="331.25,-58 191.5,-58 191.5,-38 331.25,-38 331.25,-58"/>
<text xml:space="preserve" text-anchor="middle" x="261.38" y="-44.5" font-family="Helvetica,sans-Serif" font-size="10.00">IdentityManager::readMeFile</text>
</a>
</g>
</g>
<!-- Node1&#45;&gt;Node2 -->
<g id="edge1_Node000001_Node000002" class="edge">
<title>Node1&#45;&gt;Node2</title>
<g id="a_edge1_Node000001_Node000002"><a xlink:title=" ">
<path fill="none" stroke="#63b8ff" d="M155.78,-48C163.64,-48 171.64,-48 179.54,-48"/>
<polygon fill="#63b8ff" stroke="#63b8ff" points="179.49,-51.5 189.49,-48 179.49,-44.5 179.49,-51.5"/>
</a>
</g>
</g>
<!-- Node3 -->
<g id="Node000003" class="node">
<title>Node3</title>
<g id="a_Node000003"><a xlink:href="../../d0/dc2/class_serializer.html#a45c8b78e8467c6f7dba85fd7a21c8781" target="_top" xlink:title=" ">
<polygon fill="white" stroke="#666666" points="668.88,-77 548.62,-77 548.62,-57 668.88,-57 668.88,-77"/>
<text xml:space="preserve" text-anchor="middle" x="608.75" y="-63.5" font-family="Helvetica,sans-Serif" font-size="10.00">Serializer::deserializeInt</text>
</a>
</g>
</g>
<!-- Node2&#45;&gt;Node3 -->
<g id="edge2_Node000002_Node000003" class="edge">
<title>Node2&#45;&gt;Node3</title>
<g id="a_edge2_Node000002_Node000003"><a xlink:title=" ">
<path fill="none" stroke="#63b8ff" d="M309.9,-58.47C327.78,-61.92 348.36,-65.3 367.25,-67 424.23,-72.12 489.11,-71.76 537.11,-70.32"/>
<polygon fill="#63b8ff" stroke="#63b8ff" points="536.92,-73.83 546.8,-70 536.7,-66.83 536.92,-73.83"/>
</a>
</g>
</g>
<!-- Node4 -->
<g id="Node000004" class="node">
<title>Node4</title>
<g id="a_Node000004"><a xlink:href="../../d0/dc2/class_serializer.html#a47d1b2e09aaa99426b40f965ef2bf284" target="_top" xlink:title=" ">
<polygon fill="white" stroke="#666666" points="501.75,-58 367.25,-58 367.25,-38 501.75,-38 501.75,-58"/>
<text xml:space="preserve" text-anchor="middle" x="434.5" y="-44.5" font-family="Helvetica,sans-Serif" font-size="10.00">Serializer::deserializeString</text>
</a>
</g>
</g>
<!-- Node2&#45;&gt;Node4 -->
<g id="edge3_Node000002_Node000004" class="edge">
<title>Node2&#45;&gt;Node4</title>
<g id="a_edge3_Node000002_Node000004"><a xlink:title=" ">
<path fill="none" stroke="#63b8ff" d="M331.48,-48C339.43,-48 347.57,-48 355.62,-48"/>
<polygon fill="#63b8ff" stroke="#63b8ff" points="355.39,-51.5 365.39,-48 355.39,-44.5 355.39,-51.5"/>
</a>
</g>
</g>
<!-- Node5 -->
<g id="Node000005" class="node">
<title>Node5</title>
<g id="a_Node000005"><a xlink:href="../../d4/d55/class_identity_manager.html#a611e5cdca43b5f0e960cd0a486e14d00" target="_top" xlink:title=" ">
<polygon fill="white" stroke="#666666" points="497.62,-20 371.38,-20 371.38,0 497.62,0 497.62,-20"/>
<text xml:space="preserve" text-anchor="middle" x="434.5" y="-6.5" font-family="Helvetica,sans-Serif" font-size="10.00">IdentityManager::kMeFile</text>
</a>
</g>
</g>
<!-- Node2&#45;&gt;Node5 -->
<g id="edge5_Node000002_Node000005" class="edge">
<title>Node2&#45;&gt;Node5</title>
<g id="a_edge5_Node000002_Node000005"><a xlink:title=" ">
<path fill="none" stroke="#63b8ff" d="M309.59,-37.52C329.98,-32.99 354.03,-27.65 375.49,-22.88"/>
<polygon fill="#63b8ff" stroke="#63b8ff" points="375.96,-26.36 384.96,-20.78 374.44,-19.53 375.96,-26.36"/>
</a>
</g>
</g>
<!-- Node4&#45;&gt;Node3 -->
<g id="edge4_Node000004_Node000003" class="edge">
<title>Node4&#45;&gt;Node3</title>
<g id="a_edge4_Node000004_Node000003"><a xlink:title=" ">
<path fill="none" stroke="#63b8ff" d="M502.1,-55.35C513.53,-56.61 525.44,-57.92 536.98,-59.19"/>
<polygon fill="#63b8ff" stroke="#63b8ff" points="536.53,-62.67 546.85,-60.28 537.3,-55.71 536.53,-62.67"/>
</a>
</g>
</g>
<!-- Node6 -->
<g id="Node000006" class="node">
<title>Node6</title>
<g id="a_Node000006"><a xlink:href="../../de/d2f/class_path_manager.html#a516850d4f1f941e8c93900eb01f6e38b" target="_top" xlink:title=" ">
<polygon fill="white" stroke="#666666" points="679.75,-20 537.75,-20 537.75,0 679.75,0 679.75,-20"/>
<text xml:space="preserve" text-anchor="middle" x="608.75" y="-6.5" font-family="Helvetica,sans-Serif" font-size="10.00">PathManager::getConfigPath</text>
</a>
</g>
</g>
<!-- Node5&#45;&gt;Node6 -->
<g id="edge6_Node000005_Node000006" class="edge">
<title>Node5&#45;&gt;Node6</title>
<g id="a_edge6_Node000005_Node000006"><a xlink:title=" ">
<path fill="none" stroke="#63b8ff" d="M497.69,-10C506.97,-10 516.65,-10 526.26,-10"/>
<polygon fill="#63b8ff" stroke="#63b8ff" points="525.96,-13.5 535.96,-10 525.96,-6.5 525.96,-13.5"/>
</a>
</g>
</g>
<!-- Node7 -->
<g id="Node000007" class="node">
<title>Node7</title>
<g id="a_Node000007"><a xlink:href="../../de/d2f/class_path_manager.html#a467b459b77c73cbc7544551b53911fcd" target="_top" xlink:title=" ">
<polygon fill="white" stroke="#666666" points="878.75,-20 715.75,-20 715.75,0 878.75,0 878.75,-20"/>
<text xml:space="preserve" text-anchor="middle" x="797.25" y="-6.5" font-family="Helvetica,sans-Serif" font-size="10.00">PathManager::getExecutableRoot</text>
</a>
</g>
</g>
<!-- Node6&#45;&gt;Node7 -->
<g id="edge7_Node000006_Node000007" class="edge">
<title>Node6&#45;&gt;Node7</title>
<g id="a_edge7_Node000006_Node000007"><a xlink:title=" ">
<path fill="none" stroke="#63b8ff" d="M679.99,-10C687.85,-10 695.95,-10 704.03,-10"/>
<polygon fill="#63b8ff" stroke="#63b8ff" points="703.91,-13.5 713.91,-10 703.91,-6.5 703.91,-13.5"/>
</a>
</g>
</g>
</g>
</svg>
