<?xml version="1.0" encoding="UTF-8" standalone="no"?>
<!DOCTYPE svg PUBLIC "-//W3C//DTD SVG 1.1//EN"
 "http://www.w3.org/Graphics/SVG/1.1/DTD/svg11.dtd">
<!-- Generated by graphviz version 14.0.2 (20251019.1705)
 -->
<!-- Title: IdentityManager::loadAddressBookFromFile Pages: 1 -->
<svg width="887pt" height="85pt"
 viewBox="0.00 0.00 887.00 85.00" xmlns="http://www.w3.org/2000/svg" xmlns:xlink="http://www.w3.org/1999/xlink">
<g id="graph0" class="graph" transform="scale(1 1) rotate(0) translate(4 81)">
<title>IdentityManager::loadAddressBookFromFile</title>
<!-- Node1 -->
<g id="Node000001" class="node">
<title>Node1</title>
<g id="a_Node000001"><a xlink:title=" ">
<polygon fill="#999999" stroke="#666666" points="145.75,-64 0,-64 0,-32 145.75,-32 145.75,-64"/>
<text xml:space="preserve" text-anchor="start" x="8" y="-50.5" font-family="Helvetica,sans-Serif" font-size="10.00">IdentityManager::loadAddress</text>
<text xml:space="preserve" text-anchor="middle" x="72.88" y="-38.5" font-family="Helvetica,sans-Serif" font-size="10.00">BookFromFile</text>
</a>
</g>
</g>
<!-- Node2 -->
<g id="Node000002" class="node">
<title>Node2</title>
<g id="a_Node000002"><a xlink:href="../../d4/d55/class_identity_manager.html#a11610f8f56c0df45a6fe25b0a2299e58" target="_top" xlink:title=" ">
<polygon fill="white" stroke="#666666" points="330.5,-58 181.75,-58 181.75,-38 330.5,-38 330.5,-58"/>
<text xml:space="preserve" text-anchor="middle" x="256.12" y="-44.5" font-family="Helvetica,sans-Serif" font-size="10.00">IdentityManager::readBookFile</text>
</a>
</g>
</g>
<!-- Node1&#45;&gt;Node2 -->
<g id="edge1_Node000001_Node000002" class="edge">
<title>Node1&#45;&gt;Node2</title>
<g id="a_edge1_Node000001_Node000002"><a xlink:title=" ">
<path fill="none" stroke="#63b8ff" d="M146.03,-48C153.95,-48 162.06,-48 170.12,-48"/>
<polygon fill="#63b8ff" stroke="#63b8ff" points="169.92,-51.5 179.92,-48 169.92,-44.5 169.92,-51.5"/>
</a>
</g>
</g>
<!-- Node3 -->
<g id="Node000003" class="node">
<title>Node3</title>
<g id="a_Node000003"><a xlink:href="../../d0/dc2/class_serializer.html#a45c8b78e8467c6f7dba85fd7a21c8781" target="_top" xlink:title=" ">
<polygon fill="white" stroke="#666666" points="668.88,-77 548.62,-77 548.62,-57 668.88,-57 668.88,-77"/>
<text xml:space="preserve" text-anchor="middle" x="608.75" y="-63.5" font-family="Helvetica,sans-Serif" font-size="10.00">Serializer::deserializeInt</text>
</a>
</g>
</g>
<!-- Node2&#45;&gt;Node3 -->
<g id="edge2_Node000002_Node000003" class="edge">
<title>Node2&#45;&gt;Node3</title>
<g id="a_edge2_Node000002_Node000003"><a xlink:title=" ">
<path fill="none" stroke="#63b8ff" d="M306.71,-58.47C325.36,-61.92 346.82,-65.3 366.5,-67 423.68,-71.93 488.76,-71.58 536.9,-70.19"/>
<polygon fill="#63b8ff" stroke="#63b8ff" points="536.74,-73.7 546.63,-69.89 536.52,-66.7 536.74,-73.7"/>
</a>
</g>
</g>
<!-- Node4 -->
<g id="Node000004" class="node">
<title>Node4</title>
<g id="a_Node000004"><a xlink:href="../../d0/dc2/class_serializer.html#a47d1b2e09aaa99426b40f965ef2bf284" target="_top" xlink:title=" ">
<polygon fill="white" stroke="#666666" points="501.38,-58 366.88,-58 366.88,-38 501.38,-38 501.38,-58"/>
<text xml:space="preserve" text-anchor="middle" x="434.12" y="-44.5" font-family="Helvetica,sans-Serif" font-size="10.00">Serializer::deserializeString</text>
</a>
</g>
</g>
<!-- Node2&#45;&gt;Node4 -->
<g id="edge3_Node000002_Node000004" class="edge">
<title>Node2&#45;&gt;Node4</title>
<g id="a_edge3_Node000002_Node000004"><a xlink:title=" ">
<path fill="none" stroke="#63b8ff" d="M331,-48C338.99,-48 347.14,-48 355.18,-48"/>
<polygon fill="#63b8ff" stroke="#63b8ff" points="354.93,-51.5 364.93,-48 354.93,-44.5 354.93,-51.5"/>
</a>
</g>
</g>
<!-- Node5 -->
<g id="Node000005" class="node">
<title>Node5</title>
<g id="a_Node000005"><a xlink:href="../../d4/d55/class_identity_manager.html#ad6a5adbbaa98c88ed1447e8783b0a6b8" target="_top" xlink:title=" ">
<polygon fill="white" stroke="#666666" points="501.75,-20 366.5,-20 366.5,0 501.75,0 501.75,-20"/>
<text xml:space="preserve" text-anchor="middle" x="434.12" y="-6.5" font-family="Helvetica,sans-Serif" font-size="10.00">IdentityManager::kBookFile</text>
</a>
</g>
</g>
<!-- Node2&#45;&gt;Node5 -->
<g id="edge5_Node000002_Node000005" class="edge">
<title>Node2&#45;&gt;Node5</title>
<g id="a_edge5_Node000002_Node000005"><a xlink:title=" ">
<path fill="none" stroke="#63b8ff" d="M305.68,-37.52C326.75,-32.97 351.61,-27.6 373.76,-22.82"/>
<polygon fill="#63b8ff" stroke="#63b8ff" points="374.21,-26.3 383.25,-20.77 372.73,-19.46 374.21,-26.3"/>
</a>
</g>
</g>
<!-- Node4&#45;&gt;Node3 -->
<g id="edge4_Node000004_Node000003" class="edge">
<title>Node4&#45;&gt;Node3</title>
<g id="a_edge4_Node000004_Node000003"><a xlink:title=" ">
<path fill="none" stroke="#63b8ff" d="M501.87,-55.35C513.32,-56.61 525.26,-57.92 536.83,-59.19"/>
<polygon fill="#63b8ff" stroke="#63b8ff" points="536.4,-62.67 546.72,-60.28 537.17,-55.71 536.4,-62.67"/>
</a>
</g>
</g>
<!-- Node6 -->
<g id="Node000006" class="node">
<title>Node6</title>
<g id="a_Node000006"><a xlink:href="../../de/d2f/class_path_manager.html#a516850d4f1f941e8c93900eb01f6e38b" target="_top" xlink:title=" ">
<polygon fill="white" stroke="#666666" points="679.75,-20 537.75,-20 537.75,0 679.75,0 679.75,-20"/>
<text xml:space="preserve" text-anchor="middle" x="608.75" y="-6.5" font-family="Helvetica,sans-Serif" font-size="10.00">PathManager::getConfigPath</text>
</a>
</g>
</g>
<!-- Node5&#45;&gt;Node6 -->
<g id="edge6_Node000005_Node000006" class="edge">
<title>Node5&#45;&gt;Node6</title>
<g id="a_edge6_Node000005_Node000006"><a xlink:title=" ">
<path fill="none" stroke="#63b8ff" d="M501.87,-10C509.8,-10 517.96,-10 526.07,-10"/>
<polygon fill="#63b8ff" stroke="#63b8ff" points="525.96,-13.5 535.96,-10 525.96,-6.5 525.96,-13.5"/>
</a>
</g>
</g>
<!-- Node7 -->
<g id="Node000007" class="node">
<title>Node7</title>
<g id="a_Node000007"><a xlink:href="../../de/d2f/class_path_manager.html#a467b459b77c73cbc7544551b53911fcd" target="_top" xlink:title=" ">
<polygon fill="white" stroke="#666666" points="878.75,-20 715.75,-20 715.75,0 878.75,0 878.75,-20"/>
<text xml:space="preserve" text-anchor="middle" x="797.25" y="-6.5" font-family="Helvetica,sans-Serif" font-size="10.00">PathManager::getExecutableRoot</text>
</a>
</g>
</g>
<!-- Node6&#45;&gt;Node7 -->
<g id="edge7_Node000006_Node000007" class="edge">
<title>Node6&#45;&gt;Node7</title>
<g id="a_edge7_Node000006_Node000007"><a xlink:title=" ">
<path fill="none" stroke="#63b8ff" d="M679.99,-10C687.85,-10 695.95,-10 704.03,-10"/>
<polygon fill="#63b8ff" stroke="#63b8ff" points="703.91,-13.5 713.91,-10 703.91,-6.5 703.91,-13.5"/>
</a>
</g>
</g>
</g>
</svg>
