<?xml version="1.0" encoding="UTF-8" standalone="no"?>
<!DOCTYPE svg PUBLIC "-//W3C//DTD SVG 1.1//EN"
 "http://www.w3.org/Graphics/SVG/1.1/DTD/svg11.dtd">
<!-- Generated by graphviz version 14.0.2 (20251019.1705)
 -->
<!-- Title: IdentityManager::kMeFile Pages: 1 -->
<!--zoomable 112 -->

<svg id="main" version="1.1" xmlns="http://www.w3.org/2000/svg" xmlns:xlink="http://www.w3.org/1999/xlink" xml:space="preserve" onload="init(evt)">
<style type="text/css"><![CDATA[
.node, .edge {opacity: 0.7;}
.node.selected, .edge.selected {opacity: 1;}
.edge:hover path { stroke: red; }
.edge:hover polygon { stroke: red; fill: red; }
]]></style>

<defs>
  <circle id="rim" cx="0" cy="0" r="7"/>
  <circle id="rim2" cx="0" cy="0" r="3.5"/>
  <g id="zoomPlus">
    <use xlink:href="#rim" fill="#404040"><set attributeName="fill" to="#808080" begin="zoomplus.mouseover" end="zoomplus.mouseout"/></use>
    <path d="M-4,0h8M0,-4v8" fill="none" stroke="white" stroke-width="1.5" pointer-events="none"/>
  </g>
  <g id="zoomMin">
    <use xlink:href="#rim" fill="#404040"><set attributeName="fill" to="#808080" begin="zoomminus.mouseover" end="zoomminus.mouseout"/></use>
    <path d="M-4,0h8" fill="none" stroke="white" stroke-width="1.5" pointer-events="none"/>
  </g>
  <g id="arrowUp" transform="translate(30 24)">
    <use xlink:href="#rim"/>
    <path pointer-events="none" fill="none" stroke="white" stroke-width="1.5" d="M0,-3.0v7 M-2.5,-0.5L0,-3.0L2.5,-0.5"/>
  </g>
  <g id="arrowRight" transform="rotate(90) translate(36 -43)">
    <use xlink:href="#rim"/>
    <path pointer-events="none" fill="none" stroke="white" stroke-width="1.5" d="M0,-3.0v7 M-2.5,-0.5L0,-3.0L2.5,-0.5"/>
  </g>
  <g id="arrowDown" transform="rotate(180) translate(-30 -48)">
    <use xlink:href="#rim"/>
    <path pointer-events="none" fill="none" stroke="white" stroke-width="1.5" d="M0,-3.0v7 M-2.5,-0.5L0,-3.0L2.5,-0.5"/>
  </g>
  <g id="arrowLeft" transform="rotate(270) translate(-36 17)">
    <use xlink:href="#rim"/>
    <path pointer-events="none" fill="none" stroke="white" stroke-width="1.5" d="M0,-3.0v7 M-2.5,-0.5L0,-3.0L2.5,-0.5"/>
  </g>
  <g id="resetDef">
    <use xlink:href="#rim2" fill="#404040"><set attributeName="fill" to="#808080" begin="reset.mouseover" end="reset.mouseout"/></use>
  </g>
</defs>
<script type="application/ecmascript">
var viewWidth = 694;
var viewHeight = 112;
var sectionId = 'dynsection-5';
</script>
<script type="application/ecmascript" xlink:href="../../svg.min.js"/>
<svg id="graph" class="graph">
<g id="viewport">
<title>IdentityManager::kMeFile</title>
<!-- Node1 -->
<g id="Node000001" class="node">
<title>Node1</title>
<g id="a_Node000001"><a xlink:title=" ">
<polygon fill="#999999" stroke="#666666" points="685.75,-73 559.5,-73 559.5,-53 685.75,-53 685.75,-73"/>
<text xml:space="preserve" text-anchor="middle" x="622.62" y="-59.5" font-family="Helvetica,sans-Serif" font-size="10.00">IdentityManager::kMeFile</text>
</a>
</g>
</g>
<!-- Node2 -->
<g id="Node000002" class="node">
<title>Node2</title>
<g id="a_Node000002"><a xlink:href="../../d4/d55/class_identity_manager.html#a03e0bcd4a09304e6f8e4d9b7b3fa7736" target="_top" xlink:title=" ">
<polygon fill="white" stroke="#666666" points="522.38,-95 382.62,-95 382.62,-75 522.38,-75 522.38,-95"/>
<text xml:space="preserve" text-anchor="middle" x="452.5" y="-81.5" font-family="Helvetica,sans-Serif" font-size="10.00">IdentityManager::readMeFile</text>
</a>
</g>
</g>
<!-- Node1&#45;&gt;Node2 -->
<g id="edge1_Node000001_Node000002" class="edge">
<title>Node1&#45;&gt;Node2</title>
<g id="a_edge1_Node000001_Node000002"><a xlink:title=" ">
<path fill="none" stroke="#63b8ff" d="M547.76,-72.67C539.41,-73.76 530.93,-74.87 522.65,-75.95"/>
<polygon fill="#63b8ff" stroke="#63b8ff" points="548.06,-76.16 557.52,-71.39 547.15,-69.22 548.06,-76.16"/>
</a>
</g>
</g>
<!-- Node4 -->
<g id="Node000004" class="node">
<title>Node4</title>
<g id="a_Node000004"><a xlink:href="../../d4/d55/class_identity_manager.html#a39c326ae35bbfd58d73cae32d8793174" target="_top" xlink:title=" ">
<polygon fill="white" stroke="#666666" points="523.5,-54 381.5,-54 381.5,-34 523.5,-34 523.5,-54"/>
<text xml:space="preserve" text-anchor="middle" x="452.5" y="-40.5" font-family="Helvetica,sans-Serif" font-size="10.00">IdentityManager::writeMeFile</text>
</a>
</g>
</g>
<!-- Node1&#45;&gt;Node4 -->
<g id="edge3_Node000001_Node000004" class="edge">
<title>Node1&#45;&gt;Node4</title>
<g id="a_edge3_Node000001_Node000004"><a xlink:title=" ">
<path fill="none" stroke="#63b8ff" d="M547.84,-54.66C539.85,-53.76 531.74,-52.84 523.79,-51.94"/>
<polygon fill="#63b8ff" stroke="#63b8ff" points="547.19,-58.11 557.52,-55.76 547.97,-51.15 547.19,-58.11"/>
</a>
</g>
</g>
<!-- Node3 -->
<g id="Node000003" class="node">
<title>Node3</title>
<g id="a_Node000003"><a xlink:href="../../d4/d55/class_identity_manager.html#af2952d782e6078643da4c28d90c87504" target="_top" xlink:title=" ">
<polygon fill="white" stroke="#666666" points="344,-104 188.5,-104 188.5,-72 344,-72 344,-104"/>
<text xml:space="preserve" text-anchor="start" x="196.5" y="-90.5" font-family="Helvetica,sans-Serif" font-size="10.00">IdentityManager::loadMyIdentity</text>
<text xml:space="preserve" text-anchor="middle" x="266.25" y="-78.5" font-family="Helvetica,sans-Serif" font-size="10.00">FromFile</text>
</a>
</g>
</g>
<!-- Node2&#45;&gt;Node3 -->
<g id="edge2_Node000002_Node000003" class="edge">
<title>Node2&#45;&gt;Node3</title>
<g id="a_edge2_Node000002_Node000003"><a xlink:title=" ">
<path fill="none" stroke="#63b8ff" d="M371.14,-86.31C362.19,-86.45 353.09,-86.6 344.19,-86.75"/>
<polygon fill="#63b8ff" stroke="#63b8ff" points="370.91,-89.81 380.85,-86.15 370.8,-82.81 370.91,-89.81"/>
</a>
</g>
</g>
<!-- Node5 -->
<g id="Node000005" class="node">
<title>Node5</title>
<g id="a_Node000005"><a xlink:href="../../d4/d55/class_identity_manager.html#a1869a9c4eeaabc2a70e422ae5c685a9b" target="_top" xlink:title=" ">
<polygon fill="white" stroke="#666666" points="345.5,-54 187,-54 187,-22 345.5,-22 345.5,-54"/>
<text xml:space="preserve" text-anchor="start" x="195" y="-40.5" font-family="Helvetica,sans-Serif" font-size="10.00">IdentityManager::saveMyIdentity</text>
<text xml:space="preserve" text-anchor="middle" x="266.25" y="-28.5" font-family="Helvetica,sans-Serif" font-size="10.00">ToFile</text>
</a>
</g>
</g>
<!-- Node4&#45;&gt;Node5 -->
<g id="edge4_Node000004_Node000005" class="edge">
<title>Node4&#45;&gt;Node5</title>
<g id="a_edge4_Node000004_Node000005"><a xlink:title=" ">
<path fill="none" stroke="#63b8ff" d="M369.63,-41.33C361.76,-41.08 353.79,-40.82 345.96,-40.56"/>
<polygon fill="#63b8ff" stroke="#63b8ff" points="369.43,-44.83 379.54,-41.66 369.66,-37.83 369.43,-44.83"/>
</a>
</g>
</g>
<!-- Node6 -->
<g id="Node000006" class="node">
<title>Node6</title>
<g id="a_Node000006"><a xlink:href="../../d4/d55/class_identity_manager.html#a06c9f1224957dbb9d2680a5c0d595ebd" target="_top" xlink:title=" ">
<polygon fill="white" stroke="#666666" points="151,-70 0,-70 0,-50 151,-50 151,-70"/>
<text xml:space="preserve" text-anchor="middle" x="75.5" y="-56.5" font-family="Helvetica,sans-Serif" font-size="10.00">IdentityManager::setMyIdentity</text>
</a>
</g>
</g>
<!-- Node5&#45;&gt;Node6 -->
<g id="edge5_Node000005_Node000006" class="edge">
<title>Node5&#45;&gt;Node6</title>
<g id="a_edge5_Node000005_Node000006"><a xlink:title=" ">
<path fill="none" stroke="#63b8ff" d="M175.31,-48.48C167.32,-49.41 159.28,-50.35 151.42,-51.27"/>
<polygon fill="#63b8ff" stroke="#63b8ff" points="175.54,-51.98 185.07,-47.35 174.73,-45.03 175.54,-51.98"/>
</a>
</g>
</g>
<!-- Node7 -->
<g id="Node000007" class="node">
<title>Node7</title>
<g id="a_Node000007"><a xlink:href="../../d4/d55/class_identity_manager.html#a2545919ba7d19962e6b4f147940cd3d9" target="_top" xlink:title=" ">
<polygon fill="white" stroke="#666666" points="150.62,-32 0.38,-32 0.38,0 150.62,0 150.62,-32"/>
<text xml:space="preserve" text-anchor="start" x="8.38" y="-18.5" font-family="Helvetica,sans-Serif" font-size="10.00">IdentityManager::setUsername</text>
<text xml:space="preserve" text-anchor="middle" x="75.5" y="-6.5" font-family="Helvetica,sans-Serif" font-size="10.00">ForUnique</text>
</a>
</g>
</g>
<!-- Node5&#45;&gt;Node7 -->
<g id="edge6_Node000005_Node000007" class="edge">
<title>Node5&#45;&gt;Node7</title>
<g id="a_edge6_Node000005_Node000007"><a xlink:title=" ">
<path fill="none" stroke="#63b8ff" d="M175.22,-27.51C167.15,-26.57 159.04,-25.62 151.12,-24.7"/>
<polygon fill="#63b8ff" stroke="#63b8ff" points="174.73,-30.97 185.07,-28.65 175.54,-24.02 174.73,-30.97"/>
</a>
</g>
</g>
</g>
</svg>

<g id="navigator" transform="translate(0 0)" fill="#404254">
  <rect fill="#f2f5e9" fill-opacity="0.5" stroke="#606060" stroke-width=".5" x="0" y="0" width="60" height="60"/>
  <use id="zoomplus" xlink:href="#zoomPlus" x="17" y="9" onmousedown="handleZoom(evt,'in')"/>
  <use id="zoomminus" xlink:href="#zoomMin" x="42" y="9" onmousedown="handleZoom(evt,'out')"/>
  <use id="reset" xlink:href="#resetDef" x="30" y="36" onmousedown="handleReset()"/>
   <use id="arrowup" xlink:href="#arrowUp" x="0" y="0" onmousedown="handlePan(0,-1)"/>
  <use id="arrowright" xlink:href="#arrowRight" x="0" y="0" onmousedown="handlePan(1,0)"/>
  <use id="arrowdown" xlink:href="#arrowDown" x="0" y="0" onmousedown="handlePan(0,1)"/>
  <use id="arrowleft" xlink:href="#arrowLeft" x="0" y="0" onmousedown="handlePan(-1,0)"/>
</g>
<svg viewBox="0 0 15 15" width="100%" height="30px" preserveAspectRatio="xMaxYMin meet">
 <g id="arrow_out" transform="scale(0.3 0.3)">
  <a xlink:href="class_identity_manager_a611e5cdca43b5f0e960cd0a486e14d00_icgraph_org.svg" target="_base">
   <rect id="button" ry="5" rx="5" y="6" x="6" height="38" width="38"
        fill="#f2f5e9" fill-opacity="0.5" stroke="#606060" stroke-width="1.0"/>
   <path id="arrow"
     d="M 11.500037,31.436501 C 11.940474,20.09759 22.043105,11.32322 32.158766,21.979434 L 37.068811,17.246167 C 37.068811,17.246167 37.088388,32 37.088388,32 L 22.160133,31.978069 C 22.160133,31.978069 26.997745,27.140456 26.997745,27.140456 C 18.528582,18.264221 13.291696,25.230495 11.500037,31.436501 z"
     style="fill:#404040;"/>
  </a>
 </g>
</svg>

<style type='text/css'>
<![CDATA[
[data-mouse-over-selected='false'] { opacity: 0.7; }
[data-mouse-over-selected='true']  { opacity: 1.0; }
]]>
</style>
<script type="application/ecmascript"><![CDATA[
document.addEventListener('DOMContentLoaded', (event) => {
  highlightEdges();
  highlightAdjacentNodes();
});
]]></script>
</svg>
