<?xml version="1.0" encoding="UTF-8" standalone="no"?>
<!DOCTYPE svg PUBLIC "-//W3C//DTD SVG 1.1//EN"
 "http://www.w3.org/Graphics/SVG/1.1/DTD/svg11.dtd">
<!-- Generated by graphviz version 14.0.2 (20251019.1705)
 -->
<!-- Title: IdentityManager::saveMyIdentityToFile Pages: 1 -->
<svg width="884pt" height="104pt"
 viewBox="0.00 0.00 884.00 104.00" xmlns="http://www.w3.org/2000/svg" xmlns:xlink="http://www.w3.org/1999/xlink">
<g id="graph0" class="graph" transform="scale(1 1) rotate(0) translate(4 100)">
<title>IdentityManager::saveMyIdentityToFile</title>
<!-- Node1 -->
<g id="Node000001" class="node">
<title>Node1</title>
<g id="a_Node000001"><a xlink:title=" ">
<polygon fill="#999999" stroke="#666666" points="158.5,-64 0,-64 0,-32 158.5,-32 158.5,-64"/>
<text xml:space="preserve" text-anchor="start" x="8" y="-50.5" font-family="Helvetica,sans-Serif" font-size="10.00">IdentityManager::saveMyIdentity</text>
<text xml:space="preserve" text-anchor="middle" x="79.25" y="-38.5" font-family="Helvetica,sans-Serif" font-size="10.00">ToFile</text>
</a>
</g>
</g>
<!-- Node2 -->
<g id="Node000002" class="node">
<title>Node2</title>
<g id="a_Node000002"><a xlink:href="../../d4/d55/class_identity_manager.html#a39c326ae35bbfd58d73cae32d8793174" target="_top" xlink:title=" ">
<polygon fill="white" stroke="#666666" points="336.5,-58 194.5,-58 194.5,-38 336.5,-38 336.5,-58"/>
<text xml:space="preserve" text-anchor="middle" x="265.5" y="-44.5" font-family="Helvetica,sans-Serif" font-size="10.00">IdentityManager::writeMeFile</text>
</a>
</g>
</g>
<!-- Node1&#45;&gt;Node2 -->
<g id="edge1_Node000001_Node000002" class="edge">
<title>Node1&#45;&gt;Node2</title>
<g id="a_edge1_Node000001_Node000002"><a xlink:title=" ">
<path fill="none" stroke="#63b8ff" d="M158.92,-48C166.81,-48 174.83,-48 182.75,-48"/>
<polygon fill="#63b8ff" stroke="#63b8ff" points="182.73,-51.5 192.73,-48 182.73,-44.5 182.73,-51.5"/>
</a>
</g>
</g>
<!-- Node3 -->
<g id="Node000003" class="node">
<title>Node3</title>
<g id="a_Node000003"><a xlink:href="../../d4/d55/class_identity_manager.html#a611e5cdca43b5f0e960cd0a486e14d00" target="_top" xlink:title=" ">
<polygon fill="white" stroke="#666666" points="498.75,-96 372.5,-96 372.5,-76 498.75,-76 498.75,-96"/>
<text xml:space="preserve" text-anchor="middle" x="435.62" y="-82.5" font-family="Helvetica,sans-Serif" font-size="10.00">IdentityManager::kMeFile</text>
</a>
</g>
</g>
<!-- Node2&#45;&gt;Node3 -->
<g id="edge2_Node000002_Node000003" class="edge">
<title>Node2&#45;&gt;Node3</title>
<g id="a_edge2_Node000002_Node000003"><a xlink:title=" ">
<path fill="none" stroke="#63b8ff" d="M312.89,-58.48C332.82,-62.99 356.33,-68.3 377.34,-73.05"/>
<polygon fill="#63b8ff" stroke="#63b8ff" points="376.39,-76.43 386.91,-75.22 377.93,-69.6 376.39,-76.43"/>
</a>
</g>
</g>
<!-- Node6 -->
<g id="Node000006" class="node">
<title>Node6</title>
<g id="a_Node000006"><a xlink:href="../../d0/dc2/class_serializer.html#ac812cf485e5804fd6f22d34ae076f79f" target="_top" xlink:title=" ">
<polygon fill="white" stroke="#666666" points="660.62,-39 550.88,-39 550.88,-19 660.62,-19 660.62,-39"/>
<text xml:space="preserve" text-anchor="middle" x="605.75" y="-25.5" font-family="Helvetica,sans-Serif" font-size="10.00">Serializer::serializeInt</text>
</a>
</g>
</g>
<!-- Node2&#45;&gt;Node6 -->
<g id="edge5_Node000002_Node000006" class="edge">
<title>Node2&#45;&gt;Node6</title>
<g id="a_edge5_Node000002_Node000006"><a xlink:title=" ">
<path fill="none" stroke="#63b8ff" d="M337,-44.04C396.53,-40.7 481.14,-35.94 539.22,-32.68"/>
<polygon fill="#63b8ff" stroke="#63b8ff" points="539.17,-36.19 548.96,-32.13 538.78,-29.2 539.17,-36.19"/>
</a>
</g>
</g>
<!-- Node7 -->
<g id="Node000007" class="node">
<title>Node7</title>
<g id="a_Node000007"><a xlink:href="../../d0/dc2/class_serializer.html#a8a72c08ebb91348dc2a7ef6557c44f6c" target="_top" xlink:title=" ">
<polygon fill="white" stroke="#666666" points="497.62,-20 373.62,-20 373.62,0 497.62,0 497.62,-20"/>
<text xml:space="preserve" text-anchor="middle" x="435.62" y="-6.5" font-family="Helvetica,sans-Serif" font-size="10.00">Serializer::serializeString</text>
</a>
</g>
</g>
<!-- Node2&#45;&gt;Node7 -->
<g id="edge6_Node000002_Node000007" class="edge">
<title>Node2&#45;&gt;Node7</title>
<g id="a_edge6_Node000002_Node000007"><a xlink:title=" ">
<path fill="none" stroke="#63b8ff" d="M312.89,-37.52C332.82,-33.01 356.33,-27.7 377.34,-22.95"/>
<polygon fill="#63b8ff" stroke="#63b8ff" points="377.93,-26.4 386.91,-20.78 376.39,-19.57 377.93,-26.4"/>
</a>
</g>
</g>
<!-- Node4 -->
<g id="Node000004" class="node">
<title>Node4</title>
<g id="a_Node000004"><a xlink:href="../../de/d2f/class_path_manager.html#a516850d4f1f941e8c93900eb01f6e38b" target="_top" xlink:title=" ">
<polygon fill="white" stroke="#666666" points="676.75,-96 534.75,-96 534.75,-76 676.75,-76 676.75,-96"/>
<text xml:space="preserve" text-anchor="middle" x="605.75" y="-82.5" font-family="Helvetica,sans-Serif" font-size="10.00">PathManager::getConfigPath</text>
</a>
</g>
</g>
<!-- Node3&#45;&gt;Node4 -->
<g id="edge3_Node000003_Node000004" class="edge">
<title>Node3&#45;&gt;Node4</title>
<g id="a_edge3_Node000003_Node000004"><a xlink:title=" ">
<path fill="none" stroke="#63b8ff" d="M499.23,-86C507.03,-86 515.1,-86 523.14,-86"/>
<polygon fill="#63b8ff" stroke="#63b8ff" points="522.94,-89.5 532.94,-86 522.94,-82.5 522.94,-89.5"/>
</a>
</g>
</g>
<!-- Node5 -->
<g id="Node000005" class="node">
<title>Node5</title>
<g id="a_Node000005"><a xlink:href="../../de/d2f/class_path_manager.html#a467b459b77c73cbc7544551b53911fcd" target="_top" xlink:title=" ">
<polygon fill="white" stroke="#666666" points="875.75,-96 712.75,-96 712.75,-76 875.75,-76 875.75,-96"/>
<text xml:space="preserve" text-anchor="middle" x="794.25" y="-82.5" font-family="Helvetica,sans-Serif" font-size="10.00">PathManager::getExecutableRoot</text>
</a>
</g>
</g>
<!-- Node4&#45;&gt;Node5 -->
<g id="edge4_Node000004_Node000005" class="edge">
<title>Node4&#45;&gt;Node5</title>
<g id="a_edge4_Node000004_Node000005"><a xlink:title=" ">
<path fill="none" stroke="#63b8ff" d="M676.99,-86C684.85,-86 692.95,-86 701.03,-86"/>
<polygon fill="#63b8ff" stroke="#63b8ff" points="700.91,-89.5 710.91,-86 700.91,-82.5 700.91,-89.5"/>
</a>
</g>
</g>
<!-- Node7&#45;&gt;Node6 -->
<g id="edge7_Node000007_Node000006" class="edge">
<title>Node7&#45;&gt;Node6</title>
<g id="a_edge7_Node000007_Node000006"><a xlink:title=" ">
<path fill="none" stroke="#63b8ff" d="M497.8,-16.91C511.29,-18.44 525.64,-20.06 539.3,-21.6"/>
<polygon fill="#63b8ff" stroke="#63b8ff" points="538.74,-25.06 549.07,-22.71 539.53,-18.11 538.74,-25.06"/>
</a>
</g>
</g>
</g>
</svg>
