<?xml version="1.0" encoding="UTF-8" standalone="no"?>
<!DOCTYPE svg PUBLIC "-//W3C//DTD SVG 1.1//EN"
 "http://www.w3.org/Graphics/SVG/1.1/DTD/svg11.dtd">
<!-- Generated by graphviz version 14.0.2 (20251019.1705)
 -->
<!-- Title: IdentityManager::setUsernameForUnique Pages: 1 -->
<!--zoomable 155 -->

<svg id="main" version="1.1" xmlns="http://www.w3.org/2000/svg" xmlns:xlink="http://www.w3.org/1999/xlink" xml:space="preserve" onload="init(evt)">
<style type="text/css"><![CDATA[
.node, .edge {opacity: 0.7;}
.node.selected, .edge.selected {opacity: 1;}
.edge:hover path { stroke: red; }
.edge:hover polygon { stroke: red; fill: red; }
]]></style>

<defs>
  <circle id="rim" cx="0" cy="0" r="7"/>
  <circle id="rim2" cx="0" cy="0" r="3.5"/>
  <g id="zoomPlus">
    <use xlink:href="#rim" fill="#404040"><set attributeName="fill" to="#808080" begin="zoomplus.mouseover" end="zoomplus.mouseout"/></use>
    <path d="M-4,0h8M0,-4v8" fill="none" stroke="white" stroke-width="1.5" pointer-events="none"/>
  </g>
  <g id="zoomMin">
    <use xlink:href="#rim" fill="#404040"><set attributeName="fill" to="#808080" begin="zoomminus.mouseover" end="zoomminus.mouseout"/></use>
    <path d="M-4,0h8" fill="none" stroke="white" stroke-width="1.5" pointer-events="none"/>
  </g>
  <g id="arrowUp" transform="translate(30 24)">
    <use xlink:href="#rim"/>
    <path pointer-events="none" fill="none" stroke="white" stroke-width="1.5" d="M0,-3.0v7 M-2.5,-0.5L0,-3.0L2.5,-0.5"/>
  </g>
  <g id="arrowRight" transform="rotate(90) translate(36 -43)">
    <use xlink:href="#rim"/>
    <path pointer-events="none" fill="none" stroke="white" stroke-width="1.5" d="M0,-3.0v7 M-2.5,-0.5L0,-3.0L2.5,-0.5"/>
  </g>
  <g id="arrowDown" transform="rotate(180) translate(-30 -48)">
    <use xlink:href="#rim"/>
    <path pointer-events="none" fill="none" stroke="white" stroke-width="1.5" d="M0,-3.0v7 M-2.5,-0.5L0,-3.0L2.5,-0.5"/>
  </g>
  <g id="arrowLeft" transform="rotate(270) translate(-36 17)">
    <use xlink:href="#rim"/>
    <path pointer-events="none" fill="none" stroke="white" stroke-width="1.5" d="M0,-3.0v7 M-2.5,-0.5L0,-3.0L2.5,-0.5"/>
  </g>
  <g id="resetDef">
    <use xlink:href="#rim2" fill="#404040"><set attributeName="fill" to="#808080" begin="reset.mouseover" end="reset.mouseout"/></use>
  </g>
</defs>
<script type="application/ecmascript">
var viewWidth = 1088;
var viewHeight = 155;
var sectionId = 'dynsection-17';
</script>
<script type="application/ecmascript" xlink:href="../../svg.min.js"/>
<svg id="graph" class="graph">
<g id="viewport">
<title>IdentityManager::setUsernameForUnique</title>
<!-- Node1 -->
<g id="Node000001" class="node">
<title>Node1</title>
<g id="a_Node000001"><a xlink:title=" ">
<polygon fill="#999999" stroke="#666666" points="150.25,-72.15 0,-72.15 0,-40.15 150.25,-40.15 150.25,-72.15"/>
<text xml:space="preserve" text-anchor="start" x="8" y="-58.65" font-family="Helvetica,sans-Serif" font-size="10.00">IdentityManager::setUsername</text>
<text xml:space="preserve" text-anchor="middle" x="75.12" y="-46.65" font-family="Helvetica,sans-Serif" font-size="10.00">ForUnique</text>
</a>
</g>
</g>
<!-- Node2 -->
<g id="Node000002" class="node">
<title>Node2</title>
<g id="a_Node000002"><a xlink:href="../../d4/d55/class_identity_manager.html#a18c85a39c82ac2918657286498bbe8da" target="_top" xlink:title=" ">
<polygon fill="white" stroke="#666666" points="339.88,-47.15 191.12,-47.15 191.12,-15.15 339.88,-15.15 339.88,-47.15"/>
<text xml:space="preserve" text-anchor="start" x="199.12" y="-33.65" font-family="Helvetica,sans-Serif" font-size="10.00">IdentityManager::saveAddress</text>
<text xml:space="preserve" text-anchor="middle" x="265.5" y="-21.65" font-family="Helvetica,sans-Serif" font-size="10.00">BookToFile</text>
</a>
</g>
</g>
<!-- Node1&#45;&gt;Node2 -->
<g id="edge1_Node000001_Node000002" class="edge">
<title>Node1&#45;&gt;Node2</title>
<g id="a_edge1_Node000001_Node000002"><a xlink:title=" ">
<path fill="none" stroke="#63b8ff" d="M150.58,-46.27C160.11,-45 169.93,-43.7 179.61,-42.41"/>
<polygon fill="#63b8ff" stroke="#63b8ff" points="179.94,-45.9 189.4,-41.12 179.02,-38.96 179.94,-45.9"/>
</a>
</g>
</g>
<!-- Node9 -->
<g id="Node000009" class="node">
<title>Node9</title>
<g id="a_Node000009"><a xlink:href="../../d4/d55/class_identity_manager.html#a1869a9c4eeaabc2a70e422ae5c685a9b" target="_top" xlink:title=" ">
<polygon fill="white" stroke="#666666" points="344.75,-100.15 186.25,-100.15 186.25,-68.15 344.75,-68.15 344.75,-100.15"/>
<text xml:space="preserve" text-anchor="start" x="194.25" y="-86.65" font-family="Helvetica,sans-Serif" font-size="10.00">IdentityManager::saveMyIdentity</text>
<text xml:space="preserve" text-anchor="middle" x="265.5" y="-74.65" font-family="Helvetica,sans-Serif" font-size="10.00">ToFile</text>
</a>
</g>
</g>
<!-- Node1&#45;&gt;Node9 -->
<g id="edge9_Node000001_Node000009" class="edge">
<title>Node1&#45;&gt;Node9</title>
<g id="a_edge9_Node000001_Node000009"><a xlink:title=" ">
<path fill="none" stroke="#63b8ff" d="M150.58,-67.22C158.47,-68.39 166.57,-69.59 174.62,-70.79"/>
<polygon fill="#63b8ff" stroke="#63b8ff" points="174.04,-74.24 184.45,-72.25 175.07,-67.32 174.04,-74.24"/>
</a>
</g>
</g>
<!-- Node3 -->
<g id="Node000003" class="node">
<title>Node3</title>
<g id="a_Node000003"><a xlink:href="../../d4/d55/class_identity_manager.html#a6423b50955b5c9937b4e3c928ce86dff" target="_top" xlink:title=" ">
<polygon fill="white" stroke="#666666" points="531.75,-35.15 380.75,-35.15 380.75,-15.15 531.75,-15.15 531.75,-35.15"/>
<text xml:space="preserve" text-anchor="middle" x="456.25" y="-21.65" font-family="Helvetica,sans-Serif" font-size="10.00">IdentityManager::writeBookFile</text>
</a>
</g>
</g>
<!-- Node2&#45;&gt;Node3 -->
<g id="edge2_Node000002_Node000003" class="edge">
<title>Node2&#45;&gt;Node3</title>
<g id="a_edge2_Node000002_Node000003"><a xlink:title=" ">
<path fill="none" stroke="#63b8ff" d="M340.29,-28.8C349.72,-28.5 359.45,-28.19 369.06,-27.89"/>
<polygon fill="#63b8ff" stroke="#63b8ff" points="368.88,-31.4 378.76,-27.58 368.65,-24.4 368.88,-31.4"/>
</a>
</g>
</g>
<!-- Node4 -->
<g id="Node000004" class="node">
<title>Node4</title>
<g id="a_Node000004"><a xlink:href="../../d4/d55/class_identity_manager.html#ad6a5adbbaa98c88ed1447e8783b0a6b8" target="_top" xlink:title=" ">
<polygon fill="white" stroke="#666666" points="703,-71.15 567.75,-71.15 567.75,-51.15 703,-51.15 703,-71.15"/>
<text xml:space="preserve" text-anchor="middle" x="635.38" y="-57.65" font-family="Helvetica,sans-Serif" font-size="10.00">IdentityManager::kBookFile</text>
</a>
</g>
</g>
<!-- Node3&#45;&gt;Node4 -->
<g id="edge3_Node000003_Node000004" class="edge">
<title>Node3&#45;&gt;Node4</title>
<g id="a_edge3_Node000003_Node000004"><a xlink:title=" ">
<path fill="none" stroke="#63b8ff" d="M508.48,-35.56C528.22,-39.57 550.99,-44.2 571.7,-48.41"/>
<polygon fill="#63b8ff" stroke="#63b8ff" points="570.97,-51.83 581.47,-50.4 572.37,-44.97 570.97,-51.83"/>
</a>
</g>
</g>
<!-- Node7 -->
<g id="Node000007" class="node">
<title>Node7</title>
<g id="a_Node000007"><a xlink:href="../../d0/dc2/class_serializer.html#ac812cf485e5804fd6f22d34ae076f79f" target="_top" xlink:title=" ">
<polygon fill="white" stroke="#666666" points="864.88,-33.15 755.12,-33.15 755.12,-13.15 864.88,-13.15 864.88,-33.15"/>
<text xml:space="preserve" text-anchor="middle" x="810" y="-19.65" font-family="Helvetica,sans-Serif" font-size="10.00">Serializer::serializeInt</text>
</a>
</g>
</g>
<!-- Node3&#45;&gt;Node7 -->
<g id="edge6_Node000003_Node000007" class="edge">
<title>Node3&#45;&gt;Node7</title>
<g id="a_edge6_Node000003_Node000007"><a xlink:title=" ">
<path fill="none" stroke="#63b8ff" d="M501.87,-14.69C521.89,-10.51 545.88,-6.21 567.75,-4.15 627.6,1.49 643.13,1.17 703,-4.15 718.21,-5.5 734.51,-7.93 749.65,-10.6"/>
<polygon fill="#63b8ff" stroke="#63b8ff" points="749,-14.04 759.47,-12.4 750.27,-7.15 749,-14.04"/>
</a>
</g>
</g>
<!-- Node8 -->
<g id="Node000008" class="node">
<title>Node8</title>
<g id="a_Node000008"><a xlink:href="../../d0/dc2/class_serializer.html#a8a72c08ebb91348dc2a7ef6557c44f6c" target="_top" xlink:title=" ">
<polygon fill="white" stroke="#666666" points="697.38,-33.15 573.38,-33.15 573.38,-13.15 697.38,-13.15 697.38,-33.15"/>
<text xml:space="preserve" text-anchor="middle" x="635.38" y="-19.65" font-family="Helvetica,sans-Serif" font-size="10.00">Serializer::serializeString</text>
</a>
</g>
</g>
<!-- Node3&#45;&gt;Node8 -->
<g id="edge7_Node000003_Node000008" class="edge">
<title>Node3&#45;&gt;Node8</title>
<g id="a_edge7_Node000003_Node000008"><a xlink:title=" ">
<path fill="none" stroke="#63b8ff" d="M532.11,-24.3C541.88,-24.19 551.88,-24.08 561.62,-23.97"/>
<polygon fill="#63b8ff" stroke="#63b8ff" points="561.43,-27.47 571.39,-23.86 561.35,-20.47 561.43,-27.47"/>
</a>
</g>
</g>
<!-- Node5 -->
<g id="Node000005" class="node">
<title>Node5</title>
<g id="a_Node000005"><a xlink:href="../../de/d2f/class_path_manager.html#a516850d4f1f941e8c93900eb01f6e38b" target="_top" xlink:title=" ">
<polygon fill="white" stroke="#666666" points="881,-109.15 739,-109.15 739,-89.15 881,-89.15 881,-109.15"/>
<text xml:space="preserve" text-anchor="middle" x="810" y="-95.65" font-family="Helvetica,sans-Serif" font-size="10.00">PathManager::getConfigPath</text>
</a>
</g>
</g>
<!-- Node4&#45;&gt;Node5 -->
<g id="edge4_Node000004_Node000005" class="edge">
<title>Node4&#45;&gt;Node5</title>
<g id="a_edge4_Node000004_Node000005"><a xlink:title=" ">
<path fill="none" stroke="#63b8ff" d="M684,-71.63C704.57,-76.16 728.83,-81.5 750.48,-86.27"/>
<polygon fill="#63b8ff" stroke="#63b8ff" points="749.53,-89.64 760.05,-88.37 751.04,-82.81 749.53,-89.64"/>
</a>
</g>
</g>
<!-- Node6 -->
<g id="Node000006" class="node">
<title>Node6</title>
<g id="a_Node000006"><a xlink:href="../../de/d2f/class_path_manager.html#a467b459b77c73cbc7544551b53911fcd" target="_top" xlink:title=" ">
<polygon fill="white" stroke="#666666" points="1080,-109.15 917,-109.15 917,-89.15 1080,-89.15 1080,-109.15"/>
<text xml:space="preserve" text-anchor="middle" x="998.5" y="-95.65" font-family="Helvetica,sans-Serif" font-size="10.00">PathManager::getExecutableRoot</text>
</a>
</g>
</g>
<!-- Node5&#45;&gt;Node6 -->
<g id="edge5_Node000005_Node000006" class="edge">
<title>Node5&#45;&gt;Node6</title>
<g id="a_edge5_Node000005_Node000006"><a xlink:title=" ">
<path fill="none" stroke="#63b8ff" d="M881.24,-99.15C889.1,-99.15 897.2,-99.15 905.28,-99.15"/>
<polygon fill="#63b8ff" stroke="#63b8ff" points="905.16,-102.65 915.16,-99.15 905.16,-95.65 905.16,-102.65"/>
</a>
</g>
</g>
<!-- Node8&#45;&gt;Node7 -->
<g id="edge8_Node000008_Node000007" class="edge">
<title>Node8&#45;&gt;Node7</title>
<g id="a_edge8_Node000008_Node000007"><a xlink:title=" ">
<path fill="none" stroke="#63b8ff" d="M697.72,-23.15C712.55,-23.15 728.45,-23.15 743.46,-23.15"/>
<polygon fill="#63b8ff" stroke="#63b8ff" points="743.22,-26.65 753.22,-23.15 743.22,-19.65 743.22,-26.65"/>
</a>
</g>
</g>
<!-- Node10 -->
<g id="Node000010" class="node">
<title>Node10</title>
<g id="a_Node000010"><a xlink:href="../../d4/d55/class_identity_manager.html#a39c326ae35bbfd58d73cae32d8793174" target="_top" xlink:title=" ">
<polygon fill="white" stroke="#666666" points="527.25,-107.15 385.25,-107.15 385.25,-87.15 527.25,-87.15 527.25,-107.15"/>
<text xml:space="preserve" text-anchor="middle" x="456.25" y="-93.65" font-family="Helvetica,sans-Serif" font-size="10.00">IdentityManager::writeMeFile</text>
</a>
</g>
</g>
<!-- Node9&#45;&gt;Node10 -->
<g id="edge10_Node000009_Node000010" class="edge">
<title>Node9&#45;&gt;Node10</title>
<g id="a_edge10_Node000009_Node000010"><a xlink:title=" ">
<path fill="none" stroke="#63b8ff" d="M345.18,-89.57C354.53,-90.21 364.09,-90.87 373.48,-91.52"/>
<polygon fill="#63b8ff" stroke="#63b8ff" points="373.1,-95 383.31,-92.19 373.58,-88.02 373.1,-95"/>
</a>
</g>
</g>
<!-- Node10&#45;&gt;Node7 -->
<g id="edge13_Node000010_Node000007" class="edge">
<title>Node10&#45;&gt;Node7</title>
<g id="a_edge13_Node000010_Node000007"><a xlink:title=" ">
<path fill="none" stroke="#63b8ff" d="M527.73,-100.08C577.62,-100.28 645.58,-96.74 703,-80.15 733.05,-71.47 764.21,-53.45 784.9,-39.98"/>
<polygon fill="#63b8ff" stroke="#63b8ff" points="786.8,-42.92 793.17,-34.45 782.91,-37.09 786.8,-42.92"/>
</a>
</g>
</g>
<!-- Node10&#45;&gt;Node8 -->
<g id="edge14_Node000010_Node000008" class="edge">
<title>Node10&#45;&gt;Node8</title>
<g id="a_edge14_Node000010_Node000008"><a xlink:title=" ">
<path fill="none" stroke="#63b8ff" d="M475.55,-86.73C497.08,-74.78 534.18,-55.16 567.75,-42.15 572.42,-40.34 577.33,-38.62 582.28,-37"/>
<polygon fill="#63b8ff" stroke="#63b8ff" points="583.15,-40.39 591.66,-34.08 581.08,-33.71 583.15,-40.39"/>
</a>
</g>
</g>
<!-- Node11 -->
<g id="Node000011" class="node">
<title>Node11</title>
<g id="a_Node000011"><a xlink:href="../../d4/d55/class_identity_manager.html#a611e5cdca43b5f0e960cd0a486e14d00" target="_top" xlink:title=" ">
<polygon fill="white" stroke="#666666" points="698.5,-147.15 572.25,-147.15 572.25,-127.15 698.5,-127.15 698.5,-147.15"/>
<text xml:space="preserve" text-anchor="middle" x="635.38" y="-133.65" font-family="Helvetica,sans-Serif" font-size="10.00">IdentityManager::kMeFile</text>
</a>
</g>
</g>
<!-- Node10&#45;&gt;Node11 -->
<g id="edge11_Node000010_Node000011" class="edge">
<title>Node10&#45;&gt;Node11</title>
<g id="a_edge11_Node000010_Node000011"><a xlink:title=" ">
<path fill="none" stroke="#63b8ff" d="M503.33,-107.55C525.8,-112.63 553.06,-118.79 576.89,-124.17"/>
<polygon fill="#63b8ff" stroke="#63b8ff" points="575.91,-127.53 586.44,-126.32 577.46,-120.71 575.91,-127.53"/>
</a>
</g>
</g>
<!-- Node11&#45;&gt;Node5 -->
<g id="edge12_Node000011_Node000005" class="edge">
<title>Node11&#45;&gt;Node5</title>
<g id="a_edge12_Node000011_Node000005"><a xlink:title=" ">
<path fill="none" stroke="#63b8ff" d="M684,-126.66C704.57,-122.14 728.83,-116.8 750.48,-112.03"/>
<polygon fill="#63b8ff" stroke="#63b8ff" points="751.04,-115.49 760.05,-109.92 749.53,-108.66 751.04,-115.49"/>
</a>
</g>
</g>
</g>
</svg>

<g id="navigator" transform="translate(0 0)" fill="#404254">
  <rect fill="#f2f5e9" fill-opacity="0.5" stroke="#606060" stroke-width=".5" x="0" y="0" width="60" height="60"/>
  <use id="zoomplus" xlink:href="#zoomPlus" x="17" y="9" onmousedown="handleZoom(evt,'in')"/>
  <use id="zoomminus" xlink:href="#zoomMin" x="42" y="9" onmousedown="handleZoom(evt,'out')"/>
  <use id="reset" xlink:href="#resetDef" x="30" y="36" onmousedown="handleReset()"/>
   <use id="arrowup" xlink:href="#arrowUp" x="0" y="0" onmousedown="handlePan(0,-1)"/>
  <use id="arrowright" xlink:href="#arrowRight" x="0" y="0" onmousedown="handlePan(1,0)"/>
  <use id="arrowdown" xlink:href="#arrowDown" x="0" y="0" onmousedown="handlePan(0,1)"/>
  <use id="arrowleft" xlink:href="#arrowLeft" x="0" y="0" onmousedown="handlePan(-1,0)"/>
</g>
<svg viewBox="0 0 15 15" width="100%" height="30px" preserveAspectRatio="xMaxYMin meet">
 <g id="arrow_out" transform="scale(0.3 0.3)">
  <a xlink:href="class_identity_manager_a2545919ba7d19962e6b4f147940cd3d9_cgraph_org.svg" target="_base">
   <rect id="button" ry="5" rx="5" y="6" x="6" height="38" width="38"
        fill="#f2f5e9" fill-opacity="0.5" stroke="#606060" stroke-width="1.0"/>
   <path id="arrow"
     d="M 11.500037,31.436501 C 11.940474,20.09759 22.043105,11.32322 32.158766,21.979434 L 37.068811,17.246167 C 37.068811,17.246167 37.088388,32 37.088388,32 L 22.160133,31.978069 C 22.160133,31.978069 26.997745,27.140456 26.997745,27.140456 C 18.528582,18.264221 13.291696,25.230495 11.500037,31.436501 z"
     style="fill:#404040;"/>
  </a>
 </g>
</svg>

<style type='text/css'>
<![CDATA[
[data-mouse-over-selected='false'] { opacity: 0.7; }
[data-mouse-over-selected='true']  { opacity: 1.0; }
]]>
</style>
<script type="application/ecmascript"><![CDATA[
document.addEventListener('DOMContentLoaded', (event) => {
  highlightEdges();
  highlightAdjacentNodes();
});
]]></script>
</svg>
