<?xml version="1.0" encoding="UTF-8" standalone="no"?>
<!DOCTYPE svg PUBLIC "-//W3C//DTD SVG 1.1//EN"
 "http://www.w3.org/Graphics/SVG/1.1/DTD/svg11.dtd">
<!-- Generated by graphviz version 14.0.2 (20251019.1705)
 -->
<!-- Title: IdentityManager::kBookFile Pages: 1 -->
<svg width="702pt" height="134pt"
 viewBox="0.00 0.00 702.00 134.00" xmlns="http://www.w3.org/2000/svg" xmlns:xlink="http://www.w3.org/1999/xlink">
<g id="graph0" class="graph" transform="scale(1 1) rotate(0) translate(4 130)">
<title>IdentityManager::kBookFile</title>
<!-- Node1 -->
<g id="Node000001" class="node">
<title>Node1</title>
<g id="a_Node000001"><a xlink:title=" ">
<polygon fill="#999999" stroke="#666666" points="694,-95 558.75,-95 558.75,-75 694,-75 694,-95"/>
<text xml:space="preserve" text-anchor="middle" x="626.38" y="-81.5" font-family="Helvetica,sans-Serif" font-size="10.00">IdentityManager::kBookFile</text>
</a>
</g>
</g>
<!-- Node2 -->
<g id="Node000002" class="node">
<title>Node2</title>
<g id="a_Node000002"><a xlink:href="../../d4/d55/class_identity_manager.html#a11610f8f56c0df45a6fe25b0a2299e58" target="_top" xlink:title=" ">
<polygon fill="white" stroke="#666666" points="521.62,-117 372.88,-117 372.88,-97 521.62,-97 521.62,-117"/>
<text xml:space="preserve" text-anchor="middle" x="447.25" y="-103.5" font-family="Helvetica,sans-Serif" font-size="10.00">IdentityManager::readBookFile</text>
</a>
</g>
</g>
<!-- Node1&#45;&gt;Node2 -->
<g id="edge1_Node000001_Node000002" class="edge">
<title>Node1&#45;&gt;Node2</title>
<g id="a_edge1_Node000001_Node000002"><a xlink:title=" ">
<path fill="none" stroke="#63b8ff" d="M547.17,-94.71C538.84,-95.75 530.39,-96.8 522.12,-97.82"/>
<polygon fill="#63b8ff" stroke="#63b8ff" points="547.42,-98.21 556.91,-93.5 546.55,-91.26 547.42,-98.21"/>
</a>
</g>
</g>
<!-- Node4 -->
<g id="Node000004" class="node">
<title>Node4</title>
<g id="a_Node000004"><a xlink:href="../../d4/d55/class_identity_manager.html#a6423b50955b5c9937b4e3c928ce86dff" target="_top" xlink:title=" ">
<polygon fill="white" stroke="#666666" points="522.75,-76 371.75,-76 371.75,-56 522.75,-56 522.75,-76"/>
<text xml:space="preserve" text-anchor="middle" x="447.25" y="-62.5" font-family="Helvetica,sans-Serif" font-size="10.00">IdentityManager::writeBookFile</text>
</a>
</g>
</g>
<!-- Node1&#45;&gt;Node4 -->
<g id="edge3_Node000001_Node000004" class="edge">
<title>Node1&#45;&gt;Node4</title>
<g id="a_edge3_Node000001_Node000004"><a xlink:title=" ">
<path fill="none" stroke="#63b8ff" d="M547.17,-76.61C539.15,-75.75 531,-74.88 523.02,-74.02"/>
<polygon fill="#63b8ff" stroke="#63b8ff" points="546.59,-80.07 556.91,-77.66 547.34,-73.11 546.59,-80.07"/>
</a>
</g>
</g>
<!-- Node3 -->
<g id="Node000003" class="node">
<title>Node3</title>
<g id="a_Node000003"><a xlink:href="../../d4/d55/class_identity_manager.html#a8ab84e3c1abaf38a289c276666ca52ad" target="_top" xlink:title=" ">
<polygon fill="white" stroke="#666666" points="334.25,-126 188.5,-126 188.5,-94 334.25,-94 334.25,-126"/>
<text xml:space="preserve" text-anchor="start" x="196.5" y="-112.5" font-family="Helvetica,sans-Serif" font-size="10.00">IdentityManager::loadAddress</text>
<text xml:space="preserve" text-anchor="middle" x="261.38" y="-100.5" font-family="Helvetica,sans-Serif" font-size="10.00">BookFromFile</text>
</a>
</g>
</g>
<!-- Node2&#45;&gt;Node3 -->
<g id="edge2_Node000002_Node000003" class="edge">
<title>Node2&#45;&gt;Node3</title>
<g id="a_edge2_Node000002_Node000003"><a xlink:title=" ">
<path fill="none" stroke="#63b8ff" d="M361.3,-108.39C352.38,-108.53 343.38,-108.68 334.62,-108.82"/>
<polygon fill="#63b8ff" stroke="#63b8ff" points="361.07,-111.89 371.01,-108.23 360.95,-104.89 361.07,-111.89"/>
</a>
</g>
</g>
<!-- Node5 -->
<g id="Node000005" class="node">
<title>Node5</title>
<g id="a_Node000005"><a xlink:href="../../d4/d55/class_identity_manager.html#a18c85a39c82ac2918657286498bbe8da" target="_top" xlink:title=" ">
<polygon fill="white" stroke="#666666" points="335.75,-76 187,-76 187,-44 335.75,-44 335.75,-76"/>
<text xml:space="preserve" text-anchor="start" x="195" y="-62.5" font-family="Helvetica,sans-Serif" font-size="10.00">IdentityManager::saveAddress</text>
<text xml:space="preserve" text-anchor="middle" x="261.38" y="-50.5" font-family="Helvetica,sans-Serif" font-size="10.00">BookToFile</text>
</a>
</g>
</g>
<!-- Node4&#45;&gt;Node5 -->
<g id="edge4_Node000004_Node000005" class="edge">
<title>Node4&#45;&gt;Node5</title>
<g id="a_edge4_Node000004_Node000005"><a xlink:title=" ">
<path fill="none" stroke="#63b8ff" d="M360.19,-63.19C352.17,-62.93 344.1,-62.67 336.2,-62.41"/>
<polygon fill="#63b8ff" stroke="#63b8ff" points="359.84,-66.68 369.95,-63.51 360.07,-59.69 359.84,-66.68"/>
</a>
</g>
</g>
<!-- Node6 -->
<g id="Node000006" class="node">
<title>Node6</title>
<g id="a_Node000006"><a xlink:href="../../d4/d55/class_identity_manager.html#a22e3ee5efe1fc4e1df1363b9490390fb" target="_top" xlink:title=" ">
<polygon fill="white" stroke="#666666" points="140.5,-108 10.5,-108 10.5,-88 140.5,-88 140.5,-108"/>
<text xml:space="preserve" text-anchor="middle" x="75.5" y="-94.5" font-family="Helvetica,sans-Serif" font-size="10.00">IdentityManager::bindPeer</text>
</a>
</g>
</g>
<!-- Node5&#45;&gt;Node6 -->
<g id="edge5_Node000005_Node000006" class="edge">
<title>Node5&#45;&gt;Node6</title>
<g id="a_edge5_Node000005_Node000006"><a xlink:title=" ">
<path fill="none" stroke="#63b8ff" d="M175.78,-77.48C159.14,-80.92 142.18,-84.43 127.09,-87.54"/>
<polygon fill="#63b8ff" stroke="#63b8ff" points="176.08,-80.99 185.16,-75.54 174.66,-74.14 176.08,-80.99"/>
</a>
</g>
</g>
<!-- Node7 -->
<g id="Node000007" class="node">
<title>Node7</title>
<g id="a_Node000007"><a xlink:href="../../d4/d55/class_identity_manager.html#a06c9f1224957dbb9d2680a5c0d595ebd" target="_top" xlink:title=" ">
<polygon fill="white" stroke="#666666" points="151,-70 0,-70 0,-50 151,-50 151,-70"/>
<text xml:space="preserve" text-anchor="middle" x="75.5" y="-56.5" font-family="Helvetica,sans-Serif" font-size="10.00">IdentityManager::setMyIdentity</text>
</a>
</g>
</g>
<!-- Node5&#45;&gt;Node7 -->
<g id="edge6_Node000005_Node000007" class="edge">
<title>Node5&#45;&gt;Node7</title>
<g id="a_edge6_Node000005_Node000007"><a xlink:title=" ">
<path fill="none" stroke="#63b8ff" d="M175.13,-60C167.23,-60 159.25,-60 151.45,-60"/>
<polygon fill="#63b8ff" stroke="#63b8ff" points="175.13,-63.5 185.13,-60 175.13,-56.5 175.13,-63.5"/>
</a>
</g>
</g>
<!-- Node8 -->
<g id="Node000008" class="node">
<title>Node8</title>
<g id="a_Node000008"><a xlink:href="../../d4/d55/class_identity_manager.html#a2545919ba7d19962e6b4f147940cd3d9" target="_top" xlink:title=" ">
<polygon fill="white" stroke="#666666" points="150.62,-32 0.38,-32 0.38,0 150.62,0 150.62,-32"/>
<text xml:space="preserve" text-anchor="start" x="8.38" y="-18.5" font-family="Helvetica,sans-Serif" font-size="10.00">IdentityManager::setUsername</text>
<text xml:space="preserve" text-anchor="middle" x="75.5" y="-6.5" font-family="Helvetica,sans-Serif" font-size="10.00">ForUnique</text>
</a>
</g>
</g>
<!-- Node5&#45;&gt;Node8 -->
<g id="edge7_Node000005_Node000008" class="edge">
<title>Node5&#45;&gt;Node8</title>
<g id="a_edge7_Node000005_Node000008"><a xlink:title=" ">
<path fill="none" stroke="#63b8ff" d="M180.54,-40.9C168.86,-38.1 156.9,-35.24 145.45,-32.5"/>
<polygon fill="#63b8ff" stroke="#63b8ff" points="179.63,-44.28 190.17,-43.2 181.26,-37.47 179.63,-44.28"/>
</a>
</g>
</g>
</g>
</svg>
