<?xml version="1.0" encoding="UTF-8" standalone="no"?>
<!DOCTYPE svg PUBLIC "-//W3C//DTD SVG 1.1//EN"
 "http://www.w3.org/Graphics/SVG/1.1/DTD/svg11.dtd">
<!-- Generated by graphviz version 14.0.2 (20251019.1705)
 -->
<!-- Title: IdentityManager::saveAddressBookToFile Pages: 1 -->
<svg width="344pt" height="116pt"
 viewBox="0.00 0.00 344.00 116.00" xmlns="http://www.w3.org/2000/svg" xmlns:xlink="http://www.w3.org/1999/xlink">
<g id="graph0" class="graph" transform="scale(1 1) rotate(0) translate(4 112)">
<title>IdentityManager::saveAddressBookToFile</title>
<!-- Node1 -->
<g id="Node000001" class="node">
<title>Node1</title>
<g id="a_Node000001"><a xlink:title=" ">
<polygon fill="#999999" stroke="#666666" points="335.75,-76 187,-76 187,-44 335.75,-44 335.75,-76"/>
<text xml:space="preserve" text-anchor="start" x="195" y="-62.5" font-family="Helvetica,sans-Serif" font-size="10.00">IdentityManager::saveAddress</text>
<text xml:space="preserve" text-anchor="middle" x="261.38" y="-50.5" font-family="Helvetica,sans-Serif" font-size="10.00">BookToFile</text>
</a>
</g>
</g>
<!-- Node2 -->
<g id="Node000002" class="node">
<title>Node2</title>
<g id="a_Node000002"><a xlink:href="../../d4/d55/class_identity_manager.html#a22e3ee5efe1fc4e1df1363b9490390fb" target="_top" xlink:title=" ">
<polygon fill="white" stroke="#666666" points="140.5,-108 10.5,-108 10.5,-88 140.5,-88 140.5,-108"/>
<text xml:space="preserve" text-anchor="middle" x="75.5" y="-94.5" font-family="Helvetica,sans-Serif" font-size="10.00">IdentityManager::bindPeer</text>
</a>
</g>
</g>
<!-- Node1&#45;&gt;Node2 -->
<g id="edge1_Node000001_Node000002" class="edge">
<title>Node1&#45;&gt;Node2</title>
<g id="a_edge1_Node000001_Node000002"><a xlink:title=" ">
<path fill="none" stroke="#63b8ff" d="M175.78,-77.48C159.14,-80.92 142.18,-84.43 127.09,-87.54"/>
<polygon fill="#63b8ff" stroke="#63b8ff" points="176.08,-80.99 185.16,-75.54 174.66,-74.14 176.08,-80.99"/>
</a>
</g>
</g>
<!-- Node3 -->
<g id="Node000003" class="node">
<title>Node3</title>
<g id="a_Node000003"><a xlink:href="../../d4/d55/class_identity_manager.html#a06c9f1224957dbb9d2680a5c0d595ebd" target="_top" xlink:title=" ">
<polygon fill="white" stroke="#666666" points="151,-70 0,-70 0,-50 151,-50 151,-70"/>
<text xml:space="preserve" text-anchor="middle" x="75.5" y="-56.5" font-family="Helvetica,sans-Serif" font-size="10.00">IdentityManager::setMyIdentity</text>
</a>
</g>
</g>
<!-- Node1&#45;&gt;Node3 -->
<g id="edge2_Node000001_Node000003" class="edge">
<title>Node1&#45;&gt;Node3</title>
<g id="a_edge2_Node000001_Node000003"><a xlink:title=" ">
<path fill="none" stroke="#63b8ff" d="M175.13,-60C167.23,-60 159.25,-60 151.45,-60"/>
<polygon fill="#63b8ff" stroke="#63b8ff" points="175.13,-63.5 185.13,-60 175.13,-56.5 175.13,-63.5"/>
</a>
</g>
</g>
<!-- Node4 -->
<g id="Node000004" class="node">
<title>Node4</title>
<g id="a_Node000004"><a xlink:href="../../d4/d55/class_identity_manager.html#a2545919ba7d19962e6b4f147940cd3d9" target="_top" xlink:title=" ">
<polygon fill="white" stroke="#666666" points="150.62,-32 0.38,-32 0.38,0 150.62,0 150.62,-32"/>
<text xml:space="preserve" text-anchor="start" x="8.38" y="-18.5" font-family="Helvetica,sans-Serif" font-size="10.00">IdentityManager::setUsername</text>
<text xml:space="preserve" text-anchor="middle" x="75.5" y="-6.5" font-family="Helvetica,sans-Serif" font-size="10.00">ForUnique</text>
</a>
</g>
</g>
<!-- Node1&#45;&gt;Node4 -->
<g id="edge3_Node000001_Node000004" class="edge">
<title>Node1&#45;&gt;Node4</title>
<g id="a_edge3_Node000001_Node000004"><a xlink:title=" ">
<path fill="none" stroke="#63b8ff" d="M180.54,-40.9C168.86,-38.1 156.9,-35.24 145.45,-32.5"/>
<polygon fill="#63b8ff" stroke="#63b8ff" points="179.63,-44.28 190.17,-43.2 181.26,-37.47 179.63,-44.28"/>
</a>
</g>
</g>
</g>
</svg>
