<?xml version="1.0" encoding="UTF-8" standalone="no"?>
<!DOCTYPE svg PUBLIC "-//W3C//DTD SVG 1.1//EN"
 "http://www.w3.org/Graphics/SVG/1.1/DTD/svg11.dtd">
<!-- Generated by graphviz version 2.43.0 (0)
 -->
<!-- Title: include/debug/DebugActions.h Pages: 1 -->
<svg width="952pt" height="192pt"
 viewBox="0.00 0.00 951.50 192.00" xmlns="http://www.w3.org/2000/svg" xmlns:xlink="http://www.w3.org/1999/xlink">
<g id="graph0" class="graph" transform="scale(1 1) rotate(0) translate(4 188)">
<title>include/debug/DebugActions.h</title>
<!-- Node1 -->
<g id="Node000001" class="node">
<title>Node1</title>
<g id="a_Node000001"><a xlink:title=" ">
<polygon fill="#999999" stroke="#666666" points="396.5,-184 232.5,-184 232.5,-165 396.5,-165 396.5,-184"/>
<text text-anchor="middle" x="314.5" y="-172" font-family="Helvetica,sans-Serif" font-size="10.00">include/debug/DebugActions.h</text>
</a>
</g>
</g>
<!-- Node2 -->
<g id="Node000002" class="node">
<title>Node2</title>
<g id="a_Node000002"><a xlink:title=" ">
<polygon fill="#e0e0e0" stroke="#999999" points="943.5,-19 893.5,-19 893.5,0 943.5,0 943.5,-19"/>
<text text-anchor="middle" x="918.5" y="-7" font-family="Helvetica,sans-Serif" font-size="10.00">chrono</text>
</a>
</g>
</g>
<!-- Node1&#45;&gt;Node2 -->
<g id="edge1_Node000001_Node000002" class="edge">
<title>Node1&#45;&gt;Node2</title>
<g id="a_edge1_Node000001_Node000002"><a xlink:title=" ">
<path fill="none" stroke="#63b8ff" d="M355,-164.97C394.55,-156.47 456.38,-142.74 509.5,-129 649,-92.91 813.17,-43.08 883.58,-21.36"/>
<polygon fill="#63b8ff" stroke="#63b8ff" points="884.75,-24.66 893.27,-18.36 882.69,-17.97 884.75,-24.66"/>
</a>
</g>
</g>
<!-- Node3 -->
<g id="Node000003" class="node">
<title>Node3</title>
<g id="a_Node000003"><a xlink:title=" ">
<polygon fill="#e0e0e0" stroke="#999999" points="94.5,-129 44.5,-129 44.5,-110 94.5,-110 94.5,-129"/>
<text text-anchor="middle" x="69.5" y="-117" font-family="Helvetica,sans-Serif" font-size="10.00">cstdint</text>
</a>
</g>
</g>
<!-- Node1&#45;&gt;Node3 -->
<g id="edge2_Node000001_Node000003" class="edge">
<title>Node1&#45;&gt;Node3</title>
<g id="a_edge2_Node000001_Node000003"><a xlink:title=" ">
<path fill="none" stroke="#63b8ff" d="M275,-164.99C233.53,-156.05 166.43,-141.57 108.5,-129 107.24,-128.73 105.96,-128.45 104.67,-128.17"/>
<polygon fill="#63b8ff" stroke="#63b8ff" points="105.19,-124.7 94.67,-125.99 103.7,-131.54 105.19,-124.7"/>
</a>
</g>
</g>
<!-- Node4 -->
<g id="Node000004" class="node">
<title>Node4</title>
<g id="a_Node000004"><a xlink:title=" ">
<polygon fill="#e0e0e0" stroke="#999999" points="198.5,-19 154.5,-19 154.5,0 198.5,0 198.5,-19"/>
<text text-anchor="middle" x="176.5" y="-7" font-family="Helvetica,sans-Serif" font-size="10.00">string</text>
</a>
</g>
</g>
<!-- Node1&#45;&gt;Node4 -->
<g id="edge3_Node000001_Node000004" class="edge">
<title>Node1&#45;&gt;Node4</title>
<g id="a_edge3_Node000001_Node000004"><a xlink:title=" ">
<path fill="none" stroke="#63b8ff" d="M310.21,-164.85C303.74,-152.21 290.74,-128.22 276.5,-110 250.93,-77.3 215.38,-44.28 194.28,-25.7"/>
<polygon fill="#63b8ff" stroke="#63b8ff" points="196.54,-23.03 186.69,-19.1 191.94,-28.31 196.54,-23.03"/>
</a>
</g>
</g>
<!-- Node5 -->
<g id="Node000005" class="node">
<title>Node5</title>
<g id="a_Node000005"><a xlink:title=" ">
<polygon fill="#e0e0e0" stroke="#999999" points="264,-19 217,-19 217,0 264,0 264,-19"/>
<text text-anchor="middle" x="240.5" y="-7" font-family="Helvetica,sans-Serif" font-size="10.00">vector</text>
</a>
</g>
</g>
<!-- Node1&#45;&gt;Node5 -->
<g id="edge4_Node000001_Node000005" class="edge">
<title>Node1&#45;&gt;Node5</title>
<g id="a_edge4_Node000001_Node000005"><a xlink:title=" ">
<path fill="none" stroke="#63b8ff" d="M316.69,-164.72C321.33,-144.01 330.17,-91.09 309.5,-55 301.44,-40.93 286.92,-30.58 273.27,-23.42"/>
<polygon fill="#63b8ff" stroke="#63b8ff" points="274.58,-20.16 264.05,-18.96 271.54,-26.46 274.58,-20.16"/>
</a>
</g>
</g>
<!-- Node6 -->
<g id="Node000006" class="node">
<title>Node6</title>
<g id="a_Node000006"><a xlink:title=" ">
<polygon fill="#e0e0e0" stroke="#999999" points="65,-19 0,-19 0,0 65,0 65,-19"/>
<text text-anchor="middle" x="32.5" y="-7" font-family="Helvetica,sans-Serif" font-size="10.00">functional</text>
</a>
</g>
</g>
<!-- Node1&#45;&gt;Node6 -->
<g id="edge5_Node000001_Node000006" class="edge">
<title>Node1&#45;&gt;Node6</title>
<g id="a_edge5_Node000001_Node000006"><a xlink:title=" ">
<path fill="none" stroke="#63b8ff" d="M232.28,-171.65C159.42,-168.08 60.78,-157.88 35.5,-129 11.31,-101.36 19.39,-54.65 26.51,-28.91"/>
<polygon fill="#63b8ff" stroke="#63b8ff" points="29.88,-29.86 29.4,-19.27 23.17,-27.84 29.88,-29.86"/>
</a>
</g>
</g>
<!-- Node7 -->
<g id="Node000007" class="node">
<title>Node7</title>
<g id="a_Node000007"><a xlink:title=" ">
<polygon fill="#e0e0e0" stroke="#999999" points="875.5,-19 811.5,-19 811.5,0 875.5,0 875.5,-19"/>
<text text-anchor="middle" x="843.5" y="-7" font-family="Helvetica,sans-Serif" font-size="10.00">algorithm</text>
</a>
</g>
</g>
<!-- Node1&#45;&gt;Node7 -->
<g id="edge6_Node000001_Node000007" class="edge">
<title>Node1&#45;&gt;Node7</title>
<g id="a_edge6_Node000001_Node000007"><a xlink:title=" ">
<path fill="none" stroke="#63b8ff" d="M344.25,-164.93C374.92,-156.07 424.11,-141.75 466.5,-129 592.11,-91.21 740.37,-43.77 807.39,-22.17"/>
<polygon fill="#63b8ff" stroke="#63b8ff" points="808.62,-25.46 817.06,-19.06 806.47,-18.8 808.62,-25.46"/>
</a>
</g>
</g>
<!-- Node8 -->
<g id="Node000008" class="node">
<title>Node8</title>
<g id="a_Node000008"><a xlink:title=" ">
<polygon fill="#e0e0e0" stroke="#999999" points="136,-19 83,-19 83,0 136,0 136,-19"/>
<text text-anchor="middle" x="109.5" y="-7" font-family="Helvetica,sans-Serif" font-size="10.00">imgui.h</text>
</a>
</g>
</g>
<!-- Node1&#45;&gt;Node8 -->
<g id="edge7_Node000001_Node000008" class="edge">
<title>Node1&#45;&gt;Node8</title>
<g id="a_edge7_Node000001_Node000008"><a xlink:title=" ">
<path fill="none" stroke="#63b8ff" d="M240.16,-164.95C213.17,-158.67 184.05,-147.8 162.5,-129 132.18,-102.54 118.37,-55.33 112.79,-29.2"/>
<polygon fill="#63b8ff" stroke="#63b8ff" points="116.17,-28.27 110.83,-19.12 109.3,-29.6 116.17,-28.27"/>
</a>
</g>
</g>
<!-- Node9 -->
<g id="Node000009" class="node">
<title>Node9</title>
<g id="a_Node000009"><a xlink:href="../../dc/daa/DebugConsole_8h.html" target="_top" xlink:title=" ">
<polygon fill="white" stroke="#666666" points="267.5,-129 171.5,-129 171.5,-110 267.5,-110 267.5,-129"/>
<text text-anchor="middle" x="219.5" y="-117" font-family="Helvetica,sans-Serif" font-size="10.00">DebugConsole.h</text>
</a>
</g>
</g>
<!-- Node1&#45;&gt;Node9 -->
<g id="edge8_Node000001_Node000009" class="edge">
<title>Node1&#45;&gt;Node9</title>
<g id="a_edge8_Node000001_Node000009"><a xlink:title=" ">
<path fill="none" stroke="#63b8ff" d="M299.24,-164.98C284.37,-156.69 261.52,-143.94 244.08,-134.22"/>
<polygon fill="#63b8ff" stroke="#63b8ff" points="245.48,-130.99 235.04,-129.17 242.07,-137.1 245.48,-130.99"/>
</a>
</g>
</g>
<!-- Node10 -->
<g id="Node000010" class="node">
<title>Node10</title>
<g id="a_Node000010"><a xlink:href="../../dd/da4/Logger_8h.html" target="_top" xlink:title=" ">
<polygon fill="white" stroke="#666666" points="419.5,-74 361.5,-74 361.5,-55 419.5,-55 419.5,-74"/>
<text text-anchor="middle" x="390.5" y="-62" font-family="Helvetica,sans-Serif" font-size="10.00">Logger.h</text>
</a>
</g>
</g>
<!-- Node1&#45;&gt;Node10 -->
<g id="edge25_Node000001_Node000010" class="edge">
<title>Node1&#45;&gt;Node10</title>
<g id="a_edge25_Node000001_Node000010"><a xlink:title=" ">
<path fill="none" stroke="#63b8ff" d="M321.19,-164.72C327.93,-155.8 338.6,-141.55 347.5,-129 358.53,-113.44 370.68,-95.42 379.24,-82.55"/>
<polygon fill="#63b8ff" stroke="#63b8ff" points="382.16,-84.48 384.77,-74.21 376.33,-80.61 382.16,-84.48"/>
</a>
</g>
</g>
<!-- Node17 -->
<g id="Node000017" class="node">
<title>Node17</title>
<g id="a_Node000017"><a xlink:href="../../d7/df9/ImGuiToaster_8h.html" target="_top" xlink:title=" ">
<polygon fill="white" stroke="#666666" points="635,-74 546,-74 546,-55 635,-55 635,-74"/>
<text text-anchor="middle" x="590.5" y="-62" font-family="Helvetica,sans-Serif" font-size="10.00">ImGuiToaster.h</text>
</a>
</g>
</g>
<!-- Node1&#45;&gt;Node17 -->
<g id="edge26_Node000001_Node000017" class="edge">
<title>Node1&#45;&gt;Node17</title>
<g id="a_edge26_Node000001_Node000017"><a xlink:title=" ">
<path fill="none" stroke="#63b8ff" d="M336.62,-164.84C385.49,-145.72 502.79,-99.82 559.19,-77.75"/>
<polygon fill="#63b8ff" stroke="#63b8ff" points="560.62,-80.95 568.66,-74.05 558.07,-74.43 560.62,-80.95"/>
</a>
</g>
</g>
<!-- Node9&#45;&gt;Node4 -->
<g id="edge10_Node000009_Node000004" class="edge">
<title>Node9&#45;&gt;Node4</title>
<g id="a_edge10_Node000009_Node000004"><a xlink:title=" ">
<path fill="none" stroke="#63b8ff" d="M216.35,-109.83C211.87,-97.56 203.33,-74.46 195.5,-55 191.97,-46.23 187.88,-36.58 184.39,-28.51"/>
<polygon fill="#63b8ff" stroke="#63b8ff" points="187.59,-27.09 180.4,-19.32 181.18,-29.89 187.59,-27.09"/>
</a>
</g>
</g>
<!-- Node9&#45;&gt;Node5 -->
<g id="edge11_Node000009_Node000005" class="edge">
<title>Node9&#45;&gt;Node5</title>
<g id="a_edge11_Node000009_Node000005"><a xlink:title=" ">
<path fill="none" stroke="#63b8ff" d="M222.8,-109.77C226.03,-100.89 230.83,-86.68 233.5,-74 236.61,-59.21 238.39,-42.17 239.38,-29.47"/>
<polygon fill="#63b8ff" stroke="#63b8ff" points="242.89,-29.43 240.08,-19.21 235.91,-28.95 242.89,-29.43"/>
</a>
</g>
</g>
<!-- Node9&#45;&gt;Node6 -->
<g id="edge12_Node000009_Node000006" class="edge">
<title>Node9&#45;&gt;Node6</title>
<g id="a_edge12_Node000009_Node000006"><a xlink:title=" ">
<path fill="none" stroke="#63b8ff" d="M204.51,-109.84C172.15,-91.16 95.52,-46.9 56.39,-24.3"/>
<polygon fill="#63b8ff" stroke="#63b8ff" points="57.71,-21.02 47.3,-19.05 54.21,-27.08 57.71,-21.02"/>
</a>
</g>
</g>
<!-- Node9&#45;&gt;Node8 -->
<g id="edge9_Node000009_Node000008" class="edge">
<title>Node9&#45;&gt;Node8</title>
<g id="a_edge9_Node000009_Node000008"><a xlink:title=" ">
<path fill="none" stroke="#63b8ff" d="M211.21,-109.74C199.44,-97.36 177.14,-74.14 157.5,-55 147.43,-45.19 135.88,-34.46 126.63,-26"/>
<polygon fill="#63b8ff" stroke="#63b8ff" points="128.94,-23.37 119.19,-19.23 124.23,-28.55 128.94,-23.37"/>
</a>
</g>
</g>
<!-- Node9&#45;&gt;Node10 -->
<g id="edge13_Node000009_Node000010" class="edge">
<title>Node9&#45;&gt;Node10</title>
<g id="a_edge13_Node000009_Node000010"><a xlink:title=" ">
<path fill="none" stroke="#63b8ff" d="M246.97,-109.98C275.68,-101.09 320.92,-87.07 352.92,-77.15"/>
<polygon fill="#63b8ff" stroke="#63b8ff" points="354.3,-80.39 362.81,-74.08 352.22,-73.7 354.3,-80.39"/>
</a>
</g>
</g>
<!-- Node10&#45;&gt;Node2 -->
<g id="edge23_Node000010_Node000002" class="edge">
<title>Node10&#45;&gt;Node2</title>
<g id="a_edge23_Node000010_Node000002"><a xlink:title=" ">
<path fill="none" stroke="#63b8ff" d="M419.65,-61.47C508.52,-55.2 775.96,-35.62 883.18,-18.91"/>
<polygon fill="#63b8ff" stroke="#63b8ff" points="884.04,-22.32 893.34,-17.25 882.91,-15.41 884.04,-22.32"/>
</a>
</g>
</g>
<!-- Node10&#45;&gt;Node4 -->
<g id="edge18_Node000010_Node000004" class="edge">
<title>Node10&#45;&gt;Node4</title>
<g id="a_edge18_Node000010_Node000004"><a xlink:title=" ">
<path fill="none" stroke="#63b8ff" d="M361.46,-56.59C325.5,-47.98 262.4,-32.75 208.5,-19 208.4,-18.97 208.3,-18.95 208.2,-18.92"/>
<polygon fill="#63b8ff" stroke="#63b8ff" points="209.08,-15.54 198.52,-16.41 207.32,-22.31 209.08,-15.54"/>
</a>
</g>
</g>
<!-- Node10&#45;&gt;Node5 -->
<g id="edge17_Node000010_Node000005" class="edge">
<title>Node10&#45;&gt;Node5</title>
<g id="a_edge17_Node000010_Node000005"><a xlink:title=" ">
<path fill="none" stroke="#63b8ff" d="M366.4,-54.98C341.32,-46.12 301.87,-32.18 273.82,-22.27"/>
<polygon fill="#63b8ff" stroke="#63b8ff" points="274.64,-18.85 264.05,-18.82 272.31,-25.45 274.64,-18.85"/>
</a>
</g>
</g>
<!-- Node10&#45;&gt;Node6 -->
<g id="edge19_Node000010_Node000006" class="edge">
<title>Node10&#45;&gt;Node6</title>
<g id="a_edge19_Node000010_Node000006"><a xlink:title=" ">
<path fill="none" stroke="#63b8ff" d="M361.22,-59.97C306.96,-53.3 186.92,-37.96 75.12,-19.01"/>
<polygon fill="#63b8ff" stroke="#63b8ff" points="75.47,-15.52 65.02,-17.28 74.29,-22.42 75.47,-15.52"/>
</a>
</g>
</g>
<!-- Node10&#45;&gt;Node7 -->
<g id="edge20_Node000010_Node000007" class="edge">
<title>Node10&#45;&gt;Node7</title>
<g id="a_edge20_Node000010_Node000007"><a xlink:title=" ">
<path fill="none" stroke="#63b8ff" d="M419.6,-61.33C485.62,-56.21 651.95,-42.12 801.07,-19.08"/>
<polygon fill="#63b8ff" stroke="#63b8ff" points="801.99,-22.48 811.32,-17.48 800.9,-15.56 801.99,-22.48"/>
</a>
</g>
</g>
<!-- Node11 -->
<g id="Node000011" class="node">
<title>Node11</title>
<g id="a_Node000011"><a xlink:title=" ">
<polygon fill="#e0e0e0" stroke="#999999" points="583.5,-19 535.5,-19 535.5,0 583.5,0 583.5,-19"/>
<text text-anchor="middle" x="559.5" y="-7" font-family="Helvetica,sans-Serif" font-size="10.00">mutex</text>
</a>
</g>
</g>
<!-- Node10&#45;&gt;Node11 -->
<g id="edge14_Node000010_Node000011" class="edge">
<title>Node10&#45;&gt;Node11</title>
<g id="a_edge14_Node000010_Node000011"><a xlink:title=" ">
<path fill="none" stroke="#63b8ff" d="M417.65,-54.98C447.04,-45.77 493.94,-31.06 525.69,-21.1"/>
<polygon fill="#63b8ff" stroke="#63b8ff" points="526.93,-24.38 535.43,-18.05 524.84,-17.7 526.93,-24.38"/>
</a>
</g>
</g>
<!-- Node12 -->
<g id="Node000012" class="node">
<title>Node12</title>
<g id="a_Node000012"><a xlink:title=" ">
<polygon fill="#e0e0e0" stroke="#999999" points="517,-19 424,-19 424,0 517,0 517,-19"/>
<text text-anchor="middle" x="470.5" y="-7" font-family="Helvetica,sans-Serif" font-size="10.00">unordered_map</text>
</a>
</g>
</g>
<!-- Node10&#45;&gt;Node12 -->
<g id="edge15_Node000010_Node000012" class="edge">
<title>Node10&#45;&gt;Node12</title>
<g id="a_edge15_Node000010_Node000012"><a xlink:title=" ">
<path fill="none" stroke="#63b8ff" d="M403.35,-54.98C415.64,-46.84 434.41,-34.41 448.98,-24.76"/>
<polygon fill="#63b8ff" stroke="#63b8ff" points="451.01,-27.61 457.41,-19.17 447.14,-21.78 451.01,-27.61"/>
</a>
</g>
</g>
<!-- Node13 -->
<g id="Node000013" class="node">
<title>Node13</title>
<g id="a_Node000013"><a xlink:title=" ">
<polygon fill="#e0e0e0" stroke="#999999" points="649,-19 602,-19 602,0 649,0 649,-19"/>
<text text-anchor="middle" x="625.5" y="-7" font-family="Helvetica,sans-Serif" font-size="10.00">deque</text>
</a>
</g>
</g>
<!-- Node10&#45;&gt;Node13 -->
<g id="edge16_Node000010_Node000013" class="edge">
<title>Node10&#45;&gt;Node13</title>
<g id="a_edge16_Node000010_Node000013"><a xlink:title=" ">
<path fill="none" stroke="#63b8ff" d="M419.68,-57.41C457.17,-49.51 524.51,-35.08 591.81,-19.1"/>
<polygon fill="#63b8ff" stroke="#63b8ff" points="592.82,-22.45 601.73,-16.73 591.19,-15.65 592.82,-22.45"/>
</a>
</g>
</g>
<!-- Node14 -->
<g id="Node000014" class="node">
<title>Node14</title>
<g id="a_Node000014"><a xlink:title=" ">
<polygon fill="#e0e0e0" stroke="#999999" points="725.5,-19 667.5,-19 667.5,0 725.5,0 725.5,-19"/>
<text text-anchor="middle" x="696.5" y="-7" font-family="Helvetica,sans-Serif" font-size="10.00">memory</text>
</a>
</g>
</g>
<!-- Node10&#45;&gt;Node14 -->
<g id="edge21_Node000010_Node000014" class="edge">
<title>Node10&#45;&gt;Node14</title>
<g id="a_edge21_Node000010_Node000014"><a xlink:title=" ">
<path fill="none" stroke="#63b8ff" d="M419.55,-59.22C467.15,-52.08 564.94,-36.94 657.67,-19.07"/>
<polygon fill="#63b8ff" stroke="#63b8ff" points="658.34,-22.51 667.49,-17.16 657,-15.63 658.34,-22.51"/>
</a>
</g>
</g>
<!-- Node15 -->
<g id="Node000015" class="node">
<title>Node15</title>
<g id="a_Node000015"><a xlink:title=" ">
<polygon fill="#e0e0e0" stroke="#999999" points="339,-19 282,-19 282,0 339,0 339,-19"/>
<text text-anchor="middle" x="310.5" y="-7" font-family="Helvetica,sans-Serif" font-size="10.00">ostream</text>
</a>
</g>
</g>
<!-- Node10&#45;&gt;Node15 -->
<g id="edge22_Node000010_Node000015" class="edge">
<title>Node10&#45;&gt;Node15</title>
<g id="a_edge22_Node000010_Node000015"><a xlink:title=" ">
<path fill="none" stroke="#63b8ff" d="M377.65,-54.98C365.36,-46.84 346.59,-34.41 332.02,-24.76"/>
<polygon fill="#63b8ff" stroke="#63b8ff" points="333.86,-21.78 323.59,-19.17 329.99,-27.61 333.86,-21.78"/>
</a>
</g>
</g>
<!-- Node16 -->
<g id="Node000016" class="node">
<title>Node16</title>
<g id="a_Node000016"><a xlink:title=" ">
<polygon fill="#e0e0e0" stroke="#999999" points="406,-19 357,-19 357,0 406,0 406,-19"/>
<text text-anchor="middle" x="381.5" y="-7" font-family="Helvetica,sans-Serif" font-size="10.00">cctype</text>
</a>
</g>
</g>
<!-- Node10&#45;&gt;Node16 -->
<g id="edge24_Node000010_Node000016" class="edge">
<title>Node10&#45;&gt;Node16</title>
<g id="a_edge24_Node000010_Node000016"><a xlink:title=" ">
<path fill="none" stroke="#63b8ff" d="M389.01,-54.75C387.83,-47.8 386.14,-37.85 384.66,-29.13"/>
<polygon fill="#63b8ff" stroke="#63b8ff" points="388.08,-28.36 382.96,-19.09 381.18,-29.53 388.08,-28.36"/>
</a>
</g>
</g>
<!-- Node17&#45;&gt;Node2 -->
<g id="edge32_Node000017_Node000002" class="edge">
<title>Node17&#45;&gt;Node2</title>
<g id="a_edge32_Node000017_Node000002"><a xlink:title=" ">
<path fill="none" stroke="#63b8ff" d="M635.06,-58.09C690.88,-51.02 789.63,-37.55 883.38,-19.06"/>
<polygon fill="#63b8ff" stroke="#63b8ff" points="884.19,-22.47 893.31,-17.08 882.82,-15.6 884.19,-22.47"/>
</a>
</g>
</g>
<!-- Node17&#45;&gt;Node4 -->
<g id="edge30_Node000017_Node000004" class="edge">
<title>Node17&#45;&gt;Node4</title>
<g id="a_edge30_Node000017_Node000004"><a xlink:title=" ">
<path fill="none" stroke="#63b8ff" d="M545.78,-60.39C475.94,-55.06 336.66,-42.62 208.76,-18.75"/>
<polygon fill="#63b8ff" stroke="#63b8ff" points="209.26,-15.28 198.79,-16.86 207.96,-22.16 209.26,-15.28"/>
</a>
</g>
</g>
<!-- Node17&#45;&gt;Node5 -->
<g id="edge31_Node000017_Node000005" class="edge">
<title>Node17&#45;&gt;Node5</title>
<g id="a_edge31_Node000017_Node000005"><a xlink:title=" ">
<path fill="none" stroke="#63b8ff" d="M545.87,-58.84C486.19,-52.26 376.95,-38.97 274.15,-18.91"/>
<polygon fill="#63b8ff" stroke="#63b8ff" points="274.71,-15.46 264.22,-16.95 273.35,-22.32 274.71,-15.46"/>
</a>
</g>
</g>
<!-- Node17&#45;&gt;Node7 -->
<g id="edge33_Node000017_Node000007" class="edge">
<title>Node17&#45;&gt;Node7</title>
<g id="a_edge33_Node000017_Node000007"><a xlink:title=" ">
<path fill="none" stroke="#63b8ff" d="M631.15,-54.98C677.87,-45.2 754.16,-29.21 801.46,-19.31"/>
<polygon fill="#63b8ff" stroke="#63b8ff" points="802.31,-22.7 811.38,-17.23 800.87,-15.85 802.31,-22.7"/>
</a>
</g>
</g>
<!-- Node17&#45;&gt;Node8 -->
<g id="edge27_Node000017_Node000008" class="edge">
<title>Node17&#45;&gt;Node8</title>
<g id="a_edge27_Node000017_Node000008"><a xlink:title=" ">
<path fill="none" stroke="#63b8ff" d="M545.71,-60.99C466.92,-56.14 298.26,-43.85 146.15,-18.87"/>
<polygon fill="#63b8ff" stroke="#63b8ff" points="146.6,-15.4 136.16,-17.21 145.45,-22.3 146.6,-15.4"/>
</a>
</g>
</g>
<!-- Node17&#45;&gt;Node11 -->
<g id="edge29_Node000017_Node000011" class="edge">
<title>Node17&#45;&gt;Node11</title>
<g id="a_edge29_Node000017_Node000011"><a xlink:title=" ">
<path fill="none" stroke="#63b8ff" d="M585.38,-54.75C581.14,-47.49 574.97,-36.95 569.72,-27.98"/>
<polygon fill="#63b8ff" stroke="#63b8ff" points="572.59,-25.95 564.52,-19.09 566.55,-29.49 572.59,-25.95"/>
</a>
</g>
</g>
<!-- Node17&#45;&gt;Node13 -->
<g id="edge28_Node000017_Node000013" class="edge">
<title>Node17&#45;&gt;Node13</title>
<g id="a_edge28_Node000017_Node000013"><a xlink:title=" ">
<path fill="none" stroke="#63b8ff" d="M596.28,-54.75C601.12,-47.42 608.18,-36.73 614.14,-27.7"/>
<polygon fill="#63b8ff" stroke="#63b8ff" points="617.24,-29.36 619.83,-19.09 611.4,-25.5 617.24,-29.36"/>
</a>
</g>
</g>
<!-- Node17&#45;&gt;Node14 -->
<g id="edge34_Node000017_Node000014" class="edge">
<title>Node17&#45;&gt;Node14</title>
<g id="a_edge34_Node000017_Node000014"><a xlink:title=" ">
<path fill="none" stroke="#63b8ff" d="M607.53,-54.98C624.43,-46.54 650.56,-33.47 670.14,-23.68"/>
<polygon fill="#63b8ff" stroke="#63b8ff" points="671.78,-26.77 679.16,-19.17 668.65,-20.51 671.78,-26.77"/>
</a>
</g>
</g>
<!-- Node18 -->
<g id="Node000018" class="node">
<title>Node18</title>
<g id="a_Node000018"><a xlink:title=" ">
<polygon fill="#e0e0e0" stroke="#999999" points="793.5,-19 743.5,-19 743.5,0 793.5,0 793.5,-19"/>
<text text-anchor="middle" x="768.5" y="-7" font-family="Helvetica,sans-Serif" font-size="10.00">atomic</text>
</a>
</g>
</g>
<!-- Node17&#45;&gt;Node18 -->
<g id="edge35_Node000017_Node000018" class="edge">
<title>Node17&#45;&gt;Node18</title>
<g id="a_edge35_Node000017_Node000018"><a xlink:title=" ">
<path fill="none" stroke="#63b8ff" d="M619.1,-54.98C650.27,-45.7 700.16,-30.85 733.61,-20.89"/>
<polygon fill="#63b8ff" stroke="#63b8ff" points="734.84,-24.17 743.42,-17.97 732.84,-17.47 734.84,-24.17"/>
</a>
</g>
</g>
</g>
</svg>
