<?xml version="1.0" encoding="UTF-8" standalone="no"?>
<!DOCTYPE svg PUBLIC "-//W3C//DTD SVG 1.1//EN"
 "http://www.w3.org/Graphics/SVG/1.1/DTD/svg11.dtd">
<!-- Generated by graphviz version 14.0.2 (20251019.1705)
 -->
<!-- Title: BoardManager::renderToolbar Pages: 1 -->
<!--zoomable 154 -->

<svg id="main" version="1.1" xmlns="http://www.w3.org/2000/svg" xmlns:xlink="http://www.w3.org/1999/xlink" xml:space="preserve" onload="init(evt)">
<style type="text/css"><![CDATA[
.node, .edge {opacity: 0.7;}
.node.selected, .edge.selected {opacity: 1;}
.edge:hover path { stroke: red; }
.edge:hover polygon { stroke: red; fill: red; }
]]></style>

<defs>
  <circle id="rim" cx="0" cy="0" r="7"/>
  <circle id="rim2" cx="0" cy="0" r="3.5"/>
  <g id="zoomPlus">
    <use xlink:href="#rim" fill="#404040"><set attributeName="fill" to="#808080" begin="zoomplus.mouseover" end="zoomplus.mouseout"/></use>
    <path d="M-4,0h8M0,-4v8" fill="none" stroke="white" stroke-width="1.5" pointer-events="none"/>
  </g>
  <g id="zoomMin">
    <use xlink:href="#rim" fill="#404040"><set attributeName="fill" to="#808080" begin="zoomminus.mouseover" end="zoomminus.mouseout"/></use>
    <path d="M-4,0h8" fill="none" stroke="white" stroke-width="1.5" pointer-events="none"/>
  </g>
  <g id="arrowUp" transform="translate(30 24)">
    <use xlink:href="#rim"/>
    <path pointer-events="none" fill="none" stroke="white" stroke-width="1.5" d="M0,-3.0v7 M-2.5,-0.5L0,-3.0L2.5,-0.5"/>
  </g>
  <g id="arrowRight" transform="rotate(90) translate(36 -43)">
    <use xlink:href="#rim"/>
    <path pointer-events="none" fill="none" stroke="white" stroke-width="1.5" d="M0,-3.0v7 M-2.5,-0.5L0,-3.0L2.5,-0.5"/>
  </g>
  <g id="arrowDown" transform="rotate(180) translate(-30 -48)">
    <use xlink:href="#rim"/>
    <path pointer-events="none" fill="none" stroke="white" stroke-width="1.5" d="M0,-3.0v7 M-2.5,-0.5L0,-3.0L2.5,-0.5"/>
  </g>
  <g id="arrowLeft" transform="rotate(270) translate(-36 17)">
    <use xlink:href="#rim"/>
    <path pointer-events="none" fill="none" stroke="white" stroke-width="1.5" d="M0,-3.0v7 M-2.5,-0.5L0,-3.0L2.5,-0.5"/>
  </g>
  <g id="resetDef">
    <use xlink:href="#rim2" fill="#404040"><set attributeName="fill" to="#808080" begin="reset.mouseover" end="reset.mouseout"/></use>
  </g>
</defs>
<script type="application/ecmascript">
var viewWidth = 672;
var viewHeight = 154;
var sectionId = 'dynsection-24';
</script>
<script type="application/ecmascript" xlink:href="../../svg.min.js"/>
<svg id="graph" class="graph">
<g id="viewport">
<title>BoardManager::renderToolbar</title>
<!-- Node1 -->
<g id="Node000001" class="node">
<title>Node1</title>
<g id="a_Node000001"><a xlink:title=" ">
<polygon fill="#999999" stroke="#666666" points="143.5,-100 0,-100 0,-80 143.5,-80 143.5,-100"/>
<text xml:space="preserve" text-anchor="middle" x="71.75" y="-86.5" font-family="Helvetica,sans-Serif" font-size="10.00">BoardManager::renderToolbar</text>
</a>
</g>
</g>
<!-- Node2 -->
<g id="Node000002" class="node">
<title>Node2</title>
<g id="a_Node000002"><a xlink:href="../../db/d4e/namespace_ui_typing_guard.html#ae821948ccc636af7863b13c235bb8fa2" target="_top" xlink:title=" ">
<polygon fill="white" stroke="#666666" points="314.38,-144 191.12,-144 191.12,-124 314.38,-124 314.38,-144"/>
<text xml:space="preserve" text-anchor="middle" x="252.75" y="-130.5" font-family="Helvetica,sans-Serif" font-size="10.00">UiTypingGuard::IsTyping</text>
</a>
</g>
</g>
<!-- Node1&#45;&gt;Node2 -->
<g id="edge1_Node000001_Node000002" class="edge">
<title>Node1&#45;&gt;Node2</title>
<g id="a_edge1_Node000001_Node000002"><a xlink:title=" ">
<path fill="none" stroke="#63b8ff" d="M115.17,-100.43C140.05,-106.54 171.71,-114.32 198.28,-120.86"/>
<polygon fill="#63b8ff" stroke="#63b8ff" points="197.31,-124.22 207.85,-123.21 198.98,-117.42 197.31,-124.22"/>
</a>
</g>
</g>
<!-- Node3 -->
<g id="Node000003" class="node">
<title>Node3</title>
<g id="a_Node000003"><a xlink:href="../../d2/dbf/class_board_manager.html#aa78dbda1a719e20ebd433c876451bf59" target="_top" xlink:title=" ">
<polygon fill="white" stroke="#666666" points="326,-106 179.5,-106 179.5,-74 326,-74 326,-106"/>
<text xml:space="preserve" text-anchor="start" x="187.5" y="-92.5" font-family="Helvetica,sans-Serif" font-size="10.00">BoardManager::renderCamera</text>
<text xml:space="preserve" text-anchor="middle" x="252.75" y="-80.5" font-family="Helvetica,sans-Serif" font-size="10.00">Window</text>
</a>
</g>
</g>
<!-- Node1&#45;&gt;Node3 -->
<g id="edge2_Node000001_Node000003" class="edge">
<title>Node1&#45;&gt;Node3</title>
<g id="a_edge2_Node000001_Node000003"><a xlink:title=" ">
<path fill="none" stroke="#63b8ff" d="M143.75,-90C151.65,-90 159.74,-90 167.78,-90"/>
<polygon fill="#63b8ff" stroke="#63b8ff" points="167.56,-93.5 177.56,-90 167.56,-86.5 167.56,-93.5"/>
</a>
</g>
</g>
<!-- Node8 -->
<g id="Node000008" class="node">
<title>Node8</title>
<g id="a_Node000008"><a xlink:href="../../d2/dbf/class_board_manager.html#aa3991452f739c572a483f72672382fa9" target="_top" xlink:title=" ">
<polygon fill="white" stroke="#666666" points="317.75,-48 187.75,-48 187.75,-16 317.75,-16 317.75,-48"/>
<text xml:space="preserve" text-anchor="start" x="195.75" y="-34.5" font-family="Helvetica,sans-Serif" font-size="10.00">BoardManager::renderGrid</text>
<text xml:space="preserve" text-anchor="middle" x="252.75" y="-22.5" font-family="Helvetica,sans-Serif" font-size="10.00">Window</text>
</a>
</g>
</g>
<!-- Node1&#45;&gt;Node8 -->
<g id="edge8_Node000001_Node000008" class="edge">
<title>Node1&#45;&gt;Node8</title>
<g id="a_edge8_Node000001_Node000008"><a xlink:title=" ">
<path fill="none" stroke="#63b8ff" d="M104.75,-79.63C128.47,-71.95 161.53,-61.23 190.3,-51.91"/>
<polygon fill="#63b8ff" stroke="#63b8ff" points="191.21,-55.3 199.64,-48.88 189.05,-48.64 191.21,-55.3"/>
</a>
</g>
</g>
<!-- Node4 -->
<g id="Node000004" class="node">
<title>Node4</title>
<g id="a_Node000004"><a xlink:href="../../da/dbb/class_camera.html#a811613828473f845ff5ab6b38a3492a9" target="_top" xlink:title=" ">
<polygon fill="white" stroke="#666666" points="489.75,-146 395,-146 395,-126 489.75,-126 489.75,-146"/>
<text xml:space="preserve" text-anchor="middle" x="442.38" y="-132.5" font-family="Helvetica,sans-Serif" font-size="10.00">Camera::getZoom</text>
</a>
</g>
</g>
<!-- Node3&#45;&gt;Node4 -->
<g id="edge3_Node000003_Node000004" class="edge">
<title>Node3&#45;&gt;Node4</title>
<g id="a_edge3_Node000003_Node000004"><a xlink:title=" ">
<path fill="none" stroke="#63b8ff" d="M319.27,-106.45C333.36,-109.96 348.17,-113.62 362,-117 369.85,-118.92 378.15,-120.93 386.3,-122.89"/>
<polygon fill="#63b8ff" stroke="#63b8ff" points="385.26,-126.24 395.8,-125.17 386.89,-119.43 385.26,-126.24"/>
</a>
</g>
</g>
<!-- Node5 -->
<g id="Node000005" class="node">
<title>Node5</title>
<g id="a_Node000005"><a xlink:href="../../d2/dbf/class_board_manager.html#aa8cc85933ca8f36804277702fa568079" target="_top" xlink:title=" ">
<polygon fill="white" stroke="#666666" points="513,-108 371.75,-108 371.75,-88 513,-88 513,-108"/>
<text xml:space="preserve" text-anchor="middle" x="442.38" y="-94.5" font-family="Helvetica,sans-Serif" font-size="10.00">BoardManager::resetCamera</text>
</a>
</g>
</g>
<!-- Node3&#45;&gt;Node5 -->
<g id="edge4_Node000003_Node000005" class="edge">
<title>Node3&#45;&gt;Node5</title>
<g id="a_edge4_Node000003_Node000005"><a xlink:title=" ">
<path fill="none" stroke="#63b8ff" d="M326.29,-93.09C337.43,-93.57 348.99,-94.06 360.29,-94.54"/>
<polygon fill="#63b8ff" stroke="#63b8ff" points="359.84,-98.03 369.98,-94.96 360.14,-91.03 359.84,-98.03"/>
</a>
</g>
</g>
<!-- Node7 -->
<g id="Node000007" class="node">
<title>Node7</title>
<g id="a_Node000007"><a xlink:href="../../da/dbb/class_camera.html#a2c2387705de7f2189756fe55b4e4ca2c" target="_top" xlink:title=" ">
<polygon fill="white" stroke="#666666" points="658.75,-70 564,-70 564,-50 658.75,-50 658.75,-70"/>
<text xml:space="preserve" text-anchor="middle" x="611.38" y="-56.5" font-family="Helvetica,sans-Serif" font-size="10.00">Camera::setZoom</text>
</a>
</g>
</g>
<!-- Node3&#45;&gt;Node7 -->
<g id="edge7_Node000003_Node000007" class="edge">
<title>Node3&#45;&gt;Node7</title>
<g id="a_edge7_Node000003_Node000007"><a xlink:title=" ">
<path fill="none" stroke="#63b8ff" d="M326.22,-82.38C338.17,-81.2 350.43,-80.03 362,-79 427.14,-73.2 501.99,-67.62 552.35,-64.03"/>
<polygon fill="#63b8ff" stroke="#63b8ff" points="552.42,-67.53 562.14,-63.33 551.92,-60.55 552.42,-67.53"/>
</a>
</g>
</g>
<!-- Node6 -->
<g id="Node000006" class="node">
<title>Node6</title>
<g id="a_Node000006"><a xlink:href="../../da/dbb/class_camera.html#a68011392c392f16827b18793f5d8272a" target="_top" xlink:title=" ">
<polygon fill="white" stroke="#666666" points="664,-108 558.75,-108 558.75,-88 664,-88 664,-108"/>
<text xml:space="preserve" text-anchor="middle" x="611.38" y="-94.5" font-family="Helvetica,sans-Serif" font-size="10.00">Camera::setPosition</text>
</a>
</g>
</g>
<!-- Node5&#45;&gt;Node6 -->
<g id="edge5_Node000005_Node000006" class="edge">
<title>Node5&#45;&gt;Node6</title>
<g id="a_edge5_Node000005_Node000006"><a xlink:title=" ">
<path fill="none" stroke="#63b8ff" d="M513.23,-98C524.44,-98 535.99,-98 547.04,-98"/>
<polygon fill="#63b8ff" stroke="#63b8ff" points="546.82,-101.5 556.82,-98 546.82,-94.5 546.82,-101.5"/>
</a>
</g>
</g>
<!-- Node5&#45;&gt;Node7 -->
<g id="edge6_Node000005_Node000007" class="edge">
<title>Node5&#45;&gt;Node7</title>
<g id="a_edge6_Node000005_Node000007"><a xlink:title=" ">
<path fill="none" stroke="#63b8ff" d="M489.45,-87.52C509.26,-83.01 532.6,-77.7 553.47,-72.95"/>
<polygon fill="#63b8ff" stroke="#63b8ff" points="554,-76.42 562.97,-70.79 552.45,-69.59 554,-76.42"/>
</a>
</g>
</g>
<!-- Node9 -->
<g id="Node000009" class="node">
<title>Node9</title>
<g id="a_Node000009"><a xlink:href="../../d2/dbf/class_board_manager.html#ac5a6f3a919fb3fdb4fef2511117069aa" target="_top" xlink:title=" ">
<polygon fill="white" stroke="#666666" points="522.75,-32 362,-32 362,0 522.75,0 522.75,-32"/>
<text xml:space="preserve" text-anchor="start" x="370" y="-18.5" font-family="Helvetica,sans-Serif" font-size="10.00">BoardManager::resnapAllMarkers</text>
<text xml:space="preserve" text-anchor="middle" x="442.38" y="-6.5" font-family="Helvetica,sans-Serif" font-size="10.00">ToNearest</text>
</a>
</g>
</g>
<!-- Node8&#45;&gt;Node9 -->
<g id="edge9_Node000008_Node000009" class="edge">
<title>Node8&#45;&gt;Node9</title>
<g id="a_edge9_Node000008_Node000009"><a xlink:title=" ">
<path fill="none" stroke="#63b8ff" d="M318.06,-26.52C328.45,-25.63 339.38,-24.7 350.26,-23.77"/>
<polygon fill="#63b8ff" stroke="#63b8ff" points="350.39,-27.27 360.05,-22.93 349.79,-20.3 350.39,-27.27"/>
</a>
</g>
</g>
</g>
</svg>

<g id="navigator" transform="translate(0 0)" fill="#404254">
  <rect fill="#f2f5e9" fill-opacity="0.5" stroke="#606060" stroke-width=".5" x="0" y="0" width="60" height="60"/>
  <use id="zoomplus" xlink:href="#zoomPlus" x="17" y="9" onmousedown="handleZoom(evt,'in')"/>
  <use id="zoomminus" xlink:href="#zoomMin" x="42" y="9" onmousedown="handleZoom(evt,'out')"/>
  <use id="reset" xlink:href="#resetDef" x="30" y="36" onmousedown="handleReset()"/>
   <use id="arrowup" xlink:href="#arrowUp" x="0" y="0" onmousedown="handlePan(0,-1)"/>
  <use id="arrowright" xlink:href="#arrowRight" x="0" y="0" onmousedown="handlePan(1,0)"/>
  <use id="arrowdown" xlink:href="#arrowDown" x="0" y="0" onmousedown="handlePan(0,1)"/>
  <use id="arrowleft" xlink:href="#arrowLeft" x="0" y="0" onmousedown="handlePan(-1,0)"/>
</g>
<svg viewBox="0 0 15 15" width="100%" height="30px" preserveAspectRatio="xMaxYMin meet">
 <g id="arrow_out" transform="scale(0.3 0.3)">
  <a xlink:href="class_board_manager_a2aad7a42521772a965571ce188decae8_cgraph_org.svg" target="_base">
   <rect id="button" ry="5" rx="5" y="6" x="6" height="38" width="38"
        fill="#f2f5e9" fill-opacity="0.5" stroke="#606060" stroke-width="1.0"/>
   <path id="arrow"
     d="M 11.500037,31.436501 C 11.940474,20.09759 22.043105,11.32322 32.158766,21.979434 L 37.068811,17.246167 C 37.068811,17.246167 37.088388,32 37.088388,32 L 22.160133,31.978069 C 22.160133,31.978069 26.997745,27.140456 26.997745,27.140456 C 18.528582,18.264221 13.291696,25.230495 11.500037,31.436501 z"
     style="fill:#404040;"/>
  </a>
 </g>
</svg>

<style type='text/css'>
<![CDATA[
[data-mouse-over-selected='false'] { opacity: 0.7; }
[data-mouse-over-selected='true']  { opacity: 1.0; }
]]>
</style>
<script type="application/ecmascript"><![CDATA[
document.addEventListener('DOMContentLoaded', (event) => {
  highlightEdges();
  highlightAdjacentNodes();
});
]]></script>
</svg>
