<?xml version="1.0" encoding="UTF-8" standalone="no"?>
<!DOCTYPE svg PUBLIC "-//W3C//DTD SVG 1.1//EN"
 "http://www.w3.org/Graphics/SVG/1.1/DTD/svg11.dtd">
<!-- Generated by graphviz version 14.0.2 (20251019.1705)
 -->
<!-- Title: BoardManager::saveActiveBoard Pages: 1 -->
<!--zoomable 289 -->

<svg id="main" version="1.1" xmlns="http://www.w3.org/2000/svg" xmlns:xlink="http://www.w3.org/1999/xlink" xml:space="preserve" onload="init(evt)">
<style type="text/css"><![CDATA[
.node, .edge {opacity: 0.7;}
.node.selected, .edge.selected {opacity: 1;}
.edge:hover path { stroke: red; }
.edge:hover polygon { stroke: red; fill: red; }
]]></style>

<defs>
  <circle id="rim" cx="0" cy="0" r="7"/>
  <circle id="rim2" cx="0" cy="0" r="3.5"/>
  <g id="zoomPlus">
    <use xlink:href="#rim" fill="#404040"><set attributeName="fill" to="#808080" begin="zoomplus.mouseover" end="zoomplus.mouseout"/></use>
    <path d="M-4,0h8M0,-4v8" fill="none" stroke="white" stroke-width="1.5" pointer-events="none"/>
  </g>
  <g id="zoomMin">
    <use xlink:href="#rim" fill="#404040"><set attributeName="fill" to="#808080" begin="zoomminus.mouseover" end="zoomminus.mouseout"/></use>
    <path d="M-4,0h8" fill="none" stroke="white" stroke-width="1.5" pointer-events="none"/>
  </g>
  <g id="arrowUp" transform="translate(30 24)">
    <use xlink:href="#rim"/>
    <path pointer-events="none" fill="none" stroke="white" stroke-width="1.5" d="M0,-3.0v7 M-2.5,-0.5L0,-3.0L2.5,-0.5"/>
  </g>
  <g id="arrowRight" transform="rotate(90) translate(36 -43)">
    <use xlink:href="#rim"/>
    <path pointer-events="none" fill="none" stroke="white" stroke-width="1.5" d="M0,-3.0v7 M-2.5,-0.5L0,-3.0L2.5,-0.5"/>
  </g>
  <g id="arrowDown" transform="rotate(180) translate(-30 -48)">
    <use xlink:href="#rim"/>
    <path pointer-events="none" fill="none" stroke="white" stroke-width="1.5" d="M0,-3.0v7 M-2.5,-0.5L0,-3.0L2.5,-0.5"/>
  </g>
  <g id="arrowLeft" transform="rotate(270) translate(-36 17)">
    <use xlink:href="#rim"/>
    <path pointer-events="none" fill="none" stroke="white" stroke-width="1.5" d="M0,-3.0v7 M-2.5,-0.5L0,-3.0L2.5,-0.5"/>
  </g>
  <g id="resetDef">
    <use xlink:href="#rim2" fill="#404040"><set attributeName="fill" to="#808080" begin="reset.mouseover" end="reset.mouseout"/></use>
  </g>
</defs>
<script type="application/ecmascript">
var viewWidth = 788;
var viewHeight = 289;
var sectionId = 'dynsection-28';
</script>
<script type="application/ecmascript" xlink:href="../../svg.min.js"/>
<svg id="graph" class="graph">
<g id="viewport">
<title>BoardManager::saveActiveBoard</title>
<!-- Node1 -->
<g id="Node000001" class="node">
<title>Node1</title>
<g id="a_Node000001"><a xlink:title=" ">
<polygon fill="#999999" stroke="#666666" points="133.75,-140 0,-140 0,-108 133.75,-108 133.75,-140"/>
<text xml:space="preserve" text-anchor="start" x="8" y="-126.5" font-family="Helvetica,sans-Serif" font-size="10.00">BoardManager::saveActive</text>
<text xml:space="preserve" text-anchor="middle" x="66.88" y="-114.5" font-family="Helvetica,sans-Serif" font-size="10.00">Board</text>
</a>
</g>
</g>
<!-- Node2 -->
<g id="Node000002" class="node">
<title>Node2</title>
<g id="a_Node000002"><a xlink:href="../../d0/dc2/class_serializer.html#a33c1046417ab5077d907baac823e7194" target="_top" xlink:title=" ">
<polygon fill="white" stroke="#666666" points="293.75,-140 169.75,-140 169.75,-108 293.75,-108 293.75,-140"/>
<text xml:space="preserve" text-anchor="start" x="177.75" y="-126.5" font-family="Helvetica,sans-Serif" font-size="10.00">Serializer::serializeBoard</text>
<text xml:space="preserve" text-anchor="middle" x="231.75" y="-114.5" font-family="Helvetica,sans-Serif" font-size="10.00">Entity</text>
</a>
</g>
</g>
<!-- Node1&#45;&gt;Node2 -->
<g id="edge1_Node000001_Node000002" class="edge">
<title>Node1&#45;&gt;Node2</title>
<g id="a_edge1_Node000001_Node000002"><a xlink:title=" ">
<path fill="none" stroke="#63b8ff" d="M134.12,-124C141.93,-124 149.94,-124 157.83,-124"/>
<polygon fill="#63b8ff" stroke="#63b8ff" points="157.78,-127.5 167.78,-124 157.78,-120.5 157.78,-127.5"/>
</a>
</g>
</g>
<!-- Node3 -->
<g id="Node000003" class="node">
<title>Node3</title>
<g id="a_Node000003"><a xlink:href="../../d0/dc2/class_serializer.html#a9555132c02190d9a832a360fb236e954" target="_top" xlink:title=" ">
<polygon fill="white" stroke="#666666" points="458.62,-241 334.62,-241 334.62,-221 458.62,-221 458.62,-241"/>
<text xml:space="preserve" text-anchor="middle" x="396.62" y="-227.5" font-family="Helvetica,sans-Serif" font-size="10.00">Serializer::serializeBoard</text>
</a>
</g>
</g>
<!-- Node2&#45;&gt;Node3 -->
<g id="edge2_Node000002_Node000003" class="edge">
<title>Node2&#45;&gt;Node3</title>
<g id="a_edge2_Node000002_Node000003"><a xlink:title=" ">
<path fill="none" stroke="#63b8ff" d="M248.59,-140.39C266.79,-158.46 298.21,-187.42 329.75,-206 336.34,-209.88 343.63,-213.35 350.9,-216.39"/>
<polygon fill="#63b8ff" stroke="#63b8ff" points="349.44,-219.58 360.03,-219.97 352,-213.06 349.44,-219.58"/>
</a>
</g>
</g>
<!-- Node5 -->
<g id="Node000005" class="node">
<title>Node5</title>
<g id="a_Node000005"><a xlink:href="../../d0/dc2/class_serializer.html#ac812cf485e5804fd6f22d34ae076f79f" target="_top" xlink:title=" ">
<polygon fill="white" stroke="#666666" points="774.5,-244 664.75,-244 664.75,-224 774.5,-224 774.5,-244"/>
<text xml:space="preserve" text-anchor="middle" x="719.62" y="-230.5" font-family="Helvetica,sans-Serif" font-size="10.00">Serializer::serializeInt</text>
</a>
</g>
</g>
<!-- Node2&#45;&gt;Node5 -->
<g id="edge10_Node000002_Node000005" class="edge">
<title>Node2&#45;&gt;Node5</title>
<g id="a_edge10_Node000002_Node000005"><a xlink:title=" ">
<path fill="none" stroke="#63b8ff" d="M239.42,-140.11C252.16,-168.44 282.9,-226.42 329.75,-250 445,-307.99 604.68,-270.57 678.38,-247.81"/>
<polygon fill="#63b8ff" stroke="#63b8ff" points="679.12,-251.25 687.59,-244.89 677,-244.57 679.12,-251.25"/>
</a>
</g>
</g>
<!-- Node6 -->
<g id="Node000006" class="node">
<title>Node6</title>
<g id="a_Node000006"><a xlink:href="../../d0/dc2/class_serializer.html#ad0d31f7afee6b62ebc3c4f05bfef6bf2" target="_top" xlink:title=" ">
<polygon fill="white" stroke="#666666" points="454.88,-134 338.38,-134 338.38,-114 454.88,-114 454.88,-134"/>
<text xml:space="preserve" text-anchor="middle" x="396.62" y="-120.5" font-family="Helvetica,sans-Serif" font-size="10.00">Serializer::serializeGrid</text>
</a>
</g>
</g>
<!-- Node2&#45;&gt;Node6 -->
<g id="edge5_Node000002_Node000006" class="edge">
<title>Node2&#45;&gt;Node6</title>
<g id="a_edge5_Node000002_Node000006"><a xlink:title=" ">
<path fill="none" stroke="#63b8ff" d="M293.86,-124C304.58,-124 315.8,-124 326.72,-124"/>
<polygon fill="#63b8ff" stroke="#63b8ff" points="326.43,-127.5 336.43,-124 326.43,-120.5 326.43,-127.5"/>
</a>
</g>
</g>
<!-- Node10 -->
<g id="Node000010" class="node">
<title>Node10</title>
<g id="a_Node000010"><a xlink:href="../../d0/dc2/class_serializer.html#a05ba0aafb8b9ccd2050b1d61f9525ded" target="_top" xlink:title=" ">
<polygon fill="white" stroke="#666666" points="463.5,-96 329.75,-96 329.75,-76 463.5,-76 463.5,-96"/>
<text xml:space="preserve" text-anchor="middle" x="396.62" y="-82.5" font-family="Helvetica,sans-Serif" font-size="10.00">Serializer::serializePanning</text>
</a>
</g>
</g>
<!-- Node2&#45;&gt;Node10 -->
<g id="edge11_Node000002_Node000010" class="edge">
<title>Node2&#45;&gt;Node10</title>
<g id="a_edge11_Node000002_Node000010"><a xlink:title=" ">
<path fill="none" stroke="#63b8ff" d="M293.86,-109.74C308.9,-106.23 324.92,-102.5 339.69,-99.05"/>
<polygon fill="#63b8ff" stroke="#63b8ff" points="340.29,-102.5 349.24,-96.82 338.7,-95.69 340.29,-102.5"/>
</a>
</g>
</g>
<!-- Node11 -->
<g id="Node000011" class="node">
<title>Node11</title>
<g id="a_Node000011"><a xlink:href="../../d0/dc2/class_serializer.html#a6be006b0cf99a37c2146723395013b76" target="_top" xlink:title=" ">
<polygon fill="white" stroke="#666666" points="620.5,-54 502.5,-54 502.5,-34 620.5,-34 620.5,-54"/>
<text xml:space="preserve" text-anchor="middle" x="561.5" y="-40.5" font-family="Helvetica,sans-Serif" font-size="10.00">Serializer::serializeSize</text>
</a>
</g>
</g>
<!-- Node2&#45;&gt;Node11 -->
<g id="edge13_Node000002_Node000011" class="edge">
<title>Node2&#45;&gt;Node11</title>
<g id="a_edge13_Node000002_Node000011"><a xlink:title=" ">
<path fill="none" stroke="#63b8ff" d="M254.17,-107.72C273,-94.33 301.71,-76.15 329.75,-67 381.97,-49.97 444.07,-44.56 490.69,-43.22"/>
<polygon fill="#63b8ff" stroke="#63b8ff" points="490.76,-46.72 500.68,-42.99 490.6,-39.72 490.76,-46.72"/>
</a>
</g>
</g>
<!-- Node12 -->
<g id="Node000012" class="node">
<title>Node12</title>
<g id="a_Node000012"><a xlink:href="../../d0/dc2/class_serializer.html#a2e08effc9986b4b485dc4e40ffecb7fb" target="_top" xlink:title=" ">
<polygon fill="white" stroke="#666666" points="462,-197 331.25,-197 331.25,-165 462,-165 462,-197"/>
<text xml:space="preserve" text-anchor="start" x="339.25" y="-183.5" font-family="Helvetica,sans-Serif" font-size="10.00">Serializer::serializeTexture</text>
<text xml:space="preserve" text-anchor="middle" x="396.62" y="-171.5" font-family="Helvetica,sans-Serif" font-size="10.00">Component</text>
</a>
</g>
</g>
<!-- Node2&#45;&gt;Node12 -->
<g id="edge15_Node000002_Node000012" class="edge">
<title>Node2&#45;&gt;Node12</title>
<g id="a_edge15_Node000002_Node000012"><a xlink:title=" ">
<path fill="none" stroke="#63b8ff" d="M279.86,-140.49C298.01,-146.84 318.94,-154.16 337.97,-160.82"/>
<polygon fill="#63b8ff" stroke="#63b8ff" points="336.6,-164.05 347.19,-164.05 338.91,-157.44 336.6,-164.05"/>
</a>
</g>
</g>
<!-- Node13 -->
<g id="Node000013" class="node">
<title>Node13</title>
<g id="a_Node000013"><a xlink:href="../../d0/dc2/class_serializer.html#a60889622ee4e36ea28a284e99bbdf4e5" target="_top" xlink:title=" ">
<polygon fill="white" stroke="#666666" points="460.5,-20 332.75,-20 332.75,0 460.5,0 460.5,-20"/>
<text xml:space="preserve" text-anchor="middle" x="396.62" y="-6.5" font-family="Helvetica,sans-Serif" font-size="10.00">Serializer::serializeUInt64</text>
</a>
</g>
</g>
<!-- Node2&#45;&gt;Node13 -->
<g id="edge19_Node000002_Node000013" class="edge">
<title>Node2&#45;&gt;Node13</title>
<g id="a_edge19_Node000002_Node000013"><a xlink:title=" ">
<path fill="none" stroke="#63b8ff" d="M246.64,-107.6C264.21,-87.76 296.23,-54.49 329.75,-34 335.47,-30.5 341.78,-27.4 348.16,-24.68"/>
<polygon fill="#63b8ff" stroke="#63b8ff" points="349.44,-27.94 357.46,-21.03 346.88,-21.43 349.44,-27.94"/>
</a>
</g>
</g>
<!-- Node4 -->
<g id="Node000004" class="node">
<title>Node4</title>
<g id="a_Node000004"><a xlink:href="../../d0/dc2/class_serializer.html#a8a72c08ebb91348dc2a7ef6557c44f6c" target="_top" xlink:title=" ">
<polygon fill="white" stroke="#666666" points="623.5,-244 499.5,-244 499.5,-224 623.5,-224 623.5,-244"/>
<text xml:space="preserve" text-anchor="middle" x="561.5" y="-230.5" font-family="Helvetica,sans-Serif" font-size="10.00">Serializer::serializeString</text>
</a>
</g>
</g>
<!-- Node3&#45;&gt;Node4 -->
<g id="edge3_Node000003_Node000004" class="edge">
<title>Node3&#45;&gt;Node4</title>
<g id="a_edge3_Node000003_Node000004"><a xlink:title=" ">
<path fill="none" stroke="#63b8ff" d="M458.74,-232.13C468.21,-232.3 478.07,-232.48 487.77,-232.66"/>
<polygon fill="#63b8ff" stroke="#63b8ff" points="487.47,-236.16 497.53,-232.84 487.6,-229.16 487.47,-236.16"/>
</a>
</g>
</g>
<!-- Node4&#45;&gt;Node5 -->
<g id="edge4_Node000004_Node000005" class="edge">
<title>Node4&#45;&gt;Node5</title>
<g id="a_edge4_Node000004_Node000005"><a xlink:title=" ">
<path fill="none" stroke="#63b8ff" d="M623.76,-234C633.4,-234 643.4,-234 653.13,-234"/>
<polygon fill="#63b8ff" stroke="#63b8ff" points="652.88,-237.5 662.88,-234 652.88,-230.5 652.88,-237.5"/>
</a>
</g>
</g>
<!-- Node7 -->
<g id="Node000007" class="node">
<title>Node7</title>
<g id="a_Node000007"><a xlink:href="../../d0/dc2/class_serializer.html#a2a407c3a379b680296ee190ed625f05f" target="_top" xlink:title=" ">
<polygon fill="white" stroke="#666666" points="620.5,-92 502.5,-92 502.5,-72 620.5,-72 620.5,-92"/>
<text xml:space="preserve" text-anchor="middle" x="561.5" y="-78.5" font-family="Helvetica,sans-Serif" font-size="10.00">Serializer::serializeBool</text>
</a>
</g>
</g>
<!-- Node6&#45;&gt;Node7 -->
<g id="edge6_Node000006_Node000007" class="edge">
<title>Node6&#45;&gt;Node7</title>
<g id="a_edge6_Node000006_Node000007"><a xlink:title=" ">
<path fill="none" stroke="#63b8ff" d="M438.31,-113.51C459.76,-107.98 486.31,-101.13 509.17,-95.24"/>
<polygon fill="#63b8ff" stroke="#63b8ff" points="509.78,-98.69 518.59,-92.81 508.03,-91.91 509.78,-98.69"/>
</a>
</g>
</g>
<!-- Node8 -->
<g id="Node000008" class="node">
<title>Node8</title>
<g id="a_Node000008"><a xlink:href="../../d0/dc2/class_serializer.html#a92ffe65857abd6eea6a393056a9bb533" target="_top" xlink:title=" ">
<polygon fill="white" stroke="#666666" points="779.75,-130 659.5,-130 659.5,-110 779.75,-110 779.75,-130"/>
<text xml:space="preserve" text-anchor="middle" x="719.62" y="-116.5" font-family="Helvetica,sans-Serif" font-size="10.00">Serializer::serializeFloat</text>
</a>
</g>
</g>
<!-- Node6&#45;&gt;Node8 -->
<g id="edge7_Node000006_Node000008" class="edge">
<title>Node6&#45;&gt;Node8</title>
<g id="a_edge7_Node000006_Node000008"><a xlink:title=" ">
<path fill="none" stroke="#63b8ff" d="M455.01,-123.28C508.94,-122.61 589.81,-121.61 647.75,-120.88"/>
<polygon fill="#63b8ff" stroke="#63b8ff" points="647.55,-124.39 657.5,-120.76 647.46,-117.39 647.55,-124.39"/>
</a>
</g>
</g>
<!-- Node9 -->
<g id="Node000009" class="node">
<title>Node9</title>
<g id="a_Node000009"><a xlink:href="../../d0/dc2/class_serializer.html#a52943821c1686ae47c30586ec7f9bc7e" target="_top" xlink:title=" ">
<polygon fill="white" stroke="#666666" points="621.62,-168 501.38,-168 501.38,-148 621.62,-148 621.62,-168"/>
<text xml:space="preserve" text-anchor="middle" x="561.5" y="-154.5" font-family="Helvetica,sans-Serif" font-size="10.00">Serializer::serializeVec2</text>
</a>
</g>
</g>
<!-- Node6&#45;&gt;Node9 -->
<g id="edge8_Node000006_Node000009" class="edge">
<title>Node6&#45;&gt;Node9</title>
<g id="a_edge8_Node000006_Node000009"><a xlink:title=" ">
<path fill="none" stroke="#63b8ff" d="M447.82,-134.48C464.15,-137.89 482.46,-141.71 499.49,-145.26"/>
<polygon fill="#63b8ff" stroke="#63b8ff" points="498.48,-148.63 508.99,-147.25 499.91,-141.78 498.48,-148.63"/>
</a>
</g>
</g>
<!-- Node9&#45;&gt;Node8 -->
<g id="edge9_Node000009_Node000008" class="edge">
<title>Node9&#45;&gt;Node8</title>
<g id="a_edge9_Node000009_Node000008"><a xlink:title=" ">
<path fill="none" stroke="#63b8ff" d="M605.58,-147.52C623.83,-143.07 645.31,-137.84 664.62,-133.15"/>
<polygon fill="#63b8ff" stroke="#63b8ff" points="665.33,-136.57 674.22,-130.81 663.68,-129.77 665.33,-136.57"/>
</a>
</g>
</g>
<!-- Node10&#45;&gt;Node7 -->
<g id="edge12_Node000010_Node000007" class="edge">
<title>Node10&#45;&gt;Node7</title>
<g id="a_edge12_Node000010_Node000007"><a xlink:title=" ">
<path fill="none" stroke="#63b8ff" d="M463.87,-84.37C472.79,-84.15 481.96,-83.93 490.93,-83.71"/>
<polygon fill="#63b8ff" stroke="#63b8ff" points="490.73,-87.21 500.65,-83.47 490.56,-80.22 490.73,-87.21"/>
</a>
</g>
</g>
<!-- Node11&#45;&gt;Node8 -->
<g id="edge14_Node000011_Node000008" class="edge">
<title>Node11&#45;&gt;Node8</title>
<g id="a_edge14_Node000011_Node000008"><a xlink:title=" ">
<path fill="none" stroke="#63b8ff" d="M601.09,-54.49C608.64,-56.97 616.41,-59.83 623.5,-63 648.71,-74.28 675.53,-90.82 694.24,-103.18"/>
<polygon fill="#63b8ff" stroke="#63b8ff" points="692.24,-106.04 702.49,-108.71 696.14,-100.23 692.24,-106.04"/>
</a>
</g>
</g>
<!-- Node12&#45;&gt;Node4 -->
<g id="edge17_Node000012_Node000004" class="edge">
<title>Node12&#45;&gt;Node4</title>
<g id="a_edge17_Node000012_Node000004"><a xlink:title=" ">
<path fill="none" stroke="#63b8ff" d="M448.27,-197.48C470.53,-204.72 496.4,-213.14 517.69,-220.07"/>
<polygon fill="#63b8ff" stroke="#63b8ff" points="516.33,-223.31 526.92,-223.07 518.49,-216.65 516.33,-223.31"/>
</a>
</g>
</g>
<!-- Node12&#45;&gt;Node5 -->
<g id="edge16_Node000012_Node000005" class="edge">
<title>Node12&#45;&gt;Node5</title>
<g id="a_edge16_Node000012_Node000005"><a xlink:title=" ">
<path fill="none" stroke="#63b8ff" d="M462.02,-189.86C507.28,-196.29 569.2,-205.5 623.5,-215 634.57,-216.94 646.34,-219.16 657.68,-221.38"/>
<polygon fill="#63b8ff" stroke="#63b8ff" points="656.87,-224.79 667.36,-223.3 658.23,-217.92 656.87,-224.79"/>
</a>
</g>
</g>
<!-- Node12&#45;&gt;Node9 -->
<g id="edge18_Node000012_Node000009" class="edge">
<title>Node12&#45;&gt;Node9</title>
<g id="a_edge18_Node000012_Node000009"><a xlink:title=" ">
<path fill="none" stroke="#63b8ff" d="M462.47,-171.84C471.39,-170.58 480.58,-169.29 489.6,-168.01"/>
<polygon fill="#63b8ff" stroke="#63b8ff" points="489.99,-171.49 499.4,-166.63 489.01,-164.56 489.99,-171.49"/>
</a>
</g>
</g>
</g>
</svg>

<g id="navigator" transform="translate(0 0)" fill="#404254">
  <rect fill="#f2f5e9" fill-opacity="0.5" stroke="#606060" stroke-width=".5" x="0" y="0" width="60" height="60"/>
  <use id="zoomplus" xlink:href="#zoomPlus" x="17" y="9" onmousedown="handleZoom(evt,'in')"/>
  <use id="zoomminus" xlink:href="#zoomMin" x="42" y="9" onmousedown="handleZoom(evt,'out')"/>
  <use id="reset" xlink:href="#resetDef" x="30" y="36" onmousedown="handleReset()"/>
   <use id="arrowup" xlink:href="#arrowUp" x="0" y="0" onmousedown="handlePan(0,-1)"/>
  <use id="arrowright" xlink:href="#arrowRight" x="0" y="0" onmousedown="handlePan(1,0)"/>
  <use id="arrowdown" xlink:href="#arrowDown" x="0" y="0" onmousedown="handlePan(0,1)"/>
  <use id="arrowleft" xlink:href="#arrowLeft" x="0" y="0" onmousedown="handlePan(-1,0)"/>
</g>
<svg viewBox="0 0 15 15" width="100%" height="30px" preserveAspectRatio="xMaxYMin meet">
 <g id="arrow_out" transform="scale(0.3 0.3)">
  <a xlink:href="class_board_manager_a15c3689fe12cdc5f3d0589f9d92a678e_cgraph_org.svg" target="_base">
   <rect id="button" ry="5" rx="5" y="6" x="6" height="38" width="38"
        fill="#f2f5e9" fill-opacity="0.5" stroke="#606060" stroke-width="1.0"/>
   <path id="arrow"
     d="M 11.500037,31.436501 C 11.940474,20.09759 22.043105,11.32322 32.158766,21.979434 L 37.068811,17.246167 C 37.068811,17.246167 37.088388,32 37.088388,32 L 22.160133,31.978069 C 22.160133,31.978069 26.997745,27.140456 26.997745,27.140456 C 18.528582,18.264221 13.291696,25.230495 11.500037,31.436501 z"
     style="fill:#404040;"/>
  </a>
 </g>
</svg>

<style type='text/css'>
<![CDATA[
[data-mouse-over-selected='false'] { opacity: 0.7; }
[data-mouse-over-selected='true']  { opacity: 1.0; }
]]>
</style>
<script type="application/ecmascript"><![CDATA[
document.addEventListener('DOMContentLoaded', (event) => {
  highlightEdges();
  highlightAdjacentNodes();
});
]]></script>
</svg>
