<?xml version="1.0" encoding="UTF-8" standalone="no"?>
<!DOCTYPE svg PUBLIC "-//W3C//DTD SVG 1.1//EN"
 "http://www.w3.org/Graphics/SVG/1.1/DTD/svg11.dtd">
<!-- Generated by graphviz version 14.0.2 (20251019.1705)
 -->
<!-- Title: BoardManager::createMarker Pages: 1 -->
<svg width="348pt" height="78pt"
 viewBox="0.00 0.00 348.00 78.00" xmlns="http://www.w3.org/2000/svg" xmlns:xlink="http://www.w3.org/1999/xlink">
<g id="graph0" class="graph" transform="scale(1 1) rotate(0) translate(4 74)">
<title>BoardManager::createMarker</title>
<!-- Node1 -->
<g id="Node000001" class="node">
<title>Node1</title>
<g id="a_Node000001"><a xlink:title=" ">
<polygon fill="#999999" stroke="#666666" points="142,-42 0,-42 0,-22 142,-22 142,-42"/>
<text xml:space="preserve" text-anchor="middle" x="71" y="-28.5" font-family="Helvetica,sans-Serif" font-size="10.00">BoardManager::createMarker</text>
</a>
</g>
</g>
<!-- Node2 -->
<g id="Node000002" class="node">
<title>Node2</title>
<g id="a_Node000002"><a xlink:href="../../d2/dbf/class_board_manager.html#ac37b3b762a2a08b4a8ff1919e80321f5" target="_top" xlink:title=" ">
<polygon fill="white" stroke="#666666" points="335,-70 182.5,-70 182.5,-38 335,-38 335,-70"/>
<text xml:space="preserve" text-anchor="start" x="190.5" y="-56.5" font-family="Helvetica,sans-Serif" font-size="10.00">BoardManager::computeMarker</text>
<text xml:space="preserve" text-anchor="middle" x="258.75" y="-44.5" font-family="Helvetica,sans-Serif" font-size="10.00">DrawSize_ARFit</text>
</a>
</g>
</g>
<!-- Node1&#45;&gt;Node2 -->
<g id="edge1_Node000001_Node000002" class="edge">
<title>Node1&#45;&gt;Node2</title>
<g id="a_edge1_Node000001_Node000002"><a xlink:title=" ">
<path fill="none" stroke="#63b8ff" d="M142.49,-40.35C151.68,-41.44 161.19,-42.56 170.61,-43.68"/>
<polygon fill="#63b8ff" stroke="#63b8ff" points="170.2,-47.15 180.54,-44.86 171.02,-40.2 170.2,-47.15"/>
</a>
</g>
</g>
<!-- Node3 -->
<g id="Node000003" class="node">
<title>Node3</title>
<g id="a_Node000003"><a xlink:href="../../d2/dbf/class_board_manager.html#a2f084d03176076e9260e06df52e474fe" target="_top" xlink:title=" ">
<polygon fill="white" stroke="#666666" points="339.5,-20 178,-20 178,0 339.5,0 339.5,-20"/>
<text xml:space="preserve" text-anchor="middle" x="258.75" y="-6.5" font-family="Helvetica,sans-Serif" font-size="10.00">BoardManager::generateUniqueId</text>
</a>
</g>
</g>
<!-- Node1&#45;&gt;Node3 -->
<g id="edge2_Node000001_Node000003" class="edge">
<title>Node1&#45;&gt;Node3</title>
<g id="a_edge2_Node000001_Node000003"><a xlink:title=" ">
<path fill="none" stroke="#63b8ff" d="M142.49,-23.65C150.3,-22.73 158.34,-21.77 166.36,-20.82"/>
<polygon fill="#63b8ff" stroke="#63b8ff" points="166.65,-24.31 176.17,-19.66 165.82,-17.36 166.65,-24.31"/>
</a>
</g>
</g>
</g>
</svg>
