<?xml version="1.0" encoding="UTF-8" standalone="no"?>
<!DOCTYPE svg PUBLIC "-//W3C//DTD SVG 1.1//EN"
 "http://www.w3.org/Graphics/SVG/1.1/DTD/svg11.dtd">
<!-- Generated by graphviz version 14.0.2 (20251019.1705)
 -->
<!-- Title: BoardManager::startMouseDrag Pages: 1 -->
<svg width="532pt" height="185pt"
 viewBox="0.00 0.00 532.00 185.00" xmlns="http://www.w3.org/2000/svg" xmlns:xlink="http://www.w3.org/1999/xlink">
<g id="graph0" class="graph" transform="scale(1 1) rotate(0) translate(4 181)">
<title>BoardManager::startMouseDrag</title>
<!-- Node1 -->
<g id="Node000001" class="node">
<title>Node1</title>
<g id="a_Node000001"><a xlink:title=" ">
<polygon fill="#999999" stroke="#666666" points="154.75,-108 0,-108 0,-88 154.75,-88 154.75,-108"/>
<text xml:space="preserve" text-anchor="middle" x="77.38" y="-94.5" font-family="Helvetica,sans-Serif" font-size="10.00">BoardManager::startMouseDrag</text>
</a>
</g>
</g>
<!-- Node2 -->
<g id="Node000002" class="node">
<title>Node2</title>
<g id="a_Node000002"><a xlink:href="../../d2/dbf/class_board_manager.html#a747622080fc863f1f7d331292a927755" target="_top" xlink:title=" ">
<polygon fill="white" stroke="#666666" points="346.25,-177 191.5,-177 191.5,-157 346.25,-157 346.25,-177"/>
<text xml:space="preserve" text-anchor="middle" x="268.88" y="-163.5" font-family="Helvetica,sans-Serif" font-size="10.00">BoardManager::canMoveMarker</text>
</a>
</g>
</g>
<!-- Node1&#45;&gt;Node2 -->
<g id="edge1_Node000001_Node000002" class="edge">
<title>Node1&#45;&gt;Node2</title>
<g id="a_edge1_Node000001_Node000002"><a xlink:title=" ">
<path fill="none" stroke="#63b8ff" d="M98.65,-108.33C120.82,-119.32 157.62,-136.65 190.75,-148 196.54,-149.98 202.64,-151.85 208.77,-153.58"/>
<polygon fill="#63b8ff" stroke="#63b8ff" points="207.74,-156.93 218.31,-156.15 209.56,-150.17 207.74,-156.93"/>
</a>
</g>
</g>
<!-- Node3 -->
<g id="Node000003" class="node">
<title>Node3</title>
<g id="a_Node000003"><a xlink:href="../../d2/dbf/class_board_manager.html#a20798a9a5bc7361dca338067d15a80a3" target="_top" xlink:title=" ">
<polygon fill="white" stroke="#666666" points="335.75,-139 202,-139 202,-107 335.75,-107 335.75,-139"/>
<text xml:space="preserve" text-anchor="start" x="210" y="-125.5" font-family="Helvetica,sans-Serif" font-size="10.00">BoardManager::getEntityAt</text>
<text xml:space="preserve" text-anchor="middle" x="268.88" y="-113.5" font-family="Helvetica,sans-Serif" font-size="10.00">MousePosition</text>
</a>
</g>
</g>
<!-- Node1&#45;&gt;Node3 -->
<g id="edge2_Node000001_Node000003" class="edge">
<title>Node1&#45;&gt;Node3</title>
<g id="a_edge2_Node000001_Node000003"><a xlink:title=" ">
<path fill="none" stroke="#63b8ff" d="M155.18,-108.13C166.84,-109.67 178.88,-111.26 190.55,-112.8"/>
<polygon fill="#63b8ff" stroke="#63b8ff" points="189.74,-116.22 200.11,-114.06 190.65,-109.28 189.74,-116.22"/>
</a>
</g>
</g>
<!-- Node4 -->
<g id="Node000004" class="node">
<title>Node4</title>
<g id="a_Node000004"><a xlink:href="../../d2/dbf/class_board_manager.html#add64ed84dd91fc1eae4bec1bb0a36b8e" target="_top" xlink:title=" ">
<polygon fill="white" stroke="#666666" points="334.62,-89 203.12,-89 203.12,-57 334.62,-57 334.62,-89"/>
<text xml:space="preserve" text-anchor="start" x="211.12" y="-75.5" font-family="Helvetica,sans-Serif" font-size="10.00">BoardManager::isDragging</text>
<text xml:space="preserve" text-anchor="middle" x="268.88" y="-63.5" font-family="Helvetica,sans-Serif" font-size="10.00">Marker</text>
</a>
</g>
</g>
<!-- Node1&#45;&gt;Node4 -->
<g id="edge3_Node000001_Node000004" class="edge">
<title>Node1&#45;&gt;Node4</title>
<g id="a_edge3_Node000001_Node000004"><a xlink:title=" ">
<path fill="none" stroke="#63b8ff" d="M155.18,-87.87C167.15,-86.29 179.52,-84.66 191.49,-83.08"/>
<polygon fill="#63b8ff" stroke="#63b8ff" points="191.85,-86.56 201.31,-81.78 190.93,-79.62 191.85,-86.56"/>
</a>
</g>
</g>
<!-- Node5 -->
<g id="Node000005" class="node">
<title>Node5</title>
<g id="a_Node000005"><a xlink:href="../../da/dbb/class_camera.html#aae36d44ca5d8fa2712278d2a1d1d9fd9" target="_top" xlink:title=" ">
<polygon fill="white" stroke="#666666" points="347,-39 190.75,-39 190.75,-19 347,-19 347,-39"/>
<text xml:space="preserve" text-anchor="middle" x="268.88" y="-25.5" font-family="Helvetica,sans-Serif" font-size="10.00">Camera::worldToScreenPosition</text>
</a>
</g>
</g>
<!-- Node1&#45;&gt;Node5 -->
<g id="edge4_Node000001_Node000005" class="edge">
<title>Node1&#45;&gt;Node5</title>
<g id="a_edge4_Node000001_Node000005"><a xlink:title=" ">
<path fill="none" stroke="#63b8ff" d="M98.65,-87.67C120.82,-76.68 157.62,-59.35 190.75,-48 196.54,-46.02 202.64,-44.15 208.77,-42.42"/>
<polygon fill="#63b8ff" stroke="#63b8ff" points="209.56,-45.83 218.31,-39.85 207.74,-39.07 209.56,-45.83"/>
</a>
</g>
</g>
<!-- Node6 -->
<g id="Node000006" class="node">
<title>Node6</title>
<g id="a_Node000006"><a xlink:href="../../da/dbb/class_camera.html#a3bb21fdfb8bd8974c880a33741a549df" target="_top" xlink:title=" ">
<polygon fill="white" stroke="#666666" points="523.5,-58 383,-58 383,-38 523.5,-38 523.5,-58"/>
<text xml:space="preserve" text-anchor="middle" x="453.25" y="-44.5" font-family="Helvetica,sans-Serif" font-size="10.00">Camera::getProjectionMatrix</text>
</a>
</g>
</g>
<!-- Node5&#45;&gt;Node6 -->
<g id="edge5_Node000005_Node000006" class="edge">
<title>Node5&#45;&gt;Node6</title>
<g id="a_edge5_Node000005_Node000006"><a xlink:title=" ">
<path fill="none" stroke="#63b8ff" d="M347.48,-37.09C355.3,-37.9 363.25,-38.73 371.1,-39.55"/>
<polygon fill="#63b8ff" stroke="#63b8ff" points="370.69,-43.02 381,-40.58 371.42,-36.06 370.69,-43.02"/>
</a>
</g>
</g>
<!-- Node7 -->
<g id="Node000007" class="node">
<title>Node7</title>
<g id="a_Node000007"><a xlink:href="../../da/dbb/class_camera.html#a2f90e661a78172675ca06ea69667b531" target="_top" xlink:title=" ">
<polygon fill="white" stroke="#666666" points="512.62,-20 393.88,-20 393.88,0 512.62,0 512.62,-20"/>
<text xml:space="preserve" text-anchor="middle" x="453.25" y="-6.5" font-family="Helvetica,sans-Serif" font-size="10.00">Camera::getViewMatrix</text>
</a>
</g>
</g>
<!-- Node5&#45;&gt;Node7 -->
<g id="edge6_Node000005_Node000007" class="edge">
<title>Node5&#45;&gt;Node7</title>
<g id="a_edge6_Node000005_Node000007"><a xlink:title=" ">
<path fill="none" stroke="#63b8ff" d="M347.48,-20.91C359.04,-19.71 370.9,-18.47 382.29,-17.29"/>
<polygon fill="#63b8ff" stroke="#63b8ff" points="382.41,-20.79 392,-16.28 381.69,-13.83 382.41,-20.79"/>
</a>
</g>
</g>
</g>
</svg>
