<?xml version="1.0" encoding="UTF-8" standalone="no"?>
<!DOCTYPE svg PUBLIC "-//W3C//DTD SVG 1.1//EN"
 "http://www.w3.org/Graphics/SVG/1.1/DTD/svg11.dtd">
<!-- Generated by graphviz version 14.0.2 (20251019.1705)
 -->
<!-- Title: BoardManager::startMouseDrag Pages: 1 -->
<!--zoomable 185 -->

<svg id="main" version="1.1" xmlns="http://www.w3.org/2000/svg" xmlns:xlink="http://www.w3.org/1999/xlink" xml:space="preserve" onload="init(evt)">
<style type="text/css"><![CDATA[
.node, .edge {opacity: 0.7;}
.node.selected, .edge.selected {opacity: 1;}
.edge:hover path { stroke: red; }
.edge:hover polygon { stroke: red; fill: red; }
]]></style>

<defs>
  <circle id="rim" cx="0" cy="0" r="7"/>
  <circle id="rim2" cx="0" cy="0" r="3.5"/>
  <g id="zoomPlus">
    <use xlink:href="#rim" fill="#404040"><set attributeName="fill" to="#808080" begin="zoomplus.mouseover" end="zoomplus.mouseout"/></use>
    <path d="M-4,0h8M0,-4v8" fill="none" stroke="white" stroke-width="1.5" pointer-events="none"/>
  </g>
  <g id="zoomMin">
    <use xlink:href="#rim" fill="#404040"><set attributeName="fill" to="#808080" begin="zoomminus.mouseover" end="zoomminus.mouseout"/></use>
    <path d="M-4,0h8" fill="none" stroke="white" stroke-width="1.5" pointer-events="none"/>
  </g>
  <g id="arrowUp" transform="translate(30 24)">
    <use xlink:href="#rim"/>
    <path pointer-events="none" fill="none" stroke="white" stroke-width="1.5" d="M0,-3.0v7 M-2.5,-0.5L0,-3.0L2.5,-0.5"/>
  </g>
  <g id="arrowRight" transform="rotate(90) translate(36 -43)">
    <use xlink:href="#rim"/>
    <path pointer-events="none" fill="none" stroke="white" stroke-width="1.5" d="M0,-3.0v7 M-2.5,-0.5L0,-3.0L2.5,-0.5"/>
  </g>
  <g id="arrowDown" transform="rotate(180) translate(-30 -48)">
    <use xlink:href="#rim"/>
    <path pointer-events="none" fill="none" stroke="white" stroke-width="1.5" d="M0,-3.0v7 M-2.5,-0.5L0,-3.0L2.5,-0.5"/>
  </g>
  <g id="arrowLeft" transform="rotate(270) translate(-36 17)">
    <use xlink:href="#rim"/>
    <path pointer-events="none" fill="none" stroke="white" stroke-width="1.5" d="M0,-3.0v7 M-2.5,-0.5L0,-3.0L2.5,-0.5"/>
  </g>
  <g id="resetDef">
    <use xlink:href="#rim2" fill="#404040"><set attributeName="fill" to="#808080" begin="reset.mouseover" end="reset.mouseout"/></use>
  </g>
</defs>
<script type="application/ecmascript">
var viewWidth = 532;
var viewHeight = 185;
var sectionId = 'dynsection-31';
</script>
<script type="application/ecmascript" xlink:href="../../svg.min.js"/>
<svg id="graph" class="graph">
<g id="viewport">
<title>BoardManager::startMouseDrag</title>
<!-- Node1 -->
<g id="Node000001" class="node">
<title>Node1</title>
<g id="a_Node000001"><a xlink:title=" ">
<polygon fill="#999999" stroke="#666666" points="154.75,-108 0,-108 0,-88 154.75,-88 154.75,-108"/>
<text xml:space="preserve" text-anchor="middle" x="77.38" y="-94.5" font-family="Helvetica,sans-Serif" font-size="10.00">BoardManager::startMouseDrag</text>
</a>
</g>
</g>
<!-- Node2 -->
<g id="Node000002" class="node">
<title>Node2</title>
<g id="a_Node000002"><a xlink:href="../../d2/dbf/class_board_manager.html#a747622080fc863f1f7d331292a927755" target="_top" xlink:title=" ">
<polygon fill="white" stroke="#666666" points="346.25,-177 191.5,-177 191.5,-157 346.25,-157 346.25,-177"/>
<text xml:space="preserve" text-anchor="middle" x="268.88" y="-163.5" font-family="Helvetica,sans-Serif" font-size="10.00">BoardManager::canMoveMarker</text>
</a>
</g>
</g>
<!-- Node1&#45;&gt;Node2 -->
<g id="edge1_Node000001_Node000002" class="edge">
<title>Node1&#45;&gt;Node2</title>
<g id="a_edge1_Node000001_Node000002"><a xlink:title=" ">
<path fill="none" stroke="#63b8ff" d="M98.65,-108.33C120.82,-119.32 157.62,-136.65 190.75,-148 196.54,-149.98 202.64,-151.85 208.77,-153.58"/>
<polygon fill="#63b8ff" stroke="#63b8ff" points="207.74,-156.93 218.31,-156.15 209.56,-150.17 207.74,-156.93"/>
</a>
</g>
</g>
<!-- Node3 -->
<g id="Node000003" class="node">
<title>Node3</title>
<g id="a_Node000003"><a xlink:href="../../d2/dbf/class_board_manager.html#a20798a9a5bc7361dca338067d15a80a3" target="_top" xlink:title=" ">
<polygon fill="white" stroke="#666666" points="335.75,-139 202,-139 202,-107 335.75,-107 335.75,-139"/>
<text xml:space="preserve" text-anchor="start" x="210" y="-125.5" font-family="Helvetica,sans-Serif" font-size="10.00">BoardManager::getEntityAt</text>
<text xml:space="preserve" text-anchor="middle" x="268.88" y="-113.5" font-family="Helvetica,sans-Serif" font-size="10.00">MousePosition</text>
</a>
</g>
</g>
<!-- Node1&#45;&gt;Node3 -->
<g id="edge2_Node000001_Node000003" class="edge">
<title>Node1&#45;&gt;Node3</title>
<g id="a_edge2_Node000001_Node000003"><a xlink:title=" ">
<path fill="none" stroke="#63b8ff" d="M155.18,-108.13C166.84,-109.67 178.88,-111.26 190.55,-112.8"/>
<polygon fill="#63b8ff" stroke="#63b8ff" points="189.74,-116.22 200.11,-114.06 190.65,-109.28 189.74,-116.22"/>
</a>
</g>
</g>
<!-- Node4 -->
<g id="Node000004" class="node">
<title>Node4</title>
<g id="a_Node000004"><a xlink:href="../../d2/dbf/class_board_manager.html#add64ed84dd91fc1eae4bec1bb0a36b8e" target="_top" xlink:title=" ">
<polygon fill="white" stroke="#666666" points="334.62,-89 203.12,-89 203.12,-57 334.62,-57 334.62,-89"/>
<text xml:space="preserve" text-anchor="start" x="211.12" y="-75.5" font-family="Helvetica,sans-Serif" font-size="10.00">BoardManager::isDragging</text>
<text xml:space="preserve" text-anchor="middle" x="268.88" y="-63.5" font-family="Helvetica,sans-Serif" font-size="10.00">Marker</text>
</a>
</g>
</g>
<!-- Node1&#45;&gt;Node4 -->
<g id="edge3_Node000001_Node000004" class="edge">
<title>Node1&#45;&gt;Node4</title>
<g id="a_edge3_Node000001_Node000004"><a xlink:title=" ">
<path fill="none" stroke="#63b8ff" d="M155.18,-87.87C167.15,-86.29 179.52,-84.66 191.49,-83.08"/>
<polygon fill="#63b8ff" stroke="#63b8ff" points="191.85,-86.56 201.31,-81.78 190.93,-79.62 191.85,-86.56"/>
</a>
</g>
</g>
<!-- Node5 -->
<g id="Node000005" class="node">
<title>Node5</title>
<g id="a_Node000005"><a xlink:href="../../da/dbb/class_camera.html#aae36d44ca5d8fa2712278d2a1d1d9fd9" target="_top" xlink:title=" ">
<polygon fill="white" stroke="#666666" points="347,-39 190.75,-39 190.75,-19 347,-19 347,-39"/>
<text xml:space="preserve" text-anchor="middle" x="268.88" y="-25.5" font-family="Helvetica,sans-Serif" font-size="10.00">Camera::worldToScreenPosition</text>
</a>
</g>
</g>
<!-- Node1&#45;&gt;Node5 -->
<g id="edge4_Node000001_Node000005" class="edge">
<title>Node1&#45;&gt;Node5</title>
<g id="a_edge4_Node000001_Node000005"><a xlink:title=" ">
<path fill="none" stroke="#63b8ff" d="M98.65,-87.67C120.82,-76.68 157.62,-59.35 190.75,-48 196.54,-46.02 202.64,-44.15 208.77,-42.42"/>
<polygon fill="#63b8ff" stroke="#63b8ff" points="209.56,-45.83 218.31,-39.85 207.74,-39.07 209.56,-45.83"/>
</a>
</g>
</g>
<!-- Node6 -->
<g id="Node000006" class="node">
<title>Node6</title>
<g id="a_Node000006"><a xlink:href="../../da/dbb/class_camera.html#a3bb21fdfb8bd8974c880a33741a549df" target="_top" xlink:title=" ">
<polygon fill="white" stroke="#666666" points="523.5,-58 383,-58 383,-38 523.5,-38 523.5,-58"/>
<text xml:space="preserve" text-anchor="middle" x="453.25" y="-44.5" font-family="Helvetica,sans-Serif" font-size="10.00">Camera::getProjectionMatrix</text>
</a>
</g>
</g>
<!-- Node5&#45;&gt;Node6 -->
<g id="edge5_Node000005_Node000006" class="edge">
<title>Node5&#45;&gt;Node6</title>
<g id="a_edge5_Node000005_Node000006"><a xlink:title=" ">
<path fill="none" stroke="#63b8ff" d="M347.48,-37.09C355.3,-37.9 363.25,-38.73 371.1,-39.55"/>
<polygon fill="#63b8ff" stroke="#63b8ff" points="370.69,-43.02 381,-40.58 371.42,-36.06 370.69,-43.02"/>
</a>
</g>
</g>
<!-- Node7 -->
<g id="Node000007" class="node">
<title>Node7</title>
<g id="a_Node000007"><a xlink:href="../../da/dbb/class_camera.html#a2f90e661a78172675ca06ea69667b531" target="_top" xlink:title=" ">
<polygon fill="white" stroke="#666666" points="512.62,-20 393.88,-20 393.88,0 512.62,0 512.62,-20"/>
<text xml:space="preserve" text-anchor="middle" x="453.25" y="-6.5" font-family="Helvetica,sans-Serif" font-size="10.00">Camera::getViewMatrix</text>
</a>
</g>
</g>
<!-- Node5&#45;&gt;Node7 -->
<g id="edge6_Node000005_Node000007" class="edge">
<title>Node5&#45;&gt;Node7</title>
<g id="a_edge6_Node000005_Node000007"><a xlink:title=" ">
<path fill="none" stroke="#63b8ff" d="M347.48,-20.91C359.04,-19.71 370.9,-18.47 382.29,-17.29"/>
<polygon fill="#63b8ff" stroke="#63b8ff" points="382.41,-20.79 392,-16.28 381.69,-13.83 382.41,-20.79"/>
</a>
</g>
</g>
</g>
</svg>

<g id="navigator" transform="translate(0 0)" fill="#404254">
  <rect fill="#f2f5e9" fill-opacity="0.5" stroke="#606060" stroke-width=".5" x="0" y="0" width="60" height="60"/>
  <use id="zoomplus" xlink:href="#zoomPlus" x="17" y="9" onmousedown="handleZoom(evt,'in')"/>
  <use id="zoomminus" xlink:href="#zoomMin" x="42" y="9" onmousedown="handleZoom(evt,'out')"/>
  <use id="reset" xlink:href="#resetDef" x="30" y="36" onmousedown="handleReset()"/>
   <use id="arrowup" xlink:href="#arrowUp" x="0" y="0" onmousedown="handlePan(0,-1)"/>
  <use id="arrowright" xlink:href="#arrowRight" x="0" y="0" onmousedown="handlePan(1,0)"/>
  <use id="arrowdown" xlink:href="#arrowDown" x="0" y="0" onmousedown="handlePan(0,1)"/>
  <use id="arrowleft" xlink:href="#arrowLeft" x="0" y="0" onmousedown="handlePan(-1,0)"/>
</g>
<svg viewBox="0 0 15 15" width="100%" height="30px" preserveAspectRatio="xMaxYMin meet">
 <g id="arrow_out" transform="scale(0.3 0.3)">
  <a xlink:href="class_board_manager_a764873bdfd49e6b2a150a33f0eacff99_cgraph_org.svg" target="_base">
   <rect id="button" ry="5" rx="5" y="6" x="6" height="38" width="38"
        fill="#f2f5e9" fill-opacity="0.5" stroke="#606060" stroke-width="1.0"/>
   <path id="arrow"
     d="M 11.500037,31.436501 C 11.940474,20.09759 22.043105,11.32322 32.158766,21.979434 L 37.068811,17.246167 C 37.068811,17.246167 37.088388,32 37.088388,32 L 22.160133,31.978069 C 22.160133,31.978069 26.997745,27.140456 26.997745,27.140456 C 18.528582,18.264221 13.291696,25.230495 11.500037,31.436501 z"
     style="fill:#404040;"/>
  </a>
 </g>
</svg>

<style type='text/css'>
<![CDATA[
[data-mouse-over-selected='false'] { opacity: 0.7; }
[data-mouse-over-selected='true']  { opacity: 1.0; }
]]>
</style>
<script type="application/ecmascript"><![CDATA[
document.addEventListener('DOMContentLoaded', (event) => {
  highlightEdges();
  highlightAdjacentNodes();
});
]]></script>
</svg>
