<?xml version="1.0" encoding="UTF-8" standalone="no"?>
<!DOCTYPE svg PUBLIC "-//W3C//DTD SVG 1.1//EN"
 "http://www.w3.org/Graphics/SVG/1.1/DTD/svg11.dtd">
<!-- Generated by graphviz version 14.0.2 (20251019.1705)
 -->
<!-- Title: BoardManager::resetCamera Pages: 1 -->
<svg width="291pt" height="66pt"
 viewBox="0.00 0.00 291.00 66.00" xmlns="http://www.w3.org/2000/svg" xmlns:xlink="http://www.w3.org/1999/xlink">
<g id="graph0" class="graph" transform="scale(1 1) rotate(0) translate(4 62)">
<title>BoardManager::resetCamera</title>
<!-- Node1 -->
<g id="Node000001" class="node">
<title>Node1</title>
<g id="a_Node000001"><a xlink:title=" ">
<polygon fill="#999999" stroke="#666666" points="141.25,-39 0,-39 0,-19 141.25,-19 141.25,-39"/>
<text xml:space="preserve" text-anchor="middle" x="70.62" y="-25.5" font-family="Helvetica,sans-Serif" font-size="10.00">BoardManager::resetCamera</text>
</a>
</g>
</g>
<!-- Node2 -->
<g id="Node000002" class="node">
<title>Node2</title>
<g id="a_Node000002"><a xlink:href="../../da/dbb/class_camera.html#a68011392c392f16827b18793f5d8272a" target="_top" xlink:title=" ">
<polygon fill="white" stroke="#666666" points="282.5,-58 177.25,-58 177.25,-38 282.5,-38 282.5,-58"/>
<text xml:space="preserve" text-anchor="middle" x="229.88" y="-44.5" font-family="Helvetica,sans-Serif" font-size="10.00">Camera::setPosition</text>
</a>
</g>
</g>
<!-- Node1&#45;&gt;Node2 -->
<g id="edge1_Node000001_Node000002" class="edge">
<title>Node1&#45;&gt;Node2</title>
<g id="a_edge1_Node000001_Node000002"><a xlink:title=" ">
<path fill="none" stroke="#63b8ff" d="M141.51,-37.44C149.65,-38.43 157.92,-39.43 165.96,-40.4"/>
<polygon fill="#63b8ff" stroke="#63b8ff" points="165.28,-43.84 175.63,-41.57 166.12,-36.89 165.28,-43.84"/>
</a>
</g>
</g>
<!-- Node3 -->
<g id="Node000003" class="node">
<title>Node3</title>
<g id="a_Node000003"><a xlink:href="../../da/dbb/class_camera.html#a2c2387705de7f2189756fe55b4e4ca2c" target="_top" xlink:title=" ">
<polygon fill="white" stroke="#666666" points="277.25,-20 182.5,-20 182.5,0 277.25,0 277.25,-20"/>
<text xml:space="preserve" text-anchor="middle" x="229.88" y="-6.5" font-family="Helvetica,sans-Serif" font-size="10.00">Camera::setZoom</text>
</a>
</g>
</g>
<!-- Node1&#45;&gt;Node3 -->
<g id="edge2_Node000001_Node000003" class="edge">
<title>Node1&#45;&gt;Node3</title>
<g id="a_edge2_Node000001_Node000003"><a xlink:title=" ">
<path fill="none" stroke="#63b8ff" d="M141.51,-20.56C151.31,-19.37 161.29,-18.17 170.84,-17.01"/>
<polygon fill="#63b8ff" stroke="#63b8ff" points="171.21,-20.49 180.72,-15.82 170.37,-13.54 171.21,-20.49"/>
</a>
</g>
</g>
</g>
</svg>
