<?xml version="1.0" encoding="UTF-8" standalone="no"?>
<!DOCTYPE svg PUBLIC "-//W3C//DTD SVG 1.1//EN"
 "http://www.w3.org/Graphics/SVG/1.1/DTD/svg11.dtd">
<!-- Generated by graphviz version 14.0.2 (20251019.1705)
 -->
<!-- Title: BoardManager::setActiveBoard Pages: 1 -->
<svg width="333pt" height="78pt"
 viewBox="0.00 0.00 333.00 78.00" xmlns="http://www.w3.org/2000/svg" xmlns:xlink="http://www.w3.org/1999/xlink">
<g id="graph0" class="graph" transform="scale(1 1) rotate(0) translate(4 74)">
<title>BoardManager::setActiveBoard</title>
<!-- Node1 -->
<g id="Node000001" class="node">
<title>Node1</title>
<g id="a_Node000001"><a xlink:title=" ">
<polygon fill="#999999" stroke="#666666" points="325.25,-48 173.5,-48 173.5,-28 325.25,-28 325.25,-48"/>
<text xml:space="preserve" text-anchor="middle" x="249.38" y="-34.5" font-family="Helvetica,sans-Serif" font-size="10.00">BoardManager::setActiveBoard</text>
</a>
</g>
</g>
<!-- Node2 -->
<g id="Node000002" class="node">
<title>Node2</title>
<g id="a_Node000002"><a xlink:href="../../d2/dbf/class_board_manager.html#affc264c3aa09dea984656e304658eb34" target="_top" xlink:title=" ">
<polygon fill="white" stroke="#666666" points="137.5,-70 0,-70 0,-50 137.5,-50 137.5,-70"/>
<text xml:space="preserve" text-anchor="middle" x="68.75" y="-56.5" font-family="Helvetica,sans-Serif" font-size="10.00">BoardManager::createBoard</text>
</a>
</g>
</g>
<!-- Node1&#45;&gt;Node2 -->
<g id="edge1_Node000001_Node000002" class="edge">
<title>Node1&#45;&gt;Node2</title>
<g id="a_edge1_Node000001_Node000002"><a xlink:title=" ">
<path fill="none" stroke="#63b8ff" d="M161.8,-48.66C153.74,-49.66 145.65,-50.65 137.8,-51.62"/>
<polygon fill="#63b8ff" stroke="#63b8ff" points="162.14,-52.15 171.64,-47.45 161.28,-45.2 162.14,-52.15"/>
</a>
</g>
</g>
<!-- Node3 -->
<g id="Node000003" class="node">
<title>Node3</title>
<g id="a_Node000003"><a xlink:href="../../d2/dbf/class_board_manager.html#ae3c8d16dfa3b0e954475b6cf8e5e52f2" target="_top" xlink:title=" ">
<polygon fill="white" stroke="#666666" points="134.12,-32 3.38,-32 3.38,0 134.12,0 134.12,-32"/>
<text xml:space="preserve" text-anchor="start" x="11.38" y="-18.5" font-family="Helvetica,sans-Serif" font-size="10.00">BoardManager::loadActive</text>
<text xml:space="preserve" text-anchor="middle" x="68.75" y="-6.5" font-family="Helvetica,sans-Serif" font-size="10.00">Board</text>
</a>
</g>
</g>
<!-- Node1&#45;&gt;Node3 -->
<g id="edge2_Node000001_Node000003" class="edge">
<title>Node1&#45;&gt;Node3</title>
<g id="a_edge2_Node000001_Node000003"><a xlink:title=" ">
<path fill="none" stroke="#63b8ff" d="M161.9,-27.35C152.65,-26.21 143.36,-25.07 134.43,-23.97"/>
<polygon fill="#63b8ff" stroke="#63b8ff" points="161.28,-30.8 171.64,-28.55 162.14,-23.85 161.28,-30.8"/>
</a>
</g>
</g>
</g>
</svg>
