<?xml version="1.0" encoding="UTF-8" standalone="no"?>
<!DOCTYPE svg PUBLIC "-//W3C//DTD SVG 1.1//EN"
 "http://www.w3.org/Graphics/SVG/1.1/DTD/svg11.dtd">
<!-- Generated by graphviz version 2.43.0 (0)
 -->
<!-- Title: Camera::getProjectionMatrix Pages: 1 -->
<svg width="579pt" height="101pt"
 viewBox="0.00 0.00 579.00 101.00" xmlns="http://www.w3.org/2000/svg" xmlns:xlink="http://www.w3.org/1999/xlink">
<g id="graph0" class="graph" transform="scale(1 1) rotate(0) translate(4 97)">
<title>Camera::getProjectionMatrix</title>
<!-- Node1 -->
<g id="Node000001" class="node">
<title>Node1</title>
<g id="a_Node000001"><a xlink:title=" ">
<polygon fill="#999999" stroke="#666666" points="571,-56 414,-56 414,-37 571,-37 571,-56"/>
<text text-anchor="middle" x="492.5" y="-44" font-family="Helvetica,sans-Serif" font-size="10.00">Camera::getProjectionMatrix</text>
</a>
</g>
</g>
<!-- Node2 -->
<g id="Node000002" class="node">
<title>Node2</title>
<g id="a_Node000002"><a xlink:href="../../d9/dff/classBoardManager.html#a211d671937d1b0b2494b1d2810f0ad23" target="_top" xlink:title=" ">
<polygon fill="white" stroke="#666666" points="370,-93 216,-93 216,-74 370,-74 370,-93"/>
<text text-anchor="middle" x="293" y="-81" font-family="Helvetica,sans-Serif" font-size="10.00">BoardManager::renderBoard</text>
</a>
</g>
</g>
<!-- Node1&#45;&gt;Node2 -->
<g id="edge1_Node000001_Node000002" class="edge">
<title>Node1&#45;&gt;Node2</title>
<g id="a_edge1_Node000001_Node000002"><a xlink:title=" ">
<path fill="none" stroke="#63b8ff" d="M430.75,-57.88C403.3,-63.02 371.22,-69.03 345.03,-73.94"/>
<polygon fill="#63b8ff" stroke="#63b8ff" points="431.45,-61.31 440.64,-56.03 430.17,-54.43 431.45,-61.31"/>
</a>
</g>
</g>
<!-- Node3 -->
<g id="Node000003" class="node">
<title>Node3</title>
<g id="a_Node000003"><a xlink:href="../../d1/df0/classCamera.html#a86b2cb8f56895695f38f952521091d89" target="_top" xlink:title=" ">
<polygon fill="white" stroke="#666666" points="378,-56 208,-56 208,-37 378,-37 378,-56"/>
<text text-anchor="middle" x="293" y="-44" font-family="Helvetica,sans-Serif" font-size="10.00">Camera::screenToWorldPosition</text>
</a>
</g>
</g>
<!-- Node1&#45;&gt;Node3 -->
<g id="edge2_Node000001_Node000003" class="edge">
<title>Node1&#45;&gt;Node3</title>
<g id="a_edge2_Node000001_Node000003"><a xlink:title=" ">
<path fill="none" stroke="#63b8ff" d="M403.53,-46.5C395.12,-46.5 386.59,-46.5 378.22,-46.5"/>
<polygon fill="#63b8ff" stroke="#63b8ff" points="403.73,-50 413.73,-46.5 403.73,-43 403.73,-50"/>
</a>
</g>
</g>
<!-- Node4 -->
<g id="Node000004" class="node">
<title>Node4</title>
<g id="a_Node000004"><a xlink:href="../../d1/df0/classCamera.html#aae36d44ca5d8fa2712278d2a1d1d9fd9" target="_top" xlink:title=" ">
<polygon fill="white" stroke="#666666" points="378,-19 208,-19 208,0 378,0 378,-19"/>
<text text-anchor="middle" x="293" y="-7" font-family="Helvetica,sans-Serif" font-size="10.00">Camera::worldToScreenPosition</text>
</a>
</g>
</g>
<!-- Node1&#45;&gt;Node4 -->
<g id="edge3_Node000001_Node000004" class="edge">
<title>Node1&#45;&gt;Node4</title>
<g id="a_edge3_Node000001_Node000004"><a xlink:title=" ">
<path fill="none" stroke="#63b8ff" d="M430.75,-35.12C403.3,-29.98 371.22,-23.97 345.03,-19.06"/>
<polygon fill="#63b8ff" stroke="#63b8ff" points="430.17,-38.57 440.64,-36.97 431.45,-31.69 430.17,-38.57"/>
</a>
</g>
</g>
<!-- Node5 -->
<g id="Node000005" class="node">
<title>Node5</title>
<g id="a_Node000005"><a xlink:href="../../d9/dff/classBoardManager.html#a764873bdfd49e6b2a150a33f0eacff99" target="_top" xlink:title=" ">
<polygon fill="white" stroke="#666666" points="172,-19 0,-19 0,0 172,0 172,-19"/>
<text text-anchor="middle" x="86" y="-7" font-family="Helvetica,sans-Serif" font-size="10.00">BoardManager::startMouseDrag</text>
</a>
</g>
</g>
<!-- Node4&#45;&gt;Node5 -->
<g id="edge4_Node000004_Node000005" class="edge">
<title>Node4&#45;&gt;Node5</title>
<g id="a_edge4_Node000004_Node000005"><a xlink:title=" ">
<path fill="none" stroke="#63b8ff" d="M197.51,-9.5C189.09,-9.5 180.6,-9.5 172.27,-9.5"/>
<polygon fill="#63b8ff" stroke="#63b8ff" points="197.73,-13 207.73,-9.5 197.73,-6 197.73,-13"/>
</a>
</g>
</g>
</g>
</svg>
