<?xml version="1.0" encoding="UTF-8" standalone="no"?>
<!DOCTYPE svg PUBLIC "-//W3C//DTD SVG 1.1//EN"
 "http://www.w3.org/Graphics/SVG/1.1/DTD/svg11.dtd">
<!-- Generated by graphviz version 2.43.0 (0)
 -->
<!-- Title: Camera::worldToScreenPosition Pages: 1 -->
<svg width="371pt" height="64pt"
 viewBox="0.00 0.00 371.00 64.00" xmlns="http://www.w3.org/2000/svg" xmlns:xlink="http://www.w3.org/1999/xlink">
<g id="graph0" class="graph" transform="scale(1 1) rotate(0) translate(4 60)">
<title>Camera::worldToScreenPosition</title>
<!-- Node1 -->
<g id="Node000001" class="node">
<title>Node1</title>
<g id="a_Node000001"><a xlink:title=" ">
<polygon fill="#999999" stroke="#666666" points="170,-37 0,-37 0,-18 170,-18 170,-37"/>
<text text-anchor="middle" x="85" y="-25" font-family="Helvetica,sans-Serif" font-size="10.00">Camera::worldToScreenPosition</text>
</a>
</g>
</g>
<!-- Node2 -->
<g id="Node000002" class="node">
<title>Node2</title>
<g id="a_Node000002"><a xlink:href="../../d1/df0/classCamera.html#a3bb21fdfb8bd8974c880a33741a549df" target="_top" xlink:title=" ">
<polygon fill="white" stroke="#666666" points="363,-56 206,-56 206,-37 363,-37 363,-56"/>
<text text-anchor="middle" x="284.5" y="-44" font-family="Helvetica,sans-Serif" font-size="10.00">Camera::getProjectionMatrix</text>
</a>
</g>
</g>
<!-- Node1&#45;&gt;Node2 -->
<g id="edge1_Node000001_Node000002" class="edge">
<title>Node1&#45;&gt;Node2</title>
<g id="a_edge1_Node000001_Node000002"><a xlink:title=" ">
<path fill="none" stroke="#63b8ff" d="M170.04,-35.59C178.57,-36.41 187.25,-37.24 195.81,-38.06"/>
<polygon fill="#63b8ff" stroke="#63b8ff" points="195.51,-41.55 205.8,-39.02 196.18,-34.58 195.51,-41.55"/>
</a>
</g>
</g>
<!-- Node3 -->
<g id="Node000003" class="node">
<title>Node3</title>
<g id="a_Node000003"><a xlink:href="../../d1/df0/classCamera.html#a2f90e661a78172675ca06ea69667b531" target="_top" xlink:title=" ">
<polygon fill="white" stroke="#666666" points="350.5,-19 218.5,-19 218.5,0 350.5,0 350.5,-19"/>
<text text-anchor="middle" x="284.5" y="-7" font-family="Helvetica,sans-Serif" font-size="10.00">Camera::getViewMatrix</text>
</a>
</g>
</g>
<!-- Node1&#45;&gt;Node3 -->
<g id="edge2_Node000001_Node000003" class="edge">
<title>Node1&#45;&gt;Node3</title>
<g id="a_edge2_Node000001_Node000003"><a xlink:title=" ">
<path fill="none" stroke="#63b8ff" d="M170.04,-19.84C182.68,-18.69 195.64,-17.51 208.07,-16.37"/>
<polygon fill="#63b8ff" stroke="#63b8ff" points="208.74,-19.83 218.38,-15.44 208.1,-12.86 208.74,-19.83"/>
</a>
</g>
</g>
</g>
</svg>
