<?xml version="1.0" encoding="UTF-8" standalone="no"?>
<!DOCTYPE svg PUBLIC "-//W3C//DTD SVG 1.1//EN"
 "http://www.w3.org/Graphics/SVG/1.1/DTD/svg11.dtd">
<!-- Generated by graphviz version 14.0.2 (20251019.1705)
 -->
<!-- Title: PathManager::getGameTablesPath Pages: 1 -->
<svg width="819pt" height="387pt"
 viewBox="0.00 0.00 819.00 387.00" xmlns="http://www.w3.org/2000/svg" xmlns:xlink="http://www.w3.org/1999/xlink">
<g id="graph0" class="graph" transform="scale(1 1) rotate(0) translate(4 383.5)">
<title>PathManager::getGameTablesPath</title>
<!-- Node1 -->
<g id="Node000001" class="node">
<title>Node1</title>
<g id="a_Node000001"><a xlink:title=" ">
<polygon fill="#999999" stroke="#666666" points="811.25,-191.5 643,-191.5 643,-171.5 811.25,-171.5 811.25,-191.5"/>
<text xml:space="preserve" text-anchor="middle" x="727.12" y="-178" font-family="Helvetica,sans-Serif" font-size="10.00">PathManager::getGameTablesPath</text>
</a>
</g>
</g>
<!-- Node2 -->
<g id="Node000002" class="node">
<title>Node2</title>
<g id="a_Node000002"><a xlink:href="../../d4/d97/class_application_handler.html#a5488b63e5eb5617c18e2a85c0e2d8703" target="_top" xlink:title=" ">
<polygon fill="white" stroke="#666666" points="584.12,-379.5 480.38,-379.5 480.38,-347.5 584.12,-347.5 584.12,-379.5"/>
<text xml:space="preserve" text-anchor="start" x="488.38" y="-366" font-family="Helvetica,sans-Serif" font-size="10.00">ApplicationHandler</text>
<text xml:space="preserve" text-anchor="middle" x="532.25" y="-354" font-family="Helvetica,sans-Serif" font-size="10.00">::ApplicationHandler</text>
</a>
</g>
</g>
<!-- Node1&#45;&gt;Node2 -->
<g id="edge1_Node000001_Node000002" class="edge">
<title>Node1&#45;&gt;Node2</title>
<g id="a_edge1_Node000001_Node000002"><a xlink:title=" ">
<path fill="none" stroke="#63b8ff" d="M716.11,-201.48C698.5,-234.65 658.88,-301.13 607,-338.5 600.2,-343.4 592.37,-347.39 584.4,-350.63"/>
<polygon fill="#63b8ff" stroke="#63b8ff" points="719.04,-203.43 720.53,-192.94 712.82,-200.22 719.04,-203.43"/>
</a>
</g>
</g>
<!-- Node3 -->
<g id="Node000003" class="node">
<title>Node3</title>
<g id="a_Node000003"><a xlink:href="../../d8/d37/class_chat_manager.html#a7c4c2a8fe907802aaff347a997e4f230" target="_top" xlink:title=" ">
<polygon fill="white" stroke="#666666" points="607,-329.5 457.5,-329.5 457.5,-309.5 607,-309.5 607,-329.5"/>
<text xml:space="preserve" text-anchor="middle" x="532.25" y="-316" font-family="Helvetica,sans-Serif" font-size="10.00">ChatManager::chatFilePathFor</text>
</a>
</g>
</g>
<!-- Node1&#45;&gt;Node3 -->
<g id="edge2_Node000001_Node000003" class="edge">
<title>Node1&#45;&gt;Node3</title>
<g id="a_edge2_Node000001_Node000003"><a xlink:title=" ">
<path fill="none" stroke="#63b8ff" d="M712.05,-201.02C691.84,-227.6 652.03,-274.81 607,-300.5 601.03,-303.91 594.44,-306.71 587.73,-309.02"/>
<polygon fill="#63b8ff" stroke="#63b8ff" points="714.75,-203.26 717.9,-193.15 709.13,-199.08 714.75,-203.26"/>
</a>
</g>
</g>
<!-- Node7 -->
<g id="Node000007" class="node">
<title>Node7</title>
<g id="a_Node000007"><a xlink:href="../../df/d93/class_game_table_manager.html#a172cce8920ef8672b5508fdbca0108fa" target="_top" xlink:title=" ">
<polygon fill="white" stroke="#666666" points="600.25,-241.5 464.25,-241.5 464.25,-209.5 600.25,-209.5 600.25,-241.5"/>
<text xml:space="preserve" text-anchor="start" x="472.25" y="-228" font-family="Helvetica,sans-Serif" font-size="10.00">GameTableManager::create</text>
<text xml:space="preserve" text-anchor="middle" x="532.25" y="-216" font-family="Helvetica,sans-Serif" font-size="10.00">GameTableFile</text>
</a>
</g>
</g>
<!-- Node1&#45;&gt;Node7 -->
<g id="edge7_Node000001_Node000007" class="edge">
<title>Node1&#45;&gt;Node7</title>
<g id="a_edge7_Node000001_Node000007"><a xlink:title=" ">
<path fill="none" stroke="#63b8ff" d="M669.45,-194.43C647.85,-199.35 623.04,-205.02 600.55,-210.15"/>
<polygon fill="#63b8ff" stroke="#63b8ff" points="669.97,-197.9 678.94,-192.26 668.41,-191.07 669.97,-197.9"/>
</a>
</g>
</g>
<!-- Node10 -->
<g id="Node000010" class="node">
<title>Node10</title>
<g id="a_Node000010"><a xlink:href="../../de/d2f/class_path_manager.html#a8ab36dc1c3f37bc603cb61f4ba6a90b7" target="_top" xlink:title=" ">
<polygon fill="white" stroke="#666666" points="229.25,-188.5 73,-188.5 73,-168.5 229.25,-168.5 229.25,-188.5"/>
<text xml:space="preserve" text-anchor="middle" x="151.12" y="-175" font-family="Helvetica,sans-Serif" font-size="10.00">PathManager::ensureDirectories</text>
</a>
</g>
</g>
<!-- Node1&#45;&gt;Node10 -->
<g id="edge10_Node000001_Node000010" class="edge">
<title>Node1&#45;&gt;Node10</title>
<g id="a_edge10_Node000001_Node000010"><a xlink:title=" ">
<path fill="none" stroke="#63b8ff" d="M631.35,-181C519.01,-180.42 333.93,-179.45 229.71,-178.9"/>
<polygon fill="#63b8ff" stroke="#63b8ff" points="631.13,-184.5 641.15,-181.05 631.17,-177.5 631.13,-184.5"/>
</a>
</g>
</g>
<!-- Node12 -->
<g id="Node000012" class="node">
<title>Node12</title>
<g id="a_Node000012"><a xlink:href="../../de/d2f/class_path_manager.html#af392331298aaf7b201860286d49d1dd1" target="_top" xlink:title=" ">
<polygon fill="white" stroke="#666666" points="604.38,-153.5 460.12,-153.5 460.12,-133.5 604.38,-133.5 604.38,-153.5"/>
<text xml:space="preserve" text-anchor="middle" x="532.25" y="-140" font-family="Helvetica,sans-Serif" font-size="10.00">PathManager::getBoardsPath</text>
</a>
</g>
</g>
<!-- Node1&#45;&gt;Node12 -->
<g id="edge12_Node000001_Node000012" class="edge">
<title>Node1&#45;&gt;Node12</title>
<g id="a_edge12_Node000001_Node000012"><a xlink:title=" ">
<path fill="none" stroke="#63b8ff" d="M661.88,-168.84C637.35,-164.01 609.67,-158.55 586.29,-153.95"/>
<polygon fill="#63b8ff" stroke="#63b8ff" points="660.94,-172.22 671.43,-170.72 662.29,-165.35 660.94,-172.22"/>
</a>
</g>
</g>
<!-- Node15 -->
<g id="Node000015" class="node">
<title>Node15</title>
<g id="a_Node000015"><a xlink:href="../../df/d93/class_game_table_manager.html#a0d0b5aaffbd1abcc9311015183990396" target="_top" xlink:title=" ">
<polygon fill="white" stroke="#666666" points="605.88,-115.5 458.62,-115.5 458.62,-83.5 605.88,-83.5 605.88,-115.5"/>
<text xml:space="preserve" text-anchor="start" x="466.62" y="-102" font-family="Helvetica,sans-Serif" font-size="10.00">GameTableManager::listBoard</text>
<text xml:space="preserve" text-anchor="middle" x="532.25" y="-90" font-family="Helvetica,sans-Serif" font-size="10.00">Files</text>
</a>
</g>
</g>
<!-- Node1&#45;&gt;Node15 -->
<g id="edge16_Node000001_Node000015" class="edge">
<title>Node1&#45;&gt;Node15</title>
<g id="a_edge16_Node000001_Node000015"><a xlink:title=" ">
<path fill="none" stroke="#63b8ff" d="M696.06,-165.88C672.24,-153.81 637.94,-137.09 607,-124.5 599.74,-121.54 591.98,-118.64 584.32,-115.92"/>
<polygon fill="#63b8ff" stroke="#63b8ff" points="694.37,-168.95 704.87,-170.38 697.56,-162.72 694.37,-168.95"/>
</a>
</g>
</g>
<!-- Node17 -->
<g id="Node000017" class="node">
<title>Node17</title>
<g id="a_Node000017"><a xlink:href="../../df/d93/class_game_table_manager.html#aadde24209947ffe2dfe3d0d469e2c552" target="_top" xlink:title=" ">
<polygon fill="white" stroke="#666666" points="606.25,-291.5 458.25,-291.5 458.25,-259.5 606.25,-259.5 606.25,-291.5"/>
<text xml:space="preserve" text-anchor="start" x="466.25" y="-278" font-family="Helvetica,sans-Serif" font-size="10.00">GameTableManager::listGame</text>
<text xml:space="preserve" text-anchor="middle" x="532.25" y="-266" font-family="Helvetica,sans-Serif" font-size="10.00">TableFiles</text>
</a>
</g>
</g>
<!-- Node1&#45;&gt;Node17 -->
<g id="edge18_Node000001_Node000017" class="edge">
<title>Node1&#45;&gt;Node17</title>
<g id="a_edge18_Node000001_Node000017"><a xlink:title=" ">
<path fill="none" stroke="#63b8ff" d="M700.91,-198.08C677.32,-213.11 640.75,-235.19 607,-250.5 600.35,-253.51 593.23,-256.37 586.12,-259"/>
<polygon fill="#63b8ff" stroke="#63b8ff" points="702.69,-201.09 709.2,-192.74 698.9,-195.21 702.69,-201.09"/>
</a>
</g>
</g>
<!-- Node18 -->
<g id="Node000018" class="node">
<title>Node18</title>
<g id="a_Node000018"><a xlink:href="../../df/d93/class_game_table_manager.html#a1a3fbedca6d81c5cb0a0aadf8a60f75a" target="_top" xlink:title=" ">
<polygon fill="white" stroke="#666666" points="604,-65.5 460.5,-65.5 460.5,-33.5 604,-33.5 604,-65.5"/>
<text xml:space="preserve" text-anchor="start" x="468.5" y="-52" font-family="Helvetica,sans-Serif" font-size="10.00">GameTableManager::manage</text>
<text xml:space="preserve" text-anchor="middle" x="532.25" y="-40" font-family="Helvetica,sans-Serif" font-size="10.00">GameTablesPopUp</text>
</a>
</g>
</g>
<!-- Node1&#45;&gt;Node18 -->
<g id="edge20_Node000001_Node000018" class="edge">
<title>Node1&#45;&gt;Node18</title>
<g id="a_edge20_Node000001_Node000018"><a xlink:title=" ">
<path fill="none" stroke="#63b8ff" d="M709.78,-162.72C688.33,-139.12 648.52,-98.79 607,-74.5 601.52,-71.29 595.56,-68.42 589.49,-65.86"/>
<polygon fill="#63b8ff" stroke="#63b8ff" points="707.03,-164.9 716.3,-170.03 712.25,-160.24 707.03,-164.9"/>
</a>
</g>
</g>
<!-- Node19 -->
<g id="Node000019" class="node">
<title>Node19</title>
<g id="a_Node000019"><a xlink:href="../../d4/d97/class_application_handler.html#a98e49f0d6038bf4caeed77b4d03b003c" target="_top" xlink:title=" ">
<polygon fill="white" stroke="#666666" points="397.88,-37.5 288.88,-37.5 288.88,-5.5 397.88,-5.5 397.88,-37.5"/>
<text xml:space="preserve" text-anchor="start" x="296.88" y="-24" font-family="Helvetica,sans-Serif" font-size="10.00">ApplicationHandler</text>
<text xml:space="preserve" text-anchor="middle" x="343.38" y="-12" font-family="Helvetica,sans-Serif" font-size="10.00">::renderMainMenuBar</text>
</a>
</g>
</g>
<!-- Node1&#45;&gt;Node19 -->
<g id="edge21_Node000001_Node000019" class="edge">
<title>Node1&#45;&gt;Node19</title>
<g id="a_edge21_Node000001_Node000019"><a xlink:title=" ">
<path fill="none" stroke="#63b8ff" d="M717.7,-160.66C702.03,-125.05 664.65,-53.54 607,-24.5 541.13,8.68 453.65,1.13 398.17,-8.93"/>
<polygon fill="#63b8ff" stroke="#63b8ff" points="714.47,-162 721.59,-169.85 720.92,-159.28 714.47,-162"/>
</a>
</g>
</g>
<!-- Node4 -->
<g id="Node000004" class="node">
<title>Node4</title>
<g id="a_Node000004"><a xlink:href="../../d8/d37/class_chat_manager.html#a2bd172979a809d742db08764a60b3378" target="_top" xlink:title=" ">
<polygon fill="white" stroke="#666666" points="408.75,-367.5 278,-367.5 278,-347.5 408.75,-347.5 408.75,-367.5"/>
<text xml:space="preserve" text-anchor="middle" x="343.38" y="-354" font-family="Helvetica,sans-Serif" font-size="10.00">ChatManager::loadCurrent</text>
</a>
</g>
</g>
<!-- Node3&#45;&gt;Node4 -->
<g id="edge3_Node000003_Node000004" class="edge">
<title>Node3&#45;&gt;Node4</title>
<g id="a_edge3_Node000003_Node000004"><a xlink:title=" ">
<path fill="none" stroke="#63b8ff" d="M468.69,-332.22C444.99,-337.04 418.32,-342.46 395.77,-347.05"/>
<polygon fill="#63b8ff" stroke="#63b8ff" points="469.11,-335.71 478.21,-330.28 467.71,-328.85 469.11,-335.71"/>
</a>
</g>
</g>
<!-- Node6 -->
<g id="Node000006" class="node">
<title>Node6</title>
<g id="a_Node000006"><a xlink:href="../../d8/d37/class_chat_manager.html#a17157721204dfd36ab180a404a2294a0" target="_top" xlink:title=" ">
<polygon fill="white" stroke="#666666" points="410.25,-329.5 276.5,-329.5 276.5,-309.5 410.25,-309.5 410.25,-329.5"/>
<text xml:space="preserve" text-anchor="middle" x="343.38" y="-316" font-family="Helvetica,sans-Serif" font-size="10.00">ChatManager::saveCurrent</text>
</a>
</g>
</g>
<!-- Node3&#45;&gt;Node6 -->
<g id="edge5_Node000003_Node000006" class="edge">
<title>Node3&#45;&gt;Node6</title>
<g id="a_edge5_Node000003_Node000006"><a xlink:title=" ">
<path fill="none" stroke="#63b8ff" d="M445.84,-319.5C433.99,-319.5 421.97,-319.5 410.54,-319.5"/>
<polygon fill="#63b8ff" stroke="#63b8ff" points="445.61,-323 455.61,-319.5 445.61,-316 445.61,-323"/>
</a>
</g>
</g>
<!-- Node5 -->
<g id="Node000005" class="node">
<title>Node5</title>
<g id="a_Node000005"><a xlink:href="../../d8/d37/class_chat_manager.html#a6bf284d1ba8a95c8963efa930ac2c571" target="_top" xlink:title=" ">
<polygon fill="white" stroke="#666666" points="225.12,-354.5 77.12,-354.5 77.12,-322.5 225.12,-322.5 225.12,-354.5"/>
<text xml:space="preserve" text-anchor="start" x="85.12" y="-341" font-family="Helvetica,sans-Serif" font-size="10.00">ChatManager::setActiveGame</text>
<text xml:space="preserve" text-anchor="middle" x="151.12" y="-329" font-family="Helvetica,sans-Serif" font-size="10.00">Table</text>
</a>
</g>
</g>
<!-- Node4&#45;&gt;Node5 -->
<g id="edge4_Node000004_Node000005" class="edge">
<title>Node4&#45;&gt;Node5</title>
<g id="a_edge4_Node000004_Node000005"><a xlink:title=" ">
<path fill="none" stroke="#63b8ff" d="M266.49,-349.92C252.97,-348.57 238.91,-347.17 225.46,-345.82"/>
<polygon fill="#63b8ff" stroke="#63b8ff" points="265.9,-353.38 276.19,-350.89 266.59,-346.41 265.9,-353.38"/>
</a>
</g>
</g>
<!-- Node6&#45;&gt;Node5 -->
<g id="edge6_Node000006_Node000005" class="edge">
<title>Node6&#45;&gt;Node5</title>
<g id="a_edge6_Node000006_Node000005"><a xlink:title=" ">
<path fill="none" stroke="#63b8ff" d="M264.78,-327.25C251.74,-328.55 238.23,-329.9 225.31,-331.19"/>
<polygon fill="#63b8ff" stroke="#63b8ff" points="264.99,-330.74 274.6,-326.27 264.3,-323.78 264.99,-330.74"/>
</a>
</g>
</g>
<!-- Node8 -->
<g id="Node000008" class="node">
<title>Node8</title>
<g id="a_Node000008"><a xlink:href="../../df/d93/class_game_table_manager.html#a42414a5596a4e90a3f321f90e166f9a0" target="_top" xlink:title=" ">
<polygon fill="white" stroke="#666666" points="420.38,-291.5 266.38,-291.5 266.38,-259.5 420.38,-259.5 420.38,-291.5"/>
<text xml:space="preserve" text-anchor="start" x="274.38" y="-278" font-family="Helvetica,sans-Serif" font-size="10.00">GameTableManager::hostGame</text>
<text xml:space="preserve" text-anchor="middle" x="343.38" y="-266" font-family="Helvetica,sans-Serif" font-size="10.00">TablePopUp</text>
</a>
</g>
</g>
<!-- Node7&#45;&gt;Node8 -->
<g id="edge8_Node000007_Node000008" class="edge">
<title>Node7&#45;&gt;Node8</title>
<g id="a_edge8_Node000007_Node000008"><a xlink:title=" ">
<path fill="none" stroke="#63b8ff" d="M459.03,-244.82C441.48,-249.52 422.87,-254.5 405.86,-259.05"/>
<polygon fill="#63b8ff" stroke="#63b8ff" points="459.58,-248.3 468.34,-242.33 457.77,-241.53 459.58,-248.3"/>
</a>
</g>
</g>
<!-- Node9 -->
<g id="Node000009" class="node">
<title>Node9</title>
<g id="a_Node000009"><a xlink:href="../../df/d93/class_game_table_manager.html#a9e6225573f97256dd5dfef871a1e32d6" target="_top" xlink:title=" ">
<polygon fill="white" stroke="#666666" points="421.5,-241.5 265.25,-241.5 265.25,-209.5 421.5,-209.5 421.5,-241.5"/>
<text xml:space="preserve" text-anchor="start" x="273.25" y="-228" font-family="Helvetica,sans-Serif" font-size="10.00">GameTableManager::saveGame</text>
<text xml:space="preserve" text-anchor="middle" x="343.38" y="-216" font-family="Helvetica,sans-Serif" font-size="10.00">Table</text>
</a>
</g>
</g>
<!-- Node7&#45;&gt;Node9 -->
<g id="edge9_Node000007_Node000009" class="edge">
<title>Node7&#45;&gt;Node9</title>
<g id="a_edge9_Node000007_Node000009"><a xlink:title=" ">
<path fill="none" stroke="#63b8ff" d="M452.48,-225.5C442.36,-225.5 432,-225.5 421.9,-225.5"/>
<polygon fill="#63b8ff" stroke="#63b8ff" points="452.27,-229 462.27,-225.5 452.27,-222 452.27,-229"/>
</a>
</g>
</g>
<!-- Node11 -->
<g id="Node000011" class="node">
<title>Node11</title>
<g id="a_Node000011"><a xlink:href="../../df/d0a/main_8cpp.html#ae66f6b31b5ad750f1fe042a706a4e3d4" target="_top" xlink:title=" ">
<polygon fill="white" stroke="#666666" points="37,-169.5 0,-169.5 0,-149.5 37,-149.5 37,-169.5"/>
<text xml:space="preserve" text-anchor="middle" x="18.5" y="-156" font-family="Helvetica,sans-Serif" font-size="10.00">main</text>
</a>
</g>
</g>
<!-- Node10&#45;&gt;Node11 -->
<g id="edge11_Node000010_Node000011" class="edge">
<title>Node10&#45;&gt;Node11</title>
<g id="a_edge11_Node000010_Node000011"><a xlink:title=" ">
<path fill="none" stroke="#63b8ff" d="M66.99,-166.41C55.86,-164.79 45.47,-163.28 37.27,-162.08"/>
<polygon fill="#63b8ff" stroke="#63b8ff" points="66.42,-169.86 76.82,-167.84 67.43,-162.93 66.42,-169.86"/>
</a>
</g>
</g>
<!-- Node13 -->
<g id="Node000013" class="node">
<title>Node13</title>
<g id="a_Node000013"><a xlink:href="../../d4/d97/class_application_handler.html#a945c1ff5219680b55ec3d6ffeb9d7f7e" target="_top" xlink:title=" ">
<polygon fill="white" stroke="#666666" points="392.25,-153.5 294.5,-153.5 294.5,-121.5 392.25,-121.5 392.25,-153.5"/>
<text xml:space="preserve" text-anchor="start" x="302.5" y="-140" font-family="Helvetica,sans-Serif" font-size="10.00">ApplicationHandler</text>
<text xml:space="preserve" text-anchor="middle" x="343.38" y="-128" font-family="Helvetica,sans-Serif" font-size="10.00">::TickAutoSave</text>
</a>
</g>
</g>
<!-- Node12&#45;&gt;Node13 -->
<g id="edge13_Node000012_Node000013" class="edge">
<title>Node12&#45;&gt;Node13</title>
<g id="a_edge13_Node000012_Node000013"><a xlink:title=" ">
<path fill="none" stroke="#63b8ff" d="M448.36,-140.84C429.3,-140.23 409.64,-139.59 392.62,-139.05"/>
<polygon fill="#63b8ff" stroke="#63b8ff" points="448.18,-144.33 458.29,-141.16 448.41,-137.34 448.18,-144.33"/>
</a>
</g>
</g>
<!-- Node14 -->
<g id="Node000014" class="node">
<title>Node14</title>
<g id="a_Node000014"><a xlink:href="../../d4/d97/class_application_handler.html#afaf00f4f20eca3fec59f8f02f76ef2ce" target="_top" xlink:title=" ">
<polygon fill="white" stroke="#666666" points="209.75,-147.5 92.5,-147.5 92.5,-127.5 209.75,-127.5 209.75,-147.5"/>
<text xml:space="preserve" text-anchor="middle" x="151.12" y="-134" font-family="Helvetica,sans-Serif" font-size="10.00">ApplicationHandler::run</text>
</a>
</g>
</g>
<!-- Node13&#45;&gt;Node14 -->
<g id="edge14_Node000013_Node000014" class="edge">
<title>Node13&#45;&gt;Node14</title>
<g id="a_edge14_Node000013_Node000014"><a xlink:title=" ">
<path fill="none" stroke="#63b8ff" d="M282.9,-137.5C259.64,-137.5 233.05,-137.5 209.96,-137.5"/>
<polygon fill="#63b8ff" stroke="#63b8ff" points="282.85,-141 292.85,-137.5 282.85,-134 282.85,-141"/>
</a>
</g>
</g>
<!-- Node14&#45;&gt;Node11 -->
<g id="edge15_Node000014_Node000011" class="edge">
<title>Node14&#45;&gt;Node11</title>
<g id="a_edge15_Node000014_Node000011"><a xlink:title=" ">
<path fill="none" stroke="#63b8ff" d="M80.91,-149.16C64.79,-151.87 48.99,-154.53 37.45,-156.47"/>
<polygon fill="#63b8ff" stroke="#63b8ff" points="81.3,-152.64 90.58,-147.53 80.14,-145.74 81.3,-152.64"/>
</a>
</g>
</g>
<!-- Node16 -->
<g id="Node000016" class="node">
<title>Node16</title>
<g id="a_Node000016"><a xlink:href="../../df/d93/class_game_table_manager.html#adb584efae4cf9382a59c46ba9fad6f5b" target="_top" xlink:title=" ">
<polygon fill="white" stroke="#666666" points="419.62,-103.5 267.12,-103.5 267.12,-71.5 419.62,-71.5 419.62,-103.5"/>
<text xml:space="preserve" text-anchor="start" x="275.12" y="-90" font-family="Helvetica,sans-Serif" font-size="10.00">GameTableManager::loadBoard</text>
<text xml:space="preserve" text-anchor="middle" x="343.38" y="-78" font-family="Helvetica,sans-Serif" font-size="10.00">PopUp</text>
</a>
</g>
</g>
<!-- Node15&#45;&gt;Node16 -->
<g id="edge17_Node000015_Node000016" class="edge">
<title>Node15&#45;&gt;Node16</title>
<g id="a_edge17_Node000015_Node000016"><a xlink:title=" ">
<path fill="none" stroke="#63b8ff" d="M446.87,-94.08C437.86,-93.5 428.74,-92.92 419.84,-92.34"/>
<polygon fill="#63b8ff" stroke="#63b8ff" points="446.48,-97.56 456.69,-94.71 446.93,-90.58 446.48,-97.56"/>
</a>
</g>
</g>
<!-- Node17&#45;&gt;Node8 -->
<g id="edge19_Node000017_Node000008" class="edge">
<title>Node17&#45;&gt;Node8</title>
<g id="a_edge19_Node000017_Node000008"><a xlink:title=" ">
<path fill="none" stroke="#63b8ff" d="M446.7,-275.5C438.09,-275.5 429.38,-275.5 420.87,-275.5"/>
<polygon fill="#63b8ff" stroke="#63b8ff" points="446.41,-279 456.41,-275.5 446.41,-272 446.41,-279"/>
</a>
</g>
</g>
<!-- Node19&#45;&gt;Node14 -->
<g id="edge22_Node000019_Node000014" class="edge">
<title>Node19&#45;&gt;Node14</title>
<g id="a_edge22_Node000019_Node000014"><a xlink:title=" ">
<path fill="none" stroke="#63b8ff" d="M299.62,-43.28C288.32,-49.29 276.22,-55.97 265.25,-62.5 229.01,-84.08 188.14,-112.15 166.84,-127.08"/>
<polygon fill="#63b8ff" stroke="#63b8ff" points="301.16,-46.43 308.38,-38.67 297.9,-40.23 301.16,-46.43"/>
</a>
</g>
</g>
</g>
</svg>
