<?xml version="1.0" encoding="UTF-8" standalone="no"?>
<!DOCTYPE svg PUBLIC "-//W3C//DTD SVG 1.1//EN"
 "http://www.w3.org/Graphics/SVG/1.1/DTD/svg11.dtd">
<!-- Generated by graphviz version 14.0.2 (20251019.1705)
 -->
<!-- Title: PathManager::hasDirSep Pages: 1 -->
<svg width="1021pt" height="146pt"
 viewBox="0.00 0.00 1021.00 146.00" xmlns="http://www.w3.org/2000/svg" xmlns:xlink="http://www.w3.org/1999/xlink">
<g id="graph0" class="graph" transform="scale(1 1) rotate(0) translate(4 142)">
<title>PathManager::hasDirSep</title>
<!-- Node1 -->
<g id="Node000001" class="node">
<title>Node1</title>
<g id="a_Node000001"><a xlink:title=" ">
<polygon fill="#999999" stroke="#666666" points="1012.5,-51 887,-51 887,-31 1012.5,-31 1012.5,-51"/>
<text xml:space="preserve" text-anchor="middle" x="949.75" y="-37.5" font-family="Helvetica,sans-Serif" font-size="10.00">PathManager::hasDirSep</text>
</a>
</g>
</g>
<!-- Node2 -->
<g id="Node000002" class="node">
<title>Node2</title>
<g id="a_Node000002"><a xlink:href="../../de/d2f/class_path_manager.html#a7bd7a212d4af1ec7b67dfc3519375077" target="_top" xlink:title=" ">
<polygon fill="white" stroke="#666666" points="851,-51 725.5,-51 725.5,-31 851,-31 851,-51"/>
<text xml:space="preserve" text-anchor="middle" x="788.25" y="-37.5" font-family="Helvetica,sans-Serif" font-size="10.00">PathManager::isPathLike</text>
</a>
</g>
</g>
<!-- Node1&#45;&gt;Node2 -->
<g id="edge1_Node000001_Node000002" class="edge">
<title>Node1&#45;&gt;Node2</title>
<g id="a_edge1_Node000001_Node000002"><a xlink:title=" ">
<path fill="none" stroke="#63b8ff" d="M875.13,-41C867.22,-41 859.23,-41 851.47,-41"/>
<polygon fill="#63b8ff" stroke="#63b8ff" points="875.11,-44.5 885.11,-41 875.11,-37.5 875.11,-44.5"/>
</a>
</g>
</g>
<!-- Node3 -->
<g id="Node000003" class="node">
<title>Node3</title>
<g id="a_Node000003"><a xlink:href="../../de/d2f/class_path_manager.html#a42a0582ddea79c07f859b346b57657de" target="_top" xlink:title=" ">
<polygon fill="white" stroke="#666666" points="689.5,-51 542.25,-51 542.25,-31 689.5,-31 689.5,-51"/>
<text xml:space="preserve" text-anchor="middle" x="615.88" y="-37.5" font-family="Helvetica,sans-Serif" font-size="10.00">PathManager::isFilenameOnly</text>
</a>
</g>
</g>
<!-- Node2&#45;&gt;Node3 -->
<g id="edge2_Node000002_Node000003" class="edge">
<title>Node2&#45;&gt;Node3</title>
<g id="a_edge2_Node000002_Node000003"><a xlink:title=" ">
<path fill="none" stroke="#63b8ff" d="M713.76,-41C705.82,-41 697.75,-41 689.82,-41"/>
<polygon fill="#63b8ff" stroke="#63b8ff" points="713.75,-44.5 723.75,-41 713.75,-37.5 713.75,-44.5"/>
</a>
</g>
</g>
<!-- Node4 -->
<g id="Node000004" class="node">
<title>Node4</title>
<g id="a_Node000004"><a xlink:href="../../da/d21/class_network_manager.html#a9faf2055aa0370adbffaa46b7f7181c1" target="_top" xlink:title=" ">
<polygon fill="white" stroke="#666666" points="504,-85 361.25,-85 361.25,-65 504,-65 504,-85"/>
<text xml:space="preserve" text-anchor="middle" x="432.62" y="-71.5" font-family="Helvetica,sans-Serif" font-size="10.00">NetworkManager::sendBoard</text>
</a>
</g>
</g>
<!-- Node2&#45;&gt;Node4 -->
<g id="edge9_Node000002_Node000004" class="edge">
<title>Node2&#45;&gt;Node4</title>
<g id="a_edge9_Node000002_Node000004"><a xlink:title=" ">
<path fill="none" stroke="#63b8ff" d="M729.06,-53.63C716.09,-56.08 702.37,-58.38 689.5,-60 627.25,-67.84 555.95,-71.59 504.45,-73.38"/>
<polygon fill="#63b8ff" stroke="#63b8ff" points="729.59,-57.09 738.74,-51.75 728.25,-50.22 729.59,-57.09"/>
</a>
</g>
</g>
<!-- Node8 -->
<g id="Node000008" class="node">
<title>Node8</title>
<g id="a_Node000008"><a xlink:href="../../da/d21/class_network_manager.html#a88303e860c818888a1cdd7d40bc19bf3" target="_top" xlink:title=" ">
<polygon fill="white" stroke="#666666" points="506.25,-26 359,-26 359,-6 506.25,-6 506.25,-26"/>
<text xml:space="preserve" text-anchor="middle" x="432.62" y="-12.5" font-family="Helvetica,sans-Serif" font-size="10.00">NetworkManager::sendMarker</text>
</a>
</g>
</g>
<!-- Node2&#45;&gt;Node8 -->
<g id="edge10_Node000002_Node000008" class="edge">
<title>Node2&#45;&gt;Node8</title>
<g id="a_edge10_Node000002_Node000008"><a xlink:title=" ">
<path fill="none" stroke="#63b8ff" d="M730.7,-28.33C717.26,-25.79 702.93,-23.45 689.5,-22 628.09,-15.36 557.93,-14.16 506.63,-14.45"/>
<polygon fill="#63b8ff" stroke="#63b8ff" points="729.77,-31.71 740.26,-30.21 731.12,-24.85 729.77,-31.71"/>
</a>
</g>
</g>
<!-- Node3&#45;&gt;Node4 -->
<g id="edge3_Node000003_Node000004" class="edge">
<title>Node3&#45;&gt;Node4</title>
<g id="a_edge3_Node000003_Node000004"><a xlink:title=" ">
<path fill="none" stroke="#63b8ff" d="M547.88,-53.57C528.61,-57.18 507.81,-61.08 489.3,-64.56"/>
<polygon fill="#63b8ff" stroke="#63b8ff" points="548.34,-57.04 557.53,-51.76 547.05,-50.16 548.34,-57.04"/>
</a>
</g>
</g>
<!-- Node3&#45;&gt;Node8 -->
<g id="edge7_Node000003_Node000008" class="edge">
<title>Node3&#45;&gt;Node8</title>
<g id="a_edge7_Node000003_Node000008"><a xlink:title=" ">
<path fill="none" stroke="#63b8ff" d="M530.69,-29.39C522.68,-28.28 514.6,-27.17 506.71,-26.08"/>
<polygon fill="#63b8ff" stroke="#63b8ff" points="530.05,-32.83 540.44,-30.73 531.01,-25.9 530.05,-32.83"/>
</a>
</g>
</g>
<!-- Node5 -->
<g id="Node000005" class="node">
<title>Node5</title>
<g id="a_Node000005"><a xlink:href="../../da/d21/class_network_manager.html#ac5104e38077637eeeab41e078fa51a5b" target="_top" xlink:title=" ">
<polygon fill="white" stroke="#666666" points="321.88,-138 185.12,-138 185.12,-106 321.88,-106 321.88,-138"/>
<text xml:space="preserve" text-anchor="start" x="193.12" y="-124.5" font-family="Helvetica,sans-Serif" font-size="10.00">NetworkManager::bootstrap</text>
<text xml:space="preserve" text-anchor="middle" x="253.5" y="-112.5" font-family="Helvetica,sans-Serif" font-size="10.00">PeerIfReady</text>
</a>
</g>
</g>
<!-- Node4&#45;&gt;Node5 -->
<g id="edge4_Node000004_Node000005" class="edge">
<title>Node4&#45;&gt;Node5</title>
<g id="a_edge4_Node000004_Node000005"><a xlink:title=" ">
<path fill="none" stroke="#63b8ff" d="M381.21,-88.38C361.12,-93.71 337.79,-99.9 316.66,-105.51"/>
<polygon fill="#63b8ff" stroke="#63b8ff" points="382.08,-91.77 390.85,-85.82 380.29,-85 382.08,-91.77"/>
</a>
</g>
</g>
<!-- Node7 -->
<g id="Node000007" class="node">
<title>Node7</title>
<g id="a_Node000007"><a xlink:href="../../da/d21/class_network_manager.html#a8104f62e2e6c3197832dbfe7753853de" target="_top" xlink:title=" ">
<polygon fill="white" stroke="#666666" points="323,-88 184,-88 184,-56 323,-56 323,-88"/>
<text xml:space="preserve" text-anchor="start" x="192" y="-74.5" font-family="Helvetica,sans-Serif" font-size="10.00">NetworkManager::broadcast</text>
<text xml:space="preserve" text-anchor="middle" x="253.5" y="-62.5" font-family="Helvetica,sans-Serif" font-size="10.00">Board</text>
</a>
</g>
</g>
<!-- Node4&#45;&gt;Node7 -->
<g id="edge6_Node000004_Node000007" class="edge">
<title>Node4&#45;&gt;Node7</title>
<g id="a_edge6_Node000004_Node000007"><a xlink:title=" ">
<path fill="none" stroke="#63b8ff" d="M349.48,-73.61C340.76,-73.46 331.97,-73.31 323.42,-73.17"/>
<polygon fill="#63b8ff" stroke="#63b8ff" points="349.29,-77.11 359.34,-73.78 349.4,-70.11 349.29,-77.11"/>
</a>
</g>
</g>
<!-- Node6 -->
<g id="Node000006" class="node">
<title>Node6</title>
<g id="a_Node000006"><a xlink:href="../../da/d21/class_network_manager.html#a9211bd133aed2e5ec776b4d4308b30c4" target="_top" xlink:title=" ">
<polygon fill="white" stroke="#666666" points="148,-132 0,-132 0,-112 148,-112 148,-132"/>
<text xml:space="preserve" text-anchor="middle" x="74" y="-118.5" font-family="Helvetica,sans-Serif" font-size="10.00">NetworkManager::drainEvents</text>
</a>
</g>
</g>
<!-- Node5&#45;&gt;Node6 -->
<g id="edge5_Node000005_Node000006" class="edge">
<title>Node5&#45;&gt;Node6</title>
<g id="a_edge5_Node000005_Node000006"><a xlink:title=" ">
<path fill="none" stroke="#63b8ff" d="M173.12,-122C164.91,-122 156.59,-122 148.44,-122"/>
<polygon fill="#63b8ff" stroke="#63b8ff" points="173.12,-125.5 183.12,-122 173.12,-118.5 173.12,-125.5"/>
</a>
</g>
</g>
<!-- Node9 -->
<g id="Node000009" class="node">
<title>Node9</title>
<g id="a_Node000009"><a xlink:href="../../da/d21/class_network_manager.html#a1548090a456937ffafda64318f21ba40" target="_top" xlink:title=" ">
<polygon fill="white" stroke="#666666" points="323,-32 184,-32 184,0 323,0 323,-32"/>
<text xml:space="preserve" text-anchor="start" x="192" y="-18.5" font-family="Helvetica,sans-Serif" font-size="10.00">NetworkManager::broadcast</text>
<text xml:space="preserve" text-anchor="middle" x="253.5" y="-6.5" font-family="Helvetica,sans-Serif" font-size="10.00">Marker</text>
</a>
</g>
</g>
<!-- Node8&#45;&gt;Node9 -->
<g id="edge8_Node000008_Node000009" class="edge">
<title>Node8&#45;&gt;Node9</title>
<g id="a_edge8_Node000008_Node000009"><a xlink:title=" ">
<path fill="none" stroke="#63b8ff" d="M347.3,-16C339.3,-16 331.25,-16 323.41,-16"/>
<polygon fill="#63b8ff" stroke="#63b8ff" points="347.05,-19.5 357.05,-16 347.05,-12.5 347.05,-19.5"/>
</a>
</g>
</g>
</g>
</svg>
