<?xml version="1.0" encoding="UTF-8" standalone="no"?>
<!DOCTYPE svg PUBLIC "-//W3C//DTD SVG 1.1//EN"
 "http://www.w3.org/Graphics/SVG/1.1/DTD/svg11.dtd">
<!-- Generated by graphviz version 14.0.2 (20251019.1705)
 -->
<!-- Title: PathManager::getCertsPath Pages: 1 -->
<svg width="522pt" height="28pt"
 viewBox="0.00 0.00 522.00 28.00" xmlns="http://www.w3.org/2000/svg" xmlns:xlink="http://www.w3.org/1999/xlink">
<g id="graph0" class="graph" transform="scale(1 1) rotate(0) translate(4 24)">
<title>PathManager::getCertsPath</title>
<!-- Node1 -->
<g id="Node000001" class="node">
<title>Node1</title>
<g id="a_Node000001"><a xlink:title=" ">
<polygon fill="#999999" stroke="#666666" points="513.75,-20 376.25,-20 376.25,0 513.75,0 513.75,-20"/>
<text xml:space="preserve" text-anchor="middle" x="445" y="-6.5" font-family="Helvetica,sans-Serif" font-size="10.00">PathManager::getCertsPath</text>
</a>
</g>
</g>
<!-- Node2 -->
<g id="Node000002" class="node">
<title>Node2</title>
<g id="a_Node000002"><a xlink:href="../../d5/d81/class_network_utilities.html#a3bfeb3ca3a5dd90d37a219b8948c8416" target="_top" xlink:title=" ">
<polygon fill="white" stroke="#666666" points="340.25,-20 206.5,-20 206.5,0 340.25,0 340.25,-20"/>
<text xml:space="preserve" text-anchor="middle" x="273.38" y="-6.5" font-family="Helvetica,sans-Serif" font-size="10.00">NetworkUtilities::setupTLS</text>
</a>
</g>
</g>
<!-- Node1&#45;&gt;Node2 -->
<g id="edge1_Node000001_Node000002" class="edge">
<title>Node1&#45;&gt;Node2</title>
<g id="a_edge1_Node000001_Node000002"><a xlink:title=" ">
<path fill="none" stroke="#63b8ff" d="M364.72,-10C356.7,-10 348.61,-10 340.75,-10"/>
<polygon fill="#63b8ff" stroke="#63b8ff" points="364.47,-13.5 374.47,-10 364.47,-6.5 364.47,-13.5"/>
</a>
</g>
</g>
<!-- Node3 -->
<g id="Node000003" class="node">
<title>Node3</title>
<g id="a_Node000003"><a xlink:href="../../da/d21/class_network_manager.html#a7d2349d09390e513119bdbceb61675b2" target="_top" xlink:title=" ">
<polygon fill="white" stroke="#666666" points="170.5,-20 0,-20 0,0 170.5,0 170.5,-20"/>
<text xml:space="preserve" text-anchor="middle" x="85.25" y="-6.5" font-family="Helvetica,sans-Serif" font-size="10.00">NetworkManager::NetworkManager</text>
</a>
</g>
</g>
<!-- Node2&#45;&gt;Node3 -->
<g id="edge2_Node000002_Node000003" class="edge">
<title>Node2&#45;&gt;Node3</title>
<g id="a_edge2_Node000002_Node000003"><a xlink:title=" ">
<path fill="none" stroke="#63b8ff" d="M194.75,-10C186.82,-10 178.74,-10 170.74,-10"/>
<polygon fill="#63b8ff" stroke="#63b8ff" points="194.72,-13.5 204.72,-10 194.72,-6.5 194.72,-13.5"/>
</a>
</g>
</g>
</g>
</svg>
