<?xml version="1.0" encoding="UTF-8" standalone="no"?>
<!DOCTYPE svg PUBLIC "-//W3C//DTD SVG 1.1//EN"
 "http://www.w3.org/Graphics/SVG/1.1/DTD/svg11.dtd">
<!-- Generated by graphviz version 14.0.2 (20251019.1705)
 -->
<!-- Title: PathManager::getResPath Pages: 1 -->
<svg width="696pt" height="142pt"
 viewBox="0.00 0.00 696.00 142.00" xmlns="http://www.w3.org/2000/svg" xmlns:xlink="http://www.w3.org/1999/xlink">
<g id="graph0" class="graph" transform="scale(1 1) rotate(0) translate(4 137.88)">
<title>PathManager::getResPath</title>
<!-- Node1 -->
<g id="Node000001" class="node">
<title>Node1</title>
<g id="a_Node000001"><a xlink:title=" ">
<polygon fill="#999999" stroke="#666666" points="688,-67.88 556.5,-67.88 556.5,-47.88 688,-47.88 688,-67.88"/>
<text xml:space="preserve" text-anchor="middle" x="622.25" y="-54.38" font-family="Helvetica,sans-Serif" font-size="10.00">PathManager::getResPath</text>
</a>
</g>
</g>
<!-- Node2 -->
<g id="Node000002" class="node">
<title>Node2</title>
<g id="a_Node000002"><a xlink:href="../../de/d2f/class_path_manager.html#af9ba5d87d91f87a8dae1b129dd9151f1" target="_top" xlink:title=" ">
<polygon fill="white" stroke="#666666" points="517.12,-133.88 379.62,-133.88 379.62,-113.88 517.12,-113.88 517.12,-133.88"/>
<text xml:space="preserve" text-anchor="middle" x="448.38" y="-120.38" font-family="Helvetica,sans-Serif" font-size="10.00">PathManager::getCertsPath</text>
</a>
</g>
</g>
<!-- Node1&#45;&gt;Node2 -->
<g id="edge1_Node000001_Node000002" class="edge">
<title>Node1&#45;&gt;Node2</title>
<g id="a_edge1_Node000001_Node000002"><a xlink:title=" ">
<path fill="none" stroke="#63b8ff" d="M591.42,-73.49C571.67,-83.4 544.99,-95.98 520.5,-104.88 511.85,-108.03 502.44,-110.91 493.38,-113.42"/>
<polygon fill="#63b8ff" stroke="#63b8ff" points="592.94,-76.64 600.27,-68.99 589.77,-70.4 592.94,-76.64"/>
</a>
</g>
</g>
<!-- Node5 -->
<g id="Node000005" class="node">
<title>Node5</title>
<g id="a_Node000005"><a xlink:href="../../df/d03/class_u_pn_p_manager.html#a8a0d993c67abd85fef24bab7b9172d5e" target="_top" xlink:title=" ">
<polygon fill="white" stroke="#666666" points="519.75,-95.88 377,-95.88 377,-63.88 519.75,-63.88 519.75,-95.88"/>
<text xml:space="preserve" text-anchor="start" x="385" y="-82.38" font-family="Helvetica,sans-Serif" font-size="10.00">UPnPManager::getLocalIPv4</text>
<text xml:space="preserve" text-anchor="middle" x="448.38" y="-70.38" font-family="Helvetica,sans-Serif" font-size="10.00">Address</text>
</a>
</g>
</g>
<!-- Node1&#45;&gt;Node5 -->
<g id="edge4_Node000001_Node000005" class="edge">
<title>Node1&#45;&gt;Node5</title>
<g id="a_edge4_Node000001_Node000005"><a xlink:title=" ">
<path fill="none" stroke="#63b8ff" d="M545.09,-67.63C536.81,-68.69 528.4,-69.77 520.19,-70.82"/>
<polygon fill="#63b8ff" stroke="#63b8ff" points="545.3,-71.13 554.77,-66.39 544.41,-64.19 545.3,-71.13"/>
</a>
</g>
</g>
<!-- Node6 -->
<g id="Node000006" class="node">
<title>Node6</title>
<g id="a_Node000006"><a xlink:href="../../de/d2f/class_path_manager.html#af231dd6f8ab935d9d3ba5ac0d5713f37" target="_top" xlink:title=" ">
<polygon fill="white" stroke="#666666" points="520.5,-45.88 376.25,-45.88 376.25,-25.88 520.5,-25.88 520.5,-45.88"/>
<text xml:space="preserve" text-anchor="middle" x="448.38" y="-32.38" font-family="Helvetica,sans-Serif" font-size="10.00">PathManager::getShaderPath</text>
</a>
</g>
</g>
<!-- Node1&#45;&gt;Node6 -->
<g id="edge5_Node000001_Node000006" class="edge">
<title>Node1&#45;&gt;Node6</title>
<g id="a_edge5_Node000001_Node000006"><a xlink:title=" ">
<path fill="none" stroke="#63b8ff" d="M544.99,-48.12C536.94,-47.09 528.77,-46.05 520.77,-45.02"/>
<polygon fill="#63b8ff" stroke="#63b8ff" points="544.41,-51.58 554.77,-49.37 545.3,-44.63 544.41,-51.58"/>
</a>
</g>
</g>
<!-- Node8 -->
<g id="Node000008" class="node">
<title>Node8</title>
<g id="a_Node000008"><a xlink:href="../../df/d0a/main_8cpp.html#ae66f6b31b5ad750f1fe042a706a4e3d4" target="_top" xlink:title=" ">
<polygon fill="white" stroke="#666666" points="103.75,-26.88 66.75,-26.88 66.75,-6.88 103.75,-6.88 103.75,-26.88"/>
<text xml:space="preserve" text-anchor="middle" x="85.25" y="-13.38" font-family="Helvetica,sans-Serif" font-size="10.00">main</text>
</a>
</g>
</g>
<!-- Node1&#45;&gt;Node8 -->
<g id="edge8_Node000001_Node000008" class="edge">
<title>Node1&#45;&gt;Node8</title>
<g id="a_edge8_Node000001_Node000008"><a xlink:title=" ">
<path fill="none" stroke="#63b8ff" d="M592.14,-42.52C572.5,-33.05 545.68,-21.81 520.5,-16.88 361.43,14.24 163.25,-6.91 103.86,-14.49"/>
<polygon fill="#63b8ff" stroke="#63b8ff" points="590.38,-45.56 600.9,-46.87 593.5,-39.29 590.38,-45.56"/>
</a>
</g>
</g>
<!-- Node3 -->
<g id="Node000003" class="node">
<title>Node3</title>
<g id="a_Node000003"><a xlink:href="../../d5/d81/class_network_utilities.html#a3bfeb3ca3a5dd90d37a219b8948c8416" target="_top" xlink:title=" ">
<polygon fill="white" stroke="#666666" points="340.25,-133.88 206.5,-133.88 206.5,-113.88 340.25,-113.88 340.25,-133.88"/>
<text xml:space="preserve" text-anchor="middle" x="273.38" y="-120.38" font-family="Helvetica,sans-Serif" font-size="10.00">NetworkUtilities::setupTLS</text>
</a>
</g>
</g>
<!-- Node2&#45;&gt;Node3 -->
<g id="edge2_Node000002_Node000003" class="edge">
<title>Node2&#45;&gt;Node3</title>
<g id="a_edge2_Node000002_Node000003"><a xlink:title=" ">
<path fill="none" stroke="#63b8ff" d="M368,-123.88C358.85,-123.88 349.59,-123.88 340.64,-123.88"/>
<polygon fill="#63b8ff" stroke="#63b8ff" points="367.98,-127.38 377.98,-123.88 367.98,-120.38 367.98,-127.38"/>
</a>
</g>
</g>
<!-- Node4 -->
<g id="Node000004" class="node">
<title>Node4</title>
<g id="a_Node000004"><a xlink:href="../../da/d21/class_network_manager.html#a7d2349d09390e513119bdbceb61675b2" target="_top" xlink:title=" ">
<polygon fill="white" stroke="#666666" points="170.5,-133.88 0,-133.88 0,-113.88 170.5,-113.88 170.5,-133.88"/>
<text xml:space="preserve" text-anchor="middle" x="85.25" y="-120.38" font-family="Helvetica,sans-Serif" font-size="10.00">NetworkManager::NetworkManager</text>
</a>
</g>
</g>
<!-- Node3&#45;&gt;Node4 -->
<g id="edge3_Node000003_Node000004" class="edge">
<title>Node3&#45;&gt;Node4</title>
<g id="a_edge3_Node000003_Node000004"><a xlink:title=" ">
<path fill="none" stroke="#63b8ff" d="M194.75,-123.88C186.82,-123.88 178.74,-123.88 170.74,-123.88"/>
<polygon fill="#63b8ff" stroke="#63b8ff" points="194.72,-127.38 204.72,-123.88 194.72,-120.38 194.72,-127.38"/>
</a>
</g>
</g>
<!-- Node7 -->
<g id="Node000007" class="node">
<title>Node7</title>
<g id="a_Node000007"><a xlink:href="../../d4/d97/class_application_handler.html#afaf00f4f20eca3fec59f8f02f76ef2ce" target="_top" xlink:title=" ">
<polygon fill="white" stroke="#666666" points="332,-45.88 214.75,-45.88 214.75,-25.88 332,-25.88 332,-45.88"/>
<text xml:space="preserve" text-anchor="middle" x="273.38" y="-32.38" font-family="Helvetica,sans-Serif" font-size="10.00">ApplicationHandler::run</text>
</a>
</g>
</g>
<!-- Node6&#45;&gt;Node7 -->
<g id="edge6_Node000006_Node000007" class="edge">
<title>Node6&#45;&gt;Node7</title>
<g id="a_edge6_Node000006_Node000007"><a xlink:title=" ">
<path fill="none" stroke="#63b8ff" d="M364.53,-35.88C353.7,-35.88 342.8,-35.88 332.5,-35.88"/>
<polygon fill="#63b8ff" stroke="#63b8ff" points="364.25,-39.38 374.25,-35.88 364.25,-32.38 364.25,-39.38"/>
</a>
</g>
</g>
<!-- Node7&#45;&gt;Node8 -->
<g id="edge7_Node000007_Node000008" class="edge">
<title>Node7&#45;&gt;Node8</title>
<g id="a_edge7_Node000007_Node000008"><a xlink:title=" ">
<path fill="none" stroke="#63b8ff" d="M203.14,-28.82C167.51,-25.18 126.89,-21.03 104.13,-18.71"/>
<polygon fill="#63b8ff" stroke="#63b8ff" points="202.69,-32.29 213,-29.82 203.41,-25.33 202.69,-32.29"/>
</a>
</g>
</g>
</g>
</svg>
