<?xml version="1.0" encoding="UTF-8" standalone="no"?>
<!DOCTYPE svg PUBLIC "-//W3C//DTD SVG 1.1//EN"
 "http://www.w3.org/Graphics/SVG/1.1/DTD/svg11.dtd">
<!-- Generated by graphviz version 14.0.2 (20251019.1705)
 -->
<!-- Title: PathManager::isFilenameOnly Pages: 1 -->
<svg width="698pt" height="140pt"
 viewBox="0.00 0.00 698.00 140.00" xmlns="http://www.w3.org/2000/svg" xmlns:xlink="http://www.w3.org/1999/xlink">
<g id="graph0" class="graph" transform="scale(1 1) rotate(0) translate(4 136)">
<title>PathManager::isFilenameOnly</title>
<!-- Node1 -->
<g id="Node000001" class="node">
<title>Node1</title>
<g id="a_Node000001"><a xlink:title=" ">
<polygon fill="#999999" stroke="#666666" points="689.5,-51 542.25,-51 542.25,-31 689.5,-31 689.5,-51"/>
<text xml:space="preserve" text-anchor="middle" x="615.88" y="-37.5" font-family="Helvetica,sans-Serif" font-size="10.00">PathManager::isFilenameOnly</text>
</a>
</g>
</g>
<!-- Node2 -->
<g id="Node000002" class="node">
<title>Node2</title>
<g id="a_Node000002"><a xlink:href="../../da/d21/class_network_manager.html#a9faf2055aa0370adbffaa46b7f7181c1" target="_top" xlink:title=" ">
<polygon fill="white" stroke="#666666" points="504,-76 361.25,-76 361.25,-56 504,-56 504,-76"/>
<text xml:space="preserve" text-anchor="middle" x="432.62" y="-62.5" font-family="Helvetica,sans-Serif" font-size="10.00">NetworkManager::sendBoard</text>
</a>
</g>
</g>
<!-- Node1&#45;&gt;Node2 -->
<g id="edge1_Node000001_Node000002" class="edge">
<title>Node1&#45;&gt;Node2</title>
<g id="a_edge1_Node000001_Node000002"><a xlink:title=" ">
<path fill="none" stroke="#63b8ff" d="M530.8,-52.6C521.96,-53.82 513.03,-55.05 504.35,-56.24"/>
<polygon fill="#63b8ff" stroke="#63b8ff" points="531.01,-56.1 540.44,-51.27 530.05,-49.17 531.01,-56.1"/>
</a>
</g>
</g>
<!-- Node6 -->
<g id="Node000006" class="node">
<title>Node6</title>
<g id="a_Node000006"><a xlink:href="../../da/d21/class_network_manager.html#a88303e860c818888a1cdd7d40bc19bf3" target="_top" xlink:title=" ">
<polygon fill="white" stroke="#666666" points="506.25,-32 359,-32 359,-12 506.25,-12 506.25,-32"/>
<text xml:space="preserve" text-anchor="middle" x="432.62" y="-18.5" font-family="Helvetica,sans-Serif" font-size="10.00">NetworkManager::sendMarker</text>
</a>
</g>
</g>
<!-- Node1&#45;&gt;Node6 -->
<g id="edge5_Node000001_Node000006" class="edge">
<title>Node1&#45;&gt;Node6</title>
<g id="a_edge5_Node000001_Node000006"><a xlink:title=" ">
<path fill="none" stroke="#63b8ff" d="M530.69,-32.17C522.68,-31.34 514.6,-30.49 506.71,-29.66"/>
<polygon fill="#63b8ff" stroke="#63b8ff" points="530.12,-35.63 540.43,-33.2 530.85,-28.67 530.12,-35.63"/>
</a>
</g>
</g>
<!-- Node3 -->
<g id="Node000003" class="node">
<title>Node3</title>
<g id="a_Node000003"><a xlink:href="../../da/d21/class_network_manager.html#ac5104e38077637eeeab41e078fa51a5b" target="_top" xlink:title=" ">
<polygon fill="white" stroke="#666666" points="321.88,-132 185.12,-132 185.12,-100 321.88,-100 321.88,-132"/>
<text xml:space="preserve" text-anchor="start" x="193.12" y="-118.5" font-family="Helvetica,sans-Serif" font-size="10.00">NetworkManager::bootstrap</text>
<text xml:space="preserve" text-anchor="middle" x="253.5" y="-106.5" font-family="Helvetica,sans-Serif" font-size="10.00">PeerIfReady</text>
</a>
</g>
</g>
<!-- Node2&#45;&gt;Node3 -->
<g id="edge2_Node000002_Node000003" class="edge">
<title>Node2&#45;&gt;Node3</title>
<g id="a_edge2_Node000002_Node000003"><a xlink:title=" ">
<path fill="none" stroke="#63b8ff" d="M383.51,-79.58C361.71,-85.74 335.75,-93.06 312.85,-99.53"/>
<polygon fill="#63b8ff" stroke="#63b8ff" points="384.36,-82.98 393.04,-76.89 382.46,-76.24 384.36,-82.98"/>
</a>
</g>
</g>
<!-- Node5 -->
<g id="Node000005" class="node">
<title>Node5</title>
<g id="a_Node000005"><a xlink:href="../../da/d21/class_network_manager.html#a8104f62e2e6c3197832dbfe7753853de" target="_top" xlink:title=" ">
<polygon fill="white" stroke="#666666" points="323,-82 184,-82 184,-50 323,-50 323,-82"/>
<text xml:space="preserve" text-anchor="start" x="192" y="-68.5" font-family="Helvetica,sans-Serif" font-size="10.00">NetworkManager::broadcast</text>
<text xml:space="preserve" text-anchor="middle" x="253.5" y="-56.5" font-family="Helvetica,sans-Serif" font-size="10.00">Board</text>
</a>
</g>
</g>
<!-- Node2&#45;&gt;Node5 -->
<g id="edge4_Node000002_Node000005" class="edge">
<title>Node2&#45;&gt;Node5</title>
<g id="a_edge4_Node000002_Node000005"><a xlink:title=" ">
<path fill="none" stroke="#63b8ff" d="M349.48,-66C340.76,-66 331.97,-66 323.42,-66"/>
<polygon fill="#63b8ff" stroke="#63b8ff" points="349.34,-69.5 359.34,-66 349.34,-62.5 349.34,-69.5"/>
</a>
</g>
</g>
<!-- Node4 -->
<g id="Node000004" class="node">
<title>Node4</title>
<g id="a_Node000004"><a xlink:href="../../da/d21/class_network_manager.html#a9211bd133aed2e5ec776b4d4308b30c4" target="_top" xlink:title=" ">
<polygon fill="white" stroke="#666666" points="148,-126 0,-126 0,-106 148,-106 148,-126"/>
<text xml:space="preserve" text-anchor="middle" x="74" y="-112.5" font-family="Helvetica,sans-Serif" font-size="10.00">NetworkManager::drainEvents</text>
</a>
</g>
</g>
<!-- Node3&#45;&gt;Node4 -->
<g id="edge3_Node000003_Node000004" class="edge">
<title>Node3&#45;&gt;Node4</title>
<g id="a_edge3_Node000003_Node000004"><a xlink:title=" ">
<path fill="none" stroke="#63b8ff" d="M173.12,-116C164.91,-116 156.59,-116 148.44,-116"/>
<polygon fill="#63b8ff" stroke="#63b8ff" points="173.12,-119.5 183.12,-116 173.12,-112.5 173.12,-119.5"/>
</a>
</g>
</g>
<!-- Node7 -->
<g id="Node000007" class="node">
<title>Node7</title>
<g id="a_Node000007"><a xlink:href="../../da/d21/class_network_manager.html#a1548090a456937ffafda64318f21ba40" target="_top" xlink:title=" ">
<polygon fill="white" stroke="#666666" points="323,-32 184,-32 184,0 323,0 323,-32"/>
<text xml:space="preserve" text-anchor="start" x="192" y="-18.5" font-family="Helvetica,sans-Serif" font-size="10.00">NetworkManager::broadcast</text>
<text xml:space="preserve" text-anchor="middle" x="253.5" y="-6.5" font-family="Helvetica,sans-Serif" font-size="10.00">Marker</text>
</a>
</g>
</g>
<!-- Node6&#45;&gt;Node7 -->
<g id="edge6_Node000006_Node000007" class="edge">
<title>Node6&#45;&gt;Node7</title>
<g id="a_edge6_Node000006_Node000007"><a xlink:title=" ">
<path fill="none" stroke="#63b8ff" d="M347.3,-19.14C339.3,-18.87 331.25,-18.6 323.41,-18.33"/>
<polygon fill="#63b8ff" stroke="#63b8ff" points="346.93,-22.63 357.05,-19.47 347.17,-15.64 346.93,-22.63"/>
</a>
</g>
</g>
</g>
</svg>
