<?xml version="1.0" encoding="UTF-8" standalone="no"?>
<!DOCTYPE svg PUBLIC "-//W3C//DTD SVG 1.1//EN"
 "http://www.w3.org/Graphics/SVG/1.1/DTD/svg11.dtd">
<!-- Generated by graphviz version 14.0.2 (20251019.1705)
 -->
<!-- Title: PathManager::getMapsPath Pages: 1 -->
<!--zoomable 378 -->

<svg id="main" version="1.1" xmlns="http://www.w3.org/2000/svg" xmlns:xlink="http://www.w3.org/1999/xlink" xml:space="preserve" onload="init(evt)">
<style type="text/css"><![CDATA[
.node, .edge {opacity: 0.7;}
.node.selected, .edge.selected {opacity: 1;}
.edge:hover path { stroke: red; }
.edge:hover polygon { stroke: red; fill: red; }
]]></style>

<defs>
  <circle id="rim" cx="0" cy="0" r="7"/>
  <circle id="rim2" cx="0" cy="0" r="3.5"/>
  <g id="zoomPlus">
    <use xlink:href="#rim" fill="#404040"><set attributeName="fill" to="#808080" begin="zoomplus.mouseover" end="zoomplus.mouseout"/></use>
    <path d="M-4,0h8M0,-4v8" fill="none" stroke="white" stroke-width="1.5" pointer-events="none"/>
  </g>
  <g id="zoomMin">
    <use xlink:href="#rim" fill="#404040"><set attributeName="fill" to="#808080" begin="zoomminus.mouseover" end="zoomminus.mouseout"/></use>
    <path d="M-4,0h8" fill="none" stroke="white" stroke-width="1.5" pointer-events="none"/>
  </g>
  <g id="arrowUp" transform="translate(30 24)">
    <use xlink:href="#rim"/>
    <path pointer-events="none" fill="none" stroke="white" stroke-width="1.5" d="M0,-3.0v7 M-2.5,-0.5L0,-3.0L2.5,-0.5"/>
  </g>
  <g id="arrowRight" transform="rotate(90) translate(36 -43)">
    <use xlink:href="#rim"/>
    <path pointer-events="none" fill="none" stroke="white" stroke-width="1.5" d="M0,-3.0v7 M-2.5,-0.5L0,-3.0L2.5,-0.5"/>
  </g>
  <g id="arrowDown" transform="rotate(180) translate(-30 -48)">
    <use xlink:href="#rim"/>
    <path pointer-events="none" fill="none" stroke="white" stroke-width="1.5" d="M0,-3.0v7 M-2.5,-0.5L0,-3.0L2.5,-0.5"/>
  </g>
  <g id="arrowLeft" transform="rotate(270) translate(-36 17)">
    <use xlink:href="#rim"/>
    <path pointer-events="none" fill="none" stroke="white" stroke-width="1.5" d="M0,-3.0v7 M-2.5,-0.5L0,-3.0L2.5,-0.5"/>
  </g>
  <g id="resetDef">
    <use xlink:href="#rim2" fill="#404040"><set attributeName="fill" to="#808080" begin="reset.mouseover" end="reset.mouseout"/></use>
  </g>
</defs>
<script type="application/ecmascript">
var viewWidth = 1129;
var viewHeight = 378;
var sectionId = 'dynsection-19';
</script>
<script type="application/ecmascript" xlink:href="../../svg.min.js"/>
<svg id="graph" class="graph">
<g id="viewport">
<title>PathManager::getMapsPath</title>
<!-- Node1 -->
<g id="Node000001" class="node">
<title>Node1</title>
<g id="a_Node000001"><a xlink:title=" ">
<polygon fill="#999999" stroke="#666666" points="1120.75,-142 983.25,-142 983.25,-122 1120.75,-122 1120.75,-142"/>
<text xml:space="preserve" text-anchor="middle" x="1052" y="-128.5" font-family="Helvetica,sans-Serif" font-size="10.00">PathManager::getMapsPath</text>
</a>
</g>
</g>
<!-- Node2 -->
<g id="Node000002" class="node">
<title>Node2</title>
<g id="a_Node000002"><a xlink:href="../../d3/d5e/namespace_asset_i_o.html#a8f3732300c549d06588e8fb8e0b08c4b" target="_top" xlink:title=" ">
<polygon fill="white" stroke="#666666" points="918,-275 818,-275 818,-255 918,-255 918,-275"/>
<text xml:space="preserve" text-anchor="middle" x="868" y="-261.5" font-family="Helvetica,sans-Serif" font-size="10.00">AssetIO::assetsDir</text>
</a>
</g>
</g>
<!-- Node1&#45;&gt;Node2 -->
<g id="edge1_Node000001_Node000002" class="edge">
<title>Node1&#45;&gt;Node2</title>
<g id="a_edge1_Node000001_Node000002"><a xlink:title=" ">
<path fill="none" stroke="#63b8ff" d="M1027.85,-148.92C989.65,-176.83 914.52,-231.74 883.21,-254.61"/>
<polygon fill="#63b8ff" stroke="#63b8ff" points="1029.49,-152.06 1035.5,-143.33 1025.36,-146.4 1029.49,-152.06"/>
</a>
</g>
</g>
<!-- Node7 -->
<g id="Node000007" class="node">
<title>Node7</title>
<g id="a_Node000007"><a xlink:href="../../df/d0a/main_8cpp.html#ae66f6b31b5ad750f1fe042a706a4e3d4" target="_top" xlink:title=" ">
<polygon fill="white" stroke="#666666" points="37,-180 0,-180 0,-160 37,-160 37,-180"/>
<text xml:space="preserve" text-anchor="middle" x="18.5" y="-166.5" font-family="Helvetica,sans-Serif" font-size="10.00">main</text>
</a>
</g>
</g>
<!-- Node1&#45;&gt;Node7 -->
<g id="edge19_Node000001_Node000007" class="edge">
<title>Node1&#45;&gt;Node7</title>
<g id="a_edge19_Node000001_Node000007"><a xlink:title=" ">
<path fill="none" stroke="#63b8ff" d="M977.22,-144.17C903.33,-155.28 786.24,-170 684.25,-170 684.25,-170 684.25,-170 303.38,-170 202.84,-170 82.27,-170 37.43,-170"/>
<polygon fill="#63b8ff" stroke="#63b8ff" points="977.4,-147.68 986.76,-142.71 976.35,-140.76 977.4,-147.68"/>
</a>
</g>
</g>
<!-- Node14 -->
<g id="Node000014" class="node">
<title>Node14</title>
<g id="a_Node000014"><a xlink:href="../../de/d2f/class_path_manager.html#a8ab36dc1c3f37bc603cb61f4ba6a90b7" target="_top" xlink:title=" ">
<polygon fill="white" stroke="#666666" points="382.5,-142 226.25,-142 226.25,-122 382.5,-122 382.5,-142"/>
<text xml:space="preserve" text-anchor="middle" x="304.38" y="-128.5" font-family="Helvetica,sans-Serif" font-size="10.00">PathManager::ensureDirectories</text>
</a>
</g>
</g>
<!-- Node1&#45;&gt;Node14 -->
<g id="edge16_Node000001_Node000014" class="edge">
<title>Node1&#45;&gt;Node14</title>
<g id="a_edge16_Node000001_Node000014"><a xlink:title=" ">
<path fill="none" stroke="#63b8ff" d="M971.51,-132C827.51,-132 525.23,-132 382.77,-132"/>
<polygon fill="#63b8ff" stroke="#63b8ff" points="971.34,-135.5 981.34,-132 971.34,-128.5 971.34,-135.5"/>
</a>
</g>
</g>
<!-- Node15 -->
<g id="Node000015" class="node">
<title>Node15</title>
<g id="a_Node000015"><a xlink:href="../../df/d93/class_game_table_manager.html#a90e1af491646e8c881fcb90e75d7fb7e" target="_top" xlink:title=" ">
<polygon fill="white" stroke="#666666" points="947.25,-104 788.75,-104 788.75,-72 947.25,-72 947.25,-104"/>
<text xml:space="preserve" text-anchor="start" x="796.75" y="-90.5" font-family="Helvetica,sans-Serif" font-size="10.00">GameTableManager::GameTable</text>
<text xml:space="preserve" text-anchor="middle" x="868" y="-78.5" font-family="Helvetica,sans-Serif" font-size="10.00">Manager</text>
</a>
</g>
</g>
<!-- Node1&#45;&gt;Node15 -->
<g id="edge18_Node000001_Node000015" class="edge">
<title>Node1&#45;&gt;Node15</title>
<g id="a_edge18_Node000001_Node000015"><a xlink:title=" ">
<path fill="none" stroke="#63b8ff" d="M996.85,-118.91C978.09,-114.37 956.81,-109.23 937.08,-104.46"/>
<polygon fill="#63b8ff" stroke="#63b8ff" points="995.85,-122.27 1006.4,-121.22 997.5,-115.46 995.85,-122.27"/>
</a>
</g>
</g>
<!-- Node16 -->
<g id="Node000016" class="node">
<title>Node16</title>
<g id="a_Node000016"><a xlink:href="../../da/d21/class_network_manager.html#a9faf2055aa0370adbffaa46b7f7181c1" target="_top" xlink:title=" ">
<polygon fill="white" stroke="#666666" points="939.38,-54 796.62,-54 796.62,-34 939.38,-34 939.38,-54"/>
<text xml:space="preserve" text-anchor="middle" x="868" y="-40.5" font-family="Helvetica,sans-Serif" font-size="10.00">NetworkManager::sendBoard</text>
</a>
</g>
</g>
<!-- Node1&#45;&gt;Node16 -->
<g id="edge20_Node000001_Node000016" class="edge">
<title>Node1&#45;&gt;Node16</title>
<g id="a_edge20_Node000001_Node000016"><a xlink:title=" ">
<path fill="none" stroke="#63b8ff" d="M1029.85,-114.7C1009.74,-99.06 978.07,-76.49 947.25,-63 939.57,-59.64 931.19,-56.81 922.86,-54.44"/>
<polygon fill="#63b8ff" stroke="#63b8ff" points="1027.54,-117.33 1037.55,-120.8 1031.89,-111.85 1027.54,-117.33"/>
</a>
</g>
</g>
<!-- Node3 -->
<g id="Node000003" class="node">
<title>Node3</title>
<g id="a_Node000003"><a xlink:href="../../d3/d5e/namespace_asset_i_o.html#a221136262c8cd709c901e55946f3eca9" target="_top" xlink:title=" ">
<polygon fill="white" stroke="#666666" points="738.12,-370 628.38,-370 628.38,-350 738.12,-350 738.12,-370"/>
<text xml:space="preserve" text-anchor="middle" x="683.25" y="-356.5" font-family="Helvetica,sans-Serif" font-size="10.00">AssetIO::deleteAsset</text>
</a>
</g>
</g>
<!-- Node2&#45;&gt;Node3 -->
<g id="edge2_Node000002_Node000003" class="edge">
<title>Node2&#45;&gt;Node3</title>
<g id="a_edge2_Node000002_Node000003"><a xlink:title=" ">
<path fill="none" stroke="#63b8ff" d="M845.59,-282.27C823.5,-299.34 787.48,-325.12 752.75,-341 745.57,-344.28 737.69,-347.11 729.92,-349.51"/>
<polygon fill="#63b8ff" stroke="#63b8ff" points="847.54,-285.19 853.24,-276.26 843.22,-279.69 847.54,-285.19"/>
</a>
</g>
</g>
<!-- Node8 -->
<g id="Node000008" class="node">
<title>Node8</title>
<g id="a_Node000008"><a xlink:href="../../d3/d5e/namespace_asset_i_o.html#a2dde48f62f629e1a03ca0835f8a80908" target="_top" xlink:title=" ">
<polygon fill="white" stroke="#666666" points="747.12,-294 619.38,-294 619.38,-274 747.12,-274 747.12,-294"/>
<text xml:space="preserve" text-anchor="middle" x="683.25" y="-280.5" font-family="Helvetica,sans-Serif" font-size="10.00">AssetIO::importFromPath</text>
</a>
</g>
</g>
<!-- Node2&#45;&gt;Node8 -->
<g id="edge7_Node000002_Node000008" class="edge">
<title>Node2&#45;&gt;Node8</title>
<g id="a_edge7_Node000002_Node000008"><a xlink:title=" ">
<path fill="none" stroke="#63b8ff" d="M806.11,-271.33C787.28,-273.29 766.5,-275.45 747.51,-277.42"/>
<polygon fill="#63b8ff" stroke="#63b8ff" points="806.46,-274.81 816.04,-270.3 805.73,-267.85 806.46,-274.81"/>
</a>
</g>
</g>
<!-- Node11 -->
<g id="Node000011" class="node">
<title>Node11</title>
<g id="a_Node000011"><a xlink:href="../../d3/d5e/namespace_asset_i_o.html#a59ef49474071594c07f8c4620b60ba92" target="_top" xlink:title=" ">
<polygon fill="white" stroke="#666666" points="743.38,-256 623.12,-256 623.12,-236 743.38,-236 743.38,-256"/>
<text xml:space="preserve" text-anchor="middle" x="683.25" y="-242.5" font-family="Helvetica,sans-Serif" font-size="10.00">AssetIO::importFromUrl</text>
</a>
</g>
</g>
<!-- Node2&#45;&gt;Node11 -->
<g id="edge11_Node000002_Node000011" class="edge">
<title>Node2&#45;&gt;Node11</title>
<g id="a_edge11_Node000002_Node000011"><a xlink:title=" ">
<path fill="none" stroke="#63b8ff" d="M806.32,-258.69C786.21,-256.6 763.85,-254.28 743.83,-252.19"/>
<polygon fill="#63b8ff" stroke="#63b8ff" points="805.73,-262.15 816.04,-259.7 806.46,-255.19 805.73,-262.15"/>
</a>
</g>
</g>
<!-- Node12 -->
<g id="Node000012" class="node">
<title>Node12</title>
<g id="a_Node000012"><a xlink:href="../../d3/d5e/namespace_asset_i_o.html#a9745e8f40c71e624d1f3c2670108ff23" target="_top" xlink:title=" ">
<polygon fill="white" stroke="#666666" points="571.75,-218 424.5,-218 424.5,-198 571.75,-198 571.75,-218"/>
<text xml:space="preserve" text-anchor="middle" x="498.12" y="-204.5" font-family="Helvetica,sans-Serif" font-size="10.00">AssetIO::openUrlAssetPopUp</text>
</a>
</g>
</g>
<!-- Node2&#45;&gt;Node12 -->
<g id="edge15_Node000002_Node000012" class="edge">
<title>Node2&#45;&gt;Node12</title>
<g id="a_edge15_Node000002_Node000012"><a xlink:title=" ">
<path fill="none" stroke="#63b8ff" d="M831.03,-250.5C808.84,-242.19 779.58,-232.38 752.75,-227 692.68,-214.95 623.22,-210.38 572.2,-208.72"/>
<polygon fill="#63b8ff" stroke="#63b8ff" points="829.62,-253.71 840.21,-254.01 832.12,-247.17 829.62,-253.71"/>
</a>
</g>
</g>
<!-- Node13 -->
<g id="Node000013" class="node">
<title>Node13</title>
<g id="a_Node000013"><a xlink:href="../../d3/d5e/namespace_asset_i_o.html#a6da5c9b209c7a914fe8080e1545fd616" target="_top" xlink:title=" ">
<polygon fill="white" stroke="#666666" points="734,-332 632.5,-332 632.5,-312 734,-312 734,-332"/>
<text xml:space="preserve" text-anchor="middle" x="683.25" y="-318.5" font-family="Helvetica,sans-Serif" font-size="10.00">AssetIO::listAssets</text>
</a>
</g>
</g>
<!-- Node2&#45;&gt;Node13 -->
<g id="edge13_Node000002_Node000013" class="edge">
<title>Node2&#45;&gt;Node13</title>
<g id="a_edge13_Node000002_Node000013"><a xlink:title=" ">
<path fill="none" stroke="#63b8ff" d="M826.25,-279.11C804.51,-286.49 777.27,-295.53 752.75,-303 743.19,-305.91 732.82,-308.89 723.11,-311.59"/>
<polygon fill="#63b8ff" stroke="#63b8ff" points="827.3,-282.45 835.63,-275.91 825.04,-275.83 827.3,-282.45"/>
</a>
</g>
</g>
<!-- Node4 -->
<g id="Node000004" class="node">
<title>Node4</title>
<g id="a_Node000004"><a xlink:href="../../d3/d5e/namespace_asset_i_o.html#ab942f6ec954acc3ffa2d6d46fd3f8a66" target="_top" xlink:title=" ">
<polygon fill="white" stroke="#666666" points="564.62,-344 431.62,-344 431.62,-312 564.62,-312 564.62,-344"/>
<text xml:space="preserve" text-anchor="start" x="439.62" y="-330.5" font-family="Helvetica,sans-Serif" font-size="10.00">AssetIO::openDeleteAsset</text>
<text xml:space="preserve" text-anchor="middle" x="498.12" y="-318.5" font-family="Helvetica,sans-Serif" font-size="10.00">PopUp</text>
</a>
</g>
</g>
<!-- Node3&#45;&gt;Node4 -->
<g id="edge3_Node000003_Node000004" class="edge">
<title>Node3&#45;&gt;Node4</title>
<g id="a_edge3_Node000003_Node000004"><a xlink:title=" ">
<path fill="none" stroke="#63b8ff" d="M617.36,-348.66C600.37,-345.69 582.05,-342.49 565.01,-339.51"/>
<polygon fill="#63b8ff" stroke="#63b8ff" points="616.35,-352.04 626.81,-350.31 617.56,-345.14 616.35,-352.04"/>
</a>
</g>
</g>
<!-- Node5 -->
<g id="Node000005" class="node">
<title>Node5</title>
<g id="a_Node000005"><a xlink:href="../../d4/d97/class_application_handler.html#a98e49f0d6038bf4caeed77b4d03b003c" target="_top" xlink:title=" ">
<polygon fill="white" stroke="#666666" points="358.88,-262 249.88,-262 249.88,-230 358.88,-230 358.88,-262"/>
<text xml:space="preserve" text-anchor="start" x="257.88" y="-248.5" font-family="Helvetica,sans-Serif" font-size="10.00">ApplicationHandler</text>
<text xml:space="preserve" text-anchor="middle" x="304.38" y="-236.5" font-family="Helvetica,sans-Serif" font-size="10.00">::renderMainMenuBar</text>
</a>
</g>
</g>
<!-- Node4&#45;&gt;Node5 -->
<g id="edge4_Node000004_Node000005" class="edge">
<title>Node4&#45;&gt;Node5</title>
<g id="a_edge4_Node000004_Node000005"><a xlink:title=" ">
<path fill="none" stroke="#63b8ff" d="M431.05,-307.84C426.78,-306.27 422.56,-304.66 418.5,-303 389.18,-291.04 357.05,-274.5 334.55,-262.32"/>
<polygon fill="#63b8ff" stroke="#63b8ff" points="429.72,-311.08 440.31,-311.11 432.05,-304.48 429.72,-311.08"/>
</a>
</g>
</g>
<!-- Node6 -->
<g id="Node000006" class="node">
<title>Node6</title>
<g id="a_Node000006"><a xlink:href="../../d4/d97/class_application_handler.html#afaf00f4f20eca3fec59f8f02f76ef2ce" target="_top" xlink:title=" ">
<polygon fill="white" stroke="#666666" points="190.25,-237 73,-237 73,-217 190.25,-217 190.25,-237"/>
<text xml:space="preserve" text-anchor="middle" x="131.62" y="-223.5" font-family="Helvetica,sans-Serif" font-size="10.00">ApplicationHandler::run</text>
</a>
</g>
</g>
<!-- Node5&#45;&gt;Node6 -->
<g id="edge5_Node000005_Node000006" class="edge">
<title>Node5&#45;&gt;Node6</title>
<g id="a_edge5_Node000005_Node000006"><a xlink:title=" ">
<path fill="none" stroke="#63b8ff" d="M238.57,-238.79C222.85,-237.04 206.13,-235.18 190.73,-233.47"/>
<polygon fill="#63b8ff" stroke="#63b8ff" points="237.99,-242.25 248.31,-239.87 238.76,-235.29 237.99,-242.25"/>
</a>
</g>
</g>
<!-- Node6&#45;&gt;Node7 -->
<g id="edge6_Node000006_Node000007" class="edge">
<title>Node6&#45;&gt;Node7</title>
<g id="a_edge6_Node000006_Node000007"><a xlink:title=" ">
<path fill="none" stroke="#63b8ff" d="M100.25,-211.42C80.02,-201.04 54.12,-187.76 37.19,-179.07"/>
<polygon fill="#63b8ff" stroke="#63b8ff" points="98.4,-214.4 108.9,-215.85 101.6,-208.18 98.4,-214.4"/>
</a>
</g>
</g>
<!-- Node9 -->
<g id="Node000009" class="node">
<title>Node9</title>
<g id="a_Node000009"><a xlink:href="../../d3/d5e/namespace_asset_i_o.html#a0fd129212ac4835f913af0761824df9a" target="_top" xlink:title=" ">
<polygon fill="white" stroke="#666666" points="565.75,-294 430.5,-294 430.5,-274 565.75,-274 565.75,-294"/>
<text xml:space="preserve" text-anchor="middle" x="498.12" y="-280.5" font-family="Helvetica,sans-Serif" font-size="10.00">AssetIO::importFromPicker</text>
</a>
</g>
</g>
<!-- Node8&#45;&gt;Node9 -->
<g id="edge8_Node000008_Node000009" class="edge">
<title>Node8&#45;&gt;Node9</title>
<g id="a_edge8_Node000008_Node000009"><a xlink:title=" ">
<path fill="none" stroke="#63b8ff" d="M607.6,-284C593.88,-284 579.63,-284 566.15,-284"/>
<polygon fill="#63b8ff" stroke="#63b8ff" points="607.46,-287.5 617.46,-284 607.46,-280.5 607.46,-287.5"/>
</a>
</g>
</g>
<!-- Node10 -->
<g id="Node000010" class="node">
<title>Node10</title>
<g id="a_Node000010"><a xlink:href="../../d3/d5e/namespace_asset_i_o.html#ad87dd90acfa0487b69d4a53c32e1940d" target="_top" xlink:title=" ">
<polygon fill="white" stroke="#666666" points="577.75,-256 418.5,-256 418.5,-236 577.75,-236 577.75,-256"/>
<text xml:space="preserve" text-anchor="middle" x="498.12" y="-242.5" font-family="Helvetica,sans-Serif" font-size="10.00">AssetIO::importManyFromPicker</text>
</a>
</g>
</g>
<!-- Node8&#45;&gt;Node10 -->
<g id="edge9_Node000008_Node000010" class="edge">
<title>Node8&#45;&gt;Node10</title>
<g id="a_edge9_Node000008_Node000010"><a xlink:title=" ">
<path fill="none" stroke="#63b8ff" d="M620.63,-271.21C597.49,-266.41 571.48,-261.01 549.48,-256.45"/>
<polygon fill="#63b8ff" stroke="#63b8ff" points="619.74,-274.6 630.24,-273.21 621.16,-267.75 619.74,-274.6"/>
</a>
</g>
</g>
<!-- Node10&#45;&gt;Node5 -->
<g id="edge10_Node000010_Node000005" class="edge">
<title>Node10&#45;&gt;Node5</title>
<g id="a_edge10_Node000010_Node000005"><a xlink:title=" ">
<path fill="none" stroke="#63b8ff" d="M406.8,-246C390.51,-246 374,-246 359.17,-246"/>
<polygon fill="#63b8ff" stroke="#63b8ff" points="406.51,-249.5 416.51,-246 406.51,-242.5 406.51,-249.5"/>
</a>
</g>
</g>
<!-- Node11&#45;&gt;Node12 -->
<g id="edge12_Node000011_Node000012" class="edge">
<title>Node11&#45;&gt;Node12</title>
<g id="a_edge12_Node000011_Node000012"><a xlink:title=" ">
<path fill="none" stroke="#63b8ff" d="M620.63,-233.21C597.49,-228.41 571.48,-223.01 549.48,-218.45"/>
<polygon fill="#63b8ff" stroke="#63b8ff" points="619.74,-236.6 630.24,-235.21 621.16,-229.75 619.74,-236.6"/>
</a>
</g>
</g>
<!-- Node13&#45;&gt;Node4 -->
<g id="edge14_Node000013_Node000004" class="edge">
<title>Node13&#45;&gt;Node4</title>
<g id="a_edge14_Node000013_Node000004"><a xlink:title=" ">
<path fill="none" stroke="#63b8ff" d="M620.71,-324.02C602.77,-324.6 583.1,-325.25 564.91,-325.84"/>
<polygon fill="#63b8ff" stroke="#63b8ff" points="620.82,-327.51 630.7,-323.69 620.59,-320.52 620.82,-327.51"/>
</a>
</g>
</g>
<!-- Node14&#45;&gt;Node7 -->
<g id="edge17_Node000014_Node000007" class="edge">
<title>Node14&#45;&gt;Node7</title>
<g id="a_edge17_Node000014_Node000007"><a xlink:title=" ">
<path fill="none" stroke="#63b8ff" d="M214.61,-138.07C171.63,-141.82 119.4,-147.56 73,-156 60.91,-158.2 47.53,-161.7 37.18,-164.65"/>
<polygon fill="#63b8ff" stroke="#63b8ff" points="214.73,-141.58 224.4,-137.24 214.14,-134.6 214.73,-141.58"/>
</a>
</g>
</g>
<!-- Node17 -->
<g id="Node000017" class="node">
<title>Node17</title>
<g id="a_Node000017"><a xlink:href="../../da/d21/class_network_manager.html#ac5104e38077637eeeab41e078fa51a5b" target="_top" xlink:title=" ">
<polygon fill="white" stroke="#666666" points="751.62,-82 614.88,-82 614.88,-50 751.62,-50 751.62,-82"/>
<text xml:space="preserve" text-anchor="start" x="622.88" y="-68.5" font-family="Helvetica,sans-Serif" font-size="10.00">NetworkManager::bootstrap</text>
<text xml:space="preserve" text-anchor="middle" x="683.25" y="-56.5" font-family="Helvetica,sans-Serif" font-size="10.00">PeerIfReady</text>
</a>
</g>
</g>
<!-- Node16&#45;&gt;Node17 -->
<g id="edge21_Node000016_Node000017" class="edge">
<title>Node16&#45;&gt;Node17</title>
<g id="a_edge21_Node000016_Node000017"><a xlink:title=" ">
<path fill="none" stroke="#63b8ff" d="M784.96,-53.88C773.94,-55.2 762.75,-56.55 752.02,-57.84"/>
<polygon fill="#63b8ff" stroke="#63b8ff" points="785.33,-57.36 794.84,-52.69 784.49,-50.41 785.33,-57.36"/>
</a>
</g>
</g>
<!-- Node19 -->
<g id="Node000019" class="node">
<title>Node19</title>
<g id="a_Node000019"><a xlink:href="../../da/d21/class_network_manager.html#a8104f62e2e6c3197832dbfe7753853de" target="_top" xlink:title=" ">
<polygon fill="white" stroke="#666666" points="752.75,-32 613.75,-32 613.75,0 752.75,0 752.75,-32"/>
<text xml:space="preserve" text-anchor="start" x="621.75" y="-18.5" font-family="Helvetica,sans-Serif" font-size="10.00">NetworkManager::broadcast</text>
<text xml:space="preserve" text-anchor="middle" x="683.25" y="-6.5" font-family="Helvetica,sans-Serif" font-size="10.00">Board</text>
</a>
</g>
</g>
<!-- Node16&#45;&gt;Node19 -->
<g id="edge23_Node000016_Node000019" class="edge">
<title>Node16&#45;&gt;Node19</title>
<g id="a_edge23_Node000016_Node000019"><a xlink:title=" ">
<path fill="none" stroke="#63b8ff" d="M787.38,-31.8C775.95,-30.05 764.28,-28.26 753.09,-26.55"/>
<polygon fill="#63b8ff" stroke="#63b8ff" points="786.78,-35.25 797.19,-33.3 787.84,-28.33 786.78,-35.25"/>
</a>
</g>
</g>
<!-- Node18 -->
<g id="Node000018" class="node">
<title>Node18</title>
<g id="a_Node000018"><a xlink:href="../../da/d21/class_network_manager.html#a9211bd133aed2e5ec776b4d4308b30c4" target="_top" xlink:title=" ">
<polygon fill="white" stroke="#666666" points="572.12,-76 424.12,-76 424.12,-56 572.12,-56 572.12,-76"/>
<text xml:space="preserve" text-anchor="middle" x="498.12" y="-62.5" font-family="Helvetica,sans-Serif" font-size="10.00">NetworkManager::drainEvents</text>
</a>
</g>
</g>
<!-- Node17&#45;&gt;Node18 -->
<g id="edge22_Node000017_Node000018" class="edge">
<title>Node17&#45;&gt;Node18</title>
<g id="a_edge22_Node000017_Node000018"><a xlink:title=" ">
<path fill="none" stroke="#63b8ff" d="M603.15,-66C592.93,-66 582.49,-66 572.36,-66"/>
<polygon fill="#63b8ff" stroke="#63b8ff" points="603.07,-69.5 613.07,-66 603.07,-62.5 603.07,-69.5"/>
</a>
</g>
</g>
</g>
</svg>

<g id="navigator" transform="translate(0 0)" fill="#404254">
  <rect fill="#f2f5e9" fill-opacity="0.5" stroke="#606060" stroke-width=".5" x="0" y="0" width="60" height="60"/>
  <use id="zoomplus" xlink:href="#zoomPlus" x="17" y="9" onmousedown="handleZoom(evt,'in')"/>
  <use id="zoomminus" xlink:href="#zoomMin" x="42" y="9" onmousedown="handleZoom(evt,'out')"/>
  <use id="reset" xlink:href="#resetDef" x="30" y="36" onmousedown="handleReset()"/>
   <use id="arrowup" xlink:href="#arrowUp" x="0" y="0" onmousedown="handlePan(0,-1)"/>
  <use id="arrowright" xlink:href="#arrowRight" x="0" y="0" onmousedown="handlePan(1,0)"/>
  <use id="arrowdown" xlink:href="#arrowDown" x="0" y="0" onmousedown="handlePan(0,1)"/>
  <use id="arrowleft" xlink:href="#arrowLeft" x="0" y="0" onmousedown="handlePan(-1,0)"/>
</g>
<svg viewBox="0 0 15 15" width="100%" height="30px" preserveAspectRatio="xMaxYMin meet">
 <g id="arrow_out" transform="scale(0.3 0.3)">
  <a xlink:href="class_path_manager_ae75b72eb67617d77136a829eb73c7e8f_icgraph_org.svg" target="_base">
   <rect id="button" ry="5" rx="5" y="6" x="6" height="38" width="38"
        fill="#f2f5e9" fill-opacity="0.5" stroke="#606060" stroke-width="1.0"/>
   <path id="arrow"
     d="M 11.500037,31.436501 C 11.940474,20.09759 22.043105,11.32322 32.158766,21.979434 L 37.068811,17.246167 C 37.068811,17.246167 37.088388,32 37.088388,32 L 22.160133,31.978069 C 22.160133,31.978069 26.997745,27.140456 26.997745,27.140456 C 18.528582,18.264221 13.291696,25.230495 11.500037,31.436501 z"
     style="fill:#404040;"/>
  </a>
 </g>
</svg>

<style type='text/css'>
<![CDATA[
[data-mouse-over-selected='false'] { opacity: 0.7; }
[data-mouse-over-selected='true']  { opacity: 1.0; }
]]>
</style>
<script type="application/ecmascript"><![CDATA[
document.addEventListener('DOMContentLoaded', (event) => {
  highlightEdges();
  highlightAdjacentNodes();
});
]]></script>
</svg>
