<?xml version="1.0" encoding="UTF-8" standalone="no"?>
<!DOCTYPE svg PUBLIC "-//W3C//DTD SVG 1.1//EN"
 "http://www.w3.org/Graphics/SVG/1.1/DTD/svg11.dtd">
<!-- Generated by graphviz version 14.0.2 (20251019.1705)
 -->
<!-- Title: PathManager::getExternalPath Pages: 1 -->
<!--zoomable 147 -->

<svg id="main" version="1.1" xmlns="http://www.w3.org/2000/svg" xmlns:xlink="http://www.w3.org/1999/xlink" xml:space="preserve" onload="init(evt)">
<style type="text/css"><![CDATA[
.node, .edge {opacity: 0.7;}
.node.selected, .edge.selected {opacity: 1;}
.edge:hover path { stroke: red; }
.edge:hover polygon { stroke: red; fill: red; }
]]></style>

<defs>
  <circle id="rim" cx="0" cy="0" r="7"/>
  <circle id="rim2" cx="0" cy="0" r="3.5"/>
  <g id="zoomPlus">
    <use xlink:href="#rim" fill="#404040"><set attributeName="fill" to="#808080" begin="zoomplus.mouseover" end="zoomplus.mouseout"/></use>
    <path d="M-4,0h8M0,-4v8" fill="none" stroke="white" stroke-width="1.5" pointer-events="none"/>
  </g>
  <g id="zoomMin">
    <use xlink:href="#rim" fill="#404040"><set attributeName="fill" to="#808080" begin="zoomminus.mouseover" end="zoomminus.mouseout"/></use>
    <path d="M-4,0h8" fill="none" stroke="white" stroke-width="1.5" pointer-events="none"/>
  </g>
  <g id="arrowUp" transform="translate(30 24)">
    <use xlink:href="#rim"/>
    <path pointer-events="none" fill="none" stroke="white" stroke-width="1.5" d="M0,-3.0v7 M-2.5,-0.5L0,-3.0L2.5,-0.5"/>
  </g>
  <g id="arrowRight" transform="rotate(90) translate(36 -43)">
    <use xlink:href="#rim"/>
    <path pointer-events="none" fill="none" stroke="white" stroke-width="1.5" d="M0,-3.0v7 M-2.5,-0.5L0,-3.0L2.5,-0.5"/>
  </g>
  <g id="arrowDown" transform="rotate(180) translate(-30 -48)">
    <use xlink:href="#rim"/>
    <path pointer-events="none" fill="none" stroke="white" stroke-width="1.5" d="M0,-3.0v7 M-2.5,-0.5L0,-3.0L2.5,-0.5"/>
  </g>
  <g id="arrowLeft" transform="rotate(270) translate(-36 17)">
    <use xlink:href="#rim"/>
    <path pointer-events="none" fill="none" stroke="white" stroke-width="1.5" d="M0,-3.0v7 M-2.5,-0.5L0,-3.0L2.5,-0.5"/>
  </g>
  <g id="resetDef">
    <use xlink:href="#rim2" fill="#404040"><set attributeName="fill" to="#808080" begin="reset.mouseover" end="reset.mouseout"/></use>
  </g>
</defs>
<script type="application/ecmascript">
var viewWidth = 879;
var viewHeight = 147;
var sectionId = 'dynsection-12';
</script>
<script type="application/ecmascript" xlink:href="../../svg.min.js"/>
<svg id="graph" class="graph">
<g id="viewport">
<title>PathManager::getExternalPath</title>
<!-- Node1 -->
<g id="Node000001" class="node">
<title>Node1</title>
<g id="a_Node000001"><a xlink:title=" ">
<polygon fill="#999999" stroke="#666666" points="870.5,-61 721,-61 721,-41 870.5,-41 870.5,-61"/>
<text xml:space="preserve" text-anchor="middle" x="795.75" y="-47.5" font-family="Helvetica,sans-Serif" font-size="10.00">PathManager::getExternalPath</text>
</a>
</g>
</g>
<!-- Node2 -->
<g id="Node000002" class="node">
<title>Node2</title>
<g id="a_Node000002"><a xlink:href="../../de/d2f/class_path_manager.html#a96a013e3353b4e4c80ad9232e18f8472" target="_top" xlink:title=" ">
<polygon fill="white" stroke="#666666" points="680.88,-139 535.12,-139 535.12,-107 680.88,-107 680.88,-139"/>
<text xml:space="preserve" text-anchor="start" x="543.12" y="-125.5" font-family="Helvetica,sans-Serif" font-size="10.00">PathManager::getLocalTunnel</text>
<text xml:space="preserve" text-anchor="middle" x="608" y="-113.5" font-family="Helvetica,sans-Serif" font-size="10.00">ClientPath</text>
</a>
</g>
</g>
<!-- Node1&#45;&gt;Node2 -->
<g id="edge1_Node000001_Node000002" class="edge">
<title>Node1&#45;&gt;Node2</title>
<g id="a_edge1_Node000001_Node000002"><a xlink:title=" ">
<path fill="none" stroke="#63b8ff" d="M761.58,-66.09C739.97,-75.71 711.04,-88.16 685,-98 677.33,-100.9 669.16,-103.79 661.13,-106.52"/>
<polygon fill="#63b8ff" stroke="#63b8ff" points="762.79,-69.39 770.48,-62.11 759.92,-63 762.79,-69.39"/>
</a>
</g>
</g>
<!-- Node3 -->
<g id="Node000003" class="node">
<title>Node3</title>
<g id="a_Node000003"><a xlink:href="../../de/d2f/class_path_manager.html#a84566186a965025393fe31a9cfb50299" target="_top" xlink:title=" ">
<polygon fill="white" stroke="#666666" points="680.88,-89 535.12,-89 535.12,-57 680.88,-57 680.88,-89"/>
<text xml:space="preserve" text-anchor="start" x="543.12" y="-75.5" font-family="Helvetica,sans-Serif" font-size="10.00">PathManager::getLocalTunnel</text>
<text xml:space="preserve" text-anchor="middle" x="608" y="-63.5" font-family="Helvetica,sans-Serif" font-size="10.00">ControllerPath</text>
</a>
</g>
</g>
<!-- Node1&#45;&gt;Node3 -->
<g id="edge2_Node000001_Node000003" class="edge">
<title>Node1&#45;&gt;Node3</title>
<g id="a_edge2_Node000001_Node000003"><a xlink:title=" ">
<path fill="none" stroke="#63b8ff" d="M709.22,-61.13C699.88,-62.24 690.44,-63.35 681.28,-64.44"/>
<polygon fill="#63b8ff" stroke="#63b8ff" points="709.51,-64.62 719.03,-59.97 708.69,-57.67 709.51,-64.62"/>
</a>
</g>
</g>
<!-- Node8 -->
<g id="Node000008" class="node">
<title>Node8</title>
<g id="a_Node000008"><a xlink:href="../../de/d2f/class_path_manager.html#a8995cf2a53dfcf82d99d80695396031a" target="_top" xlink:title=" ">
<polygon fill="white" stroke="#666666" points="685,-39 531,-39 531,-19 685,-19 685,-39"/>
<text xml:space="preserve" text-anchor="middle" x="608" y="-25.5" font-family="Helvetica,sans-Serif" font-size="10.00">PathManager::getNodeExePath</text>
</a>
</g>
</g>
<!-- Node1&#45;&gt;Node8 -->
<g id="edge7_Node000001_Node000008" class="edge">
<title>Node1&#45;&gt;Node8</title>
<g id="a_edge7_Node000001_Node000008"><a xlink:title=" ">
<path fill="none" stroke="#63b8ff" d="M709.27,-40.88C701.25,-39.93 693.15,-38.97 685.22,-38.03"/>
<polygon fill="#63b8ff" stroke="#63b8ff" points="708.69,-44.33 719.03,-42.03 709.51,-37.38 708.69,-44.33"/>
</a>
</g>
</g>
<!-- Node9 -->
<g id="Node000009" class="node">
<title>Node9</title>
<g id="a_Node000009"><a xlink:href="../../df/d0a/main_8cpp.html#ae66f6b31b5ad750f1fe042a706a4e3d4" target="_top" xlink:title=" ">
<polygon fill="white" stroke="#666666" points="446.25,-20 409.25,-20 409.25,0 446.25,0 446.25,-20"/>
<text xml:space="preserve" text-anchor="middle" x="427.75" y="-6.5" font-family="Helvetica,sans-Serif" font-size="10.00">main</text>
</a>
</g>
</g>
<!-- Node1&#45;&gt;Node9 -->
<g id="edge10_Node000001_Node000009" class="edge">
<title>Node1&#45;&gt;Node9</title>
<g id="a_edge10_Node000001_Node000009"><a xlink:title=" ">
<path fill="none" stroke="#63b8ff" d="M763.48,-35.89C741.97,-26.37 712.44,-14.96 685,-10 596.79,5.94 488.68,-3.21 446.65,-7.83"/>
<polygon fill="#63b8ff" stroke="#63b8ff" points="762.01,-39.07 772.56,-40.03 764.91,-32.7 762.01,-39.07"/>
</a>
</g>
</g>
<!-- Node4 -->
<g id="Node000004" class="node">
<title>Node4</title>
<g id="a_Node000004"><a xlink:href="../../d5/d81/class_network_utilities.html#ac0655968aa7b9e06f7566343e0d2e567" target="_top" xlink:title=" ">
<polygon fill="white" stroke="#666666" points="495,-79 360.5,-79 360.5,-47 495,-47 495,-79"/>
<text xml:space="preserve" text-anchor="start" x="368.5" y="-65.5" font-family="Helvetica,sans-Serif" font-size="10.00">NetworkUtilities::startLocal</text>
<text xml:space="preserve" text-anchor="middle" x="427.75" y="-53.5" font-family="Helvetica,sans-Serif" font-size="10.00">Tunnel</text>
</a>
</g>
</g>
<!-- Node3&#45;&gt;Node4 -->
<g id="edge3_Node000003_Node000004" class="edge">
<title>Node3&#45;&gt;Node4</title>
<g id="a_edge3_Node000003_Node000004"><a xlink:title=" ">
<path fill="none" stroke="#63b8ff" d="M523.36,-68.31C513.96,-67.78 504.48,-67.25 495.34,-66.74"/>
<polygon fill="#63b8ff" stroke="#63b8ff" points="523.06,-71.8 533.24,-68.86 523.46,-64.81 523.06,-71.8"/>
</a>
</g>
</g>
<!-- Node5 -->
<g id="Node000005" class="node">
<title>Node5</title>
<g id="a_Node000005"><a xlink:href="../../da/d21/class_network_manager.html#a0f4f9de49973a81889e18034343a512e" target="_top" xlink:title=" ">
<polygon fill="white" stroke="#666666" points="312.5,-92 192.25,-92 192.25,-72 312.5,-72 312.5,-92"/>
<text xml:space="preserve" text-anchor="middle" x="252.38" y="-78.5" font-family="Helvetica,sans-Serif" font-size="10.00">NetworkManager::setup</text>
</a>
</g>
</g>
<!-- Node4&#45;&gt;Node5 -->
<g id="edge4_Node000004_Node000005" class="edge">
<title>Node4&#45;&gt;Node5</title>
<g id="a_edge4_Node000004_Node000005"><a xlink:title=" ">
<path fill="none" stroke="#63b8ff" d="M348.77,-71.55C336.74,-72.86 324.48,-74.21 312.93,-75.47"/>
<polygon fill="#63b8ff" stroke="#63b8ff" points="349.15,-75.03 358.71,-70.46 348.39,-68.07 349.15,-75.03"/>
</a>
</g>
</g>
<!-- Node6 -->
<g id="Node000006" class="node">
<title>Node6</title>
<g id="a_Node000006"><a xlink:href="../../da/d21/class_network_manager.html#a183ff98131c32d577308340999b4de18" target="_top" xlink:title=" ">
<polygon fill="white" stroke="#666666" points="324.5,-54 180.25,-54 180.25,-34 324.5,-34 324.5,-54"/>
<text xml:space="preserve" text-anchor="middle" x="252.38" y="-40.5" font-family="Helvetica,sans-Serif" font-size="10.00">NetworkManager::startServer</text>
</a>
</g>
</g>
<!-- Node4&#45;&gt;Node6 -->
<g id="edge5_Node000004_Node000006" class="edge">
<title>Node4&#45;&gt;Node6</title>
<g id="a_edge5_Node000004_Node000006"><a xlink:title=" ">
<path fill="none" stroke="#63b8ff" d="M348.98,-54.48C340.97,-53.6 332.86,-52.71 324.92,-51.84"/>
<polygon fill="#63b8ff" stroke="#63b8ff" points="348.39,-57.93 358.71,-55.54 349.15,-50.97 348.39,-57.93"/>
</a>
</g>
</g>
<!-- Node7 -->
<g id="Node000007" class="node">
<title>Node7</title>
<g id="a_Node000007"><a xlink:href="../../da/d21/class_network_manager.html#adef56253674bd7ebd40bf73c629feed2" target="_top" xlink:title=" ">
<polygon fill="white" stroke="#666666" points="144.25,-54 0,-54 0,-34 144.25,-34 144.25,-54"/>
<text xml:space="preserve" text-anchor="middle" x="72.12" y="-40.5" font-family="Helvetica,sans-Serif" font-size="10.00">NetworkManager::startServer</text>
</a>
</g>
</g>
<!-- Node6&#45;&gt;Node7 -->
<g id="edge6_Node000006_Node000007" class="edge">
<title>Node6&#45;&gt;Node7</title>
<g id="a_edge6_Node000006_Node000007"><a xlink:title=" ">
<path fill="none" stroke="#63b8ff" d="M168.63,-44C160.61,-44 152.52,-44 144.62,-44"/>
<polygon fill="#63b8ff" stroke="#63b8ff" points="168.39,-47.5 178.39,-44 168.39,-40.5 168.39,-47.5"/>
</a>
</g>
</g>
<!-- Node8&#45;&gt;Node4 -->
<g id="edge9_Node000008_Node000004" class="edge">
<title>Node8&#45;&gt;Node4</title>
<g id="a_edge9_Node000008_Node000004"><a xlink:title=" ">
<path fill="none" stroke="#63b8ff" d="M540.92,-41.6C526.07,-44.44 510.3,-47.44 495.43,-50.28"/>
<polygon fill="#63b8ff" stroke="#63b8ff" points="541.41,-45.07 550.58,-39.76 540.1,-38.2 541.41,-45.07"/>
</a>
</g>
</g>
<!-- Node8&#45;&gt;Node9 -->
<g id="edge8_Node000008_Node000009" class="edge">
<title>Node8&#45;&gt;Node9</title>
<g id="a_edge8_Node000008_Node000009"><a xlink:title=" ">
<path fill="none" stroke="#63b8ff" d="M519.24,-19.65C491.58,-16.7 463.75,-13.73 446.4,-11.88"/>
<polygon fill="#63b8ff" stroke="#63b8ff" points="518.81,-23.12 529.13,-20.7 519.55,-16.16 518.81,-23.12"/>
</a>
</g>
</g>
</g>
</svg>

<g id="navigator" transform="translate(0 0)" fill="#404254">
  <rect fill="#f2f5e9" fill-opacity="0.5" stroke="#606060" stroke-width=".5" x="0" y="0" width="60" height="60"/>
  <use id="zoomplus" xlink:href="#zoomPlus" x="17" y="9" onmousedown="handleZoom(evt,'in')"/>
  <use id="zoomminus" xlink:href="#zoomMin" x="42" y="9" onmousedown="handleZoom(evt,'out')"/>
  <use id="reset" xlink:href="#resetDef" x="30" y="36" onmousedown="handleReset()"/>
   <use id="arrowup" xlink:href="#arrowUp" x="0" y="0" onmousedown="handlePan(0,-1)"/>
  <use id="arrowright" xlink:href="#arrowRight" x="0" y="0" onmousedown="handlePan(1,0)"/>
  <use id="arrowdown" xlink:href="#arrowDown" x="0" y="0" onmousedown="handlePan(0,1)"/>
  <use id="arrowleft" xlink:href="#arrowLeft" x="0" y="0" onmousedown="handlePan(-1,0)"/>
</g>
<svg viewBox="0 0 15 15" width="100%" height="30px" preserveAspectRatio="xMaxYMin meet">
 <g id="arrow_out" transform="scale(0.3 0.3)">
  <a xlink:href="class_path_manager_a8bc07ea0ad8692223d1743e442b48e26_icgraph_org.svg" target="_base">
   <rect id="button" ry="5" rx="5" y="6" x="6" height="38" width="38"
        fill="#f2f5e9" fill-opacity="0.5" stroke="#606060" stroke-width="1.0"/>
   <path id="arrow"
     d="M 11.500037,31.436501 C 11.940474,20.09759 22.043105,11.32322 32.158766,21.979434 L 37.068811,17.246167 C 37.068811,17.246167 37.088388,32 37.088388,32 L 22.160133,31.978069 C 22.160133,31.978069 26.997745,27.140456 26.997745,27.140456 C 18.528582,18.264221 13.291696,25.230495 11.500037,31.436501 z"
     style="fill:#404040;"/>
  </a>
 </g>
</svg>

<style type='text/css'>
<![CDATA[
[data-mouse-over-selected='false'] { opacity: 0.7; }
[data-mouse-over-selected='true']  { opacity: 1.0; }
]]>
</style>
<script type="application/ecmascript"><![CDATA[
document.addEventListener('DOMContentLoaded', (event) => {
  highlightEdges();
  highlightAdjacentNodes();
});
]]></script>
</svg>
