<?xml version="1.0" encoding="UTF-8" standalone="no"?>
<!DOCTYPE svg PUBLIC "-//W3C//DTD SVG 1.1//EN"
 "http://www.w3.org/Graphics/SVG/1.1/DTD/svg11.dtd">
<!-- Generated by graphviz version 14.0.2 (20251019.1705)
 -->
<!-- Title: PathManager::getMarkersPath Pages: 1 -->
<svg width="1129pt" height="306pt"
 viewBox="0.00 0.00 1129.00 306.00" xmlns="http://www.w3.org/2000/svg" xmlns:xlink="http://www.w3.org/1999/xlink">
<g id="graph0" class="graph" transform="scale(1 1) rotate(0) translate(4 302)">
<title>PathManager::getMarkersPath</title>
<!-- Node1 -->
<g id="Node000001" class="node">
<title>Node1</title>
<g id="a_Node000001"><a xlink:title=" ">
<polygon fill="#999999" stroke="#666666" points="1120.75,-89 972,-89 972,-69 1120.75,-69 1120.75,-89"/>
<text xml:space="preserve" text-anchor="middle" x="1046.38" y="-75.5" font-family="Helvetica,sans-Serif" font-size="10.00">PathManager::getMarkersPath</text>
</a>
</g>
</g>
<!-- Node2 -->
<g id="Node000002" class="node">
<title>Node2</title>
<g id="a_Node000002"><a xlink:href="../../d3/d5e/namespace_asset_i_o.html#a8f3732300c549d06588e8fb8e0b08c4b" target="_top" xlink:title=" ">
<polygon fill="white" stroke="#666666" points="912.38,-203 812.38,-203 812.38,-183 912.38,-183 912.38,-203"/>
<text xml:space="preserve" text-anchor="middle" x="862.38" y="-189.5" font-family="Helvetica,sans-Serif" font-size="10.00">AssetIO::assetsDir</text>
</a>
</g>
</g>
<!-- Node1&#45;&gt;Node2 -->
<g id="edge1_Node000001_Node000002" class="edge">
<title>Node1&#45;&gt;Node2</title>
<g id="a_edge1_Node000001_Node000002"><a xlink:title=" ">
<path fill="none" stroke="#63b8ff" d="M1019.53,-95.19C981.56,-118.97 911.74,-162.7 879.94,-182.62"/>
<polygon fill="#63b8ff" stroke="#63b8ff" points="1021,-98.4 1027.62,-90.12 1017.29,-92.46 1021,-98.4"/>
</a>
</g>
</g>
<!-- Node7 -->
<g id="Node000007" class="node">
<title>Node7</title>
<g id="a_Node000007"><a xlink:href="../../df/d0a/main_8cpp.html#ae66f6b31b5ad750f1fe042a706a4e3d4" target="_top" xlink:title=" ">
<polygon fill="white" stroke="#666666" points="37,-108 0,-108 0,-88 37,-88 37,-108"/>
<text xml:space="preserve" text-anchor="middle" x="18.5" y="-94.5" font-family="Helvetica,sans-Serif" font-size="10.00">main</text>
</a>
</g>
</g>
<!-- Node1&#45;&gt;Node7 -->
<g id="edge18_Node000001_Node000007" class="edge">
<title>Node1&#45;&gt;Node7</title>
<g id="a_edge18_Node000001_Node000007"><a xlink:title=" ">
<path fill="none" stroke="#63b8ff" d="M960.35,-86C887.21,-91.42 778.86,-98 684.25,-98 684.25,-98 684.25,-98 303.38,-98 202.84,-98 82.27,-98 37.43,-98"/>
<polygon fill="#63b8ff" stroke="#63b8ff" points="960.56,-89.49 970.27,-85.26 960.03,-82.51 960.56,-89.49"/>
</a>
</g>
</g>
<!-- Node14 -->
<g id="Node000014" class="node">
<title>Node14</title>
<g id="a_Node000014"><a xlink:href="../../de/d2f/class_path_manager.html#a8ab36dc1c3f37bc603cb61f4ba6a90b7" target="_top" xlink:title=" ">
<polygon fill="white" stroke="#666666" points="382.5,-70 226.25,-70 226.25,-50 382.5,-50 382.5,-70"/>
<text xml:space="preserve" text-anchor="middle" x="304.38" y="-56.5" font-family="Helvetica,sans-Serif" font-size="10.00">PathManager::ensureDirectories</text>
</a>
</g>
</g>
<!-- Node1&#45;&gt;Node14 -->
<g id="edge16_Node000001_Node000014" class="edge">
<title>Node1&#45;&gt;Node14</title>
<g id="a_edge16_Node000001_Node000014"><a xlink:title=" ">
<path fill="none" stroke="#63b8ff" d="M960.27,-76.81C815.28,-73.09 522.53,-65.58 382.89,-61.99"/>
<polygon fill="#63b8ff" stroke="#63b8ff" points="960.12,-80.31 970.2,-77.07 960.3,-73.31 960.12,-80.31"/>
</a>
</g>
</g>
<!-- Node15 -->
<g id="Node000015" class="node">
<title>Node15</title>
<g id="a_Node000015"><a xlink:href="../../da/d21/class_network_manager.html#a88303e860c818888a1cdd7d40bc19bf3" target="_top" xlink:title=" ">
<polygon fill="white" stroke="#666666" points="936,-29 788.75,-29 788.75,-9 936,-9 936,-29"/>
<text xml:space="preserve" text-anchor="middle" x="862.38" y="-15.5" font-family="Helvetica,sans-Serif" font-size="10.00">NetworkManager::sendMarker</text>
</a>
</g>
</g>
<!-- Node1&#45;&gt;Node15 -->
<g id="edge19_Node000001_Node000015" class="edge">
<title>Node1&#45;&gt;Node15</title>
<g id="a_edge19_Node000001_Node000015"><a xlink:title=" ">
<path fill="none" stroke="#63b8ff" d="M1002.98,-65.03C969.99,-54.15 924.92,-39.29 895.02,-29.43"/>
<polygon fill="#63b8ff" stroke="#63b8ff" points="1001.64,-68.27 1012.24,-68.07 1003.83,-61.62 1001.64,-68.27"/>
</a>
</g>
</g>
<!-- Node3 -->
<g id="Node000003" class="node">
<title>Node3</title>
<g id="a_Node000003"><a xlink:href="../../d3/d5e/namespace_asset_i_o.html#a221136262c8cd709c901e55946f3eca9" target="_top" xlink:title=" ">
<polygon fill="white" stroke="#666666" points="738.12,-298 628.38,-298 628.38,-278 738.12,-278 738.12,-298"/>
<text xml:space="preserve" text-anchor="middle" x="683.25" y="-284.5" font-family="Helvetica,sans-Serif" font-size="10.00">AssetIO::deleteAsset</text>
</a>
</g>
</g>
<!-- Node2&#45;&gt;Node3 -->
<g id="edge2_Node000002_Node000003" class="edge">
<title>Node2&#45;&gt;Node3</title>
<g id="a_edge2_Node000002_Node000003"><a xlink:title=" ">
<path fill="none" stroke="#63b8ff" d="M840.89,-210.56C819.98,-227.68 785.97,-253.34 752.75,-269 745.72,-272.32 738,-275.15 730.35,-277.54"/>
<polygon fill="#63b8ff" stroke="#63b8ff" points="842.92,-213.43 848.36,-204.34 838.44,-208.05 842.92,-213.43"/>
</a>
</g>
</g>
<!-- Node8 -->
<g id="Node000008" class="node">
<title>Node8</title>
<g id="a_Node000008"><a xlink:href="../../d3/d5e/namespace_asset_i_o.html#a2dde48f62f629e1a03ca0835f8a80908" target="_top" xlink:title=" ">
<polygon fill="white" stroke="#666666" points="747.12,-222 619.38,-222 619.38,-202 747.12,-202 747.12,-222"/>
<text xml:space="preserve" text-anchor="middle" x="683.25" y="-208.5" font-family="Helvetica,sans-Serif" font-size="10.00">AssetIO::importFromPath</text>
</a>
</g>
</g>
<!-- Node2&#45;&gt;Node8 -->
<g id="edge7_Node000002_Node000008" class="edge">
<title>Node2&#45;&gt;Node8</title>
<g id="a_edge7_Node000002_Node000008"><a xlink:title=" ">
<path fill="none" stroke="#63b8ff" d="M800.98,-199.48C783.77,-201.32 764.98,-203.34 747.59,-205.21"/>
<polygon fill="#63b8ff" stroke="#63b8ff" points="800.96,-203 810.53,-198.45 800.21,-196.04 800.96,-203"/>
</a>
</g>
</g>
<!-- Node11 -->
<g id="Node000011" class="node">
<title>Node11</title>
<g id="a_Node000011"><a xlink:href="../../d3/d5e/namespace_asset_i_o.html#a59ef49474071594c07f8c4620b60ba92" target="_top" xlink:title=" ">
<polygon fill="white" stroke="#666666" points="743.38,-184 623.12,-184 623.12,-164 743.38,-164 743.38,-184"/>
<text xml:space="preserve" text-anchor="middle" x="683.25" y="-170.5" font-family="Helvetica,sans-Serif" font-size="10.00">AssetIO::importFromUrl</text>
</a>
</g>
</g>
<!-- Node2&#45;&gt;Node11 -->
<g id="edge11_Node000002_Node000011" class="edge">
<title>Node2&#45;&gt;Node11</title>
<g id="a_edge11_Node000002_Node000011"><a xlink:title=" ">
<path fill="none" stroke="#63b8ff" d="M800.81,-186.5C782.35,-184.52 762.09,-182.35 743.71,-180.38"/>
<polygon fill="#63b8ff" stroke="#63b8ff" points="800.21,-189.96 810.53,-187.55 800.96,-183 800.21,-189.96"/>
</a>
</g>
</g>
<!-- Node12 -->
<g id="Node000012" class="node">
<title>Node12</title>
<g id="a_Node000012"><a xlink:href="../../d3/d5e/namespace_asset_i_o.html#a9745e8f40c71e624d1f3c2670108ff23" target="_top" xlink:title=" ">
<polygon fill="white" stroke="#666666" points="571.75,-146 424.5,-146 424.5,-126 571.75,-126 571.75,-146"/>
<text xml:space="preserve" text-anchor="middle" x="498.12" y="-132.5" font-family="Helvetica,sans-Serif" font-size="10.00">AssetIO::openUrlAssetPopUp</text>
</a>
</g>
</g>
<!-- Node2&#45;&gt;Node12 -->
<g id="edge15_Node000002_Node000012" class="edge">
<title>Node2&#45;&gt;Node12</title>
<g id="a_edge15_Node000002_Node000012"><a xlink:title=" ">
<path fill="none" stroke="#63b8ff" d="M826.66,-178.24C805.66,-169.97 778.12,-160.29 752.75,-155 692.67,-142.47 623.06,-137.94 571.98,-136.42"/>
<polygon fill="#63b8ff" stroke="#63b8ff" points="825.32,-181.47 835.9,-181.96 827.93,-174.98 825.32,-181.47"/>
</a>
</g>
</g>
<!-- Node13 -->
<g id="Node000013" class="node">
<title>Node13</title>
<g id="a_Node000013"><a xlink:href="../../d3/d5e/namespace_asset_i_o.html#a6da5c9b209c7a914fe8080e1545fd616" target="_top" xlink:title=" ">
<polygon fill="white" stroke="#666666" points="734,-260 632.5,-260 632.5,-240 734,-240 734,-260"/>
<text xml:space="preserve" text-anchor="middle" x="683.25" y="-246.5" font-family="Helvetica,sans-Serif" font-size="10.00">AssetIO::listAssets</text>
</a>
</g>
</g>
<!-- Node2&#45;&gt;Node13 -->
<g id="edge13_Node000002_Node000013" class="edge">
<title>Node2&#45;&gt;Node13</title>
<g id="a_edge13_Node000002_Node000013"><a xlink:title=" ">
<path fill="none" stroke="#63b8ff" d="M822.83,-207.18C802.16,-214.61 776.18,-223.66 752.75,-231 743.33,-233.95 733.11,-236.91 723.5,-239.59"/>
<polygon fill="#63b8ff" stroke="#63b8ff" points="823.77,-210.56 831.99,-203.87 821.39,-203.98 823.77,-210.56"/>
</a>
</g>
</g>
<!-- Node4 -->
<g id="Node000004" class="node">
<title>Node4</title>
<g id="a_Node000004"><a xlink:href="../../d3/d5e/namespace_asset_i_o.html#ab942f6ec954acc3ffa2d6d46fd3f8a66" target="_top" xlink:title=" ">
<polygon fill="white" stroke="#666666" points="564.62,-272 431.62,-272 431.62,-240 564.62,-240 564.62,-272"/>
<text xml:space="preserve" text-anchor="start" x="439.62" y="-258.5" font-family="Helvetica,sans-Serif" font-size="10.00">AssetIO::openDeleteAsset</text>
<text xml:space="preserve" text-anchor="middle" x="498.12" y="-246.5" font-family="Helvetica,sans-Serif" font-size="10.00">PopUp</text>
</a>
</g>
</g>
<!-- Node3&#45;&gt;Node4 -->
<g id="edge3_Node000003_Node000004" class="edge">
<title>Node3&#45;&gt;Node4</title>
<g id="a_edge3_Node000003_Node000004"><a xlink:title=" ">
<path fill="none" stroke="#63b8ff" d="M617.36,-276.66C600.37,-273.69 582.05,-270.49 565.01,-267.51"/>
<polygon fill="#63b8ff" stroke="#63b8ff" points="616.35,-280.04 626.81,-278.31 617.56,-273.14 616.35,-280.04"/>
</a>
</g>
</g>
<!-- Node5 -->
<g id="Node000005" class="node">
<title>Node5</title>
<g id="a_Node000005"><a xlink:href="../../d4/d97/class_application_handler.html#a98e49f0d6038bf4caeed77b4d03b003c" target="_top" xlink:title=" ">
<polygon fill="white" stroke="#666666" points="358.88,-190 249.88,-190 249.88,-158 358.88,-158 358.88,-190"/>
<text xml:space="preserve" text-anchor="start" x="257.88" y="-176.5" font-family="Helvetica,sans-Serif" font-size="10.00">ApplicationHandler</text>
<text xml:space="preserve" text-anchor="middle" x="304.38" y="-164.5" font-family="Helvetica,sans-Serif" font-size="10.00">::renderMainMenuBar</text>
</a>
</g>
</g>
<!-- Node4&#45;&gt;Node5 -->
<g id="edge4_Node000004_Node000005" class="edge">
<title>Node4&#45;&gt;Node5</title>
<g id="a_edge4_Node000004_Node000005"><a xlink:title=" ">
<path fill="none" stroke="#63b8ff" d="M431.05,-235.84C426.78,-234.27 422.56,-232.66 418.5,-231 389.18,-219.04 357.05,-202.5 334.55,-190.32"/>
<polygon fill="#63b8ff" stroke="#63b8ff" points="429.72,-239.08 440.31,-239.11 432.05,-232.48 429.72,-239.08"/>
</a>
</g>
</g>
<!-- Node6 -->
<g id="Node000006" class="node">
<title>Node6</title>
<g id="a_Node000006"><a xlink:href="../../d4/d97/class_application_handler.html#afaf00f4f20eca3fec59f8f02f76ef2ce" target="_top" xlink:title=" ">
<polygon fill="white" stroke="#666666" points="190.25,-165 73,-165 73,-145 190.25,-145 190.25,-165"/>
<text xml:space="preserve" text-anchor="middle" x="131.62" y="-151.5" font-family="Helvetica,sans-Serif" font-size="10.00">ApplicationHandler::run</text>
</a>
</g>
</g>
<!-- Node5&#45;&gt;Node6 -->
<g id="edge5_Node000005_Node000006" class="edge">
<title>Node5&#45;&gt;Node6</title>
<g id="a_edge5_Node000005_Node000006"><a xlink:title=" ">
<path fill="none" stroke="#63b8ff" d="M238.57,-166.79C222.85,-165.04 206.13,-163.18 190.73,-161.47"/>
<polygon fill="#63b8ff" stroke="#63b8ff" points="237.99,-170.25 248.31,-167.87 238.76,-163.29 237.99,-170.25"/>
</a>
</g>
</g>
<!-- Node6&#45;&gt;Node7 -->
<g id="edge6_Node000006_Node000007" class="edge">
<title>Node6&#45;&gt;Node7</title>
<g id="a_edge6_Node000006_Node000007"><a xlink:title=" ">
<path fill="none" stroke="#63b8ff" d="M100.25,-139.42C80.02,-129.04 54.12,-115.76 37.19,-107.07"/>
<polygon fill="#63b8ff" stroke="#63b8ff" points="98.4,-142.4 108.9,-143.85 101.6,-136.18 98.4,-142.4"/>
</a>
</g>
</g>
<!-- Node9 -->
<g id="Node000009" class="node">
<title>Node9</title>
<g id="a_Node000009"><a xlink:href="../../d3/d5e/namespace_asset_i_o.html#a0fd129212ac4835f913af0761824df9a" target="_top" xlink:title=" ">
<polygon fill="white" stroke="#666666" points="565.75,-222 430.5,-222 430.5,-202 565.75,-202 565.75,-222"/>
<text xml:space="preserve" text-anchor="middle" x="498.12" y="-208.5" font-family="Helvetica,sans-Serif" font-size="10.00">AssetIO::importFromPicker</text>
</a>
</g>
</g>
<!-- Node8&#45;&gt;Node9 -->
<g id="edge8_Node000008_Node000009" class="edge">
<title>Node8&#45;&gt;Node9</title>
<g id="a_edge8_Node000008_Node000009"><a xlink:title=" ">
<path fill="none" stroke="#63b8ff" d="M607.6,-212C593.88,-212 579.63,-212 566.15,-212"/>
<polygon fill="#63b8ff" stroke="#63b8ff" points="607.46,-215.5 617.46,-212 607.46,-208.5 607.46,-215.5"/>
</a>
</g>
</g>
<!-- Node10 -->
<g id="Node000010" class="node">
<title>Node10</title>
<g id="a_Node000010"><a xlink:href="../../d3/d5e/namespace_asset_i_o.html#ad87dd90acfa0487b69d4a53c32e1940d" target="_top" xlink:title=" ">
<polygon fill="white" stroke="#666666" points="577.75,-184 418.5,-184 418.5,-164 577.75,-164 577.75,-184"/>
<text xml:space="preserve" text-anchor="middle" x="498.12" y="-170.5" font-family="Helvetica,sans-Serif" font-size="10.00">AssetIO::importManyFromPicker</text>
</a>
</g>
</g>
<!-- Node8&#45;&gt;Node10 -->
<g id="edge9_Node000008_Node000010" class="edge">
<title>Node8&#45;&gt;Node10</title>
<g id="a_edge9_Node000008_Node000010"><a xlink:title=" ">
<path fill="none" stroke="#63b8ff" d="M620.63,-199.21C597.49,-194.41 571.48,-189.01 549.48,-184.45"/>
<polygon fill="#63b8ff" stroke="#63b8ff" points="619.74,-202.6 630.24,-201.21 621.16,-195.75 619.74,-202.6"/>
</a>
</g>
</g>
<!-- Node10&#45;&gt;Node5 -->
<g id="edge10_Node000010_Node000005" class="edge">
<title>Node10&#45;&gt;Node5</title>
<g id="a_edge10_Node000010_Node000005"><a xlink:title=" ">
<path fill="none" stroke="#63b8ff" d="M406.8,-174C390.51,-174 374,-174 359.17,-174"/>
<polygon fill="#63b8ff" stroke="#63b8ff" points="406.51,-177.5 416.51,-174 406.51,-170.5 406.51,-177.5"/>
</a>
</g>
</g>
<!-- Node11&#45;&gt;Node12 -->
<g id="edge12_Node000011_Node000012" class="edge">
<title>Node11&#45;&gt;Node12</title>
<g id="a_edge12_Node000011_Node000012"><a xlink:title=" ">
<path fill="none" stroke="#63b8ff" d="M620.63,-161.21C597.49,-156.41 571.48,-151.01 549.48,-146.45"/>
<polygon fill="#63b8ff" stroke="#63b8ff" points="619.74,-164.6 630.24,-163.21 621.16,-157.75 619.74,-164.6"/>
</a>
</g>
</g>
<!-- Node13&#45;&gt;Node4 -->
<g id="edge14_Node000013_Node000004" class="edge">
<title>Node13&#45;&gt;Node4</title>
<g id="a_edge14_Node000013_Node000004"><a xlink:title=" ">
<path fill="none" stroke="#63b8ff" d="M620.71,-252.02C602.77,-252.6 583.1,-253.25 564.91,-253.84"/>
<polygon fill="#63b8ff" stroke="#63b8ff" points="620.82,-255.51 630.7,-251.69 620.59,-248.52 620.82,-255.51"/>
</a>
</g>
</g>
<!-- Node14&#45;&gt;Node7 -->
<g id="edge17_Node000014_Node000007" class="edge">
<title>Node14&#45;&gt;Node7</title>
<g id="a_edge17_Node000014_Node000007"><a xlink:title=" ">
<path fill="none" stroke="#63b8ff" d="M214.61,-66.07C171.63,-69.82 119.4,-75.56 73,-84 60.91,-86.2 47.53,-89.7 37.18,-92.65"/>
<polygon fill="#63b8ff" stroke="#63b8ff" points="214.73,-69.58 224.4,-65.24 214.14,-62.6 214.73,-69.58"/>
</a>
</g>
</g>
<!-- Node16 -->
<g id="Node000016" class="node">
<title>Node16</title>
<g id="a_Node000016"><a xlink:href="../../da/d21/class_network_manager.html#a1548090a456937ffafda64318f21ba40" target="_top" xlink:title=" ">
<polygon fill="white" stroke="#666666" points="752.75,-32 613.75,-32 613.75,0 752.75,0 752.75,-32"/>
<text xml:space="preserve" text-anchor="start" x="621.75" y="-18.5" font-family="Helvetica,sans-Serif" font-size="10.00">NetworkManager::broadcast</text>
<text xml:space="preserve" text-anchor="middle" x="683.25" y="-6.5" font-family="Helvetica,sans-Serif" font-size="10.00">Marker</text>
</a>
</g>
</g>
<!-- Node15&#45;&gt;Node16 -->
<g id="edge20_Node000015_Node000016" class="edge">
<title>Node15&#45;&gt;Node16</title>
<g id="a_edge20_Node000015_Node000016"><a xlink:title=" ">
<path fill="none" stroke="#63b8ff" d="M777.05,-17.57C769.05,-17.44 761,-17.3 753.16,-17.17"/>
<polygon fill="#63b8ff" stroke="#63b8ff" points="776.74,-21.07 786.8,-17.74 776.86,-14.07 776.74,-21.07"/>
</a>
</g>
</g>
</g>
</svg>
