<?xml version="1.0" encoding="UTF-8" standalone="no"?>
<!DOCTYPE svg PUBLIC "-//W3C//DTD SVG 1.1//EN"
 "http://www.w3.org/Graphics/SVG/1.1/DTD/svg11.dtd">
<!-- Generated by graphviz version 14.0.2 (20251019.1705)
 -->
<!-- Title: include/network/SignalingServer.h Pages: 1 -->
<svg width="503pt" height="96pt"
 viewBox="0.00 0.00 503.00 96.00" xmlns="http://www.w3.org/2000/svg" xmlns:xlink="http://www.w3.org/1999/xlink">
<g id="graph0" class="graph" transform="scale(1 1) rotate(0) translate(4 92)">
<title>include/network/SignalingServer.h</title>
<!-- Node1 -->
<g id="Node000001" class="node">
<title>Node1</title>
<g id="a_Node000001"><a xlink:title=" ">
<polygon fill="#999999" stroke="#666666" points="301.62,-88 174.62,-88 174.62,-56 301.62,-56 301.62,-88"/>
<text xml:space="preserve" text-anchor="start" x="182.62" y="-74.5" font-family="Helvetica,sans-Serif" font-size="10.00">include/network/Signaling</text>
<text xml:space="preserve" text-anchor="middle" x="238.12" y="-62.5" font-family="Helvetica,sans-Serif" font-size="10.00">Server.h</text>
</a>
</g>
</g>
<!-- Node2 -->
<g id="Node000002" class="node">
<title>Node2</title>
<g id="a_Node000002"><a xlink:href="../../d1/d06/_game_table_manager_8cpp.html" target="_top" xlink:title=" ">
<polygon fill="white" stroke="#666666" points="138.25,-20 0,-20 0,0 138.25,0 138.25,-20"/>
<text xml:space="preserve" text-anchor="middle" x="69.12" y="-6.5" font-family="Helvetica,sans-Serif" font-size="10.00">src/GameTableManager.cpp</text>
</a>
</g>
</g>
<!-- Node1&#45;&gt;Node2 -->
<g id="edge1_Node000001_Node000002" class="edge">
<title>Node1&#45;&gt;Node2</title>
<g id="a_edge1_Node000001_Node000002"><a xlink:title=" ">
<path fill="none" stroke="#63b8ff" d="M184.05,-51.8C154.6,-41.35 119.48,-28.88 95.87,-20.5"/>
<polygon fill="#63b8ff" stroke="#63b8ff" points="182.58,-54.99 193.18,-55.04 184.92,-48.4 182.58,-54.99"/>
</a>
</g>
</g>
<!-- Node3 -->
<g id="Node000003" class="node">
<title>Node3</title>
<g id="a_Node000003"><a xlink:href="../../da/d82/_network_manager_8cpp.html" target="_top" xlink:title=" ">
<polygon fill="white" stroke="#666666" points="319.62,-20 156.62,-20 156.62,0 319.62,0 319.62,-20"/>
<text xml:space="preserve" text-anchor="middle" x="238.12" y="-6.5" font-family="Helvetica,sans-Serif" font-size="10.00">src/network/NetworkManager.cpp</text>
</a>
</g>
</g>
<!-- Node1&#45;&gt;Node3 -->
<g id="edge2_Node000001_Node000003" class="edge">
<title>Node1&#45;&gt;Node3</title>
<g id="a_edge2_Node000001_Node000003"><a xlink:title=" ">
<path fill="none" stroke="#63b8ff" d="M238.12,-44.08C238.12,-35.6 238.12,-26.8 238.12,-20.41"/>
<polygon fill="#63b8ff" stroke="#63b8ff" points="234.63,-44.03 238.13,-54.03 241.63,-44.03 234.63,-44.03"/>
</a>
</g>
</g>
<!-- Node4 -->
<g id="Node000004" class="node">
<title>Node4</title>
<g id="a_Node000004"><a xlink:href="../../d1/ddf/_signaling_server_8cpp.html" target="_top" xlink:title=" ">
<polygon fill="white" stroke="#666666" points="494.62,-20 337.62,-20 337.62,0 494.62,0 494.62,-20"/>
<text xml:space="preserve" text-anchor="middle" x="416.12" y="-6.5" font-family="Helvetica,sans-Serif" font-size="10.00">src/network/SignalingServer.cpp</text>
</a>
</g>
</g>
<!-- Node1&#45;&gt;Node4 -->
<g id="edge3_Node000001_Node000004" class="edge">
<title>Node1&#45;&gt;Node4</title>
<g id="a_edge3_Node000001_Node000004"><a xlink:title=" ">
<path fill="none" stroke="#63b8ff" d="M294.68,-51.94C325.77,-41.46 362.98,-28.91 387.95,-20.5"/>
<polygon fill="#63b8ff" stroke="#63b8ff" points="293.76,-48.55 285.4,-55.07 295.99,-55.19 293.76,-48.55"/>
</a>
</g>
</g>
</g>
</svg>
