<?xml version="1.0" encoding="UTF-8" standalone="no"?>
<!DOCTYPE svg PUBLIC "-//W3C//DTD SVG 1.1//EN"
 "http://www.w3.org/Graphics/SVG/1.1/DTD/svg11.dtd">
<!-- Generated by graphviz version 14.0.2 (20251019.1705)
 -->
<!-- Title: include/renderer/VertexBuffer.h Pages: 1 -->
<svg width="1335pt" height="488pt"
 viewBox="0.00 0.00 1335.00 488.00" xmlns="http://www.w3.org/2000/svg" xmlns:xlink="http://www.w3.org/1999/xlink">
<g id="graph0" class="graph" transform="scale(1 1) rotate(0) translate(4 484)">
<title>include/renderer/VertexBuffer.h</title>
<!-- Node1 -->
<g id="Node000001" class="node">
<title>Node1</title>
<g id="a_Node000001"><a xlink:title=" ">
<polygon fill="#999999" stroke="#666666" points="150.75,-480 1.25,-480 1.25,-460 150.75,-460 150.75,-480"/>
<text xml:space="preserve" text-anchor="middle" x="76" y="-466.5" font-family="Helvetica,sans-Serif" font-size="10.00">include/renderer/VertexBuffer.h</text>
</a>
</g>
</g>
<!-- Node2 -->
<g id="Node000002" class="node">
<title>Node2</title>
<g id="a_Node000002"><a xlink:href="../../d0/da4/_application_handler_8h.html" target="_top" xlink:title=" ">
<polygon fill="white" stroke="#666666" points="701.88,-76 562.12,-76 562.12,-56 701.88,-56 701.88,-76"/>
<text xml:space="preserve" text-anchor="middle" x="632" y="-62.5" font-family="Helvetica,sans-Serif" font-size="10.00">include/ApplicationHandler.h</text>
</a>
</g>
</g>
<!-- Node1&#45;&gt;Node2 -->
<g id="edge1_Node000001_Node000002" class="edge">
<title>Node1&#45;&gt;Node2</title>
<g id="a_edge1_Node000001_Node000002"><a xlink:title=" ">
<path fill="none" stroke="#63b8ff" d="M54.83,-452.41C32.34,-432.76 0,-397.76 0,-359 0,-359 0,-359 0,-233 0,-193.08 26.81,-186.85 62,-168 143.15,-124.52 176.75,-154.62 266,-132 293.25,-125.09 298.66,-118.51 326,-112 405.79,-92.99 499.3,-80.65 561.76,-73.78"/>
<polygon fill="#63b8ff" stroke="#63b8ff" points="52.37,-454.92 62.29,-458.66 56.87,-449.56 52.37,-454.92"/>
</a>
</g>
</g>
<!-- Node5 -->
<g id="Node000005" class="node">
<title>Node5</title>
<g id="a_Node000005"><a xlink:href="../../df/d3c/_board_manager_8h.html" target="_top" xlink:title=" ">
<polygon fill="white" stroke="#666666" points="246.5,-188 125.5,-188 125.5,-168 246.5,-168 246.5,-188"/>
<text xml:space="preserve" text-anchor="middle" x="186" y="-174.5" font-family="Helvetica,sans-Serif" font-size="10.00">include/BoardManager.h</text>
</a>
</g>
</g>
<!-- Node1&#45;&gt;Node5 -->
<g id="edge4_Node000001_Node000005" class="edge">
<title>Node1&#45;&gt;Node5</title>
<g id="a_edge4_Node000001_Node000005"><a xlink:title=" ">
<path fill="none" stroke="#63b8ff" d="M83.5,-449.22C105.11,-392.26 166.89,-229.38 182.42,-188.43"/>
<polygon fill="#63b8ff" stroke="#63b8ff" points="80.35,-447.67 80.07,-458.26 86.89,-450.16 80.35,-447.67"/>
</a>
</g>
</g>
<!-- Node9 -->
<g id="Node000009" class="node">
<title>Node9</title>
<g id="a_Node000009"><a xlink:href="../../de/d99/_board_manager_8cpp.html" target="_top" xlink:title=" ">
<polygon fill="white" stroke="#666666" points="466.12,-132 351.88,-132 351.88,-112 466.12,-112 466.12,-132"/>
<text xml:space="preserve" text-anchor="middle" x="409" y="-118.5" font-family="Helvetica,sans-Serif" font-size="10.00">src/BoardManager.cpp</text>
</a>
</g>
</g>
<!-- Node1&#45;&gt;Node9 -->
<g id="edge37_Node000001_Node000009" class="edge">
<title>Node1&#45;&gt;Node9</title>
<g id="a_edge37_Node000001_Node000009"><a xlink:title=" ">
<path fill="none" stroke="#63b8ff" d="M64.9,-449.6C53.68,-428.15 38,-392.23 38,-359 38,-359 38,-359 38,-233 38,-189.89 71.03,-186.44 110,-168 151.7,-148.27 277.07,-134.42 351.57,-127.68"/>
<polygon fill="#63b8ff" stroke="#63b8ff" points="61.8,-451.24 69.67,-458.34 67.94,-447.88 61.8,-451.24"/>
</a>
</g>
</g>
<!-- Node10 -->
<g id="Node000010" class="node">
<title>Node10</title>
<g id="a_Node000010"><a xlink:href="../../d0/df4/_vertex_array_8h.html" target="_top" xlink:title=" ">
<polygon fill="white" stroke="#666666" points="649.25,-424 502.75,-424 502.75,-404 649.25,-404 649.25,-424"/>
<text xml:space="preserve" text-anchor="middle" x="576" y="-410.5" font-family="Helvetica,sans-Serif" font-size="10.00">include/renderer/VertexArray.h</text>
</a>
</g>
</g>
<!-- Node1&#45;&gt;Node10 -->
<g id="edge11_Node000001_Node000010" class="edge">
<title>Node1&#45;&gt;Node10</title>
<g id="a_edge11_Node000001_Node000010"><a xlink:title=" ">
<path fill="none" stroke="#63b8ff" d="M162.54,-459.65C258.56,-449.28 411.86,-432.73 502.35,-422.95"/>
<polygon fill="#63b8ff" stroke="#63b8ff" points="162.2,-456.17 152.63,-460.72 162.95,-463.13 162.2,-456.17"/>
</a>
</g>
</g>
<!-- Node20 -->
<g id="Node000020" class="node">
<title>Node20</title>
<g id="a_Node000020"><a xlink:href="../../df/df6/_vertex_buffer_8cpp.html" target="_top" xlink:title=" ">
<polygon fill="white" stroke="#666666" points="1261.38,-306 1118.62,-306 1118.62,-286 1261.38,-286 1261.38,-306"/>
<text xml:space="preserve" text-anchor="middle" x="1190" y="-292.5" font-family="Helvetica,sans-Serif" font-size="10.00">src/renderer/VertexBuffer.cpp</text>
</a>
</g>
</g>
<!-- Node1&#45;&gt;Node20 -->
<g id="edge38_Node000001_Node000020" class="edge">
<title>Node1&#45;&gt;Node20</title>
<g id="a_edge38_Node000001_Node000020"><a xlink:title=" ">
<path fill="none" stroke="#63b8ff" d="M162.27,-466.56C276.33,-462.38 483.29,-451.43 658,-424 850.54,-393.77 1076.32,-330.38 1158.27,-306.43"/>
<polygon fill="#63b8ff" stroke="#63b8ff" points="162.23,-463.06 152.36,-466.92 162.48,-470.06 162.23,-463.06"/>
</a>
</g>
</g>
<!-- Node3 -->
<g id="Node000003" class="node">
<title>Node3</title>
<g id="a_Node000003"><a xlink:href="../../df/d43/_application_handler_8cpp.html" target="_top" xlink:title=" ">
<polygon fill="white" stroke="#666666" points="637.5,-20 504.5,-20 504.5,0 637.5,0 637.5,-20"/>
<text xml:space="preserve" text-anchor="middle" x="571" y="-6.5" font-family="Helvetica,sans-Serif" font-size="10.00">src/ApplicationHandler.cpp</text>
</a>
</g>
</g>
<!-- Node2&#45;&gt;Node3 -->
<g id="edge2_Node000002_Node000003" class="edge">
<title>Node2&#45;&gt;Node3</title>
<g id="a_edge2_Node000002_Node000003"><a xlink:title=" ">
<path fill="none" stroke="#63b8ff" d="M612.94,-48.13C602.56,-38.94 590.13,-27.93 581.5,-20.3"/>
<polygon fill="#63b8ff" stroke="#63b8ff" points="610.43,-50.58 620.24,-54.59 615.07,-45.34 610.43,-50.58"/>
</a>
</g>
</g>
<!-- Node4 -->
<g id="Node000004" class="node">
<title>Node4</title>
<g id="a_Node000004"><a xlink:href="../../df/d0a/main_8cpp.html" target="_top" xlink:title=" ">
<polygon fill="white" stroke="#666666" points="728.12,-20 655.88,-20 655.88,0 728.12,0 728.12,-20"/>
<text xml:space="preserve" text-anchor="middle" x="692" y="-6.5" font-family="Helvetica,sans-Serif" font-size="10.00">src/main.cpp</text>
</a>
</g>
</g>
<!-- Node2&#45;&gt;Node4 -->
<g id="edge3_Node000002_Node000004" class="edge">
<title>Node2&#45;&gt;Node4</title>
<g id="a_edge3_Node000002_Node000004"><a xlink:title=" ">
<path fill="none" stroke="#63b8ff" d="M650.75,-48.13C660.95,-38.94 673.19,-27.93 681.67,-20.3"/>
<polygon fill="#63b8ff" stroke="#63b8ff" points="648.67,-45.29 643.58,-54.58 653.35,-50.49 648.67,-45.29"/>
</a>
</g>
</g>
<!-- Node6 -->
<g id="Node000006" class="node">
<title>Node6</title>
<g id="a_Node000006"><a xlink:href="../../d9/d4e/_game_table_manager_8h.html" target="_top" xlink:title=" ">
<polygon fill="white" stroke="#666666" points="256.5,-132 111.5,-132 111.5,-112 256.5,-112 256.5,-132"/>
<text xml:space="preserve" text-anchor="middle" x="184" y="-118.5" font-family="Helvetica,sans-Serif" font-size="10.00">include/GameTableManager.h</text>
</a>
</g>
</g>
<!-- Node5&#45;&gt;Node6 -->
<g id="edge5_Node000005_Node000006" class="edge">
<title>Node5&#45;&gt;Node6</title>
<g id="a_edge5_Node000005_Node000006"><a xlink:title=" ">
<path fill="none" stroke="#63b8ff" d="M185.23,-156.13C184.92,-147.9 184.59,-138.85 184.34,-132.3"/>
<polygon fill="#63b8ff" stroke="#63b8ff" points="181.73,-156.22 185.6,-166.08 188.72,-155.96 181.73,-156.22"/>
</a>
</g>
</g>
<!-- Node8 -->
<g id="Node000008" class="node">
<title>Node8</title>
<g id="a_Node000008"><a xlink:href="../../da/d82/_network_manager_8cpp.html" target="_top" xlink:title=" ">
<polygon fill="white" stroke="#666666" points="164.5,-76 1.5,-76 1.5,-56 164.5,-56 164.5,-76"/>
<text xml:space="preserve" text-anchor="middle" x="83" y="-62.5" font-family="Helvetica,sans-Serif" font-size="10.00">src/network/NetworkManager.cpp</text>
</a>
</g>
</g>
<!-- Node5&#45;&gt;Node8 -->
<g id="edge10_Node000005_Node000008" class="edge">
<title>Node5&#45;&gt;Node8</title>
<g id="a_edge10_Node000005_Node000008"><a xlink:title=" ">
<path fill="none" stroke="#63b8ff" d="M146.47,-163.17C131.01,-156.01 114.31,-145.81 103,-132 89.53,-115.56 85.12,-90.1 83.68,-76.44"/>
<polygon fill="#63b8ff" stroke="#63b8ff" points="144.94,-166.33 155.51,-167.06 147.7,-159.89 144.94,-166.33"/>
</a>
</g>
</g>
<!-- Node5&#45;&gt;Node9 -->
<g id="edge9_Node000005_Node000009" class="edge">
<title>Node5&#45;&gt;Node9</title>
<g id="a_edge9_Node000005_Node000009"><a xlink:title=" ">
<path fill="none" stroke="#63b8ff" d="M236.07,-164.88C276.55,-155.07 332.74,-141.47 369.95,-132.46"/>
<polygon fill="#63b8ff" stroke="#63b8ff" points="235.47,-161.42 226.57,-167.18 237.11,-168.22 235.47,-161.42"/>
</a>
</g>
</g>
<!-- Node6&#45;&gt;Node2 -->
<g id="edge6_Node000006_Node000002" class="edge">
<title>Node6&#45;&gt;Node2</title>
<g id="a_edge6_Node000006_Node000002"><a xlink:title=" ">
<path fill="none" stroke="#63b8ff" d="M268.37,-110.83C353.13,-100.61 482.24,-85.05 561.64,-75.48"/>
<polygon fill="#63b8ff" stroke="#63b8ff" points="267.99,-107.35 258.48,-112.02 268.83,-114.3 267.99,-107.35"/>
</a>
</g>
</g>
<!-- Node7 -->
<g id="Node000007" class="node">
<title>Node7</title>
<g id="a_Node000007"><a xlink:href="../../d1/d06/_game_table_manager_8cpp.html" target="_top" xlink:title=" ">
<polygon fill="white" stroke="#666666" points="321.12,-76 182.88,-76 182.88,-56 321.12,-56 321.12,-76"/>
<text xml:space="preserve" text-anchor="middle" x="252" y="-62.5" font-family="Helvetica,sans-Serif" font-size="10.00">src/GameTableManager.cpp</text>
</a>
</g>
</g>
<!-- Node6&#45;&gt;Node7 -->
<g id="edge7_Node000006_Node000007" class="edge">
<title>Node6&#45;&gt;Node7</title>
<g id="a_edge7_Node000006_Node000007"><a xlink:title=" ">
<path fill="none" stroke="#63b8ff" d="M204.55,-104.68C216.25,-95.39 230.48,-84.09 240.29,-76.3"/>
<polygon fill="#63b8ff" stroke="#63b8ff" points="202.68,-101.69 197.03,-110.65 207.04,-107.17 202.68,-101.69"/>
</a>
</g>
</g>
<!-- Node6&#45;&gt;Node8 -->
<g id="edge8_Node000006_Node000008" class="edge">
<title>Node6&#45;&gt;Node8</title>
<g id="a_edge8_Node000006_Node000008"><a xlink:title=" ">
<path fill="none" stroke="#63b8ff" d="M156.59,-106.35C138.82,-96.84 116.17,-84.74 100.73,-76.48"/>
<polygon fill="#63b8ff" stroke="#63b8ff" points="154.6,-109.25 165.07,-110.88 157.9,-103.08 154.6,-109.25"/>
</a>
</g>
</g>
<!-- Node10&#45;&gt;Node2 -->
<g id="edge12_Node000010_Node000002" class="edge">
<title>Node10&#45;&gt;Node2</title>
<g id="a_edge12_Node000010_Node000002"><a xlink:title=" ">
<path fill="none" stroke="#63b8ff" d="M660.62,-411.35C806.64,-407.76 1099.73,-397.08 1198,-368 1260.75,-349.43 1327,-362.44 1327,-297 1327,-297 1327,-297 1327,-177 1327,-114.2 878.61,-81.32 702.14,-70.81"/>
<polygon fill="#63b8ff" stroke="#63b8ff" points="660.94,-407.84 651.02,-411.58 661.1,-414.84 660.94,-407.84"/>
</a>
</g>
</g>
<!-- Node10&#45;&gt;Node5 -->
<g id="edge13_Node000010_Node000005" class="edge">
<title>Node10&#45;&gt;Node5</title>
<g id="a_edge13_Node000010_Node000005"><a xlink:title=" ">
<path fill="none" stroke="#63b8ff" d="M491.27,-410.85C410.46,-404.34 290.23,-382.39 215,-312 179.45,-278.74 182.34,-212.89 184.82,-188.43"/>
<polygon fill="#63b8ff" stroke="#63b8ff" points="490.66,-414.32 500.89,-411.56 491.18,-407.34 490.66,-414.32"/>
</a>
</g>
</g>
<!-- Node10&#45;&gt;Node9 -->
<g id="edge35_Node000010_Node000009" class="edge">
<title>Node10&#45;&gt;Node9</title>
<g id="a_edge35_Node000010_Node000009"><a xlink:title=" ">
<path fill="none" stroke="#63b8ff" d="M491.35,-412.96C425.77,-410.14 333.93,-399.96 260,-368 166.22,-327.45 143.86,-286.58 117,-188 114.66,-179.42 111.21,-174.75 117,-168 132.05,-150.46 270.67,-135.31 351.38,-127.88"/>
<polygon fill="#63b8ff" stroke="#63b8ff" points="490.82,-416.44 500.95,-413.32 491.09,-409.45 490.82,-416.44"/>
</a>
</g>
</g>
<!-- Node11 -->
<g id="Node000011" class="node">
<title>Node11</title>
<g id="a_Node000011"><a xlink:href="../../d3/da0/_renderer_8h.html" target="_top" xlink:title=" ">
<polygon fill="white" stroke="#666666" points="778,-368 642,-368 642,-348 778,-348 778,-368"/>
<text xml:space="preserve" text-anchor="middle" x="710" y="-354.5" font-family="Helvetica,sans-Serif" font-size="10.00">include/renderer/Renderer.h</text>
</a>
</g>
</g>
<!-- Node10&#45;&gt;Node11 -->
<g id="edge14_Node000010_Node000011" class="edge">
<title>Node10&#45;&gt;Node11</title>
<g id="a_edge14_Node000010_Node000011"><a xlink:title=" ">
<path fill="none" stroke="#63b8ff" d="M609.74,-399.4C633.69,-389.75 665.22,-377.05 686.48,-368.48"/>
<polygon fill="#63b8ff" stroke="#63b8ff" points="608.71,-396.04 600.74,-403.03 611.33,-402.54 608.71,-396.04"/>
</a>
</g>
</g>
<!-- Node16 -->
<g id="Node000016" class="node">
<title>Node16</title>
<g id="a_Node000016"><a xlink:href="../../db/d28/_vertex_array_8cpp.html" target="_top" xlink:title=" ">
<polygon fill="white" stroke="#666666" points="875.88,-244 736.12,-244 736.12,-224 875.88,-224 875.88,-244"/>
<text xml:space="preserve" text-anchor="middle" x="806" y="-230.5" font-family="Helvetica,sans-Serif" font-size="10.00">src/renderer/VertexArray.cpp</text>
</a>
</g>
</g>
<!-- Node10&#45;&gt;Node16 -->
<g id="edge36_Node000010_Node000016" class="edge">
<title>Node10&#45;&gt;Node16</title>
<g id="a_edge36_Node000010_Node000016"><a xlink:title=" ">
<path fill="none" stroke="#63b8ff" d="M661.15,-413.82C828.8,-413.44 1192.17,-401.97 1270,-312 1279.3,-301.24 1279.56,-290.53 1270,-280 1244.06,-251.42 999.16,-240.45 876.01,-236.71"/>
<polygon fill="#63b8ff" stroke="#63b8ff" points="661.17,-410.32 651.18,-413.83 661.18,-417.32 661.17,-410.32"/>
</a>
</g>
</g>
<!-- Node11&#45;&gt;Node2 -->
<g id="edge15_Node000011_Node000002" class="edge">
<title>Node11&#45;&gt;Node2</title>
<g id="a_edge15_Node000011_Node000002"><a xlink:title=" ">
<path fill="none" stroke="#63b8ff" d="M732.94,-341.4C744.86,-333.03 759.51,-322.34 772,-312 787.98,-298.77 788.77,-291.57 806,-280 838.03,-258.49 864.13,-276.45 885,-244 889.81,-236.52 889.32,-231.77 885,-224 837.75,-139.07 723.46,-94.21 666.07,-76.37"/>
<polygon fill="#63b8ff" stroke="#63b8ff" points="731.14,-338.39 724.92,-346.96 735.13,-344.14 731.14,-338.39"/>
</a>
</g>
</g>
<!-- Node11&#45;&gt;Node5 -->
<g id="edge16_Node000011_Node000005" class="edge">
<title>Node11&#45;&gt;Node5</title>
<g id="a_edge16_Node000011_Node000005"><a xlink:title=" ">
<path fill="none" stroke="#63b8ff" d="M630.37,-353.56C506.21,-347.55 277.46,-333.69 247,-312 204.17,-281.5 190.72,-213.36 187.14,-188.4"/>
<polygon fill="#63b8ff" stroke="#63b8ff" points="630.02,-357.04 640.17,-354.02 630.35,-350.05 630.02,-357.04"/>
</a>
</g>
</g>
<!-- Node11&#45;&gt;Node9 -->
<g id="edge29_Node000011_Node000009" class="edge">
<title>Node11&#45;&gt;Node9</title>
<g id="a_edge29_Node000011_Node000009"><a xlink:title=" ">
<path fill="none" stroke="#63b8ff" d="M708.24,-336.38C706.1,-320.11 701.37,-297.34 691,-280 651.5,-213.97 627.13,-203.74 559,-168 526.86,-151.14 487.45,-139.63 457.09,-132.47"/>
<polygon fill="#63b8ff" stroke="#63b8ff" points="704.76,-336.73 709.3,-346.3 711.72,-335.99 704.76,-336.73"/>
</a>
</g>
</g>
<!-- Node12 -->
<g id="Node000012" class="node">
<title>Node12</title>
<g id="a_Node000012"><a xlink:href="../../de/dbf/_texture_8h.html" target="_top" xlink:title=" ">
<polygon fill="white" stroke="#666666" points="384.25,-306 255.75,-306 255.75,-286 384.25,-286 384.25,-306"/>
<text xml:space="preserve" text-anchor="middle" x="320" y="-292.5" font-family="Helvetica,sans-Serif" font-size="10.00">include/renderer/Texture.h</text>
</a>
</g>
</g>
<!-- Node11&#45;&gt;Node12 -->
<g id="edge17_Node000011_Node000012" class="edge">
<title>Node11&#45;&gt;Node12</title>
<g id="a_edge17_Node000011_Node000012"><a xlink:title=" ">
<path fill="none" stroke="#63b8ff" d="M630.53,-347.1C566.29,-338.76 473.6,-325.99 393,-312 383.57,-310.36 373.49,-308.42 363.92,-306.48"/>
<polygon fill="#63b8ff" stroke="#63b8ff" points="629.92,-350.55 640.29,-348.36 630.82,-343.61 629.92,-350.55"/>
</a>
</g>
</g>
<!-- Node15 -->
<g id="Node000015" class="node">
<title>Node15</title>
<g id="a_Node000015"><a xlink:href="../../df/d3f/_vertex_buffer_layout_8h.html" target="_top" xlink:title=" ">
<polygon fill="white" stroke="#666666" points="543.62,-312 402.38,-312 402.38,-280 543.62,-280 543.62,-312"/>
<text xml:space="preserve" text-anchor="start" x="410.38" y="-298.5" font-family="Helvetica,sans-Serif" font-size="10.00">include/renderer/VertexBuffer</text>
<text xml:space="preserve" text-anchor="middle" x="473" y="-286.5" font-family="Helvetica,sans-Serif" font-size="10.00">Layout.h</text>
</a>
</g>
</g>
<!-- Node11&#45;&gt;Node15 -->
<g id="edge25_Node000011_Node000015" class="edge">
<title>Node11&#45;&gt;Node15</title>
<g id="a_edge25_Node000011_Node000015"><a xlink:title=" ">
<path fill="none" stroke="#63b8ff" d="M661.75,-344.78C624.86,-335.45 573.78,-322.51 534.05,-312.46"/>
<polygon fill="#63b8ff" stroke="#63b8ff" points="660.69,-348.13 671.24,-347.19 662.41,-341.34 660.69,-348.13"/>
</a>
</g>
</g>
<!-- Node11&#45;&gt;Node16 -->
<g id="edge33_Node000011_Node000016" class="edge">
<title>Node11&#45;&gt;Node16</title>
<g id="a_edge33_Node000011_Node000016"><a xlink:title=" ">
<path fill="none" stroke="#63b8ff" d="M724.26,-338.88C745.03,-312.49 782.85,-264.42 798.7,-244.28"/>
<polygon fill="#63b8ff" stroke="#63b8ff" points="721.58,-336.62 718.15,-346.64 727.09,-340.95 721.58,-336.62"/>
</a>
</g>
</g>
<!-- Node17 -->
<g id="Node000017" class="node">
<title>Node17</title>
<g id="a_Node000017"><a xlink:href="../../dd/daa/_index_buffer_8cpp.html" target="_top" xlink:title=" ">
<polygon fill="white" stroke="#666666" points="953.5,-306 814.5,-306 814.5,-286 953.5,-286 953.5,-306"/>
<text xml:space="preserve" text-anchor="middle" x="884" y="-292.5" font-family="Helvetica,sans-Serif" font-size="10.00">src/renderer/IndexBuffer.cpp</text>
</a>
</g>
</g>
<!-- Node11&#45;&gt;Node17 -->
<g id="edge30_Node000011_Node000017" class="edge">
<title>Node11&#45;&gt;Node17</title>
<g id="a_edge30_Node000011_Node000017"><a xlink:title=" ">
<path fill="none" stroke="#63b8ff" d="M747.74,-343.98C780.59,-332.66 827.4,-316.52 856.72,-306.41"/>
<polygon fill="#63b8ff" stroke="#63b8ff" points="746.93,-340.56 738.62,-347.13 749.21,-347.18 746.93,-340.56"/>
</a>
</g>
</g>
<!-- Node18 -->
<g id="Node000018" class="node">
<title>Node18</title>
<g id="a_Node000018"><a xlink:href="../../da/d84/_renderer_8cpp.html" target="_top" xlink:title=" ">
<polygon fill="white" stroke="#666666" points="1100.62,-306 971.38,-306 971.38,-286 1100.62,-286 1100.62,-306"/>
<text xml:space="preserve" text-anchor="middle" x="1036" y="-292.5" font-family="Helvetica,sans-Serif" font-size="10.00">src/renderer/Renderer.cpp</text>
</a>
</g>
</g>
<!-- Node11&#45;&gt;Node18 -->
<g id="edge31_Node000011_Node000018" class="edge">
<title>Node11&#45;&gt;Node18</title>
<g id="a_edge31_Node000011_Node000018"><a xlink:title=" ">
<path fill="none" stroke="#63b8ff" d="M777.06,-345.57C828.11,-336.75 900.06,-324.06 963,-312 972.02,-310.27 981.65,-308.35 990.87,-306.47"/>
<polygon fill="#63b8ff" stroke="#63b8ff" points="776.6,-342.1 767.34,-347.25 777.79,-349 776.6,-342.1"/>
</a>
</g>
</g>
<!-- Node19 -->
<g id="Node000019" class="node">
<title>Node19</title>
<g id="a_Node000019"><a xlink:href="../../d5/d16/_shader_8cpp.html" target="_top" xlink:title=" ">
<polygon fill="white" stroke="#666666" points="682.12,-306 561.88,-306 561.88,-286 682.12,-286 682.12,-306"/>
<text xml:space="preserve" text-anchor="middle" x="622" y="-292.5" font-family="Helvetica,sans-Serif" font-size="10.00">src/renderer/Shader.cpp</text>
</a>
</g>
</g>
<!-- Node11&#45;&gt;Node19 -->
<g id="edge32_Node000011_Node000019" class="edge">
<title>Node11&#45;&gt;Node19</title>
<g id="a_edge32_Node000011_Node000019"><a xlink:title=" ">
<path fill="none" stroke="#63b8ff" d="M686.86,-341.22C670.57,-330.11 649.31,-315.62 635.65,-306.31"/>
<polygon fill="#63b8ff" stroke="#63b8ff" points="684.77,-344.03 695,-346.77 688.71,-338.25 684.77,-344.03"/>
</a>
</g>
</g>
<!-- Node11&#45;&gt;Node20 -->
<g id="edge34_Node000011_Node000020" class="edge">
<title>Node11&#45;&gt;Node20</title>
<g id="a_edge34_Node000011_Node000020"><a xlink:title=" ">
<path fill="none" stroke="#63b8ff" d="M789.59,-349.78C870.47,-342.04 999.27,-328.59 1110,-312 1120.62,-310.41 1131.99,-308.44 1142.72,-306.46"/>
<polygon fill="#63b8ff" stroke="#63b8ff" points="789.63,-346.26 780.01,-350.69 790.29,-353.23 789.63,-346.26"/>
</a>
</g>
</g>
<!-- Node12&#45;&gt;Node2 -->
<g id="edge18_Node000012_Node000002" class="edge">
<title>Node12&#45;&gt;Node2</title>
<g id="a_edge18_Node000012_Node000002"><a xlink:title=" ">
<path fill="none" stroke="#63b8ff" d="M350.51,-280.5C369.57,-270.98 394.34,-257.79 415,-244 500.33,-187.06 592.41,-103.74 622.15,-76.21"/>
<polygon fill="#63b8ff" stroke="#63b8ff" points="349.08,-277.3 341.65,-284.85 352.17,-283.58 349.08,-277.3"/>
</a>
</g>
</g>
<!-- Node12&#45;&gt;Node5 -->
<g id="edge19_Node000012_Node000005" class="edge">
<title>Node12&#45;&gt;Node5</title>
<g id="a_edge19_Node000012_Node000005"><a xlink:title=" ">
<path fill="none" stroke="#63b8ff" d="M295.12,-279.48C280.55,-269.94 262.1,-257.07 247,-244 226.17,-225.97 204.82,-201.59 193.74,-188.4"/>
<polygon fill="#63b8ff" stroke="#63b8ff" points="292.93,-282.23 303.23,-284.69 296.72,-276.34 292.93,-282.23"/>
</a>
</g>
</g>
<!-- Node12&#45;&gt;Node9 -->
<g id="edge23_Node000012_Node000009" class="edge">
<title>Node12&#45;&gt;Node9</title>
<g id="a_edge23_Node000012_Node000009"><a xlink:title=" ">
<path fill="none" stroke="#63b8ff" d="M354.44,-280.67C370.08,-272.33 387.22,-260.22 397,-244 418.9,-207.66 413.81,-153.79 410.61,-132.32"/>
<polygon fill="#63b8ff" stroke="#63b8ff" points="353.24,-277.36 345.83,-284.94 356.35,-283.63 353.24,-277.36"/>
</a>
</g>
</g>
<!-- Node13 -->
<g id="Node000013" class="node">
<title>Node13</title>
<g id="a_Node000013"><a xlink:href="../../d1/d91/_directory_window_8h.html" target="_top" xlink:title=" ">
<polygon fill="white" stroke="#666666" points="388.12,-244 255.88,-244 255.88,-224 388.12,-224 388.12,-244"/>
<text xml:space="preserve" text-anchor="middle" x="322" y="-230.5" font-family="Helvetica,sans-Serif" font-size="10.00">include/DirectoryWindow.h</text>
</a>
</g>
</g>
<!-- Node12&#45;&gt;Node13 -->
<g id="edge20_Node000012_Node000013" class="edge">
<title>Node12&#45;&gt;Node13</title>
<g id="a_edge20_Node000012_Node000013"><a xlink:title=" ">
<path fill="none" stroke="#63b8ff" d="M320.69,-274.25C321.03,-263.97 321.43,-252.09 321.7,-244.11"/>
<polygon fill="#63b8ff" stroke="#63b8ff" points="317.2,-274 320.36,-284.11 324.19,-274.23 317.2,-274"/>
</a>
</g>
</g>
<!-- Node14 -->
<g id="Node000014" class="node">
<title>Node14</title>
<g id="a_Node000014"><a xlink:href="../../da/d26/_texture_8cpp.html" target="_top" xlink:title=" ">
<polygon fill="white" stroke="#666666" points="603.88,-244 482.12,-244 482.12,-224 603.88,-224 603.88,-244"/>
<text xml:space="preserve" text-anchor="middle" x="543" y="-230.5" font-family="Helvetica,sans-Serif" font-size="10.00">src/renderer/Texture.cpp</text>
</a>
</g>
</g>
<!-- Node12&#45;&gt;Node14 -->
<g id="edge24_Node000012_Node000014" class="edge">
<title>Node12&#45;&gt;Node14</title>
<g id="a_edge24_Node000012_Node000014"><a xlink:title=" ">
<path fill="none" stroke="#63b8ff" d="M365.92,-282.64C408.11,-271.29 469.72,-254.72 508.03,-244.41"/>
<polygon fill="#63b8ff" stroke="#63b8ff" points="365.05,-279.25 356.31,-285.23 366.87,-286.01 365.05,-279.25"/>
</a>
</g>
</g>
<!-- Node13&#45;&gt;Node2 -->
<g id="edge21_Node000013_Node000002" class="edge">
<title>Node13&#45;&gt;Node2</title>
<g id="a_edge21_Node000013_Node000002"><a xlink:title=" ">
<path fill="none" stroke="#63b8ff" d="M319.03,-212.69C316.35,-185.69 316.22,-138.32 343,-112 373.15,-82.37 486.33,-72.25 561.78,-68.79"/>
<polygon fill="#63b8ff" stroke="#63b8ff" points="315.52,-212.83 320.22,-222.32 322.47,-211.97 315.52,-212.83"/>
</a>
</g>
</g>
<!-- Node13&#45;&gt;Node5 -->
<g id="edge22_Node000013_Node000005" class="edge">
<title>Node13&#45;&gt;Node5</title>
<g id="a_edge22_Node000013_Node000005"><a xlink:title=" ">
<path fill="none" stroke="#63b8ff" d="M287.75,-219.4C263.45,-209.75 231.45,-197.05 209.87,-188.48"/>
<polygon fill="#63b8ff" stroke="#63b8ff" points="286.32,-222.6 296.9,-223.04 288.9,-216.09 286.32,-222.6"/>
</a>
</g>
</g>
<!-- Node15&#45;&gt;Node2 -->
<g id="edge26_Node000015_Node000002" class="edge">
<title>Node15&#45;&gt;Node2</title>
<g id="a_edge26_Node000015_Node000002"><a xlink:title=" ">
<path fill="none" stroke="#63b8ff" d="M551.27,-276.6C584.13,-267.46 617.4,-255.84 629,-244 674.79,-197.22 646.46,-105.75 635.65,-76.34"/>
<polygon fill="#63b8ff" stroke="#63b8ff" points="550.37,-273.22 541.64,-279.21 552.2,-279.98 550.37,-273.22"/>
</a>
</g>
</g>
<!-- Node15&#45;&gt;Node9 -->
<g id="edge27_Node000015_Node000009" class="edge">
<title>Node15&#45;&gt;Node9</title>
<g id="a_edge27_Node000015_Node000009"><a xlink:title=" ">
<path fill="none" stroke="#63b8ff" d="M546.98,-276.38C576.08,-267.42 604.58,-256.03 613,-244 618.1,-236.72 617.69,-231.55 613,-224 592.89,-191.6 487.15,-150.65 436.33,-132.45"/>
<polygon fill="#63b8ff" stroke="#63b8ff" points="546.3,-272.93 537.71,-279.13 548.3,-279.64 546.3,-272.93"/>
</a>
</g>
</g>
<!-- Node15&#45;&gt;Node16 -->
<g id="edge28_Node000015_Node000016" class="edge">
<title>Node15&#45;&gt;Node16</title>
<g id="a_edge28_Node000015_Node000016"><a xlink:title=" ">
<path fill="none" stroke="#63b8ff" d="M555.01,-279.64C629.05,-266.15 703.34,-253.01 752.18,-244.42"/>
<polygon fill="#63b8ff" stroke="#63b8ff" points="554.79,-276.12 545.58,-281.36 556.05,-283.01 554.79,-276.12"/>
</a>
</g>
</g>
</g>
</svg>
