<?xml version="1.0" encoding="UTF-8" standalone="no"?>
<!DOCTYPE svg PUBLIC "-//W3C//DTD SVG 1.1//EN"
 "http://www.w3.org/Graphics/SVG/1.1/DTD/svg11.dtd">
<!-- Generated by graphviz version 2.43.0 (0)
 -->
<!-- Title: DirectoryWindow::ImageData Pages: 1 -->
<svg width="202pt" height="153pt"
 viewBox="0.00 0.00 202.00 153.00" xmlns="http://www.w3.org/2000/svg" xmlns:xlink="http://www.w3.org/1999/xlink">
<g id="graph0" class="graph" transform="scale(1 1) rotate(0) translate(4 149)">
<title>DirectoryWindow::ImageData</title>
<!-- Node1 -->
<g id="Node000001" class="node">
<title>Node1</title>
<g id="a_Node000001"><a xlink:title=" ">
<polygon fill="#999999" stroke="transparent" points="179,-49 25,-49 25,0 179,0 179,-49"/>
<text text-anchor="start" x="30" y="-36.5" font-family="Helvetica,sans-Serif" font-size="10.00">DirectoryWindow::ImageData</text>
<text text-anchor="start" x="100" y="-21.5" font-family="Helvetica,sans-Serif" font-size="10.00"> </text>
<text text-anchor="start" x="100" y="-6.5" font-family="Helvetica,sans-Serif" font-size="10.00"> </text>
<polygon fill="#666666" stroke="#666666" points="25,-31.5 25,-31.5 179,-31.5 179,-31.5 25,-31.5"/>
<polygon fill="#666666" stroke="#666666" points="25,-16.5 25,-16.5 179,-16.5 179,-16.5 25,-16.5"/>
<polygon fill="none" stroke="#666666" points="25,0 25,-49 179,-49 179,0 25,0"/>
</a>
</g>
</g>
<!-- Node2 -->
<g id="Node000002" class="node">
<title>Node2</title>
<g id="a_Node000002"><a xlink:title=" ">
<polygon fill="white" stroke="transparent" points="42,-145 0,-145 0,-96 42,-96 42,-145"/>
<text text-anchor="start" x="5" y="-132.5" font-family="Helvetica,sans-Serif" font-size="10.00">GLuint</text>
<text text-anchor="start" x="19" y="-117.5" font-family="Helvetica,sans-Serif" font-size="10.00"> </text>
<text text-anchor="start" x="19" y="-102.5" font-family="Helvetica,sans-Serif" font-size="10.00"> </text>
<polygon fill="#666666" stroke="#666666" points="0,-127.5 0,-127.5 42,-127.5 42,-127.5 0,-127.5"/>
<polygon fill="#666666" stroke="#666666" points="0,-112.5 0,-112.5 42,-112.5 42,-112.5 0,-112.5"/>
<polygon fill="none" stroke="#666666" points="0,-96 0,-145 42,-145 42,-96 0,-96"/>
</a>
</g>
</g>
<!-- Node2&#45;&gt;Node1 -->
<g id="edge1_Node000001_Node000002" class="edge">
<title>Node2&#45;&gt;Node1</title>
<g id="a_edge1_Node000001_Node000002"><a xlink:title=" ">
<path fill="none" stroke="#63b8ff" d="M26.08,-95.94C29,-86.27 33.43,-75.4 40,-67 42.8,-63.42 45.99,-60.05 49.43,-56.89"/>
<polygon fill="none" stroke="#63b8ff" points="49.69,-56.66 51.77,-49.76 58.95,-49.02 56.87,-55.93 49.69,-56.66"/>
</a>
</g>
<text text-anchor="middle" x="69" y="-70" font-family="Helvetica,sans-Serif" font-size="10.00" fill="grey"> +textureID</text>
</g>
<!-- Node3 -->
<g id="Node000003" class="node">
<title>Node3</title>
<g id="a_Node000003"><a xlink:title=" ">
<polygon fill="white" stroke="transparent" points="119,-145 85,-145 85,-96 119,-96 119,-145"/>
<text text-anchor="start" x="90" y="-132.5" font-family="Helvetica,sans-Serif" font-size="10.00">vec2</text>
<text text-anchor="start" x="100" y="-117.5" font-family="Helvetica,sans-Serif" font-size="10.00"> </text>
<text text-anchor="start" x="100" y="-102.5" font-family="Helvetica,sans-Serif" font-size="10.00"> </text>
<polygon fill="#666666" stroke="#666666" points="85,-127.5 85,-127.5 119,-127.5 119,-127.5 85,-127.5"/>
<polygon fill="#666666" stroke="#666666" points="85,-112.5 85,-112.5 119,-112.5 119,-112.5 85,-112.5"/>
<polygon fill="none" stroke="#666666" points="85,-96 85,-145 119,-145 119,-96 85,-96"/>
</a>
</g>
</g>
<!-- Node3&#45;&gt;Node1 -->
<g id="edge2_Node000001_Node000003" class="edge">
<title>Node3&#45;&gt;Node1</title>
<g id="a_edge2_Node000001_Node000003"><a xlink:title=" ">
<path fill="none" stroke="#63b8ff" d="M102,-95.78C102,-85.32 102,-72.79 102,-61.23"/>
<polygon fill="none" stroke="#63b8ff" points="102,-61.21 98,-55.21 102,-49.21 106,-55.21 102,-61.21"/>
</a>
</g>
<text text-anchor="middle" x="117.5" y="-70" font-family="Helvetica,sans-Serif" font-size="10.00" fill="grey"> +size</text>
</g>
<!-- Node4 -->
<g id="Node000004" class="node">
<title>Node4</title>
<g id="a_Node000004"><a xlink:title=" ">
<polygon fill="white" stroke="transparent" points="175,-145 137,-145 137,-96 175,-96 175,-145"/>
<text text-anchor="start" x="142" y="-132.5" font-family="Helvetica,sans-Serif" font-size="10.00">string</text>
<text text-anchor="start" x="154" y="-117.5" font-family="Helvetica,sans-Serif" font-size="10.00"> </text>
<text text-anchor="start" x="154" y="-102.5" font-family="Helvetica,sans-Serif" font-size="10.00"> </text>
<polygon fill="#666666" stroke="#666666" points="137,-127.5 137,-127.5 175,-127.5 175,-127.5 137,-127.5"/>
<polygon fill="#666666" stroke="#666666" points="137,-112.5 137,-112.5 175,-112.5 175,-112.5 137,-112.5"/>
<polygon fill="none" stroke="#666666" points="137,-96 137,-145 175,-145 175,-96 137,-96"/>
</a>
</g>
</g>
<!-- Node4&#45;&gt;Node1 -->
<g id="edge3_Node000001_Node000004" class="edge">
<title>Node4&#45;&gt;Node1</title>
<g id="a_edge3_Node000001_Node000004"><a xlink:title=" ">
<path fill="none" stroke="#63b8ff" d="M147.62,-95.88C143.94,-86.61 139.27,-76.05 134,-67 132.48,-64.39 130.81,-61.75 129.07,-59.14"/>
<polygon fill="none" stroke="#63b8ff" points="129.03,-59.1 122.29,-56.54 122.06,-49.33 128.8,-51.89 129.03,-59.1"/>
</a>
</g>
<text text-anchor="middle" x="166.5" y="-70" font-family="Helvetica,sans-Serif" font-size="10.00" fill="grey"> +filename</text>
</g>
</g>
</svg>
